<?xml version="1.0" encoding="utf-8" standalone="no"?>
<!DOCTYPE svg PUBLIC "-//W3C//DTD SVG 1.1//EN"
  "http://www.w3.org/Graphics/SVG/1.1/DTD/svg11.dtd">
<svg xmlns:xlink="http://www.w3.org/1999/xlink" width="1080pt" height="432pt" viewBox="0 0 1080 432" xmlns="http://www.w3.org/2000/svg" version="1.1">
 <metadata>
  <rdf:RDF xmlns:dc="http://purl.org/dc/elements/1.1/" xmlns:cc="http://creativecommons.org/ns#" xmlns:rdf="http://www.w3.org/1999/02/22-rdf-syntax-ns#">
   <cc:Work>
    <dc:type rdf:resource="http://purl.org/dc/dcmitype/StillImage"/>
    <dc:date>2024-04-18T10:35:13.641210</dc:date>
    <dc:format>image/svg+xml</dc:format>
    <dc:creator>
     <cc:Agent>
      <dc:title>Matplotlib v3.7.2, https://matplotlib.org/</dc:title>
     </cc:Agent>
    </dc:creator>
   </cc:Work>
  </rdf:RDF>
 </metadata>
 <defs>
  <style type="text/css">*{stroke-linejoin: round; stroke-linecap: butt}</style>
 </defs>
 <g id="figure_1">
  <g id="patch_1">
   <path d="M 0 432 
L 1080 432 
L 1080 0 
L 0 0 
z
" style="fill: #ffffff"/>
  </g>
  <g id="axes_1">
   <g id="patch_2">
    <path d="M 52.28 382.12 
L 1055.85 382.12 
L 1055.85 28.32 
L 52.28 28.32 
z
" style="fill: #ffffff"/>
   </g>
   <g id="matplotlib.axis_1">
    <g id="xtick_1">
     <g id="line2d_1">
      <defs>
       <path id="m323bb2fd76" d="M 0 0 
L 0 3.5 
" style="stroke: #000000; stroke-width: 0.8"/>
      </defs>
      <g>
       <use xlink:href="#m323bb2fd76" x="52.28" y="382.12" style="stroke: #000000; stroke-width: 0.8"/>
      </g>
     </g>
     <g id="text_1">
      <!-- 0 -->
      <g transform="translate(48.943438 397.709375) scale(0.12 -0.12)">
       <defs>
        <path id="ArialMT-30" d="M 266 2259 
Q 266 3072 433 3567 
Q 600 4063 929 4331 
Q 1259 4600 1759 4600 
Q 2128 4600 2406 4451 
Q 2684 4303 2865 4023 
Q 3047 3744 3150 3342 
Q 3253 2941 3253 2259 
Q 3253 1453 3087 958 
Q 2922 463 2592 192 
Q 2263 -78 1759 -78 
Q 1097 -78 719 397 
Q 266 969 266 2259 
z
M 844 2259 
Q 844 1131 1108 757 
Q 1372 384 1759 384 
Q 2147 384 2411 759 
Q 2675 1134 2675 2259 
Q 2675 3391 2411 3762 
Q 2147 4134 1753 4134 
Q 1366 4134 1134 3806 
Q 844 3388 844 2259 
z
" transform="scale(0.015625)"/>
       </defs>
       <use xlink:href="#ArialMT-30"/>
      </g>
     </g>
    </g>
    <g id="xtick_2">
     <g id="line2d_2">
      <g>
       <use xlink:href="#m323bb2fd76" x="252.994" y="382.12" style="stroke: #000000; stroke-width: 0.8"/>
      </g>
     </g>
     <g id="text_2">
      <!-- 200 -->
      <g transform="translate(242.984312 397.709375) scale(0.12 -0.12)">
       <defs>
        <path id="ArialMT-32" d="M 3222 541 
L 3222 0 
L 194 0 
Q 188 203 259 391 
Q 375 700 629 1000 
Q 884 1300 1366 1694 
Q 2113 2306 2375 2664 
Q 2638 3022 2638 3341 
Q 2638 3675 2398 3904 
Q 2159 4134 1775 4134 
Q 1369 4134 1125 3890 
Q 881 3647 878 3216 
L 300 3275 
Q 359 3922 746 4261 
Q 1134 4600 1788 4600 
Q 2447 4600 2831 4234 
Q 3216 3869 3216 3328 
Q 3216 3053 3103 2787 
Q 2991 2522 2730 2228 
Q 2469 1934 1863 1422 
Q 1356 997 1212 845 
Q 1069 694 975 541 
L 3222 541 
z
" transform="scale(0.015625)"/>
       </defs>
       <use xlink:href="#ArialMT-32"/>
       <use xlink:href="#ArialMT-30" x="55.615234"/>
       <use xlink:href="#ArialMT-30" x="111.230469"/>
      </g>
     </g>
    </g>
    <g id="xtick_3">
     <g id="line2d_3">
      <g>
       <use xlink:href="#m323bb2fd76" x="453.708" y="382.12" style="stroke: #000000; stroke-width: 0.8"/>
      </g>
     </g>
     <g id="text_3">
      <!-- 400 -->
      <g transform="translate(443.698312 397.709375) scale(0.12 -0.12)">
       <defs>
        <path id="ArialMT-34" d="M 2069 0 
L 2069 1097 
L 81 1097 
L 81 1613 
L 2172 4581 
L 2631 4581 
L 2631 1613 
L 3250 1613 
L 3250 1097 
L 2631 1097 
L 2631 0 
L 2069 0 
z
M 2069 1613 
L 2069 3678 
L 634 1613 
L 2069 1613 
z
" transform="scale(0.015625)"/>
       </defs>
       <use xlink:href="#ArialMT-34"/>
       <use xlink:href="#ArialMT-30" x="55.615234"/>
       <use xlink:href="#ArialMT-30" x="111.230469"/>
      </g>
     </g>
    </g>
    <g id="xtick_4">
     <g id="line2d_4">
      <g>
       <use xlink:href="#m323bb2fd76" x="654.422" y="382.12" style="stroke: #000000; stroke-width: 0.8"/>
      </g>
     </g>
     <g id="text_4">
      <!-- 600 -->
      <g transform="translate(644.412312 397.709375) scale(0.12 -0.12)">
       <defs>
        <path id="ArialMT-36" d="M 3184 3459 
L 2625 3416 
Q 2550 3747 2413 3897 
Q 2184 4138 1850 4138 
Q 1581 4138 1378 3988 
Q 1113 3794 959 3422 
Q 806 3050 800 2363 
Q 1003 2672 1297 2822 
Q 1591 2972 1913 2972 
Q 2475 2972 2870 2558 
Q 3266 2144 3266 1488 
Q 3266 1056 3080 686 
Q 2894 316 2569 119 
Q 2244 -78 1831 -78 
Q 1128 -78 684 439 
Q 241 956 241 2144 
Q 241 3472 731 4075 
Q 1159 4600 1884 4600 
Q 2425 4600 2770 4297 
Q 3116 3994 3184 3459 
z
M 888 1484 
Q 888 1194 1011 928 
Q 1134 663 1356 523 
Q 1578 384 1822 384 
Q 2178 384 2434 671 
Q 2691 959 2691 1453 
Q 2691 1928 2437 2201 
Q 2184 2475 1800 2475 
Q 1419 2475 1153 2201 
Q 888 1928 888 1484 
z
" transform="scale(0.015625)"/>
       </defs>
       <use xlink:href="#ArialMT-36"/>
       <use xlink:href="#ArialMT-30" x="55.615234"/>
       <use xlink:href="#ArialMT-30" x="111.230469"/>
      </g>
     </g>
    </g>
    <g id="xtick_5">
     <g id="line2d_5">
      <g>
       <use xlink:href="#m323bb2fd76" x="855.136" y="382.12" style="stroke: #000000; stroke-width: 0.8"/>
      </g>
     </g>
     <g id="text_5">
      <!-- 800 -->
      <g transform="translate(845.126312 397.709375) scale(0.12 -0.12)">
       <defs>
        <path id="ArialMT-38" d="M 1131 2484 
Q 781 2613 612 2850 
Q 444 3088 444 3419 
Q 444 3919 803 4259 
Q 1163 4600 1759 4600 
Q 2359 4600 2725 4251 
Q 3091 3903 3091 3403 
Q 3091 3084 2923 2848 
Q 2756 2613 2416 2484 
Q 2838 2347 3058 2040 
Q 3278 1734 3278 1309 
Q 3278 722 2862 322 
Q 2447 -78 1769 -78 
Q 1091 -78 675 323 
Q 259 725 259 1325 
Q 259 1772 486 2073 
Q 713 2375 1131 2484 
z
M 1019 3438 
Q 1019 3113 1228 2906 
Q 1438 2700 1772 2700 
Q 2097 2700 2305 2904 
Q 2513 3109 2513 3406 
Q 2513 3716 2298 3927 
Q 2084 4138 1766 4138 
Q 1444 4138 1231 3931 
Q 1019 3725 1019 3438 
z
M 838 1322 
Q 838 1081 952 856 
Q 1066 631 1291 507 
Q 1516 384 1775 384 
Q 2178 384 2440 643 
Q 2703 903 2703 1303 
Q 2703 1709 2433 1975 
Q 2163 2241 1756 2241 
Q 1359 2241 1098 1978 
Q 838 1716 838 1322 
z
" transform="scale(0.015625)"/>
       </defs>
       <use xlink:href="#ArialMT-38"/>
       <use xlink:href="#ArialMT-30" x="55.615234"/>
       <use xlink:href="#ArialMT-30" x="111.230469"/>
      </g>
     </g>
    </g>
    <g id="xtick_6">
     <g id="line2d_6">
      <g>
       <use xlink:href="#m323bb2fd76" x="1055.85" y="382.12" style="stroke: #000000; stroke-width: 0.8"/>
      </g>
     </g>
     <g id="text_6">
      <!-- 1000 -->
      <g transform="translate(1042.50375 397.709375) scale(0.12 -0.12)">
       <defs>
        <path id="ArialMT-31" d="M 2384 0 
L 1822 0 
L 1822 3584 
Q 1619 3391 1289 3197 
Q 959 3003 697 2906 
L 697 3450 
Q 1169 3672 1522 3987 
Q 1875 4303 2022 4600 
L 2384 4600 
L 2384 0 
z
" transform="scale(0.015625)"/>
       </defs>
       <use xlink:href="#ArialMT-31"/>
       <use xlink:href="#ArialMT-30" x="55.615234"/>
       <use xlink:href="#ArialMT-30" x="111.230469"/>
       <use xlink:href="#ArialMT-30" x="166.845703"/>
      </g>
     </g>
    </g>
    <g id="text_7">
     <!-- Number of generations -->
     <g transform="translate(462.520937 417.197812) scale(0.18 -0.18)">
      <defs>
       <path id="ArialMT-4e" d="M 488 0 
L 488 4581 
L 1109 4581 
L 3516 984 
L 3516 4581 
L 4097 4581 
L 4097 0 
L 3475 0 
L 1069 3600 
L 1069 0 
L 488 0 
z
" transform="scale(0.015625)"/>
       <path id="ArialMT-75" d="M 2597 0 
L 2597 488 
Q 2209 -75 1544 -75 
Q 1250 -75 995 37 
Q 741 150 617 320 
Q 494 491 444 738 
Q 409 903 409 1263 
L 409 3319 
L 972 3319 
L 972 1478 
Q 972 1038 1006 884 
Q 1059 663 1231 536 
Q 1403 409 1656 409 
Q 1909 409 2131 539 
Q 2353 669 2445 892 
Q 2538 1116 2538 1541 
L 2538 3319 
L 3100 3319 
L 3100 0 
L 2597 0 
z
" transform="scale(0.015625)"/>
       <path id="ArialMT-6d" d="M 422 0 
L 422 3319 
L 925 3319 
L 925 2853 
Q 1081 3097 1340 3245 
Q 1600 3394 1931 3394 
Q 2300 3394 2536 3241 
Q 2772 3088 2869 2813 
Q 3263 3394 3894 3394 
Q 4388 3394 4653 3120 
Q 4919 2847 4919 2278 
L 4919 0 
L 4359 0 
L 4359 2091 
Q 4359 2428 4304 2576 
Q 4250 2725 4106 2815 
Q 3963 2906 3769 2906 
Q 3419 2906 3187 2673 
Q 2956 2441 2956 1928 
L 2956 0 
L 2394 0 
L 2394 2156 
Q 2394 2531 2256 2718 
Q 2119 2906 1806 2906 
Q 1569 2906 1367 2781 
Q 1166 2656 1075 2415 
Q 984 2175 984 1722 
L 984 0 
L 422 0 
z
" transform="scale(0.015625)"/>
       <path id="ArialMT-62" d="M 941 0 
L 419 0 
L 419 4581 
L 981 4581 
L 981 2947 
Q 1338 3394 1891 3394 
Q 2197 3394 2470 3270 
Q 2744 3147 2920 2923 
Q 3097 2700 3197 2384 
Q 3297 2069 3297 1709 
Q 3297 856 2875 390 
Q 2453 -75 1863 -75 
Q 1275 -75 941 416 
L 941 0 
z
M 934 1684 
Q 934 1088 1097 822 
Q 1363 388 1816 388 
Q 2184 388 2453 708 
Q 2722 1028 2722 1663 
Q 2722 2313 2464 2622 
Q 2206 2931 1841 2931 
Q 1472 2931 1203 2611 
Q 934 2291 934 1684 
z
" transform="scale(0.015625)"/>
       <path id="ArialMT-65" d="M 2694 1069 
L 3275 997 
Q 3138 488 2766 206 
Q 2394 -75 1816 -75 
Q 1088 -75 661 373 
Q 234 822 234 1631 
Q 234 2469 665 2931 
Q 1097 3394 1784 3394 
Q 2450 3394 2872 2941 
Q 3294 2488 3294 1666 
Q 3294 1616 3291 1516 
L 816 1516 
Q 847 969 1125 678 
Q 1403 388 1819 388 
Q 2128 388 2347 550 
Q 2566 713 2694 1069 
z
M 847 1978 
L 2700 1978 
Q 2663 2397 2488 2606 
Q 2219 2931 1791 2931 
Q 1403 2931 1139 2672 
Q 875 2413 847 1978 
z
" transform="scale(0.015625)"/>
       <path id="ArialMT-72" d="M 416 0 
L 416 3319 
L 922 3319 
L 922 2816 
Q 1116 3169 1280 3281 
Q 1444 3394 1641 3394 
Q 1925 3394 2219 3213 
L 2025 2691 
Q 1819 2813 1613 2813 
Q 1428 2813 1281 2702 
Q 1134 2591 1072 2394 
Q 978 2094 978 1738 
L 978 0 
L 416 0 
z
" transform="scale(0.015625)"/>
       <path id="ArialMT-20" transform="scale(0.015625)"/>
       <path id="ArialMT-6f" d="M 213 1659 
Q 213 2581 725 3025 
Q 1153 3394 1769 3394 
Q 2453 3394 2887 2945 
Q 3322 2497 3322 1706 
Q 3322 1066 3130 698 
Q 2938 331 2570 128 
Q 2203 -75 1769 -75 
Q 1072 -75 642 372 
Q 213 819 213 1659 
z
M 791 1659 
Q 791 1022 1069 705 
Q 1347 388 1769 388 
Q 2188 388 2466 706 
Q 2744 1025 2744 1678 
Q 2744 2294 2464 2611 
Q 2184 2928 1769 2928 
Q 1347 2928 1069 2612 
Q 791 2297 791 1659 
z
" transform="scale(0.015625)"/>
       <path id="ArialMT-66" d="M 556 0 
L 556 2881 
L 59 2881 
L 59 3319 
L 556 3319 
L 556 3672 
Q 556 4006 616 4169 
Q 697 4388 901 4523 
Q 1106 4659 1475 4659 
Q 1713 4659 2000 4603 
L 1916 4113 
Q 1741 4144 1584 4144 
Q 1328 4144 1222 4034 
Q 1116 3925 1116 3625 
L 1116 3319 
L 1763 3319 
L 1763 2881 
L 1116 2881 
L 1116 0 
L 556 0 
z
" transform="scale(0.015625)"/>
       <path id="ArialMT-67" d="M 319 -275 
L 866 -356 
Q 900 -609 1056 -725 
Q 1266 -881 1628 -881 
Q 2019 -881 2231 -725 
Q 2444 -569 2519 -288 
Q 2563 -116 2559 434 
Q 2191 0 1641 0 
Q 956 0 581 494 
Q 206 988 206 1678 
Q 206 2153 378 2554 
Q 550 2956 876 3175 
Q 1203 3394 1644 3394 
Q 2231 3394 2613 2919 
L 2613 3319 
L 3131 3319 
L 3131 450 
Q 3131 -325 2973 -648 
Q 2816 -972 2473 -1159 
Q 2131 -1347 1631 -1347 
Q 1038 -1347 672 -1080 
Q 306 -813 319 -275 
z
M 784 1719 
Q 784 1066 1043 766 
Q 1303 466 1694 466 
Q 2081 466 2343 764 
Q 2606 1063 2606 1700 
Q 2606 2309 2336 2618 
Q 2066 2928 1684 2928 
Q 1309 2928 1046 2623 
Q 784 2319 784 1719 
z
" transform="scale(0.015625)"/>
       <path id="ArialMT-6e" d="M 422 0 
L 422 3319 
L 928 3319 
L 928 2847 
Q 1294 3394 1984 3394 
Q 2284 3394 2536 3286 
Q 2788 3178 2913 3003 
Q 3038 2828 3088 2588 
Q 3119 2431 3119 2041 
L 3119 0 
L 2556 0 
L 2556 2019 
Q 2556 2363 2490 2533 
Q 2425 2703 2258 2804 
Q 2091 2906 1866 2906 
Q 1506 2906 1245 2678 
Q 984 2450 984 1813 
L 984 0 
L 422 0 
z
" transform="scale(0.015625)"/>
       <path id="ArialMT-61" d="M 2588 409 
Q 2275 144 1986 34 
Q 1697 -75 1366 -75 
Q 819 -75 525 192 
Q 231 459 231 875 
Q 231 1119 342 1320 
Q 453 1522 633 1644 
Q 813 1766 1038 1828 
Q 1203 1872 1538 1913 
Q 2219 1994 2541 2106 
Q 2544 2222 2544 2253 
Q 2544 2597 2384 2738 
Q 2169 2928 1744 2928 
Q 1347 2928 1158 2789 
Q 969 2650 878 2297 
L 328 2372 
Q 403 2725 575 2942 
Q 747 3159 1072 3276 
Q 1397 3394 1825 3394 
Q 2250 3394 2515 3294 
Q 2781 3194 2906 3042 
Q 3031 2891 3081 2659 
Q 3109 2516 3109 2141 
L 3109 1391 
Q 3109 606 3145 398 
Q 3181 191 3288 0 
L 2700 0 
Q 2613 175 2588 409 
z
M 2541 1666 
Q 2234 1541 1622 1453 
Q 1275 1403 1131 1340 
Q 988 1278 909 1158 
Q 831 1038 831 891 
Q 831 666 1001 516 
Q 1172 366 1500 366 
Q 1825 366 2078 508 
Q 2331 650 2450 897 
Q 2541 1088 2541 1459 
L 2541 1666 
z
" transform="scale(0.015625)"/>
       <path id="ArialMT-74" d="M 1650 503 
L 1731 6 
Q 1494 -44 1306 -44 
Q 1000 -44 831 53 
Q 663 150 594 308 
Q 525 466 525 972 
L 525 2881 
L 113 2881 
L 113 3319 
L 525 3319 
L 525 4141 
L 1084 4478 
L 1084 3319 
L 1650 3319 
L 1650 2881 
L 1084 2881 
L 1084 941 
Q 1084 700 1114 631 
Q 1144 563 1211 522 
Q 1278 481 1403 481 
Q 1497 481 1650 503 
z
" transform="scale(0.015625)"/>
       <path id="ArialMT-69" d="M 425 3934 
L 425 4581 
L 988 4581 
L 988 3934 
L 425 3934 
z
M 425 0 
L 425 3319 
L 988 3319 
L 988 0 
L 425 0 
z
" transform="scale(0.015625)"/>
       <path id="ArialMT-73" d="M 197 991 
L 753 1078 
Q 800 744 1014 566 
Q 1228 388 1613 388 
Q 2000 388 2187 545 
Q 2375 703 2375 916 
Q 2375 1106 2209 1216 
Q 2094 1291 1634 1406 
Q 1016 1563 777 1677 
Q 538 1791 414 1992 
Q 291 2194 291 2438 
Q 291 2659 392 2848 
Q 494 3038 669 3163 
Q 800 3259 1026 3326 
Q 1253 3394 1513 3394 
Q 1903 3394 2198 3281 
Q 2494 3169 2634 2976 
Q 2775 2784 2828 2463 
L 2278 2388 
Q 2241 2644 2061 2787 
Q 1881 2931 1553 2931 
Q 1166 2931 1000 2803 
Q 834 2675 834 2503 
Q 834 2394 903 2306 
Q 972 2216 1119 2156 
Q 1203 2125 1616 2013 
Q 2213 1853 2448 1751 
Q 2684 1650 2818 1456 
Q 2953 1263 2953 975 
Q 2953 694 2789 445 
Q 2625 197 2315 61 
Q 2006 -75 1616 -75 
Q 969 -75 630 194 
Q 291 463 197 991 
z
" transform="scale(0.015625)"/>
      </defs>
      <use xlink:href="#ArialMT-4e"/>
      <use xlink:href="#ArialMT-75" x="72.216797"/>
      <use xlink:href="#ArialMT-6d" x="127.832031"/>
      <use xlink:href="#ArialMT-62" x="211.132812"/>
      <use xlink:href="#ArialMT-65" x="266.748047"/>
      <use xlink:href="#ArialMT-72" x="322.363281"/>
      <use xlink:href="#ArialMT-20" x="355.664062"/>
      <use xlink:href="#ArialMT-6f" x="383.447266"/>
      <use xlink:href="#ArialMT-66" x="439.0625"/>
      <use xlink:href="#ArialMT-20" x="466.845703"/>
      <use xlink:href="#ArialMT-67" x="494.628906"/>
      <use xlink:href="#ArialMT-65" x="550.244141"/>
      <use xlink:href="#ArialMT-6e" x="605.859375"/>
      <use xlink:href="#ArialMT-65" x="661.474609"/>
      <use xlink:href="#ArialMT-72" x="717.089844"/>
      <use xlink:href="#ArialMT-61" x="750.390625"/>
      <use xlink:href="#ArialMT-74" x="806.005859"/>
      <use xlink:href="#ArialMT-69" x="833.789062"/>
      <use xlink:href="#ArialMT-6f" x="856.005859"/>
      <use xlink:href="#ArialMT-6e" x="911.621094"/>
      <use xlink:href="#ArialMT-73" x="967.236328"/>
     </g>
    </g>
   </g>
   <g id="matplotlib.axis_2">
    <g id="ytick_1">
     <g id="line2d_7">
      <defs>
       <path id="md0d0c7d633" d="M 0 0 
L -3.5 0 
" style="stroke: #000000; stroke-width: 0.8"/>
      </defs>
      <g>
       <use xlink:href="#md0d0c7d633" x="52.28" y="382.12" style="stroke: #000000; stroke-width: 0.8"/>
      </g>
     </g>
     <g id="text_8">
      <!-- 0.0 -->
      <g transform="translate(31.38 385.698906) scale(0.1 -0.1)">
       <defs>
        <path id="ArialMT-2e" d="M 581 0 
L 581 641 
L 1222 641 
L 1222 0 
L 581 0 
z
" transform="scale(0.015625)"/>
       </defs>
       <use xlink:href="#ArialMT-30"/>
       <use xlink:href="#ArialMT-2e" x="55.615234"/>
       <use xlink:href="#ArialMT-30" x="83.398438"/>
      </g>
     </g>
    </g>
    <g id="ytick_2">
     <g id="line2d_8">
      <g>
       <use xlink:href="#md0d0c7d633" x="52.28" y="311.36" style="stroke: #000000; stroke-width: 0.8"/>
      </g>
     </g>
     <g id="text_9">
      <!-- 0.2 -->
      <g transform="translate(31.38 314.938906) scale(0.1 -0.1)">
       <use xlink:href="#ArialMT-30"/>
       <use xlink:href="#ArialMT-2e" x="55.615234"/>
       <use xlink:href="#ArialMT-32" x="83.398438"/>
      </g>
     </g>
    </g>
    <g id="ytick_3">
     <g id="line2d_9">
      <g>
       <use xlink:href="#md0d0c7d633" x="52.28" y="240.6" style="stroke: #000000; stroke-width: 0.8"/>
      </g>
     </g>
     <g id="text_10">
      <!-- 0.4 -->
      <g transform="translate(31.38 244.178906) scale(0.1 -0.1)">
       <use xlink:href="#ArialMT-30"/>
       <use xlink:href="#ArialMT-2e" x="55.615234"/>
       <use xlink:href="#ArialMT-34" x="83.398438"/>
      </g>
     </g>
    </g>
    <g id="ytick_4">
     <g id="line2d_10">
      <g>
       <use xlink:href="#md0d0c7d633" x="52.28" y="169.84" style="stroke: #000000; stroke-width: 0.8"/>
      </g>
     </g>
     <g id="text_11">
      <!-- 0.6 -->
      <g transform="translate(31.38 173.418906) scale(0.1 -0.1)">
       <use xlink:href="#ArialMT-30"/>
       <use xlink:href="#ArialMT-2e" x="55.615234"/>
       <use xlink:href="#ArialMT-36" x="83.398438"/>
      </g>
     </g>
    </g>
    <g id="ytick_5">
     <g id="line2d_11">
      <g>
       <use xlink:href="#md0d0c7d633" x="52.28" y="99.08" style="stroke: #000000; stroke-width: 0.8"/>
      </g>
     </g>
     <g id="text_12">
      <!-- 0.8 -->
      <g transform="translate(31.38 102.658906) scale(0.1 -0.1)">
       <use xlink:href="#ArialMT-30"/>
       <use xlink:href="#ArialMT-2e" x="55.615234"/>
       <use xlink:href="#ArialMT-38" x="83.398438"/>
      </g>
     </g>
    </g>
    <g id="ytick_6">
     <g id="line2d_12">
      <g>
       <use xlink:href="#md0d0c7d633" x="52.28" y="28.32" style="stroke: #000000; stroke-width: 0.8"/>
      </g>
     </g>
     <g id="text_13">
      <!-- 1.0 -->
      <g transform="translate(31.38 31.898906) scale(0.1 -0.1)">
       <use xlink:href="#ArialMT-31"/>
       <use xlink:href="#ArialMT-2e" x="55.615234"/>
       <use xlink:href="#ArialMT-30" x="83.398438"/>
      </g>
     </g>
    </g>
    <g id="text_14">
     <!-- NMF mean Pearson correlation score -->
     <g transform="translate(23.8025 354.769062) rotate(-90) scale(0.18 -0.18)">
      <defs>
       <path id="ArialMT-4d" d="M 475 0 
L 475 4581 
L 1388 4581 
L 2472 1338 
Q 2622 884 2691 659 
Q 2769 909 2934 1394 
L 4031 4581 
L 4847 4581 
L 4847 0 
L 4263 0 
L 4263 3834 
L 2931 0 
L 2384 0 
L 1059 3900 
L 1059 0 
L 475 0 
z
" transform="scale(0.015625)"/>
       <path id="ArialMT-46" d="M 525 0 
L 525 4581 
L 3616 4581 
L 3616 4041 
L 1131 4041 
L 1131 2622 
L 3281 2622 
L 3281 2081 
L 1131 2081 
L 1131 0 
L 525 0 
z
" transform="scale(0.015625)"/>
       <path id="ArialMT-50" d="M 494 0 
L 494 4581 
L 2222 4581 
Q 2678 4581 2919 4538 
Q 3256 4481 3484 4323 
Q 3713 4166 3852 3881 
Q 3991 3597 3991 3256 
Q 3991 2672 3619 2267 
Q 3247 1863 2275 1863 
L 1100 1863 
L 1100 0 
L 494 0 
z
M 1100 2403 
L 2284 2403 
Q 2872 2403 3119 2622 
Q 3366 2841 3366 3238 
Q 3366 3525 3220 3729 
Q 3075 3934 2838 4000 
Q 2684 4041 2272 4041 
L 1100 4041 
L 1100 2403 
z
" transform="scale(0.015625)"/>
       <path id="ArialMT-63" d="M 2588 1216 
L 3141 1144 
Q 3050 572 2676 248 
Q 2303 -75 1759 -75 
Q 1078 -75 664 370 
Q 250 816 250 1647 
Q 250 2184 428 2587 
Q 606 2991 970 3192 
Q 1334 3394 1763 3394 
Q 2303 3394 2647 3120 
Q 2991 2847 3088 2344 
L 2541 2259 
Q 2463 2594 2264 2762 
Q 2066 2931 1784 2931 
Q 1359 2931 1093 2626 
Q 828 2322 828 1663 
Q 828 994 1084 691 
Q 1341 388 1753 388 
Q 2084 388 2306 591 
Q 2528 794 2588 1216 
z
" transform="scale(0.015625)"/>
       <path id="ArialMT-6c" d="M 409 0 
L 409 4581 
L 972 4581 
L 972 0 
L 409 0 
z
" transform="scale(0.015625)"/>
      </defs>
      <use xlink:href="#ArialMT-4e"/>
      <use xlink:href="#ArialMT-4d" x="72.216797"/>
      <use xlink:href="#ArialMT-46" x="155.517578"/>
      <use xlink:href="#ArialMT-20" x="216.601562"/>
      <use xlink:href="#ArialMT-6d" x="244.384766"/>
      <use xlink:href="#ArialMT-65" x="327.685547"/>
      <use xlink:href="#ArialMT-61" x="383.300781"/>
      <use xlink:href="#ArialMT-6e" x="438.916016"/>
      <use xlink:href="#ArialMT-20" x="494.53125"/>
      <use xlink:href="#ArialMT-50" x="522.314453"/>
      <use xlink:href="#ArialMT-65" x="589.013672"/>
      <use xlink:href="#ArialMT-61" x="644.628906"/>
      <use xlink:href="#ArialMT-72" x="700.244141"/>
      <use xlink:href="#ArialMT-73" x="733.544922"/>
      <use xlink:href="#ArialMT-6f" x="783.544922"/>
      <use xlink:href="#ArialMT-6e" x="839.160156"/>
      <use xlink:href="#ArialMT-20" x="894.775391"/>
      <use xlink:href="#ArialMT-63" x="922.558594"/>
      <use xlink:href="#ArialMT-6f" x="972.558594"/>
      <use xlink:href="#ArialMT-72" x="1028.173828"/>
      <use xlink:href="#ArialMT-72" x="1061.474609"/>
      <use xlink:href="#ArialMT-65" x="1094.775391"/>
      <use xlink:href="#ArialMT-6c" x="1150.390625"/>
      <use xlink:href="#ArialMT-61" x="1172.607422"/>
      <use xlink:href="#ArialMT-74" x="1228.222656"/>
      <use xlink:href="#ArialMT-69" x="1256.005859"/>
      <use xlink:href="#ArialMT-6f" x="1278.222656"/>
      <use xlink:href="#ArialMT-6e" x="1333.837891"/>
      <use xlink:href="#ArialMT-20" x="1389.453125"/>
      <use xlink:href="#ArialMT-73" x="1417.236328"/>
      <use xlink:href="#ArialMT-63" x="1467.236328"/>
      <use xlink:href="#ArialMT-6f" x="1517.236328"/>
      <use xlink:href="#ArialMT-72" x="1572.851562"/>
      <use xlink:href="#ArialMT-65" x="1606.152344"/>
     </g>
    </g>
   </g>
   <g id="line2d_13">
    <path d="M 52.28 163.529379 
L 54.28714 163.529379 
L 55.29071 140.71863 
L 56.29428 105.917741 
L 57.29785 98.203547 
L 59.30499 98.203547 
L 60.30856 95.536394 
L 61.31213 92.453284 
L 62.3157 86.938658 
L 63.31927 61.111789 
L 64.32284 60.084996 
L 65.32641 60.084996 
L 66.32998 59.875045 
L 67.33355 50.101475 
L 69.34069 47.968716 
L 70.34426 47.679523 
L 71.34783 39.194822 
L 75.36211 39.194822 
L 76.36568 38.821319 
L 77.36925 38.821319 
L 78.37282 38.484141 
L 80.37996 38.484141 
L 81.38353 37.993684 
L 82.3871 37.993684 
L 83.39067 37.713729 
L 85.39781 37.713729 
L 86.40138 37.584408 
L 87.40495 37.584408 
L 88.40852 37.248298 
L 89.41209 36.543391 
L 90.41566 36.543391 
L 91.41923 36.150662 
L 93.42637 36.089156 
L 94.42994 35.656122 
L 97.44065 35.634452 
L 98.44422 35.425254 
L 99.44779 35.425254 
L 101.45493 35.208397 
L 102.4585 35.22713 
L 103.46207 34.321098 
L 109.48349 34.073718 
L 110.48706 33.780048 
L 113.49777 33.778564 
L 114.50134 33.61208 
L 115.50491 33.031925 
L 128.55132 32.936768 
L 129.55489 32.734022 
L 130.55846 32.936768 
L 142.6013 32.936768 
L 143.60487 32.731301 
L 150.62986 32.62979 
L 151.63343 32.499117 
L 153.64057 32.499117 
L 154.64414 32.28977 
L 157.65485 32.186791 
L 162.6727 31.936035 
L 165.68341 31.850327 
L 167.69055 31.769965 
L 178.72982 31.712266 
L 179.73339 31.586 
L 180.73696 31.712266 
L 198.80122 31.630341 
L 201.81193 31.525013 
L 206.82978 31.525013 
L 207.83335 31.280946 
L 211.84763 31.201739 
L 217.86905 31.064762 
L 336.29031 30.966055 
L 346.32601 30.926681 
L 353.351 30.874496 
L 356.36171 30.754424 
L 357.36528 30.805823 
L 359.37242 30.709336 
L 362.38313 30.663444 
L 661.44699 30.605719 
L 662.45056 30.529873 
L 664.4577 30.605719 
L 1055.85 30.566817 
L 1055.85 30.566817 
" clip-path="url(#pfa6f7d1e39)" style="fill: none; stroke: #0000ff; stroke-width: 0.8; stroke-linecap: square"/>
   </g>
   <g id="line2d_14">
    <path d="M 52.28 254.974544 
L 53.28357 238.985979 
L 54.28714 178.916837 
L 55.29071 217.543156 
L 56.29428 213.033201 
L 57.29785 170.021549 
L 58.30142 195.431862 
L 59.30499 192.423382 
L 60.30856 220.795661 
L 61.31213 201.332398 
L 62.3157 259.3354 
L 63.31927 188.23259 
L 64.32284 189.020819 
L 65.32641 223.774025 
L 66.32998 221.349063 
L 67.33355 202.205251 
L 68.33712 240.055395 
L 69.34069 203.895395 
L 70.34426 247.536001 
L 71.34783 234.709179 
L 72.3514 224.588689 
L 73.35497 227.542222 
L 74.35854 283.110678 
L 75.36211 172.016987 
L 76.36568 202.943108 
L 77.36925 209.613447 
L 78.37282 261.346323 
L 79.37639 230.193727 
L 80.37996 254.535827 
L 81.38353 248.562862 
L 82.3871 234.530347 
L 83.39067 242.609359 
L 84.39424 213.245324 
L 85.39781 226.825619 
L 86.40138 226.230411 
L 87.40495 230.384144 
L 88.40852 173.067485 
L 89.41209 191.002062 
L 90.41566 201.328223 
L 91.41923 253.417481 
L 92.4228 190.023111 
L 93.42637 201.452027 
L 94.42994 202.235976 
L 95.43351 220.17368 
L 96.43708 184.702042 
L 97.44065 234.782773 
L 98.44422 206.251256 
L 99.44779 188.420182 
L 100.45136 230.722808 
L 101.45493 222.159824 
L 102.4585 249.97135 
L 103.46207 147.827659 
L 104.46564 226.360621 
L 105.46921 215.262767 
L 106.47278 210.022081 
L 107.47635 193.218248 
L 108.47992 234.423462 
L 109.48349 183.067947 
L 110.48706 255.971034 
L 111.49063 203.937515 
L 112.4942 170.960192 
L 113.49777 170.5426 
L 114.50134 229.268288 
L 115.50491 256.966387 
L 117.51205 202.401272 
L 118.51562 262.922015 
L 119.51919 206.871078 
L 120.52276 207.368687 
L 121.52633 193.891699 
L 122.5299 234.204964 
L 123.53347 254.68722 
L 124.53704 216.068807 
L 125.54061 195.617505 
L 126.54418 271.931132 
L 127.54775 210.305511 
L 128.55132 234.635646 
L 129.55489 201.057086 
L 130.55846 201.481491 
L 131.56203 163.162303 
L 132.5656 228.730035 
L 133.56917 166.437938 
L 134.57274 192.799546 
L 135.57631 253.653131 
L 136.57988 168.691598 
L 137.58345 196.69669 
L 138.58702 206.405693 
L 139.59059 242.135941 
L 140.59416 156.875884 
L 141.59773 191.227198 
L 142.6013 196.438899 
L 143.60487 257.467094 
L 144.60844 227.992104 
L 145.61201 216.134995 
L 146.61558 258.049885 
L 147.61915 215.259702 
L 148.62272 241.69248 
L 149.62629 205.275081 
L 150.62986 215.73824 
L 151.63343 259.485755 
L 152.637 171.551798 
L 153.64057 212.250221 
L 154.64414 209.998959 
L 155.64771 243.19128 
L 156.65128 250.205725 
L 157.65485 277.16136 
L 158.65842 245.418305 
L 159.66199 221.728929 
L 160.66556 238.260429 
L 161.66913 303.45485 
L 162.6727 263.540067 
L 163.67627 250.991382 
L 164.67984 214.928967 
L 165.68341 170.642653 
L 166.68698 217.012857 
L 167.69055 221.077347 
L 168.69412 223.861766 
L 169.69769 251.939601 
L 170.70126 227.420608 
L 171.70483 271.589735 
L 172.7084 192.406112 
L 173.71197 257.454226 
L 174.71554 220.979935 
L 175.71911 232.273004 
L 176.72268 207.660672 
L 177.72625 207.996917 
L 178.72982 246.627623 
L 179.73339 235.611078 
L 180.73696 220.970754 
L 181.74053 211.041401 
L 182.7441 194.310977 
L 183.74767 237.875991 
L 184.75124 180.323473 
L 185.75481 188.826429 
L 186.75838 245.140792 
L 187.76195 268.15171 
L 188.76552 235.753162 
L 189.76909 274.815659 
L 190.77266 222.863848 
L 191.77623 218.035249 
L 192.7798 232.115633 
L 193.78337 140.07591 
L 194.78694 287.253271 
L 195.79051 262.709406 
L 196.79408 199.529637 
L 197.79765 222.560143 
L 198.80122 175.849753 
L 199.80479 206.138145 
L 200.80836 226.337962 
L 201.81193 225.865512 
L 202.8155 251.468688 
L 203.81907 245.950612 
L 204.82264 223.07119 
L 205.82621 209.796352 
L 206.82978 256.912609 
L 207.83335 250.696565 
L 208.83692 201.150012 
L 209.84049 211.13208 
L 210.84406 262.515389 
L 211.84763 175.406232 
L 212.8512 209.743087 
L 213.85477 186.697427 
L 214.85834 166.977179 
L 215.86191 172.160977 
L 216.86548 182.815835 
L 217.86905 217.391165 
L 218.87262 214.081591 
L 219.87619 206.471317 
L 220.87976 228.726947 
L 222.8869 260.9429 
L 223.89047 202.375436 
L 224.89404 219.428396 
L 225.89761 203.148452 
L 226.90118 216.770545 
L 227.90475 243.762911 
L 228.90832 259.334737 
L 229.91189 228.352527 
L 230.91546 188.779966 
L 231.91903 250.881662 
L 232.9226 175.267181 
L 233.92617 196.567157 
L 234.92974 200.150076 
L 235.93331 197.901276 
L 236.93688 194.943323 
L 237.94045 221.138516 
L 238.94402 240.079836 
L 239.94759 240.003813 
L 240.95116 213.181071 
L 241.95473 247.58847 
L 242.9583 236.488608 
L 243.96187 243.813006 
L 244.96544 241.672218 
L 245.96901 201.071649 
L 246.97258 198.218554 
L 247.97615 224.963419 
L 248.97972 273.418308 
L 249.98329 238.787543 
L 250.98686 197.344531 
L 251.99043 212.204513 
L 252.994 176.371467 
L 253.99757 200.048604 
L 255.00114 260.623881 
L 256.00471 212.959464 
L 257.00828 221.943012 
L 258.01185 236.042074 
L 259.01542 189.561661 
L 260.01899 281.844358 
L 261.02256 202.011272 
L 262.02613 206.510894 
L 263.0297 237.536892 
L 264.03327 230.012424 
L 265.03684 231.375557 
L 266.04041 247.865294 
L 267.04398 208.243935 
L 268.04755 200.828871 
L 269.05112 204.806612 
L 270.05469 256.330246 
L 271.05826 247.129847 
L 272.06183 203.088398 
L 273.0654 145.709538 
L 274.06897 201.423178 
L 275.07254 281.032338 
L 276.07611 205.890774 
L 277.07968 194.372355 
L 278.08325 220.295458 
L 279.08682 222.537453 
L 280.09039 201.964612 
L 281.09396 243.646189 
L 282.09753 246.19684 
L 283.1011 283.204409 
L 284.10467 218.616355 
L 285.10824 227.308846 
L 286.11181 253.877846 
L 287.11538 220.201314 
L 288.11895 248.962771 
L 289.12252 220.955448 
L 290.12609 220.765235 
L 291.12966 222.62171 
L 292.13323 225.824423 
L 293.1368 193.241019 
L 294.14037 231.732644 
L 295.14394 241.454139 
L 296.14751 269.35861 
L 298.15465 230.367548 
L 299.15822 256.868175 
L 300.16179 183.869944 
L 301.16536 235.390827 
L 302.16893 224.54303 
L 303.1725 205.762507 
L 304.17607 197.181967 
L 305.17964 156.547387 
L 306.18321 192.91989 
L 307.18678 189.542062 
L 308.19035 289.516049 
L 309.19392 215.949072 
L 310.19749 222.859151 
L 311.20106 210.054208 
L 312.20463 239.400133 
L 313.2082 245.739426 
L 314.21177 209.315105 
L 315.21534 208.185076 
L 316.21891 211.687985 
L 317.22248 175.416579 
L 318.22605 214.786316 
L 319.22962 213.542957 
L 321.23676 173.039761 
L 322.24033 191.584143 
L 323.2439 238.37179 
L 324.24747 166.382038 
L 325.25104 243.92078 
L 326.25461 216.907132 
L 327.25818 200.158498 
L 328.26175 234.760028 
L 329.26532 174.965243 
L 330.26889 247.689616 
L 331.27246 181.779592 
L 332.27603 242.507797 
L 333.2796 232.000493 
L 334.28317 200.034914 
L 335.28674 270.243642 
L 336.29031 221.625853 
L 338.29745 245.267548 
L 339.30102 238.312772 
L 340.30459 227.190557 
L 341.30816 237.587239 
L 342.31173 184.418974 
L 343.3153 274.316054 
L 344.31887 162.1615 
L 345.32244 177.609859 
L 346.32601 229.713707 
L 347.32958 210.030669 
L 348.33315 221.78508 
L 349.33672 237.281531 
L 350.34029 191.324029 
L 351.34386 176.422931 
L 352.34743 121.636267 
L 353.351 211.29297 
L 354.35457 229.104806 
L 355.35814 271.430362 
L 356.36171 251.159871 
L 357.36528 205.294093 
L 358.36885 233.589884 
L 359.37242 268.461211 
L 360.37599 178.553517 
L 361.37956 244.880908 
L 362.38313 209.6498 
L 363.3867 220.235045 
L 364.39027 221.137694 
L 365.39384 252.578527 
L 366.39741 250.827871 
L 367.40098 203.330407 
L 368.40455 231.51069 
L 369.40812 247.567831 
L 370.41169 190.27033 
L 371.41526 195.9343 
L 372.41883 214.834585 
L 373.4224 222.213263 
L 374.42597 203.105802 
L 375.42954 222.547591 
L 376.43311 211.775721 
L 377.43668 243.156239 
L 378.44025 183.29983 
L 379.44382 234.660693 
L 380.44739 259.985618 
L 381.45096 164.121502 
L 382.45453 253.557677 
L 383.4581 226.693868 
L 384.46167 174.428454 
L 385.46524 212.031174 
L 386.46881 157.202371 
L 387.47238 210.369173 
L 388.47595 290.57165 
L 389.47952 233.222239 
L 390.48309 242.5709 
L 391.48666 186.664582 
L 392.49023 208.477939 
L 393.4938 243.809628 
L 394.49737 217.554428 
L 395.50094 261.348361 
L 396.50451 201.794906 
L 397.50808 249.464668 
L 398.51165 270.230723 
L 399.51522 223.396451 
L 400.51879 243.620917 
L 401.52236 166.26676 
L 402.52593 273.631169 
L 403.5295 242.418993 
L 404.53307 254.766102 
L 405.53664 205.839635 
L 406.54021 230.137097 
L 407.54378 231.326331 
L 408.54735 200.374162 
L 409.55092 223.741557 
L 410.55449 254.463188 
L 411.55806 220.650124 
L 412.56163 273.490488 
L 413.5652 156.441626 
L 414.56877 214.60794 
L 415.57234 242.855139 
L 416.57591 166.380488 
L 417.57948 271.968581 
L 418.58305 183.357912 
L 419.58662 192.641126 
L 420.59019 164.157541 
L 421.59376 226.192541 
L 422.59733 202.146458 
L 423.6009 234.463812 
L 424.60447 292.668068 
L 425.60804 228.690126 
L 426.61161 214.146963 
L 427.61518 214.282721 
L 428.61875 226.265386 
L 429.62232 210.945405 
L 430.62589 223.972424 
L 431.62946 210.113371 
L 432.63303 182.578559 
L 433.6366 264.882302 
L 434.64017 188.44112 
L 435.64374 228.417791 
L 436.64731 257.047364 
L 437.65088 228.325554 
L 438.65445 235.78231 
L 439.65802 266.829412 
L 440.66159 264.906517 
L 441.66516 264.279051 
L 442.66873 200.009549 
L 443.6723 261.12531 
L 444.67587 201.507669 
L 445.67944 194.966079 
L 446.68301 209.244986 
L 447.68658 172.734338 
L 448.69015 201.082863 
L 449.69372 224.279517 
L 450.69729 243.654602 
L 451.70086 295.179275 
L 452.70443 178.878383 
L 453.708 223.694044 
L 455.71514 180.406977 
L 456.71871 198.100858 
L 457.72228 234.705161 
L 458.72585 250.102121 
L 459.72942 163.613823 
L 460.73299 273.146799 
L 461.73656 175.464701 
L 462.74013 238.840572 
L 463.7437 275.333033 
L 464.74727 227.453442 
L 465.75084 148.176835 
L 466.75441 265.872011 
L 467.75798 263.376531 
L 468.76155 262.463432 
L 469.76512 223.913413 
L 470.76869 224.963488 
L 471.77226 232.760914 
L 472.77583 248.744347 
L 473.7794 198.595204 
L 474.78297 167.28043 
L 475.78654 213.640055 
L 476.79011 162.616 
L 477.79368 222.280279 
L 478.79725 192.08233 
L 479.80082 250.854577 
L 480.80439 245.809775 
L 481.80796 246.35648 
L 482.81153 194.710685 
L 483.8151 189.186955 
L 484.81867 265.575679 
L 485.82224 215.52119 
L 486.82581 215.775011 
L 487.82938 232.380652 
L 488.83295 201.51601 
L 489.83652 267.920571 
L 490.84009 201.192567 
L 491.84366 248.867665 
L 492.84723 227.21207 
L 493.8508 259.872045 
L 494.85437 194.340182 
L 495.85794 207.830974 
L 496.86151 186.841318 
L 497.86508 206.073092 
L 498.86865 282.431517 
L 499.87222 227.208626 
L 500.87579 214.935573 
L 501.87936 238.665713 
L 502.88293 173.467663 
L 503.8865 247.695481 
L 504.89007 224.704297 
L 505.89364 194.249384 
L 506.89721 216.732964 
L 507.90078 286.266298 
L 508.90435 217.955543 
L 509.90792 230.346948 
L 510.91149 246.496591 
L 511.91506 219.954117 
L 512.91863 245.992881 
L 513.9222 278.520917 
L 514.92577 169.810317 
L 516.93291 246.864986 
L 517.93648 213.879395 
L 518.94005 214.669077 
L 519.94362 252.385919 
L 520.94719 241.850974 
L 521.95076 229.882201 
L 522.95433 186.581907 
L 523.9579 191.496276 
L 524.96147 192.781995 
L 525.96504 233.045593 
L 526.96861 233.781459 
L 527.97218 223.852828 
L 528.97575 234.27942 
L 529.97932 208.703896 
L 530.98289 280.829658 
L 531.98646 286.090098 
L 532.99003 183.255158 
L 533.9936 130.480397 
L 534.99717 231.620092 
L 536.00074 175.137697 
L 537.00431 261.440742 
L 538.00788 236.766204 
L 539.01145 252.032696 
L 540.01502 140.890676 
L 541.01859 244.271659 
L 542.02216 239.190422 
L 543.02573 250.066768 
L 544.0293 139.639042 
L 545.03287 203.734468 
L 546.03644 239.454769 
L 547.04001 226.032549 
L 548.04358 263.037794 
L 549.04715 227.46804 
L 550.05072 231.706096 
L 551.05429 227.011948 
L 552.05786 220.763711 
L 553.06143 233.073905 
L 554.065 242.614923 
L 555.06857 167.241941 
L 556.07214 232.944949 
L 557.07571 214.867229 
L 558.07928 178.000017 
L 559.08285 178.480011 
L 560.08642 139.018949 
L 561.08999 144.211434 
L 562.09356 252.540443 
L 563.09713 239.072786 
L 564.1007 265.841149 
L 565.10427 178.859933 
L 566.10784 214.473152 
L 567.11141 201.439869 
L 568.11498 242.91714 
L 569.11855 172.138281 
L 570.12212 256.557063 
L 571.12569 186.603833 
L 572.12926 199.147954 
L 573.13283 192.820789 
L 574.1364 232.181806 
L 575.13997 234.593969 
L 576.14354 227.915538 
L 577.14711 224.752463 
L 578.15068 181.680927 
L 579.15425 264.42808 
L 580.15782 290.927189 
L 581.16139 222.498786 
L 582.16496 204.240386 
L 583.16853 190.424241 
L 584.1721 253.583103 
L 585.17567 182.939152 
L 586.17924 254.047785 
L 587.18281 194.737071 
L 588.18638 231.368403 
L 589.18995 231.890954 
L 590.19352 230.864773 
L 591.19709 236.788708 
L 592.20066 199.472368 
L 593.20423 195.618041 
L 594.2078 230.324306 
L 595.21137 173.603595 
L 596.21494 258.698544 
L 597.21851 160.176771 
L 598.22208 253.83037 
L 600.22922 226.206234 
L 601.23279 243.988442 
L 602.23636 229.26685 
L 603.23993 316.146807 
L 604.2435 229.10987 
L 605.24707 213.940225 
L 606.25064 284.114098 
L 607.25421 208.932666 
L 608.25778 190.292988 
L 609.26135 220.601369 
L 610.26492 179.410449 
L 611.26849 250.081731 
L 612.27206 262.717495 
L 613.27563 267.338187 
L 614.2792 220.72199 
L 615.28277 244.213075 
L 616.28634 235.864888 
L 617.28991 182.444936 
L 618.29348 252.608429 
L 619.29705 211.249064 
L 620.30062 192.256919 
L 621.30419 234.685901 
L 622.30776 181.775648 
L 623.31133 182.568739 
L 624.3149 230.117366 
L 625.31847 202.982501 
L 626.32204 238.598498 
L 627.32561 228.516631 
L 628.32918 225.755136 
L 629.33275 288.340031 
L 630.33632 194.478222 
L 631.33989 200.47551 
L 632.34346 172.770181 
L 633.34703 236.240848 
L 634.3506 198.738324 
L 635.35417 210.757123 
L 636.35774 111.223056 
L 637.36131 239.796184 
L 638.36488 218.619829 
L 639.36845 265.048712 
L 640.37202 250.466967 
L 641.37559 253.839034 
L 642.37916 265.320719 
L 643.38273 197.434377 
L 644.3863 239.574195 
L 645.38987 126.47798 
L 646.39344 204.946154 
L 647.39701 203.579589 
L 648.40058 210.656303 
L 649.40415 189.828027 
L 650.40772 150.227878 
L 651.41129 216.974168 
L 652.41486 222.927313 
L 653.41843 192.40134 
L 654.422 185.6319 
L 655.42557 215.44963 
L 656.42914 279.945378 
L 657.43271 208.648413 
L 658.43628 236.121178 
L 659.43985 183.146579 
L 660.44342 185.468202 
L 661.44699 241.380187 
L 662.45056 250.878761 
L 663.45413 252.405575 
L 664.4577 211.914347 
L 665.46127 155.5198 
L 666.46484 231.003222 
L 667.46841 214.085615 
L 668.47198 223.306097 
L 669.47555 225.254543 
L 670.47912 244.55334 
L 671.48269 270.655495 
L 673.48983 182.006401 
L 674.4934 208.683941 
L 675.49697 276.856678 
L 676.50054 234.880471 
L 677.50411 225.20901 
L 678.50768 208.727682 
L 679.51125 180.218659 
L 680.51482 196.693335 
L 681.51839 233.236641 
L 682.52196 261.860802 
L 683.52553 242.357096 
L 684.5291 237.985075 
L 685.53267 268.591703 
L 686.53624 187.030356 
L 687.53981 139.783266 
L 688.54338 224.241667 
L 689.54695 246.010309 
L 690.55052 235.50852 
L 691.55409 270.297564 
L 692.55766 225.460605 
L 693.56123 226.285047 
L 694.5648 261.355425 
L 695.56837 214.473716 
L 696.57194 214.727425 
L 697.57551 235.391335 
L 698.57908 234.26206 
L 699.58265 175.303081 
L 700.58622 236.771564 
L 701.58979 246.906235 
L 702.59336 255.40553 
L 703.59693 243.111746 
L 704.6005 270.823679 
L 705.60407 230.231943 
L 706.60764 212.141163 
L 707.61121 238.155737 
L 708.61478 245.191048 
L 709.61835 163.908031 
L 710.62192 196.319764 
L 711.62549 219.754651 
L 712.62906 175.475459 
L 713.63263 248.237876 
L 714.6362 203.003101 
L 715.63977 206.754319 
L 716.64334 171.613933 
L 717.64691 223.967711 
L 718.65048 205.071802 
L 719.65405 189.18398 
L 720.65762 215.354537 
L 721.66119 263.358284 
L 722.66476 211.916758 
L 723.66833 207.628208 
L 724.6719 207.585169 
L 725.67547 265.704806 
L 726.67904 157.336529 
L 727.68261 292.623156 
L 728.68618 162.477964 
L 729.68975 190.999993 
L 730.69332 205.807772 
L 731.69689 137.262631 
L 732.70046 231.011271 
L 733.70403 210.039669 
L 734.7076 247.345836 
L 735.71117 279.512952 
L 736.71474 192.937681 
L 737.71831 187.132809 
L 738.72188 201.530307 
L 739.72545 192.435833 
L 740.72902 255.793443 
L 741.73259 258.60104 
L 742.73616 217.467494 
L 743.73973 221.80402 
L 744.7433 225.035648 
L 745.74687 187.488894 
L 746.75044 217.166271 
L 747.75401 238.435613 
L 748.75758 175.180303 
L 749.76115 204.425185 
L 750.76472 207.177328 
L 752.77186 169.877357 
L 753.77543 198.499481 
L 754.779 180.918043 
L 755.78257 219.554442 
L 756.78614 238.64839 
L 757.78971 225.315187 
L 758.79328 168.701809 
L 759.79685 227.740509 
L 760.80042 215.018407 
L 761.80399 222.423336 
L 762.80756 176.310041 
L 763.81113 234.28953 
L 764.8147 227.381475 
L 765.81827 209.496696 
L 766.82184 278.455353 
L 767.82541 255.632304 
L 768.82898 213.986943 
L 769.83255 189.89229 
L 770.83612 248.868689 
L 771.83969 227.501589 
L 772.84326 200.608682 
L 773.84683 219.993367 
L 774.8504 212.55417 
L 775.85397 211.201617 
L 776.85754 183.793053 
L 777.86111 264.124114 
L 778.86468 222.411074 
L 779.86825 165.262515 
L 780.87182 195.347549 
L 781.87539 198.671877 
L 782.87896 270.432432 
L 783.88253 221.515513 
L 784.8861 235.652296 
L 785.88967 236.775276 
L 786.89324 217.798443 
L 787.89681 216.861245 
L 788.90038 238.762771 
L 789.90395 275.437523 
L 790.90752 203.833145 
L 791.91109 238.113457 
L 792.91466 197.12384 
L 793.91823 231.408509 
L 794.9218 169.727471 
L 795.92537 157.438109 
L 796.92894 201.949879 
L 797.93251 217.36354 
L 798.93608 159.883483 
L 799.93965 194.94382 
L 800.94322 224.756683 
L 801.94679 280.716336 
L 802.95036 227.031002 
L 803.95393 217.218964 
L 804.9575 251.546291 
L 805.96107 206.000969 
L 806.96464 202.955511 
L 807.96821 248.094123 
L 808.97178 259.252997 
L 810.97892 183.959593 
L 811.98249 222.946345 
L 812.98606 192.894824 
L 813.98963 229.805495 
L 814.9932 157.115425 
L 815.99677 295.059748 
L 817.00034 229.236613 
L 818.00391 221.663994 
L 819.00748 225.739032 
L 820.01105 188.741369 
L 821.01462 274.178999 
L 822.01819 290.651679 
L 823.02176 187.332868 
L 824.02533 222.092909 
L 825.0289 225.737845 
L 826.03247 215.24978 
L 827.03604 249.82302 
L 828.03961 175.70288 
L 829.04318 266.523499 
L 830.04675 217.594877 
L 831.05032 220.021072 
L 832.05389 282.517049 
L 833.05746 190.036884 
L 834.06103 287.616163 
L 835.0646 280.809446 
L 836.06817 221.872251 
L 837.07174 185.448119 
L 838.07531 162.11992 
L 839.07888 267.16607 
L 840.08245 241.238431 
L 841.08602 173.245022 
L 842.08959 220.923816 
L 843.09316 203.797788 
L 844.09673 196.264409 
L 845.1003 190.749842 
L 846.10387 210.813672 
L 847.10744 261.31048 
L 848.11101 251.411857 
L 849.11458 162.131245 
L 851.12172 280.746184 
L 852.12529 198.311015 
L 853.12886 194.042487 
L 854.13243 237.176723 
L 855.136 245.160312 
L 856.13957 220.936978 
L 857.14314 262.834622 
L 858.14671 294.044913 
L 859.15028 227.046567 
L 860.15385 230.078904 
L 861.15742 211.914506 
L 862.16099 225.221291 
L 863.16456 215.202184 
L 864.16813 212.183339 
L 865.1717 299.375174 
L 866.17527 246.000107 
L 867.17884 233.433981 
L 868.18241 236.724685 
L 869.18598 229.629623 
L 870.18955 184.545958 
L 871.19312 194.209403 
L 872.19669 268.383813 
L 873.20026 194.054712 
L 874.20383 307.78986 
L 875.2074 211.591531 
L 876.21097 204.435979 
L 878.21811 277.275751 
L 879.22168 166.59714 
L 881.22882 245.3418 
L 882.23239 167.3034 
L 883.23596 245.984716 
L 884.23953 224.071682 
L 885.2431 223.210934 
L 886.24667 235.521566 
L 887.25024 204.525652 
L 888.25381 205.337216 
L 889.25738 234.895425 
L 890.26095 204.306594 
L 891.26452 217.99801 
L 892.26809 239.521457 
L 893.27166 248.539033 
L 894.27523 210.026105 
L 895.2788 184.955945 
L 896.28237 212.929988 
L 897.28594 162.432082 
L 898.28951 273.76077 
L 899.29308 233.989881 
L 900.29665 225.999945 
L 901.30022 148.387459 
L 902.30379 210.186003 
L 903.30736 176.507948 
L 904.31093 227.281501 
L 905.3145 215.515459 
L 906.31807 273.496839 
L 907.32164 213.973128 
L 908.32521 266.706635 
L 909.32878 204.238181 
L 910.33235 239.220232 
L 911.33592 261.30671 
L 912.33949 243.650583 
L 913.34306 282.612595 
L 914.34663 233.477989 
L 915.3502 207.413702 
L 916.35377 256.932944 
L 917.35734 165.225252 
L 918.36091 226.756916 
L 919.36448 262.852927 
L 920.36805 182.630686 
L 921.37162 223.367183 
L 922.37519 209.156882 
L 923.37876 222.892007 
L 924.38233 249.79441 
L 925.3859 183.071833 
L 928.39661 240.164608 
L 929.40018 225.781663 
L 930.40375 262.865253 
L 931.40732 275.674054 
L 932.41089 196.841515 
L 933.41446 229.795663 
L 934.41803 161.532573 
L 935.4216 177.652199 
L 936.42517 163.940461 
L 937.42874 198.015448 
L 938.43231 139.77031 
L 939.43588 152.665558 
L 941.44302 227.02763 
L 942.44659 214.542967 
L 943.45016 229.02653 
L 944.45373 204.081841 
L 945.4573 226.677225 
L 946.46087 208.443138 
L 947.46444 220.292252 
L 948.46801 183.328553 
L 949.47158 216.727192 
L 950.47515 212.988368 
L 951.47872 267.803007 
L 952.48229 203.487671 
L 953.48586 250.687255 
L 954.48943 246.51291 
L 955.493 256.306942 
L 956.49657 247.341298 
L 957.50014 233.234777 
L 958.50371 216.195687 
L 959.50728 207.586672 
L 960.51085 251.009228 
L 961.51442 218.439611 
L 962.51799 242.667787 
L 963.52156 242.182013 
L 964.52513 269.924465 
L 965.5287 223.290451 
L 966.53227 247.083841 
L 967.53584 185.019655 
L 968.53941 152.734806 
L 969.54298 252.883093 
L 970.54655 257.186878 
L 971.55012 133.047489 
L 972.55369 222.329538 
L 973.55726 154.883004 
L 974.56083 256.21014 
L 975.5644 235.045462 
L 976.56797 178.873119 
L 977.57154 264.391697 
L 978.57511 248.500642 
L 979.57868 234.779484 
L 980.58225 277.301781 
L 981.58582 207.11728 
L 982.58939 180.010337 
L 983.59296 261.753606 
L 984.59653 273.80269 
L 985.6001 213.266255 
L 986.60367 205.589285 
L 987.60724 240.816058 
L 988.61081 194.337983 
L 989.61438 182.361313 
L 990.61795 245.536003 
L 991.62152 177.578261 
L 992.62509 289.800143 
L 993.62866 210.025835 
L 994.63223 198.886159 
L 995.6358 210.828279 
L 996.63937 199.365833 
L 997.64294 192.353478 
L 998.64651 223.634516 
L 999.65008 203.931625 
L 1000.65365 165.720152 
L 1001.65722 252.062754 
L 1002.66079 182.721992 
L 1003.66436 203.54014 
L 1004.66793 160.84096 
L 1005.6715 209.212326 
L 1006.67507 249.699234 
L 1007.67864 214.660058 
L 1008.68221 248.034016 
L 1009.68578 247.238946 
L 1010.68935 240.236441 
L 1011.69292 189.425144 
L 1012.69649 248.197046 
L 1013.70006 202.762207 
L 1014.70363 258.67907 
L 1015.7072 208.311253 
L 1016.71077 217.522866 
L 1017.71434 195.196183 
L 1018.71791 206.888242 
L 1019.72148 248.708198 
L 1020.72505 240.914327 
L 1021.72862 218.734212 
L 1022.73219 263.606634 
L 1023.73576 232.053048 
L 1024.73933 211.705614 
L 1025.7429 264.068768 
L 1026.74647 271.443186 
L 1027.75004 242.874012 
L 1028.75361 200.298542 
L 1029.75718 256.428462 
L 1030.76075 229.638583 
L 1031.76432 256.616005 
L 1032.76789 207.316259 
L 1033.77146 229.564682 
L 1034.77503 236.170186 
L 1035.7786 222.854136 
L 1036.78217 223.312542 
L 1037.78574 222.20142 
L 1038.78931 212.744144 
L 1039.79288 213.048227 
L 1040.79645 259.387269 
L 1041.80002 254.448129 
L 1042.80359 239.901833 
L 1043.80716 231.419106 
L 1044.81073 192.866811 
L 1045.8143 243.574723 
L 1046.81787 199.821724 
L 1047.82144 182.83301 
L 1048.82501 179.007554 
L 1049.82858 177.650532 
L 1050.83215 228.115304 
L 1051.83572 241.230538 
L 1052.83929 250.534929 
L 1053.84286 188.980604 
L 1054.84643 226.236263 
L 1054.84643 226.236263 
" clip-path="url(#pfa6f7d1e39)" style="fill: none; stroke: #ffa500; stroke-opacity: 0.7; stroke-width: 0.8; stroke-linecap: square"/>
   </g>
   <g id="line2d_15">
    <path d="M 52.28 254.974544 
L 53.28357 238.985979 
L 54.28714 178.916837 
L 56.29428 178.916837 
L 57.29785 170.021549 
L 102.4585 170.021549 
L 103.46207 147.827659 
L 192.7798 147.827659 
L 193.78337 140.07591 
L 351.34386 140.07591 
L 352.34743 121.636267 
L 635.35417 121.636267 
L 636.35774 111.223056 
L 1054.84643 111.223056 
L 1054.84643 111.223056 
" clip-path="url(#pfa6f7d1e39)" style="fill: none; stroke: #ff0000; stroke-opacity: 0.7; stroke-width: 0.8; stroke-linecap: square"/>
   </g>
   <g id="patch_3">
    <path d="M 52.28 382.12 
L 52.28 28.32 
" style="fill: none; stroke: #000000; stroke-width: 0.8; stroke-linejoin: miter; stroke-linecap: square"/>
   </g>
   <g id="patch_4">
    <path d="M 1055.85 382.12 
L 1055.85 28.32 
" style="fill: none; stroke: #000000; stroke-width: 0.8; stroke-linejoin: miter; stroke-linecap: square"/>
   </g>
   <g id="patch_5">
    <path d="M 52.28 382.12 
L 1055.85 382.12 
" style="fill: none; stroke: #000000; stroke-width: 0.8; stroke-linejoin: miter; stroke-linecap: square"/>
   </g>
   <g id="patch_6">
    <path d="M 52.28 28.32 
L 1055.85 28.32 
" style="fill: none; stroke: #000000; stroke-width: 0.8; stroke-linejoin: miter; stroke-linecap: square"/>
   </g>
   <g id="text_15">
    <!-- Dataset 2: Youn et al., 2018 -->
    <g transform="translate(455.7625 22.32) scale(0.16 -0.16)">
     <defs>
      <path id="ArialMT-44" d="M 494 0 
L 494 4581 
L 2072 4581 
Q 2606 4581 2888 4516 
Q 3281 4425 3559 4188 
Q 3922 3881 4101 3404 
Q 4281 2928 4281 2316 
Q 4281 1794 4159 1391 
Q 4038 988 3847 723 
Q 3656 459 3429 307 
Q 3203 156 2883 78 
Q 2563 0 2147 0 
L 494 0 
z
M 1100 541 
L 2078 541 
Q 2531 541 2789 625 
Q 3047 709 3200 863 
Q 3416 1078 3536 1442 
Q 3656 1806 3656 2325 
Q 3656 3044 3420 3430 
Q 3184 3816 2847 3947 
Q 2603 4041 2063 4041 
L 1100 4041 
L 1100 541 
z
" transform="scale(0.015625)"/>
      <path id="ArialMT-3a" d="M 578 2678 
L 578 3319 
L 1219 3319 
L 1219 2678 
L 578 2678 
z
M 578 0 
L 578 641 
L 1219 641 
L 1219 0 
L 578 0 
z
" transform="scale(0.015625)"/>
      <path id="ArialMT-59" d="M 1784 0 
L 1784 1941 
L 19 4581 
L 756 4581 
L 1659 3200 
Q 1909 2813 2125 2425 
Q 2331 2784 2625 3234 
L 3513 4581 
L 4219 4581 
L 2391 1941 
L 2391 0 
L 1784 0 
z
" transform="scale(0.015625)"/>
      <path id="ArialMT-2c" d="M 569 0 
L 569 641 
L 1209 641 
L 1209 0 
Q 1209 -353 1084 -570 
Q 959 -788 688 -906 
L 531 -666 
Q 709 -588 793 -436 
Q 878 -284 888 0 
L 569 0 
z
" transform="scale(0.015625)"/>
     </defs>
     <use xlink:href="#ArialMT-44"/>
     <use xlink:href="#ArialMT-61" x="72.216797"/>
     <use xlink:href="#ArialMT-74" x="127.832031"/>
     <use xlink:href="#ArialMT-61" x="155.615234"/>
     <use xlink:href="#ArialMT-73" x="211.230469"/>
     <use xlink:href="#ArialMT-65" x="261.230469"/>
     <use xlink:href="#ArialMT-74" x="316.845703"/>
     <use xlink:href="#ArialMT-20" x="344.628906"/>
     <use xlink:href="#ArialMT-32" x="372.412109"/>
     <use xlink:href="#ArialMT-3a" x="428.027344"/>
     <use xlink:href="#ArialMT-20" x="455.810547"/>
     <use xlink:href="#ArialMT-59" x="481.84375"/>
     <use xlink:href="#ArialMT-6f" x="539.417969"/>
     <use xlink:href="#ArialMT-75" x="595.033203"/>
     <use xlink:href="#ArialMT-6e" x="650.648438"/>
     <use xlink:href="#ArialMT-20" x="706.263672"/>
     <use xlink:href="#ArialMT-65" x="734.046875"/>
     <use xlink:href="#ArialMT-74" x="789.662109"/>
     <use xlink:href="#ArialMT-20" x="817.445312"/>
     <use xlink:href="#ArialMT-61" x="845.228516"/>
     <use xlink:href="#ArialMT-6c" x="900.84375"/>
     <use xlink:href="#ArialMT-2e" x="923.060547"/>
     <use xlink:href="#ArialMT-2c" x="950.84375"/>
     <use xlink:href="#ArialMT-20" x="978.626953"/>
     <use xlink:href="#ArialMT-32" x="1006.410156"/>
     <use xlink:href="#ArialMT-30" x="1062.025391"/>
     <use xlink:href="#ArialMT-31" x="1117.640625"/>
     <use xlink:href="#ArialMT-38" x="1173.255859"/>
    </g>
   </g>
   <g id="legend_1">
    <g id="patch_7">
     <path d="M 915.66375 376.12 
L 1047.45 376.12 
Q 1049.85 376.12 1049.85 373.72 
L 1049.85 323.996875 
Q 1049.85 321.596875 1047.45 321.596875 
L 915.66375 321.596875 
Q 913.26375 321.596875 913.26375 323.996875 
L 913.26375 373.72 
Q 913.26375 376.12 915.66375 376.12 
z
" style="fill: #ffffff; opacity: 0.8; stroke: #cccccc; stroke-linejoin: miter"/>
    </g>
    <g id="line2d_16">
     <path d="M 918.06375 330.78625 
L 930.06375 330.78625 
L 942.06375 330.78625 
" style="fill: none; stroke: #0000ff; stroke-width: 0.8; stroke-linecap: square"/>
    </g>
    <g id="text_16">
     <!-- GA -->
     <g transform="translate(951.66375 334.98625) scale(0.12 -0.12)">
      <defs>
       <path id="ArialMT-47" d="M 2638 1797 
L 2638 2334 
L 4578 2338 
L 4578 638 
Q 4131 281 3656 101 
Q 3181 -78 2681 -78 
Q 2006 -78 1454 211 
Q 903 500 622 1047 
Q 341 1594 341 2269 
Q 341 2938 620 3517 
Q 900 4097 1425 4378 
Q 1950 4659 2634 4659 
Q 3131 4659 3532 4498 
Q 3934 4338 4162 4050 
Q 4391 3763 4509 3300 
L 3963 3150 
Q 3859 3500 3706 3700 
Q 3553 3900 3268 4020 
Q 2984 4141 2638 4141 
Q 2222 4141 1919 4014 
Q 1616 3888 1430 3681 
Q 1244 3475 1141 3228 
Q 966 2803 966 2306 
Q 966 1694 1177 1281 
Q 1388 869 1791 669 
Q 2194 469 2647 469 
Q 3041 469 3416 620 
Q 3791 772 3984 944 
L 3984 1797 
L 2638 1797 
z
" transform="scale(0.015625)"/>
       <path id="ArialMT-41" d="M -9 0 
L 1750 4581 
L 2403 4581 
L 4278 0 
L 3588 0 
L 3053 1388 
L 1138 1388 
L 634 0 
L -9 0 
z
M 1313 1881 
L 2866 1881 
L 2388 3150 
Q 2169 3728 2063 4100 
Q 1975 3659 1816 3225 
L 1313 1881 
z
" transform="scale(0.015625)"/>
      </defs>
      <use xlink:href="#ArialMT-47"/>
      <use xlink:href="#ArialMT-41" x="77.783203"/>
     </g>
    </g>
    <g id="line2d_17">
     <path d="M 918.06375 347.760625 
L 930.06375 347.760625 
L 942.06375 347.760625 
" style="fill: none; stroke: #ffa500; stroke-opacity: 0.7; stroke-width: 0.8; stroke-linecap: square"/>
    </g>
    <g id="text_17">
     <!-- Random baseline -->
     <g transform="translate(951.66375 351.960625) scale(0.12 -0.12)">
      <defs>
       <path id="ArialMT-52" d="M 503 0 
L 503 4581 
L 2534 4581 
Q 3147 4581 3465 4457 
Q 3784 4334 3975 4021 
Q 4166 3709 4166 3331 
Q 4166 2844 3850 2509 
Q 3534 2175 2875 2084 
Q 3116 1969 3241 1856 
Q 3506 1613 3744 1247 
L 4541 0 
L 3778 0 
L 3172 953 
Q 2906 1366 2734 1584 
Q 2563 1803 2427 1890 
Q 2291 1978 2150 2013 
Q 2047 2034 1813 2034 
L 1109 2034 
L 1109 0 
L 503 0 
z
M 1109 2559 
L 2413 2559 
Q 2828 2559 3062 2645 
Q 3297 2731 3419 2920 
Q 3541 3109 3541 3331 
Q 3541 3656 3305 3865 
Q 3069 4075 2559 4075 
L 1109 4075 
L 1109 2559 
z
" transform="scale(0.015625)"/>
       <path id="ArialMT-64" d="M 2575 0 
L 2575 419 
Q 2259 -75 1647 -75 
Q 1250 -75 917 144 
Q 584 363 401 755 
Q 219 1147 219 1656 
Q 219 2153 384 2558 
Q 550 2963 881 3178 
Q 1213 3394 1622 3394 
Q 1922 3394 2156 3267 
Q 2391 3141 2538 2938 
L 2538 4581 
L 3097 4581 
L 3097 0 
L 2575 0 
z
M 797 1656 
Q 797 1019 1065 703 
Q 1334 388 1700 388 
Q 2069 388 2326 689 
Q 2584 991 2584 1609 
Q 2584 2291 2321 2609 
Q 2059 2928 1675 2928 
Q 1300 2928 1048 2622 
Q 797 2316 797 1656 
z
" transform="scale(0.015625)"/>
      </defs>
      <use xlink:href="#ArialMT-52"/>
      <use xlink:href="#ArialMT-61" x="72.216797"/>
      <use xlink:href="#ArialMT-6e" x="127.832031"/>
      <use xlink:href="#ArialMT-64" x="183.447266"/>
      <use xlink:href="#ArialMT-6f" x="239.0625"/>
      <use xlink:href="#ArialMT-6d" x="294.677734"/>
      <use xlink:href="#ArialMT-20" x="377.978516"/>
      <use xlink:href="#ArialMT-62" x="405.761719"/>
      <use xlink:href="#ArialMT-61" x="461.376953"/>
      <use xlink:href="#ArialMT-73" x="516.992188"/>
      <use xlink:href="#ArialMT-65" x="566.992188"/>
      <use xlink:href="#ArialMT-6c" x="622.607422"/>
      <use xlink:href="#ArialMT-69" x="644.824219"/>
      <use xlink:href="#ArialMT-6e" x="667.041016"/>
      <use xlink:href="#ArialMT-65" x="722.65625"/>
     </g>
    </g>
    <g id="line2d_18">
     <path d="M 918.06375 364.735 
L 930.06375 364.735 
L 942.06375 364.735 
" style="fill: none; stroke: #ff0000; stroke-opacity: 0.7; stroke-width: 0.8; stroke-linecap: square"/>
    </g>
    <g id="text_18">
     <!-- Best random set -->
     <g transform="translate(951.66375 368.935) scale(0.12 -0.12)">
      <defs>
       <path id="ArialMT-42" d="M 469 0 
L 469 4581 
L 2188 4581 
Q 2713 4581 3030 4442 
Q 3347 4303 3526 4014 
Q 3706 3725 3706 3409 
Q 3706 3116 3547 2856 
Q 3388 2597 3066 2438 
Q 3481 2316 3704 2022 
Q 3928 1728 3928 1328 
Q 3928 1006 3792 729 
Q 3656 453 3456 303 
Q 3256 153 2954 76 
Q 2653 0 2216 0 
L 469 0 
z
M 1075 2656 
L 2066 2656 
Q 2469 2656 2644 2709 
Q 2875 2778 2992 2937 
Q 3109 3097 3109 3338 
Q 3109 3566 3000 3739 
Q 2891 3913 2687 3977 
Q 2484 4041 1991 4041 
L 1075 4041 
L 1075 2656 
z
M 1075 541 
L 2216 541 
Q 2509 541 2628 563 
Q 2838 600 2978 687 
Q 3119 775 3209 942 
Q 3300 1109 3300 1328 
Q 3300 1584 3169 1773 
Q 3038 1963 2805 2039 
Q 2572 2116 2134 2116 
L 1075 2116 
L 1075 541 
z
" transform="scale(0.015625)"/>
      </defs>
      <use xlink:href="#ArialMT-42"/>
      <use xlink:href="#ArialMT-65" x="66.699219"/>
      <use xlink:href="#ArialMT-73" x="122.314453"/>
      <use xlink:href="#ArialMT-74" x="172.314453"/>
      <use xlink:href="#ArialMT-20" x="200.097656"/>
      <use xlink:href="#ArialMT-72" x="227.880859"/>
      <use xlink:href="#ArialMT-61" x="261.181641"/>
      <use xlink:href="#ArialMT-6e" x="316.796875"/>
      <use xlink:href="#ArialMT-64" x="372.412109"/>
      <use xlink:href="#ArialMT-6f" x="428.027344"/>
      <use xlink:href="#ArialMT-6d" x="483.642578"/>
      <use xlink:href="#ArialMT-20" x="566.943359"/>
      <use xlink:href="#ArialMT-73" x="594.726562"/>
      <use xlink:href="#ArialMT-65" x="644.726562"/>
      <use xlink:href="#ArialMT-74" x="700.341797"/>
     </g>
    </g>
   </g>
  </g>
 </g>
 <defs>
  <clipPath id="pfa6f7d1e39">
   <rect x="52.28" y="28.32" width="1003.57" height="353.8"/>
  </clipPath>
 </defs>
</svg>
