<?xml version="1.0" encoding="utf-8" standalone="no"?>
<!DOCTYPE svg PUBLIC "-//W3C//DTD SVG 1.1//EN"
  "http://www.w3.org/Graphics/SVG/1.1/DTD/svg11.dtd">
<svg xmlns:xlink="http://www.w3.org/1999/xlink" width="1080pt" height="648pt" viewBox="0 0 1080 648" xmlns="http://www.w3.org/2000/svg" version="1.1">
 <metadata>
  <rdf:RDF xmlns:dc="http://purl.org/dc/elements/1.1/" xmlns:cc="http://creativecommons.org/ns#" xmlns:rdf="http://www.w3.org/1999/02/22-rdf-syntax-ns#">
   <cc:Work>
    <dc:type rdf:resource="http://purl.org/dc/dcmitype/StillImage"/>
    <dc:date>2024-04-04T23:57:18.838385</dc:date>
    <dc:format>image/svg+xml</dc:format>
    <dc:creator>
     <cc:Agent>
      <dc:title>Matplotlib v3.7.2, https://matplotlib.org/</dc:title>
     </cc:Agent>
    </dc:creator>
   </cc:Work>
  </rdf:RDF>
 </metadata>
 <defs>
  <style type="text/css">*{stroke-linejoin: round; stroke-linecap: butt}</style>
 </defs>
 <g id="figure_1">
  <g id="patch_1">
   <path d="M 0 648 
L 1080 648 
L 1080 0 
L 0 0 
z
" style="fill: #ffffff"/>
  </g>
  <g id="axes_1">
   <g id="patch_2">
    <path d="M 47.765 606.04 
L 933.07 606.04 
L 933.07 30.748 
L 47.765 30.748 
z
" style="fill: #ffffff"/>
   </g>
   <g id="PolyCollection_1">
    <defs>
     <path id="m20323c4d16" d="M 47.765 -396.699074 
L 47.765 -252.973981 
L 65.4711 -251.475932 
L 83.1772 -252.845272 
L 100.8833 -245.257591 
L 118.5894 -248.852772 
L 136.2955 -235.409832 
L 154.0016 -253.828327 
L 171.7077 -248.232826 
L 189.4138 -237.88894 
L 207.1199 -243.500838 
L 224.826 -239.932492 
L 242.5321 -248.826654 
L 260.2382 -242.268501 
L 277.9443 -252.257632 
L 295.6504 -247.937539 
L 313.3565 -250.223348 
L 331.0626 -254.506302 
L 348.7687 -254.837307 
L 366.4748 -243.39974 
L 384.1809 -240.517736 
L 401.887 -241.581722 
L 419.5931 -230.027291 
L 437.2992 -243.212157 
L 455.0053 -242.610694 
L 472.7114 -228.075819 
L 490.4175 -230.321123 
L 508.1236 -245.788821 
L 525.8297 -245.542815 
L 543.5358 -240.382653 
L 561.2419 -247.393557 
L 578.948 -232.154277 
L 596.6541 -248.728652 
L 614.3602 -257.643322 
L 632.0663 -250.756369 
L 649.7724 -256.443172 
L 667.4785 -270.300238 
L 685.1846 -236.684185 
L 702.8907 -247.096595 
L 720.5968 -248.312299 
L 738.3029 -255.135123 
L 756.009 -240.668093 
L 773.7151 -244.80421 
L 791.4212 -248.728364 
L 809.1273 -239.928095 
L 826.8334 -260.930648 
L 844.5395 -254.828424 
L 862.2456 -262.914643 
L 879.9517 -262.862182 
L 897.6578 -251.457898 
L 915.3639 -279.052693 
L 933.07 -270.720625 
L 933.07 -393.88028 
L 933.07 -393.88028 
L 915.3639 -406.295395 
L 897.6578 -398.353256 
L 879.9517 -413.193309 
L 862.2456 -407.214473 
L 844.5395 -395.99428 
L 826.8334 -404.791149 
L 809.1273 -395.257801 
L 791.4212 -406.473662 
L 773.7151 -399.327707 
L 756.009 -397.700428 
L 738.3029 -395.087184 
L 720.5968 -384.234563 
L 702.8907 -406.592334 
L 685.1846 -408.847618 
L 667.4785 -405.540605 
L 649.7724 -408.037672 
L 632.0663 -398.277316 
L 614.3602 -401.251684 
L 596.6541 -405.843289 
L 578.948 -396.735179 
L 561.2419 -399.274341 
L 543.5358 -394.145423 
L 525.8297 -393.634223 
L 508.1236 -396.658131 
L 490.4175 -394.340543 
L 472.7114 -407.675315 
L 455.0053 -397.363818 
L 437.2992 -396.866814 
L 419.5931 -403.724137 
L 401.887 -390.454975 
L 384.1809 -396.333701 
L 366.4748 -398.682919 
L 348.7687 -393.422554 
L 331.0626 -391.125984 
L 313.3565 -398.850971 
L 295.6504 -397.467189 
L 277.9443 -399.295135 
L 260.2382 -399.292422 
L 242.5321 -392.000636 
L 224.826 -398.589944 
L 207.1199 -399.896449 
L 189.4138 -400.950446 
L 171.7077 -397.956341 
L 154.0016 -402.551895 
L 136.2955 -400.647705 
L 118.5894 -400.290112 
L 100.8833 -411.16003 
L 83.1772 -405.250386 
L 65.4711 -401.084095 
L 47.765 -396.699074 
z
" style="stroke: #1f77b4; stroke-opacity: 0.2"/>
    </defs>
    <g clip-path="url(#p782e495731)">
     <use xlink:href="#m20323c4d16" x="0" y="648" style="fill: #1f77b4; fill-opacity: 0.2; stroke: #1f77b4; stroke-opacity: 0.2"/>
    </g>
   </g>
   <g id="PolyCollection_2">
    <defs>
     <path id="mebc7a9902e" d="M 47.765 -286.79632 
L 47.765 -141.175789 
L 65.4711 -169.488035 
L 83.1772 -147.403765 
L 100.8833 -166.351653 
L 118.5894 -141.670012 
L 136.2955 -172.531163 
L 154.0016 -165.00411 
L 171.7077 -155.74573 
L 189.4138 -166.619729 
L 207.1199 -180.277944 
L 224.826 -146.97216 
L 242.5321 -155.435239 
L 260.2382 -161.886014 
L 277.9443 -159.320262 
L 295.6504 -179.348534 
L 313.3565 -166.121199 
L 331.0626 -159.549555 
L 348.7687 -156.446642 
L 366.4748 -181.604033 
L 384.1809 -168.420185 
L 401.887 -186.798016 
L 419.5931 -186.492194 
L 437.2992 -217.761326 
L 455.0053 -161.86905 
L 472.7114 -189.154417 
L 490.4175 -181.427022 
L 508.1236 -182.631128 
L 525.8297 -172.868971 
L 543.5358 -175.762313 
L 561.2419 -206.355286 
L 578.948 -195.979193 
L 596.6541 -185.641324 
L 614.3602 -174.37503 
L 632.0663 -189.928408 
L 649.7724 -198.833004 
L 667.4785 -182.305167 
L 685.1846 -202.848503 
L 702.8907 -200.834951 
L 720.5968 -190.85511 
L 738.3029 -204.492009 
L 756.009 -211.284319 
L 773.7151 -180.980698 
L 791.4212 -208.750738 
L 809.1273 -199.505298 
L 826.8334 -182.024522 
L 844.5395 -192.441054 
L 862.2456 -207.183182 
L 879.9517 -205.41947 
L 897.6578 -197.632148 
L 915.3639 -206.473009 
L 933.07 -217.020584 
L 933.07 -363.775668 
L 933.07 -363.775668 
L 915.3639 -371.646118 
L 897.6578 -350.071264 
L 879.9517 -324.83873 
L 862.2456 -354.513145 
L 844.5395 -349.111393 
L 826.8334 -333.250733 
L 809.1273 -341.914986 
L 791.4212 -352.093948 
L 773.7151 -294.714645 
L 756.009 -345.30926 
L 738.3029 -341.26359 
L 720.5968 -345.956854 
L 702.8907 -345.95263 
L 685.1846 -329.548845 
L 667.4785 -333.316666 
L 649.7724 -339.738313 
L 632.0663 -368.409932 
L 614.3602 -339.264653 
L 596.6541 -324.02005 
L 578.948 -360.197764 
L 561.2419 -356.724048 
L 543.5358 -310.428 
L 525.8297 -324.514311 
L 508.1236 -337.708106 
L 490.4175 -355.113968 
L 472.7114 -349.908098 
L 455.0053 -291.214666 
L 437.2992 -378.986247 
L 419.5931 -349.346146 
L 401.887 -338.424169 
L 384.1809 -331.310019 
L 366.4748 -353.860998 
L 348.7687 -321.775935 
L 331.0626 -327.422833 
L 313.3565 -295.015441 
L 295.6504 -352.858454 
L 277.9443 -323.514446 
L 260.2382 -343.396698 
L 242.5321 -335.854556 
L 224.826 -270.171439 
L 207.1199 -291.983992 
L 189.4138 -313.770235 
L 171.7077 -324.774956 
L 154.0016 -291.7798 
L 136.2955 -319.723427 
L 118.5894 -267.627375 
L 100.8833 -370.043768 
L 83.1772 -317.667592 
L 65.4711 -307.266584 
L 47.765 -286.79632 
z
" style="stroke: #ff7f0e; stroke-opacity: 0.2"/>
    </defs>
    <g clip-path="url(#p782e495731)">
     <use xlink:href="#mebc7a9902e" x="0" y="648" style="fill: #ff7f0e; fill-opacity: 0.2; stroke: #ff7f0e; stroke-opacity: 0.2"/>
    </g>
   </g>
   <g id="PolyCollection_3">
    <defs>
     <path id="m9a73b84def" d="M 47.765 -387.003195 
L 47.765 -249.002432 
L 65.4711 -252.599383 
L 83.1772 -260.737056 
L 100.8833 -254.75987 
L 118.5894 -261.726551 
L 136.2955 -243.57822 
L 154.0016 -265.815761 
L 171.7077 -270.954552 
L 189.4138 -268.703255 
L 207.1199 -265.380081 
L 224.826 -256.360823 
L 242.5321 -260.24637 
L 260.2382 -248.637679 
L 277.9443 -247.536949 
L 295.6504 -277.259047 
L 313.3565 -257.293375 
L 331.0626 -246.800164 
L 348.7687 -254.533773 
L 366.4748 -261.627144 
L 384.1809 -244.343591 
L 401.887 -248.604981 
L 419.5931 -251.125358 
L 437.2992 -254.391211 
L 455.0053 -239.93728 
L 472.7114 -231.824671 
L 490.4175 -238.122207 
L 508.1236 -267.147807 
L 525.8297 -240.321412 
L 543.5358 -247.573305 
L 561.2419 -232.207833 
L 578.948 -255.582568 
L 596.6541 -234.660782 
L 614.3602 -235.748434 
L 632.0663 -235.076511 
L 649.7724 -233.491354 
L 667.4785 -226.41581 
L 685.1846 -251.69962 
L 702.8907 -238.318992 
L 720.5968 -236.20597 
L 738.3029 -227.372476 
L 756.009 -241.973262 
L 773.7151 -250.428589 
L 791.4212 -239.207933 
L 809.1273 -268.219708 
L 826.8334 -238.484348 
L 844.5395 -254.253704 
L 862.2456 -253.760899 
L 879.9517 -265.779754 
L 897.6578 -252.278221 
L 915.3639 -267.650824 
L 933.07 -266.304698 
L 933.07 -398.614034 
L 933.07 -398.614034 
L 915.3639 -401.16054 
L 897.6578 -406.004915 
L 879.9517 -393.146952 
L 862.2456 -400.50732 
L 844.5395 -397.688372 
L 826.8334 -389.903103 
L 809.1273 -408.570976 
L 791.4212 -395.991703 
L 773.7151 -393.995796 
L 756.009 -388.215161 
L 738.3029 -395.948753 
L 720.5968 -400.922022 
L 702.8907 -394.302517 
L 685.1846 -386.903792 
L 667.4785 -388.528811 
L 649.7724 -395.914502 
L 632.0663 -383.248681 
L 614.3602 -398.344661 
L 596.6541 -388.138243 
L 578.948 -387.331739 
L 561.2419 -391.512773 
L 543.5358 -386.515977 
L 525.8297 -387.175864 
L 508.1236 -390.195186 
L 490.4175 -397.750376 
L 472.7114 -384.393996 
L 455.0053 -391.709271 
L 437.2992 -392.510058 
L 419.5931 -391.308968 
L 401.887 -390.22661 
L 384.1809 -396.732709 
L 366.4748 -391.959378 
L 348.7687 -385.878748 
L 331.0626 -393.142057 
L 313.3565 -391.895199 
L 295.6504 -388.118276 
L 277.9443 -390.876054 
L 260.2382 -390.412503 
L 242.5321 -391.109959 
L 224.826 -395.49805 
L 207.1199 -387.084616 
L 189.4138 -397.532934 
L 171.7077 -387.782648 
L 154.0016 -389.875182 
L 136.2955 -399.206119 
L 118.5894 -391.376214 
L 100.8833 -397.562329 
L 83.1772 -387.617942 
L 65.4711 -394.702634 
L 47.765 -387.003195 
z
" style="stroke: #2ca02c; stroke-opacity: 0.2"/>
    </defs>
    <g clip-path="url(#p782e495731)">
     <use xlink:href="#m9a73b84def" x="0" y="648" style="fill: #2ca02c; fill-opacity: 0.2; stroke: #2ca02c; stroke-opacity: 0.2"/>
    </g>
   </g>
   <g id="PolyCollection_4">
    <defs>
     <path id="mfcb94b5098" d="M 47.765 -396.515754 
L 47.765 -242.561264 
L 65.4711 -257.10001 
L 83.1772 -244.627154 
L 100.8833 -253.11424 
L 118.5894 -266.144466 
L 136.2955 -254.381002 
L 154.0016 -259.107821 
L 171.7077 -260.570281 
L 189.4138 -249.774548 
L 207.1199 -261.71386 
L 224.826 -247.940372 
L 242.5321 -259.250538 
L 260.2382 -268.541333 
L 277.9443 -265.7061 
L 295.6504 -264.589307 
L 313.3565 -256.039349 
L 331.0626 -250.945807 
L 348.7687 -247.536704 
L 366.4748 -250.610617 
L 384.1809 -242.383641 
L 401.887 -256.772266 
L 419.5931 -259.662859 
L 437.2992 -247.022283 
L 455.0053 -257.367646 
L 472.7114 -266.711241 
L 490.4175 -263.316324 
L 508.1236 -267.025387 
L 525.8297 -249.394255 
L 543.5358 -237.791494 
L 561.2419 -256.073192 
L 578.948 -253.816882 
L 596.6541 -238.583117 
L 614.3602 -250.920015 
L 632.0663 -237.911067 
L 649.7724 -246.044179 
L 667.4785 -241.696915 
L 685.1846 -228.539459 
L 702.8907 -260.778656 
L 720.5968 -239.253327 
L 738.3029 -237.327381 
L 756.009 -244.754785 
L 773.7151 -246.476881 
L 791.4212 -268.41605 
L 809.1273 -250.57984 
L 826.8334 -238.18375 
L 844.5395 -247.031471 
L 862.2456 -227.670137 
L 879.9517 -232.30556 
L 897.6578 -258.327555 
L 915.3639 -252.504512 
L 933.07 -251.869637 
L 933.07 -400.459499 
L 933.07 -400.459499 
L 915.3639 -407.838423 
L 897.6578 -402.196476 
L 879.9517 -406.294475 
L 862.2456 -387.746146 
L 844.5395 -394.646383 
L 826.8334 -394.947547 
L 809.1273 -386.615118 
L 791.4212 -389.377718 
L 773.7151 -390.551894 
L 756.009 -385.765198 
L 738.3029 -394.971058 
L 720.5968 -394.703622 
L 702.8907 -393.09193 
L 685.1846 -390.141245 
L 667.4785 -401.137902 
L 649.7724 -380.460138 
L 632.0663 -397.21456 
L 614.3602 -390.795813 
L 596.6541 -391.692949 
L 578.948 -392.171147 
L 561.2419 -402.135659 
L 543.5358 -390.686939 
L 525.8297 -396.47995 
L 508.1236 -396.990391 
L 490.4175 -399.034862 
L 472.7114 -406.61162 
L 455.0053 -398.173184 
L 437.2992 -393.512401 
L 419.5931 -393.39683 
L 401.887 -394.192692 
L 384.1809 -400.354548 
L 366.4748 -391.508306 
L 348.7687 -397.834382 
L 331.0626 -391.412651 
L 313.3565 -399.472121 
L 295.6504 -390.177886 
L 277.9443 -399.732585 
L 260.2382 -391.188024 
L 242.5321 -398.575482 
L 224.826 -393.002514 
L 207.1199 -392.001067 
L 189.4138 -400.491685 
L 171.7077 -400.547093 
L 154.0016 -396.245258 
L 136.2955 -388.457334 
L 118.5894 -397.929129 
L 100.8833 -393.792303 
L 83.1772 -387.880533 
L 65.4711 -390.256878 
L 47.765 -396.515754 
z
" style="stroke: #d62728; stroke-opacity: 0.2"/>
    </defs>
    <g clip-path="url(#p782e495731)">
     <use xlink:href="#mfcb94b5098" x="0" y="648" style="fill: #d62728; fill-opacity: 0.2; stroke: #d62728; stroke-opacity: 0.2"/>
    </g>
   </g>
   <g id="PolyCollection_5">
    <defs>
     <path id="m0b4d7559be" d="M 47.765 -400.254471 
L 47.765 -245.047692 
L 65.4711 -239.636566 
L 83.1772 -242.273948 
L 100.8833 -251.976825 
L 118.5894 -246.300525 
L 136.2955 -237.042792 
L 154.0016 -240.533843 
L 171.7077 -244.298446 
L 189.4138 -254.833863 
L 207.1199 -244.123369 
L 224.826 -237.73124 
L 242.5321 -257.976568 
L 260.2382 -244.924483 
L 277.9443 -245.913802 
L 295.6504 -241.73056 
L 313.3565 -238.683116 
L 331.0626 -234.438093 
L 348.7687 -244.064956 
L 366.4748 -245.085175 
L 384.1809 -241.908536 
L 401.887 -235.776967 
L 419.5931 -236.439788 
L 437.2992 -249.353253 
L 455.0053 -237.38579 
L 472.7114 -243.327164 
L 490.4175 -241.654308 
L 508.1236 -237.115874 
L 525.8297 -241.494453 
L 543.5358 -249.671586 
L 561.2419 -243.530389 
L 578.948 -247.265292 
L 596.6541 -257.218247 
L 614.3602 -252.135077 
L 632.0663 -246.12822 
L 649.7724 -258.117494 
L 667.4785 -246.992245 
L 685.1846 -243.010828 
L 702.8907 -234.030947 
L 720.5968 -252.6209 
L 738.3029 -260.519333 
L 756.009 -272.257679 
L 773.7151 -256.660733 
L 791.4212 -248.018865 
L 809.1273 -243.929313 
L 826.8334 -247.046431 
L 844.5395 -256.377798 
L 862.2456 -239.231014 
L 879.9517 -244.681975 
L 897.6578 -248.586051 
L 915.3639 -254.990407 
L 933.07 -262.232228 
L 933.07 -406.011393 
L 933.07 -406.011393 
L 915.3639 -399.134056 
L 897.6578 -411.766686 
L 879.9517 -400.173748 
L 862.2456 -407.864675 
L 844.5395 -400.19593 
L 826.8334 -410.010677 
L 809.1273 -407.142573 
L 791.4212 -394.435816 
L 773.7151 -393.630645 
L 756.009 -414.611798 
L 738.3029 -414.037977 
L 720.5968 -405.047885 
L 702.8907 -412.585455 
L 685.1846 -401.481276 
L 667.4785 -398.945124 
L 649.7724 -403.094757 
L 632.0663 -404.872274 
L 614.3602 -392.337821 
L 596.6541 -388.915112 
L 578.948 -394.100245 
L 561.2419 -404.82862 
L 543.5358 -404.992881 
L 525.8297 -398.210312 
L 508.1236 -404.653355 
L 490.4175 -396.842412 
L 472.7114 -406.07077 
L 455.0053 -397.083261 
L 437.2992 -396.351723 
L 419.5931 -394.662693 
L 401.887 -406.582184 
L 384.1809 -392.148368 
L 366.4748 -402.629681 
L 348.7687 -401.056673 
L 331.0626 -392.70808 
L 313.3565 -405.590526 
L 295.6504 -401.618025 
L 277.9443 -404.846166 
L 260.2382 -404.576541 
L 242.5321 -415.291368 
L 224.826 -408.932929 
L 207.1199 -405.779486 
L 189.4138 -408.079191 
L 171.7077 -410.267907 
L 154.0016 -413.087046 
L 136.2955 -402.206107 
L 118.5894 -407.628236 
L 100.8833 -401.658574 
L 83.1772 -409.768958 
L 65.4711 -404.942109 
L 47.765 -400.254471 
z
" style="stroke: #9467bd; stroke-opacity: 0.2"/>
    </defs>
    <g clip-path="url(#p782e495731)">
     <use xlink:href="#m0b4d7559be" x="0" y="648" style="fill: #9467bd; fill-opacity: 0.2; stroke: #9467bd; stroke-opacity: 0.2"/>
    </g>
   </g>
   <g id="PolyCollection_6">
    <defs>
     <path id="mdc9534e6a3" d="M 47.765 -375.809508 
L 47.765 -236.818028 
L 65.4711 -252.018557 
L 83.1772 -236.706637 
L 100.8833 -243.400621 
L 118.5894 -240.057066 
L 136.2955 -251.738755 
L 154.0016 -235.732989 
L 171.7077 -241.531844 
L 189.4138 -251.425956 
L 207.1199 -232.098031 
L 224.826 -240.599599 
L 242.5321 -244.076569 
L 260.2382 -253.343774 
L 277.9443 -243.227604 
L 295.6504 -242.114793 
L 313.3565 -250.567305 
L 331.0626 -244.914707 
L 348.7687 -240.969084 
L 366.4748 -238.657445 
L 384.1809 -244.371656 
L 401.887 -244.671843 
L 419.5931 -247.564923 
L 437.2992 -241.312123 
L 455.0053 -236.428588 
L 472.7114 -241.284372 
L 490.4175 -238.947746 
L 508.1236 -249.769955 
L 525.8297 -239.995264 
L 543.5358 -240.587665 
L 561.2419 -235.855387 
L 578.948 -250.825446 
L 596.6541 -241.758604 
L 614.3602 -246.764252 
L 632.0663 -242.323472 
L 649.7724 -249.86624 
L 667.4785 -243.25391 
L 685.1846 -236.03751 
L 702.8907 -247.651346 
L 720.5968 -248.616839 
L 738.3029 -254.789136 
L 756.009 -254.237606 
L 773.7151 -259.352934 
L 791.4212 -241.342301 
L 809.1273 -231.903411 
L 826.8334 -248.017192 
L 844.5395 -232.423619 
L 862.2456 -245.495366 
L 879.9517 -248.286613 
L 897.6578 -268.456763 
L 915.3639 -257.91688 
L 933.07 -238.245564 
L 933.07 -375.601578 
L 933.07 -375.601578 
L 915.3639 -397.340382 
L 897.6578 -391.857215 
L 879.9517 -374.603283 
L 862.2456 -399.516585 
L 844.5395 -380.803973 
L 826.8334 -382.892983 
L 809.1273 -378.635222 
L 791.4212 -388.342894 
L 773.7151 -381.57991 
L 756.009 -385.654788 
L 738.3029 -389.088575 
L 720.5968 -386.276751 
L 702.8907 -385.730408 
L 685.1846 -373.725474 
L 667.4785 -377.513313 
L 649.7724 -384.062963 
L 632.0663 -382.655511 
L 614.3602 -387.686226 
L 596.6541 -386.61106 
L 578.948 -370.356622 
L 561.2419 -373.132457 
L 543.5358 -382.202003 
L 525.8297 -385.362262 
L 508.1236 -378.147131 
L 490.4175 -380.383135 
L 472.7114 -380.432272 
L 455.0053 -377.776193 
L 437.2992 -371.121349 
L 419.5931 -383.19281 
L 401.887 -376.915149 
L 384.1809 -378.400947 
L 366.4748 -375.07778 
L 348.7687 -374.016539 
L 331.0626 -373.411515 
L 313.3565 -380.227834 
L 295.6504 -370.555555 
L 277.9443 -375.894804 
L 260.2382 -381.205057 
L 242.5321 -378.440055 
L 224.826 -376.7426 
L 207.1199 -379.919057 
L 189.4138 -377.097117 
L 171.7077 -383.907983 
L 154.0016 -379.095974 
L 136.2955 -369.134913 
L 118.5894 -374.151027 
L 100.8833 -377.543024 
L 83.1772 -374.084034 
L 65.4711 -375.367309 
L 47.765 -375.809508 
z
" style="stroke: #8c564b; stroke-opacity: 0.2"/>
    </defs>
    <g clip-path="url(#p782e495731)">
     <use xlink:href="#mdc9534e6a3" x="0" y="648" style="fill: #8c564b; fill-opacity: 0.2; stroke: #8c564b; stroke-opacity: 0.2"/>
    </g>
   </g>
   <g id="PolyCollection_7">
    <defs>
     <path id="md762b4eb04" d="M 47.765 -370.634358 
L 47.765 -242.593946 
L 65.4711 -247.596793 
L 83.1772 -245.65999 
L 100.8833 -240.311037 
L 118.5894 -257.53729 
L 136.2955 -246.090992 
L 154.0016 -249.622966 
L 171.7077 -244.024736 
L 189.4138 -247.515591 
L 207.1199 -256.551665 
L 224.826 -241.576068 
L 242.5321 -244.840484 
L 260.2382 -259.730762 
L 277.9443 -242.18124 
L 295.6504 -247.327244 
L 313.3565 -246.818875 
L 331.0626 -248.646653 
L 348.7687 -247.388535 
L 366.4748 -237.863002 
L 384.1809 -242.078321 
L 401.887 -242.929335 
L 419.5931 -234.426826 
L 437.2992 -241.115597 
L 455.0053 -238.274261 
L 472.7114 -242.753913 
L 490.4175 -227.63373 
L 508.1236 -239.154779 
L 525.8297 -254.847962 
L 543.5358 -240.892844 
L 561.2419 -250.904101 
L 578.948 -225.800107 
L 596.6541 -256.295229 
L 614.3602 -254.765188 
L 632.0663 -239.844659 
L 649.7724 -245.686912 
L 667.4785 -234.42235 
L 685.1846 -270.465942 
L 702.8907 -251.888491 
L 720.5968 -263.821806 
L 738.3029 -241.227404 
L 756.009 -233.913709 
L 773.7151 -245.311594 
L 791.4212 -233.217759 
L 809.1273 -247.094118 
L 826.8334 -238.392449 
L 844.5395 -241.034798 
L 862.2456 -243.152304 
L 879.9517 -233.585454 
L 897.6578 -250.562698 
L 915.3639 -248.825674 
L 933.07 -246.701635 
L 933.07 -391.130172 
L 933.07 -391.130172 
L 915.3639 -395.061026 
L 897.6578 -386.216403 
L 879.9517 -398.264406 
L 862.2456 -399.296179 
L 844.5395 -402.811789 
L 826.8334 -395.974289 
L 809.1273 -382.18528 
L 791.4212 -382.250675 
L 773.7151 -389.41367 
L 756.009 -395.998491 
L 738.3029 -392.102467 
L 720.5968 -392.734365 
L 702.8907 -380.895871 
L 685.1846 -397.395157 
L 667.4785 -377.137361 
L 649.7724 -387.713689 
L 632.0663 -394.801618 
L 614.3602 -382.604485 
L 596.6541 -388.093368 
L 578.948 -377.98625 
L 561.2419 -374.869853 
L 543.5358 -388.90297 
L 525.8297 -384.891299 
L 508.1236 -363.497485 
L 490.4175 -384.357215 
L 472.7114 -387.83018 
L 455.0053 -385.500296 
L 437.2992 -380.414046 
L 419.5931 -383.890214 
L 401.887 -389.359604 
L 384.1809 -374.51915 
L 366.4748 -373.385124 
L 348.7687 -371.957135 
L 331.0626 -371.44274 
L 313.3565 -368.826807 
L 295.6504 -370.499449 
L 277.9443 -377.968553 
L 260.2382 -367.297937 
L 242.5321 -374.856907 
L 224.826 -371.485057 
L 207.1199 -370.243665 
L 189.4138 -369.60229 
L 171.7077 -377.396701 
L 154.0016 -373.188349 
L 136.2955 -374.235415 
L 118.5894 -375.394948 
L 100.8833 -373.143797 
L 83.1772 -363.52977 
L 65.4711 -375.122974 
L 47.765 -370.634358 
z
" style="stroke: #e377c2; stroke-opacity: 0.2"/>
    </defs>
    <g clip-path="url(#p782e495731)">
     <use xlink:href="#md762b4eb04" x="0" y="648" style="fill: #e377c2; fill-opacity: 0.2; stroke: #e377c2; stroke-opacity: 0.2"/>
    </g>
   </g>
   <g id="PolyCollection_8">
    <defs>
     <path id="m61aedfbf2c" d="M 47.765 -372.868238 
L 47.765 -238.142351 
L 65.4711 -241.809038 
L 83.1772 -243.812697 
L 100.8833 -240.83481 
L 118.5894 -247.085373 
L 136.2955 -230.114682 
L 154.0016 -242.355215 
L 171.7077 -243.76945 
L 189.4138 -248.656213 
L 207.1199 -251.859215 
L 224.826 -244.434393 
L 242.5321 -255.204389 
L 260.2382 -253.665582 
L 277.9443 -251.733648 
L 295.6504 -246.227447 
L 313.3565 -236.605243 
L 331.0626 -252.984656 
L 348.7687 -242.75567 
L 366.4748 -238.997578 
L 384.1809 -250.038029 
L 401.887 -259.298601 
L 419.5931 -246.086175 
L 437.2992 -248.986725 
L 455.0053 -262.288783 
L 472.7114 -245.234961 
L 490.4175 -252.440804 
L 508.1236 -257.113018 
L 525.8297 -242.967546 
L 543.5358 -237.830052 
L 561.2419 -225.510765 
L 578.948 -254.7164 
L 596.6541 -237.670781 
L 614.3602 -252.458985 
L 632.0663 -252.497764 
L 649.7724 -248.760584 
L 667.4785 -246.333018 
L 685.1846 -255.260925 
L 702.8907 -259.493135 
L 720.5968 -245.974496 
L 738.3029 -256.146711 
L 756.009 -241.041367 
L 773.7151 -240.775964 
L 791.4212 -241.325824 
L 809.1273 -223.208144 
L 826.8334 -239.167442 
L 844.5395 -250.861049 
L 862.2456 -250.484988 
L 879.9517 -257.921802 
L 897.6578 -258.435415 
L 915.3639 -246.194887 
L 933.07 -243.617834 
L 933.07 -404.87088 
L 933.07 -404.87088 
L 915.3639 -387.153191 
L 897.6578 -386.107953 
L 879.9517 -398.614309 
L 862.2456 -385.77361 
L 844.5395 -396.341521 
L 826.8334 -388.330086 
L 809.1273 -393.954319 
L 791.4212 -388.809937 
L 773.7151 -390.686453 
L 756.009 -388.392417 
L 738.3029 -396.254322 
L 720.5968 -382.762097 
L 702.8907 -390.36143 
L 685.1846 -378.078105 
L 667.4785 -383.11269 
L 649.7724 -363.529137 
L 632.0663 -391.118803 
L 614.3602 -387.183708 
L 596.6541 -389.322939 
L 578.948 -379.66419 
L 561.2419 -391.592704 
L 543.5358 -383.892219 
L 525.8297 -386.105382 
L 508.1236 -381.216598 
L 490.4175 -374.90867 
L 472.7114 -380.465403 
L 455.0053 -381.225937 
L 437.2992 -391.771701 
L 419.5931 -384.955921 
L 401.887 -371.772736 
L 384.1809 -373.341645 
L 366.4748 -374.759544 
L 348.7687 -380.557387 
L 331.0626 -378.318586 
L 313.3565 -375.109587 
L 295.6504 -384.17897 
L 277.9443 -367.836228 
L 260.2382 -368.236599 
L 242.5321 -375.495694 
L 224.826 -364.529016 
L 207.1199 -378.465663 
L 189.4138 -378.176537 
L 171.7077 -384.65852 
L 154.0016 -376.412552 
L 136.2955 -373.094709 
L 118.5894 -380.324021 
L 100.8833 -373.884394 
L 83.1772 -382.311028 
L 65.4711 -367.825338 
L 47.765 -372.868238 
z
" style="stroke: #7f7f7f; stroke-opacity: 0.2"/>
    </defs>
    <g clip-path="url(#p782e495731)">
     <use xlink:href="#m61aedfbf2c" x="0" y="648" style="fill: #7f7f7f; fill-opacity: 0.2; stroke: #7f7f7f; stroke-opacity: 0.2"/>
    </g>
   </g>
   <g id="PolyCollection_9">
    <defs>
     <path id="m7a339bce62" d="M 47.765 -378.182675 
L 47.765 -260.831954 
L 65.4711 -246.88585 
L 83.1772 -261.484299 
L 100.8833 -250.092755 
L 118.5894 -242.334757 
L 136.2955 -245.848411 
L 154.0016 -242.201253 
L 171.7077 -245.065246 
L 189.4138 -257.294117 
L 207.1199 -245.601906 
L 224.826 -245.961147 
L 242.5321 -248.112936 
L 260.2382 -233.859081 
L 277.9443 -236.178116 
L 295.6504 -232.465373 
L 313.3565 -236.961368 
L 331.0626 -241.714419 
L 348.7687 -240.661971 
L 366.4748 -230.569832 
L 384.1809 -228.946991 
L 401.887 -249.326345 
L 419.5931 -242.756364 
L 437.2992 -237.090992 
L 455.0053 -237.94725 
L 472.7114 -257.054208 
L 490.4175 -237.287734 
L 508.1236 -233.404606 
L 525.8297 -261.191674 
L 543.5358 -242.732537 
L 561.2419 -246.467825 
L 578.948 -237.255172 
L 596.6541 -229.833932 
L 614.3602 -233.172103 
L 632.0663 -234.670195 
L 649.7724 -242.310728 
L 667.4785 -262.717717 
L 685.1846 -253.508321 
L 702.8907 -256.872607 
L 720.5968 -242.530094 
L 738.3029 -234.943454 
L 756.009 -235.852066 
L 773.7151 -238.964482 
L 791.4212 -240.01183 
L 809.1273 -254.023002 
L 826.8334 -264.347819 
L 844.5395 -234.112651 
L 862.2456 -228.549973 
L 879.9517 -235.887532 
L 897.6578 -238.024043 
L 915.3639 -256.448919 
L 933.07 -246.836982 
L 933.07 -400.058435 
L 933.07 -400.058435 
L 915.3639 -402.736724 
L 897.6578 -412.912193 
L 879.9517 -402.163501 
L 862.2456 -395.900569 
L 844.5395 -396.545826 
L 826.8334 -395.404946 
L 809.1273 -383.973813 
L 791.4212 -401.463805 
L 773.7151 -388.570763 
L 756.009 -388.777095 
L 738.3029 -408.74745 
L 720.5968 -386.267095 
L 702.8907 -387.111598 
L 685.1846 -374.957416 
L 667.4785 -377.229171 
L 649.7724 -380.723104 
L 632.0663 -387.210678 
L 614.3602 -387.791368 
L 596.6541 -378.939087 
L 578.948 -375.838882 
L 561.2419 -384.468469 
L 543.5358 -387.053395 
L 525.8297 -386.652399 
L 508.1236 -382.034548 
L 490.4175 -376.064035 
L 472.7114 -377.372388 
L 455.0053 -376.968287 
L 437.2992 -387.352593 
L 419.5931 -379.429272 
L 401.887 -379.608285 
L 384.1809 -383.121852 
L 366.4748 -377.167677 
L 348.7687 -380.509753 
L 331.0626 -379.686557 
L 313.3565 -379.14272 
L 295.6504 -376.801899 
L 277.9443 -382.935928 
L 260.2382 -382.108418 
L 242.5321 -379.832546 
L 224.826 -376.801957 
L 207.1199 -379.357641 
L 189.4138 -381.30757 
L 171.7077 -392.258083 
L 154.0016 -382.81222 
L 136.2955 -388.292648 
L 118.5894 -386.079782 
L 100.8833 -384.051363 
L 83.1772 -382.029016 
L 65.4711 -383.754265 
L 47.765 -378.182675 
z
" style="stroke: #bcbd22; stroke-opacity: 0.2"/>
    </defs>
    <g clip-path="url(#p782e495731)">
     <use xlink:href="#m7a339bce62" x="0" y="648" style="fill: #bcbd22; fill-opacity: 0.2; stroke: #bcbd22; stroke-opacity: 0.2"/>
    </g>
   </g>
   <g id="PolyCollection_10">
    <defs>
     <path id="m7224378ef4" d="M 47.765 -385.563923 
L 47.765 -249.275709 
L 65.4711 -239.518541 
L 83.1772 -236.276906 
L 100.8833 -236.046956 
L 118.5894 -245.516687 
L 136.2955 -246.76767 
L 154.0016 -243.71834 
L 171.7077 -250.085527 
L 189.4138 -249.228017 
L 207.1199 -250.868872 
L 224.826 -260.531931 
L 242.5321 -255.537597 
L 260.2382 -248.650116 
L 277.9443 -253.935062 
L 295.6504 -238.523301 
L 313.3565 -258.979725 
L 331.0626 -250.380546 
L 348.7687 -230.141165 
L 366.4748 -252.926087 
L 384.1809 -248.793779 
L 401.887 -244.86696 
L 419.5931 -238.05777 
L 437.2992 -240.569223 
L 455.0053 -231.8868 
L 472.7114 -247.704942 
L 490.4175 -238.294713 
L 508.1236 -236.072367 
L 525.8297 -234.17491 
L 543.5358 -225.893815 
L 561.2419 -243.31757 
L 578.948 -252.7264 
L 596.6541 -243.384705 
L 614.3602 -240.996882 
L 632.0663 -243.072187 
L 649.7724 -241.26951 
L 667.4785 -236.130062 
L 685.1846 -236.469646 
L 702.8907 -248.154916 
L 720.5968 -266.123842 
L 738.3029 -261.985912 
L 756.009 -239.354891 
L 773.7151 -254.992077 
L 791.4212 -235.041383 
L 809.1273 -255.492764 
L 826.8334 -237.382633 
L 844.5395 -226.870116 
L 862.2456 -239.145264 
L 879.9517 -256.317878 
L 897.6578 -247.07211 
L 915.3639 -265.851044 
L 933.07 -248.542789 
L 933.07 -394.928229 
L 933.07 -394.928229 
L 915.3639 -408.763044 
L 897.6578 -392.665708 
L 879.9517 -405.782252 
L 862.2456 -385.184506 
L 844.5395 -406.294102 
L 826.8334 -390.8149 
L 809.1273 -406.394453 
L 791.4212 -405.401691 
L 773.7151 -389.641195 
L 756.009 -392.856753 
L 738.3029 -386.006189 
L 720.5968 -393.378698 
L 702.8907 -395.830909 
L 685.1846 -387.395672 
L 667.4785 -378.504927 
L 649.7724 -394.496577 
L 632.0663 -377.600161 
L 614.3602 -393.103632 
L 596.6541 -377.403487 
L 578.948 -384.342051 
L 561.2419 -387.258422 
L 543.5358 -379.842205 
L 525.8297 -391.907739 
L 508.1236 -384.859591 
L 490.4175 -379.729564 
L 472.7114 -390.733199 
L 455.0053 -388.456085 
L 437.2992 -388.403175 
L 419.5931 -382.963958 
L 401.887 -387.394366 
L 384.1809 -384.38555 
L 366.4748 -382.147916 
L 348.7687 -382.47739 
L 331.0626 -384.779258 
L 313.3565 -376.940353 
L 295.6504 -380.391209 
L 277.9443 -383.529447 
L 260.2382 -373.430579 
L 242.5321 -384.097608 
L 224.826 -374.636012 
L 207.1199 -376.734955 
L 189.4138 -382.614347 
L 171.7077 -376.705097 
L 154.0016 -380.087273 
L 136.2955 -379.616395 
L 118.5894 -382.967356 
L 100.8833 -385.467321 
L 83.1772 -381.454545 
L 65.4711 -383.421396 
L 47.765 -385.563923 
z
" style="stroke: #17becf; stroke-opacity: 0.2"/>
    </defs>
    <g clip-path="url(#p782e495731)">
     <use xlink:href="#m7224378ef4" x="0" y="648" style="fill: #17becf; fill-opacity: 0.2; stroke: #17becf; stroke-opacity: 0.2"/>
    </g>
   </g>
   <g id="PolyCollection_11">
    <defs>
     <path id="m8c41e02031" d="M 47.765 -419.2154 
L 47.765 -264.550582 
L 65.4711 -242.320934 
L 83.1772 -252.3479 
L 100.8833 -271.671948 
L 118.5894 -258.186425 
L 136.2955 -248.527444 
L 154.0016 -252.649706 
L 171.7077 -244.413843 
L 189.4138 -241.95562 
L 207.1199 -237.39404 
L 224.826 -248.03327 
L 242.5321 -237.045394 
L 260.2382 -227.222365 
L 277.9443 -246.59182 
L 295.6504 -232.28107 
L 313.3565 -244.582702 
L 331.0626 -232.065692 
L 348.7687 -244.798465 
L 366.4748 -253.274726 
L 384.1809 -251.145148 
L 401.887 -251.33321 
L 419.5931 -244.227417 
L 437.2992 -239.675977 
L 455.0053 -240.021563 
L 472.7114 -228.505439 
L 490.4175 -249.110658 
L 508.1236 -246.385147 
L 525.8297 -247.041516 
L 543.5358 -251.804817 
L 561.2419 -238.722785 
L 578.948 -253.06317 
L 596.6541 -260.777895 
L 614.3602 -238.74922 
L 632.0663 -230.832999 
L 649.7724 -250.413543 
L 667.4785 -217.818414 
L 685.1846 -229.788068 
L 702.8907 -229.793224 
L 720.5968 -237.064784 
L 738.3029 -247.633238 
L 756.009 -256.206208 
L 773.7151 -247.291523 
L 791.4212 -240.437469 
L 809.1273 -251.606465 
L 826.8334 -244.815218 
L 844.5395 -251.897589 
L 862.2456 -243.107811 
L 879.9517 -255.13762 
L 897.6578 -229.626301 
L 915.3639 -256.394131 
L 933.07 -237.647125 
L 933.07 -398.606248 
L 933.07 -398.606248 
L 915.3639 -395.073211 
L 897.6578 -393.976581 
L 879.9517 -402.557542 
L 862.2456 -383.387912 
L 844.5395 -391.923512 
L 826.8334 -391.277261 
L 809.1273 -395.299548 
L 791.4212 -407.578012 
L 773.7151 -391.656768 
L 756.009 -395.31566 
L 738.3029 -383.957101 
L 720.5968 -379.62981 
L 702.8907 -394.208538 
L 685.1846 -375.576949 
L 667.4785 -390.531418 
L 649.7724 -376.481311 
L 632.0663 -394.251737 
L 614.3602 -386.791087 
L 596.6541 -384.144987 
L 578.948 -383.928895 
L 561.2419 -378.807764 
L 543.5358 -382.213133 
L 525.8297 -370.012909 
L 508.1236 -392.542004 
L 490.4175 -388.632926 
L 472.7114 -384.573105 
L 455.0053 -379.906313 
L 437.2992 -380.854275 
L 419.5931 -394.559601 
L 401.887 -387.814035 
L 384.1809 -391.186871 
L 366.4748 -396.707569 
L 348.7687 -391.704219 
L 331.0626 -385.680181 
L 313.3565 -391.125402 
L 295.6504 -392.737526 
L 277.9443 -396.886095 
L 260.2382 -395.064402 
L 242.5321 -389.893516 
L 224.826 -393.394514 
L 207.1199 -395.527872 
L 189.4138 -399.738468 
L 171.7077 -400.994673 
L 154.0016 -404.340585 
L 136.2955 -403.571089 
L 118.5894 -403.229015 
L 100.8833 -413.734303 
L 83.1772 -411.268296 
L 65.4711 -420.295964 
L 47.765 -419.2154 
z
" style="stroke: #9edae5; stroke-opacity: 0.2"/>
    </defs>
    <g clip-path="url(#p782e495731)">
     <use xlink:href="#m8c41e02031" x="0" y="648" style="fill: #9edae5; fill-opacity: 0.2; stroke: #9edae5; stroke-opacity: 0.2"/>
    </g>
   </g>
   <g id="matplotlib.axis_1">
    <g id="xtick_1">
     <g id="line2d_1">
      <defs>
       <path id="mca8b16a186" d="M 0 0 
L 0 3.5 
" style="stroke: #000000; stroke-width: 0.8"/>
      </defs>
      <g>
       <use xlink:href="#mca8b16a186" x="47.765" y="606.04" style="stroke: #000000; stroke-width: 0.8"/>
      </g>
     </g>
     <g id="text_1">
      <!-- 30 -->
      <g transform="translate(41.4025 620.638438) scale(0.1 -0.1)">
       <defs>
        <path id="DejaVuSans-33" d="M 2597 2516 
Q 3050 2419 3304 2112 
Q 3559 1806 3559 1356 
Q 3559 666 3084 287 
Q 2609 -91 1734 -91 
Q 1441 -91 1130 -33 
Q 819 25 488 141 
L 488 750 
Q 750 597 1062 519 
Q 1375 441 1716 441 
Q 2309 441 2620 675 
Q 2931 909 2931 1356 
Q 2931 1769 2642 2001 
Q 2353 2234 1838 2234 
L 1294 2234 
L 1294 2753 
L 1863 2753 
Q 2328 2753 2575 2939 
Q 2822 3125 2822 3475 
Q 2822 3834 2567 4026 
Q 2313 4219 1838 4219 
Q 1578 4219 1281 4162 
Q 984 4106 628 3988 
L 628 4550 
Q 988 4650 1302 4700 
Q 1616 4750 1894 4750 
Q 2613 4750 3031 4423 
Q 3450 4097 3450 3541 
Q 3450 3153 3228 2886 
Q 3006 2619 2597 2516 
z
" transform="scale(0.015625)"/>
        <path id="DejaVuSans-30" d="M 2034 4250 
Q 1547 4250 1301 3770 
Q 1056 3291 1056 2328 
Q 1056 1369 1301 889 
Q 1547 409 2034 409 
Q 2525 409 2770 889 
Q 3016 1369 3016 2328 
Q 3016 3291 2770 3770 
Q 2525 4250 2034 4250 
z
M 2034 4750 
Q 2819 4750 3233 4129 
Q 3647 3509 3647 2328 
Q 3647 1150 3233 529 
Q 2819 -91 2034 -91 
Q 1250 -91 836 529 
Q 422 1150 422 2328 
Q 422 3509 836 4129 
Q 1250 4750 2034 4750 
z
" transform="scale(0.015625)"/>
       </defs>
       <use xlink:href="#DejaVuSans-33"/>
       <use xlink:href="#DejaVuSans-30" x="63.623047"/>
      </g>
     </g>
    </g>
    <g id="xtick_2">
     <g id="line2d_2">
      <g>
       <use xlink:href="#mca8b16a186" x="224.826" y="606.04" style="stroke: #000000; stroke-width: 0.8"/>
      </g>
     </g>
     <g id="text_2">
      <!-- 40 -->
      <g transform="translate(218.4635 620.638438) scale(0.1 -0.1)">
       <defs>
        <path id="DejaVuSans-34" d="M 2419 4116 
L 825 1625 
L 2419 1625 
L 2419 4116 
z
M 2253 4666 
L 3047 4666 
L 3047 1625 
L 3713 1625 
L 3713 1100 
L 3047 1100 
L 3047 0 
L 2419 0 
L 2419 1100 
L 313 1100 
L 313 1709 
L 2253 4666 
z
" transform="scale(0.015625)"/>
       </defs>
       <use xlink:href="#DejaVuSans-34"/>
       <use xlink:href="#DejaVuSans-30" x="63.623047"/>
      </g>
     </g>
    </g>
    <g id="xtick_3">
     <g id="line2d_3">
      <g>
       <use xlink:href="#mca8b16a186" x="401.887" y="606.04" style="stroke: #000000; stroke-width: 0.8"/>
      </g>
     </g>
     <g id="text_3">
      <!-- 50 -->
      <g transform="translate(395.5245 620.638438) scale(0.1 -0.1)">
       <defs>
        <path id="DejaVuSans-35" d="M 691 4666 
L 3169 4666 
L 3169 4134 
L 1269 4134 
L 1269 2991 
Q 1406 3038 1543 3061 
Q 1681 3084 1819 3084 
Q 2600 3084 3056 2656 
Q 3513 2228 3513 1497 
Q 3513 744 3044 326 
Q 2575 -91 1722 -91 
Q 1428 -91 1123 -41 
Q 819 9 494 109 
L 494 744 
Q 775 591 1075 516 
Q 1375 441 1709 441 
Q 2250 441 2565 725 
Q 2881 1009 2881 1497 
Q 2881 1984 2565 2268 
Q 2250 2553 1709 2553 
Q 1456 2553 1204 2497 
Q 953 2441 691 2322 
L 691 4666 
z
" transform="scale(0.015625)"/>
       </defs>
       <use xlink:href="#DejaVuSans-35"/>
       <use xlink:href="#DejaVuSans-30" x="63.623047"/>
      </g>
     </g>
    </g>
    <g id="xtick_4">
     <g id="line2d_4">
      <g>
       <use xlink:href="#mca8b16a186" x="578.948" y="606.04" style="stroke: #000000; stroke-width: 0.8"/>
      </g>
     </g>
     <g id="text_4">
      <!-- 60 -->
      <g transform="translate(572.5855 620.638438) scale(0.1 -0.1)">
       <defs>
        <path id="DejaVuSans-36" d="M 2113 2584 
Q 1688 2584 1439 2293 
Q 1191 2003 1191 1497 
Q 1191 994 1439 701 
Q 1688 409 2113 409 
Q 2538 409 2786 701 
Q 3034 994 3034 1497 
Q 3034 2003 2786 2293 
Q 2538 2584 2113 2584 
z
M 3366 4563 
L 3366 3988 
Q 3128 4100 2886 4159 
Q 2644 4219 2406 4219 
Q 1781 4219 1451 3797 
Q 1122 3375 1075 2522 
Q 1259 2794 1537 2939 
Q 1816 3084 2150 3084 
Q 2853 3084 3261 2657 
Q 3669 2231 3669 1497 
Q 3669 778 3244 343 
Q 2819 -91 2113 -91 
Q 1303 -91 875 529 
Q 447 1150 447 2328 
Q 447 3434 972 4092 
Q 1497 4750 2381 4750 
Q 2619 4750 2861 4703 
Q 3103 4656 3366 4563 
z
" transform="scale(0.015625)"/>
       </defs>
       <use xlink:href="#DejaVuSans-36"/>
       <use xlink:href="#DejaVuSans-30" x="63.623047"/>
      </g>
     </g>
    </g>
    <g id="xtick_5">
     <g id="line2d_5">
      <g>
       <use xlink:href="#mca8b16a186" x="756.009" y="606.04" style="stroke: #000000; stroke-width: 0.8"/>
      </g>
     </g>
     <g id="text_5">
      <!-- 70 -->
      <g transform="translate(749.6465 620.638438) scale(0.1 -0.1)">
       <defs>
        <path id="DejaVuSans-37" d="M 525 4666 
L 3525 4666 
L 3525 4397 
L 1831 0 
L 1172 0 
L 2766 4134 
L 525 4134 
L 525 4666 
z
" transform="scale(0.015625)"/>
       </defs>
       <use xlink:href="#DejaVuSans-37"/>
       <use xlink:href="#DejaVuSans-30" x="63.623047"/>
      </g>
     </g>
    </g>
    <g id="xtick_6">
     <g id="line2d_6">
      <g>
       <use xlink:href="#mca8b16a186" x="933.07" y="606.04" style="stroke: #000000; stroke-width: 0.8"/>
      </g>
     </g>
     <g id="text_6">
      <!-- 80 -->
      <g transform="translate(926.7075 620.638438) scale(0.1 -0.1)">
       <defs>
        <path id="DejaVuSans-38" d="M 2034 2216 
Q 1584 2216 1326 1975 
Q 1069 1734 1069 1313 
Q 1069 891 1326 650 
Q 1584 409 2034 409 
Q 2484 409 2743 651 
Q 3003 894 3003 1313 
Q 3003 1734 2745 1975 
Q 2488 2216 2034 2216 
z
M 1403 2484 
Q 997 2584 770 2862 
Q 544 3141 544 3541 
Q 544 4100 942 4425 
Q 1341 4750 2034 4750 
Q 2731 4750 3128 4425 
Q 3525 4100 3525 3541 
Q 3525 3141 3298 2862 
Q 3072 2584 2669 2484 
Q 3125 2378 3379 2068 
Q 3634 1759 3634 1313 
Q 3634 634 3220 271 
Q 2806 -91 2034 -91 
Q 1263 -91 848 271 
Q 434 634 434 1313 
Q 434 1759 690 2068 
Q 947 2378 1403 2484 
z
M 1172 3481 
Q 1172 3119 1398 2916 
Q 1625 2713 2034 2713 
Q 2441 2713 2670 2916 
Q 2900 3119 2900 3481 
Q 2900 3844 2670 4047 
Q 2441 4250 2034 4250 
Q 1625 4250 1398 4047 
Q 1172 3844 1172 3481 
z
" transform="scale(0.015625)"/>
       </defs>
       <use xlink:href="#DejaVuSans-38"/>
       <use xlink:href="#DejaVuSans-30" x="63.623047"/>
      </g>
     </g>
    </g>
    <g id="text_7">
     <!-- Number of Baits -->
     <g transform="translate(449.885469 634.316563) scale(0.1 -0.1)">
      <defs>
       <path id="DejaVuSans-4e" d="M 628 4666 
L 1478 4666 
L 3547 763 
L 3547 4666 
L 4159 4666 
L 4159 0 
L 3309 0 
L 1241 3903 
L 1241 0 
L 628 0 
L 628 4666 
z
" transform="scale(0.015625)"/>
       <path id="DejaVuSans-75" d="M 544 1381 
L 544 3500 
L 1119 3500 
L 1119 1403 
Q 1119 906 1312 657 
Q 1506 409 1894 409 
Q 2359 409 2629 706 
Q 2900 1003 2900 1516 
L 2900 3500 
L 3475 3500 
L 3475 0 
L 2900 0 
L 2900 538 
Q 2691 219 2414 64 
Q 2138 -91 1772 -91 
Q 1169 -91 856 284 
Q 544 659 544 1381 
z
M 1991 3584 
L 1991 3584 
z
" transform="scale(0.015625)"/>
       <path id="DejaVuSans-6d" d="M 3328 2828 
Q 3544 3216 3844 3400 
Q 4144 3584 4550 3584 
Q 5097 3584 5394 3201 
Q 5691 2819 5691 2113 
L 5691 0 
L 5113 0 
L 5113 2094 
Q 5113 2597 4934 2840 
Q 4756 3084 4391 3084 
Q 3944 3084 3684 2787 
Q 3425 2491 3425 1978 
L 3425 0 
L 2847 0 
L 2847 2094 
Q 2847 2600 2669 2842 
Q 2491 3084 2119 3084 
Q 1678 3084 1418 2786 
Q 1159 2488 1159 1978 
L 1159 0 
L 581 0 
L 581 3500 
L 1159 3500 
L 1159 2956 
Q 1356 3278 1631 3431 
Q 1906 3584 2284 3584 
Q 2666 3584 2933 3390 
Q 3200 3197 3328 2828 
z
" transform="scale(0.015625)"/>
       <path id="DejaVuSans-62" d="M 3116 1747 
Q 3116 2381 2855 2742 
Q 2594 3103 2138 3103 
Q 1681 3103 1420 2742 
Q 1159 2381 1159 1747 
Q 1159 1113 1420 752 
Q 1681 391 2138 391 
Q 2594 391 2855 752 
Q 3116 1113 3116 1747 
z
M 1159 2969 
Q 1341 3281 1617 3432 
Q 1894 3584 2278 3584 
Q 2916 3584 3314 3078 
Q 3713 2572 3713 1747 
Q 3713 922 3314 415 
Q 2916 -91 2278 -91 
Q 1894 -91 1617 61 
Q 1341 213 1159 525 
L 1159 0 
L 581 0 
L 581 4863 
L 1159 4863 
L 1159 2969 
z
" transform="scale(0.015625)"/>
       <path id="DejaVuSans-65" d="M 3597 1894 
L 3597 1613 
L 953 1613 
Q 991 1019 1311 708 
Q 1631 397 2203 397 
Q 2534 397 2845 478 
Q 3156 559 3463 722 
L 3463 178 
Q 3153 47 2828 -22 
Q 2503 -91 2169 -91 
Q 1331 -91 842 396 
Q 353 884 353 1716 
Q 353 2575 817 3079 
Q 1281 3584 2069 3584 
Q 2775 3584 3186 3129 
Q 3597 2675 3597 1894 
z
M 3022 2063 
Q 3016 2534 2758 2815 
Q 2500 3097 2075 3097 
Q 1594 3097 1305 2825 
Q 1016 2553 972 2059 
L 3022 2063 
z
" transform="scale(0.015625)"/>
       <path id="DejaVuSans-72" d="M 2631 2963 
Q 2534 3019 2420 3045 
Q 2306 3072 2169 3072 
Q 1681 3072 1420 2755 
Q 1159 2438 1159 1844 
L 1159 0 
L 581 0 
L 581 3500 
L 1159 3500 
L 1159 2956 
Q 1341 3275 1631 3429 
Q 1922 3584 2338 3584 
Q 2397 3584 2469 3576 
Q 2541 3569 2628 3553 
L 2631 2963 
z
" transform="scale(0.015625)"/>
       <path id="DejaVuSans-20" transform="scale(0.015625)"/>
       <path id="DejaVuSans-6f" d="M 1959 3097 
Q 1497 3097 1228 2736 
Q 959 2375 959 1747 
Q 959 1119 1226 758 
Q 1494 397 1959 397 
Q 2419 397 2687 759 
Q 2956 1122 2956 1747 
Q 2956 2369 2687 2733 
Q 2419 3097 1959 3097 
z
M 1959 3584 
Q 2709 3584 3137 3096 
Q 3566 2609 3566 1747 
Q 3566 888 3137 398 
Q 2709 -91 1959 -91 
Q 1206 -91 779 398 
Q 353 888 353 1747 
Q 353 2609 779 3096 
Q 1206 3584 1959 3584 
z
" transform="scale(0.015625)"/>
       <path id="DejaVuSans-66" d="M 2375 4863 
L 2375 4384 
L 1825 4384 
Q 1516 4384 1395 4259 
Q 1275 4134 1275 3809 
L 1275 3500 
L 2222 3500 
L 2222 3053 
L 1275 3053 
L 1275 0 
L 697 0 
L 697 3053 
L 147 3053 
L 147 3500 
L 697 3500 
L 697 3744 
Q 697 4328 969 4595 
Q 1241 4863 1831 4863 
L 2375 4863 
z
" transform="scale(0.015625)"/>
       <path id="DejaVuSans-42" d="M 1259 2228 
L 1259 519 
L 2272 519 
Q 2781 519 3026 730 
Q 3272 941 3272 1375 
Q 3272 1813 3026 2020 
Q 2781 2228 2272 2228 
L 1259 2228 
z
M 1259 4147 
L 1259 2741 
L 2194 2741 
Q 2656 2741 2882 2914 
Q 3109 3088 3109 3444 
Q 3109 3797 2882 3972 
Q 2656 4147 2194 4147 
L 1259 4147 
z
M 628 4666 
L 2241 4666 
Q 2963 4666 3353 4366 
Q 3744 4066 3744 3513 
Q 3744 3084 3544 2831 
Q 3344 2578 2956 2516 
Q 3422 2416 3680 2098 
Q 3938 1781 3938 1306 
Q 3938 681 3513 340 
Q 3088 0 2303 0 
L 628 0 
L 628 4666 
z
" transform="scale(0.015625)"/>
       <path id="DejaVuSans-61" d="M 2194 1759 
Q 1497 1759 1228 1600 
Q 959 1441 959 1056 
Q 959 750 1161 570 
Q 1363 391 1709 391 
Q 2188 391 2477 730 
Q 2766 1069 2766 1631 
L 2766 1759 
L 2194 1759 
z
M 3341 1997 
L 3341 0 
L 2766 0 
L 2766 531 
Q 2569 213 2275 61 
Q 1981 -91 1556 -91 
Q 1019 -91 701 211 
Q 384 513 384 1019 
Q 384 1609 779 1909 
Q 1175 2209 1959 2209 
L 2766 2209 
L 2766 2266 
Q 2766 2663 2505 2880 
Q 2244 3097 1772 3097 
Q 1472 3097 1187 3025 
Q 903 2953 641 2809 
L 641 3341 
Q 956 3463 1253 3523 
Q 1550 3584 1831 3584 
Q 2591 3584 2966 3190 
Q 3341 2797 3341 1997 
z
" transform="scale(0.015625)"/>
       <path id="DejaVuSans-69" d="M 603 3500 
L 1178 3500 
L 1178 0 
L 603 0 
L 603 3500 
z
M 603 4863 
L 1178 4863 
L 1178 4134 
L 603 4134 
L 603 4863 
z
" transform="scale(0.015625)"/>
       <path id="DejaVuSans-74" d="M 1172 4494 
L 1172 3500 
L 2356 3500 
L 2356 3053 
L 1172 3053 
L 1172 1153 
Q 1172 725 1289 603 
Q 1406 481 1766 481 
L 2356 481 
L 2356 0 
L 1766 0 
Q 1100 0 847 248 
Q 594 497 594 1153 
L 594 3053 
L 172 3053 
L 172 3500 
L 594 3500 
L 594 4494 
L 1172 4494 
z
" transform="scale(0.015625)"/>
       <path id="DejaVuSans-73" d="M 2834 3397 
L 2834 2853 
Q 2591 2978 2328 3040 
Q 2066 3103 1784 3103 
Q 1356 3103 1142 2972 
Q 928 2841 928 2578 
Q 928 2378 1081 2264 
Q 1234 2150 1697 2047 
L 1894 2003 
Q 2506 1872 2764 1633 
Q 3022 1394 3022 966 
Q 3022 478 2636 193 
Q 2250 -91 1575 -91 
Q 1294 -91 989 -36 
Q 684 19 347 128 
L 347 722 
Q 666 556 975 473 
Q 1284 391 1588 391 
Q 1994 391 2212 530 
Q 2431 669 2431 922 
Q 2431 1156 2273 1281 
Q 2116 1406 1581 1522 
L 1381 1569 
Q 847 1681 609 1914 
Q 372 2147 372 2553 
Q 372 3047 722 3315 
Q 1072 3584 1716 3584 
Q 2034 3584 2315 3537 
Q 2597 3491 2834 3397 
z
" transform="scale(0.015625)"/>
      </defs>
      <use xlink:href="#DejaVuSans-4e"/>
      <use xlink:href="#DejaVuSans-75" x="74.804688"/>
      <use xlink:href="#DejaVuSans-6d" x="138.183594"/>
      <use xlink:href="#DejaVuSans-62" x="235.595703"/>
      <use xlink:href="#DejaVuSans-65" x="299.072266"/>
      <use xlink:href="#DejaVuSans-72" x="360.595703"/>
      <use xlink:href="#DejaVuSans-20" x="401.708984"/>
      <use xlink:href="#DejaVuSans-6f" x="433.496094"/>
      <use xlink:href="#DejaVuSans-66" x="494.677734"/>
      <use xlink:href="#DejaVuSans-20" x="529.882812"/>
      <use xlink:href="#DejaVuSans-42" x="561.669922"/>
      <use xlink:href="#DejaVuSans-61" x="630.273438"/>
      <use xlink:href="#DejaVuSans-69" x="691.552734"/>
      <use xlink:href="#DejaVuSans-74" x="719.335938"/>
      <use xlink:href="#DejaVuSans-73" x="758.544922"/>
     </g>
    </g>
   </g>
   <g id="matplotlib.axis_2">
    <g id="ytick_1">
     <g id="line2d_7">
      <defs>
       <path id="m14e1c00eec" d="M 0 0 
L -3.5 0 
" style="stroke: #000000; stroke-width: 0.8"/>
      </defs>
      <g>
       <use xlink:href="#m14e1c00eec" x="47.765" y="606.04" style="stroke: #000000; stroke-width: 0.8"/>
      </g>
     </g>
     <g id="text_8">
      <!-- 0.0 -->
      <g transform="translate(24.861875 609.839219) scale(0.1 -0.1)">
       <defs>
        <path id="DejaVuSans-2e" d="M 684 794 
L 1344 794 
L 1344 0 
L 684 0 
L 684 794 
z
" transform="scale(0.015625)"/>
       </defs>
       <use xlink:href="#DejaVuSans-30"/>
       <use xlink:href="#DejaVuSans-2e" x="63.623047"/>
       <use xlink:href="#DejaVuSans-30" x="95.410156"/>
      </g>
     </g>
    </g>
    <g id="ytick_2">
     <g id="line2d_8">
      <g>
       <use xlink:href="#m14e1c00eec" x="47.765" y="490.9816" style="stroke: #000000; stroke-width: 0.8"/>
      </g>
     </g>
     <g id="text_9">
      <!-- 0.2 -->
      <g transform="translate(24.861875 494.780819) scale(0.1 -0.1)">
       <defs>
        <path id="DejaVuSans-32" d="M 1228 531 
L 3431 531 
L 3431 0 
L 469 0 
L 469 531 
Q 828 903 1448 1529 
Q 2069 2156 2228 2338 
Q 2531 2678 2651 2914 
Q 2772 3150 2772 3378 
Q 2772 3750 2511 3984 
Q 2250 4219 1831 4219 
Q 1534 4219 1204 4116 
Q 875 4013 500 3803 
L 500 4441 
Q 881 4594 1212 4672 
Q 1544 4750 1819 4750 
Q 2544 4750 2975 4387 
Q 3406 4025 3406 3419 
Q 3406 3131 3298 2873 
Q 3191 2616 2906 2266 
Q 2828 2175 2409 1742 
Q 1991 1309 1228 531 
z
" transform="scale(0.015625)"/>
       </defs>
       <use xlink:href="#DejaVuSans-30"/>
       <use xlink:href="#DejaVuSans-2e" x="63.623047"/>
       <use xlink:href="#DejaVuSans-32" x="95.410156"/>
      </g>
     </g>
    </g>
    <g id="ytick_3">
     <g id="line2d_9">
      <g>
       <use xlink:href="#m14e1c00eec" x="47.765" y="375.9232" style="stroke: #000000; stroke-width: 0.8"/>
      </g>
     </g>
     <g id="text_10">
      <!-- 0.4 -->
      <g transform="translate(24.861875 379.722419) scale(0.1 -0.1)">
       <use xlink:href="#DejaVuSans-30"/>
       <use xlink:href="#DejaVuSans-2e" x="63.623047"/>
       <use xlink:href="#DejaVuSans-34" x="95.410156"/>
      </g>
     </g>
    </g>
    <g id="ytick_4">
     <g id="line2d_10">
      <g>
       <use xlink:href="#m14e1c00eec" x="47.765" y="260.8648" style="stroke: #000000; stroke-width: 0.8"/>
      </g>
     </g>
     <g id="text_11">
      <!-- 0.6 -->
      <g transform="translate(24.861875 264.664019) scale(0.1 -0.1)">
       <use xlink:href="#DejaVuSans-30"/>
       <use xlink:href="#DejaVuSans-2e" x="63.623047"/>
       <use xlink:href="#DejaVuSans-36" x="95.410156"/>
      </g>
     </g>
    </g>
    <g id="ytick_5">
     <g id="line2d_11">
      <g>
       <use xlink:href="#m14e1c00eec" x="47.765" y="145.8064" style="stroke: #000000; stroke-width: 0.8"/>
      </g>
     </g>
     <g id="text_12">
      <!-- 0.8 -->
      <g transform="translate(24.861875 149.605619) scale(0.1 -0.1)">
       <use xlink:href="#DejaVuSans-30"/>
       <use xlink:href="#DejaVuSans-2e" x="63.623047"/>
       <use xlink:href="#DejaVuSans-38" x="95.410156"/>
      </g>
     </g>
    </g>
    <g id="ytick_6">
     <g id="line2d_12">
      <g>
       <use xlink:href="#m14e1c00eec" x="47.765" y="30.748" style="stroke: #000000; stroke-width: 0.8"/>
      </g>
     </g>
     <g id="text_13">
      <!-- 1.0 -->
      <g transform="translate(24.861875 34.547219) scale(0.1 -0.1)">
       <defs>
        <path id="DejaVuSans-31" d="M 794 531 
L 1825 531 
L 1825 4091 
L 703 3866 
L 703 4441 
L 1819 4666 
L 2450 4666 
L 2450 531 
L 3481 531 
L 3481 0 
L 794 0 
L 794 531 
z
" transform="scale(0.015625)"/>
       </defs>
       <use xlink:href="#DejaVuSans-31"/>
       <use xlink:href="#DejaVuSans-2e" x="63.623047"/>
       <use xlink:href="#DejaVuSans-30" x="95.410156"/>
      </g>
     </g>
    </g>
    <g id="text_14">
     <!-- Aggregated ARI Scores -->
     <g transform="translate(18.782187 375.786188) rotate(-90) scale(0.1 -0.1)">
      <defs>
       <path id="DejaVuSans-41" d="M 2188 4044 
L 1331 1722 
L 3047 1722 
L 2188 4044 
z
M 1831 4666 
L 2547 4666 
L 4325 0 
L 3669 0 
L 3244 1197 
L 1141 1197 
L 716 0 
L 50 0 
L 1831 4666 
z
" transform="scale(0.015625)"/>
       <path id="DejaVuSans-67" d="M 2906 1791 
Q 2906 2416 2648 2759 
Q 2391 3103 1925 3103 
Q 1463 3103 1205 2759 
Q 947 2416 947 1791 
Q 947 1169 1205 825 
Q 1463 481 1925 481 
Q 2391 481 2648 825 
Q 2906 1169 2906 1791 
z
M 3481 434 
Q 3481 -459 3084 -895 
Q 2688 -1331 1869 -1331 
Q 1566 -1331 1297 -1286 
Q 1028 -1241 775 -1147 
L 775 -588 
Q 1028 -725 1275 -790 
Q 1522 -856 1778 -856 
Q 2344 -856 2625 -561 
Q 2906 -266 2906 331 
L 2906 616 
Q 2728 306 2450 153 
Q 2172 0 1784 0 
Q 1141 0 747 490 
Q 353 981 353 1791 
Q 353 2603 747 3093 
Q 1141 3584 1784 3584 
Q 2172 3584 2450 3431 
Q 2728 3278 2906 2969 
L 2906 3500 
L 3481 3500 
L 3481 434 
z
" transform="scale(0.015625)"/>
       <path id="DejaVuSans-64" d="M 2906 2969 
L 2906 4863 
L 3481 4863 
L 3481 0 
L 2906 0 
L 2906 525 
Q 2725 213 2448 61 
Q 2172 -91 1784 -91 
Q 1150 -91 751 415 
Q 353 922 353 1747 
Q 353 2572 751 3078 
Q 1150 3584 1784 3584 
Q 2172 3584 2448 3432 
Q 2725 3281 2906 2969 
z
M 947 1747 
Q 947 1113 1208 752 
Q 1469 391 1925 391 
Q 2381 391 2643 752 
Q 2906 1113 2906 1747 
Q 2906 2381 2643 2742 
Q 2381 3103 1925 3103 
Q 1469 3103 1208 2742 
Q 947 2381 947 1747 
z
" transform="scale(0.015625)"/>
       <path id="DejaVuSans-52" d="M 2841 2188 
Q 3044 2119 3236 1894 
Q 3428 1669 3622 1275 
L 4263 0 
L 3584 0 
L 2988 1197 
Q 2756 1666 2539 1819 
Q 2322 1972 1947 1972 
L 1259 1972 
L 1259 0 
L 628 0 
L 628 4666 
L 2053 4666 
Q 2853 4666 3247 4331 
Q 3641 3997 3641 3322 
Q 3641 2881 3436 2590 
Q 3231 2300 2841 2188 
z
M 1259 4147 
L 1259 2491 
L 2053 2491 
Q 2509 2491 2742 2702 
Q 2975 2913 2975 3322 
Q 2975 3731 2742 3939 
Q 2509 4147 2053 4147 
L 1259 4147 
z
" transform="scale(0.015625)"/>
       <path id="DejaVuSans-49" d="M 628 4666 
L 1259 4666 
L 1259 0 
L 628 0 
L 628 4666 
z
" transform="scale(0.015625)"/>
       <path id="DejaVuSans-53" d="M 3425 4513 
L 3425 3897 
Q 3066 4069 2747 4153 
Q 2428 4238 2131 4238 
Q 1616 4238 1336 4038 
Q 1056 3838 1056 3469 
Q 1056 3159 1242 3001 
Q 1428 2844 1947 2747 
L 2328 2669 
Q 3034 2534 3370 2195 
Q 3706 1856 3706 1288 
Q 3706 609 3251 259 
Q 2797 -91 1919 -91 
Q 1588 -91 1214 -16 
Q 841 59 441 206 
L 441 856 
Q 825 641 1194 531 
Q 1563 422 1919 422 
Q 2459 422 2753 634 
Q 3047 847 3047 1241 
Q 3047 1584 2836 1778 
Q 2625 1972 2144 2069 
L 1759 2144 
Q 1053 2284 737 2584 
Q 422 2884 422 3419 
Q 422 4038 858 4394 
Q 1294 4750 2059 4750 
Q 2388 4750 2728 4690 
Q 3069 4631 3425 4513 
z
" transform="scale(0.015625)"/>
       <path id="DejaVuSans-63" d="M 3122 3366 
L 3122 2828 
Q 2878 2963 2633 3030 
Q 2388 3097 2138 3097 
Q 1578 3097 1268 2742 
Q 959 2388 959 1747 
Q 959 1106 1268 751 
Q 1578 397 2138 397 
Q 2388 397 2633 464 
Q 2878 531 3122 666 
L 3122 134 
Q 2881 22 2623 -34 
Q 2366 -91 2075 -91 
Q 1284 -91 818 406 
Q 353 903 353 1747 
Q 353 2603 823 3093 
Q 1294 3584 2113 3584 
Q 2378 3584 2631 3529 
Q 2884 3475 3122 3366 
z
" transform="scale(0.015625)"/>
      </defs>
      <use xlink:href="#DejaVuSans-41"/>
      <use xlink:href="#DejaVuSans-67" x="68.408203"/>
      <use xlink:href="#DejaVuSans-67" x="131.884766"/>
      <use xlink:href="#DejaVuSans-72" x="195.361328"/>
      <use xlink:href="#DejaVuSans-65" x="234.224609"/>
      <use xlink:href="#DejaVuSans-67" x="295.748047"/>
      <use xlink:href="#DejaVuSans-61" x="359.224609"/>
      <use xlink:href="#DejaVuSans-74" x="420.503906"/>
      <use xlink:href="#DejaVuSans-65" x="459.712891"/>
      <use xlink:href="#DejaVuSans-64" x="521.236328"/>
      <use xlink:href="#DejaVuSans-20" x="584.712891"/>
      <use xlink:href="#DejaVuSans-41" x="616.5"/>
      <use xlink:href="#DejaVuSans-52" x="684.908203"/>
      <use xlink:href="#DejaVuSans-49" x="754.390625"/>
      <use xlink:href="#DejaVuSans-20" x="783.882812"/>
      <use xlink:href="#DejaVuSans-53" x="815.669922"/>
      <use xlink:href="#DejaVuSans-63" x="879.146484"/>
      <use xlink:href="#DejaVuSans-6f" x="934.126953"/>
      <use xlink:href="#DejaVuSans-72" x="995.308594"/>
      <use xlink:href="#DejaVuSans-65" x="1034.171875"/>
      <use xlink:href="#DejaVuSans-73" x="1095.695312"/>
     </g>
    </g>
   </g>
   <g id="line2d_13">
    <path d="M 47.765 323.163473 
L 65.4711 321.719987 
L 83.1772 318.952171 
L 100.8833 319.79119 
L 118.5894 323.428558 
L 136.2955 329.971232 
L 154.0016 319.809889 
L 171.7077 324.905416 
L 189.4138 328.580307 
L 207.1199 326.301356 
L 224.826 328.738782 
L 242.5321 327.586355 
L 260.2382 327.219539 
L 277.9443 322.223617 
L 295.6504 325.297636 
L 313.3565 323.46284 
L 331.0626 325.183857 
L 348.7687 323.87007 
L 366.4748 326.958671 
L 384.1809 329.574281 
L 401.887 331.981652 
L 419.5931 331.124286 
L 437.2992 327.960514 
L 455.0053 328.012744 
L 472.7114 330.124433 
L 490.4175 335.669167 
L 508.1236 326.776524 
L 525.8297 328.411481 
L 543.5358 330.735962 
L 561.2419 324.666051 
L 578.948 333.555272 
L 596.6541 320.71403 
L 614.3602 318.552497 
L 632.0663 323.483157 
L 649.7724 315.759578 
L 667.4785 310.079578 
L 685.1846 325.234099 
L 702.8907 321.155535 
L 720.5968 331.726569 
L 738.3029 322.888846 
L 756.009 328.81574 
L 773.7151 325.934042 
L 791.4212 320.398987 
L 809.1273 330.407052 
L 826.8334 315.139101 
L 844.5395 322.588648 
L 862.2456 312.935442 
L 879.9517 309.972254 
L 897.6578 323.094423 
L 915.3639 305.325956 
L 933.07 315.699548 
" clip-path="url(#p782e495731)" style="fill: none; stroke: #1f77b4; stroke-width: 1.5; stroke-linecap: square"/>
   </g>
   <g id="line2d_14">
    <path d="M 47.765 434.013945 
L 65.4711 409.622691 
L 83.1772 415.464321 
L 100.8833 379.80229 
L 118.5894 443.351306 
L 136.2955 401.872705 
L 154.0016 419.608045 
L 171.7077 407.739657 
L 189.4138 407.805018 
L 207.1199 411.869032 
L 224.826 439.4282 
L 242.5321 402.355103 
L 260.2382 395.358644 
L 277.9443 406.582646 
L 295.6504 381.896506 
L 313.3565 417.43168 
L 331.0626 404.513806 
L 348.7687 408.888712 
L 366.4748 380.267484 
L 384.1809 398.134898 
L 401.887 385.388907 
L 419.5931 380.08083 
L 437.2992 349.626214 
L 455.0053 421.458142 
L 472.7114 378.468742 
L 490.4175 379.729505 
L 508.1236 387.830383 
L 525.8297 399.308359 
L 543.5358 404.904844 
L 561.2419 366.460333 
L 578.948 369.911522 
L 596.6541 393.169313 
L 614.3602 391.180158 
L 632.0663 368.83083 
L 649.7724 378.714342 
L 667.4785 390.189084 
L 685.1846 381.801326 
L 702.8907 374.606209 
L 720.5968 379.594018 
L 738.3029 375.122201 
L 756.009 369.703211 
L 773.7151 410.152329 
L 791.4212 367.577657 
L 809.1273 377.289858 
L 826.8334 390.362372 
L 844.5395 377.223776 
L 862.2456 367.151837 
L 879.9517 382.8709 
L 897.6578 374.148294 
L 915.3639 358.940436 
L 933.07 357.601874 
" clip-path="url(#p782e495731)" style="fill: none; stroke: #ff7f0e; stroke-width: 1.5; stroke-linecap: square"/>
   </g>
   <g id="line2d_15">
    <path d="M 47.765 329.997187 
L 65.4711 324.348991 
L 83.1772 323.822501 
L 100.8833 321.838901 
L 118.5894 321.448617 
L 136.2955 326.607831 
L 154.0016 320.154528 
L 171.7077 318.6314 
L 189.4138 314.881905 
L 207.1199 321.767652 
L 224.826 322.070563 
L 242.5321 322.321836 
L 260.2382 328.474909 
L 277.9443 328.793499 
L 295.6504 315.311339 
L 313.3565 323.405713 
L 331.0626 328.02889 
L 348.7687 327.79374 
L 366.4748 321.206739 
L 384.1809 327.46185 
L 401.887 328.584205 
L 419.5931 326.782837 
L 437.2992 324.549365 
L 455.0053 332.176724 
L 472.7114 339.890666 
L 490.4175 330.063708 
L 508.1236 319.328504 
L 525.8297 334.251362 
L 543.5358 330.955359 
L 561.2419 336.139697 
L 578.948 326.542847 
L 596.6541 336.600487 
L 614.3602 330.953453 
L 632.0663 338.837404 
L 649.7724 333.297072 
L 667.4785 340.52769 
L 685.1846 328.698294 
L 702.8907 331.689246 
L 720.5968 329.436004 
L 738.3029 336.339386 
L 756.009 332.905788 
L 773.7151 325.787808 
L 791.4212 330.400182 
L 809.1273 309.604658 
L 826.8334 333.806274 
L 844.5395 322.028962 
L 862.2456 320.865891 
L 879.9517 318.536647 
L 897.6578 318.858432 
L 915.3639 313.594318 
L 933.07 315.540634 
" clip-path="url(#p782e495731)" style="fill: none; stroke: #2ca02c; stroke-width: 1.5; stroke-linecap: square"/>
   </g>
   <g id="line2d_16">
    <path d="M 47.765 328.461491 
L 65.4711 324.321556 
L 83.1772 331.746157 
L 100.8833 324.546729 
L 118.5894 315.963202 
L 136.2955 326.580832 
L 154.0016 320.32346 
L 171.7077 317.441313 
L 189.4138 322.866883 
L 207.1199 321.142537 
L 224.826 327.528557 
L 242.5321 319.08699 
L 260.2382 318.135321 
L 277.9443 315.280657 
L 295.6504 320.616403 
L 313.3565 320.244265 
L 331.0626 326.820771 
L 348.7687 325.314457 
L 366.4748 326.940539 
L 384.1809 326.630906 
L 401.887 322.517521 
L 419.5931 321.470155 
L 437.2992 327.732658 
L 455.0053 320.229585 
L 472.7114 311.338569 
L 490.4175 316.824407 
L 508.1236 315.992111 
L 525.8297 325.062897 
L 543.5358 333.760783 
L 561.2419 318.895574 
L 578.948 325.005985 
L 596.6541 332.861967 
L 614.3602 327.142086 
L 632.0663 330.437186 
L 649.7724 334.747842 
L 667.4785 326.582591 
L 685.1846 338.659648 
L 702.8907 321.064707 
L 720.5968 331.021526 
L 738.3029 331.85078 
L 756.009 332.740008 
L 773.7151 329.485612 
L 791.4212 319.103116 
L 809.1273 329.402521 
L 826.8334 331.434352 
L 844.5395 327.161073 
L 862.2456 340.291858 
L 879.9517 328.699983 
L 897.6578 317.737985 
L 915.3639 317.828533 
L 933.07 321.835432 
" clip-path="url(#p782e495731)" style="fill: none; stroke: #d62728; stroke-width: 1.5; stroke-linecap: square"/>
   </g>
   <g id="line2d_17">
    <path d="M 47.765 325.348919 
L 65.4711 325.710662 
L 83.1772 321.978547 
L 100.8833 321.182301 
L 118.5894 321.03562 
L 136.2955 328.37555 
L 154.0016 321.189556 
L 171.7077 320.716824 
L 189.4138 316.543473 
L 207.1199 323.048573 
L 224.826 324.667916 
L 242.5321 311.366032 
L 260.2382 323.249488 
L 277.9443 322.620016 
L 295.6504 326.325708 
L 313.3565 325.863179 
L 331.0626 334.426913 
L 348.7687 325.439186 
L 366.4748 324.142572 
L 384.1809 330.971548 
L 401.887 326.820424 
L 419.5931 332.448759 
L 437.2992 325.147512 
L 455.0053 330.765474 
L 472.7114 323.301033 
L 490.4175 328.75164 
L 508.1236 327.115386 
L 525.8297 328.147618 
L 543.5358 320.667767 
L 561.2419 323.820495 
L 578.948 327.317232 
L 596.6541 324.933321 
L 614.3602 325.763551 
L 632.0663 322.499753 
L 649.7724 317.393875 
L 667.4785 325.031316 
L 685.1846 325.753948 
L 702.8907 324.691799 
L 720.5968 319.165607 
L 738.3029 310.721345 
L 756.009 304.565261 
L 773.7151 322.854311 
L 791.4212 326.772659 
L 809.1273 322.464057 
L 826.8334 319.471446 
L 844.5395 319.713136 
L 862.2456 324.452156 
L 879.9517 325.572139 
L 897.6578 317.823632 
L 915.3639 320.937768 
L 933.07 313.87819 
" clip-path="url(#p782e495731)" style="fill: none; stroke: #9467bd; stroke-width: 1.5; stroke-linecap: square"/>
   </g>
   <g id="line2d_18">
    <path d="M 47.765 341.686232 
L 65.4711 334.307067 
L 83.1772 342.604665 
L 100.8833 337.528178 
L 118.5894 340.895953 
L 136.2955 337.563166 
L 154.0016 340.585518 
L 171.7077 335.280086 
L 189.4138 333.738463 
L 207.1199 341.991456 
L 224.826 339.3289 
L 242.5321 336.741688 
L 260.2382 330.725584 
L 277.9443 338.438796 
L 295.6504 341.664826 
L 313.3565 332.602431 
L 331.0626 338.836889 
L 348.7687 340.507189 
L 366.4748 341.132388 
L 384.1809 336.613698 
L 401.887 337.206504 
L 419.5931 332.621134 
L 437.2992 341.783264 
L 455.0053 340.89761 
L 472.7114 337.141678 
L 490.4175 338.334559 
L 508.1236 334.041457 
L 525.8297 335.321237 
L 543.5358 336.605166 
L 561.2419 343.506078 
L 578.948 337.408966 
L 596.6541 333.815168 
L 614.3602 330.774761 
L 632.0663 335.510509 
L 649.7724 331.035398 
L 667.4785 337.616388 
L 685.1846 343.118508 
L 702.8907 331.309123 
L 720.5968 330.553205 
L 738.3029 326.061145 
L 756.009 328.053803 
L 773.7151 327.533578 
L 791.4212 333.157403 
L 809.1273 342.730684 
L 826.8334 332.544912 
L 844.5395 341.386204 
L 862.2456 325.494025 
L 879.9517 336.555052 
L 897.6578 317.843011 
L 915.3639 320.371369 
L 933.07 341.076429 
" clip-path="url(#p782e495731)" style="fill: none; stroke: #8c564b; stroke-width: 1.5; stroke-linecap: square"/>
   </g>
   <g id="line2d_19">
    <path d="M 47.765 341.385848 
L 65.4711 336.640117 
L 83.1772 343.40512 
L 100.8833 341.272583 
L 118.5894 331.533881 
L 136.2955 337.836796 
L 154.0016 336.594342 
L 171.7077 337.289281 
L 189.4138 339.44106 
L 207.1199 334.602335 
L 224.826 341.469437 
L 242.5321 338.151304 
L 260.2382 334.485651 
L 277.9443 337.925103 
L 295.6504 339.086653 
L 313.3565 340.177159 
L 331.0626 337.955303 
L 348.7687 338.327165 
L 366.4748 342.375937 
L 384.1809 339.701264 
L 401.887 331.85553 
L 419.5931 338.84148 
L 437.2992 337.235178 
L 455.0053 336.112722 
L 472.7114 332.707954 
L 490.4175 342.004527 
L 508.1236 346.673868 
L 525.8297 328.130369 
L 543.5358 333.102093 
L 561.2419 335.113023 
L 578.948 346.106821 
L 596.6541 325.805701 
L 614.3602 329.315164 
L 632.0663 330.676862 
L 649.7724 331.2997 
L 667.4785 342.220145 
L 685.1846 314.069451 
L 702.8907 331.607819 
L 720.5968 319.721915 
L 738.3029 331.335065 
L 756.009 333.0439 
L 773.7151 330.637368 
L 791.4212 340.265783 
L 809.1273 333.360301 
L 826.8334 330.816631 
L 844.5395 326.076707 
L 862.2456 326.775759 
L 879.9517 332.07507 
L 897.6578 329.61045 
L 915.3639 326.05665 
L 933.07 329.084097 
" clip-path="url(#p782e495731)" style="fill: none; stroke: #e377c2; stroke-width: 1.5; stroke-linecap: square"/>
   </g>
   <g id="line2d_20">
    <path d="M 47.765 342.494705 
L 65.4711 343.182812 
L 83.1772 334.938138 
L 100.8833 340.640398 
L 118.5894 334.295303 
L 136.2955 346.395304 
L 154.0016 338.616116 
L 171.7077 333.786015 
L 189.4138 334.583625 
L 207.1199 332.837561 
L 224.826 343.518295 
L 242.5321 332.649959 
L 260.2382 337.048909 
L 277.9443 338.215062 
L 295.6504 332.796791 
L 313.3565 342.142585 
L 331.0626 332.348379 
L 348.7687 336.343471 
L 366.4748 341.121439 
L 384.1809 336.310163 
L 401.887 332.464331 
L 419.5931 332.478952 
L 437.2992 327.620787 
L 455.0053 326.24264 
L 472.7114 335.149818 
L 490.4175 334.325263 
L 508.1236 328.835192 
L 525.8297 333.463536 
L 543.5358 337.138865 
L 561.2419 339.448266 
L 578.948 330.809705 
L 596.6541 334.50314 
L 614.3602 328.178653 
L 632.0663 326.191717 
L 649.7724 341.855139 
L 667.4785 333.277146 
L 685.1846 331.330485 
L 702.8907 323.072718 
L 720.5968 333.631704 
L 738.3029 321.799484 
L 756.009 333.283108 
L 773.7151 332.268792 
L 791.4212 332.932119 
L 809.1273 339.418769 
L 826.8334 334.251236 
L 844.5395 324.398715 
L 862.2456 329.870701 
L 879.9517 319.731945 
L 897.6578 325.728316 
L 915.3639 331.325961 
L 933.07 323.755643 
" clip-path="url(#p782e495731)" style="fill: none; stroke: #7f7f7f; stroke-width: 1.5; stroke-linecap: square"/>
   </g>
   <g id="line2d_21">
    <path d="M 47.765 328.492686 
L 65.4711 332.679943 
L 83.1772 326.243343 
L 100.8833 330.927941 
L 118.5894 333.79273 
L 136.2955 330.929471 
L 154.0016 335.493263 
L 171.7077 329.338335 
L 189.4138 328.699157 
L 207.1199 335.520227 
L 224.826 336.618448 
L 242.5321 334.027259 
L 260.2382 340.016251 
L 277.9443 338.442978 
L 295.6504 343.366364 
L 313.3565 339.947956 
L 331.0626 337.299512 
L 348.7687 337.414138 
L 366.4748 344.131245 
L 384.1809 341.965578 
L 401.887 333.532685 
L 419.5931 336.907182 
L 437.2992 335.778208 
L 455.0053 340.542231 
L 472.7114 330.786702 
L 490.4175 341.324115 
L 508.1236 340.280423 
L 525.8297 324.077963 
L 543.5358 333.107034 
L 561.2419 332.531853 
L 578.948 341.452973 
L 596.6541 343.613491 
L 614.3602 337.518264 
L 632.0663 337.059563 
L 649.7724 336.483084 
L 667.4785 328.026556 
L 685.1846 333.767131 
L 702.8907 326.007897 
L 720.5968 333.601405 
L 738.3029 326.154548 
L 756.009 335.685419 
L 773.7151 334.232377 
L 791.4212 327.262183 
L 809.1273 329.001592 
L 826.8334 318.123618 
L 844.5395 332.670762 
L 862.2456 335.774729 
L 879.9517 328.974484 
L 897.6578 322.531882 
L 915.3639 318.407178 
L 933.07 324.552292 
" clip-path="url(#p782e495731)" style="fill: none; stroke: #bcbd22; stroke-width: 1.5; stroke-linecap: square"/>
   </g>
   <g id="line2d_22">
    <path d="M 47.765 330.580184 
L 65.4711 336.530031 
L 83.1772 339.134274 
L 100.8833 337.242862 
L 118.5894 333.757978 
L 136.2955 334.807967 
L 154.0016 336.097193 
L 171.7077 334.604688 
L 189.4138 332.078818 
L 207.1199 334.198086 
L 224.826 330.416028 
L 242.5321 328.182397 
L 260.2382 336.959652 
L 277.9443 329.267746 
L 295.6504 338.542745 
L 313.3565 330.039961 
L 331.0626 330.420098 
L 348.7687 341.690722 
L 366.4748 330.462999 
L 384.1809 331.410336 
L 401.887 331.869337 
L 419.5931 337.489136 
L 437.2992 333.513801 
L 455.0053 337.828558 
L 472.7114 328.780929 
L 490.4175 338.987861 
L 508.1236 337.534021 
L 525.8297 334.958676 
L 543.5358 345.13199 
L 561.2419 332.712004 
L 578.948 329.465774 
L 596.6541 337.605904 
L 614.3602 330.949743 
L 632.0663 337.663826 
L 649.7724 330.116957 
L 667.4785 340.682506 
L 685.1846 336.067341 
L 702.8907 326.007088 
L 720.5968 318.24873 
L 738.3029 324.003949 
L 756.009 331.894178 
L 773.7151 325.683364 
L 791.4212 327.778463 
L 809.1273 317.056391 
L 826.8334 333.901234 
L 844.5395 331.417891 
L 862.2456 335.835115 
L 879.9517 316.949935 
L 897.6578 328.131091 
L 915.3639 310.692956 
L 933.07 326.264491 
" clip-path="url(#p782e495731)" style="fill: none; stroke: #17becf; stroke-width: 1.5; stroke-linecap: square"/>
   </g>
   <g id="line2d_23">
    <path d="M 47.765 306.117009 
L 65.4711 316.691551 
L 83.1772 316.191902 
L 100.8833 305.296875 
L 118.5894 317.29228 
L 136.2955 321.950733 
L 154.0016 319.504854 
L 171.7077 325.295742 
L 189.4138 327.152956 
L 207.1199 331.539044 
L 224.826 327.286108 
L 242.5321 334.530545 
L 260.2382 336.856617 
L 277.9443 326.261042 
L 295.6504 335.490702 
L 313.3565 330.145948 
L 331.0626 339.127063 
L 348.7687 329.748658 
L 366.4748 323.008852 
L 384.1809 326.83399 
L 401.887 328.426377 
L 419.5931 328.606491 
L 437.2992 337.734874 
L 455.0053 338.036062 
L 472.7114 341.460728 
L 490.4175 329.128208 
L 508.1236 328.536424 
L 525.8297 339.472788 
L 543.5358 330.991025 
L 561.2419 339.234725 
L 578.948 329.503967 
L 596.6541 325.538559 
L 614.3602 335.229847 
L 632.0663 335.457632 
L 649.7724 334.552573 
L 667.4785 343.825084 
L 685.1846 345.317492 
L 702.8907 335.999119 
L 720.5968 339.652703 
L 738.3029 332.20483 
L 756.009 322.239066 
L 773.7151 328.525854 
L 791.4212 323.99226 
L 809.1273 324.546994 
L 826.8334 329.95376 
L 844.5395 326.089449 
L 862.2456 334.752138 
L 879.9517 319.152419 
L 897.6578 336.198559 
L 915.3639 322.266329 
L 933.07 329.873313 
" clip-path="url(#p782e495731)" style="fill: none; stroke: #9edae5; stroke-width: 1.5; stroke-linecap: square"/>
   </g>
   <g id="patch_3">
    <path d="M 47.765 606.04 
L 47.765 30.748 
" style="fill: none; stroke: #000000; stroke-width: 0.8; stroke-linejoin: miter; stroke-linecap: square"/>
   </g>
   <g id="patch_4">
    <path d="M 933.07 606.04 
L 933.07 30.748 
" style="fill: none; stroke: #000000; stroke-width: 0.8; stroke-linejoin: miter; stroke-linecap: square"/>
   </g>
   <g id="patch_5">
    <path d="M 47.765 606.04 
L 933.07 606.04 
" style="fill: none; stroke: #000000; stroke-width: 0.8; stroke-linejoin: miter; stroke-linecap: square"/>
   </g>
   <g id="patch_6">
    <path d="M 47.765 30.748 
L 933.07 30.748 
" style="fill: none; stroke: #000000; stroke-width: 0.8; stroke-linejoin: miter; stroke-linecap: square"/>
   </g>
   <g id="text_15">
    <!-- GMM ARI Scores by Number of Baits for Each Method -->
    <g transform="translate(330.7725 24.748) scale(0.12 -0.12)">
     <defs>
      <path id="DejaVuSans-47" d="M 3809 666 
L 3809 1919 
L 2778 1919 
L 2778 2438 
L 4434 2438 
L 4434 434 
Q 4069 175 3628 42 
Q 3188 -91 2688 -91 
Q 1594 -91 976 548 
Q 359 1188 359 2328 
Q 359 3472 976 4111 
Q 1594 4750 2688 4750 
Q 3144 4750 3555 4637 
Q 3966 4525 4313 4306 
L 4313 3634 
Q 3963 3931 3569 4081 
Q 3175 4231 2741 4231 
Q 1884 4231 1454 3753 
Q 1025 3275 1025 2328 
Q 1025 1384 1454 906 
Q 1884 428 2741 428 
Q 3075 428 3337 486 
Q 3600 544 3809 666 
z
" transform="scale(0.015625)"/>
      <path id="DejaVuSans-4d" d="M 628 4666 
L 1569 4666 
L 2759 1491 
L 3956 4666 
L 4897 4666 
L 4897 0 
L 4281 0 
L 4281 4097 
L 3078 897 
L 2444 897 
L 1241 4097 
L 1241 0 
L 628 0 
L 628 4666 
z
" transform="scale(0.015625)"/>
      <path id="DejaVuSans-79" d="M 2059 -325 
Q 1816 -950 1584 -1140 
Q 1353 -1331 966 -1331 
L 506 -1331 
L 506 -850 
L 844 -850 
Q 1081 -850 1212 -737 
Q 1344 -625 1503 -206 
L 1606 56 
L 191 3500 
L 800 3500 
L 1894 763 
L 2988 3500 
L 3597 3500 
L 2059 -325 
z
" transform="scale(0.015625)"/>
      <path id="DejaVuSans-45" d="M 628 4666 
L 3578 4666 
L 3578 4134 
L 1259 4134 
L 1259 2753 
L 3481 2753 
L 3481 2222 
L 1259 2222 
L 1259 531 
L 3634 531 
L 3634 0 
L 628 0 
L 628 4666 
z
" transform="scale(0.015625)"/>
      <path id="DejaVuSans-68" d="M 3513 2113 
L 3513 0 
L 2938 0 
L 2938 2094 
Q 2938 2591 2744 2837 
Q 2550 3084 2163 3084 
Q 1697 3084 1428 2787 
Q 1159 2491 1159 1978 
L 1159 0 
L 581 0 
L 581 4863 
L 1159 4863 
L 1159 2956 
Q 1366 3272 1645 3428 
Q 1925 3584 2291 3584 
Q 2894 3584 3203 3211 
Q 3513 2838 3513 2113 
z
" transform="scale(0.015625)"/>
     </defs>
     <use xlink:href="#DejaVuSans-47"/>
     <use xlink:href="#DejaVuSans-4d" x="77.490234"/>
     <use xlink:href="#DejaVuSans-4d" x="163.769531"/>
     <use xlink:href="#DejaVuSans-20" x="250.048828"/>
     <use xlink:href="#DejaVuSans-41" x="281.835938"/>
     <use xlink:href="#DejaVuSans-52" x="350.244141"/>
     <use xlink:href="#DejaVuSans-49" x="419.726562"/>
     <use xlink:href="#DejaVuSans-20" x="449.21875"/>
     <use xlink:href="#DejaVuSans-53" x="481.005859"/>
     <use xlink:href="#DejaVuSans-63" x="544.482422"/>
     <use xlink:href="#DejaVuSans-6f" x="599.462891"/>
     <use xlink:href="#DejaVuSans-72" x="660.644531"/>
     <use xlink:href="#DejaVuSans-65" x="699.507812"/>
     <use xlink:href="#DejaVuSans-73" x="761.03125"/>
     <use xlink:href="#DejaVuSans-20" x="813.130859"/>
     <use xlink:href="#DejaVuSans-62" x="844.917969"/>
     <use xlink:href="#DejaVuSans-79" x="908.394531"/>
     <use xlink:href="#DejaVuSans-20" x="967.574219"/>
     <use xlink:href="#DejaVuSans-4e" x="999.361328"/>
     <use xlink:href="#DejaVuSans-75" x="1074.166016"/>
     <use xlink:href="#DejaVuSans-6d" x="1137.544922"/>
     <use xlink:href="#DejaVuSans-62" x="1234.957031"/>
     <use xlink:href="#DejaVuSans-65" x="1298.433594"/>
     <use xlink:href="#DejaVuSans-72" x="1359.957031"/>
     <use xlink:href="#DejaVuSans-20" x="1401.070312"/>
     <use xlink:href="#DejaVuSans-6f" x="1432.857422"/>
     <use xlink:href="#DejaVuSans-66" x="1494.039062"/>
     <use xlink:href="#DejaVuSans-20" x="1529.244141"/>
     <use xlink:href="#DejaVuSans-42" x="1561.03125"/>
     <use xlink:href="#DejaVuSans-61" x="1629.634766"/>
     <use xlink:href="#DejaVuSans-69" x="1690.914062"/>
     <use xlink:href="#DejaVuSans-74" x="1718.697266"/>
     <use xlink:href="#DejaVuSans-73" x="1757.90625"/>
     <use xlink:href="#DejaVuSans-20" x="1810.005859"/>
     <use xlink:href="#DejaVuSans-66" x="1841.792969"/>
     <use xlink:href="#DejaVuSans-6f" x="1876.998047"/>
     <use xlink:href="#DejaVuSans-72" x="1938.179688"/>
     <use xlink:href="#DejaVuSans-20" x="1979.292969"/>
     <use xlink:href="#DejaVuSans-45" x="2011.080078"/>
     <use xlink:href="#DejaVuSans-61" x="2074.263672"/>
     <use xlink:href="#DejaVuSans-63" x="2135.542969"/>
     <use xlink:href="#DejaVuSans-68" x="2190.523438"/>
     <use xlink:href="#DejaVuSans-20" x="2253.902344"/>
     <use xlink:href="#DejaVuSans-4d" x="2285.689453"/>
     <use xlink:href="#DejaVuSans-65" x="2371.96875"/>
     <use xlink:href="#DejaVuSans-74" x="2433.492188"/>
     <use xlink:href="#DejaVuSans-68" x="2472.701172"/>
     <use xlink:href="#DejaVuSans-6f" x="2536.080078"/>
     <use xlink:href="#DejaVuSans-64" x="2597.261719"/>
    </g>
   </g>
   <g id="legend_1">
    <g id="patch_7">
     <path d="M 940.07 172.555275 
L 1067.18875 172.555275 
Q 1069.18875 172.555275 1069.18875 170.555275 
L 1069.18875 8.9834 
Q 1069.18875 6.9834 1067.18875 6.9834 
L 940.07 6.9834 
Q 938.07 6.9834 938.07 8.9834 
L 938.07 170.555275 
Q 938.07 172.555275 940.07 172.555275 
z
" style="fill: #ffffff; opacity: 0.8; stroke: #cccccc; stroke-linejoin: miter"/>
    </g>
    <g id="line2d_24">
     <path d="M 942.07 15.081838 
L 952.07 15.081838 
L 962.07 15.081838 
" style="fill: none; stroke: #1f77b4; stroke-width: 1.5; stroke-linecap: square"/>
    </g>
    <g id="text_16">
     <!-- GA -->
     <g transform="translate(970.07 18.581838) scale(0.1 -0.1)">
      <use xlink:href="#DejaVuSans-47"/>
      <use xlink:href="#DejaVuSans-41" x="77.490234"/>
     </g>
    </g>
    <g id="line2d_25">
     <path d="M 942.07 29.759963 
L 952.07 29.759963 
L 962.07 29.759963 
" style="fill: none; stroke: #ff7f0e; stroke-width: 1.5; stroke-linecap: square"/>
    </g>
    <g id="text_17">
     <!-- Random -->
     <g transform="translate(970.07 33.259963) scale(0.1 -0.1)">
      <defs>
       <path id="DejaVuSans-6e" d="M 3513 2113 
L 3513 0 
L 2938 0 
L 2938 2094 
Q 2938 2591 2744 2837 
Q 2550 3084 2163 3084 
Q 1697 3084 1428 2787 
Q 1159 2491 1159 1978 
L 1159 0 
L 581 0 
L 581 3500 
L 1159 3500 
L 1159 2956 
Q 1366 3272 1645 3428 
Q 1925 3584 2291 3584 
Q 2894 3584 3203 3211 
Q 3513 2838 3513 2113 
z
" transform="scale(0.015625)"/>
      </defs>
      <use xlink:href="#DejaVuSans-52"/>
      <use xlink:href="#DejaVuSans-61" x="67.232422"/>
      <use xlink:href="#DejaVuSans-6e" x="128.511719"/>
      <use xlink:href="#DejaVuSans-64" x="191.890625"/>
      <use xlink:href="#DejaVuSans-6f" x="255.367188"/>
      <use xlink:href="#DejaVuSans-6d" x="316.548828"/>
     </g>
    </g>
    <g id="line2d_26">
     <path d="M 942.07 44.438088 
L 952.07 44.438088 
L 962.07 44.438088 
" style="fill: none; stroke: #2ca02c; stroke-width: 1.5; stroke-linecap: square"/>
    </g>
    <g id="text_18">
     <!-- chi_2 -->
     <g transform="translate(970.07 47.938088) scale(0.1 -0.1)">
      <defs>
       <path id="DejaVuSans-5f" d="M 3263 -1063 
L 3263 -1509 
L -63 -1509 
L -63 -1063 
L 3263 -1063 
z
" transform="scale(0.015625)"/>
      </defs>
      <use xlink:href="#DejaVuSans-63"/>
      <use xlink:href="#DejaVuSans-68" x="54.980469"/>
      <use xlink:href="#DejaVuSans-69" x="118.359375"/>
      <use xlink:href="#DejaVuSans-5f" x="146.142578"/>
      <use xlink:href="#DejaVuSans-32" x="196.142578"/>
     </g>
    </g>
    <g id="line2d_27">
     <path d="M 942.07 59.394338 
L 952.07 59.394338 
L 962.07 59.394338 
" style="fill: none; stroke: #d62728; stroke-width: 1.5; stroke-linecap: square"/>
    </g>
    <g id="text_19">
     <!-- f_classif -->
     <g transform="translate(970.07 62.894338) scale(0.1 -0.1)">
      <defs>
       <path id="DejaVuSans-6c" d="M 603 4863 
L 1178 4863 
L 1178 0 
L 603 0 
L 603 4863 
z
" transform="scale(0.015625)"/>
      </defs>
      <use xlink:href="#DejaVuSans-66"/>
      <use xlink:href="#DejaVuSans-5f" x="35.205078"/>
      <use xlink:href="#DejaVuSans-63" x="85.205078"/>
      <use xlink:href="#DejaVuSans-6c" x="140.185547"/>
      <use xlink:href="#DejaVuSans-61" x="167.96875"/>
      <use xlink:href="#DejaVuSans-73" x="229.248047"/>
      <use xlink:href="#DejaVuSans-73" x="281.347656"/>
      <use xlink:href="#DejaVuSans-69" x="333.447266"/>
      <use xlink:href="#DejaVuSans-66" x="361.230469"/>
     </g>
    </g>
    <g id="line2d_28">
     <path d="M 942.07 74.350588 
L 952.07 74.350588 
L 962.07 74.350588 
" style="fill: none; stroke: #9467bd; stroke-width: 1.5; stroke-linecap: square"/>
    </g>
    <g id="text_20">
     <!-- mutual_info_classif -->
     <g transform="translate(970.07 77.850588) scale(0.1 -0.1)">
      <use xlink:href="#DejaVuSans-6d"/>
      <use xlink:href="#DejaVuSans-75" x="97.412109"/>
      <use xlink:href="#DejaVuSans-74" x="160.791016"/>
      <use xlink:href="#DejaVuSans-75" x="200"/>
      <use xlink:href="#DejaVuSans-61" x="263.378906"/>
      <use xlink:href="#DejaVuSans-6c" x="324.658203"/>
      <use xlink:href="#DejaVuSans-5f" x="352.441406"/>
      <use xlink:href="#DejaVuSans-69" x="402.441406"/>
      <use xlink:href="#DejaVuSans-6e" x="430.224609"/>
      <use xlink:href="#DejaVuSans-66" x="493.603516"/>
      <use xlink:href="#DejaVuSans-6f" x="528.808594"/>
      <use xlink:href="#DejaVuSans-5f" x="589.990234"/>
      <use xlink:href="#DejaVuSans-63" x="639.990234"/>
      <use xlink:href="#DejaVuSans-6c" x="694.970703"/>
      <use xlink:href="#DejaVuSans-61" x="722.753906"/>
      <use xlink:href="#DejaVuSans-73" x="784.033203"/>
      <use xlink:href="#DejaVuSans-73" x="836.132812"/>
      <use xlink:href="#DejaVuSans-69" x="888.232422"/>
      <use xlink:href="#DejaVuSans-66" x="916.015625"/>
     </g>
    </g>
    <g id="line2d_29">
     <path d="M 942.07 89.306838 
L 952.07 89.306838 
L 962.07 89.306838 
" style="fill: none; stroke: #8c564b; stroke-width: 1.5; stroke-linecap: square"/>
    </g>
    <g id="text_21">
     <!-- lasso -->
     <g transform="translate(970.07 92.806838) scale(0.1 -0.1)">
      <use xlink:href="#DejaVuSans-6c"/>
      <use xlink:href="#DejaVuSans-61" x="27.783203"/>
      <use xlink:href="#DejaVuSans-73" x="89.0625"/>
      <use xlink:href="#DejaVuSans-73" x="141.162109"/>
      <use xlink:href="#DejaVuSans-6f" x="193.261719"/>
     </g>
    </g>
    <g id="line2d_30">
     <path d="M 942.07 103.984963 
L 952.07 103.984963 
L 962.07 103.984963 
" style="fill: none; stroke: #e377c2; stroke-width: 1.5; stroke-linecap: square"/>
    </g>
    <g id="text_22">
     <!-- ridge -->
     <g transform="translate(970.07 107.484963) scale(0.1 -0.1)">
      <use xlink:href="#DejaVuSans-72"/>
      <use xlink:href="#DejaVuSans-69" x="41.113281"/>
      <use xlink:href="#DejaVuSans-64" x="68.896484"/>
      <use xlink:href="#DejaVuSans-67" x="132.373047"/>
      <use xlink:href="#DejaVuSans-65" x="195.849609"/>
     </g>
    </g>
    <g id="line2d_31">
     <path d="M 942.07 118.663088 
L 952.07 118.663088 
L 962.07 118.663088 
" style="fill: none; stroke: #7f7f7f; stroke-width: 1.5; stroke-linecap: square"/>
    </g>
    <g id="text_23">
     <!-- elastic_net -->
     <g transform="translate(970.07 122.163088) scale(0.1 -0.1)">
      <use xlink:href="#DejaVuSans-65"/>
      <use xlink:href="#DejaVuSans-6c" x="61.523438"/>
      <use xlink:href="#DejaVuSans-61" x="89.306641"/>
      <use xlink:href="#DejaVuSans-73" x="150.585938"/>
      <use xlink:href="#DejaVuSans-74" x="202.685547"/>
      <use xlink:href="#DejaVuSans-69" x="241.894531"/>
      <use xlink:href="#DejaVuSans-63" x="269.677734"/>
      <use xlink:href="#DejaVuSans-5f" x="324.658203"/>
      <use xlink:href="#DejaVuSans-6e" x="374.658203"/>
      <use xlink:href="#DejaVuSans-65" x="438.037109"/>
      <use xlink:href="#DejaVuSans-74" x="499.560547"/>
     </g>
    </g>
    <g id="line2d_32">
     <path d="M 942.07 133.619338 
L 952.07 133.619338 
L 962.07 133.619338 
" style="fill: none; stroke: #bcbd22; stroke-width: 1.5; stroke-linecap: square"/>
    </g>
    <g id="text_24">
     <!-- rf -->
     <g transform="translate(970.07 137.119338) scale(0.1 -0.1)">
      <use xlink:href="#DejaVuSans-72"/>
      <use xlink:href="#DejaVuSans-66" x="41.113281"/>
     </g>
    </g>
    <g id="line2d_33">
     <path d="M 942.07 148.297463 
L 952.07 148.297463 
L 962.07 148.297463 
" style="fill: none; stroke: #17becf; stroke-width: 1.5; stroke-linecap: square"/>
    </g>
    <g id="text_25">
     <!-- gbm -->
     <g transform="translate(970.07 151.797463) scale(0.1 -0.1)">
      <use xlink:href="#DejaVuSans-67"/>
      <use xlink:href="#DejaVuSans-62" x="63.476562"/>
      <use xlink:href="#DejaVuSans-6d" x="126.953125"/>
     </g>
    </g>
    <g id="line2d_34">
     <path d="M 942.07 162.975588 
L 952.07 162.975588 
L 962.07 162.975588 
" style="fill: none; stroke: #9edae5; stroke-width: 1.5; stroke-linecap: square"/>
    </g>
    <g id="text_26">
     <!-- xgb -->
     <g transform="translate(970.07 166.475588) scale(0.1 -0.1)">
      <defs>
       <path id="DejaVuSans-78" d="M 3513 3500 
L 2247 1797 
L 3578 0 
L 2900 0 
L 1881 1375 
L 863 0 
L 184 0 
L 1544 1831 
L 300 3500 
L 978 3500 
L 1906 2253 
L 2834 3500 
L 3513 3500 
z
" transform="scale(0.015625)"/>
      </defs>
      <use xlink:href="#DejaVuSans-78"/>
      <use xlink:href="#DejaVuSans-67" x="59.179688"/>
      <use xlink:href="#DejaVuSans-62" x="122.65625"/>
     </g>
    </g>
   </g>
  </g>
 </g>
 <defs>
  <clipPath id="p782e495731">
   <rect x="47.765" y="30.748" width="885.305" height="575.292"/>
  </clipPath>
 </defs>
</svg>
