<?xml version="1.0" encoding="utf-8" standalone="no"?>
<!DOCTYPE svg PUBLIC "-//W3C//DTD SVG 1.1//EN"
  "http://www.w3.org/Graphics/SVG/1.1/DTD/svg11.dtd">
<svg xmlns:xlink="http://www.w3.org/1999/xlink" width="1080pt" height="648pt" viewBox="0 0 1080 648" xmlns="http://www.w3.org/2000/svg" version="1.1">
 <metadata>
  <rdf:RDF xmlns:dc="http://purl.org/dc/elements/1.1/" xmlns:cc="http://creativecommons.org/ns#" xmlns:rdf="http://www.w3.org/1999/02/22-rdf-syntax-ns#">
   <cc:Work>
    <dc:type rdf:resource="http://purl.org/dc/dcmitype/StillImage"/>
    <dc:date>2024-04-04T23:57:33.456847</dc:date>
    <dc:format>image/svg+xml</dc:format>
    <dc:creator>
     <cc:Agent>
      <dc:title>Matplotlib v3.7.2, https://matplotlib.org/</dc:title>
     </cc:Agent>
    </dc:creator>
   </cc:Work>
  </rdf:RDF>
 </metadata>
 <defs>
  <style type="text/css">*{stroke-linejoin: round; stroke-linecap: butt}</style>
 </defs>
 <g id="figure_1">
  <g id="patch_1">
   <path d="M 0 648 
L 1080 648 
L 1080 0 
L 0 0 
z
" style="fill: #ffffff"/>
  </g>
  <g id="axes_1">
   <g id="patch_2">
    <path d="M 47.765 606.04 
L 933.07 606.04 
L 933.07 30.748 
L 47.765 30.748 
z
" style="fill: #ffffff"/>
   </g>
   <g id="PolyCollection_1">
    <defs>
     <path id="medd620f93d" d="M 47.765 -338.290068 
L 47.765 -256.865456 
L 65.4711 -260.787364 
L 83.1772 -257.144625 
L 100.8833 -263.076604 
L 118.5894 -263.107437 
L 136.2955 -262.491397 
L 154.0016 -262.317026 
L 171.7077 -263.717755 
L 189.4138 -264.911118 
L 207.1199 -265.335224 
L 224.826 -266.347433 
L 242.5321 -265.271104 
L 260.2382 -268.807185 
L 277.9443 -272.619873 
L 295.6504 -271.797506 
L 313.3565 -269.499066 
L 331.0626 -268.430279 
L 348.7687 -268.086804 
L 366.4748 -269.66217 
L 384.1809 -275.910192 
L 401.887 -273.554424 
L 419.5931 -271.2699 
L 437.2992 -272.288866 
L 455.0053 -271.992326 
L 472.7114 -271.916624 
L 490.4175 -271.296478 
L 508.1236 -269.17015 
L 525.8297 -272.066682 
L 543.5358 -273.552148 
L 561.2419 -272.613042 
L 578.948 -271.950755 
L 596.6541 -271.736877 
L 614.3602 -272.802088 
L 632.0663 -272.064212 
L 649.7724 -278.22534 
L 667.4785 -277.638571 
L 685.1846 -278.170376 
L 702.8907 -275.702601 
L 720.5968 -274.744182 
L 738.3029 -283.392345 
L 756.009 -276.855937 
L 773.7151 -282.450858 
L 791.4212 -279.115724 
L 809.1273 -282.836328 
L 826.8334 -280.2747 
L 844.5395 -280.544477 
L 862.2456 -284.404881 
L 879.9517 -282.101872 
L 897.6578 -283.207861 
L 915.3639 -281.583113 
L 933.07 -286.68085 
L 933.07 -380.989496 
L 933.07 -380.989496 
L 915.3639 -376.165857 
L 897.6578 -376.391618 
L 879.9517 -374.69997 
L 862.2456 -371.892937 
L 844.5395 -372.190644 
L 826.8334 -375.284728 
L 809.1273 -367.964148 
L 791.4212 -366.607018 
L 773.7151 -367.895875 
L 756.009 -365.652226 
L 738.3029 -369.890698 
L 720.5968 -367.13363 
L 702.8907 -366.749441 
L 685.1846 -367.562997 
L 667.4785 -365.933284 
L 649.7724 -365.985861 
L 632.0663 -365.613549 
L 614.3602 -365.178904 
L 596.6541 -361.549467 
L 578.948 -362.780682 
L 561.2419 -360.512835 
L 543.5358 -363.453994 
L 525.8297 -358.04163 
L 508.1236 -360.196337 
L 490.4175 -358.578854 
L 472.7114 -362.000756 
L 455.0053 -360.696305 
L 437.2992 -354.377605 
L 419.5931 -358.603694 
L 401.887 -357.073687 
L 384.1809 -356.525995 
L 366.4748 -355.034993 
L 348.7687 -353.516647 
L 331.0626 -351.533342 
L 313.3565 -352.359295 
L 295.6504 -350.861204 
L 277.9443 -349.162156 
L 260.2382 -350.743834 
L 242.5321 -345.512709 
L 224.826 -348.571405 
L 207.1199 -347.875042 
L 189.4138 -347.531524 
L 171.7077 -346.242512 
L 154.0016 -346.167007 
L 136.2955 -343.457208 
L 118.5894 -346.009599 
L 100.8833 -343.478547 
L 83.1772 -339.286207 
L 65.4711 -345.604531 
L 47.765 -338.290068 
z
" style="stroke: #1f77b4; stroke-opacity: 0.2"/>
    </defs>
    <g clip-path="url(#p05b2aee3a4)">
     <use xlink:href="#medd620f93d" x="0" y="648" style="fill: #1f77b4; fill-opacity: 0.2; stroke: #1f77b4; stroke-opacity: 0.2"/>
    </g>
   </g>
   <g id="PolyCollection_2">
    <defs>
     <path id="m5add539093" d="M 47.765 -225.470169 
L 47.765 -155.382729 
L 65.4711 -162.145381 
L 83.1772 -159.104323 
L 100.8833 -174.972767 
L 118.5894 -159.909032 
L 136.2955 -173.256731 
L 154.0016 -165.870441 
L 171.7077 -173.097913 
L 189.4138 -180.852955 
L 207.1199 -178.473081 
L 224.826 -169.696155 
L 242.5321 -179.271957 
L 260.2382 -190.711901 
L 277.9443 -182.925079 
L 295.6504 -190.1216 
L 313.3565 -182.773921 
L 331.0626 -190.851901 
L 348.7687 -188.486389 
L 366.4748 -198.068596 
L 384.1809 -189.10019 
L 401.887 -210.847201 
L 419.5931 -205.936778 
L 437.2992 -228.142568 
L 455.0053 -194.332985 
L 472.7114 -208.538344 
L 490.4175 -213.197307 
L 508.1236 -209.113388 
L 525.8297 -210.5519 
L 543.5358 -207.016261 
L 561.2419 -213.770172 
L 578.948 -224.813159 
L 596.6541 -215.020389 
L 614.3602 -218.128569 
L 632.0663 -223.944242 
L 649.7724 -219.322308 
L 667.4785 -213.080136 
L 685.1846 -223.229166 
L 702.8907 -218.787882 
L 720.5968 -222.615045 
L 738.3029 -236.787937 
L 756.009 -229.550939 
L 773.7151 -217.148496 
L 791.4212 -231.596499 
L 809.1273 -230.972067 
L 826.8334 -222.425999 
L 844.5395 -238.258498 
L 862.2456 -243.770902 
L 879.9517 -234.127502 
L 897.6578 -242.329022 
L 915.3639 -251.207999 
L 933.07 -245.789722 
L 933.07 -336.022681 
L 933.07 -336.022681 
L 915.3639 -339.710666 
L 897.6578 -325.147346 
L 879.9517 -321.413578 
L 862.2456 -327.251319 
L 844.5395 -323.861686 
L 826.8334 -314.127657 
L 809.1273 -318.967955 
L 791.4212 -313.34271 
L 773.7151 -306.64973 
L 756.009 -312.937531 
L 738.3029 -321.322092 
L 720.5968 -310.300174 
L 702.8907 -301.347517 
L 685.1846 -302.217733 
L 667.4785 -294.394566 
L 649.7724 -311.367976 
L 632.0663 -310.383821 
L 614.3602 -299.556242 
L 596.6541 -294.212303 
L 578.948 -306.136967 
L 561.2419 -303.492289 
L 543.5358 -285.525764 
L 525.8297 -294.078767 
L 508.1236 -292.584722 
L 490.4175 -294.169064 
L 472.7114 -297.017352 
L 455.0053 -266.368796 
L 437.2992 -305.465617 
L 419.5931 -280.826244 
L 401.887 -283.324966 
L 384.1809 -281.592447 
L 366.4748 -277.841822 
L 348.7687 -266.34251 
L 331.0626 -269.22852 
L 313.3565 -264.990629 
L 295.6504 -276.957267 
L 277.9443 -267.763337 
L 260.2382 -270.617237 
L 242.5321 -257.411015 
L 224.826 -236.4913 
L 207.1199 -252.240598 
L 189.4138 -251.388574 
L 171.7077 -252.580871 
L 154.0016 -239.471805 
L 136.2955 -246.45432 
L 118.5894 -219.461466 
L 100.8833 -252.387719 
L 83.1772 -237.550409 
L 65.4711 -236.624475 
L 47.765 -225.470169 
z
" style="stroke: #ff7f0e; stroke-opacity: 0.2"/>
    </defs>
    <g clip-path="url(#p05b2aee3a4)">
     <use xlink:href="#m5add539093" x="0" y="648" style="fill: #ff7f0e; fill-opacity: 0.2; stroke: #ff7f0e; stroke-opacity: 0.2"/>
    </g>
   </g>
   <g id="PolyCollection_3">
    <defs>
     <path id="ma20e605524" d="M 47.765 -337.647455 
L 47.765 -251.622761 
L 65.4711 -258.43581 
L 83.1772 -260.741288 
L 100.8833 -259.085432 
L 118.5894 -254.603512 
L 136.2955 -264.580925 
L 154.0016 -262.852374 
L 171.7077 -264.387284 
L 189.4138 -262.718729 
L 207.1199 -262.147926 
L 224.826 -264.271275 
L 242.5321 -265.343923 
L 260.2382 -270.057764 
L 277.9443 -265.650012 
L 295.6504 -267.179956 
L 313.3565 -263.927759 
L 331.0626 -265.679541 
L 348.7687 -262.502437 
L 366.4748 -270.947766 
L 384.1809 -266.058249 
L 401.887 -262.827156 
L 419.5931 -267.569215 
L 437.2992 -265.799558 
L 455.0053 -269.570747 
L 472.7114 -268.382148 
L 490.4175 -268.16952 
L 508.1236 -264.576481 
L 525.8297 -269.483196 
L 543.5358 -268.962108 
L 561.2419 -273.617592 
L 578.948 -268.885011 
L 596.6541 -272.641567 
L 614.3602 -267.144605 
L 632.0663 -268.119717 
L 649.7724 -270.408764 
L 667.4785 -273.99945 
L 685.1846 -275.020806 
L 702.8907 -274.637936 
L 720.5968 -279.699709 
L 738.3029 -274.832158 
L 756.009 -278.679956 
L 773.7151 -277.134809 
L 791.4212 -275.251693 
L 809.1273 -276.12763 
L 826.8334 -275.193174 
L 844.5395 -275.640008 
L 862.2456 -278.35913 
L 879.9517 -274.112668 
L 897.6578 -278.665774 
L 915.3639 -276.682191 
L 933.07 -279.096245 
L 933.07 -376.126538 
L 933.07 -376.126538 
L 915.3639 -373.964858 
L 897.6578 -375.468292 
L 879.9517 -371.817161 
L 862.2456 -375.645392 
L 844.5395 -369.26754 
L 826.8334 -374.320866 
L 809.1273 -369.385847 
L 791.4212 -366.260004 
L 773.7151 -368.85374 
L 756.009 -364.161741 
L 738.3029 -362.719723 
L 720.5968 -364.857939 
L 702.8907 -369.366655 
L 685.1846 -363.16752 
L 667.4785 -360.539653 
L 649.7724 -361.766753 
L 632.0663 -363.324625 
L 614.3602 -359.978405 
L 596.6541 -358.524139 
L 578.948 -361.025669 
L 561.2419 -353.375305 
L 543.5358 -360.647661 
L 525.8297 -350.805775 
L 508.1236 -358.540044 
L 490.4175 -354.775917 
L 472.7114 -355.727867 
L 455.0053 -355.996404 
L 437.2992 -351.580231 
L 419.5931 -354.501366 
L 401.887 -351.831397 
L 384.1809 -354.137077 
L 366.4748 -350.522332 
L 348.7687 -349.834205 
L 331.0626 -345.804851 
L 313.3565 -348.716686 
L 295.6504 -348.082788 
L 277.9443 -346.605524 
L 260.2382 -348.450839 
L 242.5321 -343.085927 
L 224.826 -343.912142 
L 207.1199 -343.977627 
L 189.4138 -344.304149 
L 171.7077 -344.323021 
L 154.0016 -340.911623 
L 136.2955 -343.319747 
L 118.5894 -340.907291 
L 100.8833 -340.24863 
L 83.1772 -341.797393 
L 65.4711 -334.397182 
L 47.765 -337.647455 
z
" style="stroke: #2ca02c; stroke-opacity: 0.2"/>
    </defs>
    <g clip-path="url(#p05b2aee3a4)">
     <use xlink:href="#ma20e605524" x="0" y="648" style="fill: #2ca02c; fill-opacity: 0.2; stroke: #2ca02c; stroke-opacity: 0.2"/>
    </g>
   </g>
   <g id="PolyCollection_4">
    <defs>
     <path id="m00e0b9dacf" d="M 47.765 -335.815267 
L 47.765 -256.600428 
L 65.4711 -261.336213 
L 83.1772 -263.316089 
L 100.8833 -261.880287 
L 118.5894 -266.189084 
L 136.2955 -264.344722 
L 154.0016 -263.913839 
L 171.7077 -267.607892 
L 189.4138 -269.492237 
L 207.1199 -265.757375 
L 224.826 -268.190391 
L 242.5321 -266.727201 
L 260.2382 -267.32215 
L 277.9443 -271.012474 
L 295.6504 -272.782922 
L 313.3565 -273.918178 
L 331.0626 -269.77451 
L 348.7687 -274.588144 
L 366.4748 -269.316999 
L 384.1809 -272.053601 
L 401.887 -272.298564 
L 419.5931 -274.265174 
L 437.2992 -272.195491 
L 455.0053 -276.34976 
L 472.7114 -274.215427 
L 490.4175 -276.89134 
L 508.1236 -274.209221 
L 525.8297 -275.043703 
L 543.5358 -274.195017 
L 561.2419 -272.503319 
L 578.948 -275.427008 
L 596.6541 -274.665628 
L 614.3602 -271.065296 
L 632.0663 -274.901447 
L 649.7724 -273.063734 
L 667.4785 -276.181655 
L 685.1846 -280.036135 
L 702.8907 -278.353615 
L 720.5968 -276.894949 
L 738.3029 -275.25685 
L 756.009 -276.084027 
L 773.7151 -279.152575 
L 791.4212 -278.152203 
L 809.1273 -279.108206 
L 826.8334 -279.417573 
L 844.5395 -280.795293 
L 862.2456 -278.454989 
L 879.9517 -276.650203 
L 897.6578 -279.58519 
L 915.3639 -282.478145 
L 933.07 -284.201828 
L 933.07 -377.384394 
L 933.07 -377.384394 
L 915.3639 -375.05093 
L 897.6578 -372.314639 
L 879.9517 -371.737714 
L 862.2456 -371.895685 
L 844.5395 -368.659156 
L 826.8334 -376.809874 
L 809.1273 -373.405443 
L 791.4212 -371.785857 
L 773.7151 -368.436956 
L 756.009 -373.322811 
L 738.3029 -368.085327 
L 720.5968 -364.478759 
L 702.8907 -363.554063 
L 685.1846 -366.672366 
L 667.4785 -362.655978 
L 649.7724 -361.825612 
L 632.0663 -363.047198 
L 614.3602 -364.042618 
L 596.6541 -366.355648 
L 578.948 -363.441801 
L 561.2419 -362.880598 
L 543.5358 -363.481689 
L 525.8297 -360.389307 
L 508.1236 -355.899306 
L 490.4175 -359.556822 
L 472.7114 -362.172149 
L 455.0053 -357.987792 
L 437.2992 -362.495493 
L 419.5931 -354.89503 
L 401.887 -356.737627 
L 384.1809 -357.543149 
L 366.4748 -353.266353 
L 348.7687 -352.782906 
L 331.0626 -354.054886 
L 313.3565 -349.052159 
L 295.6504 -350.480577 
L 277.9443 -347.809584 
L 260.2382 -349.015097 
L 242.5321 -351.438888 
L 224.826 -348.115085 
L 207.1199 -349.664828 
L 189.4138 -351.107231 
L 171.7077 -349.410977 
L 154.0016 -345.259637 
L 136.2955 -349.606476 
L 118.5894 -345.360724 
L 100.8833 -344.550079 
L 83.1772 -342.237363 
L 65.4711 -341.584394 
L 47.765 -335.815267 
z
" style="stroke: #d62728; stroke-opacity: 0.2"/>
    </defs>
    <g clip-path="url(#p05b2aee3a4)">
     <use xlink:href="#m00e0b9dacf" x="0" y="648" style="fill: #d62728; fill-opacity: 0.2; stroke: #d62728; stroke-opacity: 0.2"/>
    </g>
   </g>
   <g id="PolyCollection_5">
    <defs>
     <path id="ma2f29269ff" d="M 47.765 -341.695013 
L 47.765 -258.092702 
L 65.4711 -261.711688 
L 83.1772 -262.088373 
L 100.8833 -260.235072 
L 118.5894 -259.009377 
L 136.2955 -264.907841 
L 154.0016 -262.156732 
L 171.7077 -263.988584 
L 189.4138 -267.475993 
L 207.1199 -265.52154 
L 224.826 -263.516159 
L 242.5321 -263.798926 
L 260.2382 -265.306591 
L 277.9443 -262.720979 
L 295.6504 -265.576529 
L 313.3565 -270.137958 
L 331.0626 -266.066951 
L 348.7687 -265.936479 
L 366.4748 -268.20933 
L 384.1809 -273.589181 
L 401.887 -273.326707 
L 419.5931 -271.638678 
L 437.2992 -270.978606 
L 455.0053 -269.452911 
L 472.7114 -271.759325 
L 490.4175 -270.760999 
L 508.1236 -273.272234 
L 525.8297 -273.100905 
L 543.5358 -272.852779 
L 561.2419 -275.240528 
L 578.948 -273.756049 
L 596.6541 -272.736167 
L 614.3602 -276.578674 
L 632.0663 -273.840459 
L 649.7724 -276.60544 
L 667.4785 -274.695887 
L 685.1846 -274.533138 
L 702.8907 -275.221961 
L 720.5968 -282.411678 
L 738.3029 -275.800061 
L 756.009 -280.200703 
L 773.7151 -281.950178 
L 791.4212 -281.865734 
L 809.1273 -278.074757 
L 826.8334 -278.811188 
L 844.5395 -281.925585 
L 862.2456 -282.178496 
L 879.9517 -282.535455 
L 897.6578 -286.2721 
L 915.3639 -289.846011 
L 933.07 -283.190044 
L 933.07 -381.642813 
L 933.07 -381.642813 
L 915.3639 -382.293603 
L 897.6578 -382.331962 
L 879.9517 -374.395307 
L 862.2456 -376.287303 
L 844.5395 -376.874825 
L 826.8334 -371.428241 
L 809.1273 -369.516072 
L 791.4212 -369.050165 
L 773.7151 -372.381895 
L 756.009 -367.904529 
L 738.3029 -365.486085 
L 720.5968 -375.37499 
L 702.8907 -363.992211 
L 685.1846 -366.511512 
L 667.4785 -363.949957 
L 649.7724 -363.910344 
L 632.0663 -362.060825 
L 614.3602 -361.411033 
L 596.6541 -356.594639 
L 578.948 -361.946984 
L 561.2419 -357.755465 
L 543.5358 -358.439317 
L 525.8297 -355.760972 
L 508.1236 -356.772265 
L 490.4175 -354.508076 
L 472.7114 -356.842163 
L 455.0053 -354.167119 
L 437.2992 -355.470123 
L 419.5931 -355.365228 
L 401.887 -355.266404 
L 384.1809 -355.251813 
L 366.4748 -353.300967 
L 348.7687 -352.184958 
L 331.0626 -350.599304 
L 313.3565 -351.937476 
L 295.6504 -352.216639 
L 277.9443 -347.526497 
L 260.2382 -348.14987 
L 242.5321 -349.29669 
L 224.826 -349.109507 
L 207.1199 -346.503996 
L 189.4138 -349.151866 
L 171.7077 -347.042322 
L 154.0016 -343.721951 
L 136.2955 -342.432254 
L 118.5894 -342.050835 
L 100.8833 -339.451422 
L 83.1772 -337.873833 
L 65.4711 -339.572926 
L 47.765 -341.695013 
z
" style="stroke: #9467bd; stroke-opacity: 0.2"/>
    </defs>
    <g clip-path="url(#p05b2aee3a4)">
     <use xlink:href="#ma2f29269ff" x="0" y="648" style="fill: #9467bd; fill-opacity: 0.2; stroke: #9467bd; stroke-opacity: 0.2"/>
    </g>
   </g>
   <g id="PolyCollection_6">
    <defs>
     <path id="m256350d62d" d="M 47.765 -327.908824 
L 47.765 -250.254485 
L 65.4711 -251.244058 
L 83.1772 -249.057703 
L 100.8833 -251.826806 
L 118.5894 -249.938225 
L 136.2955 -249.665509 
L 154.0016 -251.247069 
L 171.7077 -250.457257 
L 189.4138 -253.652036 
L 207.1199 -248.206879 
L 224.826 -251.888845 
L 242.5321 -248.536014 
L 260.2382 -253.866471 
L 277.9443 -249.403677 
L 295.6504 -249.155453 
L 313.3565 -250.41635 
L 331.0626 -249.7916 
L 348.7687 -252.005057 
L 366.4748 -256.445898 
L 384.1809 -253.919962 
L 401.887 -253.682203 
L 419.5931 -256.039714 
L 437.2992 -257.825697 
L 455.0053 -253.497106 
L 472.7114 -259.656006 
L 490.4175 -258.746442 
L 508.1236 -255.405169 
L 525.8297 -254.630273 
L 543.5358 -260.399364 
L 561.2419 -260.422942 
L 578.948 -257.839743 
L 596.6541 -265.290404 
L 614.3602 -255.494799 
L 632.0663 -261.162502 
L 649.7724 -263.416944 
L 667.4785 -258.080662 
L 685.1846 -261.396512 
L 702.8907 -263.100885 
L 720.5968 -272.637895 
L 738.3029 -265.505929 
L 756.009 -266.082858 
L 773.7151 -270.418017 
L 791.4212 -270.940962 
L 809.1273 -276.107618 
L 826.8334 -276.148308 
L 844.5395 -270.356901 
L 862.2456 -275.276039 
L 879.9517 -279.483898 
L 897.6578 -275.73609 
L 915.3639 -280.877356 
L 933.07 -277.312746 
L 933.07 -387.187689 
L 933.07 -387.187689 
L 915.3639 -381.325762 
L 897.6578 -375.711064 
L 879.9517 -378.631969 
L 862.2456 -373.917803 
L 844.5395 -376.292277 
L 826.8334 -365.782009 
L 809.1273 -369.471573 
L 791.4212 -366.150962 
L 773.7151 -365.050621 
L 756.009 -363.257285 
L 738.3029 -359.445965 
L 720.5968 -365.358616 
L 702.8907 -359.117845 
L 685.1846 -359.723714 
L 667.4785 -355.258126 
L 649.7724 -357.768365 
L 632.0663 -357.626553 
L 614.3602 -357.074886 
L 596.6541 -354.365683 
L 578.948 -352.126947 
L 561.2419 -350.446205 
L 543.5358 -350.805991 
L 525.8297 -345.786492 
L 508.1236 -350.299901 
L 490.4175 -343.991139 
L 472.7114 -341.260411 
L 455.0053 -341.818304 
L 437.2992 -344.022527 
L 419.5931 -344.41237 
L 401.887 -337.584971 
L 384.1809 -342.547128 
L 366.4748 -339.691014 
L 348.7687 -337.913134 
L 331.0626 -340.597643 
L 313.3565 -333.909945 
L 295.6504 -338.100002 
L 277.9443 -333.285353 
L 260.2382 -334.835039 
L 242.5321 -334.606639 
L 224.826 -335.514389 
L 207.1199 -332.6285 
L 189.4138 -334.923613 
L 171.7077 -333.866356 
L 154.0016 -329.564655 
L 136.2955 -329.765866 
L 118.5894 -330.44869 
L 100.8833 -328.345683 
L 83.1772 -326.720694 
L 65.4711 -327.007409 
L 47.765 -327.908824 
z
" style="stroke: #8c564b; stroke-opacity: 0.2"/>
    </defs>
    <g clip-path="url(#p05b2aee3a4)">
     <use xlink:href="#m256350d62d" x="0" y="648" style="fill: #8c564b; fill-opacity: 0.2; stroke: #8c564b; stroke-opacity: 0.2"/>
    </g>
   </g>
   <g id="PolyCollection_7">
    <defs>
     <path id="m766655c5f6" d="M 47.765 -323.79505 
L 47.765 -247.717832 
L 65.4711 -242.817528 
L 83.1772 -240.74308 
L 100.8833 -245.428049 
L 118.5894 -245.210434 
L 136.2955 -247.64672 
L 154.0016 -247.18949 
L 171.7077 -250.950508 
L 189.4138 -247.419688 
L 207.1199 -248.23887 
L 224.826 -246.80855 
L 242.5321 -249.032981 
L 260.2382 -245.736856 
L 277.9443 -252.591089 
L 295.6504 -253.394554 
L 313.3565 -255.935636 
L 331.0626 -252.614718 
L 348.7687 -251.602706 
L 366.4748 -251.180809 
L 384.1809 -254.415824 
L 401.887 -258.385255 
L 419.5931 -249.400063 
L 437.2992 -251.677411 
L 455.0053 -253.712188 
L 472.7114 -255.565923 
L 490.4175 -254.17122 
L 508.1236 -253.735292 
L 525.8297 -257.362448 
L 543.5358 -259.176315 
L 561.2419 -259.43223 
L 578.948 -255.387092 
L 596.6541 -258.206656 
L 614.3602 -260.060351 
L 632.0663 -262.018865 
L 649.7724 -263.305357 
L 667.4785 -261.239221 
L 685.1846 -266.810657 
L 702.8907 -270.263658 
L 720.5968 -265.658795 
L 738.3029 -271.439562 
L 756.009 -269.849825 
L 773.7151 -272.209899 
L 791.4212 -271.27594 
L 809.1273 -273.445074 
L 826.8334 -271.244991 
L 844.5395 -276.12164 
L 862.2456 -268.698297 
L 879.9517 -284.049335 
L 897.6578 -279.100835 
L 915.3639 -278.638695 
L 933.07 -280.957938 
L 933.07 -379.520395 
L 933.07 -379.520395 
L 915.3639 -381.132078 
L 897.6578 -379.590193 
L 879.9517 -380.457723 
L 862.2456 -377.566601 
L 844.5395 -374.946694 
L 826.8334 -374.35148 
L 809.1273 -374.810364 
L 791.4212 -373.485666 
L 773.7151 -367.797147 
L 756.009 -366.762133 
L 738.3029 -369.823094 
L 720.5968 -362.185994 
L 702.8907 -363.574197 
L 685.1846 -359.122907 
L 667.4785 -358.21754 
L 649.7724 -359.233373 
L 632.0663 -354.323058 
L 614.3602 -356.048107 
L 596.6541 -353.135004 
L 578.948 -349.564606 
L 561.2419 -347.268863 
L 543.5358 -344.849918 
L 525.8297 -344.202988 
L 508.1236 -347.08513 
L 490.4175 -342.778008 
L 472.7114 -345.389729 
L 455.0053 -344.602935 
L 437.2992 -341.667977 
L 419.5931 -338.487803 
L 401.887 -340.624449 
L 384.1809 -338.032373 
L 366.4748 -340.821165 
L 348.7687 -335.010438 
L 331.0626 -337.869248 
L 313.3565 -334.578269 
L 295.6504 -333.219544 
L 277.9443 -332.198709 
L 260.2382 -330.935209 
L 242.5321 -332.521586 
L 224.826 -331.465491 
L 207.1199 -331.043502 
L 189.4138 -329.821247 
L 171.7077 -324.952809 
L 154.0016 -331.462574 
L 136.2955 -330.86966 
L 118.5894 -327.21061 
L 100.8833 -328.094494 
L 83.1772 -328.606476 
L 65.4711 -324.96187 
L 47.765 -323.79505 
z
" style="stroke: #e377c2; stroke-opacity: 0.2"/>
    </defs>
    <g clip-path="url(#p05b2aee3a4)">
     <use xlink:href="#m766655c5f6" x="0" y="648" style="fill: #e377c2; fill-opacity: 0.2; stroke: #e377c2; stroke-opacity: 0.2"/>
    </g>
   </g>
   <g id="PolyCollection_8">
    <defs>
     <path id="m8b35daa963" d="M 47.765 -322.85994 
L 47.765 -249.244583 
L 65.4711 -250.633517 
L 83.1772 -249.01912 
L 100.8833 -248.8376 
L 118.5894 -247.365889 
L 136.2955 -250.898963 
L 154.0016 -250.531673 
L 171.7077 -249.161211 
L 189.4138 -250.177437 
L 207.1199 -249.812251 
L 224.826 -248.931228 
L 242.5321 -249.151148 
L 260.2382 -252.780256 
L 277.9443 -252.626536 
L 295.6504 -249.166134 
L 313.3565 -249.959568 
L 331.0626 -254.944593 
L 348.7687 -247.996191 
L 366.4748 -252.564736 
L 384.1809 -251.677749 
L 401.887 -253.927646 
L 419.5931 -252.394823 
L 437.2992 -249.145645 
L 455.0053 -250.754034 
L 472.7114 -254.353653 
L 490.4175 -252.796061 
L 508.1236 -257.250611 
L 525.8297 -255.953535 
L 543.5358 -258.981836 
L 561.2419 -252.892959 
L 578.948 -261.355804 
L 596.6541 -256.649119 
L 614.3602 -257.474118 
L 632.0663 -259.368831 
L 649.7724 -268.760384 
L 667.4785 -264.891511 
L 685.1846 -265.727358 
L 702.8907 -266.523599 
L 720.5968 -265.305585 
L 738.3029 -264.960002 
L 756.009 -264.97614 
L 773.7151 -264.787038 
L 791.4212 -267.858644 
L 809.1273 -267.375487 
L 826.8334 -273.229247 
L 844.5395 -271.563081 
L 862.2456 -279.033406 
L 879.9517 -277.102275 
L 897.6578 -275.036584 
L 915.3639 -281.444947 
L 933.07 -282.65678 
L 933.07 -383.117826 
L 933.07 -383.117826 
L 915.3639 -378.270563 
L 897.6578 -380.170916 
L 879.9517 -373.339958 
L 862.2456 -376.486331 
L 844.5395 -375.599052 
L 826.8334 -372.57505 
L 809.1273 -372.806847 
L 791.4212 -363.670623 
L 773.7151 -363.869836 
L 756.009 -363.365192 
L 738.3029 -357.919226 
L 720.5968 -362.978532 
L 702.8907 -361.136289 
L 685.1846 -360.688833 
L 667.4785 -355.026214 
L 649.7724 -357.129588 
L 632.0663 -357.126524 
L 614.3602 -354.897096 
L 596.6541 -348.464127 
L 578.948 -346.788686 
L 561.2419 -344.630647 
L 543.5358 -349.085037 
L 525.8297 -345.875782 
L 508.1236 -346.526844 
L 490.4175 -345.253575 
L 472.7114 -343.292043 
L 455.0053 -337.786082 
L 437.2992 -344.175525 
L 419.5931 -339.876252 
L 401.887 -340.858667 
L 384.1809 -341.779754 
L 366.4748 -333.46151 
L 348.7687 -339.017207 
L 331.0626 -337.532717 
L 313.3565 -336.685225 
L 295.6504 -335.81432 
L 277.9443 -335.435587 
L 260.2382 -331.268619 
L 242.5321 -330.102917 
L 224.826 -331.961156 
L 207.1199 -335.422572 
L 189.4138 -331.552578 
L 171.7077 -332.907999 
L 154.0016 -332.228095 
L 136.2955 -330.142133 
L 118.5894 -327.485666 
L 100.8833 -329.265857 
L 83.1772 -324.173072 
L 65.4711 -328.793079 
L 47.765 -322.85994 
z
" style="stroke: #7f7f7f; stroke-opacity: 0.2"/>
    </defs>
    <g clip-path="url(#p05b2aee3a4)">
     <use xlink:href="#m8b35daa963" x="0" y="648" style="fill: #7f7f7f; fill-opacity: 0.2; stroke: #7f7f7f; stroke-opacity: 0.2"/>
    </g>
   </g>
   <g id="PolyCollection_9">
    <defs>
     <path id="m068b3529e5" d="M 47.765 -334.688421 
L 47.765 -254.782599 
L 65.4711 -260.755325 
L 83.1772 -252.531578 
L 100.8833 -259.120752 
L 118.5894 -259.239907 
L 136.2955 -258.673095 
L 154.0016 -256.594897 
L 171.7077 -257.850864 
L 189.4138 -258.038701 
L 207.1199 -257.792705 
L 224.826 -256.337602 
L 242.5321 -258.282767 
L 260.2382 -258.112784 
L 277.9443 -257.030692 
L 295.6504 -257.340714 
L 313.3565 -258.896144 
L 331.0626 -259.225721 
L 348.7687 -257.730717 
L 366.4748 -259.783217 
L 384.1809 -260.125402 
L 401.887 -262.939784 
L 419.5931 -267.269339 
L 437.2992 -260.969739 
L 455.0053 -260.765142 
L 472.7114 -260.024881 
L 490.4175 -262.22479 
L 508.1236 -267.030211 
L 525.8297 -263.695293 
L 543.5358 -264.299361 
L 561.2419 -263.608079 
L 578.948 -264.893844 
L 596.6541 -266.307753 
L 614.3602 -266.573664 
L 632.0663 -265.439298 
L 649.7724 -267.045904 
L 667.4785 -267.834144 
L 685.1846 -267.832258 
L 702.8907 -270.22763 
L 720.5968 -269.155238 
L 738.3029 -272.887859 
L 756.009 -273.497758 
L 773.7151 -271.649725 
L 791.4212 -269.36165 
L 809.1273 -275.281549 
L 826.8334 -272.655728 
L 844.5395 -273.063834 
L 862.2456 -276.267984 
L 879.9517 -275.596925 
L 897.6578 -275.417879 
L 915.3639 -282.115387 
L 933.07 -280.094207 
L 933.07 -384.951155 
L 933.07 -384.951155 
L 915.3639 -381.051696 
L 897.6578 -375.819672 
L 879.9517 -382.094825 
L 862.2456 -375.456387 
L 844.5395 -371.218373 
L 826.8334 -372.261829 
L 809.1273 -372.427808 
L 791.4212 -368.34873 
L 773.7151 -367.744849 
L 756.009 -369.745181 
L 738.3029 -368.074857 
L 720.5968 -366.757584 
L 702.8907 -365.338875 
L 685.1846 -362.699853 
L 667.4785 -358.340836 
L 649.7724 -360.682086 
L 632.0663 -357.728208 
L 614.3602 -356.522157 
L 596.6541 -355.382031 
L 578.948 -353.875676 
L 561.2419 -353.729722 
L 543.5358 -354.689277 
L 525.8297 -353.428985 
L 508.1236 -349.092582 
L 490.4175 -348.307567 
L 472.7114 -353.909093 
L 455.0053 -350.985203 
L 437.2992 -345.594989 
L 419.5931 -348.636688 
L 401.887 -349.004166 
L 384.1809 -345.893172 
L 366.4748 -343.895128 
L 348.7687 -344.653585 
L 331.0626 -345.667159 
L 313.3565 -341.156082 
L 295.6504 -339.251811 
L 277.9443 -343.427021 
L 260.2382 -340.742172 
L 242.5321 -339.522398 
L 224.826 -343.732895 
L 207.1199 -342.337123 
L 189.4138 -340.72708 
L 171.7077 -339.133363 
L 154.0016 -339.559837 
L 136.2955 -336.227139 
L 118.5894 -338.192771 
L 100.8833 -333.733555 
L 83.1772 -333.639444 
L 65.4711 -330.236352 
L 47.765 -334.688421 
z
" style="stroke: #bcbd22; stroke-opacity: 0.2"/>
    </defs>
    <g clip-path="url(#p05b2aee3a4)">
     <use xlink:href="#m068b3529e5" x="0" y="648" style="fill: #bcbd22; fill-opacity: 0.2; stroke: #bcbd22; stroke-opacity: 0.2"/>
    </g>
   </g>
   <g id="PolyCollection_10">
    <defs>
     <path id="m051f988f7c" d="M 47.765 -332.915637 
L 47.765 -255.04718 
L 65.4711 -255.812551 
L 83.1772 -255.967421 
L 100.8833 -251.701949 
L 118.5894 -254.766326 
L 136.2955 -253.783806 
L 154.0016 -254.337336 
L 171.7077 -257.383243 
L 189.4138 -251.99168 
L 207.1199 -254.196946 
L 224.826 -259.045107 
L 242.5321 -256.787144 
L 260.2382 -258.640095 
L 277.9443 -255.084135 
L 295.6504 -261.583416 
L 313.3565 -258.080171 
L 331.0626 -261.223721 
L 348.7687 -259.510384 
L 366.4748 -260.825859 
L 384.1809 -260.455965 
L 401.887 -258.995622 
L 419.5931 -262.878627 
L 437.2992 -264.899372 
L 455.0053 -264.212457 
L 472.7114 -265.209822 
L 490.4175 -264.586832 
L 508.1236 -265.178772 
L 525.8297 -262.25395 
L 543.5358 -260.365402 
L 561.2419 -263.108829 
L 578.948 -264.531189 
L 596.6541 -268.915029 
L 614.3602 -264.57579 
L 632.0663 -267.411366 
L 649.7724 -270.404942 
L 667.4785 -272.026952 
L 685.1846 -267.639541 
L 702.8907 -271.072444 
L 720.5968 -272.672811 
L 738.3029 -273.683655 
L 756.009 -268.103078 
L 773.7151 -277.127289 
L 791.4212 -270.826588 
L 809.1273 -272.955669 
L 826.8334 -274.592966 
L 844.5395 -275.470656 
L 862.2456 -278.784783 
L 879.9517 -272.092812 
L 897.6578 -275.705781 
L 915.3639 -278.510094 
L 933.07 -281.010865 
L 933.07 -381.158153 
L 933.07 -381.158153 
L 915.3639 -375.212037 
L 897.6578 -378.932706 
L 879.9517 -377.338885 
L 862.2456 -373.560712 
L 844.5395 -371.72335 
L 826.8334 -373.339071 
L 809.1273 -367.219729 
L 791.4212 -368.691719 
L 773.7151 -366.907212 
L 756.009 -366.964006 
L 738.3029 -365.347505 
L 720.5968 -364.178778 
L 702.8907 -362.352238 
L 685.1846 -365.669131 
L 667.4785 -357.584629 
L 649.7724 -366.445282 
L 632.0663 -361.177139 
L 614.3602 -359.122564 
L 596.6541 -359.253566 
L 578.948 -353.962693 
L 561.2419 -354.503942 
L 543.5358 -353.576834 
L 525.8297 -350.416505 
L 508.1236 -353.892031 
L 490.4175 -349.540837 
L 472.7114 -350.053385 
L 455.0053 -352.175753 
L 437.2992 -353.478879 
L 419.5931 -346.394232 
L 401.887 -350.218406 
L 384.1809 -348.616411 
L 366.4748 -344.532402 
L 348.7687 -345.098501 
L 331.0626 -346.36514 
L 313.3565 -341.82283 
L 295.6504 -344.442266 
L 277.9443 -341.356411 
L 260.2382 -345.291393 
L 242.5321 -339.492152 
L 224.826 -341.324401 
L 207.1199 -337.60127 
L 189.4138 -337.701404 
L 171.7077 -332.637821 
L 154.0016 -330.863736 
L 136.2955 -335.373572 
L 118.5894 -332.330178 
L 100.8833 -334.171171 
L 83.1772 -336.506629 
L 65.4711 -337.321448 
L 47.765 -332.915637 
z
" style="stroke: #17becf; stroke-opacity: 0.2"/>
    </defs>
    <g clip-path="url(#p05b2aee3a4)">
     <use xlink:href="#m051f988f7c" x="0" y="648" style="fill: #17becf; fill-opacity: 0.2; stroke: #17becf; stroke-opacity: 0.2"/>
    </g>
   </g>
   <g id="PolyCollection_11">
    <defs>
     <path id="me2c622f2a6" d="M 47.765 -322.729892 
L 47.765 -241.426913 
L 65.4711 -243.638674 
L 83.1772 -241.806483 
L 100.8833 -242.238074 
L 118.5894 -240.747573 
L 136.2955 -245.808534 
L 154.0016 -245.629315 
L 171.7077 -246.488879 
L 189.4138 -248.32714 
L 207.1199 -247.771667 
L 224.826 -251.339084 
L 242.5321 -247.299437 
L 260.2382 -251.243706 
L 277.9443 -249.808337 
L 295.6504 -255.295524 
L 313.3565 -250.67064 
L 331.0626 -252.373026 
L 348.7687 -258.846798 
L 366.4748 -253.221072 
L 384.1809 -254.470028 
L 401.887 -255.273548 
L 419.5931 -254.864912 
L 437.2992 -256.105643 
L 455.0053 -263.028561 
L 472.7114 -260.830219 
L 490.4175 -259.598384 
L 508.1236 -263.776598 
L 525.8297 -261.291758 
L 543.5358 -256.120547 
L 561.2419 -261.15986 
L 578.948 -261.967614 
L 596.6541 -262.496622 
L 614.3602 -265.389624 
L 632.0663 -266.227125 
L 649.7724 -266.449269 
L 667.4785 -268.262294 
L 685.1846 -272.053731 
L 702.8907 -266.479443 
L 720.5968 -268.003885 
L 738.3029 -265.461813 
L 756.009 -268.072622 
L 773.7151 -272.563109 
L 791.4212 -272.648718 
L 809.1273 -272.897626 
L 826.8334 -274.560908 
L 844.5395 -279.902429 
L 862.2456 -271.903032 
L 879.9517 -276.426987 
L 897.6578 -275.132282 
L 915.3639 -273.982872 
L 933.07 -272.0277 
L 933.07 -377.193502 
L 933.07 -377.193502 
L 915.3639 -375.573703 
L 897.6578 -375.304479 
L 879.9517 -372.506909 
L 862.2456 -368.950617 
L 844.5395 -371.502588 
L 826.8334 -365.322185 
L 809.1273 -369.011469 
L 791.4212 -366.793092 
L 773.7151 -369.835644 
L 756.009 -367.6832 
L 738.3029 -364.537567 
L 720.5968 -360.653957 
L 702.8907 -366.411381 
L 685.1846 -358.448527 
L 667.4785 -357.156565 
L 649.7724 -359.619053 
L 632.0663 -359.9713 
L 614.3602 -353.077937 
L 596.6541 -354.886196 
L 578.948 -357.670726 
L 561.2419 -354.924267 
L 543.5358 -351.327003 
L 525.8297 -352.768559 
L 508.1236 -357.564446 
L 490.4175 -349.420797 
L 472.7114 -350.533874 
L 455.0053 -350.822661 
L 437.2992 -348.034491 
L 419.5931 -349.13433 
L 401.887 -342.31171 
L 384.1809 -345.426186 
L 366.4748 -340.968089 
L 348.7687 -345.004866 
L 331.0626 -339.306616 
L 313.3565 -338.10594 
L 295.6504 -335.204432 
L 277.9443 -333.000391 
L 260.2382 -336.543599 
L 242.5321 -331.415084 
L 224.826 -333.643475 
L 207.1199 -331.368512 
L 189.4138 -328.198888 
L 171.7077 -326.092314 
L 154.0016 -326.45358 
L 136.2955 -325.783725 
L 118.5894 -325.104898 
L 100.8833 -325.210284 
L 83.1772 -321.932764 
L 65.4711 -320.806225 
L 47.765 -322.729892 
z
" style="stroke: #9edae5; stroke-opacity: 0.2"/>
    </defs>
    <g clip-path="url(#p05b2aee3a4)">
     <use xlink:href="#me2c622f2a6" x="0" y="648" style="fill: #9edae5; fill-opacity: 0.2; stroke: #9edae5; stroke-opacity: 0.2"/>
    </g>
   </g>
   <g id="matplotlib.axis_1">
    <g id="xtick_1">
     <g id="line2d_1">
      <defs>
       <path id="m5589817dc7" d="M 0 0 
L 0 3.5 
" style="stroke: #000000; stroke-width: 0.8"/>
      </defs>
      <g>
       <use xlink:href="#m5589817dc7" x="47.765" y="606.04" style="stroke: #000000; stroke-width: 0.8"/>
      </g>
     </g>
     <g id="text_1">
      <!-- 30 -->
      <g transform="translate(41.4025 620.638438) scale(0.1 -0.1)">
       <defs>
        <path id="DejaVuSans-33" d="M 2597 2516 
Q 3050 2419 3304 2112 
Q 3559 1806 3559 1356 
Q 3559 666 3084 287 
Q 2609 -91 1734 -91 
Q 1441 -91 1130 -33 
Q 819 25 488 141 
L 488 750 
Q 750 597 1062 519 
Q 1375 441 1716 441 
Q 2309 441 2620 675 
Q 2931 909 2931 1356 
Q 2931 1769 2642 2001 
Q 2353 2234 1838 2234 
L 1294 2234 
L 1294 2753 
L 1863 2753 
Q 2328 2753 2575 2939 
Q 2822 3125 2822 3475 
Q 2822 3834 2567 4026 
Q 2313 4219 1838 4219 
Q 1578 4219 1281 4162 
Q 984 4106 628 3988 
L 628 4550 
Q 988 4650 1302 4700 
Q 1616 4750 1894 4750 
Q 2613 4750 3031 4423 
Q 3450 4097 3450 3541 
Q 3450 3153 3228 2886 
Q 3006 2619 2597 2516 
z
" transform="scale(0.015625)"/>
        <path id="DejaVuSans-30" d="M 2034 4250 
Q 1547 4250 1301 3770 
Q 1056 3291 1056 2328 
Q 1056 1369 1301 889 
Q 1547 409 2034 409 
Q 2525 409 2770 889 
Q 3016 1369 3016 2328 
Q 3016 3291 2770 3770 
Q 2525 4250 2034 4250 
z
M 2034 4750 
Q 2819 4750 3233 4129 
Q 3647 3509 3647 2328 
Q 3647 1150 3233 529 
Q 2819 -91 2034 -91 
Q 1250 -91 836 529 
Q 422 1150 422 2328 
Q 422 3509 836 4129 
Q 1250 4750 2034 4750 
z
" transform="scale(0.015625)"/>
       </defs>
       <use xlink:href="#DejaVuSans-33"/>
       <use xlink:href="#DejaVuSans-30" x="63.623047"/>
      </g>
     </g>
    </g>
    <g id="xtick_2">
     <g id="line2d_2">
      <g>
       <use xlink:href="#m5589817dc7" x="224.826" y="606.04" style="stroke: #000000; stroke-width: 0.8"/>
      </g>
     </g>
     <g id="text_2">
      <!-- 40 -->
      <g transform="translate(218.4635 620.638438) scale(0.1 -0.1)">
       <defs>
        <path id="DejaVuSans-34" d="M 2419 4116 
L 825 1625 
L 2419 1625 
L 2419 4116 
z
M 2253 4666 
L 3047 4666 
L 3047 1625 
L 3713 1625 
L 3713 1100 
L 3047 1100 
L 3047 0 
L 2419 0 
L 2419 1100 
L 313 1100 
L 313 1709 
L 2253 4666 
z
" transform="scale(0.015625)"/>
       </defs>
       <use xlink:href="#DejaVuSans-34"/>
       <use xlink:href="#DejaVuSans-30" x="63.623047"/>
      </g>
     </g>
    </g>
    <g id="xtick_3">
     <g id="line2d_3">
      <g>
       <use xlink:href="#m5589817dc7" x="401.887" y="606.04" style="stroke: #000000; stroke-width: 0.8"/>
      </g>
     </g>
     <g id="text_3">
      <!-- 50 -->
      <g transform="translate(395.5245 620.638438) scale(0.1 -0.1)">
       <defs>
        <path id="DejaVuSans-35" d="M 691 4666 
L 3169 4666 
L 3169 4134 
L 1269 4134 
L 1269 2991 
Q 1406 3038 1543 3061 
Q 1681 3084 1819 3084 
Q 2600 3084 3056 2656 
Q 3513 2228 3513 1497 
Q 3513 744 3044 326 
Q 2575 -91 1722 -91 
Q 1428 -91 1123 -41 
Q 819 9 494 109 
L 494 744 
Q 775 591 1075 516 
Q 1375 441 1709 441 
Q 2250 441 2565 725 
Q 2881 1009 2881 1497 
Q 2881 1984 2565 2268 
Q 2250 2553 1709 2553 
Q 1456 2553 1204 2497 
Q 953 2441 691 2322 
L 691 4666 
z
" transform="scale(0.015625)"/>
       </defs>
       <use xlink:href="#DejaVuSans-35"/>
       <use xlink:href="#DejaVuSans-30" x="63.623047"/>
      </g>
     </g>
    </g>
    <g id="xtick_4">
     <g id="line2d_4">
      <g>
       <use xlink:href="#m5589817dc7" x="578.948" y="606.04" style="stroke: #000000; stroke-width: 0.8"/>
      </g>
     </g>
     <g id="text_4">
      <!-- 60 -->
      <g transform="translate(572.5855 620.638438) scale(0.1 -0.1)">
       <defs>
        <path id="DejaVuSans-36" d="M 2113 2584 
Q 1688 2584 1439 2293 
Q 1191 2003 1191 1497 
Q 1191 994 1439 701 
Q 1688 409 2113 409 
Q 2538 409 2786 701 
Q 3034 994 3034 1497 
Q 3034 2003 2786 2293 
Q 2538 2584 2113 2584 
z
M 3366 4563 
L 3366 3988 
Q 3128 4100 2886 4159 
Q 2644 4219 2406 4219 
Q 1781 4219 1451 3797 
Q 1122 3375 1075 2522 
Q 1259 2794 1537 2939 
Q 1816 3084 2150 3084 
Q 2853 3084 3261 2657 
Q 3669 2231 3669 1497 
Q 3669 778 3244 343 
Q 2819 -91 2113 -91 
Q 1303 -91 875 529 
Q 447 1150 447 2328 
Q 447 3434 972 4092 
Q 1497 4750 2381 4750 
Q 2619 4750 2861 4703 
Q 3103 4656 3366 4563 
z
" transform="scale(0.015625)"/>
       </defs>
       <use xlink:href="#DejaVuSans-36"/>
       <use xlink:href="#DejaVuSans-30" x="63.623047"/>
      </g>
     </g>
    </g>
    <g id="xtick_5">
     <g id="line2d_5">
      <g>
       <use xlink:href="#m5589817dc7" x="756.009" y="606.04" style="stroke: #000000; stroke-width: 0.8"/>
      </g>
     </g>
     <g id="text_5">
      <!-- 70 -->
      <g transform="translate(749.6465 620.638438) scale(0.1 -0.1)">
       <defs>
        <path id="DejaVuSans-37" d="M 525 4666 
L 3525 4666 
L 3525 4397 
L 1831 0 
L 1172 0 
L 2766 4134 
L 525 4134 
L 525 4666 
z
" transform="scale(0.015625)"/>
       </defs>
       <use xlink:href="#DejaVuSans-37"/>
       <use xlink:href="#DejaVuSans-30" x="63.623047"/>
      </g>
     </g>
    </g>
    <g id="xtick_6">
     <g id="line2d_6">
      <g>
       <use xlink:href="#m5589817dc7" x="933.07" y="606.04" style="stroke: #000000; stroke-width: 0.8"/>
      </g>
     </g>
     <g id="text_6">
      <!-- 80 -->
      <g transform="translate(926.7075 620.638438) scale(0.1 -0.1)">
       <defs>
        <path id="DejaVuSans-38" d="M 2034 2216 
Q 1584 2216 1326 1975 
Q 1069 1734 1069 1313 
Q 1069 891 1326 650 
Q 1584 409 2034 409 
Q 2484 409 2743 651 
Q 3003 894 3003 1313 
Q 3003 1734 2745 1975 
Q 2488 2216 2034 2216 
z
M 1403 2484 
Q 997 2584 770 2862 
Q 544 3141 544 3541 
Q 544 4100 942 4425 
Q 1341 4750 2034 4750 
Q 2731 4750 3128 4425 
Q 3525 4100 3525 3541 
Q 3525 3141 3298 2862 
Q 3072 2584 2669 2484 
Q 3125 2378 3379 2068 
Q 3634 1759 3634 1313 
Q 3634 634 3220 271 
Q 2806 -91 2034 -91 
Q 1263 -91 848 271 
Q 434 634 434 1313 
Q 434 1759 690 2068 
Q 947 2378 1403 2484 
z
M 1172 3481 
Q 1172 3119 1398 2916 
Q 1625 2713 2034 2713 
Q 2441 2713 2670 2916 
Q 2900 3119 2900 3481 
Q 2900 3844 2670 4047 
Q 2441 4250 2034 4250 
Q 1625 4250 1398 4047 
Q 1172 3844 1172 3481 
z
" transform="scale(0.015625)"/>
       </defs>
       <use xlink:href="#DejaVuSans-38"/>
       <use xlink:href="#DejaVuSans-30" x="63.623047"/>
      </g>
     </g>
    </g>
    <g id="text_7">
     <!-- Number of Baits -->
     <g transform="translate(449.885469 634.316563) scale(0.1 -0.1)">
      <defs>
       <path id="DejaVuSans-4e" d="M 628 4666 
L 1478 4666 
L 3547 763 
L 3547 4666 
L 4159 4666 
L 4159 0 
L 3309 0 
L 1241 3903 
L 1241 0 
L 628 0 
L 628 4666 
z
" transform="scale(0.015625)"/>
       <path id="DejaVuSans-75" d="M 544 1381 
L 544 3500 
L 1119 3500 
L 1119 1403 
Q 1119 906 1312 657 
Q 1506 409 1894 409 
Q 2359 409 2629 706 
Q 2900 1003 2900 1516 
L 2900 3500 
L 3475 3500 
L 3475 0 
L 2900 0 
L 2900 538 
Q 2691 219 2414 64 
Q 2138 -91 1772 -91 
Q 1169 -91 856 284 
Q 544 659 544 1381 
z
M 1991 3584 
L 1991 3584 
z
" transform="scale(0.015625)"/>
       <path id="DejaVuSans-6d" d="M 3328 2828 
Q 3544 3216 3844 3400 
Q 4144 3584 4550 3584 
Q 5097 3584 5394 3201 
Q 5691 2819 5691 2113 
L 5691 0 
L 5113 0 
L 5113 2094 
Q 5113 2597 4934 2840 
Q 4756 3084 4391 3084 
Q 3944 3084 3684 2787 
Q 3425 2491 3425 1978 
L 3425 0 
L 2847 0 
L 2847 2094 
Q 2847 2600 2669 2842 
Q 2491 3084 2119 3084 
Q 1678 3084 1418 2786 
Q 1159 2488 1159 1978 
L 1159 0 
L 581 0 
L 581 3500 
L 1159 3500 
L 1159 2956 
Q 1356 3278 1631 3431 
Q 1906 3584 2284 3584 
Q 2666 3584 2933 3390 
Q 3200 3197 3328 2828 
z
" transform="scale(0.015625)"/>
       <path id="DejaVuSans-62" d="M 3116 1747 
Q 3116 2381 2855 2742 
Q 2594 3103 2138 3103 
Q 1681 3103 1420 2742 
Q 1159 2381 1159 1747 
Q 1159 1113 1420 752 
Q 1681 391 2138 391 
Q 2594 391 2855 752 
Q 3116 1113 3116 1747 
z
M 1159 2969 
Q 1341 3281 1617 3432 
Q 1894 3584 2278 3584 
Q 2916 3584 3314 3078 
Q 3713 2572 3713 1747 
Q 3713 922 3314 415 
Q 2916 -91 2278 -91 
Q 1894 -91 1617 61 
Q 1341 213 1159 525 
L 1159 0 
L 581 0 
L 581 4863 
L 1159 4863 
L 1159 2969 
z
" transform="scale(0.015625)"/>
       <path id="DejaVuSans-65" d="M 3597 1894 
L 3597 1613 
L 953 1613 
Q 991 1019 1311 708 
Q 1631 397 2203 397 
Q 2534 397 2845 478 
Q 3156 559 3463 722 
L 3463 178 
Q 3153 47 2828 -22 
Q 2503 -91 2169 -91 
Q 1331 -91 842 396 
Q 353 884 353 1716 
Q 353 2575 817 3079 
Q 1281 3584 2069 3584 
Q 2775 3584 3186 3129 
Q 3597 2675 3597 1894 
z
M 3022 2063 
Q 3016 2534 2758 2815 
Q 2500 3097 2075 3097 
Q 1594 3097 1305 2825 
Q 1016 2553 972 2059 
L 3022 2063 
z
" transform="scale(0.015625)"/>
       <path id="DejaVuSans-72" d="M 2631 2963 
Q 2534 3019 2420 3045 
Q 2306 3072 2169 3072 
Q 1681 3072 1420 2755 
Q 1159 2438 1159 1844 
L 1159 0 
L 581 0 
L 581 3500 
L 1159 3500 
L 1159 2956 
Q 1341 3275 1631 3429 
Q 1922 3584 2338 3584 
Q 2397 3584 2469 3576 
Q 2541 3569 2628 3553 
L 2631 2963 
z
" transform="scale(0.015625)"/>
       <path id="DejaVuSans-20" transform="scale(0.015625)"/>
       <path id="DejaVuSans-6f" d="M 1959 3097 
Q 1497 3097 1228 2736 
Q 959 2375 959 1747 
Q 959 1119 1226 758 
Q 1494 397 1959 397 
Q 2419 397 2687 759 
Q 2956 1122 2956 1747 
Q 2956 2369 2687 2733 
Q 2419 3097 1959 3097 
z
M 1959 3584 
Q 2709 3584 3137 3096 
Q 3566 2609 3566 1747 
Q 3566 888 3137 398 
Q 2709 -91 1959 -91 
Q 1206 -91 779 398 
Q 353 888 353 1747 
Q 353 2609 779 3096 
Q 1206 3584 1959 3584 
z
" transform="scale(0.015625)"/>
       <path id="DejaVuSans-66" d="M 2375 4863 
L 2375 4384 
L 1825 4384 
Q 1516 4384 1395 4259 
Q 1275 4134 1275 3809 
L 1275 3500 
L 2222 3500 
L 2222 3053 
L 1275 3053 
L 1275 0 
L 697 0 
L 697 3053 
L 147 3053 
L 147 3500 
L 697 3500 
L 697 3744 
Q 697 4328 969 4595 
Q 1241 4863 1831 4863 
L 2375 4863 
z
" transform="scale(0.015625)"/>
       <path id="DejaVuSans-42" d="M 1259 2228 
L 1259 519 
L 2272 519 
Q 2781 519 3026 730 
Q 3272 941 3272 1375 
Q 3272 1813 3026 2020 
Q 2781 2228 2272 2228 
L 1259 2228 
z
M 1259 4147 
L 1259 2741 
L 2194 2741 
Q 2656 2741 2882 2914 
Q 3109 3088 3109 3444 
Q 3109 3797 2882 3972 
Q 2656 4147 2194 4147 
L 1259 4147 
z
M 628 4666 
L 2241 4666 
Q 2963 4666 3353 4366 
Q 3744 4066 3744 3513 
Q 3744 3084 3544 2831 
Q 3344 2578 2956 2516 
Q 3422 2416 3680 2098 
Q 3938 1781 3938 1306 
Q 3938 681 3513 340 
Q 3088 0 2303 0 
L 628 0 
L 628 4666 
z
" transform="scale(0.015625)"/>
       <path id="DejaVuSans-61" d="M 2194 1759 
Q 1497 1759 1228 1600 
Q 959 1441 959 1056 
Q 959 750 1161 570 
Q 1363 391 1709 391 
Q 2188 391 2477 730 
Q 2766 1069 2766 1631 
L 2766 1759 
L 2194 1759 
z
M 3341 1997 
L 3341 0 
L 2766 0 
L 2766 531 
Q 2569 213 2275 61 
Q 1981 -91 1556 -91 
Q 1019 -91 701 211 
Q 384 513 384 1019 
Q 384 1609 779 1909 
Q 1175 2209 1959 2209 
L 2766 2209 
L 2766 2266 
Q 2766 2663 2505 2880 
Q 2244 3097 1772 3097 
Q 1472 3097 1187 3025 
Q 903 2953 641 2809 
L 641 3341 
Q 956 3463 1253 3523 
Q 1550 3584 1831 3584 
Q 2591 3584 2966 3190 
Q 3341 2797 3341 1997 
z
" transform="scale(0.015625)"/>
       <path id="DejaVuSans-69" d="M 603 3500 
L 1178 3500 
L 1178 0 
L 603 0 
L 603 3500 
z
M 603 4863 
L 1178 4863 
L 1178 4134 
L 603 4134 
L 603 4863 
z
" transform="scale(0.015625)"/>
       <path id="DejaVuSans-74" d="M 1172 4494 
L 1172 3500 
L 2356 3500 
L 2356 3053 
L 1172 3053 
L 1172 1153 
Q 1172 725 1289 603 
Q 1406 481 1766 481 
L 2356 481 
L 2356 0 
L 1766 0 
Q 1100 0 847 248 
Q 594 497 594 1153 
L 594 3053 
L 172 3053 
L 172 3500 
L 594 3500 
L 594 4494 
L 1172 4494 
z
" transform="scale(0.015625)"/>
       <path id="DejaVuSans-73" d="M 2834 3397 
L 2834 2853 
Q 2591 2978 2328 3040 
Q 2066 3103 1784 3103 
Q 1356 3103 1142 2972 
Q 928 2841 928 2578 
Q 928 2378 1081 2264 
Q 1234 2150 1697 2047 
L 1894 2003 
Q 2506 1872 2764 1633 
Q 3022 1394 3022 966 
Q 3022 478 2636 193 
Q 2250 -91 1575 -91 
Q 1294 -91 989 -36 
Q 684 19 347 128 
L 347 722 
Q 666 556 975 473 
Q 1284 391 1588 391 
Q 1994 391 2212 530 
Q 2431 669 2431 922 
Q 2431 1156 2273 1281 
Q 2116 1406 1581 1522 
L 1381 1569 
Q 847 1681 609 1914 
Q 372 2147 372 2553 
Q 372 3047 722 3315 
Q 1072 3584 1716 3584 
Q 2034 3584 2315 3537 
Q 2597 3491 2834 3397 
z
" transform="scale(0.015625)"/>
      </defs>
      <use xlink:href="#DejaVuSans-4e"/>
      <use xlink:href="#DejaVuSans-75" x="74.804688"/>
      <use xlink:href="#DejaVuSans-6d" x="138.183594"/>
      <use xlink:href="#DejaVuSans-62" x="235.595703"/>
      <use xlink:href="#DejaVuSans-65" x="299.072266"/>
      <use xlink:href="#DejaVuSans-72" x="360.595703"/>
      <use xlink:href="#DejaVuSans-20" x="401.708984"/>
      <use xlink:href="#DejaVuSans-6f" x="433.496094"/>
      <use xlink:href="#DejaVuSans-66" x="494.677734"/>
      <use xlink:href="#DejaVuSans-20" x="529.882812"/>
      <use xlink:href="#DejaVuSans-42" x="561.669922"/>
      <use xlink:href="#DejaVuSans-61" x="630.273438"/>
      <use xlink:href="#DejaVuSans-69" x="691.552734"/>
      <use xlink:href="#DejaVuSans-74" x="719.335938"/>
      <use xlink:href="#DejaVuSans-73" x="758.544922"/>
     </g>
    </g>
   </g>
   <g id="matplotlib.axis_2">
    <g id="ytick_1">
     <g id="line2d_7">
      <defs>
       <path id="m63e21444e3" d="M 0 0 
L -3.5 0 
" style="stroke: #000000; stroke-width: 0.8"/>
      </defs>
      <g>
       <use xlink:href="#m63e21444e3" x="47.765" y="606.04" style="stroke: #000000; stroke-width: 0.8"/>
      </g>
     </g>
     <g id="text_8">
      <!-- 0.0 -->
      <g transform="translate(24.861875 609.839219) scale(0.1 -0.1)">
       <defs>
        <path id="DejaVuSans-2e" d="M 684 794 
L 1344 794 
L 1344 0 
L 684 0 
L 684 794 
z
" transform="scale(0.015625)"/>
       </defs>
       <use xlink:href="#DejaVuSans-30"/>
       <use xlink:href="#DejaVuSans-2e" x="63.623047"/>
       <use xlink:href="#DejaVuSans-30" x="95.410156"/>
      </g>
     </g>
    </g>
    <g id="ytick_2">
     <g id="line2d_8">
      <g>
       <use xlink:href="#m63e21444e3" x="47.765" y="490.9816" style="stroke: #000000; stroke-width: 0.8"/>
      </g>
     </g>
     <g id="text_9">
      <!-- 0.2 -->
      <g transform="translate(24.861875 494.780819) scale(0.1 -0.1)">
       <defs>
        <path id="DejaVuSans-32" d="M 1228 531 
L 3431 531 
L 3431 0 
L 469 0 
L 469 531 
Q 828 903 1448 1529 
Q 2069 2156 2228 2338 
Q 2531 2678 2651 2914 
Q 2772 3150 2772 3378 
Q 2772 3750 2511 3984 
Q 2250 4219 1831 4219 
Q 1534 4219 1204 4116 
Q 875 4013 500 3803 
L 500 4441 
Q 881 4594 1212 4672 
Q 1544 4750 1819 4750 
Q 2544 4750 2975 4387 
Q 3406 4025 3406 3419 
Q 3406 3131 3298 2873 
Q 3191 2616 2906 2266 
Q 2828 2175 2409 1742 
Q 1991 1309 1228 531 
z
" transform="scale(0.015625)"/>
       </defs>
       <use xlink:href="#DejaVuSans-30"/>
       <use xlink:href="#DejaVuSans-2e" x="63.623047"/>
       <use xlink:href="#DejaVuSans-32" x="95.410156"/>
      </g>
     </g>
    </g>
    <g id="ytick_3">
     <g id="line2d_9">
      <g>
       <use xlink:href="#m63e21444e3" x="47.765" y="375.9232" style="stroke: #000000; stroke-width: 0.8"/>
      </g>
     </g>
     <g id="text_10">
      <!-- 0.4 -->
      <g transform="translate(24.861875 379.722419) scale(0.1 -0.1)">
       <use xlink:href="#DejaVuSans-30"/>
       <use xlink:href="#DejaVuSans-2e" x="63.623047"/>
       <use xlink:href="#DejaVuSans-34" x="95.410156"/>
      </g>
     </g>
    </g>
    <g id="ytick_4">
     <g id="line2d_10">
      <g>
       <use xlink:href="#m63e21444e3" x="47.765" y="260.8648" style="stroke: #000000; stroke-width: 0.8"/>
      </g>
     </g>
     <g id="text_11">
      <!-- 0.6 -->
      <g transform="translate(24.861875 264.664019) scale(0.1 -0.1)">
       <use xlink:href="#DejaVuSans-30"/>
       <use xlink:href="#DejaVuSans-2e" x="63.623047"/>
       <use xlink:href="#DejaVuSans-36" x="95.410156"/>
      </g>
     </g>
    </g>
    <g id="ytick_5">
     <g id="line2d_11">
      <g>
       <use xlink:href="#m63e21444e3" x="47.765" y="145.8064" style="stroke: #000000; stroke-width: 0.8"/>
      </g>
     </g>
     <g id="text_12">
      <!-- 0.8 -->
      <g transform="translate(24.861875 149.605619) scale(0.1 -0.1)">
       <use xlink:href="#DejaVuSans-30"/>
       <use xlink:href="#DejaVuSans-2e" x="63.623047"/>
       <use xlink:href="#DejaVuSans-38" x="95.410156"/>
      </g>
     </g>
    </g>
    <g id="ytick_6">
     <g id="line2d_12">
      <g>
       <use xlink:href="#m63e21444e3" x="47.765" y="30.748" style="stroke: #000000; stroke-width: 0.8"/>
      </g>
     </g>
     <g id="text_13">
      <!-- 1.0 -->
      <g transform="translate(24.861875 34.547219) scale(0.1 -0.1)">
       <defs>
        <path id="DejaVuSans-31" d="M 794 531 
L 1825 531 
L 1825 4091 
L 703 3866 
L 703 4441 
L 1819 4666 
L 2450 4666 
L 2450 531 
L 3481 531 
L 3481 0 
L 794 0 
L 794 531 
z
" transform="scale(0.015625)"/>
       </defs>
       <use xlink:href="#DejaVuSans-31"/>
       <use xlink:href="#DejaVuSans-2e" x="63.623047"/>
       <use xlink:href="#DejaVuSans-30" x="95.410156"/>
      </g>
     </g>
    </g>
    <g id="text_14">
     <!-- Aggregated mean correlation scores -->
     <g transform="translate(18.782187 409.442438) rotate(-90) scale(0.1 -0.1)">
      <defs>
       <path id="DejaVuSans-41" d="M 2188 4044 
L 1331 1722 
L 3047 1722 
L 2188 4044 
z
M 1831 4666 
L 2547 4666 
L 4325 0 
L 3669 0 
L 3244 1197 
L 1141 1197 
L 716 0 
L 50 0 
L 1831 4666 
z
" transform="scale(0.015625)"/>
       <path id="DejaVuSans-67" d="M 2906 1791 
Q 2906 2416 2648 2759 
Q 2391 3103 1925 3103 
Q 1463 3103 1205 2759 
Q 947 2416 947 1791 
Q 947 1169 1205 825 
Q 1463 481 1925 481 
Q 2391 481 2648 825 
Q 2906 1169 2906 1791 
z
M 3481 434 
Q 3481 -459 3084 -895 
Q 2688 -1331 1869 -1331 
Q 1566 -1331 1297 -1286 
Q 1028 -1241 775 -1147 
L 775 -588 
Q 1028 -725 1275 -790 
Q 1522 -856 1778 -856 
Q 2344 -856 2625 -561 
Q 2906 -266 2906 331 
L 2906 616 
Q 2728 306 2450 153 
Q 2172 0 1784 0 
Q 1141 0 747 490 
Q 353 981 353 1791 
Q 353 2603 747 3093 
Q 1141 3584 1784 3584 
Q 2172 3584 2450 3431 
Q 2728 3278 2906 2969 
L 2906 3500 
L 3481 3500 
L 3481 434 
z
" transform="scale(0.015625)"/>
       <path id="DejaVuSans-64" d="M 2906 2969 
L 2906 4863 
L 3481 4863 
L 3481 0 
L 2906 0 
L 2906 525 
Q 2725 213 2448 61 
Q 2172 -91 1784 -91 
Q 1150 -91 751 415 
Q 353 922 353 1747 
Q 353 2572 751 3078 
Q 1150 3584 1784 3584 
Q 2172 3584 2448 3432 
Q 2725 3281 2906 2969 
z
M 947 1747 
Q 947 1113 1208 752 
Q 1469 391 1925 391 
Q 2381 391 2643 752 
Q 2906 1113 2906 1747 
Q 2906 2381 2643 2742 
Q 2381 3103 1925 3103 
Q 1469 3103 1208 2742 
Q 947 2381 947 1747 
z
" transform="scale(0.015625)"/>
       <path id="DejaVuSans-6e" d="M 3513 2113 
L 3513 0 
L 2938 0 
L 2938 2094 
Q 2938 2591 2744 2837 
Q 2550 3084 2163 3084 
Q 1697 3084 1428 2787 
Q 1159 2491 1159 1978 
L 1159 0 
L 581 0 
L 581 3500 
L 1159 3500 
L 1159 2956 
Q 1366 3272 1645 3428 
Q 1925 3584 2291 3584 
Q 2894 3584 3203 3211 
Q 3513 2838 3513 2113 
z
" transform="scale(0.015625)"/>
       <path id="DejaVuSans-63" d="M 3122 3366 
L 3122 2828 
Q 2878 2963 2633 3030 
Q 2388 3097 2138 3097 
Q 1578 3097 1268 2742 
Q 959 2388 959 1747 
Q 959 1106 1268 751 
Q 1578 397 2138 397 
Q 2388 397 2633 464 
Q 2878 531 3122 666 
L 3122 134 
Q 2881 22 2623 -34 
Q 2366 -91 2075 -91 
Q 1284 -91 818 406 
Q 353 903 353 1747 
Q 353 2603 823 3093 
Q 1294 3584 2113 3584 
Q 2378 3584 2631 3529 
Q 2884 3475 3122 3366 
z
" transform="scale(0.015625)"/>
       <path id="DejaVuSans-6c" d="M 603 4863 
L 1178 4863 
L 1178 0 
L 603 0 
L 603 4863 
z
" transform="scale(0.015625)"/>
      </defs>
      <use xlink:href="#DejaVuSans-41"/>
      <use xlink:href="#DejaVuSans-67" x="68.408203"/>
      <use xlink:href="#DejaVuSans-67" x="131.884766"/>
      <use xlink:href="#DejaVuSans-72" x="195.361328"/>
      <use xlink:href="#DejaVuSans-65" x="234.224609"/>
      <use xlink:href="#DejaVuSans-67" x="295.748047"/>
      <use xlink:href="#DejaVuSans-61" x="359.224609"/>
      <use xlink:href="#DejaVuSans-74" x="420.503906"/>
      <use xlink:href="#DejaVuSans-65" x="459.712891"/>
      <use xlink:href="#DejaVuSans-64" x="521.236328"/>
      <use xlink:href="#DejaVuSans-20" x="584.712891"/>
      <use xlink:href="#DejaVuSans-6d" x="616.5"/>
      <use xlink:href="#DejaVuSans-65" x="713.912109"/>
      <use xlink:href="#DejaVuSans-61" x="775.435547"/>
      <use xlink:href="#DejaVuSans-6e" x="836.714844"/>
      <use xlink:href="#DejaVuSans-20" x="900.09375"/>
      <use xlink:href="#DejaVuSans-63" x="931.880859"/>
      <use xlink:href="#DejaVuSans-6f" x="986.861328"/>
      <use xlink:href="#DejaVuSans-72" x="1048.042969"/>
      <use xlink:href="#DejaVuSans-72" x="1087.40625"/>
      <use xlink:href="#DejaVuSans-65" x="1126.269531"/>
      <use xlink:href="#DejaVuSans-6c" x="1187.792969"/>
      <use xlink:href="#DejaVuSans-61" x="1215.576172"/>
      <use xlink:href="#DejaVuSans-74" x="1276.855469"/>
      <use xlink:href="#DejaVuSans-69" x="1316.064453"/>
      <use xlink:href="#DejaVuSans-6f" x="1343.847656"/>
      <use xlink:href="#DejaVuSans-6e" x="1405.029297"/>
      <use xlink:href="#DejaVuSans-20" x="1468.408203"/>
      <use xlink:href="#DejaVuSans-73" x="1500.195312"/>
      <use xlink:href="#DejaVuSans-63" x="1552.294922"/>
      <use xlink:href="#DejaVuSans-6f" x="1607.275391"/>
      <use xlink:href="#DejaVuSans-72" x="1668.457031"/>
      <use xlink:href="#DejaVuSans-65" x="1707.320312"/>
      <use xlink:href="#DejaVuSans-73" x="1768.84375"/>
     </g>
    </g>
   </g>
   <g id="line2d_13">
    <path d="M 47.765 350.422238 
L 65.4711 344.804053 
L 83.1772 349.784584 
L 100.8833 344.722425 
L 118.5894 343.441482 
L 136.2955 345.025698 
L 154.0016 343.757984 
L 171.7077 343.019867 
L 189.4138 341.778679 
L 207.1199 341.394867 
L 224.826 340.540581 
L 242.5321 342.608094 
L 260.2382 338.224491 
L 277.9443 337.108985 
L 295.6504 336.670645 
L 313.3565 337.070819 
L 331.0626 338.01819 
L 348.7687 337.198274 
L 366.4748 335.651419 
L 384.1809 331.781906 
L 401.887 332.685945 
L 419.5931 333.063203 
L 437.2992 334.666764 
L 455.0053 331.655685 
L 472.7114 331.04131 
L 490.4175 333.062334 
L 508.1236 333.316756 
L 525.8297 332.945844 
L 543.5358 329.496929 
L 561.2419 331.437062 
L 578.948 330.634281 
L 596.6541 331.356828 
L 614.3602 329.009504 
L 632.0663 329.161119 
L 649.7724 325.894399 
L 667.4785 326.214073 
L 685.1846 325.133314 
L 702.8907 326.773979 
L 720.5968 327.061094 
L 738.3029 321.358478 
L 756.009 326.745918 
L 773.7151 322.826634 
L 791.4212 325.138629 
L 809.1273 322.599762 
L 826.8334 320.220286 
L 844.5395 321.632439 
L 862.2456 319.851091 
L 879.9517 319.599079 
L 897.6578 318.200261 
L 915.3639 319.125515 
L 933.07 314.164827 
" clip-path="url(#p05b2aee3a4)" style="fill: none; stroke: #1f77b4; stroke-width: 1.5; stroke-linecap: square"/>
   </g>
   <g id="line2d_14">
    <path d="M 47.765 457.573551 
L 65.4711 448.615072 
L 83.1772 449.672634 
L 100.8833 434.319757 
L 118.5894 458.314751 
L 136.2955 438.144474 
L 154.0016 445.328877 
L 171.7077 435.160608 
L 189.4138 431.879236 
L 207.1199 432.64316 
L 224.826 444.906272 
L 242.5321 429.658514 
L 260.2382 417.335431 
L 277.9443 422.655792 
L 295.6504 414.460567 
L 313.3565 424.117725 
L 331.0626 417.95979 
L 348.7687 420.585551 
L 366.4748 410.044791 
L 384.1809 412.653681 
L 401.887 400.913917 
L 419.5931 404.618489 
L 437.2992 381.195908 
L 455.0053 417.64911 
L 472.7114 395.222152 
L 490.4175 394.316815 
L 508.1236 397.150945 
L 525.8297 395.684666 
L 543.5358 401.728987 
L 561.2419 389.36877 
L 578.948 382.524937 
L 596.6541 393.383654 
L 614.3602 389.157594 
L 632.0663 380.835969 
L 649.7724 382.654858 
L 667.4785 394.262649 
L 685.1846 385.27655 
L 702.8907 387.932301 
L 720.5968 381.54239 
L 738.3029 368.944986 
L 756.009 376.755765 
L 773.7151 386.100887 
L 791.4212 375.530396 
L 809.1273 373.029989 
L 826.8334 379.723172 
L 844.5395 366.939908 
L 862.2456 362.48889 
L 879.9517 370.22946 
L 897.6578 364.261816 
L 915.3639 352.540668 
L 933.07 357.093799 
" clip-path="url(#p05b2aee3a4)" style="fill: none; stroke: #ff7f0e; stroke-width: 1.5; stroke-linecap: square"/>
   </g>
   <g id="line2d_15">
    <path d="M 47.765 353.364892 
L 65.4711 351.583504 
L 83.1772 346.73066 
L 100.8833 348.332969 
L 118.5894 350.244599 
L 136.2955 344.049664 
L 154.0016 346.118002 
L 171.7077 343.644847 
L 189.4138 344.488561 
L 207.1199 344.937223 
L 224.826 343.908292 
L 242.5321 343.785075 
L 260.2382 338.745699 
L 277.9443 341.872232 
L 295.6504 340.368628 
L 313.3565 341.677777 
L 331.0626 342.257804 
L 348.7687 341.831679 
L 366.4748 337.264951 
L 384.1809 337.902337 
L 401.887 340.670724 
L 419.5931 336.96471 
L 437.2992 339.310105 
L 455.0053 335.216425 
L 472.7114 335.944993 
L 490.4175 336.527282 
L 508.1236 336.441737 
L 525.8297 337.855514 
L 543.5358 333.195115 
L 561.2419 334.503551 
L 578.948 333.04466 
L 596.6541 332.417147 
L 614.3602 334.438495 
L 632.0663 332.277829 
L 649.7724 331.912241 
L 667.4785 330.730449 
L 685.1846 328.905837 
L 702.8907 325.997705 
L 720.5968 325.721176 
L 738.3029 329.224059 
L 756.009 326.579151 
L 773.7151 325.005725 
L 791.4212 327.244151 
L 809.1273 325.243262 
L 826.8334 323.24298 
L 844.5395 325.546226 
L 862.2456 320.997739 
L 879.9517 325.035086 
L 897.6578 320.932967 
L 915.3639 322.676475 
L 933.07 320.388608 
" clip-path="url(#p05b2aee3a4)" style="fill: none; stroke: #2ca02c; stroke-width: 1.5; stroke-linecap: square"/>
   </g>
   <g id="line2d_16">
    <path d="M 47.765 351.792153 
L 65.4711 346.539697 
L 83.1772 345.223274 
L 100.8833 344.784817 
L 118.5894 342.225096 
L 136.2955 341.024401 
L 154.0016 343.413262 
L 171.7077 339.490565 
L 189.4138 337.700266 
L 207.1199 340.288898 
L 224.826 339.847262 
L 242.5321 338.916956 
L 260.2382 339.831376 
L 277.9443 338.588971 
L 295.6504 336.368251 
L 313.3565 336.514831 
L 331.0626 336.085302 
L 348.7687 334.314475 
L 366.4748 336.708324 
L 384.1809 333.201625 
L 401.887 333.481904 
L 419.5931 333.419898 
L 437.2992 330.654508 
L 455.0053 330.831224 
L 472.7114 329.806212 
L 490.4175 329.775919 
L 508.1236 332.945737 
L 525.8297 330.283495 
L 543.5358 329.161647 
L 561.2419 330.308042 
L 578.948 328.565595 
L 596.6541 327.489362 
L 614.3602 330.446043 
L 632.0663 329.025677 
L 649.7724 330.555327 
L 667.4785 328.581183 
L 685.1846 324.64575 
L 702.8907 327.046161 
L 720.5968 327.313146 
L 738.3029 326.328912 
L 756.009 323.296581 
L 773.7151 324.205234 
L 791.4212 323.03097 
L 809.1273 321.743175 
L 826.8334 319.886277 
L 844.5395 323.272776 
L 862.2456 322.824663 
L 879.9517 323.806042 
L 897.6578 322.050086 
L 915.3639 319.235463 
L 933.07 317.206889 
" clip-path="url(#p05b2aee3a4)" style="fill: none; stroke: #d62728; stroke-width: 1.5; stroke-linecap: square"/>
   </g>
   <g id="line2d_17">
    <path d="M 47.765 348.106143 
L 65.4711 347.357693 
L 83.1772 348.018897 
L 100.8833 348.156753 
L 118.5894 347.469894 
L 136.2955 344.329953 
L 154.0016 345.060659 
L 171.7077 342.484547 
L 189.4138 339.686071 
L 207.1199 341.987232 
L 224.826 341.687167 
L 242.5321 341.452192 
L 260.2382 341.271769 
L 277.9443 342.876262 
L 295.6504 339.103416 
L 313.3565 336.962283 
L 331.0626 339.666872 
L 348.7687 338.939281 
L 366.4748 337.244851 
L 384.1809 333.579503 
L 401.887 333.703445 
L 419.5931 334.498047 
L 437.2992 334.775636 
L 455.0053 336.189985 
L 472.7114 333.699256 
L 490.4175 335.365463 
L 508.1236 332.977751 
L 525.8297 333.569061 
L 543.5358 332.353952 
L 561.2419 331.502003 
L 578.948 330.148483 
L 596.6541 333.334597 
L 614.3602 329.005146 
L 632.0663 330.049358 
L 649.7724 327.742108 
L 667.4785 328.677078 
L 685.1846 327.477675 
L 702.8907 328.392914 
L 720.5968 319.106666 
L 738.3029 327.356927 
L 756.009 323.947384 
L 773.7151 320.833963 
L 791.4212 322.542051 
L 809.1273 324.204585 
L 826.8334 322.880285 
L 844.5395 318.599795 
L 862.2456 318.767101 
L 879.9517 319.534619 
L 897.6578 313.697969 
L 915.3639 311.930193 
L 933.07 315.583572 
" clip-path="url(#p05b2aee3a4)" style="fill: none; stroke: #9467bd; stroke-width: 1.5; stroke-linecap: square"/>
   </g>
   <g id="line2d_18">
    <path d="M 47.765 358.918345 
L 65.4711 358.874267 
L 83.1772 360.110801 
L 100.8833 357.913755 
L 118.5894 357.806543 
L 136.2955 358.284313 
L 154.0016 357.594138 
L 171.7077 355.838193 
L 189.4138 353.712175 
L 207.1199 357.582311 
L 224.826 354.298383 
L 242.5321 356.428673 
L 260.2382 353.649245 
L 277.9443 356.655485 
L 295.6504 354.372273 
L 313.3565 355.836853 
L 331.0626 352.805378 
L 348.7687 353.040905 
L 366.4748 349.931544 
L 384.1809 349.766455 
L 401.887 352.366413 
L 419.5931 347.773958 
L 437.2992 347.075888 
L 455.0053 350.342295 
L 472.7114 347.541791 
L 490.4175 346.63121 
L 508.1236 345.147465 
L 525.8297 347.791618 
L 543.5358 342.397323 
L 561.2419 342.565427 
L 578.948 343.016655 
L 596.6541 338.171956 
L 614.3602 341.715157 
L 632.0663 338.605473 
L 649.7724 337.407346 
L 667.4785 341.330606 
L 685.1846 337.439887 
L 702.8907 336.890635 
L 720.5968 329.001745 
L 738.3029 335.524053 
L 756.009 333.329928 
L 773.7151 330.265681 
L 791.4212 329.454038 
L 809.1273 325.210404 
L 826.8334 327.034842 
L 844.5395 324.675411 
L 862.2456 323.403079 
L 879.9517 318.942067 
L 897.6578 322.276423 
L 915.3639 316.898441 
L 933.07 315.749782 
" clip-path="url(#p05b2aee3a4)" style="fill: none; stroke: #8c564b; stroke-width: 1.5; stroke-linecap: square"/>
   </g>
   <g id="line2d_19">
    <path d="M 47.765 362.243559 
L 65.4711 364.110301 
L 83.1772 363.325222 
L 100.8833 361.238729 
L 118.5894 361.789478 
L 136.2955 358.74181 
L 154.0016 358.673968 
L 171.7077 360.048342 
L 189.4138 359.379532 
L 207.1199 358.358814 
L 224.826 358.86298 
L 242.5321 357.222716 
L 260.2382 359.663968 
L 277.9443 355.605101 
L 295.6504 354.692951 
L 313.3565 352.743047 
L 331.0626 352.758017 
L 348.7687 354.693428 
L 366.4748 351.999013 
L 384.1809 351.775902 
L 401.887 348.495148 
L 419.5931 354.056067 
L 437.2992 351.327306 
L 455.0053 348.842439 
L 472.7114 347.522174 
L 490.4175 349.525386 
L 508.1236 347.589789 
L 525.8297 347.217282 
L 543.5358 345.986884 
L 561.2419 344.649453 
L 578.948 345.524151 
L 596.6541 342.32917 
L 614.3602 339.945771 
L 632.0663 339.829038 
L 649.7724 336.730635 
L 667.4785 338.271619 
L 685.1846 335.033218 
L 702.8907 331.081073 
L 720.5968 334.077606 
L 738.3029 327.368672 
L 756.009 329.694021 
L 773.7151 327.996477 
L 791.4212 325.619197 
L 809.1273 323.872281 
L 826.8334 325.201764 
L 844.5395 322.465833 
L 862.2456 324.867551 
L 879.9517 315.746471 
L 897.6578 318.654486 
L 915.3639 318.114614 
L 933.07 317.760834 
" clip-path="url(#p05b2aee3a4)" style="fill: none; stroke: #e377c2; stroke-width: 1.5; stroke-linecap: square"/>
   </g>
   <g id="line2d_20">
    <path d="M 47.765 361.947738 
L 65.4711 358.286702 
L 83.1772 361.403904 
L 100.8833 358.948271 
L 118.5894 360.574223 
L 136.2955 357.479452 
L 154.0016 356.620116 
L 171.7077 356.965395 
L 189.4138 357.134993 
L 207.1199 355.382589 
L 224.826 357.553808 
L 242.5321 358.372968 
L 260.2382 355.975563 
L 277.9443 353.968939 
L 295.6504 355.509773 
L 313.3565 354.677603 
L 331.0626 351.761345 
L 348.7687 354.493301 
L 366.4748 354.986877 
L 384.1809 351.271248 
L 401.887 350.606844 
L 419.5931 351.864463 
L 437.2992 351.339415 
L 455.0053 353.729942 
L 472.7114 349.177152 
L 490.4175 348.975182 
L 508.1236 346.111273 
L 525.8297 347.085342 
L 543.5358 343.966563 
L 561.2419 349.238197 
L 578.948 343.927755 
L 596.6541 345.443377 
L 614.3602 341.814393 
L 632.0663 339.752322 
L 649.7724 335.055014 
L 667.4785 338.041137 
L 685.1846 334.791904 
L 702.8907 334.170056 
L 720.5968 333.857942 
L 738.3029 336.560386 
L 756.009 333.829334 
L 773.7151 333.671563 
L 791.4212 332.235367 
L 809.1273 327.908833 
L 826.8334 325.097852 
L 844.5395 324.418933 
L 862.2456 320.240131 
L 879.9517 322.778883 
L 897.6578 320.39625 
L 915.3639 318.142245 
L 933.07 315.112697 
" clip-path="url(#p05b2aee3a4)" style="fill: none; stroke: #7f7f7f; stroke-width: 1.5; stroke-linecap: square"/>
   </g>
   <g id="line2d_21">
    <path d="M 47.765 353.26449 
L 65.4711 352.504161 
L 83.1772 354.914489 
L 100.8833 351.572846 
L 118.5894 349.283661 
L 136.2955 350.549883 
L 154.0016 349.922633 
L 171.7077 349.507886 
L 189.4138 348.617109 
L 207.1199 347.935086 
L 224.826 347.964751 
L 242.5321 349.097417 
L 260.2382 348.572522 
L 277.9443 347.771144 
L 295.6504 349.703737 
L 313.3565 347.973887 
L 331.0626 345.55356 
L 348.7687 346.807849 
L 366.4748 346.160827 
L 384.1809 344.990713 
L 401.887 342.028025 
L 419.5931 340.046987 
L 437.2992 344.717636 
L 455.0053 342.124827 
L 472.7114 341.033013 
L 490.4175 342.733821 
L 508.1236 339.938603 
L 525.8297 339.437861 
L 543.5358 338.505681 
L 561.2419 339.331099 
L 578.948 338.61524 
L 596.6541 337.155108 
L 614.3602 336.452089 
L 632.0663 336.416247 
L 649.7724 334.136005 
L 667.4785 334.91251 
L 685.1846 332.733945 
L 702.8907 330.216748 
L 720.5968 330.043589 
L 738.3029 327.518642 
L 756.009 326.37853 
L 773.7151 328.302713 
L 791.4212 329.14481 
L 809.1273 324.145322 
L 826.8334 325.541222 
L 844.5395 325.858896 
L 862.2456 322.137815 
L 879.9517 319.154125 
L 897.6578 322.381225 
L 915.3639 316.416459 
L 933.07 315.477319 
" clip-path="url(#p05b2aee3a4)" style="fill: none; stroke: #bcbd22; stroke-width: 1.5; stroke-linecap: square"/>
   </g>
   <g id="line2d_22">
    <path d="M 47.765 354.018592 
L 65.4711 351.433001 
L 83.1772 351.762975 
L 100.8833 355.06344 
L 118.5894 354.451748 
L 136.2955 353.421311 
L 154.0016 355.399464 
L 171.7077 352.989468 
L 189.4138 353.153458 
L 207.1199 352.100892 
L 224.826 347.815246 
L 242.5321 349.860352 
L 260.2382 346.034256 
L 277.9443 349.779727 
L 295.6504 344.987159 
L 313.3565 348.0485 
L 331.0626 344.20557 
L 348.7687 345.695558 
L 366.4748 345.32087 
L 384.1809 343.463812 
L 401.887 343.392986 
L 419.5931 343.36357 
L 437.2992 338.810874 
L 455.0053 339.805895 
L 472.7114 340.368396 
L 490.4175 340.936166 
L 508.1236 338.464598 
L 525.8297 341.664773 
L 543.5358 341.028882 
L 561.2419 339.193614 
L 578.948 338.753059 
L 596.6541 333.915703 
L 614.3602 336.150823 
L 632.0663 333.705747 
L 649.7724 329.574888 
L 667.4785 333.194209 
L 685.1846 331.345664 
L 702.8907 331.287659 
L 720.5968 329.574205 
L 738.3029 328.48442 
L 756.009 330.466458 
L 773.7151 325.982749 
L 791.4212 328.240847 
L 809.1273 327.912301 
L 826.8334 324.033981 
L 844.5395 324.402997 
L 862.2456 321.827253 
L 879.9517 323.284151 
L 897.6578 320.680757 
L 915.3639 321.138934 
L 933.07 316.915491 
" clip-path="url(#p05b2aee3a4)" style="fill: none; stroke: #17becf; stroke-width: 1.5; stroke-linecap: square"/>
   </g>
   <g id="line2d_23">
    <path d="M 47.765 365.921598 
L 65.4711 365.777551 
L 83.1772 366.130376 
L 100.8833 364.275821 
L 118.5894 365.073764 
L 136.2955 362.203871 
L 154.0016 361.958552 
L 171.7077 361.709403 
L 189.4138 359.736986 
L 207.1199 358.429911 
L 224.826 355.50872 
L 242.5321 358.64274 
L 260.2382 354.106347 
L 277.9443 356.595636 
L 295.6504 352.750022 
L 313.3565 353.61171 
L 331.0626 352.160179 
L 348.7687 346.074168 
L 366.4748 350.905419 
L 384.1809 348.051893 
L 401.887 349.207371 
L 419.5931 346.000379 
L 437.2992 345.929933 
L 455.0053 341.074389 
L 472.7114 342.317953 
L 490.4175 343.49041 
L 508.1236 337.329478 
L 525.8297 340.969841 
L 543.5358 344.276225 
L 561.2419 339.957937 
L 578.948 338.18083 
L 596.6541 339.308591 
L 614.3602 338.76622 
L 632.0663 334.900788 
L 649.7724 334.965839 
L 667.4785 335.290571 
L 685.1846 332.748871 
L 702.8907 331.554588 
L 720.5968 333.671079 
L 738.3029 333.00031 
L 756.009 330.122089 
L 773.7151 326.800623 
L 791.4212 328.279095 
L 809.1273 327.045453 
L 826.8334 328.058453 
L 844.5395 322.297491 
L 862.2456 327.573176 
L 879.9517 323.533052 
L 897.6578 322.781619 
L 915.3639 323.221713 
L 933.07 323.389399 
" clip-path="url(#p05b2aee3a4)" style="fill: none; stroke: #9edae5; stroke-width: 1.5; stroke-linecap: square"/>
   </g>
   <g id="patch_3">
    <path d="M 47.765 606.04 
L 47.765 30.748 
" style="fill: none; stroke: #000000; stroke-width: 0.8; stroke-linejoin: miter; stroke-linecap: square"/>
   </g>
   <g id="patch_4">
    <path d="M 933.07 606.04 
L 933.07 30.748 
" style="fill: none; stroke: #000000; stroke-width: 0.8; stroke-linejoin: miter; stroke-linecap: square"/>
   </g>
   <g id="patch_5">
    <path d="M 47.765 606.04 
L 933.07 606.04 
" style="fill: none; stroke: #000000; stroke-width: 0.8; stroke-linejoin: miter; stroke-linecap: square"/>
   </g>
   <g id="patch_6">
    <path d="M 47.765 30.748 
L 933.07 30.748 
" style="fill: none; stroke: #000000; stroke-width: 0.8; stroke-linejoin: miter; stroke-linecap: square"/>
   </g>
   <g id="text_15">
    <!-- Mean Correlation Scores by Number of Baits for Each Method -->
    <g transform="translate(306.388125 24.748) scale(0.12 -0.12)">
     <defs>
      <path id="DejaVuSans-4d" d="M 628 4666 
L 1569 4666 
L 2759 1491 
L 3956 4666 
L 4897 4666 
L 4897 0 
L 4281 0 
L 4281 4097 
L 3078 897 
L 2444 897 
L 1241 4097 
L 1241 0 
L 628 0 
L 628 4666 
z
" transform="scale(0.015625)"/>
      <path id="DejaVuSans-43" d="M 4122 4306 
L 4122 3641 
Q 3803 3938 3442 4084 
Q 3081 4231 2675 4231 
Q 1875 4231 1450 3742 
Q 1025 3253 1025 2328 
Q 1025 1406 1450 917 
Q 1875 428 2675 428 
Q 3081 428 3442 575 
Q 3803 722 4122 1019 
L 4122 359 
Q 3791 134 3420 21 
Q 3050 -91 2638 -91 
Q 1578 -91 968 557 
Q 359 1206 359 2328 
Q 359 3453 968 4101 
Q 1578 4750 2638 4750 
Q 3056 4750 3426 4639 
Q 3797 4528 4122 4306 
z
" transform="scale(0.015625)"/>
      <path id="DejaVuSans-53" d="M 3425 4513 
L 3425 3897 
Q 3066 4069 2747 4153 
Q 2428 4238 2131 4238 
Q 1616 4238 1336 4038 
Q 1056 3838 1056 3469 
Q 1056 3159 1242 3001 
Q 1428 2844 1947 2747 
L 2328 2669 
Q 3034 2534 3370 2195 
Q 3706 1856 3706 1288 
Q 3706 609 3251 259 
Q 2797 -91 1919 -91 
Q 1588 -91 1214 -16 
Q 841 59 441 206 
L 441 856 
Q 825 641 1194 531 
Q 1563 422 1919 422 
Q 2459 422 2753 634 
Q 3047 847 3047 1241 
Q 3047 1584 2836 1778 
Q 2625 1972 2144 2069 
L 1759 2144 
Q 1053 2284 737 2584 
Q 422 2884 422 3419 
Q 422 4038 858 4394 
Q 1294 4750 2059 4750 
Q 2388 4750 2728 4690 
Q 3069 4631 3425 4513 
z
" transform="scale(0.015625)"/>
      <path id="DejaVuSans-79" d="M 2059 -325 
Q 1816 -950 1584 -1140 
Q 1353 -1331 966 -1331 
L 506 -1331 
L 506 -850 
L 844 -850 
Q 1081 -850 1212 -737 
Q 1344 -625 1503 -206 
L 1606 56 
L 191 3500 
L 800 3500 
L 1894 763 
L 2988 3500 
L 3597 3500 
L 2059 -325 
z
" transform="scale(0.015625)"/>
      <path id="DejaVuSans-45" d="M 628 4666 
L 3578 4666 
L 3578 4134 
L 1259 4134 
L 1259 2753 
L 3481 2753 
L 3481 2222 
L 1259 2222 
L 1259 531 
L 3634 531 
L 3634 0 
L 628 0 
L 628 4666 
z
" transform="scale(0.015625)"/>
      <path id="DejaVuSans-68" d="M 3513 2113 
L 3513 0 
L 2938 0 
L 2938 2094 
Q 2938 2591 2744 2837 
Q 2550 3084 2163 3084 
Q 1697 3084 1428 2787 
Q 1159 2491 1159 1978 
L 1159 0 
L 581 0 
L 581 4863 
L 1159 4863 
L 1159 2956 
Q 1366 3272 1645 3428 
Q 1925 3584 2291 3584 
Q 2894 3584 3203 3211 
Q 3513 2838 3513 2113 
z
" transform="scale(0.015625)"/>
     </defs>
     <use xlink:href="#DejaVuSans-4d"/>
     <use xlink:href="#DejaVuSans-65" x="86.279297"/>
     <use xlink:href="#DejaVuSans-61" x="147.802734"/>
     <use xlink:href="#DejaVuSans-6e" x="209.082031"/>
     <use xlink:href="#DejaVuSans-20" x="272.460938"/>
     <use xlink:href="#DejaVuSans-43" x="304.248047"/>
     <use xlink:href="#DejaVuSans-6f" x="374.072266"/>
     <use xlink:href="#DejaVuSans-72" x="435.253906"/>
     <use xlink:href="#DejaVuSans-72" x="474.617188"/>
     <use xlink:href="#DejaVuSans-65" x="513.480469"/>
     <use xlink:href="#DejaVuSans-6c" x="575.003906"/>
     <use xlink:href="#DejaVuSans-61" x="602.787109"/>
     <use xlink:href="#DejaVuSans-74" x="664.066406"/>
     <use xlink:href="#DejaVuSans-69" x="703.275391"/>
     <use xlink:href="#DejaVuSans-6f" x="731.058594"/>
     <use xlink:href="#DejaVuSans-6e" x="792.240234"/>
     <use xlink:href="#DejaVuSans-20" x="855.619141"/>
     <use xlink:href="#DejaVuSans-53" x="887.40625"/>
     <use xlink:href="#DejaVuSans-63" x="950.882812"/>
     <use xlink:href="#DejaVuSans-6f" x="1005.863281"/>
     <use xlink:href="#DejaVuSans-72" x="1067.044922"/>
     <use xlink:href="#DejaVuSans-65" x="1105.908203"/>
     <use xlink:href="#DejaVuSans-73" x="1167.431641"/>
     <use xlink:href="#DejaVuSans-20" x="1219.53125"/>
     <use xlink:href="#DejaVuSans-62" x="1251.318359"/>
     <use xlink:href="#DejaVuSans-79" x="1314.794922"/>
     <use xlink:href="#DejaVuSans-20" x="1373.974609"/>
     <use xlink:href="#DejaVuSans-4e" x="1405.761719"/>
     <use xlink:href="#DejaVuSans-75" x="1480.566406"/>
     <use xlink:href="#DejaVuSans-6d" x="1543.945312"/>
     <use xlink:href="#DejaVuSans-62" x="1641.357422"/>
     <use xlink:href="#DejaVuSans-65" x="1704.833984"/>
     <use xlink:href="#DejaVuSans-72" x="1766.357422"/>
     <use xlink:href="#DejaVuSans-20" x="1807.470703"/>
     <use xlink:href="#DejaVuSans-6f" x="1839.257812"/>
     <use xlink:href="#DejaVuSans-66" x="1900.439453"/>
     <use xlink:href="#DejaVuSans-20" x="1935.644531"/>
     <use xlink:href="#DejaVuSans-42" x="1967.431641"/>
     <use xlink:href="#DejaVuSans-61" x="2036.035156"/>
     <use xlink:href="#DejaVuSans-69" x="2097.314453"/>
     <use xlink:href="#DejaVuSans-74" x="2125.097656"/>
     <use xlink:href="#DejaVuSans-73" x="2164.306641"/>
     <use xlink:href="#DejaVuSans-20" x="2216.40625"/>
     <use xlink:href="#DejaVuSans-66" x="2248.193359"/>
     <use xlink:href="#DejaVuSans-6f" x="2283.398438"/>
     <use xlink:href="#DejaVuSans-72" x="2344.580078"/>
     <use xlink:href="#DejaVuSans-20" x="2385.693359"/>
     <use xlink:href="#DejaVuSans-45" x="2417.480469"/>
     <use xlink:href="#DejaVuSans-61" x="2480.664062"/>
     <use xlink:href="#DejaVuSans-63" x="2541.943359"/>
     <use xlink:href="#DejaVuSans-68" x="2596.923828"/>
     <use xlink:href="#DejaVuSans-20" x="2660.302734"/>
     <use xlink:href="#DejaVuSans-4d" x="2692.089844"/>
     <use xlink:href="#DejaVuSans-65" x="2778.369141"/>
     <use xlink:href="#DejaVuSans-74" x="2839.892578"/>
     <use xlink:href="#DejaVuSans-68" x="2879.101562"/>
     <use xlink:href="#DejaVuSans-6f" x="2942.480469"/>
     <use xlink:href="#DejaVuSans-64" x="3003.662109"/>
    </g>
   </g>
   <g id="legend_1">
    <g id="patch_7">
     <path d="M 940.07 172.555275 
L 1067.18875 172.555275 
Q 1069.18875 172.555275 1069.18875 170.555275 
L 1069.18875 8.9834 
Q 1069.18875 6.9834 1067.18875 6.9834 
L 940.07 6.9834 
Q 938.07 6.9834 938.07 8.9834 
L 938.07 170.555275 
Q 938.07 172.555275 940.07 172.555275 
z
" style="fill: #ffffff; opacity: 0.8; stroke: #cccccc; stroke-linejoin: miter"/>
    </g>
    <g id="line2d_24">
     <path d="M 942.07 15.081838 
L 952.07 15.081838 
L 962.07 15.081838 
" style="fill: none; stroke: #1f77b4; stroke-width: 1.5; stroke-linecap: square"/>
    </g>
    <g id="text_16">
     <!-- GA -->
     <g transform="translate(970.07 18.581838) scale(0.1 -0.1)">
      <defs>
       <path id="DejaVuSans-47" d="M 3809 666 
L 3809 1919 
L 2778 1919 
L 2778 2438 
L 4434 2438 
L 4434 434 
Q 4069 175 3628 42 
Q 3188 -91 2688 -91 
Q 1594 -91 976 548 
Q 359 1188 359 2328 
Q 359 3472 976 4111 
Q 1594 4750 2688 4750 
Q 3144 4750 3555 4637 
Q 3966 4525 4313 4306 
L 4313 3634 
Q 3963 3931 3569 4081 
Q 3175 4231 2741 4231 
Q 1884 4231 1454 3753 
Q 1025 3275 1025 2328 
Q 1025 1384 1454 906 
Q 1884 428 2741 428 
Q 3075 428 3337 486 
Q 3600 544 3809 666 
z
" transform="scale(0.015625)"/>
      </defs>
      <use xlink:href="#DejaVuSans-47"/>
      <use xlink:href="#DejaVuSans-41" x="77.490234"/>
     </g>
    </g>
    <g id="line2d_25">
     <path d="M 942.07 29.759963 
L 952.07 29.759963 
L 962.07 29.759963 
" style="fill: none; stroke: #ff7f0e; stroke-width: 1.5; stroke-linecap: square"/>
    </g>
    <g id="text_17">
     <!-- Random -->
     <g transform="translate(970.07 33.259963) scale(0.1 -0.1)">
      <defs>
       <path id="DejaVuSans-52" d="M 2841 2188 
Q 3044 2119 3236 1894 
Q 3428 1669 3622 1275 
L 4263 0 
L 3584 0 
L 2988 1197 
Q 2756 1666 2539 1819 
Q 2322 1972 1947 1972 
L 1259 1972 
L 1259 0 
L 628 0 
L 628 4666 
L 2053 4666 
Q 2853 4666 3247 4331 
Q 3641 3997 3641 3322 
Q 3641 2881 3436 2590 
Q 3231 2300 2841 2188 
z
M 1259 4147 
L 1259 2491 
L 2053 2491 
Q 2509 2491 2742 2702 
Q 2975 2913 2975 3322 
Q 2975 3731 2742 3939 
Q 2509 4147 2053 4147 
L 1259 4147 
z
" transform="scale(0.015625)"/>
      </defs>
      <use xlink:href="#DejaVuSans-52"/>
      <use xlink:href="#DejaVuSans-61" x="67.232422"/>
      <use xlink:href="#DejaVuSans-6e" x="128.511719"/>
      <use xlink:href="#DejaVuSans-64" x="191.890625"/>
      <use xlink:href="#DejaVuSans-6f" x="255.367188"/>
      <use xlink:href="#DejaVuSans-6d" x="316.548828"/>
     </g>
    </g>
    <g id="line2d_26">
     <path d="M 942.07 44.438088 
L 952.07 44.438088 
L 962.07 44.438088 
" style="fill: none; stroke: #2ca02c; stroke-width: 1.5; stroke-linecap: square"/>
    </g>
    <g id="text_18">
     <!-- chi_2 -->
     <g transform="translate(970.07 47.938088) scale(0.1 -0.1)">
      <defs>
       <path id="DejaVuSans-5f" d="M 3263 -1063 
L 3263 -1509 
L -63 -1509 
L -63 -1063 
L 3263 -1063 
z
" transform="scale(0.015625)"/>
      </defs>
      <use xlink:href="#DejaVuSans-63"/>
      <use xlink:href="#DejaVuSans-68" x="54.980469"/>
      <use xlink:href="#DejaVuSans-69" x="118.359375"/>
      <use xlink:href="#DejaVuSans-5f" x="146.142578"/>
      <use xlink:href="#DejaVuSans-32" x="196.142578"/>
     </g>
    </g>
    <g id="line2d_27">
     <path d="M 942.07 59.394338 
L 952.07 59.394338 
L 962.07 59.394338 
" style="fill: none; stroke: #d62728; stroke-width: 1.5; stroke-linecap: square"/>
    </g>
    <g id="text_19">
     <!-- f_classif -->
     <g transform="translate(970.07 62.894338) scale(0.1 -0.1)">
      <use xlink:href="#DejaVuSans-66"/>
      <use xlink:href="#DejaVuSans-5f" x="35.205078"/>
      <use xlink:href="#DejaVuSans-63" x="85.205078"/>
      <use xlink:href="#DejaVuSans-6c" x="140.185547"/>
      <use xlink:href="#DejaVuSans-61" x="167.96875"/>
      <use xlink:href="#DejaVuSans-73" x="229.248047"/>
      <use xlink:href="#DejaVuSans-73" x="281.347656"/>
      <use xlink:href="#DejaVuSans-69" x="333.447266"/>
      <use xlink:href="#DejaVuSans-66" x="361.230469"/>
     </g>
    </g>
    <g id="line2d_28">
     <path d="M 942.07 74.350588 
L 952.07 74.350588 
L 962.07 74.350588 
" style="fill: none; stroke: #9467bd; stroke-width: 1.5; stroke-linecap: square"/>
    </g>
    <g id="text_20">
     <!-- mutual_info_classif -->
     <g transform="translate(970.07 77.850588) scale(0.1 -0.1)">
      <use xlink:href="#DejaVuSans-6d"/>
      <use xlink:href="#DejaVuSans-75" x="97.412109"/>
      <use xlink:href="#DejaVuSans-74" x="160.791016"/>
      <use xlink:href="#DejaVuSans-75" x="200"/>
      <use xlink:href="#DejaVuSans-61" x="263.378906"/>
      <use xlink:href="#DejaVuSans-6c" x="324.658203"/>
      <use xlink:href="#DejaVuSans-5f" x="352.441406"/>
      <use xlink:href="#DejaVuSans-69" x="402.441406"/>
      <use xlink:href="#DejaVuSans-6e" x="430.224609"/>
      <use xlink:href="#DejaVuSans-66" x="493.603516"/>
      <use xlink:href="#DejaVuSans-6f" x="528.808594"/>
      <use xlink:href="#DejaVuSans-5f" x="589.990234"/>
      <use xlink:href="#DejaVuSans-63" x="639.990234"/>
      <use xlink:href="#DejaVuSans-6c" x="694.970703"/>
      <use xlink:href="#DejaVuSans-61" x="722.753906"/>
      <use xlink:href="#DejaVuSans-73" x="784.033203"/>
      <use xlink:href="#DejaVuSans-73" x="836.132812"/>
      <use xlink:href="#DejaVuSans-69" x="888.232422"/>
      <use xlink:href="#DejaVuSans-66" x="916.015625"/>
     </g>
    </g>
    <g id="line2d_29">
     <path d="M 942.07 89.306838 
L 952.07 89.306838 
L 962.07 89.306838 
" style="fill: none; stroke: #8c564b; stroke-width: 1.5; stroke-linecap: square"/>
    </g>
    <g id="text_21">
     <!-- lasso -->
     <g transform="translate(970.07 92.806838) scale(0.1 -0.1)">
      <use xlink:href="#DejaVuSans-6c"/>
      <use xlink:href="#DejaVuSans-61" x="27.783203"/>
      <use xlink:href="#DejaVuSans-73" x="89.0625"/>
      <use xlink:href="#DejaVuSans-73" x="141.162109"/>
      <use xlink:href="#DejaVuSans-6f" x="193.261719"/>
     </g>
    </g>
    <g id="line2d_30">
     <path d="M 942.07 103.984963 
L 952.07 103.984963 
L 962.07 103.984963 
" style="fill: none; stroke: #e377c2; stroke-width: 1.5; stroke-linecap: square"/>
    </g>
    <g id="text_22">
     <!-- ridge -->
     <g transform="translate(970.07 107.484963) scale(0.1 -0.1)">
      <use xlink:href="#DejaVuSans-72"/>
      <use xlink:href="#DejaVuSans-69" x="41.113281"/>
      <use xlink:href="#DejaVuSans-64" x="68.896484"/>
      <use xlink:href="#DejaVuSans-67" x="132.373047"/>
      <use xlink:href="#DejaVuSans-65" x="195.849609"/>
     </g>
    </g>
    <g id="line2d_31">
     <path d="M 942.07 118.663088 
L 952.07 118.663088 
L 962.07 118.663088 
" style="fill: none; stroke: #7f7f7f; stroke-width: 1.5; stroke-linecap: square"/>
    </g>
    <g id="text_23">
     <!-- elastic_net -->
     <g transform="translate(970.07 122.163088) scale(0.1 -0.1)">
      <use xlink:href="#DejaVuSans-65"/>
      <use xlink:href="#DejaVuSans-6c" x="61.523438"/>
      <use xlink:href="#DejaVuSans-61" x="89.306641"/>
      <use xlink:href="#DejaVuSans-73" x="150.585938"/>
      <use xlink:href="#DejaVuSans-74" x="202.685547"/>
      <use xlink:href="#DejaVuSans-69" x="241.894531"/>
      <use xlink:href="#DejaVuSans-63" x="269.677734"/>
      <use xlink:href="#DejaVuSans-5f" x="324.658203"/>
      <use xlink:href="#DejaVuSans-6e" x="374.658203"/>
      <use xlink:href="#DejaVuSans-65" x="438.037109"/>
      <use xlink:href="#DejaVuSans-74" x="499.560547"/>
     </g>
    </g>
    <g id="line2d_32">
     <path d="M 942.07 133.619338 
L 952.07 133.619338 
L 962.07 133.619338 
" style="fill: none; stroke: #bcbd22; stroke-width: 1.5; stroke-linecap: square"/>
    </g>
    <g id="text_24">
     <!-- rf -->
     <g transform="translate(970.07 137.119338) scale(0.1 -0.1)">
      <use xlink:href="#DejaVuSans-72"/>
      <use xlink:href="#DejaVuSans-66" x="41.113281"/>
     </g>
    </g>
    <g id="line2d_33">
     <path d="M 942.07 148.297463 
L 952.07 148.297463 
L 962.07 148.297463 
" style="fill: none; stroke: #17becf; stroke-width: 1.5; stroke-linecap: square"/>
    </g>
    <g id="text_25">
     <!-- gbm -->
     <g transform="translate(970.07 151.797463) scale(0.1 -0.1)">
      <use xlink:href="#DejaVuSans-67"/>
      <use xlink:href="#DejaVuSans-62" x="63.476562"/>
      <use xlink:href="#DejaVuSans-6d" x="126.953125"/>
     </g>
    </g>
    <g id="line2d_34">
     <path d="M 942.07 162.975588 
L 952.07 162.975588 
L 962.07 162.975588 
" style="fill: none; stroke: #9edae5; stroke-width: 1.5; stroke-linecap: square"/>
    </g>
    <g id="text_26">
     <!-- xgb -->
     <g transform="translate(970.07 166.475588) scale(0.1 -0.1)">
      <defs>
       <path id="DejaVuSans-78" d="M 3513 3500 
L 2247 1797 
L 3578 0 
L 2900 0 
L 1881 1375 
L 863 0 
L 184 0 
L 1544 1831 
L 300 3500 
L 978 3500 
L 1906 2253 
L 2834 3500 
L 3513 3500 
z
" transform="scale(0.015625)"/>
      </defs>
      <use xlink:href="#DejaVuSans-78"/>
      <use xlink:href="#DejaVuSans-67" x="59.179688"/>
      <use xlink:href="#DejaVuSans-62" x="122.65625"/>
     </g>
    </g>
   </g>
  </g>
 </g>
 <defs>
  <clipPath id="p05b2aee3a4">
   <rect x="47.765" y="30.748" width="885.305" height="575.292"/>
  </clipPath>
 </defs>
</svg>
