<?xml version="1.0" encoding="utf-8" standalone="no"?>
<!DOCTYPE svg PUBLIC "-//W3C//DTD SVG 1.1//EN"
  "http://www.w3.org/Graphics/SVG/1.1/DTD/svg11.dtd">
<svg xmlns:xlink="http://www.w3.org/1999/xlink" width="1080pt" height="648pt" viewBox="0 0 1080 648" xmlns="http://www.w3.org/2000/svg" version="1.1">
 <metadata>
  <rdf:RDF xmlns:dc="http://purl.org/dc/elements/1.1/" xmlns:cc="http://creativecommons.org/ns#" xmlns:rdf="http://www.w3.org/1999/02/22-rdf-syntax-ns#">
   <cc:Work>
    <dc:type rdf:resource="http://purl.org/dc/dcmitype/StillImage"/>
    <dc:date>2024-12-18T23:04:05.560692</dc:date>
    <dc:format>image/svg+xml</dc:format>
    <dc:creator>
     <cc:Agent>
      <dc:title>Matplotlib v3.7.2, https://matplotlib.org/</dc:title>
     </cc:Agent>
    </dc:creator>
   </cc:Work>
  </rdf:RDF>
 </metadata>
 <defs>
  <style type="text/css">*{stroke-linejoin: round; stroke-linecap: butt}</style>
 </defs>
 <g id="figure_1">
  <g id="patch_1">
   <path d="M 0 648 
L 1080 648 
L 1080 0 
L 0 0 
z
" style="fill: #ffffff"/>
  </g>
  <g id="axes_1">
   <g id="patch_2">
    <path d="M 44.9 608.2 
L 943.135 608.2 
L 943.135 30.748 
L 44.9 30.748 
z
" style="fill: #ffffff"/>
   </g>
   <g id="PolyCollection_1">
    <defs>
     <path id="mb1a18c30d1" d="M 44.9 -338.963589 
L 44.9 -249.926851 
L 62.8647 -246.75003 
L 80.8294 -252.115022 
L 98.7941 -251.447142 
L 116.7588 -252.2801 
L 134.7235 -252.24497 
L 152.6882 -253.406292 
L 170.6529 -257.639183 
L 188.6176 -254.56053 
L 206.5823 -252.073122 
L 224.547 -255.054949 
L 242.5117 -253.141783 
L 260.4764 -256.029801 
L 278.4411 -254.69924 
L 296.4058 -258.561602 
L 314.3705 -259.974255 
L 332.3352 -262.485211 
L 350.2999 -260.100451 
L 368.2646 -263.245139 
L 386.2293 -262.234404 
L 404.194 -261.945501 
L 422.1587 -268.091694 
L 440.1234 -263.530672 
L 458.0881 -264.575209 
L 476.0528 -269.809721 
L 494.0175 -271.355333 
L 511.9822 -262.977812 
L 529.9469 -260.013555 
L 547.9116 -268.705364 
L 565.8763 -271.105613 
L 583.841 -268.170882 
L 601.8057 -265.772009 
L 619.7704 -266.166859 
L 637.7351 -268.994039 
L 655.6998 -271.066479 
L 673.6645 -265.652956 
L 691.6292 -265.793148 
L 709.5939 -267.538518 
L 727.5586 -264.369095 
L 745.5233 -266.945374 
L 763.488 -269.985943 
L 781.4527 -266.376077 
L 799.4174 -267.812729 
L 817.3821 -271.539129 
L 835.3468 -269.033599 
L 853.3115 -275.386581 
L 871.2762 -270.169632 
L 889.2409 -274.685038 
L 907.2056 -271.251909 
L 925.1703 -269.756343 
L 943.135 -275.499661 
L 943.135 -384.865396 
L 943.135 -384.865396 
L 925.1703 -379.875526 
L 907.2056 -378.880514 
L 889.2409 -380.820397 
L 871.2762 -375.699216 
L 853.3115 -374.551915 
L 835.3468 -377.079925 
L 817.3821 -373.181691 
L 799.4174 -373.135586 
L 781.4527 -372.162424 
L 763.488 -371.824368 
L 745.5233 -373.048371 
L 727.5586 -368.237981 
L 709.5939 -372.712412 
L 691.6292 -361.162879 
L 673.6645 -365.499252 
L 655.6998 -365.2247 
L 637.7351 -366.138289 
L 619.7704 -365.12497 
L 601.8057 -367.204978 
L 583.841 -363.225784 
L 565.8763 -361.257623 
L 547.9116 -360.273025 
L 529.9469 -357.197875 
L 511.9822 -359.110758 
L 494.0175 -357.773058 
L 476.0528 -357.695935 
L 458.0881 -352.516645 
L 440.1234 -351.550376 
L 422.1587 -351.19282 
L 404.194 -350.445384 
L 386.2293 -351.970815 
L 368.2646 -349.489117 
L 350.2999 -347.064067 
L 332.3352 -346.615679 
L 314.3705 -345.529759 
L 296.4058 -345.493422 
L 278.4411 -343.344817 
L 260.4764 -344.390617 
L 242.5117 -343.59174 
L 224.547 -343.860766 
L 206.5823 -343.084463 
L 188.6176 -339.700355 
L 170.6529 -339.793093 
L 152.6882 -345.122504 
L 134.7235 -337.665017 
L 116.7588 -338.602187 
L 98.7941 -335.176558 
L 80.8294 -335.599545 
L 62.8647 -332.641117 
L 44.9 -338.963589 
z
" style="stroke: #1f77b4; stroke-opacity: 0.2"/>
    </defs>
    <g clip-path="url(#p8f278db932)">
     <use xlink:href="#mb1a18c30d1" x="0" y="648" style="fill: #1f77b4; fill-opacity: 0.2; stroke: #1f77b4; stroke-opacity: 0.2"/>
    </g>
   </g>
   <g id="PolyCollection_2">
    <defs>
     <path id="m773d2e62d9" d="M 44.9 -223.902987 
L 44.9 -141.697695 
L 62.8647 -166.752215 
L 80.8294 -163.000006 
L 98.7941 -153.963542 
L 116.7588 -165.225527 
L 134.7235 -176.659337 
L 152.6882 -175.335108 
L 170.6529 -171.248253 
L 188.6176 -184.749339 
L 206.5823 -174.916507 
L 224.547 -174.024818 
L 242.5117 -172.504938 
L 260.4764 -178.92241 
L 278.4411 -175.480712 
L 296.4058 -180.684118 
L 314.3705 -187.537644 
L 332.3352 -190.105144 
L 350.2999 -178.357119 
L 368.2646 -191.372482 
L 386.2293 -188.571226 
L 404.194 -182.995473 
L 422.1587 -174.52616 
L 440.1234 -196.548404 
L 458.0881 -208.653512 
L 476.0528 -192.88052 
L 494.0175 -198.947051 
L 511.9822 -189.565412 
L 529.9469 -198.130236 
L 547.9116 -200.453307 
L 565.8763 -210.325431 
L 583.841 -197.191785 
L 601.8057 -231.252469 
L 619.7704 -191.873587 
L 637.7351 -195.465177 
L 655.6998 -217.035119 
L 673.6645 -222.121905 
L 691.6292 -212.55338 
L 709.5939 -218.100334 
L 727.5586 -222.37731 
L 745.5233 -218.792199 
L 763.488 -220.511705 
L 781.4527 -221.442825 
L 799.4174 -227.920694 
L 817.3821 -232.478839 
L 835.3468 -224.918763 
L 853.3115 -229.104304 
L 871.2762 -232.205288 
L 889.2409 -231.152973 
L 907.2056 -230.339841 
L 925.1703 -227.884229 
L 943.135 -243.155462 
L 943.135 -336.106617 
L 943.135 -336.106617 
L 925.1703 -327.992209 
L 907.2056 -320.814571 
L 889.2409 -320.395474 
L 871.2762 -321.897911 
L 853.3115 -317.26366 
L 835.3468 -319.700224 
L 817.3821 -312.517518 
L 799.4174 -313.949945 
L 781.4527 -313.131549 
L 763.488 -298.707771 
L 745.5233 -304.577401 
L 727.5586 -315.183263 
L 709.5939 -303.917067 
L 691.6292 -300.310247 
L 673.6645 -308.434864 
L 655.6998 -304.139779 
L 637.7351 -280.848679 
L 619.7704 -277.101877 
L 601.8057 -311.820296 
L 583.841 -282.464615 
L 565.8763 -298.087669 
L 547.9116 -273.122861 
L 529.9469 -290.861812 
L 511.9822 -269.830714 
L 494.0175 -281.908535 
L 476.0528 -265.659992 
L 458.0881 -300.082751 
L 440.1234 -280.864289 
L 422.1587 -258.820091 
L 404.194 -268.452061 
L 386.2293 -266.572312 
L 368.2646 -272.961009 
L 350.2999 -263.552529 
L 332.3352 -268.771078 
L 314.3705 -266.994794 
L 296.4058 -259.581466 
L 278.4411 -261.115505 
L 260.4764 -260.240068 
L 242.5117 -250.377866 
L 224.547 -248.052621 
L 206.5823 -253.856601 
L 188.6176 -255.67151 
L 170.6529 -243.638504 
L 152.6882 -244.402593 
L 134.7235 -257.30192 
L 116.7588 -238.982602 
L 98.7941 -234.333442 
L 80.8294 -239.883138 
L 62.8647 -241.813924 
L 44.9 -223.902987 
z
" style="stroke: #aec7e8; stroke-opacity: 0.2"/>
    </defs>
    <g clip-path="url(#p8f278db932)">
     <use xlink:href="#m773d2e62d9" x="0" y="648" style="fill: #aec7e8; fill-opacity: 0.2; stroke: #aec7e8; stroke-opacity: 0.2"/>
    </g>
   </g>
   <g id="PolyCollection_3">
    <defs>
     <path id="ma762ef8a5c" d="M 44.9 -336.292199 
L 44.9 -247.617261 
L 62.8647 -248.145352 
L 80.8294 -249.752913 
L 98.7941 -249.807278 
L 116.7588 -253.612912 
L 134.7235 -246.364577 
L 152.6882 -254.371127 
L 170.6529 -251.938693 
L 188.6176 -252.075022 
L 206.5823 -252.337477 
L 224.547 -257.622791 
L 242.5117 -255.512244 
L 260.4764 -254.907885 
L 278.4411 -260.784776 
L 296.4058 -258.133881 
L 314.3705 -254.508612 
L 332.3352 -259.484669 
L 350.2999 -260.723355 
L 368.2646 -255.250103 
L 386.2293 -257.864136 
L 404.194 -255.111436 
L 422.1587 -254.810058 
L 440.1234 -256.881907 
L 458.0881 -257.707616 
L 476.0528 -265.125271 
L 494.0175 -263.177266 
L 511.9822 -264.537701 
L 529.9469 -262.410846 
L 547.9116 -264.580775 
L 565.8763 -263.423722 
L 583.841 -263.362386 
L 601.8057 -265.925687 
L 619.7704 -258.284384 
L 637.7351 -262.303756 
L 655.6998 -265.939712 
L 673.6645 -260.993195 
L 691.6292 -266.71344 
L 709.5939 -266.837122 
L 727.5586 -269.896865 
L 745.5233 -264.48645 
L 763.488 -271.387773 
L 781.4527 -268.378998 
L 799.4174 -270.0975 
L 817.3821 -269.234 
L 835.3468 -275.608815 
L 853.3115 -275.124927 
L 871.2762 -277.076622 
L 889.2409 -276.928824 
L 907.2056 -275.560828 
L 925.1703 -270.006447 
L 943.135 -273.7801 
L 943.135 -380.365552 
L 943.135 -380.365552 
L 925.1703 -379.825373 
L 907.2056 -380.222357 
L 889.2409 -374.870613 
L 871.2762 -378.763384 
L 853.3115 -373.081644 
L 835.3468 -377.282956 
L 817.3821 -370.901481 
L 799.4174 -376.291631 
L 781.4527 -372.32326 
L 763.488 -368.445822 
L 745.5233 -367.696604 
L 727.5586 -357.22161 
L 709.5939 -365.628138 
L 691.6292 -365.199695 
L 673.6645 -359.637708 
L 655.6998 -367.403031 
L 637.7351 -359.446673 
L 619.7704 -361.631178 
L 601.8057 -358.200922 
L 583.841 -359.165906 
L 565.8763 -364.588595 
L 547.9116 -355.426169 
L 529.9469 -360.322832 
L 511.9822 -357.172059 
L 494.0175 -357.544946 
L 476.0528 -354.862927 
L 458.0881 -356.861847 
L 440.1234 -352.727508 
L 422.1587 -354.379247 
L 404.194 -349.135405 
L 386.2293 -351.514738 
L 368.2646 -352.07999 
L 350.2999 -348.886468 
L 332.3352 -348.676639 
L 314.3705 -349.544435 
L 296.4058 -344.909954 
L 278.4411 -346.172455 
L 260.4764 -344.210255 
L 242.5117 -339.999951 
L 224.547 -345.745502 
L 206.5823 -345.070548 
L 188.6176 -343.44548 
L 170.6529 -345.324885 
L 152.6882 -346.704797 
L 134.7235 -340.29047 
L 116.7588 -338.972255 
L 98.7941 -340.920295 
L 80.8294 -337.787916 
L 62.8647 -336.184023 
L 44.9 -336.292199 
z
" style="stroke: #ffbb78; stroke-opacity: 0.2"/>
    </defs>
    <g clip-path="url(#p8f278db932)">
     <use xlink:href="#ma762ef8a5c" x="0" y="648" style="fill: #ffbb78; fill-opacity: 0.2; stroke: #ffbb78; stroke-opacity: 0.2"/>
    </g>
   </g>
   <g id="PolyCollection_4">
    <defs>
     <path id="m2c81fec7e0" d="M 44.9 -333.456918 
L 44.9 -243.698319 
L 62.8647 -248.575551 
L 80.8294 -249.190689 
L 98.7941 -245.603477 
L 116.7588 -249.097478 
L 134.7235 -252.237268 
L 152.6882 -258.4429 
L 170.6529 -260.30447 
L 188.6176 -258.889119 
L 206.5823 -258.359463 
L 224.547 -254.138132 
L 242.5117 -256.832322 
L 260.4764 -261.661163 
L 278.4411 -262.951923 
L 296.4058 -260.68036 
L 314.3705 -261.59004 
L 332.3352 -264.109396 
L 350.2999 -260.894265 
L 368.2646 -262.252459 
L 386.2293 -258.965053 
L 404.194 -264.327942 
L 422.1587 -264.100824 
L 440.1234 -262.434121 
L 458.0881 -263.565934 
L 476.0528 -265.680336 
L 494.0175 -266.017854 
L 511.9822 -264.607771 
L 529.9469 -263.485416 
L 547.9116 -260.982399 
L 565.8763 -266.1306 
L 583.841 -268.705896 
L 601.8057 -264.362572 
L 619.7704 -266.959152 
L 637.7351 -269.973219 
L 655.6998 -270.346738 
L 673.6645 -267.890255 
L 691.6292 -267.10469 
L 709.5939 -265.625378 
L 727.5586 -270.429071 
L 745.5233 -266.312517 
L 763.488 -268.901623 
L 781.4527 -270.188315 
L 799.4174 -266.48225 
L 817.3821 -272.716945 
L 835.3468 -271.897608 
L 853.3115 -269.745015 
L 871.2762 -270.678729 
L 889.2409 -271.379261 
L 907.2056 -272.744787 
L 925.1703 -279.356781 
L 943.135 -279.521375 
L 943.135 -385.337718 
L 943.135 -385.337718 
L 925.1703 -381.033091 
L 907.2056 -378.715198 
L 889.2409 -376.419823 
L 871.2762 -376.497471 
L 853.3115 -371.00532 
L 835.3468 -372.476495 
L 817.3821 -372.25874 
L 799.4174 -366.572908 
L 781.4527 -365.880681 
L 763.488 -366.014683 
L 745.5233 -366.296067 
L 727.5586 -362.131508 
L 709.5939 -361.586975 
L 691.6292 -365.97021 
L 673.6645 -369.149919 
L 655.6998 -362.546331 
L 637.7351 -365.12081 
L 619.7704 -363.888598 
L 601.8057 -360.093222 
L 583.841 -354.446269 
L 565.8763 -360.779088 
L 547.9116 -355.178008 
L 529.9469 -355.042813 
L 511.9822 -356.240219 
L 494.0175 -355.110368 
L 476.0528 -355.680568 
L 458.0881 -354.877767 
L 440.1234 -350.661734 
L 422.1587 -350.734395 
L 404.194 -350.358139 
L 386.2293 -354.388317 
L 368.2646 -351.645641 
L 350.2999 -347.896815 
L 332.3352 -348.471505 
L 314.3705 -350.800116 
L 296.4058 -346.266564 
L 278.4411 -349.108588 
L 260.4764 -344.786118 
L 242.5117 -344.890133 
L 224.547 -347.870306 
L 206.5823 -346.791639 
L 188.6176 -338.988739 
L 170.6529 -343.190749 
L 152.6882 -336.228777 
L 134.7235 -339.185739 
L 116.7588 -335.096471 
L 98.7941 -338.669097 
L 80.8294 -335.178672 
L 62.8647 -330.630649 
L 44.9 -333.456918 
z
" style="stroke: #98df8a; stroke-opacity: 0.2"/>
    </defs>
    <g clip-path="url(#p8f278db932)">
     <use xlink:href="#m2c81fec7e0" x="0" y="648" style="fill: #98df8a; fill-opacity: 0.2; stroke: #98df8a; stroke-opacity: 0.2"/>
    </g>
   </g>
   <g id="PolyCollection_5">
    <defs>
     <path id="me9249ae982" d="M 44.9 -331.855188 
L 44.9 -243.177181 
L 62.8647 -245.311411 
L 80.8294 -247.408645 
L 98.7941 -244.304533 
L 116.7588 -246.062542 
L 134.7235 -252.848796 
L 152.6882 -249.048314 
L 170.6529 -251.978577 
L 188.6176 -252.630865 
L 206.5823 -249.821972 
L 224.547 -251.344318 
L 242.5117 -254.70738 
L 260.4764 -253.75958 
L 278.4411 -251.536165 
L 296.4058 -255.21062 
L 314.3705 -258.901856 
L 332.3352 -256.141762 
L 350.2999 -255.617823 
L 368.2646 -255.364407 
L 386.2293 -258.607192 
L 404.194 -261.085527 
L 422.1587 -262.362968 
L 440.1234 -260.386387 
L 458.0881 -264.494483 
L 476.0528 -266.412536 
L 494.0175 -265.672639 
L 511.9822 -264.601026 
L 529.9469 -264.162635 
L 547.9116 -263.632445 
L 565.8763 -262.526166 
L 583.841 -265.210962 
L 601.8057 -264.06631 
L 619.7704 -266.741917 
L 637.7351 -265.797156 
L 655.6998 -267.17834 
L 673.6645 -268.234351 
L 691.6292 -270.864531 
L 709.5939 -269.207031 
L 727.5586 -271.372923 
L 745.5233 -267.700213 
L 763.488 -270.571847 
L 781.4527 -271.034982 
L 799.4174 -272.972339 
L 817.3821 -272.860264 
L 835.3468 -274.385408 
L 853.3115 -275.735788 
L 871.2762 -272.899935 
L 889.2409 -278.42573 
L 907.2056 -285.723728 
L 925.1703 -277.072612 
L 943.135 -277.99823 
L 943.135 -381.597061 
L 943.135 -381.597061 
L 925.1703 -379.316531 
L 907.2056 -375.768742 
L 889.2409 -377.877239 
L 871.2762 -372.343834 
L 853.3115 -371.596603 
L 835.3468 -370.868584 
L 817.3821 -366.921719 
L 799.4174 -367.831933 
L 781.4527 -364.47345 
L 763.488 -367.030808 
L 745.5233 -359.787843 
L 727.5586 -362.339802 
L 709.5939 -365.696008 
L 691.6292 -360.658451 
L 673.6645 -358.081098 
L 655.6998 -359.448588 
L 637.7351 -357.744797 
L 619.7704 -358.333934 
L 601.8057 -359.77216 
L 583.841 -359.552762 
L 565.8763 -354.444055 
L 547.9116 -350.514837 
L 529.9469 -355.005287 
L 511.9822 -356.367203 
L 494.0175 -350.59759 
L 476.0528 -350.080382 
L 458.0881 -350.372519 
L 440.1234 -347.778829 
L 422.1587 -347.693208 
L 404.194 -347.275845 
L 386.2293 -346.435319 
L 368.2646 -343.259846 
L 350.2999 -344.069523 
L 332.3352 -345.407053 
L 314.3705 -343.970583 
L 296.4058 -341.968699 
L 278.4411 -340.780371 
L 260.4764 -339.595753 
L 242.5117 -340.404148 
L 224.547 -338.758649 
L 206.5823 -340.125486 
L 188.6176 -337.044973 
L 170.6529 -341.836433 
L 152.6882 -335.139732 
L 134.7235 -337.514495 
L 116.7588 -336.83066 
L 98.7941 -332.396776 
L 80.8294 -332.486205 
L 62.8647 -335.968545 
L 44.9 -331.855188 
z
" style="stroke: #ff9896; stroke-opacity: 0.2"/>
    </defs>
    <g clip-path="url(#p8f278db932)">
     <use xlink:href="#me9249ae982" x="0" y="648" style="fill: #ff9896; fill-opacity: 0.2; stroke: #ff9896; stroke-opacity: 0.2"/>
    </g>
   </g>
   <g id="PolyCollection_6">
    <defs>
     <path id="mecae127437" d="M 44.9 -327.677439 
L 44.9 -236.955054 
L 62.8647 -241.844407 
L 80.8294 -241.885722 
L 98.7941 -242.769908 
L 116.7588 -243.177067 
L 134.7235 -241.216639 
L 152.6882 -249.746042 
L 170.6529 -245.45297 
L 188.6176 -243.120816 
L 206.5823 -244.414085 
L 224.547 -239.645273 
L 242.5117 -245.759333 
L 260.4764 -242.728987 
L 278.4411 -245.439001 
L 296.4058 -249.346062 
L 314.3705 -245.769289 
L 332.3352 -245.276719 
L 350.2999 -249.010944 
L 368.2646 -246.974527 
L 386.2293 -248.989346 
L 404.194 -250.573818 
L 422.1587 -248.775109 
L 440.1234 -248.813626 
L 458.0881 -257.799587 
L 476.0528 -254.192056 
L 494.0175 -258.616001 
L 511.9822 -256.427106 
L 529.9469 -254.000516 
L 547.9116 -256.970159 
L 565.8763 -260.107745 
L 583.841 -258.540405 
L 601.8057 -262.292618 
L 619.7704 -265.569837 
L 637.7351 -259.629085 
L 655.6998 -265.943945 
L 673.6645 -265.339029 
L 691.6292 -260.101359 
L 709.5939 -259.947564 
L 727.5586 -261.763988 
L 745.5233 -265.104236 
L 763.488 -267.184675 
L 781.4527 -265.596333 
L 799.4174 -267.140738 
L 817.3821 -270.033292 
L 835.3468 -271.709125 
L 853.3115 -266.700808 
L 871.2762 -271.218301 
L 889.2409 -272.472199 
L 907.2056 -280.954505 
L 925.1703 -276.351254 
L 943.135 -273.836067 
L 943.135 -387.63766 
L 943.135 -387.63766 
L 925.1703 -389.050727 
L 907.2056 -381.804421 
L 889.2409 -378.521189 
L 871.2762 -379.779633 
L 853.3115 -383.594815 
L 835.3468 -372.902359 
L 817.3821 -377.269489 
L 799.4174 -370.431778 
L 781.4527 -367.126908 
L 763.488 -368.051101 
L 745.5233 -364.956846 
L 727.5586 -365.501903 
L 709.5939 -365.838362 
L 691.6292 -357.683662 
L 673.6645 -362.76924 
L 655.6998 -363.149759 
L 637.7351 -360.909747 
L 619.7704 -357.704645 
L 601.8057 -362.986504 
L 583.841 -355.027165 
L 565.8763 -357.136301 
L 547.9116 -354.470451 
L 529.9469 -356.90928 
L 511.9822 -356.30145 
L 494.0175 -351.611267 
L 476.0528 -351.578844 
L 458.0881 -350.729533 
L 440.1234 -350.285452 
L 422.1587 -342.631445 
L 404.194 -346.31524 
L 386.2293 -345.925736 
L 368.2646 -347.732058 
L 350.2999 -344.786044 
L 332.3352 -342.54217 
L 314.3705 -343.502639 
L 296.4058 -344.756276 
L 278.4411 -339.04638 
L 260.4764 -341.918006 
L 242.5117 -340.521299 
L 224.547 -340.006063 
L 206.5823 -339.176531 
L 188.6176 -338.020547 
L 170.6529 -338.465318 
L 152.6882 -339.665286 
L 134.7235 -334.656499 
L 116.7588 -331.766572 
L 98.7941 -330.051964 
L 80.8294 -330.898748 
L 62.8647 -328.942796 
L 44.9 -327.677439 
z
" style="stroke: #c5b0d5; stroke-opacity: 0.2"/>
    </defs>
    <g clip-path="url(#p8f278db932)">
     <use xlink:href="#mecae127437" x="0" y="648" style="fill: #c5b0d5; fill-opacity: 0.2; stroke: #c5b0d5; stroke-opacity: 0.2"/>
    </g>
   </g>
   <g id="PolyCollection_7">
    <defs>
     <path id="md5a695f1e4" d="M 44.9 -327.994553 
L 44.9 -246.132468 
L 62.8647 -243.910398 
L 80.8294 -241.843773 
L 98.7941 -235.761049 
L 116.7588 -243.11802 
L 134.7235 -235.986618 
L 152.6882 -240.030335 
L 170.6529 -242.582054 
L 188.6176 -240.629438 
L 206.5823 -242.244887 
L 224.547 -244.968302 
L 242.5117 -243.496379 
L 260.4764 -241.655508 
L 278.4411 -244.401907 
L 296.4058 -241.745376 
L 314.3705 -247.344185 
L 332.3352 -245.268389 
L 350.2999 -248.208651 
L 368.2646 -243.517479 
L 386.2293 -254.581522 
L 404.194 -248.975792 
L 422.1587 -249.43124 
L 440.1234 -251.693537 
L 458.0881 -247.841788 
L 476.0528 -253.32693 
L 494.0175 -256.648426 
L 511.9822 -254.020536 
L 529.9469 -255.101698 
L 547.9116 -254.636957 
L 565.8763 -261.015776 
L 583.841 -257.962344 
L 601.8057 -257.299979 
L 619.7704 -259.449574 
L 637.7351 -261.076057 
L 655.6998 -261.336299 
L 673.6645 -266.826174 
L 691.6292 -261.796064 
L 709.5939 -264.767533 
L 727.5586 -264.5257 
L 745.5233 -268.802704 
L 763.488 -270.830913 
L 781.4527 -269.070372 
L 799.4174 -268.07764 
L 817.3821 -270.305234 
L 835.3468 -269.028033 
L 853.3115 -271.887463 
L 871.2762 -271.347535 
L 889.2409 -272.608094 
L 907.2056 -277.249681 
L 925.1703 -286.030236 
L 943.135 -280.289232 
L 943.135 -389.725802 
L 943.135 -389.725802 
L 925.1703 -387.021267 
L 907.2056 -385.932951 
L 889.2409 -381.597798 
L 871.2762 -380.355667 
L 853.3115 -376.496353 
L 835.3468 -373.472167 
L 817.3821 -378.532094 
L 799.4174 -377.435208 
L 781.4527 -374.476547 
L 763.488 -374.474296 
L 745.5233 -375.202597 
L 727.5586 -368.302974 
L 709.5939 -365.491015 
L 691.6292 -364.353246 
L 673.6645 -360.390815 
L 655.6998 -360.426774 
L 637.7351 -362.534515 
L 619.7704 -361.381292 
L 601.8057 -356.834277 
L 583.841 -359.695909 
L 565.8763 -351.513418 
L 547.9116 -355.231695 
L 529.9469 -352.986864 
L 511.9822 -353.60904 
L 494.0175 -351.561191 
L 476.0528 -349.094936 
L 458.0881 -346.794969 
L 440.1234 -346.01922 
L 422.1587 -350.443525 
L 404.194 -344.214351 
L 386.2293 -345.314155 
L 368.2646 -344.094523 
L 350.2999 -342.76724 
L 332.3352 -342.355705 
L 314.3705 -343.828148 
L 296.4058 -340.682634 
L 278.4411 -338.108527 
L 260.4764 -338.183448 
L 242.5117 -340.243166 
L 224.547 -335.33337 
L 206.5823 -337.198753 
L 188.6176 -333.136672 
L 170.6529 -332.896382 
L 152.6882 -331.00122 
L 134.7235 -330.462858 
L 116.7588 -332.953831 
L 98.7941 -328.567731 
L 80.8294 -329.42214 
L 62.8647 -324.227957 
L 44.9 -327.994553 
z
" style="stroke: #8c564b; stroke-opacity: 0.2"/>
    </defs>
    <g clip-path="url(#p8f278db932)">
     <use xlink:href="#md5a695f1e4" x="0" y="648" style="fill: #8c564b; fill-opacity: 0.2; stroke: #8c564b; stroke-opacity: 0.2"/>
    </g>
   </g>
   <g id="PolyCollection_8">
    <defs>
     <path id="ma1b5fe7c89" d="M 44.9 -328.159858 
L 44.9 -244.460153 
L 62.8647 -239.718681 
L 80.8294 -240.954277 
L 98.7941 -237.394525 
L 116.7588 -241.352692 
L 134.7235 -241.972368 
L 152.6882 -241.442192 
L 170.6529 -242.781607 
L 188.6176 -244.3496 
L 206.5823 -241.025998 
L 224.547 -241.625008 
L 242.5117 -243.035776 
L 260.4764 -251.174681 
L 278.4411 -244.722204 
L 296.4058 -243.928513 
L 314.3705 -244.324001 
L 332.3352 -243.161692 
L 350.2999 -245.302391 
L 368.2646 -250.418349 
L 386.2293 -253.112052 
L 404.194 -246.50999 
L 422.1587 -250.721529 
L 440.1234 -250.836074 
L 458.0881 -252.882129 
L 476.0528 -254.785023 
L 494.0175 -251.1751 
L 511.9822 -256.605763 
L 529.9469 -257.219 
L 547.9116 -255.409285 
L 565.8763 -257.734629 
L 583.841 -262.112601 
L 601.8057 -257.476734 
L 619.7704 -258.503806 
L 637.7351 -263.990712 
L 655.6998 -260.447307 
L 673.6645 -264.415678 
L 691.6292 -262.20541 
L 709.5939 -263.939654 
L 727.5586 -262.4574 
L 745.5233 -261.868563 
L 763.488 -258.275056 
L 781.4527 -267.471405 
L 799.4174 -265.939005 
L 817.3821 -271.678556 
L 835.3468 -270.089839 
L 853.3115 -273.673468 
L 871.2762 -273.948143 
L 889.2409 -277.851224 
L 907.2056 -280.750258 
L 925.1703 -273.089284 
L 943.135 -277.674714 
L 943.135 -384.747213 
L 943.135 -384.747213 
L 925.1703 -380.667263 
L 907.2056 -382.540608 
L 889.2409 -380.084294 
L 871.2762 -377.017962 
L 853.3115 -382.31078 
L 835.3468 -381.4579 
L 817.3821 -372.243866 
L 799.4174 -372.323752 
L 781.4527 -375.621392 
L 763.488 -372.532825 
L 745.5233 -372.234663 
L 727.5586 -368.829119 
L 709.5939 -364.565522 
L 691.6292 -363.61228 
L 673.6645 -364.261814 
L 655.6998 -362.685991 
L 637.7351 -363.313653 
L 619.7704 -361.801892 
L 601.8057 -360.263678 
L 583.841 -358.914106 
L 565.8763 -357.314268 
L 547.9116 -355.367809 
L 529.9469 -351.545766 
L 511.9822 -353.896643 
L 494.0175 -348.620499 
L 476.0528 -348.776815 
L 458.0881 -349.859526 
L 440.1234 -347.684936 
L 422.1587 -352.832052 
L 404.194 -346.08406 
L 386.2293 -349.462757 
L 368.2646 -346.277052 
L 350.2999 -344.29299 
L 332.3352 -342.454871 
L 314.3705 -341.507023 
L 296.4058 -340.808377 
L 278.4411 -336.673199 
L 260.4764 -338.522685 
L 242.5117 -338.508765 
L 224.547 -338.102154 
L 206.5823 -338.714427 
L 188.6176 -332.224057 
L 170.6529 -334.876119 
L 152.6882 -336.905073 
L 134.7235 -331.497554 
L 116.7588 -333.59467 
L 98.7941 -329.965167 
L 80.8294 -326.3526 
L 62.8647 -327.756164 
L 44.9 -328.159858 
z
" style="stroke: #e377c2; stroke-opacity: 0.2"/>
    </defs>
    <g clip-path="url(#p8f278db932)">
     <use xlink:href="#ma1b5fe7c89" x="0" y="648" style="fill: #e377c2; fill-opacity: 0.2; stroke: #e377c2; stroke-opacity: 0.2"/>
    </g>
   </g>
   <g id="PolyCollection_9">
    <defs>
     <path id="m9db67f19c0" d="M 44.9 -338.313481 
L 44.9 -247.009415 
L 62.8647 -240.703238 
L 80.8294 -251.60196 
L 98.7941 -252.373473 
L 116.7588 -249.327487 
L 134.7235 -250.051691 
L 152.6882 -250.956813 
L 170.6529 -250.514444 
L 188.6176 -250.806801 
L 206.5823 -254.064091 
L 224.547 -252.80366 
L 242.5117 -249.278957 
L 260.4764 -255.074196 
L 278.4411 -250.914911 
L 296.4058 -254.582676 
L 314.3705 -258.018468 
L 332.3352 -253.116868 
L 350.2999 -254.407748 
L 368.2646 -254.312119 
L 386.2293 -252.102452 
L 404.194 -253.188129 
L 422.1587 -253.177741 
L 440.1234 -253.795895 
L 458.0881 -251.221454 
L 476.0528 -251.289881 
L 494.0175 -255.803679 
L 511.9822 -254.998382 
L 529.9469 -260.81091 
L 547.9116 -258.407925 
L 565.8763 -259.099019 
L 583.841 -262.507646 
L 601.8057 -260.505804 
L 619.7704 -260.76685 
L 637.7351 -263.8216 
L 655.6998 -262.044495 
L 673.6645 -265.378048 
L 691.6292 -267.307982 
L 709.5939 -260.497366 
L 727.5586 -263.917044 
L 745.5233 -268.559198 
L 763.488 -268.962804 
L 781.4527 -263.310724 
L 799.4174 -265.571077 
L 817.3821 -271.64784 
L 835.3468 -266.284918 
L 853.3115 -273.065134 
L 871.2762 -272.087528 
L 889.2409 -273.497107 
L 907.2056 -278.068394 
L 925.1703 -274.47397 
L 943.135 -281.275561 
L 943.135 -388.93909 
L 943.135 -388.93909 
L 925.1703 -385.32744 
L 907.2056 -389.594801 
L 889.2409 -383.643329 
L 871.2762 -376.071952 
L 853.3115 -379.372155 
L 835.3468 -377.452956 
L 817.3821 -380.97873 
L 799.4174 -377.035594 
L 781.4527 -375.009576 
L 763.488 -373.833757 
L 745.5233 -365.843722 
L 727.5586 -370.002371 
L 709.5939 -363.469542 
L 691.6292 -363.373374 
L 673.6645 -360.515942 
L 655.6998 -363.858048 
L 637.7351 -364.876865 
L 619.7704 -361.104613 
L 601.8057 -359.029186 
L 583.841 -353.720171 
L 565.8763 -356.242024 
L 547.9116 -351.718413 
L 529.9469 -352.672353 
L 511.9822 -350.740792 
L 494.0175 -349.805324 
L 476.0528 -347.564092 
L 458.0881 -347.99794 
L 440.1234 -349.222936 
L 422.1587 -348.547519 
L 404.194 -348.401592 
L 386.2293 -345.046872 
L 368.2646 -344.988674 
L 350.2999 -346.558394 
L 332.3352 -341.825773 
L 314.3705 -342.495402 
L 296.4058 -342.492985 
L 278.4411 -342.061652 
L 260.4764 -343.949255 
L 242.5117 -340.691411 
L 224.547 -344.036888 
L 206.5823 -341.668196 
L 188.6176 -342.839204 
L 170.6529 -342.975451 
L 152.6882 -345.128296 
L 134.7235 -338.766648 
L 116.7588 -337.392637 
L 98.7941 -334.342473 
L 80.8294 -338.748622 
L 62.8647 -336.964657 
L 44.9 -338.313481 
z
" style="stroke: #7f7f7f; stroke-opacity: 0.2"/>
    </defs>
    <g clip-path="url(#p8f278db932)">
     <use xlink:href="#m9db67f19c0" x="0" y="648" style="fill: #7f7f7f; fill-opacity: 0.2; stroke: #7f7f7f; stroke-opacity: 0.2"/>
    </g>
   </g>
   <g id="PolyCollection_10">
    <defs>
     <path id="me59cc86c1b" d="M 44.9 -329.021435 
L 44.9 -245.705428 
L 62.8647 -242.174459 
L 80.8294 -246.918482 
L 98.7941 -245.906173 
L 116.7588 -244.940033 
L 134.7235 -249.133677 
L 152.6882 -246.255242 
L 170.6529 -248.276335 
L 188.6176 -249.130503 
L 206.5823 -246.475316 
L 224.547 -254.28899 
L 242.5117 -246.831332 
L 260.4764 -249.572855 
L 278.4411 -254.845058 
L 296.4058 -255.664657 
L 314.3705 -247.801946 
L 332.3352 -248.945657 
L 350.2999 -251.397797 
L 368.2646 -249.525276 
L 386.2293 -252.524871 
L 404.194 -255.85845 
L 422.1587 -250.364224 
L 440.1234 -251.132317 
L 458.0881 -255.939943 
L 476.0528 -255.507779 
L 494.0175 -257.95795 
L 511.9822 -257.293692 
L 529.9469 -259.416797 
L 547.9116 -258.243498 
L 565.8763 -255.359217 
L 583.841 -255.785878 
L 601.8057 -262.768263 
L 619.7704 -257.950366 
L 637.7351 -261.919687 
L 655.6998 -262.971637 
L 673.6645 -265.160707 
L 691.6292 -264.325067 
L 709.5939 -265.830657 
L 727.5586 -265.453752 
L 745.5233 -266.232631 
L 763.488 -265.285416 
L 781.4527 -268.546209 
L 799.4174 -268.619908 
L 817.3821 -274.07304 
L 835.3468 -267.749804 
L 853.3115 -268.445125 
L 871.2762 -272.061565 
L 889.2409 -277.202532 
L 907.2056 -275.518166 
L 925.1703 -268.604922 
L 943.135 -272.308488 
L 943.135 -383.939258 
L 943.135 -383.939258 
L 925.1703 -380.627389 
L 907.2056 -380.191001 
L 889.2409 -377.454359 
L 871.2762 -381.513856 
L 853.3115 -380.918211 
L 835.3468 -377.245872 
L 817.3821 -372.717766 
L 799.4174 -371.200123 
L 781.4527 -373.279154 
L 763.488 -369.060434 
L 745.5233 -364.680329 
L 727.5586 -368.41075 
L 709.5939 -362.218089 
L 691.6292 -364.889883 
L 673.6645 -359.859987 
L 655.6998 -362.985911 
L 637.7351 -362.517392 
L 619.7704 -358.603269 
L 601.8057 -362.480097 
L 583.841 -356.319926 
L 565.8763 -358.24052 
L 547.9116 -356.028516 
L 529.9469 -359.569715 
L 511.9822 -352.562996 
L 494.0175 -352.85754 
L 476.0528 -353.381694 
L 458.0881 -348.449807 
L 440.1234 -352.345742 
L 422.1587 -347.519903 
L 404.194 -348.682493 
L 386.2293 -345.487881 
L 368.2646 -347.787867 
L 350.2999 -345.712765 
L 332.3352 -344.213151 
L 314.3705 -342.159357 
L 296.4058 -345.488202 
L 278.4411 -344.134308 
L 260.4764 -340.921299 
L 242.5117 -341.369972 
L 224.547 -337.071085 
L 206.5823 -342.918188 
L 188.6176 -335.112803 
L 170.6529 -337.129817 
L 152.6882 -334.612713 
L 134.7235 -337.44332 
L 116.7588 -334.551952 
L 98.7941 -334.330898 
L 80.8294 -331.624333 
L 62.8647 -330.508153 
L 44.9 -329.021435 
z
" style="stroke: #bcbd22; stroke-opacity: 0.2"/>
    </defs>
    <g clip-path="url(#p8f278db932)">
     <use xlink:href="#me59cc86c1b" x="0" y="648" style="fill: #bcbd22; fill-opacity: 0.2; stroke: #bcbd22; stroke-opacity: 0.2"/>
    </g>
   </g>
   <g id="PolyCollection_11">
    <defs>
     <path id="mdb65485425" d="M 44.9 -329.322242 
L 44.9 -244.47001 
L 62.8647 -240.190616 
L 80.8294 -241.773664 
L 98.7941 -245.391601 
L 116.7588 -245.323097 
L 134.7235 -246.682445 
L 152.6882 -245.240351 
L 170.6529 -241.98294 
L 188.6176 -244.882957 
L 206.5823 -246.15277 
L 224.547 -244.874208 
L 242.5117 -247.627039 
L 260.4764 -243.937032 
L 278.4411 -246.046077 
L 296.4058 -249.773699 
L 314.3705 -246.710728 
L 332.3352 -249.638165 
L 350.2999 -245.631309 
L 368.2646 -245.866099 
L 386.2293 -245.620585 
L 404.194 -245.36548 
L 422.1587 -247.530611 
L 440.1234 -250.199805 
L 458.0881 -250.609782 
L 476.0528 -254.770014 
L 494.0175 -250.40928 
L 511.9822 -248.221893 
L 529.9469 -254.649763 
L 547.9116 -254.036689 
L 565.8763 -253.762859 
L 583.841 -256.521758 
L 601.8057 -257.079723 
L 619.7704 -256.874999 
L 637.7351 -261.853538 
L 655.6998 -256.717845 
L 673.6645 -264.072861 
L 691.6292 -262.592937 
L 709.5939 -260.031464 
L 727.5586 -265.3419 
L 745.5233 -262.567058 
L 763.488 -265.48126 
L 781.4527 -270.527009 
L 799.4174 -262.228508 
L 817.3821 -265.388444 
L 835.3468 -262.69003 
L 853.3115 -270.456751 
L 871.2762 -271.739615 
L 889.2409 -276.806416 
L 907.2056 -272.593547 
L 925.1703 -276.329288 
L 943.135 -272.941495 
L 943.135 -381.237107 
L 943.135 -381.237107 
L 925.1703 -381.743265 
L 907.2056 -382.836745 
L 889.2409 -377.367812 
L 871.2762 -378.121313 
L 853.3115 -372.32406 
L 835.3468 -369.451456 
L 817.3821 -367.046018 
L 799.4174 -364.738442 
L 781.4527 -367.610961 
L 763.488 -366.286102 
L 745.5233 -363.787166 
L 727.5586 -363.489611 
L 709.5939 -364.755373 
L 691.6292 -357.695992 
L 673.6645 -362.092485 
L 655.6998 -356.575485 
L 637.7351 -355.45179 
L 619.7704 -350.082839 
L 601.8057 -346.798135 
L 583.841 -353.721232 
L 565.8763 -349.572317 
L 547.9116 -349.789939 
L 529.9469 -348.434504 
L 511.9822 -347.734492 
L 494.0175 -345.243303 
L 476.0528 -341.345228 
L 458.0881 -346.125056 
L 440.1234 -342.457968 
L 422.1587 -341.862476 
L 404.194 -338.757308 
L 386.2293 -339.862176 
L 368.2646 -335.088788 
L 350.2999 -334.427133 
L 332.3352 -338.212961 
L 314.3705 -337.883419 
L 296.4058 -340.066486 
L 278.4411 -335.462722 
L 260.4764 -337.171326 
L 242.5117 -333.877366 
L 224.547 -333.503122 
L 206.5823 -329.985593 
L 188.6176 -332.085182 
L 170.6529 -332.211216 
L 152.6882 -331.079915 
L 134.7235 -330.245578 
L 116.7588 -330.089956 
L 98.7941 -331.47476 
L 80.8294 -327.586457 
L 62.8647 -328.103352 
L 44.9 -329.322242 
z
" style="stroke: #17becf; stroke-opacity: 0.2"/>
    </defs>
    <g clip-path="url(#p8f278db932)">
     <use xlink:href="#mdb65485425" x="0" y="648" style="fill: #17becf; fill-opacity: 0.2; stroke: #17becf; stroke-opacity: 0.2"/>
    </g>
   </g>
   <g id="PolyCollection_12">
    <defs>
     <path id="mbb62ffb79f" d="M 44.9 -334.19851 
L 44.9 -249.140654 
L 62.8647 -251.271605 
L 80.8294 -248.100622 
L 98.7941 -252.129732 
L 116.7588 -248.140861 
L 134.7235 -250.19704 
L 152.6882 -251.656043 
L 170.6529 -252.311072 
L 188.6176 -254.852041 
L 206.5823 -252.297619 
L 224.547 -251.196034 
L 242.5117 -253.216522 
L 260.4764 -257.919021 
L 278.4411 -253.270199 
L 296.4058 -256.278379 
L 314.3705 -258.847344 
L 332.3352 -259.640099 
L 350.2999 -263.250118 
L 368.2646 -257.50745 
L 386.2293 -262.452437 
L 404.194 -261.528412 
L 422.1587 -262.977975 
L 440.1234 -264.742221 
L 458.0881 -262.874449 
L 476.0528 -264.14908 
L 494.0175 -262.887016 
L 511.9822 -261.413871 
L 529.9469 -262.552157 
L 547.9116 -263.688235 
L 565.8763 -262.42945 
L 583.841 -265.061557 
L 601.8057 -268.938404 
L 619.7704 -265.407079 
L 637.7351 -264.923546 
L 655.6998 -264.358315 
L 673.6645 -265.696371 
L 691.6292 -263.553239 
L 709.5939 -272.915151 
L 727.5586 -273.483701 
L 745.5233 -277.887171 
L 763.488 -268.138708 
L 781.4527 -269.21113 
L 799.4174 -270.672526 
L 817.3821 -277.36252 
L 835.3468 -276.638669 
L 853.3115 -274.576694 
L 871.2762 -272.866081 
L 889.2409 -277.065626 
L 907.2056 -275.726802 
L 925.1703 -278.843664 
L 943.135 -278.848452 
L 943.135 -384.82926 
L 943.135 -384.82926 
L 925.1703 -383.60707 
L 907.2056 -386.460093 
L 889.2409 -379.326257 
L 871.2762 -380.084634 
L 853.3115 -375.294348 
L 835.3468 -377.026681 
L 817.3821 -374.874309 
L 799.4174 -374.554008 
L 781.4527 -371.547293 
L 763.488 -373.356302 
L 745.5233 -373.239768 
L 727.5586 -368.911503 
L 709.5939 -370.642049 
L 691.6292 -364.081597 
L 673.6645 -369.610372 
L 655.6998 -367.149811 
L 637.7351 -360.615558 
L 619.7704 -361.351678 
L 601.8057 -367.220359 
L 583.841 -358.686263 
L 565.8763 -359.796229 
L 547.9116 -362.122743 
L 529.9469 -361.840445 
L 511.9822 -357.411098 
L 494.0175 -358.832559 
L 476.0528 -355.611045 
L 458.0881 -355.659289 
L 440.1234 -356.685882 
L 422.1587 -357.266607 
L 404.194 -353.407837 
L 386.2293 -353.443129 
L 368.2646 -351.686085 
L 350.2999 -346.748151 
L 332.3352 -347.831729 
L 314.3705 -348.28424 
L 296.4058 -349.4349 
L 278.4411 -347.645505 
L 260.4764 -344.070953 
L 242.5117 -340.535837 
L 224.547 -342.568184 
L 206.5823 -342.827628 
L 188.6176 -346.464686 
L 170.6529 -339.113775 
L 152.6882 -339.464061 
L 134.7235 -339.135586 
L 116.7588 -339.442653 
L 98.7941 -336.798269 
L 80.8294 -335.834319 
L 62.8647 -336.733699 
L 44.9 -334.19851 
z
" style="stroke: #9edae5; stroke-opacity: 0.2"/>
    </defs>
    <g clip-path="url(#p8f278db932)">
     <use xlink:href="#mbb62ffb79f" x="0" y="648" style="fill: #9edae5; fill-opacity: 0.2; stroke: #9edae5; stroke-opacity: 0.2"/>
    </g>
   </g>
   <g id="matplotlib.axis_1">
    <g id="xtick_1">
     <g id="line2d_1">
      <defs>
       <path id="m27adc9e73b" d="M 0 0 
L 0 3.5 
" style="stroke: #000000; stroke-width: 0.8"/>
      </defs>
      <g>
       <use xlink:href="#m27adc9e73b" x="44.9" y="608.2" style="stroke: #000000; stroke-width: 0.8"/>
      </g>
     </g>
     <g id="text_1">
      <!-- 30 -->
      <g transform="translate(39.339063 622.357813) scale(0.1 -0.1)">
       <defs>
        <path id="ArialMT-33" d="M 269 1209 
L 831 1284 
Q 928 806 1161 595 
Q 1394 384 1728 384 
Q 2125 384 2398 659 
Q 2672 934 2672 1341 
Q 2672 1728 2419 1979 
Q 2166 2231 1775 2231 
Q 1616 2231 1378 2169 
L 1441 2663 
Q 1497 2656 1531 2656 
Q 1891 2656 2178 2843 
Q 2466 3031 2466 3422 
Q 2466 3731 2256 3934 
Q 2047 4138 1716 4138 
Q 1388 4138 1169 3931 
Q 950 3725 888 3313 
L 325 3413 
Q 428 3978 793 4289 
Q 1159 4600 1703 4600 
Q 2078 4600 2393 4439 
Q 2709 4278 2876 4000 
Q 3044 3722 3044 3409 
Q 3044 3113 2884 2869 
Q 2725 2625 2413 2481 
Q 2819 2388 3044 2092 
Q 3269 1797 3269 1353 
Q 3269 753 2831 336 
Q 2394 -81 1725 -81 
Q 1122 -81 723 278 
Q 325 638 269 1209 
z
" transform="scale(0.015625)"/>
        <path id="ArialMT-30" d="M 266 2259 
Q 266 3072 433 3567 
Q 600 4063 929 4331 
Q 1259 4600 1759 4600 
Q 2128 4600 2406 4451 
Q 2684 4303 2865 4023 
Q 3047 3744 3150 3342 
Q 3253 2941 3253 2259 
Q 3253 1453 3087 958 
Q 2922 463 2592 192 
Q 2263 -78 1759 -78 
Q 1097 -78 719 397 
Q 266 969 266 2259 
z
M 844 2259 
Q 844 1131 1108 757 
Q 1372 384 1759 384 
Q 2147 384 2411 759 
Q 2675 1134 2675 2259 
Q 2675 3391 2411 3762 
Q 2147 4134 1753 4134 
Q 1366 4134 1134 3806 
Q 844 3388 844 2259 
z
" transform="scale(0.015625)"/>
       </defs>
       <use xlink:href="#ArialMT-33"/>
       <use xlink:href="#ArialMT-30" x="55.615234"/>
      </g>
     </g>
    </g>
    <g id="xtick_2">
     <g id="line2d_2">
      <g>
       <use xlink:href="#m27adc9e73b" x="224.547" y="608.2" style="stroke: #000000; stroke-width: 0.8"/>
      </g>
     </g>
     <g id="text_2">
      <!-- 40 -->
      <g transform="translate(218.986063 622.357813) scale(0.1 -0.1)">
       <defs>
        <path id="ArialMT-34" d="M 2069 0 
L 2069 1097 
L 81 1097 
L 81 1613 
L 2172 4581 
L 2631 4581 
L 2631 1613 
L 3250 1613 
L 3250 1097 
L 2631 1097 
L 2631 0 
L 2069 0 
z
M 2069 1613 
L 2069 3678 
L 634 1613 
L 2069 1613 
z
" transform="scale(0.015625)"/>
       </defs>
       <use xlink:href="#ArialMT-34"/>
       <use xlink:href="#ArialMT-30" x="55.615234"/>
      </g>
     </g>
    </g>
    <g id="xtick_3">
     <g id="line2d_3">
      <g>
       <use xlink:href="#m27adc9e73b" x="404.194" y="608.2" style="stroke: #000000; stroke-width: 0.8"/>
      </g>
     </g>
     <g id="text_3">
      <!-- 50 -->
      <g transform="translate(398.633063 622.357813) scale(0.1 -0.1)">
       <defs>
        <path id="ArialMT-35" d="M 266 1200 
L 856 1250 
Q 922 819 1161 601 
Q 1400 384 1738 384 
Q 2144 384 2425 690 
Q 2706 997 2706 1503 
Q 2706 1984 2436 2262 
Q 2166 2541 1728 2541 
Q 1456 2541 1237 2417 
Q 1019 2294 894 2097 
L 366 2166 
L 809 4519 
L 3088 4519 
L 3088 3981 
L 1259 3981 
L 1013 2750 
Q 1425 3038 1878 3038 
Q 2478 3038 2890 2622 
Q 3303 2206 3303 1553 
Q 3303 931 2941 478 
Q 2500 -78 1738 -78 
Q 1113 -78 717 272 
Q 322 622 266 1200 
z
" transform="scale(0.015625)"/>
       </defs>
       <use xlink:href="#ArialMT-35"/>
       <use xlink:href="#ArialMT-30" x="55.615234"/>
      </g>
     </g>
    </g>
    <g id="xtick_4">
     <g id="line2d_4">
      <g>
       <use xlink:href="#m27adc9e73b" x="583.841" y="608.2" style="stroke: #000000; stroke-width: 0.8"/>
      </g>
     </g>
     <g id="text_4">
      <!-- 60 -->
      <g transform="translate(578.280063 622.357813) scale(0.1 -0.1)">
       <defs>
        <path id="ArialMT-36" d="M 3184 3459 
L 2625 3416 
Q 2550 3747 2413 3897 
Q 2184 4138 1850 4138 
Q 1581 4138 1378 3988 
Q 1113 3794 959 3422 
Q 806 3050 800 2363 
Q 1003 2672 1297 2822 
Q 1591 2972 1913 2972 
Q 2475 2972 2870 2558 
Q 3266 2144 3266 1488 
Q 3266 1056 3080 686 
Q 2894 316 2569 119 
Q 2244 -78 1831 -78 
Q 1128 -78 684 439 
Q 241 956 241 2144 
Q 241 3472 731 4075 
Q 1159 4600 1884 4600 
Q 2425 4600 2770 4297 
Q 3116 3994 3184 3459 
z
M 888 1484 
Q 888 1194 1011 928 
Q 1134 663 1356 523 
Q 1578 384 1822 384 
Q 2178 384 2434 671 
Q 2691 959 2691 1453 
Q 2691 1928 2437 2201 
Q 2184 2475 1800 2475 
Q 1419 2475 1153 2201 
Q 888 1928 888 1484 
z
" transform="scale(0.015625)"/>
       </defs>
       <use xlink:href="#ArialMT-36"/>
       <use xlink:href="#ArialMT-30" x="55.615234"/>
      </g>
     </g>
    </g>
    <g id="xtick_5">
     <g id="line2d_5">
      <g>
       <use xlink:href="#m27adc9e73b" x="763.488" y="608.2" style="stroke: #000000; stroke-width: 0.8"/>
      </g>
     </g>
     <g id="text_5">
      <!-- 70 -->
      <g transform="translate(757.927063 622.357813) scale(0.1 -0.1)">
       <defs>
        <path id="ArialMT-37" d="M 303 3981 
L 303 4522 
L 3269 4522 
L 3269 4084 
Q 2831 3619 2401 2847 
Q 1972 2075 1738 1259 
Q 1569 684 1522 0 
L 944 0 
Q 953 541 1156 1306 
Q 1359 2072 1739 2783 
Q 2119 3494 2547 3981 
L 303 3981 
z
" transform="scale(0.015625)"/>
       </defs>
       <use xlink:href="#ArialMT-37"/>
       <use xlink:href="#ArialMT-30" x="55.615234"/>
      </g>
     </g>
    </g>
    <g id="xtick_6">
     <g id="line2d_6">
      <g>
       <use xlink:href="#m27adc9e73b" x="943.135" y="608.2" style="stroke: #000000; stroke-width: 0.8"/>
      </g>
     </g>
     <g id="text_6">
      <!-- 80 -->
      <g transform="translate(937.574063 622.357813) scale(0.1 -0.1)">
       <defs>
        <path id="ArialMT-38" d="M 1131 2484 
Q 781 2613 612 2850 
Q 444 3088 444 3419 
Q 444 3919 803 4259 
Q 1163 4600 1759 4600 
Q 2359 4600 2725 4251 
Q 3091 3903 3091 3403 
Q 3091 3084 2923 2848 
Q 2756 2613 2416 2484 
Q 2838 2347 3058 2040 
Q 3278 1734 3278 1309 
Q 3278 722 2862 322 
Q 2447 -78 1769 -78 
Q 1091 -78 675 323 
Q 259 725 259 1325 
Q 259 1772 486 2073 
Q 713 2375 1131 2484 
z
M 1019 3438 
Q 1019 3113 1228 2906 
Q 1438 2700 1772 2700 
Q 2097 2700 2305 2904 
Q 2513 3109 2513 3406 
Q 2513 3716 2298 3927 
Q 2084 4138 1766 4138 
Q 1444 4138 1231 3931 
Q 1019 3725 1019 3438 
z
M 838 1322 
Q 838 1081 952 856 
Q 1066 631 1291 507 
Q 1516 384 1775 384 
Q 2178 384 2440 643 
Q 2703 903 2703 1303 
Q 2703 1709 2433 1975 
Q 2163 2241 1756 2241 
Q 1359 2241 1098 1978 
Q 838 1716 838 1322 
z
" transform="scale(0.015625)"/>
       </defs>
       <use xlink:href="#ArialMT-38"/>
       <use xlink:href="#ArialMT-30" x="55.615234"/>
      </g>
     </g>
    </g>
    <g id="text_7">
     <!-- Number of Baits -->
     <g transform="translate(458.172188 635.503125) scale(0.1 -0.1)">
      <defs>
       <path id="ArialMT-4e" d="M 488 0 
L 488 4581 
L 1109 4581 
L 3516 984 
L 3516 4581 
L 4097 4581 
L 4097 0 
L 3475 0 
L 1069 3600 
L 1069 0 
L 488 0 
z
" transform="scale(0.015625)"/>
       <path id="ArialMT-75" d="M 2597 0 
L 2597 488 
Q 2209 -75 1544 -75 
Q 1250 -75 995 37 
Q 741 150 617 320 
Q 494 491 444 738 
Q 409 903 409 1263 
L 409 3319 
L 972 3319 
L 972 1478 
Q 972 1038 1006 884 
Q 1059 663 1231 536 
Q 1403 409 1656 409 
Q 1909 409 2131 539 
Q 2353 669 2445 892 
Q 2538 1116 2538 1541 
L 2538 3319 
L 3100 3319 
L 3100 0 
L 2597 0 
z
" transform="scale(0.015625)"/>
       <path id="ArialMT-6d" d="M 422 0 
L 422 3319 
L 925 3319 
L 925 2853 
Q 1081 3097 1340 3245 
Q 1600 3394 1931 3394 
Q 2300 3394 2536 3241 
Q 2772 3088 2869 2813 
Q 3263 3394 3894 3394 
Q 4388 3394 4653 3120 
Q 4919 2847 4919 2278 
L 4919 0 
L 4359 0 
L 4359 2091 
Q 4359 2428 4304 2576 
Q 4250 2725 4106 2815 
Q 3963 2906 3769 2906 
Q 3419 2906 3187 2673 
Q 2956 2441 2956 1928 
L 2956 0 
L 2394 0 
L 2394 2156 
Q 2394 2531 2256 2718 
Q 2119 2906 1806 2906 
Q 1569 2906 1367 2781 
Q 1166 2656 1075 2415 
Q 984 2175 984 1722 
L 984 0 
L 422 0 
z
" transform="scale(0.015625)"/>
       <path id="ArialMT-62" d="M 941 0 
L 419 0 
L 419 4581 
L 981 4581 
L 981 2947 
Q 1338 3394 1891 3394 
Q 2197 3394 2470 3270 
Q 2744 3147 2920 2923 
Q 3097 2700 3197 2384 
Q 3297 2069 3297 1709 
Q 3297 856 2875 390 
Q 2453 -75 1863 -75 
Q 1275 -75 941 416 
L 941 0 
z
M 934 1684 
Q 934 1088 1097 822 
Q 1363 388 1816 388 
Q 2184 388 2453 708 
Q 2722 1028 2722 1663 
Q 2722 2313 2464 2622 
Q 2206 2931 1841 2931 
Q 1472 2931 1203 2611 
Q 934 2291 934 1684 
z
" transform="scale(0.015625)"/>
       <path id="ArialMT-65" d="M 2694 1069 
L 3275 997 
Q 3138 488 2766 206 
Q 2394 -75 1816 -75 
Q 1088 -75 661 373 
Q 234 822 234 1631 
Q 234 2469 665 2931 
Q 1097 3394 1784 3394 
Q 2450 3394 2872 2941 
Q 3294 2488 3294 1666 
Q 3294 1616 3291 1516 
L 816 1516 
Q 847 969 1125 678 
Q 1403 388 1819 388 
Q 2128 388 2347 550 
Q 2566 713 2694 1069 
z
M 847 1978 
L 2700 1978 
Q 2663 2397 2488 2606 
Q 2219 2931 1791 2931 
Q 1403 2931 1139 2672 
Q 875 2413 847 1978 
z
" transform="scale(0.015625)"/>
       <path id="ArialMT-72" d="M 416 0 
L 416 3319 
L 922 3319 
L 922 2816 
Q 1116 3169 1280 3281 
Q 1444 3394 1641 3394 
Q 1925 3394 2219 3213 
L 2025 2691 
Q 1819 2813 1613 2813 
Q 1428 2813 1281 2702 
Q 1134 2591 1072 2394 
Q 978 2094 978 1738 
L 978 0 
L 416 0 
z
" transform="scale(0.015625)"/>
       <path id="ArialMT-20" transform="scale(0.015625)"/>
       <path id="ArialMT-6f" d="M 213 1659 
Q 213 2581 725 3025 
Q 1153 3394 1769 3394 
Q 2453 3394 2887 2945 
Q 3322 2497 3322 1706 
Q 3322 1066 3130 698 
Q 2938 331 2570 128 
Q 2203 -75 1769 -75 
Q 1072 -75 642 372 
Q 213 819 213 1659 
z
M 791 1659 
Q 791 1022 1069 705 
Q 1347 388 1769 388 
Q 2188 388 2466 706 
Q 2744 1025 2744 1678 
Q 2744 2294 2464 2611 
Q 2184 2928 1769 2928 
Q 1347 2928 1069 2612 
Q 791 2297 791 1659 
z
" transform="scale(0.015625)"/>
       <path id="ArialMT-66" d="M 556 0 
L 556 2881 
L 59 2881 
L 59 3319 
L 556 3319 
L 556 3672 
Q 556 4006 616 4169 
Q 697 4388 901 4523 
Q 1106 4659 1475 4659 
Q 1713 4659 2000 4603 
L 1916 4113 
Q 1741 4144 1584 4144 
Q 1328 4144 1222 4034 
Q 1116 3925 1116 3625 
L 1116 3319 
L 1763 3319 
L 1763 2881 
L 1116 2881 
L 1116 0 
L 556 0 
z
" transform="scale(0.015625)"/>
       <path id="ArialMT-42" d="M 469 0 
L 469 4581 
L 2188 4581 
Q 2713 4581 3030 4442 
Q 3347 4303 3526 4014 
Q 3706 3725 3706 3409 
Q 3706 3116 3547 2856 
Q 3388 2597 3066 2438 
Q 3481 2316 3704 2022 
Q 3928 1728 3928 1328 
Q 3928 1006 3792 729 
Q 3656 453 3456 303 
Q 3256 153 2954 76 
Q 2653 0 2216 0 
L 469 0 
z
M 1075 2656 
L 2066 2656 
Q 2469 2656 2644 2709 
Q 2875 2778 2992 2937 
Q 3109 3097 3109 3338 
Q 3109 3566 3000 3739 
Q 2891 3913 2687 3977 
Q 2484 4041 1991 4041 
L 1075 4041 
L 1075 2656 
z
M 1075 541 
L 2216 541 
Q 2509 541 2628 563 
Q 2838 600 2978 687 
Q 3119 775 3209 942 
Q 3300 1109 3300 1328 
Q 3300 1584 3169 1773 
Q 3038 1963 2805 2039 
Q 2572 2116 2134 2116 
L 1075 2116 
L 1075 541 
z
" transform="scale(0.015625)"/>
       <path id="ArialMT-61" d="M 2588 409 
Q 2275 144 1986 34 
Q 1697 -75 1366 -75 
Q 819 -75 525 192 
Q 231 459 231 875 
Q 231 1119 342 1320 
Q 453 1522 633 1644 
Q 813 1766 1038 1828 
Q 1203 1872 1538 1913 
Q 2219 1994 2541 2106 
Q 2544 2222 2544 2253 
Q 2544 2597 2384 2738 
Q 2169 2928 1744 2928 
Q 1347 2928 1158 2789 
Q 969 2650 878 2297 
L 328 2372 
Q 403 2725 575 2942 
Q 747 3159 1072 3276 
Q 1397 3394 1825 3394 
Q 2250 3394 2515 3294 
Q 2781 3194 2906 3042 
Q 3031 2891 3081 2659 
Q 3109 2516 3109 2141 
L 3109 1391 
Q 3109 606 3145 398 
Q 3181 191 3288 0 
L 2700 0 
Q 2613 175 2588 409 
z
M 2541 1666 
Q 2234 1541 1622 1453 
Q 1275 1403 1131 1340 
Q 988 1278 909 1158 
Q 831 1038 831 891 
Q 831 666 1001 516 
Q 1172 366 1500 366 
Q 1825 366 2078 508 
Q 2331 650 2450 897 
Q 2541 1088 2541 1459 
L 2541 1666 
z
" transform="scale(0.015625)"/>
       <path id="ArialMT-69" d="M 425 3934 
L 425 4581 
L 988 4581 
L 988 3934 
L 425 3934 
z
M 425 0 
L 425 3319 
L 988 3319 
L 988 0 
L 425 0 
z
" transform="scale(0.015625)"/>
       <path id="ArialMT-74" d="M 1650 503 
L 1731 6 
Q 1494 -44 1306 -44 
Q 1000 -44 831 53 
Q 663 150 594 308 
Q 525 466 525 972 
L 525 2881 
L 113 2881 
L 113 3319 
L 525 3319 
L 525 4141 
L 1084 4478 
L 1084 3319 
L 1650 3319 
L 1650 2881 
L 1084 2881 
L 1084 941 
Q 1084 700 1114 631 
Q 1144 563 1211 522 
Q 1278 481 1403 481 
Q 1497 481 1650 503 
z
" transform="scale(0.015625)"/>
       <path id="ArialMT-73" d="M 197 991 
L 753 1078 
Q 800 744 1014 566 
Q 1228 388 1613 388 
Q 2000 388 2187 545 
Q 2375 703 2375 916 
Q 2375 1106 2209 1216 
Q 2094 1291 1634 1406 
Q 1016 1563 777 1677 
Q 538 1791 414 1992 
Q 291 2194 291 2438 
Q 291 2659 392 2848 
Q 494 3038 669 3163 
Q 800 3259 1026 3326 
Q 1253 3394 1513 3394 
Q 1903 3394 2198 3281 
Q 2494 3169 2634 2976 
Q 2775 2784 2828 2463 
L 2278 2388 
Q 2241 2644 2061 2787 
Q 1881 2931 1553 2931 
Q 1166 2931 1000 2803 
Q 834 2675 834 2503 
Q 834 2394 903 2306 
Q 972 2216 1119 2156 
Q 1203 2125 1616 2013 
Q 2213 1853 2448 1751 
Q 2684 1650 2818 1456 
Q 2953 1263 2953 975 
Q 2953 694 2789 445 
Q 2625 197 2315 61 
Q 2006 -75 1616 -75 
Q 969 -75 630 194 
Q 291 463 197 991 
z
" transform="scale(0.015625)"/>
      </defs>
      <use xlink:href="#ArialMT-4e"/>
      <use xlink:href="#ArialMT-75" x="72.216797"/>
      <use xlink:href="#ArialMT-6d" x="127.832031"/>
      <use xlink:href="#ArialMT-62" x="211.132812"/>
      <use xlink:href="#ArialMT-65" x="266.748047"/>
      <use xlink:href="#ArialMT-72" x="322.363281"/>
      <use xlink:href="#ArialMT-20" x="355.664062"/>
      <use xlink:href="#ArialMT-6f" x="383.447266"/>
      <use xlink:href="#ArialMT-66" x="439.0625"/>
      <use xlink:href="#ArialMT-20" x="466.845703"/>
      <use xlink:href="#ArialMT-42" x="494.628906"/>
      <use xlink:href="#ArialMT-61" x="561.328125"/>
      <use xlink:href="#ArialMT-69" x="616.943359"/>
      <use xlink:href="#ArialMT-74" x="639.160156"/>
      <use xlink:href="#ArialMT-73" x="666.943359"/>
     </g>
    </g>
   </g>
   <g id="matplotlib.axis_2">
    <g id="ytick_1">
     <g id="line2d_7">
      <defs>
       <path id="m64533660e9" d="M 0 0 
L -3.5 0 
" style="stroke: #000000; stroke-width: 0.8"/>
      </defs>
      <g>
       <use xlink:href="#m64533660e9" x="44.9" y="608.2" style="stroke: #000000; stroke-width: 0.8"/>
      </g>
     </g>
     <g id="text_8">
      <!-- 0.0 -->
      <g transform="translate(24 611.778906) scale(0.1 -0.1)">
       <defs>
        <path id="ArialMT-2e" d="M 581 0 
L 581 641 
L 1222 641 
L 1222 0 
L 581 0 
z
" transform="scale(0.015625)"/>
       </defs>
       <use xlink:href="#ArialMT-30"/>
       <use xlink:href="#ArialMT-2e" x="55.615234"/>
       <use xlink:href="#ArialMT-30" x="83.398438"/>
      </g>
     </g>
    </g>
    <g id="ytick_2">
     <g id="line2d_8">
      <g>
       <use xlink:href="#m64533660e9" x="44.9" y="492.7096" style="stroke: #000000; stroke-width: 0.8"/>
      </g>
     </g>
     <g id="text_9">
      <!-- 0.2 -->
      <g transform="translate(24 496.288506) scale(0.1 -0.1)">
       <defs>
        <path id="ArialMT-32" d="M 3222 541 
L 3222 0 
L 194 0 
Q 188 203 259 391 
Q 375 700 629 1000 
Q 884 1300 1366 1694 
Q 2113 2306 2375 2664 
Q 2638 3022 2638 3341 
Q 2638 3675 2398 3904 
Q 2159 4134 1775 4134 
Q 1369 4134 1125 3890 
Q 881 3647 878 3216 
L 300 3275 
Q 359 3922 746 4261 
Q 1134 4600 1788 4600 
Q 2447 4600 2831 4234 
Q 3216 3869 3216 3328 
Q 3216 3053 3103 2787 
Q 2991 2522 2730 2228 
Q 2469 1934 1863 1422 
Q 1356 997 1212 845 
Q 1069 694 975 541 
L 3222 541 
z
" transform="scale(0.015625)"/>
       </defs>
       <use xlink:href="#ArialMT-30"/>
       <use xlink:href="#ArialMT-2e" x="55.615234"/>
       <use xlink:href="#ArialMT-32" x="83.398438"/>
      </g>
     </g>
    </g>
    <g id="ytick_3">
     <g id="line2d_9">
      <g>
       <use xlink:href="#m64533660e9" x="44.9" y="377.2192" style="stroke: #000000; stroke-width: 0.8"/>
      </g>
     </g>
     <g id="text_10">
      <!-- 0.4 -->
      <g transform="translate(24 380.798106) scale(0.1 -0.1)">
       <use xlink:href="#ArialMT-30"/>
       <use xlink:href="#ArialMT-2e" x="55.615234"/>
       <use xlink:href="#ArialMT-34" x="83.398438"/>
      </g>
     </g>
    </g>
    <g id="ytick_4">
     <g id="line2d_10">
      <g>
       <use xlink:href="#m64533660e9" x="44.9" y="261.7288" style="stroke: #000000; stroke-width: 0.8"/>
      </g>
     </g>
     <g id="text_11">
      <!-- 0.6 -->
      <g transform="translate(24 265.307706) scale(0.1 -0.1)">
       <use xlink:href="#ArialMT-30"/>
       <use xlink:href="#ArialMT-2e" x="55.615234"/>
       <use xlink:href="#ArialMT-36" x="83.398438"/>
      </g>
     </g>
    </g>
    <g id="ytick_5">
     <g id="line2d_11">
      <g>
       <use xlink:href="#m64533660e9" x="44.9" y="146.2384" style="stroke: #000000; stroke-width: 0.8"/>
      </g>
     </g>
     <g id="text_12">
      <!-- 0.8 -->
      <g transform="translate(24 149.817306) scale(0.1 -0.1)">
       <use xlink:href="#ArialMT-30"/>
       <use xlink:href="#ArialMT-2e" x="55.615234"/>
       <use xlink:href="#ArialMT-38" x="83.398438"/>
      </g>
     </g>
    </g>
    <g id="ytick_6">
     <g id="line2d_12">
      <g>
       <use xlink:href="#m64533660e9" x="44.9" y="30.748" style="stroke: #000000; stroke-width: 0.8"/>
      </g>
     </g>
     <g id="text_13">
      <!-- 1.0 -->
      <g transform="translate(24 34.326906) scale(0.1 -0.1)">
       <defs>
        <path id="ArialMT-31" d="M 2384 0 
L 1822 0 
L 1822 3584 
Q 1619 3391 1289 3197 
Q 959 3003 697 2906 
L 697 3450 
Q 1169 3672 1522 3987 
Q 1875 4303 2022 4600 
L 2384 4600 
L 2384 0 
z
" transform="scale(0.015625)"/>
       </defs>
       <use xlink:href="#ArialMT-31"/>
       <use xlink:href="#ArialMT-2e" x="55.615234"/>
       <use xlink:href="#ArialMT-30" x="83.398438"/>
      </g>
     </g>
    </g>
    <g id="text_14">
     <!-- Aggregated mean correlation scores -->
     <g transform="translate(17.895312 400.068531) rotate(-90) scale(0.1 -0.1)">
      <defs>
       <path id="ArialMT-41" d="M -9 0 
L 1750 4581 
L 2403 4581 
L 4278 0 
L 3588 0 
L 3053 1388 
L 1138 1388 
L 634 0 
L -9 0 
z
M 1313 1881 
L 2866 1881 
L 2388 3150 
Q 2169 3728 2063 4100 
Q 1975 3659 1816 3225 
L 1313 1881 
z
" transform="scale(0.015625)"/>
       <path id="ArialMT-67" d="M 319 -275 
L 866 -356 
Q 900 -609 1056 -725 
Q 1266 -881 1628 -881 
Q 2019 -881 2231 -725 
Q 2444 -569 2519 -288 
Q 2563 -116 2559 434 
Q 2191 0 1641 0 
Q 956 0 581 494 
Q 206 988 206 1678 
Q 206 2153 378 2554 
Q 550 2956 876 3175 
Q 1203 3394 1644 3394 
Q 2231 3394 2613 2919 
L 2613 3319 
L 3131 3319 
L 3131 450 
Q 3131 -325 2973 -648 
Q 2816 -972 2473 -1159 
Q 2131 -1347 1631 -1347 
Q 1038 -1347 672 -1080 
Q 306 -813 319 -275 
z
M 784 1719 
Q 784 1066 1043 766 
Q 1303 466 1694 466 
Q 2081 466 2343 764 
Q 2606 1063 2606 1700 
Q 2606 2309 2336 2618 
Q 2066 2928 1684 2928 
Q 1309 2928 1046 2623 
Q 784 2319 784 1719 
z
" transform="scale(0.015625)"/>
       <path id="ArialMT-64" d="M 2575 0 
L 2575 419 
Q 2259 -75 1647 -75 
Q 1250 -75 917 144 
Q 584 363 401 755 
Q 219 1147 219 1656 
Q 219 2153 384 2558 
Q 550 2963 881 3178 
Q 1213 3394 1622 3394 
Q 1922 3394 2156 3267 
Q 2391 3141 2538 2938 
L 2538 4581 
L 3097 4581 
L 3097 0 
L 2575 0 
z
M 797 1656 
Q 797 1019 1065 703 
Q 1334 388 1700 388 
Q 2069 388 2326 689 
Q 2584 991 2584 1609 
Q 2584 2291 2321 2609 
Q 2059 2928 1675 2928 
Q 1300 2928 1048 2622 
Q 797 2316 797 1656 
z
" transform="scale(0.015625)"/>
       <path id="ArialMT-6e" d="M 422 0 
L 422 3319 
L 928 3319 
L 928 2847 
Q 1294 3394 1984 3394 
Q 2284 3394 2536 3286 
Q 2788 3178 2913 3003 
Q 3038 2828 3088 2588 
Q 3119 2431 3119 2041 
L 3119 0 
L 2556 0 
L 2556 2019 
Q 2556 2363 2490 2533 
Q 2425 2703 2258 2804 
Q 2091 2906 1866 2906 
Q 1506 2906 1245 2678 
Q 984 2450 984 1813 
L 984 0 
L 422 0 
z
" transform="scale(0.015625)"/>
       <path id="ArialMT-63" d="M 2588 1216 
L 3141 1144 
Q 3050 572 2676 248 
Q 2303 -75 1759 -75 
Q 1078 -75 664 370 
Q 250 816 250 1647 
Q 250 2184 428 2587 
Q 606 2991 970 3192 
Q 1334 3394 1763 3394 
Q 2303 3394 2647 3120 
Q 2991 2847 3088 2344 
L 2541 2259 
Q 2463 2594 2264 2762 
Q 2066 2931 1784 2931 
Q 1359 2931 1093 2626 
Q 828 2322 828 1663 
Q 828 994 1084 691 
Q 1341 388 1753 388 
Q 2084 388 2306 591 
Q 2528 794 2588 1216 
z
" transform="scale(0.015625)"/>
       <path id="ArialMT-6c" d="M 409 0 
L 409 4581 
L 972 4581 
L 972 0 
L 409 0 
z
" transform="scale(0.015625)"/>
      </defs>
      <use xlink:href="#ArialMT-41"/>
      <use xlink:href="#ArialMT-67" x="66.699219"/>
      <use xlink:href="#ArialMT-67" x="122.314453"/>
      <use xlink:href="#ArialMT-72" x="177.929688"/>
      <use xlink:href="#ArialMT-65" x="211.230469"/>
      <use xlink:href="#ArialMT-67" x="266.845703"/>
      <use xlink:href="#ArialMT-61" x="322.460938"/>
      <use xlink:href="#ArialMT-74" x="378.076172"/>
      <use xlink:href="#ArialMT-65" x="405.859375"/>
      <use xlink:href="#ArialMT-64" x="461.474609"/>
      <use xlink:href="#ArialMT-20" x="517.089844"/>
      <use xlink:href="#ArialMT-6d" x="544.873047"/>
      <use xlink:href="#ArialMT-65" x="628.173828"/>
      <use xlink:href="#ArialMT-61" x="683.789062"/>
      <use xlink:href="#ArialMT-6e" x="739.404297"/>
      <use xlink:href="#ArialMT-20" x="795.019531"/>
      <use xlink:href="#ArialMT-63" x="822.802734"/>
      <use xlink:href="#ArialMT-6f" x="872.802734"/>
      <use xlink:href="#ArialMT-72" x="928.417969"/>
      <use xlink:href="#ArialMT-72" x="961.71875"/>
      <use xlink:href="#ArialMT-65" x="995.019531"/>
      <use xlink:href="#ArialMT-6c" x="1050.634766"/>
      <use xlink:href="#ArialMT-61" x="1072.851562"/>
      <use xlink:href="#ArialMT-74" x="1128.466797"/>
      <use xlink:href="#ArialMT-69" x="1156.25"/>
      <use xlink:href="#ArialMT-6f" x="1178.466797"/>
      <use xlink:href="#ArialMT-6e" x="1234.082031"/>
      <use xlink:href="#ArialMT-20" x="1289.697266"/>
      <use xlink:href="#ArialMT-73" x="1317.480469"/>
      <use xlink:href="#ArialMT-63" x="1367.480469"/>
      <use xlink:href="#ArialMT-6f" x="1417.480469"/>
      <use xlink:href="#ArialMT-72" x="1473.095703"/>
      <use xlink:href="#ArialMT-65" x="1506.396484"/>
      <use xlink:href="#ArialMT-73" x="1562.011719"/>
     </g>
    </g>
   </g>
   <g id="line2d_13">
    <path d="M 44.9 353.55478 
L 62.8647 358.304426 
L 80.8294 354.142716 
L 98.7941 354.68815 
L 116.7588 352.558856 
L 134.7235 353.045007 
L 152.6882 348.735602 
L 170.6529 349.283862 
L 188.6176 350.869558 
L 206.5823 350.421207 
L 224.547 348.542142 
L 242.5117 349.633239 
L 260.4764 347.789791 
L 278.4411 348.977971 
L 296.4058 345.972488 
L 314.3705 345.247993 
L 332.3352 343.449555 
L 350.2999 344.417741 
L 368.2646 341.632872 
L 386.2293 340.89739 
L 404.194 341.804557 
L 422.1587 338.357743 
L 440.1234 340.459476 
L 458.0881 339.454073 
L 476.0528 334.247172 
L 494.0175 333.435804 
L 511.9822 336.955715 
L 529.9469 339.394285 
L 547.9116 333.510806 
L 565.8763 331.818382 
L 583.841 332.301667 
L 601.8057 331.511506 
L 619.7704 332.354085 
L 637.7351 330.433836 
L 655.6998 329.854411 
L 673.6645 332.423896 
L 691.6292 334.521987 
L 709.5939 327.874535 
L 727.5586 331.696462 
L 745.5233 328.003127 
L 763.488 327.094844 
L 781.4527 328.73075 
L 799.4174 327.525842 
L 817.3821 325.63959 
L 835.3468 324.943238 
L 853.3115 323.030752 
L 871.2762 325.065576 
L 889.2409 320.247283 
L 907.2056 322.933788 
L 925.1703 323.184065 
L 943.135 317.817472 
" clip-path="url(#p8f278db932)" style="fill: none; stroke: #1f77b4; stroke-width: 1.5; stroke-linecap: square"/>
   </g>
   <g id="line2d_14">
    <path d="M 44.9 465.199659 
L 62.8647 443.716931 
L 80.8294 446.558428 
L 98.7941 453.851508 
L 116.7588 445.895935 
L 134.7235 431.019371 
L 152.6882 438.131149 
L 170.6529 440.556621 
L 188.6176 427.789575 
L 206.5823 433.613446 
L 224.547 436.96128 
L 242.5117 436.558598 
L 260.4764 428.418761 
L 278.4411 429.701892 
L 296.4058 427.867208 
L 314.3705 420.733781 
L 332.3352 418.561889 
L 350.2999 427.045176 
L 368.2646 415.833254 
L 386.2293 420.428231 
L 404.194 422.276233 
L 422.1587 431.326874 
L 440.1234 409.293653 
L 458.0881 393.631868 
L 476.0528 418.729744 
L 494.0175 407.572207 
L 511.9822 418.301937 
L 529.9469 403.503976 
L 547.9116 411.211916 
L 565.8763 393.79345 
L 583.841 408.1718 
L 601.8057 376.463617 
L 619.7704 413.512268 
L 637.7351 409.843072 
L 655.6998 387.412551 
L 673.6645 382.721615 
L 691.6292 391.568187 
L 709.5939 386.991299 
L 727.5586 379.219713 
L 745.5233 386.3152 
L 763.488 388.390262 
L 781.4527 380.712813 
L 799.4174 377.064681 
L 817.3821 375.501821 
L 835.3468 375.690507 
L 853.3115 374.816018 
L 871.2762 370.948401 
L 889.2409 372.225777 
L 907.2056 372.422794 
L 925.1703 370.061781 
L 943.135 358.368961 
" clip-path="url(#p8f278db932)" style="fill: none; stroke: #aec7e8; stroke-width: 1.5; stroke-linecap: square"/>
   </g>
   <g id="line2d_15">
    <path d="M 44.9 356.04527 
L 62.8647 355.835313 
L 80.8294 354.229586 
L 98.7941 352.636213 
L 116.7588 351.707416 
L 134.7235 354.672476 
L 152.6882 347.462038 
L 170.6529 349.368211 
L 188.6176 350.239749 
L 206.5823 349.295988 
L 224.547 346.315853 
L 242.5117 350.243902 
L 260.4764 348.44093 
L 278.4411 344.521384 
L 296.4058 346.478083 
L 314.3705 345.973477 
L 332.3352 343.919346 
L 350.2999 343.195088 
L 368.2646 344.334953 
L 386.2293 343.310563 
L 404.194 345.876579 
L 422.1587 343.405347 
L 440.1234 343.195292 
L 458.0881 340.715269 
L 476.0528 338.005901 
L 494.0175 337.638894 
L 511.9822 337.14512 
L 529.9469 336.633161 
L 547.9116 337.996528 
L 565.8763 333.993841 
L 583.841 336.735854 
L 601.8057 335.936695 
L 619.7704 338.042219 
L 637.7351 337.124785 
L 655.6998 331.328629 
L 673.6645 337.684549 
L 691.6292 332.043432 
L 709.5939 331.76737 
L 727.5586 334.440763 
L 745.5233 331.908473 
L 763.488 328.083203 
L 781.4527 327.648871 
L 799.4174 324.805435 
L 817.3821 327.93226 
L 835.3468 321.554114 
L 853.3115 323.896714 
L 871.2762 320.079997 
L 889.2409 322.100282 
L 907.2056 320.108408 
L 925.1703 323.08409 
L 943.135 320.927174 
" clip-path="url(#p8f278db932)" style="fill: none; stroke: #ffbb78; stroke-width: 1.5; stroke-linecap: square"/>
   </g>
   <g id="line2d_16">
    <path d="M 44.9 359.422381 
L 62.8647 358.3969 
L 80.8294 355.815319 
L 98.7941 355.863713 
L 116.7588 355.903025 
L 134.7235 352.288497 
L 152.6882 350.664162 
L 170.6529 346.252391 
L 188.6176 349.061071 
L 206.5823 345.424449 
L 224.547 346.995781 
L 242.5117 347.138773 
L 260.4764 344.77636 
L 278.4411 341.969744 
L 296.4058 344.526538 
L 314.3705 341.804922 
L 332.3352 341.709549 
L 350.2999 343.60446 
L 368.2646 341.05095 
L 386.2293 341.323315 
L 404.194 340.656959 
L 422.1587 340.582391 
L 440.1234 341.452072 
L 458.0881 338.77815 
L 476.0528 337.319548 
L 494.0175 337.435889 
L 511.9822 337.576005 
L 529.9469 338.735885 
L 547.9116 339.919797 
L 565.8763 334.545156 
L 583.841 336.423918 
L 601.8057 335.772103 
L 619.7704 332.576125 
L 637.7351 330.452985 
L 655.6998 331.553466 
L 673.6645 329.479913 
L 691.6292 331.46255 
L 709.5939 334.393824 
L 727.5586 331.71971 
L 745.5233 331.695708 
L 763.488 330.541847 
L 781.4527 329.965502 
L 799.4174 331.472421 
L 817.3821 325.512157 
L 835.3468 325.812949 
L 853.3115 327.624832 
L 871.2762 324.4119 
L 889.2409 324.100458 
L 907.2056 322.270008 
L 925.1703 317.805064 
L 943.135 315.570453 
" clip-path="url(#p8f278db932)" style="fill: none; stroke: #98df8a; stroke-width: 1.5; stroke-linecap: square"/>
   </g>
   <g id="line2d_17">
    <path d="M 44.9 360.483815 
L 62.8647 357.360022 
L 80.8294 358.052575 
L 98.7941 359.649345 
L 116.7588 356.553399 
L 134.7235 352.818354 
L 152.6882 355.905977 
L 170.6529 351.092495 
L 188.6176 353.162081 
L 206.5823 353.026271 
L 224.547 352.948516 
L 242.5117 350.444236 
L 260.4764 351.322334 
L 278.4411 351.841732 
L 296.4058 349.41034 
L 314.3705 346.563781 
L 332.3352 347.225593 
L 350.2999 348.156327 
L 368.2646 348.687873 
L 386.2293 345.478744 
L 404.194 343.819314 
L 422.1587 342.971912 
L 440.1234 343.917392 
L 458.0881 340.566499 
L 476.0528 339.753541 
L 494.0175 339.864886 
L 511.9822 337.515885 
L 529.9469 338.416039 
L 547.9116 340.926359 
L 565.8763 339.51489 
L 583.841 335.618138 
L 601.8057 336.080765 
L 619.7704 335.462074 
L 637.7351 336.229024 
L 655.6998 334.686536 
L 673.6645 334.842276 
L 691.6292 332.238509 
L 709.5939 330.548481 
L 727.5586 331.143638 
L 745.5233 334.255972 
L 763.488 329.198673 
L 781.4527 330.245784 
L 799.4174 327.597864 
L 817.3821 328.109008 
L 835.3468 325.373004 
L 853.3115 324.333804 
L 871.2762 325.378115 
L 889.2409 319.848515 
L 907.2056 317.253765 
L 925.1703 319.805428 
L 943.135 318.202355 
" clip-path="url(#p8f278db932)" style="fill: none; stroke: #ff9896; stroke-width: 1.5; stroke-linecap: square"/>
   </g>
   <g id="line2d_18">
    <path d="M 44.9 365.683753 
L 62.8647 362.606399 
L 80.8294 361.607765 
L 98.7941 361.589064 
L 116.7588 360.528181 
L 134.7235 360.063431 
L 152.6882 353.294336 
L 170.6529 356.040856 
L 188.6176 357.429319 
L 206.5823 356.204692 
L 224.547 358.174332 
L 242.5117 354.859684 
L 260.4764 355.676503 
L 278.4411 355.757309 
L 296.4058 350.948831 
L 314.3705 353.364036 
L 332.3352 354.090555 
L 350.2999 351.101506 
L 368.2646 350.646708 
L 386.2293 350.542459 
L 404.194 349.555471 
L 422.1587 352.296723 
L 440.1234 348.450461 
L 458.0881 343.73544 
L 476.0528 345.11455 
L 494.0175 342.886366 
L 511.9822 341.635722 
L 529.9469 342.545102 
L 547.9116 342.279695 
L 565.8763 339.377977 
L 583.841 341.216215 
L 601.8057 335.360439 
L 619.7704 336.362759 
L 637.7351 337.730584 
L 655.6998 333.453148 
L 673.6645 333.945866 
L 691.6292 339.10749 
L 709.5939 335.107037 
L 727.5586 334.367055 
L 745.5233 332.969459 
L 763.488 330.382112 
L 781.4527 331.63838 
L 799.4174 329.213742 
L 817.3821 324.348609 
L 835.3468 325.694258 
L 853.3115 322.852189 
L 871.2762 322.501033 
L 889.2409 322.503306 
L 907.2056 316.620537 
L 925.1703 315.299009 
L 943.135 317.263136 
" clip-path="url(#p8f278db932)" style="fill: none; stroke: #c5b0d5; stroke-width: 1.5; stroke-linecap: square"/>
   </g>
   <g id="line2d_19">
    <path d="M 44.9 360.936489 
L 62.8647 363.930822 
L 80.8294 362.367044 
L 98.7941 365.83561 
L 116.7588 359.964075 
L 134.7235 364.775262 
L 152.6882 362.484222 
L 170.6529 360.260782 
L 188.6176 361.116945 
L 206.5823 358.27818 
L 224.547 357.849164 
L 242.5117 356.130228 
L 260.4764 358.080522 
L 278.4411 356.744783 
L 296.4058 356.785995 
L 314.3705 352.413833 
L 332.3352 354.187953 
L 350.2999 352.512054 
L 368.2646 354.193999 
L 386.2293 348.052161 
L 404.194 351.404928 
L 422.1587 348.062618 
L 440.1234 349.143622 
L 458.0881 350.681622 
L 476.0528 346.789067 
L 494.0175 343.895191 
L 511.9822 344.185212 
L 529.9469 343.955719 
L 547.9116 343.065674 
L 565.8763 341.735403 
L 583.841 339.170873 
L 601.8057 340.932872 
L 619.7704 337.584567 
L 637.7351 336.194714 
L 655.6998 337.118463 
L 673.6645 334.391505 
L 691.6292 334.925345 
L 709.5939 332.870726 
L 727.5586 331.585663 
L 745.5233 325.99735 
L 763.488 325.347395 
L 781.4527 326.226541 
L 799.4174 325.243576 
L 817.3821 323.581336 
L 835.3468 326.7499 
L 853.3115 323.808092 
L 871.2762 322.148399 
L 889.2409 320.897054 
L 907.2056 316.408684 
L 925.1703 311.474248 
L 943.135 312.992483 
" clip-path="url(#p8f278db932)" style="fill: none; stroke: #8c564b; stroke-width: 1.5; stroke-linecap: square"/>
   </g>
   <g id="line2d_20">
    <path d="M 44.9 361.689995 
L 62.8647 364.262577 
L 80.8294 364.346561 
L 98.7941 364.320154 
L 116.7588 360.526319 
L 134.7235 361.265039 
L 152.6882 358.826367 
L 170.6529 359.171137 
L 188.6176 359.713171 
L 206.5823 358.129788 
L 224.547 358.136419 
L 242.5117 357.22773 
L 260.4764 353.151317 
L 278.4411 357.302299 
L 296.4058 355.631555 
L 314.3705 355.084488 
L 332.3352 355.191718 
L 350.2999 353.202309 
L 368.2646 349.652299 
L 386.2293 346.712595 
L 404.194 351.702975 
L 422.1587 346.22321 
L 440.1234 348.739495 
L 458.0881 346.629172 
L 476.0528 346.219081 
L 494.0175 348.102201 
L 511.9822 342.748797 
L 529.9469 343.617617 
L 547.9116 342.611453 
L 565.8763 340.475552 
L 583.841 337.486646 
L 601.8057 339.129794 
L 619.7704 337.847151 
L 637.7351 334.347817 
L 655.6998 336.433351 
L 673.6645 333.661254 
L 691.6292 335.091155 
L 709.5939 333.747412 
L 727.5586 332.356741 
L 745.5233 330.948387 
L 763.488 332.596059 
L 781.4527 326.453602 
L 799.4174 328.868622 
L 817.3821 326.038789 
L 835.3468 322.22613 
L 853.3115 320.007876 
L 871.2762 322.516947 
L 889.2409 319.032241 
L 907.2056 316.354567 
L 925.1703 321.121727 
L 943.135 316.789036 
" clip-path="url(#p8f278db932)" style="fill: none; stroke: #e377c2; stroke-width: 1.5; stroke-linecap: square"/>
   </g>
   <g id="line2d_21">
    <path d="M 44.9 355.338552 
L 62.8647 359.166052 
L 80.8294 352.824709 
L 98.7941 354.642027 
L 116.7588 354.639938 
L 134.7235 353.59083 
L 152.6882 349.957445 
L 170.6529 351.255053 
L 188.6176 351.176997 
L 206.5823 350.133856 
L 224.547 349.579726 
L 242.5117 353.014816 
L 260.4764 348.488274 
L 278.4411 351.511718 
L 296.4058 349.46217 
L 314.3705 347.743065 
L 332.3352 350.528679 
L 350.2999 347.516929 
L 368.2646 348.349604 
L 386.2293 349.425338 
L 404.194 347.20514 
L 422.1587 347.13737 
L 440.1234 346.490585 
L 458.0881 348.390303 
L 476.0528 348.573014 
L 494.0175 345.195498 
L 511.9822 345.130413 
L 529.9469 341.258368 
L 547.9116 342.936831 
L 565.8763 340.329479 
L 583.841 339.886092 
L 601.8057 338.232505 
L 619.7704 337.064269 
L 637.7351 333.650767 
L 655.6998 335.048729 
L 673.6645 335.053005 
L 691.6292 332.659322 
L 709.5939 336.016546 
L 727.5586 331.040293 
L 745.5233 330.79854 
L 763.488 326.601719 
L 781.4527 328.83985 
L 799.4174 326.696664 
L 817.3821 321.686715 
L 835.3468 326.131063 
L 853.3115 321.781356 
L 871.2762 323.92026 
L 889.2409 319.429782 
L 907.2056 314.168402 
L 925.1703 318.099295 
L 943.135 312.892675 
" clip-path="url(#p8f278db932)" style="fill: none; stroke: #7f7f7f; stroke-width: 1.5; stroke-linecap: square"/>
   </g>
   <g id="line2d_22">
    <path d="M 44.9 360.636568 
L 62.8647 361.658694 
L 80.8294 358.728593 
L 98.7941 357.881464 
L 116.7588 358.254008 
L 134.7235 354.711502 
L 152.6882 357.566023 
L 170.6529 355.296924 
L 188.6176 355.878347 
L 206.5823 353.303248 
L 224.547 352.319962 
L 242.5117 353.899348 
L 260.4764 352.752923 
L 278.4411 348.510317 
L 296.4058 347.42357 
L 314.3705 353.019348 
L 332.3352 351.420596 
L 350.2999 349.444719 
L 368.2646 349.343429 
L 386.2293 348.993624 
L 404.194 345.729528 
L 422.1587 349.057936 
L 440.1234 346.260971 
L 458.0881 345.805125 
L 476.0528 343.555263 
L 494.0175 342.592255 
L 511.9822 343.071656 
L 529.9469 338.506744 
L 547.9116 340.863993 
L 565.8763 341.200131 
L 583.841 341.947098 
L 601.8057 335.37582 
L 619.7704 339.723182 
L 637.7351 335.78146 
L 655.6998 335.021226 
L 673.6645 335.489653 
L 691.6292 333.392525 
L 709.5939 333.975627 
L 727.5586 331.067749 
L 745.5233 332.54352 
L 763.488 330.827075 
L 781.4527 327.087319 
L 799.4174 328.089984 
L 817.3821 324.604597 
L 835.3468 325.502162 
L 853.3115 323.318332 
L 871.2762 321.212289 
L 889.2409 320.671555 
L 907.2056 320.145417 
L 925.1703 323.383844 
L 943.135 319.876127 
" clip-path="url(#p8f278db932)" style="fill: none; stroke: #bcbd22; stroke-width: 1.5; stroke-linecap: square"/>
   </g>
   <g id="line2d_23">
    <path d="M 44.9 361.103874 
L 62.8647 363.853016 
L 80.8294 363.31994 
L 98.7941 359.56682 
L 116.7588 360.293473 
L 134.7235 359.535988 
L 152.6882 359.839867 
L 170.6529 360.902922 
L 188.6176 359.515931 
L 206.5823 359.930819 
L 224.547 358.811335 
L 242.5117 357.247798 
L 260.4764 357.445821 
L 278.4411 357.245601 
L 296.4058 353.079907 
L 314.3705 355.702926 
L 332.3352 354.074437 
L 350.2999 357.970779 
L 368.2646 357.522557 
L 386.2293 355.25862 
L 404.194 355.938606 
L 422.1587 353.303457 
L 440.1234 351.671113 
L 458.0881 349.632581 
L 476.0528 349.942379 
L 494.0175 350.173709 
L 511.9822 350.021808 
L 529.9469 346.457867 
L 547.9116 346.086686 
L 565.8763 346.332412 
L 583.841 342.878505 
L 601.8057 346.061071 
L 619.7704 344.521081 
L 637.7351 339.347336 
L 655.6998 341.353335 
L 673.6645 334.917327 
L 691.6292 337.855535 
L 709.5939 335.606582 
L 727.5586 333.584244 
L 745.5233 334.822888 
L 763.488 332.116319 
L 781.4527 328.931015 
L 799.4174 334.516525 
L 817.3821 331.782769 
L 835.3468 331.929257 
L 853.3115 326.609594 
L 871.2762 323.069536 
L 889.2409 320.912886 
L 907.2056 320.284854 
L 925.1703 318.963723 
L 943.135 320.910699 
" clip-path="url(#p8f278db932)" style="fill: none; stroke: #17becf; stroke-width: 1.5; stroke-linecap: square"/>
   </g>
   <g id="line2d_24">
    <path d="M 44.9 356.330418 
L 62.8647 353.997348 
L 80.8294 356.03253 
L 98.7941 353.535999 
L 116.7588 354.208243 
L 134.7235 353.333687 
L 152.6882 352.439948 
L 170.6529 352.287577 
L 188.6176 347.341636 
L 206.5823 350.437377 
L 224.547 351.117891 
L 242.5117 351.123821 
L 260.4764 347.005013 
L 278.4411 347.542148 
L 296.4058 345.143361 
L 314.3705 344.434208 
L 332.3352 344.264086 
L 350.2999 343.000866 
L 368.2646 343.403232 
L 386.2293 340.052217 
L 404.194 340.531875 
L 422.1587 337.877709 
L 440.1234 337.285948 
L 458.0881 338.733131 
L 476.0528 338.119938 
L 494.0175 337.140213 
L 511.9822 338.587515 
L 529.9469 335.803699 
L 547.9116 335.094511 
L 565.8763 336.887161 
L 583.841 336.12609 
L 601.8057 329.920619 
L 619.7704 334.620621 
L 637.7351 335.230448 
L 655.6998 332.245937 
L 673.6645 330.346629 
L 691.6292 334.182582 
L 709.5939 326.2214 
L 727.5586 326.802398 
L 745.5233 322.43653 
L 763.488 327.252495 
L 781.4527 327.620789 
L 799.4174 325.386733 
L 817.3821 321.881586 
L 835.3468 321.167325 
L 853.3115 323.064479 
L 871.2762 321.524642 
L 889.2409 319.804059 
L 907.2056 316.906552 
L 925.1703 316.774633 
L 943.135 316.161144 
" clip-path="url(#p8f278db932)" style="fill: none; stroke: #9edae5; stroke-width: 1.5; stroke-linecap: square"/>
   </g>
   <g id="patch_3">
    <path d="M 44.9 608.2 
L 44.9 30.748 
" style="fill: none; stroke: #000000; stroke-width: 0.8; stroke-linejoin: miter; stroke-linecap: square"/>
   </g>
   <g id="patch_4">
    <path d="M 943.135 608.2 
L 943.135 30.748 
" style="fill: none; stroke: #000000; stroke-width: 0.8; stroke-linejoin: miter; stroke-linecap: square"/>
   </g>
   <g id="patch_5">
    <path d="M 44.9 608.2 
L 943.135 608.2 
" style="fill: none; stroke: #000000; stroke-width: 0.8; stroke-linejoin: miter; stroke-linecap: square"/>
   </g>
   <g id="patch_6">
    <path d="M 44.9 30.748 
L 943.135 30.748 
" style="fill: none; stroke: #000000; stroke-width: 0.8; stroke-linejoin: miter; stroke-linecap: square"/>
   </g>
   <g id="text_15">
    <!-- Mean Correlation Scores by Number of Baits for Each Method -->
    <g transform="translate(329.285625 24.748) scale(0.12 -0.12)">
     <defs>
      <path id="ArialMT-4d" d="M 475 0 
L 475 4581 
L 1388 4581 
L 2472 1338 
Q 2622 884 2691 659 
Q 2769 909 2934 1394 
L 4031 4581 
L 4847 4581 
L 4847 0 
L 4263 0 
L 4263 3834 
L 2931 0 
L 2384 0 
L 1059 3900 
L 1059 0 
L 475 0 
z
" transform="scale(0.015625)"/>
      <path id="ArialMT-43" d="M 3763 1606 
L 4369 1453 
Q 4178 706 3683 314 
Q 3188 -78 2472 -78 
Q 1731 -78 1267 223 
Q 803 525 561 1097 
Q 319 1669 319 2325 
Q 319 3041 592 3573 
Q 866 4106 1370 4382 
Q 1875 4659 2481 4659 
Q 3169 4659 3637 4309 
Q 4106 3959 4291 3325 
L 3694 3184 
Q 3534 3684 3231 3912 
Q 2928 4141 2469 4141 
Q 1941 4141 1586 3887 
Q 1231 3634 1087 3207 
Q 944 2781 944 2328 
Q 944 1744 1114 1308 
Q 1284 872 1643 656 
Q 2003 441 2422 441 
Q 2931 441 3284 734 
Q 3638 1028 3763 1606 
z
" transform="scale(0.015625)"/>
      <path id="ArialMT-53" d="M 288 1472 
L 859 1522 
Q 900 1178 1048 958 
Q 1197 738 1509 602 
Q 1822 466 2213 466 
Q 2559 466 2825 569 
Q 3091 672 3220 851 
Q 3350 1031 3350 1244 
Q 3350 1459 3225 1620 
Q 3100 1781 2813 1891 
Q 2628 1963 1997 2114 
Q 1366 2266 1113 2400 
Q 784 2572 623 2826 
Q 463 3081 463 3397 
Q 463 3744 659 4045 
Q 856 4347 1234 4503 
Q 1613 4659 2075 4659 
Q 2584 4659 2973 4495 
Q 3363 4331 3572 4012 
Q 3781 3694 3797 3291 
L 3216 3247 
Q 3169 3681 2898 3903 
Q 2628 4125 2100 4125 
Q 1550 4125 1298 3923 
Q 1047 3722 1047 3438 
Q 1047 3191 1225 3031 
Q 1400 2872 2139 2705 
Q 2878 2538 3153 2413 
Q 3553 2228 3743 1945 
Q 3934 1663 3934 1294 
Q 3934 928 3725 604 
Q 3516 281 3123 101 
Q 2731 -78 2241 -78 
Q 1619 -78 1198 103 
Q 778 284 539 648 
Q 300 1013 288 1472 
z
" transform="scale(0.015625)"/>
      <path id="ArialMT-79" d="M 397 -1278 
L 334 -750 
Q 519 -800 656 -800 
Q 844 -800 956 -737 
Q 1069 -675 1141 -563 
Q 1194 -478 1313 -144 
Q 1328 -97 1363 -6 
L 103 3319 
L 709 3319 
L 1400 1397 
Q 1534 1031 1641 628 
Q 1738 1016 1872 1384 
L 2581 3319 
L 3144 3319 
L 1881 -56 
Q 1678 -603 1566 -809 
Q 1416 -1088 1222 -1217 
Q 1028 -1347 759 -1347 
Q 597 -1347 397 -1278 
z
" transform="scale(0.015625)"/>
      <path id="ArialMT-45" d="M 506 0 
L 506 4581 
L 3819 4581 
L 3819 4041 
L 1113 4041 
L 1113 2638 
L 3647 2638 
L 3647 2100 
L 1113 2100 
L 1113 541 
L 3925 541 
L 3925 0 
L 506 0 
z
" transform="scale(0.015625)"/>
      <path id="ArialMT-68" d="M 422 0 
L 422 4581 
L 984 4581 
L 984 2938 
Q 1378 3394 1978 3394 
Q 2347 3394 2619 3248 
Q 2891 3103 3008 2847 
Q 3125 2591 3125 2103 
L 3125 0 
L 2563 0 
L 2563 2103 
Q 2563 2525 2380 2717 
Q 2197 2909 1863 2909 
Q 1613 2909 1392 2779 
Q 1172 2650 1078 2428 
Q 984 2206 984 1816 
L 984 0 
L 422 0 
z
" transform="scale(0.015625)"/>
     </defs>
     <use xlink:href="#ArialMT-4d"/>
     <use xlink:href="#ArialMT-65" x="83.300781"/>
     <use xlink:href="#ArialMT-61" x="138.916016"/>
     <use xlink:href="#ArialMT-6e" x="194.53125"/>
     <use xlink:href="#ArialMT-20" x="250.146484"/>
     <use xlink:href="#ArialMT-43" x="277.929688"/>
     <use xlink:href="#ArialMT-6f" x="350.146484"/>
     <use xlink:href="#ArialMT-72" x="405.761719"/>
     <use xlink:href="#ArialMT-72" x="439.0625"/>
     <use xlink:href="#ArialMT-65" x="472.363281"/>
     <use xlink:href="#ArialMT-6c" x="527.978516"/>
     <use xlink:href="#ArialMT-61" x="550.195312"/>
     <use xlink:href="#ArialMT-74" x="605.810547"/>
     <use xlink:href="#ArialMT-69" x="633.59375"/>
     <use xlink:href="#ArialMT-6f" x="655.810547"/>
     <use xlink:href="#ArialMT-6e" x="711.425781"/>
     <use xlink:href="#ArialMT-20" x="767.041016"/>
     <use xlink:href="#ArialMT-53" x="794.824219"/>
     <use xlink:href="#ArialMT-63" x="861.523438"/>
     <use xlink:href="#ArialMT-6f" x="911.523438"/>
     <use xlink:href="#ArialMT-72" x="967.138672"/>
     <use xlink:href="#ArialMT-65" x="1000.439453"/>
     <use xlink:href="#ArialMT-73" x="1056.054688"/>
     <use xlink:href="#ArialMT-20" x="1106.054688"/>
     <use xlink:href="#ArialMT-62" x="1133.837891"/>
     <use xlink:href="#ArialMT-79" x="1189.453125"/>
     <use xlink:href="#ArialMT-20" x="1239.453125"/>
     <use xlink:href="#ArialMT-4e" x="1267.236328"/>
     <use xlink:href="#ArialMT-75" x="1339.453125"/>
     <use xlink:href="#ArialMT-6d" x="1395.068359"/>
     <use xlink:href="#ArialMT-62" x="1478.369141"/>
     <use xlink:href="#ArialMT-65" x="1533.984375"/>
     <use xlink:href="#ArialMT-72" x="1589.599609"/>
     <use xlink:href="#ArialMT-20" x="1622.900391"/>
     <use xlink:href="#ArialMT-6f" x="1650.683594"/>
     <use xlink:href="#ArialMT-66" x="1706.298828"/>
     <use xlink:href="#ArialMT-20" x="1734.082031"/>
     <use xlink:href="#ArialMT-42" x="1761.865234"/>
     <use xlink:href="#ArialMT-61" x="1828.564453"/>
     <use xlink:href="#ArialMT-69" x="1884.179688"/>
     <use xlink:href="#ArialMT-74" x="1906.396484"/>
     <use xlink:href="#ArialMT-73" x="1934.179688"/>
     <use xlink:href="#ArialMT-20" x="1984.179688"/>
     <use xlink:href="#ArialMT-66" x="2011.962891"/>
     <use xlink:href="#ArialMT-6f" x="2039.746094"/>
     <use xlink:href="#ArialMT-72" x="2095.361328"/>
     <use xlink:href="#ArialMT-20" x="2128.662109"/>
     <use xlink:href="#ArialMT-45" x="2156.445312"/>
     <use xlink:href="#ArialMT-61" x="2223.144531"/>
     <use xlink:href="#ArialMT-63" x="2278.759766"/>
     <use xlink:href="#ArialMT-68" x="2328.759766"/>
     <use xlink:href="#ArialMT-20" x="2384.375"/>
     <use xlink:href="#ArialMT-4d" x="2412.158203"/>
     <use xlink:href="#ArialMT-65" x="2495.458984"/>
     <use xlink:href="#ArialMT-74" x="2551.074219"/>
     <use xlink:href="#ArialMT-68" x="2578.857422"/>
     <use xlink:href="#ArialMT-6f" x="2634.472656"/>
     <use xlink:href="#ArialMT-64" x="2690.087891"/>
    </g>
   </g>
   <g id="legend_1">
    <g id="patch_7">
     <path d="M 950.135 180.24415 
L 1067.174063 180.24415 
Q 1069.174063 180.24415 1069.174063 178.24415 
L 1069.174063 8.8754 
Q 1069.174063 6.8754 1067.174063 6.8754 
L 950.135 6.8754 
Q 948.135 6.8754 948.135 8.8754 
L 948.135 178.24415 
Q 948.135 180.24415 950.135 180.24415 
z
" style="fill: #ffffff; opacity: 0.8; stroke: #cccccc; stroke-linejoin: miter"/>
    </g>
    <g id="line2d_25">
     <path d="M 952.135 14.533212 
L 962.135 14.533212 
L 972.135 14.533212 
" style="fill: none; stroke: #1f77b4; stroke-width: 1.5; stroke-linecap: square"/>
    </g>
    <g id="text_16">
     <!-- GA -->
     <g transform="translate(980.135 18.033212) scale(0.1 -0.1)">
      <defs>
       <path id="ArialMT-47" d="M 2638 1797 
L 2638 2334 
L 4578 2338 
L 4578 638 
Q 4131 281 3656 101 
Q 3181 -78 2681 -78 
Q 2006 -78 1454 211 
Q 903 500 622 1047 
Q 341 1594 341 2269 
Q 341 2938 620 3517 
Q 900 4097 1425 4378 
Q 1950 4659 2634 4659 
Q 3131 4659 3532 4498 
Q 3934 4338 4162 4050 
Q 4391 3763 4509 3300 
L 3963 3150 
Q 3859 3500 3706 3700 
Q 3553 3900 3268 4020 
Q 2984 4141 2638 4141 
Q 2222 4141 1919 4014 
Q 1616 3888 1430 3681 
Q 1244 3475 1141 3228 
Q 966 2803 966 2306 
Q 966 1694 1177 1281 
Q 1388 869 1791 669 
Q 2194 469 2647 469 
Q 3041 469 3416 620 
Q 3791 772 3984 944 
L 3984 1797 
L 2638 1797 
z
" transform="scale(0.015625)"/>
      </defs>
      <use xlink:href="#ArialMT-47"/>
      <use xlink:href="#ArialMT-41" x="77.783203"/>
     </g>
    </g>
    <g id="line2d_26">
     <path d="M 952.135 28.678525 
L 962.135 28.678525 
L 972.135 28.678525 
" style="fill: none; stroke: #aec7e8; stroke-width: 1.5; stroke-linecap: square"/>
    </g>
    <g id="text_17">
     <!-- Random -->
     <g transform="translate(980.135 32.178525) scale(0.1 -0.1)">
      <defs>
       <path id="ArialMT-52" d="M 503 0 
L 503 4581 
L 2534 4581 
Q 3147 4581 3465 4457 
Q 3784 4334 3975 4021 
Q 4166 3709 4166 3331 
Q 4166 2844 3850 2509 
Q 3534 2175 2875 2084 
Q 3116 1969 3241 1856 
Q 3506 1613 3744 1247 
L 4541 0 
L 3778 0 
L 3172 953 
Q 2906 1366 2734 1584 
Q 2563 1803 2427 1890 
Q 2291 1978 2150 2013 
Q 2047 2034 1813 2034 
L 1109 2034 
L 1109 0 
L 503 0 
z
M 1109 2559 
L 2413 2559 
Q 2828 2559 3062 2645 
Q 3297 2731 3419 2920 
Q 3541 3109 3541 3331 
Q 3541 3656 3305 3865 
Q 3069 4075 2559 4075 
L 1109 4075 
L 1109 2559 
z
" transform="scale(0.015625)"/>
      </defs>
      <use xlink:href="#ArialMT-52"/>
      <use xlink:href="#ArialMT-61" x="72.216797"/>
      <use xlink:href="#ArialMT-6e" x="127.832031"/>
      <use xlink:href="#ArialMT-64" x="183.447266"/>
      <use xlink:href="#ArialMT-6f" x="239.0625"/>
      <use xlink:href="#ArialMT-6d" x="294.677734"/>
     </g>
    </g>
    <g id="line2d_27">
     <path d="M 952.135 42.853525 
L 962.135 42.853525 
L 972.135 42.853525 
" style="fill: none; stroke: #ffbb78; stroke-width: 1.5; stroke-linecap: square"/>
    </g>
    <g id="text_18">
     <!-- chi_2 -->
     <g transform="translate(980.135 46.353525) scale(0.1 -0.1)">
      <defs>
       <path id="ArialMT-5f" d="M -97 -1272 
L -97 -866 
L 3631 -866 
L 3631 -1272 
L -97 -1272 
z
" transform="scale(0.015625)"/>
      </defs>
      <use xlink:href="#ArialMT-63"/>
      <use xlink:href="#ArialMT-68" x="50"/>
      <use xlink:href="#ArialMT-69" x="105.615234"/>
      <use xlink:href="#ArialMT-5f" x="127.832031"/>
      <use xlink:href="#ArialMT-32" x="183.447266"/>
     </g>
    </g>
    <g id="line2d_28">
     <path d="M 952.135 57.120712 
L 962.135 57.120712 
L 972.135 57.120712 
" style="fill: none; stroke: #98df8a; stroke-width: 1.5; stroke-linecap: square"/>
    </g>
    <g id="text_19">
     <!-- f_classif -->
     <g transform="translate(980.135 60.620712) scale(0.1 -0.1)">
      <use xlink:href="#ArialMT-66"/>
      <use xlink:href="#ArialMT-5f" x="27.783203"/>
      <use xlink:href="#ArialMT-63" x="83.398438"/>
      <use xlink:href="#ArialMT-6c" x="133.398438"/>
      <use xlink:href="#ArialMT-61" x="155.615234"/>
      <use xlink:href="#ArialMT-73" x="211.230469"/>
      <use xlink:href="#ArialMT-73" x="261.230469"/>
      <use xlink:href="#ArialMT-69" x="311.230469"/>
      <use xlink:href="#ArialMT-66" x="333.447266"/>
     </g>
    </g>
    <g id="line2d_29">
     <path d="M 952.135 71.3879 
L 962.135 71.3879 
L 972.135 71.3879 
" style="fill: none; stroke: #ff9896; stroke-width: 1.5; stroke-linecap: square"/>
    </g>
    <g id="text_20">
     <!-- mutual_info_classif -->
     <g transform="translate(980.135 74.8879) scale(0.1 -0.1)">
      <use xlink:href="#ArialMT-6d"/>
      <use xlink:href="#ArialMT-75" x="83.300781"/>
      <use xlink:href="#ArialMT-74" x="138.916016"/>
      <use xlink:href="#ArialMT-75" x="166.699219"/>
      <use xlink:href="#ArialMT-61" x="222.314453"/>
      <use xlink:href="#ArialMT-6c" x="277.929688"/>
      <use xlink:href="#ArialMT-5f" x="300.146484"/>
      <use xlink:href="#ArialMT-69" x="355.761719"/>
      <use xlink:href="#ArialMT-6e" x="377.978516"/>
      <use xlink:href="#ArialMT-66" x="433.59375"/>
      <use xlink:href="#ArialMT-6f" x="461.376953"/>
      <use xlink:href="#ArialMT-5f" x="516.992188"/>
      <use xlink:href="#ArialMT-63" x="572.607422"/>
      <use xlink:href="#ArialMT-6c" x="622.607422"/>
      <use xlink:href="#ArialMT-61" x="644.824219"/>
      <use xlink:href="#ArialMT-73" x="700.439453"/>
      <use xlink:href="#ArialMT-73" x="750.439453"/>
      <use xlink:href="#ArialMT-69" x="800.439453"/>
      <use xlink:href="#ArialMT-66" x="822.65625"/>
     </g>
    </g>
    <g id="line2d_30">
     <path d="M 952.135 85.533212 
L 962.135 85.533212 
L 972.135 85.533212 
" style="fill: none; stroke: #c5b0d5; stroke-width: 1.5; stroke-linecap: square"/>
    </g>
    <g id="text_21">
     <!-- lasso -->
     <g transform="translate(980.135 89.033212) scale(0.1 -0.1)">
      <use xlink:href="#ArialMT-6c"/>
      <use xlink:href="#ArialMT-61" x="22.216797"/>
      <use xlink:href="#ArialMT-73" x="77.832031"/>
      <use xlink:href="#ArialMT-73" x="127.832031"/>
      <use xlink:href="#ArialMT-6f" x="177.832031"/>
     </g>
    </g>
    <g id="line2d_31">
     <path d="M 952.135 99.678525 
L 962.135 99.678525 
L 972.135 99.678525 
" style="fill: none; stroke: #8c564b; stroke-width: 1.5; stroke-linecap: square"/>
    </g>
    <g id="text_22">
     <!-- ridge -->
     <g transform="translate(980.135 103.178525) scale(0.1 -0.1)">
      <use xlink:href="#ArialMT-72"/>
      <use xlink:href="#ArialMT-69" x="33.300781"/>
      <use xlink:href="#ArialMT-64" x="55.517578"/>
      <use xlink:href="#ArialMT-67" x="111.132812"/>
      <use xlink:href="#ArialMT-65" x="166.748047"/>
     </g>
    </g>
    <g id="line2d_32">
     <path d="M 952.135 113.941025 
L 962.135 113.941025 
L 972.135 113.941025 
" style="fill: none; stroke: #e377c2; stroke-width: 1.5; stroke-linecap: square"/>
    </g>
    <g id="text_23">
     <!-- elastic_net -->
     <g transform="translate(980.135 117.441025) scale(0.1 -0.1)">
      <use xlink:href="#ArialMT-65"/>
      <use xlink:href="#ArialMT-6c" x="55.615234"/>
      <use xlink:href="#ArialMT-61" x="77.832031"/>
      <use xlink:href="#ArialMT-73" x="133.447266"/>
      <use xlink:href="#ArialMT-74" x="183.447266"/>
      <use xlink:href="#ArialMT-69" x="211.230469"/>
      <use xlink:href="#ArialMT-63" x="233.447266"/>
      <use xlink:href="#ArialMT-5f" x="283.447266"/>
      <use xlink:href="#ArialMT-6e" x="339.0625"/>
      <use xlink:href="#ArialMT-65" x="394.677734"/>
      <use xlink:href="#ArialMT-74" x="450.292969"/>
     </g>
    </g>
    <g id="line2d_33">
     <path d="M 952.135 128.086338 
L 962.135 128.086338 
L 972.135 128.086338 
" style="fill: none; stroke: #7f7f7f; stroke-width: 1.5; stroke-linecap: square"/>
    </g>
    <g id="text_24">
     <!-- rf -->
     <g transform="translate(980.135 131.586338) scale(0.1 -0.1)">
      <use xlink:href="#ArialMT-72"/>
      <use xlink:href="#ArialMT-66" x="33.300781"/>
     </g>
    </g>
    <g id="line2d_34">
     <path d="M 952.135 142.23165 
L 962.135 142.23165 
L 972.135 142.23165 
" style="fill: none; stroke: #bcbd22; stroke-width: 1.5; stroke-linecap: square"/>
    </g>
    <g id="text_25">
     <!-- gbm -->
     <g transform="translate(980.135 145.73165) scale(0.1 -0.1)">
      <use xlink:href="#ArialMT-67"/>
      <use xlink:href="#ArialMT-62" x="55.615234"/>
      <use xlink:href="#ArialMT-6d" x="111.230469"/>
     </g>
    </g>
    <g id="line2d_35">
     <path d="M 952.135 156.49415 
L 962.135 156.49415 
L 972.135 156.49415 
" style="fill: none; stroke: #17becf; stroke-width: 1.5; stroke-linecap: square"/>
    </g>
    <g id="text_26">
     <!-- xgb -->
     <g transform="translate(980.135 159.99415) scale(0.1 -0.1)">
      <defs>
       <path id="ArialMT-78" d="M 47 0 
L 1259 1725 
L 138 3319 
L 841 3319 
L 1350 2541 
Q 1494 2319 1581 2169 
Q 1719 2375 1834 2534 
L 2394 3319 
L 3066 3319 
L 1919 1756 
L 3153 0 
L 2463 0 
L 1781 1031 
L 1600 1309 
L 728 0 
L 47 0 
z
" transform="scale(0.015625)"/>
      </defs>
      <use xlink:href="#ArialMT-78"/>
      <use xlink:href="#ArialMT-67" x="50"/>
      <use xlink:href="#ArialMT-62" x="105.615234"/>
     </g>
    </g>
    <g id="line2d_36">
     <path d="M 952.135 170.75665 
L 962.135 170.75665 
L 972.135 170.75665 
" style="fill: none; stroke: #9edae5; stroke-width: 1.5; stroke-linecap: square"/>
    </g>
    <g id="text_27">
     <!-- nn -->
     <g transform="translate(980.135 174.25665) scale(0.1 -0.1)">
      <use xlink:href="#ArialMT-6e"/>
      <use xlink:href="#ArialMT-6e" x="55.615234"/>
     </g>
    </g>
   </g>
  </g>
 </g>
 <defs>
  <clipPath id="p8f278db932">
   <rect x="44.9" y="30.748" width="898.235" height="577.452"/>
  </clipPath>
 </defs>
</svg>
