<?xml version="1.0" encoding="utf-8" standalone="no"?>
<!DOCTYPE svg PUBLIC "-//W3C//DTD SVG 1.1//EN"
  "http://www.w3.org/Graphics/SVG/1.1/DTD/svg11.dtd">
<svg xmlns:xlink="http://www.w3.org/1999/xlink" width="1080pt" height="648pt" viewBox="0 0 1080 648" xmlns="http://www.w3.org/2000/svg" version="1.1">
 <metadata>
  <rdf:RDF xmlns:dc="http://purl.org/dc/elements/1.1/" xmlns:cc="http://creativecommons.org/ns#" xmlns:rdf="http://www.w3.org/1999/02/22-rdf-syntax-ns#">
   <cc:Work>
    <dc:type rdf:resource="http://purl.org/dc/dcmitype/StillImage"/>
    <dc:date>2024-04-04T23:57:58.996501</dc:date>
    <dc:format>image/svg+xml</dc:format>
    <dc:creator>
     <cc:Agent>
      <dc:title>Matplotlib v3.7.2, https://matplotlib.org/</dc:title>
     </cc:Agent>
    </dc:creator>
   </cc:Work>
  </rdf:RDF>
 </metadata>
 <defs>
  <style type="text/css">*{stroke-linejoin: round; stroke-linecap: butt}</style>
 </defs>
 <g id="figure_1">
  <g id="patch_1">
   <path d="M 0 648 
L 1080 648 
L 1080 0 
L 0 0 
z
" style="fill: #ffffff"/>
  </g>
  <g id="axes_1">
   <g id="patch_2">
    <path d="M 50.915 606.04 
L 933.07 606.04 
L 933.07 30.748 
L 50.915 30.748 
z
" style="fill: #ffffff"/>
   </g>
   <g id="PolyCollection_1">
    <defs>
     <path id="mbbb40dfee8" d="M 50.915 -557.774269 
L 50.915 -553.772585 
L 68.5581 -551.743421 
L 86.2012 -554.640574 
L 103.8443 -556.114132 
L 121.4874 -558.738544 
L 139.1305 -560.399274 
L 156.7736 -561.967904 
L 174.4167 -562.452954 
L 192.0598 -565.901675 
L 209.7029 -565.55511 
L 227.346 -569.673946 
L 244.9891 -568.829192 
L 262.6322 -570.781044 
L 280.2753 -571.418803 
L 297.9184 -572.392698 
L 315.5615 -574.884159 
L 333.2046 -575.496932 
L 350.8477 -576.83675 
L 368.4908 -578.021562 
L 386.1339 -580.101738 
L 403.777 -581.049414 
L 421.4201 -581.025893 
L 439.0632 -583.065098 
L 456.7063 -583.425314 
L 474.3494 -585.609421 
L 491.9925 -586.304312 
L 509.6356 -587.722983 
L 527.2787 -588.478293 
L 544.9218 -588.610843 
L 562.5649 -589.425526 
L 580.208 -590.252137 
L 597.8511 -591.694103 
L 615.4942 -591.953017 
L 633.1373 -592.127697 
L 650.7804 -594.047842 
L 668.4235 -593.517175 
L 686.0666 -594.192249 
L 703.7097 -595.155886 
L 721.3528 -595.530449 
L 738.9959 -597.686226 
L 756.639 -596.4696 
L 774.2821 -597.992612 
L 791.9252 -598.959837 
L 809.5683 -602.069789 
L 827.2114 -602.307468 
L 844.8545 -603.429195 
L 862.4976 -603.45785 
L 880.1407 -603.004641 
L 897.7838 -604.429028 
L 915.4269 -604.819746 
L 933.07 -605.437891 
L 933.07 -606.423037 
L 933.07 -606.423037 
L 915.4269 -606.382953 
L 897.7838 -605.457214 
L 880.1407 -605.960081 
L 862.4976 -605.24358 
L 844.8545 -604.745652 
L 827.2114 -603.892693 
L 809.5683 -604.130371 
L 791.9252 -601.579555 
L 774.2821 -602.020198 
L 756.639 -600.38371 
L 738.9959 -601.141771 
L 721.3528 -600.13805 
L 703.7097 -598.537927 
L 686.0666 -596.605356 
L 668.4235 -597.148785 
L 650.7804 -596.091534 
L 633.1373 -596.43193 
L 615.4942 -594.236986 
L 597.8511 -593.57438 
L 580.208 -593.04166 
L 562.5649 -591.235356 
L 544.9218 -591.260163 
L 527.2787 -590.866131 
L 509.6356 -589.910046 
L 491.9925 -589.485676 
L 474.3494 -588.205881 
L 456.7063 -588.941884 
L 439.0632 -586.405893 
L 421.4201 -586.20712 
L 403.777 -584.340558 
L 386.1339 -584.103423 
L 368.4908 -583.550684 
L 350.8477 -581.575997 
L 333.2046 -579.229734 
L 315.5615 -577.999466 
L 297.9184 -575.620033 
L 280.2753 -575.672408 
L 262.6322 -576.310167 
L 244.9891 -572.601251 
L 227.346 -572.941308 
L 209.7029 -569.42469 
L 192.0598 -569.999645 
L 174.4167 -567.524307 
L 156.7736 -566.824545 
L 139.1305 -564.180511 
L 121.4874 -562.945034 
L 103.8443 -560.961844 
L 86.2012 -560.592361 
L 68.5581 -558.486975 
L 50.915 -557.774269 
z
" style="stroke: #1f77b4; stroke-opacity: 0.2"/>
    </defs>
    <g clip-path="url(#pa091e3705b)">
     <use xlink:href="#mbbb40dfee8" x="0" y="648" style="fill: #1f77b4; fill-opacity: 0.2; stroke: #1f77b4; stroke-opacity: 0.2"/>
    </g>
   </g>
   <g id="PolyCollection_2">
    <defs>
     <path id="m1209a4a5f7" d="M 50.915 -443.778925 
L 50.915 -374.987745 
L 68.5581 -382.565906 
L 86.2012 -388.766381 
L 103.8443 -394.472483 
L 121.4874 -383.258429 
L 139.1305 -390.01273 
L 156.7736 -402.834699 
L 174.4167 -403.308723 
L 192.0598 -413.313789 
L 209.7029 -405.982576 
L 227.346 -392.61147 
L 244.9891 -418.411375 
L 262.6322 -435.557426 
L 280.2753 -433.101684 
L 297.9184 -429.561902 
L 315.5615 -422.303978 
L 333.2046 -436.413744 
L 350.8477 -444.870857 
L 368.4908 -452.347118 
L 386.1339 -437.449463 
L 403.777 -463.143953 
L 421.4201 -464.0875 
L 439.0632 -498.162436 
L 456.7063 -436.650066 
L 474.3494 -467.603514 
L 491.9925 -480.141285 
L 509.6356 -457.954207 
L 527.2787 -469.300456 
L 544.9218 -460.11282 
L 562.5649 -476.354611 
L 580.208 -484.904153 
L 597.8511 -487.756858 
L 615.4942 -476.789815 
L 633.1373 -510.127828 
L 650.7804 -487.431355 
L 668.4235 -472.123552 
L 686.0666 -480.196659 
L 703.7097 -472.322393 
L 721.3528 -490.151179 
L 738.9959 -490.975639 
L 756.639 -502.580325 
L 774.2821 -476.005931 
L 791.9252 -502.197706 
L 809.5683 -500.866489 
L 827.2114 -493.599104 
L 844.8545 -505.25765 
L 862.4976 -520.96405 
L 880.1407 -493.242691 
L 897.7838 -507.862955 
L 915.4269 -538.288812 
L 933.07 -526.293381 
L 933.07 -586.701577 
L 933.07 -586.701577 
L 915.4269 -586.817556 
L 897.7838 -574.458539 
L 880.1407 -562.354712 
L 862.4976 -586.37014 
L 844.8545 -579.433468 
L 827.2114 -562.91982 
L 809.5683 -574.082842 
L 791.9252 -569.723772 
L 774.2821 -535.885077 
L 756.639 -574.343692 
L 738.9959 -568.1762 
L 721.3528 -559.917102 
L 703.7097 -556.287628 
L 686.0666 -551.836152 
L 668.4235 -549.64089 
L 650.7804 -568.692631 
L 633.1373 -559.424026 
L 615.4942 -539.840441 
L 597.8511 -534.665812 
L 580.208 -548.971699 
L 562.5649 -556.336429 
L 544.9218 -528.081951 
L 527.2787 -531.7956 
L 509.6356 -530.898793 
L 491.9925 -540.56999 
L 474.3494 -541.654579 
L 456.7063 -506.785144 
L 439.0632 -556.513447 
L 421.4201 -532.927537 
L 403.777 -530.448294 
L 386.1339 -510.593349 
L 368.4908 -526.369157 
L 350.8477 -514.756782 
L 333.2046 -515.315149 
L 315.5615 -499.278035 
L 297.9184 -524.273323 
L 280.2753 -503.619592 
L 262.6322 -515.513239 
L 244.9891 -487.768083 
L 227.346 -467.755261 
L 209.7029 -475.184186 
L 192.0598 -476.541594 
L 174.4167 -473.908667 
L 156.7736 -456.873803 
L 139.1305 -468.905898 
L 121.4874 -445.250027 
L 103.8443 -481.955032 
L 86.2012 -448.693987 
L 68.5581 -430.934933 
L 50.915 -443.778925 
z
" style="stroke: #ff7f0e; stroke-opacity: 0.2"/>
    </defs>
    <g clip-path="url(#pa091e3705b)">
     <use xlink:href="#m1209a4a5f7" x="0" y="648" style="fill: #ff7f0e; fill-opacity: 0.2; stroke: #ff7f0e; stroke-opacity: 0.2"/>
    </g>
   </g>
   <g id="PolyCollection_3">
    <defs>
     <path id="m39527b320c" d="M 50.915 -566.069066 
L 50.915 -552.060076 
L 68.5581 -553.584155 
L 86.2012 -557.052725 
L 103.8443 -559.989557 
L 121.4874 -566.094035 
L 139.1305 -567.900824 
L 156.7736 -569.263417 
L 174.4167 -570.592624 
L 192.0598 -572.450285 
L 209.7029 -574.340679 
L 227.346 -576.161229 
L 244.9891 -577.205771 
L 262.6322 -578.502018 
L 280.2753 -579.469665 
L 297.9184 -580.495484 
L 315.5615 -581.15333 
L 333.2046 -582.408668 
L 350.8477 -583.199842 
L 368.4908 -583.933486 
L 386.1339 -584.903194 
L 403.777 -584.983096 
L 421.4201 -586.493239 
L 439.0632 -587.912425 
L 456.7063 -588.09079 
L 474.3494 -589.025715 
L 491.9925 -590.17864 
L 509.6356 -590.364537 
L 527.2787 -591.325893 
L 544.9218 -591.994566 
L 562.5649 -592.424383 
L 580.208 -593.784103 
L 597.8511 -594.27488 
L 615.4942 -595.670164 
L 633.1373 -596.745336 
L 650.7804 -597.388839 
L 668.4235 -597.83949 
L 686.0666 -598.571499 
L 703.7097 -598.940107 
L 721.3528 -600.109751 
L 738.9959 -601.491176 
L 756.639 -602.61839 
L 774.2821 -602.76249 
L 791.9252 -603.369054 
L 809.5683 -604.375263 
L 827.2114 -605.152607 
L 844.8545 -605.251305 
L 862.4976 -606.257934 
L 880.1407 -606.507211 
L 897.7838 -607.16544 
L 915.4269 -608.089149 
L 933.07 -608.278346 
L 933.07 -610.691453 
L 933.07 -610.691453 
L 915.4269 -610.354068 
L 897.7838 -610.224611 
L 880.1407 -609.566382 
L 862.4976 -608.894138 
L 844.8545 -608.58431 
L 827.2114 -608.024779 
L 809.5683 -607.880602 
L 791.9252 -607.175416 
L 774.2821 -606.86046 
L 756.639 -605.951394 
L 738.9959 -605.235567 
L 721.3528 -605.037243 
L 703.7097 -604.232201 
L 686.0666 -603.810934 
L 668.4235 -603.621423 
L 650.7804 -603.018908 
L 633.1373 -602.477598 
L 615.4942 -602.104667 
L 597.8511 -602.183493 
L 580.208 -601.75275 
L 562.5649 -600.479555 
L 544.9218 -600.382788 
L 527.2787 -599.86665 
L 509.6356 -598.590028 
L 491.9925 -597.722758 
L 474.3494 -596.769351 
L 456.7063 -595.861236 
L 439.0632 -594.854789 
L 421.4201 -594.299289 
L 403.777 -593.834745 
L 386.1339 -593.519709 
L 368.4908 -592.514731 
L 350.8477 -592.195208 
L 333.2046 -591.274988 
L 315.5615 -590.55564 
L 297.9184 -590.028674 
L 280.2753 -589.079806 
L 262.6322 -587.941121 
L 244.9891 -587.262681 
L 227.346 -586.200891 
L 209.7029 -584.335359 
L 192.0598 -583.592838 
L 174.4167 -582.554292 
L 156.7736 -579.802481 
L 139.1305 -576.557472 
L 121.4874 -575.994637 
L 103.8443 -574.990244 
L 86.2012 -571.081495 
L 68.5581 -569.547527 
L 50.915 -566.069066 
z
" style="stroke: #2ca02c; stroke-opacity: 0.2"/>
    </defs>
    <g clip-path="url(#pa091e3705b)">
     <use xlink:href="#m39527b320c" x="0" y="648" style="fill: #2ca02c; fill-opacity: 0.2; stroke: #2ca02c; stroke-opacity: 0.2"/>
    </g>
   </g>
   <g id="PolyCollection_4">
    <defs>
     <path id="m688cc79e3e" d="M 50.915 -565.406941 
L 50.915 -547.588017 
L 68.5581 -552.994544 
L 86.2012 -556.000904 
L 103.8443 -557.633364 
L 121.4874 -558.616266 
L 139.1305 -561.742399 
L 156.7736 -562.328128 
L 174.4167 -565.698727 
L 192.0598 -566.366087 
L 209.7029 -568.127778 
L 227.346 -568.891877 
L 244.9891 -569.486276 
L 262.6322 -570.191671 
L 280.2753 -571.462076 
L 297.9184 -572.21085 
L 315.5615 -572.345144 
L 333.2046 -574.063302 
L 350.8477 -575.303587 
L 368.4908 -576.319716 
L 386.1339 -577.370755 
L 403.777 -578.440141 
L 421.4201 -579.099599 
L 439.0632 -579.779827 
L 456.7063 -581.821899 
L 474.3494 -583.744113 
L 491.9925 -584.368713 
L 509.6356 -585.452868 
L 527.2787 -585.979451 
L 544.9218 -587.133284 
L 562.5649 -587.907634 
L 580.208 -588.189563 
L 597.8511 -588.870923 
L 615.4942 -590.317198 
L 633.1373 -591.164252 
L 650.7804 -592.239304 
L 668.4235 -593.150552 
L 686.0666 -593.659147 
L 703.7097 -594.591977 
L 721.3528 -595.445151 
L 738.9959 -597.456868 
L 756.639 -598.644391 
L 774.2821 -599.155948 
L 791.9252 -599.749243 
L 809.5683 -600.959449 
L 827.2114 -601.397751 
L 844.8545 -602.002533 
L 862.4976 -602.231251 
L 880.1407 -602.777904 
L 897.7838 -603.110048 
L 915.4269 -604.15409 
L 933.07 -604.793678 
L 933.07 -609.436874 
L 933.07 -609.436874 
L 915.4269 -609.286587 
L 897.7838 -608.750881 
L 880.1407 -607.766566 
L 862.4976 -607.523345 
L 844.8545 -606.830542 
L 827.2114 -606.64545 
L 809.5683 -606.425523 
L 791.9252 -605.397751 
L 774.2821 -604.93788 
L 756.639 -604.396271 
L 738.9959 -603.609107 
L 721.3528 -603.251201 
L 703.7097 -602.787917 
L 686.0666 -602.272644 
L 668.4235 -601.596426 
L 650.7804 -600.796279 
L 633.1373 -599.896645 
L 615.4942 -599.16395 
L 597.8511 -598.372246 
L 580.208 -598.132087 
L 562.5649 -597.492495 
L 544.9218 -596.950387 
L 527.2787 -594.418139 
L 509.6356 -593.891556 
L 491.9925 -592.342796 
L 474.3494 -591.256001 
L 456.7063 -590.808591 
L 439.0632 -590.086102 
L 421.4201 -588.133415 
L 403.777 -587.213124 
L 386.1339 -586.70276 
L 368.4908 -585.384175 
L 350.8477 -584.557264 
L 333.2046 -583.822862 
L 315.5615 -583.434688 
L 297.9184 -582.647462 
L 280.2753 -582.079778 
L 262.6322 -580.190684 
L 244.9891 -579.053038 
L 227.346 -578.33098 
L 209.7029 -577.51533 
L 192.0598 -576.249168 
L 174.4167 -575.336779 
L 156.7736 -575.54788 
L 139.1305 -574.81715 
L 121.4874 -574.257202 
L 103.8443 -573.002126 
L 86.2012 -570.553568 
L 68.5581 -566.319411 
L 50.915 -565.406941 
z
" style="stroke: #d62728; stroke-opacity: 0.2"/>
    </defs>
    <g clip-path="url(#pa091e3705b)">
     <use xlink:href="#m688cc79e3e" x="0" y="648" style="fill: #d62728; fill-opacity: 0.2; stroke: #d62728; stroke-opacity: 0.2"/>
    </g>
   </g>
   <g id="PolyCollection_5">
    <defs>
     <path id="m7873b46f6a" d="M 50.915 -557.104218 
L 50.915 -549.835035 
L 68.5581 -551.129624 
L 86.2012 -551.252275 
L 103.8443 -551.680878 
L 121.4874 -553.411556 
L 139.1305 -553.408345 
L 156.7736 -554.536303 
L 174.4167 -555.884344 
L 192.0598 -555.933782 
L 209.7029 -557.025998 
L 227.346 -558.10491 
L 244.9891 -559.481011 
L 262.6322 -560.989044 
L 280.2753 -562.608889 
L 297.9184 -565.089103 
L 315.5615 -567.44245 
L 333.2046 -568.075548 
L 350.8477 -568.676593 
L 368.4908 -569.324288 
L 386.1339 -570.946557 
L 403.777 -573.043189 
L 421.4201 -574.33548 
L 439.0632 -575.19379 
L 456.7063 -575.758486 
L 474.3494 -576.63875 
L 491.9925 -578.114709 
L 509.6356 -579.786043 
L 527.2787 -580.703574 
L 544.9218 -581.922507 
L 562.5649 -583.612769 
L 580.208 -584.732505 
L 597.8511 -584.764251 
L 615.4942 -585.966794 
L 633.1373 -586.640249 
L 650.7804 -588.816514 
L 668.4235 -589.504243 
L 686.0666 -590.042629 
L 703.7097 -590.796083 
L 721.3528 -591.545992 
L 738.9959 -592.292833 
L 756.639 -592.924076 
L 774.2821 -593.188931 
L 791.9252 -593.463574 
L 809.5683 -593.734831 
L 827.2114 -594.3899 
L 844.8545 -594.695018 
L 862.4976 -595.890979 
L 880.1407 -596.618738 
L 897.7838 -597.3031 
L 915.4269 -597.87696 
L 933.07 -597.943149 
L 933.07 -602.727889 
L 933.07 -602.727889 
L 915.4269 -602.399141 
L 897.7838 -602.051481 
L 880.1407 -601.024448 
L 862.4976 -600.962332 
L 844.8545 -600.446898 
L 827.2114 -599.435558 
L 809.5683 -599.169107 
L 791.9252 -598.255552 
L 774.2821 -597.477028 
L 756.639 -596.162134 
L 738.9959 -595.47692 
L 721.3528 -595.038949 
L 703.7097 -594.340754 
L 686.0666 -593.777751 
L 668.4235 -592.99968 
L 650.7804 -592.502596 
L 633.1373 -591.914301 
L 615.4942 -591.139652 
L 597.8511 -590.762446 
L 580.208 -590.5309 
L 562.5649 -589.412658 
L 544.9218 -589.128234 
L 527.2787 -587.714252 
L 509.6356 -586.262158 
L 491.9925 -584.90564 
L 474.3494 -584.801849 
L 456.7063 -584.760593 
L 439.0632 -583.482248 
L 421.4201 -582.629163 
L 403.777 -582.341705 
L 386.1339 -581.147193 
L 368.4908 -579.346673 
L 350.8477 -577.888035 
L 333.2046 -577.699205 
L 315.5615 -576.620908 
L 297.9184 -575.683111 
L 280.2753 -574.60889 
L 262.6322 -573.464173 
L 244.9891 -571.549417 
L 227.346 -569.502727 
L 209.7029 -568.212016 
L 192.0598 -564.959921 
L 174.4167 -563.42961 
L 156.7736 -562.539673 
L 139.1305 -561.034715 
L 121.4874 -560.109984 
L 103.8443 -559.207747 
L 86.2012 -558.583184 
L 68.5581 -557.389377 
L 50.915 -557.104218 
z
" style="stroke: #9467bd; stroke-opacity: 0.2"/>
    </defs>
    <g clip-path="url(#pa091e3705b)">
     <use xlink:href="#m7873b46f6a" x="0" y="648" style="fill: #9467bd; fill-opacity: 0.2; stroke: #9467bd; stroke-opacity: 0.2"/>
    </g>
   </g>
   <g id="PolyCollection_6">
    <defs>
     <path id="mcd0a4c8a9e" d="M 50.915 -569.342503 
L 50.915 -562.082862 
L 68.5581 -563.273529 
L 86.2012 -564.330402 
L 103.8443 -565.955567 
L 121.4874 -568.562133 
L 139.1305 -569.220556 
L 156.7736 -576.109408 
L 174.4167 -576.692469 
L 192.0598 -578.458984 
L 209.7029 -581.918793 
L 227.346 -582.833529 
L 244.9891 -583.706345 
L 262.6322 -584.286082 
L 280.2753 -587.228548 
L 297.9184 -587.924929 
L 315.5615 -588.779858 
L 333.2046 -589.184696 
L 350.8477 -590.659555 
L 368.4908 -592.746611 
L 386.1339 -593.651796 
L 403.777 -593.984804 
L 421.4201 -594.333417 
L 439.0632 -595.716062 
L 456.7063 -596.60197 
L 474.3494 -597.164166 
L 491.9925 -598.443713 
L 509.6356 -599.024744 
L 527.2787 -600.048157 
L 544.9218 -600.460195 
L 562.5649 -601.251903 
L 580.208 -601.941985 
L 597.8511 -603.225408 
L 615.4942 -603.846227 
L 633.1373 -604.733171 
L 650.7804 -605.487931 
L 668.4235 -605.970569 
L 686.0666 -606.428694 
L 703.7097 -607.097434 
L 721.3528 -607.484142 
L 738.9959 -607.68247 
L 756.639 -607.876797 
L 774.2821 -608.357708 
L 791.9252 -608.603484 
L 809.5683 -609.336925 
L 827.2114 -609.607808 
L 844.8545 -610.461372 
L 862.4976 -610.669712 
L 880.1407 -611.011316 
L 897.7838 -611.196295 
L 915.4269 -611.207342 
L 933.07 -611.854524 
L 933.07 -613.565919 
L 933.07 -613.565919 
L 915.4269 -612.764996 
L 897.7838 -612.381107 
L 880.1407 -612.039502 
L 862.4976 -611.986169 
L 844.8545 -611.667926 
L 827.2114 -611.59997 
L 809.5683 -611.475915 
L 791.9252 -611.15619 
L 774.2821 -611.007028 
L 756.639 -610.961356 
L 738.9959 -610.629101 
L 721.3528 -610.1692 
L 703.7097 -610.029325 
L 686.0666 -609.513253 
L 668.4235 -608.523275 
L 650.7804 -608.084392 
L 633.1373 -607.522695 
L 615.4942 -606.961535 
L 597.8511 -606.660833 
L 580.208 -605.969571 
L 562.5649 -605.47484 
L 544.9218 -604.818445 
L 527.2787 -604.572254 
L 509.6356 -602.831106 
L 491.9925 -602.490616 
L 474.3494 -601.927123 
L 456.7063 -601.304507 
L 439.0632 -600.47902 
L 421.4201 -600.018624 
L 403.777 -598.524197 
L 386.1339 -598.06733 
L 368.4908 -597.26112 
L 350.8477 -596.057032 
L 333.2046 -595.68885 
L 315.5615 -595.435459 
L 297.9184 -594.842285 
L 280.2753 -593.563979 
L 262.6322 -592.293781 
L 244.9891 -590.898831 
L 227.346 -588.480503 
L 209.7029 -587.288907 
L 192.0598 -585.35124 
L 174.4167 -583.563319 
L 156.7736 -582.698276 
L 139.1305 -580.898508 
L 121.4874 -579.450599 
L 103.8443 -578.502728 
L 86.2012 -573.940543 
L 68.5581 -572.627792 
L 50.915 -569.342503 
z
" style="stroke: #8c564b; stroke-opacity: 0.2"/>
    </defs>
    <g clip-path="url(#pa091e3705b)">
     <use xlink:href="#mcd0a4c8a9e" x="0" y="648" style="fill: #8c564b; fill-opacity: 0.2; stroke: #8c564b; stroke-opacity: 0.2"/>
    </g>
   </g>
   <g id="PolyCollection_7">
    <defs>
     <path id="md6fe6907b8" d="M 50.915 -579.001656 
L 50.915 -572.433865 
L 68.5581 -575.106603 
L 86.2012 -576.794122 
L 103.8443 -579.287876 
L 121.4874 -580.888313 
L 139.1305 -582.513234 
L 156.7736 -583.856279 
L 174.4167 -585.481831 
L 192.0598 -586.390134 
L 209.7029 -587.928137 
L 227.346 -589.301064 
L 244.9891 -589.69729 
L 262.6322 -589.803074 
L 280.2753 -591.200811 
L 297.9184 -593.430113 
L 315.5615 -594.256502 
L 333.2046 -595.020408 
L 350.8477 -595.953415 
L 368.4908 -597.349937 
L 386.1339 -597.952299 
L 403.777 -598.375331 
L 421.4201 -598.613889 
L 439.0632 -599.611467 
L 456.7063 -599.778866 
L 474.3494 -600.116309 
L 491.9925 -600.86996 
L 509.6356 -601.191216 
L 527.2787 -601.80234 
L 544.9218 -602.053019 
L 562.5649 -602.654578 
L 580.208 -603.777027 
L 597.8511 -604.321098 
L 615.4942 -605.214271 
L 633.1373 -606.325401 
L 650.7804 -606.613673 
L 668.4235 -607.573298 
L 686.0666 -608.287052 
L 703.7097 -608.574427 
L 721.3528 -608.763045 
L 738.9959 -609.221608 
L 756.639 -609.43183 
L 774.2821 -609.829132 
L 791.9252 -609.948658 
L 809.5683 -610.200031 
L 827.2114 -610.274774 
L 844.8545 -610.641146 
L 862.4976 -610.772792 
L 880.1407 -611.154612 
L 897.7838 -611.400413 
L 915.4269 -611.487062 
L 933.07 -611.722878 
L 933.07 -612.117815 
L 933.07 -612.117815 
L 915.4269 -612.090339 
L 897.7838 -612.045343 
L 880.1407 -612.027852 
L 862.4976 -612.014735 
L 844.8545 -611.883089 
L 827.2114 -611.854524 
L 809.5683 -611.665976 
L 791.9252 -611.390765 
L 774.2821 -611.247 
L 756.639 -611.117719 
L 738.9959 -610.933003 
L 721.3528 -610.733338 
L 703.7097 -610.132081 
L 686.0666 -609.629581 
L 668.4235 -609.158523 
L 650.7804 -608.670045 
L 633.1373 -608.168442 
L 615.4942 -607.963115 
L 597.8511 -607.276538 
L 580.208 -606.767444 
L 562.5649 -606.046852 
L 544.9218 -605.595244 
L 527.2787 -604.792757 
L 509.6356 -604.219069 
L 491.9925 -603.618805 
L 474.3494 -602.529416 
L 456.7063 -601.682047 
L 439.0632 -601.191216 
L 421.4201 -600.740691 
L 403.777 -600.452666 
L 386.1339 -599.55924 
L 368.4908 -598.845145 
L 350.8477 -598.398626 
L 333.2046 -598.146822 
L 315.5615 -597.067686 
L 297.9184 -596.314327 
L 280.2753 -595.910713 
L 262.6322 -595.333763 
L 244.9891 -593.991445 
L 227.346 -593.46615 
L 209.7029 -592.601098 
L 192.0598 -591.637832 
L 174.4167 -591.098032 
L 156.7736 -589.959022 
L 139.1305 -588.010923 
L 121.4874 -586.213055 
L 103.8443 -584.522347 
L 86.2012 -582.935083 
L 68.5581 -581.594749 
L 50.915 -579.001656 
z
" style="stroke: #e377c2; stroke-opacity: 0.2"/>
    </defs>
    <g clip-path="url(#pa091e3705b)">
     <use xlink:href="#md6fe6907b8" x="0" y="648" style="fill: #e377c2; fill-opacity: 0.2; stroke: #e377c2; stroke-opacity: 0.2"/>
    </g>
   </g>
   <g id="PolyCollection_8">
    <defs>
     <path id="m94e0c8cb61" d="M 50.915 -578.192533 
L 50.915 -568.898678 
L 68.5581 -571.507629 
L 86.2012 -574.009156 
L 103.8443 -574.684607 
L 121.4874 -576.002448 
L 139.1305 -579.065558 
L 156.7736 -581.656387 
L 174.4167 -582.697586 
L 192.0598 -583.441067 
L 209.7029 -585.466137 
L 227.346 -586.526394 
L 244.9891 -588.583012 
L 262.6322 -589.730304 
L 280.2753 -590.359973 
L 297.9184 -591.536437 
L 315.5615 -591.777761 
L 333.2046 -593.728957 
L 350.8477 -594.627173 
L 368.4908 -596.1115 
L 386.1339 -597.0031 
L 403.777 -598.059387 
L 421.4201 -598.637058 
L 439.0632 -599.46604 
L 456.7063 -599.675646 
L 474.3494 -600.774538 
L 491.9925 -601.239312 
L 509.6356 -602.155248 
L 527.2787 -603.125 
L 544.9218 -603.273808 
L 562.5649 -603.962376 
L 580.208 -604.577986 
L 597.8511 -605.030144 
L 615.4942 -605.825416 
L 633.1373 -606.386038 
L 650.7804 -607.023044 
L 668.4235 -607.152427 
L 686.0666 -607.905151 
L 703.7097 -608.431734 
L 721.3528 -608.723681 
L 738.9959 -609.221608 
L 756.639 -609.275751 
L 774.2821 -609.879837 
L 791.9252 -610.143129 
L 809.5683 -610.143129 
L 827.2114 -610.461372 
L 844.8545 -610.739203 
L 862.4976 -611.215502 
L 880.1407 -611.591232 
L 897.7838 -611.722878 
L 915.4269 -611.932836 
L 933.07 -611.932836 
L 933.07 -612.961023 
L 933.07 -612.961023 
L 915.4269 -612.961023 
L 897.7838 -612.512752 
L 880.1407 -612.512752 
L 862.4976 -612.098608 
L 844.8545 -611.916678 
L 827.2114 -611.667926 
L 809.5683 -611.722878 
L 791.9252 -611.591232 
L 774.2821 -611.591232 
L 756.639 -611.142152 
L 738.9959 -611.064649 
L 721.3528 -610.509411 
L 703.7097 -610.143129 
L 686.0666 -609.748191 
L 668.4235 -609.447749 
L 650.7804 -609.182195 
L 633.1373 -608.89768 
L 615.4942 -608.405136 
L 597.8511 -608.278888 
L 580.208 -607.019651 
L 562.5649 -606.582094 
L 544.9218 -606.217497 
L 527.2787 -605.708076 
L 509.6356 -604.966432 
L 491.9925 -604.434265 
L 474.3494 -603.187644 
L 456.7063 -602.31185 
L 439.0632 -601.994873 
L 421.4201 -601.639043 
L 403.777 -601.163548 
L 386.1339 -600.508439 
L 368.4908 -599.556999 
L 350.8477 -598.40841 
L 333.2046 -597.858523 
L 315.5615 -597.30845 
L 297.9184 -596.628253 
L 280.2753 -595.171802 
L 262.6322 -594.221721 
L 244.9891 -593.789265 
L 227.346 -591.896509 
L 209.7029 -591.377017 
L 192.0598 -588.926131 
L 174.4167 -587.694926 
L 156.7736 -586.103209 
L 139.1305 -584.744665 
L 121.4874 -583.068528 
L 103.8443 -582.674974 
L 86.2012 -581.770676 
L 68.5581 -580.059539 
L 50.915 -578.192533 
z
" style="stroke: #7f7f7f; stroke-opacity: 0.2"/>
    </defs>
    <g clip-path="url(#pa091e3705b)">
     <use xlink:href="#m94e0c8cb61" x="0" y="648" style="fill: #7f7f7f; fill-opacity: 0.2; stroke: #7f7f7f; stroke-opacity: 0.2"/>
    </g>
   </g>
   <g id="PolyCollection_9">
    <defs>
     <path id="mb0eee881b4" d="M 50.915 -573.651745 
L 50.915 -570.279968 
L 68.5581 -570.941687 
L 86.2012 -572.020222 
L 103.8443 -573.926569 
L 121.4874 -575.477664 
L 139.1305 -576.538973 
L 156.7736 -578.485428 
L 174.4167 -579.361332 
L 192.0598 -580.608566 
L 209.7029 -583.972068 
L 227.346 -585.917099 
L 244.9891 -587.400713 
L 262.6322 -588.804836 
L 280.2753 -590.36094 
L 297.9184 -591.642572 
L 315.5615 -592.536576 
L 333.2046 -594.168168 
L 350.8477 -595.360413 
L 368.4908 -596.626532 
L 386.1339 -597.483315 
L 403.777 -598.319558 
L 421.4201 -598.821593 
L 439.0632 -600.371725 
L 456.7063 -601.546563 
L 474.3494 -601.992139 
L 491.9925 -602.253198 
L 509.6356 -602.911427 
L 527.2787 -603.297549 
L 544.9218 -603.740767 
L 562.5649 -603.899677 
L 580.208 -604.160418 
L 597.8511 -604.863516 
L 615.4942 -605.204768 
L 633.1373 -605.356286 
L 650.7804 -605.667173 
L 668.4235 -606.083072 
L 686.0666 -606.350708 
L 703.7097 -606.706557 
L 721.3528 -606.944712 
L 738.9959 -607.554939 
L 756.639 -607.603787 
L 774.2821 -607.69948 
L 791.9252 -608.110478 
L 809.5683 -608.39083 
L 827.2114 -608.431734 
L 844.8545 -608.765343 
L 862.4976 -609.148325 
L 880.1407 -609.582369 
L 897.7838 -610.068199 
L 915.4269 -610.422017 
L 933.07 -610.422017 
L 933.07 -612.628802 
L 933.07 -612.628802 
L 915.4269 -612.628802 
L 897.7838 -612.456037 
L 880.1407 -612.151992 
L 862.4976 -612.059453 
L 844.8545 -611.65256 
L 827.2114 -611.459586 
L 809.5683 -610.973907 
L 791.9252 -610.859322 
L 774.2821 -610.3488 
L 756.639 -609.917909 
L 738.9959 -609.835111 
L 721.3528 -609.655464 
L 703.7097 -609.23539 
L 686.0666 -609.064655 
L 668.4235 -608.542418 
L 650.7804 -608.168442 
L 633.1373 -607.952746 
L 615.4942 -607.840972 
L 597.8511 -607.392349 
L 580.208 -607.173927 
L 562.5649 -606.118211 
L 544.9218 -605.487246 
L 527.2787 -605.140589 
L 509.6356 -604.868482 
L 491.9925 -604.210253 
L 474.3494 -603.549793 
L 456.7063 -603.337139 
L 439.0632 -603.327165 
L 421.4201 -602.112737 
L 403.777 -601.824897 
L 386.1339 -601.476328 
L 368.4908 -600.621716 
L 350.8477 -599.913149 
L 333.2046 -599.130707 
L 315.5615 -597.602801 
L 297.9184 -596.653764 
L 280.2753 -595.302481 
L 262.6322 -594.752253 
L 244.9891 -592.733585 
L 227.346 -591.320993 
L 209.7029 -589.843233 
L 192.0598 -588.204196 
L 174.4167 -586.028641 
L 156.7736 -585.456441 
L 139.1305 -584.111752 
L 121.4874 -581.618625 
L 103.8443 -580.141867 
L 86.2012 -577.703905 
L 68.5581 -575.096358 
L 50.915 -573.651745 
z
" style="stroke: #bcbd22; stroke-opacity: 0.2"/>
    </defs>
    <g clip-path="url(#pa091e3705b)">
     <use xlink:href="#mb0eee881b4" x="0" y="648" style="fill: #bcbd22; fill-opacity: 0.2; stroke: #bcbd22; stroke-opacity: 0.2"/>
    </g>
   </g>
   <g id="PolyCollection_10">
    <defs>
     <path id="m563def2081" d="M 50.915 -574.993709 
L 50.915 -569.596232 
L 68.5581 -571.143901 
L 86.2012 -573.036628 
L 103.8443 -574.072189 
L 121.4874 -576.38387 
L 139.1305 -577.982038 
L 156.7736 -581.149544 
L 174.4167 -582.562244 
L 192.0598 -584.755534 
L 209.7029 -585.307412 
L 227.346 -586.155532 
L 244.9891 -588.220193 
L 262.6322 -588.831513 
L 280.2753 -590.210574 
L 297.9184 -590.591718 
L 315.5615 -592.37095 
L 333.2046 -592.781111 
L 350.8477 -594.12749 
L 368.4908 -594.757426 
L 386.1339 -596.828176 
L 403.777 -597.582549 
L 421.4201 -597.948673 
L 439.0632 -598.479189 
L 456.7063 -599.772167 
L 474.3494 -600.840543 
L 491.9925 -601.392908 
L 509.6356 -601.930948 
L 527.2787 -602.485216 
L 544.9218 -603.263942 
L 562.5649 -603.884819 
L 580.208 -604.260822 
L 597.8511 -604.516465 
L 615.4942 -605.578444 
L 633.1373 -605.798818 
L 650.7804 -606.2151 
L 668.4235 -606.25855 
L 686.0666 -606.720339 
L 703.7097 -607.115276 
L 721.3528 -607.594165 
L 738.9959 -607.658917 
L 756.639 -608.19299 
L 774.2821 -608.18211 
L 791.9252 -608.528296 
L 809.5683 -608.592879 
L 827.2114 -609.138058 
L 844.8545 -610.150465 
L 862.4976 -610.150465 
L 880.1407 -610.16409 
L 897.7838 -610.23766 
L 915.4269 -610.720807 
L 933.07 -610.926437 
L 933.07 -613.572484 
L 933.07 -613.572484 
L 915.4269 -613.383178 
L 897.7838 -613.07645 
L 880.1407 -612.623436 
L 862.4976 -612.505416 
L 844.8545 -612.505416 
L 827.2114 -612.333011 
L 809.5683 -612.088316 
L 791.9252 -612.021253 
L 774.2821 -611.972502 
L 756.639 -611.698329 
L 738.9959 -611.70582 
L 721.3528 -611.638926 
L 703.7097 -610.801357 
L 686.0666 -610.669712 
L 668.4235 -610.473271 
L 650.7804 -610.25343 
L 633.1373 -610.143129 
L 615.4942 -609.573628 
L 597.8511 -609.055858 
L 580.208 -608.784918 
L 562.5649 -608.107755 
L 544.9218 -607.938757 
L 527.2787 -607.137734 
L 509.6356 -607.165419 
L 491.9925 -606.518647 
L 474.3494 -605.886201 
L 456.7063 -605.111535 
L 439.0632 -604.03489 
L 421.4201 -603.248948 
L 403.777 -602.43026 
L 386.1339 -601.473238 
L 368.4908 -600.911073 
L 350.8477 -600.224551 
L 333.2046 -599.596244 
L 315.5615 -598.558301 
L 297.9184 -597.046389 
L 280.2753 -595.716138 
L 262.6322 -594.59393 
L 244.9891 -593.757146 
L 227.346 -591.740789 
L 209.7029 -590.614222 
L 192.0598 -589.059767 
L 174.4167 -586.51381 
L 156.7736 -585.030304 
L 139.1305 -583.721853 
L 121.4874 -582.423814 
L 103.8443 -580.522831 
L 86.2012 -578.925477 
L 68.5581 -577.658704 
L 50.915 -574.993709 
z
" style="stroke: #17becf; stroke-opacity: 0.2"/>
    </defs>
    <g clip-path="url(#pa091e3705b)">
     <use xlink:href="#m563def2081" x="0" y="648" style="fill: #17becf; fill-opacity: 0.2; stroke: #17becf; stroke-opacity: 0.2"/>
    </g>
   </g>
   <g id="PolyCollection_11">
    <defs>
     <path id="me9f93e2894" d="M 50.915 -549.752599 
L 50.915 -539.282829 
L 68.5581 -541.548375 
L 86.2012 -543.02556 
L 103.8443 -546.458922 
L 121.4874 -549.091837 
L 139.1305 -555.882643 
L 156.7736 -558.569803 
L 174.4167 -562.019653 
L 192.0598 -563.392678 
L 209.7029 -565.629568 
L 227.346 -567.481575 
L 244.9891 -570.866564 
L 262.6322 -572.236174 
L 280.2753 -575.954703 
L 297.9184 -577.744611 
L 315.5615 -578.124386 
L 333.2046 -578.891863 
L 350.8477 -580.707685 
L 368.4908 -582.854491 
L 386.1339 -584.084293 
L 403.777 -585.441664 
L 421.4201 -587.22236 
L 439.0632 -590.087844 
L 456.7063 -592.067608 
L 474.3494 -593.76891 
L 491.9925 -594.033032 
L 509.6356 -595.842151 
L 527.2787 -596.776249 
L 544.9218 -596.823385 
L 562.5649 -597.900072 
L 580.208 -598.598567 
L 597.8511 -600.029239 
L 615.4942 -600.227663 
L 633.1373 -600.603262 
L 650.7804 -600.734908 
L 668.4235 -600.959449 
L 686.0666 -601.213245 
L 703.7097 -601.730674 
L 721.3528 -602.047717 
L 738.9959 -602.690462 
L 756.639 -603.646296 
L 774.2821 -604.09455 
L 791.9252 -604.633451 
L 809.5683 -605.475019 
L 827.2114 -605.887111 
L 844.8545 -606.42575 
L 862.4976 -606.787297 
L 880.1407 -606.935936 
L 897.7838 -607.318427 
L 915.4269 -607.773505 
L 933.07 -607.860283 
L 933.07 -611.767746 
L 933.07 -611.767746 
L 915.4269 -611.459586 
L 897.7838 -611.124789 
L 880.1407 -610.980697 
L 862.4976 -610.602754 
L 844.8545 -609.779489 
L 827.2114 -609.528253 
L 809.5683 -609.545407 
L 791.9252 -609.070518 
L 774.2821 -608.95119 
L 756.639 -607.819695 
L 738.9959 -607.722362 
L 721.3528 -607.443588 
L 703.7097 -607.102402 
L 686.0666 -606.69831 
L 668.4235 -606.425523 
L 650.7804 -605.596898 
L 633.1373 -605.465252 
L 615.4942 -604.392748 
L 597.8511 -603.801298 
L 580.208 -602.862346 
L 562.5649 -602.63932 
L 544.9218 -602.004612 
L 527.2787 -601.261874 
L 509.6356 -600.08964 
L 491.9925 -599.002551 
L 474.3494 -599.003382 
L 456.7063 -598.598352 
L 439.0632 -597.813555 
L 421.4201 -596.861312 
L 403.777 -595.877446 
L 386.1339 -593.943673 
L 368.4908 -592.935497 
L 350.8477 -592.05445 
L 333.2046 -590.447482 
L 315.5615 -588.976981 
L 297.9184 -587.908653 
L 280.2753 -584.696022 
L 262.6322 -582.095554 
L 244.9891 -580.305666 
L 227.346 -577.898241 
L 209.7029 -575.66923 
L 192.0598 -573.035225 
L 174.4167 -571.380398 
L 156.7736 -569.432772 
L 139.1305 -566.722455 
L 121.4874 -562.455017 
L 103.8443 -559.822102 
L 86.2012 -557.331403 
L 68.5581 -553.411112 
L 50.915 -549.752599 
z
" style="stroke: #9edae5; stroke-opacity: 0.2"/>
    </defs>
    <g clip-path="url(#pa091e3705b)">
     <use xlink:href="#me9f93e2894" x="0" y="648" style="fill: #9edae5; fill-opacity: 0.2; stroke: #9edae5; stroke-opacity: 0.2"/>
    </g>
   </g>
   <g id="matplotlib.axis_1">
    <g id="xtick_1">
     <g id="line2d_1">
      <defs>
       <path id="m35ba6ddc9b" d="M 0 0 
L 0 3.5 
" style="stroke: #000000; stroke-width: 0.8"/>
      </defs>
      <g>
       <use xlink:href="#m35ba6ddc9b" x="50.915" y="606.04" style="stroke: #000000; stroke-width: 0.8"/>
      </g>
     </g>
     <g id="text_1">
      <!-- 30 -->
      <g transform="translate(44.5525 620.638438) scale(0.1 -0.1)">
       <defs>
        <path id="DejaVuSans-33" d="M 2597 2516 
Q 3050 2419 3304 2112 
Q 3559 1806 3559 1356 
Q 3559 666 3084 287 
Q 2609 -91 1734 -91 
Q 1441 -91 1130 -33 
Q 819 25 488 141 
L 488 750 
Q 750 597 1062 519 
Q 1375 441 1716 441 
Q 2309 441 2620 675 
Q 2931 909 2931 1356 
Q 2931 1769 2642 2001 
Q 2353 2234 1838 2234 
L 1294 2234 
L 1294 2753 
L 1863 2753 
Q 2328 2753 2575 2939 
Q 2822 3125 2822 3475 
Q 2822 3834 2567 4026 
Q 2313 4219 1838 4219 
Q 1578 4219 1281 4162 
Q 984 4106 628 3988 
L 628 4550 
Q 988 4650 1302 4700 
Q 1616 4750 1894 4750 
Q 2613 4750 3031 4423 
Q 3450 4097 3450 3541 
Q 3450 3153 3228 2886 
Q 3006 2619 2597 2516 
z
" transform="scale(0.015625)"/>
        <path id="DejaVuSans-30" d="M 2034 4250 
Q 1547 4250 1301 3770 
Q 1056 3291 1056 2328 
Q 1056 1369 1301 889 
Q 1547 409 2034 409 
Q 2525 409 2770 889 
Q 3016 1369 3016 2328 
Q 3016 3291 2770 3770 
Q 2525 4250 2034 4250 
z
M 2034 4750 
Q 2819 4750 3233 4129 
Q 3647 3509 3647 2328 
Q 3647 1150 3233 529 
Q 2819 -91 2034 -91 
Q 1250 -91 836 529 
Q 422 1150 422 2328 
Q 422 3509 836 4129 
Q 1250 4750 2034 4750 
z
" transform="scale(0.015625)"/>
       </defs>
       <use xlink:href="#DejaVuSans-33"/>
       <use xlink:href="#DejaVuSans-30" x="63.623047"/>
      </g>
     </g>
    </g>
    <g id="xtick_2">
     <g id="line2d_2">
      <g>
       <use xlink:href="#m35ba6ddc9b" x="227.346" y="606.04" style="stroke: #000000; stroke-width: 0.8"/>
      </g>
     </g>
     <g id="text_2">
      <!-- 40 -->
      <g transform="translate(220.9835 620.638438) scale(0.1 -0.1)">
       <defs>
        <path id="DejaVuSans-34" d="M 2419 4116 
L 825 1625 
L 2419 1625 
L 2419 4116 
z
M 2253 4666 
L 3047 4666 
L 3047 1625 
L 3713 1625 
L 3713 1100 
L 3047 1100 
L 3047 0 
L 2419 0 
L 2419 1100 
L 313 1100 
L 313 1709 
L 2253 4666 
z
" transform="scale(0.015625)"/>
       </defs>
       <use xlink:href="#DejaVuSans-34"/>
       <use xlink:href="#DejaVuSans-30" x="63.623047"/>
      </g>
     </g>
    </g>
    <g id="xtick_3">
     <g id="line2d_3">
      <g>
       <use xlink:href="#m35ba6ddc9b" x="403.777" y="606.04" style="stroke: #000000; stroke-width: 0.8"/>
      </g>
     </g>
     <g id="text_3">
      <!-- 50 -->
      <g transform="translate(397.4145 620.638438) scale(0.1 -0.1)">
       <defs>
        <path id="DejaVuSans-35" d="M 691 4666 
L 3169 4666 
L 3169 4134 
L 1269 4134 
L 1269 2991 
Q 1406 3038 1543 3061 
Q 1681 3084 1819 3084 
Q 2600 3084 3056 2656 
Q 3513 2228 3513 1497 
Q 3513 744 3044 326 
Q 2575 -91 1722 -91 
Q 1428 -91 1123 -41 
Q 819 9 494 109 
L 494 744 
Q 775 591 1075 516 
Q 1375 441 1709 441 
Q 2250 441 2565 725 
Q 2881 1009 2881 1497 
Q 2881 1984 2565 2268 
Q 2250 2553 1709 2553 
Q 1456 2553 1204 2497 
Q 953 2441 691 2322 
L 691 4666 
z
" transform="scale(0.015625)"/>
       </defs>
       <use xlink:href="#DejaVuSans-35"/>
       <use xlink:href="#DejaVuSans-30" x="63.623047"/>
      </g>
     </g>
    </g>
    <g id="xtick_4">
     <g id="line2d_4">
      <g>
       <use xlink:href="#m35ba6ddc9b" x="580.208" y="606.04" style="stroke: #000000; stroke-width: 0.8"/>
      </g>
     </g>
     <g id="text_4">
      <!-- 60 -->
      <g transform="translate(573.8455 620.638438) scale(0.1 -0.1)">
       <defs>
        <path id="DejaVuSans-36" d="M 2113 2584 
Q 1688 2584 1439 2293 
Q 1191 2003 1191 1497 
Q 1191 994 1439 701 
Q 1688 409 2113 409 
Q 2538 409 2786 701 
Q 3034 994 3034 1497 
Q 3034 2003 2786 2293 
Q 2538 2584 2113 2584 
z
M 3366 4563 
L 3366 3988 
Q 3128 4100 2886 4159 
Q 2644 4219 2406 4219 
Q 1781 4219 1451 3797 
Q 1122 3375 1075 2522 
Q 1259 2794 1537 2939 
Q 1816 3084 2150 3084 
Q 2853 3084 3261 2657 
Q 3669 2231 3669 1497 
Q 3669 778 3244 343 
Q 2819 -91 2113 -91 
Q 1303 -91 875 529 
Q 447 1150 447 2328 
Q 447 3434 972 4092 
Q 1497 4750 2381 4750 
Q 2619 4750 2861 4703 
Q 3103 4656 3366 4563 
z
" transform="scale(0.015625)"/>
       </defs>
       <use xlink:href="#DejaVuSans-36"/>
       <use xlink:href="#DejaVuSans-30" x="63.623047"/>
      </g>
     </g>
    </g>
    <g id="xtick_5">
     <g id="line2d_5">
      <g>
       <use xlink:href="#m35ba6ddc9b" x="756.639" y="606.04" style="stroke: #000000; stroke-width: 0.8"/>
      </g>
     </g>
     <g id="text_5">
      <!-- 70 -->
      <g transform="translate(750.2765 620.638438) scale(0.1 -0.1)">
       <defs>
        <path id="DejaVuSans-37" d="M 525 4666 
L 3525 4666 
L 3525 4397 
L 1831 0 
L 1172 0 
L 2766 4134 
L 525 4134 
L 525 4666 
z
" transform="scale(0.015625)"/>
       </defs>
       <use xlink:href="#DejaVuSans-37"/>
       <use xlink:href="#DejaVuSans-30" x="63.623047"/>
      </g>
     </g>
    </g>
    <g id="xtick_6">
     <g id="line2d_6">
      <g>
       <use xlink:href="#m35ba6ddc9b" x="933.07" y="606.04" style="stroke: #000000; stroke-width: 0.8"/>
      </g>
     </g>
     <g id="text_6">
      <!-- 80 -->
      <g transform="translate(926.7075 620.638438) scale(0.1 -0.1)">
       <defs>
        <path id="DejaVuSans-38" d="M 2034 2216 
Q 1584 2216 1326 1975 
Q 1069 1734 1069 1313 
Q 1069 891 1326 650 
Q 1584 409 2034 409 
Q 2484 409 2743 651 
Q 3003 894 3003 1313 
Q 3003 1734 2745 1975 
Q 2488 2216 2034 2216 
z
M 1403 2484 
Q 997 2584 770 2862 
Q 544 3141 544 3541 
Q 544 4100 942 4425 
Q 1341 4750 2034 4750 
Q 2731 4750 3128 4425 
Q 3525 4100 3525 3541 
Q 3525 3141 3298 2862 
Q 3072 2584 2669 2484 
Q 3125 2378 3379 2068 
Q 3634 1759 3634 1313 
Q 3634 634 3220 271 
Q 2806 -91 2034 -91 
Q 1263 -91 848 271 
Q 434 634 434 1313 
Q 434 1759 690 2068 
Q 947 2378 1403 2484 
z
M 1172 3481 
Q 1172 3119 1398 2916 
Q 1625 2713 2034 2713 
Q 2441 2713 2670 2916 
Q 2900 3119 2900 3481 
Q 2900 3844 2670 4047 
Q 2441 4250 2034 4250 
Q 1625 4250 1398 4047 
Q 1172 3844 1172 3481 
z
" transform="scale(0.015625)"/>
       </defs>
       <use xlink:href="#DejaVuSans-38"/>
       <use xlink:href="#DejaVuSans-30" x="63.623047"/>
      </g>
     </g>
    </g>
    <g id="text_7">
     <!-- Number of Features -->
     <g transform="translate(442.414375 634.316563) scale(0.1 -0.1)">
      <defs>
       <path id="DejaVuSans-4e" d="M 628 4666 
L 1478 4666 
L 3547 763 
L 3547 4666 
L 4159 4666 
L 4159 0 
L 3309 0 
L 1241 3903 
L 1241 0 
L 628 0 
L 628 4666 
z
" transform="scale(0.015625)"/>
       <path id="DejaVuSans-75" d="M 544 1381 
L 544 3500 
L 1119 3500 
L 1119 1403 
Q 1119 906 1312 657 
Q 1506 409 1894 409 
Q 2359 409 2629 706 
Q 2900 1003 2900 1516 
L 2900 3500 
L 3475 3500 
L 3475 0 
L 2900 0 
L 2900 538 
Q 2691 219 2414 64 
Q 2138 -91 1772 -91 
Q 1169 -91 856 284 
Q 544 659 544 1381 
z
M 1991 3584 
L 1991 3584 
z
" transform="scale(0.015625)"/>
       <path id="DejaVuSans-6d" d="M 3328 2828 
Q 3544 3216 3844 3400 
Q 4144 3584 4550 3584 
Q 5097 3584 5394 3201 
Q 5691 2819 5691 2113 
L 5691 0 
L 5113 0 
L 5113 2094 
Q 5113 2597 4934 2840 
Q 4756 3084 4391 3084 
Q 3944 3084 3684 2787 
Q 3425 2491 3425 1978 
L 3425 0 
L 2847 0 
L 2847 2094 
Q 2847 2600 2669 2842 
Q 2491 3084 2119 3084 
Q 1678 3084 1418 2786 
Q 1159 2488 1159 1978 
L 1159 0 
L 581 0 
L 581 3500 
L 1159 3500 
L 1159 2956 
Q 1356 3278 1631 3431 
Q 1906 3584 2284 3584 
Q 2666 3584 2933 3390 
Q 3200 3197 3328 2828 
z
" transform="scale(0.015625)"/>
       <path id="DejaVuSans-62" d="M 3116 1747 
Q 3116 2381 2855 2742 
Q 2594 3103 2138 3103 
Q 1681 3103 1420 2742 
Q 1159 2381 1159 1747 
Q 1159 1113 1420 752 
Q 1681 391 2138 391 
Q 2594 391 2855 752 
Q 3116 1113 3116 1747 
z
M 1159 2969 
Q 1341 3281 1617 3432 
Q 1894 3584 2278 3584 
Q 2916 3584 3314 3078 
Q 3713 2572 3713 1747 
Q 3713 922 3314 415 
Q 2916 -91 2278 -91 
Q 1894 -91 1617 61 
Q 1341 213 1159 525 
L 1159 0 
L 581 0 
L 581 4863 
L 1159 4863 
L 1159 2969 
z
" transform="scale(0.015625)"/>
       <path id="DejaVuSans-65" d="M 3597 1894 
L 3597 1613 
L 953 1613 
Q 991 1019 1311 708 
Q 1631 397 2203 397 
Q 2534 397 2845 478 
Q 3156 559 3463 722 
L 3463 178 
Q 3153 47 2828 -22 
Q 2503 -91 2169 -91 
Q 1331 -91 842 396 
Q 353 884 353 1716 
Q 353 2575 817 3079 
Q 1281 3584 2069 3584 
Q 2775 3584 3186 3129 
Q 3597 2675 3597 1894 
z
M 3022 2063 
Q 3016 2534 2758 2815 
Q 2500 3097 2075 3097 
Q 1594 3097 1305 2825 
Q 1016 2553 972 2059 
L 3022 2063 
z
" transform="scale(0.015625)"/>
       <path id="DejaVuSans-72" d="M 2631 2963 
Q 2534 3019 2420 3045 
Q 2306 3072 2169 3072 
Q 1681 3072 1420 2755 
Q 1159 2438 1159 1844 
L 1159 0 
L 581 0 
L 581 3500 
L 1159 3500 
L 1159 2956 
Q 1341 3275 1631 3429 
Q 1922 3584 2338 3584 
Q 2397 3584 2469 3576 
Q 2541 3569 2628 3553 
L 2631 2963 
z
" transform="scale(0.015625)"/>
       <path id="DejaVuSans-20" transform="scale(0.015625)"/>
       <path id="DejaVuSans-6f" d="M 1959 3097 
Q 1497 3097 1228 2736 
Q 959 2375 959 1747 
Q 959 1119 1226 758 
Q 1494 397 1959 397 
Q 2419 397 2687 759 
Q 2956 1122 2956 1747 
Q 2956 2369 2687 2733 
Q 2419 3097 1959 3097 
z
M 1959 3584 
Q 2709 3584 3137 3096 
Q 3566 2609 3566 1747 
Q 3566 888 3137 398 
Q 2709 -91 1959 -91 
Q 1206 -91 779 398 
Q 353 888 353 1747 
Q 353 2609 779 3096 
Q 1206 3584 1959 3584 
z
" transform="scale(0.015625)"/>
       <path id="DejaVuSans-66" d="M 2375 4863 
L 2375 4384 
L 1825 4384 
Q 1516 4384 1395 4259 
Q 1275 4134 1275 3809 
L 1275 3500 
L 2222 3500 
L 2222 3053 
L 1275 3053 
L 1275 0 
L 697 0 
L 697 3053 
L 147 3053 
L 147 3500 
L 697 3500 
L 697 3744 
Q 697 4328 969 4595 
Q 1241 4863 1831 4863 
L 2375 4863 
z
" transform="scale(0.015625)"/>
       <path id="DejaVuSans-46" d="M 628 4666 
L 3309 4666 
L 3309 4134 
L 1259 4134 
L 1259 2759 
L 3109 2759 
L 3109 2228 
L 1259 2228 
L 1259 0 
L 628 0 
L 628 4666 
z
" transform="scale(0.015625)"/>
       <path id="DejaVuSans-61" d="M 2194 1759 
Q 1497 1759 1228 1600 
Q 959 1441 959 1056 
Q 959 750 1161 570 
Q 1363 391 1709 391 
Q 2188 391 2477 730 
Q 2766 1069 2766 1631 
L 2766 1759 
L 2194 1759 
z
M 3341 1997 
L 3341 0 
L 2766 0 
L 2766 531 
Q 2569 213 2275 61 
Q 1981 -91 1556 -91 
Q 1019 -91 701 211 
Q 384 513 384 1019 
Q 384 1609 779 1909 
Q 1175 2209 1959 2209 
L 2766 2209 
L 2766 2266 
Q 2766 2663 2505 2880 
Q 2244 3097 1772 3097 
Q 1472 3097 1187 3025 
Q 903 2953 641 2809 
L 641 3341 
Q 956 3463 1253 3523 
Q 1550 3584 1831 3584 
Q 2591 3584 2966 3190 
Q 3341 2797 3341 1997 
z
" transform="scale(0.015625)"/>
       <path id="DejaVuSans-74" d="M 1172 4494 
L 1172 3500 
L 2356 3500 
L 2356 3053 
L 1172 3053 
L 1172 1153 
Q 1172 725 1289 603 
Q 1406 481 1766 481 
L 2356 481 
L 2356 0 
L 1766 0 
Q 1100 0 847 248 
Q 594 497 594 1153 
L 594 3053 
L 172 3053 
L 172 3500 
L 594 3500 
L 594 4494 
L 1172 4494 
z
" transform="scale(0.015625)"/>
       <path id="DejaVuSans-73" d="M 2834 3397 
L 2834 2853 
Q 2591 2978 2328 3040 
Q 2066 3103 1784 3103 
Q 1356 3103 1142 2972 
Q 928 2841 928 2578 
Q 928 2378 1081 2264 
Q 1234 2150 1697 2047 
L 1894 2003 
Q 2506 1872 2764 1633 
Q 3022 1394 3022 966 
Q 3022 478 2636 193 
Q 2250 -91 1575 -91 
Q 1294 -91 989 -36 
Q 684 19 347 128 
L 347 722 
Q 666 556 975 473 
Q 1284 391 1588 391 
Q 1994 391 2212 530 
Q 2431 669 2431 922 
Q 2431 1156 2273 1281 
Q 2116 1406 1581 1522 
L 1381 1569 
Q 847 1681 609 1914 
Q 372 2147 372 2553 
Q 372 3047 722 3315 
Q 1072 3584 1716 3584 
Q 2034 3584 2315 3537 
Q 2597 3491 2834 3397 
z
" transform="scale(0.015625)"/>
      </defs>
      <use xlink:href="#DejaVuSans-4e"/>
      <use xlink:href="#DejaVuSans-75" x="74.804688"/>
      <use xlink:href="#DejaVuSans-6d" x="138.183594"/>
      <use xlink:href="#DejaVuSans-62" x="235.595703"/>
      <use xlink:href="#DejaVuSans-65" x="299.072266"/>
      <use xlink:href="#DejaVuSans-72" x="360.595703"/>
      <use xlink:href="#DejaVuSans-20" x="401.708984"/>
      <use xlink:href="#DejaVuSans-6f" x="433.496094"/>
      <use xlink:href="#DejaVuSans-66" x="494.677734"/>
      <use xlink:href="#DejaVuSans-20" x="529.882812"/>
      <use xlink:href="#DejaVuSans-46" x="561.669922"/>
      <use xlink:href="#DejaVuSans-65" x="613.689453"/>
      <use xlink:href="#DejaVuSans-61" x="675.212891"/>
      <use xlink:href="#DejaVuSans-74" x="736.492188"/>
      <use xlink:href="#DejaVuSans-75" x="775.701172"/>
      <use xlink:href="#DejaVuSans-72" x="839.080078"/>
      <use xlink:href="#DejaVuSans-65" x="877.943359"/>
      <use xlink:href="#DejaVuSans-73" x="939.466797"/>
     </g>
    </g>
   </g>
   <g id="matplotlib.axis_2">
    <g id="ytick_1">
     <g id="line2d_7">
      <defs>
       <path id="me5934423d2" d="M 0 0 
L -3.5 0 
" style="stroke: #000000; stroke-width: 0.8"/>
      </defs>
      <g>
       <use xlink:href="#me5934423d2" x="50.915" y="606.04" style="stroke: #000000; stroke-width: 0.8"/>
      </g>
     </g>
     <g id="text_8">
      <!-- 0 -->
      <g transform="translate(37.5525 609.839219) scale(0.1 -0.1)">
       <use xlink:href="#DejaVuSans-30"/>
      </g>
     </g>
    </g>
    <g id="ytick_2">
     <g id="line2d_8">
      <g>
       <use xlink:href="#me5934423d2" x="50.915" y="490.9816" style="stroke: #000000; stroke-width: 0.8"/>
      </g>
     </g>
     <g id="text_9">
      <!-- 20 -->
      <g transform="translate(31.19 494.780819) scale(0.1 -0.1)">
       <defs>
        <path id="DejaVuSans-32" d="M 1228 531 
L 3431 531 
L 3431 0 
L 469 0 
L 469 531 
Q 828 903 1448 1529 
Q 2069 2156 2228 2338 
Q 2531 2678 2651 2914 
Q 2772 3150 2772 3378 
Q 2772 3750 2511 3984 
Q 2250 4219 1831 4219 
Q 1534 4219 1204 4116 
Q 875 4013 500 3803 
L 500 4441 
Q 881 4594 1212 4672 
Q 1544 4750 1819 4750 
Q 2544 4750 2975 4387 
Q 3406 4025 3406 3419 
Q 3406 3131 3298 2873 
Q 3191 2616 2906 2266 
Q 2828 2175 2409 1742 
Q 1991 1309 1228 531 
z
" transform="scale(0.015625)"/>
       </defs>
       <use xlink:href="#DejaVuSans-32"/>
       <use xlink:href="#DejaVuSans-30" x="63.623047"/>
      </g>
     </g>
    </g>
    <g id="ytick_3">
     <g id="line2d_9">
      <g>
       <use xlink:href="#me5934423d2" x="50.915" y="375.9232" style="stroke: #000000; stroke-width: 0.8"/>
      </g>
     </g>
     <g id="text_10">
      <!-- 40 -->
      <g transform="translate(31.19 379.722419) scale(0.1 -0.1)">
       <use xlink:href="#DejaVuSans-34"/>
       <use xlink:href="#DejaVuSans-30" x="63.623047"/>
      </g>
     </g>
    </g>
    <g id="ytick_4">
     <g id="line2d_10">
      <g>
       <use xlink:href="#me5934423d2" x="50.915" y="260.8648" style="stroke: #000000; stroke-width: 0.8"/>
      </g>
     </g>
     <g id="text_11">
      <!-- 60 -->
      <g transform="translate(31.19 264.664019) scale(0.1 -0.1)">
       <use xlink:href="#DejaVuSans-36"/>
       <use xlink:href="#DejaVuSans-30" x="63.623047"/>
      </g>
     </g>
    </g>
    <g id="ytick_5">
     <g id="line2d_11">
      <g>
       <use xlink:href="#me5934423d2" x="50.915" y="145.8064" style="stroke: #000000; stroke-width: 0.8"/>
      </g>
     </g>
     <g id="text_12">
      <!-- 80 -->
      <g transform="translate(31.19 149.605619) scale(0.1 -0.1)">
       <use xlink:href="#DejaVuSans-38"/>
       <use xlink:href="#DejaVuSans-30" x="63.623047"/>
      </g>
     </g>
    </g>
    <g id="ytick_6">
     <g id="line2d_12">
      <g>
       <use xlink:href="#me5934423d2" x="50.915" y="30.748" style="stroke: #000000; stroke-width: 0.8"/>
      </g>
     </g>
     <g id="text_13">
      <!-- 100 -->
      <g transform="translate(24.8275 34.547219) scale(0.1 -0.1)">
       <defs>
        <path id="DejaVuSans-31" d="M 794 531 
L 1825 531 
L 1825 4091 
L 703 3866 
L 703 4441 
L 1819 4666 
L 2450 4666 
L 2450 531 
L 3481 531 
L 3481 0 
L 794 0 
L 794 531 
z
" transform="scale(0.015625)"/>
       </defs>
       <use xlink:href="#DejaVuSans-31"/>
       <use xlink:href="#DejaVuSans-30" x="63.623047"/>
       <use xlink:href="#DejaVuSans-30" x="127.246094"/>
      </g>
     </g>
    </g>
    <g id="text_14">
     <!-- Values -->
     <g transform="translate(18.747813 334.729938) rotate(-90) scale(0.1 -0.1)">
      <defs>
       <path id="DejaVuSans-56" d="M 1831 0 
L 50 4666 
L 709 4666 
L 2188 738 
L 3669 4666 
L 4325 4666 
L 2547 0 
L 1831 0 
z
" transform="scale(0.015625)"/>
       <path id="DejaVuSans-6c" d="M 603 4863 
L 1178 4863 
L 1178 0 
L 603 0 
L 603 4863 
z
" transform="scale(0.015625)"/>
      </defs>
      <use xlink:href="#DejaVuSans-56"/>
      <use xlink:href="#DejaVuSans-61" x="60.658203"/>
      <use xlink:href="#DejaVuSans-6c" x="121.9375"/>
      <use xlink:href="#DejaVuSans-75" x="149.720703"/>
      <use xlink:href="#DejaVuSans-65" x="213.099609"/>
      <use xlink:href="#DejaVuSans-73" x="274.623047"/>
     </g>
    </g>
   </g>
   <g id="line2d_13">
    <path d="M 50.915 92.226573 
L 68.5581 92.884802 
L 86.2012 90.383532 
L 103.8443 89.462012 
L 121.4874 87.158211 
L 139.1305 85.710108 
L 156.7736 83.603775 
L 174.4167 83.011369 
L 192.0598 80.04934 
L 209.7029 80.5101 
L 227.346 76.692373 
L 244.9891 77.284778 
L 262.6322 74.454395 
L 280.2753 74.454395 
L 297.9184 73.993634 
L 315.5615 71.558188 
L 333.2046 70.636667 
L 350.8477 68.793627 
L 368.4908 67.213877 
L 386.1339 65.89742 
L 403.777 65.305014 
L 421.4201 64.383493 
L 439.0632 63.264504 
L 456.7063 61.816401 
L 474.3494 61.092349 
L 491.9925 60.105006 
L 509.6356 59.183486 
L 527.2787 58.327788 
L 544.9218 58.064497 
L 562.5649 57.669559 
L 580.208 56.353102 
L 597.8511 55.365758 
L 615.4942 54.904998 
L 633.1373 53.720186 
L 650.7804 52.930312 
L 668.4235 52.66702 
L 686.0666 52.601197 
L 703.7097 51.153094 
L 721.3528 50.165751 
L 738.9959 48.586001 
L 756.639 49.573345 
L 774.2821 47.993595 
L 791.9252 47.730304 
L 809.5683 44.89992 
L 827.2114 44.89992 
L 844.8545 43.912577 
L 862.4976 43.649285 
L 880.1407 43.517639 
L 897.7838 43.056879 
L 915.4269 42.39865 
L 933.07 42.069536 
" clip-path="url(#pa091e3705b)" style="fill: none; stroke: #1f77b4; stroke-width: 1.5; stroke-linecap: square"/>
   </g>
   <g id="line2d_14">
    <path d="M 50.915 238.616665 
L 68.5581 241.249581 
L 86.2012 229.269816 
L 103.8443 209.786243 
L 121.4874 233.745772 
L 139.1305 218.540686 
L 156.7736 218.145749 
L 174.4167 209.391305 
L 192.0598 203.072308 
L 209.7029 207.416619 
L 227.346 217.816634 
L 244.9891 194.910271 
L 262.6322 172.464668 
L 280.2753 179.639362 
L 297.9184 171.082387 
L 315.5615 187.208994 
L 333.2046 172.135553 
L 350.8477 168.18618 
L 368.4908 158.641862 
L 386.1339 173.978594 
L 403.777 151.203876 
L 421.4201 149.492481 
L 439.0632 120.662059 
L 456.7063 176.282395 
L 474.3494 143.370953 
L 491.9925 137.644362 
L 509.6356 153.5735 
L 527.2787 147.451972 
L 544.9218 153.902615 
L 562.5649 131.65448 
L 580.208 131.062074 
L 597.8511 136.788665 
L 615.4942 139.684872 
L 633.1373 113.224073 
L 650.7804 119.938007 
L 668.4235 137.117779 
L 686.0666 131.983595 
L 703.7097 133.694989 
L 721.3528 122.965859 
L 738.9959 118.424081 
L 756.639 109.537991 
L 774.2821 142.054496 
L 791.9252 112.039261 
L 809.5683 110.525335 
L 827.2114 119.740538 
L 844.8545 105.654441 
L 862.4976 94.332905 
L 880.1407 120.201298 
L 897.7838 106.839253 
L 915.4269 85.446816 
L 933.07 91.502521 
" clip-path="url(#pa091e3705b)" style="fill: none; stroke: #ff7f0e; stroke-width: 1.5; stroke-linecap: square"/>
   </g>
   <g id="line2d_15">
    <path d="M 50.915 88.935429 
L 68.5581 86.434159 
L 86.2012 83.93289 
L 103.8443 80.5101 
L 121.4874 76.955664 
L 139.1305 75.770852 
L 156.7736 73.467051 
L 174.4167 71.426542 
L 192.0598 69.978438 
L 209.7029 68.661981 
L 227.346 66.81894 
L 244.9891 65.765774 
L 262.6322 64.778431 
L 280.2753 63.725265 
L 297.9184 62.737921 
L 315.5615 62.145515 
L 333.2046 61.158172 
L 350.8477 60.302475 
L 368.4908 59.775892 
L 386.1339 58.788548 
L 403.777 58.59108 
L 421.4201 57.603736 
L 439.0632 56.616393 
L 456.7063 56.023987 
L 474.3494 55.102467 
L 491.9925 54.049301 
L 509.6356 53.522718 
L 527.2787 52.403729 
L 544.9218 51.811323 
L 562.5649 51.548031 
L 580.208 50.231573 
L 597.8511 49.770813 
L 615.4942 49.112584 
L 633.1373 48.388533 
L 650.7804 47.796127 
L 668.4235 47.269544 
L 686.0666 46.808784 
L 703.7097 46.413846 
L 721.3528 45.426503 
L 738.9959 44.636628 
L 756.639 43.715108 
L 774.2821 43.188525 
L 791.9252 42.727765 
L 809.5683 41.872067 
L 827.2114 41.411307 
L 844.8545 41.082193 
L 862.4976 40.423964 
L 880.1407 39.963204 
L 897.7838 39.304975 
L 915.4269 38.778392 
L 933.07 38.5151 
" clip-path="url(#pa091e3705b)" style="fill: none; stroke: #2ca02c; stroke-width: 1.5; stroke-linecap: square"/>
   </g>
   <g id="line2d_16">
    <path d="M 50.915 91.502521 
L 68.5581 88.343023 
L 86.2012 84.722764 
L 103.8443 82.682255 
L 121.4874 81.563266 
L 139.1305 79.720225 
L 156.7736 79.061996 
L 174.4167 77.482247 
L 192.0598 76.692373 
L 209.7029 75.178446 
L 227.346 74.388572 
L 244.9891 73.730343 
L 262.6322 72.808822 
L 280.2753 71.229073 
L 297.9184 70.570844 
L 315.5615 70.110084 
L 333.2046 69.056918 
L 350.8477 68.069575 
L 368.4908 67.148054 
L 386.1339 65.963243 
L 403.777 65.173368 
L 421.4201 64.383493 
L 439.0632 63.067036 
L 456.7063 61.684755 
L 474.3494 60.499943 
L 491.9925 59.644246 
L 509.6356 58.327788 
L 527.2787 57.801205 
L 544.9218 55.958164 
L 562.5649 55.299935 
L 580.208 54.839175 
L 597.8511 54.378415 
L 615.4942 53.259426 
L 633.1373 52.469551 
L 650.7804 51.482208 
L 668.4235 50.626511 
L 686.0666 50.034105 
L 703.7097 49.310053 
L 721.3528 48.651824 
L 738.9959 47.467012 
L 756.639 46.479669 
L 774.2821 45.953086 
L 791.9252 45.426503 
L 809.5683 44.307514 
L 827.2114 43.9784 
L 844.8545 43.583462 
L 862.4976 43.122702 
L 880.1407 42.727765 
L 897.7838 42.069536 
L 915.4269 41.279661 
L 933.07 40.884724 
" clip-path="url(#pa091e3705b)" style="fill: none; stroke: #d62728; stroke-width: 1.5; stroke-linecap: square"/>
   </g>
   <g id="line2d_17">
    <path d="M 50.915 94.530374 
L 68.5581 93.740499 
L 86.2012 93.08227 
L 103.8443 92.555687 
L 121.4874 91.23923 
L 139.1305 90.77847 
L 156.7736 89.462012 
L 174.4167 88.343023 
L 192.0598 87.553148 
L 209.7029 85.380993 
L 227.346 84.196181 
L 244.9891 82.484786 
L 262.6322 80.773391 
L 280.2753 79.391111 
L 297.9184 77.613893 
L 315.5615 75.968321 
L 333.2046 75.112623 
L 350.8477 74.717686 
L 368.4908 73.66452 
L 386.1339 71.953125 
L 403.777 70.307553 
L 421.4201 69.517678 
L 439.0632 68.661981 
L 456.7063 67.74046 
L 474.3494 67.2797 
L 491.9925 66.489826 
L 509.6356 64.975899 
L 527.2787 63.791087 
L 544.9218 62.47463 
L 562.5649 61.487286 
L 580.208 60.368297 
L 597.8511 60.236652 
L 615.4942 59.446777 
L 633.1373 58.722725 
L 650.7804 57.340445 
L 668.4235 56.748039 
L 686.0666 56.08981 
L 703.7097 55.431581 
L 721.3528 54.70753 
L 738.9959 54.115124 
L 756.639 53.456895 
L 774.2821 52.66702 
L 791.9252 52.140437 
L 809.5683 51.548031 
L 827.2114 51.087271 
L 844.8545 50.429042 
L 862.4976 49.573345 
L 880.1407 49.178407 
L 897.7838 48.32271 
L 915.4269 47.86195 
L 933.07 47.664481 
" clip-path="url(#pa091e3705b)" style="fill: none; stroke: #9467bd; stroke-width: 1.5; stroke-linecap: square"/>
   </g>
   <g id="line2d_18">
    <path d="M 50.915 82.287318 
L 68.5581 80.04934 
L 86.2012 78.864528 
L 103.8443 75.770852 
L 121.4874 73.993634 
L 139.1305 72.940468 
L 156.7736 68.596158 
L 174.4167 67.872106 
L 192.0598 66.094888 
L 209.7029 63.39615 
L 227.346 62.342984 
L 244.9891 60.697412 
L 262.6322 59.710069 
L 280.2753 57.603736 
L 297.9184 56.616393 
L 315.5615 55.892341 
L 333.2046 55.563227 
L 350.8477 54.641707 
L 368.4908 52.996135 
L 386.1339 52.140437 
L 403.777 51.7455 
L 421.4201 50.823979 
L 439.0632 49.902459 
L 456.7063 49.046762 
L 474.3494 48.454356 
L 491.9925 47.532835 
L 509.6356 47.072075 
L 527.2787 45.689795 
L 544.9218 45.36068 
L 562.5649 44.636628 
L 580.208 44.044222 
L 597.8511 43.056879 
L 615.4942 42.596119 
L 633.1373 41.872067 
L 650.7804 41.213838 
L 668.4235 40.753078 
L 686.0666 40.029027 
L 703.7097 39.436621 
L 721.3528 39.173329 
L 738.9959 38.844215 
L 756.639 38.580923 
L 774.2821 38.317632 
L 791.9252 38.120163 
L 809.5683 37.59358 
L 827.2114 37.396111 
L 844.8545 36.935351 
L 862.4976 36.672059 
L 880.1407 36.474591 
L 897.7838 36.211299 
L 915.4269 36.013831 
L 933.07 35.289779 
" clip-path="url(#pa091e3705b)" style="fill: none; stroke: #8c564b; stroke-width: 1.5; stroke-linecap: square"/>
   </g>
   <g id="line2d_19">
    <path d="M 50.915 72.282239 
L 68.5581 69.649324 
L 86.2012 68.135398 
L 103.8443 66.094888 
L 121.4874 64.449316 
L 139.1305 62.737921 
L 156.7736 61.092349 
L 174.4167 59.710069 
L 192.0598 58.986017 
L 209.7029 57.735382 
L 227.346 56.616393 
L 244.9891 56.155633 
L 262.6322 55.431581 
L 280.2753 54.444238 
L 297.9184 53.12778 
L 315.5615 52.337906 
L 333.2046 51.416385 
L 350.8477 50.823979 
L 368.4908 49.902459 
L 386.1339 49.24423 
L 403.777 48.586001 
L 421.4201 48.32271 
L 439.0632 47.598658 
L 456.7063 47.269544 
L 474.3494 46.677138 
L 491.9925 45.755617 
L 509.6356 45.294857 
L 527.2787 44.702451 
L 544.9218 44.175868 
L 562.5649 43.649285 
L 580.208 42.727765 
L 597.8511 42.201182 
L 615.4942 41.411307 
L 633.1373 40.753078 
L 650.7804 40.358141 
L 668.4235 39.634089 
L 686.0666 39.041683 
L 703.7097 38.646746 
L 721.3528 38.251809 
L 738.9959 37.922694 
L 756.639 37.725226 
L 774.2821 37.461934 
L 791.9252 37.330288 
L 809.5683 37.066997 
L 827.2114 36.935351 
L 844.8545 36.737882 
L 862.4976 36.606237 
L 880.1407 36.408768 
L 897.7838 36.277122 
L 915.4269 36.211299 
L 933.07 36.079654 
" clip-path="url(#pa091e3705b)" style="fill: none; stroke: #e377c2; stroke-width: 1.5; stroke-linecap: square"/>
   </g>
   <g id="line2d_20">
    <path d="M 50.915 74.454395 
L 68.5581 72.216416 
L 86.2012 70.110084 
L 103.8443 69.32021 
L 121.4874 68.464512 
L 139.1305 66.094888 
L 156.7736 64.120202 
L 174.4167 62.803744 
L 192.0598 61.816401 
L 209.7029 59.578423 
L 227.346 58.788548 
L 244.9891 56.813862 
L 262.6322 56.023987 
L 280.2753 55.234113 
L 297.9184 53.917655 
L 315.5615 53.456895 
L 333.2046 52.20626 
L 350.8477 51.482208 
L 368.4908 50.165751 
L 386.1339 49.24423 
L 403.777 48.388533 
L 421.4201 47.86195 
L 439.0632 47.269544 
L 456.7063 47.006252 
L 474.3494 46.018909 
L 491.9925 45.163211 
L 509.6356 44.43916 
L 527.2787 43.583462 
L 544.9218 43.254348 
L 562.5649 42.727765 
L 580.208 42.201182 
L 597.8511 41.345484 
L 615.4942 40.884724 
L 633.1373 40.358141 
L 650.7804 39.897381 
L 668.4235 39.699912 
L 686.0666 39.173329 
L 703.7097 38.712569 
L 721.3528 38.383454 
L 738.9959 37.856871 
L 756.639 37.791049 
L 774.2821 37.264465 
L 791.9252 37.13282 
L 809.5683 37.066997 
L 827.2114 36.935351 
L 844.8545 36.672059 
L 862.4976 36.342945 
L 880.1407 35.948008 
L 897.7838 35.882185 
L 915.4269 35.55307 
L 933.07 35.55307 
" clip-path="url(#pa091e3705b)" style="fill: none; stroke: #7f7f7f; stroke-width: 1.5; stroke-linecap: square"/>
   </g>
   <g id="line2d_21">
    <path d="M 50.915 76.034144 
L 68.5581 74.980978 
L 86.2012 73.137937 
L 103.8443 70.965782 
L 121.4874 69.451855 
L 139.1305 67.674638 
L 156.7736 66.029065 
L 174.4167 65.305014 
L 192.0598 63.593619 
L 209.7029 61.092349 
L 227.346 59.380954 
L 244.9891 57.932851 
L 262.6322 56.221456 
L 280.2753 55.16829 
L 297.9184 53.851832 
L 315.5615 52.930312 
L 333.2046 51.350562 
L 350.8477 50.363219 
L 368.4908 49.375876 
L 386.1339 48.520178 
L 403.777 47.927773 
L 421.4201 47.532835 
L 439.0632 46.150555 
L 456.7063 45.558149 
L 474.3494 45.229034 
L 491.9925 44.768274 
L 509.6356 44.110045 
L 527.2787 43.780931 
L 544.9218 43.385994 
L 562.5649 42.991056 
L 580.208 42.332827 
L 597.8511 41.872067 
L 615.4942 41.47713 
L 633.1373 41.345484 
L 650.7804 41.082193 
L 668.4235 40.687255 
L 686.0666 40.292318 
L 703.7097 40.029027 
L 721.3528 39.699912 
L 738.9959 39.304975 
L 756.639 39.239152 
L 774.2821 38.97586 
L 791.9252 38.5151 
L 809.5683 38.317632 
L 827.2114 38.05434 
L 844.8545 37.791049 
L 862.4976 37.396111 
L 880.1407 37.13282 
L 897.7838 36.737882 
L 915.4269 36.474591 
L 933.07 36.474591 
" clip-path="url(#pa091e3705b)" style="fill: none; stroke: #bcbd22; stroke-width: 1.5; stroke-linecap: square"/>
   </g>
   <g id="line2d_22">
    <path d="M 50.915 75.705029 
L 68.5581 73.598697 
L 86.2012 72.018948 
L 103.8443 70.70249 
L 121.4874 68.596158 
L 139.1305 67.148054 
L 156.7736 64.910076 
L 174.4167 63.461973 
L 192.0598 61.092349 
L 209.7029 60.039183 
L 227.346 59.05184 
L 244.9891 57.01133 
L 262.6322 56.287279 
L 280.2753 55.036644 
L 297.9184 54.180946 
L 315.5615 52.535374 
L 333.2046 51.811323 
L 350.8477 50.823979 
L 368.4908 50.165751 
L 386.1339 48.849293 
L 403.777 47.993595 
L 421.4201 47.401189 
L 439.0632 46.742961 
L 456.7063 45.558149 
L 474.3494 44.636628 
L 491.9925 44.044222 
L 509.6356 43.451816 
L 527.2787 43.188525 
L 544.9218 42.39865 
L 562.5649 42.003713 
L 580.208 41.47713 
L 597.8511 41.213838 
L 615.4942 40.423964 
L 633.1373 40.029027 
L 650.7804 39.765735 
L 668.4235 39.634089 
L 686.0666 39.304975 
L 703.7097 39.041683 
L 721.3528 38.383454 
L 738.9959 38.317632 
L 756.639 38.05434 
L 774.2821 37.922694 
L 791.9252 37.725226 
L 809.5683 37.659403 
L 827.2114 37.264465 
L 844.8545 36.672059 
L 862.4976 36.672059 
L 880.1407 36.606237 
L 897.7838 36.342945 
L 915.4269 35.948008 
L 933.07 35.750539 
" clip-path="url(#pa091e3705b)" style="fill: none; stroke: #17becf; stroke-width: 1.5; stroke-linecap: square"/>
   </g>
   <g id="line2d_23">
    <path d="M 50.915 103.482286 
L 68.5581 100.520256 
L 86.2012 97.821518 
L 103.8443 94.859488 
L 121.4874 92.226573 
L 139.1305 86.697451 
L 156.7736 83.998713 
L 174.4167 81.299974 
L 192.0598 79.786048 
L 209.7029 77.350601 
L 227.346 75.310092 
L 244.9891 72.413885 
L 262.6322 70.834136 
L 280.2753 67.674638 
L 297.9184 65.173368 
L 315.5615 64.449316 
L 333.2046 63.330327 
L 350.8477 61.618932 
L 368.4908 60.105006 
L 386.1339 58.986017 
L 403.777 57.340445 
L 421.4201 55.958164 
L 439.0632 54.049301 
L 456.7063 52.66702 
L 474.3494 51.613854 
L 491.9925 51.482208 
L 509.6356 50.034105 
L 527.2787 48.980939 
L 544.9218 48.586001 
L 562.5649 47.730304 
L 580.208 47.269544 
L 597.8511 46.084732 
L 615.4942 45.689795 
L 633.1373 44.965743 
L 650.7804 44.834097 
L 668.4235 44.307514 
L 686.0666 44.044222 
L 703.7097 43.583462 
L 721.3528 43.254348 
L 738.9959 42.793588 
L 756.639 42.267005 
L 774.2821 41.47713 
L 791.9252 41.148016 
L 809.5683 40.489787 
L 827.2114 40.292318 
L 844.8545 39.897381 
L 862.4976 39.304975 
L 880.1407 39.041683 
L 897.7838 38.778392 
L 915.4269 38.383454 
L 933.07 38.185986 
" clip-path="url(#pa091e3705b)" style="fill: none; stroke: #9edae5; stroke-width: 1.5; stroke-linecap: square"/>
   </g>
   <g id="patch_3">
    <path d="M 50.915 606.04 
L 50.915 30.748 
" style="fill: none; stroke: #000000; stroke-width: 0.8; stroke-linejoin: miter; stroke-linecap: square"/>
   </g>
   <g id="patch_4">
    <path d="M 933.07 606.04 
L 933.07 30.748 
" style="fill: none; stroke: #000000; stroke-width: 0.8; stroke-linejoin: miter; stroke-linecap: square"/>
   </g>
   <g id="patch_5">
    <path d="M 50.915 606.04 
L 933.07 606.04 
" style="fill: none; stroke: #000000; stroke-width: 0.8; stroke-linejoin: miter; stroke-linecap: square"/>
   </g>
   <g id="patch_6">
    <path d="M 50.915 30.748 
L 933.07 30.748 
" style="fill: none; stroke: #000000; stroke-width: 0.8; stroke-linejoin: miter; stroke-linecap: square"/>
   </g>
   <g id="text_15">
    <!-- Values Across Different Methods and Feature Numbers -->
    <g transform="translate(328.2 24.748) scale(0.12 -0.12)">
     <defs>
      <path id="DejaVuSans-41" d="M 2188 4044 
L 1331 1722 
L 3047 1722 
L 2188 4044 
z
M 1831 4666 
L 2547 4666 
L 4325 0 
L 3669 0 
L 3244 1197 
L 1141 1197 
L 716 0 
L 50 0 
L 1831 4666 
z
" transform="scale(0.015625)"/>
      <path id="DejaVuSans-63" d="M 3122 3366 
L 3122 2828 
Q 2878 2963 2633 3030 
Q 2388 3097 2138 3097 
Q 1578 3097 1268 2742 
Q 959 2388 959 1747 
Q 959 1106 1268 751 
Q 1578 397 2138 397 
Q 2388 397 2633 464 
Q 2878 531 3122 666 
L 3122 134 
Q 2881 22 2623 -34 
Q 2366 -91 2075 -91 
Q 1284 -91 818 406 
Q 353 903 353 1747 
Q 353 2603 823 3093 
Q 1294 3584 2113 3584 
Q 2378 3584 2631 3529 
Q 2884 3475 3122 3366 
z
" transform="scale(0.015625)"/>
      <path id="DejaVuSans-44" d="M 1259 4147 
L 1259 519 
L 2022 519 
Q 2988 519 3436 956 
Q 3884 1394 3884 2338 
Q 3884 3275 3436 3711 
Q 2988 4147 2022 4147 
L 1259 4147 
z
M 628 4666 
L 1925 4666 
Q 3281 4666 3915 4102 
Q 4550 3538 4550 2338 
Q 4550 1131 3912 565 
Q 3275 0 1925 0 
L 628 0 
L 628 4666 
z
" transform="scale(0.015625)"/>
      <path id="DejaVuSans-69" d="M 603 3500 
L 1178 3500 
L 1178 0 
L 603 0 
L 603 3500 
z
M 603 4863 
L 1178 4863 
L 1178 4134 
L 603 4134 
L 603 4863 
z
" transform="scale(0.015625)"/>
      <path id="DejaVuSans-6e" d="M 3513 2113 
L 3513 0 
L 2938 0 
L 2938 2094 
Q 2938 2591 2744 2837 
Q 2550 3084 2163 3084 
Q 1697 3084 1428 2787 
Q 1159 2491 1159 1978 
L 1159 0 
L 581 0 
L 581 3500 
L 1159 3500 
L 1159 2956 
Q 1366 3272 1645 3428 
Q 1925 3584 2291 3584 
Q 2894 3584 3203 3211 
Q 3513 2838 3513 2113 
z
" transform="scale(0.015625)"/>
      <path id="DejaVuSans-4d" d="M 628 4666 
L 1569 4666 
L 2759 1491 
L 3956 4666 
L 4897 4666 
L 4897 0 
L 4281 0 
L 4281 4097 
L 3078 897 
L 2444 897 
L 1241 4097 
L 1241 0 
L 628 0 
L 628 4666 
z
" transform="scale(0.015625)"/>
      <path id="DejaVuSans-68" d="M 3513 2113 
L 3513 0 
L 2938 0 
L 2938 2094 
Q 2938 2591 2744 2837 
Q 2550 3084 2163 3084 
Q 1697 3084 1428 2787 
Q 1159 2491 1159 1978 
L 1159 0 
L 581 0 
L 581 4863 
L 1159 4863 
L 1159 2956 
Q 1366 3272 1645 3428 
Q 1925 3584 2291 3584 
Q 2894 3584 3203 3211 
Q 3513 2838 3513 2113 
z
" transform="scale(0.015625)"/>
      <path id="DejaVuSans-64" d="M 2906 2969 
L 2906 4863 
L 3481 4863 
L 3481 0 
L 2906 0 
L 2906 525 
Q 2725 213 2448 61 
Q 2172 -91 1784 -91 
Q 1150 -91 751 415 
Q 353 922 353 1747 
Q 353 2572 751 3078 
Q 1150 3584 1784 3584 
Q 2172 3584 2448 3432 
Q 2725 3281 2906 2969 
z
M 947 1747 
Q 947 1113 1208 752 
Q 1469 391 1925 391 
Q 2381 391 2643 752 
Q 2906 1113 2906 1747 
Q 2906 2381 2643 2742 
Q 2381 3103 1925 3103 
Q 1469 3103 1208 2742 
Q 947 2381 947 1747 
z
" transform="scale(0.015625)"/>
     </defs>
     <use xlink:href="#DejaVuSans-56"/>
     <use xlink:href="#DejaVuSans-61" x="60.658203"/>
     <use xlink:href="#DejaVuSans-6c" x="121.9375"/>
     <use xlink:href="#DejaVuSans-75" x="149.720703"/>
     <use xlink:href="#DejaVuSans-65" x="213.099609"/>
     <use xlink:href="#DejaVuSans-73" x="274.623047"/>
     <use xlink:href="#DejaVuSans-20" x="326.722656"/>
     <use xlink:href="#DejaVuSans-41" x="358.509766"/>
     <use xlink:href="#DejaVuSans-63" x="425.167969"/>
     <use xlink:href="#DejaVuSans-72" x="480.148438"/>
     <use xlink:href="#DejaVuSans-6f" x="519.011719"/>
     <use xlink:href="#DejaVuSans-73" x="580.193359"/>
     <use xlink:href="#DejaVuSans-73" x="632.292969"/>
     <use xlink:href="#DejaVuSans-20" x="684.392578"/>
     <use xlink:href="#DejaVuSans-44" x="716.179688"/>
     <use xlink:href="#DejaVuSans-69" x="793.181641"/>
     <use xlink:href="#DejaVuSans-66" x="820.964844"/>
     <use xlink:href="#DejaVuSans-66" x="856.169922"/>
     <use xlink:href="#DejaVuSans-65" x="891.375"/>
     <use xlink:href="#DejaVuSans-72" x="952.898438"/>
     <use xlink:href="#DejaVuSans-65" x="991.761719"/>
     <use xlink:href="#DejaVuSans-6e" x="1053.285156"/>
     <use xlink:href="#DejaVuSans-74" x="1116.664062"/>
     <use xlink:href="#DejaVuSans-20" x="1155.873047"/>
     <use xlink:href="#DejaVuSans-4d" x="1187.660156"/>
     <use xlink:href="#DejaVuSans-65" x="1273.939453"/>
     <use xlink:href="#DejaVuSans-74" x="1335.462891"/>
     <use xlink:href="#DejaVuSans-68" x="1374.671875"/>
     <use xlink:href="#DejaVuSans-6f" x="1438.050781"/>
     <use xlink:href="#DejaVuSans-64" x="1499.232422"/>
     <use xlink:href="#DejaVuSans-73" x="1562.708984"/>
     <use xlink:href="#DejaVuSans-20" x="1614.808594"/>
     <use xlink:href="#DejaVuSans-61" x="1646.595703"/>
     <use xlink:href="#DejaVuSans-6e" x="1707.875"/>
     <use xlink:href="#DejaVuSans-64" x="1771.253906"/>
     <use xlink:href="#DejaVuSans-20" x="1834.730469"/>
     <use xlink:href="#DejaVuSans-46" x="1866.517578"/>
     <use xlink:href="#DejaVuSans-65" x="1918.537109"/>
     <use xlink:href="#DejaVuSans-61" x="1980.060547"/>
     <use xlink:href="#DejaVuSans-74" x="2041.339844"/>
     <use xlink:href="#DejaVuSans-75" x="2080.548828"/>
     <use xlink:href="#DejaVuSans-72" x="2143.927734"/>
     <use xlink:href="#DejaVuSans-65" x="2182.791016"/>
     <use xlink:href="#DejaVuSans-20" x="2244.314453"/>
     <use xlink:href="#DejaVuSans-4e" x="2276.101562"/>
     <use xlink:href="#DejaVuSans-75" x="2350.90625"/>
     <use xlink:href="#DejaVuSans-6d" x="2414.285156"/>
     <use xlink:href="#DejaVuSans-62" x="2511.697266"/>
     <use xlink:href="#DejaVuSans-65" x="2575.173828"/>
     <use xlink:href="#DejaVuSans-72" x="2636.697266"/>
     <use xlink:href="#DejaVuSans-73" x="2677.810547"/>
    </g>
   </g>
   <g id="legend_1">
    <g id="patch_7">
     <path d="M 940.07 172.555275 
L 1067.18875 172.555275 
Q 1069.18875 172.555275 1069.18875 170.555275 
L 1069.18875 8.9834 
Q 1069.18875 6.9834 1067.18875 6.9834 
L 940.07 6.9834 
Q 938.07 6.9834 938.07 8.9834 
L 938.07 170.555275 
Q 938.07 172.555275 940.07 172.555275 
z
" style="fill: #ffffff; opacity: 0.8; stroke: #cccccc; stroke-linejoin: miter"/>
    </g>
    <g id="line2d_24">
     <path d="M 942.07 15.081838 
L 952.07 15.081838 
L 962.07 15.081838 
" style="fill: none; stroke: #1f77b4; stroke-width: 1.5; stroke-linecap: square"/>
    </g>
    <g id="text_16">
     <!-- GA -->
     <g transform="translate(970.07 18.581838) scale(0.1 -0.1)">
      <defs>
       <path id="DejaVuSans-47" d="M 3809 666 
L 3809 1919 
L 2778 1919 
L 2778 2438 
L 4434 2438 
L 4434 434 
Q 4069 175 3628 42 
Q 3188 -91 2688 -91 
Q 1594 -91 976 548 
Q 359 1188 359 2328 
Q 359 3472 976 4111 
Q 1594 4750 2688 4750 
Q 3144 4750 3555 4637 
Q 3966 4525 4313 4306 
L 4313 3634 
Q 3963 3931 3569 4081 
Q 3175 4231 2741 4231 
Q 1884 4231 1454 3753 
Q 1025 3275 1025 2328 
Q 1025 1384 1454 906 
Q 1884 428 2741 428 
Q 3075 428 3337 486 
Q 3600 544 3809 666 
z
" transform="scale(0.015625)"/>
      </defs>
      <use xlink:href="#DejaVuSans-47"/>
      <use xlink:href="#DejaVuSans-41" x="77.490234"/>
     </g>
    </g>
    <g id="line2d_25">
     <path d="M 942.07 29.759963 
L 952.07 29.759963 
L 962.07 29.759963 
" style="fill: none; stroke: #ff7f0e; stroke-width: 1.5; stroke-linecap: square"/>
    </g>
    <g id="text_17">
     <!-- Random -->
     <g transform="translate(970.07 33.259963) scale(0.1 -0.1)">
      <defs>
       <path id="DejaVuSans-52" d="M 2841 2188 
Q 3044 2119 3236 1894 
Q 3428 1669 3622 1275 
L 4263 0 
L 3584 0 
L 2988 1197 
Q 2756 1666 2539 1819 
Q 2322 1972 1947 1972 
L 1259 1972 
L 1259 0 
L 628 0 
L 628 4666 
L 2053 4666 
Q 2853 4666 3247 4331 
Q 3641 3997 3641 3322 
Q 3641 2881 3436 2590 
Q 3231 2300 2841 2188 
z
M 1259 4147 
L 1259 2491 
L 2053 2491 
Q 2509 2491 2742 2702 
Q 2975 2913 2975 3322 
Q 2975 3731 2742 3939 
Q 2509 4147 2053 4147 
L 1259 4147 
z
" transform="scale(0.015625)"/>
      </defs>
      <use xlink:href="#DejaVuSans-52"/>
      <use xlink:href="#DejaVuSans-61" x="67.232422"/>
      <use xlink:href="#DejaVuSans-6e" x="128.511719"/>
      <use xlink:href="#DejaVuSans-64" x="191.890625"/>
      <use xlink:href="#DejaVuSans-6f" x="255.367188"/>
      <use xlink:href="#DejaVuSans-6d" x="316.548828"/>
     </g>
    </g>
    <g id="line2d_26">
     <path d="M 942.07 44.438088 
L 952.07 44.438088 
L 962.07 44.438088 
" style="fill: none; stroke: #2ca02c; stroke-width: 1.5; stroke-linecap: square"/>
    </g>
    <g id="text_18">
     <!-- chi_2 -->
     <g transform="translate(970.07 47.938088) scale(0.1 -0.1)">
      <defs>
       <path id="DejaVuSans-5f" d="M 3263 -1063 
L 3263 -1509 
L -63 -1509 
L -63 -1063 
L 3263 -1063 
z
" transform="scale(0.015625)"/>
      </defs>
      <use xlink:href="#DejaVuSans-63"/>
      <use xlink:href="#DejaVuSans-68" x="54.980469"/>
      <use xlink:href="#DejaVuSans-69" x="118.359375"/>
      <use xlink:href="#DejaVuSans-5f" x="146.142578"/>
      <use xlink:href="#DejaVuSans-32" x="196.142578"/>
     </g>
    </g>
    <g id="line2d_27">
     <path d="M 942.07 59.394338 
L 952.07 59.394338 
L 962.07 59.394338 
" style="fill: none; stroke: #d62728; stroke-width: 1.5; stroke-linecap: square"/>
    </g>
    <g id="text_19">
     <!-- f_classif -->
     <g transform="translate(970.07 62.894338) scale(0.1 -0.1)">
      <use xlink:href="#DejaVuSans-66"/>
      <use xlink:href="#DejaVuSans-5f" x="35.205078"/>
      <use xlink:href="#DejaVuSans-63" x="85.205078"/>
      <use xlink:href="#DejaVuSans-6c" x="140.185547"/>
      <use xlink:href="#DejaVuSans-61" x="167.96875"/>
      <use xlink:href="#DejaVuSans-73" x="229.248047"/>
      <use xlink:href="#DejaVuSans-73" x="281.347656"/>
      <use xlink:href="#DejaVuSans-69" x="333.447266"/>
      <use xlink:href="#DejaVuSans-66" x="361.230469"/>
     </g>
    </g>
    <g id="line2d_28">
     <path d="M 942.07 74.350588 
L 952.07 74.350588 
L 962.07 74.350588 
" style="fill: none; stroke: #9467bd; stroke-width: 1.5; stroke-linecap: square"/>
    </g>
    <g id="text_20">
     <!-- mutual_info_classif -->
     <g transform="translate(970.07 77.850588) scale(0.1 -0.1)">
      <use xlink:href="#DejaVuSans-6d"/>
      <use xlink:href="#DejaVuSans-75" x="97.412109"/>
      <use xlink:href="#DejaVuSans-74" x="160.791016"/>
      <use xlink:href="#DejaVuSans-75" x="200"/>
      <use xlink:href="#DejaVuSans-61" x="263.378906"/>
      <use xlink:href="#DejaVuSans-6c" x="324.658203"/>
      <use xlink:href="#DejaVuSans-5f" x="352.441406"/>
      <use xlink:href="#DejaVuSans-69" x="402.441406"/>
      <use xlink:href="#DejaVuSans-6e" x="430.224609"/>
      <use xlink:href="#DejaVuSans-66" x="493.603516"/>
      <use xlink:href="#DejaVuSans-6f" x="528.808594"/>
      <use xlink:href="#DejaVuSans-5f" x="589.990234"/>
      <use xlink:href="#DejaVuSans-63" x="639.990234"/>
      <use xlink:href="#DejaVuSans-6c" x="694.970703"/>
      <use xlink:href="#DejaVuSans-61" x="722.753906"/>
      <use xlink:href="#DejaVuSans-73" x="784.033203"/>
      <use xlink:href="#DejaVuSans-73" x="836.132812"/>
      <use xlink:href="#DejaVuSans-69" x="888.232422"/>
      <use xlink:href="#DejaVuSans-66" x="916.015625"/>
     </g>
    </g>
    <g id="line2d_29">
     <path d="M 942.07 89.306838 
L 952.07 89.306838 
L 962.07 89.306838 
" style="fill: none; stroke: #8c564b; stroke-width: 1.5; stroke-linecap: square"/>
    </g>
    <g id="text_21">
     <!-- lasso -->
     <g transform="translate(970.07 92.806838) scale(0.1 -0.1)">
      <use xlink:href="#DejaVuSans-6c"/>
      <use xlink:href="#DejaVuSans-61" x="27.783203"/>
      <use xlink:href="#DejaVuSans-73" x="89.0625"/>
      <use xlink:href="#DejaVuSans-73" x="141.162109"/>
      <use xlink:href="#DejaVuSans-6f" x="193.261719"/>
     </g>
    </g>
    <g id="line2d_30">
     <path d="M 942.07 103.984963 
L 952.07 103.984963 
L 962.07 103.984963 
" style="fill: none; stroke: #e377c2; stroke-width: 1.5; stroke-linecap: square"/>
    </g>
    <g id="text_22">
     <!-- ridge -->
     <g transform="translate(970.07 107.484963) scale(0.1 -0.1)">
      <defs>
       <path id="DejaVuSans-67" d="M 2906 1791 
Q 2906 2416 2648 2759 
Q 2391 3103 1925 3103 
Q 1463 3103 1205 2759 
Q 947 2416 947 1791 
Q 947 1169 1205 825 
Q 1463 481 1925 481 
Q 2391 481 2648 825 
Q 2906 1169 2906 1791 
z
M 3481 434 
Q 3481 -459 3084 -895 
Q 2688 -1331 1869 -1331 
Q 1566 -1331 1297 -1286 
Q 1028 -1241 775 -1147 
L 775 -588 
Q 1028 -725 1275 -790 
Q 1522 -856 1778 -856 
Q 2344 -856 2625 -561 
Q 2906 -266 2906 331 
L 2906 616 
Q 2728 306 2450 153 
Q 2172 0 1784 0 
Q 1141 0 747 490 
Q 353 981 353 1791 
Q 353 2603 747 3093 
Q 1141 3584 1784 3584 
Q 2172 3584 2450 3431 
Q 2728 3278 2906 2969 
L 2906 3500 
L 3481 3500 
L 3481 434 
z
" transform="scale(0.015625)"/>
      </defs>
      <use xlink:href="#DejaVuSans-72"/>
      <use xlink:href="#DejaVuSans-69" x="41.113281"/>
      <use xlink:href="#DejaVuSans-64" x="68.896484"/>
      <use xlink:href="#DejaVuSans-67" x="132.373047"/>
      <use xlink:href="#DejaVuSans-65" x="195.849609"/>
     </g>
    </g>
    <g id="line2d_31">
     <path d="M 942.07 118.663088 
L 952.07 118.663088 
L 962.07 118.663088 
" style="fill: none; stroke: #7f7f7f; stroke-width: 1.5; stroke-linecap: square"/>
    </g>
    <g id="text_23">
     <!-- elastic_net -->
     <g transform="translate(970.07 122.163088) scale(0.1 -0.1)">
      <use xlink:href="#DejaVuSans-65"/>
      <use xlink:href="#DejaVuSans-6c" x="61.523438"/>
      <use xlink:href="#DejaVuSans-61" x="89.306641"/>
      <use xlink:href="#DejaVuSans-73" x="150.585938"/>
      <use xlink:href="#DejaVuSans-74" x="202.685547"/>
      <use xlink:href="#DejaVuSans-69" x="241.894531"/>
      <use xlink:href="#DejaVuSans-63" x="269.677734"/>
      <use xlink:href="#DejaVuSans-5f" x="324.658203"/>
      <use xlink:href="#DejaVuSans-6e" x="374.658203"/>
      <use xlink:href="#DejaVuSans-65" x="438.037109"/>
      <use xlink:href="#DejaVuSans-74" x="499.560547"/>
     </g>
    </g>
    <g id="line2d_32">
     <path d="M 942.07 133.619338 
L 952.07 133.619338 
L 962.07 133.619338 
" style="fill: none; stroke: #bcbd22; stroke-width: 1.5; stroke-linecap: square"/>
    </g>
    <g id="text_24">
     <!-- rf -->
     <g transform="translate(970.07 137.119338) scale(0.1 -0.1)">
      <use xlink:href="#DejaVuSans-72"/>
      <use xlink:href="#DejaVuSans-66" x="41.113281"/>
     </g>
    </g>
    <g id="line2d_33">
     <path d="M 942.07 148.297463 
L 952.07 148.297463 
L 962.07 148.297463 
" style="fill: none; stroke: #17becf; stroke-width: 1.5; stroke-linecap: square"/>
    </g>
    <g id="text_25">
     <!-- gbm -->
     <g transform="translate(970.07 151.797463) scale(0.1 -0.1)">
      <use xlink:href="#DejaVuSans-67"/>
      <use xlink:href="#DejaVuSans-62" x="63.476562"/>
      <use xlink:href="#DejaVuSans-6d" x="126.953125"/>
     </g>
    </g>
    <g id="line2d_34">
     <path d="M 942.07 162.975588 
L 952.07 162.975588 
L 962.07 162.975588 
" style="fill: none; stroke: #9edae5; stroke-width: 1.5; stroke-linecap: square"/>
    </g>
    <g id="text_26">
     <!-- xgb -->
     <g transform="translate(970.07 166.475588) scale(0.1 -0.1)">
      <defs>
       <path id="DejaVuSans-78" d="M 3513 3500 
L 2247 1797 
L 3578 0 
L 2900 0 
L 1881 1375 
L 863 0 
L 184 0 
L 1544 1831 
L 300 3500 
L 978 3500 
L 1906 2253 
L 2834 3500 
L 3513 3500 
z
" transform="scale(0.015625)"/>
      </defs>
      <use xlink:href="#DejaVuSans-78"/>
      <use xlink:href="#DejaVuSans-67" x="59.179688"/>
      <use xlink:href="#DejaVuSans-62" x="122.65625"/>
     </g>
    </g>
   </g>
  </g>
 </g>
 <defs>
  <clipPath id="pa091e3705b">
   <rect x="50.915" y="30.748" width="882.155" height="575.292"/>
  </clipPath>
 </defs>
</svg>
