<?xml version="1.0" encoding="utf-8" standalone="no"?>
<!DOCTYPE svg PUBLIC "-//W3C//DTD SVG 1.1//EN"
  "http://www.w3.org/Graphics/SVG/1.1/DTD/svg11.dtd">
<svg xmlns:xlink="http://www.w3.org/1999/xlink" width="1080pt" height="648pt" viewBox="0 0 1080 648" xmlns="http://www.w3.org/2000/svg" version="1.1">
 <metadata>
  <rdf:RDF xmlns:dc="http://purl.org/dc/elements/1.1/" xmlns:cc="http://creativecommons.org/ns#" xmlns:rdf="http://www.w3.org/1999/02/22-rdf-syntax-ns#">
   <cc:Work>
    <dc:type rdf:resource="http://purl.org/dc/dcmitype/StillImage"/>
    <dc:date>2024-04-04T23:57:47.049284</dc:date>
    <dc:format>image/svg+xml</dc:format>
    <dc:creator>
     <cc:Agent>
      <dc:title>Matplotlib v3.7.2, https://matplotlib.org/</dc:title>
     </cc:Agent>
    </dc:creator>
   </cc:Work>
  </rdf:RDF>
 </metadata>
 <defs>
  <style type="text/css">*{stroke-linejoin: round; stroke-linecap: butt}</style>
 </defs>
 <g id="figure_1">
  <g id="patch_1">
   <path d="M 0 648 
L 1080 648 
L 1080 0 
L 0 0 
z
" style="fill: #ffffff"/>
  </g>
  <g id="axes_1">
   <g id="patch_2">
    <path d="M 47.765 606.04 
L 933.07 606.04 
L 933.07 30.748 
L 47.765 30.748 
z
" style="fill: #ffffff"/>
   </g>
   <g id="PolyCollection_1">
    <defs>
     <path id="m4d4050088f" d="M 47.765 -504.494272 
L 47.765 -433.681596 
L 65.4711 -438.113339 
L 83.1772 -438.245373 
L 100.8833 -446.38103 
L 118.5894 -438.913577 
L 136.2955 -443.255549 
L 154.0016 -445.531826 
L 171.7077 -447.324702 
L 189.4138 -437.908911 
L 207.1199 -441.160363 
L 224.826 -442.614347 
L 242.5321 -438.057933 
L 260.2382 -433.47569 
L 277.9443 -427.787932 
L 295.6504 -428.74992 
L 313.3565 -423.184347 
L 331.0626 -420.927499 
L 348.7687 -416.042839 
L 366.4748 -416.195704 
L 384.1809 -412.719764 
L 401.887 -413.362787 
L 419.5931 -417.319899 
L 437.2992 -410.091745 
L 455.0053 -407.435556 
L 472.7114 -407.434853 
L 490.4175 -406.235485 
L 508.1236 -407.757462 
L 525.8297 -401.092532 
L 543.5358 -402.425155 
L 561.2419 -401.531438 
L 578.948 -402.498267 
L 596.6541 -402.774299 
L 614.3602 -398.463755 
L 632.0663 -396.060959 
L 649.7724 -395.137877 
L 667.4785 -396.87822 
L 685.1846 -391.176544 
L 702.8907 -396.370219 
L 720.5968 -395.479052 
L 738.3029 -388.323076 
L 756.009 -397.798101 
L 773.7151 -386.665679 
L 791.4212 -390.501774 
L 809.1273 -386.213979 
L 826.8334 -390.006665 
L 844.5395 -383.286342 
L 862.2456 -383.343722 
L 879.9517 -386.590876 
L 897.6578 -387.376724 
L 915.3639 -383.103506 
L 933.07 -382.786152 
L 933.07 -479.278602 
L 933.07 -479.278602 
L 915.3639 -477.918452 
L 897.6578 -477.941 
L 879.9517 -482.175214 
L 862.2456 -481.679911 
L 844.5395 -486.15061 
L 826.8334 -488.548807 
L 809.1273 -489.618291 
L 791.4212 -490.528656 
L 773.7151 -494.913258 
L 756.009 -499.060754 
L 738.3029 -500.528891 
L 720.5968 -506.397099 
L 702.8907 -504.20845 
L 685.1846 -507.077311 
L 667.4785 -511.628696 
L 649.7724 -509.004254 
L 632.0663 -513.837361 
L 614.3602 -515.895504 
L 596.6541 -518.229759 
L 578.948 -515.82541 
L 561.2419 -519.272787 
L 543.5358 -521.311295 
L 525.8297 -523.224222 
L 508.1236 -524.624801 
L 490.4175 -522.788442 
L 472.7114 -524.226898 
L 455.0053 -524.113355 
L 437.2992 -526.16641 
L 419.5931 -525.542055 
L 401.887 -524.372284 
L 384.1809 -524.935852 
L 366.4748 -524.82668 
L 348.7687 -522.868249 
L 331.0626 -519.998927 
L 313.3565 -517.747872 
L 295.6504 -513.433143 
L 277.9443 -515.066879 
L 260.2382 -516.468726 
L 242.5321 -515.760174 
L 224.826 -518.747459 
L 207.1199 -512.142675 
L 189.4138 -512.323371 
L 171.7077 -513.607552 
L 154.0016 -513.28776 
L 136.2955 -509.160486 
L 118.5894 -508.962584 
L 100.8833 -508.532792 
L 83.1772 -508.86065 
L 65.4711 -502.449405 
L 47.765 -504.494272 
z
" style="stroke: #1f77b4; stroke-opacity: 0.2"/>
    </defs>
    <g clip-path="url(#p08800a257a)">
     <use xlink:href="#m4d4050088f" x="0" y="648" style="fill: #1f77b4; fill-opacity: 0.2; stroke: #1f77b4; stroke-opacity: 0.2"/>
    </g>
   </g>
   <g id="PolyCollection_2">
    <defs>
     <path id="mc17dde6f2b" d="M 47.765 -366.417336 
L 47.765 -224.531698 
L 65.4711 -239.691039 
L 83.1772 -230.641055 
L 100.8833 -268.123438 
L 118.5894 -216.05558 
L 136.2955 -248.158152 
L 154.0016 -231.817188 
L 171.7077 -246.033339 
L 189.4138 -254.063701 
L 207.1199 -234.107587 
L 224.826 -223.776925 
L 242.5321 -256.440365 
L 260.2382 -266.09539 
L 277.9443 -249.562666 
L 295.6504 -273.263086 
L 313.3565 -237.937644 
L 331.0626 -240.04567 
L 348.7687 -246.873394 
L 366.4748 -270.145573 
L 384.1809 -253.205996 
L 401.887 -280.35292 
L 419.5931 -283.633558 
L 437.2992 -324.066611 
L 455.0053 -241.852732 
L 472.7114 -284.251263 
L 490.4175 -286.103191 
L 508.1236 -264.050658 
L 525.8297 -267.03154 
L 543.5358 -252.149117 
L 561.2419 -277.43989 
L 578.948 -297.926112 
L 596.6541 -270.153455 
L 614.3602 -262.156414 
L 632.0663 -306.683222 
L 649.7724 -269.263261 
L 667.4785 -258.941514 
L 685.1846 -268.320374 
L 702.8907 -262.129452 
L 720.5968 -261.203862 
L 738.3029 -267.781223 
L 756.009 -277.027211 
L 773.7151 -251.668957 
L 791.4212 -284.039425 
L 809.1273 -269.354071 
L 826.8334 -255.473592 
L 844.5395 -269.722675 
L 862.2456 -295.161031 
L 879.9517 -259.280929 
L 897.6578 -281.306739 
L 915.3639 -308.762261 
L 933.07 -295.256471 
L 933.07 -420.218619 
L 933.07 -420.218619 
L 915.3639 -430.68679 
L 897.6578 -404.188173 
L 879.9517 -383.298894 
L 862.2456 -415.933658 
L 844.5395 -403.377759 
L 826.8334 -388.017956 
L 809.1273 -405.731809 
L 791.4212 -412.396936 
L 773.7151 -369.437021 
L 756.009 -412.578387 
L 738.3029 -399.707284 
L 720.5968 -407.057146 
L 702.8907 -399.529381 
L 685.1846 -390.97795 
L 667.4785 -388.057378 
L 649.7724 -408.117417 
L 632.0663 -426.183983 
L 614.3602 -395.332888 
L 596.6541 -403.15712 
L 578.948 -413.040355 
L 561.2419 -413.315242 
L 543.5358 -379.090571 
L 525.8297 -400.996195 
L 508.1236 -397.571504 
L 490.4175 -407.762504 
L 472.7114 -423.956984 
L 455.0053 -355.638167 
L 437.2992 -438.149799 
L 419.5931 -410.144398 
L 401.887 -414.661665 
L 384.1809 -394.221522 
L 366.4748 -414.216837 
L 348.7687 -392.996461 
L 331.0626 -385.495979 
L 313.3565 -374.236119 
L 295.6504 -428.038552 
L 277.9443 -401.113925 
L 260.2382 -420.453368 
L 242.5321 -401.216084 
L 224.826 -345.523282 
L 207.1199 -355.609472 
L 189.4138 -379.168404 
L 171.7077 -392.603417 
L 154.0016 -350.247733 
L 136.2955 -385.58137 
L 118.5894 -339.707928 
L 100.8833 -427.070466 
L 83.1772 -385.385507 
L 65.4711 -369.239322 
L 47.765 -366.417336 
z
" style="stroke: #ff7f0e; stroke-opacity: 0.2"/>
    </defs>
    <g clip-path="url(#p08800a257a)">
     <use xlink:href="#mc17dde6f2b" x="0" y="648" style="fill: #ff7f0e; fill-opacity: 0.2; stroke: #ff7f0e; stroke-opacity: 0.2"/>
    </g>
   </g>
   <g id="PolyCollection_3">
    <defs>
     <path id="mede19aa801" d="M 47.765 -522.434572 
L 47.765 -452.589705 
L 65.4711 -455.173838 
L 83.1772 -457.351915 
L 100.8833 -456.834605 
L 118.5894 -460.374751 
L 136.2955 -455.086418 
L 154.0016 -457.383164 
L 171.7077 -453.796012 
L 189.4138 -452.792425 
L 207.1199 -446.581602 
L 224.826 -445.61029 
L 242.5321 -439.17528 
L 260.2382 -437.465336 
L 277.9443 -437.025043 
L 295.6504 -433.38922 
L 313.3565 -434.058362 
L 331.0626 -427.485357 
L 348.7687 -424.156938 
L 366.4748 -419.067262 
L 384.1809 -418.704642 
L 401.887 -413.554784 
L 419.5931 -415.242551 
L 437.2992 -412.252934 
L 455.0053 -406.101616 
L 472.7114 -408.084416 
L 490.4175 -407.499321 
L 508.1236 -407.216925 
L 525.8297 -404.026693 
L 543.5358 -403.187733 
L 561.2419 -403.782036 
L 578.948 -398.558949 
L 596.6541 -396.797793 
L 614.3602 -394.063018 
L 632.0663 -396.531905 
L 649.7724 -391.728604 
L 667.4785 -390.519944 
L 685.1846 -390.717745 
L 702.8907 -392.142079 
L 720.5968 -391.808869 
L 738.3029 -391.235858 
L 756.009 -387.76382 
L 773.7151 -387.127455 
L 791.4212 -389.122834 
L 809.1273 -390.624343 
L 826.8334 -389.529033 
L 844.5395 -385.686764 
L 862.2456 -387.145506 
L 879.9517 -389.383877 
L 897.6578 -389.567714 
L 915.3639 -385.985566 
L 933.07 -388.902603 
L 933.07 -491.198897 
L 933.07 -491.198897 
L 915.3639 -493.859477 
L 897.6578 -492.496238 
L 879.9517 -493.290394 
L 862.2456 -493.271995 
L 844.5395 -494.462142 
L 826.8334 -495.140139 
L 809.1273 -497.116766 
L 791.4212 -498.56679 
L 773.7151 -497.528053 
L 756.009 -497.389823 
L 738.3029 -498.480169 
L 720.5968 -499.513363 
L 702.8907 -499.198404 
L 685.1846 -501.213922 
L 667.4785 -500.420669 
L 649.7724 -500.92521 
L 632.0663 -504.513638 
L 614.3602 -504.459718 
L 596.6541 -502.023565 
L 578.948 -504.051654 
L 561.2419 -503.469167 
L 543.5358 -503.568187 
L 525.8297 -504.875106 
L 508.1236 -505.259969 
L 490.4175 -506.174468 
L 472.7114 -505.367471 
L 455.0053 -505.900575 
L 437.2992 -506.630643 
L 419.5931 -508.866217 
L 401.887 -509.362273 
L 384.1809 -507.87674 
L 366.4748 -509.817508 
L 348.7687 -514.06361 
L 331.0626 -513.770582 
L 313.3565 -515.853863 
L 295.6504 -517.134443 
L 277.9443 -519.469242 
L 260.2382 -521.028636 
L 242.5321 -521.904478 
L 224.826 -521.341189 
L 207.1199 -523.808027 
L 189.4138 -524.627503 
L 171.7077 -525.081627 
L 154.0016 -528.404894 
L 136.2955 -529.647241 
L 118.5894 -529.56641 
L 100.8833 -526.570141 
L 83.1772 -526.152024 
L 65.4711 -522.359288 
L 47.765 -522.434572 
z
" style="stroke: #2ca02c; stroke-opacity: 0.2"/>
    </defs>
    <g clip-path="url(#p08800a257a)">
     <use xlink:href="#mede19aa801" x="0" y="648" style="fill: #2ca02c; fill-opacity: 0.2; stroke: #2ca02c; stroke-opacity: 0.2"/>
    </g>
   </g>
   <g id="PolyCollection_4">
    <defs>
     <path id="m4ff6bfd0c9" d="M 47.765 -520.146164 
L 47.765 -449.929913 
L 65.4711 -447.769819 
L 83.1772 -449.936208 
L 100.8833 -450.615296 
L 118.5894 -451.15526 
L 136.2955 -451.150782 
L 154.0016 -452.242405 
L 171.7077 -456.195149 
L 189.4138 -450.294031 
L 207.1199 -450.973037 
L 224.826 -451.248851 
L 242.5321 -448.187225 
L 260.2382 -448.087004 
L 277.9443 -440.809393 
L 295.6504 -439.457968 
L 313.3565 -435.526575 
L 331.0626 -430.41813 
L 348.7687 -431.313593 
L 366.4748 -427.073488 
L 384.1809 -422.297673 
L 401.887 -421.69956 
L 419.5931 -420.648993 
L 437.2992 -417.563256 
L 455.0053 -413.567343 
L 472.7114 -408.205858 
L 490.4175 -405.517873 
L 508.1236 -406.850702 
L 525.8297 -403.817272 
L 543.5358 -400.82333 
L 561.2419 -399.583685 
L 578.948 -394.296637 
L 596.6541 -394.457455 
L 614.3602 -393.356988 
L 632.0663 -392.448573 
L 649.7724 -389.696348 
L 667.4785 -389.385789 
L 685.1846 -387.187637 
L 702.8907 -383.145938 
L 720.5968 -385.104539 
L 738.3029 -383.993863 
L 756.009 -383.642433 
L 773.7151 -385.179201 
L 791.4212 -383.487831 
L 809.1273 -385.664277 
L 826.8334 -382.777783 
L 844.5395 -382.246348 
L 862.2456 -378.308887 
L 879.9517 -379.32188 
L 897.6578 -382.708072 
L 915.3639 -384.348619 
L 933.07 -382.060445 
L 933.07 -490.731589 
L 933.07 -490.731589 
L 915.3639 -491.162095 
L 897.6578 -492.40009 
L 879.9517 -492.365939 
L 862.2456 -494.993017 
L 844.5395 -493.615993 
L 826.8334 -495.116535 
L 809.1273 -496.01195 
L 791.4212 -496.352646 
L 773.7151 -495.34293 
L 756.009 -497.112165 
L 738.3029 -498.583052 
L 720.5968 -497.574052 
L 702.8907 -496.57497 
L 685.1846 -497.52274 
L 667.4785 -499.930848 
L 649.7724 -499.493686 
L 632.0663 -499.66019 
L 614.3602 -498.811821 
L 596.6541 -498.425147 
L 578.948 -501.027194 
L 561.2419 -501.40079 
L 543.5358 -505.545083 
L 525.8297 -507.510683 
L 508.1236 -508.789986 
L 490.4175 -510.179752 
L 472.7114 -510.35534 
L 455.0053 -511.505546 
L 437.2992 -512.442781 
L 419.5931 -514.431274 
L 401.887 -515.02376 
L 384.1809 -516.690921 
L 366.4748 -520.019684 
L 348.7687 -519.979696 
L 331.0626 -520.748538 
L 313.3565 -521.961263 
L 295.6504 -523.211448 
L 277.9443 -525.188112 
L 260.2382 -523.571183 
L 242.5321 -525.766204 
L 224.826 -526.607641 
L 207.1199 -526.14627 
L 189.4138 -526.130651 
L 171.7077 -526.774261 
L 154.0016 -524.250202 
L 136.2955 -525.630902 
L 118.5894 -526.004802 
L 100.8833 -525.355278 
L 83.1772 -522.990206 
L 65.4711 -522.921914 
L 47.765 -520.146164 
z
" style="stroke: #d62728; stroke-opacity: 0.2"/>
    </defs>
    <g clip-path="url(#p08800a257a)">
     <use xlink:href="#m4ff6bfd0c9" x="0" y="648" style="fill: #d62728; fill-opacity: 0.2; stroke: #d62728; stroke-opacity: 0.2"/>
    </g>
   </g>
   <g id="PolyCollection_5">
    <defs>
     <path id="mc66815778d" d="M 47.765 -498.180606 
L 47.765 -414.659448 
L 65.4711 -413.041193 
L 83.1772 -412.583926 
L 100.8833 -411.319167 
L 118.5894 -408.245748 
L 136.2955 -409.182021 
L 154.0016 -407.934406 
L 171.7077 -406.025096 
L 189.4138 -405.905784 
L 207.1199 -405.891857 
L 224.826 -405.826021 
L 242.5321 -405.73618 
L 260.2382 -403.496591 
L 277.9443 -403.896971 
L 295.6504 -400.284446 
L 313.3565 -402.183558 
L 331.0626 -404.631647 
L 348.7687 -402.183634 
L 366.4748 -397.345633 
L 384.1809 -398.073614 
L 401.887 -399.953135 
L 419.5931 -396.560321 
L 437.2992 -393.511492 
L 455.0053 -395.414885 
L 472.7114 -394.435332 
L 490.4175 -393.256218 
L 508.1236 -392.6402 
L 525.8297 -394.162783 
L 543.5358 -395.466251 
L 561.2419 -392.836359 
L 578.948 -393.039281 
L 596.6541 -394.334927 
L 614.3602 -390.949058 
L 632.0663 -389.477663 
L 649.7724 -387.407434 
L 667.4785 -391.131462 
L 685.1846 -391.67915 
L 702.8907 -390.67295 
L 720.5968 -389.280124 
L 738.3029 -388.171511 
L 756.009 -387.079058 
L 773.7151 -386.365064 
L 791.4212 -391.123545 
L 809.1273 -387.920975 
L 826.8334 -389.417084 
L 844.5395 -390.442845 
L 862.2456 -389.208808 
L 879.9517 -387.694483 
L 897.6578 -391.039292 
L 915.3639 -388.475659 
L 933.07 -387.975748 
L 933.07 -485.51141 
L 933.07 -485.51141 
L 915.3639 -486.383911 
L 897.6578 -488.487365 
L 879.9517 -487.925325 
L 862.2456 -486.664425 
L 844.5395 -485.690765 
L 826.8334 -485.262397 
L 809.1273 -487.04214 
L 791.4212 -488.120327 
L 773.7151 -489.450598 
L 756.009 -486.298831 
L 738.3029 -487.197418 
L 720.5968 -487.192344 
L 702.8907 -487.426454 
L 685.1846 -488.094244 
L 667.4785 -489.972445 
L 649.7724 -488.854632 
L 632.0663 -490.524401 
L 614.3602 -491.689604 
L 596.6541 -493.181679 
L 578.948 -493.576595 
L 561.2419 -489.802396 
L 543.5358 -488.366498 
L 525.8297 -488.798157 
L 508.1236 -491.471116 
L 490.4175 -489.832632 
L 472.7114 -490.212199 
L 455.0053 -490.263442 
L 437.2992 -488.69436 
L 419.5931 -490.376412 
L 401.887 -490.900983 
L 384.1809 -491.442296 
L 366.4748 -491.037851 
L 348.7687 -490.275545 
L 331.0626 -490.148548 
L 313.3565 -491.443141 
L 295.6504 -492.917019 
L 277.9443 -492.78377 
L 260.2382 -492.914258 
L 242.5321 -494.222189 
L 224.826 -494.187819 
L 207.1199 -493.838994 
L 189.4138 -494.230288 
L 171.7077 -494.845055 
L 154.0016 -494.015109 
L 136.2955 -495.621889 
L 118.5894 -495.793323 
L 100.8833 -496.030987 
L 83.1772 -495.93665 
L 65.4711 -495.80326 
L 47.765 -498.180606 
z
" style="stroke: #9467bd; stroke-opacity: 0.2"/>
    </defs>
    <g clip-path="url(#p08800a257a)">
     <use xlink:href="#mc66815778d" x="0" y="648" style="fill: #9467bd; fill-opacity: 0.2; stroke: #9467bd; stroke-opacity: 0.2"/>
    </g>
   </g>
   <g id="PolyCollection_6">
    <defs>
     <path id="m205b08e711" d="M 47.765 -511.622818 
L 47.765 -440.212563 
L 65.4711 -440.493757 
L 83.1772 -441.90449 
L 100.8833 -436.898228 
L 118.5894 -439.420744 
L 136.2955 -434.497137 
L 154.0016 -436.891376 
L 171.7077 -436.744632 
L 189.4138 -432.371664 
L 207.1199 -431.021897 
L 224.826 -430.543247 
L 242.5321 -427.035531 
L 260.2382 -426.155287 
L 277.9443 -423.273302 
L 295.6504 -420.211734 
L 313.3565 -416.767793 
L 331.0626 -412.486848 
L 348.7687 -405.679884 
L 366.4748 -401.908574 
L 384.1809 -400.175648 
L 401.887 -399.443969 
L 419.5931 -397.649073 
L 437.2992 -395.945701 
L 455.0053 -391.743146 
L 472.7114 -394.361599 
L 490.4175 -391.396583 
L 508.1236 -388.347687 
L 525.8297 -385.12845 
L 543.5358 -382.196883 
L 561.2419 -379.45711 
L 578.948 -378.153899 
L 596.6541 -377.561045 
L 614.3602 -376.697046 
L 632.0663 -378.169798 
L 649.7724 -379.797548 
L 667.4785 -380.274731 
L 685.1846 -378.520579 
L 702.8907 -379.471071 
L 720.5968 -375.599961 
L 738.3029 -374.717001 
L 756.009 -372.677566 
L 773.7151 -372.362328 
L 791.4212 -375.224285 
L 809.1273 -373.828272 
L 826.8334 -376.01241 
L 844.5395 -375.614584 
L 862.2456 -375.632226 
L 879.9517 -373.16278 
L 897.6578 -373.29665 
L 915.3639 -375.494912 
L 933.07 -374.092809 
L 933.07 -476.837109 
L 933.07 -476.837109 
L 915.3639 -477.912362 
L 897.6578 -477.275519 
L 879.9517 -477.691717 
L 862.2456 -476.775238 
L 844.5395 -475.640281 
L 826.8334 -474.885281 
L 809.1273 -476.140398 
L 791.4212 -475.133881 
L 773.7151 -477.278436 
L 756.009 -477.052909 
L 738.3029 -477.900972 
L 720.5968 -477.064541 
L 702.8907 -478.100825 
L 685.1846 -480.040782 
L 667.4785 -479.102693 
L 649.7724 -479.011228 
L 632.0663 -481.363 
L 614.3602 -480.478968 
L 596.6541 -481.621509 
L 578.948 -483.367965 
L 561.2419 -484.296779 
L 543.5358 -484.935955 
L 525.8297 -486.159901 
L 508.1236 -486.70171 
L 490.4175 -489.50185 
L 472.7114 -487.932398 
L 455.0053 -488.074717 
L 437.2992 -488.892446 
L 419.5931 -489.276272 
L 401.887 -492.792036 
L 384.1809 -492.536261 
L 366.4748 -491.785971 
L 348.7687 -494.496767 
L 331.0626 -495.024089 
L 313.3565 -497.645915 
L 295.6504 -501.067883 
L 277.9443 -503.339848 
L 260.2382 -504.157226 
L 242.5321 -507.532925 
L 224.826 -508.618054 
L 207.1199 -509.666411 
L 189.4138 -511.355647 
L 171.7077 -512.42385 
L 154.0016 -513.217679 
L 136.2955 -512.505216 
L 118.5894 -515.200438 
L 100.8833 -513.603396 
L 83.1772 -514.561765 
L 65.4711 -512.261872 
L 47.765 -511.622818 
z
" style="stroke: #8c564b; stroke-opacity: 0.2"/>
    </defs>
    <g clip-path="url(#p08800a257a)">
     <use xlink:href="#m205b08e711" x="0" y="648" style="fill: #8c564b; fill-opacity: 0.2; stroke: #8c564b; stroke-opacity: 0.2"/>
    </g>
   </g>
   <g id="PolyCollection_7">
    <defs>
     <path id="m170d6823ee" d="M 47.765 -503.398196 
L 47.765 -436.460626 
L 65.4711 -434.505794 
L 83.1772 -432.678747 
L 100.8833 -433.332044 
L 118.5894 -432.065003 
L 136.2955 -429.484508 
L 154.0016 -425.633753 
L 171.7077 -419.93496 
L 189.4138 -418.381673 
L 207.1199 -414.693127 
L 224.826 -414.03611 
L 242.5321 -410.749326 
L 260.2382 -405.463033 
L 277.9443 -403.786849 
L 295.6504 -401.165256 
L 313.3565 -398.358572 
L 331.0626 -399.295229 
L 348.7687 -398.778957 
L 366.4748 -390.88409 
L 384.1809 -389.798995 
L 401.887 -387.473356 
L 419.5931 -387.913501 
L 437.2992 -390.116787 
L 455.0053 -387.519787 
L 472.7114 -382.687219 
L 490.4175 -382.292725 
L 508.1236 -381.227306 
L 525.8297 -379.369811 
L 543.5358 -379.708001 
L 561.2419 -379.635165 
L 578.948 -379.41823 
L 596.6541 -376.58942 
L 614.3602 -374.618267 
L 632.0663 -374.793488 
L 649.7724 -373.313844 
L 667.4785 -374.620015 
L 685.1846 -373.750992 
L 702.8907 -370.459792 
L 720.5968 -371.664357 
L 738.3029 -373.86114 
L 756.009 -369.827058 
L 773.7151 -370.793944 
L 791.4212 -371.215017 
L 809.1273 -370.660624 
L 826.8334 -369.205323 
L 844.5395 -370.751845 
L 862.2456 -370.719883 
L 879.9517 -372.605536 
L 897.6578 -372.579076 
L 915.3639 -371.360383 
L 933.07 -372.849888 
L 933.07 -481.482225 
L 933.07 -481.482225 
L 915.3639 -481.804899 
L 897.6578 -481.746048 
L 879.9517 -483.61589 
L 862.2456 -484.089322 
L 844.5395 -484.347032 
L 826.8334 -485.681381 
L 809.1273 -484.461638 
L 791.4212 -484.36309 
L 773.7151 -485.274225 
L 756.009 -485.873589 
L 738.3029 -485.443134 
L 720.5968 -485.160474 
L 702.8907 -485.477375 
L 685.1846 -485.343057 
L 667.4785 -488.737362 
L 649.7724 -486.987382 
L 632.0663 -484.376536 
L 614.3602 -487.394058 
L 596.6541 -487.405203 
L 578.948 -489.4506 
L 561.2419 -488.7265 
L 543.5358 -490.018528 
L 525.8297 -488.980434 
L 508.1236 -490.42472 
L 490.4175 -489.702537 
L 472.7114 -488.888075 
L 455.0053 -491.100781 
L 437.2992 -490.536767 
L 419.5931 -490.458584 
L 401.887 -493.779928 
L 384.1809 -494.633291 
L 366.4748 -494.109196 
L 348.7687 -495.986111 
L 331.0626 -494.710309 
L 313.3565 -497.76826 
L 295.6504 -498.404699 
L 277.9443 -500.697235 
L 260.2382 -502.457132 
L 242.5321 -504.612253 
L 224.826 -504.767364 
L 207.1199 -503.181933 
L 189.4138 -503.305258 
L 171.7077 -503.466465 
L 154.0016 -506.364738 
L 136.2955 -503.615923 
L 118.5894 -505.762417 
L 100.8833 -504.105102 
L 83.1772 -504.643203 
L 65.4711 -503.858062 
L 47.765 -503.398196 
z
" style="stroke: #e377c2; stroke-opacity: 0.2"/>
    </defs>
    <g clip-path="url(#p08800a257a)">
     <use xlink:href="#m170d6823ee" x="0" y="648" style="fill: #e377c2; fill-opacity: 0.2; stroke: #e377c2; stroke-opacity: 0.2"/>
    </g>
   </g>
   <g id="PolyCollection_8">
    <defs>
     <path id="m8bdf9d2439" d="M 47.765 -505.073418 
L 47.765 -428.324727 
L 65.4711 -430.453818 
L 83.1772 -426.794258 
L 100.8833 -429.310441 
L 118.5894 -426.715043 
L 136.2955 -426.196536 
L 154.0016 -425.636438 
L 171.7077 -422.273938 
L 189.4138 -420.908966 
L 207.1199 -420.491206 
L 224.826 -416.91149 
L 242.5321 -414.517102 
L 260.2382 -411.138205 
L 277.9443 -410.245918 
L 295.6504 -409.037553 
L 313.3565 -406.384571 
L 331.0626 -401.658677 
L 348.7687 -400.799664 
L 366.4748 -395.799723 
L 384.1809 -392.873264 
L 401.887 -394.456299 
L 419.5931 -392.827112 
L 437.2992 -392.305654 
L 455.0053 -388.344471 
L 472.7114 -388.005835 
L 490.4175 -385.274365 
L 508.1236 -383.531378 
L 525.8297 -383.790998 
L 543.5358 -382.433351 
L 561.2419 -379.659338 
L 578.948 -378.262175 
L 596.6541 -380.979009 
L 614.3602 -378.628192 
L 632.0663 -377.583656 
L 649.7724 -379.493236 
L 667.4785 -376.496226 
L 685.1846 -375.294242 
L 702.8907 -376.023998 
L 720.5968 -374.910128 
L 738.3029 -375.445156 
L 756.009 -373.158275 
L 773.7151 -372.098888 
L 791.4212 -372.812344 
L 809.1273 -374.434799 
L 826.8334 -373.665377 
L 844.5395 -370.170769 
L 862.2456 -370.78246 
L 879.9517 -372.474694 
L 897.6578 -374.211005 
L 915.3639 -373.939513 
L 933.07 -373.351772 
L 933.07 -479.120854 
L 933.07 -479.120854 
L 915.3639 -480.38599 
L 897.6578 -481.588916 
L 879.9517 -481.385173 
L 862.2456 -481.344704 
L 844.5395 -480.880607 
L 826.8334 -481.63198 
L 809.1273 -481.851845 
L 791.4212 -480.725337 
L 773.7151 -480.638038 
L 756.009 -480.790381 
L 738.3029 -480.382572 
L 720.5968 -479.662597 
L 702.8907 -482.540541 
L 685.1846 -483.957698 
L 667.4785 -484.750867 
L 649.7724 -486.269413 
L 632.0663 -485.03501 
L 614.3602 -486.571929 
L 596.6541 -485.359854 
L 578.948 -486.147617 
L 561.2419 -486.066705 
L 543.5358 -485.78823 
L 525.8297 -488.844075 
L 508.1236 -489.074705 
L 490.4175 -490.701354 
L 472.7114 -490.720126 
L 455.0053 -490.488017 
L 437.2992 -491.236254 
L 419.5931 -492.201876 
L 401.887 -490.688636 
L 384.1809 -492.559762 
L 366.4748 -494.631875 
L 348.7687 -496.988319 
L 331.0626 -498.20079 
L 313.3565 -497.749811 
L 295.6504 -498.95941 
L 277.9443 -499.117011 
L 260.2382 -502.328585 
L 242.5321 -503.643583 
L 224.826 -505.536243 
L 207.1199 -504.382468 
L 189.4138 -507.452688 
L 171.7077 -507.822347 
L 154.0016 -507.889607 
L 136.2955 -509.535651 
L 118.5894 -509.314104 
L 100.8833 -507.235713 
L 83.1772 -505.152812 
L 65.4711 -504.792261 
L 47.765 -505.073418 
z
" style="stroke: #7f7f7f; stroke-opacity: 0.2"/>
    </defs>
    <g clip-path="url(#p08800a257a)">
     <use xlink:href="#m8bdf9d2439" x="0" y="648" style="fill: #7f7f7f; fill-opacity: 0.2; stroke: #7f7f7f; stroke-opacity: 0.2"/>
    </g>
   </g>
   <g id="PolyCollection_9">
    <defs>
     <path id="m994dc84808" d="M 47.765 -515.448371 
L 47.765 -440.122473 
L 65.4711 -440.735545 
L 83.1772 -442.563421 
L 100.8833 -440.069835 
L 118.5894 -439.701017 
L 136.2955 -435.712126 
L 154.0016 -432.856362 
L 171.7077 -436.915961 
L 189.4138 -432.81751 
L 207.1199 -425.279172 
L 224.826 -424.835214 
L 242.5321 -417.247499 
L 260.2382 -415.791601 
L 277.9443 -411.146643 
L 295.6504 -409.592255 
L 313.3565 -406.622333 
L 331.0626 -405.47555 
L 348.7687 -406.811703 
L 366.4748 -404.681535 
L 384.1809 -400.609027 
L 401.887 -401.98207 
L 419.5931 -397.382745 
L 437.2992 -396.383134 
L 455.0053 -390.133221 
L 472.7114 -389.840078 
L 490.4175 -389.447675 
L 508.1236 -387.682272 
L 525.8297 -387.15523 
L 543.5358 -384.689336 
L 561.2419 -383.694655 
L 578.948 -385.603562 
L 596.6541 -385.232479 
L 614.3602 -382.551908 
L 632.0663 -381.895002 
L 649.7724 -383.407651 
L 667.4785 -381.487321 
L 685.1846 -380.789551 
L 702.8907 -382.061529 
L 720.5968 -381.375386 
L 738.3029 -380.588385 
L 756.009 -379.18931 
L 773.7151 -378.683802 
L 791.4212 -380.515749 
L 809.1273 -382.428941 
L 826.8334 -381.610907 
L 844.5395 -378.623856 
L 862.2456 -381.644495 
L 879.9517 -381.210739 
L 897.6578 -380.416807 
L 915.3639 -382.819106 
L 933.07 -380.988329 
L 933.07 -482.813481 
L 933.07 -482.813481 
L 915.3639 -483.957708 
L 897.6578 -483.487127 
L 879.9517 -481.592245 
L 862.2456 -483.096336 
L 844.5395 -484.035941 
L 826.8334 -484.052641 
L 809.1273 -482.132062 
L 791.4212 -485.159549 
L 773.7151 -482.570214 
L 756.009 -481.972289 
L 738.3029 -484.375096 
L 720.5968 -483.342483 
L 702.8907 -484.050746 
L 685.1846 -484.504164 
L 667.4785 -485.057832 
L 649.7724 -484.597044 
L 632.0663 -486.119941 
L 614.3602 -485.53977 
L 596.6541 -483.591175 
L 578.948 -487.180053 
L 561.2419 -487.035721 
L 543.5358 -490.304809 
L 525.8297 -491.53296 
L 508.1236 -493.589821 
L 490.4175 -494.083358 
L 472.7114 -494.648723 
L 455.0053 -495.875763 
L 437.2992 -497.991233 
L 419.5931 -498.155731 
L 401.887 -497.755826 
L 384.1809 -500.70913 
L 366.4748 -500.16084 
L 348.7687 -501.556252 
L 331.0626 -504.49159 
L 313.3565 -504.219712 
L 295.6504 -505.289266 
L 277.9443 -506.305274 
L 260.2382 -508.257804 
L 242.5321 -508.729064 
L 224.826 -512.521772 
L 207.1199 -515.47421 
L 189.4138 -517.807086 
L 171.7077 -517.641306 
L 154.0016 -517.826725 
L 136.2955 -520.035746 
L 118.5894 -522.147561 
L 100.8833 -522.781857 
L 83.1772 -522.564579 
L 65.4711 -520.667775 
L 47.765 -515.448371 
z
" style="stroke: #bcbd22; stroke-opacity: 0.2"/>
    </defs>
    <g clip-path="url(#p08800a257a)">
     <use xlink:href="#m994dc84808" x="0" y="648" style="fill: #bcbd22; fill-opacity: 0.2; stroke: #bcbd22; stroke-opacity: 0.2"/>
    </g>
   </g>
   <g id="PolyCollection_10">
    <defs>
     <path id="mc0ccb8665f" d="M 47.765 -508.17675 
L 47.765 -436.668058 
L 65.4711 -435.764754 
L 83.1772 -434.953566 
L 100.8833 -438.775841 
L 118.5894 -434.803923 
L 136.2955 -433.969227 
L 154.0016 -430.894602 
L 171.7077 -429.795205 
L 189.4138 -428.354119 
L 207.1199 -427.189844 
L 224.826 -423.123903 
L 242.5321 -416.240554 
L 260.2382 -415.848404 
L 277.9443 -414.146188 
L 295.6504 -413.941891 
L 313.3565 -413.379208 
L 331.0626 -408.190631 
L 348.7687 -407.084569 
L 366.4748 -406.078292 
L 384.1809 -402.352241 
L 401.887 -399.718936 
L 419.5931 -398.620069 
L 437.2992 -396.295106 
L 455.0053 -393.787899 
L 472.7114 -391.703994 
L 490.4175 -389.967906 
L 508.1236 -390.584378 
L 525.8297 -389.793617 
L 543.5358 -391.817079 
L 561.2419 -388.682171 
L 578.948 -384.152598 
L 596.6541 -384.659219 
L 614.3602 -381.140297 
L 632.0663 -382.132088 
L 649.7724 -378.790379 
L 667.4785 -376.862046 
L 685.1846 -373.924925 
L 702.8907 -375.736022 
L 720.5968 -375.851867 
L 738.3029 -373.890763 
L 756.009 -378.127593 
L 773.7151 -376.650469 
L 791.4212 -373.621019 
L 809.1273 -374.877963 
L 826.8334 -374.050951 
L 844.5395 -372.949013 
L 862.2456 -374.961527 
L 879.9517 -371.346011 
L 897.6578 -372.087807 
L 915.3639 -370.248725 
L 933.07 -369.08898 
L 933.07 -474.063783 
L 933.07 -474.063783 
L 915.3639 -473.883726 
L 897.6578 -474.13215 
L 879.9517 -473.562734 
L 862.2456 -474.392528 
L 844.5395 -472.689167 
L 826.8334 -472.346942 
L 809.1273 -473.204927 
L 791.4212 -473.480552 
L 773.7151 -473.129879 
L 756.009 -473.905817 
L 738.3029 -474.820275 
L 720.5968 -474.375169 
L 702.8907 -475.761362 
L 685.1846 -476.207923 
L 667.4785 -477.050673 
L 649.7724 -476.810454 
L 632.0663 -477.164235 
L 614.3602 -477.145462 
L 596.6541 -477.196873 
L 578.948 -479.175429 
L 561.2419 -480.772411 
L 543.5358 -481.455149 
L 525.8297 -482.246938 
L 508.1236 -483.066685 
L 490.4175 -486.60475 
L 472.7114 -487.786743 
L 455.0053 -489.129687 
L 437.2992 -492.418563 
L 419.5931 -493.147016 
L 401.887 -494.636644 
L 384.1809 -496.06615 
L 366.4748 -495.600048 
L 348.7687 -498.694936 
L 331.0626 -500.484371 
L 313.3565 -502.692483 
L 295.6504 -501.618106 
L 277.9443 -503.219929 
L 260.2382 -503.212308 
L 242.5321 -503.856709 
L 224.826 -505.978122 
L 207.1199 -508.717965 
L 189.4138 -510.159006 
L 171.7077 -510.285299 
L 154.0016 -512.038295 
L 136.2955 -513.646582 
L 118.5894 -513.511672 
L 100.8833 -514.160209 
L 83.1772 -513.681733 
L 65.4711 -510.505398 
L 47.765 -508.17675 
z
" style="stroke: #17becf; stroke-opacity: 0.2"/>
    </defs>
    <g clip-path="url(#p08800a257a)">
     <use xlink:href="#mc0ccb8665f" x="0" y="648" style="fill: #17becf; fill-opacity: 0.2; stroke: #17becf; stroke-opacity: 0.2"/>
    </g>
   </g>
   <g id="PolyCollection_11">
    <defs>
     <path id="mfbf7157c35" d="M 47.765 -490.510449 
L 47.765 -424.455541 
L 65.4711 -421.374656 
L 83.1772 -420.163403 
L 100.8833 -418.059557 
L 118.5894 -417.242544 
L 136.2955 -417.40969 
L 154.0016 -416.046995 
L 171.7077 -415.417492 
L 189.4138 -415.067338 
L 207.1199 -411.636414 
L 224.826 -410.027662 
L 242.5321 -411.223625 
L 260.2382 -411.491748 
L 277.9443 -406.882392 
L 295.6504 -408.390651 
L 313.3565 -408.373834 
L 331.0626 -408.110049 
L 348.7687 -406.345035 
L 366.4748 -406.482968 
L 384.1809 -408.541358 
L 401.887 -406.167038 
L 419.5931 -404.094023 
L 437.2992 -404.91326 
L 455.0053 -402.865796 
L 472.7114 -405.354418 
L 490.4175 -402.464775 
L 508.1236 -396.843453 
L 525.8297 -395.52557 
L 543.5358 -390.960305 
L 561.2419 -391.252272 
L 578.948 -389.115678 
L 596.6541 -388.154149 
L 614.3602 -385.32475 
L 632.0663 -384.210363 
L 649.7724 -384.177096 
L 667.4785 -384.660483 
L 685.1846 -385.643962 
L 702.8907 -384.451793 
L 720.5968 -386.02116 
L 738.3029 -383.507137 
L 756.009 -384.020952 
L 773.7151 -382.202914 
L 791.4212 -383.146022 
L 809.1273 -379.49001 
L 826.8334 -380.134343 
L 844.5395 -380.337943 
L 862.2456 -379.955211 
L 879.9517 -377.770912 
L 897.6578 -375.651438 
L 915.3639 -375.642698 
L 933.07 -378.066246 
L 933.07 -470.565357 
L 933.07 -470.565357 
L 915.3639 -471.534208 
L 897.6578 -473.672692 
L 879.9517 -474.245965 
L 862.2456 -475.036091 
L 844.5395 -474.825098 
L 826.8334 -474.729328 
L 809.1273 -476.538815 
L 791.4212 -476.196482 
L 773.7151 -476.801922 
L 756.009 -476.572347 
L 738.3029 -477.166661 
L 720.5968 -478.279252 
L 702.8907 -477.850984 
L 685.1846 -477.595454 
L 667.4785 -479.274601 
L 649.7724 -477.87026 
L 632.0663 -479.271041 
L 614.3602 -480.270226 
L 596.6541 -480.029659 
L 578.948 -484.354138 
L 561.2419 -484.971197 
L 543.5358 -482.433422 
L 525.8297 -484.659889 
L 508.1236 -483.819884 
L 490.4175 -485.470846 
L 472.7114 -485.234062 
L 455.0053 -486.451691 
L 437.2992 -486.502739 
L 419.5931 -486.038979 
L 401.887 -486.749533 
L 384.1809 -489.737326 
L 366.4748 -487.031193 
L 348.7687 -489.197448 
L 331.0626 -488.063073 
L 313.3565 -489.663729 
L 295.6504 -489.181154 
L 277.9443 -487.282258 
L 260.2382 -491.162286 
L 242.5321 -490.24454 
L 224.826 -490.569316 
L 207.1199 -492.396425 
L 189.4138 -491.021913 
L 171.7077 -491.136954 
L 154.0016 -491.342831 
L 136.2955 -492.347481 
L 118.5894 -492.420889 
L 100.8833 -491.686394 
L 83.1772 -489.947865 
L 65.4711 -491.696056 
L 47.765 -490.510449 
z
" style="stroke: #9edae5; stroke-opacity: 0.2"/>
    </defs>
    <g clip-path="url(#p08800a257a)">
     <use xlink:href="#mfbf7157c35" x="0" y="648" style="fill: #9edae5; fill-opacity: 0.2; stroke: #9edae5; stroke-opacity: 0.2"/>
    </g>
   </g>
   <g id="matplotlib.axis_1">
    <g id="xtick_1">
     <g id="line2d_1">
      <defs>
       <path id="m4cea552767" d="M 0 0 
L 0 3.5 
" style="stroke: #000000; stroke-width: 0.8"/>
      </defs>
      <g>
       <use xlink:href="#m4cea552767" x="47.765" y="606.04" style="stroke: #000000; stroke-width: 0.8"/>
      </g>
     </g>
     <g id="text_1">
      <!-- 30 -->
      <g transform="translate(41.4025 620.638438) scale(0.1 -0.1)">
       <defs>
        <path id="DejaVuSans-33" d="M 2597 2516 
Q 3050 2419 3304 2112 
Q 3559 1806 3559 1356 
Q 3559 666 3084 287 
Q 2609 -91 1734 -91 
Q 1441 -91 1130 -33 
Q 819 25 488 141 
L 488 750 
Q 750 597 1062 519 
Q 1375 441 1716 441 
Q 2309 441 2620 675 
Q 2931 909 2931 1356 
Q 2931 1769 2642 2001 
Q 2353 2234 1838 2234 
L 1294 2234 
L 1294 2753 
L 1863 2753 
Q 2328 2753 2575 2939 
Q 2822 3125 2822 3475 
Q 2822 3834 2567 4026 
Q 2313 4219 1838 4219 
Q 1578 4219 1281 4162 
Q 984 4106 628 3988 
L 628 4550 
Q 988 4650 1302 4700 
Q 1616 4750 1894 4750 
Q 2613 4750 3031 4423 
Q 3450 4097 3450 3541 
Q 3450 3153 3228 2886 
Q 3006 2619 2597 2516 
z
" transform="scale(0.015625)"/>
        <path id="DejaVuSans-30" d="M 2034 4250 
Q 1547 4250 1301 3770 
Q 1056 3291 1056 2328 
Q 1056 1369 1301 889 
Q 1547 409 2034 409 
Q 2525 409 2770 889 
Q 3016 1369 3016 2328 
Q 3016 3291 2770 3770 
Q 2525 4250 2034 4250 
z
M 2034 4750 
Q 2819 4750 3233 4129 
Q 3647 3509 3647 2328 
Q 3647 1150 3233 529 
Q 2819 -91 2034 -91 
Q 1250 -91 836 529 
Q 422 1150 422 2328 
Q 422 3509 836 4129 
Q 1250 4750 2034 4750 
z
" transform="scale(0.015625)"/>
       </defs>
       <use xlink:href="#DejaVuSans-33"/>
       <use xlink:href="#DejaVuSans-30" x="63.623047"/>
      </g>
     </g>
    </g>
    <g id="xtick_2">
     <g id="line2d_2">
      <g>
       <use xlink:href="#m4cea552767" x="224.826" y="606.04" style="stroke: #000000; stroke-width: 0.8"/>
      </g>
     </g>
     <g id="text_2">
      <!-- 40 -->
      <g transform="translate(218.4635 620.638438) scale(0.1 -0.1)">
       <defs>
        <path id="DejaVuSans-34" d="M 2419 4116 
L 825 1625 
L 2419 1625 
L 2419 4116 
z
M 2253 4666 
L 3047 4666 
L 3047 1625 
L 3713 1625 
L 3713 1100 
L 3047 1100 
L 3047 0 
L 2419 0 
L 2419 1100 
L 313 1100 
L 313 1709 
L 2253 4666 
z
" transform="scale(0.015625)"/>
       </defs>
       <use xlink:href="#DejaVuSans-34"/>
       <use xlink:href="#DejaVuSans-30" x="63.623047"/>
      </g>
     </g>
    </g>
    <g id="xtick_3">
     <g id="line2d_3">
      <g>
       <use xlink:href="#m4cea552767" x="401.887" y="606.04" style="stroke: #000000; stroke-width: 0.8"/>
      </g>
     </g>
     <g id="text_3">
      <!-- 50 -->
      <g transform="translate(395.5245 620.638438) scale(0.1 -0.1)">
       <defs>
        <path id="DejaVuSans-35" d="M 691 4666 
L 3169 4666 
L 3169 4134 
L 1269 4134 
L 1269 2991 
Q 1406 3038 1543 3061 
Q 1681 3084 1819 3084 
Q 2600 3084 3056 2656 
Q 3513 2228 3513 1497 
Q 3513 744 3044 326 
Q 2575 -91 1722 -91 
Q 1428 -91 1123 -41 
Q 819 9 494 109 
L 494 744 
Q 775 591 1075 516 
Q 1375 441 1709 441 
Q 2250 441 2565 725 
Q 2881 1009 2881 1497 
Q 2881 1984 2565 2268 
Q 2250 2553 1709 2553 
Q 1456 2553 1204 2497 
Q 953 2441 691 2322 
L 691 4666 
z
" transform="scale(0.015625)"/>
       </defs>
       <use xlink:href="#DejaVuSans-35"/>
       <use xlink:href="#DejaVuSans-30" x="63.623047"/>
      </g>
     </g>
    </g>
    <g id="xtick_4">
     <g id="line2d_4">
      <g>
       <use xlink:href="#m4cea552767" x="578.948" y="606.04" style="stroke: #000000; stroke-width: 0.8"/>
      </g>
     </g>
     <g id="text_4">
      <!-- 60 -->
      <g transform="translate(572.5855 620.638438) scale(0.1 -0.1)">
       <defs>
        <path id="DejaVuSans-36" d="M 2113 2584 
Q 1688 2584 1439 2293 
Q 1191 2003 1191 1497 
Q 1191 994 1439 701 
Q 1688 409 2113 409 
Q 2538 409 2786 701 
Q 3034 994 3034 1497 
Q 3034 2003 2786 2293 
Q 2538 2584 2113 2584 
z
M 3366 4563 
L 3366 3988 
Q 3128 4100 2886 4159 
Q 2644 4219 2406 4219 
Q 1781 4219 1451 3797 
Q 1122 3375 1075 2522 
Q 1259 2794 1537 2939 
Q 1816 3084 2150 3084 
Q 2853 3084 3261 2657 
Q 3669 2231 3669 1497 
Q 3669 778 3244 343 
Q 2819 -91 2113 -91 
Q 1303 -91 875 529 
Q 447 1150 447 2328 
Q 447 3434 972 4092 
Q 1497 4750 2381 4750 
Q 2619 4750 2861 4703 
Q 3103 4656 3366 4563 
z
" transform="scale(0.015625)"/>
       </defs>
       <use xlink:href="#DejaVuSans-36"/>
       <use xlink:href="#DejaVuSans-30" x="63.623047"/>
      </g>
     </g>
    </g>
    <g id="xtick_5">
     <g id="line2d_5">
      <g>
       <use xlink:href="#m4cea552767" x="756.009" y="606.04" style="stroke: #000000; stroke-width: 0.8"/>
      </g>
     </g>
     <g id="text_5">
      <!-- 70 -->
      <g transform="translate(749.6465 620.638438) scale(0.1 -0.1)">
       <defs>
        <path id="DejaVuSans-37" d="M 525 4666 
L 3525 4666 
L 3525 4397 
L 1831 0 
L 1172 0 
L 2766 4134 
L 525 4134 
L 525 4666 
z
" transform="scale(0.015625)"/>
       </defs>
       <use xlink:href="#DejaVuSans-37"/>
       <use xlink:href="#DejaVuSans-30" x="63.623047"/>
      </g>
     </g>
    </g>
    <g id="xtick_6">
     <g id="line2d_6">
      <g>
       <use xlink:href="#m4cea552767" x="933.07" y="606.04" style="stroke: #000000; stroke-width: 0.8"/>
      </g>
     </g>
     <g id="text_6">
      <!-- 80 -->
      <g transform="translate(926.7075 620.638438) scale(0.1 -0.1)">
       <defs>
        <path id="DejaVuSans-38" d="M 2034 2216 
Q 1584 2216 1326 1975 
Q 1069 1734 1069 1313 
Q 1069 891 1326 650 
Q 1584 409 2034 409 
Q 2484 409 2743 651 
Q 3003 894 3003 1313 
Q 3003 1734 2745 1975 
Q 2488 2216 2034 2216 
z
M 1403 2484 
Q 997 2584 770 2862 
Q 544 3141 544 3541 
Q 544 4100 942 4425 
Q 1341 4750 2034 4750 
Q 2731 4750 3128 4425 
Q 3525 4100 3525 3541 
Q 3525 3141 3298 2862 
Q 3072 2584 2669 2484 
Q 3125 2378 3379 2068 
Q 3634 1759 3634 1313 
Q 3634 634 3220 271 
Q 2806 -91 2034 -91 
Q 1263 -91 848 271 
Q 434 634 434 1313 
Q 434 1759 690 2068 
Q 947 2378 1403 2484 
z
M 1172 3481 
Q 1172 3119 1398 2916 
Q 1625 2713 2034 2713 
Q 2441 2713 2670 2916 
Q 2900 3119 2900 3481 
Q 2900 3844 2670 4047 
Q 2441 4250 2034 4250 
Q 1625 4250 1398 4047 
Q 1172 3844 1172 3481 
z
" transform="scale(0.015625)"/>
       </defs>
       <use xlink:href="#DejaVuSans-38"/>
       <use xlink:href="#DejaVuSans-30" x="63.623047"/>
      </g>
     </g>
    </g>
    <g id="text_7">
     <!-- Number of Baits -->
     <g transform="translate(449.885469 634.316563) scale(0.1 -0.1)">
      <defs>
       <path id="DejaVuSans-4e" d="M 628 4666 
L 1478 4666 
L 3547 763 
L 3547 4666 
L 4159 4666 
L 4159 0 
L 3309 0 
L 1241 3903 
L 1241 0 
L 628 0 
L 628 4666 
z
" transform="scale(0.015625)"/>
       <path id="DejaVuSans-75" d="M 544 1381 
L 544 3500 
L 1119 3500 
L 1119 1403 
Q 1119 906 1312 657 
Q 1506 409 1894 409 
Q 2359 409 2629 706 
Q 2900 1003 2900 1516 
L 2900 3500 
L 3475 3500 
L 3475 0 
L 2900 0 
L 2900 538 
Q 2691 219 2414 64 
Q 2138 -91 1772 -91 
Q 1169 -91 856 284 
Q 544 659 544 1381 
z
M 1991 3584 
L 1991 3584 
z
" transform="scale(0.015625)"/>
       <path id="DejaVuSans-6d" d="M 3328 2828 
Q 3544 3216 3844 3400 
Q 4144 3584 4550 3584 
Q 5097 3584 5394 3201 
Q 5691 2819 5691 2113 
L 5691 0 
L 5113 0 
L 5113 2094 
Q 5113 2597 4934 2840 
Q 4756 3084 4391 3084 
Q 3944 3084 3684 2787 
Q 3425 2491 3425 1978 
L 3425 0 
L 2847 0 
L 2847 2094 
Q 2847 2600 2669 2842 
Q 2491 3084 2119 3084 
Q 1678 3084 1418 2786 
Q 1159 2488 1159 1978 
L 1159 0 
L 581 0 
L 581 3500 
L 1159 3500 
L 1159 2956 
Q 1356 3278 1631 3431 
Q 1906 3584 2284 3584 
Q 2666 3584 2933 3390 
Q 3200 3197 3328 2828 
z
" transform="scale(0.015625)"/>
       <path id="DejaVuSans-62" d="M 3116 1747 
Q 3116 2381 2855 2742 
Q 2594 3103 2138 3103 
Q 1681 3103 1420 2742 
Q 1159 2381 1159 1747 
Q 1159 1113 1420 752 
Q 1681 391 2138 391 
Q 2594 391 2855 752 
Q 3116 1113 3116 1747 
z
M 1159 2969 
Q 1341 3281 1617 3432 
Q 1894 3584 2278 3584 
Q 2916 3584 3314 3078 
Q 3713 2572 3713 1747 
Q 3713 922 3314 415 
Q 2916 -91 2278 -91 
Q 1894 -91 1617 61 
Q 1341 213 1159 525 
L 1159 0 
L 581 0 
L 581 4863 
L 1159 4863 
L 1159 2969 
z
" transform="scale(0.015625)"/>
       <path id="DejaVuSans-65" d="M 3597 1894 
L 3597 1613 
L 953 1613 
Q 991 1019 1311 708 
Q 1631 397 2203 397 
Q 2534 397 2845 478 
Q 3156 559 3463 722 
L 3463 178 
Q 3153 47 2828 -22 
Q 2503 -91 2169 -91 
Q 1331 -91 842 396 
Q 353 884 353 1716 
Q 353 2575 817 3079 
Q 1281 3584 2069 3584 
Q 2775 3584 3186 3129 
Q 3597 2675 3597 1894 
z
M 3022 2063 
Q 3016 2534 2758 2815 
Q 2500 3097 2075 3097 
Q 1594 3097 1305 2825 
Q 1016 2553 972 2059 
L 3022 2063 
z
" transform="scale(0.015625)"/>
       <path id="DejaVuSans-72" d="M 2631 2963 
Q 2534 3019 2420 3045 
Q 2306 3072 2169 3072 
Q 1681 3072 1420 2755 
Q 1159 2438 1159 1844 
L 1159 0 
L 581 0 
L 581 3500 
L 1159 3500 
L 1159 2956 
Q 1341 3275 1631 3429 
Q 1922 3584 2338 3584 
Q 2397 3584 2469 3576 
Q 2541 3569 2628 3553 
L 2631 2963 
z
" transform="scale(0.015625)"/>
       <path id="DejaVuSans-20" transform="scale(0.015625)"/>
       <path id="DejaVuSans-6f" d="M 1959 3097 
Q 1497 3097 1228 2736 
Q 959 2375 959 1747 
Q 959 1119 1226 758 
Q 1494 397 1959 397 
Q 2419 397 2687 759 
Q 2956 1122 2956 1747 
Q 2956 2369 2687 2733 
Q 2419 3097 1959 3097 
z
M 1959 3584 
Q 2709 3584 3137 3096 
Q 3566 2609 3566 1747 
Q 3566 888 3137 398 
Q 2709 -91 1959 -91 
Q 1206 -91 779 398 
Q 353 888 353 1747 
Q 353 2609 779 3096 
Q 1206 3584 1959 3584 
z
" transform="scale(0.015625)"/>
       <path id="DejaVuSans-66" d="M 2375 4863 
L 2375 4384 
L 1825 4384 
Q 1516 4384 1395 4259 
Q 1275 4134 1275 3809 
L 1275 3500 
L 2222 3500 
L 2222 3053 
L 1275 3053 
L 1275 0 
L 697 0 
L 697 3053 
L 147 3053 
L 147 3500 
L 697 3500 
L 697 3744 
Q 697 4328 969 4595 
Q 1241 4863 1831 4863 
L 2375 4863 
z
" transform="scale(0.015625)"/>
       <path id="DejaVuSans-42" d="M 1259 2228 
L 1259 519 
L 2272 519 
Q 2781 519 3026 730 
Q 3272 941 3272 1375 
Q 3272 1813 3026 2020 
Q 2781 2228 2272 2228 
L 1259 2228 
z
M 1259 4147 
L 1259 2741 
L 2194 2741 
Q 2656 2741 2882 2914 
Q 3109 3088 3109 3444 
Q 3109 3797 2882 3972 
Q 2656 4147 2194 4147 
L 1259 4147 
z
M 628 4666 
L 2241 4666 
Q 2963 4666 3353 4366 
Q 3744 4066 3744 3513 
Q 3744 3084 3544 2831 
Q 3344 2578 2956 2516 
Q 3422 2416 3680 2098 
Q 3938 1781 3938 1306 
Q 3938 681 3513 340 
Q 3088 0 2303 0 
L 628 0 
L 628 4666 
z
" transform="scale(0.015625)"/>
       <path id="DejaVuSans-61" d="M 2194 1759 
Q 1497 1759 1228 1600 
Q 959 1441 959 1056 
Q 959 750 1161 570 
Q 1363 391 1709 391 
Q 2188 391 2477 730 
Q 2766 1069 2766 1631 
L 2766 1759 
L 2194 1759 
z
M 3341 1997 
L 3341 0 
L 2766 0 
L 2766 531 
Q 2569 213 2275 61 
Q 1981 -91 1556 -91 
Q 1019 -91 701 211 
Q 384 513 384 1019 
Q 384 1609 779 1909 
Q 1175 2209 1959 2209 
L 2766 2209 
L 2766 2266 
Q 2766 2663 2505 2880 
Q 2244 3097 1772 3097 
Q 1472 3097 1187 3025 
Q 903 2953 641 2809 
L 641 3341 
Q 956 3463 1253 3523 
Q 1550 3584 1831 3584 
Q 2591 3584 2966 3190 
Q 3341 2797 3341 1997 
z
" transform="scale(0.015625)"/>
       <path id="DejaVuSans-69" d="M 603 3500 
L 1178 3500 
L 1178 0 
L 603 0 
L 603 3500 
z
M 603 4863 
L 1178 4863 
L 1178 4134 
L 603 4134 
L 603 4863 
z
" transform="scale(0.015625)"/>
       <path id="DejaVuSans-74" d="M 1172 4494 
L 1172 3500 
L 2356 3500 
L 2356 3053 
L 1172 3053 
L 1172 1153 
Q 1172 725 1289 603 
Q 1406 481 1766 481 
L 2356 481 
L 2356 0 
L 1766 0 
Q 1100 0 847 248 
Q 594 497 594 1153 
L 594 3053 
L 172 3053 
L 172 3500 
L 594 3500 
L 594 4494 
L 1172 4494 
z
" transform="scale(0.015625)"/>
       <path id="DejaVuSans-73" d="M 2834 3397 
L 2834 2853 
Q 2591 2978 2328 3040 
Q 2066 3103 1784 3103 
Q 1356 3103 1142 2972 
Q 928 2841 928 2578 
Q 928 2378 1081 2264 
Q 1234 2150 1697 2047 
L 1894 2003 
Q 2506 1872 2764 1633 
Q 3022 1394 3022 966 
Q 3022 478 2636 193 
Q 2250 -91 1575 -91 
Q 1294 -91 989 -36 
Q 684 19 347 128 
L 347 722 
Q 666 556 975 473 
Q 1284 391 1588 391 
Q 1994 391 2212 530 
Q 2431 669 2431 922 
Q 2431 1156 2273 1281 
Q 2116 1406 1581 1522 
L 1381 1569 
Q 847 1681 609 1914 
Q 372 2147 372 2553 
Q 372 3047 722 3315 
Q 1072 3584 1716 3584 
Q 2034 3584 2315 3537 
Q 2597 3491 2834 3397 
z
" transform="scale(0.015625)"/>
      </defs>
      <use xlink:href="#DejaVuSans-4e"/>
      <use xlink:href="#DejaVuSans-75" x="74.804688"/>
      <use xlink:href="#DejaVuSans-6d" x="138.183594"/>
      <use xlink:href="#DejaVuSans-62" x="235.595703"/>
      <use xlink:href="#DejaVuSans-65" x="299.072266"/>
      <use xlink:href="#DejaVuSans-72" x="360.595703"/>
      <use xlink:href="#DejaVuSans-20" x="401.708984"/>
      <use xlink:href="#DejaVuSans-6f" x="433.496094"/>
      <use xlink:href="#DejaVuSans-66" x="494.677734"/>
      <use xlink:href="#DejaVuSans-20" x="529.882812"/>
      <use xlink:href="#DejaVuSans-42" x="561.669922"/>
      <use xlink:href="#DejaVuSans-61" x="630.273438"/>
      <use xlink:href="#DejaVuSans-69" x="691.552734"/>
      <use xlink:href="#DejaVuSans-74" x="719.335938"/>
      <use xlink:href="#DejaVuSans-73" x="758.544922"/>
     </g>
    </g>
   </g>
   <g id="matplotlib.axis_2">
    <g id="ytick_1">
     <g id="line2d_7">
      <defs>
       <path id="m4dd561ae3b" d="M 0 0 
L -3.5 0 
" style="stroke: #000000; stroke-width: 0.8"/>
      </defs>
      <g>
       <use xlink:href="#m4dd561ae3b" x="47.765" y="606.04" style="stroke: #000000; stroke-width: 0.8"/>
      </g>
     </g>
     <g id="text_8">
      <!-- 0.0 -->
      <g transform="translate(24.861875 609.839219) scale(0.1 -0.1)">
       <defs>
        <path id="DejaVuSans-2e" d="M 684 794 
L 1344 794 
L 1344 0 
L 684 0 
L 684 794 
z
" transform="scale(0.015625)"/>
       </defs>
       <use xlink:href="#DejaVuSans-30"/>
       <use xlink:href="#DejaVuSans-2e" x="63.623047"/>
       <use xlink:href="#DejaVuSans-30" x="95.410156"/>
      </g>
     </g>
    </g>
    <g id="ytick_2">
     <g id="line2d_8">
      <g>
       <use xlink:href="#m4dd561ae3b" x="47.765" y="490.9816" style="stroke: #000000; stroke-width: 0.8"/>
      </g>
     </g>
     <g id="text_9">
      <!-- 0.2 -->
      <g transform="translate(24.861875 494.780819) scale(0.1 -0.1)">
       <defs>
        <path id="DejaVuSans-32" d="M 1228 531 
L 3431 531 
L 3431 0 
L 469 0 
L 469 531 
Q 828 903 1448 1529 
Q 2069 2156 2228 2338 
Q 2531 2678 2651 2914 
Q 2772 3150 2772 3378 
Q 2772 3750 2511 3984 
Q 2250 4219 1831 4219 
Q 1534 4219 1204 4116 
Q 875 4013 500 3803 
L 500 4441 
Q 881 4594 1212 4672 
Q 1544 4750 1819 4750 
Q 2544 4750 2975 4387 
Q 3406 4025 3406 3419 
Q 3406 3131 3298 2873 
Q 3191 2616 2906 2266 
Q 2828 2175 2409 1742 
Q 1991 1309 1228 531 
z
" transform="scale(0.015625)"/>
       </defs>
       <use xlink:href="#DejaVuSans-30"/>
       <use xlink:href="#DejaVuSans-2e" x="63.623047"/>
       <use xlink:href="#DejaVuSans-32" x="95.410156"/>
      </g>
     </g>
    </g>
    <g id="ytick_3">
     <g id="line2d_9">
      <g>
       <use xlink:href="#m4dd561ae3b" x="47.765" y="375.9232" style="stroke: #000000; stroke-width: 0.8"/>
      </g>
     </g>
     <g id="text_10">
      <!-- 0.4 -->
      <g transform="translate(24.861875 379.722419) scale(0.1 -0.1)">
       <use xlink:href="#DejaVuSans-30"/>
       <use xlink:href="#DejaVuSans-2e" x="63.623047"/>
       <use xlink:href="#DejaVuSans-34" x="95.410156"/>
      </g>
     </g>
    </g>
    <g id="ytick_4">
     <g id="line2d_10">
      <g>
       <use xlink:href="#m4dd561ae3b" x="47.765" y="260.8648" style="stroke: #000000; stroke-width: 0.8"/>
      </g>
     </g>
     <g id="text_11">
      <!-- 0.6 -->
      <g transform="translate(24.861875 264.664019) scale(0.1 -0.1)">
       <use xlink:href="#DejaVuSans-30"/>
       <use xlink:href="#DejaVuSans-2e" x="63.623047"/>
       <use xlink:href="#DejaVuSans-36" x="95.410156"/>
      </g>
     </g>
    </g>
    <g id="ytick_5">
     <g id="line2d_11">
      <g>
       <use xlink:href="#m4dd561ae3b" x="47.765" y="145.8064" style="stroke: #000000; stroke-width: 0.8"/>
      </g>
     </g>
     <g id="text_12">
      <!-- 0.8 -->
      <g transform="translate(24.861875 149.605619) scale(0.1 -0.1)">
       <use xlink:href="#DejaVuSans-30"/>
       <use xlink:href="#DejaVuSans-2e" x="63.623047"/>
       <use xlink:href="#DejaVuSans-38" x="95.410156"/>
      </g>
     </g>
    </g>
    <g id="ytick_6">
     <g id="line2d_12">
      <g>
       <use xlink:href="#m4dd561ae3b" x="47.765" y="30.748" style="stroke: #000000; stroke-width: 0.8"/>
      </g>
     </g>
     <g id="text_13">
      <!-- 1.0 -->
      <g transform="translate(24.861875 34.547219) scale(0.1 -0.1)">
       <defs>
        <path id="DejaVuSans-31" d="M 794 531 
L 1825 531 
L 1825 4091 
L 703 3866 
L 703 4441 
L 1819 4666 
L 2450 4666 
L 2450 531 
L 3481 531 
L 3481 0 
L 794 0 
L 794 531 
z
" transform="scale(0.015625)"/>
       </defs>
       <use xlink:href="#DejaVuSans-31"/>
       <use xlink:href="#DejaVuSans-2e" x="63.623047"/>
       <use xlink:href="#DejaVuSans-30" x="95.410156"/>
      </g>
     </g>
    </g>
    <g id="text_14">
     <!-- Aggregated ARI Scores -->
     <g transform="translate(18.782187 375.786188) rotate(-90) scale(0.1 -0.1)">
      <defs>
       <path id="DejaVuSans-41" d="M 2188 4044 
L 1331 1722 
L 3047 1722 
L 2188 4044 
z
M 1831 4666 
L 2547 4666 
L 4325 0 
L 3669 0 
L 3244 1197 
L 1141 1197 
L 716 0 
L 50 0 
L 1831 4666 
z
" transform="scale(0.015625)"/>
       <path id="DejaVuSans-67" d="M 2906 1791 
Q 2906 2416 2648 2759 
Q 2391 3103 1925 3103 
Q 1463 3103 1205 2759 
Q 947 2416 947 1791 
Q 947 1169 1205 825 
Q 1463 481 1925 481 
Q 2391 481 2648 825 
Q 2906 1169 2906 1791 
z
M 3481 434 
Q 3481 -459 3084 -895 
Q 2688 -1331 1869 -1331 
Q 1566 -1331 1297 -1286 
Q 1028 -1241 775 -1147 
L 775 -588 
Q 1028 -725 1275 -790 
Q 1522 -856 1778 -856 
Q 2344 -856 2625 -561 
Q 2906 -266 2906 331 
L 2906 616 
Q 2728 306 2450 153 
Q 2172 0 1784 0 
Q 1141 0 747 490 
Q 353 981 353 1791 
Q 353 2603 747 3093 
Q 1141 3584 1784 3584 
Q 2172 3584 2450 3431 
Q 2728 3278 2906 2969 
L 2906 3500 
L 3481 3500 
L 3481 434 
z
" transform="scale(0.015625)"/>
       <path id="DejaVuSans-64" d="M 2906 2969 
L 2906 4863 
L 3481 4863 
L 3481 0 
L 2906 0 
L 2906 525 
Q 2725 213 2448 61 
Q 2172 -91 1784 -91 
Q 1150 -91 751 415 
Q 353 922 353 1747 
Q 353 2572 751 3078 
Q 1150 3584 1784 3584 
Q 2172 3584 2448 3432 
Q 2725 3281 2906 2969 
z
M 947 1747 
Q 947 1113 1208 752 
Q 1469 391 1925 391 
Q 2381 391 2643 752 
Q 2906 1113 2906 1747 
Q 2906 2381 2643 2742 
Q 2381 3103 1925 3103 
Q 1469 3103 1208 2742 
Q 947 2381 947 1747 
z
" transform="scale(0.015625)"/>
       <path id="DejaVuSans-52" d="M 2841 2188 
Q 3044 2119 3236 1894 
Q 3428 1669 3622 1275 
L 4263 0 
L 3584 0 
L 2988 1197 
Q 2756 1666 2539 1819 
Q 2322 1972 1947 1972 
L 1259 1972 
L 1259 0 
L 628 0 
L 628 4666 
L 2053 4666 
Q 2853 4666 3247 4331 
Q 3641 3997 3641 3322 
Q 3641 2881 3436 2590 
Q 3231 2300 2841 2188 
z
M 1259 4147 
L 1259 2491 
L 2053 2491 
Q 2509 2491 2742 2702 
Q 2975 2913 2975 3322 
Q 2975 3731 2742 3939 
Q 2509 4147 2053 4147 
L 1259 4147 
z
" transform="scale(0.015625)"/>
       <path id="DejaVuSans-49" d="M 628 4666 
L 1259 4666 
L 1259 0 
L 628 0 
L 628 4666 
z
" transform="scale(0.015625)"/>
       <path id="DejaVuSans-53" d="M 3425 4513 
L 3425 3897 
Q 3066 4069 2747 4153 
Q 2428 4238 2131 4238 
Q 1616 4238 1336 4038 
Q 1056 3838 1056 3469 
Q 1056 3159 1242 3001 
Q 1428 2844 1947 2747 
L 2328 2669 
Q 3034 2534 3370 2195 
Q 3706 1856 3706 1288 
Q 3706 609 3251 259 
Q 2797 -91 1919 -91 
Q 1588 -91 1214 -16 
Q 841 59 441 206 
L 441 856 
Q 825 641 1194 531 
Q 1563 422 1919 422 
Q 2459 422 2753 634 
Q 3047 847 3047 1241 
Q 3047 1584 2836 1778 
Q 2625 1972 2144 2069 
L 1759 2144 
Q 1053 2284 737 2584 
Q 422 2884 422 3419 
Q 422 4038 858 4394 
Q 1294 4750 2059 4750 
Q 2388 4750 2728 4690 
Q 3069 4631 3425 4513 
z
" transform="scale(0.015625)"/>
       <path id="DejaVuSans-63" d="M 3122 3366 
L 3122 2828 
Q 2878 2963 2633 3030 
Q 2388 3097 2138 3097 
Q 1578 3097 1268 2742 
Q 959 2388 959 1747 
Q 959 1106 1268 751 
Q 1578 397 2138 397 
Q 2388 397 2633 464 
Q 2878 531 3122 666 
L 3122 134 
Q 2881 22 2623 -34 
Q 2366 -91 2075 -91 
Q 1284 -91 818 406 
Q 353 903 353 1747 
Q 353 2603 823 3093 
Q 1294 3584 2113 3584 
Q 2378 3584 2631 3529 
Q 2884 3475 3122 3366 
z
" transform="scale(0.015625)"/>
      </defs>
      <use xlink:href="#DejaVuSans-41"/>
      <use xlink:href="#DejaVuSans-67" x="68.408203"/>
      <use xlink:href="#DejaVuSans-67" x="131.884766"/>
      <use xlink:href="#DejaVuSans-72" x="195.361328"/>
      <use xlink:href="#DejaVuSans-65" x="234.224609"/>
      <use xlink:href="#DejaVuSans-67" x="295.748047"/>
      <use xlink:href="#DejaVuSans-61" x="359.224609"/>
      <use xlink:href="#DejaVuSans-74" x="420.503906"/>
      <use xlink:href="#DejaVuSans-65" x="459.712891"/>
      <use xlink:href="#DejaVuSans-64" x="521.236328"/>
      <use xlink:href="#DejaVuSans-20" x="584.712891"/>
      <use xlink:href="#DejaVuSans-41" x="616.5"/>
      <use xlink:href="#DejaVuSans-52" x="684.908203"/>
      <use xlink:href="#DejaVuSans-49" x="754.390625"/>
      <use xlink:href="#DejaVuSans-20" x="783.882812"/>
      <use xlink:href="#DejaVuSans-53" x="815.669922"/>
      <use xlink:href="#DejaVuSans-63" x="879.146484"/>
      <use xlink:href="#DejaVuSans-6f" x="934.126953"/>
      <use xlink:href="#DejaVuSans-72" x="995.308594"/>
      <use xlink:href="#DejaVuSans-65" x="1034.171875"/>
      <use xlink:href="#DejaVuSans-73" x="1095.695312"/>
     </g>
    </g>
   </g>
   <g id="line2d_13">
    <path d="M 47.765 178.912066 
L 65.4711 177.718628 
L 83.1772 174.446988 
L 100.8833 170.543089 
L 118.5894 174.06192 
L 136.2955 171.791982 
L 154.0016 168.590207 
L 171.7077 167.533873 
L 189.4138 172.883859 
L 207.1199 171.348481 
L 224.826 167.319097 
L 242.5321 171.090947 
L 260.2382 173.027792 
L 277.9443 176.572594 
L 295.6504 176.908468 
L 313.3565 177.533891 
L 331.0626 177.536787 
L 348.7687 178.544456 
L 366.4748 177.488808 
L 384.1809 179.172192 
L 401.887 179.132465 
L 419.5931 176.569023 
L 437.2992 179.870922 
L 455.0053 182.225544 
L 472.7114 182.169124 
L 490.4175 183.488037 
L 508.1236 181.808868 
L 525.8297 185.841623 
L 543.5358 186.131775 
L 561.2419 187.597888 
L 578.948 188.838162 
L 596.6541 187.497971 
L 614.3602 190.82037 
L 632.0663 193.05084 
L 649.7724 195.928935 
L 667.4785 193.746542 
L 685.1846 198.873072 
L 702.8907 197.710665 
L 720.5968 197.061925 
L 738.3029 203.574017 
L 756.009 199.570572 
L 773.7151 207.210532 
L 791.4212 207.484785 
L 809.1273 210.083865 
L 826.8334 208.722264 
L 844.5395 213.281524 
L 862.2456 215.488184 
L 879.9517 213.616955 
L 897.6578 215.341138 
L 915.3639 217.489021 
L 933.07 216.967623 
" clip-path="url(#p08800a257a)" style="fill: none; stroke: #1f77b4; stroke-width: 1.5; stroke-linecap: square"/>
   </g>
   <g id="line2d_14">
    <path d="M 47.765 352.525483 
L 65.4711 343.53482 
L 83.1772 339.986719 
L 100.8833 300.403048 
L 118.5894 370.118246 
L 136.2955 331.130239 
L 154.0016 356.96754 
L 171.7077 328.681622 
L 189.4138 331.383947 
L 207.1199 353.14147 
L 224.826 363.349897 
L 242.5321 319.171775 
L 260.2382 304.725621 
L 277.9443 322.661704 
L 295.6504 297.349181 
L 313.3565 341.913119 
L 331.0626 335.229175 
L 348.7687 328.065072 
L 366.4748 305.818795 
L 384.1809 324.286241 
L 401.887 300.492708 
L 419.5931 301.111022 
L 437.2992 266.891795 
L 455.0053 349.25455 
L 472.7114 293.895876 
L 490.4175 301.067152 
L 508.1236 317.188919 
L 525.8297 313.986132 
L 543.5358 332.380156 
L 561.2419 302.622434 
L 578.948 292.516766 
L 596.6541 311.344713 
L 614.3602 319.255349 
L 632.0663 281.566398 
L 649.7724 309.309661 
L 667.4785 324.500554 
L 685.1846 318.350838 
L 702.8907 317.170584 
L 720.5968 313.869496 
L 738.3029 314.255746 
L 756.009 303.197201 
L 773.7151 337.447011 
L 791.4212 299.78182 
L 809.1273 310.45706 
L 826.8334 326.254226 
L 844.5395 311.449783 
L 862.2456 292.452655 
L 879.9517 326.710088 
L 897.6578 305.252544 
L 915.3639 278.275475 
L 933.07 290.262455 
" clip-path="url(#p08800a257a)" style="fill: none; stroke: #ff7f0e; stroke-width: 1.5; stroke-linecap: square"/>
   </g>
   <g id="line2d_15">
    <path d="M 47.765 160.487862 
L 65.4711 159.233437 
L 83.1772 156.248031 
L 100.8833 156.297627 
L 118.5894 153.02942 
L 136.2955 155.63317 
L 154.0016 155.105971 
L 171.7077 158.561181 
L 189.4138 159.290036 
L 207.1199 162.805186 
L 224.826 164.52426 
L 242.5321 167.460121 
L 260.2382 168.753014 
L 277.9443 169.752857 
L 295.6504 172.738168 
L 313.3565 173.043887 
L 331.0626 177.372031 
L 348.7687 178.889726 
L 366.4748 183.557615 
L 384.1809 184.709309 
L 401.887 186.541471 
L 419.5931 185.945616 
L 437.2992 188.558211 
L 455.0053 191.998905 
L 472.7114 191.274057 
L 490.4175 191.163105 
L 508.1236 191.761553 
L 525.8297 193.5491 
L 543.5358 194.62204 
L 561.2419 194.374399 
L 578.948 196.694699 
L 596.6541 198.589321 
L 614.3602 198.738632 
L 632.0663 197.477229 
L 649.7724 201.673093 
L 667.4785 202.529693 
L 685.1846 202.034166 
L 702.8907 202.329759 
L 720.5968 202.338884 
L 738.3029 203.141986 
L 756.009 205.423179 
L 773.7151 205.672246 
L 791.4212 204.155188 
L 809.1273 204.129446 
L 826.8334 205.665414 
L 844.5395 207.925547 
L 862.2456 207.79125 
L 879.9517 206.662865 
L 897.6578 206.968024 
L 915.3639 208.077479 
L 933.07 207.94925 
" clip-path="url(#p08800a257a)" style="fill: none; stroke: #2ca02c; stroke-width: 1.5; stroke-linecap: square"/>
   </g>
   <g id="line2d_16">
    <path d="M 47.765 162.961961 
L 65.4711 162.654134 
L 83.1772 161.536793 
L 100.8833 160.014713 
L 118.5894 159.419969 
L 136.2955 159.609158 
L 154.0016 159.753697 
L 171.7077 156.515295 
L 189.4138 159.787659 
L 207.1199 159.440347 
L 224.826 159.071754 
L 242.5321 161.023286 
L 260.2382 162.170907 
L 277.9443 165.001248 
L 295.6504 166.665292 
L 313.3565 169.256081 
L 331.0626 172.416666 
L 348.7687 172.353356 
L 366.4748 174.453414 
L 384.1809 178.505703 
L 401.887 179.63834 
L 419.5931 180.459867 
L 437.2992 182.996982 
L 455.0053 185.463555 
L 472.7114 188.719401 
L 490.4175 190.151188 
L 508.1236 190.179656 
L 525.8297 192.336022 
L 543.5358 194.815793 
L 561.2419 197.507762 
L 578.948 200.338084 
L 596.6541 201.558699 
L 614.3602 201.915595 
L 632.0663 201.945619 
L 649.7724 203.404983 
L 667.4785 203.341681 
L 685.1846 205.644811 
L 702.8907 208.139546 
L 720.5968 206.660704 
L 738.3029 206.711543 
L 756.009 207.622701 
L 773.7151 207.738935 
L 791.4212 208.079761 
L 809.1273 207.161886 
L 826.8334 209.052841 
L 844.5395 210.068829 
L 862.2456 211.349048 
L 879.9517 212.156091 
L 897.6578 210.445919 
L 915.3639 210.244643 
L 933.07 211.603983 
" clip-path="url(#p08800a257a)" style="fill: none; stroke: #d62728; stroke-width: 1.5; stroke-linecap: square"/>
   </g>
   <g id="line2d_17">
    <path d="M 47.765 191.579973 
L 65.4711 193.577774 
L 83.1772 193.739712 
L 100.8833 194.324923 
L 118.5894 195.980465 
L 136.2955 195.598045 
L 154.0016 197.025242 
L 171.7077 197.564924 
L 189.4138 197.931964 
L 207.1199 198.134575 
L 224.826 197.99308 
L 242.5321 198.020815 
L 260.2382 199.794576 
L 277.9443 199.65963 
L 295.6504 201.399268 
L 313.3565 201.186651 
L 331.0626 200.609903 
L 348.7687 201.77041 
L 366.4748 203.808258 
L 384.1809 203.242045 
L 401.887 202.572941 
L 419.5931 204.531634 
L 437.2992 206.897074 
L 455.0053 205.160837 
L 472.7114 205.676234 
L 490.4175 206.455575 
L 508.1236 205.944342 
L 525.8297 206.51953 
L 543.5358 206.083626 
L 561.2419 206.680622 
L 578.948 204.692062 
L 596.6541 204.241697 
L 614.3602 206.680669 
L 632.0663 207.998968 
L 649.7724 209.868967 
L 667.4785 207.448046 
L 685.1846 208.113303 
L 702.8907 208.950298 
L 720.5968 209.763766 
L 738.3029 210.315535 
L 756.009 211.311056 
L 773.7151 210.092169 
L 791.4212 208.378064 
L 809.1273 210.518443 
L 826.8334 210.660259 
L 844.5395 209.933195 
L 862.2456 210.063383 
L 879.9517 210.190096 
L 897.6578 208.236672 
L 915.3639 210.570215 
L 933.07 211.256421 
" clip-path="url(#p08800a257a)" style="fill: none; stroke: #9467bd; stroke-width: 1.5; stroke-linecap: square"/>
   </g>
   <g id="line2d_18">
    <path d="M 47.765 172.08231 
L 65.4711 171.622186 
L 83.1772 169.766873 
L 100.8833 172.749188 
L 118.5894 170.689409 
L 136.2955 174.498824 
L 154.0016 172.945473 
L 171.7077 173.415759 
L 189.4138 176.136344 
L 207.1199 177.655846 
L 224.826 178.41935 
L 242.5321 180.715772 
L 260.2382 182.843743 
L 277.9443 184.693425 
L 295.6504 187.360191 
L 313.3565 190.793146 
L 331.0626 194.244532 
L 348.7687 197.911675 
L 366.4748 201.152728 
L 384.1809 201.644046 
L 401.887 201.881998 
L 419.5931 204.537328 
L 437.2992 205.580927 
L 455.0053 208.091069 
L 472.7114 206.853002 
L 490.4175 207.550784 
L 508.1236 210.475301 
L 525.8297 212.355824 
L 543.5358 214.433581 
L 561.2419 216.123055 
L 578.948 217.239068 
L 596.6541 218.408723 
L 614.3602 219.411993 
L 632.0663 218.233601 
L 649.7724 218.595612 
L 667.4785 218.311288 
L 685.1846 218.71932 
L 702.8907 219.214052 
L 720.5968 221.667749 
L 738.3029 221.691013 
L 756.009 223.134762 
L 773.7151 223.179618 
L 791.4212 222.820917 
L 809.1273 223.015665 
L 826.8334 222.551155 
L 844.5395 222.372567 
L 862.2456 221.796268 
L 879.9517 222.572751 
L 897.6578 222.713916 
L 915.3639 221.296363 
L 933.07 222.535041 
" clip-path="url(#p08800a257a)" style="fill: none; stroke: #8c564b; stroke-width: 1.5; stroke-linecap: square"/>
   </g>
   <g id="line2d_19">
    <path d="M 47.765 178.070589 
L 65.4711 178.818072 
L 83.1772 179.339025 
L 100.8833 179.281427 
L 118.5894 179.08629 
L 136.2955 181.449784 
L 154.0016 182.000755 
L 171.7077 186.299288 
L 189.4138 187.156534 
L 207.1199 189.06247 
L 224.826 188.598263 
L 242.5321 190.31921 
L 260.2382 194.039918 
L 277.9443 195.757958 
L 295.6504 198.215023 
L 313.3565 199.936584 
L 331.0626 200.997231 
L 348.7687 200.617466 
L 366.4748 205.503357 
L 384.1809 205.783857 
L 401.887 207.373358 
L 419.5931 208.813958 
L 437.2992 207.673223 
L 455.0053 208.689716 
L 472.7114 212.212353 
L 490.4175 212.002369 
L 508.1236 212.173987 
L 525.8297 213.824877 
L 543.5358 213.136736 
L 561.2419 213.819168 
L 578.948 213.565585 
L 596.6541 216.002689 
L 614.3602 216.993838 
L 632.0663 218.414988 
L 649.7724 217.849387 
L 667.4785 216.321311 
L 685.1846 218.452975 
L 702.8907 220.031416 
L 720.5968 219.587584 
L 738.3029 218.347863 
L 756.009 220.149676 
L 773.7151 219.965916 
L 791.4212 220.210947 
L 809.1273 220.438869 
L 826.8334 220.556648 
L 844.5395 220.450561 
L 862.2456 220.595398 
L 879.9517 219.889287 
L 897.6578 220.837438 
L 915.3639 221.417359 
L 933.07 220.833943 
" clip-path="url(#p08800a257a)" style="fill: none; stroke: #e377c2; stroke-width: 1.5; stroke-linecap: square"/>
   </g>
   <g id="line2d_20">
    <path d="M 47.765 181.300927 
L 65.4711 180.376961 
L 83.1772 182.026465 
L 100.8833 179.726923 
L 118.5894 179.985426 
L 136.2955 180.133907 
L 154.0016 181.236978 
L 171.7077 182.951857 
L 189.4138 183.819173 
L 207.1199 185.563163 
L 224.826 186.776134 
L 242.5321 188.919658 
L 260.2382 191.266605 
L 277.9443 193.318536 
L 295.6504 194.001519 
L 313.3565 195.932809 
L 331.0626 198.070267 
L 348.7687 199.106008 
L 366.4748 202.784201 
L 384.1809 205.283487 
L 401.887 205.427533 
L 419.5931 205.485506 
L 437.2992 206.229046 
L 455.0053 208.583756 
L 472.7114 208.637019 
L 490.4175 210.01214 
L 508.1236 211.696959 
L 525.8297 211.682464 
L 543.5358 213.88921 
L 561.2419 215.136979 
L 578.948 215.795104 
L 596.6541 214.830569 
L 614.3602 215.39994 
L 632.0663 216.690667 
L 649.7724 215.118675 
L 667.4785 217.376453 
L 685.1846 218.37403 
L 702.8907 218.71773 
L 720.5968 220.713638 
L 738.3029 220.086136 
L 756.009 221.025672 
L 773.7151 221.631537 
L 791.4212 221.23116 
L 809.1273 219.856678 
L 826.8334 220.351321 
L 844.5395 222.474312 
L 862.2456 221.936418 
L 879.9517 221.070067 
L 897.6578 220.10004 
L 915.3639 220.837249 
L 933.07 221.763687 
" clip-path="url(#p08800a257a)" style="fill: none; stroke: #7f7f7f; stroke-width: 1.5; stroke-linecap: square"/>
   </g>
   <g id="line2d_21">
    <path d="M 47.765 170.214578 
L 65.4711 167.29834 
L 83.1772 165.436 
L 100.8833 166.574154 
L 118.5894 167.075711 
L 136.2955 170.126064 
L 154.0016 172.658456 
L 171.7077 170.721366 
L 189.4138 172.687702 
L 207.1199 177.623309 
L 224.826 179.321507 
L 242.5321 185.011718 
L 260.2382 185.975297 
L 277.9443 189.274041 
L 295.6504 190.55924 
L 313.3565 192.578978 
L 331.0626 193.01643 
L 348.7687 193.816022 
L 366.4748 195.578813 
L 384.1809 197.340921 
L 401.887 198.131052 
L 419.5931 200.230762 
L 437.2992 200.812817 
L 455.0053 204.995508 
L 472.7114 205.7556 
L 490.4175 206.234483 
L 508.1236 207.363953 
L 525.8297 208.655905 
L 543.5358 210.502927 
L 561.2419 212.634812 
L 578.948 211.608192 
L 596.6541 213.588173 
L 614.3602 213.954161 
L 632.0663 213.992529 
L 649.7724 213.997653 
L 667.4785 214.727423 
L 685.1846 215.353143 
L 702.8907 214.943863 
L 720.5968 215.641066 
L 738.3029 215.518259 
L 756.009 217.4192 
L 773.7151 217.372992 
L 791.4212 215.162351 
L 809.1273 215.719498 
L 826.8334 215.168226 
L 844.5395 216.670102 
L 862.2456 215.629585 
L 879.9517 216.598508 
L 897.6578 216.048033 
L 915.3639 214.611593 
L 933.07 216.099095 
" clip-path="url(#p08800a257a)" style="fill: none; stroke: #bcbd22; stroke-width: 1.5; stroke-linecap: square"/>
   </g>
   <g id="line2d_22">
    <path d="M 47.765 175.577596 
L 65.4711 174.864924 
L 83.1772 173.68235 
L 100.8833 171.531975 
L 118.5894 173.842203 
L 136.2955 174.192096 
L 154.0016 176.533551 
L 171.7077 177.959748 
L 189.4138 178.743438 
L 207.1199 180.046096 
L 224.826 183.448988 
L 242.5321 187.951368 
L 260.2382 188.469644 
L 277.9443 189.316941 
L 295.6504 190.220001 
L 313.3565 189.964155 
L 331.0626 193.662499 
L 348.7687 195.110247 
L 366.4748 197.16083 
L 384.1809 198.790805 
L 401.887 200.82221 
L 419.5931 202.116458 
L 437.2992 203.643166 
L 455.0053 206.541207 
L 472.7114 208.254632 
L 490.4175 209.713672 
L 508.1236 211.174469 
L 525.8297 211.979723 
L 543.5358 211.363886 
L 561.2419 213.272709 
L 578.948 216.335987 
L 596.6541 217.071954 
L 614.3602 218.85712 
L 632.0663 218.351839 
L 649.7724 220.199584 
L 667.4785 221.04364 
L 685.1846 222.933576 
L 702.8907 222.251308 
L 720.5968 222.886482 
L 738.3029 223.644481 
L 756.009 221.983295 
L 773.7151 223.109826 
L 791.4212 224.449215 
L 809.1273 223.958555 
L 826.8334 224.801054 
L 844.5395 225.18091 
L 862.2456 223.322972 
L 879.9517 225.545627 
L 897.6578 224.890021 
L 915.3639 225.933775 
L 933.07 226.423618 
" clip-path="url(#p08800a257a)" style="fill: none; stroke: #17becf; stroke-width: 1.5; stroke-linecap: square"/>
   </g>
   <g id="line2d_23">
    <path d="M 47.765 190.517005 
L 65.4711 191.464644 
L 83.1772 192.944366 
L 100.8833 193.127025 
L 118.5894 193.168284 
L 136.2955 193.121414 
L 154.0016 194.305087 
L 171.7077 194.722777 
L 189.4138 194.955375 
L 207.1199 195.983581 
L 224.826 197.701511 
L 242.5321 197.265917 
L 260.2382 196.672983 
L 277.9443 200.917675 
L 295.6504 199.214097 
L 313.3565 198.981218 
L 331.0626 199.913439 
L 348.7687 200.228759 
L 366.4748 201.24292 
L 384.1809 198.860658 
L 401.887 201.541714 
L 419.5931 202.933499 
L 437.2992 202.292001 
L 455.0053 203.341257 
L 472.7114 202.70576 
L 490.4175 204.03219 
L 508.1236 207.668332 
L 525.8297 207.90727 
L 543.5358 211.303137 
L 561.2419 209.888266 
L 578.948 211.265092 
L 596.6541 213.908096 
L 614.3602 215.202512 
L 632.0663 216.259298 
L 649.7724 216.976322 
L 667.4785 216.032458 
L 685.1846 216.380292 
L 702.8907 216.848612 
L 720.5968 215.849794 
L 738.3029 217.663101 
L 756.009 217.703351 
L 773.7151 218.497582 
L 791.4212 218.328748 
L 809.1273 219.985588 
L 826.8334 220.568165 
L 844.5395 220.41848 
L 862.2456 220.504349 
L 879.9517 221.991561 
L 897.6578 223.337935 
L 915.3639 224.411547 
L 933.07 223.684198 
" clip-path="url(#p08800a257a)" style="fill: none; stroke: #9edae5; stroke-width: 1.5; stroke-linecap: square"/>
   </g>
   <g id="patch_3">
    <path d="M 47.765 606.04 
L 47.765 30.748 
" style="fill: none; stroke: #000000; stroke-width: 0.8; stroke-linejoin: miter; stroke-linecap: square"/>
   </g>
   <g id="patch_4">
    <path d="M 933.07 606.04 
L 933.07 30.748 
" style="fill: none; stroke: #000000; stroke-width: 0.8; stroke-linejoin: miter; stroke-linecap: square"/>
   </g>
   <g id="patch_5">
    <path d="M 47.765 606.04 
L 933.07 606.04 
" style="fill: none; stroke: #000000; stroke-width: 0.8; stroke-linejoin: miter; stroke-linecap: square"/>
   </g>
   <g id="patch_6">
    <path d="M 47.765 30.748 
L 933.07 30.748 
" style="fill: none; stroke: #000000; stroke-width: 0.8; stroke-linejoin: miter; stroke-linecap: square"/>
   </g>
   <g id="text_15">
    <!-- ARI Scores by Number of Baits for Each Method -->
    <g transform="translate(347.682188 24.748) scale(0.12 -0.12)">
     <defs>
      <path id="DejaVuSans-79" d="M 2059 -325 
Q 1816 -950 1584 -1140 
Q 1353 -1331 966 -1331 
L 506 -1331 
L 506 -850 
L 844 -850 
Q 1081 -850 1212 -737 
Q 1344 -625 1503 -206 
L 1606 56 
L 191 3500 
L 800 3500 
L 1894 763 
L 2988 3500 
L 3597 3500 
L 2059 -325 
z
" transform="scale(0.015625)"/>
      <path id="DejaVuSans-45" d="M 628 4666 
L 3578 4666 
L 3578 4134 
L 1259 4134 
L 1259 2753 
L 3481 2753 
L 3481 2222 
L 1259 2222 
L 1259 531 
L 3634 531 
L 3634 0 
L 628 0 
L 628 4666 
z
" transform="scale(0.015625)"/>
      <path id="DejaVuSans-68" d="M 3513 2113 
L 3513 0 
L 2938 0 
L 2938 2094 
Q 2938 2591 2744 2837 
Q 2550 3084 2163 3084 
Q 1697 3084 1428 2787 
Q 1159 2491 1159 1978 
L 1159 0 
L 581 0 
L 581 4863 
L 1159 4863 
L 1159 2956 
Q 1366 3272 1645 3428 
Q 1925 3584 2291 3584 
Q 2894 3584 3203 3211 
Q 3513 2838 3513 2113 
z
" transform="scale(0.015625)"/>
      <path id="DejaVuSans-4d" d="M 628 4666 
L 1569 4666 
L 2759 1491 
L 3956 4666 
L 4897 4666 
L 4897 0 
L 4281 0 
L 4281 4097 
L 3078 897 
L 2444 897 
L 1241 4097 
L 1241 0 
L 628 0 
L 628 4666 
z
" transform="scale(0.015625)"/>
     </defs>
     <use xlink:href="#DejaVuSans-41"/>
     <use xlink:href="#DejaVuSans-52" x="68.408203"/>
     <use xlink:href="#DejaVuSans-49" x="137.890625"/>
     <use xlink:href="#DejaVuSans-20" x="167.382812"/>
     <use xlink:href="#DejaVuSans-53" x="199.169922"/>
     <use xlink:href="#DejaVuSans-63" x="262.646484"/>
     <use xlink:href="#DejaVuSans-6f" x="317.626953"/>
     <use xlink:href="#DejaVuSans-72" x="378.808594"/>
     <use xlink:href="#DejaVuSans-65" x="417.671875"/>
     <use xlink:href="#DejaVuSans-73" x="479.195312"/>
     <use xlink:href="#DejaVuSans-20" x="531.294922"/>
     <use xlink:href="#DejaVuSans-62" x="563.082031"/>
     <use xlink:href="#DejaVuSans-79" x="626.558594"/>
     <use xlink:href="#DejaVuSans-20" x="685.738281"/>
     <use xlink:href="#DejaVuSans-4e" x="717.525391"/>
     <use xlink:href="#DejaVuSans-75" x="792.330078"/>
     <use xlink:href="#DejaVuSans-6d" x="855.708984"/>
     <use xlink:href="#DejaVuSans-62" x="953.121094"/>
     <use xlink:href="#DejaVuSans-65" x="1016.597656"/>
     <use xlink:href="#DejaVuSans-72" x="1078.121094"/>
     <use xlink:href="#DejaVuSans-20" x="1119.234375"/>
     <use xlink:href="#DejaVuSans-6f" x="1151.021484"/>
     <use xlink:href="#DejaVuSans-66" x="1212.203125"/>
     <use xlink:href="#DejaVuSans-20" x="1247.408203"/>
     <use xlink:href="#DejaVuSans-42" x="1279.195312"/>
     <use xlink:href="#DejaVuSans-61" x="1347.798828"/>
     <use xlink:href="#DejaVuSans-69" x="1409.078125"/>
     <use xlink:href="#DejaVuSans-74" x="1436.861328"/>
     <use xlink:href="#DejaVuSans-73" x="1476.070312"/>
     <use xlink:href="#DejaVuSans-20" x="1528.169922"/>
     <use xlink:href="#DejaVuSans-66" x="1559.957031"/>
     <use xlink:href="#DejaVuSans-6f" x="1595.162109"/>
     <use xlink:href="#DejaVuSans-72" x="1656.34375"/>
     <use xlink:href="#DejaVuSans-20" x="1697.457031"/>
     <use xlink:href="#DejaVuSans-45" x="1729.244141"/>
     <use xlink:href="#DejaVuSans-61" x="1792.427734"/>
     <use xlink:href="#DejaVuSans-63" x="1853.707031"/>
     <use xlink:href="#DejaVuSans-68" x="1908.6875"/>
     <use xlink:href="#DejaVuSans-20" x="1972.066406"/>
     <use xlink:href="#DejaVuSans-4d" x="2003.853516"/>
     <use xlink:href="#DejaVuSans-65" x="2090.132812"/>
     <use xlink:href="#DejaVuSans-74" x="2151.65625"/>
     <use xlink:href="#DejaVuSans-68" x="2190.865234"/>
     <use xlink:href="#DejaVuSans-6f" x="2254.244141"/>
     <use xlink:href="#DejaVuSans-64" x="2315.425781"/>
    </g>
   </g>
   <g id="legend_1">
    <g id="patch_7">
     <path d="M 940.07 172.555275 
L 1067.18875 172.555275 
Q 1069.18875 172.555275 1069.18875 170.555275 
L 1069.18875 8.9834 
Q 1069.18875 6.9834 1067.18875 6.9834 
L 940.07 6.9834 
Q 938.07 6.9834 938.07 8.9834 
L 938.07 170.555275 
Q 938.07 172.555275 940.07 172.555275 
z
" style="fill: #ffffff; opacity: 0.8; stroke: #cccccc; stroke-linejoin: miter"/>
    </g>
    <g id="line2d_24">
     <path d="M 942.07 15.081838 
L 952.07 15.081838 
L 962.07 15.081838 
" style="fill: none; stroke: #1f77b4; stroke-width: 1.5; stroke-linecap: square"/>
    </g>
    <g id="text_16">
     <!-- GA -->
     <g transform="translate(970.07 18.581838) scale(0.1 -0.1)">
      <defs>
       <path id="DejaVuSans-47" d="M 3809 666 
L 3809 1919 
L 2778 1919 
L 2778 2438 
L 4434 2438 
L 4434 434 
Q 4069 175 3628 42 
Q 3188 -91 2688 -91 
Q 1594 -91 976 548 
Q 359 1188 359 2328 
Q 359 3472 976 4111 
Q 1594 4750 2688 4750 
Q 3144 4750 3555 4637 
Q 3966 4525 4313 4306 
L 4313 3634 
Q 3963 3931 3569 4081 
Q 3175 4231 2741 4231 
Q 1884 4231 1454 3753 
Q 1025 3275 1025 2328 
Q 1025 1384 1454 906 
Q 1884 428 2741 428 
Q 3075 428 3337 486 
Q 3600 544 3809 666 
z
" transform="scale(0.015625)"/>
      </defs>
      <use xlink:href="#DejaVuSans-47"/>
      <use xlink:href="#DejaVuSans-41" x="77.490234"/>
     </g>
    </g>
    <g id="line2d_25">
     <path d="M 942.07 29.759963 
L 952.07 29.759963 
L 962.07 29.759963 
" style="fill: none; stroke: #ff7f0e; stroke-width: 1.5; stroke-linecap: square"/>
    </g>
    <g id="text_17">
     <!-- Random -->
     <g transform="translate(970.07 33.259963) scale(0.1 -0.1)">
      <defs>
       <path id="DejaVuSans-6e" d="M 3513 2113 
L 3513 0 
L 2938 0 
L 2938 2094 
Q 2938 2591 2744 2837 
Q 2550 3084 2163 3084 
Q 1697 3084 1428 2787 
Q 1159 2491 1159 1978 
L 1159 0 
L 581 0 
L 581 3500 
L 1159 3500 
L 1159 2956 
Q 1366 3272 1645 3428 
Q 1925 3584 2291 3584 
Q 2894 3584 3203 3211 
Q 3513 2838 3513 2113 
z
" transform="scale(0.015625)"/>
      </defs>
      <use xlink:href="#DejaVuSans-52"/>
      <use xlink:href="#DejaVuSans-61" x="67.232422"/>
      <use xlink:href="#DejaVuSans-6e" x="128.511719"/>
      <use xlink:href="#DejaVuSans-64" x="191.890625"/>
      <use xlink:href="#DejaVuSans-6f" x="255.367188"/>
      <use xlink:href="#DejaVuSans-6d" x="316.548828"/>
     </g>
    </g>
    <g id="line2d_26">
     <path d="M 942.07 44.438088 
L 952.07 44.438088 
L 962.07 44.438088 
" style="fill: none; stroke: #2ca02c; stroke-width: 1.5; stroke-linecap: square"/>
    </g>
    <g id="text_18">
     <!-- chi_2 -->
     <g transform="translate(970.07 47.938088) scale(0.1 -0.1)">
      <defs>
       <path id="DejaVuSans-5f" d="M 3263 -1063 
L 3263 -1509 
L -63 -1509 
L -63 -1063 
L 3263 -1063 
z
" transform="scale(0.015625)"/>
      </defs>
      <use xlink:href="#DejaVuSans-63"/>
      <use xlink:href="#DejaVuSans-68" x="54.980469"/>
      <use xlink:href="#DejaVuSans-69" x="118.359375"/>
      <use xlink:href="#DejaVuSans-5f" x="146.142578"/>
      <use xlink:href="#DejaVuSans-32" x="196.142578"/>
     </g>
    </g>
    <g id="line2d_27">
     <path d="M 942.07 59.394338 
L 952.07 59.394338 
L 962.07 59.394338 
" style="fill: none; stroke: #d62728; stroke-width: 1.5; stroke-linecap: square"/>
    </g>
    <g id="text_19">
     <!-- f_classif -->
     <g transform="translate(970.07 62.894338) scale(0.1 -0.1)">
      <defs>
       <path id="DejaVuSans-6c" d="M 603 4863 
L 1178 4863 
L 1178 0 
L 603 0 
L 603 4863 
z
" transform="scale(0.015625)"/>
      </defs>
      <use xlink:href="#DejaVuSans-66"/>
      <use xlink:href="#DejaVuSans-5f" x="35.205078"/>
      <use xlink:href="#DejaVuSans-63" x="85.205078"/>
      <use xlink:href="#DejaVuSans-6c" x="140.185547"/>
      <use xlink:href="#DejaVuSans-61" x="167.96875"/>
      <use xlink:href="#DejaVuSans-73" x="229.248047"/>
      <use xlink:href="#DejaVuSans-73" x="281.347656"/>
      <use xlink:href="#DejaVuSans-69" x="333.447266"/>
      <use xlink:href="#DejaVuSans-66" x="361.230469"/>
     </g>
    </g>
    <g id="line2d_28">
     <path d="M 942.07 74.350588 
L 952.07 74.350588 
L 962.07 74.350588 
" style="fill: none; stroke: #9467bd; stroke-width: 1.5; stroke-linecap: square"/>
    </g>
    <g id="text_20">
     <!-- mutual_info_classif -->
     <g transform="translate(970.07 77.850588) scale(0.1 -0.1)">
      <use xlink:href="#DejaVuSans-6d"/>
      <use xlink:href="#DejaVuSans-75" x="97.412109"/>
      <use xlink:href="#DejaVuSans-74" x="160.791016"/>
      <use xlink:href="#DejaVuSans-75" x="200"/>
      <use xlink:href="#DejaVuSans-61" x="263.378906"/>
      <use xlink:href="#DejaVuSans-6c" x="324.658203"/>
      <use xlink:href="#DejaVuSans-5f" x="352.441406"/>
      <use xlink:href="#DejaVuSans-69" x="402.441406"/>
      <use xlink:href="#DejaVuSans-6e" x="430.224609"/>
      <use xlink:href="#DejaVuSans-66" x="493.603516"/>
      <use xlink:href="#DejaVuSans-6f" x="528.808594"/>
      <use xlink:href="#DejaVuSans-5f" x="589.990234"/>
      <use xlink:href="#DejaVuSans-63" x="639.990234"/>
      <use xlink:href="#DejaVuSans-6c" x="694.970703"/>
      <use xlink:href="#DejaVuSans-61" x="722.753906"/>
      <use xlink:href="#DejaVuSans-73" x="784.033203"/>
      <use xlink:href="#DejaVuSans-73" x="836.132812"/>
      <use xlink:href="#DejaVuSans-69" x="888.232422"/>
      <use xlink:href="#DejaVuSans-66" x="916.015625"/>
     </g>
    </g>
    <g id="line2d_29">
     <path d="M 942.07 89.306838 
L 952.07 89.306838 
L 962.07 89.306838 
" style="fill: none; stroke: #8c564b; stroke-width: 1.5; stroke-linecap: square"/>
    </g>
    <g id="text_21">
     <!-- lasso -->
     <g transform="translate(970.07 92.806838) scale(0.1 -0.1)">
      <use xlink:href="#DejaVuSans-6c"/>
      <use xlink:href="#DejaVuSans-61" x="27.783203"/>
      <use xlink:href="#DejaVuSans-73" x="89.0625"/>
      <use xlink:href="#DejaVuSans-73" x="141.162109"/>
      <use xlink:href="#DejaVuSans-6f" x="193.261719"/>
     </g>
    </g>
    <g id="line2d_30">
     <path d="M 942.07 103.984963 
L 952.07 103.984963 
L 962.07 103.984963 
" style="fill: none; stroke: #e377c2; stroke-width: 1.5; stroke-linecap: square"/>
    </g>
    <g id="text_22">
     <!-- ridge -->
     <g transform="translate(970.07 107.484963) scale(0.1 -0.1)">
      <use xlink:href="#DejaVuSans-72"/>
      <use xlink:href="#DejaVuSans-69" x="41.113281"/>
      <use xlink:href="#DejaVuSans-64" x="68.896484"/>
      <use xlink:href="#DejaVuSans-67" x="132.373047"/>
      <use xlink:href="#DejaVuSans-65" x="195.849609"/>
     </g>
    </g>
    <g id="line2d_31">
     <path d="M 942.07 118.663088 
L 952.07 118.663088 
L 962.07 118.663088 
" style="fill: none; stroke: #7f7f7f; stroke-width: 1.5; stroke-linecap: square"/>
    </g>
    <g id="text_23">
     <!-- elastic_net -->
     <g transform="translate(970.07 122.163088) scale(0.1 -0.1)">
      <use xlink:href="#DejaVuSans-65"/>
      <use xlink:href="#DejaVuSans-6c" x="61.523438"/>
      <use xlink:href="#DejaVuSans-61" x="89.306641"/>
      <use xlink:href="#DejaVuSans-73" x="150.585938"/>
      <use xlink:href="#DejaVuSans-74" x="202.685547"/>
      <use xlink:href="#DejaVuSans-69" x="241.894531"/>
      <use xlink:href="#DejaVuSans-63" x="269.677734"/>
      <use xlink:href="#DejaVuSans-5f" x="324.658203"/>
      <use xlink:href="#DejaVuSans-6e" x="374.658203"/>
      <use xlink:href="#DejaVuSans-65" x="438.037109"/>
      <use xlink:href="#DejaVuSans-74" x="499.560547"/>
     </g>
    </g>
    <g id="line2d_32">
     <path d="M 942.07 133.619338 
L 952.07 133.619338 
L 962.07 133.619338 
" style="fill: none; stroke: #bcbd22; stroke-width: 1.5; stroke-linecap: square"/>
    </g>
    <g id="text_24">
     <!-- rf -->
     <g transform="translate(970.07 137.119338) scale(0.1 -0.1)">
      <use xlink:href="#DejaVuSans-72"/>
      <use xlink:href="#DejaVuSans-66" x="41.113281"/>
     </g>
    </g>
    <g id="line2d_33">
     <path d="M 942.07 148.297463 
L 952.07 148.297463 
L 962.07 148.297463 
" style="fill: none; stroke: #17becf; stroke-width: 1.5; stroke-linecap: square"/>
    </g>
    <g id="text_25">
     <!-- gbm -->
     <g transform="translate(970.07 151.797463) scale(0.1 -0.1)">
      <use xlink:href="#DejaVuSans-67"/>
      <use xlink:href="#DejaVuSans-62" x="63.476562"/>
      <use xlink:href="#DejaVuSans-6d" x="126.953125"/>
     </g>
    </g>
    <g id="line2d_34">
     <path d="M 942.07 162.975588 
L 952.07 162.975588 
L 962.07 162.975588 
" style="fill: none; stroke: #9edae5; stroke-width: 1.5; stroke-linecap: square"/>
    </g>
    <g id="text_26">
     <!-- xgb -->
     <g transform="translate(970.07 166.475588) scale(0.1 -0.1)">
      <defs>
       <path id="DejaVuSans-78" d="M 3513 3500 
L 2247 1797 
L 3578 0 
L 2900 0 
L 1881 1375 
L 863 0 
L 184 0 
L 1544 1831 
L 300 3500 
L 978 3500 
L 1906 2253 
L 2834 3500 
L 3513 3500 
z
" transform="scale(0.015625)"/>
      </defs>
      <use xlink:href="#DejaVuSans-78"/>
      <use xlink:href="#DejaVuSans-67" x="59.179688"/>
      <use xlink:href="#DejaVuSans-62" x="122.65625"/>
     </g>
    </g>
   </g>
  </g>
 </g>
 <defs>
  <clipPath id="p08800a257a">
   <rect x="47.765" y="30.748" width="885.305" height="575.292"/>
  </clipPath>
 </defs>
</svg>
