<?xml version="1.0" encoding="utf-8" standalone="no"?>
<!DOCTYPE svg PUBLIC "-//W3C//DTD SVG 1.1//EN"
  "http://www.w3.org/Graphics/SVG/1.1/DTD/svg11.dtd">
<svg xmlns:xlink="http://www.w3.org/1999/xlink" width="864pt" height="648pt" viewBox="0 0 864 648" xmlns="http://www.w3.org/2000/svg" version="1.1">
 <metadata>
  <rdf:RDF xmlns:dc="http://purl.org/dc/elements/1.1/" xmlns:cc="http://creativecommons.org/ns#" xmlns:rdf="http://www.w3.org/1999/02/22-rdf-syntax-ns#">
   <cc:Work>
    <dc:type rdf:resource="http://purl.org/dc/dcmitype/StillImage"/>
    <dc:date>2024-04-04T23:57:38.874655</dc:date>
    <dc:format>image/svg+xml</dc:format>
    <dc:creator>
     <cc:Agent>
      <dc:title>Matplotlib v3.7.2, https://matplotlib.org/</dc:title>
     </cc:Agent>
    </dc:creator>
   </cc:Work>
  </rdf:RDF>
 </metadata>
 <defs>
  <style type="text/css">*{stroke-linejoin: round; stroke-linecap: butt}</style>
 </defs>
 <g id="figure_1">
  <g id="patch_1">
   <path d="M 0 648 
L 864 648 
L 864 0 
L 0 0 
z
" style="fill: #ffffff"/>
  </g>
  <g id="axes_1">
   <g id="patch_2">
    <path d="M 47.765 520.99 
L 853.2 520.99 
L 853.2 26.16 
L 47.765 26.16 
z
" style="fill: #ffffff"/>
   </g>
   <g id="matplotlib.axis_1">
    <g id="xtick_1">
     <g id="line2d_1">
      <defs>
       <path id="m0af2bceeeb" d="M 0 0 
L 0 3.5 
" style="stroke: #000000; stroke-width: 0.8"/>
      </defs>
      <g>
       <use xlink:href="#m0af2bceeeb" x="84.375682" y="520.99" style="stroke: #000000; stroke-width: 0.8"/>
      </g>
     </g>
     <g id="text_1">
      <!-- GA -->
      <g transform="translate(87.135057 542.579062) rotate(-90) scale(0.1 -0.1)">
       <defs>
        <path id="DejaVuSans-47" d="M 3809 666 
L 3809 1919 
L 2778 1919 
L 2778 2438 
L 4434 2438 
L 4434 434 
Q 4069 175 3628 42 
Q 3188 -91 2688 -91 
Q 1594 -91 976 548 
Q 359 1188 359 2328 
Q 359 3472 976 4111 
Q 1594 4750 2688 4750 
Q 3144 4750 3555 4637 
Q 3966 4525 4313 4306 
L 4313 3634 
Q 3963 3931 3569 4081 
Q 3175 4231 2741 4231 
Q 1884 4231 1454 3753 
Q 1025 3275 1025 2328 
Q 1025 1384 1454 906 
Q 1884 428 2741 428 
Q 3075 428 3337 486 
Q 3600 544 3809 666 
z
" transform="scale(0.015625)"/>
        <path id="DejaVuSans-41" d="M 2188 4044 
L 1331 1722 
L 3047 1722 
L 2188 4044 
z
M 1831 4666 
L 2547 4666 
L 4325 0 
L 3669 0 
L 3244 1197 
L 1141 1197 
L 716 0 
L 50 0 
L 1831 4666 
z
" transform="scale(0.015625)"/>
       </defs>
       <use xlink:href="#DejaVuSans-47"/>
       <use xlink:href="#DejaVuSans-41" x="77.490234"/>
      </g>
     </g>
    </g>
    <g id="xtick_2">
     <g id="line2d_2">
      <g>
       <use xlink:href="#m0af2bceeeb" x="157.597045" y="520.99" style="stroke: #000000; stroke-width: 0.8"/>
      </g>
     </g>
     <g id="text_2">
      <!-- f_classif -->
      <g transform="translate(160.217358 567.632187) rotate(-90) scale(0.1 -0.1)">
       <defs>
        <path id="DejaVuSans-66" d="M 2375 4863 
L 2375 4384 
L 1825 4384 
Q 1516 4384 1395 4259 
Q 1275 4134 1275 3809 
L 1275 3500 
L 2222 3500 
L 2222 3053 
L 1275 3053 
L 1275 0 
L 697 0 
L 697 3053 
L 147 3053 
L 147 3500 
L 697 3500 
L 697 3744 
Q 697 4328 969 4595 
Q 1241 4863 1831 4863 
L 2375 4863 
z
" transform="scale(0.015625)"/>
        <path id="DejaVuSans-5f" d="M 3263 -1063 
L 3263 -1509 
L -63 -1509 
L -63 -1063 
L 3263 -1063 
z
" transform="scale(0.015625)"/>
        <path id="DejaVuSans-63" d="M 3122 3366 
L 3122 2828 
Q 2878 2963 2633 3030 
Q 2388 3097 2138 3097 
Q 1578 3097 1268 2742 
Q 959 2388 959 1747 
Q 959 1106 1268 751 
Q 1578 397 2138 397 
Q 2388 397 2633 464 
Q 2878 531 3122 666 
L 3122 134 
Q 2881 22 2623 -34 
Q 2366 -91 2075 -91 
Q 1284 -91 818 406 
Q 353 903 353 1747 
Q 353 2603 823 3093 
Q 1294 3584 2113 3584 
Q 2378 3584 2631 3529 
Q 2884 3475 3122 3366 
z
" transform="scale(0.015625)"/>
        <path id="DejaVuSans-6c" d="M 603 4863 
L 1178 4863 
L 1178 0 
L 603 0 
L 603 4863 
z
" transform="scale(0.015625)"/>
        <path id="DejaVuSans-61" d="M 2194 1759 
Q 1497 1759 1228 1600 
Q 959 1441 959 1056 
Q 959 750 1161 570 
Q 1363 391 1709 391 
Q 2188 391 2477 730 
Q 2766 1069 2766 1631 
L 2766 1759 
L 2194 1759 
z
M 3341 1997 
L 3341 0 
L 2766 0 
L 2766 531 
Q 2569 213 2275 61 
Q 1981 -91 1556 -91 
Q 1019 -91 701 211 
Q 384 513 384 1019 
Q 384 1609 779 1909 
Q 1175 2209 1959 2209 
L 2766 2209 
L 2766 2266 
Q 2766 2663 2505 2880 
Q 2244 3097 1772 3097 
Q 1472 3097 1187 3025 
Q 903 2953 641 2809 
L 641 3341 
Q 956 3463 1253 3523 
Q 1550 3584 1831 3584 
Q 2591 3584 2966 3190 
Q 3341 2797 3341 1997 
z
" transform="scale(0.015625)"/>
        <path id="DejaVuSans-73" d="M 2834 3397 
L 2834 2853 
Q 2591 2978 2328 3040 
Q 2066 3103 1784 3103 
Q 1356 3103 1142 2972 
Q 928 2841 928 2578 
Q 928 2378 1081 2264 
Q 1234 2150 1697 2047 
L 1894 2003 
Q 2506 1872 2764 1633 
Q 3022 1394 3022 966 
Q 3022 478 2636 193 
Q 2250 -91 1575 -91 
Q 1294 -91 989 -36 
Q 684 19 347 128 
L 347 722 
Q 666 556 975 473 
Q 1284 391 1588 391 
Q 1994 391 2212 530 
Q 2431 669 2431 922 
Q 2431 1156 2273 1281 
Q 2116 1406 1581 1522 
L 1381 1569 
Q 847 1681 609 1914 
Q 372 2147 372 2553 
Q 372 3047 722 3315 
Q 1072 3584 1716 3584 
Q 2034 3584 2315 3537 
Q 2597 3491 2834 3397 
z
" transform="scale(0.015625)"/>
        <path id="DejaVuSans-69" d="M 603 3500 
L 1178 3500 
L 1178 0 
L 603 0 
L 603 3500 
z
M 603 4863 
L 1178 4863 
L 1178 4134 
L 603 4134 
L 603 4863 
z
" transform="scale(0.015625)"/>
       </defs>
       <use xlink:href="#DejaVuSans-66"/>
       <use xlink:href="#DejaVuSans-5f" x="35.205078"/>
       <use xlink:href="#DejaVuSans-63" x="85.205078"/>
       <use xlink:href="#DejaVuSans-6c" x="140.185547"/>
       <use xlink:href="#DejaVuSans-61" x="167.96875"/>
       <use xlink:href="#DejaVuSans-73" x="229.248047"/>
       <use xlink:href="#DejaVuSans-73" x="281.347656"/>
       <use xlink:href="#DejaVuSans-69" x="333.447266"/>
       <use xlink:href="#DejaVuSans-66" x="361.230469"/>
      </g>
     </g>
    </g>
    <g id="xtick_3">
     <g id="line2d_3">
      <g>
       <use xlink:href="#m0af2bceeeb" x="230.818409" y="520.99" style="stroke: #000000; stroke-width: 0.8"/>
      </g>
     </g>
     <g id="text_3">
      <!-- chi_2 -->
      <g transform="translate(233.438722 553.966563) rotate(-90) scale(0.1 -0.1)">
       <defs>
        <path id="DejaVuSans-68" d="M 3513 2113 
L 3513 0 
L 2938 0 
L 2938 2094 
Q 2938 2591 2744 2837 
Q 2550 3084 2163 3084 
Q 1697 3084 1428 2787 
Q 1159 2491 1159 1978 
L 1159 0 
L 581 0 
L 581 4863 
L 1159 4863 
L 1159 2956 
Q 1366 3272 1645 3428 
Q 1925 3584 2291 3584 
Q 2894 3584 3203 3211 
Q 3513 2838 3513 2113 
z
" transform="scale(0.015625)"/>
        <path id="DejaVuSans-32" d="M 1228 531 
L 3431 531 
L 3431 0 
L 469 0 
L 469 531 
Q 828 903 1448 1529 
Q 2069 2156 2228 2338 
Q 2531 2678 2651 2914 
Q 2772 3150 2772 3378 
Q 2772 3750 2511 3984 
Q 2250 4219 1831 4219 
Q 1534 4219 1204 4116 
Q 875 4013 500 3803 
L 500 4441 
Q 881 4594 1212 4672 
Q 1544 4750 1819 4750 
Q 2544 4750 2975 4387 
Q 3406 4025 3406 3419 
Q 3406 3131 3298 2873 
Q 3191 2616 2906 2266 
Q 2828 2175 2409 1742 
Q 1991 1309 1228 531 
z
" transform="scale(0.015625)"/>
       </defs>
       <use xlink:href="#DejaVuSans-63"/>
       <use xlink:href="#DejaVuSans-68" x="54.980469"/>
       <use xlink:href="#DejaVuSans-69" x="118.359375"/>
       <use xlink:href="#DejaVuSans-5f" x="146.142578"/>
       <use xlink:href="#DejaVuSans-32" x="196.142578"/>
      </g>
     </g>
    </g>
    <g id="xtick_4">
     <g id="line2d_4">
      <g>
       <use xlink:href="#m0af2bceeeb" x="304.039773" y="520.99" style="stroke: #000000; stroke-width: 0.8"/>
      </g>
     </g>
     <g id="text_4">
      <!-- mutual_info_classif -->
      <g transform="translate(306.660085 623.10875) rotate(-90) scale(0.1 -0.1)">
       <defs>
        <path id="DejaVuSans-6d" d="M 3328 2828 
Q 3544 3216 3844 3400 
Q 4144 3584 4550 3584 
Q 5097 3584 5394 3201 
Q 5691 2819 5691 2113 
L 5691 0 
L 5113 0 
L 5113 2094 
Q 5113 2597 4934 2840 
Q 4756 3084 4391 3084 
Q 3944 3084 3684 2787 
Q 3425 2491 3425 1978 
L 3425 0 
L 2847 0 
L 2847 2094 
Q 2847 2600 2669 2842 
Q 2491 3084 2119 3084 
Q 1678 3084 1418 2786 
Q 1159 2488 1159 1978 
L 1159 0 
L 581 0 
L 581 3500 
L 1159 3500 
L 1159 2956 
Q 1356 3278 1631 3431 
Q 1906 3584 2284 3584 
Q 2666 3584 2933 3390 
Q 3200 3197 3328 2828 
z
" transform="scale(0.015625)"/>
        <path id="DejaVuSans-75" d="M 544 1381 
L 544 3500 
L 1119 3500 
L 1119 1403 
Q 1119 906 1312 657 
Q 1506 409 1894 409 
Q 2359 409 2629 706 
Q 2900 1003 2900 1516 
L 2900 3500 
L 3475 3500 
L 3475 0 
L 2900 0 
L 2900 538 
Q 2691 219 2414 64 
Q 2138 -91 1772 -91 
Q 1169 -91 856 284 
Q 544 659 544 1381 
z
M 1991 3584 
L 1991 3584 
z
" transform="scale(0.015625)"/>
        <path id="DejaVuSans-74" d="M 1172 4494 
L 1172 3500 
L 2356 3500 
L 2356 3053 
L 1172 3053 
L 1172 1153 
Q 1172 725 1289 603 
Q 1406 481 1766 481 
L 2356 481 
L 2356 0 
L 1766 0 
Q 1100 0 847 248 
Q 594 497 594 1153 
L 594 3053 
L 172 3053 
L 172 3500 
L 594 3500 
L 594 4494 
L 1172 4494 
z
" transform="scale(0.015625)"/>
        <path id="DejaVuSans-6e" d="M 3513 2113 
L 3513 0 
L 2938 0 
L 2938 2094 
Q 2938 2591 2744 2837 
Q 2550 3084 2163 3084 
Q 1697 3084 1428 2787 
Q 1159 2491 1159 1978 
L 1159 0 
L 581 0 
L 581 3500 
L 1159 3500 
L 1159 2956 
Q 1366 3272 1645 3428 
Q 1925 3584 2291 3584 
Q 2894 3584 3203 3211 
Q 3513 2838 3513 2113 
z
" transform="scale(0.015625)"/>
        <path id="DejaVuSans-6f" d="M 1959 3097 
Q 1497 3097 1228 2736 
Q 959 2375 959 1747 
Q 959 1119 1226 758 
Q 1494 397 1959 397 
Q 2419 397 2687 759 
Q 2956 1122 2956 1747 
Q 2956 2369 2687 2733 
Q 2419 3097 1959 3097 
z
M 1959 3584 
Q 2709 3584 3137 3096 
Q 3566 2609 3566 1747 
Q 3566 888 3137 398 
Q 2709 -91 1959 -91 
Q 1206 -91 779 398 
Q 353 888 353 1747 
Q 353 2609 779 3096 
Q 1206 3584 1959 3584 
z
" transform="scale(0.015625)"/>
       </defs>
       <use xlink:href="#DejaVuSans-6d"/>
       <use xlink:href="#DejaVuSans-75" x="97.412109"/>
       <use xlink:href="#DejaVuSans-74" x="160.791016"/>
       <use xlink:href="#DejaVuSans-75" x="200"/>
       <use xlink:href="#DejaVuSans-61" x="263.378906"/>
       <use xlink:href="#DejaVuSans-6c" x="324.658203"/>
       <use xlink:href="#DejaVuSans-5f" x="352.441406"/>
       <use xlink:href="#DejaVuSans-69" x="402.441406"/>
       <use xlink:href="#DejaVuSans-6e" x="430.224609"/>
       <use xlink:href="#DejaVuSans-66" x="493.603516"/>
       <use xlink:href="#DejaVuSans-6f" x="528.808594"/>
       <use xlink:href="#DejaVuSans-5f" x="589.990234"/>
       <use xlink:href="#DejaVuSans-63" x="639.990234"/>
       <use xlink:href="#DejaVuSans-6c" x="694.970703"/>
       <use xlink:href="#DejaVuSans-61" x="722.753906"/>
       <use xlink:href="#DejaVuSans-73" x="784.033203"/>
       <use xlink:href="#DejaVuSans-73" x="836.132812"/>
       <use xlink:href="#DejaVuSans-69" x="888.232422"/>
       <use xlink:href="#DejaVuSans-66" x="916.015625"/>
      </g>
     </g>
    </g>
    <g id="xtick_5">
     <g id="line2d_5">
      <g>
       <use xlink:href="#m0af2bceeeb" x="377.261136" y="520.99" style="stroke: #000000; stroke-width: 0.8"/>
      </g>
     </g>
     <g id="text_5">
      <!-- rf -->
      <g transform="translate(380.020511 535.62125) rotate(-90) scale(0.1 -0.1)">
       <defs>
        <path id="DejaVuSans-72" d="M 2631 2963 
Q 2534 3019 2420 3045 
Q 2306 3072 2169 3072 
Q 1681 3072 1420 2755 
Q 1159 2438 1159 1844 
L 1159 0 
L 581 0 
L 581 3500 
L 1159 3500 
L 1159 2956 
Q 1341 3275 1631 3429 
Q 1922 3584 2338 3584 
Q 2397 3584 2469 3576 
Q 2541 3569 2628 3553 
L 2631 2963 
z
" transform="scale(0.015625)"/>
       </defs>
       <use xlink:href="#DejaVuSans-72"/>
       <use xlink:href="#DejaVuSans-66" x="41.113281"/>
      </g>
     </g>
    </g>
    <g id="xtick_6">
     <g id="line2d_6">
      <g>
       <use xlink:href="#m0af2bceeeb" x="450.4825" y="520.99" style="stroke: #000000; stroke-width: 0.8"/>
      </g>
     </g>
     <g id="text_6">
      <!-- ridge -->
      <g transform="translate(453.241875 553.729062) rotate(-90) scale(0.1 -0.1)">
       <defs>
        <path id="DejaVuSans-64" d="M 2906 2969 
L 2906 4863 
L 3481 4863 
L 3481 0 
L 2906 0 
L 2906 525 
Q 2725 213 2448 61 
Q 2172 -91 1784 -91 
Q 1150 -91 751 415 
Q 353 922 353 1747 
Q 353 2572 751 3078 
Q 1150 3584 1784 3584 
Q 2172 3584 2448 3432 
Q 2725 3281 2906 2969 
z
M 947 1747 
Q 947 1113 1208 752 
Q 1469 391 1925 391 
Q 2381 391 2643 752 
Q 2906 1113 2906 1747 
Q 2906 2381 2643 2742 
Q 2381 3103 1925 3103 
Q 1469 3103 1208 2742 
Q 947 2381 947 1747 
z
" transform="scale(0.015625)"/>
        <path id="DejaVuSans-67" d="M 2906 1791 
Q 2906 2416 2648 2759 
Q 2391 3103 1925 3103 
Q 1463 3103 1205 2759 
Q 947 2416 947 1791 
Q 947 1169 1205 825 
Q 1463 481 1925 481 
Q 2391 481 2648 825 
Q 2906 1169 2906 1791 
z
M 3481 434 
Q 3481 -459 3084 -895 
Q 2688 -1331 1869 -1331 
Q 1566 -1331 1297 -1286 
Q 1028 -1241 775 -1147 
L 775 -588 
Q 1028 -725 1275 -790 
Q 1522 -856 1778 -856 
Q 2344 -856 2625 -561 
Q 2906 -266 2906 331 
L 2906 616 
Q 2728 306 2450 153 
Q 2172 0 1784 0 
Q 1141 0 747 490 
Q 353 981 353 1791 
Q 353 2603 747 3093 
Q 1141 3584 1784 3584 
Q 2172 3584 2450 3431 
Q 2728 3278 2906 2969 
L 2906 3500 
L 3481 3500 
L 3481 434 
z
" transform="scale(0.015625)"/>
        <path id="DejaVuSans-65" d="M 3597 1894 
L 3597 1613 
L 953 1613 
Q 991 1019 1311 708 
Q 1631 397 2203 397 
Q 2534 397 2845 478 
Q 3156 559 3463 722 
L 3463 178 
Q 3153 47 2828 -22 
Q 2503 -91 2169 -91 
Q 1331 -91 842 396 
Q 353 884 353 1716 
Q 353 2575 817 3079 
Q 1281 3584 2069 3584 
Q 2775 3584 3186 3129 
Q 3597 2675 3597 1894 
z
M 3022 2063 
Q 3016 2534 2758 2815 
Q 2500 3097 2075 3097 
Q 1594 3097 1305 2825 
Q 1016 2553 972 2059 
L 3022 2063 
z
" transform="scale(0.015625)"/>
       </defs>
       <use xlink:href="#DejaVuSans-72"/>
       <use xlink:href="#DejaVuSans-69" x="41.113281"/>
       <use xlink:href="#DejaVuSans-64" x="68.896484"/>
       <use xlink:href="#DejaVuSans-67" x="132.373047"/>
       <use xlink:href="#DejaVuSans-65" x="195.849609"/>
      </g>
     </g>
    </g>
    <g id="xtick_7">
     <g id="line2d_7">
      <g>
       <use xlink:href="#m0af2bceeeb" x="523.703864" y="520.99" style="stroke: #000000; stroke-width: 0.8"/>
      </g>
     </g>
     <g id="text_7">
      <!-- elastic_net -->
      <g transform="translate(526.324176 581.866562) rotate(-90) scale(0.1 -0.1)">
       <use xlink:href="#DejaVuSans-65"/>
       <use xlink:href="#DejaVuSans-6c" x="61.523438"/>
       <use xlink:href="#DejaVuSans-61" x="89.306641"/>
       <use xlink:href="#DejaVuSans-73" x="150.585938"/>
       <use xlink:href="#DejaVuSans-74" x="202.685547"/>
       <use xlink:href="#DejaVuSans-69" x="241.894531"/>
       <use xlink:href="#DejaVuSans-63" x="269.677734"/>
       <use xlink:href="#DejaVuSans-5f" x="324.658203"/>
       <use xlink:href="#DejaVuSans-6e" x="374.658203"/>
       <use xlink:href="#DejaVuSans-65" x="438.037109"/>
       <use xlink:href="#DejaVuSans-74" x="499.560547"/>
      </g>
     </g>
    </g>
    <g id="xtick_8">
     <g id="line2d_8">
      <g>
       <use xlink:href="#m0af2bceeeb" x="596.925227" y="520.99" style="stroke: #000000; stroke-width: 0.8"/>
      </g>
     </g>
     <g id="text_8">
      <!-- gbm -->
      <g transform="translate(599.684602 550.4275) rotate(-90) scale(0.1 -0.1)">
       <defs>
        <path id="DejaVuSans-62" d="M 3116 1747 
Q 3116 2381 2855 2742 
Q 2594 3103 2138 3103 
Q 1681 3103 1420 2742 
Q 1159 2381 1159 1747 
Q 1159 1113 1420 752 
Q 1681 391 2138 391 
Q 2594 391 2855 752 
Q 3116 1113 3116 1747 
z
M 1159 2969 
Q 1341 3281 1617 3432 
Q 1894 3584 2278 3584 
Q 2916 3584 3314 3078 
Q 3713 2572 3713 1747 
Q 3713 922 3314 415 
Q 2916 -91 2278 -91 
Q 1894 -91 1617 61 
Q 1341 213 1159 525 
L 1159 0 
L 581 0 
L 581 4863 
L 1159 4863 
L 1159 2969 
z
" transform="scale(0.015625)"/>
       </defs>
       <use xlink:href="#DejaVuSans-67"/>
       <use xlink:href="#DejaVuSans-62" x="63.476562"/>
       <use xlink:href="#DejaVuSans-6d" x="126.953125"/>
      </g>
     </g>
    </g>
    <g id="xtick_9">
     <g id="line2d_9">
      <g>
       <use xlink:href="#m0af2bceeeb" x="670.146591" y="520.99" style="stroke: #000000; stroke-width: 0.8"/>
      </g>
     </g>
     <g id="text_9">
      <!-- lasso -->
      <g transform="translate(672.905966 553.43375) rotate(-90) scale(0.1 -0.1)">
       <use xlink:href="#DejaVuSans-6c"/>
       <use xlink:href="#DejaVuSans-61" x="27.783203"/>
       <use xlink:href="#DejaVuSans-73" x="89.0625"/>
       <use xlink:href="#DejaVuSans-73" x="141.162109"/>
       <use xlink:href="#DejaVuSans-6f" x="193.261719"/>
      </g>
     </g>
    </g>
    <g id="xtick_10">
     <g id="line2d_10">
      <g>
       <use xlink:href="#m0af2bceeeb" x="743.367955" y="520.99" style="stroke: #000000; stroke-width: 0.8"/>
      </g>
     </g>
     <g id="text_10">
      <!-- xgb -->
      <g transform="translate(746.12733 546.605625) rotate(-90) scale(0.1 -0.1)">
       <defs>
        <path id="DejaVuSans-78" d="M 3513 3500 
L 2247 1797 
L 3578 0 
L 2900 0 
L 1881 1375 
L 863 0 
L 184 0 
L 1544 1831 
L 300 3500 
L 978 3500 
L 1906 2253 
L 2834 3500 
L 3513 3500 
z
" transform="scale(0.015625)"/>
       </defs>
       <use xlink:href="#DejaVuSans-78"/>
       <use xlink:href="#DejaVuSans-67" x="59.179688"/>
       <use xlink:href="#DejaVuSans-62" x="122.65625"/>
      </g>
     </g>
    </g>
    <g id="xtick_11">
     <g id="line2d_11">
      <g>
       <use xlink:href="#m0af2bceeeb" x="816.589318" y="520.99" style="stroke: #000000; stroke-width: 0.8"/>
      </g>
     </g>
     <g id="text_11">
      <!-- Random -->
      <g transform="translate(819.348693 569.386875) rotate(-90) scale(0.1 -0.1)">
       <defs>
        <path id="DejaVuSans-52" d="M 2841 2188 
Q 3044 2119 3236 1894 
Q 3428 1669 3622 1275 
L 4263 0 
L 3584 0 
L 2988 1197 
Q 2756 1666 2539 1819 
Q 2322 1972 1947 1972 
L 1259 1972 
L 1259 0 
L 628 0 
L 628 4666 
L 2053 4666 
Q 2853 4666 3247 4331 
Q 3641 3997 3641 3322 
Q 3641 2881 3436 2590 
Q 3231 2300 2841 2188 
z
M 1259 4147 
L 1259 2491 
L 2053 2491 
Q 2509 2491 2742 2702 
Q 2975 2913 2975 3322 
Q 2975 3731 2742 3939 
Q 2509 4147 2053 4147 
L 1259 4147 
z
" transform="scale(0.015625)"/>
       </defs>
       <use xlink:href="#DejaVuSans-52"/>
       <use xlink:href="#DejaVuSans-61" x="67.232422"/>
       <use xlink:href="#DejaVuSans-6e" x="128.511719"/>
       <use xlink:href="#DejaVuSans-64" x="191.890625"/>
       <use xlink:href="#DejaVuSans-6f" x="255.367188"/>
       <use xlink:href="#DejaVuSans-6d" x="316.548828"/>
      </g>
     </g>
    </g>
    <g id="text_12">
     <!-- Method -->
     <g transform="translate(431.729375 634.707187) scale(0.1 -0.1)">
      <defs>
       <path id="DejaVuSans-4d" d="M 628 4666 
L 1569 4666 
L 2759 1491 
L 3956 4666 
L 4897 4666 
L 4897 0 
L 4281 0 
L 4281 4097 
L 3078 897 
L 2444 897 
L 1241 4097 
L 1241 0 
L 628 0 
L 628 4666 
z
" transform="scale(0.015625)"/>
      </defs>
      <use xlink:href="#DejaVuSans-4d"/>
      <use xlink:href="#DejaVuSans-65" x="86.279297"/>
      <use xlink:href="#DejaVuSans-74" x="147.802734"/>
      <use xlink:href="#DejaVuSans-68" x="187.011719"/>
      <use xlink:href="#DejaVuSans-6f" x="250.390625"/>
      <use xlink:href="#DejaVuSans-64" x="311.572266"/>
     </g>
    </g>
   </g>
   <g id="matplotlib.axis_2">
    <g id="ytick_1">
     <g id="line2d_12">
      <defs>
       <path id="m5fe0616c52" d="M 0 0 
L -3.5 0 
" style="stroke: #000000; stroke-width: 0.8"/>
      </defs>
      <g>
       <use xlink:href="#m5fe0616c52" x="47.765" y="520.99" style="stroke: #000000; stroke-width: 0.8"/>
      </g>
     </g>
     <g id="text_13">
      <!-- 0.0 -->
      <g transform="translate(24.861875 524.789219) scale(0.1 -0.1)">
       <defs>
        <path id="DejaVuSans-30" d="M 2034 4250 
Q 1547 4250 1301 3770 
Q 1056 3291 1056 2328 
Q 1056 1369 1301 889 
Q 1547 409 2034 409 
Q 2525 409 2770 889 
Q 3016 1369 3016 2328 
Q 3016 3291 2770 3770 
Q 2525 4250 2034 4250 
z
M 2034 4750 
Q 2819 4750 3233 4129 
Q 3647 3509 3647 2328 
Q 3647 1150 3233 529 
Q 2819 -91 2034 -91 
Q 1250 -91 836 529 
Q 422 1150 422 2328 
Q 422 3509 836 4129 
Q 1250 4750 2034 4750 
z
" transform="scale(0.015625)"/>
        <path id="DejaVuSans-2e" d="M 684 794 
L 1344 794 
L 1344 0 
L 684 0 
L 684 794 
z
" transform="scale(0.015625)"/>
       </defs>
       <use xlink:href="#DejaVuSans-30"/>
       <use xlink:href="#DejaVuSans-2e" x="63.623047"/>
       <use xlink:href="#DejaVuSans-30" x="95.410156"/>
      </g>
     </g>
    </g>
    <g id="ytick_2">
     <g id="line2d_13">
      <g>
       <use xlink:href="#m5fe0616c52" x="47.765" y="422.024" style="stroke: #000000; stroke-width: 0.8"/>
      </g>
     </g>
     <g id="text_14">
      <!-- 0.2 -->
      <g transform="translate(24.861875 425.823219) scale(0.1 -0.1)">
       <use xlink:href="#DejaVuSans-30"/>
       <use xlink:href="#DejaVuSans-2e" x="63.623047"/>
       <use xlink:href="#DejaVuSans-32" x="95.410156"/>
      </g>
     </g>
    </g>
    <g id="ytick_3">
     <g id="line2d_14">
      <g>
       <use xlink:href="#m5fe0616c52" x="47.765" y="323.058" style="stroke: #000000; stroke-width: 0.8"/>
      </g>
     </g>
     <g id="text_15">
      <!-- 0.4 -->
      <g transform="translate(24.861875 326.857219) scale(0.1 -0.1)">
       <defs>
        <path id="DejaVuSans-34" d="M 2419 4116 
L 825 1625 
L 2419 1625 
L 2419 4116 
z
M 2253 4666 
L 3047 4666 
L 3047 1625 
L 3713 1625 
L 3713 1100 
L 3047 1100 
L 3047 0 
L 2419 0 
L 2419 1100 
L 313 1100 
L 313 1709 
L 2253 4666 
z
" transform="scale(0.015625)"/>
       </defs>
       <use xlink:href="#DejaVuSans-30"/>
       <use xlink:href="#DejaVuSans-2e" x="63.623047"/>
       <use xlink:href="#DejaVuSans-34" x="95.410156"/>
      </g>
     </g>
    </g>
    <g id="ytick_4">
     <g id="line2d_15">
      <g>
       <use xlink:href="#m5fe0616c52" x="47.765" y="224.092" style="stroke: #000000; stroke-width: 0.8"/>
      </g>
     </g>
     <g id="text_16">
      <!-- 0.6 -->
      <g transform="translate(24.861875 227.891219) scale(0.1 -0.1)">
       <defs>
        <path id="DejaVuSans-36" d="M 2113 2584 
Q 1688 2584 1439 2293 
Q 1191 2003 1191 1497 
Q 1191 994 1439 701 
Q 1688 409 2113 409 
Q 2538 409 2786 701 
Q 3034 994 3034 1497 
Q 3034 2003 2786 2293 
Q 2538 2584 2113 2584 
z
M 3366 4563 
L 3366 3988 
Q 3128 4100 2886 4159 
Q 2644 4219 2406 4219 
Q 1781 4219 1451 3797 
Q 1122 3375 1075 2522 
Q 1259 2794 1537 2939 
Q 1816 3084 2150 3084 
Q 2853 3084 3261 2657 
Q 3669 2231 3669 1497 
Q 3669 778 3244 343 
Q 2819 -91 2113 -91 
Q 1303 -91 875 529 
Q 447 1150 447 2328 
Q 447 3434 972 4092 
Q 1497 4750 2381 4750 
Q 2619 4750 2861 4703 
Q 3103 4656 3366 4563 
z
" transform="scale(0.015625)"/>
       </defs>
       <use xlink:href="#DejaVuSans-30"/>
       <use xlink:href="#DejaVuSans-2e" x="63.623047"/>
       <use xlink:href="#DejaVuSans-36" x="95.410156"/>
      </g>
     </g>
    </g>
    <g id="ytick_5">
     <g id="line2d_16">
      <g>
       <use xlink:href="#m5fe0616c52" x="47.765" y="125.126" style="stroke: #000000; stroke-width: 0.8"/>
      </g>
     </g>
     <g id="text_17">
      <!-- 0.8 -->
      <g transform="translate(24.861875 128.925219) scale(0.1 -0.1)">
       <defs>
        <path id="DejaVuSans-38" d="M 2034 2216 
Q 1584 2216 1326 1975 
Q 1069 1734 1069 1313 
Q 1069 891 1326 650 
Q 1584 409 2034 409 
Q 2484 409 2743 651 
Q 3003 894 3003 1313 
Q 3003 1734 2745 1975 
Q 2488 2216 2034 2216 
z
M 1403 2484 
Q 997 2584 770 2862 
Q 544 3141 544 3541 
Q 544 4100 942 4425 
Q 1341 4750 2034 4750 
Q 2731 4750 3128 4425 
Q 3525 4100 3525 3541 
Q 3525 3141 3298 2862 
Q 3072 2584 2669 2484 
Q 3125 2378 3379 2068 
Q 3634 1759 3634 1313 
Q 3634 634 3220 271 
Q 2806 -91 2034 -91 
Q 1263 -91 848 271 
Q 434 634 434 1313 
Q 434 1759 690 2068 
Q 947 2378 1403 2484 
z
M 1172 3481 
Q 1172 3119 1398 2916 
Q 1625 2713 2034 2713 
Q 2441 2713 2670 2916 
Q 2900 3119 2900 3481 
Q 2900 3844 2670 4047 
Q 2441 4250 2034 4250 
Q 1625 4250 1398 4047 
Q 1172 3844 1172 3481 
z
" transform="scale(0.015625)"/>
       </defs>
       <use xlink:href="#DejaVuSans-30"/>
       <use xlink:href="#DejaVuSans-2e" x="63.623047"/>
       <use xlink:href="#DejaVuSans-38" x="95.410156"/>
      </g>
     </g>
    </g>
    <g id="ytick_6">
     <g id="line2d_17">
      <g>
       <use xlink:href="#m5fe0616c52" x="47.765" y="26.16" style="stroke: #000000; stroke-width: 0.8"/>
      </g>
     </g>
     <g id="text_18">
      <!-- 1.0 -->
      <g transform="translate(24.861875 29.959219) scale(0.1 -0.1)">
       <defs>
        <path id="DejaVuSans-31" d="M 794 531 
L 1825 531 
L 1825 4091 
L 703 3866 
L 703 4441 
L 1819 4666 
L 2450 4666 
L 2450 531 
L 3481 531 
L 3481 0 
L 794 0 
L 794 531 
z
" transform="scale(0.015625)"/>
       </defs>
       <use xlink:href="#DejaVuSans-31"/>
       <use xlink:href="#DejaVuSans-2e" x="63.623047"/>
       <use xlink:href="#DejaVuSans-30" x="95.410156"/>
      </g>
     </g>
    </g>
    <g id="text_19">
     <!-- Aggregated ARI Scores -->
     <g transform="translate(18.782187 330.967187) rotate(-90) scale(0.1 -0.1)">
      <defs>
       <path id="DejaVuSans-20" transform="scale(0.015625)"/>
       <path id="DejaVuSans-49" d="M 628 4666 
L 1259 4666 
L 1259 0 
L 628 0 
L 628 4666 
z
" transform="scale(0.015625)"/>
       <path id="DejaVuSans-53" d="M 3425 4513 
L 3425 3897 
Q 3066 4069 2747 4153 
Q 2428 4238 2131 4238 
Q 1616 4238 1336 4038 
Q 1056 3838 1056 3469 
Q 1056 3159 1242 3001 
Q 1428 2844 1947 2747 
L 2328 2669 
Q 3034 2534 3370 2195 
Q 3706 1856 3706 1288 
Q 3706 609 3251 259 
Q 2797 -91 1919 -91 
Q 1588 -91 1214 -16 
Q 841 59 441 206 
L 441 856 
Q 825 641 1194 531 
Q 1563 422 1919 422 
Q 2459 422 2753 634 
Q 3047 847 3047 1241 
Q 3047 1584 2836 1778 
Q 2625 1972 2144 2069 
L 1759 2144 
Q 1053 2284 737 2584 
Q 422 2884 422 3419 
Q 422 4038 858 4394 
Q 1294 4750 2059 4750 
Q 2388 4750 2728 4690 
Q 3069 4631 3425 4513 
z
" transform="scale(0.015625)"/>
      </defs>
      <use xlink:href="#DejaVuSans-41"/>
      <use xlink:href="#DejaVuSans-67" x="68.408203"/>
      <use xlink:href="#DejaVuSans-67" x="131.884766"/>
      <use xlink:href="#DejaVuSans-72" x="195.361328"/>
      <use xlink:href="#DejaVuSans-65" x="234.224609"/>
      <use xlink:href="#DejaVuSans-67" x="295.748047"/>
      <use xlink:href="#DejaVuSans-61" x="359.224609"/>
      <use xlink:href="#DejaVuSans-74" x="420.503906"/>
      <use xlink:href="#DejaVuSans-65" x="459.712891"/>
      <use xlink:href="#DejaVuSans-64" x="521.236328"/>
      <use xlink:href="#DejaVuSans-20" x="584.712891"/>
      <use xlink:href="#DejaVuSans-41" x="616.5"/>
      <use xlink:href="#DejaVuSans-52" x="684.908203"/>
      <use xlink:href="#DejaVuSans-49" x="754.390625"/>
      <use xlink:href="#DejaVuSans-20" x="783.882812"/>
      <use xlink:href="#DejaVuSans-53" x="815.669922"/>
      <use xlink:href="#DejaVuSans-63" x="879.146484"/>
      <use xlink:href="#DejaVuSans-6f" x="934.126953"/>
      <use xlink:href="#DejaVuSans-72" x="995.308594"/>
      <use xlink:href="#DejaVuSans-65" x="1034.171875"/>
      <use xlink:href="#DejaVuSans-73" x="1095.695312"/>
     </g>
    </g>
   </g>
   <g id="patch_3">
    <path d="M 66.070341 199.034609 
L 102.681023 199.034609 
L 102.681023 124.744311 
L 66.070341 124.744311 
L 66.070341 199.034609 
z
" clip-path="url(#p2ad0188eca)" style="fill: #add8e6; stroke: #000000; stroke-linejoin: miter"/>
   </g>
   <g id="line2d_18">
    <path d="M 84.375682 199.034609 
L 84.375682 283.115392 
" clip-path="url(#p2ad0188eca)" style="fill: none; stroke: #000000; stroke-linecap: square"/>
   </g>
   <g id="line2d_19">
    <path d="M 84.375682 124.744311 
L 84.375682 91.432926 
" clip-path="url(#p2ad0188eca)" style="fill: none; stroke: #000000; stroke-linecap: square"/>
   </g>
   <g id="line2d_20">
    <path d="M 75.223011 283.115392 
L 93.528352 283.115392 
" clip-path="url(#p2ad0188eca)" style="fill: none; stroke: #000000; stroke-linecap: square"/>
   </g>
   <g id="line2d_21">
    <path d="M 75.223011 91.432926 
L 93.528352 91.432926 
" clip-path="url(#p2ad0188eca)" style="fill: none; stroke: #000000; stroke-linecap: square"/>
   </g>
   <g id="line2d_22"/>
   <g id="patch_4">
    <path d="M 139.291705 187.865204 
L 175.902386 187.865204 
L 175.902386 128.357238 
L 139.291705 128.357238 
L 139.291705 187.865204 
z
" clip-path="url(#p2ad0188eca)" style="fill: #add8e6; stroke: #000000; stroke-linejoin: miter"/>
   </g>
   <g id="line2d_23">
    <path d="M 157.597045 187.865204 
L 157.597045 276.807067 
" clip-path="url(#p2ad0188eca)" style="fill: none; stroke: #000000; stroke-linecap: square"/>
   </g>
   <g id="line2d_24">
    <path d="M 157.597045 128.357238 
L 157.597045 89.237527 
" clip-path="url(#p2ad0188eca)" style="fill: none; stroke: #000000; stroke-linecap: square"/>
   </g>
   <g id="line2d_25">
    <path d="M 148.444375 276.807067 
L 166.749716 276.807067 
" clip-path="url(#p2ad0188eca)" style="fill: none; stroke: #000000; stroke-linecap: square"/>
   </g>
   <g id="line2d_26">
    <path d="M 148.444375 89.237527 
L 166.749716 89.237527 
" clip-path="url(#p2ad0188eca)" style="fill: none; stroke: #000000; stroke-linecap: square"/>
   </g>
   <g id="line2d_27">
    <defs>
     <path id="mca1c6eefd7" d="M 0 0.5 
C 0.132602 0.5 0.25979 0.447317 0.353553 0.353553 
C 0.447317 0.25979 0.5 0.132602 0.5 0 
C 0.5 -0.132602 0.447317 -0.25979 0.353553 -0.353553 
C 0.25979 -0.447317 0.132602 -0.5 0 -0.5 
C -0.132602 -0.5 -0.25979 -0.447317 -0.353553 -0.353553 
C -0.447317 -0.25979 -0.5 -0.132602 -0.5 0 
C -0.5 0.132602 -0.447317 0.25979 -0.353553 0.353553 
C -0.25979 0.447317 -0.132602 0.5 0 0.5 
z
" style="stroke: #000000"/>
    </defs>
    <g clip-path="url(#p2ad0188eca)">
     <use xlink:href="#mca1c6eefd7" x="157.597045" y="279.250297" style="fill-opacity: 0; stroke: #000000"/>
     <use xlink:href="#mca1c6eefd7" x="157.597045" y="277.569785" style="fill-opacity: 0; stroke: #000000"/>
     <use xlink:href="#mca1c6eefd7" x="157.597045" y="280.479729" style="fill-opacity: 0; stroke: #000000"/>
     <use xlink:href="#mca1c6eefd7" x="157.597045" y="278.688115" style="fill-opacity: 0; stroke: #000000"/>
     <use xlink:href="#mca1c6eefd7" x="157.597045" y="277.312051" style="fill-opacity: 0; stroke: #000000"/>
     <use xlink:href="#mca1c6eefd7" x="157.597045" y="277.748881" style="fill-opacity: 0; stroke: #000000"/>
     <use xlink:href="#mca1c6eefd7" x="157.597045" y="277.705284" style="fill-opacity: 0; stroke: #000000"/>
     <use xlink:href="#mca1c6eefd7" x="157.597045" y="279.41364" style="fill-opacity: 0; stroke: #000000"/>
    </g>
   </g>
   <g id="patch_5">
    <path d="M 212.513068 187.064319 
L 249.12375 187.064319 
L 249.12375 128.105114 
L 212.513068 128.105114 
L 212.513068 187.064319 
z
" clip-path="url(#p2ad0188eca)" style="fill: #add8e6; stroke: #000000; stroke-linejoin: miter"/>
   </g>
   <g id="line2d_28">
    <path d="M 230.818409 187.064319 
L 230.818409 275.46225 
" clip-path="url(#p2ad0188eca)" style="fill: none; stroke: #000000; stroke-linecap: square"/>
   </g>
   <g id="line2d_29">
    <path d="M 230.818409 128.105114 
L 230.818409 88.82427 
" clip-path="url(#p2ad0188eca)" style="fill: none; stroke: #000000; stroke-linecap: square"/>
   </g>
   <g id="line2d_30">
    <path d="M 221.665739 275.46225 
L 239.97108 275.46225 
" clip-path="url(#p2ad0188eca)" style="fill: none; stroke: #000000; stroke-linecap: square"/>
   </g>
   <g id="line2d_31">
    <path d="M 221.665739 88.82427 
L 239.97108 88.82427 
" clip-path="url(#p2ad0188eca)" style="fill: none; stroke: #000000; stroke-linecap: square"/>
   </g>
   <g id="line2d_32">
    <g clip-path="url(#p2ad0188eca)">
     <use xlink:href="#mca1c6eefd7" x="230.818409" y="278.049783" style="fill-opacity: 0; stroke: #000000"/>
     <use xlink:href="#mca1c6eefd7" x="230.818409" y="278.590409" style="fill-opacity: 0; stroke: #000000"/>
     <use xlink:href="#mca1c6eefd7" x="230.818409" y="277.347356" style="fill-opacity: 0; stroke: #000000"/>
     <use xlink:href="#mca1c6eefd7" x="230.818409" y="277.028623" style="fill-opacity: 0; stroke: #000000"/>
     <use xlink:href="#mca1c6eefd7" x="230.818409" y="281.01282" style="fill-opacity: 0; stroke: #000000"/>
     <use xlink:href="#mca1c6eefd7" x="230.818409" y="280.92627" style="fill-opacity: 0; stroke: #000000"/>
     <use xlink:href="#mca1c6eefd7" x="230.818409" y="280.927432" style="fill-opacity: 0; stroke: #000000"/>
     <use xlink:href="#mca1c6eefd7" x="230.818409" y="276.299558" style="fill-opacity: 0; stroke: #000000"/>
     <use xlink:href="#mca1c6eefd7" x="230.818409" y="276.027717" style="fill-opacity: 0; stroke: #000000"/>
     <use xlink:href="#mca1c6eefd7" x="230.818409" y="275.961107" style="fill-opacity: 0; stroke: #000000"/>
     <use xlink:href="#mca1c6eefd7" x="230.818409" y="275.961107" style="fill-opacity: 0; stroke: #000000"/>
     <use xlink:href="#mca1c6eefd7" x="230.818409" y="277.768497" style="fill-opacity: 0; stroke: #000000"/>
     <use xlink:href="#mca1c6eefd7" x="230.818409" y="276.018126" style="fill-opacity: 0; stroke: #000000"/>
     <use xlink:href="#mca1c6eefd7" x="230.818409" y="278.70175" style="fill-opacity: 0; stroke: #000000"/>
    </g>
   </g>
   <g id="patch_6">
    <path d="M 285.734432 216.582885 
L 322.345114 216.582885 
L 322.345114 142.605158 
L 285.734432 142.605158 
L 285.734432 216.582885 
z
" clip-path="url(#p2ad0188eca)" style="fill: #add8e6; stroke: #000000; stroke-linejoin: miter"/>
   </g>
   <g id="line2d_33">
    <path d="M 304.039773 216.582885 
L 304.039773 282.763976 
" clip-path="url(#p2ad0188eca)" style="fill: none; stroke: #000000; stroke-linecap: square"/>
   </g>
   <g id="line2d_34">
    <path d="M 304.039773 142.605158 
L 304.039773 105.731907 
" clip-path="url(#p2ad0188eca)" style="fill: none; stroke: #000000; stroke-linecap: square"/>
   </g>
   <g id="line2d_35">
    <path d="M 294.887102 282.763976 
L 313.192443 282.763976 
" clip-path="url(#p2ad0188eca)" style="fill: none; stroke: #000000; stroke-linecap: square"/>
   </g>
   <g id="line2d_36">
    <path d="M 294.887102 105.731907 
L 313.192443 105.731907 
" clip-path="url(#p2ad0188eca)" style="fill: none; stroke: #000000; stroke-linecap: square"/>
   </g>
   <g id="line2d_37"/>
   <g id="patch_7">
    <path d="M 358.955795 204.717624 
L 395.566477 204.717624 
L 395.566477 134.916904 
L 358.955795 134.916904 
L 358.955795 204.717624 
z
" clip-path="url(#p2ad0188eca)" style="fill: #add8e6; stroke: #000000; stroke-linejoin: miter"/>
   </g>
   <g id="line2d_38">
    <path d="M 377.261136 204.717624 
L 377.261136 285.457845 
" clip-path="url(#p2ad0188eca)" style="fill: none; stroke: #000000; stroke-linecap: square"/>
   </g>
   <g id="line2d_39">
    <path d="M 377.261136 134.916904 
L 377.261136 90.190747 
" clip-path="url(#p2ad0188eca)" style="fill: none; stroke: #000000; stroke-linecap: square"/>
   </g>
   <g id="line2d_40">
    <path d="M 368.108466 285.457845 
L 386.413807 285.457845 
" clip-path="url(#p2ad0188eca)" style="fill: none; stroke: #000000; stroke-linecap: square"/>
   </g>
   <g id="line2d_41">
    <path d="M 368.108466 90.190747 
L 386.413807 90.190747 
" clip-path="url(#p2ad0188eca)" style="fill: none; stroke: #000000; stroke-linecap: square"/>
   </g>
   <g id="line2d_42"/>
   <g id="patch_8">
    <path d="M 432.177159 214.961695 
L 468.787841 214.961695 
L 468.787841 136.958484 
L 432.177159 136.958484 
L 432.177159 214.961695 
z
" clip-path="url(#p2ad0188eca)" style="fill: #add8e6; stroke: #000000; stroke-linejoin: miter"/>
   </g>
   <g id="line2d_43">
    <path d="M 450.4825 214.961695 
L 450.4825 292.935476 
" clip-path="url(#p2ad0188eca)" style="fill: none; stroke: #000000; stroke-linecap: square"/>
   </g>
   <g id="line2d_44">
    <path d="M 450.4825 136.958484 
L 450.4825 102.747764 
" clip-path="url(#p2ad0188eca)" style="fill: none; stroke: #000000; stroke-linecap: square"/>
   </g>
   <g id="line2d_45">
    <path d="M 441.32983 292.935476 
L 459.63517 292.935476 
" clip-path="url(#p2ad0188eca)" style="fill: none; stroke: #000000; stroke-linecap: square"/>
   </g>
   <g id="line2d_46">
    <path d="M 441.32983 102.747764 
L 459.63517 102.747764 
" clip-path="url(#p2ad0188eca)" style="fill: none; stroke: #000000; stroke-linecap: square"/>
   </g>
   <g id="line2d_47"/>
   <g id="patch_9">
    <path d="M 505.398523 212.504136 
L 542.009205 212.504136 
L 542.009205 138.252425 
L 505.398523 138.252425 
L 505.398523 212.504136 
z
" clip-path="url(#p2ad0188eca)" style="fill: #add8e6; stroke: #000000; stroke-linejoin: miter"/>
   </g>
   <g id="line2d_48">
    <path d="M 523.703864 212.504136 
L 523.703864 293.907393 
" clip-path="url(#p2ad0188eca)" style="fill: none; stroke: #000000; stroke-linecap: square"/>
   </g>
   <g id="line2d_49">
    <path d="M 523.703864 138.252425 
L 523.703864 103.494911 
" clip-path="url(#p2ad0188eca)" style="fill: none; stroke: #000000; stroke-linecap: square"/>
   </g>
   <g id="line2d_50">
    <path d="M 514.551193 293.907393 
L 532.856534 293.907393 
" clip-path="url(#p2ad0188eca)" style="fill: none; stroke: #000000; stroke-linecap: square"/>
   </g>
   <g id="line2d_51">
    <path d="M 514.551193 103.494911 
L 532.856534 103.494911 
" clip-path="url(#p2ad0188eca)" style="fill: none; stroke: #000000; stroke-linecap: square"/>
   </g>
   <g id="line2d_52"/>
   <g id="patch_10">
    <path d="M 578.619886 206.100825 
L 615.230568 206.100825 
L 615.230568 141.730837 
L 578.619886 141.730837 
L 578.619886 206.100825 
z
" clip-path="url(#p2ad0188eca)" style="fill: #add8e6; stroke: #000000; stroke-linejoin: miter"/>
   </g>
   <g id="line2d_53">
    <path d="M 596.925227 206.100825 
L 596.925227 293.213715 
" clip-path="url(#p2ad0188eca)" style="fill: none; stroke: #000000; stroke-linecap: square"/>
   </g>
   <g id="line2d_54">
    <path d="M 596.925227 141.730837 
L 596.925227 95.897996 
" clip-path="url(#p2ad0188eca)" style="fill: none; stroke: #000000; stroke-linecap: square"/>
   </g>
   <g id="line2d_55">
    <path d="M 587.772557 293.213715 
L 606.077898 293.213715 
" clip-path="url(#p2ad0188eca)" style="fill: none; stroke: #000000; stroke-linecap: square"/>
   </g>
   <g id="line2d_56">
    <path d="M 587.772557 95.897996 
L 606.077898 95.897996 
" clip-path="url(#p2ad0188eca)" style="fill: none; stroke: #000000; stroke-linecap: square"/>
   </g>
   <g id="line2d_57"/>
   <g id="patch_11">
    <path d="M 651.84125 204.052732 
L 688.451932 204.052732 
L 688.451932 137.789983 
L 651.84125 137.789983 
L 651.84125 204.052732 
z
" clip-path="url(#p2ad0188eca)" style="fill: #add8e6; stroke: #000000; stroke-linejoin: miter"/>
   </g>
   <g id="line2d_58">
    <path d="M 670.146591 204.052732 
L 670.146591 291.160297 
" clip-path="url(#p2ad0188eca)" style="fill: none; stroke: #000000; stroke-linecap: square"/>
   </g>
   <g id="line2d_59">
    <path d="M 670.146591 137.789983 
L 670.146591 95.772307 
" clip-path="url(#p2ad0188eca)" style="fill: none; stroke: #000000; stroke-linecap: square"/>
   </g>
   <g id="line2d_60">
    <path d="M 660.99392 291.160297 
L 679.299261 291.160297 
" clip-path="url(#p2ad0188eca)" style="fill: none; stroke: #000000; stroke-linecap: square"/>
   </g>
   <g id="line2d_61">
    <path d="M 660.99392 95.772307 
L 679.299261 95.772307 
" clip-path="url(#p2ad0188eca)" style="fill: none; stroke: #000000; stroke-linecap: square"/>
   </g>
   <g id="line2d_62"/>
   <g id="patch_12">
    <path d="M 725.062614 209.509366 
L 761.673295 209.509366 
L 761.673295 143.69654 
L 725.062614 143.69654 
L 725.062614 209.509366 
z
" clip-path="url(#p2ad0188eca)" style="fill: #add8e6; stroke: #000000; stroke-linejoin: miter"/>
   </g>
   <g id="line2d_63">
    <path d="M 743.367955 209.509366 
L 743.367955 285.08303 
" clip-path="url(#p2ad0188eca)" style="fill: none; stroke: #000000; stroke-linecap: square"/>
   </g>
   <g id="line2d_64">
    <path d="M 743.367955 143.69654 
L 743.367955 108.648157 
" clip-path="url(#p2ad0188eca)" style="fill: none; stroke: #000000; stroke-linecap: square"/>
   </g>
   <g id="line2d_65">
    <path d="M 734.215284 285.08303 
L 752.520625 285.08303 
" clip-path="url(#p2ad0188eca)" style="fill: none; stroke: #000000; stroke-linecap: square"/>
   </g>
   <g id="line2d_66">
    <path d="M 734.215284 108.648157 
L 752.520625 108.648157 
" clip-path="url(#p2ad0188eca)" style="fill: none; stroke: #000000; stroke-linecap: square"/>
   </g>
   <g id="line2d_67"/>
   <g id="patch_13">
    <path d="M 798.283977 321.328773 
L 834.894659 321.328773 
L 834.894659 223.092801 
L 798.283977 223.092801 
L 798.283977 321.328773 
z
" clip-path="url(#p2ad0188eca)" style="fill: #add8e6; stroke: #000000; stroke-linejoin: miter"/>
   </g>
   <g id="line2d_68">
    <path d="M 816.589318 321.328773 
L 816.589318 422.320531 
" clip-path="url(#p2ad0188eca)" style="fill: none; stroke: #000000; stroke-linecap: square"/>
   </g>
   <g id="line2d_69">
    <path d="M 816.589318 223.092801 
L 816.589318 136.69192 
" clip-path="url(#p2ad0188eca)" style="fill: none; stroke: #000000; stroke-linecap: square"/>
   </g>
   <g id="line2d_70">
    <path d="M 807.436648 422.320531 
L 825.741989 422.320531 
" clip-path="url(#p2ad0188eca)" style="fill: none; stroke: #000000; stroke-linecap: square"/>
   </g>
   <g id="line2d_71">
    <path d="M 807.436648 136.69192 
L 825.741989 136.69192 
" clip-path="url(#p2ad0188eca)" style="fill: none; stroke: #000000; stroke-linecap: square"/>
   </g>
   <g id="line2d_72"/>
   <g id="line2d_73">
    <path d="M 66.070341 146.528299 
L 102.681023 146.528299 
" clip-path="url(#p2ad0188eca)" style="fill: none; stroke: #ffa500; stroke-linecap: square"/>
   </g>
   <g id="line2d_74">
    <path d="M 139.291705 147.24679 
L 175.902386 147.24679 
" clip-path="url(#p2ad0188eca)" style="fill: none; stroke: #ffa500; stroke-linecap: square"/>
   </g>
   <g id="line2d_75">
    <path d="M 212.513068 149.017125 
L 249.12375 149.017125 
" clip-path="url(#p2ad0188eca)" style="fill: none; stroke: #ffa500; stroke-linecap: square"/>
   </g>
   <g id="line2d_76">
    <path d="M 285.734432 159.806346 
L 322.345114 159.806346 
" clip-path="url(#p2ad0188eca)" style="fill: none; stroke: #ffa500; stroke-linecap: square"/>
   </g>
   <g id="line2d_77">
    <path d="M 358.955795 164.467848 
L 395.566477 164.467848 
" clip-path="url(#p2ad0188eca)" style="fill: none; stroke: #ffa500; stroke-linecap: square"/>
   </g>
   <g id="line2d_78">
    <path d="M 432.177159 168.228588 
L 468.787841 168.228588 
" clip-path="url(#p2ad0188eca)" style="fill: none; stroke: #ffa500; stroke-linecap: square"/>
   </g>
   <g id="line2d_79">
    <path d="M 505.398523 168.629473 
L 542.009205 168.629473 
" clip-path="url(#p2ad0188eca)" style="fill: none; stroke: #ffa500; stroke-linecap: square"/>
   </g>
   <g id="line2d_80">
    <path d="M 578.619886 169.543675 
L 615.230568 169.543675 
" clip-path="url(#p2ad0188eca)" style="fill: none; stroke: #ffa500; stroke-linecap: square"/>
   </g>
   <g id="line2d_81">
    <path d="M 651.84125 169.904944 
L 688.451932 169.904944 
" clip-path="url(#p2ad0188eca)" style="fill: none; stroke: #ffa500; stroke-linecap: square"/>
   </g>
   <g id="line2d_82">
    <path d="M 725.062614 171.816283 
L 761.673295 171.816283 
" clip-path="url(#p2ad0188eca)" style="fill: none; stroke: #ffa500; stroke-linecap: square"/>
   </g>
   <g id="line2d_83">
    <path d="M 798.283977 277.98909 
L 834.894659 277.98909 
" clip-path="url(#p2ad0188eca)" style="fill: none; stroke: #ffa500; stroke-linecap: square"/>
   </g>
   <g id="patch_14">
    <path d="M 47.765 520.99 
L 47.765 26.16 
" style="fill: none; stroke: #000000; stroke-width: 0.8; stroke-linejoin: miter; stroke-linecap: square"/>
   </g>
   <g id="patch_15">
    <path d="M 853.2 520.99 
L 853.2 26.16 
" style="fill: none; stroke: #000000; stroke-width: 0.8; stroke-linejoin: miter; stroke-linecap: square"/>
   </g>
   <g id="patch_16">
    <path d="M 47.765 520.99 
L 853.2 520.99 
" style="fill: none; stroke: #000000; stroke-width: 0.8; stroke-linejoin: miter; stroke-linecap: square"/>
   </g>
   <g id="patch_17">
    <path d="M 47.765 26.16 
L 853.2 26.16 
" style="fill: none; stroke: #000000; stroke-width: 0.8; stroke-linejoin: miter; stroke-linecap: square"/>
   </g>
   <g id="text_20">
    <!-- Aggregated ARI Scores by Method Across All Resolutions -->
    <g transform="translate(280.747187 20.16) scale(0.12 -0.12)">
     <defs>
      <path id="DejaVuSans-79" d="M 2059 -325 
Q 1816 -950 1584 -1140 
Q 1353 -1331 966 -1331 
L 506 -1331 
L 506 -850 
L 844 -850 
Q 1081 -850 1212 -737 
Q 1344 -625 1503 -206 
L 1606 56 
L 191 3500 
L 800 3500 
L 1894 763 
L 2988 3500 
L 3597 3500 
L 2059 -325 
z
" transform="scale(0.015625)"/>
     </defs>
     <use xlink:href="#DejaVuSans-41"/>
     <use xlink:href="#DejaVuSans-67" x="68.408203"/>
     <use xlink:href="#DejaVuSans-67" x="131.884766"/>
     <use xlink:href="#DejaVuSans-72" x="195.361328"/>
     <use xlink:href="#DejaVuSans-65" x="234.224609"/>
     <use xlink:href="#DejaVuSans-67" x="295.748047"/>
     <use xlink:href="#DejaVuSans-61" x="359.224609"/>
     <use xlink:href="#DejaVuSans-74" x="420.503906"/>
     <use xlink:href="#DejaVuSans-65" x="459.712891"/>
     <use xlink:href="#DejaVuSans-64" x="521.236328"/>
     <use xlink:href="#DejaVuSans-20" x="584.712891"/>
     <use xlink:href="#DejaVuSans-41" x="616.5"/>
     <use xlink:href="#DejaVuSans-52" x="684.908203"/>
     <use xlink:href="#DejaVuSans-49" x="754.390625"/>
     <use xlink:href="#DejaVuSans-20" x="783.882812"/>
     <use xlink:href="#DejaVuSans-53" x="815.669922"/>
     <use xlink:href="#DejaVuSans-63" x="879.146484"/>
     <use xlink:href="#DejaVuSans-6f" x="934.126953"/>
     <use xlink:href="#DejaVuSans-72" x="995.308594"/>
     <use xlink:href="#DejaVuSans-65" x="1034.171875"/>
     <use xlink:href="#DejaVuSans-73" x="1095.695312"/>
     <use xlink:href="#DejaVuSans-20" x="1147.794922"/>
     <use xlink:href="#DejaVuSans-62" x="1179.582031"/>
     <use xlink:href="#DejaVuSans-79" x="1243.058594"/>
     <use xlink:href="#DejaVuSans-20" x="1302.238281"/>
     <use xlink:href="#DejaVuSans-4d" x="1334.025391"/>
     <use xlink:href="#DejaVuSans-65" x="1420.304688"/>
     <use xlink:href="#DejaVuSans-74" x="1481.828125"/>
     <use xlink:href="#DejaVuSans-68" x="1521.037109"/>
     <use xlink:href="#DejaVuSans-6f" x="1584.416016"/>
     <use xlink:href="#DejaVuSans-64" x="1645.597656"/>
     <use xlink:href="#DejaVuSans-20" x="1709.074219"/>
     <use xlink:href="#DejaVuSans-41" x="1740.861328"/>
     <use xlink:href="#DejaVuSans-63" x="1807.519531"/>
     <use xlink:href="#DejaVuSans-72" x="1862.5"/>
     <use xlink:href="#DejaVuSans-6f" x="1901.363281"/>
     <use xlink:href="#DejaVuSans-73" x="1962.544922"/>
     <use xlink:href="#DejaVuSans-73" x="2014.644531"/>
     <use xlink:href="#DejaVuSans-20" x="2066.744141"/>
     <use xlink:href="#DejaVuSans-41" x="2098.53125"/>
     <use xlink:href="#DejaVuSans-6c" x="2166.939453"/>
     <use xlink:href="#DejaVuSans-6c" x="2194.722656"/>
     <use xlink:href="#DejaVuSans-20" x="2222.505859"/>
     <use xlink:href="#DejaVuSans-52" x="2254.292969"/>
     <use xlink:href="#DejaVuSans-65" x="2319.275391"/>
     <use xlink:href="#DejaVuSans-73" x="2380.798828"/>
     <use xlink:href="#DejaVuSans-6f" x="2432.898438"/>
     <use xlink:href="#DejaVuSans-6c" x="2494.080078"/>
     <use xlink:href="#DejaVuSans-75" x="2521.863281"/>
     <use xlink:href="#DejaVuSans-74" x="2585.242188"/>
     <use xlink:href="#DejaVuSans-69" x="2624.451172"/>
     <use xlink:href="#DejaVuSans-6f" x="2652.234375"/>
     <use xlink:href="#DejaVuSans-6e" x="2713.416016"/>
     <use xlink:href="#DejaVuSans-73" x="2776.794922"/>
    </g>
   </g>
  </g>
 </g>
 <defs>
  <clipPath id="p2ad0188eca">
   <rect x="47.765" y="26.16" width="805.435" height="494.83"/>
  </clipPath>
 </defs>
</svg>
