<?xml version="1.0" encoding="utf-8" standalone="no"?>
<!DOCTYPE svg PUBLIC "-//W3C//DTD SVG 1.1//EN"
  "http://www.w3.org/Graphics/SVG/1.1/DTD/svg11.dtd">
<svg xmlns:xlink="http://www.w3.org/1999/xlink" width="1080pt" height="648pt" viewBox="0 0 1080 648" xmlns="http://www.w3.org/2000/svg" version="1.1">
 <metadata>
  <rdf:RDF xmlns:dc="http://purl.org/dc/elements/1.1/" xmlns:cc="http://creativecommons.org/ns#" xmlns:rdf="http://www.w3.org/1999/02/22-rdf-syntax-ns#">
   <cc:Work>
    <dc:type rdf:resource="http://purl.org/dc/dcmitype/StillImage"/>
    <dc:date>2024-04-05T00:00:11.401748</dc:date>
    <dc:format>image/svg+xml</dc:format>
    <dc:creator>
     <cc:Agent>
      <dc:title>Matplotlib v3.7.2, https://matplotlib.org/</dc:title>
     </cc:Agent>
    </dc:creator>
   </cc:Work>
  </rdf:RDF>
 </metadata>
 <defs>
  <style type="text/css">*{stroke-linejoin: round; stroke-linecap: butt}</style>
 </defs>
 <g id="figure_1">
  <g id="patch_1">
   <path d="M 0 648 
L 1080 648 
L 1080 0 
L 0 0 
z
" style="fill: #ffffff"/>
  </g>
  <g id="axes_1">
   <g id="patch_2">
    <path d="M 47.765 606.04 
L 933.07 606.04 
L 933.07 30.748 
L 47.765 30.748 
z
" style="fill: #ffffff"/>
   </g>
   <g id="PolyCollection_1">
    <defs>
     <path id="m2e0b629071" d="M 47.765 -493.94031 
L 47.765 -486.832601 
L 65.4711 -490.908542 
L 83.1772 -488.461997 
L 100.8833 -492.417659 
L 118.5894 -495.142829 
L 136.2955 -495.67967 
L 154.0016 -497.38504 
L 171.7077 -498.370078 
L 189.4138 -501.375961 
L 207.1199 -498.227989 
L 224.826 -504.213526 
L 242.5321 -504.49007 
L 260.2382 -504.513893 
L 277.9443 -511.292293 
L 295.6504 -510.249046 
L 313.3565 -511.917328 
L 331.0626 -512.641179 
L 348.7687 -514.330811 
L 366.4748 -515.694509 
L 384.1809 -517.03786 
L 401.887 -520.741042 
L 419.5931 -523.222721 
L 437.2992 -526.910741 
L 455.0053 -526.535448 
L 472.7114 -528.390357 
L 490.4175 -531.286016 
L 508.1236 -530.713924 
L 525.8297 -534.408377 
L 543.5358 -536.674919 
L 561.2419 -534.095625 
L 578.948 -538.362754 
L 596.6541 -542.240087 
L 614.3602 -544.120883 
L 632.0663 -541.172684 
L 649.7724 -546.167815 
L 667.4785 -544.71981 
L 685.1846 -548.597361 
L 702.8907 -549.268703 
L 720.5968 -547.346972 
L 738.3029 -550.292411 
L 756.009 -551.89531 
L 773.7151 -550.89935 
L 791.4212 -554.09127 
L 809.1273 -556.9803 
L 826.8334 -557.036399 
L 844.5395 -558.396104 
L 862.2456 -563.347055 
L 879.9517 -560.59872 
L 897.6578 -564.530492 
L 915.3639 -566.605084 
L 933.07 -566.557722 
L 933.07 -570.423408 
L 933.07 -570.423408 
L 915.3639 -574.227655 
L 897.6578 -570.110924 
L 879.9517 -569.388953 
L 862.2456 -570.054681 
L 844.5395 -566.816825 
L 826.8334 -564.573257 
L 809.1273 -566.096044 
L 791.4212 -563.696087 
L 773.7151 -561.225509 
L 756.009 -560.432994 
L 738.3029 -556.871014 
L 720.5968 -555.62694 
L 702.8907 -555.824996 
L 685.1846 -554.002078 
L 667.4785 -554.213255 
L 649.7724 -554.685853 
L 632.0663 -549.688236 
L 614.3602 -553.32646 
L 596.6541 -552.821187 
L 578.948 -545.984027 
L 561.2419 -542.711548 
L 543.5358 -544.011841 
L 525.8297 -541.344524 
L 508.1236 -540.546129 
L 490.4175 -541.881327 
L 472.7114 -537.681419 
L 455.0053 -538.110413 
L 437.2992 -533.28363 
L 419.5931 -531.366724 
L 401.887 -529.702609 
L 384.1809 -528.114528 
L 366.4748 -526.762325 
L 348.7687 -521.501376 
L 331.0626 -524.328356 
L 313.3565 -519.469054 
L 295.6504 -517.033264 
L 277.9443 -517.540056 
L 260.2382 -510.78353 
L 242.5321 -510.481231 
L 224.826 -508.328694 
L 207.1199 -506.135472 
L 189.4138 -507.856611 
L 171.7077 -502.627695 
L 154.0016 -504.195989 
L 136.2955 -500.881475 
L 118.5894 -501.859502 
L 100.8833 -497.532554 
L 83.1772 -498.255363 
L 65.4711 -501.979641 
L 47.765 -493.94031 
z
" style="stroke: #1f77b4; stroke-opacity: 0.2"/>
    </defs>
    <g clip-path="url(#pda18a1dd45)">
     <use xlink:href="#m2e0b629071" x="0" y="648" style="fill: #1f77b4; fill-opacity: 0.2; stroke: #1f77b4; stroke-opacity: 0.2"/>
    </g>
   </g>
   <g id="PolyCollection_2">
    <defs>
     <path id="m1cc6a7a84b" d="M 47.765 -283.633611 
L 47.765 -201.751644 
L 65.4711 -231.913621 
L 83.1772 -216.636006 
L 100.8833 -214.475142 
L 118.5894 -217.357992 
L 136.2955 -242.680709 
L 154.0016 -233.88361 
L 171.7077 -238.542159 
L 189.4138 -254.091617 
L 207.1199 -252.947343 
L 224.826 -227.452275 
L 242.5321 -261.582276 
L 260.2382 -263.845121 
L 277.9443 -258.754455 
L 295.6504 -268.969473 
L 313.3565 -266.769223 
L 331.0626 -288.668867 
L 348.7687 -269.706105 
L 366.4748 -297.76563 
L 384.1809 -272.363653 
L 401.887 -293.853949 
L 419.5931 -280.903914 
L 437.2992 -315.177229 
L 455.0053 -278.730975 
L 472.7114 -276.609927 
L 490.4175 -296.436479 
L 508.1236 -311.68433 
L 525.8297 -279.44713 
L 543.5358 -295.165499 
L 561.2419 -288.117682 
L 578.948 -311.182819 
L 596.6541 -314.698514 
L 614.3602 -327.681717 
L 632.0663 -324.498747 
L 649.7724 -322.424611 
L 667.4785 -318.245663 
L 685.1846 -318.040578 
L 702.8907 -284.955958 
L 720.5968 -325.703312 
L 738.3029 -359.285707 
L 756.009 -337.024164 
L 773.7151 -310.841791 
L 791.4212 -347.41808 
L 809.1273 -328.253338 
L 826.8334 -322.369268 
L 844.5395 -327.893591 
L 862.2456 -357.238594 
L 879.9517 -326.859668 
L 897.6578 -334.273092 
L 915.3639 -395.290764 
L 933.07 -347.792735 
L 933.07 -419.578222 
L 933.07 -419.578222 
L 915.3639 -465.432985 
L 897.6578 -414.802004 
L 879.9517 -452.280375 
L 862.2456 -425.066922 
L 844.5395 -416.386097 
L 826.8334 -410.002073 
L 809.1273 -410.925675 
L 791.4212 -382.486491 
L 773.7151 -390.692372 
L 756.009 -422.650532 
L 738.3029 -423.370853 
L 720.5968 -414.612784 
L 702.8907 -384.54171 
L 685.1846 -398.001618 
L 667.4785 -363.671874 
L 649.7724 -404.946903 
L 632.0663 -393.806372 
L 614.3602 -402.6328 
L 596.6541 -386.490947 
L 578.948 -386.769777 
L 561.2419 -398.070407 
L 543.5358 -372.73192 
L 525.8297 -365.633448 
L 508.1236 -373.726627 
L 490.4175 -361.123663 
L 472.7114 -352.493492 
L 455.0053 -326.357524 
L 437.2992 -412.400449 
L 419.5931 -374.949576 
L 401.887 -353.868653 
L 384.1809 -351.143836 
L 366.4748 -334.350648 
L 348.7687 -330.397884 
L 331.0626 -338.425621 
L 313.3565 -348.122837 
L 295.6504 -347.453382 
L 277.9443 -332.356814 
L 260.2382 -364.056116 
L 242.5321 -322.149229 
L 224.826 -318.937711 
L 207.1199 -334.721214 
L 189.4138 -327.714469 
L 171.7077 -320.825247 
L 154.0016 -319.327194 
L 136.2955 -313.447057 
L 118.5894 -274.757049 
L 100.8833 -312.05963 
L 83.1772 -263.431141 
L 65.4711 -309.841976 
L 47.765 -283.633611 
z
" style="stroke: #ff7f0e; stroke-opacity: 0.2"/>
    </defs>
    <g clip-path="url(#pda18a1dd45)">
     <use xlink:href="#m1cc6a7a84b" x="0" y="648" style="fill: #ff7f0e; fill-opacity: 0.2; stroke: #ff7f0e; stroke-opacity: 0.2"/>
    </g>
   </g>
   <g id="PolyCollection_3">
    <defs>
     <path id="m429aeabe48" d="M 47.765 -497.871625 
L 47.765 -456.329407 
L 65.4711 -470.065363 
L 83.1772 -472.817581 
L 100.8833 -476.967005 
L 118.5894 -493.767795 
L 136.2955 -480.024253 
L 154.0016 -474.783725 
L 171.7077 -478.190058 
L 189.4138 -487.768758 
L 207.1199 -507.08986 
L 224.826 -510.44626 
L 242.5321 -509.240793 
L 260.2382 -509.470068 
L 277.9443 -508.728695 
L 295.6504 -511.047594 
L 313.3565 -511.491634 
L 331.0626 -515.28079 
L 348.7687 -519.144693 
L 366.4748 -516.813675 
L 384.1809 -513.820306 
L 401.887 -513.50462 
L 419.5931 -514.477558 
L 437.2992 -513.566929 
L 455.0053 -503.262501 
L 472.7114 -531.0047 
L 490.4175 -514.42488 
L 508.1236 -533.351037 
L 525.8297 -539.623595 
L 543.5358 -523.149734 
L 561.2419 -529.170389 
L 578.948 -523.884969 
L 596.6541 -518.310916 
L 614.3602 -519.336515 
L 632.0663 -522.597859 
L 649.7724 -517.340035 
L 667.4785 -517.45637 
L 685.1846 -507.602649 
L 702.8907 -509.203868 
L 720.5968 -521.753018 
L 738.3029 -528.577943 
L 756.009 -510.588935 
L 773.7151 -508.899412 
L 791.4212 -513.790221 
L 809.1273 -509.386274 
L 826.8334 -500.60377 
L 844.5395 -505.308127 
L 862.2456 -524.493563 
L 879.9517 -535.661478 
L 897.6578 -523.662034 
L 915.3639 -517.262546 
L 933.07 -540.192224 
L 933.07 -590.981511 
L 933.07 -590.981511 
L 915.3639 -585.049561 
L 897.6578 -582.592626 
L 879.9517 -586.487656 
L 862.2456 -580.220224 
L 844.5395 -561.754146 
L 826.8334 -559.289884 
L 809.1273 -567.885745 
L 791.4212 -565.199815 
L 773.7151 -559.792042 
L 756.009 -563.948325 
L 738.3029 -566.204463 
L 720.5968 -569.905368 
L 702.8907 -560.514518 
L 685.1846 -558.560345 
L 667.4785 -562.07946 
L 649.7724 -561.100577 
L 632.0663 -561.263816 
L 614.3602 -561.214958 
L 596.6541 -563.464659 
L 578.948 -565.111882 
L 561.2419 -561.504936 
L 543.5358 -566.336946 
L 525.8297 -556.457856 
L 508.1236 -558.286614 
L 490.4175 -558.546295 
L 472.7114 -551.235034 
L 455.0053 -552.231907 
L 437.2992 -550.299909 
L 419.5931 -552.899974 
L 401.887 -546.253083 
L 384.1809 -543.144147 
L 366.4748 -535.950751 
L 348.7687 -533.760667 
L 331.0626 -531.883226 
L 313.3565 -532.1286 
L 295.6504 -529.482031 
L 277.9443 -528.739673 
L 260.2382 -525.593128 
L 242.5321 -523.184485 
L 224.826 -522.281487 
L 207.1199 -519.321886 
L 189.4138 -525.491439 
L 171.7077 -520.677441 
L 154.0016 -519.089272 
L 136.2955 -515.93096 
L 118.5894 -505.067423 
L 100.8833 -503.48056 
L 83.1772 -505.071842 
L 65.4711 -501.963067 
L 47.765 -497.871625 
z
" style="stroke: #2ca02c; stroke-opacity: 0.2"/>
    </defs>
    <g clip-path="url(#pda18a1dd45)">
     <use xlink:href="#m429aeabe48" x="0" y="648" style="fill: #2ca02c; fill-opacity: 0.2; stroke: #2ca02c; stroke-opacity: 0.2"/>
    </g>
   </g>
   <g id="PolyCollection_4">
    <defs>
     <path id="md204db4322" d="M 47.765 -502.434489 
L 47.765 -468.989001 
L 65.4711 -486.282739 
L 83.1772 -488.192421 
L 100.8833 -476.752214 
L 118.5894 -490.715588 
L 136.2955 -497.388931 
L 154.0016 -486.11351 
L 171.7077 -499.014943 
L 189.4138 -500.029899 
L 207.1199 -499.695862 
L 224.826 -499.53047 
L 242.5321 -501.824026 
L 260.2382 -502.089357 
L 277.9443 -507.161999 
L 295.6504 -498.036703 
L 313.3565 -498.841238 
L 331.0626 -499.991516 
L 348.7687 -489.110225 
L 366.4748 -494.834581 
L 384.1809 -506.437622 
L 401.887 -503.802698 
L 419.5931 -499.070064 
L 437.2992 -512.362331 
L 455.0053 -486.954192 
L 472.7114 -491.118275 
L 490.4175 -515.271757 
L 508.1236 -510.030908 
L 525.8297 -503.059131 
L 543.5358 -492.842761 
L 561.2419 -485.273335 
L 578.948 -487.834971 
L 596.6541 -488.796831 
L 614.3602 -481.36198 
L 632.0663 -482.654337 
L 649.7724 -499.569683 
L 667.4785 -499.09501 
L 685.1846 -495.46025 
L 702.8907 -499.047888 
L 720.5968 -506.828048 
L 738.3029 -534.63767 
L 756.009 -522.819494 
L 773.7151 -537.03947 
L 791.4212 -528.140647 
L 809.1273 -540.527489 
L 826.8334 -540.725522 
L 844.5395 -542.800825 
L 862.2456 -543.704856 
L 879.9517 -557.500737 
L 897.6578 -559.756719 
L 915.3639 -563.802611 
L 933.07 -565.468368 
L 933.07 -574.467601 
L 933.07 -574.467601 
L 915.3639 -572.332053 
L 897.6578 -572.535673 
L 879.9517 -567.208795 
L 862.2456 -572.126583 
L 844.5395 -572.842777 
L 826.8334 -571.377886 
L 809.1273 -570.870329 
L 791.4212 -569.800729 
L 773.7151 -565.336149 
L 756.009 -565.198202 
L 738.3029 -563.17829 
L 720.5968 -565.639164 
L 702.8907 -559.909753 
L 685.1846 -551.44993 
L 667.4785 -547.624031 
L 649.7724 -547.222857 
L 632.0663 -534.963095 
L 614.3602 -523.00267 
L 596.6541 -539.718954 
L 578.948 -543.550669 
L 561.2419 -544.625627 
L 543.5358 -547.559723 
L 525.8297 -548.785074 
L 508.1236 -545.852973 
L 490.4175 -545.097584 
L 472.7114 -538.546779 
L 455.0053 -548.862992 
L 437.2992 -535.711377 
L 419.5931 -533.718073 
L 401.887 -534.90007 
L 384.1809 -532.71374 
L 366.4748 -538.151631 
L 348.7687 -532.920216 
L 331.0626 -528.598176 
L 313.3565 -522.542746 
L 295.6504 -523.064062 
L 277.9443 -518.865311 
L 260.2382 -515.414345 
L 242.5321 -514.017882 
L 224.826 -510.91571 
L 207.1199 -510.62696 
L 189.4138 -510.057793 
L 171.7077 -507.686887 
L 154.0016 -515.876444 
L 136.2955 -506.838491 
L 118.5894 -507.534484 
L 100.8833 -504.523453 
L 83.1772 -502.696608 
L 65.4711 -502.47896 
L 47.765 -502.434489 
z
" style="stroke: #d62728; stroke-opacity: 0.2"/>
    </defs>
    <g clip-path="url(#pda18a1dd45)">
     <use xlink:href="#md204db4322" x="0" y="648" style="fill: #d62728; fill-opacity: 0.2; stroke: #d62728; stroke-opacity: 0.2"/>
    </g>
   </g>
   <g id="PolyCollection_5">
    <defs>
     <path id="mab10a8d409" d="M 47.765 -492.288847 
L 47.765 -458.605191 
L 65.4711 -459.641509 
L 83.1772 -469.758525 
L 100.8833 -466.675277 
L 118.5894 -469.336767 
L 136.2955 -466.175028 
L 154.0016 -479.690795 
L 171.7077 -476.805339 
L 189.4138 -477.706538 
L 207.1199 -473.174626 
L 224.826 -477.817067 
L 242.5321 -486.329053 
L 260.2382 -480.268995 
L 277.9443 -485.956631 
L 295.6504 -473.526534 
L 313.3565 -487.124106 
L 331.0626 -471.072124 
L 348.7687 -473.948878 
L 366.4748 -498.156956 
L 384.1809 -499.866738 
L 401.887 -501.308241 
L 419.5931 -506.258794 
L 437.2992 -490.184352 
L 455.0053 -486.22582 
L 472.7114 -481.730853 
L 490.4175 -482.919675 
L 508.1236 -486.526562 
L 525.8297 -493.438922 
L 543.5358 -488.22972 
L 561.2419 -514.802749 
L 578.948 -508.559964 
L 596.6541 -519.33981 
L 614.3602 -507.653427 
L 632.0663 -508.321575 
L 649.7724 -521.830349 
L 667.4785 -506.788777 
L 685.1846 -522.167326 
L 702.8907 -521.383975 
L 720.5968 -512.400394 
L 738.3029 -514.373404 
L 756.009 -515.785783 
L 773.7151 -516.58326 
L 791.4212 -507.514787 
L 809.1273 -520.967046 
L 826.8334 -523.243807 
L 844.5395 -523.512092 
L 862.2456 -524.655141 
L 879.9517 -542.412443 
L 897.6578 -542.866036 
L 915.3639 -544.026417 
L 933.07 -545.554634 
L 933.07 -565.01846 
L 933.07 -565.01846 
L 915.3639 -562.290497 
L 897.6578 -560.910855 
L 879.9517 -559.380864 
L 862.2456 -564.674661 
L 844.5395 -562.304533 
L 826.8334 -556.353292 
L 809.1273 -559.186827 
L 791.4212 -555.419567 
L 773.7151 -552.412383 
L 756.009 -550.203606 
L 738.3029 -548.440768 
L 720.5968 -547.919691 
L 702.8907 -543.746116 
L 685.1846 -541.617697 
L 667.4785 -542.463322 
L 649.7724 -537.273101 
L 632.0663 -537.603135 
L 614.3602 -535.558836 
L 596.6541 -532.886421 
L 578.948 -538.076678 
L 561.2419 -530.38267 
L 543.5358 -537.417968 
L 525.8297 -537.414364 
L 508.1236 -530.296155 
L 490.4175 -526.147007 
L 472.7114 -525.276528 
L 455.0053 -527.946655 
L 437.2992 -526.077196 
L 419.5931 -518.145073 
L 401.887 -517.732662 
L 384.1809 -515.427159 
L 366.4748 -511.192805 
L 348.7687 -513.639535 
L 331.0626 -509.486702 
L 313.3565 -506.904854 
L 295.6504 -504.436994 
L 277.9443 -503.669134 
L 260.2382 -499.255646 
L 242.5321 -506.694261 
L 224.826 -508.171978 
L 207.1199 -508.764392 
L 189.4138 -504.104657 
L 171.7077 -503.050609 
L 154.0016 -501.906527 
L 136.2955 -497.225085 
L 118.5894 -495.056844 
L 100.8833 -489.385236 
L 83.1772 -492.956353 
L 65.4711 -489.39176 
L 47.765 -492.288847 
z
" style="stroke: #9467bd; stroke-opacity: 0.2"/>
    </defs>
    <g clip-path="url(#pda18a1dd45)">
     <use xlink:href="#mab10a8d409" x="0" y="648" style="fill: #9467bd; fill-opacity: 0.2; stroke: #9467bd; stroke-opacity: 0.2"/>
    </g>
   </g>
   <g id="PolyCollection_6">
    <defs>
     <path id="m6f407701b8" d="M 47.765 -494.533461 
L 47.765 -441.656991 
L 65.4711 -435.394826 
L 83.1772 -445.201381 
L 100.8833 -452.374761 
L 118.5894 -450.671371 
L 136.2955 -467.242623 
L 154.0016 -467.346272 
L 171.7077 -451.243441 
L 189.4138 -446.29064 
L 207.1199 -458.539593 
L 224.826 -471.393611 
L 242.5321 -463.68146 
L 260.2382 -478.813923 
L 277.9443 -477.30714 
L 295.6504 -476.426971 
L 313.3565 -478.699708 
L 331.0626 -492.459107 
L 348.7687 -491.328788 
L 366.4748 -494.933738 
L 384.1809 -492.409082 
L 401.887 -499.211138 
L 419.5931 -507.274215 
L 437.2992 -505.875976 
L 455.0053 -478.57144 
L 472.7114 -499.134237 
L 490.4175 -469.816523 
L 508.1236 -477.925615 
L 525.8297 -489.30741 
L 543.5358 -496.150642 
L 561.2419 -501.23307 
L 578.948 -494.361673 
L 596.6541 -490.502603 
L 614.3602 -486.886386 
L 632.0663 -503.737606 
L 649.7724 -513.92041 
L 667.4785 -517.499604 
L 685.1846 -517.717596 
L 702.8907 -518.820422 
L 720.5968 -518.311829 
L 738.3029 -512.367505 
L 756.009 -518.968936 
L 773.7151 -531.65735 
L 791.4212 -529.086048 
L 809.1273 -521.599669 
L 826.8334 -537.264733 
L 844.5395 -523.799115 
L 862.2456 -528.93794 
L 879.9517 -545.909704 
L 897.6578 -545.943213 
L 915.3639 -547.471797 
L 933.07 -531.672333 
L 933.07 -588.575436 
L 933.07 -588.575436 
L 915.3639 -586.50074 
L 897.6578 -583.547648 
L 879.9517 -582.706783 
L 862.2456 -583.087341 
L 844.5395 -579.773791 
L 826.8334 -579.794206 
L 809.1273 -571.258025 
L 791.4212 -572.780211 
L 773.7151 -571.305875 
L 756.009 -568.896523 
L 738.3029 -570.070666 
L 720.5968 -565.561253 
L 702.8907 -564.017904 
L 685.1846 -567.256829 
L 667.4785 -564.971028 
L 649.7724 -559.282356 
L 632.0663 -557.128015 
L 614.3602 -551.90148 
L 596.6541 -555.983973 
L 578.948 -557.910024 
L 561.2419 -553.191976 
L 543.5358 -553.530586 
L 525.8297 -546.52625 
L 508.1236 -546.148632 
L 490.4175 -541.434774 
L 472.7114 -551.913955 
L 455.0053 -550.255018 
L 437.2992 -544.399932 
L 419.5931 -539.917001 
L 401.887 -537.827846 
L 384.1809 -533.960393 
L 366.4748 -530.239567 
L 348.7687 -522.347358 
L 331.0626 -519.373701 
L 313.3565 -521.989218 
L 295.6504 -520.372746 
L 277.9443 -514.119831 
L 260.2382 -512.311503 
L 242.5321 -512.05581 
L 224.826 -506.885248 
L 207.1199 -506.222529 
L 189.4138 -503.398244 
L 171.7077 -504.014702 
L 154.0016 -502.198938 
L 136.2955 -502.755018 
L 118.5894 -498.169223 
L 100.8833 -499.180693 
L 83.1772 -499.177028 
L 65.4711 -494.051181 
L 47.765 -494.533461 
z
" style="stroke: #8c564b; stroke-opacity: 0.2"/>
    </defs>
    <g clip-path="url(#pda18a1dd45)">
     <use xlink:href="#m6f407701b8" x="0" y="648" style="fill: #8c564b; fill-opacity: 0.2; stroke: #8c564b; stroke-opacity: 0.2"/>
    </g>
   </g>
   <g id="PolyCollection_7">
    <defs>
     <path id="m16729fd289" d="M 47.765 -459.883994 
L 47.765 -446.62955 
L 65.4711 -452.537561 
L 83.1772 -456.450141 
L 100.8833 -451.789869 
L 118.5894 -459.563478 
L 136.2955 -463.051874 
L 154.0016 -474.054607 
L 171.7077 -481.439752 
L 189.4138 -474.798187 
L 207.1199 -485.608472 
L 224.826 -488.053379 
L 242.5321 -478.498208 
L 260.2382 -480.167901 
L 277.9443 -479.647237 
L 295.6504 -480.529589 
L 313.3565 -491.44584 
L 331.0626 -496.098216 
L 348.7687 -498.165761 
L 366.4748 -490.565085 
L 384.1809 -488.426751 
L 401.887 -481.33621 
L 419.5931 -488.566015 
L 437.2992 -486.986235 
L 455.0053 -486.43835 
L 472.7114 -482.625283 
L 490.4175 -489.836137 
L 508.1236 -479.799235 
L 525.8297 -477.550838 
L 543.5358 -486.252117 
L 561.2419 -494.65124 
L 578.948 -495.355134 
L 596.6541 -489.527743 
L 614.3602 -490.370668 
L 632.0663 -511.267141 
L 649.7724 -506.104934 
L 667.4785 -505.689199 
L 685.1846 -518.987427 
L 702.8907 -521.937908 
L 720.5968 -536.317652 
L 738.3029 -530.241504 
L 756.009 -530.642197 
L 773.7151 -533.370881 
L 791.4212 -533.970399 
L 809.1273 -549.651569 
L 826.8334 -532.258202 
L 844.5395 -522.802329 
L 862.2456 -542.30173 
L 879.9517 -542.813933 
L 897.6578 -531.414274 
L 915.3639 -528.791912 
L 933.07 -527.074864 
L 933.07 -578.106861 
L 933.07 -578.106861 
L 915.3639 -582.36474 
L 897.6578 -579.497973 
L 879.9517 -582.448813 
L 862.2456 -583.558299 
L 844.5395 -580.176371 
L 826.8334 -577.953791 
L 809.1273 -569.49359 
L 791.4212 -574.870786 
L 773.7151 -573.898045 
L 756.009 -571.925962 
L 738.3029 -568.171263 
L 720.5968 -560.870048 
L 702.8907 -565.139327 
L 685.1846 -561.968394 
L 667.4785 -561.589228 
L 649.7724 -558.893389 
L 632.0663 -555.985081 
L 614.3602 -549.69897 
L 596.6541 -547.909094 
L 578.948 -547.775573 
L 561.2419 -545.776604 
L 543.5358 -537.480033 
L 525.8297 -519.207327 
L 508.1236 -528.842789 
L 490.4175 -537.222479 
L 472.7114 -529.028492 
L 455.0053 -531.776095 
L 437.2992 -533.972023 
L 419.5931 -535.029759 
L 401.887 -524.498889 
L 384.1809 -521.903308 
L 366.4748 -512.569091 
L 348.7687 -514.963979 
L 331.0626 -517.748319 
L 313.3565 -511.136181 
L 295.6504 -512.050221 
L 277.9443 -509.744296 
L 260.2382 -506.624308 
L 242.5321 -508.717861 
L 224.826 -504.270312 
L 207.1199 -503.842061 
L 189.4138 -507.906497 
L 171.7077 -499.140276 
L 154.0016 -498.097181 
L 136.2955 -491.107299 
L 118.5894 -483.840749 
L 100.8833 -479.875502 
L 83.1772 -474.12789 
L 65.4711 -469.453787 
L 47.765 -459.883994 
z
" style="stroke: #e377c2; stroke-opacity: 0.2"/>
    </defs>
    <g clip-path="url(#pda18a1dd45)">
     <use xlink:href="#m16729fd289" x="0" y="648" style="fill: #e377c2; fill-opacity: 0.2; stroke: #e377c2; stroke-opacity: 0.2"/>
    </g>
   </g>
   <g id="PolyCollection_8">
    <defs>
     <path id="m3bbb0c8d21" d="M 47.765 -480.834051 
L 47.765 -460.137738 
L 65.4711 -466.180104 
L 83.1772 -468.53966 
L 100.8833 -478.477343 
L 118.5894 -479.714611 
L 136.2955 -474.019944 
L 154.0016 -480.787918 
L 171.7077 -482.351992 
L 189.4138 -484.288869 
L 207.1199 -493.367923 
L 224.826 -495.373535 
L 242.5321 -487.704556 
L 260.2382 -485.71436 
L 277.9443 -493.387701 
L 295.6504 -486.261377 
L 313.3565 -471.333601 
L 331.0626 -468.69766 
L 348.7687 -482.58718 
L 366.4748 -471.670328 
L 384.1809 -469.248866 
L 401.887 -471.072936 
L 419.5931 -475.113639 
L 437.2992 -482.257845 
L 455.0053 -482.826605 
L 472.7114 -487.32944 
L 490.4175 -487.929826 
L 508.1236 -502.760767 
L 525.8297 -495.849608 
L 543.5358 -500.852402 
L 561.2419 -498.771717 
L 578.948 -502.594957 
L 596.6541 -493.591731 
L 614.3602 -501.9983 
L 632.0663 -503.226622 
L 649.7724 -495.115345 
L 667.4785 -504.962274 
L 685.1846 -503.298764 
L 702.8907 -499.750737 
L 720.5968 -499.56866 
L 738.3029 -497.839802 
L 756.009 -527.03006 
L 773.7151 -530.330027 
L 791.4212 -530.548452 
L 809.1273 -528.162908 
L 826.8334 -523.263698 
L 844.5395 -516.805979 
L 862.2456 -529.243267 
L 879.9517 -525.672623 
L 897.6578 -520.138136 
L 915.3639 -524.036657 
L 933.07 -521.452507 
L 933.07 -581.218104 
L 933.07 -581.218104 
L 915.3639 -586.133314 
L 897.6578 -581.612881 
L 879.9517 -575.145925 
L 862.2456 -574.588935 
L 844.5395 -565.118005 
L 826.8334 -568.595672 
L 809.1273 -567.631795 
L 791.4212 -570.543884 
L 773.7151 -570.240136 
L 756.009 -570.771351 
L 738.3029 -571.289697 
L 720.5968 -570.14415 
L 702.8907 -569.959675 
L 685.1846 -570.75386 
L 667.4785 -567.89964 
L 649.7724 -561.944583 
L 632.0663 -554.518033 
L 614.3602 -552.476247 
L 596.6541 -544.215484 
L 578.948 -548.421491 
L 561.2419 -550.450455 
L 543.5358 -550.846959 
L 525.8297 -545.099935 
L 508.1236 -546.961378 
L 490.4175 -538.478242 
L 472.7114 -538.972245 
L 455.0053 -531.907242 
L 437.2992 -533.849253 
L 419.5931 -524.209684 
L 401.887 -517.181535 
L 384.1809 -514.700071 
L 366.4748 -512.756101 
L 348.7687 -518.105966 
L 331.0626 -519.335713 
L 313.3565 -518.544213 
L 295.6504 -512.027579 
L 277.9443 -512.195779 
L 260.2382 -512.123137 
L 242.5321 -512.184701 
L 224.826 -509.102332 
L 207.1199 -506.068121 
L 189.4138 -504.269756 
L 171.7077 -499.618651 
L 154.0016 -496.090757 
L 136.2955 -499.050455 
L 118.5894 -498.732918 
L 100.8833 -498.975947 
L 83.1772 -491.703529 
L 65.4711 -492.31959 
L 47.765 -480.834051 
z
" style="stroke: #7f7f7f; stroke-opacity: 0.2"/>
    </defs>
    <g clip-path="url(#pda18a1dd45)">
     <use xlink:href="#m3bbb0c8d21" x="0" y="648" style="fill: #7f7f7f; fill-opacity: 0.2; stroke: #7f7f7f; stroke-opacity: 0.2"/>
    </g>
   </g>
   <g id="PolyCollection_9">
    <defs>
     <path id="mcadc23b7ac" d="M 47.765 -483.497793 
L 47.765 -471.828747 
L 65.4711 -474.422634 
L 83.1772 -475.261965 
L 100.8833 -459.6742 
L 118.5894 -461.182976 
L 136.2955 -463.451445 
L 154.0016 -465.300957 
L 171.7077 -469.227485 
L 189.4138 -469.347258 
L 207.1199 -478.225272 
L 224.826 -476.365384 
L 242.5321 -479.385514 
L 260.2382 -484.84739 
L 277.9443 -492.968443 
L 295.6504 -493.151127 
L 313.3565 -487.156774 
L 331.0626 -485.946234 
L 348.7687 -499.565349 
L 366.4748 -488.297134 
L 384.1809 -487.027389 
L 401.887 -486.804433 
L 419.5931 -479.757598 
L 437.2992 -480.525754 
L 455.0053 -484.582718 
L 472.7114 -486.381701 
L 490.4175 -491.094778 
L 508.1236 -504.789411 
L 525.8297 -507.500497 
L 543.5358 -510.770939 
L 561.2419 -515.011525 
L 578.948 -521.11483 
L 596.6541 -524.155446 
L 614.3602 -524.601597 
L 632.0663 -536.740065 
L 649.7724 -542.143969 
L 667.4785 -526.334174 
L 685.1846 -536.640416 
L 702.8907 -526.870454 
L 720.5968 -515.955731 
L 738.3029 -507.993479 
L 756.009 -509.458436 
L 773.7151 -505.581748 
L 791.4212 -519.344619 
L 809.1273 -519.984397 
L 826.8334 -514.11579 
L 844.5395 -518.063883 
L 862.2456 -519.06253 
L 879.9517 -529.709225 
L 897.6578 -518.75967 
L 915.3639 -533.858057 
L 933.07 -534.152348 
L 933.07 -596.256465 
L 933.07 -596.256465 
L 915.3639 -597.133465 
L 897.6578 -587.805943 
L 879.9517 -592.139535 
L 862.2456 -587.447686 
L 844.5395 -583.530012 
L 826.8334 -581.334021 
L 809.1273 -585.118252 
L 791.4212 -583.734423 
L 773.7151 -579.191717 
L 756.009 -576.406507 
L 738.3029 -572.98215 
L 720.5968 -576.519905 
L 702.8907 -578.249686 
L 685.1846 -575.208416 
L 667.4785 -571.468617 
L 649.7724 -569.088627 
L 632.0663 -567.937191 
L 614.3602 -570.604911 
L 596.6541 -572.605543 
L 578.948 -569.79032 
L 561.2419 -565.807757 
L 543.5358 -562.493961 
L 525.8297 -558.881061 
L 508.1236 -557.286024 
L 490.4175 -555.382575 
L 472.7114 -549.923474 
L 455.0053 -549.707023 
L 437.2992 -542.256333 
L 419.5931 -543.92097 
L 401.887 -547.16071 
L 384.1809 -545.225951 
L 366.4748 -539.565107 
L 348.7687 -540.208019 
L 331.0626 -533.469653 
L 313.3565 -524.064407 
L 295.6504 -529.265899 
L 277.9443 -522.555746 
L 260.2382 -521.908219 
L 242.5321 -513.646909 
L 224.826 -505.483438 
L 207.1199 -507.753016 
L 189.4138 -499.180687 
L 171.7077 -499.157386 
L 154.0016 -498.032089 
L 136.2955 -493.315776 
L 118.5894 -497.661318 
L 100.8833 -494.536219 
L 83.1772 -488.476014 
L 65.4711 -486.09613 
L 47.765 -483.497793 
z
" style="stroke: #bcbd22; stroke-opacity: 0.2"/>
    </defs>
    <g clip-path="url(#pda18a1dd45)">
     <use xlink:href="#mcadc23b7ac" x="0" y="648" style="fill: #bcbd22; fill-opacity: 0.2; stroke: #bcbd22; stroke-opacity: 0.2"/>
    </g>
   </g>
   <g id="PolyCollection_10">
    <defs>
     <path id="mb1ca9d55fe" d="M 47.765 -495.301751 
L 47.765 -471.904133 
L 65.4711 -476.63187 
L 83.1772 -458.042452 
L 100.8833 -460.134586 
L 118.5894 -461.168836 
L 136.2955 -465.710842 
L 154.0016 -483.382972 
L 171.7077 -478.015144 
L 189.4138 -478.795037 
L 207.1199 -494.214865 
L 224.826 -488.948094 
L 242.5321 -472.958952 
L 260.2382 -496.708323 
L 277.9443 -498.462821 
L 295.6504 -494.645091 
L 313.3565 -511.00562 
L 331.0626 -512.868088 
L 348.7687 -516.374542 
L 366.4748 -513.364356 
L 384.1809 -498.731558 
L 401.887 -498.69198 
L 419.5931 -492.316313 
L 437.2992 -497.777438 
L 455.0053 -497.942953 
L 472.7114 -498.463961 
L 490.4175 -496.025701 
L 508.1236 -502.227385 
L 525.8297 -497.565133 
L 543.5358 -496.507449 
L 561.2419 -508.939 
L 578.948 -510.041831 
L 596.6541 -523.76066 
L 614.3602 -536.464843 
L 632.0663 -526.559057 
L 649.7724 -532.399563 
L 667.4785 -533.314325 
L 685.1846 -523.886287 
L 702.8907 -518.658071 
L 720.5968 -523.602734 
L 738.3029 -523.759482 
L 756.009 -525.388584 
L 773.7151 -532.827967 
L 791.4212 -532.618245 
L 809.1273 -520.265888 
L 826.8334 -523.905132 
L 844.5395 -560.128265 
L 862.2456 -518.647551 
L 879.9517 -526.860008 
L 897.6578 -502.341309 
L 915.3639 -504.417709 
L 933.07 -493.798912 
L 933.07 -569.59177 
L 933.07 -569.59177 
L 915.3639 -573.627404 
L 897.6578 -572.124167 
L 879.9517 -578.849481 
L 862.2456 -572.210694 
L 844.5395 -571.335821 
L 826.8334 -573.878647 
L 809.1273 -572.639974 
L 791.4212 -572.652253 
L 773.7151 -572.055089 
L 756.009 -569.304755 
L 738.3029 -568.182229 
L 720.5968 -568.003586 
L 702.8907 -562.800987 
L 685.1846 -570.374884 
L 667.4785 -568.456173 
L 649.7724 -565.034099 
L 632.0663 -561.019008 
L 614.3602 -560.229019 
L 596.6541 -560.87322 
L 578.948 -566.02358 
L 561.2419 -563.191999 
L 543.5358 -561.902724 
L 525.8297 -562.920271 
L 508.1236 -563.761696 
L 490.4175 -556.642578 
L 472.7114 -556.820969 
L 455.0053 -554.570394 
L 437.2992 -553.926785 
L 419.5931 -550.33017 
L 401.887 -545.010769 
L 384.1809 -544.132101 
L 366.4748 -537.906863 
L 348.7687 -536.522529 
L 331.0626 -534.972222 
L 313.3565 -531.145018 
L 295.6504 -531.58534 
L 277.9443 -528.801166 
L 260.2382 -525.909516 
L 242.5321 -525.32464 
L 224.826 -524.431881 
L 207.1199 -517.962196 
L 189.4138 -513.244701 
L 171.7077 -510.290852 
L 154.0016 -511.561235 
L 136.2955 -515.405942 
L 118.5894 -510.287601 
L 100.8833 -507.081499 
L 83.1772 -502.601955 
L 65.4711 -496.896025 
L 47.765 -495.301751 
z
" style="stroke: #17becf; stroke-opacity: 0.2"/>
    </defs>
    <g clip-path="url(#pda18a1dd45)">
     <use xlink:href="#mb1ca9d55fe" x="0" y="648" style="fill: #17becf; fill-opacity: 0.2; stroke: #17becf; stroke-opacity: 0.2"/>
    </g>
   </g>
   <g id="PolyCollection_11">
    <defs>
     <path id="m13dcecc858" d="M 47.765 -432.113873 
L 47.765 -404.44875 
L 65.4711 -393.634988 
L 83.1772 -402.578977 
L 100.8833 -409.033423 
L 118.5894 -416.788727 
L 136.2955 -427.308043 
L 154.0016 -430.756933 
L 171.7077 -434.566766 
L 189.4138 -431.786295 
L 207.1199 -443.860262 
L 224.826 -444.563075 
L 242.5321 -436.935507 
L 260.2382 -434.123619 
L 277.9443 -443.994673 
L 295.6504 -444.036462 
L 313.3565 -442.127128 
L 331.0626 -449.212616 
L 348.7687 -450.780699 
L 366.4748 -451.340377 
L 384.1809 -472.580693 
L 401.887 -478.910173 
L 419.5931 -464.960054 
L 437.2992 -498.322572 
L 455.0053 -506.795097 
L 472.7114 -498.925492 
L 490.4175 -491.399832 
L 508.1236 -507.732718 
L 525.8297 -509.446504 
L 543.5358 -504.615726 
L 561.2419 -508.760671 
L 578.948 -509.395439 
L 596.6541 -516.855056 
L 614.3602 -517.53888 
L 632.0663 -516.102767 
L 649.7724 -521.115334 
L 667.4785 -526.624518 
L 685.1846 -534.061816 
L 702.8907 -509.549234 
L 720.5968 -503.488734 
L 738.3029 -504.462975 
L 756.009 -518.684508 
L 773.7151 -524.908999 
L 791.4212 -531.36913 
L 809.1273 -531.086087 
L 826.8334 -519.250604 
L 844.5395 -519.061388 
L 862.2456 -516.256999 
L 879.9517 -517.616679 
L 897.6578 -522.211538 
L 915.3639 -518.215533 
L 933.07 -522.417304 
L 933.07 -580.50979 
L 933.07 -580.50979 
L 915.3639 -577.969851 
L 897.6578 -576.897353 
L 879.9517 -576.95654 
L 862.2456 -574.24321 
L 844.5395 -570.092403 
L 826.8334 -569.424599 
L 809.1273 -573.773765 
L 791.4212 -565.724205 
L 773.7151 -563.68347 
L 756.009 -558.006323 
L 738.3029 -561.715482 
L 720.5968 -560.340915 
L 702.8907 -560.489982 
L 685.1846 -556.801929 
L 667.4785 -555.181448 
L 649.7724 -552.544052 
L 632.0663 -554.731875 
L 614.3602 -548.971429 
L 596.6541 -544.747829 
L 578.948 -544.304178 
L 561.2419 -540.911957 
L 543.5358 -540.718228 
L 525.8297 -538.056759 
L 508.1236 -538.846543 
L 490.4175 -540.304203 
L 472.7114 -541.736098 
L 455.0053 -535.411696 
L 437.2992 -537.305578 
L 419.5931 -540.518177 
L 401.887 -534.44114 
L 384.1809 -533.519472 
L 366.4748 -515.75109 
L 348.7687 -508.296662 
L 331.0626 -508.085816 
L 313.3565 -501.878272 
L 295.6504 -502.833858 
L 277.9443 -509.53132 
L 260.2382 -496.753267 
L 242.5321 -499.987718 
L 224.826 -499.489324 
L 207.1199 -496.697457 
L 189.4138 -477.826318 
L 171.7077 -480.151689 
L 154.0016 -469.076019 
L 136.2955 -461.842298 
L 118.5894 -451.998726 
L 100.8833 -441.962659 
L 83.1772 -445.135768 
L 65.4711 -437.907846 
L 47.765 -432.113873 
z
" style="stroke: #9edae5; stroke-opacity: 0.2"/>
    </defs>
    <g clip-path="url(#pda18a1dd45)">
     <use xlink:href="#m13dcecc858" x="0" y="648" style="fill: #9edae5; fill-opacity: 0.2; stroke: #9edae5; stroke-opacity: 0.2"/>
    </g>
   </g>
   <g id="matplotlib.axis_1">
    <g id="xtick_1">
     <g id="line2d_1">
      <defs>
       <path id="ma33a2350bd" d="M 0 0 
L 0 3.5 
" style="stroke: #000000; stroke-width: 0.8"/>
      </defs>
      <g>
       <use xlink:href="#ma33a2350bd" x="47.765" y="606.04" style="stroke: #000000; stroke-width: 0.8"/>
      </g>
     </g>
     <g id="text_1">
      <!-- 30 -->
      <g transform="translate(41.4025 620.638438) scale(0.1 -0.1)">
       <defs>
        <path id="DejaVuSans-33" d="M 2597 2516 
Q 3050 2419 3304 2112 
Q 3559 1806 3559 1356 
Q 3559 666 3084 287 
Q 2609 -91 1734 -91 
Q 1441 -91 1130 -33 
Q 819 25 488 141 
L 488 750 
Q 750 597 1062 519 
Q 1375 441 1716 441 
Q 2309 441 2620 675 
Q 2931 909 2931 1356 
Q 2931 1769 2642 2001 
Q 2353 2234 1838 2234 
L 1294 2234 
L 1294 2753 
L 1863 2753 
Q 2328 2753 2575 2939 
Q 2822 3125 2822 3475 
Q 2822 3834 2567 4026 
Q 2313 4219 1838 4219 
Q 1578 4219 1281 4162 
Q 984 4106 628 3988 
L 628 4550 
Q 988 4650 1302 4700 
Q 1616 4750 1894 4750 
Q 2613 4750 3031 4423 
Q 3450 4097 3450 3541 
Q 3450 3153 3228 2886 
Q 3006 2619 2597 2516 
z
" transform="scale(0.015625)"/>
        <path id="DejaVuSans-30" d="M 2034 4250 
Q 1547 4250 1301 3770 
Q 1056 3291 1056 2328 
Q 1056 1369 1301 889 
Q 1547 409 2034 409 
Q 2525 409 2770 889 
Q 3016 1369 3016 2328 
Q 3016 3291 2770 3770 
Q 2525 4250 2034 4250 
z
M 2034 4750 
Q 2819 4750 3233 4129 
Q 3647 3509 3647 2328 
Q 3647 1150 3233 529 
Q 2819 -91 2034 -91 
Q 1250 -91 836 529 
Q 422 1150 422 2328 
Q 422 3509 836 4129 
Q 1250 4750 2034 4750 
z
" transform="scale(0.015625)"/>
       </defs>
       <use xlink:href="#DejaVuSans-33"/>
       <use xlink:href="#DejaVuSans-30" x="63.623047"/>
      </g>
     </g>
    </g>
    <g id="xtick_2">
     <g id="line2d_2">
      <g>
       <use xlink:href="#ma33a2350bd" x="224.826" y="606.04" style="stroke: #000000; stroke-width: 0.8"/>
      </g>
     </g>
     <g id="text_2">
      <!-- 40 -->
      <g transform="translate(218.4635 620.638438) scale(0.1 -0.1)">
       <defs>
        <path id="DejaVuSans-34" d="M 2419 4116 
L 825 1625 
L 2419 1625 
L 2419 4116 
z
M 2253 4666 
L 3047 4666 
L 3047 1625 
L 3713 1625 
L 3713 1100 
L 3047 1100 
L 3047 0 
L 2419 0 
L 2419 1100 
L 313 1100 
L 313 1709 
L 2253 4666 
z
" transform="scale(0.015625)"/>
       </defs>
       <use xlink:href="#DejaVuSans-34"/>
       <use xlink:href="#DejaVuSans-30" x="63.623047"/>
      </g>
     </g>
    </g>
    <g id="xtick_3">
     <g id="line2d_3">
      <g>
       <use xlink:href="#ma33a2350bd" x="401.887" y="606.04" style="stroke: #000000; stroke-width: 0.8"/>
      </g>
     </g>
     <g id="text_3">
      <!-- 50 -->
      <g transform="translate(395.5245 620.638438) scale(0.1 -0.1)">
       <defs>
        <path id="DejaVuSans-35" d="M 691 4666 
L 3169 4666 
L 3169 4134 
L 1269 4134 
L 1269 2991 
Q 1406 3038 1543 3061 
Q 1681 3084 1819 3084 
Q 2600 3084 3056 2656 
Q 3513 2228 3513 1497 
Q 3513 744 3044 326 
Q 2575 -91 1722 -91 
Q 1428 -91 1123 -41 
Q 819 9 494 109 
L 494 744 
Q 775 591 1075 516 
Q 1375 441 1709 441 
Q 2250 441 2565 725 
Q 2881 1009 2881 1497 
Q 2881 1984 2565 2268 
Q 2250 2553 1709 2553 
Q 1456 2553 1204 2497 
Q 953 2441 691 2322 
L 691 4666 
z
" transform="scale(0.015625)"/>
       </defs>
       <use xlink:href="#DejaVuSans-35"/>
       <use xlink:href="#DejaVuSans-30" x="63.623047"/>
      </g>
     </g>
    </g>
    <g id="xtick_4">
     <g id="line2d_4">
      <g>
       <use xlink:href="#ma33a2350bd" x="578.948" y="606.04" style="stroke: #000000; stroke-width: 0.8"/>
      </g>
     </g>
     <g id="text_4">
      <!-- 60 -->
      <g transform="translate(572.5855 620.638438) scale(0.1 -0.1)">
       <defs>
        <path id="DejaVuSans-36" d="M 2113 2584 
Q 1688 2584 1439 2293 
Q 1191 2003 1191 1497 
Q 1191 994 1439 701 
Q 1688 409 2113 409 
Q 2538 409 2786 701 
Q 3034 994 3034 1497 
Q 3034 2003 2786 2293 
Q 2538 2584 2113 2584 
z
M 3366 4563 
L 3366 3988 
Q 3128 4100 2886 4159 
Q 2644 4219 2406 4219 
Q 1781 4219 1451 3797 
Q 1122 3375 1075 2522 
Q 1259 2794 1537 2939 
Q 1816 3084 2150 3084 
Q 2853 3084 3261 2657 
Q 3669 2231 3669 1497 
Q 3669 778 3244 343 
Q 2819 -91 2113 -91 
Q 1303 -91 875 529 
Q 447 1150 447 2328 
Q 447 3434 972 4092 
Q 1497 4750 2381 4750 
Q 2619 4750 2861 4703 
Q 3103 4656 3366 4563 
z
" transform="scale(0.015625)"/>
       </defs>
       <use xlink:href="#DejaVuSans-36"/>
       <use xlink:href="#DejaVuSans-30" x="63.623047"/>
      </g>
     </g>
    </g>
    <g id="xtick_5">
     <g id="line2d_5">
      <g>
       <use xlink:href="#ma33a2350bd" x="756.009" y="606.04" style="stroke: #000000; stroke-width: 0.8"/>
      </g>
     </g>
     <g id="text_5">
      <!-- 70 -->
      <g transform="translate(749.6465 620.638438) scale(0.1 -0.1)">
       <defs>
        <path id="DejaVuSans-37" d="M 525 4666 
L 3525 4666 
L 3525 4397 
L 1831 0 
L 1172 0 
L 2766 4134 
L 525 4134 
L 525 4666 
z
" transform="scale(0.015625)"/>
       </defs>
       <use xlink:href="#DejaVuSans-37"/>
       <use xlink:href="#DejaVuSans-30" x="63.623047"/>
      </g>
     </g>
    </g>
    <g id="xtick_6">
     <g id="line2d_6">
      <g>
       <use xlink:href="#ma33a2350bd" x="933.07" y="606.04" style="stroke: #000000; stroke-width: 0.8"/>
      </g>
     </g>
     <g id="text_6">
      <!-- 80 -->
      <g transform="translate(926.7075 620.638438) scale(0.1 -0.1)">
       <defs>
        <path id="DejaVuSans-38" d="M 2034 2216 
Q 1584 2216 1326 1975 
Q 1069 1734 1069 1313 
Q 1069 891 1326 650 
Q 1584 409 2034 409 
Q 2484 409 2743 651 
Q 3003 894 3003 1313 
Q 3003 1734 2745 1975 
Q 2488 2216 2034 2216 
z
M 1403 2484 
Q 997 2584 770 2862 
Q 544 3141 544 3541 
Q 544 4100 942 4425 
Q 1341 4750 2034 4750 
Q 2731 4750 3128 4425 
Q 3525 4100 3525 3541 
Q 3525 3141 3298 2862 
Q 3072 2584 2669 2484 
Q 3125 2378 3379 2068 
Q 3634 1759 3634 1313 
Q 3634 634 3220 271 
Q 2806 -91 2034 -91 
Q 1263 -91 848 271 
Q 434 634 434 1313 
Q 434 1759 690 2068 
Q 947 2378 1403 2484 
z
M 1172 3481 
Q 1172 3119 1398 2916 
Q 1625 2713 2034 2713 
Q 2441 2713 2670 2916 
Q 2900 3119 2900 3481 
Q 2900 3844 2670 4047 
Q 2441 4250 2034 4250 
Q 1625 4250 1398 4047 
Q 1172 3844 1172 3481 
z
" transform="scale(0.015625)"/>
       </defs>
       <use xlink:href="#DejaVuSans-38"/>
       <use xlink:href="#DejaVuSans-30" x="63.623047"/>
      </g>
     </g>
    </g>
    <g id="text_7">
     <!-- Number of Baits -->
     <g transform="translate(449.885469 634.316563) scale(0.1 -0.1)">
      <defs>
       <path id="DejaVuSans-4e" d="M 628 4666 
L 1478 4666 
L 3547 763 
L 3547 4666 
L 4159 4666 
L 4159 0 
L 3309 0 
L 1241 3903 
L 1241 0 
L 628 0 
L 628 4666 
z
" transform="scale(0.015625)"/>
       <path id="DejaVuSans-75" d="M 544 1381 
L 544 3500 
L 1119 3500 
L 1119 1403 
Q 1119 906 1312 657 
Q 1506 409 1894 409 
Q 2359 409 2629 706 
Q 2900 1003 2900 1516 
L 2900 3500 
L 3475 3500 
L 3475 0 
L 2900 0 
L 2900 538 
Q 2691 219 2414 64 
Q 2138 -91 1772 -91 
Q 1169 -91 856 284 
Q 544 659 544 1381 
z
M 1991 3584 
L 1991 3584 
z
" transform="scale(0.015625)"/>
       <path id="DejaVuSans-6d" d="M 3328 2828 
Q 3544 3216 3844 3400 
Q 4144 3584 4550 3584 
Q 5097 3584 5394 3201 
Q 5691 2819 5691 2113 
L 5691 0 
L 5113 0 
L 5113 2094 
Q 5113 2597 4934 2840 
Q 4756 3084 4391 3084 
Q 3944 3084 3684 2787 
Q 3425 2491 3425 1978 
L 3425 0 
L 2847 0 
L 2847 2094 
Q 2847 2600 2669 2842 
Q 2491 3084 2119 3084 
Q 1678 3084 1418 2786 
Q 1159 2488 1159 1978 
L 1159 0 
L 581 0 
L 581 3500 
L 1159 3500 
L 1159 2956 
Q 1356 3278 1631 3431 
Q 1906 3584 2284 3584 
Q 2666 3584 2933 3390 
Q 3200 3197 3328 2828 
z
" transform="scale(0.015625)"/>
       <path id="DejaVuSans-62" d="M 3116 1747 
Q 3116 2381 2855 2742 
Q 2594 3103 2138 3103 
Q 1681 3103 1420 2742 
Q 1159 2381 1159 1747 
Q 1159 1113 1420 752 
Q 1681 391 2138 391 
Q 2594 391 2855 752 
Q 3116 1113 3116 1747 
z
M 1159 2969 
Q 1341 3281 1617 3432 
Q 1894 3584 2278 3584 
Q 2916 3584 3314 3078 
Q 3713 2572 3713 1747 
Q 3713 922 3314 415 
Q 2916 -91 2278 -91 
Q 1894 -91 1617 61 
Q 1341 213 1159 525 
L 1159 0 
L 581 0 
L 581 4863 
L 1159 4863 
L 1159 2969 
z
" transform="scale(0.015625)"/>
       <path id="DejaVuSans-65" d="M 3597 1894 
L 3597 1613 
L 953 1613 
Q 991 1019 1311 708 
Q 1631 397 2203 397 
Q 2534 397 2845 478 
Q 3156 559 3463 722 
L 3463 178 
Q 3153 47 2828 -22 
Q 2503 -91 2169 -91 
Q 1331 -91 842 396 
Q 353 884 353 1716 
Q 353 2575 817 3079 
Q 1281 3584 2069 3584 
Q 2775 3584 3186 3129 
Q 3597 2675 3597 1894 
z
M 3022 2063 
Q 3016 2534 2758 2815 
Q 2500 3097 2075 3097 
Q 1594 3097 1305 2825 
Q 1016 2553 972 2059 
L 3022 2063 
z
" transform="scale(0.015625)"/>
       <path id="DejaVuSans-72" d="M 2631 2963 
Q 2534 3019 2420 3045 
Q 2306 3072 2169 3072 
Q 1681 3072 1420 2755 
Q 1159 2438 1159 1844 
L 1159 0 
L 581 0 
L 581 3500 
L 1159 3500 
L 1159 2956 
Q 1341 3275 1631 3429 
Q 1922 3584 2338 3584 
Q 2397 3584 2469 3576 
Q 2541 3569 2628 3553 
L 2631 2963 
z
" transform="scale(0.015625)"/>
       <path id="DejaVuSans-20" transform="scale(0.015625)"/>
       <path id="DejaVuSans-6f" d="M 1959 3097 
Q 1497 3097 1228 2736 
Q 959 2375 959 1747 
Q 959 1119 1226 758 
Q 1494 397 1959 397 
Q 2419 397 2687 759 
Q 2956 1122 2956 1747 
Q 2956 2369 2687 2733 
Q 2419 3097 1959 3097 
z
M 1959 3584 
Q 2709 3584 3137 3096 
Q 3566 2609 3566 1747 
Q 3566 888 3137 398 
Q 2709 -91 1959 -91 
Q 1206 -91 779 398 
Q 353 888 353 1747 
Q 353 2609 779 3096 
Q 1206 3584 1959 3584 
z
" transform="scale(0.015625)"/>
       <path id="DejaVuSans-66" d="M 2375 4863 
L 2375 4384 
L 1825 4384 
Q 1516 4384 1395 4259 
Q 1275 4134 1275 3809 
L 1275 3500 
L 2222 3500 
L 2222 3053 
L 1275 3053 
L 1275 0 
L 697 0 
L 697 3053 
L 147 3053 
L 147 3500 
L 697 3500 
L 697 3744 
Q 697 4328 969 4595 
Q 1241 4863 1831 4863 
L 2375 4863 
z
" transform="scale(0.015625)"/>
       <path id="DejaVuSans-42" d="M 1259 2228 
L 1259 519 
L 2272 519 
Q 2781 519 3026 730 
Q 3272 941 3272 1375 
Q 3272 1813 3026 2020 
Q 2781 2228 2272 2228 
L 1259 2228 
z
M 1259 4147 
L 1259 2741 
L 2194 2741 
Q 2656 2741 2882 2914 
Q 3109 3088 3109 3444 
Q 3109 3797 2882 3972 
Q 2656 4147 2194 4147 
L 1259 4147 
z
M 628 4666 
L 2241 4666 
Q 2963 4666 3353 4366 
Q 3744 4066 3744 3513 
Q 3744 3084 3544 2831 
Q 3344 2578 2956 2516 
Q 3422 2416 3680 2098 
Q 3938 1781 3938 1306 
Q 3938 681 3513 340 
Q 3088 0 2303 0 
L 628 0 
L 628 4666 
z
" transform="scale(0.015625)"/>
       <path id="DejaVuSans-61" d="M 2194 1759 
Q 1497 1759 1228 1600 
Q 959 1441 959 1056 
Q 959 750 1161 570 
Q 1363 391 1709 391 
Q 2188 391 2477 730 
Q 2766 1069 2766 1631 
L 2766 1759 
L 2194 1759 
z
M 3341 1997 
L 3341 0 
L 2766 0 
L 2766 531 
Q 2569 213 2275 61 
Q 1981 -91 1556 -91 
Q 1019 -91 701 211 
Q 384 513 384 1019 
Q 384 1609 779 1909 
Q 1175 2209 1959 2209 
L 2766 2209 
L 2766 2266 
Q 2766 2663 2505 2880 
Q 2244 3097 1772 3097 
Q 1472 3097 1187 3025 
Q 903 2953 641 2809 
L 641 3341 
Q 956 3463 1253 3523 
Q 1550 3584 1831 3584 
Q 2591 3584 2966 3190 
Q 3341 2797 3341 1997 
z
" transform="scale(0.015625)"/>
       <path id="DejaVuSans-69" d="M 603 3500 
L 1178 3500 
L 1178 0 
L 603 0 
L 603 3500 
z
M 603 4863 
L 1178 4863 
L 1178 4134 
L 603 4134 
L 603 4863 
z
" transform="scale(0.015625)"/>
       <path id="DejaVuSans-74" d="M 1172 4494 
L 1172 3500 
L 2356 3500 
L 2356 3053 
L 1172 3053 
L 1172 1153 
Q 1172 725 1289 603 
Q 1406 481 1766 481 
L 2356 481 
L 2356 0 
L 1766 0 
Q 1100 0 847 248 
Q 594 497 594 1153 
L 594 3053 
L 172 3053 
L 172 3500 
L 594 3500 
L 594 4494 
L 1172 4494 
z
" transform="scale(0.015625)"/>
       <path id="DejaVuSans-73" d="M 2834 3397 
L 2834 2853 
Q 2591 2978 2328 3040 
Q 2066 3103 1784 3103 
Q 1356 3103 1142 2972 
Q 928 2841 928 2578 
Q 928 2378 1081 2264 
Q 1234 2150 1697 2047 
L 1894 2003 
Q 2506 1872 2764 1633 
Q 3022 1394 3022 966 
Q 3022 478 2636 193 
Q 2250 -91 1575 -91 
Q 1294 -91 989 -36 
Q 684 19 347 128 
L 347 722 
Q 666 556 975 473 
Q 1284 391 1588 391 
Q 1994 391 2212 530 
Q 2431 669 2431 922 
Q 2431 1156 2273 1281 
Q 2116 1406 1581 1522 
L 1381 1569 
Q 847 1681 609 1914 
Q 372 2147 372 2553 
Q 372 3047 722 3315 
Q 1072 3584 1716 3584 
Q 2034 3584 2315 3537 
Q 2597 3491 2834 3397 
z
" transform="scale(0.015625)"/>
      </defs>
      <use xlink:href="#DejaVuSans-4e"/>
      <use xlink:href="#DejaVuSans-75" x="74.804688"/>
      <use xlink:href="#DejaVuSans-6d" x="138.183594"/>
      <use xlink:href="#DejaVuSans-62" x="235.595703"/>
      <use xlink:href="#DejaVuSans-65" x="299.072266"/>
      <use xlink:href="#DejaVuSans-72" x="360.595703"/>
      <use xlink:href="#DejaVuSans-20" x="401.708984"/>
      <use xlink:href="#DejaVuSans-6f" x="433.496094"/>
      <use xlink:href="#DejaVuSans-66" x="494.677734"/>
      <use xlink:href="#DejaVuSans-20" x="529.882812"/>
      <use xlink:href="#DejaVuSans-42" x="561.669922"/>
      <use xlink:href="#DejaVuSans-61" x="630.273438"/>
      <use xlink:href="#DejaVuSans-69" x="691.552734"/>
      <use xlink:href="#DejaVuSans-74" x="719.335938"/>
      <use xlink:href="#DejaVuSans-73" x="758.544922"/>
     </g>
    </g>
   </g>
   <g id="matplotlib.axis_2">
    <g id="ytick_1">
     <g id="line2d_7">
      <defs>
       <path id="m463f64f3aa" d="M 0 0 
L -3.5 0 
" style="stroke: #000000; stroke-width: 0.8"/>
      </defs>
      <g>
       <use xlink:href="#m463f64f3aa" x="47.765" y="606.04" style="stroke: #000000; stroke-width: 0.8"/>
      </g>
     </g>
     <g id="text_8">
      <!-- 0.0 -->
      <g transform="translate(24.861875 609.839219) scale(0.1 -0.1)">
       <defs>
        <path id="DejaVuSans-2e" d="M 684 794 
L 1344 794 
L 1344 0 
L 684 0 
L 684 794 
z
" transform="scale(0.015625)"/>
       </defs>
       <use xlink:href="#DejaVuSans-30"/>
       <use xlink:href="#DejaVuSans-2e" x="63.623047"/>
       <use xlink:href="#DejaVuSans-30" x="95.410156"/>
      </g>
     </g>
    </g>
    <g id="ytick_2">
     <g id="line2d_8">
      <g>
       <use xlink:href="#m463f64f3aa" x="47.765" y="490.9816" style="stroke: #000000; stroke-width: 0.8"/>
      </g>
     </g>
     <g id="text_9">
      <!-- 0.2 -->
      <g transform="translate(24.861875 494.780819) scale(0.1 -0.1)">
       <defs>
        <path id="DejaVuSans-32" d="M 1228 531 
L 3431 531 
L 3431 0 
L 469 0 
L 469 531 
Q 828 903 1448 1529 
Q 2069 2156 2228 2338 
Q 2531 2678 2651 2914 
Q 2772 3150 2772 3378 
Q 2772 3750 2511 3984 
Q 2250 4219 1831 4219 
Q 1534 4219 1204 4116 
Q 875 4013 500 3803 
L 500 4441 
Q 881 4594 1212 4672 
Q 1544 4750 1819 4750 
Q 2544 4750 2975 4387 
Q 3406 4025 3406 3419 
Q 3406 3131 3298 2873 
Q 3191 2616 2906 2266 
Q 2828 2175 2409 1742 
Q 1991 1309 1228 531 
z
" transform="scale(0.015625)"/>
       </defs>
       <use xlink:href="#DejaVuSans-30"/>
       <use xlink:href="#DejaVuSans-2e" x="63.623047"/>
       <use xlink:href="#DejaVuSans-32" x="95.410156"/>
      </g>
     </g>
    </g>
    <g id="ytick_3">
     <g id="line2d_9">
      <g>
       <use xlink:href="#m463f64f3aa" x="47.765" y="375.9232" style="stroke: #000000; stroke-width: 0.8"/>
      </g>
     </g>
     <g id="text_10">
      <!-- 0.4 -->
      <g transform="translate(24.861875 379.722419) scale(0.1 -0.1)">
       <use xlink:href="#DejaVuSans-30"/>
       <use xlink:href="#DejaVuSans-2e" x="63.623047"/>
       <use xlink:href="#DejaVuSans-34" x="95.410156"/>
      </g>
     </g>
    </g>
    <g id="ytick_4">
     <g id="line2d_10">
      <g>
       <use xlink:href="#m463f64f3aa" x="47.765" y="260.8648" style="stroke: #000000; stroke-width: 0.8"/>
      </g>
     </g>
     <g id="text_11">
      <!-- 0.6 -->
      <g transform="translate(24.861875 264.664019) scale(0.1 -0.1)">
       <use xlink:href="#DejaVuSans-30"/>
       <use xlink:href="#DejaVuSans-2e" x="63.623047"/>
       <use xlink:href="#DejaVuSans-36" x="95.410156"/>
      </g>
     </g>
    </g>
    <g id="ytick_5">
     <g id="line2d_11">
      <g>
       <use xlink:href="#m463f64f3aa" x="47.765" y="145.8064" style="stroke: #000000; stroke-width: 0.8"/>
      </g>
     </g>
     <g id="text_12">
      <!-- 0.8 -->
      <g transform="translate(24.861875 149.605619) scale(0.1 -0.1)">
       <use xlink:href="#DejaVuSans-30"/>
       <use xlink:href="#DejaVuSans-2e" x="63.623047"/>
       <use xlink:href="#DejaVuSans-38" x="95.410156"/>
      </g>
     </g>
    </g>
    <g id="ytick_6">
     <g id="line2d_12">
      <g>
       <use xlink:href="#m463f64f3aa" x="47.765" y="30.748" style="stroke: #000000; stroke-width: 0.8"/>
      </g>
     </g>
     <g id="text_13">
      <!-- 1.0 -->
      <g transform="translate(24.861875 34.547219) scale(0.1 -0.1)">
       <defs>
        <path id="DejaVuSans-31" d="M 794 531 
L 1825 531 
L 1825 4091 
L 703 3866 
L 703 4441 
L 1819 4666 
L 2450 4666 
L 2450 531 
L 3481 531 
L 3481 0 
L 794 0 
L 794 531 
z
" transform="scale(0.015625)"/>
       </defs>
       <use xlink:href="#DejaVuSans-31"/>
       <use xlink:href="#DejaVuSans-2e" x="63.623047"/>
       <use xlink:href="#DejaVuSans-30" x="95.410156"/>
      </g>
     </g>
    </g>
    <g id="text_14">
     <!-- Aggregated NMF GO Scores -->
     <g transform="translate(18.782187 387.746344) rotate(-90) scale(0.1 -0.1)">
      <defs>
       <path id="DejaVuSans-41" d="M 2188 4044 
L 1331 1722 
L 3047 1722 
L 2188 4044 
z
M 1831 4666 
L 2547 4666 
L 4325 0 
L 3669 0 
L 3244 1197 
L 1141 1197 
L 716 0 
L 50 0 
L 1831 4666 
z
" transform="scale(0.015625)"/>
       <path id="DejaVuSans-67" d="M 2906 1791 
Q 2906 2416 2648 2759 
Q 2391 3103 1925 3103 
Q 1463 3103 1205 2759 
Q 947 2416 947 1791 
Q 947 1169 1205 825 
Q 1463 481 1925 481 
Q 2391 481 2648 825 
Q 2906 1169 2906 1791 
z
M 3481 434 
Q 3481 -459 3084 -895 
Q 2688 -1331 1869 -1331 
Q 1566 -1331 1297 -1286 
Q 1028 -1241 775 -1147 
L 775 -588 
Q 1028 -725 1275 -790 
Q 1522 -856 1778 -856 
Q 2344 -856 2625 -561 
Q 2906 -266 2906 331 
L 2906 616 
Q 2728 306 2450 153 
Q 2172 0 1784 0 
Q 1141 0 747 490 
Q 353 981 353 1791 
Q 353 2603 747 3093 
Q 1141 3584 1784 3584 
Q 2172 3584 2450 3431 
Q 2728 3278 2906 2969 
L 2906 3500 
L 3481 3500 
L 3481 434 
z
" transform="scale(0.015625)"/>
       <path id="DejaVuSans-64" d="M 2906 2969 
L 2906 4863 
L 3481 4863 
L 3481 0 
L 2906 0 
L 2906 525 
Q 2725 213 2448 61 
Q 2172 -91 1784 -91 
Q 1150 -91 751 415 
Q 353 922 353 1747 
Q 353 2572 751 3078 
Q 1150 3584 1784 3584 
Q 2172 3584 2448 3432 
Q 2725 3281 2906 2969 
z
M 947 1747 
Q 947 1113 1208 752 
Q 1469 391 1925 391 
Q 2381 391 2643 752 
Q 2906 1113 2906 1747 
Q 2906 2381 2643 2742 
Q 2381 3103 1925 3103 
Q 1469 3103 1208 2742 
Q 947 2381 947 1747 
z
" transform="scale(0.015625)"/>
       <path id="DejaVuSans-4d" d="M 628 4666 
L 1569 4666 
L 2759 1491 
L 3956 4666 
L 4897 4666 
L 4897 0 
L 4281 0 
L 4281 4097 
L 3078 897 
L 2444 897 
L 1241 4097 
L 1241 0 
L 628 0 
L 628 4666 
z
" transform="scale(0.015625)"/>
       <path id="DejaVuSans-46" d="M 628 4666 
L 3309 4666 
L 3309 4134 
L 1259 4134 
L 1259 2759 
L 3109 2759 
L 3109 2228 
L 1259 2228 
L 1259 0 
L 628 0 
L 628 4666 
z
" transform="scale(0.015625)"/>
       <path id="DejaVuSans-47" d="M 3809 666 
L 3809 1919 
L 2778 1919 
L 2778 2438 
L 4434 2438 
L 4434 434 
Q 4069 175 3628 42 
Q 3188 -91 2688 -91 
Q 1594 -91 976 548 
Q 359 1188 359 2328 
Q 359 3472 976 4111 
Q 1594 4750 2688 4750 
Q 3144 4750 3555 4637 
Q 3966 4525 4313 4306 
L 4313 3634 
Q 3963 3931 3569 4081 
Q 3175 4231 2741 4231 
Q 1884 4231 1454 3753 
Q 1025 3275 1025 2328 
Q 1025 1384 1454 906 
Q 1884 428 2741 428 
Q 3075 428 3337 486 
Q 3600 544 3809 666 
z
" transform="scale(0.015625)"/>
       <path id="DejaVuSans-4f" d="M 2522 4238 
Q 1834 4238 1429 3725 
Q 1025 3213 1025 2328 
Q 1025 1447 1429 934 
Q 1834 422 2522 422 
Q 3209 422 3611 934 
Q 4013 1447 4013 2328 
Q 4013 3213 3611 3725 
Q 3209 4238 2522 4238 
z
M 2522 4750 
Q 3503 4750 4090 4092 
Q 4678 3434 4678 2328 
Q 4678 1225 4090 567 
Q 3503 -91 2522 -91 
Q 1538 -91 948 565 
Q 359 1222 359 2328 
Q 359 3434 948 4092 
Q 1538 4750 2522 4750 
z
" transform="scale(0.015625)"/>
       <path id="DejaVuSans-53" d="M 3425 4513 
L 3425 3897 
Q 3066 4069 2747 4153 
Q 2428 4238 2131 4238 
Q 1616 4238 1336 4038 
Q 1056 3838 1056 3469 
Q 1056 3159 1242 3001 
Q 1428 2844 1947 2747 
L 2328 2669 
Q 3034 2534 3370 2195 
Q 3706 1856 3706 1288 
Q 3706 609 3251 259 
Q 2797 -91 1919 -91 
Q 1588 -91 1214 -16 
Q 841 59 441 206 
L 441 856 
Q 825 641 1194 531 
Q 1563 422 1919 422 
Q 2459 422 2753 634 
Q 3047 847 3047 1241 
Q 3047 1584 2836 1778 
Q 2625 1972 2144 2069 
L 1759 2144 
Q 1053 2284 737 2584 
Q 422 2884 422 3419 
Q 422 4038 858 4394 
Q 1294 4750 2059 4750 
Q 2388 4750 2728 4690 
Q 3069 4631 3425 4513 
z
" transform="scale(0.015625)"/>
       <path id="DejaVuSans-63" d="M 3122 3366 
L 3122 2828 
Q 2878 2963 2633 3030 
Q 2388 3097 2138 3097 
Q 1578 3097 1268 2742 
Q 959 2388 959 1747 
Q 959 1106 1268 751 
Q 1578 397 2138 397 
Q 2388 397 2633 464 
Q 2878 531 3122 666 
L 3122 134 
Q 2881 22 2623 -34 
Q 2366 -91 2075 -91 
Q 1284 -91 818 406 
Q 353 903 353 1747 
Q 353 2603 823 3093 
Q 1294 3584 2113 3584 
Q 2378 3584 2631 3529 
Q 2884 3475 3122 3366 
z
" transform="scale(0.015625)"/>
      </defs>
      <use xlink:href="#DejaVuSans-41"/>
      <use xlink:href="#DejaVuSans-67" x="68.408203"/>
      <use xlink:href="#DejaVuSans-67" x="131.884766"/>
      <use xlink:href="#DejaVuSans-72" x="195.361328"/>
      <use xlink:href="#DejaVuSans-65" x="234.224609"/>
      <use xlink:href="#DejaVuSans-67" x="295.748047"/>
      <use xlink:href="#DejaVuSans-61" x="359.224609"/>
      <use xlink:href="#DejaVuSans-74" x="420.503906"/>
      <use xlink:href="#DejaVuSans-65" x="459.712891"/>
      <use xlink:href="#DejaVuSans-64" x="521.236328"/>
      <use xlink:href="#DejaVuSans-20" x="584.712891"/>
      <use xlink:href="#DejaVuSans-4e" x="616.5"/>
      <use xlink:href="#DejaVuSans-4d" x="691.304688"/>
      <use xlink:href="#DejaVuSans-46" x="777.583984"/>
      <use xlink:href="#DejaVuSans-20" x="835.103516"/>
      <use xlink:href="#DejaVuSans-47" x="866.890625"/>
      <use xlink:href="#DejaVuSans-4f" x="944.380859"/>
      <use xlink:href="#DejaVuSans-20" x="1023.091797"/>
      <use xlink:href="#DejaVuSans-53" x="1054.878906"/>
      <use xlink:href="#DejaVuSans-63" x="1118.355469"/>
      <use xlink:href="#DejaVuSans-6f" x="1173.335938"/>
      <use xlink:href="#DejaVuSans-72" x="1234.517578"/>
      <use xlink:href="#DejaVuSans-65" x="1273.380859"/>
      <use xlink:href="#DejaVuSans-73" x="1334.904297"/>
     </g>
    </g>
   </g>
   <g id="line2d_13">
    <path d="M 47.765 157.613545 
L 65.4711 151.555909 
L 83.1772 154.64132 
L 100.8833 153.024894 
L 118.5894 149.498834 
L 136.2955 149.719428 
L 154.0016 147.209485 
L 171.7077 147.501113 
L 189.4138 143.383714 
L 207.1199 145.818269 
L 224.826 141.72889 
L 242.5321 140.514349 
L 260.2382 140.351289 
L 277.9443 133.583826 
L 295.6504 134.358845 
L 313.3565 132.306809 
L 331.0626 129.515233 
L 348.7687 130.083907 
L 366.4748 126.771583 
L 384.1809 125.423806 
L 401.887 122.778174 
L 419.5931 120.705278 
L 437.2992 117.902814 
L 455.0053 115.677069 
L 472.7114 114.964112 
L 490.4175 111.416329 
L 508.1236 112.369973 
L 525.8297 110.123549 
L 543.5358 107.65662 
L 561.2419 109.596413 
L 578.948 105.82661 
L 596.6541 100.469363 
L 614.3602 99.276328 
L 632.0663 102.56954 
L 649.7724 97.573166 
L 667.4785 98.533467 
L 685.1846 96.700281 
L 702.8907 95.45315 
L 720.5968 96.513044 
L 738.3029 94.418288 
L 756.009 91.835848 
L 773.7151 91.93757 
L 791.4212 89.106322 
L 809.1273 86.461828 
L 826.8334 87.195172 
L 844.5395 85.393535 
L 862.2456 81.299132 
L 879.9517 83.006164 
L 897.6578 80.679292 
L 915.3639 77.583631 
L 933.07 79.509435 
" clip-path="url(#pda18a1dd45)" style="fill: none; stroke: #1f77b4; stroke-width: 1.5; stroke-linecap: square"/>
   </g>
   <g id="line2d_14">
    <path d="M 47.765 405.307373 
L 65.4711 377.122201 
L 83.1772 407.966426 
L 100.8833 384.732614 
L 118.5894 401.942479 
L 136.2955 369.936117 
L 154.0016 371.394598 
L 171.7077 368.316297 
L 189.4138 357.096957 
L 207.1199 354.165722 
L 224.826 374.805007 
L 242.5321 356.134247 
L 260.2382 334.049382 
L 277.9443 352.444366 
L 295.6504 339.788572 
L 313.3565 340.55397 
L 331.0626 334.452756 
L 348.7687 347.948005 
L 366.4748 331.941861 
L 384.1809 336.246256 
L 401.887 324.138699 
L 419.5931 320.073255 
L 437.2992 284.211161 
L 455.0053 345.455751 
L 472.7114 333.448291 
L 490.4175 319.219929 
L 508.1236 305.294522 
L 525.8297 325.459711 
L 543.5358 314.05129 
L 561.2419 304.905955 
L 578.948 299.023702 
L 596.6541 297.40527 
L 614.3602 282.842741 
L 632.0663 288.84744 
L 649.7724 284.314243 
L 667.4785 307.041231 
L 685.1846 289.978902 
L 702.8907 313.251166 
L 720.5968 277.841952 
L 738.3029 256.67172 
L 756.009 268.162652 
L 773.7151 297.232919 
L 791.4212 283.047714 
L 809.1273 278.410493 
L 826.8334 281.814329 
L 844.5395 275.860156 
L 862.2456 256.847242 
L 879.9517 258.429978 
L 897.6578 273.462452 
L 915.3639 217.638126 
L 933.07 264.314522 
" clip-path="url(#pda18a1dd45)" style="fill: none; stroke: #ff7f0e; stroke-width: 1.5; stroke-linecap: square"/>
   </g>
   <g id="line2d_15">
    <path d="M 47.765 170.899484 
L 65.4711 161.985785 
L 83.1772 159.055289 
L 100.8833 157.776218 
L 118.5894 148.582391 
L 136.2955 150.022393 
L 154.0016 151.063501 
L 171.7077 148.566251 
L 189.4138 141.369901 
L 207.1199 134.794127 
L 224.826 131.636126 
L 242.5321 131.787361 
L 260.2382 130.468402 
L 277.9443 129.265816 
L 295.6504 127.735188 
L 313.3565 126.189883 
L 331.0626 124.417992 
L 348.7687 121.54732 
L 366.4748 121.617787 
L 384.1809 119.517773 
L 401.887 118.121148 
L 419.5931 114.311234 
L 437.2992 116.066581 
L 455.0053 120.252796 
L 472.7114 106.880133 
L 490.4175 111.514413 
L 508.1236 102.181174 
L 525.8297 99.959274 
L 543.5358 103.25666 
L 561.2419 102.662337 
L 578.948 103.501575 
L 596.6541 107.112212 
L 614.3602 107.724263 
L 632.0663 106.069163 
L 649.7724 108.779694 
L 667.4785 108.232085 
L 685.1846 114.918503 
L 702.8907 113.140807 
L 720.5968 102.170807 
L 738.3029 100.608797 
L 756.009 110.73137 
L 773.7151 113.654273 
L 791.4212 108.504982 
L 809.1273 109.36399 
L 826.8334 118.053173 
L 844.5395 114.468864 
L 862.2456 95.643106 
L 879.9517 86.925433 
L 897.6578 94.87267 
L 915.3639 96.843946 
L 933.07 82.413132 
" clip-path="url(#pda18a1dd45)" style="fill: none; stroke: #2ca02c; stroke-width: 1.5; stroke-linecap: square"/>
   </g>
   <g id="line2d_16">
    <path d="M 47.765 162.288255 
L 65.4711 153.61915 
L 83.1772 152.555486 
L 100.8833 157.362166 
L 118.5894 148.874964 
L 136.2955 145.886289 
L 154.0016 147.005023 
L 171.7077 144.649085 
L 189.4138 142.956154 
L 207.1199 142.838589 
L 224.826 142.77691 
L 242.5321 140.079046 
L 260.2382 139.248149 
L 277.9443 134.986345 
L 295.6504 137.449617 
L 313.3565 137.308008 
L 331.0626 133.705154 
L 348.7687 136.98478 
L 366.4748 131.506894 
L 384.1809 128.424319 
L 401.887 128.648616 
L 419.5931 131.605931 
L 437.2992 123.963146 
L 455.0053 130.091408 
L 472.7114 133.167473 
L 490.4175 117.815329 
L 508.1236 120.058059 
L 525.8297 122.077898 
L 543.5358 127.798758 
L 561.2419 133.050519 
L 578.948 132.30718 
L 596.6541 133.742108 
L 614.3602 145.817675 
L 632.0663 139.191284 
L 649.7724 124.60373 
L 667.4785 124.64048 
L 685.1846 124.54491 
L 702.8907 118.52118 
L 720.5968 111.766394 
L 738.3029 99.09202 
L 756.009 103.991152 
L 773.7151 96.81219 
L 791.4212 99.029312 
L 809.1273 92.301091 
L 826.8334 91.948296 
L 844.5395 90.178199 
L 862.2456 90.084281 
L 879.9517 85.645234 
L 897.6578 81.853804 
L 915.3639 79.932668 
L 933.07 78.032016 
" clip-path="url(#pda18a1dd45)" style="fill: none; stroke: #d62728; stroke-width: 1.5; stroke-linecap: square"/>
   </g>
   <g id="line2d_17">
    <path d="M 47.765 172.552981 
L 65.4711 173.483366 
L 83.1772 166.642561 
L 100.8833 169.969744 
L 118.5894 165.803194 
L 136.2955 166.299943 
L 154.0016 157.201339 
L 171.7077 158.072026 
L 189.4138 157.094403 
L 207.1199 157.030491 
L 224.826 155.005478 
L 242.5321 151.488343 
L 260.2382 158.23768 
L 277.9443 153.187117 
L 295.6504 159.018236 
L 313.3565 150.98552 
L 331.0626 157.720587 
L 348.7687 154.205793 
L 366.4748 143.32512 
L 384.1809 140.353051 
L 401.887 138.479548 
L 419.5931 135.798067 
L 437.2992 139.869226 
L 455.0053 140.913763 
L 472.7114 144.49631 
L 490.4175 143.466659 
L 508.1236 139.588641 
L 525.8297 132.573357 
L 543.5358 135.176156 
L 561.2419 125.40729 
L 578.948 124.681679 
L 596.6541 121.886885 
L 614.3602 126.393868 
L 632.0663 125.037645 
L 649.7724 118.448275 
L 667.4785 123.373951 
L 685.1846 116.107488 
L 702.8907 115.434955 
L 720.5968 117.839958 
L 738.3029 116.592914 
L 756.009 115.005306 
L 773.7151 113.502179 
L 791.4212 116.532823 
L 809.1273 107.923063 
L 826.8334 108.201451 
L 844.5395 105.091687 
L 862.2456 103.335099 
L 879.9517 97.103346 
L 897.6578 96.111555 
L 915.3639 94.841543 
L 933.07 92.713453 
" clip-path="url(#pda18a1dd45)" style="fill: none; stroke: #9467bd; stroke-width: 1.5; stroke-linecap: square"/>
   </g>
   <g id="line2d_18">
    <path d="M 47.765 179.904774 
L 65.4711 183.276996 
L 83.1772 175.810795 
L 100.8833 172.222273 
L 118.5894 173.579703 
L 136.2955 163.00118 
L 154.0016 163.227395 
L 171.7077 170.370928 
L 189.4138 173.155558 
L 207.1199 165.618939 
L 224.826 158.86057 
L 242.5321 160.131365 
L 260.2382 152.437287 
L 277.9443 152.286514 
L 295.6504 149.600142 
L 313.3565 147.655537 
L 331.0626 142.083596 
L 348.7687 141.161927 
L 366.4748 135.413347 
L 384.1809 134.815262 
L 401.887 129.480508 
L 419.5931 124.404392 
L 437.2992 122.862046 
L 455.0053 133.586771 
L 472.7114 122.475904 
L 490.4175 142.374351 
L 508.1236 135.962876 
L 525.8297 130.08317 
L 543.5358 123.159386 
L 561.2419 120.787477 
L 578.948 121.864152 
L 596.6541 124.756712 
L 614.3602 128.606067 
L 632.0663 117.56719 
L 649.7724 111.398617 
L 667.4785 106.764684 
L 685.1846 105.512787 
L 702.8907 106.580837 
L 720.5968 106.063459 
L 738.3029 106.780915 
L 756.009 104.067271 
L 773.7151 96.518388 
L 791.4212 97.06687 
L 809.1273 101.571153 
L 826.8334 89.470531 
L 844.5395 96.213547 
L 862.2456 91.98736 
L 879.9517 83.691756 
L 897.6578 83.25457 
L 915.3639 81.013731 
L 933.07 87.876115 
" clip-path="url(#pda18a1dd45)" style="fill: none; stroke: #8c564b; stroke-width: 1.5; stroke-linecap: square"/>
   </g>
   <g id="line2d_19">
    <path d="M 47.765 194.743228 
L 65.4711 187.004326 
L 83.1772 182.710984 
L 100.8833 182.167314 
L 118.5894 176.297887 
L 136.2955 170.920414 
L 154.0016 161.924106 
L 171.7077 157.709986 
L 189.4138 156.647658 
L 207.1199 153.274734 
L 224.826 151.838155 
L 242.5321 154.391966 
L 260.2382 154.603895 
L 277.9443 153.304234 
L 295.6504 151.710095 
L 313.3565 146.70899 
L 331.0626 141.076733 
L 348.7687 141.43513 
L 366.4748 146.432912 
L 384.1809 142.83497 
L 401.887 145.082451 
L 419.5931 136.202113 
L 437.2992 137.520871 
L 455.0053 138.892778 
L 472.7114 142.173113 
L 490.4175 134.470692 
L 508.1236 143.678988 
L 525.8297 149.620917 
L 543.5358 136.133925 
L 561.2419 127.786078 
L 578.948 126.434646 
L 596.6541 129.281582 
L 614.3602 127.965181 
L 632.0663 114.373889 
L 649.7724 115.500838 
L 667.4785 114.360786 
L 685.1846 107.522089 
L 702.8907 104.461382 
L 720.5968 99.40615 
L 738.3029 98.793616 
L 756.009 96.71592 
L 773.7151 94.365537 
L 791.4212 93.579407 
L 809.1273 88.42742 
L 826.8334 92.894003 
L 844.5395 96.51065 
L 862.2456 85.069985 
L 879.9517 85.368627 
L 897.6578 92.543876 
L 915.3639 92.421674 
L 933.07 95.409138 
" clip-path="url(#pda18a1dd45)" style="fill: none; stroke: #e377c2; stroke-width: 1.5; stroke-linecap: square"/>
   </g>
   <g id="line2d_20">
    <path d="M 47.765 177.514106 
L 65.4711 168.750153 
L 83.1772 167.878405 
L 100.8833 159.273355 
L 118.5894 158.776235 
L 136.2955 161.464801 
L 154.0016 159.560662 
L 171.7077 157.014679 
L 189.4138 153.720688 
L 207.1199 148.281978 
L 224.826 145.762066 
L 242.5321 148.055372 
L 260.2382 149.081251 
L 277.9443 145.20826 
L 295.6504 148.855522 
L 313.3565 153.061093 
L 331.0626 153.983314 
L 348.7687 147.653427 
L 366.4748 155.786785 
L 384.1809 156.025531 
L 401.887 153.872765 
L 419.5931 148.338338 
L 437.2992 139.946451 
L 455.0053 140.633076 
L 472.7114 134.849158 
L 490.4175 134.795966 
L 508.1236 123.138927 
L 525.8297 127.525229 
L 543.5358 122.15032 
L 561.2419 123.388914 
L 578.948 122.491776 
L 596.6541 129.096392 
L 614.3602 120.762727 
L 632.0663 119.127672 
L 649.7724 119.470036 
L 667.4785 111.569043 
L 685.1846 110.973688 
L 702.8907 113.144794 
L 720.5968 113.143595 
L 738.3029 113.43525 
L 756.009 99.099294 
L 773.7151 97.714919 
L 791.4212 97.453832 
L 809.1273 100.102649 
L 826.8334 102.070315 
L 844.5395 107.038008 
L 862.2456 96.083899 
L 879.9517 97.590726 
L 897.6578 97.124491 
L 915.3639 92.915014 
L 933.07 96.664694 
" clip-path="url(#pda18a1dd45)" style="fill: none; stroke: #7f7f7f; stroke-width: 1.5; stroke-linecap: square"/>
   </g>
   <g id="line2d_21">
    <path d="M 47.765 170.33673 
L 65.4711 167.740618 
L 83.1772 166.13101 
L 100.8833 170.89479 
L 118.5894 168.577853 
L 136.2955 169.61639 
L 154.0016 166.333477 
L 171.7077 163.807564 
L 189.4138 163.736028 
L 207.1199 155.010856 
L 224.826 157.075589 
L 242.5321 151.483788 
L 260.2382 144.622195 
L 277.9443 140.237906 
L 295.6504 136.791487 
L 313.3565 142.38941 
L 331.0626 138.292057 
L 348.7687 128.113316 
L 366.4748 134.06888 
L 384.1809 131.87333 
L 401.887 131.017428 
L 419.5931 136.160716 
L 437.2992 136.608956 
L 455.0053 130.855129 
L 472.7114 129.847412 
L 490.4175 124.761324 
L 508.1236 116.962283 
L 525.8297 114.809221 
L 543.5358 111.36755 
L 561.2419 107.590359 
L 578.948 102.547425 
L 596.6541 99.619506 
L 614.3602 100.396746 
L 632.0663 95.661372 
L 649.7724 92.383702 
L 667.4785 99.098604 
L 685.1846 92.075584 
L 702.8907 95.43993 
L 720.5968 101.762182 
L 738.3029 107.512186 
L 756.009 105.067529 
L 773.7151 105.613267 
L 791.4212 96.460479 
L 809.1273 95.448675 
L 826.8334 100.275095 
L 844.5395 97.203053 
L 862.2456 94.744892 
L 879.9517 87.07562 
L 897.6578 94.717194 
L 915.3639 82.504239 
L 933.07 82.795593 
" clip-path="url(#pda18a1dd45)" style="fill: none; stroke: #bcbd22; stroke-width: 1.5; stroke-linecap: square"/>
   </g>
   <g id="line2d_22">
    <path d="M 47.765 164.397058 
L 65.4711 161.236052 
L 83.1772 167.677796 
L 100.8833 164.391958 
L 118.5894 162.271781 
L 136.2955 157.441608 
L 154.0016 150.527897 
L 171.7077 153.847002 
L 189.4138 151.980131 
L 207.1199 141.91147 
L 224.826 141.310013 
L 242.5321 148.858204 
L 260.2382 136.691081 
L 277.9443 134.368007 
L 295.6504 134.884785 
L 313.3565 126.924681 
L 331.0626 124.079845 
L 348.7687 121.551465 
L 366.4748 122.36439 
L 384.1809 126.568171 
L 401.887 126.148625 
L 419.5931 126.676758 
L 437.2992 122.147889 
L 455.0053 121.743326 
L 472.7114 120.357535 
L 490.4175 121.665861 
L 508.1236 115.00546 
L 525.8297 117.757298 
L 543.5358 118.794914 
L 561.2419 111.9345 
L 578.948 109.967294 
L 596.6541 105.68306 
L 614.3602 99.653069 
L 632.0663 104.210967 
L 649.7724 99.283169 
L 667.4785 97.114751 
L 685.1846 100.869415 
L 702.8907 107.270471 
L 720.5968 102.19684 
L 738.3029 102.029144 
L 756.009 100.65333 
L 773.7151 95.558472 
L 791.4212 95.364751 
L 809.1273 101.547069 
L 826.8334 99.108111 
L 844.5395 82.267957 
L 862.2456 102.570878 
L 879.9517 95.145256 
L 897.6578 110.767262 
L 915.3639 108.977444 
L 933.07 116.304659 
" clip-path="url(#pda18a1dd45)" style="fill: none; stroke: #17becf; stroke-width: 1.5; stroke-linecap: square"/>
   </g>
   <g id="line2d_23">
    <path d="M 47.765 229.718688 
L 65.4711 232.228583 
L 83.1772 224.142627 
L 100.8833 222.501959 
L 118.5894 213.606274 
L 136.2955 203.42483 
L 154.0016 198.083524 
L 171.7077 190.640773 
L 189.4138 193.193694 
L 207.1199 177.721141 
L 224.826 175.9738 
L 242.5321 179.538388 
L 260.2382 182.561557 
L 277.9443 171.237004 
L 295.6504 174.56484 
L 313.3565 175.9973 
L 331.0626 169.350784 
L 348.7687 168.461319 
L 366.4748 164.454267 
L 384.1809 144.949917 
L 401.887 141.324343 
L 419.5931 145.260885 
L 437.2992 130.185925 
L 455.0053 126.896603 
L 472.7114 127.669205 
L 490.4175 132.147983 
L 508.1236 124.710369 
L 525.8297 124.248368 
L 543.5358 125.333023 
L 561.2419 123.163686 
L 578.948 121.150191 
L 596.6541 117.198557 
L 614.3602 114.744845 
L 632.0663 112.582679 
L 649.7724 111.170307 
L 667.4785 107.097017 
L 685.1846 102.568127 
L 702.8907 112.980392 
L 720.5968 116.085175 
L 738.3029 114.910772 
L 756.009 109.654584 
L 773.7151 103.703765 
L 791.4212 99.453333 
L 809.1273 95.570074 
L 826.8334 103.662398 
L 844.5395 103.423105 
L 862.2456 102.749895 
L 879.9517 100.713391 
L 897.6578 98.445554 
L 915.3639 99.907308 
L 933.07 96.536453 
" clip-path="url(#pda18a1dd45)" style="fill: none; stroke: #9edae5; stroke-width: 1.5; stroke-linecap: square"/>
   </g>
   <g id="patch_3">
    <path d="M 47.765 606.04 
L 47.765 30.748 
" style="fill: none; stroke: #000000; stroke-width: 0.8; stroke-linejoin: miter; stroke-linecap: square"/>
   </g>
   <g id="patch_4">
    <path d="M 933.07 606.04 
L 933.07 30.748 
" style="fill: none; stroke: #000000; stroke-width: 0.8; stroke-linejoin: miter; stroke-linecap: square"/>
   </g>
   <g id="patch_5">
    <path d="M 47.765 606.04 
L 933.07 606.04 
" style="fill: none; stroke: #000000; stroke-width: 0.8; stroke-linejoin: miter; stroke-linecap: square"/>
   </g>
   <g id="patch_6">
    <path d="M 47.765 30.748 
L 933.07 30.748 
" style="fill: none; stroke: #000000; stroke-width: 0.8; stroke-linejoin: miter; stroke-linecap: square"/>
   </g>
   <g id="text_15">
    <!-- Aggregated NMF GO Scores by Number of Baits for Each Method -->
    <g transform="translate(296.338125 24.748) scale(0.12 -0.12)">
     <defs>
      <path id="DejaVuSans-79" d="M 2059 -325 
Q 1816 -950 1584 -1140 
Q 1353 -1331 966 -1331 
L 506 -1331 
L 506 -850 
L 844 -850 
Q 1081 -850 1212 -737 
Q 1344 -625 1503 -206 
L 1606 56 
L 191 3500 
L 800 3500 
L 1894 763 
L 2988 3500 
L 3597 3500 
L 2059 -325 
z
" transform="scale(0.015625)"/>
      <path id="DejaVuSans-45" d="M 628 4666 
L 3578 4666 
L 3578 4134 
L 1259 4134 
L 1259 2753 
L 3481 2753 
L 3481 2222 
L 1259 2222 
L 1259 531 
L 3634 531 
L 3634 0 
L 628 0 
L 628 4666 
z
" transform="scale(0.015625)"/>
      <path id="DejaVuSans-68" d="M 3513 2113 
L 3513 0 
L 2938 0 
L 2938 2094 
Q 2938 2591 2744 2837 
Q 2550 3084 2163 3084 
Q 1697 3084 1428 2787 
Q 1159 2491 1159 1978 
L 1159 0 
L 581 0 
L 581 4863 
L 1159 4863 
L 1159 2956 
Q 1366 3272 1645 3428 
Q 1925 3584 2291 3584 
Q 2894 3584 3203 3211 
Q 3513 2838 3513 2113 
z
" transform="scale(0.015625)"/>
     </defs>
     <use xlink:href="#DejaVuSans-41"/>
     <use xlink:href="#DejaVuSans-67" x="68.408203"/>
     <use xlink:href="#DejaVuSans-67" x="131.884766"/>
     <use xlink:href="#DejaVuSans-72" x="195.361328"/>
     <use xlink:href="#DejaVuSans-65" x="234.224609"/>
     <use xlink:href="#DejaVuSans-67" x="295.748047"/>
     <use xlink:href="#DejaVuSans-61" x="359.224609"/>
     <use xlink:href="#DejaVuSans-74" x="420.503906"/>
     <use xlink:href="#DejaVuSans-65" x="459.712891"/>
     <use xlink:href="#DejaVuSans-64" x="521.236328"/>
     <use xlink:href="#DejaVuSans-20" x="584.712891"/>
     <use xlink:href="#DejaVuSans-4e" x="616.5"/>
     <use xlink:href="#DejaVuSans-4d" x="691.304688"/>
     <use xlink:href="#DejaVuSans-46" x="777.583984"/>
     <use xlink:href="#DejaVuSans-20" x="835.103516"/>
     <use xlink:href="#DejaVuSans-47" x="866.890625"/>
     <use xlink:href="#DejaVuSans-4f" x="944.380859"/>
     <use xlink:href="#DejaVuSans-20" x="1023.091797"/>
     <use xlink:href="#DejaVuSans-53" x="1054.878906"/>
     <use xlink:href="#DejaVuSans-63" x="1118.355469"/>
     <use xlink:href="#DejaVuSans-6f" x="1173.335938"/>
     <use xlink:href="#DejaVuSans-72" x="1234.517578"/>
     <use xlink:href="#DejaVuSans-65" x="1273.380859"/>
     <use xlink:href="#DejaVuSans-73" x="1334.904297"/>
     <use xlink:href="#DejaVuSans-20" x="1387.003906"/>
     <use xlink:href="#DejaVuSans-62" x="1418.791016"/>
     <use xlink:href="#DejaVuSans-79" x="1482.267578"/>
     <use xlink:href="#DejaVuSans-20" x="1541.447266"/>
     <use xlink:href="#DejaVuSans-4e" x="1573.234375"/>
     <use xlink:href="#DejaVuSans-75" x="1648.039062"/>
     <use xlink:href="#DejaVuSans-6d" x="1711.417969"/>
     <use xlink:href="#DejaVuSans-62" x="1808.830078"/>
     <use xlink:href="#DejaVuSans-65" x="1872.306641"/>
     <use xlink:href="#DejaVuSans-72" x="1933.830078"/>
     <use xlink:href="#DejaVuSans-20" x="1974.943359"/>
     <use xlink:href="#DejaVuSans-6f" x="2006.730469"/>
     <use xlink:href="#DejaVuSans-66" x="2067.912109"/>
     <use xlink:href="#DejaVuSans-20" x="2103.117188"/>
     <use xlink:href="#DejaVuSans-42" x="2134.904297"/>
     <use xlink:href="#DejaVuSans-61" x="2203.507812"/>
     <use xlink:href="#DejaVuSans-69" x="2264.787109"/>
     <use xlink:href="#DejaVuSans-74" x="2292.570312"/>
     <use xlink:href="#DejaVuSans-73" x="2331.779297"/>
     <use xlink:href="#DejaVuSans-20" x="2383.878906"/>
     <use xlink:href="#DejaVuSans-66" x="2415.666016"/>
     <use xlink:href="#DejaVuSans-6f" x="2450.871094"/>
     <use xlink:href="#DejaVuSans-72" x="2512.052734"/>
     <use xlink:href="#DejaVuSans-20" x="2553.166016"/>
     <use xlink:href="#DejaVuSans-45" x="2584.953125"/>
     <use xlink:href="#DejaVuSans-61" x="2648.136719"/>
     <use xlink:href="#DejaVuSans-63" x="2709.416016"/>
     <use xlink:href="#DejaVuSans-68" x="2764.396484"/>
     <use xlink:href="#DejaVuSans-20" x="2827.775391"/>
     <use xlink:href="#DejaVuSans-4d" x="2859.5625"/>
     <use xlink:href="#DejaVuSans-65" x="2945.841797"/>
     <use xlink:href="#DejaVuSans-74" x="3007.365234"/>
     <use xlink:href="#DejaVuSans-68" x="3046.574219"/>
     <use xlink:href="#DejaVuSans-6f" x="3109.953125"/>
     <use xlink:href="#DejaVuSans-64" x="3171.134766"/>
    </g>
   </g>
   <g id="legend_1">
    <g id="patch_7">
     <path d="M 940.07 172.555275 
L 1067.18875 172.555275 
Q 1069.18875 172.555275 1069.18875 170.555275 
L 1069.18875 8.9834 
Q 1069.18875 6.9834 1067.18875 6.9834 
L 940.07 6.9834 
Q 938.07 6.9834 938.07 8.9834 
L 938.07 170.555275 
Q 938.07 172.555275 940.07 172.555275 
z
" style="fill: #ffffff; opacity: 0.8; stroke: #cccccc; stroke-linejoin: miter"/>
    </g>
    <g id="line2d_24">
     <path d="M 942.07 15.081838 
L 952.07 15.081838 
L 962.07 15.081838 
" style="fill: none; stroke: #1f77b4; stroke-width: 1.5; stroke-linecap: square"/>
    </g>
    <g id="text_16">
     <!-- GA -->
     <g transform="translate(970.07 18.581838) scale(0.1 -0.1)">
      <use xlink:href="#DejaVuSans-47"/>
      <use xlink:href="#DejaVuSans-41" x="77.490234"/>
     </g>
    </g>
    <g id="line2d_25">
     <path d="M 942.07 29.759963 
L 952.07 29.759963 
L 962.07 29.759963 
" style="fill: none; stroke: #ff7f0e; stroke-width: 1.5; stroke-linecap: square"/>
    </g>
    <g id="text_17">
     <!-- Random -->
     <g transform="translate(970.07 33.259963) scale(0.1 -0.1)">
      <defs>
       <path id="DejaVuSans-52" d="M 2841 2188 
Q 3044 2119 3236 1894 
Q 3428 1669 3622 1275 
L 4263 0 
L 3584 0 
L 2988 1197 
Q 2756 1666 2539 1819 
Q 2322 1972 1947 1972 
L 1259 1972 
L 1259 0 
L 628 0 
L 628 4666 
L 2053 4666 
Q 2853 4666 3247 4331 
Q 3641 3997 3641 3322 
Q 3641 2881 3436 2590 
Q 3231 2300 2841 2188 
z
M 1259 4147 
L 1259 2491 
L 2053 2491 
Q 2509 2491 2742 2702 
Q 2975 2913 2975 3322 
Q 2975 3731 2742 3939 
Q 2509 4147 2053 4147 
L 1259 4147 
z
" transform="scale(0.015625)"/>
       <path id="DejaVuSans-6e" d="M 3513 2113 
L 3513 0 
L 2938 0 
L 2938 2094 
Q 2938 2591 2744 2837 
Q 2550 3084 2163 3084 
Q 1697 3084 1428 2787 
Q 1159 2491 1159 1978 
L 1159 0 
L 581 0 
L 581 3500 
L 1159 3500 
L 1159 2956 
Q 1366 3272 1645 3428 
Q 1925 3584 2291 3584 
Q 2894 3584 3203 3211 
Q 3513 2838 3513 2113 
z
" transform="scale(0.015625)"/>
      </defs>
      <use xlink:href="#DejaVuSans-52"/>
      <use xlink:href="#DejaVuSans-61" x="67.232422"/>
      <use xlink:href="#DejaVuSans-6e" x="128.511719"/>
      <use xlink:href="#DejaVuSans-64" x="191.890625"/>
      <use xlink:href="#DejaVuSans-6f" x="255.367188"/>
      <use xlink:href="#DejaVuSans-6d" x="316.548828"/>
     </g>
    </g>
    <g id="line2d_26">
     <path d="M 942.07 44.438088 
L 952.07 44.438088 
L 962.07 44.438088 
" style="fill: none; stroke: #2ca02c; stroke-width: 1.5; stroke-linecap: square"/>
    </g>
    <g id="text_18">
     <!-- chi_2 -->
     <g transform="translate(970.07 47.938088) scale(0.1 -0.1)">
      <defs>
       <path id="DejaVuSans-5f" d="M 3263 -1063 
L 3263 -1509 
L -63 -1509 
L -63 -1063 
L 3263 -1063 
z
" transform="scale(0.015625)"/>
      </defs>
      <use xlink:href="#DejaVuSans-63"/>
      <use xlink:href="#DejaVuSans-68" x="54.980469"/>
      <use xlink:href="#DejaVuSans-69" x="118.359375"/>
      <use xlink:href="#DejaVuSans-5f" x="146.142578"/>
      <use xlink:href="#DejaVuSans-32" x="196.142578"/>
     </g>
    </g>
    <g id="line2d_27">
     <path d="M 942.07 59.394338 
L 952.07 59.394338 
L 962.07 59.394338 
" style="fill: none; stroke: #d62728; stroke-width: 1.5; stroke-linecap: square"/>
    </g>
    <g id="text_19">
     <!-- f_classif -->
     <g transform="translate(970.07 62.894338) scale(0.1 -0.1)">
      <defs>
       <path id="DejaVuSans-6c" d="M 603 4863 
L 1178 4863 
L 1178 0 
L 603 0 
L 603 4863 
z
" transform="scale(0.015625)"/>
      </defs>
      <use xlink:href="#DejaVuSans-66"/>
      <use xlink:href="#DejaVuSans-5f" x="35.205078"/>
      <use xlink:href="#DejaVuSans-63" x="85.205078"/>
      <use xlink:href="#DejaVuSans-6c" x="140.185547"/>
      <use xlink:href="#DejaVuSans-61" x="167.96875"/>
      <use xlink:href="#DejaVuSans-73" x="229.248047"/>
      <use xlink:href="#DejaVuSans-73" x="281.347656"/>
      <use xlink:href="#DejaVuSans-69" x="333.447266"/>
      <use xlink:href="#DejaVuSans-66" x="361.230469"/>
     </g>
    </g>
    <g id="line2d_28">
     <path d="M 942.07 74.350588 
L 952.07 74.350588 
L 962.07 74.350588 
" style="fill: none; stroke: #9467bd; stroke-width: 1.5; stroke-linecap: square"/>
    </g>
    <g id="text_20">
     <!-- mutual_info_classif -->
     <g transform="translate(970.07 77.850588) scale(0.1 -0.1)">
      <use xlink:href="#DejaVuSans-6d"/>
      <use xlink:href="#DejaVuSans-75" x="97.412109"/>
      <use xlink:href="#DejaVuSans-74" x="160.791016"/>
      <use xlink:href="#DejaVuSans-75" x="200"/>
      <use xlink:href="#DejaVuSans-61" x="263.378906"/>
      <use xlink:href="#DejaVuSans-6c" x="324.658203"/>
      <use xlink:href="#DejaVuSans-5f" x="352.441406"/>
      <use xlink:href="#DejaVuSans-69" x="402.441406"/>
      <use xlink:href="#DejaVuSans-6e" x="430.224609"/>
      <use xlink:href="#DejaVuSans-66" x="493.603516"/>
      <use xlink:href="#DejaVuSans-6f" x="528.808594"/>
      <use xlink:href="#DejaVuSans-5f" x="589.990234"/>
      <use xlink:href="#DejaVuSans-63" x="639.990234"/>
      <use xlink:href="#DejaVuSans-6c" x="694.970703"/>
      <use xlink:href="#DejaVuSans-61" x="722.753906"/>
      <use xlink:href="#DejaVuSans-73" x="784.033203"/>
      <use xlink:href="#DejaVuSans-73" x="836.132812"/>
      <use xlink:href="#DejaVuSans-69" x="888.232422"/>
      <use xlink:href="#DejaVuSans-66" x="916.015625"/>
     </g>
    </g>
    <g id="line2d_29">
     <path d="M 942.07 89.306838 
L 952.07 89.306838 
L 962.07 89.306838 
" style="fill: none; stroke: #8c564b; stroke-width: 1.5; stroke-linecap: square"/>
    </g>
    <g id="text_21">
     <!-- lasso -->
     <g transform="translate(970.07 92.806838) scale(0.1 -0.1)">
      <use xlink:href="#DejaVuSans-6c"/>
      <use xlink:href="#DejaVuSans-61" x="27.783203"/>
      <use xlink:href="#DejaVuSans-73" x="89.0625"/>
      <use xlink:href="#DejaVuSans-73" x="141.162109"/>
      <use xlink:href="#DejaVuSans-6f" x="193.261719"/>
     </g>
    </g>
    <g id="line2d_30">
     <path d="M 942.07 103.984963 
L 952.07 103.984963 
L 962.07 103.984963 
" style="fill: none; stroke: #e377c2; stroke-width: 1.5; stroke-linecap: square"/>
    </g>
    <g id="text_22">
     <!-- ridge -->
     <g transform="translate(970.07 107.484963) scale(0.1 -0.1)">
      <use xlink:href="#DejaVuSans-72"/>
      <use xlink:href="#DejaVuSans-69" x="41.113281"/>
      <use xlink:href="#DejaVuSans-64" x="68.896484"/>
      <use xlink:href="#DejaVuSans-67" x="132.373047"/>
      <use xlink:href="#DejaVuSans-65" x="195.849609"/>
     </g>
    </g>
    <g id="line2d_31">
     <path d="M 942.07 118.663088 
L 952.07 118.663088 
L 962.07 118.663088 
" style="fill: none; stroke: #7f7f7f; stroke-width: 1.5; stroke-linecap: square"/>
    </g>
    <g id="text_23">
     <!-- elastic_net -->
     <g transform="translate(970.07 122.163088) scale(0.1 -0.1)">
      <use xlink:href="#DejaVuSans-65"/>
      <use xlink:href="#DejaVuSans-6c" x="61.523438"/>
      <use xlink:href="#DejaVuSans-61" x="89.306641"/>
      <use xlink:href="#DejaVuSans-73" x="150.585938"/>
      <use xlink:href="#DejaVuSans-74" x="202.685547"/>
      <use xlink:href="#DejaVuSans-69" x="241.894531"/>
      <use xlink:href="#DejaVuSans-63" x="269.677734"/>
      <use xlink:href="#DejaVuSans-5f" x="324.658203"/>
      <use xlink:href="#DejaVuSans-6e" x="374.658203"/>
      <use xlink:href="#DejaVuSans-65" x="438.037109"/>
      <use xlink:href="#DejaVuSans-74" x="499.560547"/>
     </g>
    </g>
    <g id="line2d_32">
     <path d="M 942.07 133.619338 
L 952.07 133.619338 
L 962.07 133.619338 
" style="fill: none; stroke: #bcbd22; stroke-width: 1.5; stroke-linecap: square"/>
    </g>
    <g id="text_24">
     <!-- rf -->
     <g transform="translate(970.07 137.119338) scale(0.1 -0.1)">
      <use xlink:href="#DejaVuSans-72"/>
      <use xlink:href="#DejaVuSans-66" x="41.113281"/>
     </g>
    </g>
    <g id="line2d_33">
     <path d="M 942.07 148.297463 
L 952.07 148.297463 
L 962.07 148.297463 
" style="fill: none; stroke: #17becf; stroke-width: 1.5; stroke-linecap: square"/>
    </g>
    <g id="text_25">
     <!-- gbm -->
     <g transform="translate(970.07 151.797463) scale(0.1 -0.1)">
      <use xlink:href="#DejaVuSans-67"/>
      <use xlink:href="#DejaVuSans-62" x="63.476562"/>
      <use xlink:href="#DejaVuSans-6d" x="126.953125"/>
     </g>
    </g>
    <g id="line2d_34">
     <path d="M 942.07 162.975588 
L 952.07 162.975588 
L 962.07 162.975588 
" style="fill: none; stroke: #9edae5; stroke-width: 1.5; stroke-linecap: square"/>
    </g>
    <g id="text_26">
     <!-- xgb -->
     <g transform="translate(970.07 166.475588) scale(0.1 -0.1)">
      <defs>
       <path id="DejaVuSans-78" d="M 3513 3500 
L 2247 1797 
L 3578 0 
L 2900 0 
L 1881 1375 
L 863 0 
L 184 0 
L 1544 1831 
L 300 3500 
L 978 3500 
L 1906 2253 
L 2834 3500 
L 3513 3500 
z
" transform="scale(0.015625)"/>
      </defs>
      <use xlink:href="#DejaVuSans-78"/>
      <use xlink:href="#DejaVuSans-67" x="59.179688"/>
      <use xlink:href="#DejaVuSans-62" x="122.65625"/>
     </g>
    </g>
   </g>
  </g>
 </g>
 <defs>
  <clipPath id="pda18a1dd45">
   <rect x="47.765" y="30.748" width="885.305" height="575.292"/>
  </clipPath>
 </defs>
</svg>
