<?xml version="1.0" encoding="utf-8" standalone="no"?>
<!DOCTYPE svg PUBLIC "-//W3C//DTD SVG 1.1//EN"
  "http://www.w3.org/Graphics/SVG/1.1/DTD/svg11.dtd">
<svg xmlns:xlink="http://www.w3.org/1999/xlink" width="1080pt" height="648pt" viewBox="0 0 1080 648" xmlns="http://www.w3.org/2000/svg" version="1.1">
 <metadata>
  <rdf:RDF xmlns:dc="http://purl.org/dc/elements/1.1/" xmlns:cc="http://creativecommons.org/ns#" xmlns:rdf="http://www.w3.org/1999/02/22-rdf-syntax-ns#">
   <cc:Work>
    <dc:type rdf:resource="http://purl.org/dc/dcmitype/StillImage"/>
    <dc:date>2024-04-04T23:59:50.495608</dc:date>
    <dc:format>image/svg+xml</dc:format>
    <dc:creator>
     <cc:Agent>
      <dc:title>Matplotlib v3.7.2, https://matplotlib.org/</dc:title>
     </cc:Agent>
    </dc:creator>
   </cc:Work>
  </rdf:RDF>
 </metadata>
 <defs>
  <style type="text/css">*{stroke-linejoin: round; stroke-linecap: butt}</style>
 </defs>
 <g id="figure_1">
  <g id="patch_1">
   <path d="M 0 648 
L 1080 648 
L 1080 0 
L 0 0 
z
" style="fill: #ffffff"/>
  </g>
  <g id="axes_1">
   <g id="patch_2">
    <path d="M 44.57 606.04 
L 933.07 606.04 
L 933.07 30.748 
L 44.57 30.748 
z
" style="fill: #ffffff"/>
   </g>
   <g id="PolyCollection_1">
    <defs>
     <path id="m8fd68408d7" d="M 44.57 -183.107944 
L 44.57 -127.157642 
L 62.34 -124.470716 
L 80.11 -121.760143 
L 97.88 -123.286538 
L 115.65 -118.54162 
L 133.42 -117.939853 
L 151.19 -111.6405 
L 168.96 -112.833156 
L 186.73 -108.030341 
L 204.5 -110.380877 
L 222.27 -107.381405 
L 240.04 -106.044804 
L 257.81 -101.257405 
L 275.58 -96.684658 
L 293.35 -97.019105 
L 311.12 -93.622987 
L 328.89 -92.037355 
L 346.66 -90.9544 
L 364.43 -89.258168 
L 382.2 -87.641534 
L 399.97 -86.779483 
L 417.74 -85.168207 
L 435.51 -85.588351 
L 453.28 -84.798196 
L 471.05 -84.745621 
L 488.82 -82.293341 
L 506.59 -81.693303 
L 524.36 -81.622995 
L 542.13 -83.327495 
L 559.9 -80.470129 
L 577.67 -80.682123 
L 595.44 -79.503309 
L 613.21 -78.094682 
L 630.98 -77.434794 
L 648.75 -80.886521 
L 666.52 -77.161626 
L 684.29 -77.12163 
L 702.06 -75.151685 
L 719.83 -74.781172 
L 737.6 -73.856524 
L 755.37 -72.438552 
L 773.14 -72.188962 
L 790.91 -72.706028 
L 808.68 -72.316526 
L 826.45 -71.879763 
L 844.22 -70.104075 
L 861.99 -69.899902 
L 879.76 -70.114759 
L 897.53 -72.998897 
L 915.3 -69.856844 
L 933.07 -68.109636 
L 933.07 -113.526936 
L 933.07 -113.526936 
L 915.3 -104.848901 
L 897.53 -97.770026 
L 879.76 -109.877613 
L 861.99 -109.556477 
L 844.22 -116.07157 
L 826.45 -105.809992 
L 808.68 -107.248569 
L 790.91 -107.470288 
L 773.14 -113.041722 
L 755.37 -110.111927 
L 737.6 -119.237397 
L 719.83 -108.79755 
L 702.06 -114.047553 
L 684.29 -117.676744 
L 666.52 -116.9533 
L 648.75 -123.737146 
L 630.98 -116.288509 
L 613.21 -118.036044 
L 595.44 -119.851669 
L 577.67 -123.685936 
L 559.9 -121.311388 
L 542.13 -125.558679 
L 524.36 -122.099515 
L 506.59 -121.897469 
L 488.82 -121.82273 
L 471.05 -127.161623 
L 453.28 -126.273831 
L 435.51 -126.73057 
L 417.74 -124.852151 
L 399.97 -129.869143 
L 382.2 -128.078612 
L 364.43 -130.855479 
L 346.66 -132.881343 
L 328.89 -132.698676 
L 311.12 -135.55102 
L 293.35 -142.83409 
L 275.58 -140.021153 
L 257.81 -149.562952 
L 240.04 -155.570037 
L 222.27 -160.808725 
L 204.5 -160.389919 
L 186.73 -165.134163 
L 168.96 -175.356255 
L 151.19 -174.950088 
L 133.42 -173.852752 
L 115.65 -178.589526 
L 97.88 -180.196846 
L 80.11 -179.890567 
L 62.34 -184.330928 
L 44.57 -183.107944 
z
" style="stroke: #1f77b4; stroke-opacity: 0.2"/>
    </defs>
    <g clip-path="url(#p2ecfdee794)">
     <use xlink:href="#m8fd68408d7" x="0" y="648" style="fill: #1f77b4; fill-opacity: 0.2; stroke: #1f77b4; stroke-opacity: 0.2"/>
    </g>
   </g>
   <g id="PolyCollection_2">
    <defs>
     <path id="m86c540f19d" d="M 44.57 -591.102364 
L 44.57 -466.116456 
L 62.34 -431.463212 
L 80.11 -452.679879 
L 97.88 -414.062932 
L 115.65 -450.432736 
L 133.42 -426.892423 
L 151.19 -399.366215 
L 168.96 -396.221677 
L 186.73 -392.76946 
L 204.5 -383.662668 
L 222.27 -402.357427 
L 240.04 -408.21029 
L 257.81 -355.545893 
L 275.58 -383.291314 
L 293.35 -343.885205 
L 311.12 -351.22204 
L 328.89 -370.625139 
L 346.66 -377.395461 
L 364.43 -364.668064 
L 382.2 -361.582133 
L 399.97 -341.600838 
L 417.74 -317.093811 
L 435.51 -252.168564 
L 453.28 -369.446992 
L 471.05 -312.331819 
L 488.82 -341.913249 
L 506.59 -321.036363 
L 524.36 -303.871821 
L 542.13 -315.049709 
L 559.9 -270.223639 
L 577.67 -282.710694 
L 595.44 -326.630208 
L 613.21 -274.046377 
L 630.98 -261.885106 
L 648.75 -235.422756 
L 666.52 -324.278678 
L 684.29 -255.917254 
L 702.06 -297.152683 
L 719.83 -237.005818 
L 737.6 -213.091197 
L 755.37 -237.773587 
L 773.14 -282.653288 
L 790.91 -264.109881 
L 808.68 -250.421398 
L 826.45 -240.454958 
L 844.22 -236.561413 
L 861.99 -221.681985 
L 879.76 -211.712365 
L 897.53 -223.78006 
L 915.3 -177.898743 
L 933.07 -207.957969 
L 933.07 -323.394987 
L 933.07 -323.394987 
L 915.3 -278.413249 
L 897.53 -340.283922 
L 879.76 -343.146634 
L 861.99 -304.438864 
L 844.22 -362.040577 
L 826.45 -381.400471 
L 808.68 -357.969191 
L 790.91 -334.795126 
L 773.14 -387.111536 
L 755.37 -351.042632 
L 737.6 -321.609943 
L 719.83 -360.309126 
L 702.06 -413.168831 
L 684.29 -393.222853 
L 666.52 -404.151095 
L 648.75 -382.582104 
L 630.98 -385.580083 
L 613.21 -402.815818 
L 595.44 -392.874637 
L 577.67 -373.587136 
L 559.9 -429.443646 
L 542.13 -415.292921 
L 524.36 -417.008437 
L 506.59 -420.189447 
L 488.82 -427.455005 
L 471.05 -444.834453 
L 453.28 -463.418937 
L 435.51 -392.686595 
L 417.74 -444.157565 
L 399.97 -414.644536 
L 382.2 -463.954666 
L 364.43 -445.235572 
L 346.66 -452.622036 
L 328.89 -480.208338 
L 311.12 -484.4422 
L 293.35 -483.291448 
L 275.58 -494.15565 
L 257.81 -484.722683 
L 240.04 -489.360027 
L 222.27 -526.838396 
L 204.5 -523.392773 
L 186.73 -490.096095 
L 168.96 -524.889944 
L 151.19 -521.186628 
L 133.42 -529.214482 
L 115.65 -556.677391 
L 97.88 -541.49381 
L 80.11 -554.034477 
L 62.34 -541.533787 
L 44.57 -591.102364 
z
" style="stroke: #ff7f0e; stroke-opacity: 0.2"/>
    </defs>
    <g clip-path="url(#p2ecfdee794)">
     <use xlink:href="#m86c540f19d" x="0" y="648" style="fill: #ff7f0e; fill-opacity: 0.2; stroke: #ff7f0e; stroke-opacity: 0.2"/>
    </g>
   </g>
   <g id="PolyCollection_3">
    <defs>
     <path id="md96b30b664" d="M 44.57 -167.751216 
L 44.57 -111.92926 
L 62.34 -110.103851 
L 80.11 -107.584859 
L 97.88 -105.004056 
L 115.65 -102.137731 
L 133.42 -101.494682 
L 151.19 -100.949528 
L 168.96 -101.457251 
L 186.73 -99.709548 
L 204.5 -100.33012 
L 222.27 -99.673504 
L 240.04 -98.498113 
L 257.81 -99.58862 
L 275.58 -99.458133 
L 293.35 -98.38005 
L 311.12 -96.407798 
L 328.89 -95.000906 
L 346.66 -93.676864 
L 364.43 -93.85389 
L 382.2 -92.504146 
L 399.97 -92.389393 
L 417.74 -91.612634 
L 435.51 -91.904068 
L 453.28 -90.32058 
L 471.05 -88.35922 
L 488.82 -88.03645 
L 506.59 -87.557693 
L 524.36 -85.754786 
L 542.13 -86.109894 
L 559.9 -85.977128 
L 577.67 -86.513899 
L 595.44 -83.678134 
L 613.21 -86.190433 
L 630.98 -84.111657 
L 648.75 -83.555814 
L 666.52 -83.303054 
L 684.29 -83.885907 
L 702.06 -82.017832 
L 719.83 -80.246701 
L 737.6 -80.110874 
L 755.37 -80.283509 
L 773.14 -82.853756 
L 790.91 -83.478055 
L 808.68 -79.828205 
L 826.45 -80.432257 
L 844.22 -79.00713 
L 861.99 -77.693118 
L 879.76 -76.428324 
L 897.53 -76.188352 
L 915.3 -77.840918 
L 933.07 -74.89716 
L 933.07 -132.75414 
L 933.07 -132.75414 
L 915.3 -133.30734 
L 897.53 -126.329231 
L 879.76 -129.842971 
L 861.99 -128.933006 
L 844.22 -129.869343 
L 826.45 -123.767337 
L 808.68 -126.079689 
L 790.91 -127.432443 
L 773.14 -128.82641 
L 755.37 -125.036154 
L 737.6 -124.411541 
L 719.83 -122.808891 
L 702.06 -125.120061 
L 684.29 -130.927843 
L 666.52 -126.34117 
L 648.75 -128.326195 
L 630.98 -133.961318 
L 613.21 -134.424334 
L 595.44 -135.605398 
L 577.67 -133.583108 
L 559.9 -132.207112 
L 542.13 -132.46192 
L 524.36 -131.83082 
L 506.59 -134.074499 
L 488.82 -130.321716 
L 471.05 -134.580203 
L 453.28 -133.863523 
L 435.51 -136.297087 
L 417.74 -137.330245 
L 399.97 -137.818967 
L 382.2 -139.156198 
L 364.43 -140.90312 
L 346.66 -142.075595 
L 328.89 -143.826999 
L 311.12 -145.326612 
L 293.35 -149.306597 
L 275.58 -150.225565 
L 257.81 -150.108747 
L 240.04 -148.950102 
L 222.27 -153.185504 
L 204.5 -151.463716 
L 186.73 -156.222242 
L 168.96 -154.184057 
L 151.19 -153.494908 
L 133.42 -153.629784 
L 115.65 -154.148976 
L 97.88 -159.354266 
L 80.11 -165.412848 
L 62.34 -163.54908 
L 44.57 -167.751216 
z
" style="stroke: #2ca02c; stroke-opacity: 0.2"/>
    </defs>
    <g clip-path="url(#p2ecfdee794)">
     <use xlink:href="#md96b30b664" x="0" y="648" style="fill: #2ca02c; fill-opacity: 0.2; stroke: #2ca02c; stroke-opacity: 0.2"/>
    </g>
   </g>
   <g id="PolyCollection_4">
    <defs>
     <path id="mf965c492e2" d="M 44.57 -174.455325 
L 44.57 -116.162554 
L 62.34 -111.284291 
L 80.11 -106.931858 
L 97.88 -104.77768 
L 115.65 -104.051448 
L 133.42 -103.293397 
L 151.19 -104.843723 
L 168.96 -102.43677 
L 186.73 -101.518162 
L 204.5 -99.012879 
L 222.27 -100.39662 
L 240.04 -98.667202 
L 257.81 -98.257253 
L 275.58 -95.240368 
L 293.35 -95.121787 
L 311.12 -94.859544 
L 328.89 -92.545758 
L 346.66 -91.554672 
L 364.43 -91.646403 
L 382.2 -91.840156 
L 399.97 -92.692722 
L 417.74 -92.984489 
L 435.51 -89.625513 
L 453.28 -87.927464 
L 471.05 -87.802688 
L 488.82 -86.401061 
L 506.59 -87.279553 
L 524.36 -86.749487 
L 542.13 -87.694502 
L 559.9 -86.123422 
L 577.67 -85.594516 
L 595.44 -84.845044 
L 613.21 -84.777265 
L 630.98 -83.091282 
L 648.75 -84.035182 
L 666.52 -83.361281 
L 684.29 -82.856374 
L 702.06 -81.130451 
L 719.83 -80.742756 
L 737.6 -76.677469 
L 755.37 -76.97948 
L 773.14 -75.54642 
L 790.91 -75.246907 
L 808.68 -74.896329 
L 826.45 -74.895899 
L 844.22 -75.077325 
L 861.99 -75.164404 
L 879.76 -73.9016 
L 897.53 -74.09923 
L 915.3 -73.621575 
L 933.07 -72.900258 
L 933.07 -120.354971 
L 933.07 -120.354971 
L 915.3 -125.752896 
L 897.53 -131.017365 
L 879.76 -124.612173 
L 861.99 -129.581669 
L 844.22 -128.735489 
L 826.45 -118.987668 
L 808.68 -123.368536 
L 790.91 -123.163944 
L 773.14 -118.365888 
L 755.37 -121.176345 
L 737.6 -117.373611 
L 719.83 -125.98002 
L 702.06 -127.671935 
L 684.29 -128.418881 
L 666.52 -134.686503 
L 648.75 -132.618652 
L 630.98 -128.940289 
L 613.21 -131.344085 
L 595.44 -127.456506 
L 577.67 -129.319066 
L 559.9 -129.46087 
L 542.13 -133.053798 
L 524.36 -131.798276 
L 506.59 -133.817392 
L 488.82 -131.277259 
L 471.05 -131.910683 
L 453.28 -138.012154 
L 435.51 -140.141125 
L 417.74 -140.888182 
L 399.97 -140.909853 
L 382.2 -140.024821 
L 364.43 -144.69146 
L 346.66 -144.985203 
L 328.89 -140.580945 
L 311.12 -146.563514 
L 293.35 -146.080436 
L 275.58 -145.098561 
L 257.81 -147.952106 
L 240.04 -149.576481 
L 222.27 -152.310266 
L 204.5 -152.846153 
L 186.73 -156.267717 
L 168.96 -153.338437 
L 151.19 -156.416698 
L 133.42 -154.189908 
L 115.65 -155.148222 
L 97.88 -157.126082 
L 80.11 -158.92828 
L 62.34 -168.252966 
L 44.57 -174.455325 
z
" style="stroke: #d62728; stroke-opacity: 0.2"/>
    </defs>
    <g clip-path="url(#p2ecfdee794)">
     <use xlink:href="#mf965c492e2" x="0" y="648" style="fill: #d62728; fill-opacity: 0.2; stroke: #d62728; stroke-opacity: 0.2"/>
    </g>
   </g>
   <g id="PolyCollection_5">
    <defs>
     <path id="m15f4428743" d="M 44.57 -195.480911 
L 44.57 -133.444431 
L 62.34 -132.471352 
L 80.11 -129.161583 
L 97.88 -129.244261 
L 115.65 -127.089403 
L 133.42 -127.506015 
L 151.19 -124.444931 
L 168.96 -124.279324 
L 186.73 -122.107337 
L 204.5 -119.920843 
L 222.27 -119.125283 
L 240.04 -116.452992 
L 257.81 -114.788984 
L 275.58 -113.634933 
L 293.35 -113.655304 
L 311.12 -111.208184 
L 328.89 -110.501924 
L 346.66 -109.301586 
L 364.43 -106.325909 
L 382.2 -105.833503 
L 399.97 -102.156177 
L 417.74 -99.985657 
L 435.51 -100.068488 
L 453.28 -99.616029 
L 471.05 -98.57573 
L 488.82 -97.708723 
L 506.59 -94.155048 
L 524.36 -92.333934 
L 542.13 -93.022036 
L 559.9 -91.855789 
L 577.67 -88.941836 
L 595.44 -89.283785 
L 613.21 -89.093795 
L 630.98 -88.053085 
L 648.75 -86.685676 
L 666.52 -86.398828 
L 684.29 -86.042477 
L 702.06 -85.24013 
L 719.83 -82.681837 
L 737.6 -83.491348 
L 755.37 -82.232667 
L 773.14 -83.143407 
L 790.91 -83.18019 
L 808.68 -81.232356 
L 826.45 -80.626153 
L 844.22 -79.390068 
L 861.99 -80.83395 
L 879.76 -79.855856 
L 897.53 -79.41705 
L 915.3 -79.34684 
L 933.07 -78.126825 
L 933.07 -108.292627 
L 933.07 -108.292627 
L 915.3 -104.628494 
L 897.53 -106.001042 
L 879.76 -108.176437 
L 861.99 -109.886226 
L 844.22 -120.759641 
L 826.45 -118.126969 
L 808.68 -120.068215 
L 790.91 -125.530337 
L 773.14 -121.64016 
L 755.37 -121.753861 
L 737.6 -123.887621 
L 719.83 -124.682324 
L 702.06 -123.249019 
L 684.29 -125.76594 
L 666.52 -127.123856 
L 648.75 -128.624151 
L 630.98 -132.35701 
L 613.21 -134.305183 
L 595.44 -131.352541 
L 577.67 -130.839374 
L 559.9 -141.515552 
L 542.13 -145.380513 
L 524.36 -144.458354 
L 506.59 -146.484011 
L 488.82 -149.160744 
L 471.05 -149.656208 
L 453.28 -152.114071 
L 435.51 -151.833395 
L 417.74 -154.859702 
L 399.97 -155.65189 
L 382.2 -156.107542 
L 364.43 -159.490649 
L 346.66 -163.580837 
L 328.89 -163.131629 
L 311.12 -168.387377 
L 293.35 -171.498636 
L 275.58 -170.457742 
L 257.81 -170.91537 
L 240.04 -171.694098 
L 222.27 -175.220712 
L 204.5 -174.12717 
L 186.73 -180.029054 
L 168.96 -184.107988 
L 151.19 -180.470793 
L 133.42 -183.058672 
L 115.65 -183.487524 
L 97.88 -185.209178 
L 80.11 -184.279694 
L 62.34 -192.083933 
L 44.57 -195.480911 
z
" style="stroke: #9467bd; stroke-opacity: 0.2"/>
    </defs>
    <g clip-path="url(#p2ecfdee794)">
     <use xlink:href="#m15f4428743" x="0" y="648" style="fill: #9467bd; fill-opacity: 0.2; stroke: #9467bd; stroke-opacity: 0.2"/>
    </g>
   </g>
   <g id="PolyCollection_6">
    <defs>
     <path id="m3edcc90cc0" d="M 44.57 -170.494011 
L 44.57 -117.433401 
L 62.34 -115.286602 
L 80.11 -114.263276 
L 97.88 -111.912292 
L 115.65 -111.648526 
L 133.42 -108.576152 
L 151.19 -104.40484 
L 168.96 -105.95047 
L 186.73 -104.86776 
L 204.5 -102.479697 
L 222.27 -101.555585 
L 240.04 -99.257735 
L 257.81 -97.958913 
L 275.58 -97.651251 
L 293.35 -97.396591 
L 311.12 -96.297261 
L 328.89 -94.915796 
L 346.66 -93.626157 
L 364.43 -92.308709 
L 382.2 -92.133451 
L 399.97 -91.221144 
L 417.74 -91.727639 
L 435.51 -91.327173 
L 453.28 -89.278734 
L 471.05 -88.644088 
L 488.82 -88.57891 
L 506.59 -88.218456 
L 524.36 -89.587212 
L 542.13 -87.200286 
L 559.9 -85.001382 
L 577.67 -84.133141 
L 595.44 -83.543129 
L 613.21 -82.761398 
L 630.98 -82.581059 
L 648.75 -82.014959 
L 666.52 -79.571137 
L 684.29 -78.613554 
L 702.06 -78.113374 
L 719.83 -78.14154 
L 737.6 -78.713666 
L 755.37 -77.812354 
L 773.14 -76.572822 
L 790.91 -76.241479 
L 808.68 -75.787437 
L 826.45 -75.259013 
L 844.22 -75.939421 
L 861.99 -75.932366 
L 879.76 -74.83033 
L 897.53 -74.358166 
L 915.3 -74.514353 
L 933.07 -73.572056 
L 933.07 -112.196177 
L 933.07 -112.196177 
L 915.3 -113.433319 
L 897.53 -115.538176 
L 879.76 -116.557399 
L 861.99 -119.684072 
L 844.22 -118.012637 
L 826.45 -115.29686 
L 808.68 -114.534066 
L 790.91 -114.278577 
L 773.14 -114.366458 
L 755.37 -117.215655 
L 737.6 -119.659307 
L 719.83 -121.991517 
L 702.06 -123.332616 
L 684.29 -120.199038 
L 666.52 -129.955118 
L 648.75 -129.992618 
L 630.98 -130.697838 
L 613.21 -137.90599 
L 595.44 -134.600392 
L 577.67 -134.899674 
L 559.9 -136.754486 
L 542.13 -142.293798 
L 524.36 -141.008006 
L 506.59 -142.325571 
L 488.82 -147.19663 
L 471.05 -138.650649 
L 453.28 -139.769016 
L 435.51 -145.010083 
L 417.74 -141.941792 
L 399.97 -138.285243 
L 382.2 -138.985801 
L 364.43 -140.137504 
L 346.66 -141.930215 
L 328.89 -143.853875 
L 311.12 -144.703249 
L 293.35 -147.606856 
L 275.58 -149.156328 
L 257.81 -148.482455 
L 240.04 -150.654619 
L 222.27 -150.122221 
L 204.5 -154.995412 
L 186.73 -158.497459 
L 168.96 -160.657941 
L 151.19 -157.77613 
L 133.42 -161.407891 
L 115.65 -165.180074 
L 97.88 -163.704257 
L 80.11 -164.981284 
L 62.34 -169.359731 
L 44.57 -170.494011 
z
" style="stroke: #8c564b; stroke-opacity: 0.2"/>
    </defs>
    <g clip-path="url(#p2ecfdee794)">
     <use xlink:href="#m3edcc90cc0" x="0" y="648" style="fill: #8c564b; fill-opacity: 0.2; stroke: #8c564b; stroke-opacity: 0.2"/>
    </g>
   </g>
   <g id="PolyCollection_7">
    <defs>
     <path id="m00f154e5d5" d="M 44.57 -181.162834 
L 44.57 -132.373775 
L 62.34 -128.952196 
L 80.11 -128.296879 
L 97.88 -126.827206 
L 115.65 -124.042072 
L 133.42 -120.44805 
L 151.19 -115.537644 
L 168.96 -111.796575 
L 186.73 -104.517886 
L 204.5 -102.585497 
L 222.27 -97.642393 
L 240.04 -97.150648 
L 257.81 -97.633106 
L 275.58 -97.646024 
L 293.35 -95.782356 
L 311.12 -94.336838 
L 328.89 -94.27647 
L 346.66 -90.839615 
L 364.43 -90.136766 
L 382.2 -89.874212 
L 399.97 -90.315933 
L 417.74 -88.146722 
L 435.51 -89.744192 
L 453.28 -89.295149 
L 471.05 -88.625035 
L 488.82 -89.077788 
L 506.59 -88.575698 
L 524.36 -87.388425 
L 542.13 -85.293701 
L 559.9 -83.373027 
L 577.67 -82.550458 
L 595.44 -83.340742 
L 613.21 -83.014759 
L 630.98 -81.334103 
L 648.75 -80.137555 
L 666.52 -79.093731 
L 684.29 -77.998833 
L 702.06 -76.689447 
L 719.83 -75.788992 
L 737.6 -75.155089 
L 755.37 -74.977588 
L 773.14 -74.460889 
L 790.91 -74.456266 
L 808.68 -74.191101 
L 826.45 -73.953423 
L 844.22 -73.62823 
L 861.99 -73.177543 
L 879.76 -72.878245 
L 897.53 -72.959712 
L 915.3 -73.058114 
L 933.07 -73.064013 
L 933.07 -113.64882 
L 933.07 -113.64882 
L 915.3 -112.358688 
L 897.53 -112.414202 
L 879.76 -111.083178 
L 861.99 -109.880806 
L 844.22 -111.546445 
L 826.45 -110.418364 
L 808.68 -108.956498 
L 790.91 -110.746271 
L 773.14 -111.211441 
L 755.37 -111.050946 
L 737.6 -111.918884 
L 719.83 -113.867856 
L 702.06 -117.819075 
L 684.29 -120.38796 
L 666.52 -123.299704 
L 648.75 -126.015236 
L 630.98 -127.284094 
L 613.21 -130.072194 
L 595.44 -132.523758 
L 577.67 -130.049341 
L 559.9 -133.421246 
L 542.13 -137.4168 
L 524.36 -137.452307 
L 506.59 -141.667341 
L 488.82 -141.858499 
L 471.05 -139.575121 
L 453.28 -139.003224 
L 435.51 -139.398753 
L 417.74 -136.341417 
L 399.97 -140.940681 
L 382.2 -139.106691 
L 364.43 -139.460985 
L 346.66 -140.724234 
L 328.89 -147.730135 
L 311.12 -144.875713 
L 293.35 -145.629123 
L 275.58 -148.498034 
L 257.81 -147.370972 
L 240.04 -145.960859 
L 222.27 -150.847429 
L 204.5 -156.728406 
L 186.73 -156.279234 
L 168.96 -163.718851 
L 151.19 -167.723785 
L 133.42 -172.462425 
L 115.65 -174.506756 
L 97.88 -177.051892 
L 80.11 -176.794965 
L 62.34 -179.217907 
L 44.57 -181.162834 
z
" style="stroke: #e377c2; stroke-opacity: 0.2"/>
    </defs>
    <g clip-path="url(#p2ecfdee794)">
     <use xlink:href="#m00f154e5d5" x="0" y="648" style="fill: #e377c2; fill-opacity: 0.2; stroke: #e377c2; stroke-opacity: 0.2"/>
    </g>
   </g>
   <g id="PolyCollection_8">
    <defs>
     <path id="m839f319384" d="M 44.57 -177.406763 
L 44.57 -122.85681 
L 62.34 -117.37423 
L 80.11 -115.105454 
L 97.88 -109.781446 
L 115.65 -109.535172 
L 133.42 -107.491549 
L 151.19 -106.555496 
L 168.96 -102.371135 
L 186.73 -101.372424 
L 204.5 -99.971341 
L 222.27 -99.230371 
L 240.04 -97.179117 
L 257.81 -95.741918 
L 275.58 -95.020494 
L 293.35 -93.815051 
L 311.12 -93.764821 
L 328.89 -92.150299 
L 346.66 -91.435644 
L 364.43 -91.018964 
L 382.2 -92.590933 
L 399.97 -92.325113 
L 417.74 -89.385997 
L 435.51 -91.565883 
L 453.28 -89.90297 
L 471.05 -88.833222 
L 488.82 -89.142842 
L 506.59 -88.327306 
L 524.36 -87.11692 
L 542.13 -86.35236 
L 559.9 -84.426508 
L 577.67 -83.346574 
L 595.44 -83.67868 
L 613.21 -81.934894 
L 630.98 -81.245829 
L 648.75 -79.888772 
L 666.52 -78.407234 
L 684.29 -78.56602 
L 702.06 -78.035879 
L 719.83 -77.365969 
L 737.6 -77.355684 
L 755.37 -76.596171 
L 773.14 -76.102715 
L 790.91 -75.712564 
L 808.68 -75.154564 
L 826.45 -74.888555 
L 844.22 -74.936293 
L 861.99 -73.944012 
L 879.76 -73.817652 
L 897.53 -73.405676 
L 915.3 -73.705812 
L 933.07 -73.960332 
L 933.07 -115.209542 
L 933.07 -115.209542 
L 915.3 -113.480148 
L 897.53 -111.186809 
L 879.76 -110.798165 
L 861.99 -109.884179 
L 844.22 -110.887404 
L 826.45 -112.268454 
L 808.68 -114.915721 
L 790.91 -117.3616 
L 773.14 -118.093235 
L 755.37 -120.794736 
L 737.6 -123.637893 
L 719.83 -122.568749 
L 702.06 -123.791202 
L 684.29 -124.759828 
L 666.52 -123.836536 
L 648.75 -125.541913 
L 630.98 -129.810735 
L 613.21 -132.438954 
L 595.44 -134.064511 
L 577.67 -134.33647 
L 559.9 -139.969567 
L 542.13 -141.271275 
L 524.36 -138.431469 
L 506.59 -139.003743 
L 488.82 -140.114167 
L 471.05 -137.795754 
L 453.28 -138.543591 
L 435.51 -139.912541 
L 417.74 -138.859739 
L 399.97 -141.861806 
L 382.2 -142.855175 
L 364.43 -138.505105 
L 346.66 -139.340574 
L 328.89 -144.05564 
L 311.12 -145.097868 
L 293.35 -142.626946 
L 275.58 -143.661761 
L 257.81 -143.912332 
L 240.04 -145.847065 
L 222.27 -151.970599 
L 204.5 -150.905849 
L 186.73 -152.248609 
L 168.96 -155.781426 
L 151.19 -160.918887 
L 133.42 -161.034136 
L 115.65 -162.844567 
L 97.88 -163.308296 
L 80.11 -169.92026 
L 62.34 -172.012579 
L 44.57 -177.406763 
z
" style="stroke: #7f7f7f; stroke-opacity: 0.2"/>
    </defs>
    <g clip-path="url(#p2ecfdee794)">
     <use xlink:href="#m839f319384" x="0" y="648" style="fill: #7f7f7f; fill-opacity: 0.2; stroke: #7f7f7f; stroke-opacity: 0.2"/>
    </g>
   </g>
   <g id="PolyCollection_9">
    <defs>
     <path id="m85691c9a1b" d="M 44.57 -145.814992 
L 44.57 -104.281058 
L 62.34 -102.180041 
L 80.11 -102.08796 
L 97.88 -101.532925 
L 115.65 -100.630113 
L 133.42 -98.498625 
L 151.19 -97.017023 
L 168.96 -97.459246 
L 186.73 -96.599434 
L 204.5 -94.982675 
L 222.27 -94.144535 
L 240.04 -93.844342 
L 257.81 -93.796471 
L 275.58 -92.172525 
L 293.35 -92.617419 
L 311.12 -92.665081 
L 328.89 -92.507164 
L 346.66 -88.803093 
L 364.43 -90.453272 
L 382.2 -89.799906 
L 399.97 -89.62305 
L 417.74 -88.156595 
L 435.51 -86.021769 
L 453.28 -83.582573 
L 471.05 -82.845229 
L 488.82 -82.725448 
L 506.59 -79.457312 
L 524.36 -78.675413 
L 542.13 -78.40314 
L 559.9 -77.606249 
L 577.67 -77.271061 
L 595.44 -77.181853 
L 613.21 -76.64015 
L 630.98 -76.369147 
L 648.75 -75.539521 
L 666.52 -76.11898 
L 684.29 -75.875595 
L 702.06 -75.40119 
L 719.83 -74.600652 
L 737.6 -74.330263 
L 755.37 -74.00875 
L 773.14 -74.610597 
L 790.91 -73.257244 
L 808.68 -73.392377 
L 826.45 -74.593486 
L 844.22 -73.520309 
L 861.99 -73.211423 
L 879.76 -72.321402 
L 897.53 -72.541495 
L 915.3 -72.413701 
L 933.07 -72.521144 
L 933.07 -111.314749 
L 933.07 -111.314749 
L 915.3 -114.212119 
L 897.53 -114.47734 
L 879.76 -113.704686 
L 861.99 -112.586416 
L 844.22 -114.785321 
L 826.45 -117.451124 
L 808.68 -111.948774 
L 790.91 -114.407319 
L 773.14 -113.196464 
L 755.37 -112.585165 
L 737.6 -111.287268 
L 719.83 -111.82097 
L 702.06 -112.202559 
L 684.29 -111.66895 
L 666.52 -111.869491 
L 648.75 -111.559343 
L 630.98 -111.441738 
L 613.21 -112.515905 
L 595.44 -113.726111 
L 577.67 -113.606245 
L 559.9 -114.372137 
L 542.13 -116.557644 
L 524.36 -118.709483 
L 506.59 -121.247122 
L 488.82 -131.144836 
L 471.05 -130.399881 
L 453.28 -135.154415 
L 435.51 -139.092981 
L 417.74 -141.088885 
L 399.97 -142.051315 
L 382.2 -146.687585 
L 364.43 -146.382154 
L 346.66 -144.020188 
L 328.89 -146.670477 
L 311.12 -146.154121 
L 293.35 -142.772099 
L 275.58 -140.931873 
L 257.81 -148.71207 
L 240.04 -147.636225 
L 222.27 -145.904833 
L 204.5 -148.63806 
L 186.73 -149.993053 
L 168.96 -154.015121 
L 151.19 -144.835026 
L 133.42 -149.212972 
L 115.65 -143.967721 
L 97.88 -146.668718 
L 80.11 -143.782219 
L 62.34 -143.815395 
L 44.57 -145.814992 
z
" style="stroke: #bcbd22; stroke-opacity: 0.2"/>
    </defs>
    <g clip-path="url(#p2ecfdee794)">
     <use xlink:href="#m85691c9a1b" x="0" y="648" style="fill: #bcbd22; fill-opacity: 0.2; stroke: #bcbd22; stroke-opacity: 0.2"/>
    </g>
   </g>
   <g id="PolyCollection_10">
    <defs>
     <path id="m28b889dcdd" d="M 44.57 -163.382916 
L 44.57 -112.685798 
L 62.34 -111.317313 
L 80.11 -108.581322 
L 97.88 -107.252938 
L 115.65 -106.914695 
L 133.42 -105.216107 
L 151.19 -104.689986 
L 168.96 -104.337744 
L 186.73 -103.119643 
L 204.5 -101.120408 
L 222.27 -98.249593 
L 240.04 -97.776659 
L 257.81 -95.796702 
L 275.58 -94.93372 
L 293.35 -94.636859 
L 311.12 -93.016732 
L 328.89 -92.257468 
L 346.66 -90.532131 
L 364.43 -91.049722 
L 382.2 -89.241441 
L 399.97 -88.919025 
L 417.74 -88.499937 
L 435.51 -88.412456 
L 453.28 -86.063178 
L 471.05 -85.76258 
L 488.82 -86.282749 
L 506.59 -85.66212 
L 524.36 -84.685904 
L 542.13 -82.744246 
L 559.9 -80.82427 
L 577.67 -80.438291 
L 595.44 -80.592049 
L 613.21 -79.008174 
L 630.98 -78.454367 
L 648.75 -77.708786 
L 666.52 -77.267507 
L 684.29 -77.549463 
L 702.06 -77.263487 
L 719.83 -76.909079 
L 737.6 -76.461394 
L 755.37 -76.606007 
L 773.14 -76.562047 
L 790.91 -76.45554 
L 808.68 -76.318223 
L 826.45 -75.372528 
L 844.22 -73.947434 
L 861.99 -74.313187 
L 879.76 -74.268317 
L 897.53 -74.247388 
L 915.3 -73.496834 
L 933.07 -73.891133 
L 933.07 -115.376982 
L 933.07 -115.376982 
L 915.3 -116.511961 
L 897.53 -115.551989 
L 879.76 -113.436322 
L 861.99 -114.489885 
L 844.22 -111.589146 
L 826.45 -115.242158 
L 808.68 -116.339259 
L 790.91 -115.262368 
L 773.14 -114.310659 
L 755.37 -114.540369 
L 737.6 -113.61098 
L 719.83 -116.394448 
L 702.06 -118.78559 
L 684.29 -118.422543 
L 666.52 -115.804246 
L 648.75 -116.142918 
L 630.98 -117.983389 
L 613.21 -121.277319 
L 595.44 -123.729734 
L 577.67 -130.049261 
L 559.9 -130.233545 
L 542.13 -133.852723 
L 524.36 -136.59215 
L 506.59 -132.272643 
L 488.82 -131.35997 
L 471.05 -130.740598 
L 453.28 -137.670599 
L 435.51 -140.722768 
L 417.74 -141.011953 
L 399.97 -140.99669 
L 382.2 -143.049873 
L 364.43 -140.387345 
L 346.66 -138.371792 
L 328.89 -138.212828 
L 311.12 -139.372488 
L 293.35 -140.490349 
L 275.58 -140.591732 
L 257.81 -140.918921 
L 240.04 -150.573565 
L 222.27 -147.702302 
L 204.5 -151.115495 
L 186.73 -154.398774 
L 168.96 -155.246015 
L 151.19 -157.072198 
L 133.42 -160.417838 
L 115.65 -161.08957 
L 97.88 -158.117916 
L 80.11 -160.504007 
L 62.34 -161.284159 
L 44.57 -163.382916 
z
" style="stroke: #17becf; stroke-opacity: 0.2"/>
    </defs>
    <g clip-path="url(#p2ecfdee794)">
     <use xlink:href="#m28b889dcdd" x="0" y="648" style="fill: #17becf; fill-opacity: 0.2; stroke: #17becf; stroke-opacity: 0.2"/>
    </g>
   </g>
   <g id="PolyCollection_11">
    <defs>
     <path id="m400fa555a8" d="M 44.57 -272.083733 
L 44.57 -216.194208 
L 62.34 -210.714908 
L 80.11 -200.601894 
L 97.88 -197.985724 
L 115.65 -187.924792 
L 133.42 -174.212561 
L 151.19 -168.201235 
L 168.96 -164.726265 
L 186.73 -160.30375 
L 204.5 -152.540009 
L 222.27 -151.336572 
L 240.04 -140.438002 
L 257.81 -139.184278 
L 275.58 -134.317273 
L 293.35 -133.217861 
L 311.12 -130.436181 
L 328.89 -122.626221 
L 346.66 -120.339852 
L 364.43 -115.585448 
L 382.2 -112.608902 
L 399.97 -110.354498 
L 417.74 -105.806789 
L 435.51 -98.575209 
L 453.28 -98.833885 
L 471.05 -97.473949 
L 488.82 -95.592065 
L 506.59 -94.009995 
L 524.36 -91.810042 
L 542.13 -91.423671 
L 559.9 -89.806001 
L 577.67 -89.687907 
L 595.44 -87.982018 
L 613.21 -87.781473 
L 630.98 -87.402788 
L 648.75 -86.753194 
L 666.52 -87.203923 
L 684.29 -86.347787 
L 702.06 -86.79214 
L 719.83 -86.259591 
L 737.6 -86.236832 
L 755.37 -84.903382 
L 773.14 -83.630496 
L 790.91 -81.502738 
L 808.68 -81.350588 
L 826.45 -79.99759 
L 844.22 -79.274102 
L 861.99 -77.977274 
L 879.76 -77.034478 
L 897.53 -76.4262 
L 915.3 -76.60827 
L 933.07 -76.202549 
L 933.07 -114.257574 
L 933.07 -114.257574 
L 915.3 -116.396267 
L 897.53 -115.574731 
L 879.76 -117.088328 
L 861.99 -117.973991 
L 844.22 -119.135838 
L 826.45 -119.484617 
L 808.68 -122.350264 
L 790.91 -120.899211 
L 773.14 -122.020769 
L 755.37 -126.394446 
L 737.6 -133.033294 
L 719.83 -132.091613 
L 702.06 -131.572334 
L 684.29 -132.580308 
L 666.52 -133.342961 
L 648.75 -128.023382 
L 630.98 -129.355119 
L 613.21 -131.93718 
L 595.44 -132.805197 
L 577.67 -135.574398 
L 559.9 -138.013886 
L 542.13 -139.506888 
L 524.36 -140.135111 
L 506.59 -144.112516 
L 488.82 -145.171339 
L 471.05 -146.635776 
L 453.28 -148.26987 
L 435.51 -153.888128 
L 417.74 -165.571936 
L 399.97 -169.12982 
L 382.2 -166.835573 
L 364.43 -172.857301 
L 346.66 -178.080526 
L 328.89 -179.136595 
L 311.12 -187.44935 
L 293.35 -187.704371 
L 275.58 -194.710551 
L 257.81 -194.582091 
L 240.04 -198.193183 
L 222.27 -211.2473 
L 204.5 -214.1308 
L 186.73 -220.428599 
L 168.96 -227.572748 
L 151.19 -232.936173 
L 133.42 -237.060539 
L 115.65 -252.952405 
L 97.88 -256.190594 
L 80.11 -261.283803 
L 62.34 -267.053249 
L 44.57 -272.083733 
z
" style="stroke: #9edae5; stroke-opacity: 0.2"/>
    </defs>
    <g clip-path="url(#p2ecfdee794)">
     <use xlink:href="#m400fa555a8" x="0" y="648" style="fill: #9edae5; fill-opacity: 0.2; stroke: #9edae5; stroke-opacity: 0.2"/>
    </g>
   </g>
   <g id="matplotlib.axis_1">
    <g id="xtick_1">
     <g id="line2d_1">
      <defs>
       <path id="me2cc6d0121" d="M 0 0 
L 0 3.5 
" style="stroke: #000000; stroke-width: 0.8"/>
      </defs>
      <g>
       <use xlink:href="#me2cc6d0121" x="44.57" y="606.04" style="stroke: #000000; stroke-width: 0.8"/>
      </g>
     </g>
     <g id="text_1">
      <!-- 30 -->
      <g transform="translate(38.2075 620.638438) scale(0.1 -0.1)">
       <defs>
        <path id="DejaVuSans-33" d="M 2597 2516 
Q 3050 2419 3304 2112 
Q 3559 1806 3559 1356 
Q 3559 666 3084 287 
Q 2609 -91 1734 -91 
Q 1441 -91 1130 -33 
Q 819 25 488 141 
L 488 750 
Q 750 597 1062 519 
Q 1375 441 1716 441 
Q 2309 441 2620 675 
Q 2931 909 2931 1356 
Q 2931 1769 2642 2001 
Q 2353 2234 1838 2234 
L 1294 2234 
L 1294 2753 
L 1863 2753 
Q 2328 2753 2575 2939 
Q 2822 3125 2822 3475 
Q 2822 3834 2567 4026 
Q 2313 4219 1838 4219 
Q 1578 4219 1281 4162 
Q 984 4106 628 3988 
L 628 4550 
Q 988 4650 1302 4700 
Q 1616 4750 1894 4750 
Q 2613 4750 3031 4423 
Q 3450 4097 3450 3541 
Q 3450 3153 3228 2886 
Q 3006 2619 2597 2516 
z
" transform="scale(0.015625)"/>
        <path id="DejaVuSans-30" d="M 2034 4250 
Q 1547 4250 1301 3770 
Q 1056 3291 1056 2328 
Q 1056 1369 1301 889 
Q 1547 409 2034 409 
Q 2525 409 2770 889 
Q 3016 1369 3016 2328 
Q 3016 3291 2770 3770 
Q 2525 4250 2034 4250 
z
M 2034 4750 
Q 2819 4750 3233 4129 
Q 3647 3509 3647 2328 
Q 3647 1150 3233 529 
Q 2819 -91 2034 -91 
Q 1250 -91 836 529 
Q 422 1150 422 2328 
Q 422 3509 836 4129 
Q 1250 4750 2034 4750 
z
" transform="scale(0.015625)"/>
       </defs>
       <use xlink:href="#DejaVuSans-33"/>
       <use xlink:href="#DejaVuSans-30" x="63.623047"/>
      </g>
     </g>
    </g>
    <g id="xtick_2">
     <g id="line2d_2">
      <g>
       <use xlink:href="#me2cc6d0121" x="222.27" y="606.04" style="stroke: #000000; stroke-width: 0.8"/>
      </g>
     </g>
     <g id="text_2">
      <!-- 40 -->
      <g transform="translate(215.9075 620.638438) scale(0.1 -0.1)">
       <defs>
        <path id="DejaVuSans-34" d="M 2419 4116 
L 825 1625 
L 2419 1625 
L 2419 4116 
z
M 2253 4666 
L 3047 4666 
L 3047 1625 
L 3713 1625 
L 3713 1100 
L 3047 1100 
L 3047 0 
L 2419 0 
L 2419 1100 
L 313 1100 
L 313 1709 
L 2253 4666 
z
" transform="scale(0.015625)"/>
       </defs>
       <use xlink:href="#DejaVuSans-34"/>
       <use xlink:href="#DejaVuSans-30" x="63.623047"/>
      </g>
     </g>
    </g>
    <g id="xtick_3">
     <g id="line2d_3">
      <g>
       <use xlink:href="#me2cc6d0121" x="399.97" y="606.04" style="stroke: #000000; stroke-width: 0.8"/>
      </g>
     </g>
     <g id="text_3">
      <!-- 50 -->
      <g transform="translate(393.6075 620.638438) scale(0.1 -0.1)">
       <defs>
        <path id="DejaVuSans-35" d="M 691 4666 
L 3169 4666 
L 3169 4134 
L 1269 4134 
L 1269 2991 
Q 1406 3038 1543 3061 
Q 1681 3084 1819 3084 
Q 2600 3084 3056 2656 
Q 3513 2228 3513 1497 
Q 3513 744 3044 326 
Q 2575 -91 1722 -91 
Q 1428 -91 1123 -41 
Q 819 9 494 109 
L 494 744 
Q 775 591 1075 516 
Q 1375 441 1709 441 
Q 2250 441 2565 725 
Q 2881 1009 2881 1497 
Q 2881 1984 2565 2268 
Q 2250 2553 1709 2553 
Q 1456 2553 1204 2497 
Q 953 2441 691 2322 
L 691 4666 
z
" transform="scale(0.015625)"/>
       </defs>
       <use xlink:href="#DejaVuSans-35"/>
       <use xlink:href="#DejaVuSans-30" x="63.623047"/>
      </g>
     </g>
    </g>
    <g id="xtick_4">
     <g id="line2d_4">
      <g>
       <use xlink:href="#me2cc6d0121" x="577.67" y="606.04" style="stroke: #000000; stroke-width: 0.8"/>
      </g>
     </g>
     <g id="text_4">
      <!-- 60 -->
      <g transform="translate(571.3075 620.638438) scale(0.1 -0.1)">
       <defs>
        <path id="DejaVuSans-36" d="M 2113 2584 
Q 1688 2584 1439 2293 
Q 1191 2003 1191 1497 
Q 1191 994 1439 701 
Q 1688 409 2113 409 
Q 2538 409 2786 701 
Q 3034 994 3034 1497 
Q 3034 2003 2786 2293 
Q 2538 2584 2113 2584 
z
M 3366 4563 
L 3366 3988 
Q 3128 4100 2886 4159 
Q 2644 4219 2406 4219 
Q 1781 4219 1451 3797 
Q 1122 3375 1075 2522 
Q 1259 2794 1537 2939 
Q 1816 3084 2150 3084 
Q 2853 3084 3261 2657 
Q 3669 2231 3669 1497 
Q 3669 778 3244 343 
Q 2819 -91 2113 -91 
Q 1303 -91 875 529 
Q 447 1150 447 2328 
Q 447 3434 972 4092 
Q 1497 4750 2381 4750 
Q 2619 4750 2861 4703 
Q 3103 4656 3366 4563 
z
" transform="scale(0.015625)"/>
       </defs>
       <use xlink:href="#DejaVuSans-36"/>
       <use xlink:href="#DejaVuSans-30" x="63.623047"/>
      </g>
     </g>
    </g>
    <g id="xtick_5">
     <g id="line2d_5">
      <g>
       <use xlink:href="#me2cc6d0121" x="755.37" y="606.04" style="stroke: #000000; stroke-width: 0.8"/>
      </g>
     </g>
     <g id="text_5">
      <!-- 70 -->
      <g transform="translate(749.0075 620.638438) scale(0.1 -0.1)">
       <defs>
        <path id="DejaVuSans-37" d="M 525 4666 
L 3525 4666 
L 3525 4397 
L 1831 0 
L 1172 0 
L 2766 4134 
L 525 4134 
L 525 4666 
z
" transform="scale(0.015625)"/>
       </defs>
       <use xlink:href="#DejaVuSans-37"/>
       <use xlink:href="#DejaVuSans-30" x="63.623047"/>
      </g>
     </g>
    </g>
    <g id="xtick_6">
     <g id="line2d_6">
      <g>
       <use xlink:href="#me2cc6d0121" x="933.07" y="606.04" style="stroke: #000000; stroke-width: 0.8"/>
      </g>
     </g>
     <g id="text_6">
      <!-- 80 -->
      <g transform="translate(926.7075 620.638438) scale(0.1 -0.1)">
       <defs>
        <path id="DejaVuSans-38" d="M 2034 2216 
Q 1584 2216 1326 1975 
Q 1069 1734 1069 1313 
Q 1069 891 1326 650 
Q 1584 409 2034 409 
Q 2484 409 2743 651 
Q 3003 894 3003 1313 
Q 3003 1734 2745 1975 
Q 2488 2216 2034 2216 
z
M 1403 2484 
Q 997 2584 770 2862 
Q 544 3141 544 3541 
Q 544 4100 942 4425 
Q 1341 4750 2034 4750 
Q 2731 4750 3128 4425 
Q 3525 4100 3525 3541 
Q 3525 3141 3298 2862 
Q 3072 2584 2669 2484 
Q 3125 2378 3379 2068 
Q 3634 1759 3634 1313 
Q 3634 634 3220 271 
Q 2806 -91 2034 -91 
Q 1263 -91 848 271 
Q 434 634 434 1313 
Q 434 1759 690 2068 
Q 947 2378 1403 2484 
z
M 1172 3481 
Q 1172 3119 1398 2916 
Q 1625 2713 2034 2713 
Q 2441 2713 2670 2916 
Q 2900 3119 2900 3481 
Q 2900 3844 2670 4047 
Q 2441 4250 2034 4250 
Q 1625 4250 1398 4047 
Q 1172 3844 1172 3481 
z
" transform="scale(0.015625)"/>
       </defs>
       <use xlink:href="#DejaVuSans-38"/>
       <use xlink:href="#DejaVuSans-30" x="63.623047"/>
      </g>
     </g>
    </g>
    <g id="text_7">
     <!-- Number of Baits -->
     <g transform="translate(448.287969 634.316563) scale(0.1 -0.1)">
      <defs>
       <path id="DejaVuSans-4e" d="M 628 4666 
L 1478 4666 
L 3547 763 
L 3547 4666 
L 4159 4666 
L 4159 0 
L 3309 0 
L 1241 3903 
L 1241 0 
L 628 0 
L 628 4666 
z
" transform="scale(0.015625)"/>
       <path id="DejaVuSans-75" d="M 544 1381 
L 544 3500 
L 1119 3500 
L 1119 1403 
Q 1119 906 1312 657 
Q 1506 409 1894 409 
Q 2359 409 2629 706 
Q 2900 1003 2900 1516 
L 2900 3500 
L 3475 3500 
L 3475 0 
L 2900 0 
L 2900 538 
Q 2691 219 2414 64 
Q 2138 -91 1772 -91 
Q 1169 -91 856 284 
Q 544 659 544 1381 
z
M 1991 3584 
L 1991 3584 
z
" transform="scale(0.015625)"/>
       <path id="DejaVuSans-6d" d="M 3328 2828 
Q 3544 3216 3844 3400 
Q 4144 3584 4550 3584 
Q 5097 3584 5394 3201 
Q 5691 2819 5691 2113 
L 5691 0 
L 5113 0 
L 5113 2094 
Q 5113 2597 4934 2840 
Q 4756 3084 4391 3084 
Q 3944 3084 3684 2787 
Q 3425 2491 3425 1978 
L 3425 0 
L 2847 0 
L 2847 2094 
Q 2847 2600 2669 2842 
Q 2491 3084 2119 3084 
Q 1678 3084 1418 2786 
Q 1159 2488 1159 1978 
L 1159 0 
L 581 0 
L 581 3500 
L 1159 3500 
L 1159 2956 
Q 1356 3278 1631 3431 
Q 1906 3584 2284 3584 
Q 2666 3584 2933 3390 
Q 3200 3197 3328 2828 
z
" transform="scale(0.015625)"/>
       <path id="DejaVuSans-62" d="M 3116 1747 
Q 3116 2381 2855 2742 
Q 2594 3103 2138 3103 
Q 1681 3103 1420 2742 
Q 1159 2381 1159 1747 
Q 1159 1113 1420 752 
Q 1681 391 2138 391 
Q 2594 391 2855 752 
Q 3116 1113 3116 1747 
z
M 1159 2969 
Q 1341 3281 1617 3432 
Q 1894 3584 2278 3584 
Q 2916 3584 3314 3078 
Q 3713 2572 3713 1747 
Q 3713 922 3314 415 
Q 2916 -91 2278 -91 
Q 1894 -91 1617 61 
Q 1341 213 1159 525 
L 1159 0 
L 581 0 
L 581 4863 
L 1159 4863 
L 1159 2969 
z
" transform="scale(0.015625)"/>
       <path id="DejaVuSans-65" d="M 3597 1894 
L 3597 1613 
L 953 1613 
Q 991 1019 1311 708 
Q 1631 397 2203 397 
Q 2534 397 2845 478 
Q 3156 559 3463 722 
L 3463 178 
Q 3153 47 2828 -22 
Q 2503 -91 2169 -91 
Q 1331 -91 842 396 
Q 353 884 353 1716 
Q 353 2575 817 3079 
Q 1281 3584 2069 3584 
Q 2775 3584 3186 3129 
Q 3597 2675 3597 1894 
z
M 3022 2063 
Q 3016 2534 2758 2815 
Q 2500 3097 2075 3097 
Q 1594 3097 1305 2825 
Q 1016 2553 972 2059 
L 3022 2063 
z
" transform="scale(0.015625)"/>
       <path id="DejaVuSans-72" d="M 2631 2963 
Q 2534 3019 2420 3045 
Q 2306 3072 2169 3072 
Q 1681 3072 1420 2755 
Q 1159 2438 1159 1844 
L 1159 0 
L 581 0 
L 581 3500 
L 1159 3500 
L 1159 2956 
Q 1341 3275 1631 3429 
Q 1922 3584 2338 3584 
Q 2397 3584 2469 3576 
Q 2541 3569 2628 3553 
L 2631 2963 
z
" transform="scale(0.015625)"/>
       <path id="DejaVuSans-20" transform="scale(0.015625)"/>
       <path id="DejaVuSans-6f" d="M 1959 3097 
Q 1497 3097 1228 2736 
Q 959 2375 959 1747 
Q 959 1119 1226 758 
Q 1494 397 1959 397 
Q 2419 397 2687 759 
Q 2956 1122 2956 1747 
Q 2956 2369 2687 2733 
Q 2419 3097 1959 3097 
z
M 1959 3584 
Q 2709 3584 3137 3096 
Q 3566 2609 3566 1747 
Q 3566 888 3137 398 
Q 2709 -91 1959 -91 
Q 1206 -91 779 398 
Q 353 888 353 1747 
Q 353 2609 779 3096 
Q 1206 3584 1959 3584 
z
" transform="scale(0.015625)"/>
       <path id="DejaVuSans-66" d="M 2375 4863 
L 2375 4384 
L 1825 4384 
Q 1516 4384 1395 4259 
Q 1275 4134 1275 3809 
L 1275 3500 
L 2222 3500 
L 2222 3053 
L 1275 3053 
L 1275 0 
L 697 0 
L 697 3053 
L 147 3053 
L 147 3500 
L 697 3500 
L 697 3744 
Q 697 4328 969 4595 
Q 1241 4863 1831 4863 
L 2375 4863 
z
" transform="scale(0.015625)"/>
       <path id="DejaVuSans-42" d="M 1259 2228 
L 1259 519 
L 2272 519 
Q 2781 519 3026 730 
Q 3272 941 3272 1375 
Q 3272 1813 3026 2020 
Q 2781 2228 2272 2228 
L 1259 2228 
z
M 1259 4147 
L 1259 2741 
L 2194 2741 
Q 2656 2741 2882 2914 
Q 3109 3088 3109 3444 
Q 3109 3797 2882 3972 
Q 2656 4147 2194 4147 
L 1259 4147 
z
M 628 4666 
L 2241 4666 
Q 2963 4666 3353 4366 
Q 3744 4066 3744 3513 
Q 3744 3084 3544 2831 
Q 3344 2578 2956 2516 
Q 3422 2416 3680 2098 
Q 3938 1781 3938 1306 
Q 3938 681 3513 340 
Q 3088 0 2303 0 
L 628 0 
L 628 4666 
z
" transform="scale(0.015625)"/>
       <path id="DejaVuSans-61" d="M 2194 1759 
Q 1497 1759 1228 1600 
Q 959 1441 959 1056 
Q 959 750 1161 570 
Q 1363 391 1709 391 
Q 2188 391 2477 730 
Q 2766 1069 2766 1631 
L 2766 1759 
L 2194 1759 
z
M 3341 1997 
L 3341 0 
L 2766 0 
L 2766 531 
Q 2569 213 2275 61 
Q 1981 -91 1556 -91 
Q 1019 -91 701 211 
Q 384 513 384 1019 
Q 384 1609 779 1909 
Q 1175 2209 1959 2209 
L 2766 2209 
L 2766 2266 
Q 2766 2663 2505 2880 
Q 2244 3097 1772 3097 
Q 1472 3097 1187 3025 
Q 903 2953 641 2809 
L 641 3341 
Q 956 3463 1253 3523 
Q 1550 3584 1831 3584 
Q 2591 3584 2966 3190 
Q 3341 2797 3341 1997 
z
" transform="scale(0.015625)"/>
       <path id="DejaVuSans-69" d="M 603 3500 
L 1178 3500 
L 1178 0 
L 603 0 
L 603 3500 
z
M 603 4863 
L 1178 4863 
L 1178 4134 
L 603 4134 
L 603 4863 
z
" transform="scale(0.015625)"/>
       <path id="DejaVuSans-74" d="M 1172 4494 
L 1172 3500 
L 2356 3500 
L 2356 3053 
L 1172 3053 
L 1172 1153 
Q 1172 725 1289 603 
Q 1406 481 1766 481 
L 2356 481 
L 2356 0 
L 1766 0 
Q 1100 0 847 248 
Q 594 497 594 1153 
L 594 3053 
L 172 3053 
L 172 3500 
L 594 3500 
L 594 4494 
L 1172 4494 
z
" transform="scale(0.015625)"/>
       <path id="DejaVuSans-73" d="M 2834 3397 
L 2834 2853 
Q 2591 2978 2328 3040 
Q 2066 3103 1784 3103 
Q 1356 3103 1142 2972 
Q 928 2841 928 2578 
Q 928 2378 1081 2264 
Q 1234 2150 1697 2047 
L 1894 2003 
Q 2506 1872 2764 1633 
Q 3022 1394 3022 966 
Q 3022 478 2636 193 
Q 2250 -91 1575 -91 
Q 1294 -91 989 -36 
Q 684 19 347 128 
L 347 722 
Q 666 556 975 473 
Q 1284 391 1588 391 
Q 1994 391 2212 530 
Q 2431 669 2431 922 
Q 2431 1156 2273 1281 
Q 2116 1406 1581 1522 
L 1381 1569 
Q 847 1681 609 1914 
Q 372 2147 372 2553 
Q 372 3047 722 3315 
Q 1072 3584 1716 3584 
Q 2034 3584 2315 3537 
Q 2597 3491 2834 3397 
z
" transform="scale(0.015625)"/>
      </defs>
      <use xlink:href="#DejaVuSans-4e"/>
      <use xlink:href="#DejaVuSans-75" x="74.804688"/>
      <use xlink:href="#DejaVuSans-6d" x="138.183594"/>
      <use xlink:href="#DejaVuSans-62" x="235.595703"/>
      <use xlink:href="#DejaVuSans-65" x="299.072266"/>
      <use xlink:href="#DejaVuSans-72" x="360.595703"/>
      <use xlink:href="#DejaVuSans-20" x="401.708984"/>
      <use xlink:href="#DejaVuSans-6f" x="433.496094"/>
      <use xlink:href="#DejaVuSans-66" x="494.677734"/>
      <use xlink:href="#DejaVuSans-20" x="529.882812"/>
      <use xlink:href="#DejaVuSans-42" x="561.669922"/>
      <use xlink:href="#DejaVuSans-61" x="630.273438"/>
      <use xlink:href="#DejaVuSans-69" x="691.552734"/>
      <use xlink:href="#DejaVuSans-74" x="719.335938"/>
      <use xlink:href="#DejaVuSans-73" x="758.544922"/>
     </g>
    </g>
   </g>
   <g id="matplotlib.axis_2">
    <g id="ytick_1">
     <g id="line2d_7">
      <defs>
       <path id="mdfa41aaf37" d="M 0 0 
L -3.5 0 
" style="stroke: #000000; stroke-width: 0.8"/>
      </defs>
      <g>
       <use xlink:href="#mdfa41aaf37" x="44.57" y="568.095317" style="stroke: #000000; stroke-width: 0.8"/>
      </g>
     </g>
     <g id="text_8">
      <!-- 0 -->
      <g transform="translate(31.2075 571.894535) scale(0.1 -0.1)">
       <use xlink:href="#DejaVuSans-30"/>
      </g>
     </g>
    </g>
    <g id="ytick_2">
     <g id="line2d_8">
      <g>
       <use xlink:href="#mdfa41aaf37" x="44.57" y="495.935559" style="stroke: #000000; stroke-width: 0.8"/>
      </g>
     </g>
     <g id="text_9">
      <!-- 2 -->
      <g transform="translate(31.2075 499.734778) scale(0.1 -0.1)">
       <defs>
        <path id="DejaVuSans-32" d="M 1228 531 
L 3431 531 
L 3431 0 
L 469 0 
L 469 531 
Q 828 903 1448 1529 
Q 2069 2156 2228 2338 
Q 2531 2678 2651 2914 
Q 2772 3150 2772 3378 
Q 2772 3750 2511 3984 
Q 2250 4219 1831 4219 
Q 1534 4219 1204 4116 
Q 875 4013 500 3803 
L 500 4441 
Q 881 4594 1212 4672 
Q 1544 4750 1819 4750 
Q 2544 4750 2975 4387 
Q 3406 4025 3406 3419 
Q 3406 3131 3298 2873 
Q 3191 2616 2906 2266 
Q 2828 2175 2409 1742 
Q 1991 1309 1228 531 
z
" transform="scale(0.015625)"/>
       </defs>
       <use xlink:href="#DejaVuSans-32"/>
      </g>
     </g>
    </g>
    <g id="ytick_3">
     <g id="line2d_9">
      <g>
       <use xlink:href="#mdfa41aaf37" x="44.57" y="423.775802" style="stroke: #000000; stroke-width: 0.8"/>
      </g>
     </g>
     <g id="text_10">
      <!-- 4 -->
      <g transform="translate(31.2075 427.575021) scale(0.1 -0.1)">
       <use xlink:href="#DejaVuSans-34"/>
      </g>
     </g>
    </g>
    <g id="ytick_4">
     <g id="line2d_10">
      <g>
       <use xlink:href="#mdfa41aaf37" x="44.57" y="351.616045" style="stroke: #000000; stroke-width: 0.8"/>
      </g>
     </g>
     <g id="text_11">
      <!-- 6 -->
      <g transform="translate(31.2075 355.415263) scale(0.1 -0.1)">
       <use xlink:href="#DejaVuSans-36"/>
      </g>
     </g>
    </g>
    <g id="ytick_5">
     <g id="line2d_11">
      <g>
       <use xlink:href="#mdfa41aaf37" x="44.57" y="279.456287" style="stroke: #000000; stroke-width: 0.8"/>
      </g>
     </g>
     <g id="text_12">
      <!-- 8 -->
      <g transform="translate(31.2075 283.255506) scale(0.1 -0.1)">
       <use xlink:href="#DejaVuSans-38"/>
      </g>
     </g>
    </g>
    <g id="ytick_6">
     <g id="line2d_12">
      <g>
       <use xlink:href="#mdfa41aaf37" x="44.57" y="207.29653" style="stroke: #000000; stroke-width: 0.8"/>
      </g>
     </g>
     <g id="text_13">
      <!-- 10 -->
      <g transform="translate(24.845 211.095749) scale(0.1 -0.1)">
       <defs>
        <path id="DejaVuSans-31" d="M 794 531 
L 1825 531 
L 1825 4091 
L 703 3866 
L 703 4441 
L 1819 4666 
L 2450 4666 
L 2450 531 
L 3481 531 
L 3481 0 
L 794 0 
L 794 531 
z
" transform="scale(0.015625)"/>
       </defs>
       <use xlink:href="#DejaVuSans-31"/>
       <use xlink:href="#DejaVuSans-30" x="63.623047"/>
      </g>
     </g>
    </g>
    <g id="ytick_7">
     <g id="line2d_13">
      <g>
       <use xlink:href="#mdfa41aaf37" x="44.57" y="135.136773" style="stroke: #000000; stroke-width: 0.8"/>
      </g>
     </g>
     <g id="text_14">
      <!-- 12 -->
      <g transform="translate(24.845 138.935992) scale(0.1 -0.1)">
       <use xlink:href="#DejaVuSans-31"/>
       <use xlink:href="#DejaVuSans-32" x="63.623047"/>
      </g>
     </g>
    </g>
    <g id="ytick_8">
     <g id="line2d_14">
      <g>
       <use xlink:href="#mdfa41aaf37" x="44.57" y="62.977015" style="stroke: #000000; stroke-width: 0.8"/>
      </g>
     </g>
     <g id="text_15">
      <!-- 14 -->
      <g transform="translate(24.845 66.776234) scale(0.1 -0.1)">
       <use xlink:href="#DejaVuSans-31"/>
       <use xlink:href="#DejaVuSans-34" x="63.623047"/>
      </g>
     </g>
    </g>
    <g id="text_16">
     <!-- Aggregated NMF KL Scores -->
     <g transform="translate(18.765312 386.001031) rotate(-90) scale(0.1 -0.1)">
      <defs>
       <path id="DejaVuSans-41" d="M 2188 4044 
L 1331 1722 
L 3047 1722 
L 2188 4044 
z
M 1831 4666 
L 2547 4666 
L 4325 0 
L 3669 0 
L 3244 1197 
L 1141 1197 
L 716 0 
L 50 0 
L 1831 4666 
z
" transform="scale(0.015625)"/>
       <path id="DejaVuSans-67" d="M 2906 1791 
Q 2906 2416 2648 2759 
Q 2391 3103 1925 3103 
Q 1463 3103 1205 2759 
Q 947 2416 947 1791 
Q 947 1169 1205 825 
Q 1463 481 1925 481 
Q 2391 481 2648 825 
Q 2906 1169 2906 1791 
z
M 3481 434 
Q 3481 -459 3084 -895 
Q 2688 -1331 1869 -1331 
Q 1566 -1331 1297 -1286 
Q 1028 -1241 775 -1147 
L 775 -588 
Q 1028 -725 1275 -790 
Q 1522 -856 1778 -856 
Q 2344 -856 2625 -561 
Q 2906 -266 2906 331 
L 2906 616 
Q 2728 306 2450 153 
Q 2172 0 1784 0 
Q 1141 0 747 490 
Q 353 981 353 1791 
Q 353 2603 747 3093 
Q 1141 3584 1784 3584 
Q 2172 3584 2450 3431 
Q 2728 3278 2906 2969 
L 2906 3500 
L 3481 3500 
L 3481 434 
z
" transform="scale(0.015625)"/>
       <path id="DejaVuSans-64" d="M 2906 2969 
L 2906 4863 
L 3481 4863 
L 3481 0 
L 2906 0 
L 2906 525 
Q 2725 213 2448 61 
Q 2172 -91 1784 -91 
Q 1150 -91 751 415 
Q 353 922 353 1747 
Q 353 2572 751 3078 
Q 1150 3584 1784 3584 
Q 2172 3584 2448 3432 
Q 2725 3281 2906 2969 
z
M 947 1747 
Q 947 1113 1208 752 
Q 1469 391 1925 391 
Q 2381 391 2643 752 
Q 2906 1113 2906 1747 
Q 2906 2381 2643 2742 
Q 2381 3103 1925 3103 
Q 1469 3103 1208 2742 
Q 947 2381 947 1747 
z
" transform="scale(0.015625)"/>
       <path id="DejaVuSans-4d" d="M 628 4666 
L 1569 4666 
L 2759 1491 
L 3956 4666 
L 4897 4666 
L 4897 0 
L 4281 0 
L 4281 4097 
L 3078 897 
L 2444 897 
L 1241 4097 
L 1241 0 
L 628 0 
L 628 4666 
z
" transform="scale(0.015625)"/>
       <path id="DejaVuSans-46" d="M 628 4666 
L 3309 4666 
L 3309 4134 
L 1259 4134 
L 1259 2759 
L 3109 2759 
L 3109 2228 
L 1259 2228 
L 1259 0 
L 628 0 
L 628 4666 
z
" transform="scale(0.015625)"/>
       <path id="DejaVuSans-4b" d="M 628 4666 
L 1259 4666 
L 1259 2694 
L 3353 4666 
L 4166 4666 
L 1850 2491 
L 4331 0 
L 3500 0 
L 1259 2247 
L 1259 0 
L 628 0 
L 628 4666 
z
" transform="scale(0.015625)"/>
       <path id="DejaVuSans-4c" d="M 628 4666 
L 1259 4666 
L 1259 531 
L 3531 531 
L 3531 0 
L 628 0 
L 628 4666 
z
" transform="scale(0.015625)"/>
       <path id="DejaVuSans-53" d="M 3425 4513 
L 3425 3897 
Q 3066 4069 2747 4153 
Q 2428 4238 2131 4238 
Q 1616 4238 1336 4038 
Q 1056 3838 1056 3469 
Q 1056 3159 1242 3001 
Q 1428 2844 1947 2747 
L 2328 2669 
Q 3034 2534 3370 2195 
Q 3706 1856 3706 1288 
Q 3706 609 3251 259 
Q 2797 -91 1919 -91 
Q 1588 -91 1214 -16 
Q 841 59 441 206 
L 441 856 
Q 825 641 1194 531 
Q 1563 422 1919 422 
Q 2459 422 2753 634 
Q 3047 847 3047 1241 
Q 3047 1584 2836 1778 
Q 2625 1972 2144 2069 
L 1759 2144 
Q 1053 2284 737 2584 
Q 422 2884 422 3419 
Q 422 4038 858 4394 
Q 1294 4750 2059 4750 
Q 2388 4750 2728 4690 
Q 3069 4631 3425 4513 
z
" transform="scale(0.015625)"/>
       <path id="DejaVuSans-63" d="M 3122 3366 
L 3122 2828 
Q 2878 2963 2633 3030 
Q 2388 3097 2138 3097 
Q 1578 3097 1268 2742 
Q 959 2388 959 1747 
Q 959 1106 1268 751 
Q 1578 397 2138 397 
Q 2388 397 2633 464 
Q 2878 531 3122 666 
L 3122 134 
Q 2881 22 2623 -34 
Q 2366 -91 2075 -91 
Q 1284 -91 818 406 
Q 353 903 353 1747 
Q 353 2603 823 3093 
Q 1294 3584 2113 3584 
Q 2378 3584 2631 3529 
Q 2884 3475 3122 3366 
z
" transform="scale(0.015625)"/>
      </defs>
      <use xlink:href="#DejaVuSans-41"/>
      <use xlink:href="#DejaVuSans-67" x="68.408203"/>
      <use xlink:href="#DejaVuSans-67" x="131.884766"/>
      <use xlink:href="#DejaVuSans-72" x="195.361328"/>
      <use xlink:href="#DejaVuSans-65" x="234.224609"/>
      <use xlink:href="#DejaVuSans-67" x="295.748047"/>
      <use xlink:href="#DejaVuSans-61" x="359.224609"/>
      <use xlink:href="#DejaVuSans-74" x="420.503906"/>
      <use xlink:href="#DejaVuSans-65" x="459.712891"/>
      <use xlink:href="#DejaVuSans-64" x="521.236328"/>
      <use xlink:href="#DejaVuSans-20" x="584.712891"/>
      <use xlink:href="#DejaVuSans-4e" x="616.5"/>
      <use xlink:href="#DejaVuSans-4d" x="691.304688"/>
      <use xlink:href="#DejaVuSans-46" x="777.583984"/>
      <use xlink:href="#DejaVuSans-20" x="835.103516"/>
      <use xlink:href="#DejaVuSans-4b" x="866.890625"/>
      <use xlink:href="#DejaVuSans-4c" x="932.466797"/>
      <use xlink:href="#DejaVuSans-20" x="988.179688"/>
      <use xlink:href="#DejaVuSans-53" x="1019.966797"/>
      <use xlink:href="#DejaVuSans-63" x="1083.443359"/>
      <use xlink:href="#DejaVuSans-6f" x="1138.423828"/>
      <use xlink:href="#DejaVuSans-72" x="1199.605469"/>
      <use xlink:href="#DejaVuSans-65" x="1238.46875"/>
      <use xlink:href="#DejaVuSans-73" x="1299.992188"/>
     </g>
    </g>
   </g>
   <g id="line2d_15">
    <path d="M 44.57 492.867207 
L 62.34 493.599178 
L 80.11 497.174645 
L 97.88 496.258308 
L 115.65 499.434427 
L 133.42 502.103698 
L 151.19 504.704706 
L 168.96 503.905294 
L 186.73 511.417748 
L 204.5 512.614602 
L 222.27 513.904935 
L 240.04 517.192579 
L 257.81 522.589821 
L 275.58 529.647095 
L 293.35 528.073403 
L 311.12 533.412996 
L 328.89 535.631984 
L 346.66 536.082128 
L 364.43 537.943177 
L 382.2 540.139927 
L 399.97 539.675687 
L 417.74 542.989821 
L 435.51 541.84054 
L 453.28 542.463986 
L 471.05 542.046378 
L 488.82 545.941964 
L 506.59 546.204614 
L 524.36 546.138745 
L 542.13 543.556913 
L 559.9 547.109242 
L 577.67 545.815971 
L 595.44 548.322511 
L 613.21 549.934637 
L 630.98 551.138348 
L 648.75 545.688166 
L 666.52 550.942537 
L 684.29 550.600813 
L 702.06 553.400381 
L 719.83 556.210639 
L 737.6 551.453039 
L 755.37 556.72476 
L 773.14 555.384658 
L 790.91 557.911842 
L 808.68 558.217452 
L 826.45 559.155123 
L 844.22 554.912177 
L 861.99 558.27181 
L 879.76 558.003814 
L 897.53 562.615539 
L 915.3 560.647127 
L 933.07 557.181714 
" clip-path="url(#p2ecfdee794)" style="fill: none; stroke: #1f77b4; stroke-width: 1.5; stroke-linecap: square"/>
   </g>
   <g id="line2d_16">
    <path d="M 44.57 119.39059 
L 62.34 161.5015 
L 80.11 144.642822 
L 97.88 170.221629 
L 115.65 144.444937 
L 133.42 169.946547 
L 151.19 187.723579 
L 168.96 187.44419 
L 186.73 206.567222 
L 204.5 194.472279 
L 222.27 183.402089 
L 240.04 199.214842 
L 257.81 227.865712 
L 275.58 209.276518 
L 293.35 234.411673 
L 311.12 230.16788 
L 328.89 222.583261 
L 346.66 232.991251 
L 364.43 243.048182 
L 382.2 235.2316 
L 399.97 269.877313 
L 417.74 267.374312 
L 435.51 325.572421 
L 453.28 231.567036 
L 471.05 269.416864 
L 488.82 263.315873 
L 506.59 277.387095 
L 524.36 287.559871 
L 542.13 282.828685 
L 559.9 298.166357 
L 577.67 319.851085 
L 595.44 288.247578 
L 613.21 309.568902 
L 630.98 324.267406 
L 648.75 338.99757 
L 666.52 283.785113 
L 684.29 323.429947 
L 702.06 292.839243 
L 719.83 349.342528 
L 737.6 380.64943 
L 755.37 353.59189 
L 773.14 313.117588 
L 790.91 348.547497 
L 808.68 343.804705 
L 826.45 337.072286 
L 844.22 348.699005 
L 861.99 384.939575 
L 879.76 370.5705 
L 897.53 365.968009 
L 915.3 419.844004 
L 933.07 382.323522 
" clip-path="url(#p2ecfdee794)" style="fill: none; stroke: #ff7f0e; stroke-width: 1.5; stroke-linecap: square"/>
   </g>
   <g id="line2d_17">
    <path d="M 44.57 508.159762 
L 62.34 511.173535 
L 80.11 511.501147 
L 97.88 515.820839 
L 115.65 519.856646 
L 133.42 520.437767 
L 151.19 520.777782 
L 168.96 520.179346 
L 186.73 520.034105 
L 204.5 522.103082 
L 222.27 521.570496 
L 240.04 524.275892 
L 257.81 523.151317 
L 275.58 523.158151 
L 293.35 524.156677 
L 311.12 527.132795 
L 328.89 528.586048 
L 346.66 530.123771 
L 364.43 530.621495 
L 382.2 532.169828 
L 399.97 532.89582 
L 417.74 533.52856 
L 435.51 533.899422 
L 453.28 535.907948 
L 471.05 536.530288 
L 488.82 538.820917 
L 506.59 537.183904 
L 524.36 539.207197 
L 542.13 538.714093 
L 559.9 538.90788 
L 577.67 537.951497 
L 595.44 538.358234 
L 613.21 537.692617 
L 630.98 538.963512 
L 648.75 542.058996 
L 666.52 543.177888 
L 684.29 540.593125 
L 702.06 544.431053 
L 719.83 546.472204 
L 737.6 545.738793 
L 755.37 545.340168 
L 773.14 542.159917 
L 790.91 542.544751 
L 808.68 545.046053 
L 826.45 545.900203 
L 844.22 543.561763 
L 861.99 544.686938 
L 879.76 544.864353 
L 897.53 546.741208 
L 915.3 542.425871 
L 933.07 544.17435 
" clip-path="url(#p2ecfdee794)" style="fill: none; stroke: #2ca02c; stroke-width: 1.5; stroke-linecap: square"/>
   </g>
   <g id="line2d_18">
    <path d="M 44.57 502.69106 
L 62.34 508.231372 
L 80.11 515.069931 
L 97.88 517.048119 
L 115.65 518.400165 
L 133.42 519.258348 
L 151.19 517.369789 
L 168.96 520.112397 
L 186.73 519.107061 
L 204.5 522.070484 
L 222.27 521.646557 
L 240.04 523.878159 
L 257.81 524.89532 
L 275.58 527.830535 
L 293.35 527.398888 
L 311.12 527.288471 
L 328.89 531.436649 
L 346.66 529.730063 
L 364.43 529.831069 
L 382.2 532.067512 
L 399.97 531.198713 
L 417.74 531.063665 
L 435.51 533.116681 
L 453.28 535.030191 
L 471.05 538.143314 
L 488.82 539.16084 
L 506.59 537.451527 
L 524.36 538.726119 
L 542.13 537.62585 
L 559.9 540.207854 
L 577.67 540.543209 
L 595.44 541.849225 
L 613.21 539.939325 
L 630.98 541.984214 
L 648.75 539.673083 
L 666.52 538.976108 
L 684.29 542.362373 
L 702.06 543.598807 
L 719.83 544.638612 
L 737.6 550.97446 
L 755.37 548.922088 
L 773.14 551.043846 
L 790.91 548.794574 
L 808.68 548.867568 
L 826.45 551.058216 
L 844.22 546.093593 
L 861.99 545.626963 
L 879.76 548.743114 
L 897.53 545.441702 
L 915.3 548.312764 
L 933.07 551.372385 
" clip-path="url(#p2ecfdee794)" style="fill: none; stroke: #d62728; stroke-width: 1.5; stroke-linecap: square"/>
   </g>
   <g id="line2d_19">
    <path d="M 44.57 483.537329 
L 62.34 485.722358 
L 80.11 491.279362 
L 97.88 490.77328 
L 115.65 492.711536 
L 133.42 492.717656 
L 151.19 495.542138 
L 168.96 493.806344 
L 186.73 496.931805 
L 204.5 500.975993 
L 222.27 500.827002 
L 240.04 503.926455 
L 257.81 505.147823 
L 275.58 505.953663 
L 293.35 505.42303 
L 311.12 508.202219 
L 328.89 511.183224 
L 346.66 511.558789 
L 364.43 515.091721 
L 382.2 517.029478 
L 399.97 519.095967 
L 417.74 520.57732 
L 435.51 522.049058 
L 453.28 522.13495 
L 471.05 523.884031 
L 488.82 524.565266 
L 506.59 527.680471 
L 524.36 529.603856 
L 542.13 528.798725 
L 559.9 531.314329 
L 577.67 538.109395 
L 595.44 537.681837 
L 613.21 536.300511 
L 630.98 537.794953 
L 648.75 540.345087 
L 666.52 541.238658 
L 684.29 542.095791 
L 702.06 543.755426 
L 719.83 544.31792 
L 737.6 544.310516 
L 755.37 546.006736 
L 773.14 545.608217 
L 790.91 543.644736 
L 808.68 547.349715 
L 826.45 548.623439 
L 844.22 547.925146 
L 861.99 552.639912 
L 879.76 553.983853 
L 897.53 555.290954 
L 915.3 556.012333 
L 933.07 554.790274 
" clip-path="url(#p2ecfdee794)" style="fill: none; stroke: #9467bd; stroke-width: 1.5; stroke-linecap: square"/>
   </g>
   <g id="line2d_20">
    <path d="M 44.57 504.036294 
L 62.34 505.676833 
L 80.11 508.37772 
L 97.88 510.191726 
L 115.65 509.5857 
L 133.42 513.007979 
L 151.19 516.909515 
L 168.96 514.695795 
L 186.73 516.317391 
L 204.5 519.262445 
L 222.27 522.161097 
L 240.04 523.043823 
L 257.81 524.779316 
L 275.58 524.596211 
L 293.35 525.498276 
L 311.12 527.499745 
L 328.89 528.615165 
L 346.66 530.221814 
L 364.43 531.776894 
L 382.2 532.440374 
L 399.97 533.246806 
L 417.74 531.165284 
L 435.51 529.831372 
L 453.28 533.476125 
L 471.05 534.352631 
L 488.82 530.11223 
L 506.59 532.727986 
L 524.36 532.702391 
L 542.13 533.252958 
L 559.9 537.122066 
L 577.67 538.483593 
L 595.44 538.928239 
L 613.21 537.666306 
L 630.98 541.360552 
L 648.75 541.996212 
L 666.52 543.236872 
L 684.29 548.593704 
L 702.06 547.277005 
L 719.83 547.933471 
L 737.6 548.813514 
L 755.37 550.485995 
L 773.14 552.53036 
L 790.91 552.739972 
L 808.68 552.839248 
L 826.45 552.722064 
L 844.22 551.023971 
L 861.99 550.191781 
L 879.76 552.306135 
L 897.53 553.051829 
L 915.3 554.026164 
L 933.07 555.115883 
" clip-path="url(#p2ecfdee794)" style="fill: none; stroke: #8c564b; stroke-width: 1.5; stroke-linecap: square"/>
   </g>
   <g id="line2d_21">
    <path d="M 44.57 491.231696 
L 62.34 493.914948 
L 80.11 495.454078 
L 97.88 496.060451 
L 115.65 498.725586 
L 133.42 501.544763 
L 151.19 506.369286 
L 168.96 510.242287 
L 186.73 517.60144 
L 204.5 518.343048 
L 222.27 523.755089 
L 240.04 526.444246 
L 257.81 525.497961 
L 275.58 524.927971 
L 293.35 527.29426 
L 311.12 528.393724 
L 328.89 526.996697 
L 346.66 532.218076 
L 364.43 533.201124 
L 382.2 533.509548 
L 399.97 532.371693 
L 417.74 535.75593 
L 435.51 533.428527 
L 453.28 533.850814 
L 471.05 533.899922 
L 488.82 532.531856 
L 506.59 532.878481 
L 524.36 535.579634 
L 542.13 536.644749 
L 559.9 539.602864 
L 577.67 541.700101 
L 595.44 540.06775 
L 613.21 541.456524 
L 630.98 543.690902 
L 648.75 544.923604 
L 666.52 546.803283 
L 684.29 548.806603 
L 702.06 550.745739 
L 719.83 553.171576 
L 737.6 554.463013 
L 755.37 554.985733 
L 773.14 555.163835 
L 790.91 555.398731 
L 808.68 556.426201 
L 826.45 555.814106 
L 844.22 555.412662 
L 861.99 556.470825 
L 879.76 556.019288 
L 897.53 555.313043 
L 915.3 555.291599 
L 933.07 554.643584 
" clip-path="url(#p2ecfdee794)" style="fill: none; stroke: #e377c2; stroke-width: 1.5; stroke-linecap: square"/>
   </g>
   <g id="line2d_22">
    <path d="M 44.57 497.868213 
L 62.34 503.306595 
L 80.11 505.487143 
L 97.88 511.455129 
L 115.65 511.810131 
L 133.42 513.737157 
L 151.19 514.262809 
L 168.96 518.92372 
L 186.73 521.189483 
L 204.5 522.561405 
L 222.27 522.399515 
L 240.04 526.486909 
L 257.81 528.172875 
L 275.58 528.658872 
L 293.35 529.779001 
L 311.12 528.568656 
L 328.89 529.897031 
L 346.66 532.611891 
L 364.43 533.237966 
L 382.2 530.276946 
L 399.97 530.90654 
L 417.74 533.877132 
L 435.51 532.260788 
L 453.28 533.77672 
L 471.05 534.685512 
L 488.82 533.371495 
L 506.59 534.334476 
L 524.36 535.225805 
L 542.13 534.188182 
L 559.9 535.801962 
L 577.67 539.158478 
L 595.44 539.128404 
L 613.21 540.813076 
L 630.98 542.471718 
L 648.75 545.284658 
L 666.52 546.878115 
L 684.29 546.337076 
L 702.06 547.08646 
L 719.83 548.032641 
L 737.6 547.503212 
L 755.37 549.304546 
L 773.14 550.902025 
L 790.91 551.462918 
L 808.68 552.964858 
L 826.45 554.421495 
L 844.22 555.088151 
L 861.99 556.085905 
L 879.76 555.692091 
L 897.53 555.703758 
L 915.3 554.40702 
L 933.07 553.415063 
" clip-path="url(#p2ecfdee794)" style="fill: none; stroke: #7f7f7f; stroke-width: 1.5; stroke-linecap: square"/>
   </g>
   <g id="line2d_23">
    <path d="M 44.57 522.951975 
L 62.34 525.002282 
L 80.11 525.06491 
L 97.88 523.899179 
L 115.65 525.701083 
L 133.42 524.144201 
L 151.19 527.073976 
L 168.96 522.262817 
L 186.73 524.703757 
L 204.5 526.189633 
L 222.27 527.975316 
L 240.04 527.259717 
L 257.81 526.74573 
L 275.58 531.447801 
L 293.35 530.305241 
L 311.12 528.590399 
L 328.89 528.411179 
L 346.66 531.588359 
L 364.43 529.582287 
L 382.2 529.756255 
L 399.97 532.162817 
L 417.74 533.37726 
L 435.51 535.442625 
L 453.28 538.631506 
L 471.05 541.377445 
L 488.82 541.064858 
L 506.59 547.647783 
L 524.36 549.307552 
L 542.13 550.519608 
L 559.9 552.010807 
L 577.67 552.561347 
L 595.44 552.546018 
L 613.21 553.421973 
L 630.98 554.094558 
L 648.75 554.450568 
L 666.52 554.005764 
L 684.29 554.227728 
L 702.06 554.198126 
L 719.83 554.789189 
L 737.6 555.191235 
L 755.37 554.703043 
L 773.14 554.096469 
L 790.91 554.167718 
L 808.68 555.329424 
L 826.45 551.977695 
L 844.22 553.847185 
L 861.99 555.101081 
L 879.76 554.986956 
L 897.53 554.490583 
L 915.3 554.68709 
L 933.07 556.082053 
" clip-path="url(#p2ecfdee794)" style="fill: none; stroke: #bcbd22; stroke-width: 1.5; stroke-linecap: square"/>
   </g>
   <g id="line2d_24">
    <path d="M 44.57 509.965643 
L 62.34 511.699264 
L 80.11 513.457336 
L 97.88 515.314573 
L 115.65 513.997867 
L 133.42 515.183027 
L 151.19 517.118908 
L 168.96 518.20812 
L 186.73 519.240791 
L 204.5 521.882049 
L 222.27 525.024052 
L 240.04 523.824888 
L 257.81 529.642188 
L 275.58 530.237274 
L 293.35 530.436396 
L 311.12 531.80539 
L 328.89 532.764852 
L 346.66 533.548038 
L 364.43 532.281467 
L 382.2 531.854343 
L 399.97 533.042142 
L 417.74 533.244055 
L 435.51 533.432388 
L 453.28 536.133112 
L 471.05 539.748411 
L 488.82 539.17864 
L 506.59 539.032618 
L 524.36 537.360973 
L 542.13 539.701515 
L 559.9 542.471093 
L 577.67 542.756224 
L 595.44 545.839108 
L 613.21 547.857253 
L 630.98 549.781122 
L 648.75 551.074148 
L 666.52 551.464124 
L 684.29 550.013997 
L 702.06 549.975461 
L 719.83 551.348237 
L 737.6 552.963813 
L 755.37 552.426812 
L 773.14 552.563647 
L 790.91 552.141046 
L 808.68 551.671259 
L 826.45 552.692657 
L 844.22 555.23171 
L 861.99 553.598464 
L 879.76 554.147681 
L 897.53 553.100311 
L 915.3 552.995603 
L 933.07 553.365943 
" clip-path="url(#p2ecfdee794)" style="fill: none; stroke: #17becf; stroke-width: 1.5; stroke-linecap: square"/>
   </g>
   <g id="line2d_25">
    <path d="M 44.57 403.861029 
L 62.34 409.115921 
L 80.11 417.057152 
L 97.88 420.911841 
L 115.65 427.561402 
L 133.42 442.36345 
L 151.19 447.431296 
L 168.96 451.850494 
L 186.73 457.633826 
L 204.5 464.664595 
L 222.27 466.708064 
L 240.04 478.684407 
L 257.81 481.116816 
L 275.58 483.486088 
L 293.35 487.538884 
L 311.12 489.057234 
L 328.89 497.118592 
L 346.66 498.789811 
L 364.43 503.778625 
L 382.2 508.277763 
L 399.97 508.257841 
L 417.74 512.310638 
L 435.51 521.768331 
L 453.28 524.448123 
L 471.05 525.945137 
L 488.82 527.618298 
L 506.59 528.938745 
L 524.36 532.027424 
L 542.13 532.53472 
L 559.9 534.090056 
L 577.67 535.368848 
L 595.44 537.606393 
L 613.21 538.140673 
L 630.98 539.621047 
L 648.75 540.611712 
L 666.52 537.726558 
L 684.29 538.535953 
L 702.06 538.817763 
L 719.83 538.824398 
L 737.6 538.364937 
L 755.37 542.351086 
L 773.14 545.174368 
L 790.91 546.799026 
L 808.68 546.149574 
L 826.45 548.258896 
L 844.22 548.79503 
L 861.99 550.024367 
L 879.76 550.938597 
L 897.53 551.999535 
L 915.3 551.497732 
L 933.07 552.769939 
" clip-path="url(#p2ecfdee794)" style="fill: none; stroke: #9edae5; stroke-width: 1.5; stroke-linecap: square"/>
   </g>
   <g id="patch_3">
    <path d="M 44.57 606.04 
L 44.57 30.748 
" style="fill: none; stroke: #000000; stroke-width: 0.8; stroke-linejoin: miter; stroke-linecap: square"/>
   </g>
   <g id="patch_4">
    <path d="M 933.07 606.04 
L 933.07 30.748 
" style="fill: none; stroke: #000000; stroke-width: 0.8; stroke-linejoin: miter; stroke-linecap: square"/>
   </g>
   <g id="patch_5">
    <path d="M 44.57 606.04 
L 933.07 606.04 
" style="fill: none; stroke: #000000; stroke-width: 0.8; stroke-linejoin: miter; stroke-linecap: square"/>
   </g>
   <g id="patch_6">
    <path d="M 44.57 30.748 
L 933.07 30.748 
" style="fill: none; stroke: #000000; stroke-width: 0.8; stroke-linejoin: miter; stroke-linecap: square"/>
   </g>
   <g id="text_17">
    <!-- Aggregated NMF KL Scores by Number of Baits for Each Method -->
    <g transform="translate(296.835 24.748) scale(0.12 -0.12)">
     <defs>
      <path id="DejaVuSans-79" d="M 2059 -325 
Q 1816 -950 1584 -1140 
Q 1353 -1331 966 -1331 
L 506 -1331 
L 506 -850 
L 844 -850 
Q 1081 -850 1212 -737 
Q 1344 -625 1503 -206 
L 1606 56 
L 191 3500 
L 800 3500 
L 1894 763 
L 2988 3500 
L 3597 3500 
L 2059 -325 
z
" transform="scale(0.015625)"/>
      <path id="DejaVuSans-45" d="M 628 4666 
L 3578 4666 
L 3578 4134 
L 1259 4134 
L 1259 2753 
L 3481 2753 
L 3481 2222 
L 1259 2222 
L 1259 531 
L 3634 531 
L 3634 0 
L 628 0 
L 628 4666 
z
" transform="scale(0.015625)"/>
      <path id="DejaVuSans-68" d="M 3513 2113 
L 3513 0 
L 2938 0 
L 2938 2094 
Q 2938 2591 2744 2837 
Q 2550 3084 2163 3084 
Q 1697 3084 1428 2787 
Q 1159 2491 1159 1978 
L 1159 0 
L 581 0 
L 581 4863 
L 1159 4863 
L 1159 2956 
Q 1366 3272 1645 3428 
Q 1925 3584 2291 3584 
Q 2894 3584 3203 3211 
Q 3513 2838 3513 2113 
z
" transform="scale(0.015625)"/>
     </defs>
     <use xlink:href="#DejaVuSans-41"/>
     <use xlink:href="#DejaVuSans-67" x="68.408203"/>
     <use xlink:href="#DejaVuSans-67" x="131.884766"/>
     <use xlink:href="#DejaVuSans-72" x="195.361328"/>
     <use xlink:href="#DejaVuSans-65" x="234.224609"/>
     <use xlink:href="#DejaVuSans-67" x="295.748047"/>
     <use xlink:href="#DejaVuSans-61" x="359.224609"/>
     <use xlink:href="#DejaVuSans-74" x="420.503906"/>
     <use xlink:href="#DejaVuSans-65" x="459.712891"/>
     <use xlink:href="#DejaVuSans-64" x="521.236328"/>
     <use xlink:href="#DejaVuSans-20" x="584.712891"/>
     <use xlink:href="#DejaVuSans-4e" x="616.5"/>
     <use xlink:href="#DejaVuSans-4d" x="691.304688"/>
     <use xlink:href="#DejaVuSans-46" x="777.583984"/>
     <use xlink:href="#DejaVuSans-20" x="835.103516"/>
     <use xlink:href="#DejaVuSans-4b" x="866.890625"/>
     <use xlink:href="#DejaVuSans-4c" x="932.466797"/>
     <use xlink:href="#DejaVuSans-20" x="988.179688"/>
     <use xlink:href="#DejaVuSans-53" x="1019.966797"/>
     <use xlink:href="#DejaVuSans-63" x="1083.443359"/>
     <use xlink:href="#DejaVuSans-6f" x="1138.423828"/>
     <use xlink:href="#DejaVuSans-72" x="1199.605469"/>
     <use xlink:href="#DejaVuSans-65" x="1238.46875"/>
     <use xlink:href="#DejaVuSans-73" x="1299.992188"/>
     <use xlink:href="#DejaVuSans-20" x="1352.091797"/>
     <use xlink:href="#DejaVuSans-62" x="1383.878906"/>
     <use xlink:href="#DejaVuSans-79" x="1447.355469"/>
     <use xlink:href="#DejaVuSans-20" x="1506.535156"/>
     <use xlink:href="#DejaVuSans-4e" x="1538.322266"/>
     <use xlink:href="#DejaVuSans-75" x="1613.126953"/>
     <use xlink:href="#DejaVuSans-6d" x="1676.505859"/>
     <use xlink:href="#DejaVuSans-62" x="1773.917969"/>
     <use xlink:href="#DejaVuSans-65" x="1837.394531"/>
     <use xlink:href="#DejaVuSans-72" x="1898.917969"/>
     <use xlink:href="#DejaVuSans-20" x="1940.03125"/>
     <use xlink:href="#DejaVuSans-6f" x="1971.818359"/>
     <use xlink:href="#DejaVuSans-66" x="2033"/>
     <use xlink:href="#DejaVuSans-20" x="2068.205078"/>
     <use xlink:href="#DejaVuSans-42" x="2099.992188"/>
     <use xlink:href="#DejaVuSans-61" x="2168.595703"/>
     <use xlink:href="#DejaVuSans-69" x="2229.875"/>
     <use xlink:href="#DejaVuSans-74" x="2257.658203"/>
     <use xlink:href="#DejaVuSans-73" x="2296.867188"/>
     <use xlink:href="#DejaVuSans-20" x="2348.966797"/>
     <use xlink:href="#DejaVuSans-66" x="2380.753906"/>
     <use xlink:href="#DejaVuSans-6f" x="2415.958984"/>
     <use xlink:href="#DejaVuSans-72" x="2477.140625"/>
     <use xlink:href="#DejaVuSans-20" x="2518.253906"/>
     <use xlink:href="#DejaVuSans-45" x="2550.041016"/>
     <use xlink:href="#DejaVuSans-61" x="2613.224609"/>
     <use xlink:href="#DejaVuSans-63" x="2674.503906"/>
     <use xlink:href="#DejaVuSans-68" x="2729.484375"/>
     <use xlink:href="#DejaVuSans-20" x="2792.863281"/>
     <use xlink:href="#DejaVuSans-4d" x="2824.650391"/>
     <use xlink:href="#DejaVuSans-65" x="2910.929688"/>
     <use xlink:href="#DejaVuSans-74" x="2972.453125"/>
     <use xlink:href="#DejaVuSans-68" x="3011.662109"/>
     <use xlink:href="#DejaVuSans-6f" x="3075.041016"/>
     <use xlink:href="#DejaVuSans-64" x="3136.222656"/>
    </g>
   </g>
   <g id="legend_1">
    <g id="patch_7">
     <path d="M 940.07 172.555275 
L 1067.18875 172.555275 
Q 1069.18875 172.555275 1069.18875 170.555275 
L 1069.18875 8.9834 
Q 1069.18875 6.9834 1067.18875 6.9834 
L 940.07 6.9834 
Q 938.07 6.9834 938.07 8.9834 
L 938.07 170.555275 
Q 938.07 172.555275 940.07 172.555275 
z
" style="fill: #ffffff; opacity: 0.8; stroke: #cccccc; stroke-linejoin: miter"/>
    </g>
    <g id="line2d_26">
     <path d="M 942.07 15.081838 
L 952.07 15.081838 
L 962.07 15.081838 
" style="fill: none; stroke: #1f77b4; stroke-width: 1.5; stroke-linecap: square"/>
    </g>
    <g id="text_18">
     <!-- GA -->
     <g transform="translate(970.07 18.581838) scale(0.1 -0.1)">
      <defs>
       <path id="DejaVuSans-47" d="M 3809 666 
L 3809 1919 
L 2778 1919 
L 2778 2438 
L 4434 2438 
L 4434 434 
Q 4069 175 3628 42 
Q 3188 -91 2688 -91 
Q 1594 -91 976 548 
Q 359 1188 359 2328 
Q 359 3472 976 4111 
Q 1594 4750 2688 4750 
Q 3144 4750 3555 4637 
Q 3966 4525 4313 4306 
L 4313 3634 
Q 3963 3931 3569 4081 
Q 3175 4231 2741 4231 
Q 1884 4231 1454 3753 
Q 1025 3275 1025 2328 
Q 1025 1384 1454 906 
Q 1884 428 2741 428 
Q 3075 428 3337 486 
Q 3600 544 3809 666 
z
" transform="scale(0.015625)"/>
      </defs>
      <use xlink:href="#DejaVuSans-47"/>
      <use xlink:href="#DejaVuSans-41" x="77.490234"/>
     </g>
    </g>
    <g id="line2d_27">
     <path d="M 942.07 29.759963 
L 952.07 29.759963 
L 962.07 29.759963 
" style="fill: none; stroke: #ff7f0e; stroke-width: 1.5; stroke-linecap: square"/>
    </g>
    <g id="text_19">
     <!-- Random -->
     <g transform="translate(970.07 33.259963) scale(0.1 -0.1)">
      <defs>
       <path id="DejaVuSans-52" d="M 2841 2188 
Q 3044 2119 3236 1894 
Q 3428 1669 3622 1275 
L 4263 0 
L 3584 0 
L 2988 1197 
Q 2756 1666 2539 1819 
Q 2322 1972 1947 1972 
L 1259 1972 
L 1259 0 
L 628 0 
L 628 4666 
L 2053 4666 
Q 2853 4666 3247 4331 
Q 3641 3997 3641 3322 
Q 3641 2881 3436 2590 
Q 3231 2300 2841 2188 
z
M 1259 4147 
L 1259 2491 
L 2053 2491 
Q 2509 2491 2742 2702 
Q 2975 2913 2975 3322 
Q 2975 3731 2742 3939 
Q 2509 4147 2053 4147 
L 1259 4147 
z
" transform="scale(0.015625)"/>
       <path id="DejaVuSans-6e" d="M 3513 2113 
L 3513 0 
L 2938 0 
L 2938 2094 
Q 2938 2591 2744 2837 
Q 2550 3084 2163 3084 
Q 1697 3084 1428 2787 
Q 1159 2491 1159 1978 
L 1159 0 
L 581 0 
L 581 3500 
L 1159 3500 
L 1159 2956 
Q 1366 3272 1645 3428 
Q 1925 3584 2291 3584 
Q 2894 3584 3203 3211 
Q 3513 2838 3513 2113 
z
" transform="scale(0.015625)"/>
      </defs>
      <use xlink:href="#DejaVuSans-52"/>
      <use xlink:href="#DejaVuSans-61" x="67.232422"/>
      <use xlink:href="#DejaVuSans-6e" x="128.511719"/>
      <use xlink:href="#DejaVuSans-64" x="191.890625"/>
      <use xlink:href="#DejaVuSans-6f" x="255.367188"/>
      <use xlink:href="#DejaVuSans-6d" x="316.548828"/>
     </g>
    </g>
    <g id="line2d_28">
     <path d="M 942.07 44.438088 
L 952.07 44.438088 
L 962.07 44.438088 
" style="fill: none; stroke: #2ca02c; stroke-width: 1.5; stroke-linecap: square"/>
    </g>
    <g id="text_20">
     <!-- chi_2 -->
     <g transform="translate(970.07 47.938088) scale(0.1 -0.1)">
      <defs>
       <path id="DejaVuSans-5f" d="M 3263 -1063 
L 3263 -1509 
L -63 -1509 
L -63 -1063 
L 3263 -1063 
z
" transform="scale(0.015625)"/>
      </defs>
      <use xlink:href="#DejaVuSans-63"/>
      <use xlink:href="#DejaVuSans-68" x="54.980469"/>
      <use xlink:href="#DejaVuSans-69" x="118.359375"/>
      <use xlink:href="#DejaVuSans-5f" x="146.142578"/>
      <use xlink:href="#DejaVuSans-32" x="196.142578"/>
     </g>
    </g>
    <g id="line2d_29">
     <path d="M 942.07 59.394338 
L 952.07 59.394338 
L 962.07 59.394338 
" style="fill: none; stroke: #d62728; stroke-width: 1.5; stroke-linecap: square"/>
    </g>
    <g id="text_21">
     <!-- f_classif -->
     <g transform="translate(970.07 62.894338) scale(0.1 -0.1)">
      <defs>
       <path id="DejaVuSans-6c" d="M 603 4863 
L 1178 4863 
L 1178 0 
L 603 0 
L 603 4863 
z
" transform="scale(0.015625)"/>
      </defs>
      <use xlink:href="#DejaVuSans-66"/>
      <use xlink:href="#DejaVuSans-5f" x="35.205078"/>
      <use xlink:href="#DejaVuSans-63" x="85.205078"/>
      <use xlink:href="#DejaVuSans-6c" x="140.185547"/>
      <use xlink:href="#DejaVuSans-61" x="167.96875"/>
      <use xlink:href="#DejaVuSans-73" x="229.248047"/>
      <use xlink:href="#DejaVuSans-73" x="281.347656"/>
      <use xlink:href="#DejaVuSans-69" x="333.447266"/>
      <use xlink:href="#DejaVuSans-66" x="361.230469"/>
     </g>
    </g>
    <g id="line2d_30">
     <path d="M 942.07 74.350588 
L 952.07 74.350588 
L 962.07 74.350588 
" style="fill: none; stroke: #9467bd; stroke-width: 1.5; stroke-linecap: square"/>
    </g>
    <g id="text_22">
     <!-- mutual_info_classif -->
     <g transform="translate(970.07 77.850588) scale(0.1 -0.1)">
      <use xlink:href="#DejaVuSans-6d"/>
      <use xlink:href="#DejaVuSans-75" x="97.412109"/>
      <use xlink:href="#DejaVuSans-74" x="160.791016"/>
      <use xlink:href="#DejaVuSans-75" x="200"/>
      <use xlink:href="#DejaVuSans-61" x="263.378906"/>
      <use xlink:href="#DejaVuSans-6c" x="324.658203"/>
      <use xlink:href="#DejaVuSans-5f" x="352.441406"/>
      <use xlink:href="#DejaVuSans-69" x="402.441406"/>
      <use xlink:href="#DejaVuSans-6e" x="430.224609"/>
      <use xlink:href="#DejaVuSans-66" x="493.603516"/>
      <use xlink:href="#DejaVuSans-6f" x="528.808594"/>
      <use xlink:href="#DejaVuSans-5f" x="589.990234"/>
      <use xlink:href="#DejaVuSans-63" x="639.990234"/>
      <use xlink:href="#DejaVuSans-6c" x="694.970703"/>
      <use xlink:href="#DejaVuSans-61" x="722.753906"/>
      <use xlink:href="#DejaVuSans-73" x="784.033203"/>
      <use xlink:href="#DejaVuSans-73" x="836.132812"/>
      <use xlink:href="#DejaVuSans-69" x="888.232422"/>
      <use xlink:href="#DejaVuSans-66" x="916.015625"/>
     </g>
    </g>
    <g id="line2d_31">
     <path d="M 942.07 89.306838 
L 952.07 89.306838 
L 962.07 89.306838 
" style="fill: none; stroke: #8c564b; stroke-width: 1.5; stroke-linecap: square"/>
    </g>
    <g id="text_23">
     <!-- lasso -->
     <g transform="translate(970.07 92.806838) scale(0.1 -0.1)">
      <use xlink:href="#DejaVuSans-6c"/>
      <use xlink:href="#DejaVuSans-61" x="27.783203"/>
      <use xlink:href="#DejaVuSans-73" x="89.0625"/>
      <use xlink:href="#DejaVuSans-73" x="141.162109"/>
      <use xlink:href="#DejaVuSans-6f" x="193.261719"/>
     </g>
    </g>
    <g id="line2d_32">
     <path d="M 942.07 103.984963 
L 952.07 103.984963 
L 962.07 103.984963 
" style="fill: none; stroke: #e377c2; stroke-width: 1.5; stroke-linecap: square"/>
    </g>
    <g id="text_24">
     <!-- ridge -->
     <g transform="translate(970.07 107.484963) scale(0.1 -0.1)">
      <use xlink:href="#DejaVuSans-72"/>
      <use xlink:href="#DejaVuSans-69" x="41.113281"/>
      <use xlink:href="#DejaVuSans-64" x="68.896484"/>
      <use xlink:href="#DejaVuSans-67" x="132.373047"/>
      <use xlink:href="#DejaVuSans-65" x="195.849609"/>
     </g>
    </g>
    <g id="line2d_33">
     <path d="M 942.07 118.663088 
L 952.07 118.663088 
L 962.07 118.663088 
" style="fill: none; stroke: #7f7f7f; stroke-width: 1.5; stroke-linecap: square"/>
    </g>
    <g id="text_25">
     <!-- elastic_net -->
     <g transform="translate(970.07 122.163088) scale(0.1 -0.1)">
      <use xlink:href="#DejaVuSans-65"/>
      <use xlink:href="#DejaVuSans-6c" x="61.523438"/>
      <use xlink:href="#DejaVuSans-61" x="89.306641"/>
      <use xlink:href="#DejaVuSans-73" x="150.585938"/>
      <use xlink:href="#DejaVuSans-74" x="202.685547"/>
      <use xlink:href="#DejaVuSans-69" x="241.894531"/>
      <use xlink:href="#DejaVuSans-63" x="269.677734"/>
      <use xlink:href="#DejaVuSans-5f" x="324.658203"/>
      <use xlink:href="#DejaVuSans-6e" x="374.658203"/>
      <use xlink:href="#DejaVuSans-65" x="438.037109"/>
      <use xlink:href="#DejaVuSans-74" x="499.560547"/>
     </g>
    </g>
    <g id="line2d_34">
     <path d="M 942.07 133.619338 
L 952.07 133.619338 
L 962.07 133.619338 
" style="fill: none; stroke: #bcbd22; stroke-width: 1.5; stroke-linecap: square"/>
    </g>
    <g id="text_26">
     <!-- rf -->
     <g transform="translate(970.07 137.119338) scale(0.1 -0.1)">
      <use xlink:href="#DejaVuSans-72"/>
      <use xlink:href="#DejaVuSans-66" x="41.113281"/>
     </g>
    </g>
    <g id="line2d_35">
     <path d="M 942.07 148.297463 
L 952.07 148.297463 
L 962.07 148.297463 
" style="fill: none; stroke: #17becf; stroke-width: 1.5; stroke-linecap: square"/>
    </g>
    <g id="text_27">
     <!-- gbm -->
     <g transform="translate(970.07 151.797463) scale(0.1 -0.1)">
      <use xlink:href="#DejaVuSans-67"/>
      <use xlink:href="#DejaVuSans-62" x="63.476562"/>
      <use xlink:href="#DejaVuSans-6d" x="126.953125"/>
     </g>
    </g>
    <g id="line2d_36">
     <path d="M 942.07 162.975588 
L 952.07 162.975588 
L 962.07 162.975588 
" style="fill: none; stroke: #9edae5; stroke-width: 1.5; stroke-linecap: square"/>
    </g>
    <g id="text_28">
     <!-- xgb -->
     <g transform="translate(970.07 166.475588) scale(0.1 -0.1)">
      <defs>
       <path id="DejaVuSans-78" d="M 3513 3500 
L 2247 1797 
L 3578 0 
L 2900 0 
L 1881 1375 
L 863 0 
L 184 0 
L 1544 1831 
L 300 3500 
L 978 3500 
L 1906 2253 
L 2834 3500 
L 3513 3500 
z
" transform="scale(0.015625)"/>
      </defs>
      <use xlink:href="#DejaVuSans-78"/>
      <use xlink:href="#DejaVuSans-67" x="59.179688"/>
      <use xlink:href="#DejaVuSans-62" x="122.65625"/>
     </g>
    </g>
   </g>
  </g>
 </g>
 <defs>
  <clipPath id="p2ecfdee794">
   <rect x="44.57" y="30.748" width="888.5" height="575.292"/>
  </clipPath>
 </defs>
</svg>
