<?xml version="1.0" encoding="utf-8" standalone="no"?>
<!DOCTYPE svg PUBLIC "-//W3C//DTD SVG 1.1//EN"
  "http://www.w3.org/Graphics/SVG/1.1/DTD/svg11.dtd">
<svg xmlns:xlink="http://www.w3.org/1999/xlink" width="1080pt" height="648pt" viewBox="0 0 1080 648" xmlns="http://www.w3.org/2000/svg" version="1.1">
 <metadata>
  <rdf:RDF xmlns:dc="http://purl.org/dc/elements/1.1/" xmlns:cc="http://creativecommons.org/ns#" xmlns:rdf="http://www.w3.org/1999/02/22-rdf-syntax-ns#">
   <cc:Work>
    <dc:type rdf:resource="http://purl.org/dc/dcmitype/StillImage"/>
    <dc:date>2024-04-14T11:49:31.993429</dc:date>
    <dc:format>image/svg+xml</dc:format>
    <dc:creator>
     <cc:Agent>
      <dc:title>Matplotlib v3.7.2, https://matplotlib.org/</dc:title>
     </cc:Agent>
    </dc:creator>
   </cc:Work>
  </rdf:RDF>
 </metadata>
 <defs>
  <style type="text/css">*{stroke-linejoin: round; stroke-linecap: butt}</style>
 </defs>
 <g id="figure_1">
  <g id="patch_1">
   <path d="M 0 648 
L 1080 648 
L 1080 0 
L 0 0 
z
" style="fill: #ffffff"/>
  </g>
  <g id="axes_1">
   <g id="patch_2">
    <path d="M 51.365 602.44 
L 1062.855 602.44 
L 1062.855 14.76 
L 51.365 14.76 
z
" style="fill: #ffffff"/>
   </g>
   <g id="PolyCollection_1">
    <defs>
     <path id="md5f5947949" d="M 51.365 -616.743159 
L 51.365 -568.845291 
L 71.5948 -568.084739 
L 91.8246 -568.154903 
L 112.0544 -567.320128 
L 132.2842 -566.151772 
L 152.514 -568.395822 
L 172.7438 -564.763683 
L 192.9736 -566.578163 
L 213.2034 -571.00333 
L 233.4332 -574.712466 
L 253.663 -575.151677 
L 273.8928 -574.902306 
L 294.1226 -576.216012 
L 314.3524 -582.422439 
L 334.5822 -580.558955 
L 354.812 -584.15442 
L 375.0418 -587.377981 
L 395.2716 -586.129666 
L 415.5014 -586.415533 
L 435.7312 -592.434985 
L 455.961 -592.772084 
L 476.1908 -593.843605 
L 496.4206 -598.023002 
L 516.6504 -593.635114 
L 536.8802 -596.117236 
L 557.11 -597.589818 
L 577.3398 -596.903086 
L 597.5696 -600.075033 
L 617.7994 -598.077391 
L 638.0292 -601.279399 
L 658.259 -596.638666 
L 678.4888 -602.320385 
L 698.7186 -603.661297 
L 718.9484 -602.817014 
L 739.1782 -598.142712 
L 759.408 -604.434348 
L 779.6378 -603.361075 
L 799.8676 -606.610726 
L 820.0974 -611.201934 
L 840.3272 -599.867365 
L 860.557 -609.700435 
L 880.7868 -605.868214 
L 901.0166 -611.787549 
L 921.2464 -611.965981 
L 941.4762 -613.162345 
L 961.706 -601.979462 
L 981.9358 -606.562707 
L 1002.1656 -607.417048 
L 1022.3954 -619.749121 
L 1042.6252 -611.682909 
L 1062.855 -602.716701 
L 1062.855 -646.552965 
L 1062.855 -646.552965 
L 1042.6252 -644.728934 
L 1022.3954 -641.571416 
L 1002.1656 -644.866324 
L 981.9358 -645.220581 
L 961.706 -645.153001 
L 941.4762 -643.248965 
L 921.2464 -642.967199 
L 901.0166 -643.004424 
L 880.7868 -644.029706 
L 860.557 -644.053912 
L 840.3272 -642.675356 
L 820.0974 -641.928168 
L 799.8676 -641.609734 
L 779.6378 -639.984048 
L 759.408 -640.430126 
L 739.1782 -636.410289 
L 718.9484 -641.01941 
L 698.7186 -639.930534 
L 678.4888 -638.731371 
L 658.259 -637.659313 
L 638.0292 -638.270543 
L 617.7994 -635.302872 
L 597.5696 -636.514359 
L 577.3398 -637.777511 
L 557.11 -638.862972 
L 536.8802 -634.469172 
L 516.6504 -636.437359 
L 496.4206 -634.863594 
L 476.1908 -637.230386 
L 455.961 -636.045675 
L 435.7312 -635.719655 
L 415.5014 -633.468749 
L 395.2716 -631.902443 
L 375.0418 -632.237349 
L 354.812 -631.23506 
L 334.5822 -627.280926 
L 314.3524 -629.265948 
L 294.1226 -625.7326 
L 273.8928 -621.545357 
L 253.663 -623.320737 
L 233.4332 -620.950994 
L 213.2034 -623.066523 
L 192.9736 -623.386125 
L 172.7438 -623.406096 
L 152.514 -620.363885 
L 132.2842 -620.667378 
L 112.0544 -618.95595 
L 91.8246 -619.721391 
L 71.5948 -621.18659 
L 51.365 -616.743159 
z
" style="stroke: #1f77b4; stroke-opacity: 0.2"/>
    </defs>
    <g clip-path="url(#p2296847fa8)">
     <use xlink:href="#md5f5947949" x="0" y="648" style="fill: #1f77b4; fill-opacity: 0.2; stroke: #1f77b4; stroke-opacity: 0.2"/>
    </g>
   </g>
   <g id="PolyCollection_2">
    <defs>
     <path id="mbb80420095" d="M 51.365 -327.587664 
L 51.365 -214.197592 
L 71.5948 -252.06766 
L 91.8246 -238.058841 
L 112.0544 -252.525506 
L 132.2842 -240.071418 
L 152.514 -268.812137 
L 172.7438 -272.457528 
L 192.9736 -265.564245 
L 213.2034 -297.836839 
L 233.4332 -268.911385 
L 253.663 -268.555807 
L 273.8928 -301.114036 
L 294.1226 -301.478641 
L 314.3524 -288.811456 
L 334.5822 -309.908191 
L 354.812 -302.451457 
L 375.0418 -307.174772 
L 395.2716 -322.040077 
L 415.5014 -332.807572 
L 435.7312 -316.697118 
L 455.961 -354.889994 
L 476.1908 -330.206717 
L 496.4206 -375.310149 
L 516.6504 -318.734229 
L 536.8802 -331.226923 
L 557.11 -342.20671 
L 577.3398 -350.637951 
L 597.5696 -348.786573 
L 617.7994 -353.121542 
L 638.0292 -338.257684 
L 658.259 -385.123365 
L 678.4888 -370.046946 
L 698.7186 -362.913446 
L 718.9484 -374.97946 
L 739.1782 -379.00317 
L 759.408 -350.956198 
L 779.6378 -370.006325 
L 799.8676 -349.944434 
L 820.0974 -397.682647 
L 840.3272 -429.418064 
L 860.557 -403.308432 
L 880.7868 -372.417119 
L 901.0166 -418.641281 
L 921.2464 -397.869197 
L 941.4762 -382.297683 
L 961.706 -389.714803 
L 981.9358 -440.725673 
L 1002.1656 -409.083902 
L 1022.3954 -402.624635 
L 1042.6252 -462.117164 
L 1062.855 -427.955684 
L 1062.855 -531.733315 
L 1062.855 -531.733315 
L 1042.6252 -558.683711 
L 1022.3954 -514.493653 
L 1002.1656 -527.126221 
L 981.9358 -516.332344 
L 961.706 -504.362433 
L 941.4762 -503.604998 
L 921.2464 -496.472677 
L 901.0166 -481.34825 
L 880.7868 -469.25605 
L 860.557 -507.722221 
L 840.3272 -525.039439 
L 820.0974 -512.109479 
L 799.8676 -451.004779 
L 779.6378 -487.430171 
L 759.408 -425.5333 
L 739.1782 -508.20038 
L 718.9484 -488.377037 
L 698.7186 -476.532397 
L 678.4888 -430.712865 
L 658.259 -472.449652 
L 638.0292 -479.077496 
L 617.7994 -445.828344 
L 597.5696 -453.654322 
L 577.3398 -446.387953 
L 557.11 -422.298602 
L 536.8802 -445.865967 
L 516.6504 -397.66251 
L 496.4206 -503.071958 
L 476.1908 -442.688755 
L 455.961 -424.858531 
L 435.7312 -406.564525 
L 415.5014 -405.543464 
L 395.2716 -389.929757 
L 375.0418 -397.439294 
L 354.812 -417.782287 
L 334.5822 -430.522434 
L 314.3524 -389.032261 
L 294.1226 -415.780265 
L 273.8928 -373.51996 
L 253.663 -371.111174 
L 233.4332 -387.486768 
L 213.2034 -382.798717 
L 192.9736 -382.235129 
L 172.7438 -379.557749 
L 152.514 -353.834565 
L 132.2842 -340.607221 
L 112.0544 -368.907134 
L 91.8246 -340.280731 
L 71.5948 -356.840868 
L 51.365 -327.587664 
z
" style="stroke: #ff7f0e; stroke-opacity: 0.2"/>
    </defs>
    <g clip-path="url(#p2296847fa8)">
     <use xlink:href="#mbb80420095" x="0" y="648" style="fill: #ff7f0e; fill-opacity: 0.2; stroke: #ff7f0e; stroke-opacity: 0.2"/>
    </g>
   </g>
   <g id="PolyCollection_3">
    <defs>
     <path id="m15e9b24555" d="M 51.365 -619.638122 
L 51.365 -573.744153 
L 71.5948 -577.948355 
L 91.8246 -573.937983 
L 112.0544 -576.973497 
L 132.2842 -580.020776 
L 152.514 -582.017699 
L 172.7438 -582.160979 
L 192.9736 -580.629007 
L 213.2034 -577.360064 
L 233.4332 -581.264845 
L 253.663 -579.103054 
L 273.8928 -581.985104 
L 294.1226 -579.60916 
L 314.3524 -578.526027 
L 334.5822 -578.08781 
L 354.812 -582.687923 
L 375.0418 -584.108846 
L 395.2716 -584.227131 
L 415.5014 -584.295832 
L 435.7312 -583.296495 
L 455.961 -585.383634 
L 476.1908 -584.517561 
L 496.4206 -582.898719 
L 516.6504 -584.807012 
L 536.8802 -583.644508 
L 557.11 -586.738245 
L 577.3398 -585.383579 
L 597.5696 -586.549102 
L 617.7994 -586.058074 
L 638.0292 -587.345375 
L 658.259 -585.519098 
L 678.4888 -585.239715 
L 698.7186 -584.777258 
L 718.9484 -584.727449 
L 739.1782 -590.641146 
L 759.408 -593.096681 
L 779.6378 -589.529643 
L 799.8676 -594.229312 
L 820.0974 -597.641788 
L 840.3272 -594.503112 
L 860.557 -593.930752 
L 880.7868 -591.428558 
L 901.0166 -593.490702 
L 921.2464 -594.112834 
L 941.4762 -595.541718 
L 961.706 -589.861156 
L 981.9358 -589.699639 
L 1002.1656 -589.189866 
L 1022.3954 -592.824108 
L 1042.6252 -586.242796 
L 1062.855 -586.841286 
L 1062.855 -642.066401 
L 1062.855 -642.066401 
L 1042.6252 -638.345459 
L 1022.3954 -639.209156 
L 1002.1656 -638.619964 
L 981.9358 -638.428579 
L 961.706 -635.497346 
L 941.4762 -633.860802 
L 921.2464 -635.268093 
L 901.0166 -633.000019 
L 880.7868 -633.04572 
L 860.557 -635.66347 
L 840.3272 -636.66888 
L 820.0974 -636.736894 
L 799.8676 -635.721288 
L 779.6378 -633.777223 
L 759.408 -634.567868 
L 739.1782 -634.062326 
L 718.9484 -633.960095 
L 698.7186 -631.562573 
L 678.4888 -634.649436 
L 658.259 -632.288103 
L 638.0292 -633.32458 
L 617.7994 -633.680518 
L 597.5696 -633.899452 
L 577.3398 -631.915963 
L 557.11 -631.790787 
L 536.8802 -631.90293 
L 516.6504 -629.34346 
L 496.4206 -628.026443 
L 476.1908 -628.955652 
L 455.961 -628.779577 
L 435.7312 -629.703163 
L 415.5014 -629.066071 
L 395.2716 -629.308357 
L 375.0418 -627.523226 
L 354.812 -626.313075 
L 334.5822 -624.505788 
L 314.3524 -624.808404 
L 294.1226 -624.464931 
L 273.8928 -626.226735 
L 253.663 -624.175894 
L 233.4332 -624.345869 
L 213.2034 -626.268759 
L 192.9736 -624.664244 
L 172.7438 -625.407817 
L 152.514 -625.071585 
L 132.2842 -624.681247 
L 112.0544 -622.978323 
L 91.8246 -622.173756 
L 71.5948 -620.375299 
L 51.365 -619.638122 
z
" style="stroke: #2ca02c; stroke-opacity: 0.2"/>
    </defs>
    <g clip-path="url(#p2296847fa8)">
     <use xlink:href="#m15e9b24555" x="0" y="648" style="fill: #2ca02c; fill-opacity: 0.2; stroke: #2ca02c; stroke-opacity: 0.2"/>
    </g>
   </g>
   <g id="PolyCollection_4">
    <defs>
     <path id="m6755dd87a6" d="M 51.365 -620.691573 
L 51.365 -570.541323 
L 71.5948 -576.989232 
L 91.8246 -583.932031 
L 112.0544 -582.974269 
L 132.2842 -583.195894 
L 152.514 -583.381999 
L 172.7438 -579.013297 
L 192.9736 -582.793537 
L 213.2034 -578.395524 
L 233.4332 -582.015534 
L 253.663 -580.930915 
L 273.8928 -583.315561 
L 294.1226 -583.537463 
L 314.3524 -587.239483 
L 334.5822 -584.54089 
L 354.812 -584.664134 
L 375.0418 -587.241393 
L 395.2716 -581.252086 
L 415.5014 -580.211103 
L 435.7312 -585.555837 
L 455.961 -585.600757 
L 476.1908 -584.738565 
L 496.4206 -585.473515 
L 516.6504 -587.155771 
L 536.8802 -592.53403 
L 557.11 -592.826349 
L 577.3398 -591.207779 
L 597.5696 -593.68364 
L 617.7994 -590.351245 
L 638.0292 -594.140927 
L 658.259 -594.423813 
L 678.4888 -595.175887 
L 698.7186 -592.849809 
L 718.9484 -593.11329 
L 739.1782 -590.948424 
L 759.408 -587.12152 
L 779.6378 -594.37599 
L 799.8676 -595.127636 
L 820.0974 -596.797114 
L 840.3272 -603.726902 
L 860.557 -600.379458 
L 880.7868 -602.414089 
L 901.0166 -596.711166 
L 921.2464 -598.335399 
L 941.4762 -602.52095 
L 961.706 -592.338735 
L 981.9358 -590.632243 
L 1002.1656 -594.948328 
L 1022.3954 -587.834337 
L 1042.6252 -592.918027 
L 1062.855 -598.241713 
L 1062.855 -644.525175 
L 1062.855 -644.525175 
L 1042.6252 -644.140599 
L 1022.3954 -643.916219 
L 1002.1656 -643.068417 
L 981.9358 -642.611556 
L 961.706 -643.005942 
L 941.4762 -643.148006 
L 921.2464 -643.51634 
L 901.0166 -643.820438 
L 880.7868 -643.258498 
L 860.557 -641.602356 
L 840.3272 -642.970929 
L 820.0974 -638.101527 
L 799.8676 -638.299114 
L 779.6378 -636.104105 
L 759.408 -636.115697 
L 739.1782 -636.390935 
L 718.9484 -636.982087 
L 698.7186 -634.190888 
L 678.4888 -635.604149 
L 658.259 -635.194531 
L 638.0292 -635.164694 
L 617.7994 -633.593769 
L 597.5696 -634.884825 
L 577.3398 -635.833992 
L 557.11 -637.19708 
L 536.8802 -635.851651 
L 516.6504 -635.130019 
L 496.4206 -635.284328 
L 476.1908 -631.874707 
L 455.961 -631.495919 
L 435.7312 -633.248199 
L 415.5014 -633.946466 
L 395.2716 -634.413217 
L 375.0418 -633.660129 
L 354.812 -634.071678 
L 334.5822 -633.757075 
L 314.3524 -633.507201 
L 294.1226 -629.671807 
L 273.8928 -630.190382 
L 253.663 -629.103936 
L 233.4332 -629.621018 
L 213.2034 -627.091309 
L 192.9736 -626.70143 
L 172.7438 -626.231636 
L 152.514 -626.719313 
L 132.2842 -627.006801 
L 112.0544 -625.588058 
L 91.8246 -624.602621 
L 71.5948 -623.425385 
L 51.365 -620.691573 
z
" style="stroke: #d62728; stroke-opacity: 0.2"/>
    </defs>
    <g clip-path="url(#p2296847fa8)">
     <use xlink:href="#m6755dd87a6" x="0" y="648" style="fill: #d62728; fill-opacity: 0.2; stroke: #d62728; stroke-opacity: 0.2"/>
    </g>
   </g>
   <g id="PolyCollection_5">
    <defs>
     <path id="m3df0b4cffb" d="M 51.365 -609.768765 
L 51.365 -550.568988 
L 71.5948 -554.220506 
L 91.8246 -560.719323 
L 112.0544 -560.626863 
L 132.2842 -561.109548 
L 152.514 -561.227329 
L 172.7438 -562.676562 
L 192.9736 -558.514045 
L 213.2034 -562.051076 
L 233.4332 -567.567704 
L 253.663 -568.559488 
L 273.8928 -569.883372 
L 294.1226 -570.39936 
L 314.3524 -568.913974 
L 334.5822 -568.94165 
L 354.812 -570.020045 
L 375.0418 -572.199836 
L 395.2716 -573.640114 
L 415.5014 -576.335201 
L 435.7312 -578.337059 
L 455.961 -578.920962 
L 476.1908 -579.228141 
L 496.4206 -579.902154 
L 516.6504 -579.177168 
L 536.8802 -582.803932 
L 557.11 -582.928257 
L 577.3398 -584.471706 
L 597.5696 -585.447269 
L 617.7994 -584.9445 
L 638.0292 -586.729204 
L 658.259 -597.035768 
L 678.4888 -596.496338 
L 698.7186 -593.92074 
L 718.9484 -594.395716 
L 739.1782 -597.766292 
L 759.408 -599.58299 
L 779.6378 -600.19242 
L 799.8676 -601.986729 
L 820.0974 -600.272595 
L 840.3272 -600.42757 
L 860.557 -602.445413 
L 880.7868 -601.500827 
L 901.0166 -597.954447 
L 921.2464 -602.605363 
L 941.4762 -603.129115 
L 961.706 -600.004969 
L 981.9358 -609.08212 
L 1002.1656 -614.773735 
L 1022.3954 -615.896383 
L 1042.6252 -617.056479 
L 1062.855 -614.696311 
L 1062.855 -640.700468 
L 1062.855 -640.700468 
L 1042.6252 -640.3255 
L 1022.3954 -640.559633 
L 1002.1656 -640.262009 
L 981.9358 -641.565035 
L 961.706 -642.370862 
L 941.4762 -641.589362 
L 921.2464 -640.986375 
L 901.0166 -639.309753 
L 880.7868 -640.13598 
L 860.557 -641.053839 
L 840.3272 -639.867147 
L 820.0974 -641.042527 
L 799.8676 -639.609652 
L 779.6378 -638.797388 
L 759.408 -638.958403 
L 739.1782 -639.505678 
L 718.9484 -638.929629 
L 698.7186 -637.764308 
L 678.4888 -638.135983 
L 658.259 -638.570625 
L 638.0292 -636.023351 
L 617.7994 -635.536082 
L 597.5696 -637.098598 
L 577.3398 -636.109292 
L 557.11 -633.634321 
L 536.8802 -633.342447 
L 516.6504 -633.094115 
L 496.4206 -633.54397 
L 476.1908 -633.926753 
L 455.961 -631.995707 
L 435.7312 -629.377661 
L 415.5014 -629.296056 
L 395.2716 -626.063252 
L 375.0418 -624.810724 
L 354.812 -624.934715 
L 334.5822 -622.389604 
L 314.3524 -623.013524 
L 294.1226 -623.25121 
L 273.8928 -623.218412 
L 253.663 -620.688226 
L 233.4332 -620.535568 
L 213.2034 -617.186252 
L 192.9736 -615.759709 
L 172.7438 -617.493679 
L 152.514 -615.108082 
L 132.2842 -616.226569 
L 112.0544 -613.350043 
L 91.8246 -614.10392 
L 71.5948 -610.299948 
L 51.365 -609.768765 
z
" style="stroke: #9467bd; stroke-opacity: 0.2"/>
    </defs>
    <g clip-path="url(#p2296847fa8)">
     <use xlink:href="#m3df0b4cffb" x="0" y="648" style="fill: #9467bd; fill-opacity: 0.2; stroke: #9467bd; stroke-opacity: 0.2"/>
    </g>
   </g>
   <g id="PolyCollection_6">
    <defs>
     <path id="m26435f37de" d="M 51.365 -610.420466 
L 51.365 -559.344984 
L 71.5948 -559.277231 
L 91.8246 -561.539411 
L 112.0544 -562.639005 
L 132.2842 -561.637565 
L 152.514 -563.673144 
L 172.7438 -567.282982 
L 192.9736 -563.760047 
L 213.2034 -566.315675 
L 233.4332 -568.975119 
L 253.663 -574.398591 
L 273.8928 -573.440434 
L 294.1226 -576.442096 
L 314.3524 -574.653815 
L 334.5822 -575.659536 
L 354.812 -577.188122 
L 375.0418 -578.663276 
L 395.2716 -580.818365 
L 415.5014 -581.716335 
L 435.7312 -582.966194 
L 455.961 -583.754414 
L 476.1908 -579.046294 
L 496.4206 -575.245501 
L 516.6504 -579.104153 
L 536.8802 -581.137118 
L 557.11 -572.884035 
L 577.3398 -576.994654 
L 597.5696 -577.816128 
L 617.7994 -576.631423 
L 638.0292 -581.800953 
L 658.259 -584.703918 
L 678.4888 -584.393558 
L 698.7186 -580.246213 
L 718.9484 -586.285912 
L 739.1782 -586.335929 
L 759.408 -586.349351 
L 779.6378 -596.372519 
L 799.8676 -593.015029 
L 820.0974 -593.351879 
L 840.3272 -595.367202 
L 860.557 -597.501855 
L 880.7868 -599.10184 
L 901.0166 -600.221244 
L 921.2464 -599.35633 
L 941.4762 -598.606108 
L 961.706 -595.787075 
L 981.9358 -595.196364 
L 1002.1656 -597.310039 
L 1022.3954 -598.910037 
L 1042.6252 -601.859665 
L 1062.855 -603.672796 
L 1062.855 -637.169679 
L 1062.855 -637.169679 
L 1042.6252 -636.133054 
L 1022.3954 -636.713041 
L 1002.1656 -636.461326 
L 981.9358 -635.374751 
L 961.706 -635.531013 
L 941.4762 -636.429172 
L 921.2464 -636.554797 
L 901.0166 -635.973325 
L 880.7868 -635.78384 
L 860.557 -634.111508 
L 840.3272 -633.442733 
L 820.0974 -633.954246 
L 799.8676 -634.058819 
L 779.6378 -633.532095 
L 759.408 -633.290943 
L 739.1782 -631.314752 
L 718.9484 -630.644526 
L 698.7186 -630.669603 
L 678.4888 -630.185916 
L 658.259 -629.478559 
L 638.0292 -629.60383 
L 617.7994 -627.588845 
L 597.5696 -625.302458 
L 577.3398 -627.052401 
L 557.11 -627.17932 
L 536.8802 -626.568408 
L 516.6504 -626.700745 
L 496.4206 -624.90038 
L 476.1908 -624.234752 
L 455.961 -624.496093 
L 435.7312 -623.488536 
L 415.5014 -623.264523 
L 395.2716 -622.515753 
L 375.0418 -621.975662 
L 354.812 -620.310001 
L 334.5822 -619.658435 
L 314.3524 -619.494419 
L 294.1226 -619.807548 
L 273.8928 -618.994119 
L 253.663 -617.269511 
L 233.4332 -616.655381 
L 213.2034 -615.833021 
L 192.9736 -614.954029 
L 172.7438 -616.066711 
L 152.514 -614.018664 
L 132.2842 -611.845546 
L 112.0544 -611.913212 
L 91.8246 -611.151356 
L 71.5948 -611.212847 
L 51.365 -610.420466 
z
" style="stroke: #8c564b; stroke-opacity: 0.2"/>
    </defs>
    <g clip-path="url(#p2296847fa8)">
     <use xlink:href="#m26435f37de" x="0" y="648" style="fill: #8c564b; fill-opacity: 0.2; stroke: #8c564b; stroke-opacity: 0.2"/>
    </g>
   </g>
   <g id="PolyCollection_7">
    <defs>
     <path id="m0cab6c6af2" d="M 51.365 -589.333616 
L 51.365 -544.137449 
L 71.5948 -544.835057 
L 91.8246 -545.974067 
L 112.0544 -545.304467 
L 132.2842 -546.744262 
L 152.514 -548.61822 
L 172.7438 -552.032168 
L 192.9736 -554.658013 
L 213.2034 -560.882419 
L 233.4332 -558.142239 
L 253.663 -562.21363 
L 273.8928 -568.010453 
L 294.1226 -566.533944 
L 314.3524 -564.939435 
L 334.5822 -568.268314 
L 354.812 -569.230009 
L 375.0418 -566.725876 
L 395.2716 -574.621273 
L 415.5014 -576.671128 
L 435.7312 -576.252174 
L 455.961 -575.180431 
L 476.1908 -582.207246 
L 496.4206 -575.470812 
L 516.6504 -577.204762 
L 536.8802 -577.328042 
L 557.11 -573.774169 
L 577.3398 -573.820014 
L 597.5696 -578.401951 
L 617.7994 -578.577396 
L 638.0292 -581.13863 
L 658.259 -584.195563 
L 678.4888 -582.483671 
L 698.7186 -584.911157 
L 718.9484 -586.998152 
L 739.1782 -589.573178 
L 759.408 -592.560365 
L 779.6378 -595.007326 
L 799.8676 -597.172021 
L 820.0974 -601.421286 
L 840.3272 -602.978464 
L 860.557 -603.585073 
L 880.7868 -603.856492 
L 901.0166 -604.213473 
L 921.2464 -605.745006 
L 941.4762 -604.61655 
L 961.706 -602.976667 
L 981.9358 -604.419842 
L 1002.1656 -602.70395 
L 1022.3954 -601.504357 
L 1042.6252 -601.562933 
L 1062.855 -599.50831 
L 1062.855 -637.516265 
L 1062.855 -637.516265 
L 1042.6252 -637.515723 
L 1022.3954 -637.883491 
L 1002.1656 -638.036363 
L 981.9358 -637.566374 
L 961.706 -637.207109 
L 941.4762 -636.78336 
L 921.2464 -636.540391 
L 901.0166 -636.26659 
L 880.7868 -636.60385 
L 860.557 -636.172202 
L 840.3272 -636.203099 
L 820.0974 -635.84301 
L 799.8676 -635.212371 
L 779.6378 -633.625691 
L 759.408 -632.684929 
L 739.1782 -631.939014 
L 718.9484 -630.792234 
L 698.7186 -629.238406 
L 678.4888 -629.144648 
L 658.259 -629.887943 
L 638.0292 -629.335427 
L 617.7994 -627.983915 
L 597.5696 -625.2504 
L 577.3398 -623.871326 
L 557.11 -623.536064 
L 536.8802 -623.429196 
L 516.6504 -623.025076 
L 496.4206 -622.78525 
L 476.1908 -624.823002 
L 455.961 -621.429323 
L 435.7312 -621.583848 
L 415.5014 -621.418453 
L 395.2716 -620.997212 
L 375.0418 -618.22015 
L 354.812 -619.056623 
L 334.5822 -617.417324 
L 314.3524 -615.679106 
L 294.1226 -615.063449 
L 273.8928 -615.999419 
L 253.663 -615.643436 
L 233.4332 -611.247793 
L 213.2034 -609.076614 
L 192.9736 -600.731662 
L 172.7438 -599.587326 
L 152.514 -596.989428 
L 132.2842 -594.633746 
L 112.0544 -592.752801 
L 91.8246 -591.808607 
L 71.5948 -591.880792 
L 51.365 -589.333616 
z
" style="stroke: #e377c2; stroke-opacity: 0.2"/>
    </defs>
    <g clip-path="url(#p2296847fa8)">
     <use xlink:href="#m0cab6c6af2" x="0" y="648" style="fill: #e377c2; fill-opacity: 0.2; stroke: #e377c2; stroke-opacity: 0.2"/>
    </g>
   </g>
   <g id="PolyCollection_8">
    <defs>
     <path id="m7e40bfca75" d="M 51.365 -596.402685 
L 51.365 -547.92492 
L 71.5948 -553.651263 
L 91.8246 -554.774663 
L 112.0544 -559.313751 
L 132.2842 -558.875901 
L 152.514 -559.367187 
L 172.7438 -558.407247 
L 192.9736 -563.148624 
L 213.2034 -565.424379 
L 233.4332 -564.656069 
L 253.663 -562.181599 
L 273.8928 -571.281486 
L 294.1226 -573.703875 
L 314.3524 -573.821211 
L 334.5822 -575.250379 
L 354.812 -571.982815 
L 375.0418 -574.28222 
L 395.2716 -578.517461 
L 415.5014 -578.034913 
L 435.7312 -574.643441 
L 455.961 -575.218946 
L 476.1908 -578.489751 
L 496.4206 -576.153932 
L 516.6504 -577.499186 
L 536.8802 -578.523603 
L 557.11 -575.51109 
L 577.3398 -576.681431 
L 597.5696 -577.551388 
L 617.7994 -574.365118 
L 638.0292 -575.645042 
L 658.259 -581.953388 
L 678.4888 -581.79418 
L 698.7186 -584.737338 
L 718.9484 -586.805683 
L 739.1782 -590.612203 
L 759.408 -592.137217 
L 779.6378 -591.329428 
L 799.8676 -591.262937 
L 820.0974 -592.971775 
L 840.3272 -591.764573 
L 860.557 -594.790343 
L 880.7868 -596.881885 
L 901.0166 -597.32871 
L 921.2464 -599.067989 
L 941.4762 -601.297863 
L 961.706 -603.178126 
L 981.9358 -604.072695 
L 1002.1656 -604.332161 
L 1022.3954 -604.398293 
L 1042.6252 -601.445843 
L 1062.855 -600.139262 
L 1062.855 -636.695049 
L 1062.855 -636.695049 
L 1042.6252 -636.899592 
L 1022.3954 -637.114259 
L 1002.1656 -636.594442 
L 981.9358 -637.026256 
L 961.706 -635.963141 
L 941.4762 -636.271661 
L 921.2464 -636.496591 
L 901.0166 -635.959217 
L 880.7868 -635.295085 
L 860.557 -635.369659 
L 840.3272 -634.407674 
L 820.0974 -634.37447 
L 799.8676 -634.026036 
L 779.6378 -633.51824 
L 759.408 -633.973614 
L 739.1782 -632.444715 
L 718.9484 -631.042877 
L 698.7186 -630.661945 
L 678.4888 -629.017788 
L 658.259 -629.41597 
L 638.0292 -628.362968 
L 617.7994 -626.246073 
L 597.5696 -625.303261 
L 577.3398 -624.532132 
L 557.11 -623.914982 
L 536.8802 -624.261222 
L 516.6504 -623.049028 
L 496.4206 -622.108972 
L 476.1908 -624.333028 
L 455.961 -620.459948 
L 435.7312 -620.315962 
L 415.5014 -622.333237 
L 395.2716 -623.002312 
L 375.0418 -622.243005 
L 354.812 -621.516642 
L 334.5822 -620.878349 
L 314.3524 -619.80986 
L 294.1226 -619.427395 
L 273.8928 -618.934454 
L 253.663 -617.146543 
L 233.4332 -616.684646 
L 213.2034 -615.390454 
L 192.9736 -614.83948 
L 172.7438 -610.611929 
L 152.514 -610.597699 
L 132.2842 -608.79675 
L 112.0544 -609.938571 
L 91.8246 -605.776892 
L 71.5948 -605.083759 
L 51.365 -596.402685 
z
" style="stroke: #7f7f7f; stroke-opacity: 0.2"/>
    </defs>
    <g clip-path="url(#p2296847fa8)">
     <use xlink:href="#m7e40bfca75" x="0" y="648" style="fill: #7f7f7f; fill-opacity: 0.2; stroke: #7f7f7f; stroke-opacity: 0.2"/>
    </g>
   </g>
   <g id="PolyCollection_9">
    <defs>
     <path id="m5ba2716da8" d="M 51.365 -618.878622 
L 51.365 -582.400744 
L 71.5948 -584.168823 
L 91.8246 -583.673831 
L 112.0544 -580.542854 
L 132.2842 -581.240011 
L 152.514 -575.441816 
L 172.7438 -578.170857 
L 192.9736 -569.636969 
L 213.2034 -573.798119 
L 233.4332 -574.416674 
L 253.663 -575.994417 
L 273.8928 -573.91191 
L 294.1226 -573.033011 
L 314.3524 -579.829468 
L 334.5822 -577.612076 
L 354.812 -573.918735 
L 375.0418 -574.367329 
L 395.2716 -577.610088 
L 415.5014 -574.806646 
L 435.7312 -574.519297 
L 455.961 -576.437598 
L 476.1908 -580.194686 
L 496.4206 -582.348127 
L 516.6504 -586.001201 
L 536.8802 -589.60682 
L 557.11 -588.237475 
L 577.3398 -597.798605 
L 597.5696 -599.66952 
L 617.7994 -601.273456 
L 638.0292 -603.523246 
L 658.259 -603.753108 
L 678.4888 -603.67889 
L 698.7186 -604.515609 
L 718.9484 -604.817539 
L 739.1782 -603.888272 
L 759.408 -604.190758 
L 779.6378 -604.21923 
L 799.8676 -603.994485 
L 820.0974 -604.799318 
L 840.3272 -605.265341 
L 860.557 -603.405519 
L 880.7868 -602.010076 
L 901.0166 -600.860689 
L 921.2464 -602.759686 
L 941.4762 -598.141176 
L 961.706 -602.048775 
L 981.9358 -603.758063 
L 1002.1656 -601.547088 
L 1022.3954 -600.803348 
L 1042.6252 -601.036977 
L 1062.855 -603.362769 
L 1062.855 -639.197365 
L 1062.855 -639.197365 
L 1042.6252 -638.983639 
L 1022.3954 -638.933984 
L 1002.1656 -639.800228 
L 981.9358 -638.356642 
L 961.706 -638.307395 
L 941.4762 -637.684819 
L 921.2464 -639.455948 
L 901.0166 -639.498187 
L 880.7868 -637.838611 
L 860.557 -638.693636 
L 840.3272 -638.250034 
L 820.0974 -638.077684 
L 799.8676 -636.927944 
L 779.6378 -636.712079 
L 759.408 -636.606088 
L 739.1782 -637.480038 
L 718.9484 -636.507433 
L 698.7186 -636.546194 
L 678.4888 -636.251636 
L 658.259 -636.398107 
L 638.0292 -636.088095 
L 617.7994 -635.471022 
L 597.5696 -635.577324 
L 577.3398 -634.677585 
L 557.11 -632.081409 
L 536.8802 -631.759952 
L 516.6504 -631.320276 
L 496.4206 -629.420803 
L 476.1908 -627.57706 
L 455.961 -626.332373 
L 435.7312 -626.887577 
L 415.5014 -626.451422 
L 395.2716 -628.089844 
L 375.0418 -624.939836 
L 354.812 -624.304117 
L 334.5822 -623.782868 
L 314.3524 -623.962607 
L 294.1226 -622.165455 
L 273.8928 -622.431277 
L 253.663 -622.494366 
L 233.4332 -622.360911 
L 213.2034 -621.134667 
L 192.9736 -620.511993 
L 172.7438 -621.95034 
L 152.514 -621.457671 
L 132.2842 -620.415542 
L 112.0544 -620.276286 
L 91.8246 -619.664813 
L 71.5948 -621.139684 
L 51.365 -618.878622 
z
" style="stroke: #bcbd22; stroke-opacity: 0.2"/>
    </defs>
    <g clip-path="url(#p2296847fa8)">
     <use xlink:href="#m5ba2716da8" x="0" y="648" style="fill: #bcbd22; fill-opacity: 0.2; stroke: #bcbd22; stroke-opacity: 0.2"/>
    </g>
   </g>
   <g id="PolyCollection_10">
    <defs>
     <path id="m0bc34035e3" d="M 51.365 -618.228111 
L 51.365 -567.573488 
L 71.5948 -567.638787 
L 91.8246 -567.09568 
L 112.0544 -568.735172 
L 132.2842 -566.212624 
L 152.514 -567.405808 
L 172.7438 -570.647074 
L 192.9736 -572.388631 
L 213.2034 -572.627105 
L 233.4332 -574.925384 
L 253.663 -579.293324 
L 273.8928 -575.49853 
L 294.1226 -585.316789 
L 314.3524 -585.238945 
L 334.5822 -585.075949 
L 354.812 -585.62537 
L 375.0418 -586.387671 
L 395.2716 -586.618516 
L 415.5014 -583.652947 
L 435.7312 -581.091121 
L 455.961 -582.544325 
L 476.1908 -582.962817 
L 496.4206 -582.494381 
L 516.6504 -584.091681 
L 536.8802 -589.675661 
L 557.11 -587.147092 
L 577.3398 -586.257997 
L 597.5696 -582.014825 
L 617.7994 -584.35846 
L 638.0292 -587.879241 
L 658.259 -587.827704 
L 678.4888 -594.929868 
L 698.7186 -597.51431 
L 718.9484 -600.844269 
L 739.1782 -602.123227 
L 759.408 -602.26322 
L 779.6378 -598.686315 
L 799.8676 -597.51926 
L 820.0974 -599.162285 
L 840.3272 -602.115126 
L 860.557 -600.995659 
L 880.7868 -601.084651 
L 901.0166 -600.060243 
L 921.2464 -599.065451 
L 941.4762 -601.364515 
L 961.706 -604.111207 
L 981.9358 -601.448961 
L 1002.1656 -602.867873 
L 1022.3954 -601.469074 
L 1042.6252 -600.176168 
L 1062.855 -601.715423 
L 1062.855 -637.00346 
L 1062.855 -637.00346 
L 1042.6252 -638.024962 
L 1022.3954 -636.820158 
L 1002.1656 -636.913918 
L 981.9358 -637.274598 
L 961.706 -638.308882 
L 941.4762 -637.510524 
L 921.2464 -636.665188 
L 901.0166 -636.721639 
L 880.7868 -636.982425 
L 860.557 -637.108729 
L 840.3272 -637.215016 
L 820.0974 -636.768491 
L 799.8676 -636.515134 
L 779.6378 -636.211615 
L 759.408 -636.408148 
L 739.1782 -636.183596 
L 718.9484 -635.905971 
L 698.7186 -635.474184 
L 678.4888 -634.150496 
L 658.259 -634.222038 
L 638.0292 -634.175155 
L 617.7994 -632.887859 
L 597.5696 -631.19482 
L 577.3398 -630.319218 
L 557.11 -630.214764 
L 536.8802 -630.895715 
L 516.6504 -631.166045 
L 496.4206 -629.503049 
L 476.1908 -629.507327 
L 455.961 -630.10169 
L 435.7312 -629.839486 
L 415.5014 -628.619924 
L 395.2716 -628.960864 
L 375.0418 -627.450551 
L 354.812 -626.844981 
L 334.5822 -625.494966 
L 314.3524 -625.692705 
L 294.1226 -625.533258 
L 273.8928 -624.834841 
L 253.663 -623.471847 
L 233.4332 -620.88138 
L 213.2034 -618.793864 
L 192.9736 -618.802238 
L 172.7438 -618.653233 
L 152.514 -619.674359 
L 132.2842 -619.374331 
L 112.0544 -619.827639 
L 91.8246 -619.593027 
L 71.5948 -617.458457 
L 51.365 -618.228111 
z
" style="stroke: #17becf; stroke-opacity: 0.2"/>
    </defs>
    <g clip-path="url(#p2296847fa8)">
     <use xlink:href="#m0bc34035e3" x="0" y="648" style="fill: #17becf; fill-opacity: 0.2; stroke: #17becf; stroke-opacity: 0.2"/>
    </g>
   </g>
   <g id="PolyCollection_11">
    <defs>
     <path id="m3ac72f04a9" d="M 51.365 -533.230924 
L 51.365 -479.942894 
L 71.5948 -483.433601 
L 91.8246 -488.246494 
L 112.0544 -495.004276 
L 132.2842 -498.434605 
L 152.514 -510.84315 
L 172.7438 -514.550167 
L 192.9736 -517.363592 
L 213.2034 -522.265809 
L 233.4332 -527.67011 
L 253.663 -530.827432 
L 273.8928 -541.860714 
L 294.1226 -544.830619 
L 314.3524 -541.90118 
L 334.5822 -548.012673 
L 354.812 -547.173135 
L 375.0418 -557.346089 
L 395.2716 -557.447581 
L 415.5014 -558.016485 
L 435.7312 -565.280658 
L 455.961 -560.060493 
L 476.1908 -563.82604 
L 496.4206 -575.387593 
L 516.6504 -579.726539 
L 536.8802 -579.013732 
L 557.11 -581.026578 
L 577.3398 -579.980373 
L 597.5696 -583.17716 
L 617.7994 -583.611714 
L 638.0292 -582.371592 
L 658.259 -584.157592 
L 678.4888 -586.656618 
L 698.7186 -584.767212 
L 718.9484 -586.029664 
L 739.1782 -587.417809 
L 759.408 -580.539252 
L 779.6378 -579.873677 
L 799.8676 -580.187339 
L 820.0974 -580.359086 
L 840.3272 -578.379115 
L 860.557 -584.379802 
L 880.7868 -588.258633 
L 901.0166 -590.683439 
L 921.2464 -590.813614 
L 941.4762 -594.434499 
L 961.706 -594.6453 
L 981.9358 -596.137704 
L 1002.1656 -597.413806 
L 1022.3954 -599.486078 
L 1042.6252 -598.888491 
L 1062.855 -600.435557 
L 1062.855 -638.450011 
L 1062.855 -638.450011 
L 1042.6252 -638.122323 
L 1022.3954 -638.763283 
L 1002.1656 -637.720877 
L 981.9358 -636.728986 
L 961.706 -635.89481 
L 941.4762 -635.064009 
L 921.2464 -633.990344 
L 901.0166 -634.390861 
L 880.7868 -631.759668 
L 860.557 -630.40012 
L 840.3272 -628.801282 
L 820.0974 -628.928815 
L 799.8676 -629.23717 
L 779.6378 -629.471663 
L 759.408 -629.822678 
L 739.1782 -631.37995 
L 718.9484 -630.883081 
L 698.7186 -630.850574 
L 678.4888 -631.191905 
L 658.259 -629.799423 
L 638.0292 -630.562108 
L 617.7994 -629.801999 
L 597.5696 -629.618277 
L 577.3398 -628.896694 
L 557.11 -627.694265 
L 536.8802 -625.479121 
L 516.6504 -625.25043 
L 496.4206 -625.813657 
L 476.1908 -619.454859 
L 455.961 -616.397788 
L 435.7312 -614.273391 
L 415.5014 -612.423842 
L 395.2716 -608.443763 
L 375.0418 -607.001377 
L 354.812 -603.410328 
L 334.5822 -601.294958 
L 314.3524 -601.213666 
L 294.1226 -597.654495 
L 273.8928 -596.953227 
L 253.663 -589.230138 
L 233.4332 -588.650019 
L 213.2034 -581.280984 
L 192.9736 -579.196356 
L 172.7438 -576.766108 
L 152.514 -571.288058 
L 132.2842 -556.930805 
L 112.0544 -547.821053 
L 91.8246 -545.600435 
L 71.5948 -536.466566 
L 51.365 -533.230924 
z
" style="stroke: #9edae5; stroke-opacity: 0.2"/>
    </defs>
    <g clip-path="url(#p2296847fa8)">
     <use xlink:href="#m3ac72f04a9" x="0" y="648" style="fill: #9edae5; fill-opacity: 0.2; stroke: #9edae5; stroke-opacity: 0.2"/>
    </g>
   </g>
   <g id="matplotlib.axis_1">
    <g id="xtick_1">
     <g id="line2d_1">
      <defs>
       <path id="m3631d04563" d="M 0 0 
L 0 3.5 
" style="stroke: #000000; stroke-width: 0.8"/>
      </defs>
      <g>
       <use xlink:href="#m3631d04563" x="51.365" y="602.44" style="stroke: #000000; stroke-width: 0.8"/>
      </g>
     </g>
     <g id="text_1">
      <!-- 30 -->
      <g transform="translate(45.0025 617.038437) scale(0.1 -0.1)">
       <defs>
        <path id="DejaVuSans-33" d="M 2597 2516 
Q 3050 2419 3304 2112 
Q 3559 1806 3559 1356 
Q 3559 666 3084 287 
Q 2609 -91 1734 -91 
Q 1441 -91 1130 -33 
Q 819 25 488 141 
L 488 750 
Q 750 597 1062 519 
Q 1375 441 1716 441 
Q 2309 441 2620 675 
Q 2931 909 2931 1356 
Q 2931 1769 2642 2001 
Q 2353 2234 1838 2234 
L 1294 2234 
L 1294 2753 
L 1863 2753 
Q 2328 2753 2575 2939 
Q 2822 3125 2822 3475 
Q 2822 3834 2567 4026 
Q 2313 4219 1838 4219 
Q 1578 4219 1281 4162 
Q 984 4106 628 3988 
L 628 4550 
Q 988 4650 1302 4700 
Q 1616 4750 1894 4750 
Q 2613 4750 3031 4423 
Q 3450 4097 3450 3541 
Q 3450 3153 3228 2886 
Q 3006 2619 2597 2516 
z
" transform="scale(0.015625)"/>
        <path id="DejaVuSans-30" d="M 2034 4250 
Q 1547 4250 1301 3770 
Q 1056 3291 1056 2328 
Q 1056 1369 1301 889 
Q 1547 409 2034 409 
Q 2525 409 2770 889 
Q 3016 1369 3016 2328 
Q 3016 3291 2770 3770 
Q 2525 4250 2034 4250 
z
M 2034 4750 
Q 2819 4750 3233 4129 
Q 3647 3509 3647 2328 
Q 3647 1150 3233 529 
Q 2819 -91 2034 -91 
Q 1250 -91 836 529 
Q 422 1150 422 2328 
Q 422 3509 836 4129 
Q 1250 4750 2034 4750 
z
" transform="scale(0.015625)"/>
       </defs>
       <use xlink:href="#DejaVuSans-33"/>
       <use xlink:href="#DejaVuSans-30" x="63.623047"/>
      </g>
     </g>
    </g>
    <g id="xtick_2">
     <g id="line2d_2">
      <g>
       <use xlink:href="#m3631d04563" x="253.663" y="602.44" style="stroke: #000000; stroke-width: 0.8"/>
      </g>
     </g>
     <g id="text_2">
      <!-- 40 -->
      <g transform="translate(247.3005 617.038437) scale(0.1 -0.1)">
       <defs>
        <path id="DejaVuSans-34" d="M 2419 4116 
L 825 1625 
L 2419 1625 
L 2419 4116 
z
M 2253 4666 
L 3047 4666 
L 3047 1625 
L 3713 1625 
L 3713 1100 
L 3047 1100 
L 3047 0 
L 2419 0 
L 2419 1100 
L 313 1100 
L 313 1709 
L 2253 4666 
z
" transform="scale(0.015625)"/>
       </defs>
       <use xlink:href="#DejaVuSans-34"/>
       <use xlink:href="#DejaVuSans-30" x="63.623047"/>
      </g>
     </g>
    </g>
    <g id="xtick_3">
     <g id="line2d_3">
      <g>
       <use xlink:href="#m3631d04563" x="455.961" y="602.44" style="stroke: #000000; stroke-width: 0.8"/>
      </g>
     </g>
     <g id="text_3">
      <!-- 50 -->
      <g transform="translate(449.5985 617.038437) scale(0.1 -0.1)">
       <defs>
        <path id="DejaVuSans-35" d="M 691 4666 
L 3169 4666 
L 3169 4134 
L 1269 4134 
L 1269 2991 
Q 1406 3038 1543 3061 
Q 1681 3084 1819 3084 
Q 2600 3084 3056 2656 
Q 3513 2228 3513 1497 
Q 3513 744 3044 326 
Q 2575 -91 1722 -91 
Q 1428 -91 1123 -41 
Q 819 9 494 109 
L 494 744 
Q 775 591 1075 516 
Q 1375 441 1709 441 
Q 2250 441 2565 725 
Q 2881 1009 2881 1497 
Q 2881 1984 2565 2268 
Q 2250 2553 1709 2553 
Q 1456 2553 1204 2497 
Q 953 2441 691 2322 
L 691 4666 
z
" transform="scale(0.015625)"/>
       </defs>
       <use xlink:href="#DejaVuSans-35"/>
       <use xlink:href="#DejaVuSans-30" x="63.623047"/>
      </g>
     </g>
    </g>
    <g id="xtick_4">
     <g id="line2d_4">
      <g>
       <use xlink:href="#m3631d04563" x="658.259" y="602.44" style="stroke: #000000; stroke-width: 0.8"/>
      </g>
     </g>
     <g id="text_4">
      <!-- 60 -->
      <g transform="translate(651.8965 617.038437) scale(0.1 -0.1)">
       <defs>
        <path id="DejaVuSans-36" d="M 2113 2584 
Q 1688 2584 1439 2293 
Q 1191 2003 1191 1497 
Q 1191 994 1439 701 
Q 1688 409 2113 409 
Q 2538 409 2786 701 
Q 3034 994 3034 1497 
Q 3034 2003 2786 2293 
Q 2538 2584 2113 2584 
z
M 3366 4563 
L 3366 3988 
Q 3128 4100 2886 4159 
Q 2644 4219 2406 4219 
Q 1781 4219 1451 3797 
Q 1122 3375 1075 2522 
Q 1259 2794 1537 2939 
Q 1816 3084 2150 3084 
Q 2853 3084 3261 2657 
Q 3669 2231 3669 1497 
Q 3669 778 3244 343 
Q 2819 -91 2113 -91 
Q 1303 -91 875 529 
Q 447 1150 447 2328 
Q 447 3434 972 4092 
Q 1497 4750 2381 4750 
Q 2619 4750 2861 4703 
Q 3103 4656 3366 4563 
z
" transform="scale(0.015625)"/>
       </defs>
       <use xlink:href="#DejaVuSans-36"/>
       <use xlink:href="#DejaVuSans-30" x="63.623047"/>
      </g>
     </g>
    </g>
    <g id="xtick_5">
     <g id="line2d_5">
      <g>
       <use xlink:href="#m3631d04563" x="860.557" y="602.44" style="stroke: #000000; stroke-width: 0.8"/>
      </g>
     </g>
     <g id="text_5">
      <!-- 70 -->
      <g transform="translate(854.1945 617.038437) scale(0.1 -0.1)">
       <defs>
        <path id="DejaVuSans-37" d="M 525 4666 
L 3525 4666 
L 3525 4397 
L 1831 0 
L 1172 0 
L 2766 4134 
L 525 4134 
L 525 4666 
z
" transform="scale(0.015625)"/>
       </defs>
       <use xlink:href="#DejaVuSans-37"/>
       <use xlink:href="#DejaVuSans-30" x="63.623047"/>
      </g>
     </g>
    </g>
    <g id="xtick_6">
     <g id="line2d_6">
      <g>
       <use xlink:href="#m3631d04563" x="1062.855" y="602.44" style="stroke: #000000; stroke-width: 0.8"/>
      </g>
     </g>
     <g id="text_6">
      <!-- 80 -->
      <g transform="translate(1056.4925 617.038437) scale(0.1 -0.1)">
       <defs>
        <path id="DejaVuSans-38" d="M 2034 2216 
Q 1584 2216 1326 1975 
Q 1069 1734 1069 1313 
Q 1069 891 1326 650 
Q 1584 409 2034 409 
Q 2484 409 2743 651 
Q 3003 894 3003 1313 
Q 3003 1734 2745 1975 
Q 2488 2216 2034 2216 
z
M 1403 2484 
Q 997 2584 770 2862 
Q 544 3141 544 3541 
Q 544 4100 942 4425 
Q 1341 4750 2034 4750 
Q 2731 4750 3128 4425 
Q 3525 4100 3525 3541 
Q 3525 3141 3298 2862 
Q 3072 2584 2669 2484 
Q 3125 2378 3379 2068 
Q 3634 1759 3634 1313 
Q 3634 634 3220 271 
Q 2806 -91 2034 -91 
Q 1263 -91 848 271 
Q 434 634 434 1313 
Q 434 1759 690 2068 
Q 947 2378 1403 2484 
z
M 1172 3481 
Q 1172 3119 1398 2916 
Q 1625 2713 2034 2713 
Q 2441 2713 2670 2916 
Q 2900 3119 2900 3481 
Q 2900 3844 2670 4047 
Q 2441 4250 2034 4250 
Q 1625 4250 1398 4047 
Q 1172 3844 1172 3481 
z
" transform="scale(0.015625)"/>
       </defs>
       <use xlink:href="#DejaVuSans-38"/>
       <use xlink:href="#DejaVuSans-30" x="63.623047"/>
      </g>
     </g>
    </g>
    <g id="text_7">
     <!-- Number of Baits -->
     <g transform="translate(500.365156 633.755938) scale(0.14 -0.14)">
      <defs>
       <path id="DejaVuSans-4e" d="M 628 4666 
L 1478 4666 
L 3547 763 
L 3547 4666 
L 4159 4666 
L 4159 0 
L 3309 0 
L 1241 3903 
L 1241 0 
L 628 0 
L 628 4666 
z
" transform="scale(0.015625)"/>
       <path id="DejaVuSans-75" d="M 544 1381 
L 544 3500 
L 1119 3500 
L 1119 1403 
Q 1119 906 1312 657 
Q 1506 409 1894 409 
Q 2359 409 2629 706 
Q 2900 1003 2900 1516 
L 2900 3500 
L 3475 3500 
L 3475 0 
L 2900 0 
L 2900 538 
Q 2691 219 2414 64 
Q 2138 -91 1772 -91 
Q 1169 -91 856 284 
Q 544 659 544 1381 
z
M 1991 3584 
L 1991 3584 
z
" transform="scale(0.015625)"/>
       <path id="DejaVuSans-6d" d="M 3328 2828 
Q 3544 3216 3844 3400 
Q 4144 3584 4550 3584 
Q 5097 3584 5394 3201 
Q 5691 2819 5691 2113 
L 5691 0 
L 5113 0 
L 5113 2094 
Q 5113 2597 4934 2840 
Q 4756 3084 4391 3084 
Q 3944 3084 3684 2787 
Q 3425 2491 3425 1978 
L 3425 0 
L 2847 0 
L 2847 2094 
Q 2847 2600 2669 2842 
Q 2491 3084 2119 3084 
Q 1678 3084 1418 2786 
Q 1159 2488 1159 1978 
L 1159 0 
L 581 0 
L 581 3500 
L 1159 3500 
L 1159 2956 
Q 1356 3278 1631 3431 
Q 1906 3584 2284 3584 
Q 2666 3584 2933 3390 
Q 3200 3197 3328 2828 
z
" transform="scale(0.015625)"/>
       <path id="DejaVuSans-62" d="M 3116 1747 
Q 3116 2381 2855 2742 
Q 2594 3103 2138 3103 
Q 1681 3103 1420 2742 
Q 1159 2381 1159 1747 
Q 1159 1113 1420 752 
Q 1681 391 2138 391 
Q 2594 391 2855 752 
Q 3116 1113 3116 1747 
z
M 1159 2969 
Q 1341 3281 1617 3432 
Q 1894 3584 2278 3584 
Q 2916 3584 3314 3078 
Q 3713 2572 3713 1747 
Q 3713 922 3314 415 
Q 2916 -91 2278 -91 
Q 1894 -91 1617 61 
Q 1341 213 1159 525 
L 1159 0 
L 581 0 
L 581 4863 
L 1159 4863 
L 1159 2969 
z
" transform="scale(0.015625)"/>
       <path id="DejaVuSans-65" d="M 3597 1894 
L 3597 1613 
L 953 1613 
Q 991 1019 1311 708 
Q 1631 397 2203 397 
Q 2534 397 2845 478 
Q 3156 559 3463 722 
L 3463 178 
Q 3153 47 2828 -22 
Q 2503 -91 2169 -91 
Q 1331 -91 842 396 
Q 353 884 353 1716 
Q 353 2575 817 3079 
Q 1281 3584 2069 3584 
Q 2775 3584 3186 3129 
Q 3597 2675 3597 1894 
z
M 3022 2063 
Q 3016 2534 2758 2815 
Q 2500 3097 2075 3097 
Q 1594 3097 1305 2825 
Q 1016 2553 972 2059 
L 3022 2063 
z
" transform="scale(0.015625)"/>
       <path id="DejaVuSans-72" d="M 2631 2963 
Q 2534 3019 2420 3045 
Q 2306 3072 2169 3072 
Q 1681 3072 1420 2755 
Q 1159 2438 1159 1844 
L 1159 0 
L 581 0 
L 581 3500 
L 1159 3500 
L 1159 2956 
Q 1341 3275 1631 3429 
Q 1922 3584 2338 3584 
Q 2397 3584 2469 3576 
Q 2541 3569 2628 3553 
L 2631 2963 
z
" transform="scale(0.015625)"/>
       <path id="DejaVuSans-20" transform="scale(0.015625)"/>
       <path id="DejaVuSans-6f" d="M 1959 3097 
Q 1497 3097 1228 2736 
Q 959 2375 959 1747 
Q 959 1119 1226 758 
Q 1494 397 1959 397 
Q 2419 397 2687 759 
Q 2956 1122 2956 1747 
Q 2956 2369 2687 2733 
Q 2419 3097 1959 3097 
z
M 1959 3584 
Q 2709 3584 3137 3096 
Q 3566 2609 3566 1747 
Q 3566 888 3137 398 
Q 2709 -91 1959 -91 
Q 1206 -91 779 398 
Q 353 888 353 1747 
Q 353 2609 779 3096 
Q 1206 3584 1959 3584 
z
" transform="scale(0.015625)"/>
       <path id="DejaVuSans-66" d="M 2375 4863 
L 2375 4384 
L 1825 4384 
Q 1516 4384 1395 4259 
Q 1275 4134 1275 3809 
L 1275 3500 
L 2222 3500 
L 2222 3053 
L 1275 3053 
L 1275 0 
L 697 0 
L 697 3053 
L 147 3053 
L 147 3500 
L 697 3500 
L 697 3744 
Q 697 4328 969 4595 
Q 1241 4863 1831 4863 
L 2375 4863 
z
" transform="scale(0.015625)"/>
       <path id="DejaVuSans-42" d="M 1259 2228 
L 1259 519 
L 2272 519 
Q 2781 519 3026 730 
Q 3272 941 3272 1375 
Q 3272 1813 3026 2020 
Q 2781 2228 2272 2228 
L 1259 2228 
z
M 1259 4147 
L 1259 2741 
L 2194 2741 
Q 2656 2741 2882 2914 
Q 3109 3088 3109 3444 
Q 3109 3797 2882 3972 
Q 2656 4147 2194 4147 
L 1259 4147 
z
M 628 4666 
L 2241 4666 
Q 2963 4666 3353 4366 
Q 3744 4066 3744 3513 
Q 3744 3084 3544 2831 
Q 3344 2578 2956 2516 
Q 3422 2416 3680 2098 
Q 3938 1781 3938 1306 
Q 3938 681 3513 340 
Q 3088 0 2303 0 
L 628 0 
L 628 4666 
z
" transform="scale(0.015625)"/>
       <path id="DejaVuSans-61" d="M 2194 1759 
Q 1497 1759 1228 1600 
Q 959 1441 959 1056 
Q 959 750 1161 570 
Q 1363 391 1709 391 
Q 2188 391 2477 730 
Q 2766 1069 2766 1631 
L 2766 1759 
L 2194 1759 
z
M 3341 1997 
L 3341 0 
L 2766 0 
L 2766 531 
Q 2569 213 2275 61 
Q 1981 -91 1556 -91 
Q 1019 -91 701 211 
Q 384 513 384 1019 
Q 384 1609 779 1909 
Q 1175 2209 1959 2209 
L 2766 2209 
L 2766 2266 
Q 2766 2663 2505 2880 
Q 2244 3097 1772 3097 
Q 1472 3097 1187 3025 
Q 903 2953 641 2809 
L 641 3341 
Q 956 3463 1253 3523 
Q 1550 3584 1831 3584 
Q 2591 3584 2966 3190 
Q 3341 2797 3341 1997 
z
" transform="scale(0.015625)"/>
       <path id="DejaVuSans-69" d="M 603 3500 
L 1178 3500 
L 1178 0 
L 603 0 
L 603 3500 
z
M 603 4863 
L 1178 4863 
L 1178 4134 
L 603 4134 
L 603 4863 
z
" transform="scale(0.015625)"/>
       <path id="DejaVuSans-74" d="M 1172 4494 
L 1172 3500 
L 2356 3500 
L 2356 3053 
L 1172 3053 
L 1172 1153 
Q 1172 725 1289 603 
Q 1406 481 1766 481 
L 2356 481 
L 2356 0 
L 1766 0 
Q 1100 0 847 248 
Q 594 497 594 1153 
L 594 3053 
L 172 3053 
L 172 3500 
L 594 3500 
L 594 4494 
L 1172 4494 
z
" transform="scale(0.015625)"/>
       <path id="DejaVuSans-73" d="M 2834 3397 
L 2834 2853 
Q 2591 2978 2328 3040 
Q 2066 3103 1784 3103 
Q 1356 3103 1142 2972 
Q 928 2841 928 2578 
Q 928 2378 1081 2264 
Q 1234 2150 1697 2047 
L 1894 2003 
Q 2506 1872 2764 1633 
Q 3022 1394 3022 966 
Q 3022 478 2636 193 
Q 2250 -91 1575 -91 
Q 1294 -91 989 -36 
Q 684 19 347 128 
L 347 722 
Q 666 556 975 473 
Q 1284 391 1588 391 
Q 1994 391 2212 530 
Q 2431 669 2431 922 
Q 2431 1156 2273 1281 
Q 2116 1406 1581 1522 
L 1381 1569 
Q 847 1681 609 1914 
Q 372 2147 372 2553 
Q 372 3047 722 3315 
Q 1072 3584 1716 3584 
Q 2034 3584 2315 3537 
Q 2597 3491 2834 3397 
z
" transform="scale(0.015625)"/>
      </defs>
      <use xlink:href="#DejaVuSans-4e"/>
      <use xlink:href="#DejaVuSans-75" x="74.804688"/>
      <use xlink:href="#DejaVuSans-6d" x="138.183594"/>
      <use xlink:href="#DejaVuSans-62" x="235.595703"/>
      <use xlink:href="#DejaVuSans-65" x="299.072266"/>
      <use xlink:href="#DejaVuSans-72" x="360.595703"/>
      <use xlink:href="#DejaVuSans-20" x="401.708984"/>
      <use xlink:href="#DejaVuSans-6f" x="433.496094"/>
      <use xlink:href="#DejaVuSans-66" x="494.677734"/>
      <use xlink:href="#DejaVuSans-20" x="529.882812"/>
      <use xlink:href="#DejaVuSans-42" x="561.669922"/>
      <use xlink:href="#DejaVuSans-61" x="630.273438"/>
      <use xlink:href="#DejaVuSans-69" x="691.552734"/>
      <use xlink:href="#DejaVuSans-74" x="719.335938"/>
      <use xlink:href="#DejaVuSans-73" x="758.544922"/>
     </g>
    </g>
   </g>
   <g id="matplotlib.axis_2">
    <g id="ytick_1">
     <g id="line2d_7">
      <defs>
       <path id="m85e28ac661" d="M 0 0 
L -3.5 0 
" style="stroke: #000000; stroke-width: 0.8"/>
      </defs>
      <g>
       <use xlink:href="#m85e28ac661" x="51.365" y="602.44" style="stroke: #000000; stroke-width: 0.8"/>
      </g>
     </g>
     <g id="text_8">
      <!-- 0.0 -->
      <g transform="translate(28.461875 606.239219) scale(0.1 -0.1)">
       <defs>
        <path id="DejaVuSans-2e" d="M 684 794 
L 1344 794 
L 1344 0 
L 684 0 
L 684 794 
z
" transform="scale(0.015625)"/>
       </defs>
       <use xlink:href="#DejaVuSans-30"/>
       <use xlink:href="#DejaVuSans-2e" x="63.623047"/>
       <use xlink:href="#DejaVuSans-30" x="95.410156"/>
      </g>
     </g>
    </g>
    <g id="ytick_2">
     <g id="line2d_8">
      <g>
       <use xlink:href="#m85e28ac661" x="51.365" y="484.904" style="stroke: #000000; stroke-width: 0.8"/>
      </g>
     </g>
     <g id="text_9">
      <!-- 0.2 -->
      <g transform="translate(28.461875 488.703219) scale(0.1 -0.1)">
       <defs>
        <path id="DejaVuSans-32" d="M 1228 531 
L 3431 531 
L 3431 0 
L 469 0 
L 469 531 
Q 828 903 1448 1529 
Q 2069 2156 2228 2338 
Q 2531 2678 2651 2914 
Q 2772 3150 2772 3378 
Q 2772 3750 2511 3984 
Q 2250 4219 1831 4219 
Q 1534 4219 1204 4116 
Q 875 4013 500 3803 
L 500 4441 
Q 881 4594 1212 4672 
Q 1544 4750 1819 4750 
Q 2544 4750 2975 4387 
Q 3406 4025 3406 3419 
Q 3406 3131 3298 2873 
Q 3191 2616 2906 2266 
Q 2828 2175 2409 1742 
Q 1991 1309 1228 531 
z
" transform="scale(0.015625)"/>
       </defs>
       <use xlink:href="#DejaVuSans-30"/>
       <use xlink:href="#DejaVuSans-2e" x="63.623047"/>
       <use xlink:href="#DejaVuSans-32" x="95.410156"/>
      </g>
     </g>
    </g>
    <g id="ytick_3">
     <g id="line2d_9">
      <g>
       <use xlink:href="#m85e28ac661" x="51.365" y="367.368" style="stroke: #000000; stroke-width: 0.8"/>
      </g>
     </g>
     <g id="text_10">
      <!-- 0.4 -->
      <g transform="translate(28.461875 371.167219) scale(0.1 -0.1)">
       <use xlink:href="#DejaVuSans-30"/>
       <use xlink:href="#DejaVuSans-2e" x="63.623047"/>
       <use xlink:href="#DejaVuSans-34" x="95.410156"/>
      </g>
     </g>
    </g>
    <g id="ytick_4">
     <g id="line2d_10">
      <g>
       <use xlink:href="#m85e28ac661" x="51.365" y="249.832" style="stroke: #000000; stroke-width: 0.8"/>
      </g>
     </g>
     <g id="text_11">
      <!-- 0.6 -->
      <g transform="translate(28.461875 253.631219) scale(0.1 -0.1)">
       <use xlink:href="#DejaVuSans-30"/>
       <use xlink:href="#DejaVuSans-2e" x="63.623047"/>
       <use xlink:href="#DejaVuSans-36" x="95.410156"/>
      </g>
     </g>
    </g>
    <g id="ytick_5">
     <g id="line2d_11">
      <g>
       <use xlink:href="#m85e28ac661" x="51.365" y="132.296" style="stroke: #000000; stroke-width: 0.8"/>
      </g>
     </g>
     <g id="text_12">
      <!-- 0.8 -->
      <g transform="translate(28.461875 136.095219) scale(0.1 -0.1)">
       <use xlink:href="#DejaVuSans-30"/>
       <use xlink:href="#DejaVuSans-2e" x="63.623047"/>
       <use xlink:href="#DejaVuSans-38" x="95.410156"/>
      </g>
     </g>
    </g>
    <g id="ytick_6">
     <g id="line2d_12">
      <g>
       <use xlink:href="#m85e28ac661" x="51.365" y="14.76" style="stroke: #000000; stroke-width: 0.8"/>
      </g>
     </g>
     <g id="text_13">
      <!-- 1.0 -->
      <g transform="translate(28.461875 18.559219) scale(0.1 -0.1)">
       <defs>
        <path id="DejaVuSans-31" d="M 794 531 
L 1825 531 
L 1825 4091 
L 703 3866 
L 703 4441 
L 1819 4666 
L 2450 4666 
L 2450 531 
L 3481 531 
L 3481 0 
L 794 0 
L 794 531 
z
" transform="scale(0.015625)"/>
       </defs>
       <use xlink:href="#DejaVuSans-31"/>
       <use xlink:href="#DejaVuSans-2e" x="63.623047"/>
       <use xlink:href="#DejaVuSans-30" x="95.410156"/>
      </g>
     </g>
    </g>
    <g id="text_14">
     <!-- Aggregated NMF Mean Pearson's Correlation Score -->
     <g transform="translate(21.550312 486.608906) rotate(-90) scale(0.14 -0.14)">
      <defs>
       <path id="DejaVuSans-41" d="M 2188 4044 
L 1331 1722 
L 3047 1722 
L 2188 4044 
z
M 1831 4666 
L 2547 4666 
L 4325 0 
L 3669 0 
L 3244 1197 
L 1141 1197 
L 716 0 
L 50 0 
L 1831 4666 
z
" transform="scale(0.015625)"/>
       <path id="DejaVuSans-67" d="M 2906 1791 
Q 2906 2416 2648 2759 
Q 2391 3103 1925 3103 
Q 1463 3103 1205 2759 
Q 947 2416 947 1791 
Q 947 1169 1205 825 
Q 1463 481 1925 481 
Q 2391 481 2648 825 
Q 2906 1169 2906 1791 
z
M 3481 434 
Q 3481 -459 3084 -895 
Q 2688 -1331 1869 -1331 
Q 1566 -1331 1297 -1286 
Q 1028 -1241 775 -1147 
L 775 -588 
Q 1028 -725 1275 -790 
Q 1522 -856 1778 -856 
Q 2344 -856 2625 -561 
Q 2906 -266 2906 331 
L 2906 616 
Q 2728 306 2450 153 
Q 2172 0 1784 0 
Q 1141 0 747 490 
Q 353 981 353 1791 
Q 353 2603 747 3093 
Q 1141 3584 1784 3584 
Q 2172 3584 2450 3431 
Q 2728 3278 2906 2969 
L 2906 3500 
L 3481 3500 
L 3481 434 
z
" transform="scale(0.015625)"/>
       <path id="DejaVuSans-64" d="M 2906 2969 
L 2906 4863 
L 3481 4863 
L 3481 0 
L 2906 0 
L 2906 525 
Q 2725 213 2448 61 
Q 2172 -91 1784 -91 
Q 1150 -91 751 415 
Q 353 922 353 1747 
Q 353 2572 751 3078 
Q 1150 3584 1784 3584 
Q 2172 3584 2448 3432 
Q 2725 3281 2906 2969 
z
M 947 1747 
Q 947 1113 1208 752 
Q 1469 391 1925 391 
Q 2381 391 2643 752 
Q 2906 1113 2906 1747 
Q 2906 2381 2643 2742 
Q 2381 3103 1925 3103 
Q 1469 3103 1208 2742 
Q 947 2381 947 1747 
z
" transform="scale(0.015625)"/>
       <path id="DejaVuSans-4d" d="M 628 4666 
L 1569 4666 
L 2759 1491 
L 3956 4666 
L 4897 4666 
L 4897 0 
L 4281 0 
L 4281 4097 
L 3078 897 
L 2444 897 
L 1241 4097 
L 1241 0 
L 628 0 
L 628 4666 
z
" transform="scale(0.015625)"/>
       <path id="DejaVuSans-46" d="M 628 4666 
L 3309 4666 
L 3309 4134 
L 1259 4134 
L 1259 2759 
L 3109 2759 
L 3109 2228 
L 1259 2228 
L 1259 0 
L 628 0 
L 628 4666 
z
" transform="scale(0.015625)"/>
       <path id="DejaVuSans-6e" d="M 3513 2113 
L 3513 0 
L 2938 0 
L 2938 2094 
Q 2938 2591 2744 2837 
Q 2550 3084 2163 3084 
Q 1697 3084 1428 2787 
Q 1159 2491 1159 1978 
L 1159 0 
L 581 0 
L 581 3500 
L 1159 3500 
L 1159 2956 
Q 1366 3272 1645 3428 
Q 1925 3584 2291 3584 
Q 2894 3584 3203 3211 
Q 3513 2838 3513 2113 
z
" transform="scale(0.015625)"/>
       <path id="DejaVuSans-50" d="M 1259 4147 
L 1259 2394 
L 2053 2394 
Q 2494 2394 2734 2622 
Q 2975 2850 2975 3272 
Q 2975 3691 2734 3919 
Q 2494 4147 2053 4147 
L 1259 4147 
z
M 628 4666 
L 2053 4666 
Q 2838 4666 3239 4311 
Q 3641 3956 3641 3272 
Q 3641 2581 3239 2228 
Q 2838 1875 2053 1875 
L 1259 1875 
L 1259 0 
L 628 0 
L 628 4666 
z
" transform="scale(0.015625)"/>
       <path id="DejaVuSans-27" d="M 1147 4666 
L 1147 2931 
L 616 2931 
L 616 4666 
L 1147 4666 
z
" transform="scale(0.015625)"/>
       <path id="DejaVuSans-43" d="M 4122 4306 
L 4122 3641 
Q 3803 3938 3442 4084 
Q 3081 4231 2675 4231 
Q 1875 4231 1450 3742 
Q 1025 3253 1025 2328 
Q 1025 1406 1450 917 
Q 1875 428 2675 428 
Q 3081 428 3442 575 
Q 3803 722 4122 1019 
L 4122 359 
Q 3791 134 3420 21 
Q 3050 -91 2638 -91 
Q 1578 -91 968 557 
Q 359 1206 359 2328 
Q 359 3453 968 4101 
Q 1578 4750 2638 4750 
Q 3056 4750 3426 4639 
Q 3797 4528 4122 4306 
z
" transform="scale(0.015625)"/>
       <path id="DejaVuSans-6c" d="M 603 4863 
L 1178 4863 
L 1178 0 
L 603 0 
L 603 4863 
z
" transform="scale(0.015625)"/>
       <path id="DejaVuSans-53" d="M 3425 4513 
L 3425 3897 
Q 3066 4069 2747 4153 
Q 2428 4238 2131 4238 
Q 1616 4238 1336 4038 
Q 1056 3838 1056 3469 
Q 1056 3159 1242 3001 
Q 1428 2844 1947 2747 
L 2328 2669 
Q 3034 2534 3370 2195 
Q 3706 1856 3706 1288 
Q 3706 609 3251 259 
Q 2797 -91 1919 -91 
Q 1588 -91 1214 -16 
Q 841 59 441 206 
L 441 856 
Q 825 641 1194 531 
Q 1563 422 1919 422 
Q 2459 422 2753 634 
Q 3047 847 3047 1241 
Q 3047 1584 2836 1778 
Q 2625 1972 2144 2069 
L 1759 2144 
Q 1053 2284 737 2584 
Q 422 2884 422 3419 
Q 422 4038 858 4394 
Q 1294 4750 2059 4750 
Q 2388 4750 2728 4690 
Q 3069 4631 3425 4513 
z
" transform="scale(0.015625)"/>
       <path id="DejaVuSans-63" d="M 3122 3366 
L 3122 2828 
Q 2878 2963 2633 3030 
Q 2388 3097 2138 3097 
Q 1578 3097 1268 2742 
Q 959 2388 959 1747 
Q 959 1106 1268 751 
Q 1578 397 2138 397 
Q 2388 397 2633 464 
Q 2878 531 3122 666 
L 3122 134 
Q 2881 22 2623 -34 
Q 2366 -91 2075 -91 
Q 1284 -91 818 406 
Q 353 903 353 1747 
Q 353 2603 823 3093 
Q 1294 3584 2113 3584 
Q 2378 3584 2631 3529 
Q 2884 3475 3122 3366 
z
" transform="scale(0.015625)"/>
      </defs>
      <use xlink:href="#DejaVuSans-41"/>
      <use xlink:href="#DejaVuSans-67" x="68.408203"/>
      <use xlink:href="#DejaVuSans-67" x="131.884766"/>
      <use xlink:href="#DejaVuSans-72" x="195.361328"/>
      <use xlink:href="#DejaVuSans-65" x="234.224609"/>
      <use xlink:href="#DejaVuSans-67" x="295.748047"/>
      <use xlink:href="#DejaVuSans-61" x="359.224609"/>
      <use xlink:href="#DejaVuSans-74" x="420.503906"/>
      <use xlink:href="#DejaVuSans-65" x="459.712891"/>
      <use xlink:href="#DejaVuSans-64" x="521.236328"/>
      <use xlink:href="#DejaVuSans-20" x="584.712891"/>
      <use xlink:href="#DejaVuSans-4e" x="616.5"/>
      <use xlink:href="#DejaVuSans-4d" x="691.304688"/>
      <use xlink:href="#DejaVuSans-46" x="777.583984"/>
      <use xlink:href="#DejaVuSans-20" x="835.103516"/>
      <use xlink:href="#DejaVuSans-4d" x="866.890625"/>
      <use xlink:href="#DejaVuSans-65" x="953.169922"/>
      <use xlink:href="#DejaVuSans-61" x="1014.693359"/>
      <use xlink:href="#DejaVuSans-6e" x="1075.972656"/>
      <use xlink:href="#DejaVuSans-20" x="1139.351562"/>
      <use xlink:href="#DejaVuSans-50" x="1171.138672"/>
      <use xlink:href="#DejaVuSans-65" x="1227.816406"/>
      <use xlink:href="#DejaVuSans-61" x="1289.339844"/>
      <use xlink:href="#DejaVuSans-72" x="1350.619141"/>
      <use xlink:href="#DejaVuSans-73" x="1391.732422"/>
      <use xlink:href="#DejaVuSans-6f" x="1443.832031"/>
      <use xlink:href="#DejaVuSans-6e" x="1505.013672"/>
      <use xlink:href="#DejaVuSans-27" x="1568.392578"/>
      <use xlink:href="#DejaVuSans-73" x="1595.882812"/>
      <use xlink:href="#DejaVuSans-20" x="1647.982422"/>
      <use xlink:href="#DejaVuSans-43" x="1679.769531"/>
      <use xlink:href="#DejaVuSans-6f" x="1749.59375"/>
      <use xlink:href="#DejaVuSans-72" x="1810.775391"/>
      <use xlink:href="#DejaVuSans-72" x="1850.138672"/>
      <use xlink:href="#DejaVuSans-65" x="1889.001953"/>
      <use xlink:href="#DejaVuSans-6c" x="1950.525391"/>
      <use xlink:href="#DejaVuSans-61" x="1978.308594"/>
      <use xlink:href="#DejaVuSans-74" x="2039.587891"/>
      <use xlink:href="#DejaVuSans-69" x="2078.796875"/>
      <use xlink:href="#DejaVuSans-6f" x="2106.580078"/>
      <use xlink:href="#DejaVuSans-6e" x="2167.761719"/>
      <use xlink:href="#DejaVuSans-20" x="2231.140625"/>
      <use xlink:href="#DejaVuSans-53" x="2262.927734"/>
      <use xlink:href="#DejaVuSans-63" x="2326.404297"/>
      <use xlink:href="#DejaVuSans-6f" x="2381.384766"/>
      <use xlink:href="#DejaVuSans-72" x="2442.566406"/>
      <use xlink:href="#DejaVuSans-65" x="2481.429688"/>
     </g>
    </g>
   </g>
   <g id="line2d_13">
    <path d="M 51.365 55.205775 
L 71.5948 53.364336 
L 91.8246 54.061853 
L 112.0544 54.861961 
L 132.2842 54.590425 
L 152.514 53.620147 
L 172.7438 53.91511 
L 192.9736 53.017856 
L 213.2034 50.965074 
L 233.4332 50.16827 
L 253.663 48.763793 
L 273.8928 49.776168 
L 294.1226 47.025694 
L 314.3524 42.155807 
L 334.5822 44.08006 
L 354.812 40.30526 
L 375.0418 38.192335 
L 395.2716 38.983945 
L 415.5014 38.057859 
L 435.7312 33.92268 
L 455.961 33.591121 
L 476.1908 32.463005 
L 496.4206 31.556702 
L 516.6504 32.963763 
L 536.8802 32.706796 
L 557.11 29.773605 
L 577.3398 30.659702 
L 597.5696 29.705304 
L 617.7994 31.309869 
L 638.0292 28.225029 
L 658.259 30.85101 
L 678.4888 27.474122 
L 698.7186 26.204085 
L 718.9484 26.081788 
L 739.1782 30.723499 
L 759.408 25.567763 
L 779.6378 26.327438 
L 799.8676 23.88977 
L 820.0974 21.434949 
L 840.3272 26.728639 
L 860.557 21.122827 
L 880.7868 23.05104 
L 901.0166 20.604013 
L 921.2464 20.53341 
L 941.4762 19.794345 
L 961.706 24.433769 
L 981.9358 22.108356 
L 1002.1656 21.858314 
L 1022.3954 17.339732 
L 1042.6252 19.794078 
L 1062.855 23.365167 
" clip-path="url(#p2296847fa8)" style="fill: none; stroke: #1f77b4; stroke-width: 1.5; stroke-linecap: square"/>
   </g>
   <g id="line2d_14">
    <path d="M 51.365 377.107372 
L 71.5948 343.545736 
L 91.8246 358.830214 
L 112.0544 337.28368 
L 132.2842 357.660681 
L 152.514 336.676649 
L 172.7438 321.992362 
L 192.9736 324.100313 
L 213.2034 307.682222 
L 233.4332 319.800923 
L 253.663 328.16651 
L 273.8928 310.683002 
L 294.1226 289.370547 
L 314.3524 309.078141 
L 334.5822 277.784687 
L 354.812 287.883128 
L 375.0418 295.692967 
L 395.2716 292.015083 
L 415.5014 278.824482 
L 435.7312 286.369179 
L 455.961 258.125738 
L 476.1908 261.552264 
L 496.4206 208.808946 
L 516.6504 289.801631 
L 536.8802 259.453555 
L 557.11 265.747344 
L 577.3398 249.487048 
L 597.5696 246.779552 
L 617.7994 248.525057 
L 638.0292 239.33241 
L 658.259 219.213491 
L 678.4888 247.620094 
L 698.7186 228.277079 
L 718.9484 216.321752 
L 739.1782 204.398225 
L 759.408 259.755251 
L 779.6378 219.281752 
L 799.8676 247.525394 
L 820.0974 193.103937 
L 840.3272 170.771249 
L 860.557 192.484673 
L 880.7868 227.163415 
L 901.0166 198.005235 
L 921.2464 200.829063 
L 941.4762 205.048659 
L 961.706 200.961382 
L 981.9358 169.470991 
L 1002.1656 179.894939 
L 1022.3954 189.440856 
L 1042.6252 137.599562 
L 1062.855 168.155501 
" clip-path="url(#p2296847fa8)" style="fill: none; stroke: #ff7f0e; stroke-width: 1.5; stroke-linecap: square"/>
   </g>
   <g id="line2d_15">
    <path d="M 51.365 51.308862 
L 71.5948 48.838173 
L 91.8246 49.94413 
L 112.0544 48.02409 
L 132.2842 45.648988 
L 152.514 44.455358 
L 172.7438 44.215602 
L 192.9736 45.353374 
L 213.2034 46.185589 
L 233.4332 45.194643 
L 253.663 46.360526 
L 273.8928 43.894081 
L 294.1226 45.962955 
L 314.3524 46.332785 
L 334.5822 46.703201 
L 354.812 43.499501 
L 375.0418 42.183964 
L 395.2716 41.232256 
L 415.5014 41.319048 
L 435.7312 41.500171 
L 455.961 40.918395 
L 476.1908 41.263394 
L 496.4206 42.537419 
L 516.6504 40.924764 
L 536.8802 40.226281 
L 557.11 38.735484 
L 577.3398 39.350229 
L 597.5696 37.775723 
L 617.7994 38.130704 
L 638.0292 37.665023 
L 658.259 39.0964 
L 678.4888 38.055425 
L 698.7186 39.830085 
L 718.9484 38.656228 
L 739.1782 35.648264 
L 759.408 34.167725 
L 779.6378 36.346567 
L 799.8676 33.0247 
L 820.0974 30.810659 
L 840.3272 32.414004 
L 860.557 33.202889 
L 880.7868 35.762861 
L 901.0166 34.75464 
L 921.2464 33.309537 
L 941.4762 33.29874 
L 961.706 35.320749 
L 981.9358 33.935891 
L 1002.1656 34.095085 
L 1022.3954 31.983368 
L 1042.6252 35.705873 
L 1062.855 33.546156 
" clip-path="url(#p2296847fa8)" style="fill: none; stroke: #2ca02c; stroke-width: 1.5; stroke-linecap: square"/>
   </g>
   <g id="line2d_16">
    <path d="M 51.365 52.383552 
L 71.5948 47.792691 
L 91.8246 43.732674 
L 112.0544 43.718836 
L 132.2842 42.898652 
L 152.514 42.949344 
L 172.7438 45.377533 
L 192.9736 43.252516 
L 213.2034 45.256584 
L 233.4332 42.181724 
L 253.663 42.982575 
L 273.8928 41.247028 
L 294.1226 41.395365 
L 314.3524 37.626658 
L 334.5822 38.851017 
L 354.812 38.632094 
L 375.0418 37.549239 
L 395.2716 40.167349 
L 415.5014 40.921215 
L 435.7312 38.597982 
L 455.961 39.451662 
L 476.1908 39.693364 
L 496.4206 37.621079 
L 516.6504 36.857105 
L 536.8802 33.80716 
L 557.11 32.988285 
L 577.3398 34.479114 
L 597.5696 33.715768 
L 617.7994 36.027493 
L 638.0292 33.347189 
L 658.259 33.190828 
L 678.4888 32.609982 
L 698.7186 34.479652 
L 718.9484 32.952311 
L 739.1782 34.330321 
L 759.408 36.381391 
L 779.6378 32.759952 
L 799.8676 31.286625 
L 820.0974 30.550679 
L 840.3272 24.651085 
L 860.557 27.009093 
L 880.7868 25.163706 
L 901.0166 27.734198 
L 921.2464 27.074131 
L 941.4762 25.165522 
L 961.706 30.327662 
L 981.9358 31.378101 
L 1002.1656 28.991628 
L 1022.3954 32.124722 
L 1042.6252 29.470687 
L 1062.855 26.616556 
" clip-path="url(#p2296847fa8)" style="fill: none; stroke: #d62728; stroke-width: 1.5; stroke-linecap: square"/>
   </g>
   <g id="line2d_17">
    <path d="M 51.365 67.831123 
L 71.5948 65.739773 
L 91.8246 60.588378 
L 112.0544 61.011547 
L 132.2842 59.331942 
L 152.514 59.832295 
L 172.7438 57.914879 
L 192.9736 60.863123 
L 213.2034 58.381336 
L 233.4332 53.948364 
L 253.663 53.376143 
L 273.8928 51.449108 
L 294.1226 51.174715 
L 314.3524 52.036251 
L 334.5822 52.334373 
L 354.812 50.52262 
L 375.0418 49.49472 
L 395.2716 48.148317 
L 415.5014 45.184371 
L 435.7312 44.14264 
L 455.961 42.541666 
L 476.1908 41.422553 
L 496.4206 41.276938 
L 516.6504 41.864359 
L 536.8802 39.926811 
L 557.11 39.718711 
L 577.3398 37.709501 
L 597.5696 36.727067 
L 617.7994 37.759709 
L 638.0292 36.623722 
L 658.259 30.196804 
L 678.4888 30.68384 
L 698.7186 32.157476 
L 718.9484 31.337328 
L 739.1782 29.364015 
L 759.408 28.729303 
L 779.6378 28.505096 
L 799.8676 27.20181 
L 820.0974 27.342439 
L 840.3272 27.852641 
L 860.557 26.250374 
L 880.7868 27.181597 
L 901.0166 29.3679 
L 921.2464 26.204131 
L 941.4762 25.640761 
L 961.706 26.812085 
L 981.9358 22.676423 
L 1002.1656 20.482128 
L 1022.3954 19.771992 
L 1042.6252 19.30901 
L 1062.855 20.30161 
" clip-path="url(#p2296847fa8)" style="fill: none; stroke: #9467bd; stroke-width: 1.5; stroke-linecap: square"/>
   </g>
   <g id="line2d_18">
    <path d="M 51.365 63.117275 
L 71.5948 62.754961 
L 91.8246 61.654616 
L 112.0544 60.723891 
L 132.2842 61.258445 
L 152.514 59.154096 
L 172.7438 56.325153 
L 192.9736 58.642962 
L 213.2034 56.925652 
L 233.4332 55.18475 
L 253.663 52.165949 
L 273.8928 51.782724 
L 294.1226 49.875178 
L 314.3524 50.925883 
L 334.5822 50.341015 
L 354.812 49.250939 
L 375.0418 47.680531 
L 395.2716 46.332941 
L 415.5014 45.509571 
L 435.7312 44.772635 
L 455.961 43.874746 
L 476.1908 46.359477 
L 496.4206 47.927059 
L 516.6504 45.097551 
L 536.8802 44.147237 
L 557.11 47.968322 
L 577.3398 45.976473 
L 597.5696 46.440707 
L 617.7994 45.889866 
L 638.0292 42.297609 
L 658.259 40.908762 
L 678.4888 40.710263 
L 698.7186 42.542092 
L 718.9484 39.534781 
L 739.1782 39.174659 
L 759.408 38.179853 
L 779.6378 33.047693 
L 799.8676 34.463076 
L 820.0974 34.346938 
L 840.3272 33.595032 
L 860.557 32.193318 
L 880.7868 30.55716 
L 901.0166 29.902716 
L 921.2464 30.044436 
L 941.4762 30.48236 
L 961.706 32.340956 
L 981.9358 32.714442 
L 1002.1656 31.114318 
L 1022.3954 30.188461 
L 1042.6252 29.003641 
L 1062.855 27.578763 
" clip-path="url(#p2296847fa8)" style="fill: none; stroke: #8c564b; stroke-width: 1.5; stroke-linecap: square"/>
   </g>
   <g id="line2d_19">
    <path d="M 51.365 81.264467 
L 71.5948 79.642075 
L 91.8246 79.108663 
L 112.0544 78.971366 
L 132.2842 77.310996 
L 152.514 75.196176 
L 172.7438 72.190253 
L 192.9736 70.305162 
L 213.2034 63.020483 
L 233.4332 63.304984 
L 253.663 59.071467 
L 273.8928 55.995064 
L 294.1226 57.201304 
L 314.3524 57.690729 
L 334.5822 55.157181 
L 354.812 53.856684 
L 375.0418 55.526987 
L 395.2716 50.190758 
L 415.5014 48.955209 
L 435.7312 49.081989 
L 455.961 49.695123 
L 476.1908 44.484876 
L 496.4206 48.871969 
L 516.6504 47.885081 
L 536.8802 47.621381 
L 557.11 49.344884 
L 577.3398 49.15433 
L 597.5696 46.173825 
L 617.7994 44.719344 
L 638.0292 42.762971 
L 658.259 40.958247 
L 678.4888 42.18584 
L 698.7186 40.925219 
L 718.9484 39.104807 
L 739.1782 37.243904 
L 759.408 35.377353 
L 779.6378 33.683491 
L 799.8676 31.807804 
L 820.0974 29.367852 
L 840.3272 28.409219 
L 860.557 28.121362 
L 880.7868 27.769829 
L 901.0166 27.759968 
L 921.2464 26.857301 
L 941.4762 27.300045 
L 961.706 27.908112 
L 981.9358 27.006892 
L 1002.1656 27.629843 
L 1022.3954 28.306076 
L 1042.6252 28.460672 
L 1062.855 29.487713 
" clip-path="url(#p2296847fa8)" style="fill: none; stroke: #e377c2; stroke-width: 1.5; stroke-linecap: square"/>
   </g>
   <g id="line2d_20">
    <path d="M 51.365 75.836198 
L 71.5948 68.632489 
L 91.8246 67.724222 
L 112.0544 63.373839 
L 132.2842 64.163675 
L 152.514 63.017557 
L 172.7438 63.490412 
L 192.9736 59.005948 
L 213.2034 57.592584 
L 233.4332 57.329643 
L 253.663 58.335929 
L 273.8928 52.89203 
L 294.1226 51.434365 
L 314.3524 51.184465 
L 334.5822 49.935636 
L 354.812 51.250271 
L 375.0418 49.737388 
L 395.2716 47.240114 
L 415.5014 47.815925 
L 435.7312 50.520299 
L 455.961 50.160553 
L 476.1908 46.588611 
L 496.4206 48.868548 
L 516.6504 47.725893 
L 536.8802 46.607588 
L 557.11 48.286964 
L 577.3398 47.393218 
L 597.5696 46.572676 
L 617.7994 47.694405 
L 638.0292 45.995995 
L 658.259 42.315321 
L 678.4888 42.594016 
L 698.7186 40.300358 
L 718.9484 39.07572 
L 739.1782 36.471541 
L 759.408 34.944584 
L 779.6378 35.576166 
L 799.8676 35.355514 
L 820.0974 34.326878 
L 840.3272 34.913876 
L 860.557 32.919999 
L 880.7868 31.911515 
L 901.0166 31.356037 
L 921.2464 30.21771 
L 941.4762 29.215238 
L 961.706 28.429367 
L 981.9358 27.450525 
L 1002.1656 27.536699 
L 1022.3954 27.243724 
L 1042.6252 28.827283 
L 1062.855 29.582844 
" clip-path="url(#p2296847fa8)" style="fill: none; stroke: #7f7f7f; stroke-width: 1.5; stroke-linecap: square"/>
   </g>
   <g id="line2d_21">
    <path d="M 51.365 47.360317 
L 71.5948 45.345747 
L 91.8246 46.330678 
L 112.0544 47.59043 
L 132.2842 47.172223 
L 152.514 49.550256 
L 172.7438 47.939401 
L 192.9736 52.925519 
L 213.2034 50.533607 
L 233.4332 49.611208 
L 253.663 48.755609 
L 273.8928 49.828406 
L 294.1226 50.400767 
L 314.3524 46.103962 
L 334.5822 47.302528 
L 354.812 48.888574 
L 375.0418 48.346418 
L 395.2716 45.150034 
L 415.5014 47.370966 
L 435.7312 47.296563 
L 455.961 46.615014 
L 476.1908 44.114127 
L 496.4206 42.115535 
L 516.6504 39.339262 
L 536.8802 37.316614 
L 557.11 37.840558 
L 577.3398 31.761905 
L 597.5696 30.376578 
L 617.7994 29.627761 
L 638.0292 28.194329 
L 658.259 27.924393 
L 678.4888 28.034737 
L 698.7186 27.469098 
L 718.9484 27.337514 
L 739.1782 27.315845 
L 759.408 27.601577 
L 779.6378 27.534346 
L 799.8676 27.538786 
L 820.0974 26.561499 
L 840.3272 26.242312 
L 860.557 26.950423 
L 880.7868 28.075657 
L 901.0166 27.820562 
L 921.2464 26.892183 
L 941.4762 30.087003 
L 961.706 27.821915 
L 981.9358 26.942647 
L 1002.1656 27.326342 
L 1022.3954 28.131334 
L 1042.6252 27.989692 
L 1062.855 26.719933 
" clip-path="url(#p2296847fa8)" style="fill: none; stroke: #bcbd22; stroke-width: 1.5; stroke-linecap: square"/>
   </g>
   <g id="line2d_22">
    <path d="M 51.365 55.0992 
L 71.5948 55.451378 
L 91.8246 54.655647 
L 112.0544 53.718595 
L 132.2842 55.206523 
L 152.514 54.459917 
L 172.7438 53.349846 
L 192.9736 52.404566 
L 213.2034 52.289516 
L 233.4332 50.096618 
L 253.663 46.617415 
L 273.8928 47.833315 
L 294.1226 42.574976 
L 314.3524 42.534175 
L 334.5822 42.714543 
L 354.812 41.764825 
L 375.0418 41.080889 
L 395.2716 40.21031 
L 415.5014 41.863564 
L 435.7312 42.534697 
L 455.961 41.676992 
L 476.1908 41.764928 
L 496.4206 42.001285 
L 516.6504 40.371137 
L 536.8802 37.714312 
L 557.11 39.319072 
L 577.3398 39.711392 
L 597.5696 41.395178 
L 617.7994 39.37684 
L 638.0292 36.972802 
L 658.259 36.975129 
L 678.4888 33.459818 
L 698.7186 31.505753 
L 718.9484 29.62488 
L 739.1782 28.846588 
L 759.408 28.664316 
L 779.6378 30.551035 
L 799.8676 30.982803 
L 820.0974 30.034612 
L 840.3272 28.334929 
L 860.557 28.947806 
L 880.7868 28.966462 
L 901.0166 29.609059 
L 921.2464 30.134681 
L 941.4762 28.562481 
L 961.706 26.789956 
L 981.9358 28.63822 
L 1002.1656 28.109105 
L 1022.3954 28.855384 
L 1042.6252 28.899435 
L 1062.855 28.640558 
" clip-path="url(#p2296847fa8)" style="fill: none; stroke: #17becf; stroke-width: 1.5; stroke-linecap: square"/>
   </g>
   <g id="line2d_23">
    <path d="M 51.365 141.413091 
L 71.5948 138.049917 
L 91.8246 131.076536 
L 112.0544 126.587336 
L 132.2842 120.317295 
L 152.514 106.934396 
L 172.7438 102.341862 
L 192.9736 99.720026 
L 213.2034 96.226603 
L 233.4332 89.839936 
L 253.663 87.971215 
L 273.8928 78.59303 
L 294.1226 76.757443 
L 314.3524 76.442577 
L 334.5822 73.346184 
L 354.812 72.708269 
L 375.0418 65.826267 
L 395.2716 65.054328 
L 415.5014 62.779836 
L 435.7312 58.222975 
L 455.961 59.770859 
L 476.1908 56.35955 
L 496.4206 47.399375 
L 516.6504 45.511516 
L 536.8802 45.753573 
L 557.11 43.639579 
L 577.3398 43.561466 
L 597.5696 41.602281 
L 617.7994 41.293143 
L 638.0292 41.53315 
L 658.259 41.021492 
L 678.4888 39.075738 
L 698.7186 40.191107 
L 718.9484 39.543627 
L 739.1782 38.60112 
L 759.408 42.819035 
L 779.6378 43.32733 
L 799.8676 43.287745 
L 820.0974 43.356049 
L 840.3272 44.409801 
L 860.557 40.610039 
L 880.7868 37.99085 
L 901.0166 35.46285 
L 921.2464 35.598021 
L 941.4762 33.250746 
L 961.706 32.729945 
L 981.9358 31.566655 
L 1002.1656 30.432658 
L 1022.3954 28.87532 
L 1042.6252 29.494593 
L 1062.855 28.557216 
" clip-path="url(#p2296847fa8)" style="fill: none; stroke: #9edae5; stroke-width: 1.5; stroke-linecap: square"/>
   </g>
   <g id="patch_3">
    <path d="M 51.365 602.44 
L 51.365 14.76 
" style="fill: none; stroke: #000000; stroke-width: 0.8; stroke-linejoin: miter; stroke-linecap: square"/>
   </g>
   <g id="patch_4">
    <path d="M 1062.855 602.44 
L 1062.855 14.76 
" style="fill: none; stroke: #000000; stroke-width: 0.8; stroke-linejoin: miter; stroke-linecap: square"/>
   </g>
   <g id="patch_5">
    <path d="M 51.365 602.44 
L 1062.855 602.44 
" style="fill: none; stroke: #000000; stroke-width: 0.8; stroke-linejoin: miter; stroke-linecap: square"/>
   </g>
   <g id="patch_6">
    <path d="M 51.365 14.76 
L 1062.855 14.76 
" style="fill: none; stroke: #000000; stroke-width: 0.8; stroke-linejoin: miter; stroke-linecap: square"/>
   </g>
   <g id="legend_1">
    <g id="patch_7">
     <path d="M 922.49625 595.44 
L 1053.055 595.44 
Q 1055.855 595.44 1055.855 592.64 
L 1055.855 367.996875 
Q 1055.855 365.196875 1053.055 365.196875 
L 922.49625 365.196875 
Q 919.69625 365.196875 919.69625 367.996875 
L 919.69625 592.64 
Q 919.69625 595.44 922.49625 595.44 
z
" style="fill: #ffffff; opacity: 0.8; stroke: #cccccc; stroke-linejoin: miter"/>
    </g>
    <g id="line2d_24">
     <path d="M 925.29625 376.534688 
L 939.29625 376.534688 
L 953.29625 376.534688 
" style="fill: none; stroke: #1f77b4; stroke-width: 1.5; stroke-linecap: square"/>
    </g>
    <g id="text_15">
     <!-- GA -->
     <g transform="translate(964.49625 381.434687) scale(0.14 -0.14)">
      <defs>
       <path id="DejaVuSans-47" d="M 3809 666 
L 3809 1919 
L 2778 1919 
L 2778 2438 
L 4434 2438 
L 4434 434 
Q 4069 175 3628 42 
Q 3188 -91 2688 -91 
Q 1594 -91 976 548 
Q 359 1188 359 2328 
Q 359 3472 976 4111 
Q 1594 4750 2688 4750 
Q 3144 4750 3555 4637 
Q 3966 4525 4313 4306 
L 4313 3634 
Q 3963 3931 3569 4081 
Q 3175 4231 2741 4231 
Q 1884 4231 1454 3753 
Q 1025 3275 1025 2328 
Q 1025 1384 1454 906 
Q 1884 428 2741 428 
Q 3075 428 3337 486 
Q 3600 544 3809 666 
z
" transform="scale(0.015625)"/>
      </defs>
      <use xlink:href="#DejaVuSans-47"/>
      <use xlink:href="#DejaVuSans-41" x="77.490234"/>
     </g>
    </g>
    <g id="line2d_25">
     <path d="M 925.29625 397.084063 
L 939.29625 397.084063 
L 953.29625 397.084063 
" style="fill: none; stroke: #ff7f0e; stroke-width: 1.5; stroke-linecap: square"/>
    </g>
    <g id="text_16">
     <!-- Random -->
     <g transform="translate(964.49625 401.984062) scale(0.14 -0.14)">
      <defs>
       <path id="DejaVuSans-52" d="M 2841 2188 
Q 3044 2119 3236 1894 
Q 3428 1669 3622 1275 
L 4263 0 
L 3584 0 
L 2988 1197 
Q 2756 1666 2539 1819 
Q 2322 1972 1947 1972 
L 1259 1972 
L 1259 0 
L 628 0 
L 628 4666 
L 2053 4666 
Q 2853 4666 3247 4331 
Q 3641 3997 3641 3322 
Q 3641 2881 3436 2590 
Q 3231 2300 2841 2188 
z
M 1259 4147 
L 1259 2491 
L 2053 2491 
Q 2509 2491 2742 2702 
Q 2975 2913 2975 3322 
Q 2975 3731 2742 3939 
Q 2509 4147 2053 4147 
L 1259 4147 
z
" transform="scale(0.015625)"/>
      </defs>
      <use xlink:href="#DejaVuSans-52"/>
      <use xlink:href="#DejaVuSans-61" x="67.232422"/>
      <use xlink:href="#DejaVuSans-6e" x="128.511719"/>
      <use xlink:href="#DejaVuSans-64" x="191.890625"/>
      <use xlink:href="#DejaVuSans-6f" x="255.367188"/>
      <use xlink:href="#DejaVuSans-6d" x="316.548828"/>
     </g>
    </g>
    <g id="line2d_26">
     <path d="M 925.29625 417.633438 
L 939.29625 417.633438 
L 953.29625 417.633438 
" style="fill: none; stroke: #2ca02c; stroke-width: 1.5; stroke-linecap: square"/>
    </g>
    <g id="text_17">
     <!-- Chi-Squared -->
     <g transform="translate(964.49625 422.533437) scale(0.14 -0.14)">
      <defs>
       <path id="DejaVuSans-68" d="M 3513 2113 
L 3513 0 
L 2938 0 
L 2938 2094 
Q 2938 2591 2744 2837 
Q 2550 3084 2163 3084 
Q 1697 3084 1428 2787 
Q 1159 2491 1159 1978 
L 1159 0 
L 581 0 
L 581 4863 
L 1159 4863 
L 1159 2956 
Q 1366 3272 1645 3428 
Q 1925 3584 2291 3584 
Q 2894 3584 3203 3211 
Q 3513 2838 3513 2113 
z
" transform="scale(0.015625)"/>
       <path id="DejaVuSans-2d" d="M 313 2009 
L 1997 2009 
L 1997 1497 
L 313 1497 
L 313 2009 
z
" transform="scale(0.015625)"/>
       <path id="DejaVuSans-71" d="M 947 1747 
Q 947 1113 1208 752 
Q 1469 391 1925 391 
Q 2381 391 2643 752 
Q 2906 1113 2906 1747 
Q 2906 2381 2643 2742 
Q 2381 3103 1925 3103 
Q 1469 3103 1208 2742 
Q 947 2381 947 1747 
z
M 2906 525 
Q 2725 213 2448 61 
Q 2172 -91 1784 -91 
Q 1150 -91 751 415 
Q 353 922 353 1747 
Q 353 2572 751 3078 
Q 1150 3584 1784 3584 
Q 2172 3584 2448 3432 
Q 2725 3281 2906 2969 
L 2906 3500 
L 3481 3500 
L 3481 -1331 
L 2906 -1331 
L 2906 525 
z
" transform="scale(0.015625)"/>
      </defs>
      <use xlink:href="#DejaVuSans-43"/>
      <use xlink:href="#DejaVuSans-68" x="69.824219"/>
      <use xlink:href="#DejaVuSans-69" x="133.203125"/>
      <use xlink:href="#DejaVuSans-2d" x="160.986328"/>
      <use xlink:href="#DejaVuSans-53" x="197.070312"/>
      <use xlink:href="#DejaVuSans-71" x="260.546875"/>
      <use xlink:href="#DejaVuSans-75" x="324.023438"/>
      <use xlink:href="#DejaVuSans-61" x="387.402344"/>
      <use xlink:href="#DejaVuSans-72" x="448.681641"/>
      <use xlink:href="#DejaVuSans-65" x="487.544922"/>
      <use xlink:href="#DejaVuSans-64" x="549.068359"/>
     </g>
    </g>
    <g id="line2d_27">
     <path d="M 925.29625 438.182813 
L 939.29625 438.182813 
L 953.29625 438.182813 
" style="fill: none; stroke: #d62728; stroke-width: 1.5; stroke-linecap: square"/>
    </g>
    <g id="text_18">
     <!-- ANOVA F -->
     <g transform="translate(964.49625 443.082813) scale(0.14 -0.14)">
      <defs>
       <path id="DejaVuSans-4f" d="M 2522 4238 
Q 1834 4238 1429 3725 
Q 1025 3213 1025 2328 
Q 1025 1447 1429 934 
Q 1834 422 2522 422 
Q 3209 422 3611 934 
Q 4013 1447 4013 2328 
Q 4013 3213 3611 3725 
Q 3209 4238 2522 4238 
z
M 2522 4750 
Q 3503 4750 4090 4092 
Q 4678 3434 4678 2328 
Q 4678 1225 4090 567 
Q 3503 -91 2522 -91 
Q 1538 -91 948 565 
Q 359 1222 359 2328 
Q 359 3434 948 4092 
Q 1538 4750 2522 4750 
z
" transform="scale(0.015625)"/>
       <path id="DejaVuSans-56" d="M 1831 0 
L 50 4666 
L 709 4666 
L 2188 738 
L 3669 4666 
L 4325 4666 
L 2547 0 
L 1831 0 
z
" transform="scale(0.015625)"/>
      </defs>
      <use xlink:href="#DejaVuSans-41"/>
      <use xlink:href="#DejaVuSans-4e" x="68.408203"/>
      <use xlink:href="#DejaVuSans-4f" x="143.212891"/>
      <use xlink:href="#DejaVuSans-56" x="220.173828"/>
      <use xlink:href="#DejaVuSans-41" x="282.207031"/>
      <use xlink:href="#DejaVuSans-20" x="350.615234"/>
      <use xlink:href="#DejaVuSans-46" x="382.402344"/>
     </g>
    </g>
    <g id="line2d_28">
     <path d="M 925.29625 458.732188 
L 939.29625 458.732188 
L 953.29625 458.732188 
" style="fill: none; stroke: #9467bd; stroke-width: 1.5; stroke-linecap: square"/>
    </g>
    <g id="text_19">
     <!-- Mutual Info -->
     <g transform="translate(964.49625 463.632187) scale(0.14 -0.14)">
      <defs>
       <path id="DejaVuSans-49" d="M 628 4666 
L 1259 4666 
L 1259 0 
L 628 0 
L 628 4666 
z
" transform="scale(0.015625)"/>
      </defs>
      <use xlink:href="#DejaVuSans-4d"/>
      <use xlink:href="#DejaVuSans-75" x="86.279297"/>
      <use xlink:href="#DejaVuSans-74" x="149.658203"/>
      <use xlink:href="#DejaVuSans-75" x="188.867188"/>
      <use xlink:href="#DejaVuSans-61" x="252.246094"/>
      <use xlink:href="#DejaVuSans-6c" x="313.525391"/>
      <use xlink:href="#DejaVuSans-20" x="341.308594"/>
      <use xlink:href="#DejaVuSans-49" x="373.095703"/>
      <use xlink:href="#DejaVuSans-6e" x="402.587891"/>
      <use xlink:href="#DejaVuSans-66" x="465.966797"/>
      <use xlink:href="#DejaVuSans-6f" x="501.171875"/>
     </g>
    </g>
    <g id="line2d_29">
     <path d="M 925.29625 479.281563 
L 939.29625 479.281563 
L 953.29625 479.281563 
" style="fill: none; stroke: #8c564b; stroke-width: 1.5; stroke-linecap: square"/>
    </g>
    <g id="text_20">
     <!-- Lasso -->
     <g transform="translate(964.49625 484.181562) scale(0.14 -0.14)">
      <defs>
       <path id="DejaVuSans-4c" d="M 628 4666 
L 1259 4666 
L 1259 531 
L 3531 531 
L 3531 0 
L 628 0 
L 628 4666 
z
" transform="scale(0.015625)"/>
      </defs>
      <use xlink:href="#DejaVuSans-4c"/>
      <use xlink:href="#DejaVuSans-61" x="55.712891"/>
      <use xlink:href="#DejaVuSans-73" x="116.992188"/>
      <use xlink:href="#DejaVuSans-73" x="169.091797"/>
      <use xlink:href="#DejaVuSans-6f" x="221.191406"/>
     </g>
    </g>
    <g id="line2d_30">
     <path d="M 925.29625 499.830938 
L 939.29625 499.830938 
L 953.29625 499.830938 
" style="fill: none; stroke: #e377c2; stroke-width: 1.5; stroke-linecap: square"/>
    </g>
    <g id="text_21">
     <!-- Ridge -->
     <g transform="translate(964.49625 504.730937) scale(0.14 -0.14)">
      <use xlink:href="#DejaVuSans-52"/>
      <use xlink:href="#DejaVuSans-69" x="69.482422"/>
      <use xlink:href="#DejaVuSans-64" x="97.265625"/>
      <use xlink:href="#DejaVuSans-67" x="160.742188"/>
      <use xlink:href="#DejaVuSans-65" x="224.21875"/>
     </g>
    </g>
    <g id="line2d_31">
     <path d="M 925.29625 520.380313 
L 939.29625 520.380313 
L 953.29625 520.380313 
" style="fill: none; stroke: #7f7f7f; stroke-width: 1.5; stroke-linecap: square"/>
    </g>
    <g id="text_22">
     <!-- ElasticNet -->
     <g transform="translate(964.49625 525.280313) scale(0.14 -0.14)">
      <defs>
       <path id="DejaVuSans-45" d="M 628 4666 
L 3578 4666 
L 3578 4134 
L 1259 4134 
L 1259 2753 
L 3481 2753 
L 3481 2222 
L 1259 2222 
L 1259 531 
L 3634 531 
L 3634 0 
L 628 0 
L 628 4666 
z
" transform="scale(0.015625)"/>
      </defs>
      <use xlink:href="#DejaVuSans-45"/>
      <use xlink:href="#DejaVuSans-6c" x="63.183594"/>
      <use xlink:href="#DejaVuSans-61" x="90.966797"/>
      <use xlink:href="#DejaVuSans-73" x="152.246094"/>
      <use xlink:href="#DejaVuSans-74" x="204.345703"/>
      <use xlink:href="#DejaVuSans-69" x="243.554688"/>
      <use xlink:href="#DejaVuSans-63" x="271.337891"/>
      <use xlink:href="#DejaVuSans-4e" x="326.318359"/>
      <use xlink:href="#DejaVuSans-65" x="401.123047"/>
      <use xlink:href="#DejaVuSans-74" x="462.646484"/>
     </g>
    </g>
    <g id="line2d_32">
     <path d="M 925.29625 540.929688 
L 939.29625 540.929688 
L 953.29625 540.929688 
" style="fill: none; stroke: #bcbd22; stroke-width: 1.5; stroke-linecap: square"/>
    </g>
    <g id="text_23">
     <!-- RF -->
     <g transform="translate(964.49625 545.829687) scale(0.14 -0.14)">
      <use xlink:href="#DejaVuSans-52"/>
      <use xlink:href="#DejaVuSans-46" x="69.482422"/>
     </g>
    </g>
    <g id="line2d_33">
     <path d="M 925.29625 561.479063 
L 939.29625 561.479063 
L 953.29625 561.479063 
" style="fill: none; stroke: #17becf; stroke-width: 1.5; stroke-linecap: square"/>
    </g>
    <g id="text_24">
     <!-- GBM -->
     <g transform="translate(964.49625 566.379063) scale(0.14 -0.14)">
      <use xlink:href="#DejaVuSans-47"/>
      <use xlink:href="#DejaVuSans-42" x="77.490234"/>
      <use xlink:href="#DejaVuSans-4d" x="146.09375"/>
     </g>
    </g>
    <g id="line2d_34">
     <path d="M 925.29625 582.028437 
L 939.29625 582.028437 
L 953.29625 582.028437 
" style="fill: none; stroke: #9edae5; stroke-width: 1.5; stroke-linecap: square"/>
    </g>
    <g id="text_25">
     <!-- XGB -->
     <g transform="translate(964.49625 586.928437) scale(0.14 -0.14)">
      <defs>
       <path id="DejaVuSans-58" d="M 403 4666 
L 1081 4666 
L 2241 2931 
L 3406 4666 
L 4084 4666 
L 2584 2425 
L 4184 0 
L 3506 0 
L 2194 1984 
L 872 0 
L 191 0 
L 1856 2491 
L 403 4666 
z
" transform="scale(0.015625)"/>
      </defs>
      <use xlink:href="#DejaVuSans-58"/>
      <use xlink:href="#DejaVuSans-47" x="68.505859"/>
      <use xlink:href="#DejaVuSans-42" x="145.996094"/>
     </g>
    </g>
   </g>
  </g>
 </g>
 <defs>
  <clipPath id="p2296847fa8">
   <rect x="51.365" y="14.76" width="1011.49" height="587.68"/>
  </clipPath>
 </defs>
</svg>
