<?xml version="1.0" encoding="utf-8" standalone="no"?>
<!DOCTYPE svg PUBLIC "-//W3C//DTD SVG 1.1//EN"
  "http://www.w3.org/Graphics/SVG/1.1/DTD/svg11.dtd">
<svg xmlns:xlink="http://www.w3.org/1999/xlink" width="1080pt" height="648pt" viewBox="0 0 1080 648" xmlns="http://www.w3.org/2000/svg" version="1.1">
 <metadata>
  <rdf:RDF xmlns:dc="http://purl.org/dc/elements/1.1/" xmlns:cc="http://creativecommons.org/ns#" xmlns:rdf="http://www.w3.org/1999/02/22-rdf-syntax-ns#">
   <cc:Work>
    <dc:type rdf:resource="http://purl.org/dc/dcmitype/StillImage"/>
    <dc:date>2024-04-05T15:52:09.421383</dc:date>
    <dc:format>image/svg+xml</dc:format>
    <dc:creator>
     <cc:Agent>
      <dc:title>Matplotlib v3.7.2, https://matplotlib.org/</dc:title>
     </cc:Agent>
    </dc:creator>
   </cc:Work>
  </rdf:RDF>
 </metadata>
 <defs>
  <style type="text/css">*{stroke-linejoin: round; stroke-linecap: butt}</style>
 </defs>
 <g id="figure_1">
  <g id="patch_1">
   <path d="M 0 648 
L 1080 648 
L 1080 0 
L 0 0 
z
" style="fill: #ffffff"/>
  </g>
  <g id="axes_1">
   <g id="patch_2">
    <path d="M 47.765 606.04 
L 933.07 606.04 
L 933.07 30.748 
L 47.765 30.748 
z
" style="fill: #ffffff"/>
   </g>
   <g id="PolyCollection_1">
    <defs>
     <path id="m7299881a5d" d="M 47.765 -602.173162 
L 47.765 -557.572372 
L 65.4711 -556.731633 
L 83.1772 -556.961604 
L 100.8833 -556.241884 
L 118.5894 -555.231701 
L 136.2955 -557.501207 
L 154.0016 -553.937434 
L 171.7077 -555.500826 
L 189.4138 -559.853528 
L 207.1199 -563.495096 
L 224.826 -563.698863 
L 242.5321 -563.796702 
L 260.2382 -565.067232 
L 277.9443 -570.938821 
L 295.6504 -569.126704 
L 313.3565 -572.553365 
L 331.0626 -575.477324 
L 348.7687 -574.355125 
L 366.4748 -574.610714 
L 384.1809 -580.0288 
L 401.887 -580.197716 
L 419.5931 -581.339918 
L 437.2992 -584.804594 
L 455.0053 -581.168141 
L 472.7114 -583.121998 
L 490.4175 -584.611978 
L 508.1236 -584.059149 
L 525.8297 -586.73282 
L 543.5358 -584.995574 
L 561.2419 -587.830815 
L 578.948 -583.72484 
L 596.6541 -588.838886 
L 614.3602 -590.072254 
L 632.0663 -589.386584 
L 649.7724 -585.015379 
L 667.4785 -590.708391 
L 685.1846 -589.786111 
L 702.8907 -592.731885 
L 720.5968 -596.905597 
L 738.3029 -586.95926 
L 756.009 -595.719475 
L 773.7151 -592.282798 
L 791.4212 -597.401625 
L 809.1273 -597.565117 
L 826.8334 -598.634928 
L 844.5395 -589.012104 
L 862.2456 -593.174043 
L 879.9517 -593.689517 
L 897.6578 -604.748014 
L 915.3639 -597.938617 
L 933.07 -589.769496 
L 933.07 -629.186288 
L 933.07 -629.186288 
L 915.3639 -627.506181 
L 897.6578 -624.98144 
L 879.9517 -627.83769 
L 862.2456 -628.03497 
L 844.5395 -627.954169 
L 826.8334 -626.542318 
L 809.1273 -626.272378 
L 791.4212 -626.306433 
L 773.7151 -627.064189 
L 756.009 -627.113462 
L 738.3029 -625.765579 
L 720.5968 -625.309957 
L 702.8907 -624.998437 
L 685.1846 -623.50417 
L 667.4785 -623.92499 
L 649.7724 -620.228214 
L 632.0663 -624.427208 
L 614.3602 -623.458783 
L 596.6541 -622.373384 
L 578.948 -621.362685 
L 561.2419 -621.955882 
L 543.5358 -619.239628 
L 525.8297 -620.366711 
L 508.1236 -621.485783 
L 490.4175 -622.47735 
L 472.7114 -618.497604 
L 455.0053 -620.276185 
L 437.2992 -618.880829 
L 419.5931 -620.996607 
L 401.887 -619.911261 
L 384.1809 -619.62954 
L 366.4748 -617.60297 
L 348.7687 -616.193625 
L 331.0626 -616.490805 
L 313.3565 -615.578788 
L 295.6504 -611.977986 
L 277.9443 -613.78019 
L 260.2382 -610.50962 
L 242.5321 -606.687161 
L 224.826 -608.265254 
L 207.1199 -606.080403 
L 189.4138 -608.057872 
L 171.7077 -608.291158 
L 154.0016 -608.397153 
L 136.2955 -605.455716 
L 118.5894 -605.758936 
L 100.8833 -604.122075 
L 83.1772 -604.922096 
L 65.4711 -606.212241 
L 47.765 -602.173162 
z
" style="stroke: #1f77b4; stroke-opacity: 0.2"/>
    </defs>
    <g clip-path="url(#p879af05da2)">
     <use xlink:href="#m7299881a5d" x="0" y="648" style="fill: #1f77b4; fill-opacity: 0.2; stroke: #1f77b4; stroke-opacity: 0.2"/>
    </g>
   </g>
   <g id="PolyCollection_2">
    <defs>
     <path id="m303ecd6e41" d="M 47.765 -333.30638 
L 47.765 -226.455943 
L 65.4711 -261.712909 
L 83.1772 -249.57813 
L 100.8833 -261.424991 
L 118.5894 -250.752572 
L 136.2955 -278.030755 
L 154.0016 -282.26334 
L 171.7077 -275.848173 
L 189.4138 -305.790137 
L 207.1199 -279.088148 
L 224.826 -278.959712 
L 242.5321 -309.217988 
L 260.2382 -309.953614 
L 277.9443 -298.44078 
L 295.6504 -317.236757 
L 313.3565 -311.420089 
L 331.0626 -315.071607 
L 348.7687 -329.980848 
L 366.4748 -338.847354 
L 384.1809 -324.823174 
L 401.887 -360.454509 
L 419.5931 -337.355269 
L 437.2992 -379.073507 
L 455.0053 -326.897277 
L 472.7114 -337.368689 
L 490.4175 -348.833696 
L 508.1236 -356.329462 
L 525.8297 -355.675653 
L 543.5358 -359.41244 
L 561.2419 -345.275405 
L 578.948 -388.703074 
L 596.6541 -375.645439 
L 614.3602 -368.76436 
L 632.0663 -379.741191 
L 649.7724 -383.831105 
L 667.4785 -358.164483 
L 685.1846 -375.416484 
L 702.8907 -356.777412 
L 720.5968 -401.220163 
L 738.3029 -431.469052 
L 756.009 -406.566753 
L 773.7151 -378.286835 
L 791.4212 -420.134145 
L 809.1273 -401.991875 
L 826.8334 -387.08341 
L 844.5395 -394.429415 
L 862.2456 -440.950587 
L 879.9517 -412.302442 
L 897.6578 -406.502945 
L 915.3639 -461.202131 
L 933.07 -429.257333 
L 933.07 -524.49434 
L 933.07 -524.49434 
L 915.3639 -548.977221 
L 897.6578 -508.811158 
L 879.9517 -520.704312 
L 862.2456 -510.196862 
L 844.5395 -498.855176 
L 826.8334 -498.595855 
L 809.1273 -491.657412 
L 791.4212 -478.127941 
L 773.7151 -466.821082 
L 756.009 -501.999464 
L 738.3029 -517.993887 
L 720.5968 -506.123463 
L 702.8907 -449.609396 
L 685.1846 -484.01629 
L 667.4785 -426.031927 
L 649.7724 -502.717139 
L 632.0663 -484.25181 
L 614.3602 -473.081028 
L 596.6541 -430.973787 
L 578.948 -469.16592 
L 561.2419 -475.264902 
L 543.5358 -445.083026 
L 525.8297 -452.426558 
L 508.1236 -445.560936 
L 490.4175 -422.694509 
L 472.7114 -444.835829 
L 455.0053 -400.4721 
L 437.2992 -497.717064 
L 419.5931 -441.78352 
L 401.887 -425.687424 
L 384.1809 -408.135755 
L 366.4748 -407.62616 
L 348.7687 -392.322903 
L 331.0626 -399.603559 
L 313.3565 -418.525193 
L 295.6504 -429.801821 
L 277.9443 -391.233372 
L 260.2382 -415.977381 
L 242.5321 -377.340219 
L 224.826 -374.652277 
L 207.1199 -390.388149 
L 189.4138 -385.742673 
L 171.7077 -383.985508 
L 154.0016 -382.650111 
L 136.2955 -358.020332 
L 118.5894 -345.082094 
L 100.8833 -372.175747 
L 83.1772 -344.627915 
L 65.4711 -360.62854 
L 47.765 -333.30638 
z
" style="stroke: #ff7f0e; stroke-opacity: 0.2"/>
    </defs>
    <g clip-path="url(#p879af05da2)">
     <use xlink:href="#m303ecd6e41" x="0" y="648" style="fill: #ff7f0e; fill-opacity: 0.2; stroke: #ff7f0e; stroke-opacity: 0.2"/>
    </g>
   </g>
   <g id="PolyCollection_3">
    <defs>
     <path id="m922d59f008" d="M 47.765 -605.203226 
L 47.765 -562.208659 
L 65.4711 -566.131068 
L 83.1772 -562.479666 
L 100.8833 -565.373742 
L 118.5894 -568.024752 
L 136.2955 -569.845039 
L 154.0016 -569.989539 
L 171.7077 -568.619468 
L 189.4138 -565.769785 
L 207.1199 -569.322753 
L 224.826 -567.381719 
L 242.5321 -570.17154 
L 260.2382 -568.064722 
L 277.9443 -567.13649 
L 295.6504 -566.713901 
L 313.3565 -570.692276 
L 331.0626 -572.012951 
L 348.7687 -572.215282 
L 366.4748 -572.27515 
L 384.1809 -571.414495 
L 401.887 -573.321326 
L 419.5931 -572.526086 
L 437.2992 -571.067855 
L 455.0053 -572.837019 
L 472.7114 -571.917034 
L 490.4175 -574.584556 
L 508.1236 -573.482124 
L 525.8297 -574.757257 
L 543.5358 -574.211826 
L 561.2419 -575.367411 
L 578.948 -573.628921 
L 596.6541 -573.375028 
L 614.3602 -573.095712 
L 632.0663 -573.163661 
L 649.7724 -578.378788 
L 667.4785 -580.469585 
L 685.1846 -577.233034 
L 702.8907 -581.476378 
L 720.5968 -584.555312 
L 738.3029 -581.844531 
L 756.009 -581.391766 
L 773.7151 -579.115984 
L 791.4212 -580.893602 
L 809.1273 -581.534249 
L 826.8334 -582.733552 
L 844.5395 -577.967207 
L 862.2456 -577.891195 
L 879.9517 -577.558199 
L 897.6578 -580.652393 
L 915.3639 -574.970164 
L 933.07 -575.683746 
L 933.07 -624.995301 
L 933.07 -624.995301 
L 915.3639 -621.699562 
L 897.6578 -622.631109 
L 879.9517 -621.976685 
L 862.2456 -621.862022 
L 844.5395 -619.272847 
L 826.8334 -617.923797 
L 809.1273 -619.11085 
L 791.4212 -617.121178 
L 773.7151 -617.081912 
L 756.009 -619.48578 
L 738.3029 -620.406504 
L 720.5968 -620.561131 
L 702.8907 -619.62536 
L 685.1846 -617.830664 
L 667.4785 -618.572171 
L 649.7724 -618.036166 
L 632.0663 -617.855462 
L 614.3602 -615.739747 
L 596.6541 -618.605011 
L 578.948 -616.401799 
L 561.2419 -617.275009 
L 543.5358 -617.618164 
L 525.8297 -617.855431 
L 508.1236 -616.12317 
L 490.4175 -616.046805 
L 472.7114 -616.05122 
L 455.0053 -613.801096 
L 437.2992 -612.588523 
L 419.5931 -613.465855 
L 401.887 -613.313175 
L 384.1809 -614.157684 
L 366.4748 -613.564477 
L 348.7687 -613.809968 
L 331.0626 -612.194563 
L 313.3565 -611.099935 
L 295.6504 -609.334267 
L 277.9443 -609.58087 
L 260.2382 -609.28022 
L 242.5321 -610.896003 
L 224.826 -609.104185 
L 207.1199 -609.288134 
L 189.4138 -611.026047 
L 171.7077 -609.63335 
L 154.0016 -610.34266 
L 136.2955 -610.037198 
L 118.5894 -609.703423 
L 100.8833 -608.07895 
L 83.1772 -607.380912 
L 65.4711 -605.839296 
L 47.765 -605.203226 
z
" style="stroke: #2ca02c; stroke-opacity: 0.2"/>
    </defs>
    <g clip-path="url(#p879af05da2)">
     <use xlink:href="#m922d59f008" x="0" y="648" style="fill: #2ca02c; fill-opacity: 0.2; stroke: #2ca02c; stroke-opacity: 0.2"/>
    </g>
   </g>
   <g id="PolyCollection_4">
    <defs>
     <path id="ma3520a8bed" d="M 47.765 -605.869498 
L 47.765 -559.372794 
L 65.4711 -565.327189 
L 83.1772 -571.635838 
L 100.8833 -570.728133 
L 118.5894 -571.075039 
L 136.2955 -571.2367 
L 154.0016 -567.513239 
L 171.7077 -570.683362 
L 189.4138 -566.836708 
L 207.1199 -570.0413 
L 224.826 -569.401349 
L 242.5321 -571.41233 
L 260.2382 -571.550844 
L 277.9443 -574.90107 
L 295.6504 -572.701474 
L 313.3565 -572.914205 
L 331.0626 -575.127076 
L 348.7687 -569.946153 
L 366.4748 -569.153604 
L 384.1809 -573.706237 
L 401.887 -573.736562 
L 419.5931 -573.020655 
L 437.2992 -573.674687 
L 455.0053 -575.082806 
L 472.7114 -579.895466 
L 490.4175 -580.398197 
L 508.1236 -578.892578 
L 525.8297 -580.902188 
L 543.5358 -578.089535 
L 561.2419 -581.396223 
L 578.948 -581.630576 
L 596.6541 -582.341626 
L 614.3602 -580.313009 
L 632.0663 -580.661808 
L 649.7724 -578.939463 
L 667.4785 -575.665645 
L 685.1846 -581.920916 
L 702.8907 -582.615388 
L 720.5968 -584.090553 
L 738.3029 -590.268535 
L 756.009 -587.372326 
L 773.7151 -589.228235 
L 791.4212 -584.240314 
L 809.1273 -585.736763 
L 826.8334 -589.394128 
L 844.5395 -580.567804 
L 862.2456 -579.037276 
L 879.9517 -582.839443 
L 897.6578 -576.553089 
L 915.3639 -580.98267 
L 933.07 -585.657186 
L 933.07 -627.381328 
L 933.07 -627.381328 
L 915.3639 -626.965985 
L 897.6578 -626.707921 
L 879.9517 -625.987519 
L 862.2456 -625.513108 
L 844.5395 -625.858633 
L 826.8334 -626.178806 
L 809.1273 -626.437731 
L 791.4212 -626.722697 
L 773.7151 -626.294035 
L 756.009 -624.789446 
L 738.3029 -626.123076 
L 720.5968 -621.68447 
L 702.8907 -621.830624 
L 685.1846 -619.857189 
L 667.4785 -619.705685 
L 649.7724 -620.028501 
L 632.0663 -620.724678 
L 614.3602 -618.228633 
L 596.6541 -619.510624 
L 578.948 -619.136417 
L 561.2419 -619.100274 
L 543.5358 -617.598682 
L 525.8297 -618.878696 
L 508.1236 -619.615081 
L 490.4175 -620.865473 
L 472.7114 -619.738681 
L 455.0053 -619.047915 
L 437.2992 -619.118097 
L 419.5931 -615.993456 
L 401.887 -615.644793 
L 384.1809 -617.262249 
L 366.4748 -617.796497 
L 348.7687 -618.287933 
L 331.0626 -617.696347 
L 313.3565 -617.956251 
L 295.6504 -617.718307 
L 277.9443 -617.599383 
L 260.2382 -614.097121 
L 242.5321 -614.523049 
L 224.826 -613.417016 
L 207.1199 -614.066776 
L 189.4138 -611.675232 
L 171.7077 -611.394317 
L 154.0016 -610.789985 
L 136.2955 -611.448162 
L 118.5894 -611.727507 
L 100.8833 -610.521016 
L 83.1772 -609.590401 
L 65.4711 -608.396885 
L 47.765 -605.869498 
z
" style="stroke: #d62728; stroke-opacity: 0.2"/>
    </defs>
    <g clip-path="url(#p879af05da2)">
     <use xlink:href="#ma3520a8bed" x="0" y="648" style="fill: #d62728; fill-opacity: 0.2; stroke: #d62728; stroke-opacity: 0.2"/>
    </g>
   </g>
   <g id="PolyCollection_5">
    <defs>
     <path id="mee24f41e26" d="M 47.765 -595.951439 
L 47.765 -541.581389 
L 65.4711 -544.938148 
L 83.1772 -550.89364 
L 100.8833 -550.824983 
L 118.5894 -551.180077 
L 136.2955 -551.254805 
L 154.0016 -552.556906 
L 171.7077 -548.713615 
L 189.4138 -551.982144 
L 207.1199 -557.099287 
L 224.826 -557.998438 
L 242.5321 -559.353043 
L 260.2382 -559.864791 
L 277.9443 -558.504828 
L 295.6504 -558.50082 
L 313.3565 -559.457577 
L 331.0626 -561.485451 
L 348.7687 -562.667677 
L 366.4748 -565.388277 
L 384.1809 -567.323379 
L 401.887 -567.779557 
L 419.5931 -568.100581 
L 437.2992 -568.710918 
L 455.0053 -568.052225 
L 472.7114 -571.133232 
L 490.4175 -571.299388 
L 508.1236 -572.681868 
L 525.8297 -573.60627 
L 543.5358 -573.13283 
L 561.2419 -574.86804 
L 578.948 -584.232349 
L 596.6541 -583.759369 
L 614.3602 -581.372079 
L 632.0663 -581.786248 
L 649.7724 -584.901112 
L 667.4785 -586.468059 
L 685.1846 -587.083985 
L 702.8907 -588.673405 
L 720.5968 -587.103507 
L 738.3029 -587.350439 
L 756.009 -589.169716 
L 773.7151 -588.294088 
L 791.4212 -585.068437 
L 809.1273 -589.260323 
L 826.8334 -589.714477 
L 844.5395 -587.253058 
L 862.2456 -595.275406 
L 879.9517 -600.320064 
L 897.6578 -601.341803 
L 915.3639 -602.402847 
L 933.07 -600.26308 
L 933.07 -624.09574 
L 933.07 -624.09574 
L 915.3639 -623.761671 
L 897.6578 -623.979659 
L 879.9517 -623.702875 
L 862.2456 -624.826572 
L 844.5395 -625.400292 
L 826.8334 -624.884878 
L 809.1273 -624.328992 
L 791.4212 -622.788224 
L 773.7151 -623.537752 
L 756.009 -624.361017 
L 738.3029 -623.282853 
L 720.5968 -624.37826 
L 702.8907 -623.061314 
L 685.1846 -622.315457 
L 667.4785 -622.452761 
L 649.7724 -622.941772 
L 632.0663 -622.436907 
L 614.3602 -621.36999 
L 596.6541 -621.695698 
L 578.948 -622.089545 
L 561.2419 -619.780493 
L 543.5358 -619.36053 
L 525.8297 -620.758887 
L 508.1236 -619.855167 
L 490.4175 -617.579491 
L 472.7114 -617.321224 
L 455.0053 -617.022645 
L 437.2992 -617.411015 
L 419.5931 -617.7677 
L 401.887 -616.026969 
L 384.1809 -613.619875 
L 366.4748 -613.593293 
L 348.7687 -610.752916 
L 331.0626 -609.606399 
L 313.3565 -609.744121 
L 295.6504 -607.42911 
L 277.9443 -607.987901 
L 260.2382 -608.166962 
L 242.5321 -608.119775 
L 224.826 -605.828565 
L 207.1199 -605.718958 
L 189.4138 -602.778769 
L 171.7077 -601.477735 
L 154.0016 -602.994974 
L 136.2955 -600.870445 
L 118.5894 -601.872379 
L 100.8833 -599.243226 
L 83.1772 -599.915462 
L 65.4711 -596.461331 
L 47.765 -595.951439 
z
" style="stroke: #9467bd; stroke-opacity: 0.2"/>
    </defs>
    <g clip-path="url(#p879af05da2)">
     <use xlink:href="#mee24f41e26" x="0" y="648" style="fill: #9467bd; fill-opacity: 0.2; stroke: #9467bd; stroke-opacity: 0.2"/>
    </g>
   </g>
   <g id="PolyCollection_6">
    <defs>
     <path id="md21d2aaac1" d="M 47.765 -596.648123 
L 47.765 -549.988157 
L 65.4711 -549.947323 
L 83.1772 -552.059187 
L 100.8833 -553.061132 
L 118.5894 -552.07641 
L 136.2955 -553.869214 
L 154.0016 -557.117435 
L 171.7077 -553.9089 
L 189.4138 -556.253733 
L 207.1199 -558.504403 
L 224.826 -563.257258 
L 242.5321 -562.468024 
L 260.2382 -565.04395 
L 277.9443 -563.47431 
L 295.6504 -564.365979 
L 313.3565 -565.857484 
L 331.0626 -567.176355 
L 348.7687 -569.054942 
L 366.4748 -569.897133 
L 384.1809 -571.059394 
L 401.887 -571.747702 
L 419.5931 -567.486638 
L 437.2992 -564.211589 
L 455.0053 -567.55124 
L 472.7114 -569.311947 
L 490.4175 -561.775 
L 508.1236 -565.632331 
L 525.8297 -566.39223 
L 543.5358 -565.209689 
L 561.2419 -569.914771 
L 578.948 -572.533938 
L 596.6541 -572.26049 
L 614.3602 -568.521687 
L 632.0663 -574.261375 
L 649.7724 -574.150333 
L 667.4785 -574.192497 
L 685.1846 -583.397987 
L 702.8907 -580.285215 
L 720.5968 -580.554348 
L 738.3029 -582.427748 
L 756.009 -584.463582 
L 773.7151 -585.885163 
L 791.4212 -586.975046 
L 809.1273 -586.255066 
L 826.8334 -585.716071 
L 844.5395 -583.180444 
L 862.2456 -582.574789 
L 879.9517 -584.614395 
L 897.6578 -586.02809 
L 915.3639 -588.486633 
L 933.07 -590.160318 
L 933.07 -620.983985 
L 933.07 -620.983985 
L 915.3639 -620.049575 
L 897.6578 -620.452166 
L 879.9517 -620.194944 
L 862.2456 -619.240584 
L 844.5395 -619.369823 
L 826.8334 -620.206126 
L 809.1273 -620.413061 
L 791.4212 -619.922517 
L 773.7151 -619.764465 
L 756.009 -618.252239 
L 738.3029 -617.648974 
L 720.5968 -618.154026 
L 702.8907 -618.247766 
L 685.1846 -617.742092 
L 667.4785 -617.465192 
L 649.7724 -615.666222 
L 632.0663 -615.054708 
L 614.3602 -615.11211 
L 596.6541 -614.677933 
L 578.948 -614.049499 
L 561.2419 -614.148486 
L 543.5358 -612.286635 
L 525.8297 -610.160138 
L 508.1236 -611.768264 
L 490.4175 -611.91688 
L 472.7114 -611.440512 
L 455.0053 -611.528681 
L 437.2992 -609.775534 
L 419.5931 -609.261314 
L 401.887 -609.592337 
L 384.1809 -608.68656 
L 366.4748 -608.506612 
L 348.7687 -607.820387 
L 331.0626 -607.277226 
L 313.3565 -605.746378 
L 295.6504 -605.168829 
L 277.9443 -605.016512 
L 260.2382 -605.35065 
L 242.5321 -604.547103 
L 224.826 -602.999767 
L 207.1199 -602.360981 
L 189.4138 -601.516449 
L 171.7077 -600.73316 
L 154.0016 -601.846189 
L 136.2955 -599.949186 
L 118.5894 -597.962658 
L 100.8833 -598.02881 
L 83.1772 -597.31 
L 65.4711 -597.385265 
L 47.765 -596.648123 
z
" style="stroke: #8c564b; stroke-opacity: 0.2"/>
    </defs>
    <g clip-path="url(#p879af05da2)">
     <use xlink:href="#md21d2aaac1" x="0" y="648" style="fill: #8c564b; fill-opacity: 0.2; stroke: #8c564b; stroke-opacity: 0.2"/>
    </g>
   </g>
   <g id="PolyCollection_7">
    <defs>
     <path id="m3149ca0f27" d="M 47.765 -577.452758 
L 47.765 -536.369498 
L 65.4711 -537.085365 
L 83.1772 -538.214964 
L 100.8833 -537.586549 
L 118.5894 -538.960638 
L 136.2955 -540.638676 
L 154.0016 -543.749222 
L 171.7077 -546.162904 
L 189.4138 -551.647963 
L 207.1199 -549.3668 
L 224.826 -552.979174 
L 242.5321 -558.091956 
L 260.2382 -556.713184 
L 277.9443 -555.324817 
L 295.6504 -558.261267 
L 313.3565 -559.146824 
L 331.0626 -556.760905 
L 348.7687 -563.736426 
L 366.4748 -565.537387 
L 384.1809 -565.167589 
L 401.887 -564.156869 
L 419.5931 -570.456336 
L 437.2992 -564.379458 
L 455.0053 -565.952239 
L 472.7114 -565.914958 
L 490.4175 -562.790541 
L 508.1236 -562.839067 
L 525.8297 -566.907284 
L 543.5358 -567.228552 
L 561.2419 -569.433012 
L 578.948 -572.198883 
L 596.6541 -570.545736 
L 614.3602 -572.757526 
L 632.0663 -574.713641 
L 649.7724 -577.07712 
L 667.4785 -579.82007 
L 685.1846 -582.132828 
L 702.8907 -584.08702 
L 720.5968 -588.029578 
L 738.3029 -589.46821 
L 756.009 -590.030586 
L 773.7151 -590.27323 
L 791.4212 -590.622537 
L 809.1273 -592.00219 
L 826.8334 -590.976224 
L 844.5395 -589.539801 
L 862.2456 -590.841881 
L 879.9517 -589.356203 
L 897.6578 -588.26912 
L 915.3639 -588.326734 
L 933.07 -586.503454 
L 933.07 -621.220038 
L 933.07 -621.220038 
L 915.3639 -621.250606 
L 897.6578 -621.58541 
L 879.9517 -621.734058 
L 862.2456 -621.353815 
L 844.5395 -621.019163 
L 826.8334 -620.678833 
L 809.1273 -620.471499 
L 791.4212 -620.218913 
L 773.7151 -620.52885 
L 756.009 -620.137701 
L 738.3029 -620.164871 
L 720.5968 -619.841627 
L 702.8907 -619.269938 
L 685.1846 -617.818192 
L 667.4785 -616.955839 
L 649.7724 -616.261392 
L 632.0663 -615.218318 
L 614.3602 -613.798279 
L 596.6541 -613.72051 
L 578.948 -614.39411 
L 561.2419 -613.848987 
L 543.5358 -612.572849 
L 525.8297 -610.157895 
L 508.1236 -608.886725 
L 490.4175 -608.618004 
L 472.7114 -608.596393 
L 455.0053 -608.205287 
L 437.2992 -607.980928 
L 419.5931 -609.91728 
L 401.887 -606.837489 
L 384.1809 -607.022037 
L 366.4748 -606.876586 
L 348.7687 -606.471343 
L 331.0626 -603.774241 
L 313.3565 -604.53141 
L 295.6504 -603.072531 
L 277.9443 -601.443973 
L 260.2382 -600.975428 
L 242.5321 -601.835782 
L 224.826 -601.505055 
L 207.1199 -597.496208 
L 189.4138 -595.577406 
L 171.7077 -587.91659 
L 154.0016 -586.821944 
L 136.2955 -584.418756 
L 118.5894 -582.253427 
L 100.8833 -580.54626 
L 83.1772 -579.694589 
L 65.4711 -579.770581 
L 47.765 -577.452758 
z
" style="stroke: #e377c2; stroke-opacity: 0.2"/>
    </defs>
    <g clip-path="url(#p879af05da2)">
     <use xlink:href="#m3149ca0f27" x="0" y="648" style="fill: #e377c2; fill-opacity: 0.2; stroke: #e377c2; stroke-opacity: 0.2"/>
    </g>
   </g>
   <g id="PolyCollection_8">
    <defs>
     <path id="m1774d0e6ef" d="M 47.765 -584.002022 
L 47.765 -539.580648 
L 65.4711 -545.002866 
L 83.1772 -546.081401 
L 100.8833 -550.23302 
L 118.5894 -549.803941 
L 136.2955 -550.34269 
L 154.0016 -549.438413 
L 171.7077 -553.703766 
L 189.4138 -555.827512 
L 207.1199 -555.155024 
L 224.826 -552.968383 
L 242.5321 -560.922716 
L 260.2382 -563.026812 
L 277.9443 -563.075511 
L 295.6504 -564.274528 
L 313.3565 -561.425159 
L 331.0626 -563.45509 
L 348.7687 -567.158348 
L 366.4748 -566.731901 
L 384.1809 -563.529856 
L 401.887 -564.058091 
L 419.5931 -566.954054 
L 437.2992 -564.953828 
L 455.0053 -566.159261 
L 472.7114 -567.080998 
L 490.4175 -564.321535 
L 508.1236 -565.392973 
L 525.8297 -566.175549 
L 543.5358 -563.228079 
L 561.2419 -564.389722 
L 578.948 -570.069105 
L 596.6541 -569.981467 
L 614.3602 -572.621398 
L 632.0663 -574.502938 
L 649.7724 -578.056483 
L 667.4785 -579.461488 
L 685.1846 -578.688993 
L 702.8907 -578.646271 
L 720.5968 -580.160983 
L 738.3029 -579.027129 
L 756.009 -581.881706 
L 773.7151 -583.818959 
L 791.4212 -584.228854 
L 809.1273 -585.929125 
L 826.8334 -587.924621 
L 844.5395 -589.756046 
L 862.2456 -590.577612 
L 879.9517 -590.767537 
L 897.6578 -590.813643 
L 915.3639 -588.16693 
L 933.07 -587.004743 
L 933.07 -620.52075 
L 933.07 -620.52075 
L 915.3639 -620.719646 
L 897.6578 -620.947044 
L 879.9517 -620.481484 
L 862.2456 -620.855877 
L 844.5395 -619.908344 
L 826.8334 -620.230458 
L 809.1273 -620.405309 
L 791.4212 -619.929167 
L 773.7151 -619.337155 
L 756.009 -619.40492 
L 738.3029 -618.550838 
L 720.5968 -618.519676 
L 702.8907 -618.188129 
L 685.1846 -617.719682 
L 667.4785 -618.15262 
L 649.7724 -616.754425 
L 632.0663 -615.474648 
L 614.3602 -615.140439 
L 596.6541 -613.64007 
L 578.948 -614.020571 
L 561.2419 -613.01067 
L 543.5358 -611.066174 
L 525.8297 -610.233139 
L 508.1236 -609.507049 
L 490.4175 -608.95574 
L 472.7114 -609.302865 
L 455.0053 -608.208542 
L 437.2992 -607.324899 
L 419.5931 -609.453301 
L 401.887 -605.877342 
L 384.1809 -605.763788 
L 366.4748 -607.641148 
L 348.7687 -608.259246 
L 331.0626 -607.518623 
L 313.3565 -606.874614 
L 295.6504 -606.358839 
L 277.9443 -605.331007 
L 260.2382 -604.990045 
L 242.5321 -604.509651 
L 224.826 -602.74623 
L 207.1199 -602.366969 
L 189.4138 -601.214009 
L 171.7077 -600.710211 
L 154.0016 -596.842296 
L 136.2955 -596.826143 
L 118.5894 -595.199851 
L 100.8833 -596.226604 
L 83.1772 -592.432681 
L 65.4711 -591.772812 
L 47.765 -584.002022 
z
" style="stroke: #7f7f7f; stroke-opacity: 0.2"/>
    </defs>
    <g clip-path="url(#p879af05da2)">
     <use xlink:href="#m1774d0e6ef" x="0" y="648" style="fill: #7f7f7f; fill-opacity: 0.2; stroke: #7f7f7f; stroke-opacity: 0.2"/>
    </g>
   </g>
   <g id="PolyCollection_9">
    <defs>
     <path id="mf0a3357ecb" d="M 47.765 -604.595552 
L 47.765 -570.801453 
L 65.4711 -572.447879 
L 83.1772 -571.75359 
L 100.8833 -568.813262 
L 118.5894 -569.52594 
L 136.2955 -564.24719 
L 154.0016 -566.804631 
L 171.7077 -558.941436 
L 189.4138 -562.824827 
L 207.1199 -563.390818 
L 224.826 -564.737508 
L 242.5321 -562.923603 
L 260.2382 -562.151083 
L 277.9443 -568.206603 
L 295.6504 -566.255011 
L 313.3565 -562.890184 
L 331.0626 -563.236328 
L 348.7687 -566.178288 
L 366.4748 -563.558783 
L 384.1809 -563.253201 
L 401.887 -564.925161 
L 419.5931 -568.266106 
L 437.2992 -570.229722 
L 455.0053 -573.581895 
L 472.7114 -576.945495 
L 490.4175 -575.737195 
L 508.1236 -584.636135 
L 525.8297 -586.379018 
L 543.5358 -587.955209 
L 561.2419 -589.982372 
L 578.948 -590.215747 
L 596.6541 -590.128072 
L 614.3602 -590.878255 
L 632.0663 -591.143044 
L 649.7724 -590.368137 
L 667.4785 -590.555113 
L 685.1846 -590.548156 
L 702.8907 -590.354338 
L 720.5968 -591.089393 
L 738.3029 -591.537159 
L 756.009 -589.898066 
L 773.7151 -588.585107 
L 791.4212 -587.734855 
L 809.1273 -589.323296 
L 826.8334 -585.18824 
L 844.5395 -588.669859 
L 862.2456 -590.23888 
L 879.9517 -588.427431 
L 897.6578 -587.740981 
L 915.3639 -587.916363 
L 933.07 -589.991393 
L 933.07 -622.732976 
L 933.07 -622.732976 
L 915.3639 -622.497902 
L 897.6578 -622.436965 
L 879.9517 -623.216302 
L 862.2456 -622.038005 
L 844.5395 -621.988143 
L 826.8334 -621.378123 
L 809.1273 -623.022197 
L 791.4212 -622.969242 
L 773.7151 -621.584645 
L 756.009 -622.348228 
L 738.3029 -621.98771 
L 720.5968 -621.838901 
L 702.8907 -620.806872 
L 685.1846 -620.620437 
L 667.4785 -620.519364 
L 649.7724 -621.273072 
L 632.0663 -620.439397 
L 614.3602 -620.471119 
L 596.6541 -620.200655 
L 578.948 -620.331566 
L 561.2419 -620.059047 
L 543.5358 -619.489302 
L 525.8297 -619.603674 
L 508.1236 -618.793632 
L 490.4175 -616.391747 
L 472.7114 -616.121292 
L 455.0053 -615.717299 
L 437.2992 -613.959692 
L 419.5931 -612.255702 
L 401.887 -611.115909 
L 384.1809 -611.562606 
L 366.4748 -611.181738 
L 348.7687 -612.734262 
L 331.0626 -609.833402 
L 313.3565 -609.292941 
L 295.6504 -608.936527 
L 277.9443 -609.165942 
L 260.2382 -607.450357 
L 242.5321 -607.709799 
L 224.826 -607.805908 
L 207.1199 -607.63897 
L 189.4138 -606.540681 
L 171.7077 -605.997603 
L 154.0016 -607.341768 
L 136.2955 -606.895869 
L 118.5894 -605.987598 
L 100.8833 -605.885315 
L 83.1772 -605.356359 
L 65.4711 -606.571502 
L 47.765 -604.595552 
z
" style="stroke: #bcbd22; stroke-opacity: 0.2"/>
    </defs>
    <g clip-path="url(#p879af05da2)">
     <use xlink:href="#mf0a3357ecb" x="0" y="648" style="fill: #bcbd22; fill-opacity: 0.2; stroke: #bcbd22; stroke-opacity: 0.2"/>
    </g>
   </g>
   <g id="PolyCollection_10">
    <defs>
     <path id="mcf1aecdabb" d="M 47.765 -603.727407 
L 47.765 -557.161017 
L 65.4711 -557.248441 
L 83.1772 -556.723733 
L 100.8833 -558.228967 
L 118.5894 -555.932089 
L 136.2955 -556.96061 
L 154.0016 -559.974452 
L 171.7077 -561.523026 
L 189.4138 -561.748246 
L 207.1199 -563.801991 
L 224.826 -567.607899 
L 242.5321 -564.208613 
L 260.2382 -573.180107 
L 277.9443 -573.104067 
L 295.6504 -572.960004 
L 313.3565 -573.446188 
L 331.0626 -574.144896 
L 348.7687 -574.291999 
L 366.4748 -571.608697 
L 384.1809 -569.368885 
L 401.887 -570.711685 
L 419.5931 -571.000103 
L 437.2992 -570.530606 
L 455.0053 -572.030496 
L 472.7114 -577.112812 
L 490.4175 -574.802547 
L 508.1236 -573.982949 
L 525.8297 -570.175407 
L 543.5358 -572.341539 
L 561.2419 -575.575387 
L 578.948 -575.53043 
L 596.6541 -581.955519 
L 614.3602 -584.350135 
L 632.0663 -587.437967 
L 649.7724 -588.639218 
L 667.4785 -588.765928 
L 685.1846 -585.540138 
L 702.8907 -584.529822 
L 720.5968 -586.080331 
L 738.3029 -588.721558 
L 756.009 -587.691629 
L 773.7151 -587.764998 
L 791.4212 -586.837113 
L 809.1273 -585.947975 
L 826.8334 -588.102978 
L 844.5395 -590.581164 
L 862.2456 -588.186395 
L 879.9517 -589.432053 
L 897.6578 -588.201394 
L 915.3639 -587.060914 
L 933.07 -588.420165 
L 933.07 -620.806896 
L 933.07 -620.806896 
L 915.3639 -621.693017 
L 897.6578 -620.640548 
L 879.9517 -620.743717 
L 862.2456 -621.042687 
L 844.5395 -622.00457 
L 826.8334 -621.276057 
L 809.1273 -620.516244 
L 791.4212 -620.58175 
L 773.7151 -620.827023 
L 756.009 -620.926516 
L 738.3029 -621.026352 
L 720.5968 -620.594667 
L 702.8907 -620.377444 
L 685.1846 -620.134759 
L 667.4785 -620.357963 
L 649.7724 -620.157564 
L 632.0663 -619.907168 
L 614.3602 -619.518699 
L 596.6541 -618.305414 
L 578.948 -618.312538 
L 561.2419 -618.273139 
L 543.5358 -617.070181 
L 525.8297 -615.509529 
L 508.1236 -614.763526 
L 490.4175 -614.67231 
L 472.7114 -615.314392 
L 455.0053 -615.511981 
L 437.2992 -613.96703 
L 419.5931 -613.998063 
L 401.887 -614.526073 
L 384.1809 -614.294342 
L 366.4748 -613.2183 
L 348.7687 -613.597874 
L 331.0626 -612.22266 
L 313.3565 -611.668986 
L 295.6504 -610.441428 
L 277.9443 -610.626981 
L 260.2382 -610.492515 
L 242.5321 -609.807396 
L 224.826 -608.630866 
L 207.1199 -606.206734 
L 189.4138 -604.322525 
L 171.7077 -604.309097 
L 154.0016 -604.127359 
L 136.2955 -605.044129 
L 118.5894 -604.725848 
L 100.8833 -605.176563 
L 83.1772 -604.940305 
L 65.4711 -603.046698 
L 47.765 -603.727407 
z
" style="stroke: #17becf; stroke-opacity: 0.2"/>
    </defs>
    <g clip-path="url(#p879af05da2)">
     <use xlink:href="#mcf1aecdabb" x="0" y="648" style="fill: #17becf; fill-opacity: 0.2; stroke: #17becf; stroke-opacity: 0.2"/>
    </g>
   </g>
   <g id="PolyCollection_11">
    <defs>
     <path id="m3a4e586a10" d="M 47.765 -525.521123 
L 47.765 -475.232599 
L 65.4711 -478.697146 
L 83.1772 -483.493731 
L 100.8833 -489.757907 
L 118.5894 -493.036846 
L 136.2955 -504.690289 
L 154.0016 -508.124179 
L 171.7077 -510.871994 
L 189.4138 -515.541856 
L 207.1199 -520.604816 
L 224.826 -523.451167 
L 242.5321 -533.51627 
L 260.2382 -536.344309 
L 277.9443 -533.622102 
L 295.6504 -539.245225 
L 313.3565 -538.538687 
L 331.0626 -547.661161 
L 348.7687 -547.818231 
L 366.4748 -548.283958 
L 384.1809 -554.819475 
L 401.887 -550.315124 
L 419.5931 -553.717327 
L 437.2992 -564.105093 
L 455.0053 -567.969235 
L 472.7114 -567.380962 
L 490.4175 -569.15405 
L 508.1236 -568.229514 
L 525.8297 -571.208171 
L 543.5358 -571.621808 
L 561.2419 -570.551023 
L 578.948 -572.169355 
L 596.6541 -574.495094 
L 614.3602 -572.815239 
L 632.0663 -573.893084 
L 649.7724 -575.212701 
L 667.4785 -569.109457 
L 685.1846 -568.561686 
L 702.8907 -568.775813 
L 720.5968 -568.86898 
L 738.3029 -567.222348 
L 756.009 -572.585702 
L 773.7151 -576.094925 
L 791.4212 -578.314415 
L 809.1273 -578.425085 
L 826.8334 -581.783195 
L 844.5395 -582.002236 
L 862.2456 -583.35536 
L 879.9517 -584.535453 
L 897.6578 -586.446814 
L 915.3639 -585.929637 
L 933.07 -587.359014 
L 933.07 -622.102429 
L 933.07 -622.102429 
L 915.3639 -621.812206 
L 897.6578 -622.396091 
L 879.9517 -621.444434 
L 862.2456 -620.54956 
L 844.5395 -619.789253 
L 826.8334 -619.043942 
L 809.1273 -618.057962 
L 791.4212 -618.419622 
L 773.7151 -616.050634 
L 756.009 -614.812379 
L 738.3029 -613.252095 
L 720.5968 -613.421645 
L 702.8907 -613.688687 
L 685.1846 -613.875994 
L 667.4785 -614.17025 
L 649.7724 -615.706679 
L 632.0663 -615.246911 
L 614.3602 -615.206732 
L 596.6541 -615.546565 
L 578.948 -614.285944 
L 561.2419 -614.972647 
L 543.5358 -614.285274 
L 525.8297 -614.11433 
L 508.1236 -613.444844 
L 490.4175 -612.347253 
L 472.7114 -610.338941 
L 455.0053 -610.140065 
L 437.2992 -610.63314 
L 419.5931 -604.727226 
L 401.887 -601.919168 
L 384.1809 -600.081118 
L 366.4748 -598.32231 
L 348.7687 -594.661546 
L 331.0626 -593.368849 
L 313.3565 -589.958169 
L 295.6504 -588.036423 
L 277.9443 -587.998027 
L 260.2382 -584.705348 
L 242.5321 -584.153886 
L 224.826 -576.955993 
L 207.1199 -576.36041 
L 189.4138 -569.640669 
L 171.7077 -567.756752 
L 154.0016 -565.530074 
L 136.2955 -560.473579 
L 118.5894 -547.373797 
L 100.8833 -538.992155 
L 83.1772 -536.856523 
L 65.4711 -528.496544 
L 47.765 -525.521123 
z
" style="stroke: #9edae5; stroke-opacity: 0.2"/>
    </defs>
    <g clip-path="url(#p879af05da2)">
     <use xlink:href="#m3a4e586a10" x="0" y="648" style="fill: #9edae5; fill-opacity: 0.2; stroke: #9edae5; stroke-opacity: 0.2"/>
    </g>
   </g>
   <g id="matplotlib.axis_1">
    <g id="xtick_1">
     <g id="line2d_1">
      <defs>
       <path id="m0b0c7e19ca" d="M 0 0 
L 0 3.5 
" style="stroke: #000000; stroke-width: 0.8"/>
      </defs>
      <g>
       <use xlink:href="#m0b0c7e19ca" x="47.765" y="606.04" style="stroke: #000000; stroke-width: 0.8"/>
      </g>
     </g>
     <g id="text_1">
      <!-- 30 -->
      <g transform="translate(41.4025 620.638438) scale(0.1 -0.1)">
       <defs>
        <path id="DejaVuSans-33" d="M 2597 2516 
Q 3050 2419 3304 2112 
Q 3559 1806 3559 1356 
Q 3559 666 3084 287 
Q 2609 -91 1734 -91 
Q 1441 -91 1130 -33 
Q 819 25 488 141 
L 488 750 
Q 750 597 1062 519 
Q 1375 441 1716 441 
Q 2309 441 2620 675 
Q 2931 909 2931 1356 
Q 2931 1769 2642 2001 
Q 2353 2234 1838 2234 
L 1294 2234 
L 1294 2753 
L 1863 2753 
Q 2328 2753 2575 2939 
Q 2822 3125 2822 3475 
Q 2822 3834 2567 4026 
Q 2313 4219 1838 4219 
Q 1578 4219 1281 4162 
Q 984 4106 628 3988 
L 628 4550 
Q 988 4650 1302 4700 
Q 1616 4750 1894 4750 
Q 2613 4750 3031 4423 
Q 3450 4097 3450 3541 
Q 3450 3153 3228 2886 
Q 3006 2619 2597 2516 
z
" transform="scale(0.015625)"/>
        <path id="DejaVuSans-30" d="M 2034 4250 
Q 1547 4250 1301 3770 
Q 1056 3291 1056 2328 
Q 1056 1369 1301 889 
Q 1547 409 2034 409 
Q 2525 409 2770 889 
Q 3016 1369 3016 2328 
Q 3016 3291 2770 3770 
Q 2525 4250 2034 4250 
z
M 2034 4750 
Q 2819 4750 3233 4129 
Q 3647 3509 3647 2328 
Q 3647 1150 3233 529 
Q 2819 -91 2034 -91 
Q 1250 -91 836 529 
Q 422 1150 422 2328 
Q 422 3509 836 4129 
Q 1250 4750 2034 4750 
z
" transform="scale(0.015625)"/>
       </defs>
       <use xlink:href="#DejaVuSans-33"/>
       <use xlink:href="#DejaVuSans-30" x="63.623047"/>
      </g>
     </g>
    </g>
    <g id="xtick_2">
     <g id="line2d_2">
      <g>
       <use xlink:href="#m0b0c7e19ca" x="224.826" y="606.04" style="stroke: #000000; stroke-width: 0.8"/>
      </g>
     </g>
     <g id="text_2">
      <!-- 40 -->
      <g transform="translate(218.4635 620.638438) scale(0.1 -0.1)">
       <defs>
        <path id="DejaVuSans-34" d="M 2419 4116 
L 825 1625 
L 2419 1625 
L 2419 4116 
z
M 2253 4666 
L 3047 4666 
L 3047 1625 
L 3713 1625 
L 3713 1100 
L 3047 1100 
L 3047 0 
L 2419 0 
L 2419 1100 
L 313 1100 
L 313 1709 
L 2253 4666 
z
" transform="scale(0.015625)"/>
       </defs>
       <use xlink:href="#DejaVuSans-34"/>
       <use xlink:href="#DejaVuSans-30" x="63.623047"/>
      </g>
     </g>
    </g>
    <g id="xtick_3">
     <g id="line2d_3">
      <g>
       <use xlink:href="#m0b0c7e19ca" x="401.887" y="606.04" style="stroke: #000000; stroke-width: 0.8"/>
      </g>
     </g>
     <g id="text_3">
      <!-- 50 -->
      <g transform="translate(395.5245 620.638438) scale(0.1 -0.1)">
       <defs>
        <path id="DejaVuSans-35" d="M 691 4666 
L 3169 4666 
L 3169 4134 
L 1269 4134 
L 1269 2991 
Q 1406 3038 1543 3061 
Q 1681 3084 1819 3084 
Q 2600 3084 3056 2656 
Q 3513 2228 3513 1497 
Q 3513 744 3044 326 
Q 2575 -91 1722 -91 
Q 1428 -91 1123 -41 
Q 819 9 494 109 
L 494 744 
Q 775 591 1075 516 
Q 1375 441 1709 441 
Q 2250 441 2565 725 
Q 2881 1009 2881 1497 
Q 2881 1984 2565 2268 
Q 2250 2553 1709 2553 
Q 1456 2553 1204 2497 
Q 953 2441 691 2322 
L 691 4666 
z
" transform="scale(0.015625)"/>
       </defs>
       <use xlink:href="#DejaVuSans-35"/>
       <use xlink:href="#DejaVuSans-30" x="63.623047"/>
      </g>
     </g>
    </g>
    <g id="xtick_4">
     <g id="line2d_4">
      <g>
       <use xlink:href="#m0b0c7e19ca" x="578.948" y="606.04" style="stroke: #000000; stroke-width: 0.8"/>
      </g>
     </g>
     <g id="text_4">
      <!-- 60 -->
      <g transform="translate(572.5855 620.638438) scale(0.1 -0.1)">
       <defs>
        <path id="DejaVuSans-36" d="M 2113 2584 
Q 1688 2584 1439 2293 
Q 1191 2003 1191 1497 
Q 1191 994 1439 701 
Q 1688 409 2113 409 
Q 2538 409 2786 701 
Q 3034 994 3034 1497 
Q 3034 2003 2786 2293 
Q 2538 2584 2113 2584 
z
M 3366 4563 
L 3366 3988 
Q 3128 4100 2886 4159 
Q 2644 4219 2406 4219 
Q 1781 4219 1451 3797 
Q 1122 3375 1075 2522 
Q 1259 2794 1537 2939 
Q 1816 3084 2150 3084 
Q 2853 3084 3261 2657 
Q 3669 2231 3669 1497 
Q 3669 778 3244 343 
Q 2819 -91 2113 -91 
Q 1303 -91 875 529 
Q 447 1150 447 2328 
Q 447 3434 972 4092 
Q 1497 4750 2381 4750 
Q 2619 4750 2861 4703 
Q 3103 4656 3366 4563 
z
" transform="scale(0.015625)"/>
       </defs>
       <use xlink:href="#DejaVuSans-36"/>
       <use xlink:href="#DejaVuSans-30" x="63.623047"/>
      </g>
     </g>
    </g>
    <g id="xtick_5">
     <g id="line2d_5">
      <g>
       <use xlink:href="#m0b0c7e19ca" x="756.009" y="606.04" style="stroke: #000000; stroke-width: 0.8"/>
      </g>
     </g>
     <g id="text_5">
      <!-- 70 -->
      <g transform="translate(749.6465 620.638438) scale(0.1 -0.1)">
       <defs>
        <path id="DejaVuSans-37" d="M 525 4666 
L 3525 4666 
L 3525 4397 
L 1831 0 
L 1172 0 
L 2766 4134 
L 525 4134 
L 525 4666 
z
" transform="scale(0.015625)"/>
       </defs>
       <use xlink:href="#DejaVuSans-37"/>
       <use xlink:href="#DejaVuSans-30" x="63.623047"/>
      </g>
     </g>
    </g>
    <g id="xtick_6">
     <g id="line2d_6">
      <g>
       <use xlink:href="#m0b0c7e19ca" x="933.07" y="606.04" style="stroke: #000000; stroke-width: 0.8"/>
      </g>
     </g>
     <g id="text_6">
      <!-- 80 -->
      <g transform="translate(926.7075 620.638438) scale(0.1 -0.1)">
       <defs>
        <path id="DejaVuSans-38" d="M 2034 2216 
Q 1584 2216 1326 1975 
Q 1069 1734 1069 1313 
Q 1069 891 1326 650 
Q 1584 409 2034 409 
Q 2484 409 2743 651 
Q 3003 894 3003 1313 
Q 3003 1734 2745 1975 
Q 2488 2216 2034 2216 
z
M 1403 2484 
Q 997 2584 770 2862 
Q 544 3141 544 3541 
Q 544 4100 942 4425 
Q 1341 4750 2034 4750 
Q 2731 4750 3128 4425 
Q 3525 4100 3525 3541 
Q 3525 3141 3298 2862 
Q 3072 2584 2669 2484 
Q 3125 2378 3379 2068 
Q 3634 1759 3634 1313 
Q 3634 634 3220 271 
Q 2806 -91 2034 -91 
Q 1263 -91 848 271 
Q 434 634 434 1313 
Q 434 1759 690 2068 
Q 947 2378 1403 2484 
z
M 1172 3481 
Q 1172 3119 1398 2916 
Q 1625 2713 2034 2713 
Q 2441 2713 2670 2916 
Q 2900 3119 2900 3481 
Q 2900 3844 2670 4047 
Q 2441 4250 2034 4250 
Q 1625 4250 1398 4047 
Q 1172 3844 1172 3481 
z
" transform="scale(0.015625)"/>
       </defs>
       <use xlink:href="#DejaVuSans-38"/>
       <use xlink:href="#DejaVuSans-30" x="63.623047"/>
      </g>
     </g>
    </g>
    <g id="text_7">
     <!-- Number of Baits -->
     <g transform="translate(449.885469 634.316563) scale(0.1 -0.1)">
      <defs>
       <path id="DejaVuSans-4e" d="M 628 4666 
L 1478 4666 
L 3547 763 
L 3547 4666 
L 4159 4666 
L 4159 0 
L 3309 0 
L 1241 3903 
L 1241 0 
L 628 0 
L 628 4666 
z
" transform="scale(0.015625)"/>
       <path id="DejaVuSans-75" d="M 544 1381 
L 544 3500 
L 1119 3500 
L 1119 1403 
Q 1119 906 1312 657 
Q 1506 409 1894 409 
Q 2359 409 2629 706 
Q 2900 1003 2900 1516 
L 2900 3500 
L 3475 3500 
L 3475 0 
L 2900 0 
L 2900 538 
Q 2691 219 2414 64 
Q 2138 -91 1772 -91 
Q 1169 -91 856 284 
Q 544 659 544 1381 
z
M 1991 3584 
L 1991 3584 
z
" transform="scale(0.015625)"/>
       <path id="DejaVuSans-6d" d="M 3328 2828 
Q 3544 3216 3844 3400 
Q 4144 3584 4550 3584 
Q 5097 3584 5394 3201 
Q 5691 2819 5691 2113 
L 5691 0 
L 5113 0 
L 5113 2094 
Q 5113 2597 4934 2840 
Q 4756 3084 4391 3084 
Q 3944 3084 3684 2787 
Q 3425 2491 3425 1978 
L 3425 0 
L 2847 0 
L 2847 2094 
Q 2847 2600 2669 2842 
Q 2491 3084 2119 3084 
Q 1678 3084 1418 2786 
Q 1159 2488 1159 1978 
L 1159 0 
L 581 0 
L 581 3500 
L 1159 3500 
L 1159 2956 
Q 1356 3278 1631 3431 
Q 1906 3584 2284 3584 
Q 2666 3584 2933 3390 
Q 3200 3197 3328 2828 
z
" transform="scale(0.015625)"/>
       <path id="DejaVuSans-62" d="M 3116 1747 
Q 3116 2381 2855 2742 
Q 2594 3103 2138 3103 
Q 1681 3103 1420 2742 
Q 1159 2381 1159 1747 
Q 1159 1113 1420 752 
Q 1681 391 2138 391 
Q 2594 391 2855 752 
Q 3116 1113 3116 1747 
z
M 1159 2969 
Q 1341 3281 1617 3432 
Q 1894 3584 2278 3584 
Q 2916 3584 3314 3078 
Q 3713 2572 3713 1747 
Q 3713 922 3314 415 
Q 2916 -91 2278 -91 
Q 1894 -91 1617 61 
Q 1341 213 1159 525 
L 1159 0 
L 581 0 
L 581 4863 
L 1159 4863 
L 1159 2969 
z
" transform="scale(0.015625)"/>
       <path id="DejaVuSans-65" d="M 3597 1894 
L 3597 1613 
L 953 1613 
Q 991 1019 1311 708 
Q 1631 397 2203 397 
Q 2534 397 2845 478 
Q 3156 559 3463 722 
L 3463 178 
Q 3153 47 2828 -22 
Q 2503 -91 2169 -91 
Q 1331 -91 842 396 
Q 353 884 353 1716 
Q 353 2575 817 3079 
Q 1281 3584 2069 3584 
Q 2775 3584 3186 3129 
Q 3597 2675 3597 1894 
z
M 3022 2063 
Q 3016 2534 2758 2815 
Q 2500 3097 2075 3097 
Q 1594 3097 1305 2825 
Q 1016 2553 972 2059 
L 3022 2063 
z
" transform="scale(0.015625)"/>
       <path id="DejaVuSans-72" d="M 2631 2963 
Q 2534 3019 2420 3045 
Q 2306 3072 2169 3072 
Q 1681 3072 1420 2755 
Q 1159 2438 1159 1844 
L 1159 0 
L 581 0 
L 581 3500 
L 1159 3500 
L 1159 2956 
Q 1341 3275 1631 3429 
Q 1922 3584 2338 3584 
Q 2397 3584 2469 3576 
Q 2541 3569 2628 3553 
L 2631 2963 
z
" transform="scale(0.015625)"/>
       <path id="DejaVuSans-20" transform="scale(0.015625)"/>
       <path id="DejaVuSans-6f" d="M 1959 3097 
Q 1497 3097 1228 2736 
Q 959 2375 959 1747 
Q 959 1119 1226 758 
Q 1494 397 1959 397 
Q 2419 397 2687 759 
Q 2956 1122 2956 1747 
Q 2956 2369 2687 2733 
Q 2419 3097 1959 3097 
z
M 1959 3584 
Q 2709 3584 3137 3096 
Q 3566 2609 3566 1747 
Q 3566 888 3137 398 
Q 2709 -91 1959 -91 
Q 1206 -91 779 398 
Q 353 888 353 1747 
Q 353 2609 779 3096 
Q 1206 3584 1959 3584 
z
" transform="scale(0.015625)"/>
       <path id="DejaVuSans-66" d="M 2375 4863 
L 2375 4384 
L 1825 4384 
Q 1516 4384 1395 4259 
Q 1275 4134 1275 3809 
L 1275 3500 
L 2222 3500 
L 2222 3053 
L 1275 3053 
L 1275 0 
L 697 0 
L 697 3053 
L 147 3053 
L 147 3500 
L 697 3500 
L 697 3744 
Q 697 4328 969 4595 
Q 1241 4863 1831 4863 
L 2375 4863 
z
" transform="scale(0.015625)"/>
       <path id="DejaVuSans-42" d="M 1259 2228 
L 1259 519 
L 2272 519 
Q 2781 519 3026 730 
Q 3272 941 3272 1375 
Q 3272 1813 3026 2020 
Q 2781 2228 2272 2228 
L 1259 2228 
z
M 1259 4147 
L 1259 2741 
L 2194 2741 
Q 2656 2741 2882 2914 
Q 3109 3088 3109 3444 
Q 3109 3797 2882 3972 
Q 2656 4147 2194 4147 
L 1259 4147 
z
M 628 4666 
L 2241 4666 
Q 2963 4666 3353 4366 
Q 3744 4066 3744 3513 
Q 3744 3084 3544 2831 
Q 3344 2578 2956 2516 
Q 3422 2416 3680 2098 
Q 3938 1781 3938 1306 
Q 3938 681 3513 340 
Q 3088 0 2303 0 
L 628 0 
L 628 4666 
z
" transform="scale(0.015625)"/>
       <path id="DejaVuSans-61" d="M 2194 1759 
Q 1497 1759 1228 1600 
Q 959 1441 959 1056 
Q 959 750 1161 570 
Q 1363 391 1709 391 
Q 2188 391 2477 730 
Q 2766 1069 2766 1631 
L 2766 1759 
L 2194 1759 
z
M 3341 1997 
L 3341 0 
L 2766 0 
L 2766 531 
Q 2569 213 2275 61 
Q 1981 -91 1556 -91 
Q 1019 -91 701 211 
Q 384 513 384 1019 
Q 384 1609 779 1909 
Q 1175 2209 1959 2209 
L 2766 2209 
L 2766 2266 
Q 2766 2663 2505 2880 
Q 2244 3097 1772 3097 
Q 1472 3097 1187 3025 
Q 903 2953 641 2809 
L 641 3341 
Q 956 3463 1253 3523 
Q 1550 3584 1831 3584 
Q 2591 3584 2966 3190 
Q 3341 2797 3341 1997 
z
" transform="scale(0.015625)"/>
       <path id="DejaVuSans-69" d="M 603 3500 
L 1178 3500 
L 1178 0 
L 603 0 
L 603 3500 
z
M 603 4863 
L 1178 4863 
L 1178 4134 
L 603 4134 
L 603 4863 
z
" transform="scale(0.015625)"/>
       <path id="DejaVuSans-74" d="M 1172 4494 
L 1172 3500 
L 2356 3500 
L 2356 3053 
L 1172 3053 
L 1172 1153 
Q 1172 725 1289 603 
Q 1406 481 1766 481 
L 2356 481 
L 2356 0 
L 1766 0 
Q 1100 0 847 248 
Q 594 497 594 1153 
L 594 3053 
L 172 3053 
L 172 3500 
L 594 3500 
L 594 4494 
L 1172 4494 
z
" transform="scale(0.015625)"/>
       <path id="DejaVuSans-73" d="M 2834 3397 
L 2834 2853 
Q 2591 2978 2328 3040 
Q 2066 3103 1784 3103 
Q 1356 3103 1142 2972 
Q 928 2841 928 2578 
Q 928 2378 1081 2264 
Q 1234 2150 1697 2047 
L 1894 2003 
Q 2506 1872 2764 1633 
Q 3022 1394 3022 966 
Q 3022 478 2636 193 
Q 2250 -91 1575 -91 
Q 1294 -91 989 -36 
Q 684 19 347 128 
L 347 722 
Q 666 556 975 473 
Q 1284 391 1588 391 
Q 1994 391 2212 530 
Q 2431 669 2431 922 
Q 2431 1156 2273 1281 
Q 2116 1406 1581 1522 
L 1381 1569 
Q 847 1681 609 1914 
Q 372 2147 372 2553 
Q 372 3047 722 3315 
Q 1072 3584 1716 3584 
Q 2034 3584 2315 3537 
Q 2597 3491 2834 3397 
z
" transform="scale(0.015625)"/>
      </defs>
      <use xlink:href="#DejaVuSans-4e"/>
      <use xlink:href="#DejaVuSans-75" x="74.804688"/>
      <use xlink:href="#DejaVuSans-6d" x="138.183594"/>
      <use xlink:href="#DejaVuSans-62" x="235.595703"/>
      <use xlink:href="#DejaVuSans-65" x="299.072266"/>
      <use xlink:href="#DejaVuSans-72" x="360.595703"/>
      <use xlink:href="#DejaVuSans-20" x="401.708984"/>
      <use xlink:href="#DejaVuSans-6f" x="433.496094"/>
      <use xlink:href="#DejaVuSans-66" x="494.677734"/>
      <use xlink:href="#DejaVuSans-20" x="529.882812"/>
      <use xlink:href="#DejaVuSans-42" x="561.669922"/>
      <use xlink:href="#DejaVuSans-61" x="630.273438"/>
      <use xlink:href="#DejaVuSans-69" x="691.552734"/>
      <use xlink:href="#DejaVuSans-74" x="719.335938"/>
      <use xlink:href="#DejaVuSans-73" x="758.544922"/>
     </g>
    </g>
   </g>
   <g id="matplotlib.axis_2">
    <g id="ytick_1">
     <g id="line2d_7">
      <defs>
       <path id="m582a10df41" d="M 0 0 
L -3.5 0 
" style="stroke: #000000; stroke-width: 0.8"/>
      </defs>
      <g>
       <use xlink:href="#m582a10df41" x="47.765" y="606.04" style="stroke: #000000; stroke-width: 0.8"/>
      </g>
     </g>
     <g id="text_8">
      <!-- 0.0 -->
      <g transform="translate(24.861875 609.839219) scale(0.1 -0.1)">
       <defs>
        <path id="DejaVuSans-2e" d="M 684 794 
L 1344 794 
L 1344 0 
L 684 0 
L 684 794 
z
" transform="scale(0.015625)"/>
       </defs>
       <use xlink:href="#DejaVuSans-30"/>
       <use xlink:href="#DejaVuSans-2e" x="63.623047"/>
       <use xlink:href="#DejaVuSans-30" x="95.410156"/>
      </g>
     </g>
    </g>
    <g id="ytick_2">
     <g id="line2d_8">
      <g>
       <use xlink:href="#m582a10df41" x="47.765" y="490.9816" style="stroke: #000000; stroke-width: 0.8"/>
      </g>
     </g>
     <g id="text_9">
      <!-- 0.2 -->
      <g transform="translate(24.861875 494.780819) scale(0.1 -0.1)">
       <defs>
        <path id="DejaVuSans-32" d="M 1228 531 
L 3431 531 
L 3431 0 
L 469 0 
L 469 531 
Q 828 903 1448 1529 
Q 2069 2156 2228 2338 
Q 2531 2678 2651 2914 
Q 2772 3150 2772 3378 
Q 2772 3750 2511 3984 
Q 2250 4219 1831 4219 
Q 1534 4219 1204 4116 
Q 875 4013 500 3803 
L 500 4441 
Q 881 4594 1212 4672 
Q 1544 4750 1819 4750 
Q 2544 4750 2975 4387 
Q 3406 4025 3406 3419 
Q 3406 3131 3298 2873 
Q 3191 2616 2906 2266 
Q 2828 2175 2409 1742 
Q 1991 1309 1228 531 
z
" transform="scale(0.015625)"/>
       </defs>
       <use xlink:href="#DejaVuSans-30"/>
       <use xlink:href="#DejaVuSans-2e" x="63.623047"/>
       <use xlink:href="#DejaVuSans-32" x="95.410156"/>
      </g>
     </g>
    </g>
    <g id="ytick_3">
     <g id="line2d_9">
      <g>
       <use xlink:href="#m582a10df41" x="47.765" y="375.9232" style="stroke: #000000; stroke-width: 0.8"/>
      </g>
     </g>
     <g id="text_10">
      <!-- 0.4 -->
      <g transform="translate(24.861875 379.722419) scale(0.1 -0.1)">
       <use xlink:href="#DejaVuSans-30"/>
       <use xlink:href="#DejaVuSans-2e" x="63.623047"/>
       <use xlink:href="#DejaVuSans-34" x="95.410156"/>
      </g>
     </g>
    </g>
    <g id="ytick_4">
     <g id="line2d_10">
      <g>
       <use xlink:href="#m582a10df41" x="47.765" y="260.8648" style="stroke: #000000; stroke-width: 0.8"/>
      </g>
     </g>
     <g id="text_11">
      <!-- 0.6 -->
      <g transform="translate(24.861875 264.664019) scale(0.1 -0.1)">
       <use xlink:href="#DejaVuSans-30"/>
       <use xlink:href="#DejaVuSans-2e" x="63.623047"/>
       <use xlink:href="#DejaVuSans-36" x="95.410156"/>
      </g>
     </g>
    </g>
    <g id="ytick_5">
     <g id="line2d_11">
      <g>
       <use xlink:href="#m582a10df41" x="47.765" y="145.8064" style="stroke: #000000; stroke-width: 0.8"/>
      </g>
     </g>
     <g id="text_12">
      <!-- 0.8 -->
      <g transform="translate(24.861875 149.605619) scale(0.1 -0.1)">
       <use xlink:href="#DejaVuSans-30"/>
       <use xlink:href="#DejaVuSans-2e" x="63.623047"/>
       <use xlink:href="#DejaVuSans-38" x="95.410156"/>
      </g>
     </g>
    </g>
    <g id="ytick_6">
     <g id="line2d_12">
      <g>
       <use xlink:href="#m582a10df41" x="47.765" y="30.748" style="stroke: #000000; stroke-width: 0.8"/>
      </g>
     </g>
     <g id="text_13">
      <!-- 1.0 -->
      <g transform="translate(24.861875 34.547219) scale(0.1 -0.1)">
       <defs>
        <path id="DejaVuSans-31" d="M 794 531 
L 1825 531 
L 1825 4091 
L 703 3866 
L 703 4441 
L 1819 4666 
L 2450 4666 
L 2450 531 
L 3481 531 
L 3481 0 
L 794 0 
L 794 531 
z
" transform="scale(0.015625)"/>
       </defs>
       <use xlink:href="#DejaVuSans-31"/>
       <use xlink:href="#DejaVuSans-2e" x="63.623047"/>
       <use xlink:href="#DejaVuSans-30" x="95.410156"/>
      </g>
     </g>
    </g>
    <g id="text_14">
     <!-- Aggregated NMF Cos Scores -->
     <g transform="translate(18.782187 389.091656) rotate(-90) scale(0.1 -0.1)">
      <defs>
       <path id="DejaVuSans-41" d="M 2188 4044 
L 1331 1722 
L 3047 1722 
L 2188 4044 
z
M 1831 4666 
L 2547 4666 
L 4325 0 
L 3669 0 
L 3244 1197 
L 1141 1197 
L 716 0 
L 50 0 
L 1831 4666 
z
" transform="scale(0.015625)"/>
       <path id="DejaVuSans-67" d="M 2906 1791 
Q 2906 2416 2648 2759 
Q 2391 3103 1925 3103 
Q 1463 3103 1205 2759 
Q 947 2416 947 1791 
Q 947 1169 1205 825 
Q 1463 481 1925 481 
Q 2391 481 2648 825 
Q 2906 1169 2906 1791 
z
M 3481 434 
Q 3481 -459 3084 -895 
Q 2688 -1331 1869 -1331 
Q 1566 -1331 1297 -1286 
Q 1028 -1241 775 -1147 
L 775 -588 
Q 1028 -725 1275 -790 
Q 1522 -856 1778 -856 
Q 2344 -856 2625 -561 
Q 2906 -266 2906 331 
L 2906 616 
Q 2728 306 2450 153 
Q 2172 0 1784 0 
Q 1141 0 747 490 
Q 353 981 353 1791 
Q 353 2603 747 3093 
Q 1141 3584 1784 3584 
Q 2172 3584 2450 3431 
Q 2728 3278 2906 2969 
L 2906 3500 
L 3481 3500 
L 3481 434 
z
" transform="scale(0.015625)"/>
       <path id="DejaVuSans-64" d="M 2906 2969 
L 2906 4863 
L 3481 4863 
L 3481 0 
L 2906 0 
L 2906 525 
Q 2725 213 2448 61 
Q 2172 -91 1784 -91 
Q 1150 -91 751 415 
Q 353 922 353 1747 
Q 353 2572 751 3078 
Q 1150 3584 1784 3584 
Q 2172 3584 2448 3432 
Q 2725 3281 2906 2969 
z
M 947 1747 
Q 947 1113 1208 752 
Q 1469 391 1925 391 
Q 2381 391 2643 752 
Q 2906 1113 2906 1747 
Q 2906 2381 2643 2742 
Q 2381 3103 1925 3103 
Q 1469 3103 1208 2742 
Q 947 2381 947 1747 
z
" transform="scale(0.015625)"/>
       <path id="DejaVuSans-4d" d="M 628 4666 
L 1569 4666 
L 2759 1491 
L 3956 4666 
L 4897 4666 
L 4897 0 
L 4281 0 
L 4281 4097 
L 3078 897 
L 2444 897 
L 1241 4097 
L 1241 0 
L 628 0 
L 628 4666 
z
" transform="scale(0.015625)"/>
       <path id="DejaVuSans-46" d="M 628 4666 
L 3309 4666 
L 3309 4134 
L 1259 4134 
L 1259 2759 
L 3109 2759 
L 3109 2228 
L 1259 2228 
L 1259 0 
L 628 0 
L 628 4666 
z
" transform="scale(0.015625)"/>
       <path id="DejaVuSans-43" d="M 4122 4306 
L 4122 3641 
Q 3803 3938 3442 4084 
Q 3081 4231 2675 4231 
Q 1875 4231 1450 3742 
Q 1025 3253 1025 2328 
Q 1025 1406 1450 917 
Q 1875 428 2675 428 
Q 3081 428 3442 575 
Q 3803 722 4122 1019 
L 4122 359 
Q 3791 134 3420 21 
Q 3050 -91 2638 -91 
Q 1578 -91 968 557 
Q 359 1206 359 2328 
Q 359 3453 968 4101 
Q 1578 4750 2638 4750 
Q 3056 4750 3426 4639 
Q 3797 4528 4122 4306 
z
" transform="scale(0.015625)"/>
       <path id="DejaVuSans-53" d="M 3425 4513 
L 3425 3897 
Q 3066 4069 2747 4153 
Q 2428 4238 2131 4238 
Q 1616 4238 1336 4038 
Q 1056 3838 1056 3469 
Q 1056 3159 1242 3001 
Q 1428 2844 1947 2747 
L 2328 2669 
Q 3034 2534 3370 2195 
Q 3706 1856 3706 1288 
Q 3706 609 3251 259 
Q 2797 -91 1919 -91 
Q 1588 -91 1214 -16 
Q 841 59 441 206 
L 441 856 
Q 825 641 1194 531 
Q 1563 422 1919 422 
Q 2459 422 2753 634 
Q 3047 847 3047 1241 
Q 3047 1584 2836 1778 
Q 2625 1972 2144 2069 
L 1759 2144 
Q 1053 2284 737 2584 
Q 422 2884 422 3419 
Q 422 4038 858 4394 
Q 1294 4750 2059 4750 
Q 2388 4750 2728 4690 
Q 3069 4631 3425 4513 
z
" transform="scale(0.015625)"/>
       <path id="DejaVuSans-63" d="M 3122 3366 
L 3122 2828 
Q 2878 2963 2633 3030 
Q 2388 3097 2138 3097 
Q 1578 3097 1268 2742 
Q 959 2388 959 1747 
Q 959 1106 1268 751 
Q 1578 397 2138 397 
Q 2388 397 2633 464 
Q 2878 531 3122 666 
L 3122 134 
Q 2881 22 2623 -34 
Q 2366 -91 2075 -91 
Q 1284 -91 818 406 
Q 353 903 353 1747 
Q 353 2603 823 3093 
Q 1294 3584 2113 3584 
Q 2378 3584 2631 3529 
Q 2884 3475 3122 3366 
z
" transform="scale(0.015625)"/>
      </defs>
      <use xlink:href="#DejaVuSans-41"/>
      <use xlink:href="#DejaVuSans-67" x="68.408203"/>
      <use xlink:href="#DejaVuSans-67" x="131.884766"/>
      <use xlink:href="#DejaVuSans-72" x="195.361328"/>
      <use xlink:href="#DejaVuSans-65" x="234.224609"/>
      <use xlink:href="#DejaVuSans-67" x="295.748047"/>
      <use xlink:href="#DejaVuSans-61" x="359.224609"/>
      <use xlink:href="#DejaVuSans-74" x="420.503906"/>
      <use xlink:href="#DejaVuSans-65" x="459.712891"/>
      <use xlink:href="#DejaVuSans-64" x="521.236328"/>
      <use xlink:href="#DejaVuSans-20" x="584.712891"/>
      <use xlink:href="#DejaVuSans-4e" x="616.5"/>
      <use xlink:href="#DejaVuSans-4d" x="691.304688"/>
      <use xlink:href="#DejaVuSans-46" x="777.583984"/>
      <use xlink:href="#DejaVuSans-20" x="835.103516"/>
      <use xlink:href="#DejaVuSans-43" x="866.890625"/>
      <use xlink:href="#DejaVuSans-6f" x="936.714844"/>
      <use xlink:href="#DejaVuSans-73" x="997.896484"/>
      <use xlink:href="#DejaVuSans-20" x="1049.996094"/>
      <use xlink:href="#DejaVuSans-53" x="1081.783203"/>
      <use xlink:href="#DejaVuSans-63" x="1145.259766"/>
      <use xlink:href="#DejaVuSans-6f" x="1200.240234"/>
      <use xlink:href="#DejaVuSans-72" x="1261.421875"/>
      <use xlink:href="#DejaVuSans-65" x="1300.285156"/>
      <use xlink:href="#DejaVuSans-73" x="1361.808594"/>
     </g>
    </g>
   </g>
   <g id="line2d_13">
    <path d="M 47.765 68.127233 
L 65.4711 66.528063 
L 83.1772 67.05815 
L 100.8833 67.81802 
L 118.5894 67.504681 
L 136.2955 66.521539 
L 154.0016 66.832707 
L 171.7077 66.104008 
L 189.4138 64.0443 
L 207.1199 63.212251 
L 224.826 62.017942 
L 242.5321 62.758068 
L 260.2382 60.211574 
L 277.9443 55.640494 
L 295.6504 57.447655 
L 313.3565 53.933923 
L 331.0626 52.015935 
L 348.7687 52.725625 
L 366.4748 51.893158 
L 384.1809 48.17083 
L 401.887 47.945511 
L 419.5931 46.831737 
L 437.2992 46.157288 
L 455.0053 47.277837 
L 472.7114 47.190199 
L 490.4175 44.455336 
L 508.1236 45.227534 
L 525.8297 44.450235 
L 543.5358 45.882399 
L 561.2419 43.106651 
L 578.948 45.456237 
L 596.6541 42.393865 
L 614.3602 41.234481 
L 632.0663 41.093104 
L 649.7724 45.378204 
L 667.4785 40.68331 
L 685.1846 41.35486 
L 702.8907 39.134839 
L 720.5968 36.892223 
L 738.3029 41.637581 
L 756.009 36.583531 
L 773.7151 38.326506 
L 791.4212 36.145971 
L 809.1273 36.081253 
L 826.8334 35.411377 
L 844.5395 39.516863 
L 862.2456 37.395493 
L 879.9517 37.236396 
L 897.6578 33.135273 
L 915.3639 35.277601 
L 933.07 38.522108 
" clip-path="url(#p879af05da2)" style="fill: none; stroke: #1f77b4; stroke-width: 1.5; stroke-linecap: square"/>
   </g>
   <g id="line2d_14">
    <path d="M 47.765 368.118838 
L 65.4711 336.829276 
L 83.1772 350.896977 
L 100.8833 331.199631 
L 118.5894 350.082667 
L 136.2955 329.974457 
L 154.0016 315.543274 
L 171.7077 318.083159 
L 189.4138 302.233595 
L 207.1199 313.261851 
L 224.826 321.194005 
L 242.5321 304.720897 
L 260.2382 285.034502 
L 277.9443 303.162924 
L 295.6504 274.480711 
L 313.3565 283.027359 
L 331.0626 290.662417 
L 348.7687 286.848125 
L 366.4748 274.763243 
L 384.1809 281.520536 
L 401.887 254.929033 
L 419.5931 258.430606 
L 437.2992 209.604714 
L 455.0053 284.315312 
L 472.7114 256.897741 
L 490.4175 262.235898 
L 508.1236 247.054801 
L 525.8297 243.948895 
L 543.5358 245.752267 
L 561.2419 237.729847 
L 578.948 219.065503 
L 596.6541 244.690387 
L 614.3602 227.077306 
L 632.0663 216.0035 
L 649.7724 204.725878 
L 667.4785 255.901795 
L 685.1846 218.283613 
L 702.8907 244.806596 
L 720.5968 194.328187 
L 738.3029 173.26853 
L 756.009 193.716891 
L 773.7151 225.446042 
L 791.4212 198.868957 
L 809.1273 201.175356 
L 826.8334 205.160368 
L 844.5395 201.357705 
L 862.2456 172.426276 
L 879.9517 181.496623 
L 897.6578 190.342948 
L 915.3639 142.910324 
L 933.07 171.124163 
" clip-path="url(#p879af05da2)" style="fill: none; stroke: #ff7f0e; stroke-width: 1.5; stroke-linecap: square"/>
   </g>
   <g id="line2d_15">
    <path d="M 47.765 64.294057 
L 65.4711 62.014818 
L 83.1772 63.069711 
L 100.8833 61.273654 
L 118.5894 59.135913 
L 136.2955 58.058881 
L 154.0016 57.833901 
L 171.7077 58.873591 
L 189.4138 59.602084 
L 207.1199 58.694556 
L 224.826 59.757048 
L 242.5321 57.466229 
L 260.2382 59.327529 
L 277.9443 59.64132 
L 295.6504 59.975916 
L 313.3565 57.103894 
L 331.0626 55.896243 
L 348.7687 54.987375 
L 366.4748 55.080186 
L 384.1809 55.21391 
L 401.887 54.68275 
L 419.5931 55.00403 
L 437.2992 56.171811 
L 455.0053 54.680943 
L 472.7114 54.015873 
L 490.4175 52.68432 
L 508.1236 53.197353 
L 525.8297 51.693656 
L 543.5358 52.085005 
L 561.2419 51.67879 
L 578.948 52.98464 
L 596.6541 52.009981 
L 614.3602 53.58227 
L 632.0663 52.490438 
L 649.7724 49.792523 
L 667.4785 48.479122 
L 685.1846 50.468151 
L 702.8907 47.449131 
L 720.5968 45.441779 
L 738.3029 46.874483 
L 756.009 47.561227 
L 773.7151 49.901052 
L 791.4212 48.99261 
L 809.1273 47.677451 
L 826.8334 47.671325 
L 844.5395 49.379973 
L 862.2456 48.123392 
L 879.9517 48.232558 
L 897.6578 46.358249 
L 915.3639 49.665137 
L 933.07 47.660477 
" clip-path="url(#p879af05da2)" style="fill: none; stroke: #2ca02c; stroke-width: 1.5; stroke-linecap: square"/>
   </g>
   <g id="line2d_16">
    <path d="M 47.765 65.378854 
L 65.4711 61.137963 
L 83.1772 57.386881 
L 100.8833 57.375425 
L 118.5894 56.598727 
L 136.2955 56.657569 
L 154.0016 58.848388 
L 171.7077 56.96116 
L 189.4138 58.74403 
L 207.1199 55.945962 
L 224.826 56.590818 
L 242.5321 55.03231 
L 260.2382 55.176017 
L 277.9443 51.749774 
L 295.6504 52.790109 
L 313.3565 52.564772 
L 331.0626 51.588288 
L 348.7687 53.882957 
L 366.4748 54.52495 
L 384.1809 52.515757 
L 401.887 53.309323 
L 419.5931 53.492944 
L 437.2992 51.603608 
L 455.0053 50.934639 
L 472.7114 48.182926 
L 490.4175 47.368165 
L 508.1236 48.746171 
L 525.8297 48.109558 
L 543.5358 50.155891 
L 561.2419 47.751751 
L 578.948 47.616503 
L 596.6541 47.073875 
L 614.3602 48.729179 
L 632.0663 47.306757 
L 649.7724 48.516018 
L 667.4785 50.314335 
L 685.1846 47.110948 
L 702.8907 45.776994 
L 720.5968 45.112489 
L 738.3029 39.804194 
L 756.009 41.919114 
L 773.7151 40.238865 
L 791.4212 42.518495 
L 809.1273 41.912753 
L 826.8334 40.213533 
L 844.5395 44.786781 
L 862.2456 45.724808 
L 879.9517 43.586519 
L 897.6578 46.369495 
L 915.3639 44.025673 
L 933.07 41.480743 
" clip-path="url(#p879af05da2)" style="fill: none; stroke: #d62728; stroke-width: 1.5; stroke-linecap: square"/>
   </g>
   <g id="line2d_17">
    <path d="M 47.765 79.233586 
L 65.4711 77.30026 
L 83.1772 72.595449 
L 100.8833 72.965896 
L 118.5894 71.473772 
L 136.2955 71.937375 
L 154.0016 70.22406 
L 171.7077 72.904325 
L 189.4138 70.619544 
L 207.1199 66.590878 
L 224.826 66.086498 
L 242.5321 64.263591 
L 260.2382 63.984124 
L 277.9443 64.753636 
L 295.6504 65.035035 
L 313.3565 63.399151 
L 331.0626 62.454075 
L 348.7687 61.289704 
L 366.4748 58.509215 
L 384.1809 57.528373 
L 401.887 56.096737 
L 419.5931 55.065859 
L 437.2992 54.939033 
L 455.0053 55.462565 
L 472.7114 53.772772 
L 490.4175 53.560561 
L 508.1236 51.731482 
L 525.8297 50.817421 
L 543.5358 51.75332 
L 561.2419 50.675734 
L 578.948 44.839053 
L 596.6541 45.272467 
L 614.3602 46.628966 
L 632.0663 45.888423 
L 649.7724 44.078558 
L 667.4785 43.53959 
L 685.1846 43.300279 
L 702.8907 42.13264 
L 720.5968 42.259117 
L 738.3029 42.683354 
L 756.009 41.234633 
L 773.7151 42.08408 
L 791.4212 44.071669 
L 809.1273 41.205343 
L 826.8334 40.700322 
L 844.5395 41.673325 
L 862.2456 37.949011 
L 879.9517 35.98853 
L 897.6578 35.339269 
L 915.3639 34.917741 
L 933.07 35.82059 
" clip-path="url(#p879af05da2)" style="fill: none; stroke: #9467bd; stroke-width: 1.5; stroke-linecap: square"/>
   </g>
   <g id="line2d_18">
    <path d="M 47.765 74.68186 
L 65.4711 74.333706 
L 83.1772 73.315406 
L 100.8833 72.455029 
L 118.5894 72.980466 
L 136.2955 71.0908 
L 154.0016 68.518188 
L 171.7077 70.67897 
L 189.4138 69.114909 
L 207.1199 67.567308 
L 224.826 64.871487 
L 242.5321 64.492436 
L 260.2382 62.8027 
L 277.9443 63.754589 
L 295.6504 63.232596 
L 313.3565 62.198069 
L 331.0626 60.773209 
L 348.7687 59.562336 
L 366.4748 58.798128 
L 384.1809 58.127023 
L 401.887 57.32998 
L 419.5931 59.626024 
L 437.2992 61.006439 
L 455.0053 58.46004 
L 472.7114 57.62377 
L 490.4175 61.15406 
L 508.1236 59.299703 
L 525.8297 59.723816 
L 543.5358 59.251838 
L 561.2419 55.968371 
L 578.948 54.708282 
L 596.6541 54.530789 
L 614.3602 56.183102 
L 632.0663 53.341959 
L 649.7724 53.091723 
L 667.4785 52.171156 
L 685.1846 47.42996 
L 702.8907 48.733509 
L 720.5968 48.645813 
L 738.3029 47.961639 
L 756.009 46.642089 
L 773.7151 45.175186 
L 791.4212 44.551218 
L 809.1273 44.665936 
L 826.8334 45.038902 
L 844.5395 46.724867 
L 862.2456 47.092313 
L 879.9517 45.595331 
L 897.6578 44.759872 
L 915.3639 43.731896 
L 933.07 42.427849 
" clip-path="url(#p879af05da2)" style="fill: none; stroke: #8c564b; stroke-width: 1.5; stroke-linecap: square"/>
   </g>
   <g id="line2d_19">
    <path d="M 47.765 91.088872 
L 65.4711 89.572027 
L 83.1772 89.045224 
L 100.8833 88.933595 
L 118.5894 87.392968 
L 136.2955 85.471284 
L 154.0016 82.714417 
L 171.7077 80.960253 
L 189.4138 74.387316 
L 207.1199 74.568496 
L 224.826 70.757886 
L 242.5321 68.036131 
L 260.2382 69.155694 
L 277.9443 69.615605 
L 295.6504 67.333101 
L 313.3565 66.160883 
L 331.0626 67.732427 
L 348.7687 62.896116 
L 366.4748 61.793013 
L 384.1809 61.905187 
L 401.887 62.502821 
L 419.5931 57.813192 
L 437.2992 61.819807 
L 455.0053 60.921237 
L 472.7114 60.744325 
L 490.4175 62.295727 
L 508.1236 62.137104 
L 525.8297 59.467411 
L 543.5358 58.099299 
L 561.2419 56.359 
L 578.948 54.703504 
L 596.6541 55.866877 
L 614.3602 54.722098 
L 632.0663 53.034021 
L 649.7724 51.330744 
L 667.4785 49.612045 
L 685.1846 48.02449 
L 702.8907 46.321521 
L 720.5968 44.064398 
L 738.3029 43.183459 
L 756.009 42.915856 
L 773.7151 42.59896 
L 791.4212 42.579275 
L 809.1273 41.763155 
L 826.8334 42.172471 
L 844.5395 42.720518 
L 862.2456 41.902152 
L 879.9517 42.45487 
L 897.6578 43.072735 
L 915.3639 43.21133 
L 933.07 44.138254 
" clip-path="url(#p879af05da2)" style="fill: none; stroke: #e377c2; stroke-width: 1.5; stroke-linecap: square"/>
   </g>
   <g id="line2d_20">
    <path d="M 47.765 86.208665 
L 65.4711 79.612161 
L 83.1772 78.742959 
L 100.8833 74.770188 
L 118.5894 75.498104 
L 136.2955 74.415584 
L 154.0016 74.859645 
L 171.7077 70.793012 
L 189.4138 69.479239 
L 207.1199 69.239003 
L 224.826 70.142693 
L 242.5321 65.283817 
L 260.2382 63.991571 
L 277.9443 63.796741 
L 295.6504 62.683317 
L 313.3565 63.850113 
L 331.0626 62.513144 
L 348.7687 60.291203 
L 366.4748 60.813476 
L 384.1809 63.353178 
L 401.887 63.032283 
L 419.5931 59.796323 
L 437.2992 61.860636 
L 455.0053 60.816098 
L 472.7114 59.808068 
L 490.4175 61.361362 
L 508.1236 60.549989 
L 525.8297 59.795656 
L 543.5358 60.852874 
L 561.2419 59.299804 
L 578.948 55.955162 
L 596.6541 56.189231 
L 614.3602 54.119082 
L 632.0663 53.011207 
L 649.7724 50.594546 
L 667.4785 49.192946 
L 685.1846 49.795662 
L 702.8907 49.5828 
L 720.5968 48.65967 
L 738.3029 49.211017 
L 756.009 47.356687 
L 773.7151 46.421943 
L 791.4212 45.920989 
L 809.1273 44.832783 
L 826.8334 43.922461 
L 844.5395 43.167805 
L 862.2456 42.283255 
L 879.9517 42.375489 
L 897.6578 42.119656 
L 915.3639 43.556712 
L 933.07 44.237254 
" clip-path="url(#p879af05da2)" style="fill: none; stroke: #7f7f7f; stroke-width: 1.5; stroke-linecap: square"/>
   </g>
   <g id="line2d_21">
    <path d="M 47.765 60.301498 
L 65.4711 58.490309 
L 83.1772 59.445025 
L 100.8833 60.650711 
L 118.5894 60.243231 
L 136.2955 62.428471 
L 154.0016 60.926801 
L 171.7077 65.530481 
L 189.4138 63.317246 
L 207.1199 62.485106 
L 224.826 61.728292 
L 242.5321 62.683299 
L 260.2382 63.19928 
L 277.9443 59.313727 
L 295.6504 60.404231 
L 313.3565 61.908438 
L 331.0626 61.465135 
L 348.7687 58.543725 
L 366.4748 60.629739 
L 384.1809 60.592097 
L 401.887 59.979465 
L 419.5931 57.739096 
L 437.2992 55.905293 
L 455.0053 53.350403 
L 472.7114 51.466606 
L 490.4175 51.935529 
L 508.1236 46.285116 
L 525.8297 45.008654 
L 543.5358 44.277745 
L 561.2419 42.979291 
L 578.948 42.726343 
L 596.6541 42.835637 
L 614.3602 42.325313 
L 632.0663 42.20878 
L 649.7724 42.179395 
L 667.4785 42.462761 
L 685.1846 42.415704 
L 702.8907 42.419395 
L 720.5968 41.535853 
L 738.3029 41.237565 
L 756.009 41.876853 
L 773.7151 42.915124 
L 791.4212 42.647951 
L 809.1273 41.827254 
L 826.8334 44.716818 
L 844.5395 42.670999 
L 862.2456 41.861558 
L 879.9517 42.178133 
L 897.6578 42.911027 
L 915.3639 42.792867 
L 933.07 41.637815 
" clip-path="url(#p879af05da2)" style="fill: none; stroke: #bcbd22; stroke-width: 1.5; stroke-linecap: square"/>
   </g>
   <g id="line2d_22">
    <path d="M 47.765 67.555788 
L 65.4711 67.852431 
L 83.1772 67.167981 
L 100.8833 66.297235 
L 118.5894 67.671032 
L 136.2955 66.99763 
L 154.0016 65.949095 
L 171.7077 65.083939 
L 189.4138 64.964615 
L 207.1199 62.995638 
L 224.826 59.880618 
L 242.5321 60.991996 
L 260.2382 56.163689 
L 277.9443 56.134476 
L 295.6504 56.299284 
L 313.3565 55.442413 
L 331.0626 54.816222 
L 348.7687 54.055063 
L 366.4748 55.586502 
L 384.1809 56.168386 
L 401.887 55.381121 
L 419.5931 55.500917 
L 437.2992 55.751182 
L 455.0053 54.228761 
L 472.7114 51.786398 
L 490.4175 53.262571 
L 508.1236 53.626763 
L 525.8297 55.157532 
L 543.5358 53.29414 
L 561.2419 51.075737 
L 578.948 51.078516 
L 596.6541 47.869533 
L 614.3602 46.065583 
L 632.0663 44.327433 
L 649.7724 43.601609 
L 667.4785 43.438054 
L 685.1846 45.162552 
L 702.8907 45.546367 
L 720.5968 44.662501 
L 738.3029 43.126045 
L 756.009 43.690927 
L 773.7151 43.70399 
L 791.4212 44.290568 
L 809.1273 44.767891 
L 826.8334 43.310483 
L 844.5395 41.707133 
L 862.2456 43.385459 
L 879.9517 42.912115 
L 897.6578 43.579029 
L 915.3639 43.623034 
L 933.07 43.386469 
" clip-path="url(#p879af05da2)" style="fill: none; stroke: #17becf; stroke-width: 1.5; stroke-linecap: square"/>
   </g>
   <g id="line2d_23">
    <path d="M 47.765 147.623139 
L 65.4711 144.403155 
L 83.1772 137.824873 
L 100.8833 133.624969 
L 118.5894 127.794678 
L 136.2955 115.418066 
L 154.0016 111.172874 
L 171.7077 108.685627 
L 189.4138 105.408738 
L 207.1199 99.517387 
L 224.826 97.79642 
L 242.5321 89.164922 
L 260.2382 87.475172 
L 277.9443 87.189936 
L 295.6504 84.359176 
L 313.3565 83.751572 
L 331.0626 77.484995 
L 348.7687 76.760112 
L 366.4748 74.696866 
L 384.1809 70.549703 
L 401.887 71.882854 
L 419.5931 68.777723 
L 437.2992 60.630884 
L 455.0053 58.94535 
L 472.7114 59.140049 
L 490.4175 57.249348 
L 508.1236 57.162821 
L 525.8297 55.33875 
L 543.5358 55.046459 
L 561.2419 55.238165 
L 578.948 54.77235 
L 596.6541 52.97917 
L 614.3602 53.989014 
L 632.0663 53.430003 
L 649.7724 52.54031 
L 667.4785 56.360147 
L 685.1846 56.78116 
L 702.8907 56.76775 
L 720.5968 56.854688 
L 738.3029 57.762779 
L 756.009 54.300959 
L 773.7151 51.927221 
L 791.4212 49.632982 
L 809.1273 49.758476 
L 826.8334 47.586431 
L 844.5395 47.104255 
L 862.2456 46.04754 
L 879.9517 45.010056 
L 897.6578 43.578548 
L 915.3639 44.129078 
L 933.07 43.269279 
" clip-path="url(#p879af05da2)" style="fill: none; stroke: #9edae5; stroke-width: 1.5; stroke-linecap: square"/>
   </g>
   <g id="patch_3">
    <path d="M 47.765 606.04 
L 47.765 30.748 
" style="fill: none; stroke: #000000; stroke-width: 0.8; stroke-linejoin: miter; stroke-linecap: square"/>
   </g>
   <g id="patch_4">
    <path d="M 933.07 606.04 
L 933.07 30.748 
" style="fill: none; stroke: #000000; stroke-width: 0.8; stroke-linejoin: miter; stroke-linecap: square"/>
   </g>
   <g id="patch_5">
    <path d="M 47.765 606.04 
L 933.07 606.04 
" style="fill: none; stroke: #000000; stroke-width: 0.8; stroke-linejoin: miter; stroke-linecap: square"/>
   </g>
   <g id="patch_6">
    <path d="M 47.765 30.748 
L 933.07 30.748 
" style="fill: none; stroke: #000000; stroke-width: 0.8; stroke-linejoin: miter; stroke-linecap: square"/>
   </g>
   <g id="text_15">
    <!-- Aggregated NMF Cos Scores by Number of Baits for Each Method -->
    <g transform="translate(294.72375 24.748) scale(0.12 -0.12)">
     <defs>
      <path id="DejaVuSans-79" d="M 2059 -325 
Q 1816 -950 1584 -1140 
Q 1353 -1331 966 -1331 
L 506 -1331 
L 506 -850 
L 844 -850 
Q 1081 -850 1212 -737 
Q 1344 -625 1503 -206 
L 1606 56 
L 191 3500 
L 800 3500 
L 1894 763 
L 2988 3500 
L 3597 3500 
L 2059 -325 
z
" transform="scale(0.015625)"/>
      <path id="DejaVuSans-45" d="M 628 4666 
L 3578 4666 
L 3578 4134 
L 1259 4134 
L 1259 2753 
L 3481 2753 
L 3481 2222 
L 1259 2222 
L 1259 531 
L 3634 531 
L 3634 0 
L 628 0 
L 628 4666 
z
" transform="scale(0.015625)"/>
      <path id="DejaVuSans-68" d="M 3513 2113 
L 3513 0 
L 2938 0 
L 2938 2094 
Q 2938 2591 2744 2837 
Q 2550 3084 2163 3084 
Q 1697 3084 1428 2787 
Q 1159 2491 1159 1978 
L 1159 0 
L 581 0 
L 581 4863 
L 1159 4863 
L 1159 2956 
Q 1366 3272 1645 3428 
Q 1925 3584 2291 3584 
Q 2894 3584 3203 3211 
Q 3513 2838 3513 2113 
z
" transform="scale(0.015625)"/>
     </defs>
     <use xlink:href="#DejaVuSans-41"/>
     <use xlink:href="#DejaVuSans-67" x="68.408203"/>
     <use xlink:href="#DejaVuSans-67" x="131.884766"/>
     <use xlink:href="#DejaVuSans-72" x="195.361328"/>
     <use xlink:href="#DejaVuSans-65" x="234.224609"/>
     <use xlink:href="#DejaVuSans-67" x="295.748047"/>
     <use xlink:href="#DejaVuSans-61" x="359.224609"/>
     <use xlink:href="#DejaVuSans-74" x="420.503906"/>
     <use xlink:href="#DejaVuSans-65" x="459.712891"/>
     <use xlink:href="#DejaVuSans-64" x="521.236328"/>
     <use xlink:href="#DejaVuSans-20" x="584.712891"/>
     <use xlink:href="#DejaVuSans-4e" x="616.5"/>
     <use xlink:href="#DejaVuSans-4d" x="691.304688"/>
     <use xlink:href="#DejaVuSans-46" x="777.583984"/>
     <use xlink:href="#DejaVuSans-20" x="835.103516"/>
     <use xlink:href="#DejaVuSans-43" x="866.890625"/>
     <use xlink:href="#DejaVuSans-6f" x="936.714844"/>
     <use xlink:href="#DejaVuSans-73" x="997.896484"/>
     <use xlink:href="#DejaVuSans-20" x="1049.996094"/>
     <use xlink:href="#DejaVuSans-53" x="1081.783203"/>
     <use xlink:href="#DejaVuSans-63" x="1145.259766"/>
     <use xlink:href="#DejaVuSans-6f" x="1200.240234"/>
     <use xlink:href="#DejaVuSans-72" x="1261.421875"/>
     <use xlink:href="#DejaVuSans-65" x="1300.285156"/>
     <use xlink:href="#DejaVuSans-73" x="1361.808594"/>
     <use xlink:href="#DejaVuSans-20" x="1413.908203"/>
     <use xlink:href="#DejaVuSans-62" x="1445.695312"/>
     <use xlink:href="#DejaVuSans-79" x="1509.171875"/>
     <use xlink:href="#DejaVuSans-20" x="1568.351562"/>
     <use xlink:href="#DejaVuSans-4e" x="1600.138672"/>
     <use xlink:href="#DejaVuSans-75" x="1674.943359"/>
     <use xlink:href="#DejaVuSans-6d" x="1738.322266"/>
     <use xlink:href="#DejaVuSans-62" x="1835.734375"/>
     <use xlink:href="#DejaVuSans-65" x="1899.210938"/>
     <use xlink:href="#DejaVuSans-72" x="1960.734375"/>
     <use xlink:href="#DejaVuSans-20" x="2001.847656"/>
     <use xlink:href="#DejaVuSans-6f" x="2033.634766"/>
     <use xlink:href="#DejaVuSans-66" x="2094.816406"/>
     <use xlink:href="#DejaVuSans-20" x="2130.021484"/>
     <use xlink:href="#DejaVuSans-42" x="2161.808594"/>
     <use xlink:href="#DejaVuSans-61" x="2230.412109"/>
     <use xlink:href="#DejaVuSans-69" x="2291.691406"/>
     <use xlink:href="#DejaVuSans-74" x="2319.474609"/>
     <use xlink:href="#DejaVuSans-73" x="2358.683594"/>
     <use xlink:href="#DejaVuSans-20" x="2410.783203"/>
     <use xlink:href="#DejaVuSans-66" x="2442.570312"/>
     <use xlink:href="#DejaVuSans-6f" x="2477.775391"/>
     <use xlink:href="#DejaVuSans-72" x="2538.957031"/>
     <use xlink:href="#DejaVuSans-20" x="2580.070312"/>
     <use xlink:href="#DejaVuSans-45" x="2611.857422"/>
     <use xlink:href="#DejaVuSans-61" x="2675.041016"/>
     <use xlink:href="#DejaVuSans-63" x="2736.320312"/>
     <use xlink:href="#DejaVuSans-68" x="2791.300781"/>
     <use xlink:href="#DejaVuSans-20" x="2854.679688"/>
     <use xlink:href="#DejaVuSans-4d" x="2886.466797"/>
     <use xlink:href="#DejaVuSans-65" x="2972.746094"/>
     <use xlink:href="#DejaVuSans-74" x="3034.269531"/>
     <use xlink:href="#DejaVuSans-68" x="3073.478516"/>
     <use xlink:href="#DejaVuSans-6f" x="3136.857422"/>
     <use xlink:href="#DejaVuSans-64" x="3198.039062"/>
    </g>
   </g>
   <g id="legend_1">
    <g id="patch_7">
     <path d="M 940.07 172.555275 
L 1067.18875 172.555275 
Q 1069.18875 172.555275 1069.18875 170.555275 
L 1069.18875 8.9834 
Q 1069.18875 6.9834 1067.18875 6.9834 
L 940.07 6.9834 
Q 938.07 6.9834 938.07 8.9834 
L 938.07 170.555275 
Q 938.07 172.555275 940.07 172.555275 
z
" style="fill: #ffffff; opacity: 0.8; stroke: #cccccc; stroke-linejoin: miter"/>
    </g>
    <g id="line2d_24">
     <path d="M 942.07 15.081838 
L 952.07 15.081838 
L 962.07 15.081838 
" style="fill: none; stroke: #1f77b4; stroke-width: 1.5; stroke-linecap: square"/>
    </g>
    <g id="text_16">
     <!-- GA -->
     <g transform="translate(970.07 18.581838) scale(0.1 -0.1)">
      <defs>
       <path id="DejaVuSans-47" d="M 3809 666 
L 3809 1919 
L 2778 1919 
L 2778 2438 
L 4434 2438 
L 4434 434 
Q 4069 175 3628 42 
Q 3188 -91 2688 -91 
Q 1594 -91 976 548 
Q 359 1188 359 2328 
Q 359 3472 976 4111 
Q 1594 4750 2688 4750 
Q 3144 4750 3555 4637 
Q 3966 4525 4313 4306 
L 4313 3634 
Q 3963 3931 3569 4081 
Q 3175 4231 2741 4231 
Q 1884 4231 1454 3753 
Q 1025 3275 1025 2328 
Q 1025 1384 1454 906 
Q 1884 428 2741 428 
Q 3075 428 3337 486 
Q 3600 544 3809 666 
z
" transform="scale(0.015625)"/>
      </defs>
      <use xlink:href="#DejaVuSans-47"/>
      <use xlink:href="#DejaVuSans-41" x="77.490234"/>
     </g>
    </g>
    <g id="line2d_25">
     <path d="M 942.07 29.759963 
L 952.07 29.759963 
L 962.07 29.759963 
" style="fill: none; stroke: #ff7f0e; stroke-width: 1.5; stroke-linecap: square"/>
    </g>
    <g id="text_17">
     <!-- Random -->
     <g transform="translate(970.07 33.259963) scale(0.1 -0.1)">
      <defs>
       <path id="DejaVuSans-52" d="M 2841 2188 
Q 3044 2119 3236 1894 
Q 3428 1669 3622 1275 
L 4263 0 
L 3584 0 
L 2988 1197 
Q 2756 1666 2539 1819 
Q 2322 1972 1947 1972 
L 1259 1972 
L 1259 0 
L 628 0 
L 628 4666 
L 2053 4666 
Q 2853 4666 3247 4331 
Q 3641 3997 3641 3322 
Q 3641 2881 3436 2590 
Q 3231 2300 2841 2188 
z
M 1259 4147 
L 1259 2491 
L 2053 2491 
Q 2509 2491 2742 2702 
Q 2975 2913 2975 3322 
Q 2975 3731 2742 3939 
Q 2509 4147 2053 4147 
L 1259 4147 
z
" transform="scale(0.015625)"/>
       <path id="DejaVuSans-6e" d="M 3513 2113 
L 3513 0 
L 2938 0 
L 2938 2094 
Q 2938 2591 2744 2837 
Q 2550 3084 2163 3084 
Q 1697 3084 1428 2787 
Q 1159 2491 1159 1978 
L 1159 0 
L 581 0 
L 581 3500 
L 1159 3500 
L 1159 2956 
Q 1366 3272 1645 3428 
Q 1925 3584 2291 3584 
Q 2894 3584 3203 3211 
Q 3513 2838 3513 2113 
z
" transform="scale(0.015625)"/>
      </defs>
      <use xlink:href="#DejaVuSans-52"/>
      <use xlink:href="#DejaVuSans-61" x="67.232422"/>
      <use xlink:href="#DejaVuSans-6e" x="128.511719"/>
      <use xlink:href="#DejaVuSans-64" x="191.890625"/>
      <use xlink:href="#DejaVuSans-6f" x="255.367188"/>
      <use xlink:href="#DejaVuSans-6d" x="316.548828"/>
     </g>
    </g>
    <g id="line2d_26">
     <path d="M 942.07 44.438088 
L 952.07 44.438088 
L 962.07 44.438088 
" style="fill: none; stroke: #2ca02c; stroke-width: 1.5; stroke-linecap: square"/>
    </g>
    <g id="text_18">
     <!-- chi_2 -->
     <g transform="translate(970.07 47.938088) scale(0.1 -0.1)">
      <defs>
       <path id="DejaVuSans-5f" d="M 3263 -1063 
L 3263 -1509 
L -63 -1509 
L -63 -1063 
L 3263 -1063 
z
" transform="scale(0.015625)"/>
      </defs>
      <use xlink:href="#DejaVuSans-63"/>
      <use xlink:href="#DejaVuSans-68" x="54.980469"/>
      <use xlink:href="#DejaVuSans-69" x="118.359375"/>
      <use xlink:href="#DejaVuSans-5f" x="146.142578"/>
      <use xlink:href="#DejaVuSans-32" x="196.142578"/>
     </g>
    </g>
    <g id="line2d_27">
     <path d="M 942.07 59.394338 
L 952.07 59.394338 
L 962.07 59.394338 
" style="fill: none; stroke: #d62728; stroke-width: 1.5; stroke-linecap: square"/>
    </g>
    <g id="text_19">
     <!-- f_classif -->
     <g transform="translate(970.07 62.894338) scale(0.1 -0.1)">
      <defs>
       <path id="DejaVuSans-6c" d="M 603 4863 
L 1178 4863 
L 1178 0 
L 603 0 
L 603 4863 
z
" transform="scale(0.015625)"/>
      </defs>
      <use xlink:href="#DejaVuSans-66"/>
      <use xlink:href="#DejaVuSans-5f" x="35.205078"/>
      <use xlink:href="#DejaVuSans-63" x="85.205078"/>
      <use xlink:href="#DejaVuSans-6c" x="140.185547"/>
      <use xlink:href="#DejaVuSans-61" x="167.96875"/>
      <use xlink:href="#DejaVuSans-73" x="229.248047"/>
      <use xlink:href="#DejaVuSans-73" x="281.347656"/>
      <use xlink:href="#DejaVuSans-69" x="333.447266"/>
      <use xlink:href="#DejaVuSans-66" x="361.230469"/>
     </g>
    </g>
    <g id="line2d_28">
     <path d="M 942.07 74.350588 
L 952.07 74.350588 
L 962.07 74.350588 
" style="fill: none; stroke: #9467bd; stroke-width: 1.5; stroke-linecap: square"/>
    </g>
    <g id="text_20">
     <!-- mutual_info_classif -->
     <g transform="translate(970.07 77.850588) scale(0.1 -0.1)">
      <use xlink:href="#DejaVuSans-6d"/>
      <use xlink:href="#DejaVuSans-75" x="97.412109"/>
      <use xlink:href="#DejaVuSans-74" x="160.791016"/>
      <use xlink:href="#DejaVuSans-75" x="200"/>
      <use xlink:href="#DejaVuSans-61" x="263.378906"/>
      <use xlink:href="#DejaVuSans-6c" x="324.658203"/>
      <use xlink:href="#DejaVuSans-5f" x="352.441406"/>
      <use xlink:href="#DejaVuSans-69" x="402.441406"/>
      <use xlink:href="#DejaVuSans-6e" x="430.224609"/>
      <use xlink:href="#DejaVuSans-66" x="493.603516"/>
      <use xlink:href="#DejaVuSans-6f" x="528.808594"/>
      <use xlink:href="#DejaVuSans-5f" x="589.990234"/>
      <use xlink:href="#DejaVuSans-63" x="639.990234"/>
      <use xlink:href="#DejaVuSans-6c" x="694.970703"/>
      <use xlink:href="#DejaVuSans-61" x="722.753906"/>
      <use xlink:href="#DejaVuSans-73" x="784.033203"/>
      <use xlink:href="#DejaVuSans-73" x="836.132812"/>
      <use xlink:href="#DejaVuSans-69" x="888.232422"/>
      <use xlink:href="#DejaVuSans-66" x="916.015625"/>
     </g>
    </g>
    <g id="line2d_29">
     <path d="M 942.07 89.306838 
L 952.07 89.306838 
L 962.07 89.306838 
" style="fill: none; stroke: #8c564b; stroke-width: 1.5; stroke-linecap: square"/>
    </g>
    <g id="text_21">
     <!-- lasso -->
     <g transform="translate(970.07 92.806838) scale(0.1 -0.1)">
      <use xlink:href="#DejaVuSans-6c"/>
      <use xlink:href="#DejaVuSans-61" x="27.783203"/>
      <use xlink:href="#DejaVuSans-73" x="89.0625"/>
      <use xlink:href="#DejaVuSans-73" x="141.162109"/>
      <use xlink:href="#DejaVuSans-6f" x="193.261719"/>
     </g>
    </g>
    <g id="line2d_30">
     <path d="M 942.07 103.984963 
L 952.07 103.984963 
L 962.07 103.984963 
" style="fill: none; stroke: #e377c2; stroke-width: 1.5; stroke-linecap: square"/>
    </g>
    <g id="text_22">
     <!-- ridge -->
     <g transform="translate(970.07 107.484963) scale(0.1 -0.1)">
      <use xlink:href="#DejaVuSans-72"/>
      <use xlink:href="#DejaVuSans-69" x="41.113281"/>
      <use xlink:href="#DejaVuSans-64" x="68.896484"/>
      <use xlink:href="#DejaVuSans-67" x="132.373047"/>
      <use xlink:href="#DejaVuSans-65" x="195.849609"/>
     </g>
    </g>
    <g id="line2d_31">
     <path d="M 942.07 118.663088 
L 952.07 118.663088 
L 962.07 118.663088 
" style="fill: none; stroke: #7f7f7f; stroke-width: 1.5; stroke-linecap: square"/>
    </g>
    <g id="text_23">
     <!-- elastic_net -->
     <g transform="translate(970.07 122.163088) scale(0.1 -0.1)">
      <use xlink:href="#DejaVuSans-65"/>
      <use xlink:href="#DejaVuSans-6c" x="61.523438"/>
      <use xlink:href="#DejaVuSans-61" x="89.306641"/>
      <use xlink:href="#DejaVuSans-73" x="150.585938"/>
      <use xlink:href="#DejaVuSans-74" x="202.685547"/>
      <use xlink:href="#DejaVuSans-69" x="241.894531"/>
      <use xlink:href="#DejaVuSans-63" x="269.677734"/>
      <use xlink:href="#DejaVuSans-5f" x="324.658203"/>
      <use xlink:href="#DejaVuSans-6e" x="374.658203"/>
      <use xlink:href="#DejaVuSans-65" x="438.037109"/>
      <use xlink:href="#DejaVuSans-74" x="499.560547"/>
     </g>
    </g>
    <g id="line2d_32">
     <path d="M 942.07 133.619338 
L 952.07 133.619338 
L 962.07 133.619338 
" style="fill: none; stroke: #bcbd22; stroke-width: 1.5; stroke-linecap: square"/>
    </g>
    <g id="text_24">
     <!-- rf -->
     <g transform="translate(970.07 137.119338) scale(0.1 -0.1)">
      <use xlink:href="#DejaVuSans-72"/>
      <use xlink:href="#DejaVuSans-66" x="41.113281"/>
     </g>
    </g>
    <g id="line2d_33">
     <path d="M 942.07 148.297463 
L 952.07 148.297463 
L 962.07 148.297463 
" style="fill: none; stroke: #17becf; stroke-width: 1.5; stroke-linecap: square"/>
    </g>
    <g id="text_25">
     <!-- gbm -->
     <g transform="translate(970.07 151.797463) scale(0.1 -0.1)">
      <use xlink:href="#DejaVuSans-67"/>
      <use xlink:href="#DejaVuSans-62" x="63.476562"/>
      <use xlink:href="#DejaVuSans-6d" x="126.953125"/>
     </g>
    </g>
    <g id="line2d_34">
     <path d="M 942.07 162.975588 
L 952.07 162.975588 
L 962.07 162.975588 
" style="fill: none; stroke: #9edae5; stroke-width: 1.5; stroke-linecap: square"/>
    </g>
    <g id="text_26">
     <!-- xgb -->
     <g transform="translate(970.07 166.475588) scale(0.1 -0.1)">
      <defs>
       <path id="DejaVuSans-78" d="M 3513 3500 
L 2247 1797 
L 3578 0 
L 2900 0 
L 1881 1375 
L 863 0 
L 184 0 
L 1544 1831 
L 300 3500 
L 978 3500 
L 1906 2253 
L 2834 3500 
L 3513 3500 
z
" transform="scale(0.015625)"/>
      </defs>
      <use xlink:href="#DejaVuSans-78"/>
      <use xlink:href="#DejaVuSans-67" x="59.179688"/>
      <use xlink:href="#DejaVuSans-62" x="122.65625"/>
     </g>
    </g>
   </g>
  </g>
 </g>
 <defs>
  <clipPath id="p879af05da2">
   <rect x="47.765" y="30.748" width="885.305" height="575.292"/>
  </clipPath>
 </defs>
</svg>
