<?xml version="1.0" encoding="utf-8" standalone="no"?>
<!DOCTYPE svg PUBLIC "-//W3C//DTD SVG 1.1//EN"
  "http://www.w3.org/Graphics/SVG/1.1/DTD/svg11.dtd">
<svg xmlns:xlink="http://www.w3.org/1999/xlink" width="1080pt" height="648pt" viewBox="0 0 1080 648" xmlns="http://www.w3.org/2000/svg" version="1.1">
 <metadata>
  <rdf:RDF xmlns:dc="http://purl.org/dc/elements/1.1/" xmlns:cc="http://creativecommons.org/ns#" xmlns:rdf="http://www.w3.org/1999/02/22-rdf-syntax-ns#">
   <cc:Work>
    <dc:type rdf:resource="http://purl.org/dc/dcmitype/StillImage"/>
    <dc:date>2024-04-04T23:58:52.423673</dc:date>
    <dc:format>image/svg+xml</dc:format>
    <dc:creator>
     <cc:Agent>
      <dc:title>Matplotlib v3.7.2, https://matplotlib.org/</dc:title>
     </cc:Agent>
    </dc:creator>
   </cc:Work>
  </rdf:RDF>
 </metadata>
 <defs>
  <style type="text/css">*{stroke-linejoin: round; stroke-linecap: butt}</style>
 </defs>
 <g id="figure_1">
  <g id="patch_1">
   <path d="M 0 648 
L 1080 648 
L 1080 0 
L 0 0 
z
" style="fill: #ffffff"/>
  </g>
  <g id="axes_1">
   <g id="patch_2">
    <path d="M 47.765 606.04 
L 933.07 606.04 
L 933.07 30.748 
L 47.765 30.748 
z
" style="fill: #ffffff"/>
   </g>
   <g id="PolyCollection_1">
    <defs>
     <path id="m27cb383e87" d="M 47.765 -560.255185 
L 47.765 -522.971597 
L 65.4711 -519.814838 
L 83.1772 -518.722989 
L 100.8833 -520.935868 
L 118.5894 -518.552398 
L 136.2955 -519.342439 
L 154.0016 -518.204444 
L 171.7077 -519.511211 
L 189.4138 -521.707902 
L 207.1199 -524.219322 
L 224.826 -523.271997 
L 242.5321 -524.808656 
L 260.2382 -523.673269 
L 277.9443 -523.581312 
L 295.6504 -524.074728 
L 313.3565 -526.628871 
L 331.0626 -530.223653 
L 348.7687 -527.757199 
L 366.4748 -529.335608 
L 384.1809 -535.944748 
L 401.887 -540.445785 
L 419.5931 -537.396396 
L 437.2992 -548.095497 
L 455.0053 -536.825561 
L 472.7114 -542.063568 
L 490.4175 -546.71917 
L 508.1236 -541.565271 
L 525.8297 -549.136835 
L 543.5358 -548.31237 
L 561.2419 -553.259124 
L 578.948 -543.623182 
L 596.6541 -553.013184 
L 614.3602 -556.831377 
L 632.0663 -553.698856 
L 649.7724 -550.09008 
L 667.4785 -561.095015 
L 685.1846 -558.613086 
L 702.8907 -564.744415 
L 720.5968 -570.637636 
L 738.3029 -548.867545 
L 756.009 -567.930923 
L 773.7151 -561.441493 
L 791.4212 -577.696308 
L 809.1273 -576.661077 
L 826.8334 -580.859585 
L 844.5395 -550.391624 
L 862.2456 -558.845551 
L 879.9517 -564.466334 
L 897.6578 -588.231847 
L 915.3639 -565.212678 
L 933.07 -551.99361 
L 933.07 -628.862097 
L 933.07 -628.862097 
L 915.3639 -627.736953 
L 897.6578 -612.634929 
L 879.9517 -620.214056 
L 862.2456 -624.370547 
L 844.5395 -623.847226 
L 826.8334 -611.312971 
L 809.1273 -611.530519 
L 791.4212 -611.052525 
L 773.7151 -616.040021 
L 756.009 -615.940214 
L 738.3029 -615.968756 
L 720.5968 -608.550189 
L 702.8907 -607.019676 
L 685.1846 -605.249947 
L 667.4785 -604.890393 
L 649.7724 -596.88976 
L 632.0663 -603.108808 
L 614.3602 -601.234538 
L 596.6541 -599.059086 
L 578.948 -593.154209 
L 561.2419 -597.035144 
L 543.5358 -592.29532 
L 525.8297 -590.551551 
L 508.1236 -593.196801 
L 490.4175 -594.903129 
L 472.7114 -587.065589 
L 455.0053 -588.927904 
L 437.2992 -588.642376 
L 419.5931 -590.546239 
L 401.887 -589.625457 
L 384.1809 -586.141384 
L 366.4748 -583.500625 
L 348.7687 -577.944188 
L 331.0626 -579.304604 
L 313.3565 -577.908131 
L 295.6504 -574.490744 
L 277.9443 -573.354485 
L 260.2382 -573.497198 
L 242.5321 -570.005342 
L 224.826 -565.480458 
L 207.1199 -567.361299 
L 189.4138 -565.078572 
L 171.7077 -560.435586 
L 154.0016 -563.939902 
L 136.2955 -565.003059 
L 118.5894 -562.456168 
L 100.8833 -562.172854 
L 83.1772 -559.413999 
L 65.4711 -560.017601 
L 47.765 -560.255185 
z
" style="stroke: #1f77b4; stroke-opacity: 0.2"/>
    </defs>
    <g clip-path="url(#pe12ae8bd5d)">
     <use xlink:href="#m27cb383e87" x="0" y="648" style="fill: #1f77b4; fill-opacity: 0.2; stroke: #1f77b4; stroke-opacity: 0.2"/>
    </g>
   </g>
   <g id="PolyCollection_2">
    <defs>
     <path id="m3b785fe23f" d="M 47.765 -374.821181 
L 47.765 -217.87007 
L 65.4711 -262.146224 
L 83.1772 -230.914324 
L 100.8833 -286.244035 
L 118.5894 -220.173709 
L 136.2955 -276.30093 
L 154.0016 -247.926097 
L 171.7077 -248.121933 
L 189.4138 -268.754512 
L 207.1199 -245.086401 
L 224.826 -232.205807 
L 242.5321 -272.739814 
L 260.2382 -285.844346 
L 277.9443 -247.304631 
L 295.6504 -297.033575 
L 313.3565 -267.049846 
L 331.0626 -267.497059 
L 348.7687 -266.224904 
L 366.4748 -304.250358 
L 384.1809 -277.57454 
L 401.887 -322.968297 
L 419.5931 -317.203023 
L 437.2992 -367.215503 
L 455.0053 -270.180099 
L 472.7114 -325.323651 
L 490.4175 -321.955189 
L 508.1236 -309.442009 
L 525.8297 -297.975268 
L 543.5358 -292.395945 
L 561.2419 -317.752642 
L 578.948 -352.722672 
L 596.6541 -319.543249 
L 614.3602 -301.734393 
L 632.0663 -343.930173 
L 649.7724 -331.691048 
L 667.4785 -291.381378 
L 685.1846 -315.537774 
L 702.8907 -310.574874 
L 720.5968 -328.804361 
L 738.3029 -345.569632 
L 756.009 -339.900878 
L 773.7151 -302.119098 
L 791.4212 -357.796366 
L 809.1273 -334.030991 
L 826.8334 -318.859497 
L 844.5395 -317.381532 
L 862.2456 -363.24831 
L 879.9517 -317.996724 
L 897.6578 -339.106822 
L 915.3639 -391.981316 
L 933.07 -374.535101 
L 933.07 -467.146328 
L 933.07 -467.146328 
L 915.3639 -492.907761 
L 897.6578 -443.749113 
L 879.9517 -446.022288 
L 862.2456 -450.941108 
L 844.5395 -454.958503 
L 826.8334 -442.745606 
L 809.1273 -445.712659 
L 791.4212 -441.807253 
L 773.7151 -408.01117 
L 756.009 -453.564952 
L 738.3029 -464.372924 
L 720.5968 -452.06232 
L 702.8907 -417.189432 
L 685.1846 -432.515615 
L 667.4785 -399.838084 
L 649.7724 -453.51346 
L 632.0663 -445.818766 
L 614.3602 -429.712705 
L 596.6541 -414.230502 
L 578.948 -441.248629 
L 561.2419 -451.880061 
L 543.5358 -408.082532 
L 525.8297 -413.738704 
L 508.1236 -421.838482 
L 490.4175 -423.682058 
L 472.7114 -446.017932 
L 455.0053 -376.445216 
L 437.2992 -463.946526 
L 419.5931 -424.067934 
L 401.887 -420.148589 
L 384.1809 -421.839801 
L 366.4748 -421.595986 
L 348.7687 -412.389394 
L 331.0626 -411.717771 
L 313.3565 -395.37528 
L 295.6504 -451.718668 
L 277.9443 -412.664785 
L 260.2382 -431.542619 
L 242.5321 -404.536654 
L 224.826 -362.368378 
L 207.1199 -384.027446 
L 189.4138 -384.39994 
L 171.7077 -409.702356 
L 154.0016 -377.355968 
L 136.2955 -395.169399 
L 118.5894 -361.46976 
L 100.8833 -437.997798 
L 83.1772 -395.421787 
L 65.4711 -400.691674 
L 47.765 -374.821181 
z
" style="stroke: #ff7f0e; stroke-opacity: 0.2"/>
    </defs>
    <g clip-path="url(#pe12ae8bd5d)">
     <use xlink:href="#m3b785fe23f" x="0" y="648" style="fill: #ff7f0e; fill-opacity: 0.2; stroke: #ff7f0e; stroke-opacity: 0.2"/>
    </g>
   </g>
   <g id="PolyCollection_3">
    <defs>
     <path id="m4f8186407a" d="M 47.765 -553.825083 
L 47.765 -517.767767 
L 65.4711 -519.018168 
L 83.1772 -516.011935 
L 100.8833 -515.704412 
L 118.5894 -522.861938 
L 136.2955 -529.137864 
L 154.0016 -527.741452 
L 171.7077 -525.644604 
L 189.4138 -523.353165 
L 207.1199 -525.954813 
L 224.826 -521.92149 
L 242.5321 -519.991887 
L 260.2382 -517.518784 
L 277.9443 -515.904196 
L 295.6504 -514.371526 
L 313.3565 -523.392601 
L 331.0626 -525.568278 
L 348.7687 -527.697998 
L 366.4748 -528.788247 
L 384.1809 -526.059283 
L 401.887 -529.857254 
L 419.5931 -527.963349 
L 437.2992 -526.238681 
L 455.0053 -529.267735 
L 472.7114 -524.64707 
L 490.4175 -531.273818 
L 508.1236 -526.706728 
L 525.8297 -520.681896 
L 543.5358 -521.796567 
L 561.2419 -521.559013 
L 578.948 -520.521267 
L 596.6541 -519.959476 
L 614.3602 -517.071832 
L 632.0663 -513.998549 
L 649.7724 -523.414209 
L 667.4785 -528.161759 
L 685.1846 -524.265745 
L 702.8907 -527.728612 
L 720.5968 -531.931823 
L 738.3029 -523.71193 
L 756.009 -520.297417 
L 773.7151 -521.075513 
L 791.4212 -529.145694 
L 809.1273 -525.076195 
L 826.8334 -528.722272 
L 844.5395 -520.437288 
L 862.2456 -519.2613 
L 879.9517 -517.215182 
L 897.6578 -529.13364 
L 915.3639 -513.637448 
L 933.07 -512.637407 
L 933.07 -622.406033 
L 933.07 -622.406033 
L 915.3639 -613.351316 
L 897.6578 -611.893918 
L 879.9517 -610.935208 
L 862.2456 -607.101118 
L 844.5395 -600.099852 
L 826.8334 -589.939002 
L 809.1273 -593.125463 
L 791.4212 -588.39432 
L 773.7151 -582.914936 
L 756.009 -585.818651 
L 738.3029 -589.276743 
L 720.5968 -588.2935 
L 702.8907 -585.749103 
L 685.1846 -580.873946 
L 667.4785 -583.081544 
L 649.7724 -585.657105 
L 632.0663 -585.208066 
L 614.3602 -579.956296 
L 596.6541 -581.583703 
L 578.948 -581.398779 
L 561.2419 -585.808625 
L 543.5358 -585.527715 
L 525.8297 -583.575916 
L 508.1236 -577.08349 
L 490.4175 -575.596793 
L 472.7114 -580.64324 
L 455.0053 -576.495441 
L 437.2992 -573.387998 
L 419.5931 -574.608972 
L 401.887 -573.749987 
L 384.1809 -572.646343 
L 366.4748 -570.341993 
L 348.7687 -569.305894 
L 331.0626 -567.701739 
L 313.3565 -565.58346 
L 295.6504 -565.844926 
L 277.9443 -569.1096 
L 260.2382 -567.945192 
L 242.5321 -568.419247 
L 224.826 -562.867317 
L 207.1199 -562.928204 
L 189.4138 -563.336405 
L 171.7077 -563.641295 
L 154.0016 -564.59618 
L 136.2955 -564.043146 
L 118.5894 -562.581273 
L 100.8833 -563.217997 
L 83.1772 -558.725038 
L 65.4711 -556.877111 
L 47.765 -553.825083 
z
" style="stroke: #2ca02c; stroke-opacity: 0.2"/>
    </defs>
    <g clip-path="url(#pe12ae8bd5d)">
     <use xlink:href="#m4f8186407a" x="0" y="648" style="fill: #2ca02c; fill-opacity: 0.2; stroke: #2ca02c; stroke-opacity: 0.2"/>
    </g>
   </g>
   <g id="PolyCollection_4">
    <defs>
     <path id="m363fc3e6fa" d="M 47.765 -565.778947 
L 47.765 -516.298107 
L 65.4711 -522.061154 
L 83.1772 -532.230088 
L 100.8833 -531.357805 
L 118.5894 -532.023329 
L 136.2955 -532.129698 
L 154.0016 -522.867574 
L 171.7077 -531.231956 
L 189.4138 -528.02558 
L 207.1199 -535.822257 
L 224.826 -525.364634 
L 242.5321 -529.057114 
L 260.2382 -535.629532 
L 277.9443 -538.838007 
L 295.6504 -531.424681 
L 313.3565 -525.64501 
L 331.0626 -536.375743 
L 348.7687 -520.810334 
L 366.4748 -519.061724 
L 384.1809 -530.137202 
L 401.887 -527.299642 
L 419.5931 -528.582409 
L 437.2992 -529.117427 
L 455.0053 -530.834212 
L 472.7114 -540.363779 
L 490.4175 -532.616293 
L 508.1236 -529.856839 
L 525.8297 -538.221893 
L 543.5358 -529.440509 
L 561.2419 -533.29457 
L 578.948 -533.352786 
L 596.6541 -534.195025 
L 614.3602 -528.463496 
L 632.0663 -527.417351 
L 649.7724 -518.636426 
L 667.4785 -508.367713 
L 685.1846 -529.693692 
L 702.8907 -528.702947 
L 720.5968 -534.763187 
L 738.3029 -547.727379 
L 756.009 -537.654601 
L 773.7151 -541.53203 
L 791.4212 -534.323935 
L 809.1273 -535.974327 
L 826.8334 -544.1689 
L 844.5395 -522.41195 
L 862.2456 -520.186142 
L 879.9517 -529.331533 
L 897.6578 -517.324461 
L 915.3639 -528.545908 
L 933.07 -540.787465 
L 933.07 -623.62261 
L 933.07 -623.62261 
L 915.3639 -624.35089 
L 897.6578 -625.157039 
L 879.9517 -619.799722 
L 862.2456 -619.296101 
L 844.5395 -619.860765 
L 826.8334 -612.93059 
L 809.1273 -614.578406 
L 791.4212 -613.938055 
L 773.7151 -609.200209 
L 756.009 -606.049081 
L 738.3029 -607.691496 
L 720.5968 -597.645406 
L 702.8907 -596.125875 
L 685.1846 -588.072235 
L 667.4785 -587.163735 
L 649.7724 -589.112917 
L 632.0663 -581.637221 
L 614.3602 -578.204005 
L 596.6541 -581.345306 
L 578.948 -584.4206 
L 561.2419 -585.957782 
L 543.5358 -585.965619 
L 525.8297 -585.856362 
L 508.1236 -591.554752 
L 490.4175 -592.840549 
L 472.7114 -584.905644 
L 455.0053 -584.563486 
L 437.2992 -587.161666 
L 419.5931 -584.524749 
L 401.887 -585.43647 
L 384.1809 -589.676907 
L 366.4748 -591.707737 
L 348.7687 -590.283881 
L 331.0626 -584.64572 
L 313.3565 -587.689496 
L 295.6504 -582.554723 
L 277.9443 -576.39961 
L 260.2382 -574.90032 
L 242.5321 -580.10731 
L 224.826 -579.633882 
L 207.1199 -573.468659 
L 189.4138 -575.46203 
L 171.7077 -571.655404 
L 154.0016 -577.697365 
L 136.2955 -570.51015 
L 118.5894 -569.683217 
L 100.8833 -565.908718 
L 83.1772 -564.781041 
L 65.4711 -566.167906 
L 47.765 -565.778947 
z
" style="stroke: #d62728; stroke-opacity: 0.2"/>
    </defs>
    <g clip-path="url(#pe12ae8bd5d)">
     <use xlink:href="#m363fc3e6fa" x="0" y="648" style="fill: #d62728; fill-opacity: 0.2; stroke: #d62728; stroke-opacity: 0.2"/>
    </g>
   </g>
   <g id="PolyCollection_5">
    <defs>
     <path id="m268676e97a" d="M 47.765 -547.637419 
L 47.765 -501.155377 
L 65.4711 -504.282612 
L 83.1772 -508.626344 
L 100.8833 -507.906222 
L 118.5894 -509.249048 
L 136.2955 -511.327712 
L 154.0016 -510.376434 
L 171.7077 -508.135813 
L 189.4138 -509.17701 
L 207.1199 -511.46093 
L 224.826 -514.281503 
L 242.5321 -514.866128 
L 260.2382 -514.195951 
L 277.9443 -512.653335 
L 295.6504 -512.843294 
L 313.3565 -515.531798 
L 331.0626 -515.411564 
L 348.7687 -516.845603 
L 366.4748 -519.568369 
L 384.1809 -519.738143 
L 401.887 -521.254622 
L 419.5931 -521.865027 
L 437.2992 -520.581591 
L 455.0053 -519.471212 
L 472.7114 -528.224882 
L 490.4175 -530.109555 
L 508.1236 -531.37666 
L 525.8297 -532.468058 
L 543.5358 -532.687172 
L 561.2419 -529.65252 
L 578.948 -546.121387 
L 596.6541 -544.91913 
L 614.3602 -541.817737 
L 632.0663 -543.093909 
L 649.7724 -546.699201 
L 667.4785 -547.483152 
L 685.1846 -548.070846 
L 702.8907 -549.239151 
L 720.5968 -546.881407 
L 738.3029 -546.981899 
L 756.009 -550.853473 
L 773.7151 -548.735134 
L 791.4212 -547.363517 
L 809.1273 -554.113784 
L 826.8334 -555.71118 
L 844.5395 -543.947949 
L 862.2456 -560.962723 
L 879.9517 -572.271574 
L 897.6578 -573.750882 
L 915.3639 -574.752311 
L 933.07 -572.057821 
L 933.07 -607.28858 
L 933.07 -607.28858 
L 915.3639 -606.402912 
L 897.6578 -606.495977 
L 879.9517 -606.102039 
L 862.2456 -608.304961 
L 844.5395 -612.713223 
L 826.8334 -606.778058 
L 809.1273 -605.545039 
L 791.4212 -602.21899 
L 773.7151 -602.457115 
L 756.009 -603.194675 
L 738.3029 -601.69077 
L 720.5968 -601.401146 
L 702.8907 -598.317761 
L 685.1846 -598.596752 
L 667.4785 -598.678507 
L 649.7724 -598.161074 
L 632.0663 -596.719711 
L 614.3602 -595.171284 
L 596.6541 -594.111912 
L 578.948 -595.217268 
L 561.2419 -586.490677 
L 543.5358 -588.428351 
L 525.8297 -589.92082 
L 508.1236 -587.333381 
L 490.4175 -583.773082 
L 472.7114 -582.771164 
L 455.0053 -585.522746 
L 437.2992 -586.438299 
L 419.5931 -585.086558 
L 401.887 -581.121181 
L 384.1809 -578.135388 
L 366.4748 -577.885487 
L 348.7687 -570.980866 
L 331.0626 -568.17106 
L 313.3565 -568.731305 
L 295.6504 -565.614118 
L 277.9443 -566.168866 
L 260.2382 -567.609492 
L 242.5321 -567.945012 
L 224.826 -566.540472 
L 207.1199 -564.155739 
L 189.4138 -558.646994 
L 171.7077 -557.898302 
L 154.0016 -560.175569 
L 136.2955 -559.362835 
L 118.5894 -559.381448 
L 100.8833 -553.574965 
L 83.1772 -553.840999 
L 65.4711 -549.160859 
L 47.765 -547.637419 
z
" style="stroke: #9467bd; stroke-opacity: 0.2"/>
    </defs>
    <g clip-path="url(#pe12ae8bd5d)">
     <use xlink:href="#m268676e97a" x="0" y="648" style="fill: #9467bd; fill-opacity: 0.2; stroke: #9467bd; stroke-opacity: 0.2"/>
    </g>
   </g>
   <g id="PolyCollection_6">
    <defs>
     <path id="m5800ed4a8b" d="M 47.765 -535.838307 
L 47.765 -489.106697 
L 65.4711 -487.886931 
L 83.1772 -489.362595 
L 100.8833 -488.478456 
L 118.5894 -486.375842 
L 136.2955 -486.851189 
L 154.0016 -488.18304 
L 171.7077 -484.106857 
L 189.4138 -484.166877 
L 207.1199 -487.50696 
L 224.826 -490.206181 
L 242.5321 -489.688183 
L 260.2382 -491.546509 
L 277.9443 -489.333099 
L 295.6504 -489.034485 
L 313.3565 -489.876881 
L 331.0626 -490.388915 
L 348.7687 -490.270388 
L 366.4748 -490.164745 
L 384.1809 -487.703648 
L 401.887 -487.441893 
L 419.5931 -484.300707 
L 437.2992 -484.534354 
L 455.0053 -486.945136 
L 472.7114 -489.144787 
L 490.4175 -482.28784 
L 508.1236 -485.884884 
L 525.8297 -485.041061 
L 543.5358 -488.146703 
L 561.2419 -489.718494 
L 578.948 -493.412163 
L 596.6541 -494.386771 
L 614.3602 -490.027153 
L 632.0663 -494.01433 
L 649.7724 -498.763148 
L 667.4785 -497.142836 
L 685.1846 -505.236625 
L 702.8907 -506.097168 
L 720.5968 -507.189039 
L 738.3029 -508.112463 
L 756.009 -510.621177 
L 773.7151 -513.111443 
L 791.4212 -517.64487 
L 809.1273 -514.484324 
L 826.8334 -510.148429 
L 844.5395 -507.595083 
L 862.2456 -507.243849 
L 879.9517 -510.780162 
L 897.6578 -512.522891 
L 915.3639 -518.8259 
L 933.07 -521.887167 
L 933.07 -577.125932 
L 933.07 -577.125932 
L 915.3639 -575.148119 
L 897.6578 -574.81022 
L 879.9517 -574.098325 
L 862.2456 -568.82557 
L 844.5395 -566.988299 
L 826.8334 -568.914702 
L 809.1273 -565.659909 
L 791.4212 -566.043371 
L 773.7151 -562.503546 
L 756.009 -560.39618 
L 738.3029 -558.149708 
L 720.5968 -556.633318 
L 702.8907 -554.830198 
L 685.1846 -553.360323 
L 667.4785 -551.875566 
L 649.7724 -551.864763 
L 632.0663 -549.523603 
L 614.3602 -546.725686 
L 596.6541 -547.280012 
L 578.948 -546.241794 
L 561.2419 -544.263698 
L 543.5358 -543.286947 
L 525.8297 -537.771479 
L 508.1236 -539.62475 
L 490.4175 -538.365031 
L 472.7114 -539.593023 
L 455.0053 -540.771055 
L 437.2992 -540.2591 
L 419.5931 -538.634339 
L 401.887 -536.254996 
L 384.1809 -535.682277 
L 366.4748 -537.056664 
L 348.7687 -538.304875 
L 331.0626 -539.292628 
L 313.3565 -539.695577 
L 295.6504 -538.569026 
L 277.9443 -534.205875 
L 260.2382 -534.145358 
L 242.5321 -532.838196 
L 224.826 -534.19283 
L 207.1199 -533.593348 
L 189.4138 -536.322407 
L 171.7077 -536.357217 
L 154.0016 -533.116604 
L 136.2955 -535.181969 
L 118.5894 -534.32667 
L 100.8833 -535.481418 
L 83.1772 -535.895801 
L 65.4711 -533.929324 
L 47.765 -535.838307 
z
" style="stroke: #8c564b; stroke-opacity: 0.2"/>
    </defs>
    <g clip-path="url(#pe12ae8bd5d)">
     <use xlink:href="#m5800ed4a8b" x="0" y="648" style="fill: #8c564b; fill-opacity: 0.2; stroke: #8c564b; stroke-opacity: 0.2"/>
    </g>
   </g>
   <g id="PolyCollection_7">
    <defs>
     <path id="mc6fde075f6" d="M 47.765 -506.825851 
L 47.765 -467.09994 
L 65.4711 -465.598545 
L 83.1772 -463.985736 
L 100.8833 -462.304202 
L 118.5894 -461.446527 
L 136.2955 -461.675301 
L 154.0016 -462.009927 
L 171.7077 -464.030107 
L 189.4138 -468.943145 
L 207.1199 -466.386591 
L 224.826 -467.890015 
L 242.5321 -470.178418 
L 260.2382 -468.937768 
L 277.9443 -467.658841 
L 295.6504 -472.298783 
L 313.3565 -471.006747 
L 331.0626 -469.032367 
L 348.7687 -476.12853 
L 366.4748 -477.742027 
L 384.1809 -477.071488 
L 401.887 -476.811456 
L 419.5931 -485.219229 
L 437.2992 -480.328683 
L 455.0053 -479.84888 
L 472.7114 -480.116432 
L 490.4175 -476.240046 
L 508.1236 -475.523096 
L 525.8297 -479.866277 
L 543.5358 -479.337679 
L 561.2419 -484.635957 
L 578.948 -486.178967 
L 596.6541 -485.622141 
L 614.3602 -486.041055 
L 632.0663 -489.339165 
L 649.7724 -492.044905 
L 667.4785 -493.840665 
L 685.1846 -495.787223 
L 702.8907 -497.281963 
L 720.5968 -501.44213 
L 738.3029 -507.329084 
L 756.009 -507.6415 
L 773.7151 -510.370527 
L 791.4212 -508.915555 
L 809.1273 -509.341782 
L 826.8334 -508.983022 
L 844.5395 -513.407555 
L 862.2456 -519.73996 
L 879.9517 -517.107913 
L 897.6578 -516.974562 
L 915.3639 -516.768997 
L 933.07 -512.597593 
L 933.07 -565.132881 
L 933.07 -565.132881 
L 915.3639 -565.395774 
L 897.6578 -563.87277 
L 879.9517 -564.367886 
L 862.2456 -565.525551 
L 844.5395 -561.198091 
L 826.8334 -559.527607 
L 809.1273 -552.835475 
L 791.4212 -554.811248 
L 773.7151 -557.495064 
L 756.009 -553.249859 
L 738.3029 -551.451215 
L 720.5968 -547.510037 
L 702.8907 -546.345418 
L 685.1846 -538.086954 
L 667.4785 -538.257532 
L 649.7724 -537.094213 
L 632.0663 -534.682582 
L 614.3602 -531.737082 
L 596.6541 -532.280441 
L 578.948 -532.289097 
L 561.2419 -532.134448 
L 543.5358 -528.776371 
L 525.8297 -525.104782 
L 508.1236 -525.507368 
L 490.4175 -525.835824 
L 472.7114 -523.696804 
L 455.0053 -523.680284 
L 437.2992 -523.632966 
L 419.5931 -524.592184 
L 401.887 -516.488478 
L 384.1809 -515.991097 
L 366.4748 -516.908538 
L 348.7687 -519.508179 
L 331.0626 -520.137346 
L 313.3565 -521.302842 
L 295.6504 -521.930578 
L 277.9443 -523.182273 
L 260.2382 -520.797283 
L 242.5321 -521.726885 
L 224.826 -523.369917 
L 207.1199 -520.294217 
L 189.4138 -518.001184 
L 171.7077 -514.164676 
L 154.0016 -513.780797 
L 136.2955 -510.707154 
L 118.5894 -507.297168 
L 100.8833 -506.770503 
L 83.1772 -506.443169 
L 65.4711 -506.265789 
L 47.765 -506.825851 
z
" style="stroke: #e377c2; stroke-opacity: 0.2"/>
    </defs>
    <g clip-path="url(#pe12ae8bd5d)">
     <use xlink:href="#mc6fde075f6" x="0" y="648" style="fill: #e377c2; fill-opacity: 0.2; stroke: #e377c2; stroke-opacity: 0.2"/>
    </g>
   </g>
   <g id="PolyCollection_8">
    <defs>
     <path id="m3056ffa5ca" d="M 47.765 -512.056842 
L 47.765 -468.170734 
L 65.4711 -470.726819 
L 83.1772 -471.494219 
L 100.8833 -475.822317 
L 118.5894 -476.260956 
L 136.2955 -476.258165 
L 154.0016 -474.158649 
L 171.7077 -475.203102 
L 189.4138 -476.832054 
L 207.1199 -475.569761 
L 224.826 -471.255644 
L 242.5321 -477.966644 
L 260.2382 -482.171588 
L 277.9443 -479.386993 
L 295.6504 -482.783864 
L 313.3565 -478.039536 
L 331.0626 -481.765141 
L 348.7687 -485.717031 
L 366.4748 -483.371917 
L 384.1809 -481.837076 
L 401.887 -479.972829 
L 419.5931 -484.175961 
L 437.2992 -484.33476 
L 455.0053 -481.785152 
L 472.7114 -482.673546 
L 490.4175 -479.914732 
L 508.1236 -479.76828 
L 525.8297 -478.366612 
L 543.5358 -474.927532 
L 561.2419 -474.809883 
L 578.948 -482.365115 
L 596.6541 -481.148715 
L 614.3602 -486.227555 
L 632.0663 -489.645261 
L 649.7724 -490.460354 
L 667.4785 -490.570368 
L 685.1846 -492.648573 
L 702.8907 -493.478325 
L 720.5968 -496.639655 
L 738.3029 -494.940856 
L 756.009 -506.845324 
L 773.7151 -509.000338 
L 791.4212 -511.616009 
L 809.1273 -511.444554 
L 826.8334 -512.490196 
L 844.5395 -514.382376 
L 862.2456 -517.661974 
L 879.9517 -517.84936 
L 897.6578 -518.602696 
L 915.3639 -516.59305 
L 933.07 -518.160657 
L 933.07 -577.234414 
L 933.07 -577.234414 
L 915.3639 -572.265874 
L 897.6578 -568.181769 
L 879.9517 -565.385637 
L 862.2456 -570.263684 
L 844.5395 -566.963395 
L 826.8334 -565.11427 
L 809.1273 -563.989881 
L 791.4212 -564.585921 
L 773.7151 -561.944733 
L 756.009 -559.814238 
L 738.3029 -554.718393 
L 720.5968 -554.814299 
L 702.8907 -551.232729 
L 685.1846 -548.622956 
L 667.4785 -543.387892 
L 649.7724 -542.583816 
L 632.0663 -541.713078 
L 614.3602 -537.493788 
L 596.6541 -532.090104 
L 578.948 -532.7613 
L 561.2419 -532.269576 
L 543.5358 -532.454959 
L 525.8297 -528.485449 
L 508.1236 -528.843528 
L 490.4175 -528.9839 
L 472.7114 -528.758806 
L 455.0053 -528.3769 
L 437.2992 -527.153094 
L 419.5931 -525.834418 
L 401.887 -523.759907 
L 384.1809 -523.884539 
L 366.4748 -524.865798 
L 348.7687 -525.229691 
L 331.0626 -526.105417 
L 313.3565 -526.35179 
L 295.6504 -524.303417 
L 277.9443 -524.849836 
L 260.2382 -525.573389 
L 242.5321 -526.596947 
L 224.826 -528.417406 
L 207.1199 -528.063157 
L 189.4138 -527.905842 
L 171.7077 -527.429015 
L 154.0016 -526.661469 
L 136.2955 -528.905129 
L 118.5894 -525.066233 
L 100.8833 -525.607638 
L 83.1772 -520.974822 
L 65.4711 -520.278826 
L 47.765 -512.056842 
z
" style="stroke: #7f7f7f; stroke-opacity: 0.2"/>
    </defs>
    <g clip-path="url(#pe12ae8bd5d)">
     <use xlink:href="#m3056ffa5ca" x="0" y="648" style="fill: #7f7f7f; fill-opacity: 0.2; stroke: #7f7f7f; stroke-opacity: 0.2"/>
    </g>
   </g>
   <g id="PolyCollection_9">
    <defs>
     <path id="m8f8f4ba8b6" d="M 47.765 -539.463481 
L 47.765 -502 
L 65.4711 -499.7524 
L 83.1772 -501.592504 
L 100.8833 -497.773046 
L 118.5894 -497.349226 
L 136.2955 -494.979569 
L 154.0016 -494.263725 
L 171.7077 -489.752923 
L 189.4138 -490.75016 
L 207.1199 -488.941347 
L 224.826 -488.115824 
L 242.5321 -486.471557 
L 260.2382 -487.827509 
L 277.9443 -493.937497 
L 295.6504 -490.33719 
L 313.3565 -485.661717 
L 331.0626 -489.462373 
L 348.7687 -493.963533 
L 366.4748 -493.251611 
L 384.1809 -490.376557 
L 401.887 -493.580899 
L 419.5931 -499.284416 
L 437.2992 -500.653634 
L 455.0053 -503.019873 
L 472.7114 -503.835575 
L 490.4175 -503.290212 
L 508.1236 -509.714666 
L 525.8297 -512.685738 
L 543.5358 -515.504495 
L 561.2419 -519.079066 
L 578.948 -518.086717 
L 596.6541 -520.025998 
L 614.3602 -521.457335 
L 632.0663 -522.77346 
L 649.7724 -522.241291 
L 667.4785 -524.228304 
L 685.1846 -524.094752 
L 702.8907 -521.432496 
L 720.5968 -523.88316 
L 738.3029 -524.682854 
L 756.009 -525.822502 
L 773.7151 -524.393282 
L 791.4212 -518.555232 
L 809.1273 -525.519383 
L 826.8334 -519.935136 
L 844.5395 -524.335946 
L 862.2456 -527.612722 
L 879.9517 -521.538121 
L 897.6578 -519.736148 
L 915.3639 -520.997307 
L 933.07 -525.956957 
L 933.07 -591.030281 
L 933.07 -591.030281 
L 915.3639 -591.950703 
L 897.6578 -588.192441 
L 879.9517 -590.808582 
L 862.2456 -585.929599 
L 844.5395 -582.827075 
L 826.8334 -578.298726 
L 809.1273 -583.245615 
L 791.4212 -584.263992 
L 773.7151 -578.395609 
L 756.009 -578.546874 
L 738.3029 -575.665035 
L 720.5968 -574.859287 
L 702.8907 -568.314691 
L 685.1846 -568.221638 
L 667.4785 -566.304981 
L 649.7724 -566.532448 
L 632.0663 -568.051042 
L 614.3602 -566.784556 
L 596.6541 -564.006325 
L 578.948 -562.862712 
L 561.2419 -562.157459 
L 543.5358 -557.87477 
L 525.8297 -556.292089 
L 508.1236 -553.595566 
L 490.4175 -549.086176 
L 472.7114 -546.497223 
L 455.0053 -545.272972 
L 437.2992 -544.491199 
L 419.5931 -543.823906 
L 401.887 -542.17013 
L 384.1809 -543.185567 
L 366.4748 -542.44659 
L 348.7687 -542.219262 
L 331.0626 -538.278617 
L 313.3565 -534.677736 
L 295.6504 -533.52648 
L 277.9443 -535.221578 
L 260.2382 -531.087405 
L 242.5321 -531.042102 
L 224.826 -531.455004 
L 207.1199 -532.79766 
L 189.4138 -533.240346 
L 171.7077 -531.954042 
L 154.0016 -533.312908 
L 136.2955 -532.677226 
L 118.5894 -534.643119 
L 100.8833 -534.950036 
L 83.1772 -536.222856 
L 65.4711 -540.912254 
L 47.765 -539.463481 
z
" style="stroke: #bcbd22; stroke-opacity: 0.2"/>
    </defs>
    <g clip-path="url(#pe12ae8bd5d)">
     <use xlink:href="#m8f8f4ba8b6" x="0" y="648" style="fill: #bcbd22; fill-opacity: 0.2; stroke: #bcbd22; stroke-opacity: 0.2"/>
    </g>
   </g>
   <g id="PolyCollection_10">
    <defs>
     <path id="ma2d1a09748" d="M 47.765 -535.205294 
L 47.765 -483.930155 
L 65.4711 -484.525362 
L 83.1772 -482.909431 
L 100.8833 -485.680397 
L 118.5894 -481.271282 
L 136.2955 -482.147778 
L 154.0016 -483.164439 
L 171.7077 -484.834034 
L 189.4138 -483.048741 
L 207.1199 -484.050886 
L 224.826 -488.739964 
L 242.5321 -484.737175 
L 260.2382 -492.821328 
L 277.9443 -488.239944 
L 295.6504 -488.772846 
L 313.3565 -489.418648 
L 331.0626 -490.70548 
L 348.7687 -496.882307 
L 366.4748 -495.95077 
L 384.1809 -495.051781 
L 401.887 -492.482131 
L 419.5931 -496.023386 
L 437.2992 -497.250207 
L 455.0053 -496.297607 
L 472.7114 -500.050026 
L 490.4175 -497.255999 
L 508.1236 -498.388722 
L 525.8297 -492.385714 
L 543.5358 -493.557025 
L 561.2419 -496.579929 
L 578.948 -496.18058 
L 596.6541 -506.713934 
L 614.3602 -507.146729 
L 632.0663 -513.325294 
L 649.7724 -512.990033 
L 667.4785 -515.311635 
L 685.1846 -513.702412 
L 702.8907 -514.409037 
L 720.5968 -513.636696 
L 738.3029 -517.987759 
L 756.009 -516.908903 
L 773.7151 -517.72862 
L 791.4212 -518.76665 
L 809.1273 -517.557066 
L 826.8334 -519.785677 
L 844.5395 -523.6355 
L 862.2456 -518.843063 
L 879.9517 -519.250672 
L 897.6578 -517.696806 
L 915.3639 -516.619692 
L 933.07 -518.176309 
L 933.07 -570.032958 
L 933.07 -570.032958 
L 915.3639 -568.555531 
L 897.6578 -566.275379 
L 879.9517 -566.45515 
L 862.2456 -567.853284 
L 844.5395 -572.403506 
L 826.8334 -572.716375 
L 809.1273 -569.476571 
L 791.4212 -566.490723 
L 773.7151 -566.755346 
L 756.009 -565.150215 
L 738.3029 -564.46106 
L 720.5968 -561.799528 
L 702.8907 -560.462454 
L 685.1846 -560.323673 
L 667.4785 -561.297306 
L 649.7724 -559.13852 
L 632.0663 -555.27499 
L 614.3602 -554.146131 
L 596.6541 -552.779831 
L 578.948 -553.209106 
L 561.2419 -551.791032 
L 543.5358 -551.202609 
L 525.8297 -550.160021 
L 508.1236 -550.244032 
L 490.4175 -549.451932 
L 472.7114 -549.192747 
L 455.0053 -550.747355 
L 437.2992 -549.857282 
L 419.5931 -544.161615 
L 401.887 -542.967614 
L 384.1809 -543.372263 
L 366.4748 -541.956774 
L 348.7687 -541.579248 
L 331.0626 -539.07193 
L 313.3565 -537.220317 
L 295.6504 -536.19704 
L 277.9443 -532.741413 
L 260.2382 -536.961017 
L 242.5321 -534.022636 
L 224.826 -535.05375 
L 207.1199 -535.204795 
L 189.4138 -534.167706 
L 171.7077 -535.322883 
L 154.0016 -535.242941 
L 136.2955 -534.967336 
L 118.5894 -535.267853 
L 100.8833 -536.938516 
L 83.1772 -535.669745 
L 65.4711 -537.033373 
L 47.765 -535.205294 
z
" style="stroke: #17becf; stroke-opacity: 0.2"/>
    </defs>
    <g clip-path="url(#pe12ae8bd5d)">
     <use xlink:href="#ma2d1a09748" x="0" y="648" style="fill: #17becf; fill-opacity: 0.2; stroke: #17becf; stroke-opacity: 0.2"/>
    </g>
   </g>
   <g id="PolyCollection_11">
    <defs>
     <path id="md7fa0ab21b" d="M 47.765 -514.09482 
L 47.765 -466.355425 
L 65.4711 -462.462528 
L 83.1772 -464.024121 
L 100.8833 -465.822304 
L 118.5894 -470.091416 
L 136.2955 -473.65083 
L 154.0016 -475.025146 
L 171.7077 -472.014984 
L 189.4138 -465.634473 
L 207.1199 -467.767548 
L 224.826 -468.92686 
L 242.5321 -473.126503 
L 260.2382 -473.051075 
L 277.9443 -474.558082 
L 295.6504 -479.296281 
L 313.3565 -479.721689 
L 331.0626 -480.627174 
L 348.7687 -480.87062 
L 366.4748 -480.967575 
L 384.1809 -490.105547 
L 401.887 -480.186347 
L 419.5931 -483.975686 
L 437.2992 -494.58384 
L 455.0053 -501.045249 
L 472.7114 -502.363071 
L 490.4175 -503.59899 
L 508.1236 -505.019729 
L 525.8297 -505.471825 
L 543.5358 -504.43708 
L 561.2419 -504.389074 
L 578.948 -506.572767 
L 596.6541 -509.12671 
L 614.3602 -511.240801 
L 632.0663 -510.838472 
L 649.7724 -511.622691 
L 667.4785 -501.562888 
L 685.1846 -499.974378 
L 702.8907 -500.113579 
L 720.5968 -500.417523 
L 738.3029 -498.955682 
L 756.009 -505.985866 
L 773.7151 -508.230157 
L 791.4212 -509.198772 
L 809.1273 -508.022441 
L 826.8334 -508.958908 
L 844.5395 -510.3559 
L 862.2456 -511.62684 
L 879.9517 -512.635221 
L 897.6578 -517.905661 
L 915.3639 -516.275763 
L 933.07 -520.982711 
L 933.07 -583.434364 
L 933.07 -583.434364 
L 915.3639 -580.066604 
L 897.6578 -580.348417 
L 879.9517 -576.083307 
L 862.2456 -572.285037 
L 844.5395 -571.801262 
L 826.8334 -568.439692 
L 809.1273 -569.227043 
L 791.4212 -568.931423 
L 773.7151 -564.72718 
L 756.009 -560.012895 
L 738.3029 -563.801143 
L 720.5968 -563.533924 
L 702.8907 -563.512954 
L 685.1846 -558.691204 
L 667.4785 -559.21716 
L 649.7724 -556.895188 
L 632.0663 -555.213996 
L 614.3602 -554.294529 
L 596.6541 -553.534844 
L 578.948 -553.322307 
L 561.2419 -550.542283 
L 543.5358 -550.21564 
L 525.8297 -550.537127 
L 508.1236 -552.007703 
L 490.4175 -548.33912 
L 472.7114 -544.961442 
L 455.0053 -544.422306 
L 437.2992 -542.846968 
L 419.5931 -538.786402 
L 401.887 -534.421099 
L 384.1809 -534.182197 
L 366.4748 -528.945239 
L 348.7687 -527.088173 
L 331.0626 -526.519322 
L 313.3565 -527.399468 
L 295.6504 -526.708087 
L 277.9443 -524.532779 
L 260.2382 -521.175162 
L 242.5321 -523.896316 
L 224.826 -521.668062 
L 207.1199 -521.723858 
L 189.4138 -518.494195 
L 171.7077 -521.030758 
L 154.0016 -523.279877 
L 136.2955 -521.600215 
L 118.5894 -518.323619 
L 100.8833 -515.750218 
L 83.1772 -513.153506 
L 65.4711 -511.538375 
L 47.765 -514.09482 
z
" style="stroke: #9edae5; stroke-opacity: 0.2"/>
    </defs>
    <g clip-path="url(#pe12ae8bd5d)">
     <use xlink:href="#md7fa0ab21b" x="0" y="648" style="fill: #9edae5; fill-opacity: 0.2; stroke: #9edae5; stroke-opacity: 0.2"/>
    </g>
   </g>
   <g id="matplotlib.axis_1">
    <g id="xtick_1">
     <g id="line2d_1">
      <defs>
       <path id="mf2148314f0" d="M 0 0 
L 0 3.5 
" style="stroke: #000000; stroke-width: 0.8"/>
      </defs>
      <g>
       <use xlink:href="#mf2148314f0" x="47.765" y="606.04" style="stroke: #000000; stroke-width: 0.8"/>
      </g>
     </g>
     <g id="text_1">
      <!-- 30 -->
      <g transform="translate(41.4025 620.638438) scale(0.1 -0.1)">
       <defs>
        <path id="DejaVuSans-33" d="M 2597 2516 
Q 3050 2419 3304 2112 
Q 3559 1806 3559 1356 
Q 3559 666 3084 287 
Q 2609 -91 1734 -91 
Q 1441 -91 1130 -33 
Q 819 25 488 141 
L 488 750 
Q 750 597 1062 519 
Q 1375 441 1716 441 
Q 2309 441 2620 675 
Q 2931 909 2931 1356 
Q 2931 1769 2642 2001 
Q 2353 2234 1838 2234 
L 1294 2234 
L 1294 2753 
L 1863 2753 
Q 2328 2753 2575 2939 
Q 2822 3125 2822 3475 
Q 2822 3834 2567 4026 
Q 2313 4219 1838 4219 
Q 1578 4219 1281 4162 
Q 984 4106 628 3988 
L 628 4550 
Q 988 4650 1302 4700 
Q 1616 4750 1894 4750 
Q 2613 4750 3031 4423 
Q 3450 4097 3450 3541 
Q 3450 3153 3228 2886 
Q 3006 2619 2597 2516 
z
" transform="scale(0.015625)"/>
        <path id="DejaVuSans-30" d="M 2034 4250 
Q 1547 4250 1301 3770 
Q 1056 3291 1056 2328 
Q 1056 1369 1301 889 
Q 1547 409 2034 409 
Q 2525 409 2770 889 
Q 3016 1369 3016 2328 
Q 3016 3291 2770 3770 
Q 2525 4250 2034 4250 
z
M 2034 4750 
Q 2819 4750 3233 4129 
Q 3647 3509 3647 2328 
Q 3647 1150 3233 529 
Q 2819 -91 2034 -91 
Q 1250 -91 836 529 
Q 422 1150 422 2328 
Q 422 3509 836 4129 
Q 1250 4750 2034 4750 
z
" transform="scale(0.015625)"/>
       </defs>
       <use xlink:href="#DejaVuSans-33"/>
       <use xlink:href="#DejaVuSans-30" x="63.623047"/>
      </g>
     </g>
    </g>
    <g id="xtick_2">
     <g id="line2d_2">
      <g>
       <use xlink:href="#mf2148314f0" x="224.826" y="606.04" style="stroke: #000000; stroke-width: 0.8"/>
      </g>
     </g>
     <g id="text_2">
      <!-- 40 -->
      <g transform="translate(218.4635 620.638438) scale(0.1 -0.1)">
       <defs>
        <path id="DejaVuSans-34" d="M 2419 4116 
L 825 1625 
L 2419 1625 
L 2419 4116 
z
M 2253 4666 
L 3047 4666 
L 3047 1625 
L 3713 1625 
L 3713 1100 
L 3047 1100 
L 3047 0 
L 2419 0 
L 2419 1100 
L 313 1100 
L 313 1709 
L 2253 4666 
z
" transform="scale(0.015625)"/>
       </defs>
       <use xlink:href="#DejaVuSans-34"/>
       <use xlink:href="#DejaVuSans-30" x="63.623047"/>
      </g>
     </g>
    </g>
    <g id="xtick_3">
     <g id="line2d_3">
      <g>
       <use xlink:href="#mf2148314f0" x="401.887" y="606.04" style="stroke: #000000; stroke-width: 0.8"/>
      </g>
     </g>
     <g id="text_3">
      <!-- 50 -->
      <g transform="translate(395.5245 620.638438) scale(0.1 -0.1)">
       <defs>
        <path id="DejaVuSans-35" d="M 691 4666 
L 3169 4666 
L 3169 4134 
L 1269 4134 
L 1269 2991 
Q 1406 3038 1543 3061 
Q 1681 3084 1819 3084 
Q 2600 3084 3056 2656 
Q 3513 2228 3513 1497 
Q 3513 744 3044 326 
Q 2575 -91 1722 -91 
Q 1428 -91 1123 -41 
Q 819 9 494 109 
L 494 744 
Q 775 591 1075 516 
Q 1375 441 1709 441 
Q 2250 441 2565 725 
Q 2881 1009 2881 1497 
Q 2881 1984 2565 2268 
Q 2250 2553 1709 2553 
Q 1456 2553 1204 2497 
Q 953 2441 691 2322 
L 691 4666 
z
" transform="scale(0.015625)"/>
       </defs>
       <use xlink:href="#DejaVuSans-35"/>
       <use xlink:href="#DejaVuSans-30" x="63.623047"/>
      </g>
     </g>
    </g>
    <g id="xtick_4">
     <g id="line2d_4">
      <g>
       <use xlink:href="#mf2148314f0" x="578.948" y="606.04" style="stroke: #000000; stroke-width: 0.8"/>
      </g>
     </g>
     <g id="text_4">
      <!-- 60 -->
      <g transform="translate(572.5855 620.638438) scale(0.1 -0.1)">
       <defs>
        <path id="DejaVuSans-36" d="M 2113 2584 
Q 1688 2584 1439 2293 
Q 1191 2003 1191 1497 
Q 1191 994 1439 701 
Q 1688 409 2113 409 
Q 2538 409 2786 701 
Q 3034 994 3034 1497 
Q 3034 2003 2786 2293 
Q 2538 2584 2113 2584 
z
M 3366 4563 
L 3366 3988 
Q 3128 4100 2886 4159 
Q 2644 4219 2406 4219 
Q 1781 4219 1451 3797 
Q 1122 3375 1075 2522 
Q 1259 2794 1537 2939 
Q 1816 3084 2150 3084 
Q 2853 3084 3261 2657 
Q 3669 2231 3669 1497 
Q 3669 778 3244 343 
Q 2819 -91 2113 -91 
Q 1303 -91 875 529 
Q 447 1150 447 2328 
Q 447 3434 972 4092 
Q 1497 4750 2381 4750 
Q 2619 4750 2861 4703 
Q 3103 4656 3366 4563 
z
" transform="scale(0.015625)"/>
       </defs>
       <use xlink:href="#DejaVuSans-36"/>
       <use xlink:href="#DejaVuSans-30" x="63.623047"/>
      </g>
     </g>
    </g>
    <g id="xtick_5">
     <g id="line2d_5">
      <g>
       <use xlink:href="#mf2148314f0" x="756.009" y="606.04" style="stroke: #000000; stroke-width: 0.8"/>
      </g>
     </g>
     <g id="text_5">
      <!-- 70 -->
      <g transform="translate(749.6465 620.638438) scale(0.1 -0.1)">
       <defs>
        <path id="DejaVuSans-37" d="M 525 4666 
L 3525 4666 
L 3525 4397 
L 1831 0 
L 1172 0 
L 2766 4134 
L 525 4134 
L 525 4666 
z
" transform="scale(0.015625)"/>
       </defs>
       <use xlink:href="#DejaVuSans-37"/>
       <use xlink:href="#DejaVuSans-30" x="63.623047"/>
      </g>
     </g>
    </g>
    <g id="xtick_6">
     <g id="line2d_6">
      <g>
       <use xlink:href="#mf2148314f0" x="933.07" y="606.04" style="stroke: #000000; stroke-width: 0.8"/>
      </g>
     </g>
     <g id="text_6">
      <!-- 80 -->
      <g transform="translate(926.7075 620.638438) scale(0.1 -0.1)">
       <defs>
        <path id="DejaVuSans-38" d="M 2034 2216 
Q 1584 2216 1326 1975 
Q 1069 1734 1069 1313 
Q 1069 891 1326 650 
Q 1584 409 2034 409 
Q 2484 409 2743 651 
Q 3003 894 3003 1313 
Q 3003 1734 2745 1975 
Q 2488 2216 2034 2216 
z
M 1403 2484 
Q 997 2584 770 2862 
Q 544 3141 544 3541 
Q 544 4100 942 4425 
Q 1341 4750 2034 4750 
Q 2731 4750 3128 4425 
Q 3525 4100 3525 3541 
Q 3525 3141 3298 2862 
Q 3072 2584 2669 2484 
Q 3125 2378 3379 2068 
Q 3634 1759 3634 1313 
Q 3634 634 3220 271 
Q 2806 -91 2034 -91 
Q 1263 -91 848 271 
Q 434 634 434 1313 
Q 434 1759 690 2068 
Q 947 2378 1403 2484 
z
M 1172 3481 
Q 1172 3119 1398 2916 
Q 1625 2713 2034 2713 
Q 2441 2713 2670 2916 
Q 2900 3119 2900 3481 
Q 2900 3844 2670 4047 
Q 2441 4250 2034 4250 
Q 1625 4250 1398 4047 
Q 1172 3844 1172 3481 
z
" transform="scale(0.015625)"/>
       </defs>
       <use xlink:href="#DejaVuSans-38"/>
       <use xlink:href="#DejaVuSans-30" x="63.623047"/>
      </g>
     </g>
    </g>
    <g id="text_7">
     <!-- Number of Baits -->
     <g transform="translate(449.885469 634.316563) scale(0.1 -0.1)">
      <defs>
       <path id="DejaVuSans-4e" d="M 628 4666 
L 1478 4666 
L 3547 763 
L 3547 4666 
L 4159 4666 
L 4159 0 
L 3309 0 
L 1241 3903 
L 1241 0 
L 628 0 
L 628 4666 
z
" transform="scale(0.015625)"/>
       <path id="DejaVuSans-75" d="M 544 1381 
L 544 3500 
L 1119 3500 
L 1119 1403 
Q 1119 906 1312 657 
Q 1506 409 1894 409 
Q 2359 409 2629 706 
Q 2900 1003 2900 1516 
L 2900 3500 
L 3475 3500 
L 3475 0 
L 2900 0 
L 2900 538 
Q 2691 219 2414 64 
Q 2138 -91 1772 -91 
Q 1169 -91 856 284 
Q 544 659 544 1381 
z
M 1991 3584 
L 1991 3584 
z
" transform="scale(0.015625)"/>
       <path id="DejaVuSans-6d" d="M 3328 2828 
Q 3544 3216 3844 3400 
Q 4144 3584 4550 3584 
Q 5097 3584 5394 3201 
Q 5691 2819 5691 2113 
L 5691 0 
L 5113 0 
L 5113 2094 
Q 5113 2597 4934 2840 
Q 4756 3084 4391 3084 
Q 3944 3084 3684 2787 
Q 3425 2491 3425 1978 
L 3425 0 
L 2847 0 
L 2847 2094 
Q 2847 2600 2669 2842 
Q 2491 3084 2119 3084 
Q 1678 3084 1418 2786 
Q 1159 2488 1159 1978 
L 1159 0 
L 581 0 
L 581 3500 
L 1159 3500 
L 1159 2956 
Q 1356 3278 1631 3431 
Q 1906 3584 2284 3584 
Q 2666 3584 2933 3390 
Q 3200 3197 3328 2828 
z
" transform="scale(0.015625)"/>
       <path id="DejaVuSans-62" d="M 3116 1747 
Q 3116 2381 2855 2742 
Q 2594 3103 2138 3103 
Q 1681 3103 1420 2742 
Q 1159 2381 1159 1747 
Q 1159 1113 1420 752 
Q 1681 391 2138 391 
Q 2594 391 2855 752 
Q 3116 1113 3116 1747 
z
M 1159 2969 
Q 1341 3281 1617 3432 
Q 1894 3584 2278 3584 
Q 2916 3584 3314 3078 
Q 3713 2572 3713 1747 
Q 3713 922 3314 415 
Q 2916 -91 2278 -91 
Q 1894 -91 1617 61 
Q 1341 213 1159 525 
L 1159 0 
L 581 0 
L 581 4863 
L 1159 4863 
L 1159 2969 
z
" transform="scale(0.015625)"/>
       <path id="DejaVuSans-65" d="M 3597 1894 
L 3597 1613 
L 953 1613 
Q 991 1019 1311 708 
Q 1631 397 2203 397 
Q 2534 397 2845 478 
Q 3156 559 3463 722 
L 3463 178 
Q 3153 47 2828 -22 
Q 2503 -91 2169 -91 
Q 1331 -91 842 396 
Q 353 884 353 1716 
Q 353 2575 817 3079 
Q 1281 3584 2069 3584 
Q 2775 3584 3186 3129 
Q 3597 2675 3597 1894 
z
M 3022 2063 
Q 3016 2534 2758 2815 
Q 2500 3097 2075 3097 
Q 1594 3097 1305 2825 
Q 1016 2553 972 2059 
L 3022 2063 
z
" transform="scale(0.015625)"/>
       <path id="DejaVuSans-72" d="M 2631 2963 
Q 2534 3019 2420 3045 
Q 2306 3072 2169 3072 
Q 1681 3072 1420 2755 
Q 1159 2438 1159 1844 
L 1159 0 
L 581 0 
L 581 3500 
L 1159 3500 
L 1159 2956 
Q 1341 3275 1631 3429 
Q 1922 3584 2338 3584 
Q 2397 3584 2469 3576 
Q 2541 3569 2628 3553 
L 2631 2963 
z
" transform="scale(0.015625)"/>
       <path id="DejaVuSans-20" transform="scale(0.015625)"/>
       <path id="DejaVuSans-6f" d="M 1959 3097 
Q 1497 3097 1228 2736 
Q 959 2375 959 1747 
Q 959 1119 1226 758 
Q 1494 397 1959 397 
Q 2419 397 2687 759 
Q 2956 1122 2956 1747 
Q 2956 2369 2687 2733 
Q 2419 3097 1959 3097 
z
M 1959 3584 
Q 2709 3584 3137 3096 
Q 3566 2609 3566 1747 
Q 3566 888 3137 398 
Q 2709 -91 1959 -91 
Q 1206 -91 779 398 
Q 353 888 353 1747 
Q 353 2609 779 3096 
Q 1206 3584 1959 3584 
z
" transform="scale(0.015625)"/>
       <path id="DejaVuSans-66" d="M 2375 4863 
L 2375 4384 
L 1825 4384 
Q 1516 4384 1395 4259 
Q 1275 4134 1275 3809 
L 1275 3500 
L 2222 3500 
L 2222 3053 
L 1275 3053 
L 1275 0 
L 697 0 
L 697 3053 
L 147 3053 
L 147 3500 
L 697 3500 
L 697 3744 
Q 697 4328 969 4595 
Q 1241 4863 1831 4863 
L 2375 4863 
z
" transform="scale(0.015625)"/>
       <path id="DejaVuSans-42" d="M 1259 2228 
L 1259 519 
L 2272 519 
Q 2781 519 3026 730 
Q 3272 941 3272 1375 
Q 3272 1813 3026 2020 
Q 2781 2228 2272 2228 
L 1259 2228 
z
M 1259 4147 
L 1259 2741 
L 2194 2741 
Q 2656 2741 2882 2914 
Q 3109 3088 3109 3444 
Q 3109 3797 2882 3972 
Q 2656 4147 2194 4147 
L 1259 4147 
z
M 628 4666 
L 2241 4666 
Q 2963 4666 3353 4366 
Q 3744 4066 3744 3513 
Q 3744 3084 3544 2831 
Q 3344 2578 2956 2516 
Q 3422 2416 3680 2098 
Q 3938 1781 3938 1306 
Q 3938 681 3513 340 
Q 3088 0 2303 0 
L 628 0 
L 628 4666 
z
" transform="scale(0.015625)"/>
       <path id="DejaVuSans-61" d="M 2194 1759 
Q 1497 1759 1228 1600 
Q 959 1441 959 1056 
Q 959 750 1161 570 
Q 1363 391 1709 391 
Q 2188 391 2477 730 
Q 2766 1069 2766 1631 
L 2766 1759 
L 2194 1759 
z
M 3341 1997 
L 3341 0 
L 2766 0 
L 2766 531 
Q 2569 213 2275 61 
Q 1981 -91 1556 -91 
Q 1019 -91 701 211 
Q 384 513 384 1019 
Q 384 1609 779 1909 
Q 1175 2209 1959 2209 
L 2766 2209 
L 2766 2266 
Q 2766 2663 2505 2880 
Q 2244 3097 1772 3097 
Q 1472 3097 1187 3025 
Q 903 2953 641 2809 
L 641 3341 
Q 956 3463 1253 3523 
Q 1550 3584 1831 3584 
Q 2591 3584 2966 3190 
Q 3341 2797 3341 1997 
z
" transform="scale(0.015625)"/>
       <path id="DejaVuSans-69" d="M 603 3500 
L 1178 3500 
L 1178 0 
L 603 0 
L 603 3500 
z
M 603 4863 
L 1178 4863 
L 1178 4134 
L 603 4134 
L 603 4863 
z
" transform="scale(0.015625)"/>
       <path id="DejaVuSans-74" d="M 1172 4494 
L 1172 3500 
L 2356 3500 
L 2356 3053 
L 1172 3053 
L 1172 1153 
Q 1172 725 1289 603 
Q 1406 481 1766 481 
L 2356 481 
L 2356 0 
L 1766 0 
Q 1100 0 847 248 
Q 594 497 594 1153 
L 594 3053 
L 172 3053 
L 172 3500 
L 594 3500 
L 594 4494 
L 1172 4494 
z
" transform="scale(0.015625)"/>
       <path id="DejaVuSans-73" d="M 2834 3397 
L 2834 2853 
Q 2591 2978 2328 3040 
Q 2066 3103 1784 3103 
Q 1356 3103 1142 2972 
Q 928 2841 928 2578 
Q 928 2378 1081 2264 
Q 1234 2150 1697 2047 
L 1894 2003 
Q 2506 1872 2764 1633 
Q 3022 1394 3022 966 
Q 3022 478 2636 193 
Q 2250 -91 1575 -91 
Q 1294 -91 989 -36 
Q 684 19 347 128 
L 347 722 
Q 666 556 975 473 
Q 1284 391 1588 391 
Q 1994 391 2212 530 
Q 2431 669 2431 922 
Q 2431 1156 2273 1281 
Q 2116 1406 1581 1522 
L 1381 1569 
Q 847 1681 609 1914 
Q 372 2147 372 2553 
Q 372 3047 722 3315 
Q 1072 3584 1716 3584 
Q 2034 3584 2315 3537 
Q 2597 3491 2834 3397 
z
" transform="scale(0.015625)"/>
      </defs>
      <use xlink:href="#DejaVuSans-4e"/>
      <use xlink:href="#DejaVuSans-75" x="74.804688"/>
      <use xlink:href="#DejaVuSans-6d" x="138.183594"/>
      <use xlink:href="#DejaVuSans-62" x="235.595703"/>
      <use xlink:href="#DejaVuSans-65" x="299.072266"/>
      <use xlink:href="#DejaVuSans-72" x="360.595703"/>
      <use xlink:href="#DejaVuSans-20" x="401.708984"/>
      <use xlink:href="#DejaVuSans-6f" x="433.496094"/>
      <use xlink:href="#DejaVuSans-66" x="494.677734"/>
      <use xlink:href="#DejaVuSans-20" x="529.882812"/>
      <use xlink:href="#DejaVuSans-42" x="561.669922"/>
      <use xlink:href="#DejaVuSans-61" x="630.273438"/>
      <use xlink:href="#DejaVuSans-69" x="691.552734"/>
      <use xlink:href="#DejaVuSans-74" x="719.335938"/>
      <use xlink:href="#DejaVuSans-73" x="758.544922"/>
     </g>
    </g>
   </g>
   <g id="matplotlib.axis_2">
    <g id="ytick_1">
     <g id="line2d_7">
      <defs>
       <path id="m09defd4fc3" d="M 0 0 
L -3.5 0 
" style="stroke: #000000; stroke-width: 0.8"/>
      </defs>
      <g>
       <use xlink:href="#m09defd4fc3" x="47.765" y="606.04" style="stroke: #000000; stroke-width: 0.8"/>
      </g>
     </g>
     <g id="text_8">
      <!-- 0.0 -->
      <g transform="translate(24.861875 609.839219) scale(0.1 -0.1)">
       <defs>
        <path id="DejaVuSans-2e" d="M 684 794 
L 1344 794 
L 1344 0 
L 684 0 
L 684 794 
z
" transform="scale(0.015625)"/>
       </defs>
       <use xlink:href="#DejaVuSans-30"/>
       <use xlink:href="#DejaVuSans-2e" x="63.623047"/>
       <use xlink:href="#DejaVuSans-30" x="95.410156"/>
      </g>
     </g>
    </g>
    <g id="ytick_2">
     <g id="line2d_8">
      <g>
       <use xlink:href="#m09defd4fc3" x="47.765" y="490.9816" style="stroke: #000000; stroke-width: 0.8"/>
      </g>
     </g>
     <g id="text_9">
      <!-- 0.2 -->
      <g transform="translate(24.861875 494.780819) scale(0.1 -0.1)">
       <defs>
        <path id="DejaVuSans-32" d="M 1228 531 
L 3431 531 
L 3431 0 
L 469 0 
L 469 531 
Q 828 903 1448 1529 
Q 2069 2156 2228 2338 
Q 2531 2678 2651 2914 
Q 2772 3150 2772 3378 
Q 2772 3750 2511 3984 
Q 2250 4219 1831 4219 
Q 1534 4219 1204 4116 
Q 875 4013 500 3803 
L 500 4441 
Q 881 4594 1212 4672 
Q 1544 4750 1819 4750 
Q 2544 4750 2975 4387 
Q 3406 4025 3406 3419 
Q 3406 3131 3298 2873 
Q 3191 2616 2906 2266 
Q 2828 2175 2409 1742 
Q 1991 1309 1228 531 
z
" transform="scale(0.015625)"/>
       </defs>
       <use xlink:href="#DejaVuSans-30"/>
       <use xlink:href="#DejaVuSans-2e" x="63.623047"/>
       <use xlink:href="#DejaVuSans-32" x="95.410156"/>
      </g>
     </g>
    </g>
    <g id="ytick_3">
     <g id="line2d_9">
      <g>
       <use xlink:href="#m09defd4fc3" x="47.765" y="375.9232" style="stroke: #000000; stroke-width: 0.8"/>
      </g>
     </g>
     <g id="text_10">
      <!-- 0.4 -->
      <g transform="translate(24.861875 379.722419) scale(0.1 -0.1)">
       <use xlink:href="#DejaVuSans-30"/>
       <use xlink:href="#DejaVuSans-2e" x="63.623047"/>
       <use xlink:href="#DejaVuSans-34" x="95.410156"/>
      </g>
     </g>
    </g>
    <g id="ytick_4">
     <g id="line2d_10">
      <g>
       <use xlink:href="#m09defd4fc3" x="47.765" y="260.8648" style="stroke: #000000; stroke-width: 0.8"/>
      </g>
     </g>
     <g id="text_11">
      <!-- 0.6 -->
      <g transform="translate(24.861875 264.664019) scale(0.1 -0.1)">
       <use xlink:href="#DejaVuSans-30"/>
       <use xlink:href="#DejaVuSans-2e" x="63.623047"/>
       <use xlink:href="#DejaVuSans-36" x="95.410156"/>
      </g>
     </g>
    </g>
    <g id="ytick_5">
     <g id="line2d_11">
      <g>
       <use xlink:href="#m09defd4fc3" x="47.765" y="145.8064" style="stroke: #000000; stroke-width: 0.8"/>
      </g>
     </g>
     <g id="text_12">
      <!-- 0.8 -->
      <g transform="translate(24.861875 149.605619) scale(0.1 -0.1)">
       <use xlink:href="#DejaVuSans-30"/>
       <use xlink:href="#DejaVuSans-2e" x="63.623047"/>
       <use xlink:href="#DejaVuSans-38" x="95.410156"/>
      </g>
     </g>
    </g>
    <g id="ytick_6">
     <g id="line2d_12">
      <g>
       <use xlink:href="#m09defd4fc3" x="47.765" y="30.748" style="stroke: #000000; stroke-width: 0.8"/>
      </g>
     </g>
     <g id="text_13">
      <!-- 1.0 -->
      <g transform="translate(24.861875 34.547219) scale(0.1 -0.1)">
       <defs>
        <path id="DejaVuSans-31" d="M 794 531 
L 1825 531 
L 1825 4091 
L 703 3866 
L 703 4441 
L 1819 4666 
L 2450 4666 
L 2450 531 
L 3481 531 
L 3481 0 
L 794 0 
L 794 531 
z
" transform="scale(0.015625)"/>
       </defs>
       <use xlink:href="#DejaVuSans-31"/>
       <use xlink:href="#DejaVuSans-2e" x="63.623047"/>
       <use xlink:href="#DejaVuSans-30" x="95.410156"/>
      </g>
     </g>
    </g>
    <g id="text_14">
     <!-- Aggregated NMF ARI Scores -->
     <g transform="translate(18.782187 388.305719) rotate(-90) scale(0.1 -0.1)">
      <defs>
       <path id="DejaVuSans-41" d="M 2188 4044 
L 1331 1722 
L 3047 1722 
L 2188 4044 
z
M 1831 4666 
L 2547 4666 
L 4325 0 
L 3669 0 
L 3244 1197 
L 1141 1197 
L 716 0 
L 50 0 
L 1831 4666 
z
" transform="scale(0.015625)"/>
       <path id="DejaVuSans-67" d="M 2906 1791 
Q 2906 2416 2648 2759 
Q 2391 3103 1925 3103 
Q 1463 3103 1205 2759 
Q 947 2416 947 1791 
Q 947 1169 1205 825 
Q 1463 481 1925 481 
Q 2391 481 2648 825 
Q 2906 1169 2906 1791 
z
M 3481 434 
Q 3481 -459 3084 -895 
Q 2688 -1331 1869 -1331 
Q 1566 -1331 1297 -1286 
Q 1028 -1241 775 -1147 
L 775 -588 
Q 1028 -725 1275 -790 
Q 1522 -856 1778 -856 
Q 2344 -856 2625 -561 
Q 2906 -266 2906 331 
L 2906 616 
Q 2728 306 2450 153 
Q 2172 0 1784 0 
Q 1141 0 747 490 
Q 353 981 353 1791 
Q 353 2603 747 3093 
Q 1141 3584 1784 3584 
Q 2172 3584 2450 3431 
Q 2728 3278 2906 2969 
L 2906 3500 
L 3481 3500 
L 3481 434 
z
" transform="scale(0.015625)"/>
       <path id="DejaVuSans-64" d="M 2906 2969 
L 2906 4863 
L 3481 4863 
L 3481 0 
L 2906 0 
L 2906 525 
Q 2725 213 2448 61 
Q 2172 -91 1784 -91 
Q 1150 -91 751 415 
Q 353 922 353 1747 
Q 353 2572 751 3078 
Q 1150 3584 1784 3584 
Q 2172 3584 2448 3432 
Q 2725 3281 2906 2969 
z
M 947 1747 
Q 947 1113 1208 752 
Q 1469 391 1925 391 
Q 2381 391 2643 752 
Q 2906 1113 2906 1747 
Q 2906 2381 2643 2742 
Q 2381 3103 1925 3103 
Q 1469 3103 1208 2742 
Q 947 2381 947 1747 
z
" transform="scale(0.015625)"/>
       <path id="DejaVuSans-4d" d="M 628 4666 
L 1569 4666 
L 2759 1491 
L 3956 4666 
L 4897 4666 
L 4897 0 
L 4281 0 
L 4281 4097 
L 3078 897 
L 2444 897 
L 1241 4097 
L 1241 0 
L 628 0 
L 628 4666 
z
" transform="scale(0.015625)"/>
       <path id="DejaVuSans-46" d="M 628 4666 
L 3309 4666 
L 3309 4134 
L 1259 4134 
L 1259 2759 
L 3109 2759 
L 3109 2228 
L 1259 2228 
L 1259 0 
L 628 0 
L 628 4666 
z
" transform="scale(0.015625)"/>
       <path id="DejaVuSans-52" d="M 2841 2188 
Q 3044 2119 3236 1894 
Q 3428 1669 3622 1275 
L 4263 0 
L 3584 0 
L 2988 1197 
Q 2756 1666 2539 1819 
Q 2322 1972 1947 1972 
L 1259 1972 
L 1259 0 
L 628 0 
L 628 4666 
L 2053 4666 
Q 2853 4666 3247 4331 
Q 3641 3997 3641 3322 
Q 3641 2881 3436 2590 
Q 3231 2300 2841 2188 
z
M 1259 4147 
L 1259 2491 
L 2053 2491 
Q 2509 2491 2742 2702 
Q 2975 2913 2975 3322 
Q 2975 3731 2742 3939 
Q 2509 4147 2053 4147 
L 1259 4147 
z
" transform="scale(0.015625)"/>
       <path id="DejaVuSans-49" d="M 628 4666 
L 1259 4666 
L 1259 0 
L 628 0 
L 628 4666 
z
" transform="scale(0.015625)"/>
       <path id="DejaVuSans-53" d="M 3425 4513 
L 3425 3897 
Q 3066 4069 2747 4153 
Q 2428 4238 2131 4238 
Q 1616 4238 1336 4038 
Q 1056 3838 1056 3469 
Q 1056 3159 1242 3001 
Q 1428 2844 1947 2747 
L 2328 2669 
Q 3034 2534 3370 2195 
Q 3706 1856 3706 1288 
Q 3706 609 3251 259 
Q 2797 -91 1919 -91 
Q 1588 -91 1214 -16 
Q 841 59 441 206 
L 441 856 
Q 825 641 1194 531 
Q 1563 422 1919 422 
Q 2459 422 2753 634 
Q 3047 847 3047 1241 
Q 3047 1584 2836 1778 
Q 2625 1972 2144 2069 
L 1759 2144 
Q 1053 2284 737 2584 
Q 422 2884 422 3419 
Q 422 4038 858 4394 
Q 1294 4750 2059 4750 
Q 2388 4750 2728 4690 
Q 3069 4631 3425 4513 
z
" transform="scale(0.015625)"/>
       <path id="DejaVuSans-63" d="M 3122 3366 
L 3122 2828 
Q 2878 2963 2633 3030 
Q 2388 3097 2138 3097 
Q 1578 3097 1268 2742 
Q 959 2388 959 1747 
Q 959 1106 1268 751 
Q 1578 397 2138 397 
Q 2388 397 2633 464 
Q 2878 531 3122 666 
L 3122 134 
Q 2881 22 2623 -34 
Q 2366 -91 2075 -91 
Q 1284 -91 818 406 
Q 353 903 353 1747 
Q 353 2603 823 3093 
Q 1294 3584 2113 3584 
Q 2378 3584 2631 3529 
Q 2884 3475 3122 3366 
z
" transform="scale(0.015625)"/>
      </defs>
      <use xlink:href="#DejaVuSans-41"/>
      <use xlink:href="#DejaVuSans-67" x="68.408203"/>
      <use xlink:href="#DejaVuSans-67" x="131.884766"/>
      <use xlink:href="#DejaVuSans-72" x="195.361328"/>
      <use xlink:href="#DejaVuSans-65" x="234.224609"/>
      <use xlink:href="#DejaVuSans-67" x="295.748047"/>
      <use xlink:href="#DejaVuSans-61" x="359.224609"/>
      <use xlink:href="#DejaVuSans-74" x="420.503906"/>
      <use xlink:href="#DejaVuSans-65" x="459.712891"/>
      <use xlink:href="#DejaVuSans-64" x="521.236328"/>
      <use xlink:href="#DejaVuSans-20" x="584.712891"/>
      <use xlink:href="#DejaVuSans-4e" x="616.5"/>
      <use xlink:href="#DejaVuSans-4d" x="691.304688"/>
      <use xlink:href="#DejaVuSans-46" x="777.583984"/>
      <use xlink:href="#DejaVuSans-20" x="835.103516"/>
      <use xlink:href="#DejaVuSans-41" x="866.890625"/>
      <use xlink:href="#DejaVuSans-52" x="935.298828"/>
      <use xlink:href="#DejaVuSans-49" x="1004.78125"/>
      <use xlink:href="#DejaVuSans-20" x="1034.273438"/>
      <use xlink:href="#DejaVuSans-53" x="1066.060547"/>
      <use xlink:href="#DejaVuSans-63" x="1129.537109"/>
      <use xlink:href="#DejaVuSans-6f" x="1184.517578"/>
      <use xlink:href="#DejaVuSans-72" x="1245.699219"/>
      <use xlink:href="#DejaVuSans-65" x="1284.5625"/>
      <use xlink:href="#DejaVuSans-73" x="1346.085938"/>
     </g>
    </g>
   </g>
   <g id="line2d_13">
    <path d="M 47.765 106.386609 
L 65.4711 108.08378 
L 83.1772 108.931506 
L 100.8833 106.445639 
L 118.5894 107.495717 
L 136.2955 105.827251 
L 154.0016 106.927827 
L 171.7077 108.026602 
L 189.4138 104.606763 
L 207.1199 102.20969 
L 224.826 103.623772 
L 242.5321 100.593001 
L 260.2382 99.414767 
L 277.9443 99.532102 
L 295.6504 98.717264 
L 313.3565 95.731499 
L 331.0626 93.235871 
L 348.7687 95.149306 
L 366.4748 91.581883 
L 384.1809 86.956934 
L 401.887 82.964379 
L 419.5931 84.028683 
L 437.2992 79.631064 
L 455.0053 85.123268 
L 472.7114 83.435421 
L 490.4175 77.18885 
L 508.1236 80.618964 
L 525.8297 78.155807 
L 543.5358 77.696155 
L 561.2419 72.852866 
L 578.948 79.611304 
L 596.6541 71.963865 
L 614.3602 68.967043 
L 632.0663 69.596168 
L 649.7724 74.51008 
L 667.4785 65.007296 
L 685.1846 66.068484 
L 702.8907 62.117955 
L 720.5968 58.406087 
L 738.3029 65.581849 
L 756.009 56.064432 
L 773.7151 59.259243 
L 791.4212 53.625584 
L 809.1273 53.904202 
L 826.8334 51.913722 
L 844.5395 60.880575 
L 862.2456 56.391951 
L 879.9517 55.659805 
L 897.6578 47.566612 
L 915.3639 51.525185 
L 933.07 57.572147 
" clip-path="url(#pe12ae8bd5d)" style="fill: none; stroke: #1f77b4; stroke-width: 1.5; stroke-linecap: square"/>
   </g>
   <g id="line2d_14">
    <path d="M 47.765 351.654375 
L 65.4711 316.581051 
L 83.1772 334.831945 
L 100.8833 285.879083 
L 118.5894 357.178265 
L 136.2955 312.264836 
L 154.0016 335.358968 
L 171.7077 319.087856 
L 189.4138 321.422774 
L 207.1199 333.443076 
L 224.826 350.712908 
L 242.5321 309.361766 
L 260.2382 289.306518 
L 277.9443 318.015292 
L 295.6504 273.623878 
L 313.3565 316.787437 
L 331.0626 308.392585 
L 348.7687 308.692851 
L 366.4748 285.076828 
L 384.1809 298.29283 
L 401.887 276.441557 
L 419.5931 277.364521 
L 437.2992 232.418986 
L 455.0053 324.687342 
L 472.7114 262.329208 
L 490.4175 275.181377 
L 508.1236 282.359755 
L 525.8297 292.143014 
L 543.5358 297.760762 
L 561.2419 263.183648 
L 578.948 251.014349 
L 596.6541 281.113125 
L 614.3602 282.276451 
L 632.0663 253.12553 
L 649.7724 255.397746 
L 667.4785 302.390269 
L 685.1846 273.973306 
L 702.8907 284.117847 
L 720.5968 257.56666 
L 738.3029 243.028722 
L 756.009 251.267085 
L 773.7151 292.934866 
L 791.4212 248.198191 
L 809.1273 258.128175 
L 826.8334 267.197448 
L 844.5395 261.829982 
L 862.2456 240.905291 
L 879.9517 265.990494 
L 897.6578 256.572033 
L 915.3639 205.555462 
L 933.07 227.159286 
" clip-path="url(#pe12ae8bd5d)" style="fill: none; stroke: #ff7f0e; stroke-width: 1.5; stroke-linecap: square"/>
   </g>
   <g id="line2d_15">
    <path d="M 47.765 112.203575 
L 65.4711 110.052361 
L 83.1772 110.631514 
L 100.8833 108.538796 
L 118.5894 105.278394 
L 136.2955 101.409495 
L 154.0016 101.831184 
L 171.7077 103.35705 
L 189.4138 104.655215 
L 207.1199 103.558491 
L 224.826 105.605596 
L 242.5321 103.794433 
L 260.2382 105.268012 
L 277.9443 105.493102 
L 295.6504 107.891774 
L 313.3565 103.511969 
L 331.0626 101.364992 
L 348.7687 99.498054 
L 366.4748 98.43488 
L 384.1809 98.647187 
L 401.887 96.196379 
L 419.5931 96.71384 
L 437.2992 98.18666 
L 455.0053 95.118412 
L 472.7114 95.354845 
L 490.4175 94.564694 
L 508.1236 96.104891 
L 525.8297 95.871094 
L 543.5358 94.337859 
L 561.2419 94.316181 
L 578.948 97.039977 
L 596.6541 97.228411 
L 614.3602 99.485936 
L 632.0663 98.396692 
L 649.7724 93.464343 
L 667.4785 92.378349 
L 685.1846 95.430155 
L 702.8907 91.261142 
L 720.5968 87.887339 
L 738.3029 91.505664 
L 756.009 94.941966 
L 773.7151 96.004776 
L 791.4212 89.229993 
L 809.1273 88.899171 
L 826.8334 88.669363 
L 844.5395 87.73143 
L 862.2456 84.818791 
L 879.9517 83.924805 
L 897.6578 77.486221 
L 915.3639 84.505618 
L 933.07 80.47828 
" clip-path="url(#pe12ae8bd5d)" style="fill: none; stroke: #2ca02c; stroke-width: 1.5; stroke-linecap: square"/>
   </g>
   <g id="line2d_16">
    <path d="M 47.765 106.961473 
L 65.4711 103.88547 
L 83.1772 99.494436 
L 100.8833 99.366739 
L 118.5894 97.146727 
L 136.2955 96.680076 
L 154.0016 97.717531 
L 171.7077 96.55632 
L 189.4138 96.256195 
L 207.1199 93.354542 
L 224.826 95.500742 
L 242.5321 93.417788 
L 260.2382 92.735074 
L 277.9443 90.381191 
L 295.6504 91.010298 
L 313.3565 91.332747 
L 331.0626 87.489268 
L 348.7687 92.452892 
L 366.4748 92.615269 
L 384.1809 88.092946 
L 401.887 91.631944 
L 419.5931 91.446421 
L 437.2992 89.860454 
L 455.0053 90.301151 
L 472.7114 85.365289 
L 490.4175 85.271579 
L 508.1236 87.294204 
L 525.8297 85.960872 
L 543.5358 90.296936 
L 561.2419 88.373824 
L 578.948 89.113307 
L 596.6541 90.229835 
L 614.3602 94.66625 
L 632.0663 93.472714 
L 649.7724 94.125329 
L 667.4785 100.234276 
L 685.1846 89.117037 
L 702.8907 85.585589 
L 720.5968 81.795704 
L 738.3029 70.290562 
L 756.009 76.148159 
L 773.7151 72.63388 
L 791.4212 73.869005 
L 809.1273 72.723633 
L 826.8334 69.450255 
L 844.5395 76.863643 
L 862.2456 78.258878 
L 879.9517 73.434372 
L 897.6578 76.75925 
L 915.3639 71.551601 
L 933.07 65.794962 
" clip-path="url(#pe12ae8bd5d)" style="fill: none; stroke: #d62728; stroke-width: 1.5; stroke-linecap: square"/>
   </g>
   <g id="line2d_17">
    <path d="M 47.765 123.603602 
L 65.4711 121.278265 
L 83.1772 116.766328 
L 100.8833 117.259407 
L 118.5894 113.684752 
L 136.2955 112.654726 
L 154.0016 112.723998 
L 171.7077 114.982942 
L 189.4138 114.087998 
L 207.1199 110.191665 
L 224.826 107.589012 
L 242.5321 106.59443 
L 260.2382 107.097279 
L 277.9443 108.5889 
L 295.6504 108.771294 
L 313.3565 105.868448 
L 331.0626 106.208688 
L 348.7687 104.086766 
L 366.4748 99.273072 
L 384.1809 99.063235 
L 401.887 96.812099 
L 419.5931 94.524207 
L 437.2992 94.490055 
L 455.0053 95.503021 
L 472.7114 92.501977 
L 490.4175 91.058682 
L 508.1236 88.64498 
L 525.8297 86.805561 
L 543.5358 87.442239 
L 561.2419 89.928402 
L 578.948 77.330673 
L 596.6541 78.484479 
L 614.3602 79.50549 
L 632.0663 78.09319 
L 649.7724 75.569863 
L 667.4785 74.919171 
L 685.1846 74.666201 
L 702.8907 74.221544 
L 720.5968 73.858723 
L 738.3029 73.663665 
L 756.009 70.975926 
L 773.7151 72.403875 
L 791.4212 73.208747 
L 809.1273 68.170589 
L 826.8334 66.755381 
L 844.5395 69.669414 
L 862.2456 63.366158 
L 879.9517 58.813193 
L 897.6578 57.87657 
L 915.3639 57.422388 
L 933.07 58.326799 
" clip-path="url(#pe12ae8bd5d)" style="fill: none; stroke: #9467bd; stroke-width: 1.5; stroke-linecap: square"/>
   </g>
   <g id="line2d_18">
    <path d="M 47.765 135.527498 
L 65.4711 137.091872 
L 83.1772 135.370802 
L 100.8833 136.020063 
L 118.5894 137.648744 
L 136.2955 136.983421 
L 154.0016 137.350178 
L 171.7077 137.767963 
L 189.4138 137.755358 
L 207.1199 137.449846 
L 224.826 135.800495 
L 242.5321 136.73681 
L 260.2382 135.154066 
L 277.9443 136.230513 
L 295.6504 134.198245 
L 313.3565 133.213771 
L 331.0626 133.159228 
L 348.7687 133.712369 
L 366.4748 134.389295 
L 384.1809 136.307038 
L 401.887 136.151555 
L 419.5931 136.532477 
L 437.2992 135.603273 
L 455.0053 134.141905 
L 472.7114 133.631095 
L 490.4175 137.673565 
L 508.1236 135.245183 
L 525.8297 136.59373 
L 543.5358 132.283175 
L 561.2419 131.008904 
L 578.948 128.173022 
L 596.6541 127.166608 
L 614.3602 129.623581 
L 632.0663 126.231033 
L 649.7724 122.686044 
L 667.4785 123.490799 
L 685.1846 118.701526 
L 702.8907 117.536317 
L 720.5968 116.088821 
L 738.3029 114.868914 
L 756.009 112.491321 
L 773.7151 110.192505 
L 791.4212 106.155879 
L 809.1273 107.927884 
L 826.8334 108.468435 
L 844.5395 110.708309 
L 862.2456 109.965291 
L 879.9517 105.560757 
L 897.6578 104.333445 
L 915.3639 101.01299 
L 933.07 98.49345 
" clip-path="url(#pe12ae8bd5d)" style="fill: none; stroke: #8c564b; stroke-width: 1.5; stroke-linecap: square"/>
   </g>
   <g id="line2d_19">
    <path d="M 47.765 161.037105 
L 65.4711 162.067833 
L 83.1772 162.785547 
L 100.8833 163.462647 
L 118.5894 163.628152 
L 136.2955 161.808773 
L 154.0016 160.104638 
L 171.7077 158.902609 
L 189.4138 154.527835 
L 207.1199 154.659596 
L 224.826 152.370034 
L 242.5321 152.047349 
L 260.2382 153.132475 
L 277.9443 152.579443 
L 295.6504 150.88532 
L 313.3565 151.845205 
L 331.0626 153.415143 
L 348.7687 150.181645 
L 366.4748 150.674718 
L 384.1809 151.468708 
L 401.887 151.350033 
L 419.5931 143.094294 
L 437.2992 146.019176 
L 455.0053 146.235418 
L 472.7114 146.093382 
L 490.4175 146.962065 
L 508.1236 147.484768 
L 525.8297 145.51447 
L 543.5358 143.942975 
L 561.2419 139.614797 
L 578.948 138.765968 
L 596.6541 139.048709 
L 614.3602 139.110931 
L 632.0663 135.989126 
L 649.7724 133.430441 
L 667.4785 131.950901 
L 685.1846 131.062912 
L 702.8907 126.186309 
L 720.5968 123.523917 
L 738.3029 118.609851 
L 756.009 117.554321 
L 773.7151 114.067205 
L 791.4212 116.136598 
L 809.1273 116.911371 
L 826.8334 113.744686 
L 844.5395 110.697177 
L 862.2456 105.367245 
L 879.9517 107.262101 
L 897.6578 107.576334 
L 915.3639 106.917615 
L 933.07 109.134763 
" clip-path="url(#pe12ae8bd5d)" style="fill: none; stroke: #e377c2; stroke-width: 1.5; stroke-linecap: square"/>
   </g>
   <g id="line2d_20">
    <path d="M 47.765 157.886212 
L 65.4711 152.497178 
L 83.1772 151.76548 
L 100.8833 147.285023 
L 118.5894 147.336405 
L 136.2955 145.418353 
L 154.0016 147.589941 
L 171.7077 146.683941 
L 189.4138 145.631052 
L 207.1199 146.183541 
L 224.826 148.163475 
L 242.5321 145.718204 
L 260.2382 144.127512 
L 277.9443 145.881586 
L 295.6504 144.45636 
L 313.3565 145.804337 
L 331.0626 144.064721 
L 348.7687 142.526639 
L 366.4748 143.881143 
L 384.1809 145.139192 
L 401.887 146.133632 
L 419.5931 142.994811 
L 437.2992 142.256073 
L 455.0053 142.918974 
L 472.7114 142.283824 
L 490.4175 143.550684 
L 508.1236 143.694096 
L 525.8297 144.57397 
L 543.5358 144.308754 
L 561.2419 144.460271 
L 578.948 140.436793 
L 596.6541 141.38059 
L 614.3602 136.139328 
L 632.0663 132.320831 
L 649.7724 131.477915 
L 667.4785 131.02087 
L 685.1846 127.364236 
L 702.8907 125.644473 
L 720.5968 122.273023 
L 738.3029 123.170375 
L 756.009 114.670219 
L 773.7151 112.527464 
L 791.4212 109.899035 
L 809.1273 110.282782 
L 826.8334 109.197767 
L 844.5395 107.327115 
L 862.2456 104.037171 
L 879.9517 106.382501 
L 897.6578 104.607768 
L 915.3639 103.570538 
L 933.07 100.302465 
" clip-path="url(#pe12ae8bd5d)" style="fill: none; stroke: #7f7f7f; stroke-width: 1.5; stroke-linecap: square"/>
   </g>
   <g id="line2d_21">
    <path d="M 47.765 127.26826 
L 65.4711 127.667673 
L 83.1772 129.09232 
L 100.8833 131.638459 
L 118.5894 132.003827 
L 136.2955 134.171602 
L 154.0016 134.211684 
L 171.7077 137.146518 
L 189.4138 136.004747 
L 207.1199 137.130496 
L 224.826 138.214586 
L 242.5321 139.24317 
L 260.2382 138.542543 
L 277.9443 133.420463 
L 295.6504 136.068165 
L 313.3565 137.830274 
L 331.0626 134.129505 
L 348.7687 129.908602 
L 366.4748 130.150899 
L 384.1809 131.218938 
L 401.887 130.124485 
L 419.5931 126.445839 
L 437.2992 125.427583 
L 455.0053 123.853578 
L 472.7114 122.833601 
L 490.4175 121.811806 
L 508.1236 116.344884 
L 525.8297 113.511086 
L 543.5358 111.310367 
L 561.2419 107.381738 
L 578.948 107.525285 
L 596.6541 105.983838 
L 614.3602 103.879055 
L 632.0663 102.587749 
L 649.7724 103.61313 
L 667.4785 102.733357 
L 685.1846 101.841805 
L 702.8907 103.126406 
L 720.5968 98.628776 
L 738.3029 97.826056 
L 756.009 95.815312 
L 773.7151 96.605554 
L 791.4212 96.590388 
L 809.1273 93.617501 
L 826.8334 98.883069 
L 844.5395 94.418489 
L 862.2456 91.22884 
L 879.9517 91.826649 
L 897.6578 94.035705 
L 915.3639 91.525995 
L 933.07 89.506381 
" clip-path="url(#pe12ae8bd5d)" style="fill: none; stroke: #bcbd22; stroke-width: 1.5; stroke-linecap: square"/>
   </g>
   <g id="line2d_22">
    <path d="M 47.765 138.432276 
L 65.4711 137.220632 
L 83.1772 138.710412 
L 100.8833 136.690543 
L 118.5894 139.730433 
L 136.2955 139.442443 
L 154.0016 138.79631 
L 171.7077 137.921542 
L 189.4138 139.391777 
L 207.1199 138.372159 
L 224.826 136.103143 
L 242.5321 138.620095 
L 260.2382 133.108828 
L 277.9443 137.509321 
L 295.6504 135.515057 
L 313.3565 134.680517 
L 331.0626 133.111295 
L 348.7687 128.769223 
L 366.4748 129.046228 
L 384.1809 128.787978 
L 401.887 130.275128 
L 419.5931 127.907499 
L 437.2992 124.446255 
L 455.0053 124.477519 
L 472.7114 123.378614 
L 490.4175 124.646035 
L 508.1236 123.683623 
L 525.8297 126.727133 
L 543.5358 125.620183 
L 561.2419 123.81452 
L 578.948 123.305157 
L 596.6541 118.253117 
L 614.3602 117.35357 
L 632.0663 113.699858 
L 649.7724 111.935724 
L 667.4785 109.69553 
L 685.1846 110.986958 
L 702.8907 110.564255 
L 720.5968 110.281888 
L 738.3029 106.77559 
L 756.009 106.970441 
L 773.7151 105.758017 
L 791.4212 105.371314 
L 809.1273 104.483181 
L 826.8334 101.748974 
L 844.5395 99.980497 
L 862.2456 104.651827 
L 879.9517 105.147089 
L 897.6578 106.013908 
L 915.3639 105.412388 
L 933.07 103.895366 
" clip-path="url(#pe12ae8bd5d)" style="fill: none; stroke: #17becf; stroke-width: 1.5; stroke-linecap: square"/>
   </g>
   <g id="line2d_23">
    <path d="M 47.765 157.774877 
L 65.4711 160.999548 
L 83.1772 159.411187 
L 100.8833 157.213739 
L 118.5894 153.792483 
L 136.2955 150.374477 
L 154.0016 148.847489 
L 171.7077 151.477129 
L 189.4138 155.935666 
L 207.1199 153.254297 
L 224.826 152.702539 
L 242.5321 149.488591 
L 260.2382 150.886882 
L 277.9443 148.45457 
L 295.6504 144.997816 
L 313.3565 144.439421 
L 331.0626 144.426752 
L 348.7687 144.020603 
L 366.4748 143.043593 
L 384.1809 135.856128 
L 401.887 140.696277 
L 419.5931 136.618956 
L 437.2992 129.284596 
L 455.0053 125.266223 
L 472.7114 124.337743 
L 490.4175 122.030945 
L 508.1236 119.486284 
L 525.8297 119.995524 
L 543.5358 120.67364 
L 561.2419 120.534321 
L 578.948 118.052463 
L 596.6541 116.669223 
L 614.3602 115.232335 
L 632.0663 114.973766 
L 649.7724 113.74106 
L 667.4785 117.609976 
L 685.1846 118.667209 
L 702.8907 116.186733 
L 720.5968 116.024277 
L 738.3029 116.621587 
L 756.009 115.000619 
L 773.7151 111.521331 
L 791.4212 108.934903 
L 809.1273 109.375258 
L 826.8334 109.3007 
L 844.5395 106.921419 
L 862.2456 106.044062 
L 879.9517 103.640736 
L 897.6578 98.872961 
L 915.3639 99.828817 
L 933.07 95.791462 
" clip-path="url(#pe12ae8bd5d)" style="fill: none; stroke: #9edae5; stroke-width: 1.5; stroke-linecap: square"/>
   </g>
   <g id="patch_3">
    <path d="M 47.765 606.04 
L 47.765 30.748 
" style="fill: none; stroke: #000000; stroke-width: 0.8; stroke-linejoin: miter; stroke-linecap: square"/>
   </g>
   <g id="patch_4">
    <path d="M 933.07 606.04 
L 933.07 30.748 
" style="fill: none; stroke: #000000; stroke-width: 0.8; stroke-linejoin: miter; stroke-linecap: square"/>
   </g>
   <g id="patch_5">
    <path d="M 47.765 606.04 
L 933.07 606.04 
" style="fill: none; stroke: #000000; stroke-width: 0.8; stroke-linejoin: miter; stroke-linecap: square"/>
   </g>
   <g id="patch_6">
    <path d="M 47.765 30.748 
L 933.07 30.748 
" style="fill: none; stroke: #000000; stroke-width: 0.8; stroke-linejoin: miter; stroke-linecap: square"/>
   </g>
   <g id="text_15">
    <!-- Aggregated NMF ARI Scores by Number of Baits for Each Method -->
    <g transform="translate(295.666875 24.748) scale(0.12 -0.12)">
     <defs>
      <path id="DejaVuSans-79" d="M 2059 -325 
Q 1816 -950 1584 -1140 
Q 1353 -1331 966 -1331 
L 506 -1331 
L 506 -850 
L 844 -850 
Q 1081 -850 1212 -737 
Q 1344 -625 1503 -206 
L 1606 56 
L 191 3500 
L 800 3500 
L 1894 763 
L 2988 3500 
L 3597 3500 
L 2059 -325 
z
" transform="scale(0.015625)"/>
      <path id="DejaVuSans-45" d="M 628 4666 
L 3578 4666 
L 3578 4134 
L 1259 4134 
L 1259 2753 
L 3481 2753 
L 3481 2222 
L 1259 2222 
L 1259 531 
L 3634 531 
L 3634 0 
L 628 0 
L 628 4666 
z
" transform="scale(0.015625)"/>
      <path id="DejaVuSans-68" d="M 3513 2113 
L 3513 0 
L 2938 0 
L 2938 2094 
Q 2938 2591 2744 2837 
Q 2550 3084 2163 3084 
Q 1697 3084 1428 2787 
Q 1159 2491 1159 1978 
L 1159 0 
L 581 0 
L 581 4863 
L 1159 4863 
L 1159 2956 
Q 1366 3272 1645 3428 
Q 1925 3584 2291 3584 
Q 2894 3584 3203 3211 
Q 3513 2838 3513 2113 
z
" transform="scale(0.015625)"/>
     </defs>
     <use xlink:href="#DejaVuSans-41"/>
     <use xlink:href="#DejaVuSans-67" x="68.408203"/>
     <use xlink:href="#DejaVuSans-67" x="131.884766"/>
     <use xlink:href="#DejaVuSans-72" x="195.361328"/>
     <use xlink:href="#DejaVuSans-65" x="234.224609"/>
     <use xlink:href="#DejaVuSans-67" x="295.748047"/>
     <use xlink:href="#DejaVuSans-61" x="359.224609"/>
     <use xlink:href="#DejaVuSans-74" x="420.503906"/>
     <use xlink:href="#DejaVuSans-65" x="459.712891"/>
     <use xlink:href="#DejaVuSans-64" x="521.236328"/>
     <use xlink:href="#DejaVuSans-20" x="584.712891"/>
     <use xlink:href="#DejaVuSans-4e" x="616.5"/>
     <use xlink:href="#DejaVuSans-4d" x="691.304688"/>
     <use xlink:href="#DejaVuSans-46" x="777.583984"/>
     <use xlink:href="#DejaVuSans-20" x="835.103516"/>
     <use xlink:href="#DejaVuSans-41" x="866.890625"/>
     <use xlink:href="#DejaVuSans-52" x="935.298828"/>
     <use xlink:href="#DejaVuSans-49" x="1004.78125"/>
     <use xlink:href="#DejaVuSans-20" x="1034.273438"/>
     <use xlink:href="#DejaVuSans-53" x="1066.060547"/>
     <use xlink:href="#DejaVuSans-63" x="1129.537109"/>
     <use xlink:href="#DejaVuSans-6f" x="1184.517578"/>
     <use xlink:href="#DejaVuSans-72" x="1245.699219"/>
     <use xlink:href="#DejaVuSans-65" x="1284.5625"/>
     <use xlink:href="#DejaVuSans-73" x="1346.085938"/>
     <use xlink:href="#DejaVuSans-20" x="1398.185547"/>
     <use xlink:href="#DejaVuSans-62" x="1429.972656"/>
     <use xlink:href="#DejaVuSans-79" x="1493.449219"/>
     <use xlink:href="#DejaVuSans-20" x="1552.628906"/>
     <use xlink:href="#DejaVuSans-4e" x="1584.416016"/>
     <use xlink:href="#DejaVuSans-75" x="1659.220703"/>
     <use xlink:href="#DejaVuSans-6d" x="1722.599609"/>
     <use xlink:href="#DejaVuSans-62" x="1820.011719"/>
     <use xlink:href="#DejaVuSans-65" x="1883.488281"/>
     <use xlink:href="#DejaVuSans-72" x="1945.011719"/>
     <use xlink:href="#DejaVuSans-20" x="1986.125"/>
     <use xlink:href="#DejaVuSans-6f" x="2017.912109"/>
     <use xlink:href="#DejaVuSans-66" x="2079.09375"/>
     <use xlink:href="#DejaVuSans-20" x="2114.298828"/>
     <use xlink:href="#DejaVuSans-42" x="2146.085938"/>
     <use xlink:href="#DejaVuSans-61" x="2214.689453"/>
     <use xlink:href="#DejaVuSans-69" x="2275.96875"/>
     <use xlink:href="#DejaVuSans-74" x="2303.751953"/>
     <use xlink:href="#DejaVuSans-73" x="2342.960938"/>
     <use xlink:href="#DejaVuSans-20" x="2395.060547"/>
     <use xlink:href="#DejaVuSans-66" x="2426.847656"/>
     <use xlink:href="#DejaVuSans-6f" x="2462.052734"/>
     <use xlink:href="#DejaVuSans-72" x="2523.234375"/>
     <use xlink:href="#DejaVuSans-20" x="2564.347656"/>
     <use xlink:href="#DejaVuSans-45" x="2596.134766"/>
     <use xlink:href="#DejaVuSans-61" x="2659.318359"/>
     <use xlink:href="#DejaVuSans-63" x="2720.597656"/>
     <use xlink:href="#DejaVuSans-68" x="2775.578125"/>
     <use xlink:href="#DejaVuSans-20" x="2838.957031"/>
     <use xlink:href="#DejaVuSans-4d" x="2870.744141"/>
     <use xlink:href="#DejaVuSans-65" x="2957.023438"/>
     <use xlink:href="#DejaVuSans-74" x="3018.546875"/>
     <use xlink:href="#DejaVuSans-68" x="3057.755859"/>
     <use xlink:href="#DejaVuSans-6f" x="3121.134766"/>
     <use xlink:href="#DejaVuSans-64" x="3182.316406"/>
    </g>
   </g>
   <g id="legend_1">
    <g id="patch_7">
     <path d="M 940.07 172.555275 
L 1067.18875 172.555275 
Q 1069.18875 172.555275 1069.18875 170.555275 
L 1069.18875 8.9834 
Q 1069.18875 6.9834 1067.18875 6.9834 
L 940.07 6.9834 
Q 938.07 6.9834 938.07 8.9834 
L 938.07 170.555275 
Q 938.07 172.555275 940.07 172.555275 
z
" style="fill: #ffffff; opacity: 0.8; stroke: #cccccc; stroke-linejoin: miter"/>
    </g>
    <g id="line2d_24">
     <path d="M 942.07 15.081838 
L 952.07 15.081838 
L 962.07 15.081838 
" style="fill: none; stroke: #1f77b4; stroke-width: 1.5; stroke-linecap: square"/>
    </g>
    <g id="text_16">
     <!-- GA -->
     <g transform="translate(970.07 18.581838) scale(0.1 -0.1)">
      <defs>
       <path id="DejaVuSans-47" d="M 3809 666 
L 3809 1919 
L 2778 1919 
L 2778 2438 
L 4434 2438 
L 4434 434 
Q 4069 175 3628 42 
Q 3188 -91 2688 -91 
Q 1594 -91 976 548 
Q 359 1188 359 2328 
Q 359 3472 976 4111 
Q 1594 4750 2688 4750 
Q 3144 4750 3555 4637 
Q 3966 4525 4313 4306 
L 4313 3634 
Q 3963 3931 3569 4081 
Q 3175 4231 2741 4231 
Q 1884 4231 1454 3753 
Q 1025 3275 1025 2328 
Q 1025 1384 1454 906 
Q 1884 428 2741 428 
Q 3075 428 3337 486 
Q 3600 544 3809 666 
z
" transform="scale(0.015625)"/>
      </defs>
      <use xlink:href="#DejaVuSans-47"/>
      <use xlink:href="#DejaVuSans-41" x="77.490234"/>
     </g>
    </g>
    <g id="line2d_25">
     <path d="M 942.07 29.759963 
L 952.07 29.759963 
L 962.07 29.759963 
" style="fill: none; stroke: #ff7f0e; stroke-width: 1.5; stroke-linecap: square"/>
    </g>
    <g id="text_17">
     <!-- Random -->
     <g transform="translate(970.07 33.259963) scale(0.1 -0.1)">
      <defs>
       <path id="DejaVuSans-6e" d="M 3513 2113 
L 3513 0 
L 2938 0 
L 2938 2094 
Q 2938 2591 2744 2837 
Q 2550 3084 2163 3084 
Q 1697 3084 1428 2787 
Q 1159 2491 1159 1978 
L 1159 0 
L 581 0 
L 581 3500 
L 1159 3500 
L 1159 2956 
Q 1366 3272 1645 3428 
Q 1925 3584 2291 3584 
Q 2894 3584 3203 3211 
Q 3513 2838 3513 2113 
z
" transform="scale(0.015625)"/>
      </defs>
      <use xlink:href="#DejaVuSans-52"/>
      <use xlink:href="#DejaVuSans-61" x="67.232422"/>
      <use xlink:href="#DejaVuSans-6e" x="128.511719"/>
      <use xlink:href="#DejaVuSans-64" x="191.890625"/>
      <use xlink:href="#DejaVuSans-6f" x="255.367188"/>
      <use xlink:href="#DejaVuSans-6d" x="316.548828"/>
     </g>
    </g>
    <g id="line2d_26">
     <path d="M 942.07 44.438088 
L 952.07 44.438088 
L 962.07 44.438088 
" style="fill: none; stroke: #2ca02c; stroke-width: 1.5; stroke-linecap: square"/>
    </g>
    <g id="text_18">
     <!-- chi_2 -->
     <g transform="translate(970.07 47.938088) scale(0.1 -0.1)">
      <defs>
       <path id="DejaVuSans-5f" d="M 3263 -1063 
L 3263 -1509 
L -63 -1509 
L -63 -1063 
L 3263 -1063 
z
" transform="scale(0.015625)"/>
      </defs>
      <use xlink:href="#DejaVuSans-63"/>
      <use xlink:href="#DejaVuSans-68" x="54.980469"/>
      <use xlink:href="#DejaVuSans-69" x="118.359375"/>
      <use xlink:href="#DejaVuSans-5f" x="146.142578"/>
      <use xlink:href="#DejaVuSans-32" x="196.142578"/>
     </g>
    </g>
    <g id="line2d_27">
     <path d="M 942.07 59.394338 
L 952.07 59.394338 
L 962.07 59.394338 
" style="fill: none; stroke: #d62728; stroke-width: 1.5; stroke-linecap: square"/>
    </g>
    <g id="text_19">
     <!-- f_classif -->
     <g transform="translate(970.07 62.894338) scale(0.1 -0.1)">
      <defs>
       <path id="DejaVuSans-6c" d="M 603 4863 
L 1178 4863 
L 1178 0 
L 603 0 
L 603 4863 
z
" transform="scale(0.015625)"/>
      </defs>
      <use xlink:href="#DejaVuSans-66"/>
      <use xlink:href="#DejaVuSans-5f" x="35.205078"/>
      <use xlink:href="#DejaVuSans-63" x="85.205078"/>
      <use xlink:href="#DejaVuSans-6c" x="140.185547"/>
      <use xlink:href="#DejaVuSans-61" x="167.96875"/>
      <use xlink:href="#DejaVuSans-73" x="229.248047"/>
      <use xlink:href="#DejaVuSans-73" x="281.347656"/>
      <use xlink:href="#DejaVuSans-69" x="333.447266"/>
      <use xlink:href="#DejaVuSans-66" x="361.230469"/>
     </g>
    </g>
    <g id="line2d_28">
     <path d="M 942.07 74.350588 
L 952.07 74.350588 
L 962.07 74.350588 
" style="fill: none; stroke: #9467bd; stroke-width: 1.5; stroke-linecap: square"/>
    </g>
    <g id="text_20">
     <!-- mutual_info_classif -->
     <g transform="translate(970.07 77.850588) scale(0.1 -0.1)">
      <use xlink:href="#DejaVuSans-6d"/>
      <use xlink:href="#DejaVuSans-75" x="97.412109"/>
      <use xlink:href="#DejaVuSans-74" x="160.791016"/>
      <use xlink:href="#DejaVuSans-75" x="200"/>
      <use xlink:href="#DejaVuSans-61" x="263.378906"/>
      <use xlink:href="#DejaVuSans-6c" x="324.658203"/>
      <use xlink:href="#DejaVuSans-5f" x="352.441406"/>
      <use xlink:href="#DejaVuSans-69" x="402.441406"/>
      <use xlink:href="#DejaVuSans-6e" x="430.224609"/>
      <use xlink:href="#DejaVuSans-66" x="493.603516"/>
      <use xlink:href="#DejaVuSans-6f" x="528.808594"/>
      <use xlink:href="#DejaVuSans-5f" x="589.990234"/>
      <use xlink:href="#DejaVuSans-63" x="639.990234"/>
      <use xlink:href="#DejaVuSans-6c" x="694.970703"/>
      <use xlink:href="#DejaVuSans-61" x="722.753906"/>
      <use xlink:href="#DejaVuSans-73" x="784.033203"/>
      <use xlink:href="#DejaVuSans-73" x="836.132812"/>
      <use xlink:href="#DejaVuSans-69" x="888.232422"/>
      <use xlink:href="#DejaVuSans-66" x="916.015625"/>
     </g>
    </g>
    <g id="line2d_29">
     <path d="M 942.07 89.306838 
L 952.07 89.306838 
L 962.07 89.306838 
" style="fill: none; stroke: #8c564b; stroke-width: 1.5; stroke-linecap: square"/>
    </g>
    <g id="text_21">
     <!-- lasso -->
     <g transform="translate(970.07 92.806838) scale(0.1 -0.1)">
      <use xlink:href="#DejaVuSans-6c"/>
      <use xlink:href="#DejaVuSans-61" x="27.783203"/>
      <use xlink:href="#DejaVuSans-73" x="89.0625"/>
      <use xlink:href="#DejaVuSans-73" x="141.162109"/>
      <use xlink:href="#DejaVuSans-6f" x="193.261719"/>
     </g>
    </g>
    <g id="line2d_30">
     <path d="M 942.07 103.984963 
L 952.07 103.984963 
L 962.07 103.984963 
" style="fill: none; stroke: #e377c2; stroke-width: 1.5; stroke-linecap: square"/>
    </g>
    <g id="text_22">
     <!-- ridge -->
     <g transform="translate(970.07 107.484963) scale(0.1 -0.1)">
      <use xlink:href="#DejaVuSans-72"/>
      <use xlink:href="#DejaVuSans-69" x="41.113281"/>
      <use xlink:href="#DejaVuSans-64" x="68.896484"/>
      <use xlink:href="#DejaVuSans-67" x="132.373047"/>
      <use xlink:href="#DejaVuSans-65" x="195.849609"/>
     </g>
    </g>
    <g id="line2d_31">
     <path d="M 942.07 118.663088 
L 952.07 118.663088 
L 962.07 118.663088 
" style="fill: none; stroke: #7f7f7f; stroke-width: 1.5; stroke-linecap: square"/>
    </g>
    <g id="text_23">
     <!-- elastic_net -->
     <g transform="translate(970.07 122.163088) scale(0.1 -0.1)">
      <use xlink:href="#DejaVuSans-65"/>
      <use xlink:href="#DejaVuSans-6c" x="61.523438"/>
      <use xlink:href="#DejaVuSans-61" x="89.306641"/>
      <use xlink:href="#DejaVuSans-73" x="150.585938"/>
      <use xlink:href="#DejaVuSans-74" x="202.685547"/>
      <use xlink:href="#DejaVuSans-69" x="241.894531"/>
      <use xlink:href="#DejaVuSans-63" x="269.677734"/>
      <use xlink:href="#DejaVuSans-5f" x="324.658203"/>
      <use xlink:href="#DejaVuSans-6e" x="374.658203"/>
      <use xlink:href="#DejaVuSans-65" x="438.037109"/>
      <use xlink:href="#DejaVuSans-74" x="499.560547"/>
     </g>
    </g>
    <g id="line2d_32">
     <path d="M 942.07 133.619338 
L 952.07 133.619338 
L 962.07 133.619338 
" style="fill: none; stroke: #bcbd22; stroke-width: 1.5; stroke-linecap: square"/>
    </g>
    <g id="text_24">
     <!-- rf -->
     <g transform="translate(970.07 137.119338) scale(0.1 -0.1)">
      <use xlink:href="#DejaVuSans-72"/>
      <use xlink:href="#DejaVuSans-66" x="41.113281"/>
     </g>
    </g>
    <g id="line2d_33">
     <path d="M 942.07 148.297463 
L 952.07 148.297463 
L 962.07 148.297463 
" style="fill: none; stroke: #17becf; stroke-width: 1.5; stroke-linecap: square"/>
    </g>
    <g id="text_25">
     <!-- gbm -->
     <g transform="translate(970.07 151.797463) scale(0.1 -0.1)">
      <use xlink:href="#DejaVuSans-67"/>
      <use xlink:href="#DejaVuSans-62" x="63.476562"/>
      <use xlink:href="#DejaVuSans-6d" x="126.953125"/>
     </g>
    </g>
    <g id="line2d_34">
     <path d="M 942.07 162.975588 
L 952.07 162.975588 
L 962.07 162.975588 
" style="fill: none; stroke: #9edae5; stroke-width: 1.5; stroke-linecap: square"/>
    </g>
    <g id="text_26">
     <!-- xgb -->
     <g transform="translate(970.07 166.475588) scale(0.1 -0.1)">
      <defs>
       <path id="DejaVuSans-78" d="M 3513 3500 
L 2247 1797 
L 3578 0 
L 2900 0 
L 1881 1375 
L 863 0 
L 184 0 
L 1544 1831 
L 300 3500 
L 978 3500 
L 1906 2253 
L 2834 3500 
L 3513 3500 
z
" transform="scale(0.015625)"/>
      </defs>
      <use xlink:href="#DejaVuSans-78"/>
      <use xlink:href="#DejaVuSans-67" x="59.179688"/>
      <use xlink:href="#DejaVuSans-62" x="122.65625"/>
     </g>
    </g>
   </g>
  </g>
 </g>
 <defs>
  <clipPath id="pe12ae8bd5d">
   <rect x="47.765" y="30.748" width="885.305" height="575.292"/>
  </clipPath>
 </defs>
</svg>
