<?xml version="1.0" encoding="utf-8" standalone="no"?>
<!DOCTYPE svg PUBLIC "-//W3C//DTD SVG 1.1//EN"
  "http://www.w3.org/Graphics/SVG/1.1/DTD/svg11.dtd">
<svg xmlns:xlink="http://www.w3.org/1999/xlink" width="1080pt" height="432pt" viewBox="0 0 1080 432" xmlns="http://www.w3.org/2000/svg" version="1.1">
 <metadata>
  <rdf:RDF xmlns:dc="http://purl.org/dc/elements/1.1/" xmlns:cc="http://creativecommons.org/ns#" xmlns:rdf="http://www.w3.org/1999/02/22-rdf-syntax-ns#">
   <cc:Work>
    <dc:type rdf:resource="http://purl.org/dc/dcmitype/StillImage"/>
    <dc:date>2024-04-16T23:20:11.096729</dc:date>
    <dc:format>image/svg+xml</dc:format>
    <dc:creator>
     <cc:Agent>
      <dc:title>Matplotlib v3.7.2, https://matplotlib.org/</dc:title>
     </cc:Agent>
    </dc:creator>
   </cc:Work>
  </rdf:RDF>
 </metadata>
 <defs>
  <style type="text/css">*{stroke-linejoin: round; stroke-linecap: butt}</style>
 </defs>
 <g id="figure_1">
  <g id="patch_1">
   <path d="M 0 432 
L 1080 432 
L 1080 0 
L 0 0 
z
" style="fill: #ffffff"/>
  </g>
  <g id="axes_1">
   <g id="patch_2">
    <path d="M 52.28 382.6 
L 1062.525 382.6 
L 1062.525 28.32 
L 52.28 28.32 
z
" style="fill: #ffffff"/>
   </g>
   <g id="PolyCollection_1">
    <defs>
     <path id="m84f2a974ef" d="M 52.28 -399.344217 
L 52.28 -398.773963 
L 72.4849 -399.317006 
L 92.6898 -399.662494 
L 112.8947 -399.95109 
L 133.0996 -400.245563 
L 153.3045 -400.475799 
L 173.5094 -400.790831 
L 193.7143 -400.651102 
L 213.9192 -401.109579 
L 234.1241 -401.387886 
L 254.329 -401.407998 
L 274.5339 -401.641412 
L 294.7388 -401.854015 
L 314.9437 -402.118577 
L 335.1486 -402.111631 
L 355.3535 -402.360333 
L 375.5584 -402.427559 
L 395.7633 -402.548377 
L 415.9682 -402.606291 
L 436.1731 -402.719332 
L 456.378 -402.74787 
L 476.5829 -402.812815 
L 496.7878 -402.891505 
L 516.9927 -402.866459 
L 537.1976 -402.995132 
L 557.4025 -403.034519 
L 577.6074 -403.082416 
L 597.8123 -403.145603 
L 618.0172 -403.180766 
L 638.2221 -403.220368 
L 658.427 -403.208104 
L 678.6319 -403.280752 
L 698.8368 -403.299842 
L 719.0417 -403.285218 
L 739.2466 -403.355353 
L 759.4515 -403.376878 
L 779.6564 -403.403658 
L 799.8613 -403.409759 
L 820.0662 -403.436073 
L 840.2711 -403.456281 
L 860.476 -403.468549 
L 880.6809 -403.494363 
L 900.8858 -403.508689 
L 921.0907 -403.524489 
L 941.2956 -403.537287 
L 961.5005 -403.543375 
L 981.7054 -403.556117 
L 1001.9103 -403.562748 
L 1022.1152 -403.577959 
L 1042.3201 -403.587704 
L 1062.525 -403.59759 
L 1062.525 -403.603029 
L 1062.525 -403.603029 
L 1042.3201 -403.594824 
L 1022.1152 -403.588476 
L 1001.9103 -403.577326 
L 981.7054 -403.569676 
L 961.5005 -403.555105 
L 941.2956 -403.546187 
L 921.0907 -403.531103 
L 900.8858 -403.519336 
L 880.6809 -403.502885 
L 860.476 -403.489132 
L 840.2711 -403.473006 
L 820.0662 -403.453086 
L 799.8613 -403.442549 
L 779.6564 -403.417937 
L 759.4515 -403.396574 
L 739.2466 -403.374616 
L 719.0417 -403.352592 
L 698.8368 -403.322767 
L 678.6319 -403.299525 
L 658.427 -403.27628 
L 638.2221 -403.24213 
L 618.0172 -403.216693 
L 597.8123 -403.185415 
L 577.6074 -403.132572 
L 557.4025 -403.088223 
L 537.1976 -403.069149 
L 516.9927 -403.023703 
L 496.7878 -402.970398 
L 476.5829 -402.902378 
L 456.378 -402.832538 
L 436.1731 -402.761583 
L 415.9682 -402.665148 
L 395.7633 -402.614541 
L 375.5584 -402.507782 
L 355.3535 -402.431631 
L 335.1486 -402.427523 
L 314.9437 -402.214279 
L 294.7388 -402.169463 
L 274.5339 -402.008383 
L 254.329 -401.786573 
L 234.1241 -401.659859 
L 213.9192 -401.507986 
L 193.7143 -401.301395 
L 173.5094 -401.044689 
L 153.3045 -400.836605 
L 133.0996 -400.614281 
L 112.8947 -400.320682 
L 92.6898 -400.062308 
L 72.4849 -399.731813 
L 52.28 -399.344217 
z
" style="stroke: #1f77b4; stroke-opacity: 0.2"/>
    </defs>
    <g clip-path="url(#p416082fa22)">
     <use xlink:href="#m84f2a974ef" x="0" y="432" style="fill: #1f77b4; fill-opacity: 0.2; stroke: #1f77b4; stroke-opacity: 0.2"/>
    </g>
   </g>
   <g id="PolyCollection_2">
    <defs>
     <path id="me3df65e27a" d="M 52.28 -220.346447 
L 52.28 -145.56096 
L 72.4849 -176.040655 
L 92.6898 -164.161211 
L 112.8947 -168.847917 
L 133.0996 -166.249112 
L 153.3045 -180.021515 
L 173.5094 -187.423809 
L 193.7143 -175.358423 
L 213.9192 -202.905865 
L 234.1241 -173.698064 
L 254.329 -183.741455 
L 274.5339 -200.239993 
L 294.7388 -205.569983 
L 314.9437 -196.887941 
L 335.1486 -202.722608 
L 355.3535 -204.366898 
L 375.5584 -211.588961 
L 395.7633 -216.054246 
L 415.9682 -218.6559 
L 436.1731 -208.963804 
L 456.378 -236.013983 
L 476.5829 -213.795595 
L 496.7878 -245.866899 
L 516.9927 -216.843261 
L 537.1976 -223.186082 
L 557.4025 -236.612144 
L 577.6074 -231.072925 
L 597.8123 -226.092386 
L 618.0172 -235.200878 
L 638.2221 -224.606744 
L 658.427 -253.891382 
L 678.6319 -246.370571 
L 698.8368 -251.282054 
L 719.0417 -251.601889 
L 739.2466 -257.210297 
L 759.4515 -236.251354 
L 779.6564 -252.803361 
L 799.8613 -230.345934 
L 820.0662 -262.611676 
L 840.2711 -291.408866 
L 860.476 -272.682555 
L 880.6809 -242.878421 
L 900.8858 -278.127595 
L 921.0907 -265.514574 
L 941.2956 -257.542582 
L 961.5005 -262.023849 
L 981.7054 -289.480503 
L 1001.9103 -262.992041 
L 1022.1152 -265.649076 
L 1042.3201 -308.663625 
L 1062.525 -280.159568 
L 1062.525 -349.366834 
L 1062.525 -349.366834 
L 1042.3201 -359.382001 
L 1022.1152 -340.14467 
L 1001.9103 -350.650311 
L 981.7054 -335.59476 
L 961.5005 -326.765656 
L 941.2956 -328.342294 
L 921.0907 -328.59126 
L 900.8858 -307.765205 
L 880.6809 -318.204027 
L 860.476 -328.280684 
L 840.2711 -336.818612 
L 820.0662 -330.816731 
L 799.8613 -289.836911 
L 779.6564 -325.065611 
L 759.4515 -274.768463 
L 739.2466 -328.683377 
L 719.0417 -308.001602 
L 698.8368 -315.136614 
L 678.6319 -280.634371 
L 658.427 -311.587595 
L 638.2221 -313.867558 
L 618.0172 -291.959377 
L 597.8123 -296.097338 
L 577.6074 -302.330436 
L 557.4025 -271.166672 
L 537.1976 -282.386621 
L 516.9927 -261.138685 
L 496.7878 -331.234391 
L 476.5829 -296.293154 
L 456.378 -280.934858 
L 436.1731 -267.487866 
L 415.9682 -268.330852 
L 395.7633 -257.312349 
L 375.5584 -267.503075 
L 355.3535 -274.675945 
L 335.1486 -277.742784 
L 314.9437 -264.396057 
L 294.7388 -275.12416 
L 274.5339 -256.861151 
L 254.329 -247.217913 
L 234.1241 -265.502508 
L 213.9192 -248.484466 
L 193.7143 -257.484749 
L 173.5094 -249.293075 
L 153.3045 -239.897481 
L 133.0996 -225.388948 
L 112.8947 -239.712826 
L 92.6898 -224.467308 
L 72.4849 -233.405058 
L 52.28 -220.346447 
z
" style="stroke: #ff7f0e; stroke-opacity: 0.2"/>
    </defs>
    <g clip-path="url(#p416082fa22)">
     <use xlink:href="#me3df65e27a" x="0" y="432" style="fill: #ff7f0e; fill-opacity: 0.2; stroke: #ff7f0e; stroke-opacity: 0.2"/>
    </g>
   </g>
   <g id="PolyCollection_3">
    <defs>
     <path id="m1ea67710c4" d="M 52.28 -399.542132 
L 52.28 -372.667416 
L 72.4849 -379.113544 
L 92.6898 -376.526031 
L 112.8947 -378.693224 
L 133.0996 -384.955145 
L 153.3045 -382.513315 
L 173.5094 -380.832125 
L 193.7143 -380.861863 
L 213.9192 -383.298614 
L 234.1241 -389.806667 
L 254.329 -389.871447 
L 274.5339 -389.994457 
L 294.7388 -390.086595 
L 314.9437 -390.546201 
L 335.1486 -393.239484 
L 355.3535 -393.357424 
L 375.5584 -400.552048 
L 395.7633 -400.868883 
L 415.9682 -401.104478 
L 436.1731 -394.327611 
L 456.378 -392.107658 
L 476.5829 -392.127997 
L 496.7878 -392.202445 
L 516.9927 -384.172969 
L 537.1976 -401.873892 
L 557.4025 -388.810828 
L 577.6074 -401.999077 
L 597.8123 -402.118958 
L 618.0172 -391.12627 
L 638.2221 -392.721164 
L 658.427 -388.524567 
L 678.6319 -384.931614 
L 698.8368 -384.959088 
L 719.0417 -388.718989 
L 739.2466 -384.997977 
L 759.4515 -385.079429 
L 779.6564 -377.425651 
L 799.8613 -382.021506 
L 820.0662 -388.760255 
L 840.2711 -386.47181 
L 860.476 -381.025891 
L 880.6809 -378.788336 
L 900.8858 -379.362412 
L 921.0907 -378.621876 
L 941.2956 -375.14106 
L 961.5005 -375.46204 
L 981.7054 -382.341672 
L 1001.9103 -388.743676 
L 1022.1152 -382.37053 
L 1042.3201 -380.576833 
L 1062.525 -388.869671 
L 1062.525 -408.62659 
L 1062.525 -408.62659 
L 1042.3201 -406.429324 
L 1022.1152 -406.089802 
L 1001.9103 -408.632674 
L 981.7054 -406.056497 
L 961.5005 -398.28588 
L 941.2956 -398.172425 
L 921.0907 -403.94523 
L 900.8858 -403.918015 
L 880.6809 -403.807941 
L 860.476 -406.00979 
L 840.2711 -409.051531 
L 820.0662 -408.107743 
L 799.8613 -405.72369 
L 779.6564 -403.914485 
L 759.4515 -407.161662 
L 739.2466 -407.144037 
L 719.0417 -407.933724 
L 698.8368 -407.023082 
L 678.6319 -406.939561 
L 658.427 -407.698473 
L 638.2221 -407.706526 
L 618.0172 -408.325083 
L 597.8123 -402.616255 
L 577.6074 -402.565573 
L 557.4025 -409.17836 
L 537.1976 -402.358351 
L 516.9927 -408.596865 
L 496.7878 -406.986935 
L 476.5829 -406.845725 
L 456.378 -405.227082 
L 436.1731 -405.214971 
L 415.9682 -401.586095 
L 395.7633 -401.488786 
L 375.5584 -401.31121 
L 355.3535 -404.646382 
L 335.1486 -404.518814 
L 314.9437 -405.824622 
L 294.7388 -405.808109 
L 274.5339 -405.616213 
L 254.329 -405.363966 
L 234.1241 -405.266957 
L 213.9192 -405.649576 
L 193.7143 -406.464075 
L 173.5094 -406.388645 
L 153.3045 -405.75647 
L 133.0996 -404.32502 
L 112.8947 -401.362519 
L 92.6898 -401.245937 
L 72.4849 -401.492606 
L 52.28 -399.542132 
z
" style="stroke: #2ca02c; stroke-opacity: 0.2"/>
    </defs>
    <g clip-path="url(#p416082fa22)">
     <use xlink:href="#m1ea67710c4" x="0" y="432" style="fill: #2ca02c; fill-opacity: 0.2; stroke: #2ca02c; stroke-opacity: 0.2"/>
    </g>
   </g>
   <g id="PolyCollection_4">
    <defs>
     <path id="mea23758a28" d="M 52.28 -399.788464 
L 52.28 -372.763602 
L 72.4849 -372.985856 
L 92.6898 -378.153142 
L 112.8947 -374.592121 
L 133.0996 -378.716444 
L 153.3045 -376.736635 
L 173.5094 -381.473198 
L 193.7143 -376.498412 
L 213.9192 -377.334294 
L 234.1241 -383.20935 
L 254.329 -383.125058 
L 274.5339 -391.797465 
L 294.7388 -379.248295 
L 314.9437 -383.817325 
L 335.1486 -378.916895 
L 355.3535 -384.067737 
L 375.5584 -376.509096 
L 395.7633 -381.871264 
L 415.9682 -398.135546 
L 436.1731 -398.313393 
L 456.378 -398.549922 
L 476.5829 -398.705243 
L 496.7878 -394.192579 
L 516.9927 -387.679164 
L 537.1976 -379.577989 
L 557.4025 -379.463886 
L 577.6074 -381.84354 
L 597.8123 -387.569626 
L 618.0172 -382.834377 
L 638.2221 -399.831776 
L 658.427 -391.27184 
L 678.6319 -400.307313 
L 698.8368 -390.072712 
L 719.0417 -390.113276 
L 739.2466 -400.506763 
L 759.4515 -390.378872 
L 779.6564 -401.106642 
L 799.8613 -401.111751 
L 820.0662 -394.855995 
L 840.2711 -395.016724 
L 860.476 -395.006743 
L 880.6809 -394.922205 
L 900.8858 -388.138894 
L 921.0907 -394.991328 
L 941.2956 -390.784909 
L 961.5005 -390.815541 
L 981.7054 -395.071867 
L 1001.9103 -402.254945 
L 1022.1152 -402.504239 
L 1042.3201 -402.533959 
L 1062.525 -402.623705 
L 1062.525 -403.276877 
L 1062.525 -403.276877 
L 1042.3201 -403.284366 
L 1022.1152 -403.235088 
L 1001.9103 -403.230511 
L 981.7054 -406.63542 
L 961.5005 -408.82931 
L 941.2956 -408.768601 
L 921.0907 -406.543139 
L 900.8858 -407.702067 
L 880.6809 -406.223933 
L 860.476 -406.130003 
L 840.2711 -406.090572 
L 820.0662 -405.876004 
L 799.8613 -402.459285 
L 779.6564 -402.438315 
L 759.4515 -407.38911 
L 739.2466 -402.030639 
L 719.0417 -406.888365 
L 698.8368 -406.826886 
L 678.6319 -401.913482 
L 658.427 -406.047972 
L 638.2221 -401.483717 
L 618.0172 -406.917761 
L 597.8123 -407.143245 
L 577.6074 -406.812308 
L 557.4025 -404.823167 
L 537.1976 -404.742173 
L 516.9927 -404.227609 
L 496.7878 -402.590479 
L 476.5829 -400.523658 
L 456.378 -400.452459 
L 436.1731 -400.311874 
L 415.9682 -400.340139 
L 395.7633 -406.756016 
L 375.5584 -405.602166 
L 355.3535 -403.729795 
L 335.1486 -400.214729 
L 314.9437 -403.2799 
L 294.7388 -402.549427 
L 274.5339 -400.755098 
L 254.329 -404.686424 
L 234.1241 -404.310905 
L 213.9192 -403.448199 
L 193.7143 -402.565556 
L 173.5094 -403.042968 
L 153.3045 -402.174629 
L 133.0996 -402.126972 
L 112.8947 -400.68337 
L 92.6898 -401.607153 
L 72.4849 -400.046257 
L 52.28 -399.788464 
z
" style="stroke: #d62728; stroke-opacity: 0.2"/>
    </defs>
    <g clip-path="url(#p416082fa22)">
     <use xlink:href="#mea23758a28" x="0" y="432" style="fill: #d62728; fill-opacity: 0.2; stroke: #d62728; stroke-opacity: 0.2"/>
    </g>
   </g>
   <g id="PolyCollection_5">
    <defs>
     <path id="m99fd42f26c" d="M 52.28 -400.766872 
L 52.28 -375.331635 
L 72.4849 -382.738353 
L 92.6898 -383.248757 
L 112.8947 -378.499393 
L 133.0996 -384.947148 
L 153.3045 -389.605545 
L 173.5094 -386.95042 
L 193.7143 -399.734522 
L 213.9192 -400.021539 
L 234.1241 -400.483075 
L 254.329 -400.57963 
L 274.5339 -400.623165 
L 294.7388 -400.701385 
L 314.9437 -400.88447 
L 335.1486 -391.704862 
L 355.3535 -391.778727 
L 375.5584 -391.918951 
L 395.7633 -385.146567 
L 415.9682 -389.454296 
L 436.1731 -392.414499 
L 456.378 -385.807613 
L 476.5829 -382.1918 
L 496.7878 -389.797823 
L 516.9927 -380.498795 
L 537.1976 -380.534629 
L 557.4025 -394.645607 
L 577.6074 -389.247192 
L 597.8123 -386.840167 
L 618.0172 -380.20817 
L 638.2221 -377.838918 
L 658.427 -377.85526 
L 678.6319 -376.727863 
L 698.8368 -373.085191 
L 719.0417 -373.767299 
L 739.2466 -379.069603 
L 759.4515 -378.683012 
L 779.6564 -377.753512 
L 799.8613 -380.867528 
L 820.0662 -384.229743 
L 840.2711 -393.928358 
L 860.476 -388.671695 
L 880.6809 -393.997767 
L 900.8858 -389.424156 
L 921.0907 -394.015528 
L 941.2956 -394.032489 
L 961.5005 -394.064149 
L 981.7054 -394.080886 
L 1001.9103 -403.328256 
L 1022.1152 -403.362195 
L 1042.3201 -403.377456 
L 1062.525 -403.385814 
L 1062.525 -403.478051 
L 1062.525 -403.478051 
L 1042.3201 -403.469622 
L 1022.1152 -403.450883 
L 1001.9103 -403.427456 
L 981.7054 -408.182602 
L 961.5005 -408.174759 
L 941.2956 -408.12923 
L 921.0907 -408.122567 
L 900.8858 -408.219191 
L 880.6809 -408.067315 
L 860.476 -408.433192 
L 840.2711 -408.043124 
L 820.0662 -407.638391 
L 799.8613 -405.996458 
L 779.6564 -403.874801 
L 759.4515 -403.668517 
L 739.2466 -403.554691 
L 719.0417 -397.752452 
L 698.8368 -393.720206 
L 678.6319 -400.754685 
L 658.427 -403.407297 
L 638.2221 -403.358744 
L 618.0172 -405.666201 
L 597.8123 -408.186482 
L 577.6074 -407.046082 
L 557.4025 -406.290342 
L 537.1976 -405.30384 
L 516.9927 -407.476241 
L 496.7878 -408.519397 
L 476.5829 -406.786683 
L 456.378 -407.801651 
L 436.1731 -406.6331 
L 415.9682 -408.069211 
L 395.7633 -407.555165 
L 375.5584 -406.472352 
L 355.3535 -406.279445 
L 335.1486 -406.15012 
L 314.9437 -401.313037 
L 294.7388 -401.152275 
L 274.5339 -401.094884 
L 254.329 -400.922913 
L 234.1241 -400.814305 
L 213.9192 -400.676698 
L 193.7143 -400.489987 
L 173.5094 -406.595979 
L 153.3045 -404.867988 
L 133.0996 -404.506162 
L 112.8947 -403.975601 
L 92.6898 -404.170802 
L 72.4849 -403.563962 
L 52.28 -400.766872 
z
" style="stroke: #9467bd; stroke-opacity: 0.2"/>
    </defs>
    <g clip-path="url(#p416082fa22)">
     <use xlink:href="#m99fd42f26c" x="0" y="432" style="fill: #9467bd; fill-opacity: 0.2; stroke: #9467bd; stroke-opacity: 0.2"/>
    </g>
   </g>
   <g id="PolyCollection_6">
    <defs>
     <path id="m9531e627b2" d="M 52.28 -390.785931 
L 52.28 -361.390678 
L 72.4849 -359.491579 
L 92.6898 -361.470544 
L 112.8947 -363.581084 
L 133.0996 -363.607982 
L 153.3045 -368.869032 
L 173.5094 -368.760831 
L 193.7143 -360.040294 
L 213.9192 -359.912672 
L 234.1241 -363.743791 
L 254.329 -369.922753 
L 274.5339 -368.692005 
L 294.7388 -373.225966 
L 314.9437 -372.391846 
L 335.1486 -372.372196 
L 355.3535 -372.484044 
L 375.5584 -379.904429 
L 395.7633 -379.552717 
L 415.9682 -381.490753 
L 436.1731 -382.546295 
L 456.378 -383.043273 
L 476.5829 -386.978509 
L 496.7878 -388.771061 
L 516.9927 -372.438147 
L 537.1976 -383.875789 
L 557.4025 -368.401784 
L 577.6074 -370.771796 
L 597.8123 -374.13418 
L 618.0172 -376.350984 
L 638.2221 -379.63674 
L 658.427 -376.803354 
L 678.6319 -375.634948 
L 698.8368 -373.145649 
L 719.0417 -379.693318 
L 739.2466 -378.274045 
L 759.4515 -379.113473 
L 779.6564 -381.99232 
L 799.8613 -382.468842 
L 820.0662 -382.62551 
L 840.2711 -381.976422 
L 860.476 -382.218708 
L 880.6809 -385.117093 
L 900.8858 -382.092853 
L 921.0907 -379.191766 
L 941.2956 -385.136253 
L 961.5005 -381.22935 
L 981.7054 -384.197592 
L 1001.9103 -392.244114 
L 1022.1152 -392.261337 
L 1042.3201 -392.301253 
L 1062.525 -387.098496 
L 1062.525 -408.560644 
L 1062.525 -408.560644 
L 1042.3201 -408.368194 
L 1022.1152 -408.312779 
L 1001.9103 -408.262463 
L 981.7054 -409.413625 
L 961.5005 -407.863038 
L 941.2956 -409.083928 
L 921.0907 -406.006794 
L 900.8858 -407.635764 
L 880.6809 -406.621146 
L 860.476 -404.777597 
L 840.2711 -404.678438 
L 820.0662 -404.491026 
L 799.8613 -404.451994 
L 779.6564 -404.51858 
L 759.4515 -404.474739 
L 739.2466 -403.810422 
L 719.0417 -404.006643 
L 698.8368 -403.340914 
L 678.6319 -405.789286 
L 658.427 -405.181806 
L 638.2221 -407.01194 
L 618.0172 -405.022861 
L 597.8123 -402.761553 
L 577.6074 -403.511549 
L 557.4025 -401.003265 
L 537.1976 -405.008492 
L 516.9927 -406.889434 
L 496.7878 -402.821485 
L 476.5829 -404.024702 
L 456.378 -402.049806 
L 436.1731 -400.713335 
L 415.9682 -400.487724 
L 395.7633 -399.2744 
L 375.5584 -399.1841 
L 355.3535 -395.552687 
L 335.1486 -395.418814 
L 314.9437 -395.008747 
L 294.7388 -396.103375 
L 274.5339 -390.997559 
L 254.329 -390.456175 
L 234.1241 -389.231196 
L 213.9192 -388.544035 
L 193.7143 -388.665806 
L 173.5094 -393.361983 
L 153.3045 -395.119518 
L 133.0996 -395.546099 
L 112.8947 -391.256466 
L 92.6898 -392.074395 
L 72.4849 -391.892999 
L 52.28 -390.785931 
z
" style="stroke: #8c564b; stroke-opacity: 0.2"/>
    </defs>
    <g clip-path="url(#p416082fa22)">
     <use xlink:href="#m9531e627b2" x="0" y="432" style="fill: #8c564b; fill-opacity: 0.2; stroke: #8c564b; stroke-opacity: 0.2"/>
    </g>
   </g>
   <g id="PolyCollection_7">
    <defs>
     <path id="m81a2b4bd29" d="M 52.28 -377.290542 
L 52.28 -375.085847 
L 72.4849 -374.424544 
L 92.6898 -375.008005 
L 112.8947 -366.524259 
L 133.0996 -366.607234 
L 153.3045 -366.377511 
L 173.5094 -374.701748 
L 193.7143 -374.726239 
L 213.9192 -367.767391 
L 234.1241 -374.673873 
L 254.329 -375.678205 
L 274.5339 -374.588359 
L 294.7388 -372.31088 
L 314.9437 -372.68589 
L 335.1486 -372.67602 
L 355.3535 -373.882516 
L 375.5584 -374.402611 
L 395.7633 -377.758658 
L 415.9682 -374.163244 
L 436.1731 -375.099533 
L 456.378 -372.886837 
L 476.5829 -376.496244 
L 496.7878 -377.49178 
L 516.9927 -377.252781 
L 537.1976 -373.415586 
L 557.4025 -379.33821 
L 577.6074 -370.307962 
L 597.8123 -369.832594 
L 618.0172 -373.578371 
L 638.2221 -377.004317 
L 658.427 -376.963399 
L 678.6319 -372.548107 
L 698.8368 -372.695869 
L 719.0417 -382.91519 
L 739.2466 -377.753283 
L 759.4515 -377.834599 
L 779.6564 -383.755446 
L 799.8613 -384.680421 
L 820.0662 -393.468589 
L 840.2711 -391.077298 
L 860.476 -391.110152 
L 880.6809 -391.097496 
L 900.8858 -391.132325 
L 921.0907 -401.874251 
L 941.2956 -391.126376 
L 961.5005 -385.782285 
L 981.7054 -391.525297 
L 1001.9103 -391.759528 
L 1022.1152 -386.670161 
L 1042.3201 -386.727687 
L 1062.525 -382.932207 
L 1062.525 -407.550657 
L 1062.525 -407.550657 
L 1042.3201 -408.555418 
L 1022.1152 -408.532441 
L 1001.9103 -408.47211 
L 981.7054 -408.513623 
L 961.5005 -408.54053 
L 941.2956 -408.212829 
L 921.0907 -402.7446 
L 900.8858 -408.027764 
L 880.6809 -407.957549 
L 860.476 -407.846745 
L 840.2711 -407.78487 
L 820.0662 -406.265357 
L 799.8613 -408.285846 
L 779.6564 -408.292675 
L 759.4515 -407.560593 
L 739.2466 -407.492491 
L 719.0417 -406.712259 
L 698.8368 -403.651239 
L 678.6319 -403.491542 
L 658.427 -403.318227 
L 638.2221 -403.28885 
L 618.0172 -401.336836 
L 597.8123 -391.899236 
L 577.6074 -397.777056 
L 557.4025 -403.270309 
L 537.1976 -399.12125 
L 516.9927 -400.096011 
L 496.7878 -401.663239 
L 476.5829 -400.89874 
L 456.378 -392.128165 
L 436.1731 -392.013812 
L 415.9682 -389.600905 
L 395.7633 -392.403155 
L 375.5584 -394.636675 
L 355.3535 -391.795117 
L 335.1486 -387.337448 
L 314.9437 -387.958529 
L 294.7388 -383.577227 
L 274.5339 -383.572257 
L 254.329 -383.054532 
L 234.1241 -382.649045 
L 213.9192 -387.472372 
L 193.7143 -379.68672 
L 173.5094 -379.161509 
L 153.3045 -382.156555 
L 133.0996 -382.70094 
L 112.8947 -382.705852 
L 92.6898 -378.042146 
L 72.4849 -378.020685 
L 52.28 -377.290542 
z
" style="stroke: #e377c2; stroke-opacity: 0.2"/>
    </defs>
    <g clip-path="url(#p416082fa22)">
     <use xlink:href="#m81a2b4bd29" x="0" y="432" style="fill: #e377c2; fill-opacity: 0.2; stroke: #e377c2; stroke-opacity: 0.2"/>
    </g>
   </g>
   <g id="PolyCollection_8">
    <defs>
     <path id="m07d3edf311" d="M 52.28 -382.244116 
L 52.28 -374.406941 
L 72.4849 -375.297339 
L 92.6898 -375.522295 
L 112.8947 -374.549375 
L 133.0996 -373.864318 
L 153.3045 -373.867393 
L 173.5094 -374.837489 
L 193.7143 -374.16851 
L 213.9192 -374.405136 
L 234.1241 -375.784919 
L 254.329 -375.578187 
L 274.5339 -377.002383 
L 294.7388 -377.901797 
L 314.9437 -376.245728 
L 335.1486 -378.192137 
L 355.3535 -367.357653 
L 375.5584 -366.23761 
L 395.7633 -377.368382 
L 415.9682 -374.960012 
L 436.1731 -372.492844 
L 456.378 -371.04592 
L 476.5829 -371.318526 
L 496.7878 -376.166734 
L 516.9927 -375.256123 
L 537.1976 -376.611504 
L 557.4025 -376.522288 
L 577.6074 -381.536634 
L 597.8123 -380.017471 
L 618.0172 -382.470338 
L 638.2221 -382.581802 
L 658.427 -376.521821 
L 678.6319 -373.895558 
L 698.8368 -375.139455 
L 719.0417 -374.009224 
L 739.2466 -375.791907 
L 759.4515 -380.86571 
L 779.6564 -380.088778 
L 799.8613 -377.842878 
L 820.0662 -377.663144 
L 840.2711 -377.782276 
L 860.476 -381.04978 
L 880.6809 -381.688814 
L 900.8858 -381.721619 
L 921.0907 -383.069281 
L 941.2956 -382.311437 
L 961.5005 -379.572423 
L 981.7054 -385.015496 
L 1001.9103 -383.769734 
L 1022.1152 -382.331885 
L 1042.3201 -382.608281 
L 1062.525 -379.462949 
L 1062.525 -405.797524 
L 1062.525 -405.797524 
L 1042.3201 -407.552188 
L 1022.1152 -407.545057 
L 1001.9103 -407.208362 
L 981.7054 -406.968382 
L 961.5005 -403.456637 
L 941.2956 -405.2629 
L 921.0907 -405.061853 
L 900.8858 -407.784413 
L 880.6809 -407.669465 
L 860.476 -407.614559 
L 840.2711 -406.716483 
L 820.0662 -406.742997 
L 799.8613 -406.674038 
L 779.6564 -408.381039 
L 759.4515 -409.510264 
L 739.2466 -405.874718 
L 719.0417 -403.22234 
L 698.8368 -403.076425 
L 678.6319 -401.025246 
L 658.427 -403.799289 
L 638.2221 -404.083208 
L 618.0172 -403.849866 
L 597.8123 -401.980222 
L 577.6074 -404.12341 
L 557.4025 -400.981101 
L 537.1976 -400.89824 
L 516.9927 -398.639041 
L 496.7878 -400.578194 
L 476.5829 -395.380247 
L 456.378 -390.97497 
L 436.1731 -390.746842 
L 415.9682 -391.794667 
L 395.7633 -396.574736 
L 375.5584 -397.94603 
L 355.3535 -397.890038 
L 335.1486 -394.118659 
L 314.9437 -393.489035 
L 294.7388 -394.054262 
L 274.5339 -394.897089 
L 254.329 -391.791476 
L 234.1241 -389.462058 
L 213.9192 -385.874152 
L 193.7143 -385.77715 
L 173.5094 -382.795798 
L 153.3045 -385.774856 
L 133.0996 -386.959856 
L 112.8947 -387.669726 
L 92.6898 -383.835866 
L 72.4849 -383.967589 
L 52.28 -382.244116 
z
" style="stroke: #7f7f7f; stroke-opacity: 0.2"/>
    </defs>
    <g clip-path="url(#p416082fa22)">
     <use xlink:href="#m07d3edf311" x="0" y="432" style="fill: #7f7f7f; fill-opacity: 0.2; stroke: #7f7f7f; stroke-opacity: 0.2"/>
    </g>
   </g>
   <g id="PolyCollection_9">
    <defs>
     <path id="m0c2c4e1484" d="M 52.28 -387.97853 
L 52.28 -378.609821 
L 72.4849 -377.65338 
L 92.6898 -377.085184 
L 112.8947 -372.150332 
L 133.0996 -372.164985 
L 153.3045 -372.326816 
L 173.5094 -372.696524 
L 193.7143 -373.001431 
L 213.9192 -374.480341 
L 234.1241 -376.147632 
L 254.329 -374.940497 
L 274.5339 -374.523807 
L 294.7388 -376.011098 
L 314.9437 -381.328681 
L 335.1486 -380.976062 
L 355.3535 -377.059298 
L 375.5584 -376.421819 
L 395.7633 -381.946362 
L 415.9682 -375.490768 
L 436.1731 -377.524795 
L 456.378 -377.701143 
L 476.5829 -371.966871 
L 496.7878 -371.977047 
L 516.9927 -374.276673 
L 537.1976 -374.313571 
L 557.4025 -377.402955 
L 577.6074 -383.876634 
L 597.8123 -378.38309 
L 618.0172 -385.459806 
L 638.2221 -385.510435 
L 658.427 -383.54324 
L 678.6319 -391.06438 
L 698.8368 -391.123947 
L 719.0417 -393.941362 
L 739.2466 -393.998698 
L 759.4515 -386.755285 
L 779.6564 -391.116331 
L 799.8613 -388.542947 
L 820.0662 -383.954958 
L 840.2711 -380.378224 
L 860.476 -380.195732 
L 880.6809 -379.498614 
L 900.8858 -384.07287 
L 921.0907 -384.060045 
L 941.2956 -380.947125 
L 961.5005 -381.31377 
L 981.7054 -381.2994 
L 1001.9103 -385.433089 
L 1022.1152 -381.917715 
L 1042.3201 -387.058794 
L 1062.525 -387.170177 
L 1062.525 -408.9125 
L 1062.525 -408.9125 
L 1042.3201 -408.922883 
L 1022.1152 -406.179832 
L 1001.9103 -407.560344 
L 981.7054 -406.242832 
L 961.5005 -406.170437 
L 941.2956 -406.187262 
L 921.0907 -407.739724 
L 900.8858 -407.717816 
L 880.6809 -406.159148 
L 860.476 -405.955825 
L 840.2711 -405.915134 
L 820.0662 -407.431526 
L 799.8613 -407.989294 
L 779.6564 -406.835458 
L 759.4515 -406.407735 
L 739.2466 -406.856755 
L 719.0417 -406.787687 
L 698.8368 -408.188578 
L 678.6319 -408.044321 
L 658.427 -408.992199 
L 638.2221 -408.085721 
L 618.0172 -407.918003 
L 597.8123 -407.649776 
L 577.6074 -408.302013 
L 557.4025 -407.475329 
L 537.1976 -405.232416 
L 516.9927 -405.165174 
L 496.7878 -402.469122 
L 476.5829 -402.333098 
L 456.378 -404.38772 
L 436.1731 -404.296582 
L 415.9682 -402.845497 
L 395.7633 -403.93339 
L 375.5584 -400.602317 
L 355.3535 -397.621121 
L 335.1486 -400.145268 
L 314.9437 -398.410524 
L 294.7388 -395.994155 
L 274.5339 -392.717176 
L 254.329 -392.59603 
L 234.1241 -395.107336 
L 213.9192 -385.57204 
L 193.7143 -385.649396 
L 173.5094 -385.546272 
L 153.3045 -388.248543 
L 133.0996 -391.172152 
L 112.8947 -389.385906 
L 92.6898 -389.239078 
L 72.4849 -392.358337 
L 52.28 -387.97853 
z
" style="stroke: #bcbd22; stroke-opacity: 0.2"/>
    </defs>
    <g clip-path="url(#p416082fa22)">
     <use xlink:href="#m0c2c4e1484" x="0" y="432" style="fill: #bcbd22; fill-opacity: 0.2; stroke: #bcbd22; stroke-opacity: 0.2"/>
    </g>
   </g>
   <g id="PolyCollection_10">
    <defs>
     <path id="m58412248e0" d="M 52.28 -394.785725 
L 52.28 -375.7971 
L 72.4849 -377.209288 
L 92.6898 -369.738174 
L 112.8947 -371.435695 
L 133.0996 -372.185828 
L 153.3045 -373.865322 
L 173.5094 -378.833974 
L 193.7143 -377.934553 
L 213.9192 -376.822477 
L 234.1241 -383.195717 
L 254.329 -380.015099 
L 274.5339 -372.769476 
L 294.7388 -386.392023 
L 314.9437 -386.685492 
L 335.1486 -382.314371 
L 355.3535 -386.619888 
L 375.5584 -386.92015 
L 395.7633 -389.68907 
L 415.9682 -399.341344 
L 436.1731 -383.970801 
L 456.378 -384.127265 
L 476.5829 -378.351811 
L 496.7878 -379.944758 
L 516.9927 -380.117619 
L 537.1976 -381.971082 
L 557.4025 -382.044235 
L 577.6074 -382.083799 
L 597.8123 -380.916609 
L 618.0172 -380.950717 
L 638.2221 -386.877765 
L 658.427 -386.899181 
L 678.6319 -391.939015 
L 698.8368 -401.152056 
L 719.0417 -391.188283 
L 739.2466 -392.283447 
L 759.4515 -392.506193 
L 779.6564 -386.828967 
L 799.8613 -383.392559 
L 820.0662 -387.191282 
L 840.2711 -387.291107 
L 860.476 -387.435601 
L 880.6809 -388.942248 
L 900.8858 -388.971625 
L 921.0907 -384.002256 
L 941.2956 -384.022185 
L 961.5005 -402.360854 
L 981.7054 -381.206433 
L 1001.9103 -384.913971 
L 1022.1152 -377.738498 
L 1042.3201 -377.837388 
L 1062.525 -374.976855 
L 1062.525 -403.510234 
L 1062.525 -403.510234 
L 1042.3201 -405.912709 
L 1022.1152 -405.916757 
L 1001.9103 -407.362312 
L 981.7054 -405.880118 
L 961.5005 -402.916327 
L 941.2956 -406.963736 
L 921.0907 -406.924365 
L 900.8858 -407.245836 
L 880.6809 -407.153285 
L 860.476 -407.615562 
L 840.2711 -407.650662 
L 820.0662 -407.572048 
L 799.8613 -406.569751 
L 779.6564 -407.572676 
L 759.4515 -407.086998 
L 739.2466 -407.062135 
L 719.0417 -407.515653 
L 698.8368 -402.347163 
L 678.6319 -406.626703 
L 658.427 -407.485657 
L 638.2221 -407.386524 
L 618.0172 -407.030643 
L 597.8123 -406.802878 
L 577.6074 -407.949627 
L 557.4025 -407.844183 
L 537.1976 -407.71079 
L 516.9927 -406.304215 
L 496.7878 -406.186033 
L 476.5829 -405.770816 
L 456.378 -406.285275 
L 436.1731 -406.07627 
L 415.9682 -400.600494 
L 395.7633 -403.668725 
L 375.5584 -402.721649 
L 355.3535 -402.468824 
L 335.1486 -401.921112 
L 314.9437 -401.8599 
L 294.7388 -401.772933 
L 274.5339 -400.414668 
L 254.329 -400.915585 
L 234.1241 -400.666575 
L 213.9192 -398.769918 
L 193.7143 -399.354127 
L 173.5094 -399.894204 
L 153.3045 -400.723158 
L 133.0996 -398.89343 
L 112.8947 -398.669404 
L 92.6898 -395.954531 
L 72.4849 -396.328464 
L 52.28 -394.785725 
z
" style="stroke: #17becf; stroke-opacity: 0.2"/>
    </defs>
    <g clip-path="url(#p416082fa22)">
     <use xlink:href="#m58412248e0" x="0" y="432" style="fill: #17becf; fill-opacity: 0.2; stroke: #17becf; stroke-opacity: 0.2"/>
    </g>
   </g>
   <g id="PolyCollection_11">
    <defs>
     <path id="m09e4f98417" d="M 52.28 -333.581728 
L 52.28 -312.19899 
L 72.4849 -309.664177 
L 92.6898 -309.34177 
L 112.8947 -315.766663 
L 133.0996 -318.265387 
L 153.3045 -332.814324 
L 173.5094 -341.604614 
L 193.7143 -345.177028 
L 213.9192 -351.677187 
L 234.1241 -359.885402 
L 254.329 -360.242339 
L 274.5339 -357.649436 
L 294.7388 -357.26627 
L 314.9437 -361.288376 
L 335.1486 -359.590431 
L 355.3535 -357.80773 
L 375.5584 -362.656611 
L 395.7633 -362.551624 
L 415.9682 -358.794252 
L 436.1731 -374.474969 
L 456.378 -375.102139 
L 476.5829 -365.786316 
L 496.7878 -386.551 
L 516.9927 -385.430847 
L 537.1976 -387.156647 
L 557.4025 -382.415843 
L 577.6074 -384.509514 
L 597.8123 -381.465128 
L 618.0172 -380.996759 
L 638.2221 -377.587987 
L 658.427 -380.759384 
L 678.6319 -384.666242 
L 698.8368 -381.208954 
L 719.0417 -389.660767 
L 739.2466 -390.968522 
L 759.4515 -393.866037 
L 779.6564 -399.831299 
L 799.8613 -382.465559 
L 820.0662 -381.497939 
L 840.2711 -381.51389 
L 860.476 -384.53566 
L 880.6809 -391.572278 
L 900.8858 -391.655929 
L 921.0907 -384.254019 
L 941.2956 -382.228727 
L 961.5005 -382.364685 
L 981.7054 -381.548562 
L 1001.9103 -381.684515 
L 1022.1152 -383.369125 
L 1042.3201 -378.253679 
L 1062.525 -383.431281 
L 1062.525 -407.148262 
L 1062.525 -407.148262 
L 1042.3201 -406.017829 
L 1022.1152 -406.998467 
L 1001.9103 -407.353412 
L 981.7054 -407.331382 
L 961.5005 -407.143764 
L 941.2956 -407.07904 
L 921.0907 -409.051924 
L 900.8858 -407.669374 
L 880.6809 -407.580198 
L 860.476 -406.072907 
L 840.2711 -407.267121 
L 820.0662 -407.212674 
L 799.8613 -407.294267 
L 779.6564 -403.123275 
L 759.4515 -405.269732 
L 739.2466 -405.162412 
L 719.0417 -405.650033 
L 698.8368 -408.309989 
L 678.6319 -407.066963 
L 658.427 -405.738845 
L 638.2221 -406.564497 
L 618.0172 -405.56332 
L 597.8123 -405.413642 
L 577.6074 -405.912084 
L 557.4025 -404.539157 
L 537.1976 -406.269497 
L 516.9927 -406.749001 
L 496.7878 -405.712504 
L 476.5829 -407.561402 
L 456.378 -402.935237 
L 436.1731 -402.636891 
L 415.9682 -397.595615 
L 395.7633 -392.880731 
L 375.5584 -392.38793 
L 355.3535 -389.435549 
L 335.1486 -392.0953 
L 314.9437 -394.506933 
L 294.7388 -388.071258 
L 274.5339 -386.802583 
L 254.329 -385.92618 
L 234.1241 -385.658457 
L 213.9192 -374.348768 
L 193.7143 -372.606469 
L 173.5094 -365.469371 
L 153.3045 -367.06813 
L 133.0996 -356.693765 
L 112.8947 -350.393886 
L 92.6898 -353.374248 
L 72.4849 -338.587885 
L 52.28 -333.581728 
z
" style="stroke: #9edae5; stroke-opacity: 0.2"/>
    </defs>
    <g clip-path="url(#p416082fa22)">
     <use xlink:href="#m09e4f98417" x="0" y="432" style="fill: #9edae5; fill-opacity: 0.2; stroke: #9edae5; stroke-opacity: 0.2"/>
    </g>
   </g>
   <g id="matplotlib.axis_1">
    <g id="xtick_1">
     <g id="line2d_1">
      <defs>
       <path id="m42479e9070" d="M 0 0 
L 0 3.5 
" style="stroke: #000000; stroke-width: 0.8"/>
      </defs>
      <g>
       <use xlink:href="#m42479e9070" x="52.28" y="382.6" style="stroke: #000000; stroke-width: 0.8"/>
      </g>
     </g>
     <g id="text_1">
      <!-- 30 -->
      <g transform="translate(45.606875 398.189375) scale(0.12 -0.12)">
       <defs>
        <path id="ArialMT-33" d="M 269 1209 
L 831 1284 
Q 928 806 1161 595 
Q 1394 384 1728 384 
Q 2125 384 2398 659 
Q 2672 934 2672 1341 
Q 2672 1728 2419 1979 
Q 2166 2231 1775 2231 
Q 1616 2231 1378 2169 
L 1441 2663 
Q 1497 2656 1531 2656 
Q 1891 2656 2178 2843 
Q 2466 3031 2466 3422 
Q 2466 3731 2256 3934 
Q 2047 4138 1716 4138 
Q 1388 4138 1169 3931 
Q 950 3725 888 3313 
L 325 3413 
Q 428 3978 793 4289 
Q 1159 4600 1703 4600 
Q 2078 4600 2393 4439 
Q 2709 4278 2876 4000 
Q 3044 3722 3044 3409 
Q 3044 3113 2884 2869 
Q 2725 2625 2413 2481 
Q 2819 2388 3044 2092 
Q 3269 1797 3269 1353 
Q 3269 753 2831 336 
Q 2394 -81 1725 -81 
Q 1122 -81 723 278 
Q 325 638 269 1209 
z
" transform="scale(0.015625)"/>
        <path id="ArialMT-30" d="M 266 2259 
Q 266 3072 433 3567 
Q 600 4063 929 4331 
Q 1259 4600 1759 4600 
Q 2128 4600 2406 4451 
Q 2684 4303 2865 4023 
Q 3047 3744 3150 3342 
Q 3253 2941 3253 2259 
Q 3253 1453 3087 958 
Q 2922 463 2592 192 
Q 2263 -78 1759 -78 
Q 1097 -78 719 397 
Q 266 969 266 2259 
z
M 844 2259 
Q 844 1131 1108 757 
Q 1372 384 1759 384 
Q 2147 384 2411 759 
Q 2675 1134 2675 2259 
Q 2675 3391 2411 3762 
Q 2147 4134 1753 4134 
Q 1366 4134 1134 3806 
Q 844 3388 844 2259 
z
" transform="scale(0.015625)"/>
       </defs>
       <use xlink:href="#ArialMT-33"/>
       <use xlink:href="#ArialMT-30" x="55.615234"/>
      </g>
     </g>
    </g>
    <g id="xtick_2">
     <g id="line2d_2">
      <g>
       <use xlink:href="#m42479e9070" x="254.329" y="382.6" style="stroke: #000000; stroke-width: 0.8"/>
      </g>
     </g>
     <g id="text_2">
      <!-- 40 -->
      <g transform="translate(247.655875 398.189375) scale(0.12 -0.12)">
       <defs>
        <path id="ArialMT-34" d="M 2069 0 
L 2069 1097 
L 81 1097 
L 81 1613 
L 2172 4581 
L 2631 4581 
L 2631 1613 
L 3250 1613 
L 3250 1097 
L 2631 1097 
L 2631 0 
L 2069 0 
z
M 2069 1613 
L 2069 3678 
L 634 1613 
L 2069 1613 
z
" transform="scale(0.015625)"/>
       </defs>
       <use xlink:href="#ArialMT-34"/>
       <use xlink:href="#ArialMT-30" x="55.615234"/>
      </g>
     </g>
    </g>
    <g id="xtick_3">
     <g id="line2d_3">
      <g>
       <use xlink:href="#m42479e9070" x="456.378" y="382.6" style="stroke: #000000; stroke-width: 0.8"/>
      </g>
     </g>
     <g id="text_3">
      <!-- 50 -->
      <g transform="translate(449.704875 398.189375) scale(0.12 -0.12)">
       <defs>
        <path id="ArialMT-35" d="M 266 1200 
L 856 1250 
Q 922 819 1161 601 
Q 1400 384 1738 384 
Q 2144 384 2425 690 
Q 2706 997 2706 1503 
Q 2706 1984 2436 2262 
Q 2166 2541 1728 2541 
Q 1456 2541 1237 2417 
Q 1019 2294 894 2097 
L 366 2166 
L 809 4519 
L 3088 4519 
L 3088 3981 
L 1259 3981 
L 1013 2750 
Q 1425 3038 1878 3038 
Q 2478 3038 2890 2622 
Q 3303 2206 3303 1553 
Q 3303 931 2941 478 
Q 2500 -78 1738 -78 
Q 1113 -78 717 272 
Q 322 622 266 1200 
z
" transform="scale(0.015625)"/>
       </defs>
       <use xlink:href="#ArialMT-35"/>
       <use xlink:href="#ArialMT-30" x="55.615234"/>
      </g>
     </g>
    </g>
    <g id="xtick_4">
     <g id="line2d_4">
      <g>
       <use xlink:href="#m42479e9070" x="658.427" y="382.6" style="stroke: #000000; stroke-width: 0.8"/>
      </g>
     </g>
     <g id="text_4">
      <!-- 60 -->
      <g transform="translate(651.753875 398.189375) scale(0.12 -0.12)">
       <defs>
        <path id="ArialMT-36" d="M 3184 3459 
L 2625 3416 
Q 2550 3747 2413 3897 
Q 2184 4138 1850 4138 
Q 1581 4138 1378 3988 
Q 1113 3794 959 3422 
Q 806 3050 800 2363 
Q 1003 2672 1297 2822 
Q 1591 2972 1913 2972 
Q 2475 2972 2870 2558 
Q 3266 2144 3266 1488 
Q 3266 1056 3080 686 
Q 2894 316 2569 119 
Q 2244 -78 1831 -78 
Q 1128 -78 684 439 
Q 241 956 241 2144 
Q 241 3472 731 4075 
Q 1159 4600 1884 4600 
Q 2425 4600 2770 4297 
Q 3116 3994 3184 3459 
z
M 888 1484 
Q 888 1194 1011 928 
Q 1134 663 1356 523 
Q 1578 384 1822 384 
Q 2178 384 2434 671 
Q 2691 959 2691 1453 
Q 2691 1928 2437 2201 
Q 2184 2475 1800 2475 
Q 1419 2475 1153 2201 
Q 888 1928 888 1484 
z
" transform="scale(0.015625)"/>
       </defs>
       <use xlink:href="#ArialMT-36"/>
       <use xlink:href="#ArialMT-30" x="55.615234"/>
      </g>
     </g>
    </g>
    <g id="xtick_5">
     <g id="line2d_5">
      <g>
       <use xlink:href="#m42479e9070" x="860.476" y="382.6" style="stroke: #000000; stroke-width: 0.8"/>
      </g>
     </g>
     <g id="text_5">
      <!-- 70 -->
      <g transform="translate(853.802875 398.189375) scale(0.12 -0.12)">
       <defs>
        <path id="ArialMT-37" d="M 303 3981 
L 303 4522 
L 3269 4522 
L 3269 4084 
Q 2831 3619 2401 2847 
Q 1972 2075 1738 1259 
Q 1569 684 1522 0 
L 944 0 
Q 953 541 1156 1306 
Q 1359 2072 1739 2783 
Q 2119 3494 2547 3981 
L 303 3981 
z
" transform="scale(0.015625)"/>
       </defs>
       <use xlink:href="#ArialMT-37"/>
       <use xlink:href="#ArialMT-30" x="55.615234"/>
      </g>
     </g>
    </g>
    <g id="xtick_6">
     <g id="line2d_6">
      <g>
       <use xlink:href="#m42479e9070" x="1062.525" y="382.6" style="stroke: #000000; stroke-width: 0.8"/>
      </g>
     </g>
     <g id="text_6">
      <!-- 80 -->
      <g transform="translate(1055.851875 398.189375) scale(0.12 -0.12)">
       <defs>
        <path id="ArialMT-38" d="M 1131 2484 
Q 781 2613 612 2850 
Q 444 3088 444 3419 
Q 444 3919 803 4259 
Q 1163 4600 1759 4600 
Q 2359 4600 2725 4251 
Q 3091 3903 3091 3403 
Q 3091 3084 2923 2848 
Q 2756 2613 2416 2484 
Q 2838 2347 3058 2040 
Q 3278 1734 3278 1309 
Q 3278 722 2862 322 
Q 2447 -78 1769 -78 
Q 1091 -78 675 323 
Q 259 725 259 1325 
Q 259 1772 486 2073 
Q 713 2375 1131 2484 
z
M 1019 3438 
Q 1019 3113 1228 2906 
Q 1438 2700 1772 2700 
Q 2097 2700 2305 2904 
Q 2513 3109 2513 3406 
Q 2513 3716 2298 3927 
Q 2084 4138 1766 4138 
Q 1444 4138 1231 3931 
Q 1019 3725 1019 3438 
z
M 838 1322 
Q 838 1081 952 856 
Q 1066 631 1291 507 
Q 1516 384 1775 384 
Q 2178 384 2440 643 
Q 2703 903 2703 1303 
Q 2703 1709 2433 1975 
Q 2163 2241 1756 2241 
Q 1359 2241 1098 1978 
Q 838 1716 838 1322 
z
" transform="scale(0.015625)"/>
       </defs>
       <use xlink:href="#ArialMT-38"/>
       <use xlink:href="#ArialMT-30" x="55.615234"/>
      </g>
     </g>
    </g>
    <g id="text_7">
     <!-- Number of baits -->
     <g transform="translate(493.879375 417.458438) scale(0.18 -0.18)">
      <defs>
       <path id="ArialMT-4e" d="M 488 0 
L 488 4581 
L 1109 4581 
L 3516 984 
L 3516 4581 
L 4097 4581 
L 4097 0 
L 3475 0 
L 1069 3600 
L 1069 0 
L 488 0 
z
" transform="scale(0.015625)"/>
       <path id="ArialMT-75" d="M 2597 0 
L 2597 488 
Q 2209 -75 1544 -75 
Q 1250 -75 995 37 
Q 741 150 617 320 
Q 494 491 444 738 
Q 409 903 409 1263 
L 409 3319 
L 972 3319 
L 972 1478 
Q 972 1038 1006 884 
Q 1059 663 1231 536 
Q 1403 409 1656 409 
Q 1909 409 2131 539 
Q 2353 669 2445 892 
Q 2538 1116 2538 1541 
L 2538 3319 
L 3100 3319 
L 3100 0 
L 2597 0 
z
" transform="scale(0.015625)"/>
       <path id="ArialMT-6d" d="M 422 0 
L 422 3319 
L 925 3319 
L 925 2853 
Q 1081 3097 1340 3245 
Q 1600 3394 1931 3394 
Q 2300 3394 2536 3241 
Q 2772 3088 2869 2813 
Q 3263 3394 3894 3394 
Q 4388 3394 4653 3120 
Q 4919 2847 4919 2278 
L 4919 0 
L 4359 0 
L 4359 2091 
Q 4359 2428 4304 2576 
Q 4250 2725 4106 2815 
Q 3963 2906 3769 2906 
Q 3419 2906 3187 2673 
Q 2956 2441 2956 1928 
L 2956 0 
L 2394 0 
L 2394 2156 
Q 2394 2531 2256 2718 
Q 2119 2906 1806 2906 
Q 1569 2906 1367 2781 
Q 1166 2656 1075 2415 
Q 984 2175 984 1722 
L 984 0 
L 422 0 
z
" transform="scale(0.015625)"/>
       <path id="ArialMT-62" d="M 941 0 
L 419 0 
L 419 4581 
L 981 4581 
L 981 2947 
Q 1338 3394 1891 3394 
Q 2197 3394 2470 3270 
Q 2744 3147 2920 2923 
Q 3097 2700 3197 2384 
Q 3297 2069 3297 1709 
Q 3297 856 2875 390 
Q 2453 -75 1863 -75 
Q 1275 -75 941 416 
L 941 0 
z
M 934 1684 
Q 934 1088 1097 822 
Q 1363 388 1816 388 
Q 2184 388 2453 708 
Q 2722 1028 2722 1663 
Q 2722 2313 2464 2622 
Q 2206 2931 1841 2931 
Q 1472 2931 1203 2611 
Q 934 2291 934 1684 
z
" transform="scale(0.015625)"/>
       <path id="ArialMT-65" d="M 2694 1069 
L 3275 997 
Q 3138 488 2766 206 
Q 2394 -75 1816 -75 
Q 1088 -75 661 373 
Q 234 822 234 1631 
Q 234 2469 665 2931 
Q 1097 3394 1784 3394 
Q 2450 3394 2872 2941 
Q 3294 2488 3294 1666 
Q 3294 1616 3291 1516 
L 816 1516 
Q 847 969 1125 678 
Q 1403 388 1819 388 
Q 2128 388 2347 550 
Q 2566 713 2694 1069 
z
M 847 1978 
L 2700 1978 
Q 2663 2397 2488 2606 
Q 2219 2931 1791 2931 
Q 1403 2931 1139 2672 
Q 875 2413 847 1978 
z
" transform="scale(0.015625)"/>
       <path id="ArialMT-72" d="M 416 0 
L 416 3319 
L 922 3319 
L 922 2816 
Q 1116 3169 1280 3281 
Q 1444 3394 1641 3394 
Q 1925 3394 2219 3213 
L 2025 2691 
Q 1819 2813 1613 2813 
Q 1428 2813 1281 2702 
Q 1134 2591 1072 2394 
Q 978 2094 978 1738 
L 978 0 
L 416 0 
z
" transform="scale(0.015625)"/>
       <path id="ArialMT-20" transform="scale(0.015625)"/>
       <path id="ArialMT-6f" d="M 213 1659 
Q 213 2581 725 3025 
Q 1153 3394 1769 3394 
Q 2453 3394 2887 2945 
Q 3322 2497 3322 1706 
Q 3322 1066 3130 698 
Q 2938 331 2570 128 
Q 2203 -75 1769 -75 
Q 1072 -75 642 372 
Q 213 819 213 1659 
z
M 791 1659 
Q 791 1022 1069 705 
Q 1347 388 1769 388 
Q 2188 388 2466 706 
Q 2744 1025 2744 1678 
Q 2744 2294 2464 2611 
Q 2184 2928 1769 2928 
Q 1347 2928 1069 2612 
Q 791 2297 791 1659 
z
" transform="scale(0.015625)"/>
       <path id="ArialMT-66" d="M 556 0 
L 556 2881 
L 59 2881 
L 59 3319 
L 556 3319 
L 556 3672 
Q 556 4006 616 4169 
Q 697 4388 901 4523 
Q 1106 4659 1475 4659 
Q 1713 4659 2000 4603 
L 1916 4113 
Q 1741 4144 1584 4144 
Q 1328 4144 1222 4034 
Q 1116 3925 1116 3625 
L 1116 3319 
L 1763 3319 
L 1763 2881 
L 1116 2881 
L 1116 0 
L 556 0 
z
" transform="scale(0.015625)"/>
       <path id="ArialMT-61" d="M 2588 409 
Q 2275 144 1986 34 
Q 1697 -75 1366 -75 
Q 819 -75 525 192 
Q 231 459 231 875 
Q 231 1119 342 1320 
Q 453 1522 633 1644 
Q 813 1766 1038 1828 
Q 1203 1872 1538 1913 
Q 2219 1994 2541 2106 
Q 2544 2222 2544 2253 
Q 2544 2597 2384 2738 
Q 2169 2928 1744 2928 
Q 1347 2928 1158 2789 
Q 969 2650 878 2297 
L 328 2372 
Q 403 2725 575 2942 
Q 747 3159 1072 3276 
Q 1397 3394 1825 3394 
Q 2250 3394 2515 3294 
Q 2781 3194 2906 3042 
Q 3031 2891 3081 2659 
Q 3109 2516 3109 2141 
L 3109 1391 
Q 3109 606 3145 398 
Q 3181 191 3288 0 
L 2700 0 
Q 2613 175 2588 409 
z
M 2541 1666 
Q 2234 1541 1622 1453 
Q 1275 1403 1131 1340 
Q 988 1278 909 1158 
Q 831 1038 831 891 
Q 831 666 1001 516 
Q 1172 366 1500 366 
Q 1825 366 2078 508 
Q 2331 650 2450 897 
Q 2541 1088 2541 1459 
L 2541 1666 
z
" transform="scale(0.015625)"/>
       <path id="ArialMT-69" d="M 425 3934 
L 425 4581 
L 988 4581 
L 988 3934 
L 425 3934 
z
M 425 0 
L 425 3319 
L 988 3319 
L 988 0 
L 425 0 
z
" transform="scale(0.015625)"/>
       <path id="ArialMT-74" d="M 1650 503 
L 1731 6 
Q 1494 -44 1306 -44 
Q 1000 -44 831 53 
Q 663 150 594 308 
Q 525 466 525 972 
L 525 2881 
L 113 2881 
L 113 3319 
L 525 3319 
L 525 4141 
L 1084 4478 
L 1084 3319 
L 1650 3319 
L 1650 2881 
L 1084 2881 
L 1084 941 
Q 1084 700 1114 631 
Q 1144 563 1211 522 
Q 1278 481 1403 481 
Q 1497 481 1650 503 
z
" transform="scale(0.015625)"/>
       <path id="ArialMT-73" d="M 197 991 
L 753 1078 
Q 800 744 1014 566 
Q 1228 388 1613 388 
Q 2000 388 2187 545 
Q 2375 703 2375 916 
Q 2375 1106 2209 1216 
Q 2094 1291 1634 1406 
Q 1016 1563 777 1677 
Q 538 1791 414 1992 
Q 291 2194 291 2438 
Q 291 2659 392 2848 
Q 494 3038 669 3163 
Q 800 3259 1026 3326 
Q 1253 3394 1513 3394 
Q 1903 3394 2198 3281 
Q 2494 3169 2634 2976 
Q 2775 2784 2828 2463 
L 2278 2388 
Q 2241 2644 2061 2787 
Q 1881 2931 1553 2931 
Q 1166 2931 1000 2803 
Q 834 2675 834 2503 
Q 834 2394 903 2306 
Q 972 2216 1119 2156 
Q 1203 2125 1616 2013 
Q 2213 1853 2448 1751 
Q 2684 1650 2818 1456 
Q 2953 1263 2953 975 
Q 2953 694 2789 445 
Q 2625 197 2315 61 
Q 2006 -75 1616 -75 
Q 969 -75 630 194 
Q 291 463 197 991 
z
" transform="scale(0.015625)"/>
      </defs>
      <use xlink:href="#ArialMT-4e"/>
      <use xlink:href="#ArialMT-75" x="72.216797"/>
      <use xlink:href="#ArialMT-6d" x="127.832031"/>
      <use xlink:href="#ArialMT-62" x="211.132812"/>
      <use xlink:href="#ArialMT-65" x="266.748047"/>
      <use xlink:href="#ArialMT-72" x="322.363281"/>
      <use xlink:href="#ArialMT-20" x="355.664062"/>
      <use xlink:href="#ArialMT-6f" x="383.447266"/>
      <use xlink:href="#ArialMT-66" x="439.0625"/>
      <use xlink:href="#ArialMT-20" x="466.845703"/>
      <use xlink:href="#ArialMT-62" x="494.628906"/>
      <use xlink:href="#ArialMT-61" x="550.244141"/>
      <use xlink:href="#ArialMT-69" x="605.859375"/>
      <use xlink:href="#ArialMT-74" x="628.076172"/>
      <use xlink:href="#ArialMT-73" x="655.859375"/>
     </g>
    </g>
   </g>
   <g id="matplotlib.axis_2">
    <g id="ytick_1">
     <g id="line2d_7">
      <defs>
       <path id="md0945b7289" d="M 0 0 
L -3.5 0 
" style="stroke: #000000; stroke-width: 0.8"/>
      </defs>
      <g>
       <use xlink:href="#md0945b7289" x="52.28" y="382.6" style="stroke: #000000; stroke-width: 0.8"/>
      </g>
     </g>
     <g id="text_8">
      <!-- 0.0 -->
      <g transform="translate(31.38 386.178906) scale(0.1 -0.1)">
       <defs>
        <path id="ArialMT-2e" d="M 581 0 
L 581 641 
L 1222 641 
L 1222 0 
L 581 0 
z
" transform="scale(0.015625)"/>
       </defs>
       <use xlink:href="#ArialMT-30"/>
       <use xlink:href="#ArialMT-2e" x="55.615234"/>
       <use xlink:href="#ArialMT-30" x="83.398438"/>
      </g>
     </g>
    </g>
    <g id="ytick_2">
     <g id="line2d_8">
      <g>
       <use xlink:href="#md0945b7289" x="52.28" y="311.744" style="stroke: #000000; stroke-width: 0.8"/>
      </g>
     </g>
     <g id="text_9">
      <!-- 0.2 -->
      <g transform="translate(31.38 315.322906) scale(0.1 -0.1)">
       <defs>
        <path id="ArialMT-32" d="M 3222 541 
L 3222 0 
L 194 0 
Q 188 203 259 391 
Q 375 700 629 1000 
Q 884 1300 1366 1694 
Q 2113 2306 2375 2664 
Q 2638 3022 2638 3341 
Q 2638 3675 2398 3904 
Q 2159 4134 1775 4134 
Q 1369 4134 1125 3890 
Q 881 3647 878 3216 
L 300 3275 
Q 359 3922 746 4261 
Q 1134 4600 1788 4600 
Q 2447 4600 2831 4234 
Q 3216 3869 3216 3328 
Q 3216 3053 3103 2787 
Q 2991 2522 2730 2228 
Q 2469 1934 1863 1422 
Q 1356 997 1212 845 
Q 1069 694 975 541 
L 3222 541 
z
" transform="scale(0.015625)"/>
       </defs>
       <use xlink:href="#ArialMT-30"/>
       <use xlink:href="#ArialMT-2e" x="55.615234"/>
       <use xlink:href="#ArialMT-32" x="83.398438"/>
      </g>
     </g>
    </g>
    <g id="ytick_3">
     <g id="line2d_9">
      <g>
       <use xlink:href="#md0945b7289" x="52.28" y="240.888" style="stroke: #000000; stroke-width: 0.8"/>
      </g>
     </g>
     <g id="text_10">
      <!-- 0.4 -->
      <g transform="translate(31.38 244.466906) scale(0.1 -0.1)">
       <use xlink:href="#ArialMT-30"/>
       <use xlink:href="#ArialMT-2e" x="55.615234"/>
       <use xlink:href="#ArialMT-34" x="83.398438"/>
      </g>
     </g>
    </g>
    <g id="ytick_4">
     <g id="line2d_10">
      <g>
       <use xlink:href="#md0945b7289" x="52.28" y="170.032" style="stroke: #000000; stroke-width: 0.8"/>
      </g>
     </g>
     <g id="text_11">
      <!-- 0.6 -->
      <g transform="translate(31.38 173.610906) scale(0.1 -0.1)">
       <use xlink:href="#ArialMT-30"/>
       <use xlink:href="#ArialMT-2e" x="55.615234"/>
       <use xlink:href="#ArialMT-36" x="83.398438"/>
      </g>
     </g>
    </g>
    <g id="ytick_5">
     <g id="line2d_11">
      <g>
       <use xlink:href="#md0945b7289" x="52.28" y="99.176" style="stroke: #000000; stroke-width: 0.8"/>
      </g>
     </g>
     <g id="text_12">
      <!-- 0.8 -->
      <g transform="translate(31.38 102.754906) scale(0.1 -0.1)">
       <use xlink:href="#ArialMT-30"/>
       <use xlink:href="#ArialMT-2e" x="55.615234"/>
       <use xlink:href="#ArialMT-38" x="83.398438"/>
      </g>
     </g>
    </g>
    <g id="ytick_6">
     <g id="line2d_12">
      <g>
       <use xlink:href="#md0945b7289" x="52.28" y="28.32" style="stroke: #000000; stroke-width: 0.8"/>
      </g>
     </g>
     <g id="text_13">
      <!-- 1.0 -->
      <g transform="translate(31.38 31.898906) scale(0.1 -0.1)">
       <defs>
        <path id="ArialMT-31" d="M 2384 0 
L 1822 0 
L 1822 3584 
Q 1619 3391 1289 3197 
Q 959 3003 697 2906 
L 697 3450 
Q 1169 3672 1522 3987 
Q 1875 4303 2022 4600 
L 2384 4600 
L 2384 0 
z
" transform="scale(0.015625)"/>
       </defs>
       <use xlink:href="#ArialMT-31"/>
       <use xlink:href="#ArialMT-2e" x="55.615234"/>
       <use xlink:href="#ArialMT-30" x="83.398438"/>
      </g>
     </g>
    </g>
    <g id="text_14">
     <!-- NMF mean Pearson correlation score -->
     <g transform="translate(23.8025 355.009063) rotate(-90) scale(0.18 -0.18)">
      <defs>
       <path id="ArialMT-4d" d="M 475 0 
L 475 4581 
L 1388 4581 
L 2472 1338 
Q 2622 884 2691 659 
Q 2769 909 2934 1394 
L 4031 4581 
L 4847 4581 
L 4847 0 
L 4263 0 
L 4263 3834 
L 2931 0 
L 2384 0 
L 1059 3900 
L 1059 0 
L 475 0 
z
" transform="scale(0.015625)"/>
       <path id="ArialMT-46" d="M 525 0 
L 525 4581 
L 3616 4581 
L 3616 4041 
L 1131 4041 
L 1131 2622 
L 3281 2622 
L 3281 2081 
L 1131 2081 
L 1131 0 
L 525 0 
z
" transform="scale(0.015625)"/>
       <path id="ArialMT-6e" d="M 422 0 
L 422 3319 
L 928 3319 
L 928 2847 
Q 1294 3394 1984 3394 
Q 2284 3394 2536 3286 
Q 2788 3178 2913 3003 
Q 3038 2828 3088 2588 
Q 3119 2431 3119 2041 
L 3119 0 
L 2556 0 
L 2556 2019 
Q 2556 2363 2490 2533 
Q 2425 2703 2258 2804 
Q 2091 2906 1866 2906 
Q 1506 2906 1245 2678 
Q 984 2450 984 1813 
L 984 0 
L 422 0 
z
" transform="scale(0.015625)"/>
       <path id="ArialMT-50" d="M 494 0 
L 494 4581 
L 2222 4581 
Q 2678 4581 2919 4538 
Q 3256 4481 3484 4323 
Q 3713 4166 3852 3881 
Q 3991 3597 3991 3256 
Q 3991 2672 3619 2267 
Q 3247 1863 2275 1863 
L 1100 1863 
L 1100 0 
L 494 0 
z
M 1100 2403 
L 2284 2403 
Q 2872 2403 3119 2622 
Q 3366 2841 3366 3238 
Q 3366 3525 3220 3729 
Q 3075 3934 2838 4000 
Q 2684 4041 2272 4041 
L 1100 4041 
L 1100 2403 
z
" transform="scale(0.015625)"/>
       <path id="ArialMT-63" d="M 2588 1216 
L 3141 1144 
Q 3050 572 2676 248 
Q 2303 -75 1759 -75 
Q 1078 -75 664 370 
Q 250 816 250 1647 
Q 250 2184 428 2587 
Q 606 2991 970 3192 
Q 1334 3394 1763 3394 
Q 2303 3394 2647 3120 
Q 2991 2847 3088 2344 
L 2541 2259 
Q 2463 2594 2264 2762 
Q 2066 2931 1784 2931 
Q 1359 2931 1093 2626 
Q 828 2322 828 1663 
Q 828 994 1084 691 
Q 1341 388 1753 388 
Q 2084 388 2306 591 
Q 2528 794 2588 1216 
z
" transform="scale(0.015625)"/>
       <path id="ArialMT-6c" d="M 409 0 
L 409 4581 
L 972 4581 
L 972 0 
L 409 0 
z
" transform="scale(0.015625)"/>
      </defs>
      <use xlink:href="#ArialMT-4e"/>
      <use xlink:href="#ArialMT-4d" x="72.216797"/>
      <use xlink:href="#ArialMT-46" x="155.517578"/>
      <use xlink:href="#ArialMT-20" x="216.601562"/>
      <use xlink:href="#ArialMT-6d" x="244.384766"/>
      <use xlink:href="#ArialMT-65" x="327.685547"/>
      <use xlink:href="#ArialMT-61" x="383.300781"/>
      <use xlink:href="#ArialMT-6e" x="438.916016"/>
      <use xlink:href="#ArialMT-20" x="494.53125"/>
      <use xlink:href="#ArialMT-50" x="522.314453"/>
      <use xlink:href="#ArialMT-65" x="589.013672"/>
      <use xlink:href="#ArialMT-61" x="644.628906"/>
      <use xlink:href="#ArialMT-72" x="700.244141"/>
      <use xlink:href="#ArialMT-73" x="733.544922"/>
      <use xlink:href="#ArialMT-6f" x="783.544922"/>
      <use xlink:href="#ArialMT-6e" x="839.160156"/>
      <use xlink:href="#ArialMT-20" x="894.775391"/>
      <use xlink:href="#ArialMT-63" x="922.558594"/>
      <use xlink:href="#ArialMT-6f" x="972.558594"/>
      <use xlink:href="#ArialMT-72" x="1028.173828"/>
      <use xlink:href="#ArialMT-72" x="1061.474609"/>
      <use xlink:href="#ArialMT-65" x="1094.775391"/>
      <use xlink:href="#ArialMT-6c" x="1150.390625"/>
      <use xlink:href="#ArialMT-61" x="1172.607422"/>
      <use xlink:href="#ArialMT-74" x="1228.222656"/>
      <use xlink:href="#ArialMT-69" x="1256.005859"/>
      <use xlink:href="#ArialMT-6f" x="1278.222656"/>
      <use xlink:href="#ArialMT-6e" x="1333.837891"/>
      <use xlink:href="#ArialMT-20" x="1389.453125"/>
      <use xlink:href="#ArialMT-73" x="1417.236328"/>
      <use xlink:href="#ArialMT-63" x="1467.236328"/>
      <use xlink:href="#ArialMT-6f" x="1517.236328"/>
      <use xlink:href="#ArialMT-72" x="1572.851562"/>
      <use xlink:href="#ArialMT-65" x="1606.152344"/>
     </g>
    </g>
   </g>
   <g id="line2d_13">
    <path d="M 52.28 32.94091 
L 72.4849 32.47559 
L 92.6898 32.137599 
L 112.8947 31.864114 
L 133.0996 31.570078 
L 153.3045 31.343798 
L 173.5094 31.08224 
L 193.7143 31.023751 
L 213.9192 30.691218 
L 234.1241 30.476128 
L 254.329 30.402714 
L 274.5339 30.175103 
L 294.7388 29.988261 
L 314.9437 29.833572 
L 335.1486 29.730423 
L 355.3535 29.604018 
L 375.5584 29.532329 
L 395.7633 29.418541 
L 415.9682 29.364281 
L 436.1731 29.259543 
L 456.378 29.209796 
L 476.5829 29.142404 
L 496.7878 29.069049 
L 516.9927 29.054919 
L 537.1976 28.96786 
L 557.4025 28.938629 
L 577.6074 28.892506 
L 597.8123 28.834491 
L 618.0172 28.801271 
L 638.2221 28.768751 
L 658.427 28.757808 
L 678.6319 28.709862 
L 698.8368 28.688696 
L 719.0417 28.681095 
L 739.2466 28.635016 
L 759.4515 28.613274 
L 779.6564 28.589203 
L 799.8613 28.573846 
L 820.0662 28.55542 
L 840.2711 28.535357 
L 860.476 28.52116 
L 880.6809 28.501376 
L 900.8858 28.485987 
L 921.0907 28.472204 
L 941.2956 28.458263 
L 961.5005 28.45076 
L 981.7054 28.437103 
L 1001.9103 28.429963 
L 1022.1152 28.416783 
L 1042.3201 28.408736 
L 1062.525 28.39969 
" clip-path="url(#p416082fa22)" style="fill: none; stroke: #1f77b4; stroke-width: 0.8; stroke-linecap: square"/>
   </g>
   <g id="line2d_14">
    <path d="M 52.28 249.046297 
L 72.4849 227.277144 
L 92.6898 237.685741 
L 112.8947 227.719629 
L 133.0996 236.18097 
L 153.3045 222.040502 
L 173.5094 213.641558 
L 193.7143 215.578414 
L 213.9192 206.304834 
L 234.1241 212.399714 
L 254.329 216.520316 
L 274.5339 203.449428 
L 294.7388 191.652928 
L 314.9437 201.358001 
L 335.1486 191.767304 
L 355.3535 192.478578 
L 375.5584 192.453982 
L 395.7633 195.316702 
L 415.9682 188.506624 
L 436.1731 193.774165 
L 456.378 173.525579 
L 476.5829 176.955625 
L 496.7878 143.449355 
L 516.9927 193.009027 
L 537.1976 179.213648 
L 557.4025 178.110592 
L 577.6074 165.29832 
L 597.8123 170.905138 
L 618.0172 168.419873 
L 638.2221 162.762849 
L 658.427 149.260512 
L 678.6319 168.497529 
L 698.8368 148.790666 
L 719.0417 152.198254 
L 739.2466 139.053163 
L 759.4515 176.490091 
L 779.6564 143.065514 
L 799.8613 171.908578 
L 820.0662 135.285797 
L 840.2711 117.886261 
L 860.476 131.518381 
L 880.6809 151.458776 
L 900.8858 139.0536 
L 921.0907 134.947083 
L 941.2956 139.057562 
L 961.5005 137.605248 
L 981.7054 119.462368 
L 1001.9103 125.178824 
L 1022.1152 129.103127 
L 1042.3201 97.977187 
L 1062.525 117.236799 
" clip-path="url(#p416082fa22)" style="fill: none; stroke: #ff7f0e; stroke-width: 0.8; stroke-linecap: square"/>
   </g>
   <g id="line2d_15">
    <path d="M 52.28 45.895226 
L 72.4849 41.696925 
L 92.6898 43.114016 
L 112.8947 41.972128 
L 133.0996 37.359918 
L 153.3045 37.865108 
L 173.5094 38.389615 
L 193.7143 38.337031 
L 213.9192 37.525905 
L 234.1241 34.463188 
L 254.329 34.382293 
L 274.5339 34.194665 
L 294.7388 34.052648 
L 314.9437 33.814589 
L 335.1486 33.120851 
L 355.3535 32.998097 
L 375.5584 31.068371 
L 395.7633 30.821165 
L 415.9682 30.654714 
L 436.1731 32.228709 
L 456.378 33.33263 
L 476.5829 32.513139 
L 496.7878 32.40531 
L 516.9927 35.615083 
L 537.1976 29.883879 
L 557.4025 33.005406 
L 577.6074 29.717675 
L 597.8123 29.632394 
L 618.0172 32.274324 
L 638.2221 31.786155 
L 658.427 33.88848 
L 678.6319 36.064413 
L 698.8368 36.008915 
L 719.0417 33.673644 
L 739.2466 35.928993 
L 759.4515 35.879454 
L 779.6564 41.329932 
L 799.8613 38.127402 
L 820.0662 33.566001 
L 840.2711 34.238329 
L 860.476 38.48216 
L 880.6809 40.701861 
L 900.8858 40.359787 
L 921.0907 40.716447 
L 941.2956 45.343257 
L 961.5005 45.12604 
L 981.7054 37.800915 
L 1001.9103 33.311825 
L 1022.1152 37.769834 
L 1042.3201 38.496922 
L 1062.525 33.251869 
" clip-path="url(#p416082fa22)" style="fill: none; stroke: #2ca02c; stroke-width: 0.8; stroke-linecap: square"/>
   </g>
   <g id="line2d_16">
    <path d="M 52.28 45.723967 
L 72.4849 45.483944 
L 92.6898 42.119852 
L 112.8947 44.362254 
L 133.0996 41.578292 
L 153.3045 42.544368 
L 173.5094 39.741917 
L 193.7143 42.468016 
L 213.9192 41.608754 
L 234.1241 38.239872 
L 254.329 38.094259 
L 274.5339 35.723719 
L 294.7388 41.101139 
L 314.9437 38.451387 
L 335.1486 42.434188 
L 355.3535 38.101234 
L 375.5584 40.944369 
L 395.7633 37.68636 
L 415.9682 32.762157 
L 436.1731 32.687366 
L 456.378 32.49881 
L 476.5829 32.385549 
L 496.7878 33.608471 
L 516.9927 36.046613 
L 537.1976 39.839919 
L 557.4025 39.856473 
L 577.6074 37.672076 
L 597.8123 34.643565 
L 618.0172 37.123931 
L 638.2221 31.342253 
L 658.427 33.340094 
L 678.6319 30.889602 
L 698.8368 33.550201 
L 719.0417 33.49918 
L 739.2466 30.731299 
L 759.4515 33.116009 
L 779.6564 30.227521 
L 799.8613 30.214482 
L 820.0662 31.634001 
L 840.2711 31.446352 
L 860.476 31.431627 
L 880.6809 31.426931 
L 900.8858 34.07952 
L 921.0907 31.232766 
L 941.2956 32.223245 
L 961.5005 32.177575 
L 981.7054 31.146356 
L 1001.9103 29.257272 
L 1022.1152 29.130336 
L 1042.3201 29.090838 
L 1062.525 29.049709 
" clip-path="url(#p416082fa22)" style="fill: none; stroke: #d62728; stroke-width: 0.8; stroke-linecap: square"/>
   </g>
   <g id="line2d_17">
    <path d="M 52.28 43.950747 
L 72.4849 38.848842 
L 92.6898 38.29022 
L 112.8947 40.762503 
L 133.0996 37.273345 
L 153.3045 34.763234 
L 173.5094 35.2268 
L 193.7143 31.887745 
L 213.9192 31.650881 
L 234.1241 31.35131 
L 254.329 31.248728 
L 274.5339 31.140975 
L 294.7388 31.07317 
L 314.9437 30.901247 
L 335.1486 33.072509 
L 355.3535 32.970914 
L 375.5584 32.804348 
L 395.7633 35.649134 
L 415.9682 33.238246 
L 436.1731 32.476201 
L 456.378 35.195368 
L 476.5829 37.510758 
L 496.7878 32.84139 
L 516.9927 38.012482 
L 537.1976 39.080766 
L 557.4025 31.532026 
L 577.6074 33.853363 
L 597.8123 34.486675 
L 618.0172 39.062815 
L 638.2221 41.401169 
L 658.427 41.368722 
L 678.6319 43.258726 
L 698.8368 48.597301 
L 719.0417 46.240125 
L 739.2466 40.687853 
L 759.4515 40.824236 
L 779.6564 41.185844 
L 799.8613 38.568007 
L 820.0662 36.065933 
L 840.2711 31.014259 
L 860.476 33.447557 
L 880.6809 30.967459 
L 900.8858 33.178326 
L 921.0907 30.930953 
L 941.2956 30.91914 
L 961.5005 30.880546 
L 981.7054 30.868256 
L 1001.9103 28.622144 
L 1022.1152 28.593461 
L 1042.3201 28.576461 
L 1062.525 28.568067 
" clip-path="url(#p416082fa22)" style="fill: none; stroke: #9467bd; stroke-width: 0.8; stroke-linecap: square"/>
   </g>
   <g id="line2d_18">
    <path d="M 52.28 55.911696 
L 72.4849 56.307711 
L 92.6898 55.227531 
L 112.8947 54.581225 
L 133.0996 52.42296 
L 153.3045 50.005725 
L 173.5094 50.938593 
L 193.7143 57.64695 
L 213.9192 57.771647 
L 234.1241 55.512506 
L 254.329 51.810536 
L 274.5339 52.155218 
L 294.7388 47.33533 
L 314.9437 48.299703 
L 335.1486 48.104495 
L 355.3535 47.981635 
L 375.5584 42.455736 
L 395.7633 42.586442 
L 415.9682 41.010761 
L 436.1731 40.370185 
L 456.378 39.453461 
L 476.5829 36.498394 
L 496.7878 36.203727 
L 516.9927 42.33621 
L 537.1976 37.557859 
L 557.4025 47.297475 
L 577.6074 44.858327 
L 597.8123 43.552133 
L 618.0172 41.313077 
L 638.2221 38.67566 
L 658.427 41.00742 
L 678.6319 41.287883 
L 698.8368 43.756719 
L 719.0417 40.150019 
L 739.2466 40.957766 
L 759.4515 40.205894 
L 779.6564 38.74455 
L 799.8613 38.539582 
L 820.0662 38.441732 
L 840.2711 38.67257 
L 860.476 38.501847 
L 880.6809 36.130881 
L 900.8858 37.135691 
L 921.0907 39.40072 
L 941.2956 34.88991 
L 961.5005 37.453806 
L 981.7054 35.194392 
L 1001.9103 31.746712 
L 1022.1152 31.712942 
L 1042.3201 31.665276 
L 1062.525 34.17043 
" clip-path="url(#p416082fa22)" style="fill: none; stroke: #8c564b; stroke-width: 0.8; stroke-linecap: square"/>
   </g>
   <g id="line2d_19">
    <path d="M 52.28 55.811805 
L 72.4849 55.777385 
L 92.6898 55.474924 
L 112.8947 57.384944 
L 133.0996 57.345913 
L 153.3045 57.732967 
L 173.5094 55.068371 
L 193.7143 54.79352 
L 213.9192 54.380119 
L 234.1241 53.338541 
L 254.329 52.633631 
L 274.5339 52.919692 
L 294.7388 54.055946 
L 314.9437 51.677791 
L 335.1486 51.993266 
L 355.3535 49.161184 
L 375.5584 47.480357 
L 395.7633 46.919094 
L 415.9682 50.117926 
L 436.1731 48.443328 
L 456.378 49.492499 
L 476.5829 43.302508 
L 496.7878 42.422491 
L 516.9927 43.325604 
L 537.1976 45.731582 
L 557.4025 40.69574 
L 577.6074 47.957491 
L 597.8123 51.134085 
L 618.0172 44.542396 
L 638.2221 41.853417 
L 658.427 41.859187 
L 678.6319 43.980176 
L 698.8368 43.826446 
L 719.0417 37.186276 
L 739.2466 39.377113 
L 759.4515 39.302404 
L 779.6564 35.97594 
L 799.8613 35.516867 
L 820.0662 32.133027 
L 840.2711 32.568916 
L 860.476 32.521552 
L 880.6809 32.472478 
L 900.8858 32.419955 
L 921.0907 29.690575 
L 941.2956 32.330398 
L 961.5005 34.838593 
L 981.7054 31.98054 
L 1001.9103 31.884181 
L 1022.1152 34.398699 
L 1042.3201 34.358447 
L 1062.525 36.758568 
" clip-path="url(#p416082fa22)" style="fill: none; stroke: #e377c2; stroke-width: 0.8; stroke-linecap: square"/>
   </g>
   <g id="line2d_20">
    <path d="M 52.28 53.674471 
L 72.4849 52.367536 
L 92.6898 52.320919 
L 112.8947 50.89045 
L 133.0996 51.587913 
L 153.3045 52.178875 
L 173.5094 53.183356 
L 193.7143 52.02717 
L 213.9192 51.860356 
L 234.1241 49.376511 
L 254.329 48.315169 
L 274.5339 46.050264 
L 294.7388 46.02197 
L 314.9437 47.132618 
L 335.1486 45.844602 
L 355.3535 49.376154 
L 375.5584 49.90818 
L 395.7633 45.028441 
L 415.9682 48.622661 
L 436.1731 50.380157 
L 456.378 50.989555 
L 476.5829 48.650614 
L 496.7878 43.627536 
L 516.9927 45.052418 
L 537.1976 43.245128 
L 557.4025 43.248305 
L 577.6074 39.169978 
L 597.8123 41.001153 
L 618.0172 38.839898 
L 638.2221 38.667495 
L 658.427 41.839445 
L 678.6319 44.539598 
L 698.8368 42.89206 
L 719.0417 43.384218 
L 739.2466 41.166687 
L 759.4515 36.812013 
L 779.6564 37.765091 
L 799.8613 39.741542 
L 820.0662 39.79693 
L 840.2711 39.75062 
L 860.476 37.667831 
L 880.6809 37.320861 
L 900.8858 37.246984 
L 921.0907 37.934433 
L 941.2956 38.212832 
L 961.5005 40.48547 
L 981.7054 36.008061 
L 1001.9103 36.510952 
L 1022.1152 37.061529 
L 1042.3201 36.919765 
L 1062.525 39.369764 
" clip-path="url(#p416082fa22)" style="fill: none; stroke: #7f7f7f; stroke-width: 0.8; stroke-linecap: square"/>
   </g>
   <g id="line2d_21">
    <path d="M 52.28 48.705824 
L 72.4849 46.994141 
L 92.6898 48.837869 
L 112.8947 51.231881 
L 133.0996 50.331432 
L 153.3045 51.71232 
L 173.5094 52.878602 
L 193.7143 52.674587 
L 213.9192 51.973809 
L 234.1241 46.372516 
L 254.329 48.231737 
L 274.5339 48.379509 
L 294.7388 45.997373 
L 314.9437 42.130398 
L 335.1486 41.439335 
L 355.3535 44.65979 
L 375.5584 43.487932 
L 395.7633 39.060124 
L 415.9682 42.831867 
L 436.1731 41.089312 
L 456.378 40.955568 
L 476.5829 44.850016 
L 496.7878 44.776915 
L 516.9927 42.279077 
L 537.1976 42.227006 
L 557.4025 39.560858 
L 577.6074 35.910676 
L 597.8123 38.983567 
L 618.0172 35.311095 
L 638.2221 35.201922 
L 658.427 35.732281 
L 678.6319 32.44565 
L 698.8368 32.343737 
L 719.0417 31.635475 
L 739.2466 31.572273 
L 759.4515 35.41849 
L 779.6564 33.024105 
L 799.8613 33.73388 
L 820.0662 36.306758 
L 840.2711 38.853321 
L 860.476 38.924221 
L 880.6809 39.171119 
L 900.8858 36.104657 
L 921.0907 36.100115 
L 941.2956 38.432806 
L 961.5005 38.257897 
L 981.7054 38.228884 
L 1001.9103 35.503283 
L 1022.1152 37.951226 
L 1042.3201 34.009161 
L 1062.525 33.958662 
" clip-path="url(#p416082fa22)" style="fill: none; stroke: #bcbd22; stroke-width: 0.8; stroke-linecap: square"/>
   </g>
   <g id="line2d_22">
    <path d="M 52.28 46.708587 
L 72.4849 45.231124 
L 92.6898 49.153647 
L 112.8947 46.94745 
L 133.0996 46.460371 
L 153.3045 44.70576 
L 173.5094 42.635911 
L 193.7143 43.35566 
L 213.9192 44.203802 
L 234.1241 40.068854 
L 254.329 41.534658 
L 274.5339 45.407928 
L 294.7388 37.917522 
L 314.9437 37.727304 
L 335.1486 39.882258 
L 355.3535 37.455644 
L 375.5584 37.179101 
L 395.7633 35.321103 
L 415.9682 32.029081 
L 436.1731 36.976465 
L 456.378 36.79373 
L 476.5829 39.938686 
L 496.7878 38.934604 
L 516.9927 38.789083 
L 537.1976 37.159064 
L 557.4025 37.055791 
L 577.6074 36.983287 
L 597.8123 38.140257 
L 618.0172 38.00932 
L 638.2221 34.867855 
L 658.427 34.807581 
L 678.6319 32.717141 
L 698.8368 30.25039 
L 719.0417 32.648032 
L 739.2466 32.327209 
L 759.4515 32.203405 
L 779.6564 34.799179 
L 799.8613 37.018845 
L 820.0662 34.618335 
L 840.2711 34.529116 
L 860.476 34.474419 
L 880.6809 33.952234 
L 900.8858 33.891269 
L 921.0907 36.53669 
L 941.2956 36.507039 
L 961.5005 29.361409 
L 981.7054 38.456724 
L 1001.9103 35.861858 
L 1022.1152 40.172372 
L 1042.3201 40.124952 
L 1062.525 42.756455 
" clip-path="url(#p416082fa22)" style="fill: none; stroke: #17becf; stroke-width: 0.8; stroke-linecap: square"/>
   </g>
   <g id="line2d_23">
    <path d="M 52.28 109.109641 
L 72.4849 107.873969 
L 92.6898 100.641991 
L 112.8947 98.919726 
L 133.0996 94.520424 
L 153.3045 82.058773 
L 173.5094 78.463008 
L 193.7143 73.108251 
L 213.9192 68.987023 
L 234.1241 59.22807 
L 254.329 58.915741 
L 274.5339 59.77399 
L 294.7388 59.331236 
L 314.9437 54.102345 
L 335.1486 56.157135 
L 355.3535 58.378361 
L 375.5584 54.47773 
L 395.7633 54.283823 
L 415.9682 53.805067 
L 436.1731 43.44407 
L 456.378 42.981312 
L 476.5829 45.326141 
L 496.7878 35.868248 
L 516.9927 35.910076 
L 537.1976 35.286928 
L 557.4025 38.5225 
L 577.6074 36.789201 
L 597.8123 38.560615 
L 618.0172 38.719961 
L 638.2221 39.923758 
L 658.427 38.750885 
L 678.6319 36.133397 
L 698.8368 37.240528 
L 719.0417 34.3446 
L 739.2466 33.934533 
L 759.4515 32.432115 
L 779.6564 30.522713 
L 799.8613 37.120087 
L 820.0662 37.644693 
L 840.2711 37.609495 
L 860.476 36.695717 
L 880.6809 32.423762 
L 900.8858 32.337349 
L 921.0907 35.347028 
L 941.2956 37.346116 
L 961.5005 37.245775 
L 981.7054 37.560028 
L 1001.9103 37.481036 
L 1022.1152 36.816204 
L 1042.3201 39.864246 
L 1062.525 36.710229 
" clip-path="url(#p416082fa22)" style="fill: none; stroke: #9edae5; stroke-width: 0.8; stroke-linecap: square"/>
   </g>
   <g id="patch_3">
    <path d="M 52.28 382.6 
L 52.28 28.32 
" style="fill: none; stroke: #000000; stroke-width: 0.8; stroke-linejoin: miter; stroke-linecap: square"/>
   </g>
   <g id="patch_4">
    <path d="M 1062.525 382.6 
L 1062.525 28.32 
" style="fill: none; stroke: #000000; stroke-width: 0.8; stroke-linejoin: miter; stroke-linecap: square"/>
   </g>
   <g id="patch_5">
    <path d="M 52.28 382.6 
L 1062.525 382.6 
" style="fill: none; stroke: #000000; stroke-width: 0.8; stroke-linejoin: miter; stroke-linecap: square"/>
   </g>
   <g id="patch_6">
    <path d="M 52.28 28.32 
L 1062.525 28.32 
" style="fill: none; stroke: #000000; stroke-width: 0.8; stroke-linejoin: miter; stroke-linecap: square"/>
   </g>
   <g id="text_15">
    <!-- Dataset 2: Youn et al., 2018 -->
    <g transform="translate(459.1 22.32) scale(0.16 -0.16)">
     <defs>
      <path id="ArialMT-44" d="M 494 0 
L 494 4581 
L 2072 4581 
Q 2606 4581 2888 4516 
Q 3281 4425 3559 4188 
Q 3922 3881 4101 3404 
Q 4281 2928 4281 2316 
Q 4281 1794 4159 1391 
Q 4038 988 3847 723 
Q 3656 459 3429 307 
Q 3203 156 2883 78 
Q 2563 0 2147 0 
L 494 0 
z
M 1100 541 
L 2078 541 
Q 2531 541 2789 625 
Q 3047 709 3200 863 
Q 3416 1078 3536 1442 
Q 3656 1806 3656 2325 
Q 3656 3044 3420 3430 
Q 3184 3816 2847 3947 
Q 2603 4041 2063 4041 
L 1100 4041 
L 1100 541 
z
" transform="scale(0.015625)"/>
      <path id="ArialMT-3a" d="M 578 2678 
L 578 3319 
L 1219 3319 
L 1219 2678 
L 578 2678 
z
M 578 0 
L 578 641 
L 1219 641 
L 1219 0 
L 578 0 
z
" transform="scale(0.015625)"/>
      <path id="ArialMT-59" d="M 1784 0 
L 1784 1941 
L 19 4581 
L 756 4581 
L 1659 3200 
Q 1909 2813 2125 2425 
Q 2331 2784 2625 3234 
L 3513 4581 
L 4219 4581 
L 2391 1941 
L 2391 0 
L 1784 0 
z
" transform="scale(0.015625)"/>
      <path id="ArialMT-2c" d="M 569 0 
L 569 641 
L 1209 641 
L 1209 0 
Q 1209 -353 1084 -570 
Q 959 -788 688 -906 
L 531 -666 
Q 709 -588 793 -436 
Q 878 -284 888 0 
L 569 0 
z
" transform="scale(0.015625)"/>
     </defs>
     <use xlink:href="#ArialMT-44"/>
     <use xlink:href="#ArialMT-61" x="72.216797"/>
     <use xlink:href="#ArialMT-74" x="127.832031"/>
     <use xlink:href="#ArialMT-61" x="155.615234"/>
     <use xlink:href="#ArialMT-73" x="211.230469"/>
     <use xlink:href="#ArialMT-65" x="261.230469"/>
     <use xlink:href="#ArialMT-74" x="316.845703"/>
     <use xlink:href="#ArialMT-20" x="344.628906"/>
     <use xlink:href="#ArialMT-32" x="372.412109"/>
     <use xlink:href="#ArialMT-3a" x="428.027344"/>
     <use xlink:href="#ArialMT-20" x="455.810547"/>
     <use xlink:href="#ArialMT-59" x="481.84375"/>
     <use xlink:href="#ArialMT-6f" x="539.417969"/>
     <use xlink:href="#ArialMT-75" x="595.033203"/>
     <use xlink:href="#ArialMT-6e" x="650.648438"/>
     <use xlink:href="#ArialMT-20" x="706.263672"/>
     <use xlink:href="#ArialMT-65" x="734.046875"/>
     <use xlink:href="#ArialMT-74" x="789.662109"/>
     <use xlink:href="#ArialMT-20" x="817.445312"/>
     <use xlink:href="#ArialMT-61" x="845.228516"/>
     <use xlink:href="#ArialMT-6c" x="900.84375"/>
     <use xlink:href="#ArialMT-2e" x="923.060547"/>
     <use xlink:href="#ArialMT-2c" x="950.84375"/>
     <use xlink:href="#ArialMT-20" x="978.626953"/>
     <use xlink:href="#ArialMT-32" x="1006.410156"/>
     <use xlink:href="#ArialMT-30" x="1062.025391"/>
     <use xlink:href="#ArialMT-31" x="1117.640625"/>
     <use xlink:href="#ArialMT-38" x="1173.255859"/>
    </g>
   </g>
   <g id="legend_1">
    <g id="patch_7">
     <path d="M 948.358125 376.6 
L 1054.125 376.6 
Q 1056.525 376.6 1056.525 374.2 
L 1056.525 188.395 
Q 1056.525 185.995 1054.125 185.995 
L 948.358125 185.995 
Q 945.958125 185.995 945.958125 188.395 
L 945.958125 374.2 
Q 945.958125 376.6 948.358125 376.6 
z
" style="fill: #ffffff; opacity: 0.8; stroke: #cccccc; stroke-linejoin: miter"/>
    </g>
    <g id="line2d_24">
     <path d="M 950.758125 195.184375 
L 962.758125 195.184375 
L 974.758125 195.184375 
" style="fill: none; stroke: #1f77b4; stroke-width: 0.8; stroke-linecap: square"/>
    </g>
    <g id="text_16">
     <!-- GA -->
     <g transform="translate(984.358125 199.384375) scale(0.12 -0.12)">
      <defs>
       <path id="ArialMT-47" d="M 2638 1797 
L 2638 2334 
L 4578 2338 
L 4578 638 
Q 4131 281 3656 101 
Q 3181 -78 2681 -78 
Q 2006 -78 1454 211 
Q 903 500 622 1047 
Q 341 1594 341 2269 
Q 341 2938 620 3517 
Q 900 4097 1425 4378 
Q 1950 4659 2634 4659 
Q 3131 4659 3532 4498 
Q 3934 4338 4162 4050 
Q 4391 3763 4509 3300 
L 3963 3150 
Q 3859 3500 3706 3700 
Q 3553 3900 3268 4020 
Q 2984 4141 2638 4141 
Q 2222 4141 1919 4014 
Q 1616 3888 1430 3681 
Q 1244 3475 1141 3228 
Q 966 2803 966 2306 
Q 966 1694 1177 1281 
Q 1388 869 1791 669 
Q 2194 469 2647 469 
Q 3041 469 3416 620 
Q 3791 772 3984 944 
L 3984 1797 
L 2638 1797 
z
" transform="scale(0.015625)"/>
       <path id="ArialMT-41" d="M -9 0 
L 1750 4581 
L 2403 4581 
L 4278 0 
L 3588 0 
L 3053 1388 
L 1138 1388 
L 634 0 
L -9 0 
z
M 1313 1881 
L 2866 1881 
L 2388 3150 
Q 2169 3728 2063 4100 
Q 1975 3659 1816 3225 
L 1313 1881 
z
" transform="scale(0.015625)"/>
      </defs>
      <use xlink:href="#ArialMT-47"/>
      <use xlink:href="#ArialMT-41" x="77.783203"/>
     </g>
    </g>
    <g id="line2d_25">
     <path d="M 950.758125 212.15875 
L 962.758125 212.15875 
L 974.758125 212.15875 
" style="fill: none; stroke: #ff7f0e; stroke-width: 0.8; stroke-linecap: square"/>
    </g>
    <g id="text_17">
     <!-- Random -->
     <g transform="translate(984.358125 216.35875) scale(0.12 -0.12)">
      <defs>
       <path id="ArialMT-52" d="M 503 0 
L 503 4581 
L 2534 4581 
Q 3147 4581 3465 4457 
Q 3784 4334 3975 4021 
Q 4166 3709 4166 3331 
Q 4166 2844 3850 2509 
Q 3534 2175 2875 2084 
Q 3116 1969 3241 1856 
Q 3506 1613 3744 1247 
L 4541 0 
L 3778 0 
L 3172 953 
Q 2906 1366 2734 1584 
Q 2563 1803 2427 1890 
Q 2291 1978 2150 2013 
Q 2047 2034 1813 2034 
L 1109 2034 
L 1109 0 
L 503 0 
z
M 1109 2559 
L 2413 2559 
Q 2828 2559 3062 2645 
Q 3297 2731 3419 2920 
Q 3541 3109 3541 3331 
Q 3541 3656 3305 3865 
Q 3069 4075 2559 4075 
L 1109 4075 
L 1109 2559 
z
" transform="scale(0.015625)"/>
       <path id="ArialMT-64" d="M 2575 0 
L 2575 419 
Q 2259 -75 1647 -75 
Q 1250 -75 917 144 
Q 584 363 401 755 
Q 219 1147 219 1656 
Q 219 2153 384 2558 
Q 550 2963 881 3178 
Q 1213 3394 1622 3394 
Q 1922 3394 2156 3267 
Q 2391 3141 2538 2938 
L 2538 4581 
L 3097 4581 
L 3097 0 
L 2575 0 
z
M 797 1656 
Q 797 1019 1065 703 
Q 1334 388 1700 388 
Q 2069 388 2326 689 
Q 2584 991 2584 1609 
Q 2584 2291 2321 2609 
Q 2059 2928 1675 2928 
Q 1300 2928 1048 2622 
Q 797 2316 797 1656 
z
" transform="scale(0.015625)"/>
      </defs>
      <use xlink:href="#ArialMT-52"/>
      <use xlink:href="#ArialMT-61" x="72.216797"/>
      <use xlink:href="#ArialMT-6e" x="127.832031"/>
      <use xlink:href="#ArialMT-64" x="183.447266"/>
      <use xlink:href="#ArialMT-6f" x="239.0625"/>
      <use xlink:href="#ArialMT-6d" x="294.677734"/>
     </g>
    </g>
    <g id="line2d_26">
     <path d="M 950.758125 229.279375 
L 962.758125 229.279375 
L 974.758125 229.279375 
" style="fill: none; stroke: #2ca02c; stroke-width: 0.8; stroke-linecap: square"/>
    </g>
    <g id="text_18">
     <!-- Chi-Squared -->
     <g transform="translate(984.358125 233.479375) scale(0.12 -0.12)">
      <defs>
       <path id="ArialMT-43" d="M 3763 1606 
L 4369 1453 
Q 4178 706 3683 314 
Q 3188 -78 2472 -78 
Q 1731 -78 1267 223 
Q 803 525 561 1097 
Q 319 1669 319 2325 
Q 319 3041 592 3573 
Q 866 4106 1370 4382 
Q 1875 4659 2481 4659 
Q 3169 4659 3637 4309 
Q 4106 3959 4291 3325 
L 3694 3184 
Q 3534 3684 3231 3912 
Q 2928 4141 2469 4141 
Q 1941 4141 1586 3887 
Q 1231 3634 1087 3207 
Q 944 2781 944 2328 
Q 944 1744 1114 1308 
Q 1284 872 1643 656 
Q 2003 441 2422 441 
Q 2931 441 3284 734 
Q 3638 1028 3763 1606 
z
" transform="scale(0.015625)"/>
       <path id="ArialMT-68" d="M 422 0 
L 422 4581 
L 984 4581 
L 984 2938 
Q 1378 3394 1978 3394 
Q 2347 3394 2619 3248 
Q 2891 3103 3008 2847 
Q 3125 2591 3125 2103 
L 3125 0 
L 2563 0 
L 2563 2103 
Q 2563 2525 2380 2717 
Q 2197 2909 1863 2909 
Q 1613 2909 1392 2779 
Q 1172 2650 1078 2428 
Q 984 2206 984 1816 
L 984 0 
L 422 0 
z
" transform="scale(0.015625)"/>
       <path id="ArialMT-2d" d="M 203 1375 
L 203 1941 
L 1931 1941 
L 1931 1375 
L 203 1375 
z
" transform="scale(0.015625)"/>
       <path id="ArialMT-53" d="M 288 1472 
L 859 1522 
Q 900 1178 1048 958 
Q 1197 738 1509 602 
Q 1822 466 2213 466 
Q 2559 466 2825 569 
Q 3091 672 3220 851 
Q 3350 1031 3350 1244 
Q 3350 1459 3225 1620 
Q 3100 1781 2813 1891 
Q 2628 1963 1997 2114 
Q 1366 2266 1113 2400 
Q 784 2572 623 2826 
Q 463 3081 463 3397 
Q 463 3744 659 4045 
Q 856 4347 1234 4503 
Q 1613 4659 2075 4659 
Q 2584 4659 2973 4495 
Q 3363 4331 3572 4012 
Q 3781 3694 3797 3291 
L 3216 3247 
Q 3169 3681 2898 3903 
Q 2628 4125 2100 4125 
Q 1550 4125 1298 3923 
Q 1047 3722 1047 3438 
Q 1047 3191 1225 3031 
Q 1400 2872 2139 2705 
Q 2878 2538 3153 2413 
Q 3553 2228 3743 1945 
Q 3934 1663 3934 1294 
Q 3934 928 3725 604 
Q 3516 281 3123 101 
Q 2731 -78 2241 -78 
Q 1619 -78 1198 103 
Q 778 284 539 648 
Q 300 1013 288 1472 
z
" transform="scale(0.015625)"/>
       <path id="ArialMT-71" d="M 2538 -1272 
L 2538 353 
Q 2406 169 2170 47 
Q 1934 -75 1669 -75 
Q 1078 -75 651 397 
Q 225 869 225 1691 
Q 225 2191 398 2587 
Q 572 2984 901 3189 
Q 1231 3394 1625 3394 
Q 2241 3394 2594 2875 
L 2594 3319 
L 3100 3319 
L 3100 -1272 
L 2538 -1272 
z
M 803 1669 
Q 803 1028 1072 708 
Q 1341 388 1716 388 
Q 2075 388 2334 692 
Q 2594 997 2594 1619 
Q 2594 2281 2320 2615 
Q 2047 2950 1678 2950 
Q 1313 2950 1058 2639 
Q 803 2328 803 1669 
z
" transform="scale(0.015625)"/>
      </defs>
      <use xlink:href="#ArialMT-43"/>
      <use xlink:href="#ArialMT-68" x="72.216797"/>
      <use xlink:href="#ArialMT-69" x="127.832031"/>
      <use xlink:href="#ArialMT-2d" x="150.048828"/>
      <use xlink:href="#ArialMT-53" x="183.349609"/>
      <use xlink:href="#ArialMT-71" x="250.048828"/>
      <use xlink:href="#ArialMT-75" x="305.664062"/>
      <use xlink:href="#ArialMT-61" x="361.279297"/>
      <use xlink:href="#ArialMT-72" x="416.894531"/>
      <use xlink:href="#ArialMT-65" x="450.195312"/>
      <use xlink:href="#ArialMT-64" x="505.810547"/>
     </g>
    </g>
    <g id="line2d_27">
     <path d="M 950.758125 246.25375 
L 962.758125 246.25375 
L 974.758125 246.25375 
" style="fill: none; stroke: #d62728; stroke-width: 0.8; stroke-linecap: square"/>
    </g>
    <g id="text_19">
     <!-- Mutual Info -->
     <g transform="translate(984.358125 250.45375) scale(0.12 -0.12)">
      <defs>
       <path id="ArialMT-49" d="M 597 0 
L 597 4581 
L 1203 4581 
L 1203 0 
L 597 0 
z
" transform="scale(0.015625)"/>
      </defs>
      <use xlink:href="#ArialMT-4d"/>
      <use xlink:href="#ArialMT-75" x="83.300781"/>
      <use xlink:href="#ArialMT-74" x="138.916016"/>
      <use xlink:href="#ArialMT-75" x="166.699219"/>
      <use xlink:href="#ArialMT-61" x="222.314453"/>
      <use xlink:href="#ArialMT-6c" x="277.929688"/>
      <use xlink:href="#ArialMT-20" x="300.146484"/>
      <use xlink:href="#ArialMT-49" x="327.929688"/>
      <use xlink:href="#ArialMT-6e" x="355.712891"/>
      <use xlink:href="#ArialMT-66" x="411.328125"/>
      <use xlink:href="#ArialMT-6f" x="439.111328"/>
     </g>
    </g>
    <g id="line2d_28">
     <path d="M 950.758125 263.228125 
L 962.758125 263.228125 
L 974.758125 263.228125 
" style="fill: none; stroke: #9467bd; stroke-width: 0.8; stroke-linecap: square"/>
    </g>
    <g id="text_20">
     <!-- ANOVA F -->
     <g transform="translate(984.358125 267.428125) scale(0.12 -0.12)">
      <defs>
       <path id="ArialMT-4f" d="M 309 2231 
Q 309 3372 921 4017 
Q 1534 4663 2503 4663 
Q 3138 4663 3647 4359 
Q 4156 4056 4423 3514 
Q 4691 2972 4691 2284 
Q 4691 1588 4409 1038 
Q 4128 488 3612 205 
Q 3097 -78 2500 -78 
Q 1853 -78 1343 234 
Q 834 547 571 1087 
Q 309 1628 309 2231 
z
M 934 2222 
Q 934 1394 1379 917 
Q 1825 441 2497 441 
Q 3181 441 3623 922 
Q 4066 1403 4066 2288 
Q 4066 2847 3877 3264 
Q 3688 3681 3323 3911 
Q 2959 4141 2506 4141 
Q 1863 4141 1398 3698 
Q 934 3256 934 2222 
z
" transform="scale(0.015625)"/>
       <path id="ArialMT-56" d="M 1803 0 
L 28 4581 
L 684 4581 
L 1875 1253 
Q 2019 853 2116 503 
Q 2222 878 2363 1253 
L 3600 4581 
L 4219 4581 
L 2425 0 
L 1803 0 
z
" transform="scale(0.015625)"/>
      </defs>
      <use xlink:href="#ArialMT-41"/>
      <use xlink:href="#ArialMT-4e" x="66.699219"/>
      <use xlink:href="#ArialMT-4f" x="138.916016"/>
      <use xlink:href="#ArialMT-56" x="216.699219"/>
      <use xlink:href="#ArialMT-41" x="276.023438"/>
      <use xlink:href="#ArialMT-20" x="337.222656"/>
      <use xlink:href="#ArialMT-46" x="365.005859"/>
     </g>
    </g>
    <g id="line2d_29">
     <path d="M 950.758125 280.2025 
L 962.758125 280.2025 
L 974.758125 280.2025 
" style="fill: none; stroke: #8c564b; stroke-width: 0.8; stroke-linecap: square"/>
    </g>
    <g id="text_21">
     <!-- Lasso -->
     <g transform="translate(984.358125 284.4025) scale(0.12 -0.12)">
      <defs>
       <path id="ArialMT-4c" d="M 469 0 
L 469 4581 
L 1075 4581 
L 1075 541 
L 3331 541 
L 3331 0 
L 469 0 
z
" transform="scale(0.015625)"/>
      </defs>
      <use xlink:href="#ArialMT-4c"/>
      <use xlink:href="#ArialMT-61" x="55.615234"/>
      <use xlink:href="#ArialMT-73" x="111.230469"/>
      <use xlink:href="#ArialMT-73" x="161.230469"/>
      <use xlink:href="#ArialMT-6f" x="211.230469"/>
     </g>
    </g>
    <g id="line2d_30">
     <path d="M 950.758125 297.176875 
L 962.758125 297.176875 
L 974.758125 297.176875 
" style="fill: none; stroke: #e377c2; stroke-width: 0.8; stroke-linecap: square"/>
    </g>
    <g id="text_22">
     <!-- Ridge -->
     <g transform="translate(984.358125 301.376875) scale(0.12 -0.12)">
      <defs>
       <path id="ArialMT-67" d="M 319 -275 
L 866 -356 
Q 900 -609 1056 -725 
Q 1266 -881 1628 -881 
Q 2019 -881 2231 -725 
Q 2444 -569 2519 -288 
Q 2563 -116 2559 434 
Q 2191 0 1641 0 
Q 956 0 581 494 
Q 206 988 206 1678 
Q 206 2153 378 2554 
Q 550 2956 876 3175 
Q 1203 3394 1644 3394 
Q 2231 3394 2613 2919 
L 2613 3319 
L 3131 3319 
L 3131 450 
Q 3131 -325 2973 -648 
Q 2816 -972 2473 -1159 
Q 2131 -1347 1631 -1347 
Q 1038 -1347 672 -1080 
Q 306 -813 319 -275 
z
M 784 1719 
Q 784 1066 1043 766 
Q 1303 466 1694 466 
Q 2081 466 2343 764 
Q 2606 1063 2606 1700 
Q 2606 2309 2336 2618 
Q 2066 2928 1684 2928 
Q 1309 2928 1046 2623 
Q 784 2319 784 1719 
z
" transform="scale(0.015625)"/>
      </defs>
      <use xlink:href="#ArialMT-52"/>
      <use xlink:href="#ArialMT-69" x="72.216797"/>
      <use xlink:href="#ArialMT-64" x="94.433594"/>
      <use xlink:href="#ArialMT-67" x="150.048828"/>
      <use xlink:href="#ArialMT-65" x="205.664062"/>
     </g>
    </g>
    <g id="line2d_31">
     <path d="M 950.758125 314.291875 
L 962.758125 314.291875 
L 974.758125 314.291875 
" style="fill: none; stroke: #7f7f7f; stroke-width: 0.8; stroke-linecap: square"/>
    </g>
    <g id="text_23">
     <!-- ElasticNet -->
     <g transform="translate(984.358125 318.491875) scale(0.12 -0.12)">
      <defs>
       <path id="ArialMT-45" d="M 506 0 
L 506 4581 
L 3819 4581 
L 3819 4041 
L 1113 4041 
L 1113 2638 
L 3647 2638 
L 3647 2100 
L 1113 2100 
L 1113 541 
L 3925 541 
L 3925 0 
L 506 0 
z
" transform="scale(0.015625)"/>
      </defs>
      <use xlink:href="#ArialMT-45"/>
      <use xlink:href="#ArialMT-6c" x="66.699219"/>
      <use xlink:href="#ArialMT-61" x="88.916016"/>
      <use xlink:href="#ArialMT-73" x="144.53125"/>
      <use xlink:href="#ArialMT-74" x="194.53125"/>
      <use xlink:href="#ArialMT-69" x="222.314453"/>
      <use xlink:href="#ArialMT-63" x="244.53125"/>
      <use xlink:href="#ArialMT-4e" x="294.53125"/>
      <use xlink:href="#ArialMT-65" x="366.748047"/>
      <use xlink:href="#ArialMT-74" x="422.363281"/>
     </g>
    </g>
    <g id="line2d_32">
     <path d="M 950.758125 331.26625 
L 962.758125 331.26625 
L 974.758125 331.26625 
" style="fill: none; stroke: #bcbd22; stroke-width: 0.8; stroke-linecap: square"/>
    </g>
    <g id="text_24">
     <!-- RF -->
     <g transform="translate(984.358125 335.46625) scale(0.12 -0.12)">
      <use xlink:href="#ArialMT-52"/>
      <use xlink:href="#ArialMT-46" x="72.216797"/>
     </g>
    </g>
    <g id="line2d_33">
     <path d="M 950.758125 348.240625 
L 962.758125 348.240625 
L 974.758125 348.240625 
" style="fill: none; stroke: #17becf; stroke-width: 0.8; stroke-linecap: square"/>
    </g>
    <g id="text_25">
     <!-- GBM -->
     <g transform="translate(984.358125 352.440625) scale(0.12 -0.12)">
      <defs>
       <path id="ArialMT-42" d="M 469 0 
L 469 4581 
L 2188 4581 
Q 2713 4581 3030 4442 
Q 3347 4303 3526 4014 
Q 3706 3725 3706 3409 
Q 3706 3116 3547 2856 
Q 3388 2597 3066 2438 
Q 3481 2316 3704 2022 
Q 3928 1728 3928 1328 
Q 3928 1006 3792 729 
Q 3656 453 3456 303 
Q 3256 153 2954 76 
Q 2653 0 2216 0 
L 469 0 
z
M 1075 2656 
L 2066 2656 
Q 2469 2656 2644 2709 
Q 2875 2778 2992 2937 
Q 3109 3097 3109 3338 
Q 3109 3566 3000 3739 
Q 2891 3913 2687 3977 
Q 2484 4041 1991 4041 
L 1075 4041 
L 1075 2656 
z
M 1075 541 
L 2216 541 
Q 2509 541 2628 563 
Q 2838 600 2978 687 
Q 3119 775 3209 942 
Q 3300 1109 3300 1328 
Q 3300 1584 3169 1773 
Q 3038 1963 2805 2039 
Q 2572 2116 2134 2116 
L 1075 2116 
L 1075 541 
z
" transform="scale(0.015625)"/>
      </defs>
      <use xlink:href="#ArialMT-47"/>
      <use xlink:href="#ArialMT-42" x="77.783203"/>
      <use xlink:href="#ArialMT-4d" x="144.482422"/>
     </g>
    </g>
    <g id="line2d_34">
     <path d="M 950.758125 365.215 
L 962.758125 365.215 
L 974.758125 365.215 
" style="fill: none; stroke: #9edae5; stroke-width: 0.8; stroke-linecap: square"/>
    </g>
    <g id="text_26">
     <!-- XGB -->
     <g transform="translate(984.358125 369.415) scale(0.12 -0.12)">
      <defs>
       <path id="ArialMT-58" d="M 28 0 
L 1800 2388 
L 238 4581 
L 959 4581 
L 1791 3406 
Q 2050 3041 2159 2844 
Q 2313 3094 2522 3366 
L 3444 4581 
L 4103 4581 
L 2494 2422 
L 4228 0 
L 3478 0 
L 2325 1634 
Q 2228 1775 2125 1941 
Q 1972 1691 1906 1597 
L 756 0 
L 28 0 
z
" transform="scale(0.015625)"/>
      </defs>
      <use xlink:href="#ArialMT-58"/>
      <use xlink:href="#ArialMT-47" x="66.699219"/>
      <use xlink:href="#ArialMT-42" x="144.482422"/>
     </g>
    </g>
   </g>
  </g>
 </g>
 <defs>
  <clipPath id="p416082fa22">
   <rect x="52.28" y="28.32" width="1010.245" height="354.28"/>
  </clipPath>
 </defs>
</svg>
