<?xml version="1.0" encoding="utf-8" standalone="no"?>
<!DOCTYPE svg PUBLIC "-//W3C//DTD SVG 1.1//EN"
  "http://www.w3.org/Graphics/SVG/1.1/DTD/svg11.dtd">
<svg xmlns:xlink="http://www.w3.org/1999/xlink" width="1080pt" height="648pt" viewBox="0 0 1080 648" xmlns="http://www.w3.org/2000/svg" version="1.1">
 <metadata>
  <rdf:RDF xmlns:dc="http://purl.org/dc/elements/1.1/" xmlns:cc="http://creativecommons.org/ns#" xmlns:rdf="http://www.w3.org/1999/02/22-rdf-syntax-ns#">
   <cc:Work>
    <dc:type rdf:resource="http://purl.org/dc/dcmitype/StillImage"/>
    <dc:date>2024-04-04T23:58:17.241475</dc:date>
    <dc:format>image/svg+xml</dc:format>
    <dc:creator>
     <cc:Agent>
      <dc:title>Matplotlib v3.7.2, https://matplotlib.org/</dc:title>
     </cc:Agent>
    </dc:creator>
   </cc:Work>
  </rdf:RDF>
 </metadata>
 <defs>
  <style type="text/css">*{stroke-linejoin: round; stroke-linecap: butt}</style>
 </defs>
 <g id="figure_1">
  <g id="patch_1">
   <path d="M 0 648 
L 1080 648 
L 1080 0 
L 0 0 
z
" style="fill: #ffffff"/>
  </g>
  <g id="axes_1">
   <g id="patch_2">
    <path d="M 47.765 606.04 
L 933.07 606.04 
L 933.07 30.748 
L 47.765 30.748 
z
" style="fill: #ffffff"/>
   </g>
   <g id="PolyCollection_1">
    <defs>
     <path id="md27fa54c4a" d="M 47.765 -494.194833 
L 47.765 -489.251147 
L 65.4711 -491.967846 
L 83.1772 -494.91688 
L 100.8833 -496.057614 
L 118.5894 -498.983369 
L 136.2955 -503.131392 
L 154.0016 -505.669616 
L 171.7077 -507.93894 
L 189.4138 -511.348355 
L 207.1199 -511.157105 
L 224.826 -518.150999 
L 242.5321 -515.840749 
L 260.2382 -522.561421 
L 277.9443 -526.287248 
L 295.6504 -527.340655 
L 313.3565 -529.559623 
L 331.0626 -532.953543 
L 348.7687 -535.813759 
L 366.4748 -539.689817 
L 384.1809 -540.345034 
L 401.887 -543.225691 
L 419.5931 -544.516754 
L 437.2992 -546.574709 
L 455.0053 -545.932026 
L 472.7114 -552.210606 
L 490.4175 -552.547208 
L 508.1236 -554.649364 
L 525.8297 -557.276675 
L 543.5358 -556.451375 
L 561.2419 -559.673209 
L 578.948 -561.877269 
L 596.6541 -561.470532 
L 614.3602 -563.310075 
L 632.0663 -564.827334 
L 649.7724 -565.919706 
L 667.4785 -566.629628 
L 685.1846 -568.123279 
L 702.8907 -571.143735 
L 720.5968 -569.776754 
L 738.3029 -573.725757 
L 756.009 -572.107256 
L 773.7151 -575.46611 
L 791.4212 -577.27782 
L 809.1273 -578.482906 
L 826.8334 -579.604506 
L 844.5395 -581.40347 
L 862.2456 -581.724228 
L 879.9517 -582.660051 
L 897.6578 -584.376539 
L 915.3639 -584.710843 
L 933.07 -586.17569 
L 933.07 -587.456796 
L 933.07 -587.456796 
L 915.3639 -586.673716 
L 897.6578 -586.653084 
L 879.9517 -585.825864 
L 862.2456 -585.341944 
L 844.5395 -583.414774 
L 826.8334 -582.078471 
L 809.1273 -582.016951 
L 791.4212 -579.554365 
L 773.7151 -578.704056 
L 756.009 -577.330431 
L 738.3029 -576.776738 
L 720.5968 -575.57917 
L 702.8907 -574.567124 
L 685.1846 -570.784641 
L 667.4785 -569.616273 
L 649.7724 -569.379699 
L 632.0663 -570.176292 
L 614.3602 -567.079384 
L 596.6541 -566.78931 
L 578.948 -564.844518 
L 561.2419 -562.316098 
L 543.5358 -562.106885 
L 525.8297 -561.222429 
L 508.1236 -558.703169 
L 490.4175 -557.255966 
L 472.7114 -556.468604 
L 455.0053 -557.127365 
L 437.2992 -552.757854 
L 419.5931 -550.142486 
L 401.887 -546.405291 
L 384.1809 -546.209836 
L 366.4748 -543.729785 
L 348.7687 -540.625436 
L 331.0626 -538.930641 
L 313.3565 -536.823054 
L 295.6504 -531.588368 
L 277.9443 -529.329039 
L 260.2382 -527.553359 
L 242.5321 -523.685109 
L 224.826 -521.256547 
L 207.1199 -516.892491 
L 189.4138 -519.126637 
L 171.7077 -514.727461 
L 154.0016 -511.850214 
L 136.2955 -508.768619 
L 118.5894 -505.640455 
L 100.8833 -501.644959 
L 83.1772 -501.484261 
L 65.4711 -496.210613 
L 47.765 -494.194833 
z
" style="stroke: #1f77b4; stroke-opacity: 0.2"/>
    </defs>
    <g clip-path="url(#p1aa2480f1e)">
     <use xlink:href="#md27fa54c4a" x="0" y="648" style="fill: #1f77b4; fill-opacity: 0.2; stroke: #1f77b4; stroke-opacity: 0.2"/>
    </g>
   </g>
   <g id="PolyCollection_2">
    <defs>
     <path id="m2c86c55f51" d="M 47.765 -336.766837 
L 47.765 -255.539739 
L 65.4711 -290.069047 
L 83.1772 -279.250769 
L 100.8833 -294.261352 
L 118.5894 -280.727993 
L 136.2955 -294.653469 
L 154.0016 -296.642519 
L 171.7077 -299.949432 
L 189.4138 -323.620015 
L 207.1199 -311.937313 
L 224.826 -298.115261 
L 242.5321 -323.577947 
L 260.2382 -342.456597 
L 277.9443 -334.820543 
L 295.6504 -337.031936 
L 313.3565 -331.842305 
L 331.0626 -342.438046 
L 348.7687 -356.703428 
L 366.4748 -363.589926 
L 384.1809 -350.150482 
L 401.887 -384.022785 
L 419.5931 -377.832586 
L 437.2992 -415.667904 
L 455.0053 -354.663665 
L 472.7114 -378.520341 
L 490.4175 -400.031135 
L 508.1236 -377.548945 
L 525.8297 -396.967957 
L 543.5358 -385.351847 
L 561.2419 -401.452056 
L 578.948 -426.535006 
L 596.6541 -413.422706 
L 614.3602 -406.983411 
L 632.0663 -434.263086 
L 649.7724 -419.496928 
L 667.4785 -406.286685 
L 685.1846 -410.793891 
L 702.8907 -401.21452 
L 720.5968 -423.454474 
L 738.3029 -441.472271 
L 756.009 -441.618003 
L 773.7151 -413.452222 
L 791.4212 -441.810339 
L 809.1273 -438.799129 
L 826.8334 -426.534109 
L 844.5395 -439.576544 
L 862.2456 -472.201916 
L 879.9517 -438.872656 
L 897.6578 -461.817491 
L 915.3639 -491.104548 
L 933.07 -472.009366 
L 933.07 -538.056809 
L 933.07 -538.056809 
L 915.3639 -551.142486 
L 897.6578 -521.746801 
L 879.9517 -516.355916 
L 862.2456 -532.954311 
L 844.5395 -524.821207 
L 826.8334 -515.739302 
L 809.1273 -517.198471 
L 791.4212 -507.798415 
L 773.7151 -477.355478 
L 756.009 -518.461361 
L 738.3029 -520.381772 
L 720.5968 -512.903338 
L 702.8907 -491.308704 
L 685.1846 -497.701449 
L 667.4785 -477.65892 
L 649.7724 -516.210168 
L 632.0663 -493.694575 
L 614.3602 -480.097462 
L 596.6541 -462.950932 
L 578.948 -481.309619 
L 561.2419 -493.141627 
L 543.5358 -459.195869 
L 525.8297 -463.611032 
L 508.1236 -449.074506 
L 490.4175 -449.663152 
L 472.7114 -464.725943 
L 455.0053 -417.063028 
L 437.2992 -488.982297 
L 419.5931 -453.050096 
L 401.887 -442.955602 
L 384.1809 -428.024214 
L 366.4748 -431.207603 
L 348.7687 -420.583927 
L 331.0626 -421.657524 
L 313.3565 -418.943167 
L 295.6504 -429.252405 
L 277.9443 -403.778795 
L 260.2382 -430.453215 
L 242.5321 -387.040608 
L 224.826 -382.511207 
L 207.1199 -392.647331 
L 189.4138 -382.916777 
L 171.7077 -379.493916 
L 154.0016 -362.746949 
L 136.2955 -374.969985 
L 118.5894 -343.818597 
L 100.8833 -370.511311 
L 83.1772 -345.118353 
L 65.4711 -336.843782 
L 47.765 -336.766837 
z
" style="stroke: #ff7f0e; stroke-opacity: 0.2"/>
    </defs>
    <g clip-path="url(#p1aa2480f1e)">
     <use xlink:href="#m2c86c55f51" x="0" y="648" style="fill: #ff7f0e; fill-opacity: 0.2; stroke: #ff7f0e; stroke-opacity: 0.2"/>
    </g>
   </g>
   <g id="PolyCollection_3">
    <defs>
     <path id="m6b43ee6e31" d="M 47.765 -517.040892 
L 47.765 -504.856481 
L 65.4711 -507.646857 
L 83.1772 -511.600968 
L 100.8833 -514.324093 
L 118.5894 -518.430107 
L 136.2955 -521.354011 
L 154.0016 -523.652458 
L 171.7077 -525.916991 
L 189.4138 -528.38125 
L 207.1199 -531.205086 
L 224.826 -533.32243 
L 242.5321 -535.323111 
L 260.2382 -536.810482 
L 277.9443 -538.053421 
L 295.6504 -539.324042 
L 313.3565 -541.374702 
L 331.0626 -543.165293 
L 348.7687 -544.000291 
L 366.4748 -545.163036 
L 384.1809 -546.446539 
L 401.887 -547.253517 
L 419.5931 -550.840911 
L 437.2992 -553.458627 
L 455.0053 -554.753364 
L 472.7114 -556.527325 
L 490.4175 -558.294644 
L 508.1236 -559.751521 
L 525.8297 -561.320349 
L 543.5358 -562.496719 
L 561.2419 -563.382539 
L 578.948 -565.801096 
L 596.6541 -567.245002 
L 614.3602 -568.648227 
L 632.0663 -571.556098 
L 649.7724 -572.626071 
L 667.4785 -573.766027 
L 685.1846 -574.604814 
L 702.8907 -575.509719 
L 720.5968 -576.974951 
L 738.3029 -578.872143 
L 756.009 -580.7766 
L 773.7151 -581.515318 
L 791.4212 -583.08327 
L 809.1273 -584.252283 
L 826.8334 -585.388613 
L 844.5395 -586.147347 
L 862.2456 -587.391404 
L 879.9517 -588.414688 
L 897.6578 -589.0206 
L 915.3639 -590.285827 
L 933.07 -591.194355 
L 933.07 -595.807385 
L 933.07 -595.807385 
L 915.3639 -595.355326 
L 897.6578 -594.786716 
L 879.9517 -593.381325 
L 862.2456 -592.689086 
L 844.5395 -592.276775 
L 826.8334 -591.497453 
L 809.1273 -590.622479 
L 791.4212 -589.780188 
L 773.7151 -589.100214 
L 756.009 -587.650159 
L 738.3029 -586.774285 
L 720.5968 -585.950301 
L 702.8907 -584.457734 
L 685.1846 -583.587959 
L 667.4785 -583.184471 
L 649.7724 -582.372279 
L 632.0663 -581.135168 
L 614.3602 -580.316212 
L 596.6541 -578.879949 
L 578.948 -578.075928 
L 561.2419 -576.294409 
L 543.5358 -575.464705 
L 525.8297 -574.274836 
L 508.1236 -571.998525 
L 490.4175 -569.846886 
L 472.7114 -569.011342 
L 455.0053 -567.88666 
L 437.2992 -565.691193 
L 419.5931 -564.75955 
L 401.887 -562.963749 
L 384.1809 -562.055203 
L 366.4748 -559.493567 
L 348.7687 -557.935137 
L 331.0626 -556.344738 
L 313.3565 -554.585971 
L 295.6504 -552.968958 
L 277.9443 -550.749377 
L 260.2382 -548.324644 
L 242.5321 -546.676747 
L 224.826 -544.536509 
L 207.1199 -540.679098 
L 189.4138 -538.829611 
L 171.7077 -537.330419 
L 154.0016 -533.383573 
L 136.2955 -529.352329 
L 118.5894 -527.60291 
L 100.8833 -526.266573 
L 83.1772 -522.778319 
L 65.4711 -521.112611 
L 47.765 -517.040892 
z
" style="stroke: #2ca02c; stroke-opacity: 0.2"/>
    </defs>
    <g clip-path="url(#p1aa2480f1e)">
     <use xlink:href="#m6b43ee6e31" x="0" y="648" style="fill: #2ca02c; fill-opacity: 0.2; stroke: #2ca02c; stroke-opacity: 0.2"/>
    </g>
   </g>
   <g id="PolyCollection_4">
    <defs>
     <path id="md79771ff7b" d="M 47.765 -514.509575 
L 47.765 -497.804527 
L 65.4711 -503.491422 
L 83.1772 -507.833466 
L 100.8833 -510.524791 
L 118.5894 -511.867618 
L 136.2955 -514.212085 
L 154.0016 -515.082586 
L 171.7077 -517.598833 
L 189.4138 -518.380494 
L 207.1199 -522.280216 
L 224.826 -523.045502 
L 242.5321 -524.125237 
L 260.2382 -524.981136 
L 277.9443 -527.041633 
L 295.6504 -528.193925 
L 313.3565 -528.928721 
L 331.0626 -531.532001 
L 348.7687 -533.730941 
L 366.4748 -535.811344 
L 384.1809 -537.622738 
L 401.887 -538.818238 
L 419.5931 -540.010182 
L 437.2992 -541.411253 
L 455.0053 -544.839185 
L 472.7114 -547.342453 
L 490.4175 -548.632695 
L 508.1236 -549.904244 
L 525.8297 -551.098131 
L 543.5358 -553.369143 
L 561.2419 -554.472278 
L 578.948 -555.015187 
L 596.6541 -556.134167 
L 614.3602 -558.272713 
L 632.0663 -560.105019 
L 649.7724 -561.633549 
L 667.4785 -563.287319 
L 685.1846 -564.423426 
L 702.8907 -565.804473 
L 720.5968 -568.687084 
L 738.3029 -570.375965 
L 756.009 -571.971281 
L 773.7151 -573.981203 
L 791.4212 -575.48928 
L 809.1273 -576.71362 
L 826.8334 -577.621641 
L 844.5395 -578.954738 
L 862.2456 -580.040093 
L 879.9517 -581.199695 
L 897.6578 -582.456469 
L 915.3639 -584.676383 
L 933.07 -585.927559 
L 933.07 -590.485259 
L 933.07 -590.485259 
L 915.3639 -589.725131 
L 897.6578 -588.691466 
L 879.9517 -586.812972 
L 862.2456 -586.316207 
L 844.5395 -584.976167 
L 826.8334 -584.357116 
L 809.1273 -584.141172 
L 791.4212 -582.940117 
L 773.7151 -582.200267 
L 756.009 -581.015765 
L 738.3029 -579.83075 
L 720.5968 -578.443519 
L 702.8907 -577.717614 
L 685.1846 -576.732422 
L 667.4785 -575.679758 
L 649.7724 -574.967288 
L 632.0663 -573.833798 
L 614.3602 -571.998433 
L 596.6541 -570.942555 
L 578.948 -569.872764 
L 561.2419 -568.286057 
L 543.5358 -567.082109 
L 525.8297 -563.733302 
L 508.1236 -562.324325 
L 490.4175 -559.277487 
L 472.7114 -557.964866 
L 455.0053 -556.741306 
L 437.2992 -555.318447 
L 419.5931 -552.756067 
L 401.887 -551.167679 
L 384.1809 -550.174407 
L 366.4748 -547.430791 
L 348.7687 -546.849174 
L 331.0626 -545.676222 
L 313.3565 -544.434363 
L 295.6504 -542.684607 
L 277.9443 -540.938256 
L 260.2382 -538.147962 
L 242.5321 -535.395346 
L 224.826 -533.517281 
L 207.1199 -531.975484 
L 189.4138 -530.255386 
L 171.7077 -529.203212 
L 154.0016 -528.051787 
L 136.2955 -526.319425 
L 118.5894 -524.463816 
L 100.8833 -522.671376 
L 83.1772 -519.683726 
L 65.4711 -516.098867 
L 47.765 -514.509575 
z
" style="stroke: #d62728; stroke-opacity: 0.2"/>
    </defs>
    <g clip-path="url(#p1aa2480f1e)">
     <use xlink:href="#md79771ff7b" x="0" y="648" style="fill: #d62728; fill-opacity: 0.2; stroke: #d62728; stroke-opacity: 0.2"/>
    </g>
   </g>
   <g id="PolyCollection_5">
    <defs>
     <path id="m7a0f4051ee" d="M 47.765 -494.970753 
L 47.765 -484.748399 
L 65.4711 -486.54995 
L 83.1772 -488.134482 
L 100.8833 -488.66719 
L 118.5894 -490.939018 
L 136.2955 -491.234248 
L 154.0016 -493.818535 
L 171.7077 -495.768119 
L 189.4138 -496.574314 
L 207.1199 -499.272669 
L 224.826 -501.119897 
L 242.5321 -503.424794 
L 260.2382 -504.799293 
L 277.9443 -506.678757 
L 295.6504 -509.001359 
L 313.3565 -512.452044 
L 331.0626 -514.891206 
L 348.7687 -516.142845 
L 366.4748 -516.746748 
L 384.1809 -518.803425 
L 401.887 -522.164701 
L 419.5931 -525.165595 
L 437.2992 -526.208256 
L 455.0053 -527.759796 
L 472.7114 -528.311513 
L 490.4175 -529.809349 
L 508.1236 -532.98166 
L 525.8297 -535.450942 
L 543.5358 -537.906985 
L 561.2419 -541.01639 
L 578.948 -543.266037 
L 596.6541 -544.059535 
L 614.3602 -545.604182 
L 632.0663 -547.580162 
L 649.7724 -551.374764 
L 667.4785 -553.219963 
L 685.1846 -554.263069 
L 702.8907 -555.387769 
L 720.5968 -556.797907 
L 738.3029 -559.525706 
L 756.009 -561.403421 
L 773.7151 -562.303744 
L 791.4212 -563.44117 
L 809.1273 -564.780215 
L 826.8334 -565.578136 
L 844.5395 -566.481026 
L 862.2456 -569.082093 
L 879.9517 -571.185452 
L 897.6578 -571.692668 
L 915.3639 -572.46167 
L 933.07 -573.103206 
L 933.07 -582.427548 
L 933.07 -582.427548 
L 915.3639 -581.176092 
L 897.6578 -580.052102 
L 879.9517 -577.305739 
L 862.2456 -576.332986 
L 844.5395 -575.976254 
L 826.8334 -574.27628 
L 809.1273 -573.062898 
L 791.4212 -571.20752 
L 773.7151 -569.150522 
L 756.009 -567.980386 
L 738.3029 -566.900301 
L 720.5968 -566.256208 
L 702.8907 -563.762051 
L 685.1846 -562.283888 
L 667.4785 -559.895946 
L 649.7724 -557.718537 
L 632.0663 -556.366569 
L 614.3602 -554.438253 
L 596.6541 -553.616661 
L 578.948 -552.872103 
L 561.2419 -550.566739 
L 543.5358 -549.357757 
L 525.8297 -548.027817 
L 508.1236 -545.942088 
L 490.4175 -544.026983 
L 472.7114 -542.803644 
L 455.0053 -541.994773 
L 437.2992 -539.287082 
L 419.5931 -537.726879 
L 401.887 -536.409385 
L 384.1809 -534.150842 
L 366.4748 -530.29192 
L 348.7687 -527.346464 
L 331.0626 -526.113551 
L 313.3565 -524.589262 
L 295.6504 -522.065193 
L 277.9443 -519.773627 
L 260.2382 -518.399511 
L 242.5321 -515.751403 
L 224.826 -513.323822 
L 207.1199 -511.385066 
L 189.4138 -509.705878 
L 171.7077 -507.554273 
L 154.0016 -504.534754 
L 136.2955 -502.090782 
L 118.5894 -500.788801 
L 100.8833 -499.156333 
L 83.1772 -497.559425 
L 65.4711 -495.831222 
L 47.765 -494.970753 
z
" style="stroke: #9467bd; stroke-opacity: 0.2"/>
    </defs>
    <g clip-path="url(#p1aa2480f1e)">
     <use xlink:href="#m7a0f4051ee" x="0" y="648" style="fill: #9467bd; fill-opacity: 0.2; stroke: #9467bd; stroke-opacity: 0.2"/>
    </g>
   </g>
   <g id="PolyCollection_6">
    <defs>
     <path id="mbcc5b55d17" d="M 47.765 -521.812668 
L 47.765 -516.766694 
L 65.4711 -519.283395 
L 83.1772 -521.868724 
L 100.8833 -526.248605 
L 118.5894 -529.168731 
L 136.2955 -531.329158 
L 154.0016 -535.364614 
L 171.7077 -536.912357 
L 189.4138 -539.476941 
L 207.1199 -542.386352 
L 224.826 -544.757439 
L 242.5321 -547.607556 
L 260.2382 -549.589409 
L 277.9443 -552.085261 
L 295.6504 -553.283103 
L 313.3565 -555.554728 
L 331.0626 -557.447781 
L 348.7687 -559.234431 
L 366.4748 -561.656511 
L 384.1809 -565.216267 
L 401.887 -566.734673 
L 419.5931 -567.935514 
L 437.2992 -569.236946 
L 455.0053 -570.960308 
L 472.7114 -572.864191 
L 490.4175 -574.847029 
L 508.1236 -576.125751 
L 525.8297 -578.531941 
L 543.5358 -579.5478 
L 561.2419 -581.125205 
L 578.948 -583.031055 
L 596.6541 -584.613894 
L 614.3602 -586.579434 
L 632.0663 -587.618175 
L 649.7724 -589.474519 
L 667.4785 -590.495891 
L 685.1846 -591.783683 
L 702.8907 -593.291394 
L 720.5968 -594.505435 
L 738.3029 -595.190426 
L 756.009 -596.428303 
L 773.7151 -597.510985 
L 791.4212 -598.292714 
L 809.1273 -599.559949 
L 826.8334 -600.376131 
L 844.5395 -601.215156 
L 862.2456 -601.726929 
L 879.9517 -602.318489 
L 897.6578 -603.313932 
L 915.3639 -604.228608 
L 933.07 -605.090924 
L 933.07 -607.998608 
L 933.07 -607.998608 
L 915.3639 -607.322868 
L 897.6578 -606.52202 
L 879.9517 -605.683628 
L 862.2456 -605.092068 
L 844.5395 -604.361565 
L 826.8334 -604.01747 
L 809.1273 -603.53222 
L 791.4212 -602.492372 
L 773.7151 -601.795202 
L 756.009 -600.866579 
L 738.3029 -600.033997 
L 720.5968 -598.530216 
L 702.8907 -597.614641 
L 685.1846 -596.519489 
L 667.4785 -595.086106 
L 649.7724 -593.918705 
L 632.0663 -592.876407 
L 614.3602 -591.312283 
L 596.6541 -589.846776 
L 578.948 -588.530972 
L 561.2419 -587.301555 
L 543.5358 -585.980316 
L 525.8297 -584.57078 
L 508.1236 -582.954362 
L 490.4175 -581.571064 
L 472.7114 -579.945388 
L 455.0053 -577.944975 
L 437.2992 -576.355602 
L 419.5931 -575.05417 
L 401.887 -572.291559 
L 384.1809 -570.556386 
L 366.4748 -568.555479 
L 348.7687 -566.481704 
L 331.0626 -564.482371 
L 313.3565 -562.766908 
L 295.6504 -560.542678 
L 277.9443 -557.954537 
L 260.2382 -554.298166 
L 242.5321 -551.54754 
L 224.826 -548.718682 
L 207.1199 -546.830538 
L 189.4138 -543.410258 
L 171.7077 -540.532491 
L 154.0016 -538.767498 
L 136.2955 -536.295795 
L 118.5894 -533.960366 
L 100.8833 -531.31983 
L 83.1772 -527.181248 
L 65.4711 -524.85663 
L 47.765 -521.812668 
z
" style="stroke: #8c564b; stroke-opacity: 0.2"/>
    </defs>
    <g clip-path="url(#p1aa2480f1e)">
     <use xlink:href="#mbcc5b55d17" x="0" y="648" style="fill: #8c564b; fill-opacity: 0.2; stroke: #8c564b; stroke-opacity: 0.2"/>
    </g>
   </g>
   <g id="PolyCollection_7">
    <defs>
     <path id="me9044b0541" d="M 47.765 -526.476993 
L 47.765 -520.265896 
L 65.4711 -524.588393 
L 83.1772 -526.844231 
L 100.8833 -530.791642 
L 118.5894 -534.202067 
L 136.2955 -537.386491 
L 154.0016 -539.794408 
L 171.7077 -543.011233 
L 189.4138 -544.473073 
L 207.1199 -547.08363 
L 224.826 -549.394627 
L 242.5321 -551.499906 
L 260.2382 -553.451717 
L 277.9443 -555.582867 
L 295.6504 -558.72414 
L 313.3565 -560.860892 
L 331.0626 -562.2817 
L 348.7687 -564.221362 
L 366.4748 -567.113742 
L 384.1809 -568.753397 
L 401.887 -570.873704 
L 419.5931 -571.860338 
L 437.2992 -574.010047 
L 455.0053 -575.28409 
L 472.7114 -576.736383 
L 490.4175 -578.652155 
L 508.1236 -580.47845 
L 525.8297 -582.080609 
L 543.5358 -583.048993 
L 561.2419 -584.187353 
L 578.948 -586.277447 
L 596.6541 -587.851473 
L 614.3602 -589.59453 
L 632.0663 -591.802981 
L 649.7724 -592.617596 
L 667.4785 -594.521735 
L 685.1846 -595.99615 
L 702.8907 -597.204524 
L 720.5968 -598.606263 
L 738.3029 -599.606396 
L 756.009 -600.747479 
L 773.7151 -601.930599 
L 791.4212 -602.372509 
L 809.1273 -603.124519 
L 826.8334 -603.505337 
L 844.5395 -604.198852 
L 862.2456 -604.636006 
L 879.9517 -605.62554 
L 897.6578 -606.596249 
L 915.3639 -607.063241 
L 933.07 -607.631186 
L 933.07 -609.066861 
L 933.07 -609.066861 
L 915.3639 -608.333374 
L 897.6578 -607.972182 
L 879.9517 -607.523148 
L 862.2456 -607.092938 
L 844.5395 -606.761064 
L 826.8334 -606.330616 
L 809.1273 -605.705782 
L 791.4212 -604.86058 
L 773.7151 -604.11937 
L 756.009 -603.52781 
L 738.3029 -602.894213 
L 720.5968 -602.237979 
L 702.8907 -601.569258 
L 685.1846 -600.470549 
L 667.4785 -599.164632 
L 649.7724 -597.992659 
L 632.0663 -596.795971 
L 614.3602 -595.159282 
L 596.6541 -593.826228 
L 578.948 -592.442455 
L 561.2419 -590.095849 
L 543.5358 -588.86797 
L 525.8297 -587.351803 
L 508.1236 -585.345446 
L 490.4175 -583.326601 
L 472.7114 -581.219767 
L 455.0053 -579.300168 
L 437.2992 -577.261475 
L 419.5931 -575.743513 
L 401.887 -573.654036 
L 384.1809 -571.751736 
L 366.4748 -570.315279 
L 348.7687 -569.06674 
L 331.0626 -567.161262 
L 313.3565 -564.500307 
L 295.6504 -561.845424 
L 277.9443 -560.017594 
L 260.2382 -558.244448 
L 242.5321 -555.641248 
L 224.826 -553.250672 
L 207.1199 -550.82919 
L 189.4138 -549.003047 
L 171.7077 -546.560592 
L 154.0016 -543.566038 
L 136.2955 -540.945696 
L 118.5894 -538.332833 
L 100.8833 -535.531879 
L 83.1772 -533.090443 
L 65.4711 -530.140554 
L 47.765 -526.476993 
z
" style="stroke: #e377c2; stroke-opacity: 0.2"/>
    </defs>
    <g clip-path="url(#p1aa2480f1e)">
     <use xlink:href="#me9044b0541" x="0" y="648" style="fill: #e377c2; fill-opacity: 0.2; stroke: #e377c2; stroke-opacity: 0.2"/>
    </g>
   </g>
   <g id="PolyCollection_8">
    <defs>
     <path id="m85abba1976" d="M 47.765 -527.034887 
L 47.765 -521.246057 
L 65.4711 -524.822977 
L 83.1772 -527.533084 
L 100.8833 -530.085488 
L 118.5894 -532.569299 
L 136.2955 -535.525121 
L 154.0016 -538.511741 
L 171.7077 -541.002503 
L 189.4138 -542.933826 
L 207.1199 -545.703018 
L 224.826 -547.58299 
L 242.5321 -550.178425 
L 260.2382 -552.102372 
L 277.9443 -554.98627 
L 295.6504 -556.752793 
L 313.3565 -558.520569 
L 331.0626 -560.989965 
L 348.7687 -563.420049 
L 366.4748 -565.520978 
L 384.1809 -567.332538 
L 401.887 -570.3413 
L 419.5931 -571.554539 
L 437.2992 -573.410766 
L 455.0053 -574.524624 
L 472.7114 -576.806558 
L 490.4175 -578.693009 
L 508.1236 -580.165959 
L 525.8297 -582.31599 
L 543.5358 -583.446893 
L 561.2419 -585.12964 
L 578.948 -586.533958 
L 596.6541 -587.940363 
L 614.3602 -590.025707 
L 632.0663 -591.360688 
L 649.7724 -592.258033 
L 667.4785 -593.082583 
L 685.1846 -594.16797 
L 702.8907 -595.392889 
L 720.5968 -596.302579 
L 738.3029 -597.257275 
L 756.009 -597.713007 
L 773.7151 -598.608025 
L 791.4212 -599.856502 
L 809.1273 -600.273386 
L 826.8334 -601.398195 
L 844.5395 -602.70081 
L 862.2456 -603.526604 
L 879.9517 -604.274252 
L 897.6578 -605.011547 
L 915.3639 -605.746489 
L 933.07 -606.446779 
L 933.07 -609.008992 
L 933.07 -609.008992 
L 915.3639 -608.407851 
L 897.6578 -607.900516 
L 879.9517 -607.395536 
L 862.2456 -606.427661 
L 844.5395 -605.656242 
L 826.8334 -605.065866 
L 809.1273 -604.415995 
L 791.4212 -603.708915 
L 773.7151 -603.241869 
L 756.009 -602.125583 
L 738.3029 -601.634819 
L 720.5968 -600.578211 
L 702.8907 -599.89069 
L 685.1846 -598.690213 
L 667.4785 -597.882609 
L 649.7724 -596.932479 
L 632.0663 -595.759364 
L 614.3602 -594.373169 
L 596.6541 -593.55987 
L 578.948 -591.771852 
L 561.2419 -590.454994 
L 543.5358 -589.298254 
L 525.8297 -587.293889 
L 508.1236 -585.303001 
L 490.4175 -583.581528 
L 472.7114 -581.859463 
L 455.0053 -579.763854 
L 437.2992 -578.156537 
L 419.5931 -576.404248 
L 401.887 -575.014623 
L 384.1809 -572.876814 
L 366.4748 -570.429143 
L 348.7687 -566.673629 
L 331.0626 -564.72617 
L 313.3565 -562.522243 
L 295.6504 -560.563192 
L 277.9443 -558.662043 
L 260.2382 -556.754305 
L 242.5321 -554.30071 
L 224.826 -552.163666 
L 207.1199 -550.375966 
L 189.4138 -547.170403 
L 171.7077 -545.079119 
L 154.0016 -542.364154 
L 136.2955 -540.085891 
L 118.5894 -537.421893 
L 100.8833 -535.528161 
L 83.1772 -532.579059 
L 65.4711 -529.965126 
L 47.765 -527.034887 
z
" style="stroke: #7f7f7f; stroke-opacity: 0.2"/>
    </defs>
    <g clip-path="url(#p1aa2480f1e)">
     <use xlink:href="#m85abba1976" x="0" y="648" style="fill: #7f7f7f; fill-opacity: 0.2; stroke: #7f7f7f; stroke-opacity: 0.2"/>
    </g>
   </g>
   <g id="PolyCollection_9">
    <defs>
     <path id="mf099eace17" d="M 47.765 -525.026858 
L 47.765 -521.361095 
L 65.4711 -523.426255 
L 83.1772 -526.177156 
L 100.8833 -529.569853 
L 118.5894 -533.405321 
L 136.2955 -535.532887 
L 154.0016 -538.816363 
L 171.7077 -541.342446 
L 189.4138 -543.350141 
L 207.1199 -546.878273 
L 224.826 -549.227935 
L 242.5321 -551.658783 
L 260.2382 -554.201489 
L 277.9443 -555.854064 
L 295.6504 -559.077857 
L 313.3565 -561.095513 
L 331.0626 -563.841194 
L 348.7687 -566.114568 
L 366.4748 -567.790505 
L 384.1809 -570.38177 
L 401.887 -571.837419 
L 419.5931 -573.033514 
L 437.2992 -576.355672 
L 455.0053 -577.660608 
L 472.7114 -579.319775 
L 490.4175 -580.432605 
L 508.1236 -581.732902 
L 525.8297 -583.024586 
L 543.5358 -583.997493 
L 561.2419 -584.964704 
L 578.948 -585.886963 
L 596.6541 -586.913569 
L 614.3602 -587.827155 
L 632.0663 -588.387401 
L 649.7724 -589.4802 
L 667.4785 -590.377295 
L 685.1846 -591.123169 
L 702.8907 -592.524796 
L 720.5968 -593.550694 
L 738.3029 -594.727693 
L 756.009 -595.356043 
L 773.7151 -596.397279 
L 791.4212 -596.90234 
L 809.1273 -597.944893 
L 826.8334 -598.094622 
L 844.5395 -598.606907 
L 862.2456 -599.41472 
L 879.9517 -599.69735 
L 897.6578 -600.846553 
L 915.3639 -601.941444 
L 933.07 -602.214435 
L 933.07 -607.207425 
L 933.07 -607.207425 
L 915.3639 -606.770544 
L 897.6578 -606.504848 
L 879.9517 -605.642747 
L 862.2456 -604.919725 
L 844.5395 -604.366951 
L 826.8334 -603.814428 
L 809.1273 -603.313441 
L 791.4212 -602.344691 
L 773.7151 -601.489163 
L 756.009 -600.45994 
L 738.3029 -599.668546 
L 720.5968 -598.71593 
L 702.8907 -597.671367 
L 685.1846 -596.706755 
L 667.4785 -595.677949 
L 649.7724 -594.445429 
L 632.0663 -593.349456 
L 614.3602 -592.31249 
L 596.6541 -590.978149 
L 578.948 -589.579359 
L 561.2419 -588.194535 
L 543.5358 -586.381414 
L 525.8297 -585.343018 
L 508.1236 -584.090994 
L 490.4175 -582.610959 
L 472.7114 -581.712486 
L 455.0053 -580.295541 
L 437.2992 -578.524366 
L 419.5931 -577.291513 
L 401.887 -575.884744 
L 384.1809 -574.145969 
L 366.4748 -572.241379 
L 348.7687 -570.604581 
L 331.0626 -568.796192 
L 313.3565 -566.927706 
L 295.6504 -564.98191 
L 277.9443 -561.698544 
L 260.2382 -559.920072 
L 242.5321 -557.493675 
L 224.826 -554.482172 
L 207.1199 -551.330326 
L 189.4138 -548.824548 
L 171.7077 -545.86314 
L 154.0016 -544.189147 
L 136.2955 -541.793648 
L 118.5894 -538.064771 
L 100.8833 -534.978988 
L 83.1772 -531.391279 
L 65.4711 -527.457553 
L 47.765 -525.026858 
z
" style="stroke: #bcbd22; stroke-opacity: 0.2"/>
    </defs>
    <g clip-path="url(#p1aa2480f1e)">
     <use xlink:href="#mf099eace17" x="0" y="648" style="fill: #bcbd22; fill-opacity: 0.2; stroke: #bcbd22; stroke-opacity: 0.2"/>
    </g>
   </g>
   <g id="PolyCollection_10">
    <defs>
     <path id="m96601ca38c" d="M 47.765 -524.166253 
L 47.765 -517.489221 
L 65.4711 -520.917027 
L 83.1772 -524.546939 
L 100.8833 -527.917797 
L 118.5894 -532.142654 
L 136.2955 -535.300162 
L 154.0016 -538.585652 
L 171.7077 -541.09455 
L 189.4138 -545.448503 
L 207.1199 -548.247836 
L 224.826 -550.911071 
L 242.5321 -553.356974 
L 260.2382 -555.386958 
L 277.9443 -558.538543 
L 295.6504 -560.343938 
L 313.3565 -562.516442 
L 331.0626 -563.952453 
L 348.7687 -565.73645 
L 366.4748 -567.989429 
L 384.1809 -570.196318 
L 401.887 -571.766512 
L 419.5931 -573.502077 
L 437.2992 -575.01985 
L 455.0053 -576.575366 
L 472.7114 -578.636039 
L 490.4175 -580.117456 
L 508.1236 -581.481946 
L 525.8297 -582.920387 
L 543.5358 -584.682884 
L 561.2419 -586.089891 
L 578.948 -587.569785 
L 596.6541 -588.396257 
L 614.3602 -589.963335 
L 632.0663 -590.745993 
L 649.7724 -591.966966 
L 667.4785 -592.719681 
L 685.1846 -593.588346 
L 702.8907 -594.572094 
L 720.5968 -595.51779 
L 738.3029 -595.986234 
L 756.009 -597.011291 
L 773.7151 -597.504238 
L 791.4212 -598.563148 
L 809.1273 -599.491655 
L 826.8334 -600.112493 
L 844.5395 -600.940817 
L 862.2456 -601.384935 
L 879.9517 -601.975182 
L 897.6578 -602.593461 
L 915.3639 -603.464816 
L 933.07 -604.329416 
L 933.07 -608.70096 
L 933.07 -608.70096 
L 915.3639 -608.027504 
L 897.6578 -607.479115 
L 879.9517 -607.032587 
L 862.2456 -606.676338 
L 844.5395 -605.996492 
L 826.8334 -604.99098 
L 809.1273 -603.896294 
L 791.4212 -603.286746 
L 773.7151 -602.570976 
L 756.009 -601.880803 
L 738.3029 -601.367804 
L 720.5968 -600.653129 
L 702.8907 -599.883301 
L 685.1846 -599.151525 
L 667.4785 -598.127199 
L 649.7724 -596.809454 
L 632.0663 -595.841656 
L 614.3602 -594.90879 
L 596.6541 -593.754692 
L 578.948 -592.274081 
L 561.2419 -590.618707 
L 543.5358 -589.12707 
L 525.8297 -587.576832 
L 508.1236 -586.353254 
L 490.4175 -584.641632 
L 472.7114 -582.692001 
L 455.0053 -581.025847 
L 437.2992 -579.032004 
L 419.5931 -577.591977 
L 401.887 -575.600715 
L 384.1809 -573.503238 
L 366.4748 -571.628364 
L 348.7687 -569.858735 
L 331.0626 -567.383501 
L 313.3565 -565.329308 
L 295.6504 -563.360893 
L 277.9443 -560.847901 
L 260.2382 -558.261355 
L 242.5321 -556.032107 
L 224.826 -554.041312 
L 207.1199 -551.617132 
L 189.4138 -548.678333 
L 171.7077 -545.992723 
L 154.0016 -543.295895 
L 136.2955 -540.370006 
L 118.5894 -537.552759 
L 100.8833 -534.797209 
L 83.1772 -531.897532 
L 65.4711 -528.783661 
L 47.765 -524.166253 
z
" style="stroke: #17becf; stroke-opacity: 0.2"/>
    </defs>
    <g clip-path="url(#p1aa2480f1e)">
     <use xlink:href="#m96601ca38c" x="0" y="648" style="fill: #17becf; fill-opacity: 0.2; stroke: #17becf; stroke-opacity: 0.2"/>
    </g>
   </g>
   <g id="PolyCollection_11">
    <defs>
     <path id="m49bd05cd2d" d="M 47.765 -491.152676 
L 47.765 -473.836635 
L 65.4711 -477.849356 
L 83.1772 -481.727209 
L 100.8833 -486.426276 
L 118.5894 -489.7941 
L 136.2955 -498.703397 
L 154.0016 -502.937911 
L 171.7077 -508.331986 
L 189.4138 -514.384286 
L 207.1199 -518.487198 
L 224.826 -519.954145 
L 242.5321 -526.082889 
L 260.2382 -529.733698 
L 277.9443 -534.041162 
L 295.6504 -537.681203 
L 313.3565 -539.071339 
L 331.0626 -541.372204 
L 348.7687 -543.923277 
L 366.4748 -547.729618 
L 384.1809 -551.355018 
L 401.887 -553.482426 
L 419.5931 -556.506692 
L 437.2992 -560.251586 
L 455.0053 -562.286733 
L 472.7114 -565.153946 
L 490.4175 -566.361284 
L 508.1236 -568.159464 
L 525.8297 -571.222783 
L 543.5358 -572.350599 
L 561.2419 -574.455915 
L 578.948 -576.311419 
L 596.6541 -578.40166 
L 614.3602 -579.796307 
L 632.0663 -581.144929 
L 649.7724 -581.982143 
L 667.4785 -582.589579 
L 685.1846 -584.214211 
L 702.8907 -585.202205 
L 720.5968 -586.057556 
L 738.3029 -587.262996 
L 756.009 -588.53193 
L 773.7151 -589.426659 
L 791.4212 -590.898838 
L 809.1273 -592.818302 
L 826.8334 -593.97159 
L 844.5395 -595.092652 
L 862.2456 -596.362988 
L 879.9517 -597.490147 
L 897.6578 -598.170783 
L 915.3639 -599.297911 
L 933.07 -599.993862 
L 933.07 -603.157463 
L 933.07 -603.157463 
L 915.3639 -602.847763 
L 897.6578 -602.022742 
L 879.9517 -601.224479 
L 862.2456 -600.39949 
L 844.5395 -599.126119 
L 826.8334 -598.472502 
L 809.1273 -597.437018 
L 791.4212 -596.162059 
L 773.7151 -595.327154 
L 756.009 -593.9148 
L 738.3029 -592.935806 
L 720.5968 -591.71585 
L 702.8907 -590.678209 
L 685.1846 -589.477432 
L 667.4785 -588.440044 
L 649.7724 -587.154488 
L 632.0663 -586.276178 
L 614.3602 -585.081093 
L 596.6541 -583.932033 
L 578.948 -582.354602 
L 561.2419 -581.133995 
L 543.5358 -579.335015 
L 525.8297 -577.800812 
L 508.1236 -574.711908 
L 490.4175 -573.138196 
L 472.7114 -571.801827 
L 455.0053 -570.52812 
L 437.2992 -568.718129 
L 419.5931 -567.138983 
L 401.887 -565.489926 
L 384.1809 -563.890506 
L 366.4748 -561.896088 
L 348.7687 -559.905141 
L 331.0626 -556.895552 
L 313.3565 -553.754066 
L 295.6504 -551.121595 
L 277.9443 -547.603761 
L 260.2382 -542.919514 
L 242.5321 -540.477256 
L 224.826 -535.721298 
L 207.1199 -531.80505 
L 189.4138 -526.679628 
L 171.7077 -523.26697 
L 154.0016 -519.669334 
L 136.2955 -516.50935 
L 118.5894 -512.640952 
L 100.8833 -507.786094 
L 83.1772 -503.848386 
L 65.4711 -496.427445 
L 47.765 -491.152676 
z
" style="stroke: #9edae5; stroke-opacity: 0.2"/>
    </defs>
    <g clip-path="url(#p1aa2480f1e)">
     <use xlink:href="#m49bd05cd2d" x="0" y="648" style="fill: #9edae5; fill-opacity: 0.2; stroke: #9edae5; stroke-opacity: 0.2"/>
    </g>
   </g>
   <g id="matplotlib.axis_1">
    <g id="xtick_1">
     <g id="line2d_1">
      <defs>
       <path id="m3ccb4e7b84" d="M 0 0 
L 0 3.5 
" style="stroke: #000000; stroke-width: 0.8"/>
      </defs>
      <g>
       <use xlink:href="#m3ccb4e7b84" x="47.765" y="606.04" style="stroke: #000000; stroke-width: 0.8"/>
      </g>
     </g>
     <g id="text_1">
      <!-- 30 -->
      <g transform="translate(41.4025 620.638438) scale(0.1 -0.1)">
       <defs>
        <path id="DejaVuSans-33" d="M 2597 2516 
Q 3050 2419 3304 2112 
Q 3559 1806 3559 1356 
Q 3559 666 3084 287 
Q 2609 -91 1734 -91 
Q 1441 -91 1130 -33 
Q 819 25 488 141 
L 488 750 
Q 750 597 1062 519 
Q 1375 441 1716 441 
Q 2309 441 2620 675 
Q 2931 909 2931 1356 
Q 2931 1769 2642 2001 
Q 2353 2234 1838 2234 
L 1294 2234 
L 1294 2753 
L 1863 2753 
Q 2328 2753 2575 2939 
Q 2822 3125 2822 3475 
Q 2822 3834 2567 4026 
Q 2313 4219 1838 4219 
Q 1578 4219 1281 4162 
Q 984 4106 628 3988 
L 628 4550 
Q 988 4650 1302 4700 
Q 1616 4750 1894 4750 
Q 2613 4750 3031 4423 
Q 3450 4097 3450 3541 
Q 3450 3153 3228 2886 
Q 3006 2619 2597 2516 
z
" transform="scale(0.015625)"/>
        <path id="DejaVuSans-30" d="M 2034 4250 
Q 1547 4250 1301 3770 
Q 1056 3291 1056 2328 
Q 1056 1369 1301 889 
Q 1547 409 2034 409 
Q 2525 409 2770 889 
Q 3016 1369 3016 2328 
Q 3016 3291 2770 3770 
Q 2525 4250 2034 4250 
z
M 2034 4750 
Q 2819 4750 3233 4129 
Q 3647 3509 3647 2328 
Q 3647 1150 3233 529 
Q 2819 -91 2034 -91 
Q 1250 -91 836 529 
Q 422 1150 422 2328 
Q 422 3509 836 4129 
Q 1250 4750 2034 4750 
z
" transform="scale(0.015625)"/>
       </defs>
       <use xlink:href="#DejaVuSans-33"/>
       <use xlink:href="#DejaVuSans-30" x="63.623047"/>
      </g>
     </g>
    </g>
    <g id="xtick_2">
     <g id="line2d_2">
      <g>
       <use xlink:href="#m3ccb4e7b84" x="224.826" y="606.04" style="stroke: #000000; stroke-width: 0.8"/>
      </g>
     </g>
     <g id="text_2">
      <!-- 40 -->
      <g transform="translate(218.4635 620.638438) scale(0.1 -0.1)">
       <defs>
        <path id="DejaVuSans-34" d="M 2419 4116 
L 825 1625 
L 2419 1625 
L 2419 4116 
z
M 2253 4666 
L 3047 4666 
L 3047 1625 
L 3713 1625 
L 3713 1100 
L 3047 1100 
L 3047 0 
L 2419 0 
L 2419 1100 
L 313 1100 
L 313 1709 
L 2253 4666 
z
" transform="scale(0.015625)"/>
       </defs>
       <use xlink:href="#DejaVuSans-34"/>
       <use xlink:href="#DejaVuSans-30" x="63.623047"/>
      </g>
     </g>
    </g>
    <g id="xtick_3">
     <g id="line2d_3">
      <g>
       <use xlink:href="#m3ccb4e7b84" x="401.887" y="606.04" style="stroke: #000000; stroke-width: 0.8"/>
      </g>
     </g>
     <g id="text_3">
      <!-- 50 -->
      <g transform="translate(395.5245 620.638438) scale(0.1 -0.1)">
       <defs>
        <path id="DejaVuSans-35" d="M 691 4666 
L 3169 4666 
L 3169 4134 
L 1269 4134 
L 1269 2991 
Q 1406 3038 1543 3061 
Q 1681 3084 1819 3084 
Q 2600 3084 3056 2656 
Q 3513 2228 3513 1497 
Q 3513 744 3044 326 
Q 2575 -91 1722 -91 
Q 1428 -91 1123 -41 
Q 819 9 494 109 
L 494 744 
Q 775 591 1075 516 
Q 1375 441 1709 441 
Q 2250 441 2565 725 
Q 2881 1009 2881 1497 
Q 2881 1984 2565 2268 
Q 2250 2553 1709 2553 
Q 1456 2553 1204 2497 
Q 953 2441 691 2322 
L 691 4666 
z
" transform="scale(0.015625)"/>
       </defs>
       <use xlink:href="#DejaVuSans-35"/>
       <use xlink:href="#DejaVuSans-30" x="63.623047"/>
      </g>
     </g>
    </g>
    <g id="xtick_4">
     <g id="line2d_4">
      <g>
       <use xlink:href="#m3ccb4e7b84" x="578.948" y="606.04" style="stroke: #000000; stroke-width: 0.8"/>
      </g>
     </g>
     <g id="text_4">
      <!-- 60 -->
      <g transform="translate(572.5855 620.638438) scale(0.1 -0.1)">
       <defs>
        <path id="DejaVuSans-36" d="M 2113 2584 
Q 1688 2584 1439 2293 
Q 1191 2003 1191 1497 
Q 1191 994 1439 701 
Q 1688 409 2113 409 
Q 2538 409 2786 701 
Q 3034 994 3034 1497 
Q 3034 2003 2786 2293 
Q 2538 2584 2113 2584 
z
M 3366 4563 
L 3366 3988 
Q 3128 4100 2886 4159 
Q 2644 4219 2406 4219 
Q 1781 4219 1451 3797 
Q 1122 3375 1075 2522 
Q 1259 2794 1537 2939 
Q 1816 3084 2150 3084 
Q 2853 3084 3261 2657 
Q 3669 2231 3669 1497 
Q 3669 778 3244 343 
Q 2819 -91 2113 -91 
Q 1303 -91 875 529 
Q 447 1150 447 2328 
Q 447 3434 972 4092 
Q 1497 4750 2381 4750 
Q 2619 4750 2861 4703 
Q 3103 4656 3366 4563 
z
" transform="scale(0.015625)"/>
       </defs>
       <use xlink:href="#DejaVuSans-36"/>
       <use xlink:href="#DejaVuSans-30" x="63.623047"/>
      </g>
     </g>
    </g>
    <g id="xtick_5">
     <g id="line2d_5">
      <g>
       <use xlink:href="#m3ccb4e7b84" x="756.009" y="606.04" style="stroke: #000000; stroke-width: 0.8"/>
      </g>
     </g>
     <g id="text_5">
      <!-- 70 -->
      <g transform="translate(749.6465 620.638438) scale(0.1 -0.1)">
       <defs>
        <path id="DejaVuSans-37" d="M 525 4666 
L 3525 4666 
L 3525 4397 
L 1831 0 
L 1172 0 
L 2766 4134 
L 525 4134 
L 525 4666 
z
" transform="scale(0.015625)"/>
       </defs>
       <use xlink:href="#DejaVuSans-37"/>
       <use xlink:href="#DejaVuSans-30" x="63.623047"/>
      </g>
     </g>
    </g>
    <g id="xtick_6">
     <g id="line2d_6">
      <g>
       <use xlink:href="#m3ccb4e7b84" x="933.07" y="606.04" style="stroke: #000000; stroke-width: 0.8"/>
      </g>
     </g>
     <g id="text_6">
      <!-- 80 -->
      <g transform="translate(926.7075 620.638438) scale(0.1 -0.1)">
       <defs>
        <path id="DejaVuSans-38" d="M 2034 2216 
Q 1584 2216 1326 1975 
Q 1069 1734 1069 1313 
Q 1069 891 1326 650 
Q 1584 409 2034 409 
Q 2484 409 2743 651 
Q 3003 894 3003 1313 
Q 3003 1734 2745 1975 
Q 2488 2216 2034 2216 
z
M 1403 2484 
Q 997 2584 770 2862 
Q 544 3141 544 3541 
Q 544 4100 942 4425 
Q 1341 4750 2034 4750 
Q 2731 4750 3128 4425 
Q 3525 4100 3525 3541 
Q 3525 3141 3298 2862 
Q 3072 2584 2669 2484 
Q 3125 2378 3379 2068 
Q 3634 1759 3634 1313 
Q 3634 634 3220 271 
Q 2806 -91 2034 -91 
Q 1263 -91 848 271 
Q 434 634 434 1313 
Q 434 1759 690 2068 
Q 947 2378 1403 2484 
z
M 1172 3481 
Q 1172 3119 1398 2916 
Q 1625 2713 2034 2713 
Q 2441 2713 2670 2916 
Q 2900 3119 2900 3481 
Q 2900 3844 2670 4047 
Q 2441 4250 2034 4250 
Q 1625 4250 1398 4047 
Q 1172 3844 1172 3481 
z
" transform="scale(0.015625)"/>
       </defs>
       <use xlink:href="#DejaVuSans-38"/>
       <use xlink:href="#DejaVuSans-30" x="63.623047"/>
      </g>
     </g>
    </g>
    <g id="text_7">
     <!-- Number of Baits -->
     <g transform="translate(449.885469 634.316563) scale(0.1 -0.1)">
      <defs>
       <path id="DejaVuSans-4e" d="M 628 4666 
L 1478 4666 
L 3547 763 
L 3547 4666 
L 4159 4666 
L 4159 0 
L 3309 0 
L 1241 3903 
L 1241 0 
L 628 0 
L 628 4666 
z
" transform="scale(0.015625)"/>
       <path id="DejaVuSans-75" d="M 544 1381 
L 544 3500 
L 1119 3500 
L 1119 1403 
Q 1119 906 1312 657 
Q 1506 409 1894 409 
Q 2359 409 2629 706 
Q 2900 1003 2900 1516 
L 2900 3500 
L 3475 3500 
L 3475 0 
L 2900 0 
L 2900 538 
Q 2691 219 2414 64 
Q 2138 -91 1772 -91 
Q 1169 -91 856 284 
Q 544 659 544 1381 
z
M 1991 3584 
L 1991 3584 
z
" transform="scale(0.015625)"/>
       <path id="DejaVuSans-6d" d="M 3328 2828 
Q 3544 3216 3844 3400 
Q 4144 3584 4550 3584 
Q 5097 3584 5394 3201 
Q 5691 2819 5691 2113 
L 5691 0 
L 5113 0 
L 5113 2094 
Q 5113 2597 4934 2840 
Q 4756 3084 4391 3084 
Q 3944 3084 3684 2787 
Q 3425 2491 3425 1978 
L 3425 0 
L 2847 0 
L 2847 2094 
Q 2847 2600 2669 2842 
Q 2491 3084 2119 3084 
Q 1678 3084 1418 2786 
Q 1159 2488 1159 1978 
L 1159 0 
L 581 0 
L 581 3500 
L 1159 3500 
L 1159 2956 
Q 1356 3278 1631 3431 
Q 1906 3584 2284 3584 
Q 2666 3584 2933 3390 
Q 3200 3197 3328 2828 
z
" transform="scale(0.015625)"/>
       <path id="DejaVuSans-62" d="M 3116 1747 
Q 3116 2381 2855 2742 
Q 2594 3103 2138 3103 
Q 1681 3103 1420 2742 
Q 1159 2381 1159 1747 
Q 1159 1113 1420 752 
Q 1681 391 2138 391 
Q 2594 391 2855 752 
Q 3116 1113 3116 1747 
z
M 1159 2969 
Q 1341 3281 1617 3432 
Q 1894 3584 2278 3584 
Q 2916 3584 3314 3078 
Q 3713 2572 3713 1747 
Q 3713 922 3314 415 
Q 2916 -91 2278 -91 
Q 1894 -91 1617 61 
Q 1341 213 1159 525 
L 1159 0 
L 581 0 
L 581 4863 
L 1159 4863 
L 1159 2969 
z
" transform="scale(0.015625)"/>
       <path id="DejaVuSans-65" d="M 3597 1894 
L 3597 1613 
L 953 1613 
Q 991 1019 1311 708 
Q 1631 397 2203 397 
Q 2534 397 2845 478 
Q 3156 559 3463 722 
L 3463 178 
Q 3153 47 2828 -22 
Q 2503 -91 2169 -91 
Q 1331 -91 842 396 
Q 353 884 353 1716 
Q 353 2575 817 3079 
Q 1281 3584 2069 3584 
Q 2775 3584 3186 3129 
Q 3597 2675 3597 1894 
z
M 3022 2063 
Q 3016 2534 2758 2815 
Q 2500 3097 2075 3097 
Q 1594 3097 1305 2825 
Q 1016 2553 972 2059 
L 3022 2063 
z
" transform="scale(0.015625)"/>
       <path id="DejaVuSans-72" d="M 2631 2963 
Q 2534 3019 2420 3045 
Q 2306 3072 2169 3072 
Q 1681 3072 1420 2755 
Q 1159 2438 1159 1844 
L 1159 0 
L 581 0 
L 581 3500 
L 1159 3500 
L 1159 2956 
Q 1341 3275 1631 3429 
Q 1922 3584 2338 3584 
Q 2397 3584 2469 3576 
Q 2541 3569 2628 3553 
L 2631 2963 
z
" transform="scale(0.015625)"/>
       <path id="DejaVuSans-20" transform="scale(0.015625)"/>
       <path id="DejaVuSans-6f" d="M 1959 3097 
Q 1497 3097 1228 2736 
Q 959 2375 959 1747 
Q 959 1119 1226 758 
Q 1494 397 1959 397 
Q 2419 397 2687 759 
Q 2956 1122 2956 1747 
Q 2956 2369 2687 2733 
Q 2419 3097 1959 3097 
z
M 1959 3584 
Q 2709 3584 3137 3096 
Q 3566 2609 3566 1747 
Q 3566 888 3137 398 
Q 2709 -91 1959 -91 
Q 1206 -91 779 398 
Q 353 888 353 1747 
Q 353 2609 779 3096 
Q 1206 3584 1959 3584 
z
" transform="scale(0.015625)"/>
       <path id="DejaVuSans-66" d="M 2375 4863 
L 2375 4384 
L 1825 4384 
Q 1516 4384 1395 4259 
Q 1275 4134 1275 3809 
L 1275 3500 
L 2222 3500 
L 2222 3053 
L 1275 3053 
L 1275 0 
L 697 0 
L 697 3053 
L 147 3053 
L 147 3500 
L 697 3500 
L 697 3744 
Q 697 4328 969 4595 
Q 1241 4863 1831 4863 
L 2375 4863 
z
" transform="scale(0.015625)"/>
       <path id="DejaVuSans-42" d="M 1259 2228 
L 1259 519 
L 2272 519 
Q 2781 519 3026 730 
Q 3272 941 3272 1375 
Q 3272 1813 3026 2020 
Q 2781 2228 2272 2228 
L 1259 2228 
z
M 1259 4147 
L 1259 2741 
L 2194 2741 
Q 2656 2741 2882 2914 
Q 3109 3088 3109 3444 
Q 3109 3797 2882 3972 
Q 2656 4147 2194 4147 
L 1259 4147 
z
M 628 4666 
L 2241 4666 
Q 2963 4666 3353 4366 
Q 3744 4066 3744 3513 
Q 3744 3084 3544 2831 
Q 3344 2578 2956 2516 
Q 3422 2416 3680 2098 
Q 3938 1781 3938 1306 
Q 3938 681 3513 340 
Q 3088 0 2303 0 
L 628 0 
L 628 4666 
z
" transform="scale(0.015625)"/>
       <path id="DejaVuSans-61" d="M 2194 1759 
Q 1497 1759 1228 1600 
Q 959 1441 959 1056 
Q 959 750 1161 570 
Q 1363 391 1709 391 
Q 2188 391 2477 730 
Q 2766 1069 2766 1631 
L 2766 1759 
L 2194 1759 
z
M 3341 1997 
L 3341 0 
L 2766 0 
L 2766 531 
Q 2569 213 2275 61 
Q 1981 -91 1556 -91 
Q 1019 -91 701 211 
Q 384 513 384 1019 
Q 384 1609 779 1909 
Q 1175 2209 1959 2209 
L 2766 2209 
L 2766 2266 
Q 2766 2663 2505 2880 
Q 2244 3097 1772 3097 
Q 1472 3097 1187 3025 
Q 903 2953 641 2809 
L 641 3341 
Q 956 3463 1253 3523 
Q 1550 3584 1831 3584 
Q 2591 3584 2966 3190 
Q 3341 2797 3341 1997 
z
" transform="scale(0.015625)"/>
       <path id="DejaVuSans-69" d="M 603 3500 
L 1178 3500 
L 1178 0 
L 603 0 
L 603 3500 
z
M 603 4863 
L 1178 4863 
L 1178 4134 
L 603 4134 
L 603 4863 
z
" transform="scale(0.015625)"/>
       <path id="DejaVuSans-74" d="M 1172 4494 
L 1172 3500 
L 2356 3500 
L 2356 3053 
L 1172 3053 
L 1172 1153 
Q 1172 725 1289 603 
Q 1406 481 1766 481 
L 2356 481 
L 2356 0 
L 1766 0 
Q 1100 0 847 248 
Q 594 497 594 1153 
L 594 3053 
L 172 3053 
L 172 3500 
L 594 3500 
L 594 4494 
L 1172 4494 
z
" transform="scale(0.015625)"/>
       <path id="DejaVuSans-73" d="M 2834 3397 
L 2834 2853 
Q 2591 2978 2328 3040 
Q 2066 3103 1784 3103 
Q 1356 3103 1142 2972 
Q 928 2841 928 2578 
Q 928 2378 1081 2264 
Q 1234 2150 1697 2047 
L 1894 2003 
Q 2506 1872 2764 1633 
Q 3022 1394 3022 966 
Q 3022 478 2636 193 
Q 2250 -91 1575 -91 
Q 1294 -91 989 -36 
Q 684 19 347 128 
L 347 722 
Q 666 556 975 473 
Q 1284 391 1588 391 
Q 1994 391 2212 530 
Q 2431 669 2431 922 
Q 2431 1156 2273 1281 
Q 2116 1406 1581 1522 
L 1381 1569 
Q 847 1681 609 1914 
Q 372 2147 372 2553 
Q 372 3047 722 3315 
Q 1072 3584 1716 3584 
Q 2034 3584 2315 3537 
Q 2597 3491 2834 3397 
z
" transform="scale(0.015625)"/>
      </defs>
      <use xlink:href="#DejaVuSans-4e"/>
      <use xlink:href="#DejaVuSans-75" x="74.804688"/>
      <use xlink:href="#DejaVuSans-6d" x="138.183594"/>
      <use xlink:href="#DejaVuSans-62" x="235.595703"/>
      <use xlink:href="#DejaVuSans-65" x="299.072266"/>
      <use xlink:href="#DejaVuSans-72" x="360.595703"/>
      <use xlink:href="#DejaVuSans-20" x="401.708984"/>
      <use xlink:href="#DejaVuSans-6f" x="433.496094"/>
      <use xlink:href="#DejaVuSans-66" x="494.677734"/>
      <use xlink:href="#DejaVuSans-20" x="529.882812"/>
      <use xlink:href="#DejaVuSans-42" x="561.669922"/>
      <use xlink:href="#DejaVuSans-61" x="630.273438"/>
      <use xlink:href="#DejaVuSans-69" x="691.552734"/>
      <use xlink:href="#DejaVuSans-74" x="719.335938"/>
      <use xlink:href="#DejaVuSans-73" x="758.544922"/>
     </g>
    </g>
   </g>
   <g id="matplotlib.axis_2">
    <g id="ytick_1">
     <g id="line2d_7">
      <defs>
       <path id="m071fdaf256" d="M 0 0 
L -3.5 0 
" style="stroke: #000000; stroke-width: 0.8"/>
      </defs>
      <g>
       <use xlink:href="#m071fdaf256" x="47.765" y="606.04" style="stroke: #000000; stroke-width: 0.8"/>
      </g>
     </g>
     <g id="text_8">
      <!-- 0.0 -->
      <g transform="translate(24.861875 609.839219) scale(0.1 -0.1)">
       <defs>
        <path id="DejaVuSans-2e" d="M 684 794 
L 1344 794 
L 1344 0 
L 684 0 
L 684 794 
z
" transform="scale(0.015625)"/>
       </defs>
       <use xlink:href="#DejaVuSans-30"/>
       <use xlink:href="#DejaVuSans-2e" x="63.623047"/>
       <use xlink:href="#DejaVuSans-30" x="95.410156"/>
      </g>
     </g>
    </g>
    <g id="ytick_2">
     <g id="line2d_8">
      <g>
       <use xlink:href="#m071fdaf256" x="47.765" y="490.9816" style="stroke: #000000; stroke-width: 0.8"/>
      </g>
     </g>
     <g id="text_9">
      <!-- 0.2 -->
      <g transform="translate(24.861875 494.780819) scale(0.1 -0.1)">
       <defs>
        <path id="DejaVuSans-32" d="M 1228 531 
L 3431 531 
L 3431 0 
L 469 0 
L 469 531 
Q 828 903 1448 1529 
Q 2069 2156 2228 2338 
Q 2531 2678 2651 2914 
Q 2772 3150 2772 3378 
Q 2772 3750 2511 3984 
Q 2250 4219 1831 4219 
Q 1534 4219 1204 4116 
Q 875 4013 500 3803 
L 500 4441 
Q 881 4594 1212 4672 
Q 1544 4750 1819 4750 
Q 2544 4750 2975 4387 
Q 3406 4025 3406 3419 
Q 3406 3131 3298 2873 
Q 3191 2616 2906 2266 
Q 2828 2175 2409 1742 
Q 1991 1309 1228 531 
z
" transform="scale(0.015625)"/>
       </defs>
       <use xlink:href="#DejaVuSans-30"/>
       <use xlink:href="#DejaVuSans-2e" x="63.623047"/>
       <use xlink:href="#DejaVuSans-32" x="95.410156"/>
      </g>
     </g>
    </g>
    <g id="ytick_3">
     <g id="line2d_9">
      <g>
       <use xlink:href="#m071fdaf256" x="47.765" y="375.9232" style="stroke: #000000; stroke-width: 0.8"/>
      </g>
     </g>
     <g id="text_10">
      <!-- 0.4 -->
      <g transform="translate(24.861875 379.722419) scale(0.1 -0.1)">
       <use xlink:href="#DejaVuSans-30"/>
       <use xlink:href="#DejaVuSans-2e" x="63.623047"/>
       <use xlink:href="#DejaVuSans-34" x="95.410156"/>
      </g>
     </g>
    </g>
    <g id="ytick_4">
     <g id="line2d_10">
      <g>
       <use xlink:href="#m071fdaf256" x="47.765" y="260.8648" style="stroke: #000000; stroke-width: 0.8"/>
      </g>
     </g>
     <g id="text_11">
      <!-- 0.6 -->
      <g transform="translate(24.861875 264.664019) scale(0.1 -0.1)">
       <use xlink:href="#DejaVuSans-30"/>
       <use xlink:href="#DejaVuSans-2e" x="63.623047"/>
       <use xlink:href="#DejaVuSans-36" x="95.410156"/>
      </g>
     </g>
    </g>
    <g id="ytick_5">
     <g id="line2d_11">
      <g>
       <use xlink:href="#m071fdaf256" x="47.765" y="145.8064" style="stroke: #000000; stroke-width: 0.8"/>
      </g>
     </g>
     <g id="text_12">
      <!-- 0.8 -->
      <g transform="translate(24.861875 149.605619) scale(0.1 -0.1)">
       <use xlink:href="#DejaVuSans-30"/>
       <use xlink:href="#DejaVuSans-2e" x="63.623047"/>
       <use xlink:href="#DejaVuSans-38" x="95.410156"/>
      </g>
     </g>
    </g>
    <g id="ytick_6">
     <g id="line2d_12">
      <g>
       <use xlink:href="#m071fdaf256" x="47.765" y="30.748" style="stroke: #000000; stroke-width: 0.8"/>
      </g>
     </g>
     <g id="text_13">
      <!-- 1.0 -->
      <g transform="translate(24.861875 34.547219) scale(0.1 -0.1)">
       <defs>
        <path id="DejaVuSans-31" d="M 794 531 
L 1825 531 
L 1825 4091 
L 703 3866 
L 703 4441 
L 1819 4666 
L 2450 4666 
L 2450 531 
L 3481 531 
L 3481 0 
L 794 0 
L 794 531 
z
" transform="scale(0.015625)"/>
       </defs>
       <use xlink:href="#DejaVuSans-31"/>
       <use xlink:href="#DejaVuSans-2e" x="63.623047"/>
       <use xlink:href="#DejaVuSans-30" x="95.410156"/>
      </g>
     </g>
    </g>
    <g id="text_14">
     <!-- Aggregated NMF remaining preys  -->
     <g transform="translate(18.782187 403.919781) rotate(-90) scale(0.1 -0.1)">
      <defs>
       <path id="DejaVuSans-41" d="M 2188 4044 
L 1331 1722 
L 3047 1722 
L 2188 4044 
z
M 1831 4666 
L 2547 4666 
L 4325 0 
L 3669 0 
L 3244 1197 
L 1141 1197 
L 716 0 
L 50 0 
L 1831 4666 
z
" transform="scale(0.015625)"/>
       <path id="DejaVuSans-67" d="M 2906 1791 
Q 2906 2416 2648 2759 
Q 2391 3103 1925 3103 
Q 1463 3103 1205 2759 
Q 947 2416 947 1791 
Q 947 1169 1205 825 
Q 1463 481 1925 481 
Q 2391 481 2648 825 
Q 2906 1169 2906 1791 
z
M 3481 434 
Q 3481 -459 3084 -895 
Q 2688 -1331 1869 -1331 
Q 1566 -1331 1297 -1286 
Q 1028 -1241 775 -1147 
L 775 -588 
Q 1028 -725 1275 -790 
Q 1522 -856 1778 -856 
Q 2344 -856 2625 -561 
Q 2906 -266 2906 331 
L 2906 616 
Q 2728 306 2450 153 
Q 2172 0 1784 0 
Q 1141 0 747 490 
Q 353 981 353 1791 
Q 353 2603 747 3093 
Q 1141 3584 1784 3584 
Q 2172 3584 2450 3431 
Q 2728 3278 2906 2969 
L 2906 3500 
L 3481 3500 
L 3481 434 
z
" transform="scale(0.015625)"/>
       <path id="DejaVuSans-64" d="M 2906 2969 
L 2906 4863 
L 3481 4863 
L 3481 0 
L 2906 0 
L 2906 525 
Q 2725 213 2448 61 
Q 2172 -91 1784 -91 
Q 1150 -91 751 415 
Q 353 922 353 1747 
Q 353 2572 751 3078 
Q 1150 3584 1784 3584 
Q 2172 3584 2448 3432 
Q 2725 3281 2906 2969 
z
M 947 1747 
Q 947 1113 1208 752 
Q 1469 391 1925 391 
Q 2381 391 2643 752 
Q 2906 1113 2906 1747 
Q 2906 2381 2643 2742 
Q 2381 3103 1925 3103 
Q 1469 3103 1208 2742 
Q 947 2381 947 1747 
z
" transform="scale(0.015625)"/>
       <path id="DejaVuSans-4d" d="M 628 4666 
L 1569 4666 
L 2759 1491 
L 3956 4666 
L 4897 4666 
L 4897 0 
L 4281 0 
L 4281 4097 
L 3078 897 
L 2444 897 
L 1241 4097 
L 1241 0 
L 628 0 
L 628 4666 
z
" transform="scale(0.015625)"/>
       <path id="DejaVuSans-46" d="M 628 4666 
L 3309 4666 
L 3309 4134 
L 1259 4134 
L 1259 2759 
L 3109 2759 
L 3109 2228 
L 1259 2228 
L 1259 0 
L 628 0 
L 628 4666 
z
" transform="scale(0.015625)"/>
       <path id="DejaVuSans-6e" d="M 3513 2113 
L 3513 0 
L 2938 0 
L 2938 2094 
Q 2938 2591 2744 2837 
Q 2550 3084 2163 3084 
Q 1697 3084 1428 2787 
Q 1159 2491 1159 1978 
L 1159 0 
L 581 0 
L 581 3500 
L 1159 3500 
L 1159 2956 
Q 1366 3272 1645 3428 
Q 1925 3584 2291 3584 
Q 2894 3584 3203 3211 
Q 3513 2838 3513 2113 
z
" transform="scale(0.015625)"/>
       <path id="DejaVuSans-70" d="M 1159 525 
L 1159 -1331 
L 581 -1331 
L 581 3500 
L 1159 3500 
L 1159 2969 
Q 1341 3281 1617 3432 
Q 1894 3584 2278 3584 
Q 2916 3584 3314 3078 
Q 3713 2572 3713 1747 
Q 3713 922 3314 415 
Q 2916 -91 2278 -91 
Q 1894 -91 1617 61 
Q 1341 213 1159 525 
z
M 3116 1747 
Q 3116 2381 2855 2742 
Q 2594 3103 2138 3103 
Q 1681 3103 1420 2742 
Q 1159 2381 1159 1747 
Q 1159 1113 1420 752 
Q 1681 391 2138 391 
Q 2594 391 2855 752 
Q 3116 1113 3116 1747 
z
" transform="scale(0.015625)"/>
       <path id="DejaVuSans-79" d="M 2059 -325 
Q 1816 -950 1584 -1140 
Q 1353 -1331 966 -1331 
L 506 -1331 
L 506 -850 
L 844 -850 
Q 1081 -850 1212 -737 
Q 1344 -625 1503 -206 
L 1606 56 
L 191 3500 
L 800 3500 
L 1894 763 
L 2988 3500 
L 3597 3500 
L 2059 -325 
z
" transform="scale(0.015625)"/>
      </defs>
      <use xlink:href="#DejaVuSans-41"/>
      <use xlink:href="#DejaVuSans-67" x="68.408203"/>
      <use xlink:href="#DejaVuSans-67" x="131.884766"/>
      <use xlink:href="#DejaVuSans-72" x="195.361328"/>
      <use xlink:href="#DejaVuSans-65" x="234.224609"/>
      <use xlink:href="#DejaVuSans-67" x="295.748047"/>
      <use xlink:href="#DejaVuSans-61" x="359.224609"/>
      <use xlink:href="#DejaVuSans-74" x="420.503906"/>
      <use xlink:href="#DejaVuSans-65" x="459.712891"/>
      <use xlink:href="#DejaVuSans-64" x="521.236328"/>
      <use xlink:href="#DejaVuSans-20" x="584.712891"/>
      <use xlink:href="#DejaVuSans-4e" x="616.5"/>
      <use xlink:href="#DejaVuSans-4d" x="691.304688"/>
      <use xlink:href="#DejaVuSans-46" x="777.583984"/>
      <use xlink:href="#DejaVuSans-20" x="835.103516"/>
      <use xlink:href="#DejaVuSans-72" x="866.890625"/>
      <use xlink:href="#DejaVuSans-65" x="905.753906"/>
      <use xlink:href="#DejaVuSans-6d" x="967.277344"/>
      <use xlink:href="#DejaVuSans-61" x="1064.689453"/>
      <use xlink:href="#DejaVuSans-69" x="1125.96875"/>
      <use xlink:href="#DejaVuSans-6e" x="1153.751953"/>
      <use xlink:href="#DejaVuSans-69" x="1217.130859"/>
      <use xlink:href="#DejaVuSans-6e" x="1244.914062"/>
      <use xlink:href="#DejaVuSans-67" x="1308.292969"/>
      <use xlink:href="#DejaVuSans-20" x="1371.769531"/>
      <use xlink:href="#DejaVuSans-70" x="1403.556641"/>
      <use xlink:href="#DejaVuSans-72" x="1467.033203"/>
      <use xlink:href="#DejaVuSans-65" x="1505.896484"/>
      <use xlink:href="#DejaVuSans-79" x="1567.419922"/>
      <use xlink:href="#DejaVuSans-73" x="1626.599609"/>
      <use xlink:href="#DejaVuSans-20" x="1678.699219"/>
     </g>
    </g>
   </g>
   <g id="line2d_13">
    <path d="M 47.765 156.27701 
L 65.4711 153.910771 
L 83.1772 149.799429 
L 100.8833 149.148713 
L 118.5894 145.688088 
L 136.2955 142.049995 
L 154.0016 139.240085 
L 171.7077 136.6668 
L 189.4138 132.762504 
L 207.1199 133.975202 
L 224.826 128.296227 
L 242.5321 128.237071 
L 260.2382 122.94261 
L 277.9443 120.191856 
L 295.6504 118.535489 
L 313.3565 114.808661 
L 331.0626 112.057908 
L 348.7687 109.780402 
L 366.4748 106.290199 
L 384.1809 104.722565 
L 401.887 103.184509 
L 419.5931 100.67038 
L 437.2992 98.333718 
L 455.0053 96.470305 
L 472.7114 93.660395 
L 490.4175 93.098413 
L 508.1236 91.323733 
L 525.8297 88.750448 
L 543.5358 88.72087 
L 561.2419 87.005346 
L 578.948 84.639107 
L 596.6541 83.870079 
L 614.3602 82.805271 
L 632.0663 80.498187 
L 649.7724 80.350297 
L 667.4785 79.877049 
L 685.1846 78.54604 
L 702.8907 75.14457 
L 720.5968 75.322038 
L 738.3029 72.748753 
L 756.009 73.281157 
L 773.7151 70.914917 
L 791.4212 69.583907 
L 809.1273 67.750072 
L 826.8334 67.158512 
L 844.5395 65.590878 
L 862.2456 64.466914 
L 879.9517 63.757042 
L 897.6578 62.485188 
L 915.3639 62.307721 
L 933.07 61.183757 
" clip-path="url(#p1aa2480f1e)" style="fill: none; stroke: #1f77b4; stroke-width: 1.5; stroke-linecap: square"/>
   </g>
   <g id="line2d_14">
    <path d="M 47.765 351.846712 
L 65.4711 334.543585 
L 83.1772 335.815439 
L 100.8833 315.613668 
L 118.5894 335.726705 
L 136.2955 313.188273 
L 154.0016 318.305266 
L 171.7077 308.278326 
L 189.4138 294.731604 
L 207.1199 295.707678 
L 224.826 307.686766 
L 242.5321 292.690722 
L 260.2382 261.545094 
L 277.9443 278.700331 
L 295.6504 264.857829 
L 313.3565 272.607264 
L 331.0626 265.952215 
L 348.7687 259.356322 
L 366.4748 250.601236 
L 384.1809 258.912652 
L 401.887 234.510807 
L 419.5931 232.558659 
L 437.2992 195.674899 
L 455.0053 262.136654 
L 472.7114 226.376858 
L 490.4175 223.152857 
L 508.1236 234.688275 
L 525.8297 217.710506 
L 543.5358 225.726142 
L 561.2419 200.703158 
L 578.948 194.077688 
L 596.6541 209.813181 
L 614.3602 204.459564 
L 632.0663 184.021169 
L 649.7724 180.146452 
L 667.4785 206.027198 
L 685.1846 193.75233 
L 702.8907 201.738388 
L 720.5968 179.821094 
L 738.3029 167.072978 
L 756.009 167.960318 
L 773.7151 202.59615 
L 791.4212 173.195623 
L 809.1273 170.0012 
L 826.8334 176.863295 
L 844.5395 165.801125 
L 862.2456 145.421886 
L 879.9517 170.385714 
L 897.6578 156.217854 
L 915.3639 126.876483 
L 933.07 142.966912 
" clip-path="url(#p1aa2480f1e)" style="fill: none; stroke: #ff7f0e; stroke-width: 1.5; stroke-linecap: square"/>
   </g>
   <g id="line2d_15">
    <path d="M 47.765 137.051314 
L 65.4711 133.620266 
L 83.1772 130.810357 
L 100.8833 127.704667 
L 118.5894 124.983492 
L 136.2955 122.64683 
L 154.0016 119.481985 
L 171.7077 116.376295 
L 189.4138 114.394569 
L 207.1199 112.057908 
L 224.826 109.07053 
L 242.5321 107.000071 
L 260.2382 105.432437 
L 277.9443 103.598601 
L 295.6504 101.8535 
L 313.3565 100.019664 
L 331.0626 98.244984 
L 348.7687 97.032286 
L 366.4748 95.671699 
L 384.1809 93.749129 
L 401.887 92.891367 
L 419.5931 90.19977 
L 437.2992 88.42509 
L 455.0053 86.679988 
L 472.7114 85.230667 
L 490.4175 83.929235 
L 508.1236 82.124977 
L 525.8297 80.202407 
L 543.5358 79.019288 
L 561.2419 78.161526 
L 578.948 76.061488 
L 596.6541 74.937524 
L 614.3602 73.517781 
L 632.0663 71.654367 
L 649.7724 70.500825 
L 667.4785 69.524751 
L 685.1846 68.903613 
L 702.8907 68.016274 
L 720.5968 66.537374 
L 738.3029 65.176786 
L 756.009 63.78662 
L 773.7151 62.692234 
L 791.4212 61.568271 
L 809.1273 60.562619 
L 826.8334 59.556967 
L 844.5395 58.787939 
L 862.2456 57.959755 
L 879.9517 57.101993 
L 897.6578 56.096342 
L 915.3639 55.179424 
L 933.07 54.49913 
" clip-path="url(#p1aa2480f1e)" style="fill: none; stroke: #2ca02c; stroke-width: 1.5; stroke-linecap: square"/>
   </g>
   <g id="line2d_16">
    <path d="M 47.765 141.842949 
L 65.4711 138.204855 
L 83.1772 134.241404 
L 100.8833 131.401917 
L 118.5894 129.834283 
L 136.2955 127.734245 
L 154.0016 126.432813 
L 171.7077 124.598978 
L 189.4138 123.68206 
L 207.1199 120.87215 
L 224.826 119.718609 
L 242.5321 118.239709 
L 260.2382 116.435451 
L 277.9443 114.010056 
L 295.6504 112.560734 
L 313.3565 111.318458 
L 331.0626 109.395888 
L 348.7687 107.709943 
L 366.4748 106.378933 
L 384.1809 104.101427 
L 401.887 103.007041 
L 419.5931 101.616876 
L 437.2992 99.63515 
L 455.0053 97.209754 
L 472.7114 95.346341 
L 490.4175 94.044909 
L 508.1236 91.885715 
L 525.8297 90.584284 
L 543.5358 87.774374 
L 561.2419 86.620832 
L 578.948 85.556024 
L 596.6541 84.461639 
L 614.3602 82.864427 
L 632.0663 81.030591 
L 649.7724 79.699581 
L 667.4785 78.516462 
L 685.1846 77.422076 
L 702.8907 76.238956 
L 720.5968 74.434698 
L 738.3029 72.896643 
L 756.009 71.506477 
L 773.7151 69.909265 
L 791.4212 68.785301 
L 809.1273 67.572604 
L 826.8334 67.010622 
L 844.5395 66.034548 
L 862.2456 64.82185 
L 879.9517 63.993666 
L 897.6578 62.426032 
L 915.3639 60.799243 
L 933.07 59.793591 
" clip-path="url(#p1aa2480f1e)" style="fill: none; stroke: #d62728; stroke-width: 1.5; stroke-linecap: square"/>
   </g>
   <g id="line2d_17">
    <path d="M 47.765 158.140424 
L 65.4711 156.809414 
L 83.1772 155.153046 
L 100.8833 154.088239 
L 118.5894 152.136091 
L 136.2955 151.337485 
L 154.0016 148.823355 
L 171.7077 146.338804 
L 189.4138 144.859904 
L 207.1199 142.671133 
L 224.826 140.778141 
L 242.5321 138.411901 
L 260.2382 136.400598 
L 277.9443 134.773808 
L 295.6504 132.466724 
L 313.3565 129.479347 
L 331.0626 127.497621 
L 348.7687 126.255345 
L 366.4748 124.480666 
L 384.1809 121.522866 
L 401.887 118.712957 
L 419.5931 116.553763 
L 437.2992 115.252331 
L 455.0053 113.122716 
L 472.7114 112.442422 
L 490.4175 111.081834 
L 508.1236 108.538126 
L 525.8297 106.260621 
L 543.5358 104.367629 
L 561.2419 102.208436 
L 578.948 99.93093 
L 596.6541 99.161902 
L 614.3602 97.978782 
L 632.0663 96.026635 
L 649.7724 93.453349 
L 667.4785 91.442045 
L 685.1846 89.726522 
L 702.8907 88.42509 
L 720.5968 86.472942 
L 738.3029 84.786997 
L 756.009 83.308097 
L 773.7151 82.272867 
L 791.4212 80.675655 
L 809.1273 79.078444 
L 826.8334 78.072792 
L 844.5395 76.77136 
L 862.2456 75.29246 
L 879.9517 73.754405 
L 897.6578 72.127615 
L 915.3639 71.181119 
L 933.07 70.234623 
" clip-path="url(#p1aa2480f1e)" style="fill: none; stroke: #9467bd; stroke-width: 1.5; stroke-linecap: square"/>
   </g>
   <g id="line2d_18">
    <path d="M 47.765 128.710319 
L 65.4711 125.929987 
L 83.1772 123.475014 
L 100.8833 119.215783 
L 118.5894 116.435451 
L 136.2955 114.187523 
L 154.0016 110.933944 
L 171.7077 109.277576 
L 189.4138 106.556401 
L 207.1199 103.391555 
L 224.826 101.26194 
L 242.5321 98.422452 
L 260.2382 96.056213 
L 277.9443 92.980101 
L 295.6504 91.08711 
L 313.3565 88.839182 
L 331.0626 87.034924 
L 348.7687 85.141933 
L 366.4748 82.894005 
L 384.1809 80.113673 
L 401.887 78.486884 
L 419.5931 76.505158 
L 437.2992 75.203726 
L 455.0053 73.547359 
L 472.7114 71.595211 
L 490.4175 69.790953 
L 508.1236 68.459943 
L 525.8297 66.44864 
L 543.5358 65.235942 
L 561.2419 63.78662 
L 578.948 62.218987 
L 596.6541 60.769665 
L 614.3602 59.054141 
L 632.0663 57.752709 
L 649.7724 56.303388 
L 667.4785 55.209002 
L 685.1846 53.848414 
L 702.8907 52.546982 
L 720.5968 51.482174 
L 738.3029 50.387789 
L 756.009 49.352559 
L 773.7151 48.346907 
L 791.4212 47.607457 
L 809.1273 46.453915 
L 826.8334 45.803199 
L 844.5395 45.211639 
L 862.2456 44.590502 
L 879.9517 43.998942 
L 897.6578 43.082024 
L 915.3639 42.224262 
L 933.07 41.455234 
" clip-path="url(#p1aa2480f1e)" style="fill: none; stroke: #8c564b; stroke-width: 1.5; stroke-linecap: square"/>
   </g>
   <g id="line2d_19">
    <path d="M 47.765 124.628556 
L 65.4711 120.635526 
L 83.1772 118.032663 
L 100.8833 114.838239 
L 118.5894 111.73255 
L 136.2955 108.833906 
L 154.0016 106.319777 
L 171.7077 103.214087 
L 189.4138 101.26194 
L 207.1199 99.04359 
L 224.826 96.677351 
L 242.5321 94.429423 
L 260.2382 92.151917 
L 277.9443 90.19977 
L 295.6504 87.715218 
L 313.3565 85.319401 
L 331.0626 83.278519 
L 348.7687 81.355949 
L 366.4748 79.28549 
L 384.1809 77.747434 
L 401.887 75.73613 
L 419.5931 74.198074 
L 437.2992 72.364239 
L 455.0053 70.707871 
L 472.7114 69.021925 
L 490.4175 67.010622 
L 508.1236 65.088052 
L 525.8297 63.283794 
L 543.5358 62.041519 
L 561.2419 60.858399 
L 578.948 58.640049 
L 596.6541 57.161149 
L 614.3602 55.623094 
L 632.0663 53.700524 
L 649.7724 52.694872 
L 667.4785 51.156816 
L 685.1846 49.766651 
L 702.8907 48.613109 
L 720.5968 47.577879 
L 738.3029 46.749695 
L 756.009 45.862355 
L 773.7151 44.975016 
L 791.4212 44.383456 
L 809.1273 43.58485 
L 826.8334 43.082024 
L 844.5395 42.520042 
L 862.2456 42.135528 
L 879.9517 41.425656 
L 897.6578 40.715784 
L 915.3639 40.301692 
L 933.07 39.650976 
" clip-path="url(#p1aa2480f1e)" style="fill: none; stroke: #e377c2; stroke-width: 1.5; stroke-linecap: square"/>
   </g>
   <g id="line2d_20">
    <path d="M 47.765 123.859528 
L 65.4711 120.605948 
L 83.1772 117.943929 
L 100.8833 115.193175 
L 118.5894 113.004404 
L 136.2955 110.194494 
L 154.0016 107.562053 
L 171.7077 104.959189 
L 189.4138 102.947885 
L 207.1199 99.960508 
L 224.826 98.126672 
L 242.5321 95.760433 
L 260.2382 93.571661 
L 277.9443 91.175843 
L 295.6504 89.342008 
L 313.3565 87.478594 
L 331.0626 85.141933 
L 348.7687 82.953161 
L 366.4748 80.024939 
L 384.1809 77.895324 
L 401.887 75.322038 
L 419.5931 74.020606 
L 437.2992 72.216349 
L 455.0053 70.855761 
L 472.7114 68.666989 
L 490.4175 66.862732 
L 508.1236 65.26552 
L 525.8297 63.19506 
L 543.5358 61.627427 
L 561.2419 60.207683 
L 578.948 58.847095 
L 596.6541 57.249883 
L 614.3602 55.800562 
L 632.0663 54.439974 
L 649.7724 53.404744 
L 667.4785 52.517404 
L 685.1846 51.570908 
L 702.8907 50.358211 
L 720.5968 49.559605 
L 738.3029 48.553953 
L 756.009 48.080705 
L 773.7151 47.075053 
L 791.4212 46.217291 
L 809.1273 45.655309 
L 826.8334 44.76797 
L 844.5395 43.821474 
L 862.2456 43.022868 
L 879.9517 42.165106 
L 897.6578 41.543968 
L 915.3639 40.92283 
L 933.07 40.272114 
" clip-path="url(#p1aa2480f1e)" style="fill: none; stroke: #7f7f7f; stroke-width: 1.5; stroke-linecap: square"/>
   </g>
   <g id="line2d_21">
    <path d="M 47.765 124.806024 
L 65.4711 122.558096 
L 83.1772 119.215783 
L 100.8833 115.725579 
L 118.5894 112.264954 
L 136.2955 109.336732 
L 154.0016 106.497245 
L 171.7077 104.397207 
L 189.4138 101.912656 
L 207.1199 98.8957 
L 224.826 96.144947 
L 242.5321 93.423771 
L 260.2382 90.93922 
L 277.9443 89.223696 
L 295.6504 85.970116 
L 313.3565 83.988391 
L 331.0626 81.681307 
L 348.7687 79.640426 
L 366.4748 77.984058 
L 384.1809 75.73613 
L 401.887 74.138918 
L 419.5931 72.837487 
L 437.2992 70.559981 
L 455.0053 69.021925 
L 472.7114 67.48387 
L 490.4175 66.478218 
L 508.1236 65.088052 
L 525.8297 63.816198 
L 543.5358 62.810546 
L 561.2419 61.420381 
L 578.948 60.266839 
L 596.6541 59.054141 
L 614.3602 57.930177 
L 632.0663 57.131571 
L 649.7724 56.037186 
L 667.4785 54.972378 
L 685.1846 54.085038 
L 702.8907 52.901918 
L 720.5968 51.866688 
L 738.3029 50.801881 
L 756.009 50.092009 
L 773.7151 49.056779 
L 791.4212 48.376485 
L 809.1273 47.370833 
L 826.8334 47.045475 
L 844.5395 46.513071 
L 862.2456 45.832777 
L 879.9517 45.329951 
L 897.6578 44.3243 
L 915.3639 43.644006 
L 933.07 43.28907 
" clip-path="url(#p1aa2480f1e)" style="fill: none; stroke: #bcbd22; stroke-width: 1.5; stroke-linecap: square"/>
   </g>
   <g id="line2d_22">
    <path d="M 47.765 127.172263 
L 65.4711 123.149656 
L 83.1772 119.777765 
L 100.8833 116.642497 
L 118.5894 113.152294 
L 136.2955 110.164916 
L 154.0016 107.059227 
L 171.7077 104.456363 
L 189.4138 100.936582 
L 207.1199 98.067516 
L 224.826 95.523809 
L 242.5321 93.305459 
L 260.2382 91.175843 
L 277.9443 88.306778 
L 295.6504 86.147584 
L 313.3565 84.077125 
L 331.0626 82.332023 
L 348.7687 80.202407 
L 366.4748 78.191104 
L 384.1809 76.150222 
L 401.887 74.316386 
L 419.5931 72.452973 
L 437.2992 70.974073 
L 455.0053 69.199393 
L 472.7114 67.33598 
L 490.4175 65.620456 
L 508.1236 64.0824 
L 525.8297 62.75139 
L 543.5358 61.095023 
L 561.2419 59.645701 
L 578.948 58.078067 
L 596.6541 56.924525 
L 614.3602 55.563938 
L 632.0663 54.706176 
L 649.7724 53.61179 
L 667.4785 52.57656 
L 685.1846 51.630064 
L 702.8907 50.772303 
L 720.5968 49.914541 
L 738.3029 49.322981 
L 756.009 48.553953 
L 773.7151 47.962393 
L 791.4212 47.075053 
L 809.1273 46.306025 
L 826.8334 45.448263 
L 844.5395 44.531346 
L 862.2456 43.969364 
L 879.9517 43.496116 
L 897.6578 42.963712 
L 915.3639 42.25384 
L 933.07 41.484812 
" clip-path="url(#p1aa2480f1e)" style="fill: none; stroke: #17becf; stroke-width: 1.5; stroke-linecap: square"/>
   </g>
   <g id="line2d_23">
    <path d="M 47.765 165.505345 
L 65.4711 160.861599 
L 83.1772 155.212202 
L 100.8833 150.893815 
L 118.5894 146.782474 
L 136.2955 140.393627 
L 154.0016 136.696378 
L 171.7077 132.200522 
L 189.4138 127.468043 
L 207.1199 122.853876 
L 224.826 120.162278 
L 242.5321 114.719927 
L 260.2382 111.673394 
L 277.9443 107.177539 
L 295.6504 103.598601 
L 313.3565 101.587298 
L 331.0626 98.866122 
L 348.7687 96.085791 
L 366.4748 93.187147 
L 384.1809 90.377238 
L 401.887 88.513824 
L 419.5931 86.177162 
L 437.2992 83.515143 
L 455.0053 81.592573 
L 472.7114 79.522114 
L 490.4175 78.25026 
L 508.1236 76.564314 
L 525.8297 73.488203 
L 543.5358 72.157193 
L 561.2419 70.205045 
L 578.948 68.666989 
L 596.6541 66.833154 
L 614.3602 65.5613 
L 632.0663 64.289446 
L 649.7724 63.431684 
L 667.4785 62.485188 
L 685.1846 61.154179 
L 702.8907 60.059793 
L 720.5968 59.113297 
L 738.3029 57.900599 
L 756.009 56.776635 
L 773.7151 55.623094 
L 791.4212 54.469552 
L 809.1273 52.87234 
L 826.8334 51.777954 
L 844.5395 50.890614 
L 862.2456 49.618761 
L 879.9517 48.642687 
L 897.6578 47.903237 
L 915.3639 46.927163 
L 933.07 46.424337 
" clip-path="url(#p1aa2480f1e)" style="fill: none; stroke: #9edae5; stroke-width: 1.5; stroke-linecap: square"/>
   </g>
   <g id="patch_3">
    <path d="M 47.765 606.04 
L 47.765 30.748 
" style="fill: none; stroke: #000000; stroke-width: 0.8; stroke-linejoin: miter; stroke-linecap: square"/>
   </g>
   <g id="patch_4">
    <path d="M 933.07 606.04 
L 933.07 30.748 
" style="fill: none; stroke: #000000; stroke-width: 0.8; stroke-linejoin: miter; stroke-linecap: square"/>
   </g>
   <g id="patch_5">
    <path d="M 47.765 606.04 
L 933.07 606.04 
" style="fill: none; stroke: #000000; stroke-width: 0.8; stroke-linejoin: miter; stroke-linecap: square"/>
   </g>
   <g id="patch_6">
    <path d="M 47.765 30.748 
L 933.07 30.748 
" style="fill: none; stroke: #000000; stroke-width: 0.8; stroke-linejoin: miter; stroke-linecap: square"/>
   </g>
   <g id="text_15">
    <!-- Aggregated NMF remaining preys by Number of Baits for Each Method -->
    <g transform="translate(278.836875 24.748) scale(0.12 -0.12)">
     <defs>
      <path id="DejaVuSans-45" d="M 628 4666 
L 3578 4666 
L 3578 4134 
L 1259 4134 
L 1259 2753 
L 3481 2753 
L 3481 2222 
L 1259 2222 
L 1259 531 
L 3634 531 
L 3634 0 
L 628 0 
L 628 4666 
z
" transform="scale(0.015625)"/>
      <path id="DejaVuSans-63" d="M 3122 3366 
L 3122 2828 
Q 2878 2963 2633 3030 
Q 2388 3097 2138 3097 
Q 1578 3097 1268 2742 
Q 959 2388 959 1747 
Q 959 1106 1268 751 
Q 1578 397 2138 397 
Q 2388 397 2633 464 
Q 2878 531 3122 666 
L 3122 134 
Q 2881 22 2623 -34 
Q 2366 -91 2075 -91 
Q 1284 -91 818 406 
Q 353 903 353 1747 
Q 353 2603 823 3093 
Q 1294 3584 2113 3584 
Q 2378 3584 2631 3529 
Q 2884 3475 3122 3366 
z
" transform="scale(0.015625)"/>
      <path id="DejaVuSans-68" d="M 3513 2113 
L 3513 0 
L 2938 0 
L 2938 2094 
Q 2938 2591 2744 2837 
Q 2550 3084 2163 3084 
Q 1697 3084 1428 2787 
Q 1159 2491 1159 1978 
L 1159 0 
L 581 0 
L 581 4863 
L 1159 4863 
L 1159 2956 
Q 1366 3272 1645 3428 
Q 1925 3584 2291 3584 
Q 2894 3584 3203 3211 
Q 3513 2838 3513 2113 
z
" transform="scale(0.015625)"/>
     </defs>
     <use xlink:href="#DejaVuSans-41"/>
     <use xlink:href="#DejaVuSans-67" x="68.408203"/>
     <use xlink:href="#DejaVuSans-67" x="131.884766"/>
     <use xlink:href="#DejaVuSans-72" x="195.361328"/>
     <use xlink:href="#DejaVuSans-65" x="234.224609"/>
     <use xlink:href="#DejaVuSans-67" x="295.748047"/>
     <use xlink:href="#DejaVuSans-61" x="359.224609"/>
     <use xlink:href="#DejaVuSans-74" x="420.503906"/>
     <use xlink:href="#DejaVuSans-65" x="459.712891"/>
     <use xlink:href="#DejaVuSans-64" x="521.236328"/>
     <use xlink:href="#DejaVuSans-20" x="584.712891"/>
     <use xlink:href="#DejaVuSans-4e" x="616.5"/>
     <use xlink:href="#DejaVuSans-4d" x="691.304688"/>
     <use xlink:href="#DejaVuSans-46" x="777.583984"/>
     <use xlink:href="#DejaVuSans-20" x="835.103516"/>
     <use xlink:href="#DejaVuSans-72" x="866.890625"/>
     <use xlink:href="#DejaVuSans-65" x="905.753906"/>
     <use xlink:href="#DejaVuSans-6d" x="967.277344"/>
     <use xlink:href="#DejaVuSans-61" x="1064.689453"/>
     <use xlink:href="#DejaVuSans-69" x="1125.96875"/>
     <use xlink:href="#DejaVuSans-6e" x="1153.751953"/>
     <use xlink:href="#DejaVuSans-69" x="1217.130859"/>
     <use xlink:href="#DejaVuSans-6e" x="1244.914062"/>
     <use xlink:href="#DejaVuSans-67" x="1308.292969"/>
     <use xlink:href="#DejaVuSans-20" x="1371.769531"/>
     <use xlink:href="#DejaVuSans-70" x="1403.556641"/>
     <use xlink:href="#DejaVuSans-72" x="1467.033203"/>
     <use xlink:href="#DejaVuSans-65" x="1505.896484"/>
     <use xlink:href="#DejaVuSans-79" x="1567.419922"/>
     <use xlink:href="#DejaVuSans-73" x="1626.599609"/>
     <use xlink:href="#DejaVuSans-20" x="1678.699219"/>
     <use xlink:href="#DejaVuSans-62" x="1710.486328"/>
     <use xlink:href="#DejaVuSans-79" x="1773.962891"/>
     <use xlink:href="#DejaVuSans-20" x="1833.142578"/>
     <use xlink:href="#DejaVuSans-4e" x="1864.929688"/>
     <use xlink:href="#DejaVuSans-75" x="1939.734375"/>
     <use xlink:href="#DejaVuSans-6d" x="2003.113281"/>
     <use xlink:href="#DejaVuSans-62" x="2100.525391"/>
     <use xlink:href="#DejaVuSans-65" x="2164.001953"/>
     <use xlink:href="#DejaVuSans-72" x="2225.525391"/>
     <use xlink:href="#DejaVuSans-20" x="2266.638672"/>
     <use xlink:href="#DejaVuSans-6f" x="2298.425781"/>
     <use xlink:href="#DejaVuSans-66" x="2359.607422"/>
     <use xlink:href="#DejaVuSans-20" x="2394.8125"/>
     <use xlink:href="#DejaVuSans-42" x="2426.599609"/>
     <use xlink:href="#DejaVuSans-61" x="2495.203125"/>
     <use xlink:href="#DejaVuSans-69" x="2556.482422"/>
     <use xlink:href="#DejaVuSans-74" x="2584.265625"/>
     <use xlink:href="#DejaVuSans-73" x="2623.474609"/>
     <use xlink:href="#DejaVuSans-20" x="2675.574219"/>
     <use xlink:href="#DejaVuSans-66" x="2707.361328"/>
     <use xlink:href="#DejaVuSans-6f" x="2742.566406"/>
     <use xlink:href="#DejaVuSans-72" x="2803.748047"/>
     <use xlink:href="#DejaVuSans-20" x="2844.861328"/>
     <use xlink:href="#DejaVuSans-45" x="2876.648438"/>
     <use xlink:href="#DejaVuSans-61" x="2939.832031"/>
     <use xlink:href="#DejaVuSans-63" x="3001.111328"/>
     <use xlink:href="#DejaVuSans-68" x="3056.091797"/>
     <use xlink:href="#DejaVuSans-20" x="3119.470703"/>
     <use xlink:href="#DejaVuSans-4d" x="3151.257812"/>
     <use xlink:href="#DejaVuSans-65" x="3237.537109"/>
     <use xlink:href="#DejaVuSans-74" x="3299.060547"/>
     <use xlink:href="#DejaVuSans-68" x="3338.269531"/>
     <use xlink:href="#DejaVuSans-6f" x="3401.648438"/>
     <use xlink:href="#DejaVuSans-64" x="3462.830078"/>
    </g>
   </g>
   <g id="legend_1">
    <g id="patch_7">
     <path d="M 940.07 172.555275 
L 1067.18875 172.555275 
Q 1069.18875 172.555275 1069.18875 170.555275 
L 1069.18875 8.9834 
Q 1069.18875 6.9834 1067.18875 6.9834 
L 940.07 6.9834 
Q 938.07 6.9834 938.07 8.9834 
L 938.07 170.555275 
Q 938.07 172.555275 940.07 172.555275 
z
" style="fill: #ffffff; opacity: 0.8; stroke: #cccccc; stroke-linejoin: miter"/>
    </g>
    <g id="line2d_24">
     <path d="M 942.07 15.081838 
L 952.07 15.081838 
L 962.07 15.081838 
" style="fill: none; stroke: #1f77b4; stroke-width: 1.5; stroke-linecap: square"/>
    </g>
    <g id="text_16">
     <!-- GA -->
     <g transform="translate(970.07 18.581838) scale(0.1 -0.1)">
      <defs>
       <path id="DejaVuSans-47" d="M 3809 666 
L 3809 1919 
L 2778 1919 
L 2778 2438 
L 4434 2438 
L 4434 434 
Q 4069 175 3628 42 
Q 3188 -91 2688 -91 
Q 1594 -91 976 548 
Q 359 1188 359 2328 
Q 359 3472 976 4111 
Q 1594 4750 2688 4750 
Q 3144 4750 3555 4637 
Q 3966 4525 4313 4306 
L 4313 3634 
Q 3963 3931 3569 4081 
Q 3175 4231 2741 4231 
Q 1884 4231 1454 3753 
Q 1025 3275 1025 2328 
Q 1025 1384 1454 906 
Q 1884 428 2741 428 
Q 3075 428 3337 486 
Q 3600 544 3809 666 
z
" transform="scale(0.015625)"/>
      </defs>
      <use xlink:href="#DejaVuSans-47"/>
      <use xlink:href="#DejaVuSans-41" x="77.490234"/>
     </g>
    </g>
    <g id="line2d_25">
     <path d="M 942.07 29.759963 
L 952.07 29.759963 
L 962.07 29.759963 
" style="fill: none; stroke: #ff7f0e; stroke-width: 1.5; stroke-linecap: square"/>
    </g>
    <g id="text_17">
     <!-- Random -->
     <g transform="translate(970.07 33.259963) scale(0.1 -0.1)">
      <defs>
       <path id="DejaVuSans-52" d="M 2841 2188 
Q 3044 2119 3236 1894 
Q 3428 1669 3622 1275 
L 4263 0 
L 3584 0 
L 2988 1197 
Q 2756 1666 2539 1819 
Q 2322 1972 1947 1972 
L 1259 1972 
L 1259 0 
L 628 0 
L 628 4666 
L 2053 4666 
Q 2853 4666 3247 4331 
Q 3641 3997 3641 3322 
Q 3641 2881 3436 2590 
Q 3231 2300 2841 2188 
z
M 1259 4147 
L 1259 2491 
L 2053 2491 
Q 2509 2491 2742 2702 
Q 2975 2913 2975 3322 
Q 2975 3731 2742 3939 
Q 2509 4147 2053 4147 
L 1259 4147 
z
" transform="scale(0.015625)"/>
      </defs>
      <use xlink:href="#DejaVuSans-52"/>
      <use xlink:href="#DejaVuSans-61" x="67.232422"/>
      <use xlink:href="#DejaVuSans-6e" x="128.511719"/>
      <use xlink:href="#DejaVuSans-64" x="191.890625"/>
      <use xlink:href="#DejaVuSans-6f" x="255.367188"/>
      <use xlink:href="#DejaVuSans-6d" x="316.548828"/>
     </g>
    </g>
    <g id="line2d_26">
     <path d="M 942.07 44.438088 
L 952.07 44.438088 
L 962.07 44.438088 
" style="fill: none; stroke: #2ca02c; stroke-width: 1.5; stroke-linecap: square"/>
    </g>
    <g id="text_18">
     <!-- chi_2 -->
     <g transform="translate(970.07 47.938088) scale(0.1 -0.1)">
      <defs>
       <path id="DejaVuSans-5f" d="M 3263 -1063 
L 3263 -1509 
L -63 -1509 
L -63 -1063 
L 3263 -1063 
z
" transform="scale(0.015625)"/>
      </defs>
      <use xlink:href="#DejaVuSans-63"/>
      <use xlink:href="#DejaVuSans-68" x="54.980469"/>
      <use xlink:href="#DejaVuSans-69" x="118.359375"/>
      <use xlink:href="#DejaVuSans-5f" x="146.142578"/>
      <use xlink:href="#DejaVuSans-32" x="196.142578"/>
     </g>
    </g>
    <g id="line2d_27">
     <path d="M 942.07 59.394338 
L 952.07 59.394338 
L 962.07 59.394338 
" style="fill: none; stroke: #d62728; stroke-width: 1.5; stroke-linecap: square"/>
    </g>
    <g id="text_19">
     <!-- f_classif -->
     <g transform="translate(970.07 62.894338) scale(0.1 -0.1)">
      <defs>
       <path id="DejaVuSans-6c" d="M 603 4863 
L 1178 4863 
L 1178 0 
L 603 0 
L 603 4863 
z
" transform="scale(0.015625)"/>
      </defs>
      <use xlink:href="#DejaVuSans-66"/>
      <use xlink:href="#DejaVuSans-5f" x="35.205078"/>
      <use xlink:href="#DejaVuSans-63" x="85.205078"/>
      <use xlink:href="#DejaVuSans-6c" x="140.185547"/>
      <use xlink:href="#DejaVuSans-61" x="167.96875"/>
      <use xlink:href="#DejaVuSans-73" x="229.248047"/>
      <use xlink:href="#DejaVuSans-73" x="281.347656"/>
      <use xlink:href="#DejaVuSans-69" x="333.447266"/>
      <use xlink:href="#DejaVuSans-66" x="361.230469"/>
     </g>
    </g>
    <g id="line2d_28">
     <path d="M 942.07 74.350588 
L 952.07 74.350588 
L 962.07 74.350588 
" style="fill: none; stroke: #9467bd; stroke-width: 1.5; stroke-linecap: square"/>
    </g>
    <g id="text_20">
     <!-- mutual_info_classif -->
     <g transform="translate(970.07 77.850588) scale(0.1 -0.1)">
      <use xlink:href="#DejaVuSans-6d"/>
      <use xlink:href="#DejaVuSans-75" x="97.412109"/>
      <use xlink:href="#DejaVuSans-74" x="160.791016"/>
      <use xlink:href="#DejaVuSans-75" x="200"/>
      <use xlink:href="#DejaVuSans-61" x="263.378906"/>
      <use xlink:href="#DejaVuSans-6c" x="324.658203"/>
      <use xlink:href="#DejaVuSans-5f" x="352.441406"/>
      <use xlink:href="#DejaVuSans-69" x="402.441406"/>
      <use xlink:href="#DejaVuSans-6e" x="430.224609"/>
      <use xlink:href="#DejaVuSans-66" x="493.603516"/>
      <use xlink:href="#DejaVuSans-6f" x="528.808594"/>
      <use xlink:href="#DejaVuSans-5f" x="589.990234"/>
      <use xlink:href="#DejaVuSans-63" x="639.990234"/>
      <use xlink:href="#DejaVuSans-6c" x="694.970703"/>
      <use xlink:href="#DejaVuSans-61" x="722.753906"/>
      <use xlink:href="#DejaVuSans-73" x="784.033203"/>
      <use xlink:href="#DejaVuSans-73" x="836.132812"/>
      <use xlink:href="#DejaVuSans-69" x="888.232422"/>
      <use xlink:href="#DejaVuSans-66" x="916.015625"/>
     </g>
    </g>
    <g id="line2d_29">
     <path d="M 942.07 89.306838 
L 952.07 89.306838 
L 962.07 89.306838 
" style="fill: none; stroke: #8c564b; stroke-width: 1.5; stroke-linecap: square"/>
    </g>
    <g id="text_21">
     <!-- lasso -->
     <g transform="translate(970.07 92.806838) scale(0.1 -0.1)">
      <use xlink:href="#DejaVuSans-6c"/>
      <use xlink:href="#DejaVuSans-61" x="27.783203"/>
      <use xlink:href="#DejaVuSans-73" x="89.0625"/>
      <use xlink:href="#DejaVuSans-73" x="141.162109"/>
      <use xlink:href="#DejaVuSans-6f" x="193.261719"/>
     </g>
    </g>
    <g id="line2d_30">
     <path d="M 942.07 103.984963 
L 952.07 103.984963 
L 962.07 103.984963 
" style="fill: none; stroke: #e377c2; stroke-width: 1.5; stroke-linecap: square"/>
    </g>
    <g id="text_22">
     <!-- ridge -->
     <g transform="translate(970.07 107.484963) scale(0.1 -0.1)">
      <use xlink:href="#DejaVuSans-72"/>
      <use xlink:href="#DejaVuSans-69" x="41.113281"/>
      <use xlink:href="#DejaVuSans-64" x="68.896484"/>
      <use xlink:href="#DejaVuSans-67" x="132.373047"/>
      <use xlink:href="#DejaVuSans-65" x="195.849609"/>
     </g>
    </g>
    <g id="line2d_31">
     <path d="M 942.07 118.663088 
L 952.07 118.663088 
L 962.07 118.663088 
" style="fill: none; stroke: #7f7f7f; stroke-width: 1.5; stroke-linecap: square"/>
    </g>
    <g id="text_23">
     <!-- elastic_net -->
     <g transform="translate(970.07 122.163088) scale(0.1 -0.1)">
      <use xlink:href="#DejaVuSans-65"/>
      <use xlink:href="#DejaVuSans-6c" x="61.523438"/>
      <use xlink:href="#DejaVuSans-61" x="89.306641"/>
      <use xlink:href="#DejaVuSans-73" x="150.585938"/>
      <use xlink:href="#DejaVuSans-74" x="202.685547"/>
      <use xlink:href="#DejaVuSans-69" x="241.894531"/>
      <use xlink:href="#DejaVuSans-63" x="269.677734"/>
      <use xlink:href="#DejaVuSans-5f" x="324.658203"/>
      <use xlink:href="#DejaVuSans-6e" x="374.658203"/>
      <use xlink:href="#DejaVuSans-65" x="438.037109"/>
      <use xlink:href="#DejaVuSans-74" x="499.560547"/>
     </g>
    </g>
    <g id="line2d_32">
     <path d="M 942.07 133.619338 
L 952.07 133.619338 
L 962.07 133.619338 
" style="fill: none; stroke: #bcbd22; stroke-width: 1.5; stroke-linecap: square"/>
    </g>
    <g id="text_24">
     <!-- rf -->
     <g transform="translate(970.07 137.119338) scale(0.1 -0.1)">
      <use xlink:href="#DejaVuSans-72"/>
      <use xlink:href="#DejaVuSans-66" x="41.113281"/>
     </g>
    </g>
    <g id="line2d_33">
     <path d="M 942.07 148.297463 
L 952.07 148.297463 
L 962.07 148.297463 
" style="fill: none; stroke: #17becf; stroke-width: 1.5; stroke-linecap: square"/>
    </g>
    <g id="text_25">
     <!-- gbm -->
     <g transform="translate(970.07 151.797463) scale(0.1 -0.1)">
      <use xlink:href="#DejaVuSans-67"/>
      <use xlink:href="#DejaVuSans-62" x="63.476562"/>
      <use xlink:href="#DejaVuSans-6d" x="126.953125"/>
     </g>
    </g>
    <g id="line2d_34">
     <path d="M 942.07 162.975588 
L 952.07 162.975588 
L 962.07 162.975588 
" style="fill: none; stroke: #9edae5; stroke-width: 1.5; stroke-linecap: square"/>
    </g>
    <g id="text_26">
     <!-- xgb -->
     <g transform="translate(970.07 166.475588) scale(0.1 -0.1)">
      <defs>
       <path id="DejaVuSans-78" d="M 3513 3500 
L 2247 1797 
L 3578 0 
L 2900 0 
L 1881 1375 
L 863 0 
L 184 0 
L 1544 1831 
L 300 3500 
L 978 3500 
L 1906 2253 
L 2834 3500 
L 3513 3500 
z
" transform="scale(0.015625)"/>
      </defs>
      <use xlink:href="#DejaVuSans-78"/>
      <use xlink:href="#DejaVuSans-67" x="59.179688"/>
      <use xlink:href="#DejaVuSans-62" x="122.65625"/>
     </g>
    </g>
   </g>
  </g>
 </g>
 <defs>
  <clipPath id="p1aa2480f1e">
   <rect x="47.765" y="30.748" width="885.305" height="575.292"/>
  </clipPath>
 </defs>
</svg>
