<?xml version="1.0" encoding="utf-8" standalone="no"?>
<!DOCTYPE svg PUBLIC "-//W3C//DTD SVG 1.1//EN"
  "http://www.w3.org/Graphics/SVG/1.1/DTD/svg11.dtd">
<svg xmlns:xlink="http://www.w3.org/1999/xlink" width="1080pt" height="648pt" viewBox="0 0 1080 648" xmlns="http://www.w3.org/2000/svg" version="1.1">
 <metadata>
  <rdf:RDF xmlns:dc="http://purl.org/dc/elements/1.1/" xmlns:cc="http://creativecommons.org/ns#" xmlns:rdf="http://www.w3.org/1999/02/22-rdf-syntax-ns#">
   <cc:Work>
    <dc:type rdf:resource="http://purl.org/dc/dcmitype/StillImage"/>
    <dc:date>2025-03-16T22:45:44.861631</dc:date>
    <dc:format>image/svg+xml</dc:format>
    <dc:creator>
     <cc:Agent>
      <dc:title>Matplotlib v3.7.2, https://matplotlib.org/</dc:title>
     </cc:Agent>
    </dc:creator>
   </cc:Work>
  </rdf:RDF>
 </metadata>
 <defs>
  <style type="text/css">*{stroke-linejoin: round; stroke-linecap: butt}</style>
 </defs>
 <g id="figure_1">
  <g id="patch_1">
   <path d="M 0 648 
L 1080 648 
L 1080 0 
L 0 0 
z
" style="fill: #ffffff"/>
  </g>
  <g id="axes_1">
   <g id="patch_2">
    <path d="M 44.96 608.2 
L 943.135 608.2 
L 943.135 30.748 
L 44.96 30.748 
z
" style="fill: #ffffff"/>
   </g>
   <g id="PolyCollection_1">
    <defs>
     <path id="m0f55859ca7" d="M 44.96 -382.025801 
L 44.96 -335.536175 
L 62.9235 -327.524494 
L 80.887 -337.783363 
L 98.8505 -338.936338 
L 116.814 -347.194565 
L 134.7775 -339.737412 
L 152.741 -353.581757 
L 170.7045 -347.118748 
L 188.668 -355.048833 
L 206.6315 -365.936306 
L 224.595 -368.66138 
L 242.5585 -370.623335 
L 260.522 -368.526748 
L 278.4855 -371.965364 
L 296.449 -366.115753 
L 314.4125 -372.687675 
L 332.376 -380.865553 
L 350.3395 -374.917498 
L 368.303 -379.235026 
L 386.2665 -377.854656 
L 404.23 -382.72113 
L 422.1935 -383.011925 
L 440.157 -391.218274 
L 458.1205 -386.201588 
L 476.084 -389.775507 
L 494.0475 -388.817258 
L 512.011 -385.923668 
L 529.9745 -387.086298 
L 547.938 -394.613856 
L 565.9015 -394.792833 
L 583.865 -395.169439 
L 601.8285 -396.965293 
L 619.792 -400.860655 
L 637.7555 -395.733382 
L 655.719 -399.835988 
L 673.6825 -395.060084 
L 691.646 -407.378807 
L 709.6095 -400.541921 
L 727.573 -401.022457 
L 745.5365 -398.180732 
L 763.5 -402.334794 
L 781.4635 -400.679733 
L 799.427 -411.451854 
L 817.3905 -411.635082 
L 835.354 -401.704387 
L 853.3175 -408.054399 
L 871.281 -411.776993 
L 889.2445 -415.519474 
L 907.208 -410.714103 
L 925.1715 -415.817457 
L 943.135 -417.029915 
L 943.135 -458.250565 
L 943.135 -458.250565 
L 925.1715 -459.341914 
L 907.208 -452.30765 
L 889.2445 -452.984232 
L 871.281 -450.787278 
L 853.3175 -447.245222 
L 835.354 -444.497999 
L 817.3905 -453.616775 
L 799.427 -453.482692 
L 781.4635 -447.409046 
L 763.5 -446.875684 
L 745.5365 -444.978347 
L 727.573 -444.470664 
L 709.6095 -444.162096 
L 691.646 -447.449791 
L 673.6825 -441.797079 
L 655.719 -445.822773 
L 637.7555 -442.247596 
L 619.792 -442.69756 
L 601.8285 -439.888134 
L 583.865 -434.215866 
L 565.9015 -435.039038 
L 547.938 -434.329053 
L 529.9745 -431.013498 
L 512.011 -426.959761 
L 494.0475 -425.158209 
L 476.084 -423.707395 
L 458.1205 -423.349581 
L 440.157 -421.630091 
L 422.1935 -418.261235 
L 404.23 -415.12208 
L 386.2665 -416.581653 
L 368.303 -417.642473 
L 350.3395 -413.057076 
L 332.376 -416.740587 
L 314.4125 -413.426709 
L 296.449 -408.988649 
L 278.4855 -412.279109 
L 260.522 -413.977957 
L 242.5585 -415.680796 
L 224.595 -406.775234 
L 206.6315 -406.461125 
L 188.668 -408.814346 
L 170.7045 -395.026086 
L 152.741 -400.004517 
L 134.7775 -389.004423 
L 116.814 -393.711789 
L 98.8505 -391.44864 
L 80.887 -389.656278 
L 62.9235 -376.718886 
L 44.96 -382.025801 
z
" style="stroke: #1f77b4; stroke-opacity: 0.2"/>
    </defs>
    <g clip-path="url(#p35a1054eef)">
     <use xlink:href="#m0f55859ca7" x="0" y="648" style="fill: #1f77b4; fill-opacity: 0.2; stroke: #1f77b4; stroke-opacity: 0.2"/>
    </g>
   </g>
   <g id="PolyCollection_2">
    <defs>
     <path id="mf3f7bca33a" d="M 44.96 -328.521324 
L 44.96 -275.058704 
L 62.9235 -273.750365 
L 80.887 -271.479994 
L 98.8505 -273.340019 
L 116.814 -277.039682 
L 134.7775 -284.311177 
L 152.741 -272.486634 
L 170.7045 -277.29153 
L 188.668 -276.490764 
L 206.6315 -273.524803 
L 224.595 -298.580694 
L 242.5585 -284.283144 
L 260.522 -282.903958 
L 278.4855 -278.127953 
L 296.449 -288.06225 
L 314.4125 -289.212435 
L 332.376 -291.502714 
L 350.3395 -298.843428 
L 368.303 -294.509636 
L 386.2665 -292.503175 
L 404.23 -292.503812 
L 422.1935 -297.090316 
L 440.157 -302.925376 
L 458.1205 -305.022912 
L 476.084 -288.136347 
L 494.0475 -307.569537 
L 512.011 -296.573638 
L 529.9745 -304.800433 
L 547.938 -306.209271 
L 565.9015 -308.347042 
L 583.865 -317.221537 
L 601.8285 -318.50659 
L 619.792 -309.581204 
L 637.7555 -315.337012 
L 655.719 -311.115441 
L 673.6825 -304.139524 
L 691.646 -304.289272 
L 709.6095 -302.03669 
L 727.573 -321.534202 
L 745.5365 -306.522643 
L 763.5 -321.667762 
L 781.4635 -311.469168 
L 799.427 -318.378562 
L 817.3905 -322.01428 
L 835.354 -317.573323 
L 853.3175 -311.496789 
L 871.281 -330.582517 
L 889.2445 -324.633103 
L 907.208 -331.01331 
L 925.1715 -328.245203 
L 943.135 -328.823878 
L 943.135 -373.686879 
L 943.135 -373.686879 
L 925.1715 -372.564432 
L 907.208 -371.404865 
L 889.2445 -370.371141 
L 871.281 -383.654069 
L 853.3175 -357.017098 
L 835.354 -361.375396 
L 817.3905 -368.88184 
L 799.427 -359.820587 
L 781.4635 -360.934617 
L 763.5 -361.167811 
L 745.5365 -361.791717 
L 727.573 -366.6164 
L 709.6095 -363.136379 
L 691.646 -354.693416 
L 673.6825 -349.822163 
L 655.719 -359.705818 
L 637.7555 -355.549532 
L 619.792 -356.793541 
L 601.8285 -361.072153 
L 583.865 -364.976775 
L 565.9015 -353.27657 
L 547.938 -351.726443 
L 529.9745 -348.130594 
L 512.011 -340.499957 
L 494.0475 -349.48101 
L 476.084 -332.474471 
L 458.1205 -356.784483 
L 440.157 -348.599822 
L 422.1935 -337.585682 
L 404.23 -330.666227 
L 386.2665 -342.133452 
L 368.303 -344.026581 
L 350.3395 -337.104221 
L 332.376 -340.078702 
L 314.4125 -330.428034 
L 296.449 -335.601907 
L 278.4855 -327.326032 
L 260.522 -328.32591 
L 242.5585 -324.68501 
L 224.595 -344.481894 
L 206.6315 -325.343472 
L 188.668 -320.717697 
L 170.7045 -329.16852 
L 152.741 -316.584691 
L 134.7775 -323.998297 
L 116.814 -327.034922 
L 98.8505 -322.988519 
L 80.887 -318.254957 
L 62.9235 -317.328115 
L 44.96 -328.521324 
z
" style="stroke: #aec7e8; stroke-opacity: 0.2"/>
    </defs>
    <g clip-path="url(#p35a1054eef)">
     <use xlink:href="#mf3f7bca33a" x="0" y="648" style="fill: #aec7e8; fill-opacity: 0.2; stroke: #aec7e8; stroke-opacity: 0.2"/>
    </g>
   </g>
   <g id="PolyCollection_3">
    <defs>
     <path id="m718d17353a" d="M 44.96 -396.268287 
L 44.96 -355.68398 
L 62.9235 -359.884494 
L 80.887 -360.178551 
L 98.8505 -363.276946 
L 116.814 -364.800832 
L 134.7775 -367.379826 
L 152.741 -369.283941 
L 170.7045 -371.234089 
L 188.668 -373.210167 
L 206.6315 -374.035845 
L 224.595 -371.799506 
L 242.5585 -372.594461 
L 260.522 -372.089569 
L 278.4855 -371.344492 
L 296.449 -374.282543 
L 314.4125 -373.666352 
L 332.376 -379.935794 
L 350.3395 -379.403425 
L 368.303 -387.066055 
L 386.2665 -388.399009 
L 404.23 -390.321562 
L 422.1935 -390.988769 
L 440.157 -395.730213 
L 458.1205 -400.732905 
L 476.084 -409.312004 
L 494.0475 -409.990202 
L 512.011 -413.457443 
L 529.9745 -412.867906 
L 547.938 -413.025771 
L 565.9015 -412.570828 
L 583.865 -413.110939 
L 601.8285 -412.695346 
L 619.792 -413.170364 
L 637.7555 -414.2916 
L 655.719 -413.94261 
L 673.6825 -411.189531 
L 691.646 -413.439774 
L 709.6095 -413.446989 
L 727.573 -411.23519 
L 745.5365 -414.616349 
L 763.5 -415.645636 
L 781.4635 -415.265298 
L 799.427 -418.063634 
L 817.3905 -418.122446 
L 835.354 -420.788028 
L 853.3175 -420.206854 
L 871.281 -420.763561 
L 889.2445 -422.11606 
L 907.208 -423.562652 
L 925.1715 -424.74449 
L 943.135 -424.009309 
L 943.135 -464.856056 
L 943.135 -464.856056 
L 925.1715 -466.310108 
L 907.208 -466.219567 
L 889.2445 -468.631598 
L 871.281 -470.303784 
L 853.3175 -469.458213 
L 835.354 -469.192219 
L 817.3905 -466.914576 
L 799.427 -463.998737 
L 781.4635 -459.99556 
L 763.5 -460.606216 
L 745.5365 -456.844495 
L 727.573 -458.416849 
L 709.6095 -457.351768 
L 691.646 -459.321727 
L 673.6825 -453.316282 
L 655.719 -453.244679 
L 637.7555 -451.653067 
L 619.792 -448.258727 
L 601.8285 -447.60748 
L 583.865 -448.413729 
L 565.9015 -445.539525 
L 547.938 -447.716235 
L 529.9745 -446.341103 
L 512.011 -443.11128 
L 494.0475 -443.049124 
L 476.084 -445.656551 
L 458.1205 -440.514886 
L 440.157 -438.447519 
L 422.1935 -435.89157 
L 404.23 -431.485469 
L 386.2665 -431.79644 
L 368.303 -429.360194 
L 350.3395 -429.625364 
L 332.376 -426.913565 
L 314.4125 -424.640273 
L 296.449 -424.931952 
L 278.4855 -423.665164 
L 260.522 -424.570804 
L 242.5585 -423.611278 
L 224.595 -421.914399 
L 206.6315 -420.451091 
L 188.668 -416.613557 
L 170.7045 -417.912782 
L 152.741 -413.682728 
L 134.7775 -407.473641 
L 116.814 -409.760113 
L 98.8505 -404.812445 
L 80.887 -399.219009 
L 62.9235 -398.837006 
L 44.96 -396.268287 
z
" style="stroke: #ffbb78; stroke-opacity: 0.2"/>
    </defs>
    <g clip-path="url(#p35a1054eef)">
     <use xlink:href="#m718d17353a" x="0" y="648" style="fill: #ffbb78; fill-opacity: 0.2; stroke: #ffbb78; stroke-opacity: 0.2"/>
    </g>
   </g>
   <g id="PolyCollection_4">
    <defs>
     <path id="m02b80da523" d="M 44.96 -398.499296 
L 44.96 -353.313065 
L 62.9235 -353.216105 
L 80.887 -356.774856 
L 98.8505 -360.755179 
L 116.814 -361.676849 
L 134.7775 -362.880499 
L 152.741 -358.781227 
L 170.7045 -360.435768 
L 188.668 -360.004137 
L 206.6315 -360.403612 
L 224.595 -360.674538 
L 242.5585 -359.50449 
L 260.522 -357.857599 
L 278.4855 -358.887048 
L 296.449 -359.176564 
L 314.4125 -362.046645 
L 332.376 -367.430245 
L 350.3395 -368.376779 
L 368.303 -370.685647 
L 386.2665 -373.69734 
L 404.23 -374.061511 
L 422.1935 -376.164507 
L 440.157 -378.496827 
L 458.1205 -378.255178 
L 476.084 -380.332297 
L 494.0475 -381.941715 
L 512.011 -382.321239 
L 529.9745 -380.65534 
L 547.938 -384.129229 
L 565.9015 -386.183924 
L 583.865 -389.449176 
L 601.8285 -389.141288 
L 619.792 -392.181713 
L 637.7555 -397.498718 
L 655.719 -398.28156 
L 673.6825 -399.99755 
L 691.646 -406.777929 
L 709.6095 -404.769448 
L 727.573 -406.943313 
L 745.5365 -404.962058 
L 763.5 -406.151531 
L 781.4635 -405.416478 
L 799.427 -406.934595 
L 817.3905 -405.550377 
L 835.354 -407.029923 
L 853.3175 -407.521178 
L 871.281 -407.785189 
L 889.2445 -408.13527 
L 907.208 -405.355732 
L 925.1715 -404.758358 
L 943.135 -404.192369 
L 943.135 -444.73108 
L 943.135 -444.73108 
L 925.1715 -442.172356 
L 907.208 -442.232284 
L 889.2445 -444.02021 
L 871.281 -441.437879 
L 853.3175 -441.724208 
L 835.354 -438.154906 
L 817.3905 -435.957734 
L 799.427 -438.011523 
L 781.4635 -434.769353 
L 763.5 -434.553065 
L 745.5365 -433.405977 
L 727.573 -433.725928 
L 709.6095 -434.580598 
L 691.646 -437.623722 
L 673.6825 -438.938425 
L 655.719 -434.941948 
L 637.7555 -434.524821 
L 619.792 -429.535062 
L 601.8285 -427.590965 
L 583.865 -429.012494 
L 565.9015 -427.659759 
L 547.938 -425.724201 
L 529.9745 -422.122083 
L 512.011 -422.316319 
L 494.0475 -422.982808 
L 476.084 -423.117688 
L 458.1205 -421.29418 
L 440.157 -419.39282 
L 422.1935 -419.355331 
L 404.23 -418.834621 
L 386.2665 -415.753735 
L 368.303 -414.499834 
L 350.3395 -415.15116 
L 332.376 -411.683075 
L 314.4125 -413.567173 
L 296.449 -412.923123 
L 278.4855 -411.982163 
L 260.522 -412.500874 
L 242.5585 -413.174254 
L 224.595 -411.907483 
L 206.6315 -411.931742 
L 188.668 -412.570062 
L 170.7045 -413.009472 
L 152.741 -410.845267 
L 134.7775 -413.39963 
L 116.814 -412.635758 
L 98.8505 -408.194815 
L 80.887 -406.53769 
L 62.9235 -398.071292 
L 44.96 -398.499296 
z
" style="stroke: #98df8a; stroke-opacity: 0.2"/>
    </defs>
    <g clip-path="url(#p35a1054eef)">
     <use xlink:href="#m02b80da523" x="0" y="648" style="fill: #98df8a; fill-opacity: 0.2; stroke: #98df8a; stroke-opacity: 0.2"/>
    </g>
   </g>
   <g id="PolyCollection_5">
    <defs>
     <path id="m27e328ec53" d="M 44.96 -381.835649 
L 44.96 -347.853288 
L 62.9235 -347.347916 
L 80.887 -351.377838 
L 98.8505 -350.634528 
L 116.814 -357.673629 
L 134.7775 -351.743966 
L 152.741 -354.381165 
L 170.7045 -356.407504 
L 188.668 -355.131704 
L 206.6315 -357.733677 
L 224.595 -360.370546 
L 242.5585 -359.930368 
L 260.522 -361.146897 
L 278.4855 -359.083123 
L 296.449 -360.970169 
L 314.4125 -363.594434 
L 332.376 -362.202281 
L 350.3395 -362.530246 
L 368.303 -363.347206 
L 386.2665 -366.243106 
L 404.23 -368.935622 
L 422.1935 -370.687928 
L 440.157 -369.517282 
L 458.1205 -372.372904 
L 476.084 -374.584243 
L 494.0475 -372.094352 
L 512.011 -373.81764 
L 529.9745 -373.464367 
L 547.938 -375.270837 
L 565.9015 -377.01336 
L 583.865 -376.835252 
L 601.8285 -377.502764 
L 619.792 -379.74462 
L 637.7555 -379.316066 
L 655.719 -377.568003 
L 673.6825 -381.740124 
L 691.646 -379.703117 
L 709.6095 -383.245195 
L 727.573 -383.935489 
L 745.5365 -385.916306 
L 763.5 -386.482993 
L 781.4635 -388.497793 
L 799.427 -387.871583 
L 817.3905 -387.010368 
L 835.354 -390.425571 
L 853.3175 -389.502935 
L 871.281 -388.922545 
L 889.2445 -389.766594 
L 907.208 -390.692228 
L 925.1715 -389.121955 
L 943.135 -391.340391 
L 943.135 -431.533551 
L 943.135 -431.533551 
L 925.1715 -431.085352 
L 907.208 -430.297811 
L 889.2445 -429.549969 
L 871.281 -431.488185 
L 853.3175 -429.200952 
L 835.354 -430.192903 
L 817.3905 -427.238684 
L 799.427 -428.126117 
L 781.4635 -429.396055 
L 763.5 -427.031807 
L 745.5365 -426.572182 
L 727.573 -425.338091 
L 709.6095 -422.21068 
L 691.646 -420.386262 
L 673.6825 -420.2641 
L 655.719 -416.517548 
L 637.7555 -416.779397 
L 619.792 -417.213285 
L 601.8285 -416.450541 
L 583.865 -414.771454 
L 565.9015 -415.2332 
L 547.938 -414.885611 
L 529.9745 -407.714334 
L 512.011 -408.391797 
L 494.0475 -406.735086 
L 476.084 -407.674928 
L 458.1205 -405.028422 
L 440.157 -404.377993 
L 422.1935 -403.239822 
L 404.23 -399.620011 
L 386.2665 -400.847397 
L 368.303 -398.555881 
L 350.3395 -394.906445 
L 332.376 -397.358104 
L 314.4125 -393.574116 
L 296.449 -393.000758 
L 278.4855 -394.904878 
L 260.522 -393.933069 
L 242.5585 -395.845837 
L 224.595 -394.723278 
L 206.6315 -391.801536 
L 188.668 -392.545982 
L 170.7045 -388.958798 
L 152.741 -390.21572 
L 134.7775 -390.505845 
L 116.814 -389.332553 
L 98.8505 -387.33861 
L 80.887 -388.482693 
L 62.9235 -384.806061 
L 44.96 -381.835649 
z
" style="stroke: #ff9896; stroke-opacity: 0.2"/>
    </defs>
    <g clip-path="url(#p35a1054eef)">
     <use xlink:href="#m27e328ec53" x="0" y="648" style="fill: #ff9896; fill-opacity: 0.2; stroke: #ff9896; stroke-opacity: 0.2"/>
    </g>
   </g>
   <g id="PolyCollection_6">
    <defs>
     <path id="m9b87f86cc1" d="M 44.96 -385.907606 
L 44.96 -344.595742 
L 62.9235 -348.651584 
L 80.887 -348.328832 
L 98.8505 -353.073434 
L 116.814 -354.631291 
L 134.7775 -354.486639 
L 152.741 -358.010556 
L 170.7045 -359.495596 
L 188.668 -359.997217 
L 206.6315 -362.241669 
L 224.595 -369.794388 
L 242.5585 -367.315438 
L 260.522 -376.248159 
L 278.4855 -379.548912 
L 296.449 -378.766835 
L 314.4125 -382.701074 
L 332.376 -386.444811 
L 350.3395 -388.295534 
L 368.303 -386.441421 
L 386.2665 -389.799837 
L 404.23 -389.18267 
L 422.1935 -394.012107 
L 440.157 -396.027889 
L 458.1205 -396.404946 
L 476.084 -395.627831 
L 494.0475 -400.72787 
L 512.011 -404.451657 
L 529.9745 -405.18586 
L 547.938 -406.362847 
L 565.9015 -409.957396 
L 583.865 -411.438547 
L 601.8285 -415.885584 
L 619.792 -416.345816 
L 637.7555 -417.582517 
L 655.719 -418.800526 
L 673.6825 -421.368146 
L 691.646 -423.110695 
L 709.6095 -424.959313 
L 727.573 -428.829528 
L 745.5365 -429.954034 
L 763.5 -429.818952 
L 781.4635 -431.706199 
L 799.427 -429.932847 
L 817.3905 -429.597182 
L 835.354 -431.675301 
L 853.3175 -431.027445 
L 871.281 -430.954001 
L 889.2445 -428.28904 
L 907.208 -429.372141 
L 925.1715 -429.358037 
L 943.135 -431.214565 
L 943.135 -464.736831 
L 943.135 -464.736831 
L 925.1715 -464.944013 
L 907.208 -466.111547 
L 889.2445 -464.961102 
L 871.281 -463.846124 
L 853.3175 -462.662623 
L 835.354 -462.527308 
L 817.3905 -461.764586 
L 799.427 -463.286939 
L 781.4635 -463.40835 
L 763.5 -461.500495 
L 745.5365 -462.941531 
L 727.573 -463.468351 
L 709.6095 -461.503892 
L 691.646 -461.129 
L 673.6825 -459.524476 
L 655.719 -460.523661 
L 637.7555 -460.80189 
L 619.792 -458.908103 
L 601.8285 -458.901414 
L 583.865 -455.590484 
L 565.9015 -454.512012 
L 547.938 -455.629149 
L 529.9745 -449.961212 
L 512.011 -453.294876 
L 494.0475 -449.928576 
L 476.084 -447.232196 
L 458.1205 -443.803134 
L 440.157 -444.794777 
L 422.1935 -445.147467 
L 404.23 -441.036579 
L 386.2665 -437.827267 
L 368.303 -438.296831 
L 350.3395 -432.840288 
L 332.376 -428.52908 
L 314.4125 -425.83059 
L 296.449 -423.998497 
L 278.4855 -420.498828 
L 260.522 -421.699753 
L 242.5585 -415.908459 
L 224.595 -417.055753 
L 206.6315 -410.823041 
L 188.668 -407.546746 
L 170.7045 -403.640322 
L 152.741 -406.12233 
L 134.7775 -407.542829 
L 116.814 -401.923068 
L 98.8505 -397.530914 
L 80.887 -392.097076 
L 62.9235 -389.699818 
L 44.96 -385.907606 
z
" style="stroke: #c5b0d5; stroke-opacity: 0.2"/>
    </defs>
    <g clip-path="url(#p35a1054eef)">
     <use xlink:href="#m9b87f86cc1" x="0" y="648" style="fill: #c5b0d5; fill-opacity: 0.2; stroke: #c5b0d5; stroke-opacity: 0.2"/>
    </g>
   </g>
   <g id="PolyCollection_7">
    <defs>
     <path id="m13c2c606c0" d="M 44.96 -393.818657 
L 44.96 -346.721695 
L 62.9235 -346.755403 
L 80.887 -348.245157 
L 98.8505 -349.051228 
L 116.814 -353.109204 
L 134.7775 -355.906034 
L 152.741 -357.42069 
L 170.7045 -359.937761 
L 188.668 -361.369766 
L 206.6315 -361.102859 
L 224.595 -363.471394 
L 242.5585 -364.553604 
L 260.522 -365.99405 
L 278.4855 -367.103423 
L 296.449 -372.987597 
L 314.4125 -372.887166 
L 332.376 -376.933575 
L 350.3395 -377.047606 
L 368.303 -375.612764 
L 386.2665 -380.057246 
L 404.23 -376.78907 
L 422.1935 -383.715518 
L 440.157 -385.451784 
L 458.1205 -388.88372 
L 476.084 -392.832063 
L 494.0475 -393.444987 
L 512.011 -394.573963 
L 529.9745 -399.108995 
L 547.938 -397.597835 
L 565.9015 -399.153819 
L 583.865 -404.454619 
L 601.8285 -405.067459 
L 619.792 -408.915559 
L 637.7555 -408.529009 
L 655.719 -409.170304 
L 673.6825 -410.343529 
L 691.646 -413.826699 
L 709.6095 -412.088083 
L 727.573 -415.936877 
L 745.5365 -415.397176 
L 763.5 -415.843254 
L 781.4635 -417.803236 
L 799.427 -422.072221 
L 817.3905 -423.525828 
L 835.354 -424.236162 
L 853.3175 -423.334529 
L 871.281 -425.720144 
L 889.2445 -423.103094 
L 907.208 -426.802684 
L 925.1715 -429.020018 
L 943.135 -431.154252 
L 943.135 -463.066537 
L 943.135 -463.066537 
L 925.1715 -463.523221 
L 907.208 -460.991645 
L 889.2445 -462.200544 
L 871.281 -461.21517 
L 853.3175 -459.78513 
L 835.354 -457.934744 
L 817.3905 -459.957195 
L 799.427 -457.283633 
L 781.4635 -458.182513 
L 763.5 -456.20461 
L 745.5365 -454.675033 
L 727.573 -454.985009 
L 709.6095 -452.406807 
L 691.646 -453.77452 
L 673.6825 -451.849401 
L 655.719 -451.47226 
L 637.7555 -451.920071 
L 619.792 -450.766894 
L 601.8285 -449.624634 
L 583.865 -450.60648 
L 565.9015 -446.974666 
L 547.938 -443.063799 
L 529.9745 -444.968663 
L 512.011 -443.973461 
L 494.0475 -440.778032 
L 476.084 -439.205556 
L 458.1205 -440.104496 
L 440.157 -439.454106 
L 422.1935 -438.212705 
L 404.23 -434.521715 
L 386.2665 -437.086767 
L 368.303 -433.676776 
L 350.3395 -429.900933 
L 332.376 -432.392122 
L 314.4125 -425.672027 
L 296.449 -427.181382 
L 278.4855 -417.593085 
L 260.522 -419.505683 
L 242.5585 -413.258568 
L 224.595 -413.962305 
L 206.6315 -412.138099 
L 188.668 -408.851572 
L 170.7045 -403.112989 
L 152.741 -401.983539 
L 134.7775 -400.900795 
L 116.814 -403.677824 
L 98.8505 -398.754089 
L 80.887 -394.312034 
L 62.9235 -394.254649 
L 44.96 -393.818657 
z
" style="stroke: #8c564b; stroke-opacity: 0.2"/>
    </defs>
    <g clip-path="url(#p35a1054eef)">
     <use xlink:href="#m13c2c606c0" x="0" y="648" style="fill: #8c564b; fill-opacity: 0.2; stroke: #8c564b; stroke-opacity: 0.2"/>
    </g>
   </g>
   <g id="PolyCollection_8">
    <defs>
     <path id="m227ecdd376" d="M 44.96 -388.193791 
L 44.96 -347.744673 
L 62.9235 -351.277536 
L 80.887 -351.664406 
L 98.8505 -351.607858 
L 116.814 -356.325527 
L 134.7775 -353.191437 
L 152.741 -354.289099 
L 170.7045 -360.124301 
L 188.668 -362.450112 
L 206.6315 -363.196547 
L 224.595 -366.011102 
L 242.5585 -367.467122 
L 260.522 -373.356877 
L 278.4855 -375.85805 
L 296.449 -373.84275 
L 314.4125 -377.728998 
L 332.376 -377.767384 
L 350.3395 -378.346918 
L 368.303 -379.061156 
L 386.2665 -380.414919 
L 404.23 -384.477533 
L 422.1935 -385.645267 
L 440.157 -385.25444 
L 458.1205 -390.507421 
L 476.084 -392.695224 
L 494.0475 -395.521332 
L 512.011 -402.24521 
L 529.9745 -402.832372 
L 547.938 -406.464752 
L 565.9015 -407.50791 
L 583.865 -409.714875 
L 601.8285 -412.152783 
L 619.792 -413.410729 
L 637.7555 -413.966698 
L 655.719 -415.218981 
L 673.6825 -416.143418 
L 691.646 -416.282827 
L 709.6095 -418.836125 
L 727.573 -418.175213 
L 745.5365 -421.208459 
L 763.5 -421.182047 
L 781.4635 -422.343 
L 799.427 -422.763411 
L 817.3905 -425.580478 
L 835.354 -423.623037 
L 853.3175 -425.35402 
L 871.281 -426.675716 
L 889.2445 -431.644408 
L 907.208 -430.390355 
L 925.1715 -431.257569 
L 943.135 -434.245676 
L 943.135 -465.964623 
L 943.135 -465.964623 
L 925.1715 -463.800279 
L 907.208 -464.177967 
L 889.2445 -463.330434 
L 871.281 -463.720168 
L 853.3175 -462.161143 
L 835.354 -461.398189 
L 817.3905 -461.592736 
L 799.427 -458.3034 
L 781.4635 -458.447147 
L 763.5 -458.112984 
L 745.5365 -458.462412 
L 727.573 -457.349319 
L 709.6095 -456.992139 
L 691.646 -456.433052 
L 673.6825 -455.776945 
L 655.719 -456.268275 
L 637.7555 -454.231313 
L 619.792 -451.597754 
L 601.8285 -452.825882 
L 583.865 -452.466994 
L 565.9015 -452.533729 
L 547.938 -451.129027 
L 529.9745 -451.727081 
L 512.011 -448.613379 
L 494.0475 -444.503049 
L 476.084 -443.168174 
L 458.1205 -440.23303 
L 440.157 -437.641173 
L 422.1935 -435.142606 
L 404.23 -435.605932 
L 386.2665 -433.801601 
L 368.303 -431.878762 
L 350.3395 -428.170522 
L 332.376 -428.78183 
L 314.4125 -429.896315 
L 296.449 -424.4793 
L 278.4855 -423.860321 
L 260.522 -425.846652 
L 242.5585 -415.994075 
L 224.595 -413.491635 
L 206.6315 -404.224294 
L 188.668 -405.567829 
L 170.7045 -406.437257 
L 152.741 -401.898689 
L 134.7775 -399.785158 
L 116.814 -403.516125 
L 98.8505 -398.078012 
L 80.887 -401.338485 
L 62.9235 -395.435912 
L 44.96 -388.193791 
z
" style="stroke: #e377c2; stroke-opacity: 0.2"/>
    </defs>
    <g clip-path="url(#p35a1054eef)">
     <use xlink:href="#m227ecdd376" x="0" y="648" style="fill: #e377c2; fill-opacity: 0.2; stroke: #e377c2; stroke-opacity: 0.2"/>
    </g>
   </g>
   <g id="PolyCollection_9">
    <defs>
     <path id="m2695b677c7" d="M 44.96 -416.033836 
L 44.96 -364.995909 
L 62.9235 -366.790592 
L 80.887 -369.60624 
L 98.8505 -374.595436 
L 116.814 -377.083979 
L 134.7775 -382.966407 
L 152.741 -387.018218 
L 170.7045 -394.101317 
L 188.668 -396.317714 
L 206.6315 -395.994462 
L 224.595 -398.044441 
L 242.5585 -398.417247 
L 260.522 -398.76796 
L 278.4855 -402.9889 
L 296.449 -403.421933 
L 314.4125 -407.024626 
L 332.376 -406.74907 
L 350.3395 -411.224482 
L 368.303 -412.412971 
L 386.2665 -414.473116 
L 404.23 -412.951111 
L 422.1935 -412.488344 
L 440.157 -415.394021 
L 458.1205 -415.936073 
L 476.084 -416.896763 
L 494.0475 -417.40599 
L 512.011 -420.504684 
L 529.9745 -420.03972 
L 547.938 -423.681293 
L 565.9015 -424.187556 
L 583.865 -423.370754 
L 601.8285 -424.885031 
L 619.792 -424.78046 
L 637.7555 -425.377379 
L 655.719 -426.634789 
L 673.6825 -426.37411 
L 691.646 -427.145258 
L 709.6095 -426.644224 
L 727.573 -426.679358 
L 745.5365 -424.832762 
L 763.5 -425.729719 
L 781.4635 -426.871088 
L 799.427 -429.300157 
L 817.3905 -429.016706 
L 835.354 -428.411486 
L 853.3175 -430.261821 
L 871.281 -428.640417 
L 889.2445 -426.187481 
L 907.208 -429.120259 
L 925.1715 -429.156941 
L 943.135 -427.264539 
L 943.135 -464.03997 
L 943.135 -464.03997 
L 925.1715 -464.024293 
L 907.208 -464.941228 
L 889.2445 -464.364847 
L 871.281 -467.496915 
L 853.3175 -467.741016 
L 835.354 -467.169425 
L 817.3905 -466.804525 
L 799.427 -468.003369 
L 781.4635 -466.351501 
L 763.5 -467.142118 
L 745.5365 -464.831899 
L 727.573 -466.77215 
L 709.6095 -467.017222 
L 691.646 -466.344743 
L 673.6825 -464.971614 
L 655.719 -466.182697 
L 637.7555 -467.673626 
L 619.792 -466.779064 
L 601.8285 -467.587378 
L 583.865 -468.96998 
L 565.9015 -466.255272 
L 547.938 -468.047559 
L 529.9745 -465.576622 
L 512.011 -466.643856 
L 494.0475 -464.119353 
L 476.084 -460.69705 
L 458.1205 -460.789431 
L 440.157 -461.098714 
L 422.1935 -458.554831 
L 404.23 -461.00444 
L 386.2665 -459.952724 
L 368.303 -458.684028 
L 350.3395 -458.713095 
L 332.376 -453.017206 
L 314.4125 -453.949449 
L 296.449 -452.604214 
L 278.4855 -450.537708 
L 260.522 -448.078003 
L 242.5585 -445.155632 
L 224.595 -441.678817 
L 206.6315 -443.260077 
L 188.668 -437.567452 
L 170.7045 -433.176058 
L 152.741 -432.31933 
L 134.7775 -428.979509 
L 116.814 -425.475373 
L 98.8505 -424.535025 
L 80.887 -422.199853 
L 62.9235 -418.81268 
L 44.96 -416.033836 
z
" style="stroke: #7f7f7f; stroke-opacity: 0.2"/>
    </defs>
    <g clip-path="url(#p35a1054eef)">
     <use xlink:href="#m2695b677c7" x="0" y="648" style="fill: #7f7f7f; fill-opacity: 0.2; stroke: #7f7f7f; stroke-opacity: 0.2"/>
    </g>
   </g>
   <g id="PolyCollection_10">
    <defs>
     <path id="m6942b16665" d="M 44.96 -413.135518 
L 44.96 -354.993841 
L 62.9235 -356.292793 
L 80.887 -361.737309 
L 98.8505 -365.211346 
L 116.814 -367.323375 
L 134.7775 -373.656887 
L 152.741 -375.166054 
L 170.7045 -381.012042 
L 188.668 -384.049006 
L 206.6315 -386.139873 
L 224.595 -386.940478 
L 242.5585 -387.693354 
L 260.522 -391.375198 
L 278.4855 -388.021489 
L 296.449 -387.36234 
L 314.4125 -389.82578 
L 332.376 -392.800123 
L 350.3395 -397.029119 
L 368.303 -396.143391 
L 386.2665 -397.913144 
L 404.23 -396.752219 
L 422.1935 -399.93677 
L 440.157 -401.329795 
L 458.1205 -403.692443 
L 476.084 -403.237957 
L 494.0475 -403.427401 
L 512.011 -404.353024 
L 529.9745 -407.859836 
L 547.938 -408.31607 
L 565.9015 -410.150879 
L 583.865 -413.727027 
L 601.8285 -414.254055 
L 619.792 -417.331909 
L 637.7555 -419.732303 
L 655.719 -419.07629 
L 673.6825 -416.366933 
L 691.646 -417.751317 
L 709.6095 -417.980692 
L 727.573 -420.076552 
L 745.5365 -421.360591 
L 763.5 -422.633193 
L 781.4635 -422.464503 
L 799.427 -423.708308 
L 817.3905 -424.824354 
L 835.354 -426.463116 
L 853.3175 -425.239748 
L 871.281 -427.566174 
L 889.2445 -425.880279 
L 907.208 -426.08129 
L 925.1715 -427.795802 
L 943.135 -429.177917 
L 943.135 -466.95707 
L 943.135 -466.95707 
L 925.1715 -462.051714 
L 907.208 -463.341898 
L 889.2445 -461.848428 
L 871.281 -463.854621 
L 853.3175 -463.410637 
L 835.354 -462.049552 
L 817.3905 -458.728579 
L 799.427 -459.672945 
L 781.4635 -461.17895 
L 763.5 -459.604215 
L 745.5365 -460.174382 
L 727.573 -458.771683 
L 709.6095 -459.179004 
L 691.646 -458.945174 
L 673.6825 -456.187393 
L 655.719 -456.147917 
L 637.7555 -455.69627 
L 619.792 -457.923736 
L 601.8285 -455.629403 
L 583.865 -454.677348 
L 565.9015 -453.851105 
L 547.938 -450.821816 
L 529.9745 -452.538816 
L 512.011 -451.112557 
L 494.0475 -450.073346 
L 476.084 -449.547253 
L 458.1205 -446.485507 
L 440.157 -444.807724 
L 422.1935 -445.463513 
L 404.23 -443.948981 
L 386.2665 -441.684348 
L 368.303 -439.065586 
L 350.3395 -439.413433 
L 332.376 -438.817397 
L 314.4125 -434.65252 
L 296.449 -428.804966 
L 278.4855 -429.1775 
L 260.522 -429.086468 
L 242.5585 -426.975639 
L 224.595 -431.221076 
L 206.6315 -428.069871 
L 188.668 -427.897489 
L 170.7045 -423.975826 
L 152.741 -424.546113 
L 134.7775 -421.880764 
L 116.814 -418.849677 
L 98.8505 -417.702849 
L 80.887 -417.461322 
L 62.9235 -413.17702 
L 44.96 -413.135518 
z
" style="stroke: #bcbd22; stroke-opacity: 0.2"/>
    </defs>
    <g clip-path="url(#p35a1054eef)">
     <use xlink:href="#m6942b16665" x="0" y="648" style="fill: #bcbd22; fill-opacity: 0.2; stroke: #bcbd22; stroke-opacity: 0.2"/>
    </g>
   </g>
   <g id="PolyCollection_11">
    <defs>
     <path id="m992e451f8e" d="M 44.96 -409.073349 
L 44.96 -369.029469 
L 62.9235 -368.297199 
L 80.887 -364.961032 
L 98.8505 -365.237539 
L 116.814 -366.726055 
L 134.7775 -369.562084 
L 152.741 -367.893791 
L 170.7045 -369.676869 
L 188.668 -370.010901 
L 206.6315 -371.483613 
L 224.595 -372.872865 
L 242.5585 -375.005666 
L 260.522 -376.124518 
L 278.4855 -375.908584 
L 296.449 -376.188002 
L 314.4125 -379.734639 
L 332.376 -381.517026 
L 350.3395 -381.628409 
L 368.303 -380.491646 
L 386.2665 -382.272537 
L 404.23 -383.63904 
L 422.1935 -386.800323 
L 440.157 -389.035137 
L 458.1205 -392.451579 
L 476.084 -391.772056 
L 494.0475 -393.926342 
L 512.011 -394.440826 
L 529.9745 -395.684658 
L 547.938 -398.767772 
L 565.9015 -399.38569 
L 583.865 -399.153425 
L 601.8285 -400.139864 
L 619.792 -401.170272 
L 637.7555 -402.252865 
L 655.719 -401.85335 
L 673.6825 -404.833154 
L 691.646 -407.560142 
L 709.6095 -411.280428 
L 727.573 -412.188878 
L 745.5365 -412.907517 
L 763.5 -415.389868 
L 781.4635 -415.269506 
L 799.427 -417.259792 
L 817.3905 -419.839422 
L 835.354 -421.252877 
L 853.3175 -420.946711 
L 871.281 -420.199459 
L 889.2445 -422.640066 
L 907.208 -420.613655 
L 925.1715 -420.624037 
L 943.135 -421.545762 
L 943.135 -456.289969 
L 943.135 -456.289969 
L 925.1715 -453.944147 
L 907.208 -453.948023 
L 889.2445 -453.101759 
L 871.281 -452.408781 
L 853.3175 -453.897258 
L 835.354 -453.342626 
L 817.3905 -451.836267 
L 799.427 -451.269135 
L 781.4635 -449.895237 
L 763.5 -450.077868 
L 745.5365 -447.391275 
L 727.573 -443.669455 
L 709.6095 -444.486766 
L 691.646 -440.751929 
L 673.6825 -438.846211 
L 655.719 -439.015184 
L 637.7555 -436.038315 
L 619.792 -436.612047 
L 601.8285 -435.092523 
L 583.865 -432.72063 
L 565.9015 -431.64726 
L 547.938 -432.752094 
L 529.9745 -429.75376 
L 512.011 -430.425268 
L 494.0475 -430.218293 
L 476.084 -427.798793 
L 458.1205 -425.368324 
L 440.157 -424.933773 
L 422.1935 -420.806681 
L 404.23 -417.745367 
L 386.2665 -417.946599 
L 368.303 -415.175731 
L 350.3395 -413.475512 
L 332.376 -415.191782 
L 314.4125 -415.480018 
L 296.449 -413.484413 
L 278.4855 -413.145293 
L 260.522 -412.031684 
L 242.5585 -414.247233 
L 224.595 -414.494123 
L 206.6315 -411.491351 
L 188.668 -410.465115 
L 170.7045 -410.168526 
L 152.741 -410.124829 
L 134.7775 -409.360122 
L 116.814 -408.710407 
L 98.8505 -407.473589 
L 80.887 -407.744959 
L 62.9235 -409.895579 
L 44.96 -409.073349 
z
" style="stroke: #17becf; stroke-opacity: 0.2"/>
    </defs>
    <g clip-path="url(#p35a1054eef)">
     <use xlink:href="#m992e451f8e" x="0" y="648" style="fill: #17becf; fill-opacity: 0.2; stroke: #17becf; stroke-opacity: 0.2"/>
    </g>
   </g>
   <g id="PolyCollection_12">
    <defs>
     <path id="m19ca0a2a2c" d="M 44.96 -388.001072 
L 44.96 -343.962508 
L 62.9235 -351.639794 
L 80.887 -350.461884 
L 98.8505 -349.959812 
L 116.814 -355.394434 
L 134.7775 -357.798768 
L 152.741 -356.396901 
L 170.7045 -359.748408 
L 188.668 -360.474154 
L 206.6315 -361.951674 
L 224.595 -365.006499 
L 242.5585 -365.398839 
L 260.522 -365.262651 
L 278.4855 -366.705227 
L 296.449 -369.348067 
L 314.4125 -370.004772 
L 332.376 -370.004175 
L 350.3395 -374.101852 
L 368.303 -375.088551 
L 386.2665 -374.727424 
L 404.23 -378.750467 
L 422.1935 -379.768578 
L 440.157 -380.817978 
L 458.1205 -386.065462 
L 476.084 -384.967432 
L 494.0475 -386.167247 
L 512.011 -390.829147 
L 529.9745 -389.422509 
L 547.938 -390.022742 
L 565.9015 -391.030942 
L 583.865 -393.043286 
L 601.8285 -389.850054 
L 619.792 -392.09549 
L 637.7555 -392.214482 
L 655.719 -394.367123 
L 673.6825 -397.852154 
L 691.646 -400.637068 
L 709.6095 -401.562772 
L 727.573 -404.176688 
L 745.5365 -403.744321 
L 763.5 -403.910618 
L 781.4635 -405.802379 
L 799.427 -407.543073 
L 817.3905 -406.853369 
L 835.354 -407.597678 
L 853.3175 -409.290061 
L 871.281 -408.159389 
L 889.2445 -408.597656 
L 907.208 -408.760168 
L 925.1715 -413.0634 
L 943.135 -416.618925 
L 943.135 -454.409092 
L 943.135 -454.409092 
L 925.1715 -455.93874 
L 907.208 -454.696055 
L 889.2445 -453.455522 
L 871.281 -454.131953 
L 853.3175 -452.251741 
L 835.354 -453.40577 
L 817.3905 -451.157948 
L 799.427 -449.502144 
L 781.4635 -451.761907 
L 763.5 -449.268414 
L 745.5365 -449.741079 
L 727.573 -450.825851 
L 709.6095 -448.816846 
L 691.646 -446.1306 
L 673.6825 -442.856025 
L 655.719 -444.988217 
L 637.7555 -441.878677 
L 619.792 -438.032334 
L 601.8285 -433.740188 
L 583.865 -435.967688 
L 565.9015 -437.326141 
L 547.938 -439.257946 
L 529.9745 -436.273139 
L 512.011 -433.208931 
L 494.0475 -429.175394 
L 476.084 -431.308904 
L 458.1205 -425.810458 
L 440.157 -423.932384 
L 422.1935 -426.615543 
L 404.23 -422.677583 
L 386.2665 -421.184454 
L 368.303 -420.021567 
L 350.3395 -415.637878 
L 332.376 -417.419684 
L 314.4125 -415.988401 
L 296.449 -409.97698 
L 278.4855 -409.974917 
L 260.522 -410.21085 
L 242.5585 -408.928011 
L 224.595 -407.702656 
L 206.6315 -405.704989 
L 188.668 -400.792531 
L 170.7045 -401.598384 
L 152.741 -396.836225 
L 134.7775 -396.498807 
L 116.814 -397.079132 
L 98.8505 -395.180039 
L 80.887 -391.470745 
L 62.9235 -393.746765 
L 44.96 -388.001072 
z
" style="stroke: #9edae5; stroke-opacity: 0.2"/>
    </defs>
    <g clip-path="url(#p35a1054eef)">
     <use xlink:href="#m19ca0a2a2c" x="0" y="648" style="fill: #9edae5; fill-opacity: 0.2; stroke: #9edae5; stroke-opacity: 0.2"/>
    </g>
   </g>
   <g id="matplotlib.axis_1">
    <g id="xtick_1">
     <g id="line2d_1">
      <defs>
       <path id="m86d400eea6" d="M 0 0 
L 0 3.5 
" style="stroke: #000000; stroke-width: 0.8"/>
      </defs>
      <g>
       <use xlink:href="#m86d400eea6" x="44.96" y="608.2" style="stroke: #000000; stroke-width: 0.8"/>
      </g>
     </g>
     <g id="text_1">
      <!-- 30 -->
      <g transform="translate(39.399063 622.357813) scale(0.1 -0.1)">
       <defs>
        <path id="ArialMT-33" d="M 269 1209 
L 831 1284 
Q 928 806 1161 595 
Q 1394 384 1728 384 
Q 2125 384 2398 659 
Q 2672 934 2672 1341 
Q 2672 1728 2419 1979 
Q 2166 2231 1775 2231 
Q 1616 2231 1378 2169 
L 1441 2663 
Q 1497 2656 1531 2656 
Q 1891 2656 2178 2843 
Q 2466 3031 2466 3422 
Q 2466 3731 2256 3934 
Q 2047 4138 1716 4138 
Q 1388 4138 1169 3931 
Q 950 3725 888 3313 
L 325 3413 
Q 428 3978 793 4289 
Q 1159 4600 1703 4600 
Q 2078 4600 2393 4439 
Q 2709 4278 2876 4000 
Q 3044 3722 3044 3409 
Q 3044 3113 2884 2869 
Q 2725 2625 2413 2481 
Q 2819 2388 3044 2092 
Q 3269 1797 3269 1353 
Q 3269 753 2831 336 
Q 2394 -81 1725 -81 
Q 1122 -81 723 278 
Q 325 638 269 1209 
z
" transform="scale(0.015625)"/>
        <path id="ArialMT-30" d="M 266 2259 
Q 266 3072 433 3567 
Q 600 4063 929 4331 
Q 1259 4600 1759 4600 
Q 2128 4600 2406 4451 
Q 2684 4303 2865 4023 
Q 3047 3744 3150 3342 
Q 3253 2941 3253 2259 
Q 3253 1453 3087 958 
Q 2922 463 2592 192 
Q 2263 -78 1759 -78 
Q 1097 -78 719 397 
Q 266 969 266 2259 
z
M 844 2259 
Q 844 1131 1108 757 
Q 1372 384 1759 384 
Q 2147 384 2411 759 
Q 2675 1134 2675 2259 
Q 2675 3391 2411 3762 
Q 2147 4134 1753 4134 
Q 1366 4134 1134 3806 
Q 844 3388 844 2259 
z
" transform="scale(0.015625)"/>
       </defs>
       <use xlink:href="#ArialMT-33"/>
       <use xlink:href="#ArialMT-30" x="55.615234"/>
      </g>
     </g>
    </g>
    <g id="xtick_2">
     <g id="line2d_2">
      <g>
       <use xlink:href="#m86d400eea6" x="224.595" y="608.2" style="stroke: #000000; stroke-width: 0.8"/>
      </g>
     </g>
     <g id="text_2">
      <!-- 40 -->
      <g transform="translate(219.034063 622.357813) scale(0.1 -0.1)">
       <defs>
        <path id="ArialMT-34" d="M 2069 0 
L 2069 1097 
L 81 1097 
L 81 1613 
L 2172 4581 
L 2631 4581 
L 2631 1613 
L 3250 1613 
L 3250 1097 
L 2631 1097 
L 2631 0 
L 2069 0 
z
M 2069 1613 
L 2069 3678 
L 634 1613 
L 2069 1613 
z
" transform="scale(0.015625)"/>
       </defs>
       <use xlink:href="#ArialMT-34"/>
       <use xlink:href="#ArialMT-30" x="55.615234"/>
      </g>
     </g>
    </g>
    <g id="xtick_3">
     <g id="line2d_3">
      <g>
       <use xlink:href="#m86d400eea6" x="404.23" y="608.2" style="stroke: #000000; stroke-width: 0.8"/>
      </g>
     </g>
     <g id="text_3">
      <!-- 50 -->
      <g transform="translate(398.669063 622.357813) scale(0.1 -0.1)">
       <defs>
        <path id="ArialMT-35" d="M 266 1200 
L 856 1250 
Q 922 819 1161 601 
Q 1400 384 1738 384 
Q 2144 384 2425 690 
Q 2706 997 2706 1503 
Q 2706 1984 2436 2262 
Q 2166 2541 1728 2541 
Q 1456 2541 1237 2417 
Q 1019 2294 894 2097 
L 366 2166 
L 809 4519 
L 3088 4519 
L 3088 3981 
L 1259 3981 
L 1013 2750 
Q 1425 3038 1878 3038 
Q 2478 3038 2890 2622 
Q 3303 2206 3303 1553 
Q 3303 931 2941 478 
Q 2500 -78 1738 -78 
Q 1113 -78 717 272 
Q 322 622 266 1200 
z
" transform="scale(0.015625)"/>
       </defs>
       <use xlink:href="#ArialMT-35"/>
       <use xlink:href="#ArialMT-30" x="55.615234"/>
      </g>
     </g>
    </g>
    <g id="xtick_4">
     <g id="line2d_4">
      <g>
       <use xlink:href="#m86d400eea6" x="583.865" y="608.2" style="stroke: #000000; stroke-width: 0.8"/>
      </g>
     </g>
     <g id="text_4">
      <!-- 60 -->
      <g transform="translate(578.304063 622.357813) scale(0.1 -0.1)">
       <defs>
        <path id="ArialMT-36" d="M 3184 3459 
L 2625 3416 
Q 2550 3747 2413 3897 
Q 2184 4138 1850 4138 
Q 1581 4138 1378 3988 
Q 1113 3794 959 3422 
Q 806 3050 800 2363 
Q 1003 2672 1297 2822 
Q 1591 2972 1913 2972 
Q 2475 2972 2870 2558 
Q 3266 2144 3266 1488 
Q 3266 1056 3080 686 
Q 2894 316 2569 119 
Q 2244 -78 1831 -78 
Q 1128 -78 684 439 
Q 241 956 241 2144 
Q 241 3472 731 4075 
Q 1159 4600 1884 4600 
Q 2425 4600 2770 4297 
Q 3116 3994 3184 3459 
z
M 888 1484 
Q 888 1194 1011 928 
Q 1134 663 1356 523 
Q 1578 384 1822 384 
Q 2178 384 2434 671 
Q 2691 959 2691 1453 
Q 2691 1928 2437 2201 
Q 2184 2475 1800 2475 
Q 1419 2475 1153 2201 
Q 888 1928 888 1484 
z
" transform="scale(0.015625)"/>
       </defs>
       <use xlink:href="#ArialMT-36"/>
       <use xlink:href="#ArialMT-30" x="55.615234"/>
      </g>
     </g>
    </g>
    <g id="xtick_5">
     <g id="line2d_5">
      <g>
       <use xlink:href="#m86d400eea6" x="763.5" y="608.2" style="stroke: #000000; stroke-width: 0.8"/>
      </g>
     </g>
     <g id="text_5">
      <!-- 70 -->
      <g transform="translate(757.939063 622.357813) scale(0.1 -0.1)">
       <defs>
        <path id="ArialMT-37" d="M 303 3981 
L 303 4522 
L 3269 4522 
L 3269 4084 
Q 2831 3619 2401 2847 
Q 1972 2075 1738 1259 
Q 1569 684 1522 0 
L 944 0 
Q 953 541 1156 1306 
Q 1359 2072 1739 2783 
Q 2119 3494 2547 3981 
L 303 3981 
z
" transform="scale(0.015625)"/>
       </defs>
       <use xlink:href="#ArialMT-37"/>
       <use xlink:href="#ArialMT-30" x="55.615234"/>
      </g>
     </g>
    </g>
    <g id="xtick_6">
     <g id="line2d_6">
      <g>
       <use xlink:href="#m86d400eea6" x="943.135" y="608.2" style="stroke: #000000; stroke-width: 0.8"/>
      </g>
     </g>
     <g id="text_6">
      <!-- 80 -->
      <g transform="translate(937.574063 622.357813) scale(0.1 -0.1)">
       <defs>
        <path id="ArialMT-38" d="M 1131 2484 
Q 781 2613 612 2850 
Q 444 3088 444 3419 
Q 444 3919 803 4259 
Q 1163 4600 1759 4600 
Q 2359 4600 2725 4251 
Q 3091 3903 3091 3403 
Q 3091 3084 2923 2848 
Q 2756 2613 2416 2484 
Q 2838 2347 3058 2040 
Q 3278 1734 3278 1309 
Q 3278 722 2862 322 
Q 2447 -78 1769 -78 
Q 1091 -78 675 323 
Q 259 725 259 1325 
Q 259 1772 486 2073 
Q 713 2375 1131 2484 
z
M 1019 3438 
Q 1019 3113 1228 2906 
Q 1438 2700 1772 2700 
Q 2097 2700 2305 2904 
Q 2513 3109 2513 3406 
Q 2513 3716 2298 3927 
Q 2084 4138 1766 4138 
Q 1444 4138 1231 3931 
Q 1019 3725 1019 3438 
z
M 838 1322 
Q 838 1081 952 856 
Q 1066 631 1291 507 
Q 1516 384 1775 384 
Q 2178 384 2440 643 
Q 2703 903 2703 1303 
Q 2703 1709 2433 1975 
Q 2163 2241 1756 2241 
Q 1359 2241 1098 1978 
Q 838 1716 838 1322 
z
" transform="scale(0.015625)"/>
       </defs>
       <use xlink:href="#ArialMT-38"/>
       <use xlink:href="#ArialMT-30" x="55.615234"/>
      </g>
     </g>
    </g>
    <g id="text_7">
     <!-- Number of Baits -->
     <g transform="translate(458.202188 635.503125) scale(0.1 -0.1)">
      <defs>
       <path id="ArialMT-4e" d="M 488 0 
L 488 4581 
L 1109 4581 
L 3516 984 
L 3516 4581 
L 4097 4581 
L 4097 0 
L 3475 0 
L 1069 3600 
L 1069 0 
L 488 0 
z
" transform="scale(0.015625)"/>
       <path id="ArialMT-75" d="M 2597 0 
L 2597 488 
Q 2209 -75 1544 -75 
Q 1250 -75 995 37 
Q 741 150 617 320 
Q 494 491 444 738 
Q 409 903 409 1263 
L 409 3319 
L 972 3319 
L 972 1478 
Q 972 1038 1006 884 
Q 1059 663 1231 536 
Q 1403 409 1656 409 
Q 1909 409 2131 539 
Q 2353 669 2445 892 
Q 2538 1116 2538 1541 
L 2538 3319 
L 3100 3319 
L 3100 0 
L 2597 0 
z
" transform="scale(0.015625)"/>
       <path id="ArialMT-6d" d="M 422 0 
L 422 3319 
L 925 3319 
L 925 2853 
Q 1081 3097 1340 3245 
Q 1600 3394 1931 3394 
Q 2300 3394 2536 3241 
Q 2772 3088 2869 2813 
Q 3263 3394 3894 3394 
Q 4388 3394 4653 3120 
Q 4919 2847 4919 2278 
L 4919 0 
L 4359 0 
L 4359 2091 
Q 4359 2428 4304 2576 
Q 4250 2725 4106 2815 
Q 3963 2906 3769 2906 
Q 3419 2906 3187 2673 
Q 2956 2441 2956 1928 
L 2956 0 
L 2394 0 
L 2394 2156 
Q 2394 2531 2256 2718 
Q 2119 2906 1806 2906 
Q 1569 2906 1367 2781 
Q 1166 2656 1075 2415 
Q 984 2175 984 1722 
L 984 0 
L 422 0 
z
" transform="scale(0.015625)"/>
       <path id="ArialMT-62" d="M 941 0 
L 419 0 
L 419 4581 
L 981 4581 
L 981 2947 
Q 1338 3394 1891 3394 
Q 2197 3394 2470 3270 
Q 2744 3147 2920 2923 
Q 3097 2700 3197 2384 
Q 3297 2069 3297 1709 
Q 3297 856 2875 390 
Q 2453 -75 1863 -75 
Q 1275 -75 941 416 
L 941 0 
z
M 934 1684 
Q 934 1088 1097 822 
Q 1363 388 1816 388 
Q 2184 388 2453 708 
Q 2722 1028 2722 1663 
Q 2722 2313 2464 2622 
Q 2206 2931 1841 2931 
Q 1472 2931 1203 2611 
Q 934 2291 934 1684 
z
" transform="scale(0.015625)"/>
       <path id="ArialMT-65" d="M 2694 1069 
L 3275 997 
Q 3138 488 2766 206 
Q 2394 -75 1816 -75 
Q 1088 -75 661 373 
Q 234 822 234 1631 
Q 234 2469 665 2931 
Q 1097 3394 1784 3394 
Q 2450 3394 2872 2941 
Q 3294 2488 3294 1666 
Q 3294 1616 3291 1516 
L 816 1516 
Q 847 969 1125 678 
Q 1403 388 1819 388 
Q 2128 388 2347 550 
Q 2566 713 2694 1069 
z
M 847 1978 
L 2700 1978 
Q 2663 2397 2488 2606 
Q 2219 2931 1791 2931 
Q 1403 2931 1139 2672 
Q 875 2413 847 1978 
z
" transform="scale(0.015625)"/>
       <path id="ArialMT-72" d="M 416 0 
L 416 3319 
L 922 3319 
L 922 2816 
Q 1116 3169 1280 3281 
Q 1444 3394 1641 3394 
Q 1925 3394 2219 3213 
L 2025 2691 
Q 1819 2813 1613 2813 
Q 1428 2813 1281 2702 
Q 1134 2591 1072 2394 
Q 978 2094 978 1738 
L 978 0 
L 416 0 
z
" transform="scale(0.015625)"/>
       <path id="ArialMT-20" transform="scale(0.015625)"/>
       <path id="ArialMT-6f" d="M 213 1659 
Q 213 2581 725 3025 
Q 1153 3394 1769 3394 
Q 2453 3394 2887 2945 
Q 3322 2497 3322 1706 
Q 3322 1066 3130 698 
Q 2938 331 2570 128 
Q 2203 -75 1769 -75 
Q 1072 -75 642 372 
Q 213 819 213 1659 
z
M 791 1659 
Q 791 1022 1069 705 
Q 1347 388 1769 388 
Q 2188 388 2466 706 
Q 2744 1025 2744 1678 
Q 2744 2294 2464 2611 
Q 2184 2928 1769 2928 
Q 1347 2928 1069 2612 
Q 791 2297 791 1659 
z
" transform="scale(0.015625)"/>
       <path id="ArialMT-66" d="M 556 0 
L 556 2881 
L 59 2881 
L 59 3319 
L 556 3319 
L 556 3672 
Q 556 4006 616 4169 
Q 697 4388 901 4523 
Q 1106 4659 1475 4659 
Q 1713 4659 2000 4603 
L 1916 4113 
Q 1741 4144 1584 4144 
Q 1328 4144 1222 4034 
Q 1116 3925 1116 3625 
L 1116 3319 
L 1763 3319 
L 1763 2881 
L 1116 2881 
L 1116 0 
L 556 0 
z
" transform="scale(0.015625)"/>
       <path id="ArialMT-42" d="M 469 0 
L 469 4581 
L 2188 4581 
Q 2713 4581 3030 4442 
Q 3347 4303 3526 4014 
Q 3706 3725 3706 3409 
Q 3706 3116 3547 2856 
Q 3388 2597 3066 2438 
Q 3481 2316 3704 2022 
Q 3928 1728 3928 1328 
Q 3928 1006 3792 729 
Q 3656 453 3456 303 
Q 3256 153 2954 76 
Q 2653 0 2216 0 
L 469 0 
z
M 1075 2656 
L 2066 2656 
Q 2469 2656 2644 2709 
Q 2875 2778 2992 2937 
Q 3109 3097 3109 3338 
Q 3109 3566 3000 3739 
Q 2891 3913 2687 3977 
Q 2484 4041 1991 4041 
L 1075 4041 
L 1075 2656 
z
M 1075 541 
L 2216 541 
Q 2509 541 2628 563 
Q 2838 600 2978 687 
Q 3119 775 3209 942 
Q 3300 1109 3300 1328 
Q 3300 1584 3169 1773 
Q 3038 1963 2805 2039 
Q 2572 2116 2134 2116 
L 1075 2116 
L 1075 541 
z
" transform="scale(0.015625)"/>
       <path id="ArialMT-61" d="M 2588 409 
Q 2275 144 1986 34 
Q 1697 -75 1366 -75 
Q 819 -75 525 192 
Q 231 459 231 875 
Q 231 1119 342 1320 
Q 453 1522 633 1644 
Q 813 1766 1038 1828 
Q 1203 1872 1538 1913 
Q 2219 1994 2541 2106 
Q 2544 2222 2544 2253 
Q 2544 2597 2384 2738 
Q 2169 2928 1744 2928 
Q 1347 2928 1158 2789 
Q 969 2650 878 2297 
L 328 2372 
Q 403 2725 575 2942 
Q 747 3159 1072 3276 
Q 1397 3394 1825 3394 
Q 2250 3394 2515 3294 
Q 2781 3194 2906 3042 
Q 3031 2891 3081 2659 
Q 3109 2516 3109 2141 
L 3109 1391 
Q 3109 606 3145 398 
Q 3181 191 3288 0 
L 2700 0 
Q 2613 175 2588 409 
z
M 2541 1666 
Q 2234 1541 1622 1453 
Q 1275 1403 1131 1340 
Q 988 1278 909 1158 
Q 831 1038 831 891 
Q 831 666 1001 516 
Q 1172 366 1500 366 
Q 1825 366 2078 508 
Q 2331 650 2450 897 
Q 2541 1088 2541 1459 
L 2541 1666 
z
" transform="scale(0.015625)"/>
       <path id="ArialMT-69" d="M 425 3934 
L 425 4581 
L 988 4581 
L 988 3934 
L 425 3934 
z
M 425 0 
L 425 3319 
L 988 3319 
L 988 0 
L 425 0 
z
" transform="scale(0.015625)"/>
       <path id="ArialMT-74" d="M 1650 503 
L 1731 6 
Q 1494 -44 1306 -44 
Q 1000 -44 831 53 
Q 663 150 594 308 
Q 525 466 525 972 
L 525 2881 
L 113 2881 
L 113 3319 
L 525 3319 
L 525 4141 
L 1084 4478 
L 1084 3319 
L 1650 3319 
L 1650 2881 
L 1084 2881 
L 1084 941 
Q 1084 700 1114 631 
Q 1144 563 1211 522 
Q 1278 481 1403 481 
Q 1497 481 1650 503 
z
" transform="scale(0.015625)"/>
       <path id="ArialMT-73" d="M 197 991 
L 753 1078 
Q 800 744 1014 566 
Q 1228 388 1613 388 
Q 2000 388 2187 545 
Q 2375 703 2375 916 
Q 2375 1106 2209 1216 
Q 2094 1291 1634 1406 
Q 1016 1563 777 1677 
Q 538 1791 414 1992 
Q 291 2194 291 2438 
Q 291 2659 392 2848 
Q 494 3038 669 3163 
Q 800 3259 1026 3326 
Q 1253 3394 1513 3394 
Q 1903 3394 2198 3281 
Q 2494 3169 2634 2976 
Q 2775 2784 2828 2463 
L 2278 2388 
Q 2241 2644 2061 2787 
Q 1881 2931 1553 2931 
Q 1166 2931 1000 2803 
Q 834 2675 834 2503 
Q 834 2394 903 2306 
Q 972 2216 1119 2156 
Q 1203 2125 1616 2013 
Q 2213 1853 2448 1751 
Q 2684 1650 2818 1456 
Q 2953 1263 2953 975 
Q 2953 694 2789 445 
Q 2625 197 2315 61 
Q 2006 -75 1616 -75 
Q 969 -75 630 194 
Q 291 463 197 991 
z
" transform="scale(0.015625)"/>
      </defs>
      <use xlink:href="#ArialMT-4e"/>
      <use xlink:href="#ArialMT-75" x="72.216797"/>
      <use xlink:href="#ArialMT-6d" x="127.832031"/>
      <use xlink:href="#ArialMT-62" x="211.132812"/>
      <use xlink:href="#ArialMT-65" x="266.748047"/>
      <use xlink:href="#ArialMT-72" x="322.363281"/>
      <use xlink:href="#ArialMT-20" x="355.664062"/>
      <use xlink:href="#ArialMT-6f" x="383.447266"/>
      <use xlink:href="#ArialMT-66" x="439.0625"/>
      <use xlink:href="#ArialMT-20" x="466.845703"/>
      <use xlink:href="#ArialMT-42" x="494.628906"/>
      <use xlink:href="#ArialMT-61" x="561.328125"/>
      <use xlink:href="#ArialMT-69" x="616.943359"/>
      <use xlink:href="#ArialMT-74" x="639.160156"/>
      <use xlink:href="#ArialMT-73" x="666.943359"/>
     </g>
    </g>
   </g>
   <g id="matplotlib.axis_2">
    <g id="ytick_1">
     <g id="line2d_7">
      <defs>
       <path id="m345b21d564" d="M 0 0 
L -3.5 0 
" style="stroke: #000000; stroke-width: 0.8"/>
      </defs>
      <g>
       <use xlink:href="#m345b21d564" x="44.96" y="608.2" style="stroke: #000000; stroke-width: 0.8"/>
      </g>
     </g>
     <g id="text_8">
      <!-- 0.0 -->
      <g transform="translate(24.06 611.778906) scale(0.1 -0.1)">
       <defs>
        <path id="ArialMT-2e" d="M 581 0 
L 581 641 
L 1222 641 
L 1222 0 
L 581 0 
z
" transform="scale(0.015625)"/>
       </defs>
       <use xlink:href="#ArialMT-30"/>
       <use xlink:href="#ArialMT-2e" x="55.615234"/>
       <use xlink:href="#ArialMT-30" x="83.398438"/>
      </g>
     </g>
    </g>
    <g id="ytick_2">
     <g id="line2d_8">
      <g>
       <use xlink:href="#m345b21d564" x="44.96" y="492.7096" style="stroke: #000000; stroke-width: 0.8"/>
      </g>
     </g>
     <g id="text_9">
      <!-- 0.2 -->
      <g transform="translate(24.06 496.288506) scale(0.1 -0.1)">
       <defs>
        <path id="ArialMT-32" d="M 3222 541 
L 3222 0 
L 194 0 
Q 188 203 259 391 
Q 375 700 629 1000 
Q 884 1300 1366 1694 
Q 2113 2306 2375 2664 
Q 2638 3022 2638 3341 
Q 2638 3675 2398 3904 
Q 2159 4134 1775 4134 
Q 1369 4134 1125 3890 
Q 881 3647 878 3216 
L 300 3275 
Q 359 3922 746 4261 
Q 1134 4600 1788 4600 
Q 2447 4600 2831 4234 
Q 3216 3869 3216 3328 
Q 3216 3053 3103 2787 
Q 2991 2522 2730 2228 
Q 2469 1934 1863 1422 
Q 1356 997 1212 845 
Q 1069 694 975 541 
L 3222 541 
z
" transform="scale(0.015625)"/>
       </defs>
       <use xlink:href="#ArialMT-30"/>
       <use xlink:href="#ArialMT-2e" x="55.615234"/>
       <use xlink:href="#ArialMT-32" x="83.398438"/>
      </g>
     </g>
    </g>
    <g id="ytick_3">
     <g id="line2d_9">
      <g>
       <use xlink:href="#m345b21d564" x="44.96" y="377.2192" style="stroke: #000000; stroke-width: 0.8"/>
      </g>
     </g>
     <g id="text_10">
      <!-- 0.4 -->
      <g transform="translate(24.06 380.798106) scale(0.1 -0.1)">
       <use xlink:href="#ArialMT-30"/>
       <use xlink:href="#ArialMT-2e" x="55.615234"/>
       <use xlink:href="#ArialMT-34" x="83.398438"/>
      </g>
     </g>
    </g>
    <g id="ytick_4">
     <g id="line2d_10">
      <g>
       <use xlink:href="#m345b21d564" x="44.96" y="261.7288" style="stroke: #000000; stroke-width: 0.8"/>
      </g>
     </g>
     <g id="text_11">
      <!-- 0.6 -->
      <g transform="translate(24.06 265.307706) scale(0.1 -0.1)">
       <use xlink:href="#ArialMT-30"/>
       <use xlink:href="#ArialMT-2e" x="55.615234"/>
       <use xlink:href="#ArialMT-36" x="83.398438"/>
      </g>
     </g>
    </g>
    <g id="ytick_5">
     <g id="line2d_11">
      <g>
       <use xlink:href="#m345b21d564" x="44.96" y="146.2384" style="stroke: #000000; stroke-width: 0.8"/>
      </g>
     </g>
     <g id="text_12">
      <!-- 0.8 -->
      <g transform="translate(24.06 149.817306) scale(0.1 -0.1)">
       <use xlink:href="#ArialMT-30"/>
       <use xlink:href="#ArialMT-2e" x="55.615234"/>
       <use xlink:href="#ArialMT-38" x="83.398438"/>
      </g>
     </g>
    </g>
    <g id="ytick_6">
     <g id="line2d_12">
      <g>
       <use xlink:href="#m345b21d564" x="44.96" y="30.748" style="stroke: #000000; stroke-width: 0.8"/>
      </g>
     </g>
     <g id="text_13">
      <!-- 1.0 -->
      <g transform="translate(24.06 34.326906) scale(0.1 -0.1)">
       <defs>
        <path id="ArialMT-31" d="M 2384 0 
L 1822 0 
L 1822 3584 
Q 1619 3391 1289 3197 
Q 959 3003 697 2906 
L 697 3450 
Q 1169 3672 1522 3987 
Q 1875 4303 2022 4600 
L 2384 4600 
L 2384 0 
z
" transform="scale(0.015625)"/>
       </defs>
       <use xlink:href="#ArialMT-31"/>
       <use xlink:href="#ArialMT-2e" x="55.615234"/>
       <use xlink:href="#ArialMT-30" x="83.398438"/>
      </g>
     </g>
    </g>
    <g id="text_14">
     <!-- Aggregated ARI Scores -->
     <g transform="translate(17.955312 371.725563) rotate(-90) scale(0.1 -0.1)">
      <defs>
       <path id="ArialMT-41" d="M -9 0 
L 1750 4581 
L 2403 4581 
L 4278 0 
L 3588 0 
L 3053 1388 
L 1138 1388 
L 634 0 
L -9 0 
z
M 1313 1881 
L 2866 1881 
L 2388 3150 
Q 2169 3728 2063 4100 
Q 1975 3659 1816 3225 
L 1313 1881 
z
" transform="scale(0.015625)"/>
       <path id="ArialMT-67" d="M 319 -275 
L 866 -356 
Q 900 -609 1056 -725 
Q 1266 -881 1628 -881 
Q 2019 -881 2231 -725 
Q 2444 -569 2519 -288 
Q 2563 -116 2559 434 
Q 2191 0 1641 0 
Q 956 0 581 494 
Q 206 988 206 1678 
Q 206 2153 378 2554 
Q 550 2956 876 3175 
Q 1203 3394 1644 3394 
Q 2231 3394 2613 2919 
L 2613 3319 
L 3131 3319 
L 3131 450 
Q 3131 -325 2973 -648 
Q 2816 -972 2473 -1159 
Q 2131 -1347 1631 -1347 
Q 1038 -1347 672 -1080 
Q 306 -813 319 -275 
z
M 784 1719 
Q 784 1066 1043 766 
Q 1303 466 1694 466 
Q 2081 466 2343 764 
Q 2606 1063 2606 1700 
Q 2606 2309 2336 2618 
Q 2066 2928 1684 2928 
Q 1309 2928 1046 2623 
Q 784 2319 784 1719 
z
" transform="scale(0.015625)"/>
       <path id="ArialMT-64" d="M 2575 0 
L 2575 419 
Q 2259 -75 1647 -75 
Q 1250 -75 917 144 
Q 584 363 401 755 
Q 219 1147 219 1656 
Q 219 2153 384 2558 
Q 550 2963 881 3178 
Q 1213 3394 1622 3394 
Q 1922 3394 2156 3267 
Q 2391 3141 2538 2938 
L 2538 4581 
L 3097 4581 
L 3097 0 
L 2575 0 
z
M 797 1656 
Q 797 1019 1065 703 
Q 1334 388 1700 388 
Q 2069 388 2326 689 
Q 2584 991 2584 1609 
Q 2584 2291 2321 2609 
Q 2059 2928 1675 2928 
Q 1300 2928 1048 2622 
Q 797 2316 797 1656 
z
" transform="scale(0.015625)"/>
       <path id="ArialMT-52" d="M 503 0 
L 503 4581 
L 2534 4581 
Q 3147 4581 3465 4457 
Q 3784 4334 3975 4021 
Q 4166 3709 4166 3331 
Q 4166 2844 3850 2509 
Q 3534 2175 2875 2084 
Q 3116 1969 3241 1856 
Q 3506 1613 3744 1247 
L 4541 0 
L 3778 0 
L 3172 953 
Q 2906 1366 2734 1584 
Q 2563 1803 2427 1890 
Q 2291 1978 2150 2013 
Q 2047 2034 1813 2034 
L 1109 2034 
L 1109 0 
L 503 0 
z
M 1109 2559 
L 2413 2559 
Q 2828 2559 3062 2645 
Q 3297 2731 3419 2920 
Q 3541 3109 3541 3331 
Q 3541 3656 3305 3865 
Q 3069 4075 2559 4075 
L 1109 4075 
L 1109 2559 
z
" transform="scale(0.015625)"/>
       <path id="ArialMT-49" d="M 597 0 
L 597 4581 
L 1203 4581 
L 1203 0 
L 597 0 
z
" transform="scale(0.015625)"/>
       <path id="ArialMT-53" d="M 288 1472 
L 859 1522 
Q 900 1178 1048 958 
Q 1197 738 1509 602 
Q 1822 466 2213 466 
Q 2559 466 2825 569 
Q 3091 672 3220 851 
Q 3350 1031 3350 1244 
Q 3350 1459 3225 1620 
Q 3100 1781 2813 1891 
Q 2628 1963 1997 2114 
Q 1366 2266 1113 2400 
Q 784 2572 623 2826 
Q 463 3081 463 3397 
Q 463 3744 659 4045 
Q 856 4347 1234 4503 
Q 1613 4659 2075 4659 
Q 2584 4659 2973 4495 
Q 3363 4331 3572 4012 
Q 3781 3694 3797 3291 
L 3216 3247 
Q 3169 3681 2898 3903 
Q 2628 4125 2100 4125 
Q 1550 4125 1298 3923 
Q 1047 3722 1047 3438 
Q 1047 3191 1225 3031 
Q 1400 2872 2139 2705 
Q 2878 2538 3153 2413 
Q 3553 2228 3743 1945 
Q 3934 1663 3934 1294 
Q 3934 928 3725 604 
Q 3516 281 3123 101 
Q 2731 -78 2241 -78 
Q 1619 -78 1198 103 
Q 778 284 539 648 
Q 300 1013 288 1472 
z
" transform="scale(0.015625)"/>
       <path id="ArialMT-63" d="M 2588 1216 
L 3141 1144 
Q 3050 572 2676 248 
Q 2303 -75 1759 -75 
Q 1078 -75 664 370 
Q 250 816 250 1647 
Q 250 2184 428 2587 
Q 606 2991 970 3192 
Q 1334 3394 1763 3394 
Q 2303 3394 2647 3120 
Q 2991 2847 3088 2344 
L 2541 2259 
Q 2463 2594 2264 2762 
Q 2066 2931 1784 2931 
Q 1359 2931 1093 2626 
Q 828 2322 828 1663 
Q 828 994 1084 691 
Q 1341 388 1753 388 
Q 2084 388 2306 591 
Q 2528 794 2588 1216 
z
" transform="scale(0.015625)"/>
      </defs>
      <use xlink:href="#ArialMT-41"/>
      <use xlink:href="#ArialMT-67" x="66.699219"/>
      <use xlink:href="#ArialMT-67" x="122.314453"/>
      <use xlink:href="#ArialMT-72" x="177.929688"/>
      <use xlink:href="#ArialMT-65" x="211.230469"/>
      <use xlink:href="#ArialMT-67" x="266.845703"/>
      <use xlink:href="#ArialMT-61" x="322.460938"/>
      <use xlink:href="#ArialMT-74" x="378.076172"/>
      <use xlink:href="#ArialMT-65" x="405.859375"/>
      <use xlink:href="#ArialMT-64" x="461.474609"/>
      <use xlink:href="#ArialMT-20" x="517.089844"/>
      <use xlink:href="#ArialMT-41" x="539.373047"/>
      <use xlink:href="#ArialMT-52" x="606.072266"/>
      <use xlink:href="#ArialMT-49" x="678.289062"/>
      <use xlink:href="#ArialMT-20" x="706.072266"/>
      <use xlink:href="#ArialMT-53" x="733.855469"/>
      <use xlink:href="#ArialMT-63" x="800.554688"/>
      <use xlink:href="#ArialMT-6f" x="850.554688"/>
      <use xlink:href="#ArialMT-72" x="906.169922"/>
      <use xlink:href="#ArialMT-65" x="939.470703"/>
      <use xlink:href="#ArialMT-73" x="995.085938"/>
     </g>
    </g>
   </g>
   <g id="line2d_13">
    <path d="M 44.96 289.219012 
L 62.9235 295.87831 
L 80.887 284.280179 
L 98.8505 282.807511 
L 116.814 277.546823 
L 134.7775 283.629083 
L 152.741 271.206863 
L 170.7045 276.927583 
L 188.668 266.068411 
L 206.6315 261.801284 
L 224.595 260.281693 
L 242.5585 254.847935 
L 260.522 256.747648 
L 278.4855 255.877764 
L 296.449 260.447799 
L 314.4125 254.942808 
L 332.376 249.19693 
L 350.3395 254.012713 
L 368.303 249.56125 
L 386.2665 250.781846 
L 404.23 249.078395 
L 422.1935 247.36342 
L 440.157 241.575817 
L 458.1205 243.224415 
L 476.084 241.258549 
L 494.0475 241.012267 
L 512.011 241.558285 
L 529.9745 238.950102 
L 547.938 233.528546 
L 565.9015 233.084065 
L 583.865 233.307347 
L 601.8285 229.573287 
L 619.792 226.220893 
L 637.7555 229.009511 
L 655.719 225.170619 
L 673.6825 229.571418 
L 691.646 220.585701 
L 709.6095 225.647992 
L 727.573 225.25344 
L 745.5365 226.42046 
L 763.5 223.394761 
L 781.4635 223.955611 
L 799.427 215.532727 
L 817.3905 215.374072 
L 835.354 224.898807 
L 853.3175 220.35019 
L 871.281 216.717864 
L 889.2445 213.748147 
L 907.208 216.489124 
L 925.1715 210.420314 
L 943.135 210.35976 
" clip-path="url(#p35a1054eef)" style="fill: none; stroke: #1f77b4; stroke-width: 1.5; stroke-linecap: square"/>
   </g>
   <g id="line2d_14">
    <path d="M 44.96 346.209986 
L 62.9235 352.46076 
L 80.887 353.132525 
L 98.8505 349.835731 
L 116.814 345.962698 
L 134.7775 343.845263 
L 152.741 353.464338 
L 170.7045 344.769975 
L 188.668 349.395769 
L 206.6315 348.565863 
L 224.595 326.468706 
L 242.5585 343.515923 
L 260.522 342.385066 
L 278.4855 345.273007 
L 296.449 336.167922 
L 314.4125 338.179765 
L 332.376 332.209292 
L 350.3395 330.026176 
L 368.303 328.731891 
L 386.2665 330.681686 
L 404.23 336.41498 
L 422.1935 330.662001 
L 440.157 322.237401 
L 458.1205 317.096302 
L 476.084 337.694591 
L 494.0475 319.474726 
L 512.011 329.463202 
L 529.9745 321.534487 
L 547.938 319.032143 
L 565.9015 317.188194 
L 583.865 306.900844 
L 601.8285 308.210628 
L 619.792 314.812628 
L 637.7555 312.556728 
L 655.719 312.589371 
L 673.6825 321.019156 
L 691.646 318.508656 
L 709.6095 315.413466 
L 727.573 303.924699 
L 745.5365 313.84282 
L 763.5 306.582213 
L 781.4635 311.798107 
L 799.427 308.900426 
L 817.3905 302.55194 
L 835.354 308.52564 
L 853.3175 313.743057 
L 871.281 290.881707 
L 889.2445 300.497878 
L 907.208 296.790913 
L 925.1715 297.595183 
L 943.135 296.744622 
" clip-path="url(#p35a1054eef)" style="fill: none; stroke: #aec7e8; stroke-width: 1.5; stroke-linecap: square"/>
   </g>
   <g id="line2d_15">
    <path d="M 44.96 272.023866 
L 62.9235 268.63925 
L 80.887 268.30122 
L 98.8505 263.955304 
L 116.814 260.719528 
L 134.7775 260.573266 
L 152.741 256.516666 
L 170.7045 253.426565 
L 188.668 253.088138 
L 206.6315 250.756532 
L 224.595 251.143048 
L 242.5585 249.897131 
L 260.522 249.669814 
L 278.4855 250.495172 
L 296.449 248.392752 
L 314.4125 248.846688 
L 332.376 244.57532 
L 350.3395 243.485606 
L 368.303 239.786876 
L 386.2665 237.902275 
L 404.23 237.096485 
L 422.1935 234.55983 
L 440.157 230.911134 
L 458.1205 227.376104 
L 476.084 220.515723 
L 494.0475 221.480337 
L 512.011 219.715639 
L 529.9745 218.395496 
L 547.938 217.628997 
L 565.9015 218.944824 
L 583.865 217.237666 
L 601.8285 217.848587 
L 619.792 217.285454 
L 637.7555 215.027666 
L 655.719 214.406356 
L 673.6825 215.747093 
L 691.646 211.61925 
L 709.6095 212.600621 
L 727.573 213.17398 
L 745.5365 212.269578 
L 763.5 209.874074 
L 781.4635 210.369571 
L 799.427 206.968814 
L 817.3905 205.481489 
L 835.354 203.009876 
L 853.3175 203.167467 
L 871.281 202.466327 
L 889.2445 202.626171 
L 907.208 203.108891 
L 925.1715 202.472701 
L 943.135 203.567317 
" clip-path="url(#p35a1054eef)" style="fill: none; stroke: #ffbb78; stroke-width: 1.5; stroke-linecap: square"/>
   </g>
   <g id="line2d_16">
    <path d="M 44.96 272.09382 
L 62.9235 272.356302 
L 80.887 266.343727 
L 98.8505 263.525003 
L 116.814 260.843697 
L 134.7775 259.859935 
L 152.741 263.186753 
L 170.7045 261.27738 
L 188.668 261.7129 
L 206.6315 261.832323 
L 224.595 261.708989 
L 242.5585 261.660628 
L 260.522 262.820763 
L 278.4855 262.565395 
L 296.449 261.950157 
L 314.4125 260.193091 
L 332.376 258.44334 
L 350.3395 256.236031 
L 368.303 255.407259 
L 386.2665 253.274462 
L 404.23 251.551934 
L 422.1935 250.240081 
L 440.157 249.055176 
L 458.1205 248.225321 
L 476.084 246.275008 
L 494.0475 245.537738 
L 512.011 245.681221 
L 529.9745 246.611288 
L 547.938 243.073285 
L 565.9015 241.078158 
L 583.865 238.769165 
L 601.8285 239.633874 
L 619.792 237.141612 
L 637.7555 231.988231 
L 655.719 231.388246 
L 673.6825 228.532012 
L 691.646 225.799175 
L 709.6095 228.324977 
L 727.573 227.665379 
L 745.5365 228.815982 
L 763.5 227.647702 
L 781.4635 227.907084 
L 799.427 225.526941 
L 817.3905 227.245944 
L 835.354 225.407586 
L 853.3175 223.377307 
L 871.281 223.388466 
L 889.2445 221.92226 
L 907.208 224.205992 
L 925.1715 224.534643 
L 943.135 223.538275 
" clip-path="url(#p35a1054eef)" style="fill: none; stroke: #98df8a; stroke-width: 1.5; stroke-linecap: square"/>
   </g>
   <g id="line2d_17">
    <path d="M 44.96 283.155532 
L 62.9235 281.923011 
L 80.887 278.069735 
L 98.8505 279.013431 
L 116.814 274.496909 
L 134.7775 276.875095 
L 152.741 275.701557 
L 170.7045 275.316849 
L 188.668 274.161157 
L 206.6315 273.232393 
L 224.595 270.453088 
L 242.5585 270.111898 
L 260.522 270.460017 
L 278.4855 271.005999 
L 296.449 271.014537 
L 314.4125 269.415725 
L 332.376 268.219808 
L 350.3395 269.281655 
L 368.303 267.048456 
L 386.2665 264.454749 
L 404.23 263.722183 
L 422.1935 261.036125 
L 440.157 261.052362 
L 458.1205 259.299337 
L 476.084 256.870414 
L 494.0475 258.585281 
L 512.011 256.895282 
L 529.9745 257.41065 
L 547.938 252.921776 
L 565.9015 251.87672 
L 583.865 252.196647 
L 601.8285 251.023348 
L 619.792 249.521047 
L 637.7555 249.952269 
L 655.719 250.957225 
L 673.6825 246.997888 
L 691.646 247.95531 
L 709.6095 245.272062 
L 727.573 243.36321 
L 745.5365 241.755756 
L 763.5 241.2426 
L 781.4635 239.053076 
L 799.427 240.00115 
L 817.3905 240.875474 
L 835.354 237.690763 
L 853.3175 238.648056 
L 871.281 237.794635 
L 889.2445 238.341718 
L 907.208 237.50498 
L 925.1715 237.896346 
L 943.135 236.563029 
" clip-path="url(#p35a1054eef)" style="fill: none; stroke: #ff9896; stroke-width: 1.5; stroke-linecap: square"/>
   </g>
   <g id="line2d_18">
    <path d="M 44.96 282.748326 
L 62.9235 278.824299 
L 80.887 277.787046 
L 98.8505 272.697826 
L 116.814 269.722821 
L 134.7775 266.985266 
L 152.741 265.933557 
L 170.7045 266.432041 
L 188.668 264.228018 
L 206.6315 261.467645 
L 224.595 254.574929 
L 242.5585 256.388051 
L 260.522 249.026044 
L 278.4855 247.97613 
L 296.449 246.617334 
L 314.4125 243.734168 
L 332.376 240.513054 
L 350.3395 237.432089 
L 368.303 235.630874 
L 386.2665 234.186448 
L 404.23 232.890375 
L 422.1935 228.420213 
L 440.157 227.588667 
L 458.1205 227.89596 
L 476.084 226.569986 
L 494.0475 222.671777 
L 512.011 219.126733 
L 529.9745 220.426464 
L 547.938 217.004002 
L 565.9015 215.765296 
L 583.865 214.485485 
L 601.8285 210.606501 
L 619.792 210.373041 
L 637.7555 208.807796 
L 655.719 208.337906 
L 673.6825 207.553689 
L 691.646 205.880153 
L 709.6095 204.768397 
L 727.573 201.851061 
L 745.5365 201.552218 
L 763.5 202.340276 
L 781.4635 200.442725 
L 799.427 201.390107 
L 817.3905 202.319116 
L 835.354 200.898696 
L 853.3175 201.154966 
L 871.281 200.599937 
L 889.2445 201.374929 
L 907.208 200.258156 
L 925.1715 200.848975 
L 943.135 200.024302 
" clip-path="url(#p35a1054eef)" style="fill: none; stroke: #c5b0d5; stroke-width: 1.5; stroke-linecap: square"/>
   </g>
   <g id="line2d_19">
    <path d="M 44.96 277.729824 
L 62.9235 277.494974 
L 80.887 276.721404 
L 98.8505 274.097341 
L 116.814 269.606486 
L 134.7775 269.596586 
L 152.741 268.297886 
L 170.7045 266.474625 
L 188.668 262.889331 
L 206.6315 261.379521 
L 224.595 259.28315 
L 242.5585 259.093914 
L 260.522 255.250134 
L 278.4855 255.651746 
L 296.449 247.91551 
L 314.4125 248.720404 
L 332.376 243.337152 
L 350.3395 244.525731 
L 368.303 243.35523 
L 386.2665 239.427994 
L 404.23 242.344608 
L 422.1935 237.035889 
L 440.157 235.547055 
L 458.1205 233.505892 
L 476.084 231.981191 
L 494.0475 230.88849 
L 512.011 228.726288 
L 529.9745 225.961171 
L 547.938 227.669183 
L 565.9015 224.935757 
L 583.865 220.469451 
L 601.8285 220.653953 
L 619.792 218.158773 
L 637.7555 217.77546 
L 655.719 217.678718 
L 673.6825 216.903535 
L 691.646 214.199391 
L 709.6095 215.752555 
L 727.573 212.539057 
L 745.5365 212.963896 
L 763.5 211.976068 
L 781.4635 210.007125 
L 799.427 208.322073 
L 817.3905 206.258489 
L 835.354 206.914547 
L 853.3175 206.44017 
L 871.281 204.532343 
L 889.2445 205.348181 
L 907.208 204.102835 
L 925.1715 201.728381 
L 943.135 200.889606 
" clip-path="url(#p35a1054eef)" style="fill: none; stroke: #8c564b; stroke-width: 1.5; stroke-linecap: square"/>
   </g>
   <g id="line2d_20">
    <path d="M 44.96 280.030768 
L 62.9235 274.643276 
L 80.887 271.498555 
L 98.8505 273.157065 
L 116.814 268.079174 
L 134.7775 271.511703 
L 152.741 269.906106 
L 170.7045 264.719221 
L 188.668 263.991029 
L 206.6315 264.28958 
L 224.595 258.248631 
L 242.5585 256.269402 
L 260.522 248.398236 
L 278.4855 248.140814 
L 296.449 248.838975 
L 314.4125 244.187344 
L 332.376 244.725393 
L 350.3395 244.74128 
L 368.303 242.530041 
L 386.2665 240.89174 
L 404.23 237.958268 
L 422.1935 237.606064 
L 440.157 236.552194 
L 458.1205 232.629774 
L 476.084 230.068301 
L 494.0475 227.987809 
L 512.011 222.570706 
L 529.9745 220.720274 
L 547.938 219.20311 
L 565.9015 217.979181 
L 583.865 216.909065 
L 601.8285 215.510667 
L 619.792 215.495759 
L 637.7555 213.900994 
L 655.719 212.256372 
L 673.6825 212.039819 
L 691.646 211.64206 
L 709.6095 210.085868 
L 727.573 210.237734 
L 745.5365 208.164564 
L 763.5 208.352485 
L 781.4635 207.604927 
L 799.427 207.466595 
L 817.3905 204.413393 
L 835.354 205.489387 
L 853.3175 204.242419 
L 871.281 202.802058 
L 889.2445 200.512579 
L 907.208 200.715839 
L 925.1715 200.471076 
L 943.135 197.894851 
" clip-path="url(#p35a1054eef)" style="fill: none; stroke: #e377c2; stroke-width: 1.5; stroke-linecap: square"/>
   </g>
   <g id="line2d_21">
    <path d="M 44.96 257.485127 
L 62.9235 255.198364 
L 80.887 252.096953 
L 98.8505 248.43477 
L 116.814 246.720324 
L 134.7775 242.027042 
L 152.741 238.331226 
L 170.7045 234.361313 
L 188.668 231.057417 
L 206.6315 228.372731 
L 224.595 228.138371 
L 242.5585 226.213561 
L 260.522 224.577018 
L 278.4855 221.236696 
L 296.449 219.986926 
L 314.4125 217.512962 
L 332.376 218.116862 
L 350.3395 213.031212 
L 368.303 212.4515 
L 386.2665 210.78708 
L 404.23 211.022225 
L 422.1935 212.478412 
L 440.157 209.753633 
L 458.1205 209.637248 
L 476.084 209.203094 
L 494.0475 207.237328 
L 512.011 204.42573 
L 529.9745 205.191829 
L 547.938 202.135574 
L 565.9015 202.778586 
L 583.865 201.829633 
L 601.8285 201.763796 
L 619.792 202.220238 
L 637.7555 201.474497 
L 655.719 201.591257 
L 673.6825 202.327138 
L 691.646 201.254999 
L 709.6095 201.169277 
L 727.573 201.274246 
L 745.5365 203.167669 
L 763.5 201.564081 
L 781.4635 201.388706 
L 799.427 199.348237 
L 817.3905 200.089385 
L 835.354 200.209544 
L 853.3175 198.998582 
L 871.281 199.931334 
L 889.2445 202.723836 
L 907.208 200.969257 
L 925.1715 201.409383 
L 943.135 202.347745 
" clip-path="url(#p35a1054eef)" style="fill: none; stroke: #7f7f7f; stroke-width: 1.5; stroke-linecap: square"/>
   </g>
   <g id="line2d_22">
    <path d="M 44.96 263.935321 
L 62.9235 263.265093 
L 80.887 258.400685 
L 98.8505 256.542903 
L 116.814 254.913474 
L 134.7775 250.231174 
L 152.741 248.143917 
L 170.7045 245.506066 
L 188.668 242.026752 
L 206.6315 240.895128 
L 224.595 238.919223 
L 242.5585 240.665503 
L 260.522 237.769167 
L 278.4855 239.400505 
L 296.449 239.916347 
L 314.4125 235.76085 
L 332.376 232.19124 
L 350.3395 229.778724 
L 368.303 230.395512 
L 386.2665 228.201254 
L 404.23 227.6494 
L 422.1935 225.299859 
L 440.157 224.93124 
L 458.1205 222.911025 
L 476.084 221.607395 
L 494.0475 221.249627 
L 512.011 220.267209 
L 529.9745 217.800674 
L 547.938 218.431057 
L 565.9015 215.999008 
L 583.865 213.797812 
L 601.8285 213.058271 
L 619.792 210.372177 
L 637.7555 210.285714 
L 655.719 210.387896 
L 673.6825 211.722837 
L 691.646 209.651754 
L 709.6095 209.420152 
L 727.573 208.575882 
L 745.5365 207.232513 
L 763.5 206.881296 
L 781.4635 206.178273 
L 799.427 206.309373 
L 817.3905 206.223534 
L 835.354 203.743666 
L 853.3175 203.674807 
L 871.281 202.289603 
L 889.2445 204.135646 
L 907.208 203.288406 
L 925.1715 203.076242 
L 943.135 199.932506 
" clip-path="url(#p35a1054eef)" style="fill: none; stroke: #bcbd22; stroke-width: 1.5; stroke-linecap: square"/>
   </g>
   <g id="line2d_23">
    <path d="M 44.96 258.948591 
L 62.9235 258.903611 
L 80.887 261.647004 
L 98.8505 261.644436 
L 116.814 260.281769 
L 134.7775 258.538897 
L 152.741 258.99069 
L 170.7045 258.077302 
L 188.668 257.761992 
L 206.6315 256.512518 
L 224.595 254.316506 
L 242.5585 253.37355 
L 260.522 253.921899 
L 278.4855 253.473061 
L 296.449 253.163792 
L 314.4125 250.392672 
L 332.376 249.645596 
L 350.3395 250.44804 
L 368.303 250.166312 
L 386.2665 247.890432 
L 404.23 247.307797 
L 422.1935 244.196498 
L 440.157 241.015545 
L 458.1205 239.090048 
L 476.084 238.214576 
L 494.0475 235.927682 
L 512.011 235.566953 
L 529.9745 235.280791 
L 547.938 232.240067 
L 565.9015 232.483525 
L 583.865 232.062972 
L 601.8285 230.383806 
L 619.792 229.108841 
L 637.7555 228.85441 
L 655.719 227.565733 
L 673.6825 226.160317 
L 691.646 223.843964 
L 709.6095 220.116403 
L 727.573 220.070834 
L 745.5365 217.850604 
L 763.5 215.266132 
L 781.4635 215.417629 
L 799.427 213.735536 
L 817.3905 212.162156 
L 835.354 210.702249 
L 853.3175 210.578016 
L 871.281 211.69588 
L 889.2445 210.129088 
L 907.208 210.719161 
L 925.1715 210.715908 
L 943.135 209.082134 
" clip-path="url(#p35a1054eef)" style="fill: none; stroke: #17becf; stroke-width: 1.5; stroke-linecap: square"/>
   </g>
   <g id="line2d_24">
    <path d="M 44.96 282.01821 
L 62.9235 275.30672 
L 80.887 277.033685 
L 98.8505 275.430074 
L 116.814 271.763217 
L 134.7775 270.851213 
L 152.741 271.383437 
L 170.7045 267.326604 
L 188.668 267.366658 
L 206.6315 264.171668 
L 224.595 261.645422 
L 242.5585 260.836575 
L 260.522 260.26325 
L 278.4855 259.659928 
L 296.449 258.337477 
L 314.4125 255.003413 
L 332.376 254.28807 
L 350.3395 253.130135 
L 368.303 250.444941 
L 386.2665 250.044061 
L 404.23 247.285975 
L 422.1935 244.80794 
L 440.157 245.624819 
L 458.1205 242.06204 
L 476.084 239.861832 
L 494.0475 240.328679 
L 512.011 235.980961 
L 529.9745 235.152176 
L 547.938 233.359656 
L 565.9015 233.821459 
L 583.865 233.494513 
L 601.8285 236.204879 
L 619.792 232.936088 
L 637.7555 230.953421 
L 655.719 228.32233 
L 673.6825 227.645911 
L 691.646 224.616166 
L 709.6095 222.810191 
L 727.573 220.49873 
L 745.5365 221.2573 
L 763.5 221.410484 
L 781.4635 219.217857 
L 799.427 219.477392 
L 817.3905 218.994341 
L 835.354 217.498276 
L 853.3175 217.229099 
L 871.281 216.854329 
L 889.2445 216.973411 
L 907.208 216.271888 
L 925.1715 213.49893 
L 943.135 212.485992 
" clip-path="url(#p35a1054eef)" style="fill: none; stroke: #9edae5; stroke-width: 1.5; stroke-linecap: square"/>
   </g>
   <g id="patch_3">
    <path d="M 44.96 608.2 
L 44.96 30.748 
" style="fill: none; stroke: #000000; stroke-width: 0.8; stroke-linejoin: miter; stroke-linecap: square"/>
   </g>
   <g id="patch_4">
    <path d="M 943.135 608.2 
L 943.135 30.748 
" style="fill: none; stroke: #000000; stroke-width: 0.8; stroke-linejoin: miter; stroke-linecap: square"/>
   </g>
   <g id="patch_5">
    <path d="M 44.96 608.2 
L 943.135 608.2 
" style="fill: none; stroke: #000000; stroke-width: 0.8; stroke-linejoin: miter; stroke-linecap: square"/>
   </g>
   <g id="patch_6">
    <path d="M 44.96 30.748 
L 943.135 30.748 
" style="fill: none; stroke: #000000; stroke-width: 0.8; stroke-linejoin: miter; stroke-linecap: square"/>
   </g>
   <g id="text_15">
    <!-- ARI Scores by Number of Baits for Each Method -->
    <g transform="translate(365.3325 24.748) scale(0.12 -0.12)">
     <defs>
      <path id="ArialMT-79" d="M 397 -1278 
L 334 -750 
Q 519 -800 656 -800 
Q 844 -800 956 -737 
Q 1069 -675 1141 -563 
Q 1194 -478 1313 -144 
Q 1328 -97 1363 -6 
L 103 3319 
L 709 3319 
L 1400 1397 
Q 1534 1031 1641 628 
Q 1738 1016 1872 1384 
L 2581 3319 
L 3144 3319 
L 1881 -56 
Q 1678 -603 1566 -809 
Q 1416 -1088 1222 -1217 
Q 1028 -1347 759 -1347 
Q 597 -1347 397 -1278 
z
" transform="scale(0.015625)"/>
      <path id="ArialMT-45" d="M 506 0 
L 506 4581 
L 3819 4581 
L 3819 4041 
L 1113 4041 
L 1113 2638 
L 3647 2638 
L 3647 2100 
L 1113 2100 
L 1113 541 
L 3925 541 
L 3925 0 
L 506 0 
z
" transform="scale(0.015625)"/>
      <path id="ArialMT-68" d="M 422 0 
L 422 4581 
L 984 4581 
L 984 2938 
Q 1378 3394 1978 3394 
Q 2347 3394 2619 3248 
Q 2891 3103 3008 2847 
Q 3125 2591 3125 2103 
L 3125 0 
L 2563 0 
L 2563 2103 
Q 2563 2525 2380 2717 
Q 2197 2909 1863 2909 
Q 1613 2909 1392 2779 
Q 1172 2650 1078 2428 
Q 984 2206 984 1816 
L 984 0 
L 422 0 
z
" transform="scale(0.015625)"/>
      <path id="ArialMT-4d" d="M 475 0 
L 475 4581 
L 1388 4581 
L 2472 1338 
Q 2622 884 2691 659 
Q 2769 909 2934 1394 
L 4031 4581 
L 4847 4581 
L 4847 0 
L 4263 0 
L 4263 3834 
L 2931 0 
L 2384 0 
L 1059 3900 
L 1059 0 
L 475 0 
z
" transform="scale(0.015625)"/>
     </defs>
     <use xlink:href="#ArialMT-41"/>
     <use xlink:href="#ArialMT-52" x="66.699219"/>
     <use xlink:href="#ArialMT-49" x="138.916016"/>
     <use xlink:href="#ArialMT-20" x="166.699219"/>
     <use xlink:href="#ArialMT-53" x="194.482422"/>
     <use xlink:href="#ArialMT-63" x="261.181641"/>
     <use xlink:href="#ArialMT-6f" x="311.181641"/>
     <use xlink:href="#ArialMT-72" x="366.796875"/>
     <use xlink:href="#ArialMT-65" x="400.097656"/>
     <use xlink:href="#ArialMT-73" x="455.712891"/>
     <use xlink:href="#ArialMT-20" x="505.712891"/>
     <use xlink:href="#ArialMT-62" x="533.496094"/>
     <use xlink:href="#ArialMT-79" x="589.111328"/>
     <use xlink:href="#ArialMT-20" x="639.111328"/>
     <use xlink:href="#ArialMT-4e" x="666.894531"/>
     <use xlink:href="#ArialMT-75" x="739.111328"/>
     <use xlink:href="#ArialMT-6d" x="794.726562"/>
     <use xlink:href="#ArialMT-62" x="878.027344"/>
     <use xlink:href="#ArialMT-65" x="933.642578"/>
     <use xlink:href="#ArialMT-72" x="989.257812"/>
     <use xlink:href="#ArialMT-20" x="1022.558594"/>
     <use xlink:href="#ArialMT-6f" x="1050.341797"/>
     <use xlink:href="#ArialMT-66" x="1105.957031"/>
     <use xlink:href="#ArialMT-20" x="1133.740234"/>
     <use xlink:href="#ArialMT-42" x="1161.523438"/>
     <use xlink:href="#ArialMT-61" x="1228.222656"/>
     <use xlink:href="#ArialMT-69" x="1283.837891"/>
     <use xlink:href="#ArialMT-74" x="1306.054688"/>
     <use xlink:href="#ArialMT-73" x="1333.837891"/>
     <use xlink:href="#ArialMT-20" x="1383.837891"/>
     <use xlink:href="#ArialMT-66" x="1411.621094"/>
     <use xlink:href="#ArialMT-6f" x="1439.404297"/>
     <use xlink:href="#ArialMT-72" x="1495.019531"/>
     <use xlink:href="#ArialMT-20" x="1528.320312"/>
     <use xlink:href="#ArialMT-45" x="1556.103516"/>
     <use xlink:href="#ArialMT-61" x="1622.802734"/>
     <use xlink:href="#ArialMT-63" x="1678.417969"/>
     <use xlink:href="#ArialMT-68" x="1728.417969"/>
     <use xlink:href="#ArialMT-20" x="1784.033203"/>
     <use xlink:href="#ArialMT-4d" x="1811.816406"/>
     <use xlink:href="#ArialMT-65" x="1895.117188"/>
     <use xlink:href="#ArialMT-74" x="1950.732422"/>
     <use xlink:href="#ArialMT-68" x="1978.515625"/>
     <use xlink:href="#ArialMT-6f" x="2034.130859"/>
     <use xlink:href="#ArialMT-64" x="2089.746094"/>
    </g>
   </g>
   <g id="legend_1">
    <g id="patch_7">
     <path d="M 950.135 180.24415 
L 1067.174063 180.24415 
Q 1069.174063 180.24415 1069.174063 178.24415 
L 1069.174063 8.8754 
Q 1069.174063 6.8754 1067.174063 6.8754 
L 950.135 6.8754 
Q 948.135 6.8754 948.135 8.8754 
L 948.135 178.24415 
Q 948.135 180.24415 950.135 180.24415 
z
" style="fill: #ffffff; opacity: 0.8; stroke: #cccccc; stroke-linejoin: miter"/>
    </g>
    <g id="line2d_25">
     <path d="M 952.135 14.533212 
L 962.135 14.533212 
L 972.135 14.533212 
" style="fill: none; stroke: #1f77b4; stroke-width: 1.5; stroke-linecap: square"/>
    </g>
    <g id="text_16">
     <!-- GA -->
     <g transform="translate(980.135 18.033212) scale(0.1 -0.1)">
      <defs>
       <path id="ArialMT-47" d="M 2638 1797 
L 2638 2334 
L 4578 2338 
L 4578 638 
Q 4131 281 3656 101 
Q 3181 -78 2681 -78 
Q 2006 -78 1454 211 
Q 903 500 622 1047 
Q 341 1594 341 2269 
Q 341 2938 620 3517 
Q 900 4097 1425 4378 
Q 1950 4659 2634 4659 
Q 3131 4659 3532 4498 
Q 3934 4338 4162 4050 
Q 4391 3763 4509 3300 
L 3963 3150 
Q 3859 3500 3706 3700 
Q 3553 3900 3268 4020 
Q 2984 4141 2638 4141 
Q 2222 4141 1919 4014 
Q 1616 3888 1430 3681 
Q 1244 3475 1141 3228 
Q 966 2803 966 2306 
Q 966 1694 1177 1281 
Q 1388 869 1791 669 
Q 2194 469 2647 469 
Q 3041 469 3416 620 
Q 3791 772 3984 944 
L 3984 1797 
L 2638 1797 
z
" transform="scale(0.015625)"/>
      </defs>
      <use xlink:href="#ArialMT-47"/>
      <use xlink:href="#ArialMT-41" x="77.783203"/>
     </g>
    </g>
    <g id="line2d_26">
     <path d="M 952.135 28.678525 
L 962.135 28.678525 
L 972.135 28.678525 
" style="fill: none; stroke: #aec7e8; stroke-width: 1.5; stroke-linecap: square"/>
    </g>
    <g id="text_17">
     <!-- Random -->
     <g transform="translate(980.135 32.178525) scale(0.1 -0.1)">
      <defs>
       <path id="ArialMT-6e" d="M 422 0 
L 422 3319 
L 928 3319 
L 928 2847 
Q 1294 3394 1984 3394 
Q 2284 3394 2536 3286 
Q 2788 3178 2913 3003 
Q 3038 2828 3088 2588 
Q 3119 2431 3119 2041 
L 3119 0 
L 2556 0 
L 2556 2019 
Q 2556 2363 2490 2533 
Q 2425 2703 2258 2804 
Q 2091 2906 1866 2906 
Q 1506 2906 1245 2678 
Q 984 2450 984 1813 
L 984 0 
L 422 0 
z
" transform="scale(0.015625)"/>
      </defs>
      <use xlink:href="#ArialMT-52"/>
      <use xlink:href="#ArialMT-61" x="72.216797"/>
      <use xlink:href="#ArialMT-6e" x="127.832031"/>
      <use xlink:href="#ArialMT-64" x="183.447266"/>
      <use xlink:href="#ArialMT-6f" x="239.0625"/>
      <use xlink:href="#ArialMT-6d" x="294.677734"/>
     </g>
    </g>
    <g id="line2d_27">
     <path d="M 952.135 42.853525 
L 962.135 42.853525 
L 972.135 42.853525 
" style="fill: none; stroke: #ffbb78; stroke-width: 1.5; stroke-linecap: square"/>
    </g>
    <g id="text_18">
     <!-- chi_2 -->
     <g transform="translate(980.135 46.353525) scale(0.1 -0.1)">
      <defs>
       <path id="ArialMT-5f" d="M -97 -1272 
L -97 -866 
L 3631 -866 
L 3631 -1272 
L -97 -1272 
z
" transform="scale(0.015625)"/>
      </defs>
      <use xlink:href="#ArialMT-63"/>
      <use xlink:href="#ArialMT-68" x="50"/>
      <use xlink:href="#ArialMT-69" x="105.615234"/>
      <use xlink:href="#ArialMT-5f" x="127.832031"/>
      <use xlink:href="#ArialMT-32" x="183.447266"/>
     </g>
    </g>
    <g id="line2d_28">
     <path d="M 952.135 57.120712 
L 962.135 57.120712 
L 972.135 57.120712 
" style="fill: none; stroke: #98df8a; stroke-width: 1.5; stroke-linecap: square"/>
    </g>
    <g id="text_19">
     <!-- f_classif -->
     <g transform="translate(980.135 60.620712) scale(0.1 -0.1)">
      <defs>
       <path id="ArialMT-6c" d="M 409 0 
L 409 4581 
L 972 4581 
L 972 0 
L 409 0 
z
" transform="scale(0.015625)"/>
      </defs>
      <use xlink:href="#ArialMT-66"/>
      <use xlink:href="#ArialMT-5f" x="27.783203"/>
      <use xlink:href="#ArialMT-63" x="83.398438"/>
      <use xlink:href="#ArialMT-6c" x="133.398438"/>
      <use xlink:href="#ArialMT-61" x="155.615234"/>
      <use xlink:href="#ArialMT-73" x="211.230469"/>
      <use xlink:href="#ArialMT-73" x="261.230469"/>
      <use xlink:href="#ArialMT-69" x="311.230469"/>
      <use xlink:href="#ArialMT-66" x="333.447266"/>
     </g>
    </g>
    <g id="line2d_29">
     <path d="M 952.135 71.3879 
L 962.135 71.3879 
L 972.135 71.3879 
" style="fill: none; stroke: #ff9896; stroke-width: 1.5; stroke-linecap: square"/>
    </g>
    <g id="text_20">
     <!-- mutual_info_classif -->
     <g transform="translate(980.135 74.8879) scale(0.1 -0.1)">
      <use xlink:href="#ArialMT-6d"/>
      <use xlink:href="#ArialMT-75" x="83.300781"/>
      <use xlink:href="#ArialMT-74" x="138.916016"/>
      <use xlink:href="#ArialMT-75" x="166.699219"/>
      <use xlink:href="#ArialMT-61" x="222.314453"/>
      <use xlink:href="#ArialMT-6c" x="277.929688"/>
      <use xlink:href="#ArialMT-5f" x="300.146484"/>
      <use xlink:href="#ArialMT-69" x="355.761719"/>
      <use xlink:href="#ArialMT-6e" x="377.978516"/>
      <use xlink:href="#ArialMT-66" x="433.59375"/>
      <use xlink:href="#ArialMT-6f" x="461.376953"/>
      <use xlink:href="#ArialMT-5f" x="516.992188"/>
      <use xlink:href="#ArialMT-63" x="572.607422"/>
      <use xlink:href="#ArialMT-6c" x="622.607422"/>
      <use xlink:href="#ArialMT-61" x="644.824219"/>
      <use xlink:href="#ArialMT-73" x="700.439453"/>
      <use xlink:href="#ArialMT-73" x="750.439453"/>
      <use xlink:href="#ArialMT-69" x="800.439453"/>
      <use xlink:href="#ArialMT-66" x="822.65625"/>
     </g>
    </g>
    <g id="line2d_30">
     <path d="M 952.135 85.533212 
L 962.135 85.533212 
L 972.135 85.533212 
" style="fill: none; stroke: #c5b0d5; stroke-width: 1.5; stroke-linecap: square"/>
    </g>
    <g id="text_21">
     <!-- lasso -->
     <g transform="translate(980.135 89.033212) scale(0.1 -0.1)">
      <use xlink:href="#ArialMT-6c"/>
      <use xlink:href="#ArialMT-61" x="22.216797"/>
      <use xlink:href="#ArialMT-73" x="77.832031"/>
      <use xlink:href="#ArialMT-73" x="127.832031"/>
      <use xlink:href="#ArialMT-6f" x="177.832031"/>
     </g>
    </g>
    <g id="line2d_31">
     <path d="M 952.135 99.678525 
L 962.135 99.678525 
L 972.135 99.678525 
" style="fill: none; stroke: #8c564b; stroke-width: 1.5; stroke-linecap: square"/>
    </g>
    <g id="text_22">
     <!-- ridge -->
     <g transform="translate(980.135 103.178525) scale(0.1 -0.1)">
      <use xlink:href="#ArialMT-72"/>
      <use xlink:href="#ArialMT-69" x="33.300781"/>
      <use xlink:href="#ArialMT-64" x="55.517578"/>
      <use xlink:href="#ArialMT-67" x="111.132812"/>
      <use xlink:href="#ArialMT-65" x="166.748047"/>
     </g>
    </g>
    <g id="line2d_32">
     <path d="M 952.135 113.941025 
L 962.135 113.941025 
L 972.135 113.941025 
" style="fill: none; stroke: #e377c2; stroke-width: 1.5; stroke-linecap: square"/>
    </g>
    <g id="text_23">
     <!-- elastic_net -->
     <g transform="translate(980.135 117.441025) scale(0.1 -0.1)">
      <use xlink:href="#ArialMT-65"/>
      <use xlink:href="#ArialMT-6c" x="55.615234"/>
      <use xlink:href="#ArialMT-61" x="77.832031"/>
      <use xlink:href="#ArialMT-73" x="133.447266"/>
      <use xlink:href="#ArialMT-74" x="183.447266"/>
      <use xlink:href="#ArialMT-69" x="211.230469"/>
      <use xlink:href="#ArialMT-63" x="233.447266"/>
      <use xlink:href="#ArialMT-5f" x="283.447266"/>
      <use xlink:href="#ArialMT-6e" x="339.0625"/>
      <use xlink:href="#ArialMT-65" x="394.677734"/>
      <use xlink:href="#ArialMT-74" x="450.292969"/>
     </g>
    </g>
    <g id="line2d_33">
     <path d="M 952.135 128.086338 
L 962.135 128.086338 
L 972.135 128.086338 
" style="fill: none; stroke: #7f7f7f; stroke-width: 1.5; stroke-linecap: square"/>
    </g>
    <g id="text_24">
     <!-- rf -->
     <g transform="translate(980.135 131.586338) scale(0.1 -0.1)">
      <use xlink:href="#ArialMT-72"/>
      <use xlink:href="#ArialMT-66" x="33.300781"/>
     </g>
    </g>
    <g id="line2d_34">
     <path d="M 952.135 142.23165 
L 962.135 142.23165 
L 972.135 142.23165 
" style="fill: none; stroke: #bcbd22; stroke-width: 1.5; stroke-linecap: square"/>
    </g>
    <g id="text_25">
     <!-- gbm -->
     <g transform="translate(980.135 145.73165) scale(0.1 -0.1)">
      <use xlink:href="#ArialMT-67"/>
      <use xlink:href="#ArialMT-62" x="55.615234"/>
      <use xlink:href="#ArialMT-6d" x="111.230469"/>
     </g>
    </g>
    <g id="line2d_35">
     <path d="M 952.135 156.49415 
L 962.135 156.49415 
L 972.135 156.49415 
" style="fill: none; stroke: #17becf; stroke-width: 1.5; stroke-linecap: square"/>
    </g>
    <g id="text_26">
     <!-- xgb -->
     <g transform="translate(980.135 159.99415) scale(0.1 -0.1)">
      <defs>
       <path id="ArialMT-78" d="M 47 0 
L 1259 1725 
L 138 3319 
L 841 3319 
L 1350 2541 
Q 1494 2319 1581 2169 
Q 1719 2375 1834 2534 
L 2394 3319 
L 3066 3319 
L 1919 1756 
L 3153 0 
L 2463 0 
L 1781 1031 
L 1600 1309 
L 728 0 
L 47 0 
z
" transform="scale(0.015625)"/>
      </defs>
      <use xlink:href="#ArialMT-78"/>
      <use xlink:href="#ArialMT-67" x="50"/>
      <use xlink:href="#ArialMT-62" x="105.615234"/>
     </g>
    </g>
    <g id="line2d_36">
     <path d="M 952.135 170.75665 
L 962.135 170.75665 
L 972.135 170.75665 
" style="fill: none; stroke: #9edae5; stroke-width: 1.5; stroke-linecap: square"/>
    </g>
    <g id="text_27">
     <!-- nn -->
     <g transform="translate(980.135 174.25665) scale(0.1 -0.1)">
      <use xlink:href="#ArialMT-6e"/>
      <use xlink:href="#ArialMT-6e" x="55.615234"/>
     </g>
    </g>
   </g>
  </g>
 </g>
 <defs>
  <clipPath id="p35a1054eef">
   <rect x="44.96" y="30.748" width="898.175" height="577.452"/>
  </clipPath>
 </defs>
</svg>
