<?xml version="1.0" encoding="utf-8" standalone="no"?>
<!DOCTYPE svg PUBLIC "-//W3C//DTD SVG 1.1//EN"
  "http://www.w3.org/Graphics/SVG/1.1/DTD/svg11.dtd">
<svg xmlns:xlink="http://www.w3.org/1999/xlink" width="1080pt" height="648pt" viewBox="0 0 1080 648" xmlns="http://www.w3.org/2000/svg" version="1.1">
 <metadata>
  <rdf:RDF xmlns:dc="http://purl.org/dc/elements/1.1/" xmlns:cc="http://creativecommons.org/ns#" xmlns:rdf="http://www.w3.org/1999/02/22-rdf-syntax-ns#">
   <cc:Work>
    <dc:type rdf:resource="http://purl.org/dc/dcmitype/StillImage"/>
    <dc:date>2025-03-16T23:33:28.644515</dc:date>
    <dc:format>image/svg+xml</dc:format>
    <dc:creator>
     <cc:Agent>
      <dc:title>Matplotlib v3.7.2, https://matplotlib.org/</dc:title>
     </cc:Agent>
    </dc:creator>
   </cc:Work>
  </rdf:RDF>
 </metadata>
 <defs>
  <style type="text/css">*{stroke-linejoin: round; stroke-linecap: butt}</style>
 </defs>
 <g id="figure_1">
  <g id="patch_1">
   <path d="M 0 648 
L 1080 648 
L 1080 0 
L 0 0 
z
" style="fill: #ffffff"/>
  </g>
  <g id="axes_1">
   <g id="patch_2">
    <path d="M 44.96 608.2 
L 943.135 608.2 
L 943.135 30.748 
L 44.96 30.748 
z
" style="fill: #ffffff"/>
   </g>
   <g id="PolyCollection_1">
    <defs>
     <path id="m6000e5bf2a" d="M 44.96 -289.975762 
L 44.96 -228.508681 
L 62.9235 -227.578268 
L 80.887 -232.607126 
L 98.8505 -238.077904 
L 116.814 -230.389156 
L 134.7775 -232.490246 
L 152.741 -235.765442 
L 170.7045 -240.983513 
L 188.668 -238.036976 
L 206.6315 -238.12732 
L 224.595 -234.62885 
L 242.5585 -242.956874 
L 260.522 -232.11469 
L 278.4855 -241.266907 
L 296.449 -235.592814 
L 314.4125 -247.720674 
L 332.376 -230.810992 
L 350.3395 -234.814208 
L 368.303 -239.053185 
L 386.2665 -246.368307 
L 404.23 -241.27022 
L 422.1935 -241.359719 
L 440.157 -240.418453 
L 458.1205 -240.349121 
L 476.084 -243.600203 
L 494.0475 -246.518168 
L 512.011 -244.413606 
L 529.9745 -241.584251 
L 547.938 -237.429514 
L 565.9015 -249.800716 
L 583.865 -246.479348 
L 601.8285 -249.63453 
L 619.792 -254.829153 
L 637.7555 -247.418122 
L 655.719 -242.683188 
L 673.6825 -249.138054 
L 691.646 -244.421148 
L 709.6095 -247.643123 
L 727.573 -249.376004 
L 745.5365 -252.539621 
L 763.5 -252.694306 
L 781.4635 -249.335051 
L 799.427 -254.629369 
L 817.3905 -244.919926 
L 835.354 -252.022185 
L 853.3175 -246.064062 
L 871.281 -250.30933 
L 889.2445 -252.527849 
L 907.208 -247.282768 
L 925.1715 -243.344972 
L 943.135 -253.205475 
L 943.135 -314.973847 
L 943.135 -314.973847 
L 925.1715 -338.046932 
L 907.208 -314.17924 
L 889.2445 -322.551465 
L 871.281 -320.461616 
L 853.3175 -336.078636 
L 835.354 -310.323111 
L 817.3905 -330.140532 
L 799.427 -319.519798 
L 781.4635 -314.94567 
L 763.5 -321.158634 
L 745.5365 -325.598128 
L 727.573 -325.608375 
L 709.6095 -315.679734 
L 691.646 -314.847528 
L 673.6825 -312.73405 
L 655.719 -320.365434 
L 637.7555 -311.036628 
L 619.792 -310.455232 
L 601.8285 -323.724659 
L 583.865 -310.761683 
L 565.9015 -315.188691 
L 547.938 -316.915209 
L 529.9745 -313.52803 
L 512.011 -312.30183 
L 494.0475 -311.431428 
L 476.084 -314.514241 
L 458.1205 -301.305779 
L 440.157 -308.649924 
L 422.1935 -307.187604 
L 404.23 -317.133234 
L 386.2665 -288.050992 
L 368.303 -310.482575 
L 350.3395 -296.504686 
L 332.376 -310.955478 
L 314.4125 -294.706716 
L 296.449 -302.736977 
L 278.4855 -310.427762 
L 260.522 -304.256381 
L 242.5585 -304.683118 
L 224.595 -322.347291 
L 206.6315 -302.434529 
L 188.668 -289.155751 
L 170.7045 -307.345304 
L 152.741 -290.56195 
L 134.7775 -297.441457 
L 116.814 -294.054733 
L 98.8505 -300.766443 
L 80.887 -284.337314 
L 62.9235 -293.80622 
L 44.96 -289.975762 
z
" style="stroke: #1f77b4; stroke-opacity: 0.2"/>
    </defs>
    <g clip-path="url(#pb68aaf5a1a)">
     <use xlink:href="#m6000e5bf2a" x="0" y="648" style="fill: #1f77b4; fill-opacity: 0.2; stroke: #1f77b4; stroke-opacity: 0.2"/>
    </g>
   </g>
   <g id="PolyCollection_2">
    <defs>
     <path id="m6b8f504b66" d="M 44.96 -253.271343 
L 44.96 -180.996068 
L 62.9235 -190.180475 
L 80.887 -174.021502 
L 98.8505 -186.370195 
L 116.814 -176.714405 
L 134.7775 -174.539323 
L 152.741 -181.166226 
L 170.7045 -187.470563 
L 188.668 -177.070723 
L 206.6315 -179.624734 
L 224.595 -201.908984 
L 242.5585 -187.209272 
L 260.522 -186.012038 
L 278.4855 -181.401076 
L 296.449 -189.762741 
L 314.4125 -194.11691 
L 332.376 -186.05178 
L 350.3395 -215.129494 
L 368.303 -189.501713 
L 386.2665 -194.183085 
L 404.23 -203.477587 
L 422.1935 -188.621176 
L 440.157 -198.58528 
L 458.1205 -201.412215 
L 476.084 -204.352964 
L 494.0475 -199.118795 
L 512.011 -212.115998 
L 529.9745 -209.423646 
L 547.938 -213.50202 
L 565.9015 -204.716111 
L 583.865 -197.141251 
L 601.8285 -193.631673 
L 619.792 -204.115572 
L 637.7555 -204.035577 
L 655.719 -201.354555 
L 673.6825 -204.342944 
L 691.646 -203.761032 
L 709.6095 -214.602786 
L 727.573 -209.089951 
L 745.5365 -194.514454 
L 763.5 -207.731723 
L 781.4635 -210.534923 
L 799.427 -214.182441 
L 817.3905 -208.445526 
L 835.354 -205.66358 
L 853.3175 -209.654569 
L 871.281 -217.962126 
L 889.2445 -214.790547 
L 907.208 -221.230118 
L 925.1715 -218.494561 
L 943.135 -208.545147 
L 943.135 -274.640151 
L 943.135 -274.640151 
L 925.1715 -285.218795 
L 907.208 -289.043291 
L 889.2445 -279.577506 
L 871.281 -268.985404 
L 853.3175 -269.047999 
L 835.354 -280.504247 
L 817.3905 -268.839523 
L 799.427 -273.146935 
L 781.4635 -269.886282 
L 763.5 -273.386945 
L 745.5365 -272.435906 
L 727.573 -270.775064 
L 709.6095 -265.235905 
L 691.646 -272.088961 
L 673.6825 -270.909294 
L 655.719 -267.440125 
L 637.7555 -268.357636 
L 619.792 -269.511359 
L 601.8285 -269.969398 
L 583.865 -260.077402 
L 565.9015 -255.635609 
L 547.938 -265.879901 
L 529.9745 -266.693506 
L 512.011 -271.700774 
L 494.0475 -267.766485 
L 476.084 -273.452346 
L 458.1205 -275.387697 
L 440.157 -261.546507 
L 422.1935 -250.926287 
L 404.23 -254.058349 
L 386.2665 -265.089458 
L 368.303 -257.934913 
L 350.3395 -264.465573 
L 332.376 -258.579694 
L 314.4125 -251.988849 
L 296.449 -260.431735 
L 278.4855 -238.763467 
L 260.522 -245.083564 
L 242.5585 -258.189783 
L 224.595 -268.254194 
L 206.6315 -265.140918 
L 188.668 -232.866065 
L 170.7045 -261.285291 
L 152.741 -255.876585 
L 134.7775 -254.680791 
L 116.814 -254.820872 
L 98.8505 -262.023077 
L 80.887 -256.468954 
L 62.9235 -254.174472 
L 44.96 -253.271343 
z
" style="stroke: #aec7e8; stroke-opacity: 0.2"/>
    </defs>
    <g clip-path="url(#pb68aaf5a1a)">
     <use xlink:href="#m6b8f504b66" x="0" y="648" style="fill: #aec7e8; fill-opacity: 0.2; stroke: #aec7e8; stroke-opacity: 0.2"/>
    </g>
   </g>
   <g id="PolyCollection_3">
    <defs>
     <path id="mbfecf487b9" d="M 44.96 -307.581972 
L 44.96 -237.273248 
L 62.9235 -239.837066 
L 80.887 -237.34678 
L 98.8505 -243.38812 
L 116.814 -250.104061 
L 134.7775 -240.947601 
L 152.741 -245.869886 
L 170.7045 -241.753715 
L 188.668 -239.867488 
L 206.6315 -237.142312 
L 224.595 -244.530173 
L 242.5585 -240.14649 
L 260.522 -241.44306 
L 278.4855 -246.829108 
L 296.449 -240.960083 
L 314.4125 -245.609021 
L 332.376 -247.511828 
L 350.3395 -233.648821 
L 368.303 -242.83112 
L 386.2665 -246.747464 
L 404.23 -238.285701 
L 422.1935 -244.728162 
L 440.157 -241.833888 
L 458.1205 -237.696027 
L 476.084 -238.166353 
L 494.0475 -237.737729 
L 512.011 -239.898644 
L 529.9745 -238.771281 
L 547.938 -250.308663 
L 565.9015 -243.717132 
L 583.865 -244.477791 
L 601.8285 -241.492967 
L 619.792 -240.948035 
L 637.7555 -238.742031 
L 655.719 -239.94246 
L 673.6825 -237.128769 
L 691.646 -238.998202 
L 709.6095 -241.80523 
L 727.573 -242.824303 
L 745.5365 -236.609404 
L 763.5 -244.731061 
L 781.4635 -240.438349 
L 799.427 -251.818717 
L 817.3905 -243.939791 
L 835.354 -248.828657 
L 853.3175 -243.942367 
L 871.281 -250.184346 
L 889.2445 -250.990115 
L 907.208 -250.90413 
L 925.1715 -253.361008 
L 943.135 -249.543583 
L 943.135 -333.408813 
L 943.135 -333.408813 
L 925.1715 -313.286713 
L 907.208 -313.55503 
L 889.2445 -315.642843 
L 871.281 -314.622019 
L 853.3175 -313.697829 
L 835.354 -321.748766 
L 817.3905 -309.81549 
L 799.427 -322.524741 
L 781.4635 -309.632928 
L 763.5 -310.069612 
L 745.5365 -310.861176 
L 727.573 -319.205155 
L 709.6095 -304.817138 
L 691.646 -311.947126 
L 673.6825 -328.823243 
L 655.719 -311.460157 
L 637.7555 -304.150137 
L 619.792 -317.411733 
L 601.8285 -312.195441 
L 583.865 -299.809399 
L 565.9015 -306.567962 
L 547.938 -301.49901 
L 529.9745 -312.006157 
L 512.011 -303.086878 
L 494.0475 -302.511523 
L 476.084 -310.000641 
L 458.1205 -315.249668 
L 440.157 -302.092056 
L 422.1935 -300.995896 
L 404.23 -304.479205 
L 386.2665 -318.10903 
L 368.303 -315.410679 
L 350.3395 -306.507147 
L 332.376 -292.591328 
L 314.4125 -309.938085 
L 296.449 -293.609822 
L 278.4855 -303.855136 
L 260.522 -306.023871 
L 242.5585 -306.571201 
L 224.595 -296.865619 
L 206.6315 -293.498336 
L 188.668 -301.166862 
L 170.7045 -308.887177 
L 152.741 -300.43107 
L 134.7775 -291.187606 
L 116.814 -296.276238 
L 98.8505 -302.019799 
L 80.887 -301.44559 
L 62.9235 -298.154617 
L 44.96 -307.581972 
z
" style="stroke: #ffbb78; stroke-opacity: 0.2"/>
    </defs>
    <g clip-path="url(#pb68aaf5a1a)">
     <use xlink:href="#mbfecf487b9" x="0" y="648" style="fill: #ffbb78; fill-opacity: 0.2; stroke: #ffbb78; stroke-opacity: 0.2"/>
    </g>
   </g>
   <g id="PolyCollection_4">
    <defs>
     <path id="m4964aba07e" d="M 44.96 -327.658437 
L 44.96 -236.997703 
L 62.9235 -235.539191 
L 80.887 -238.560539 
L 98.8505 -236.548768 
L 116.814 -238.065589 
L 134.7775 -239.41954 
L 152.741 -239.28733 
L 170.7045 -242.496237 
L 188.668 -238.659232 
L 206.6315 -237.574446 
L 224.595 -235.739925 
L 242.5585 -237.740979 
L 260.522 -242.757337 
L 278.4855 -240.209869 
L 296.449 -241.915193 
L 314.4125 -239.738672 
L 332.376 -240.912478 
L 350.3395 -243.020466 
L 368.303 -240.010607 
L 386.2665 -242.249461 
L 404.23 -242.654547 
L 422.1935 -241.460445 
L 440.157 -240.65482 
L 458.1205 -236.668307 
L 476.084 -246.618238 
L 494.0475 -242.722209 
L 512.011 -245.477202 
L 529.9745 -246.674634 
L 547.938 -242.412136 
L 565.9015 -244.096189 
L 583.865 -241.749963 
L 601.8285 -248.377416 
L 619.792 -245.963144 
L 637.7555 -245.825486 
L 655.719 -242.657278 
L 673.6825 -246.074065 
L 691.646 -248.199659 
L 709.6095 -253.789485 
L 727.573 -248.45201 
L 745.5365 -249.930474 
L 763.5 -252.615885 
L 781.4635 -255.569056 
L 799.427 -244.553125 
L 817.3905 -251.19754 
L 835.354 -250.626938 
L 853.3175 -254.381604 
L 871.281 -245.602682 
L 889.2445 -255.57135 
L 907.208 -248.606948 
L 925.1715 -251.183794 
L 943.135 -257.942984 
L 943.135 -329.347629 
L 943.135 -329.347629 
L 925.1715 -327.422975 
L 907.208 -324.079853 
L 889.2445 -312.603013 
L 871.281 -311.723162 
L 853.3175 -324.154698 
L 835.354 -334.208051 
L 817.3905 -326.845233 
L 799.427 -317.735923 
L 781.4635 -340.268076 
L 763.5 -318.449563 
L 745.5365 -328.753119 
L 727.573 -317.942723 
L 709.6095 -324.317193 
L 691.646 -305.899818 
L 673.6825 -322.827504 
L 655.719 -309.083906 
L 637.7555 -319.44982 
L 619.792 -301.255513 
L 601.8285 -303.709895 
L 583.865 -311.735264 
L 565.9015 -310.602847 
L 547.938 -307.534108 
L 529.9745 -298.917768 
L 512.011 -305.352518 
L 494.0475 -313.432352 
L 476.084 -317.626647 
L 458.1205 -307.598325 
L 440.157 -288.601873 
L 422.1935 -316.487544 
L 404.23 -308.137149 
L 386.2665 -314.644075 
L 368.303 -303.846451 
L 350.3395 -302.366748 
L 332.376 -308.815976 
L 314.4125 -298.427542 
L 296.449 -309.716743 
L 278.4855 -302.568674 
L 260.522 -314.688747 
L 242.5585 -308.856468 
L 224.595 -310.904901 
L 206.6315 -312.639334 
L 188.668 -310.429577 
L 170.7045 -314.977632 
L 152.741 -318.798523 
L 134.7775 -323.870557 
L 116.814 -311.716043 
L 98.8505 -317.320643 
L 80.887 -327.171399 
L 62.9235 -319.365671 
L 44.96 -327.658437 
z
" style="stroke: #98df8a; stroke-opacity: 0.2"/>
    </defs>
    <g clip-path="url(#pb68aaf5a1a)">
     <use xlink:href="#m4964aba07e" x="0" y="648" style="fill: #98df8a; fill-opacity: 0.2; stroke: #98df8a; stroke-opacity: 0.2"/>
    </g>
   </g>
   <g id="PolyCollection_5">
    <defs>
     <path id="m95c6d01a5f" d="M 44.96 -325.546699 
L 44.96 -237.478974 
L 62.9235 -236.325603 
L 80.887 -243.930495 
L 98.8505 -234.960332 
L 116.814 -241.453444 
L 134.7775 -239.353929 
L 152.741 -237.054348 
L 170.7045 -236.49611 
L 188.668 -237.824434 
L 206.6315 -238.175372 
L 224.595 -241.943124 
L 242.5585 -242.756184 
L 260.522 -245.662023 
L 278.4855 -239.494588 
L 296.449 -245.490124 
L 314.4125 -249.513051 
L 332.376 -246.638948 
L 350.3395 -244.929971 
L 368.303 -250.453396 
L 386.2665 -244.171567 
L 404.23 -248.083351 
L 422.1935 -248.810855 
L 440.157 -247.274607 
L 458.1205 -248.517814 
L 476.084 -249.952824 
L 494.0475 -243.41259 
L 512.011 -254.032671 
L 529.9745 -251.908753 
L 547.938 -250.771759 
L 565.9015 -249.674672 
L 583.865 -248.19287 
L 601.8285 -257.848106 
L 619.792 -251.563087 
L 637.7555 -245.556186 
L 655.719 -255.042689 
L 673.6825 -256.863826 
L 691.646 -252.350694 
L 709.6095 -259.582672 
L 727.573 -257.38958 
L 745.5365 -257.970576 
L 763.5 -258.694285 
L 781.4635 -256.151749 
L 799.427 -259.126935 
L 817.3905 -261.250859 
L 835.354 -259.686115 
L 853.3175 -254.732073 
L 871.281 -261.903168 
L 889.2445 -257.036999 
L 907.208 -249.236882 
L 925.1715 -262.182046 
L 943.135 -260.814981 
L 943.135 -334.125951 
L 943.135 -334.125951 
L 925.1715 -335.716238 
L 907.208 -349.799591 
L 889.2445 -341.470872 
L 871.281 -337.777308 
L 853.3175 -331.429374 
L 835.354 -330.843284 
L 817.3905 -340.162438 
L 799.427 -353.183776 
L 781.4635 -350.774864 
L 763.5 -345.221448 
L 745.5365 -334.870782 
L 727.573 -334.999588 
L 709.6095 -328.482022 
L 691.646 -330.547498 
L 673.6825 -334.228795 
L 655.719 -341.673489 
L 637.7555 -337.601233 
L 619.792 -336.781804 
L 601.8285 -336.831847 
L 583.865 -332.112722 
L 565.9015 -329.093364 
L 547.938 -337.353563 
L 529.9745 -321.367251 
L 512.011 -334.588143 
L 494.0475 -317.278506 
L 476.084 -328.693306 
L 458.1205 -330.406901 
L 440.157 -326.882725 
L 422.1935 -324.048123 
L 404.23 -323.452073 
L 386.2665 -327.144126 
L 368.303 -328.135655 
L 350.3395 -341.02221 
L 332.376 -330.951231 
L 314.4125 -341.470095 
L 296.449 -346.714269 
L 278.4855 -322.850044 
L 260.522 -327.521564 
L 242.5585 -328.21084 
L 224.595 -335.476771 
L 206.6315 -313.238451 
L 188.668 -328.420971 
L 170.7045 -320.100641 
L 152.741 -330.888561 
L 134.7775 -329.282 
L 116.814 -338.682662 
L 98.8505 -336.128244 
L 80.887 -328.818059 
L 62.9235 -333.948542 
L 44.96 -325.546699 
z
" style="stroke: #ff9896; stroke-opacity: 0.2"/>
    </defs>
    <g clip-path="url(#pb68aaf5a1a)">
     <use xlink:href="#m95c6d01a5f" x="0" y="648" style="fill: #ff9896; fill-opacity: 0.2; stroke: #ff9896; stroke-opacity: 0.2"/>
    </g>
   </g>
   <g id="PolyCollection_6">
    <defs>
     <path id="me5aa90691f" d="M 44.96 -258.777641 
L 44.96 -210.22589 
L 62.9235 -214.283775 
L 80.887 -215.426111 
L 98.8505 -215.634075 
L 116.814 -209.402481 
L 134.7775 -220.339353 
L 152.741 -217.555707 
L 170.7045 -219.767528 
L 188.668 -229.340059 
L 206.6315 -225.691845 
L 224.595 -227.795501 
L 242.5585 -224.566481 
L 260.522 -231.588976 
L 278.4855 -226.22354 
L 296.449 -227.307446 
L 314.4125 -225.855522 
L 332.376 -227.716181 
L 350.3395 -233.086922 
L 368.303 -238.178741 
L 386.2665 -236.207223 
L 404.23 -228.543826 
L 422.1935 -231.5309 
L 440.157 -242.077722 
L 458.1205 -236.91202 
L 476.084 -238.27828 
L 494.0475 -237.470723 
L 512.011 -232.711943 
L 529.9745 -238.76157 
L 547.938 -233.611626 
L 565.9015 -238.964157 
L 583.865 -234.987574 
L 601.8285 -236.998586 
L 619.792 -239.561613 
L 637.7555 -234.640917 
L 655.719 -248.713317 
L 673.6825 -231.95209 
L 691.646 -237.844089 
L 709.6095 -239.367392 
L 727.573 -233.258788 
L 745.5365 -236.137804 
L 763.5 -244.986224 
L 781.4635 -229.337155 
L 799.427 -233.963661 
L 817.3905 -239.277752 
L 835.354 -233.122755 
L 853.3175 -239.040908 
L 871.281 -236.488757 
L 889.2445 -241.237644 
L 907.208 -240.838467 
L 925.1715 -235.576315 
L 943.135 -241.588031 
L 943.135 -291.803006 
L 943.135 -291.803006 
L 925.1715 -300.351354 
L 907.208 -302.205175 
L 889.2445 -312.399614 
L 871.281 -282.040683 
L 853.3175 -288.491043 
L 835.354 -293.598797 
L 817.3905 -297.685759 
L 799.427 -312.414737 
L 781.4635 -291.15797 
L 763.5 -290.860454 
L 745.5365 -303.119588 
L 727.573 -288.173898 
L 709.6095 -295.395572 
L 691.646 -291.595044 
L 673.6825 -292.326447 
L 655.719 -292.928002 
L 637.7555 -289.665395 
L 619.792 -300.825036 
L 601.8285 -293.405459 
L 583.865 -289.901012 
L 565.9015 -293.120211 
L 547.938 -303.806437 
L 529.9745 -304.964983 
L 512.011 -295.446805 
L 494.0475 -296.527311 
L 476.084 -289.137081 
L 458.1205 -283.247523 
L 440.157 -298.29151 
L 422.1935 -286.892492 
L 404.23 -293.204349 
L 386.2665 -291.88649 
L 368.303 -294.319505 
L 350.3395 -284.837153 
L 332.376 -274.224344 
L 314.4125 -281.289832 
L 296.449 -279.90568 
L 278.4855 -274.288553 
L 260.522 -265.805078 
L 242.5585 -277.408874 
L 224.595 -269.648688 
L 206.6315 -278.432261 
L 188.668 -275.258978 
L 170.7045 -266.544239 
L 152.741 -261.464871 
L 134.7775 -265.067988 
L 116.814 -264.027559 
L 98.8505 -274.591091 
L 80.887 -269.233344 
L 62.9235 -251.159455 
L 44.96 -258.777641 
z
" style="stroke: #c5b0d5; stroke-opacity: 0.2"/>
    </defs>
    <g clip-path="url(#pb68aaf5a1a)">
     <use xlink:href="#me5aa90691f" x="0" y="648" style="fill: #c5b0d5; fill-opacity: 0.2; stroke: #c5b0d5; stroke-opacity: 0.2"/>
    </g>
   </g>
   <g id="PolyCollection_7">
    <defs>
     <path id="md6a1a4238c" d="M 44.96 -246.416496 
L 44.96 -207.200349 
L 62.9235 -208.224289 
L 80.887 -205.249988 
L 98.8505 -205.472988 
L 116.814 -207.162228 
L 134.7775 -207.755866 
L 152.741 -208.141902 
L 170.7045 -208.804658 
L 188.668 -211.256266 
L 206.6315 -214.144917 
L 224.595 -214.526402 
L 242.5585 -217.007847 
L 260.522 -213.345174 
L 278.4855 -212.588306 
L 296.449 -205.774322 
L 314.4125 -205.176638 
L 332.376 -209.067646 
L 350.3395 -207.827408 
L 368.303 -208.35299 
L 386.2665 -211.347573 
L 404.23 -216.114604 
L 422.1935 -217.828775 
L 440.157 -217.529876 
L 458.1205 -212.800658 
L 476.084 -214.629254 
L 494.0475 -211.986036 
L 512.011 -207.120623 
L 529.9745 -217.078904 
L 547.938 -212.789779 
L 565.9015 -221.983728 
L 583.865 -218.606492 
L 601.8285 -215.867535 
L 619.792 -216.426631 
L 637.7555 -221.444071 
L 655.719 -227.344009 
L 673.6825 -224.066207 
L 691.646 -228.0844 
L 709.6095 -224.605998 
L 727.573 -225.051945 
L 745.5365 -229.929432 
L 763.5 -230.403129 
L 781.4635 -228.456828 
L 799.427 -232.559648 
L 817.3905 -232.652783 
L 835.354 -238.894578 
L 853.3175 -235.902787 
L 871.281 -239.700903 
L 889.2445 -235.034379 
L 907.208 -234.087372 
L 925.1715 -223.938256 
L 943.135 -236.613827 
L 943.135 -302.763904 
L 943.135 -302.763904 
L 925.1715 -309.538524 
L 907.208 -303.688447 
L 889.2445 -280.989442 
L 871.281 -296.731335 
L 853.3175 -287.948322 
L 835.354 -294.358364 
L 817.3905 -271.832792 
L 799.427 -287.655574 
L 781.4635 -277.311745 
L 763.5 -271.484685 
L 745.5365 -274.405721 
L 727.573 -280.783053 
L 709.6095 -281.068001 
L 691.646 -274.129544 
L 673.6825 -268.237375 
L 655.719 -281.240137 
L 637.7555 -261.877057 
L 619.792 -263.789858 
L 601.8285 -265.35952 
L 583.865 -263.039451 
L 565.9015 -267.936855 
L 547.938 -263.074892 
L 529.9745 -273.739557 
L 512.011 -274.929237 
L 494.0475 -267.584392 
L 476.084 -258.408826 
L 458.1205 -261.696695 
L 440.157 -276.968213 
L 422.1935 -270.942995 
L 404.23 -261.111414 
L 386.2665 -267.076798 
L 368.303 -264.318564 
L 350.3395 -262.675486 
L 332.376 -257.787612 
L 314.4125 -265.585375 
L 296.449 -257.738463 
L 278.4855 -258.11735 
L 260.522 -257.676178 
L 242.5585 -256.422544 
L 224.595 -253.379616 
L 206.6315 -256.013077 
L 188.668 -250.294207 
L 170.7045 -250.057233 
L 152.741 -256.95111 
L 134.7775 -251.758322 
L 116.814 -251.825104 
L 98.8505 -252.4209 
L 80.887 -256.897379 
L 62.9235 -248.568076 
L 44.96 -246.416496 
z
" style="stroke: #8c564b; stroke-opacity: 0.2"/>
    </defs>
    <g clip-path="url(#pb68aaf5a1a)">
     <use xlink:href="#md6a1a4238c" x="0" y="648" style="fill: #8c564b; fill-opacity: 0.2; stroke: #8c564b; stroke-opacity: 0.2"/>
    </g>
   </g>
   <g id="PolyCollection_8">
    <defs>
     <path id="m8b3b779f1f" d="M 44.96 -258.668337 
L 44.96 -206.51818 
L 62.9235 -203.08941 
L 80.887 -210.630731 
L 98.8505 -208.151808 
L 116.814 -201.428362 
L 134.7775 -210.167853 
L 152.741 -216.077575 
L 170.7045 -215.622304 
L 188.668 -205.375162 
L 206.6315 -216.525043 
L 224.595 -225.073973 
L 242.5585 -212.262718 
L 260.522 -217.911349 
L 278.4855 -214.080263 
L 296.449 -216.96103 
L 314.4125 -219.716327 
L 332.376 -227.778418 
L 350.3395 -220.755216 
L 368.303 -221.483786 
L 386.2665 -215.377267 
L 404.23 -225.485881 
L 422.1935 -215.427003 
L 440.157 -222.832919 
L 458.1205 -214.00465 
L 476.084 -226.70261 
L 494.0475 -224.776912 
L 512.011 -229.6337 
L 529.9745 -229.642699 
L 547.938 -232.823798 
L 565.9015 -226.90037 
L 583.865 -232.903041 
L 601.8285 -230.077119 
L 619.792 -227.247725 
L 637.7555 -224.823638 
L 655.719 -227.921129 
L 673.6825 -234.329478 
L 691.646 -239.717115 
L 709.6095 -229.129036 
L 727.573 -226.516019 
L 745.5365 -237.585341 
L 763.5 -237.312833 
L 781.4635 -228.057489 
L 799.427 -233.565013 
L 817.3905 -245.405328 
L 835.354 -246.800681 
L 853.3175 -238.719966 
L 871.281 -239.488528 
L 889.2445 -237.949481 
L 907.208 -243.88828 
L 925.1715 -236.579716 
L 943.135 -242.766877 
L 943.135 -301.594199 
L 943.135 -301.594199 
L 925.1715 -291.999709 
L 907.208 -291.221385 
L 889.2445 -288.742404 
L 871.281 -293.309788 
L 853.3175 -291.140586 
L 835.354 -300.755881 
L 817.3905 -289.365014 
L 799.427 -298.095881 
L 781.4635 -293.60593 
L 763.5 -299.654095 
L 745.5365 -287.329479 
L 727.573 -293.747701 
L 709.6095 -285.71171 
L 691.646 -287.70691 
L 673.6825 -276.612208 
L 655.719 -282.713652 
L 637.7555 -278.186974 
L 619.792 -273.97759 
L 601.8285 -280.768743 
L 583.865 -289.941617 
L 565.9015 -285.399129 
L 547.938 -285.300527 
L 529.9745 -272.715597 
L 512.011 -279.671453 
L 494.0475 -272.374558 
L 476.084 -265.99821 
L 458.1205 -279.344051 
L 440.157 -277.917697 
L 422.1935 -265.852945 
L 404.23 -268.342011 
L 386.2665 -279.714592 
L 368.303 -268.13722 
L 350.3395 -273.267819 
L 332.376 -275.584713 
L 314.4125 -271.454709 
L 296.449 -283.674278 
L 278.4855 -264.887838 
L 260.522 -271.52434 
L 242.5585 -273.30832 
L 224.595 -265.909935 
L 206.6315 -264.889929 
L 188.668 -265.3594 
L 170.7045 -268.450192 
L 152.741 -259.377729 
L 134.7775 -254.162162 
L 116.814 -259.238606 
L 98.8505 -252.110412 
L 80.887 -242.237847 
L 62.9235 -256.850986 
L 44.96 -258.668337 
z
" style="stroke: #e377c2; stroke-opacity: 0.2"/>
    </defs>
    <g clip-path="url(#pb68aaf5a1a)">
     <use xlink:href="#m8b3b779f1f" x="0" y="648" style="fill: #e377c2; fill-opacity: 0.2; stroke: #e377c2; stroke-opacity: 0.2"/>
    </g>
   </g>
   <g id="PolyCollection_9">
    <defs>
     <path id="m92988add42" d="M 44.96 -271.998936 
L 44.96 -235.976722 
L 62.9235 -235.313055 
L 80.887 -233.030355 
L 98.8505 -231.810669 
L 116.814 -233.716662 
L 134.7775 -229.965774 
L 152.741 -233.339269 
L 170.7045 -230.921627 
L 188.668 -230.883633 
L 206.6315 -233.659719 
L 224.595 -234.240375 
L 242.5585 -232.592632 
L 260.522 -231.085647 
L 278.4855 -229.846133 
L 296.449 -233.696823 
L 314.4125 -237.046486 
L 332.376 -227.291752 
L 350.3395 -230.764273 
L 368.303 -230.298012 
L 386.2665 -234.227181 
L 404.23 -234.595346 
L 422.1935 -239.234192 
L 440.157 -239.891375 
L 458.1205 -238.023909 
L 476.084 -230.383093 
L 494.0475 -242.687192 
L 512.011 -236.923254 
L 529.9745 -235.131034 
L 547.938 -244.284283 
L 565.9015 -237.627632 
L 583.865 -232.661853 
L 601.8285 -247.115579 
L 619.792 -234.049275 
L 637.7555 -239.193824 
L 655.719 -243.307759 
L 673.6825 -246.771922 
L 691.646 -237.048652 
L 709.6095 -242.883065 
L 727.573 -240.548933 
L 745.5365 -238.529877 
L 763.5 -246.419831 
L 781.4635 -245.944225 
L 799.427 -244.462322 
L 817.3905 -248.069804 
L 835.354 -244.961682 
L 853.3175 -252.010239 
L 871.281 -245.907662 
L 889.2445 -241.985492 
L 907.208 -241.028081 
L 925.1715 -251.389365 
L 943.135 -245.005854 
L 943.135 -298.437738 
L 943.135 -298.437738 
L 925.1715 -317.41956 
L 907.208 -309.392622 
L 889.2445 -305.503435 
L 871.281 -295.124036 
L 853.3175 -316.41705 
L 835.354 -311.860797 
L 817.3905 -301.076983 
L 799.427 -298.73176 
L 781.4635 -299.560057 
L 763.5 -303.706925 
L 745.5365 -304.090972 
L 727.573 -307.498877 
L 709.6095 -303.79044 
L 691.646 -297.735371 
L 673.6825 -300.258923 
L 655.719 -305.559686 
L 637.7555 -307.856216 
L 619.792 -303.908395 
L 601.8285 -300.433005 
L 583.865 -302.805396 
L 565.9015 -296.69385 
L 547.938 -296.830671 
L 529.9745 -291.850595 
L 512.011 -298.309402 
L 494.0475 -292.688528 
L 476.084 -290.084946 
L 458.1205 -283.002879 
L 440.157 -289.439002 
L 422.1935 -286.338255 
L 404.23 -279.135477 
L 386.2665 -286.907938 
L 368.303 -288.422245 
L 350.3395 -289.466926 
L 332.376 -292.286799 
L 314.4125 -294.370938 
L 296.449 -287.780195 
L 278.4855 -278.420622 
L 260.522 -293.0047 
L 242.5585 -289.371179 
L 224.595 -297.517977 
L 206.6315 -291.722495 
L 188.668 -290.433036 
L 170.7045 -285.553323 
L 152.741 -283.779397 
L 134.7775 -275.291238 
L 116.814 -289.03429 
L 98.8505 -286.775531 
L 80.887 -293.897412 
L 62.9235 -284.073101 
L 44.96 -271.998936 
z
" style="stroke: #7f7f7f; stroke-opacity: 0.2"/>
    </defs>
    <g clip-path="url(#pb68aaf5a1a)">
     <use xlink:href="#m92988add42" x="0" y="648" style="fill: #7f7f7f; fill-opacity: 0.2; stroke: #7f7f7f; stroke-opacity: 0.2"/>
    </g>
   </g>
   <g id="PolyCollection_10">
    <defs>
     <path id="mc1b526c084" d="M 44.96 -280.754945 
L 44.96 -235.904312 
L 62.9235 -238.151415 
L 80.887 -234.576992 
L 98.8505 -234.229565 
L 116.814 -237.235903 
L 134.7775 -226.927267 
L 152.741 -231.251028 
L 170.7045 -229.181145 
L 188.668 -228.162157 
L 206.6315 -236.197002 
L 224.595 -232.220876 
L 242.5585 -233.249728 
L 260.522 -236.430388 
L 278.4855 -230.143696 
L 296.449 -237.174343 
L 314.4125 -226.248647 
L 332.376 -226.309652 
L 350.3395 -232.998341 
L 368.303 -225.407204 
L 386.2665 -231.344545 
L 404.23 -233.711102 
L 422.1935 -233.158724 
L 440.157 -225.337641 
L 458.1205 -226.048013 
L 476.084 -228.845352 
L 494.0475 -234.748114 
L 512.011 -231.389218 
L 529.9745 -232.631958 
L 547.938 -234.822448 
L 565.9015 -236.940355 
L 583.865 -238.447448 
L 601.8285 -230.082653 
L 619.792 -227.744863 
L 637.7555 -235.337396 
L 655.719 -240.622175 
L 673.6825 -238.741077 
L 691.646 -231.447572 
L 709.6095 -240.121093 
L 727.573 -238.443636 
L 745.5365 -246.857724 
L 763.5 -231.324615 
L 781.4635 -244.635595 
L 799.427 -242.85184 
L 817.3905 -250.858062 
L 835.354 -237.436339 
L 853.3175 -242.43803 
L 871.281 -240.007339 
L 889.2445 -241.576141 
L 907.208 -248.164223 
L 925.1715 -247.958705 
L 943.135 -244.671995 
L 943.135 -314.058083 
L 943.135 -314.058083 
L 925.1715 -300.951948 
L 907.208 -297.690592 
L 889.2445 -293.948958 
L 871.281 -303.057265 
L 853.3175 -304.501074 
L 835.354 -295.71023 
L 817.3905 -295.893145 
L 799.427 -300.455304 
L 781.4635 -293.177072 
L 763.5 -298.397418 
L 745.5365 -296.166781 
L 727.573 -280.063818 
L 709.6095 -293.437629 
L 691.646 -293.162616 
L 673.6825 -290.759032 
L 655.719 -293.122442 
L 637.7555 -289.752846 
L 619.792 -295.270746 
L 601.8285 -300.684864 
L 583.865 -280.294029 
L 565.9015 -299.828099 
L 547.938 -294.336824 
L 529.9745 -288.692119 
L 512.011 -290.070477 
L 494.0475 -288.000553 
L 476.084 -292.029287 
L 458.1205 -288.366269 
L 440.157 -284.672285 
L 422.1935 -284.191941 
L 404.23 -287.109342 
L 386.2665 -281.968286 
L 368.303 -278.089767 
L 350.3395 -287.038782 
L 332.376 -274.300373 
L 314.4125 -297.199158 
L 296.449 -278.820203 
L 278.4855 -289.81292 
L 260.522 -287.754 
L 242.5585 -283.708009 
L 224.595 -279.628909 
L 206.6315 -276.905444 
L 188.668 -287.695327 
L 170.7045 -276.087755 
L 152.741 -275.268354 
L 134.7775 -283.618224 
L 116.814 -281.408903 
L 98.8505 -282.916016 
L 80.887 -280.430934 
L 62.9235 -287.839185 
L 44.96 -280.754945 
z
" style="stroke: #bcbd22; stroke-opacity: 0.2"/>
    </defs>
    <g clip-path="url(#pb68aaf5a1a)">
     <use xlink:href="#mc1b526c084" x="0" y="648" style="fill: #bcbd22; fill-opacity: 0.2; stroke: #bcbd22; stroke-opacity: 0.2"/>
    </g>
   </g>
   <g id="PolyCollection_11">
    <defs>
     <path id="m44505a8f13" d="M 44.96 -298.753088 
L 44.96 -226.847471 
L 62.9235 -230.626069 
L 80.887 -228.689041 
L 98.8505 -236.547721 
L 116.814 -225.587195 
L 134.7775 -226.823988 
L 152.741 -229.503025 
L 170.7045 -231.910646 
L 188.668 -226.580402 
L 206.6315 -224.652887 
L 224.595 -225.038012 
L 242.5585 -230.689976 
L 260.522 -226.953391 
L 278.4855 -228.821656 
L 296.449 -228.522477 
L 314.4125 -228.486371 
L 332.376 -225.220307 
L 350.3395 -229.471372 
L 368.303 -225.025135 
L 386.2665 -226.980853 
L 404.23 -232.994455 
L 422.1935 -229.345538 
L 440.157 -227.861652 
L 458.1205 -228.181786 
L 476.084 -229.601774 
L 494.0475 -225.865619 
L 512.011 -230.857953 
L 529.9745 -226.252731 
L 547.938 -226.258151 
L 565.9015 -232.289796 
L 583.865 -231.805246 
L 601.8285 -231.035084 
L 619.792 -226.134889 
L 637.7555 -230.226438 
L 655.719 -234.55137 
L 673.6825 -235.272894 
L 691.646 -227.92414 
L 709.6095 -236.363346 
L 727.573 -236.37225 
L 745.5365 -236.207479 
L 763.5 -234.874549 
L 781.4635 -243.503061 
L 799.427 -240.71645 
L 817.3905 -235.936388 
L 835.354 -237.104189 
L 853.3175 -243.933487 
L 871.281 -244.505997 
L 889.2445 -250.508836 
L 907.208 -238.539723 
L 925.1715 -249.576252 
L 943.135 -244.847549 
L 943.135 -301.93283 
L 943.135 -301.93283 
L 925.1715 -320.852692 
L 907.208 -316.784615 
L 889.2445 -304.584004 
L 871.281 -300.878663 
L 853.3175 -311.402752 
L 835.354 -307.754649 
L 817.3905 -303.444508 
L 799.427 -303.518331 
L 781.4635 -305.284895 
L 763.5 -293.051523 
L 745.5365 -297.31336 
L 727.573 -303.604182 
L 709.6095 -297.546602 
L 691.646 -292.576925 
L 673.6825 -283.312829 
L 655.719 -293.71265 
L 637.7555 -293.886272 
L 619.792 -279.313051 
L 601.8285 -293.986054 
L 583.865 -282.321886 
L 565.9015 -288.534974 
L 547.938 -288.814561 
L 529.9745 -278.549919 
L 512.011 -285.053421 
L 494.0475 -280.508804 
L 476.084 -292.432459 
L 458.1205 -279.176675 
L 440.157 -285.658447 
L 422.1935 -277.476753 
L 404.23 -276.787843 
L 386.2665 -286.960883 
L 368.303 -282.931689 
L 350.3395 -282.049415 
L 332.376 -275.724898 
L 314.4125 -279.903748 
L 296.449 -285.410993 
L 278.4855 -272.765461 
L 260.522 -275.953269 
L 242.5585 -288.186226 
L 224.595 -284.32898 
L 206.6315 -282.819651 
L 188.668 -285.023202 
L 170.7045 -293.902191 
L 152.741 -283.188625 
L 134.7775 -289.047889 
L 116.814 -282.594389 
L 98.8505 -286.392936 
L 80.887 -288.564037 
L 62.9235 -290.997 
L 44.96 -298.753088 
z
" style="stroke: #17becf; stroke-opacity: 0.2"/>
    </defs>
    <g clip-path="url(#pb68aaf5a1a)">
     <use xlink:href="#m44505a8f13" x="0" y="648" style="fill: #17becf; fill-opacity: 0.2; stroke: #17becf; stroke-opacity: 0.2"/>
    </g>
   </g>
   <g id="PolyCollection_12">
    <defs>
     <path id="m9e6df90c51" d="M 44.96 -287.139147 
L 44.96 -216.551793 
L 62.9235 -218.545273 
L 80.887 -218.05352 
L 98.8505 -219.49568 
L 116.814 -220.206398 
L 134.7775 -234.16113 
L 152.741 -228.750624 
L 170.7045 -229.617119 
L 188.668 -228.8331 
L 206.6315 -231.709988 
L 224.595 -231.786554 
L 242.5585 -232.58637 
L 260.522 -227.016569 
L 278.4855 -233.241874 
L 296.449 -226.025521 
L 314.4125 -233.588413 
L 332.376 -218.805536 
L 350.3395 -230.738606 
L 368.303 -238.049556 
L 386.2665 -229.726463 
L 404.23 -233.00079 
L 422.1935 -230.356519 
L 440.157 -240.646766 
L 458.1205 -235.603664 
L 476.084 -229.749662 
L 494.0475 -248.572591 
L 512.011 -242.634209 
L 529.9745 -234.982733 
L 547.938 -240.227385 
L 565.9015 -240.417763 
L 583.865 -235.112158 
L 601.8285 -238.774515 
L 619.792 -237.957283 
L 637.7555 -239.102453 
L 655.719 -240.046008 
L 673.6825 -242.473703 
L 691.646 -246.948393 
L 709.6095 -241.466698 
L 727.573 -245.162762 
L 745.5365 -245.899278 
L 763.5 -247.524815 
L 781.4635 -248.161475 
L 799.427 -249.057833 
L 817.3905 -248.961663 
L 835.354 -249.627076 
L 853.3175 -252.392063 
L 871.281 -251.224266 
L 889.2445 -253.726619 
L 907.208 -258.77312 
L 925.1715 -249.389208 
L 943.135 -253.844522 
L 943.135 -321.768142 
L 943.135 -321.768142 
L 925.1715 -314.800555 
L 907.208 -317.161742 
L 889.2445 -328.476535 
L 871.281 -333.795062 
L 853.3175 -300.37583 
L 835.354 -324.428895 
L 817.3905 -320.262753 
L 799.427 -311.673204 
L 781.4635 -315.62056 
L 763.5 -301.597875 
L 745.5365 -316.671118 
L 727.573 -305.099296 
L 709.6095 -304.729199 
L 691.646 -313.865412 
L 673.6825 -314.864564 
L 655.719 -310.137096 
L 637.7555 -306.756085 
L 619.792 -326.58377 
L 601.8285 -317.455531 
L 583.865 -304.185874 
L 565.9015 -300.253439 
L 547.938 -310.255054 
L 529.9745 -308.879755 
L 512.011 -318.150562 
L 494.0475 -314.479415 
L 476.084 -314.619684 
L 458.1205 -298.697251 
L 440.157 -309.462351 
L 422.1935 -307.691476 
L 404.23 -304.393765 
L 386.2665 -297.692351 
L 368.303 -313.599345 
L 350.3395 -308.913039 
L 332.376 -290.719899 
L 314.4125 -313.514902 
L 296.449 -301.640112 
L 278.4855 -312.14118 
L 260.522 -294.734653 
L 242.5585 -298.016012 
L 224.595 -302.136817 
L 206.6315 -291.973573 
L 188.668 -300.951128 
L 170.7045 -312.171381 
L 152.741 -296.418019 
L 134.7775 -292.81613 
L 116.814 -307.827718 
L 98.8505 -295.710334 
L 80.887 -295.154563 
L 62.9235 -288.750272 
L 44.96 -287.139147 
z
" style="stroke: #9edae5; stroke-opacity: 0.2"/>
    </defs>
    <g clip-path="url(#pb68aaf5a1a)">
     <use xlink:href="#m9e6df90c51" x="0" y="648" style="fill: #9edae5; fill-opacity: 0.2; stroke: #9edae5; stroke-opacity: 0.2"/>
    </g>
   </g>
   <g id="matplotlib.axis_1">
    <g id="xtick_1">
     <g id="line2d_1">
      <defs>
       <path id="m482370788d" d="M 0 0 
L 0 3.5 
" style="stroke: #000000; stroke-width: 0.8"/>
      </defs>
      <g>
       <use xlink:href="#m482370788d" x="44.96" y="608.2" style="stroke: #000000; stroke-width: 0.8"/>
      </g>
     </g>
     <g id="text_1">
      <!-- 30 -->
      <g transform="translate(39.399063 622.357813) scale(0.1 -0.1)">
       <defs>
        <path id="ArialMT-33" d="M 269 1209 
L 831 1284 
Q 928 806 1161 595 
Q 1394 384 1728 384 
Q 2125 384 2398 659 
Q 2672 934 2672 1341 
Q 2672 1728 2419 1979 
Q 2166 2231 1775 2231 
Q 1616 2231 1378 2169 
L 1441 2663 
Q 1497 2656 1531 2656 
Q 1891 2656 2178 2843 
Q 2466 3031 2466 3422 
Q 2466 3731 2256 3934 
Q 2047 4138 1716 4138 
Q 1388 4138 1169 3931 
Q 950 3725 888 3313 
L 325 3413 
Q 428 3978 793 4289 
Q 1159 4600 1703 4600 
Q 2078 4600 2393 4439 
Q 2709 4278 2876 4000 
Q 3044 3722 3044 3409 
Q 3044 3113 2884 2869 
Q 2725 2625 2413 2481 
Q 2819 2388 3044 2092 
Q 3269 1797 3269 1353 
Q 3269 753 2831 336 
Q 2394 -81 1725 -81 
Q 1122 -81 723 278 
Q 325 638 269 1209 
z
" transform="scale(0.015625)"/>
        <path id="ArialMT-30" d="M 266 2259 
Q 266 3072 433 3567 
Q 600 4063 929 4331 
Q 1259 4600 1759 4600 
Q 2128 4600 2406 4451 
Q 2684 4303 2865 4023 
Q 3047 3744 3150 3342 
Q 3253 2941 3253 2259 
Q 3253 1453 3087 958 
Q 2922 463 2592 192 
Q 2263 -78 1759 -78 
Q 1097 -78 719 397 
Q 266 969 266 2259 
z
M 844 2259 
Q 844 1131 1108 757 
Q 1372 384 1759 384 
Q 2147 384 2411 759 
Q 2675 1134 2675 2259 
Q 2675 3391 2411 3762 
Q 2147 4134 1753 4134 
Q 1366 4134 1134 3806 
Q 844 3388 844 2259 
z
" transform="scale(0.015625)"/>
       </defs>
       <use xlink:href="#ArialMT-33"/>
       <use xlink:href="#ArialMT-30" x="55.615234"/>
      </g>
     </g>
    </g>
    <g id="xtick_2">
     <g id="line2d_2">
      <g>
       <use xlink:href="#m482370788d" x="224.595" y="608.2" style="stroke: #000000; stroke-width: 0.8"/>
      </g>
     </g>
     <g id="text_2">
      <!-- 40 -->
      <g transform="translate(219.034063 622.357813) scale(0.1 -0.1)">
       <defs>
        <path id="ArialMT-34" d="M 2069 0 
L 2069 1097 
L 81 1097 
L 81 1613 
L 2172 4581 
L 2631 4581 
L 2631 1613 
L 3250 1613 
L 3250 1097 
L 2631 1097 
L 2631 0 
L 2069 0 
z
M 2069 1613 
L 2069 3678 
L 634 1613 
L 2069 1613 
z
" transform="scale(0.015625)"/>
       </defs>
       <use xlink:href="#ArialMT-34"/>
       <use xlink:href="#ArialMT-30" x="55.615234"/>
      </g>
     </g>
    </g>
    <g id="xtick_3">
     <g id="line2d_3">
      <g>
       <use xlink:href="#m482370788d" x="404.23" y="608.2" style="stroke: #000000; stroke-width: 0.8"/>
      </g>
     </g>
     <g id="text_3">
      <!-- 50 -->
      <g transform="translate(398.669063 622.357813) scale(0.1 -0.1)">
       <defs>
        <path id="ArialMT-35" d="M 266 1200 
L 856 1250 
Q 922 819 1161 601 
Q 1400 384 1738 384 
Q 2144 384 2425 690 
Q 2706 997 2706 1503 
Q 2706 1984 2436 2262 
Q 2166 2541 1728 2541 
Q 1456 2541 1237 2417 
Q 1019 2294 894 2097 
L 366 2166 
L 809 4519 
L 3088 4519 
L 3088 3981 
L 1259 3981 
L 1013 2750 
Q 1425 3038 1878 3038 
Q 2478 3038 2890 2622 
Q 3303 2206 3303 1553 
Q 3303 931 2941 478 
Q 2500 -78 1738 -78 
Q 1113 -78 717 272 
Q 322 622 266 1200 
z
" transform="scale(0.015625)"/>
       </defs>
       <use xlink:href="#ArialMT-35"/>
       <use xlink:href="#ArialMT-30" x="55.615234"/>
      </g>
     </g>
    </g>
    <g id="xtick_4">
     <g id="line2d_4">
      <g>
       <use xlink:href="#m482370788d" x="583.865" y="608.2" style="stroke: #000000; stroke-width: 0.8"/>
      </g>
     </g>
     <g id="text_4">
      <!-- 60 -->
      <g transform="translate(578.304063 622.357813) scale(0.1 -0.1)">
       <defs>
        <path id="ArialMT-36" d="M 3184 3459 
L 2625 3416 
Q 2550 3747 2413 3897 
Q 2184 4138 1850 4138 
Q 1581 4138 1378 3988 
Q 1113 3794 959 3422 
Q 806 3050 800 2363 
Q 1003 2672 1297 2822 
Q 1591 2972 1913 2972 
Q 2475 2972 2870 2558 
Q 3266 2144 3266 1488 
Q 3266 1056 3080 686 
Q 2894 316 2569 119 
Q 2244 -78 1831 -78 
Q 1128 -78 684 439 
Q 241 956 241 2144 
Q 241 3472 731 4075 
Q 1159 4600 1884 4600 
Q 2425 4600 2770 4297 
Q 3116 3994 3184 3459 
z
M 888 1484 
Q 888 1194 1011 928 
Q 1134 663 1356 523 
Q 1578 384 1822 384 
Q 2178 384 2434 671 
Q 2691 959 2691 1453 
Q 2691 1928 2437 2201 
Q 2184 2475 1800 2475 
Q 1419 2475 1153 2201 
Q 888 1928 888 1484 
z
" transform="scale(0.015625)"/>
       </defs>
       <use xlink:href="#ArialMT-36"/>
       <use xlink:href="#ArialMT-30" x="55.615234"/>
      </g>
     </g>
    </g>
    <g id="xtick_5">
     <g id="line2d_5">
      <g>
       <use xlink:href="#m482370788d" x="763.5" y="608.2" style="stroke: #000000; stroke-width: 0.8"/>
      </g>
     </g>
     <g id="text_5">
      <!-- 70 -->
      <g transform="translate(757.939063 622.357813) scale(0.1 -0.1)">
       <defs>
        <path id="ArialMT-37" d="M 303 3981 
L 303 4522 
L 3269 4522 
L 3269 4084 
Q 2831 3619 2401 2847 
Q 1972 2075 1738 1259 
Q 1569 684 1522 0 
L 944 0 
Q 953 541 1156 1306 
Q 1359 2072 1739 2783 
Q 2119 3494 2547 3981 
L 303 3981 
z
" transform="scale(0.015625)"/>
       </defs>
       <use xlink:href="#ArialMT-37"/>
       <use xlink:href="#ArialMT-30" x="55.615234"/>
      </g>
     </g>
    </g>
    <g id="xtick_6">
     <g id="line2d_6">
      <g>
       <use xlink:href="#m482370788d" x="943.135" y="608.2" style="stroke: #000000; stroke-width: 0.8"/>
      </g>
     </g>
     <g id="text_6">
      <!-- 80 -->
      <g transform="translate(937.574063 622.357813) scale(0.1 -0.1)">
       <defs>
        <path id="ArialMT-38" d="M 1131 2484 
Q 781 2613 612 2850 
Q 444 3088 444 3419 
Q 444 3919 803 4259 
Q 1163 4600 1759 4600 
Q 2359 4600 2725 4251 
Q 3091 3903 3091 3403 
Q 3091 3084 2923 2848 
Q 2756 2613 2416 2484 
Q 2838 2347 3058 2040 
Q 3278 1734 3278 1309 
Q 3278 722 2862 322 
Q 2447 -78 1769 -78 
Q 1091 -78 675 323 
Q 259 725 259 1325 
Q 259 1772 486 2073 
Q 713 2375 1131 2484 
z
M 1019 3438 
Q 1019 3113 1228 2906 
Q 1438 2700 1772 2700 
Q 2097 2700 2305 2904 
Q 2513 3109 2513 3406 
Q 2513 3716 2298 3927 
Q 2084 4138 1766 4138 
Q 1444 4138 1231 3931 
Q 1019 3725 1019 3438 
z
M 838 1322 
Q 838 1081 952 856 
Q 1066 631 1291 507 
Q 1516 384 1775 384 
Q 2178 384 2440 643 
Q 2703 903 2703 1303 
Q 2703 1709 2433 1975 
Q 2163 2241 1756 2241 
Q 1359 2241 1098 1978 
Q 838 1716 838 1322 
z
" transform="scale(0.015625)"/>
       </defs>
       <use xlink:href="#ArialMT-38"/>
       <use xlink:href="#ArialMT-30" x="55.615234"/>
      </g>
     </g>
    </g>
    <g id="text_7">
     <!-- Number of Baits -->
     <g transform="translate(458.202188 635.503125) scale(0.1 -0.1)">
      <defs>
       <path id="ArialMT-4e" d="M 488 0 
L 488 4581 
L 1109 4581 
L 3516 984 
L 3516 4581 
L 4097 4581 
L 4097 0 
L 3475 0 
L 1069 3600 
L 1069 0 
L 488 0 
z
" transform="scale(0.015625)"/>
       <path id="ArialMT-75" d="M 2597 0 
L 2597 488 
Q 2209 -75 1544 -75 
Q 1250 -75 995 37 
Q 741 150 617 320 
Q 494 491 444 738 
Q 409 903 409 1263 
L 409 3319 
L 972 3319 
L 972 1478 
Q 972 1038 1006 884 
Q 1059 663 1231 536 
Q 1403 409 1656 409 
Q 1909 409 2131 539 
Q 2353 669 2445 892 
Q 2538 1116 2538 1541 
L 2538 3319 
L 3100 3319 
L 3100 0 
L 2597 0 
z
" transform="scale(0.015625)"/>
       <path id="ArialMT-6d" d="M 422 0 
L 422 3319 
L 925 3319 
L 925 2853 
Q 1081 3097 1340 3245 
Q 1600 3394 1931 3394 
Q 2300 3394 2536 3241 
Q 2772 3088 2869 2813 
Q 3263 3394 3894 3394 
Q 4388 3394 4653 3120 
Q 4919 2847 4919 2278 
L 4919 0 
L 4359 0 
L 4359 2091 
Q 4359 2428 4304 2576 
Q 4250 2725 4106 2815 
Q 3963 2906 3769 2906 
Q 3419 2906 3187 2673 
Q 2956 2441 2956 1928 
L 2956 0 
L 2394 0 
L 2394 2156 
Q 2394 2531 2256 2718 
Q 2119 2906 1806 2906 
Q 1569 2906 1367 2781 
Q 1166 2656 1075 2415 
Q 984 2175 984 1722 
L 984 0 
L 422 0 
z
" transform="scale(0.015625)"/>
       <path id="ArialMT-62" d="M 941 0 
L 419 0 
L 419 4581 
L 981 4581 
L 981 2947 
Q 1338 3394 1891 3394 
Q 2197 3394 2470 3270 
Q 2744 3147 2920 2923 
Q 3097 2700 3197 2384 
Q 3297 2069 3297 1709 
Q 3297 856 2875 390 
Q 2453 -75 1863 -75 
Q 1275 -75 941 416 
L 941 0 
z
M 934 1684 
Q 934 1088 1097 822 
Q 1363 388 1816 388 
Q 2184 388 2453 708 
Q 2722 1028 2722 1663 
Q 2722 2313 2464 2622 
Q 2206 2931 1841 2931 
Q 1472 2931 1203 2611 
Q 934 2291 934 1684 
z
" transform="scale(0.015625)"/>
       <path id="ArialMT-65" d="M 2694 1069 
L 3275 997 
Q 3138 488 2766 206 
Q 2394 -75 1816 -75 
Q 1088 -75 661 373 
Q 234 822 234 1631 
Q 234 2469 665 2931 
Q 1097 3394 1784 3394 
Q 2450 3394 2872 2941 
Q 3294 2488 3294 1666 
Q 3294 1616 3291 1516 
L 816 1516 
Q 847 969 1125 678 
Q 1403 388 1819 388 
Q 2128 388 2347 550 
Q 2566 713 2694 1069 
z
M 847 1978 
L 2700 1978 
Q 2663 2397 2488 2606 
Q 2219 2931 1791 2931 
Q 1403 2931 1139 2672 
Q 875 2413 847 1978 
z
" transform="scale(0.015625)"/>
       <path id="ArialMT-72" d="M 416 0 
L 416 3319 
L 922 3319 
L 922 2816 
Q 1116 3169 1280 3281 
Q 1444 3394 1641 3394 
Q 1925 3394 2219 3213 
L 2025 2691 
Q 1819 2813 1613 2813 
Q 1428 2813 1281 2702 
Q 1134 2591 1072 2394 
Q 978 2094 978 1738 
L 978 0 
L 416 0 
z
" transform="scale(0.015625)"/>
       <path id="ArialMT-20" transform="scale(0.015625)"/>
       <path id="ArialMT-6f" d="M 213 1659 
Q 213 2581 725 3025 
Q 1153 3394 1769 3394 
Q 2453 3394 2887 2945 
Q 3322 2497 3322 1706 
Q 3322 1066 3130 698 
Q 2938 331 2570 128 
Q 2203 -75 1769 -75 
Q 1072 -75 642 372 
Q 213 819 213 1659 
z
M 791 1659 
Q 791 1022 1069 705 
Q 1347 388 1769 388 
Q 2188 388 2466 706 
Q 2744 1025 2744 1678 
Q 2744 2294 2464 2611 
Q 2184 2928 1769 2928 
Q 1347 2928 1069 2612 
Q 791 2297 791 1659 
z
" transform="scale(0.015625)"/>
       <path id="ArialMT-66" d="M 556 0 
L 556 2881 
L 59 2881 
L 59 3319 
L 556 3319 
L 556 3672 
Q 556 4006 616 4169 
Q 697 4388 901 4523 
Q 1106 4659 1475 4659 
Q 1713 4659 2000 4603 
L 1916 4113 
Q 1741 4144 1584 4144 
Q 1328 4144 1222 4034 
Q 1116 3925 1116 3625 
L 1116 3319 
L 1763 3319 
L 1763 2881 
L 1116 2881 
L 1116 0 
L 556 0 
z
" transform="scale(0.015625)"/>
       <path id="ArialMT-42" d="M 469 0 
L 469 4581 
L 2188 4581 
Q 2713 4581 3030 4442 
Q 3347 4303 3526 4014 
Q 3706 3725 3706 3409 
Q 3706 3116 3547 2856 
Q 3388 2597 3066 2438 
Q 3481 2316 3704 2022 
Q 3928 1728 3928 1328 
Q 3928 1006 3792 729 
Q 3656 453 3456 303 
Q 3256 153 2954 76 
Q 2653 0 2216 0 
L 469 0 
z
M 1075 2656 
L 2066 2656 
Q 2469 2656 2644 2709 
Q 2875 2778 2992 2937 
Q 3109 3097 3109 3338 
Q 3109 3566 3000 3739 
Q 2891 3913 2687 3977 
Q 2484 4041 1991 4041 
L 1075 4041 
L 1075 2656 
z
M 1075 541 
L 2216 541 
Q 2509 541 2628 563 
Q 2838 600 2978 687 
Q 3119 775 3209 942 
Q 3300 1109 3300 1328 
Q 3300 1584 3169 1773 
Q 3038 1963 2805 2039 
Q 2572 2116 2134 2116 
L 1075 2116 
L 1075 541 
z
" transform="scale(0.015625)"/>
       <path id="ArialMT-61" d="M 2588 409 
Q 2275 144 1986 34 
Q 1697 -75 1366 -75 
Q 819 -75 525 192 
Q 231 459 231 875 
Q 231 1119 342 1320 
Q 453 1522 633 1644 
Q 813 1766 1038 1828 
Q 1203 1872 1538 1913 
Q 2219 1994 2541 2106 
Q 2544 2222 2544 2253 
Q 2544 2597 2384 2738 
Q 2169 2928 1744 2928 
Q 1347 2928 1158 2789 
Q 969 2650 878 2297 
L 328 2372 
Q 403 2725 575 2942 
Q 747 3159 1072 3276 
Q 1397 3394 1825 3394 
Q 2250 3394 2515 3294 
Q 2781 3194 2906 3042 
Q 3031 2891 3081 2659 
Q 3109 2516 3109 2141 
L 3109 1391 
Q 3109 606 3145 398 
Q 3181 191 3288 0 
L 2700 0 
Q 2613 175 2588 409 
z
M 2541 1666 
Q 2234 1541 1622 1453 
Q 1275 1403 1131 1340 
Q 988 1278 909 1158 
Q 831 1038 831 891 
Q 831 666 1001 516 
Q 1172 366 1500 366 
Q 1825 366 2078 508 
Q 2331 650 2450 897 
Q 2541 1088 2541 1459 
L 2541 1666 
z
" transform="scale(0.015625)"/>
       <path id="ArialMT-69" d="M 425 3934 
L 425 4581 
L 988 4581 
L 988 3934 
L 425 3934 
z
M 425 0 
L 425 3319 
L 988 3319 
L 988 0 
L 425 0 
z
" transform="scale(0.015625)"/>
       <path id="ArialMT-74" d="M 1650 503 
L 1731 6 
Q 1494 -44 1306 -44 
Q 1000 -44 831 53 
Q 663 150 594 308 
Q 525 466 525 972 
L 525 2881 
L 113 2881 
L 113 3319 
L 525 3319 
L 525 4141 
L 1084 4478 
L 1084 3319 
L 1650 3319 
L 1650 2881 
L 1084 2881 
L 1084 941 
Q 1084 700 1114 631 
Q 1144 563 1211 522 
Q 1278 481 1403 481 
Q 1497 481 1650 503 
z
" transform="scale(0.015625)"/>
       <path id="ArialMT-73" d="M 197 991 
L 753 1078 
Q 800 744 1014 566 
Q 1228 388 1613 388 
Q 2000 388 2187 545 
Q 2375 703 2375 916 
Q 2375 1106 2209 1216 
Q 2094 1291 1634 1406 
Q 1016 1563 777 1677 
Q 538 1791 414 1992 
Q 291 2194 291 2438 
Q 291 2659 392 2848 
Q 494 3038 669 3163 
Q 800 3259 1026 3326 
Q 1253 3394 1513 3394 
Q 1903 3394 2198 3281 
Q 2494 3169 2634 2976 
Q 2775 2784 2828 2463 
L 2278 2388 
Q 2241 2644 2061 2787 
Q 1881 2931 1553 2931 
Q 1166 2931 1000 2803 
Q 834 2675 834 2503 
Q 834 2394 903 2306 
Q 972 2216 1119 2156 
Q 1203 2125 1616 2013 
Q 2213 1853 2448 1751 
Q 2684 1650 2818 1456 
Q 2953 1263 2953 975 
Q 2953 694 2789 445 
Q 2625 197 2315 61 
Q 2006 -75 1616 -75 
Q 969 -75 630 194 
Q 291 463 197 991 
z
" transform="scale(0.015625)"/>
      </defs>
      <use xlink:href="#ArialMT-4e"/>
      <use xlink:href="#ArialMT-75" x="72.216797"/>
      <use xlink:href="#ArialMT-6d" x="127.832031"/>
      <use xlink:href="#ArialMT-62" x="211.132812"/>
      <use xlink:href="#ArialMT-65" x="266.748047"/>
      <use xlink:href="#ArialMT-72" x="322.363281"/>
      <use xlink:href="#ArialMT-20" x="355.664062"/>
      <use xlink:href="#ArialMT-6f" x="383.447266"/>
      <use xlink:href="#ArialMT-66" x="439.0625"/>
      <use xlink:href="#ArialMT-20" x="466.845703"/>
      <use xlink:href="#ArialMT-42" x="494.628906"/>
      <use xlink:href="#ArialMT-61" x="561.328125"/>
      <use xlink:href="#ArialMT-69" x="616.943359"/>
      <use xlink:href="#ArialMT-74" x="639.160156"/>
      <use xlink:href="#ArialMT-73" x="666.943359"/>
     </g>
    </g>
   </g>
   <g id="matplotlib.axis_2">
    <g id="ytick_1">
     <g id="line2d_7">
      <defs>
       <path id="m35fd897605" d="M 0 0 
L -3.5 0 
" style="stroke: #000000; stroke-width: 0.8"/>
      </defs>
      <g>
       <use xlink:href="#m35fd897605" x="44.96" y="608.2" style="stroke: #000000; stroke-width: 0.8"/>
      </g>
     </g>
     <g id="text_8">
      <!-- 0.0 -->
      <g transform="translate(24.06 611.778906) scale(0.1 -0.1)">
       <defs>
        <path id="ArialMT-2e" d="M 581 0 
L 581 641 
L 1222 641 
L 1222 0 
L 581 0 
z
" transform="scale(0.015625)"/>
       </defs>
       <use xlink:href="#ArialMT-30"/>
       <use xlink:href="#ArialMT-2e" x="55.615234"/>
       <use xlink:href="#ArialMT-30" x="83.398438"/>
      </g>
     </g>
    </g>
    <g id="ytick_2">
     <g id="line2d_8">
      <g>
       <use xlink:href="#m35fd897605" x="44.96" y="492.7096" style="stroke: #000000; stroke-width: 0.8"/>
      </g>
     </g>
     <g id="text_9">
      <!-- 0.2 -->
      <g transform="translate(24.06 496.288506) scale(0.1 -0.1)">
       <defs>
        <path id="ArialMT-32" d="M 3222 541 
L 3222 0 
L 194 0 
Q 188 203 259 391 
Q 375 700 629 1000 
Q 884 1300 1366 1694 
Q 2113 2306 2375 2664 
Q 2638 3022 2638 3341 
Q 2638 3675 2398 3904 
Q 2159 4134 1775 4134 
Q 1369 4134 1125 3890 
Q 881 3647 878 3216 
L 300 3275 
Q 359 3922 746 4261 
Q 1134 4600 1788 4600 
Q 2447 4600 2831 4234 
Q 3216 3869 3216 3328 
Q 3216 3053 3103 2787 
Q 2991 2522 2730 2228 
Q 2469 1934 1863 1422 
Q 1356 997 1212 845 
Q 1069 694 975 541 
L 3222 541 
z
" transform="scale(0.015625)"/>
       </defs>
       <use xlink:href="#ArialMT-30"/>
       <use xlink:href="#ArialMT-2e" x="55.615234"/>
       <use xlink:href="#ArialMT-32" x="83.398438"/>
      </g>
     </g>
    </g>
    <g id="ytick_3">
     <g id="line2d_9">
      <g>
       <use xlink:href="#m35fd897605" x="44.96" y="377.2192" style="stroke: #000000; stroke-width: 0.8"/>
      </g>
     </g>
     <g id="text_10">
      <!-- 0.4 -->
      <g transform="translate(24.06 380.798106) scale(0.1 -0.1)">
       <use xlink:href="#ArialMT-30"/>
       <use xlink:href="#ArialMT-2e" x="55.615234"/>
       <use xlink:href="#ArialMT-34" x="83.398438"/>
      </g>
     </g>
    </g>
    <g id="ytick_4">
     <g id="line2d_10">
      <g>
       <use xlink:href="#m35fd897605" x="44.96" y="261.7288" style="stroke: #000000; stroke-width: 0.8"/>
      </g>
     </g>
     <g id="text_11">
      <!-- 0.6 -->
      <g transform="translate(24.06 265.307706) scale(0.1 -0.1)">
       <use xlink:href="#ArialMT-30"/>
       <use xlink:href="#ArialMT-2e" x="55.615234"/>
       <use xlink:href="#ArialMT-36" x="83.398438"/>
      </g>
     </g>
    </g>
    <g id="ytick_5">
     <g id="line2d_11">
      <g>
       <use xlink:href="#m35fd897605" x="44.96" y="146.2384" style="stroke: #000000; stroke-width: 0.8"/>
      </g>
     </g>
     <g id="text_12">
      <!-- 0.8 -->
      <g transform="translate(24.06 149.817306) scale(0.1 -0.1)">
       <use xlink:href="#ArialMT-30"/>
       <use xlink:href="#ArialMT-2e" x="55.615234"/>
       <use xlink:href="#ArialMT-38" x="83.398438"/>
      </g>
     </g>
    </g>
    <g id="ytick_6">
     <g id="line2d_12">
      <g>
       <use xlink:href="#m35fd897605" x="44.96" y="30.748" style="stroke: #000000; stroke-width: 0.8"/>
      </g>
     </g>
     <g id="text_13">
      <!-- 1.0 -->
      <g transform="translate(24.06 34.326906) scale(0.1 -0.1)">
       <defs>
        <path id="ArialMT-31" d="M 2384 0 
L 1822 0 
L 1822 3584 
Q 1619 3391 1289 3197 
Q 959 3003 697 2906 
L 697 3450 
Q 1169 3672 1522 3987 
Q 1875 4303 2022 4600 
L 2384 4600 
L 2384 0 
z
" transform="scale(0.015625)"/>
       </defs>
       <use xlink:href="#ArialMT-31"/>
       <use xlink:href="#ArialMT-2e" x="55.615234"/>
       <use xlink:href="#ArialMT-30" x="83.398438"/>
      </g>
     </g>
    </g>
    <g id="text_14">
     <!-- Aggregated ARI Scores -->
     <g transform="translate(17.955312 371.725563) rotate(-90) scale(0.1 -0.1)">
      <defs>
       <path id="ArialMT-41" d="M -9 0 
L 1750 4581 
L 2403 4581 
L 4278 0 
L 3588 0 
L 3053 1388 
L 1138 1388 
L 634 0 
L -9 0 
z
M 1313 1881 
L 2866 1881 
L 2388 3150 
Q 2169 3728 2063 4100 
Q 1975 3659 1816 3225 
L 1313 1881 
z
" transform="scale(0.015625)"/>
       <path id="ArialMT-67" d="M 319 -275 
L 866 -356 
Q 900 -609 1056 -725 
Q 1266 -881 1628 -881 
Q 2019 -881 2231 -725 
Q 2444 -569 2519 -288 
Q 2563 -116 2559 434 
Q 2191 0 1641 0 
Q 956 0 581 494 
Q 206 988 206 1678 
Q 206 2153 378 2554 
Q 550 2956 876 3175 
Q 1203 3394 1644 3394 
Q 2231 3394 2613 2919 
L 2613 3319 
L 3131 3319 
L 3131 450 
Q 3131 -325 2973 -648 
Q 2816 -972 2473 -1159 
Q 2131 -1347 1631 -1347 
Q 1038 -1347 672 -1080 
Q 306 -813 319 -275 
z
M 784 1719 
Q 784 1066 1043 766 
Q 1303 466 1694 466 
Q 2081 466 2343 764 
Q 2606 1063 2606 1700 
Q 2606 2309 2336 2618 
Q 2066 2928 1684 2928 
Q 1309 2928 1046 2623 
Q 784 2319 784 1719 
z
" transform="scale(0.015625)"/>
       <path id="ArialMT-64" d="M 2575 0 
L 2575 419 
Q 2259 -75 1647 -75 
Q 1250 -75 917 144 
Q 584 363 401 755 
Q 219 1147 219 1656 
Q 219 2153 384 2558 
Q 550 2963 881 3178 
Q 1213 3394 1622 3394 
Q 1922 3394 2156 3267 
Q 2391 3141 2538 2938 
L 2538 4581 
L 3097 4581 
L 3097 0 
L 2575 0 
z
M 797 1656 
Q 797 1019 1065 703 
Q 1334 388 1700 388 
Q 2069 388 2326 689 
Q 2584 991 2584 1609 
Q 2584 2291 2321 2609 
Q 2059 2928 1675 2928 
Q 1300 2928 1048 2622 
Q 797 2316 797 1656 
z
" transform="scale(0.015625)"/>
       <path id="ArialMT-52" d="M 503 0 
L 503 4581 
L 2534 4581 
Q 3147 4581 3465 4457 
Q 3784 4334 3975 4021 
Q 4166 3709 4166 3331 
Q 4166 2844 3850 2509 
Q 3534 2175 2875 2084 
Q 3116 1969 3241 1856 
Q 3506 1613 3744 1247 
L 4541 0 
L 3778 0 
L 3172 953 
Q 2906 1366 2734 1584 
Q 2563 1803 2427 1890 
Q 2291 1978 2150 2013 
Q 2047 2034 1813 2034 
L 1109 2034 
L 1109 0 
L 503 0 
z
M 1109 2559 
L 2413 2559 
Q 2828 2559 3062 2645 
Q 3297 2731 3419 2920 
Q 3541 3109 3541 3331 
Q 3541 3656 3305 3865 
Q 3069 4075 2559 4075 
L 1109 4075 
L 1109 2559 
z
" transform="scale(0.015625)"/>
       <path id="ArialMT-49" d="M 597 0 
L 597 4581 
L 1203 4581 
L 1203 0 
L 597 0 
z
" transform="scale(0.015625)"/>
       <path id="ArialMT-53" d="M 288 1472 
L 859 1522 
Q 900 1178 1048 958 
Q 1197 738 1509 602 
Q 1822 466 2213 466 
Q 2559 466 2825 569 
Q 3091 672 3220 851 
Q 3350 1031 3350 1244 
Q 3350 1459 3225 1620 
Q 3100 1781 2813 1891 
Q 2628 1963 1997 2114 
Q 1366 2266 1113 2400 
Q 784 2572 623 2826 
Q 463 3081 463 3397 
Q 463 3744 659 4045 
Q 856 4347 1234 4503 
Q 1613 4659 2075 4659 
Q 2584 4659 2973 4495 
Q 3363 4331 3572 4012 
Q 3781 3694 3797 3291 
L 3216 3247 
Q 3169 3681 2898 3903 
Q 2628 4125 2100 4125 
Q 1550 4125 1298 3923 
Q 1047 3722 1047 3438 
Q 1047 3191 1225 3031 
Q 1400 2872 2139 2705 
Q 2878 2538 3153 2413 
Q 3553 2228 3743 1945 
Q 3934 1663 3934 1294 
Q 3934 928 3725 604 
Q 3516 281 3123 101 
Q 2731 -78 2241 -78 
Q 1619 -78 1198 103 
Q 778 284 539 648 
Q 300 1013 288 1472 
z
" transform="scale(0.015625)"/>
       <path id="ArialMT-63" d="M 2588 1216 
L 3141 1144 
Q 3050 572 2676 248 
Q 2303 -75 1759 -75 
Q 1078 -75 664 370 
Q 250 816 250 1647 
Q 250 2184 428 2587 
Q 606 2991 970 3192 
Q 1334 3394 1763 3394 
Q 2303 3394 2647 3120 
Q 2991 2847 3088 2344 
L 2541 2259 
Q 2463 2594 2264 2762 
Q 2066 2931 1784 2931 
Q 1359 2931 1093 2626 
Q 828 2322 828 1663 
Q 828 994 1084 691 
Q 1341 388 1753 388 
Q 2084 388 2306 591 
Q 2528 794 2588 1216 
z
" transform="scale(0.015625)"/>
      </defs>
      <use xlink:href="#ArialMT-41"/>
      <use xlink:href="#ArialMT-67" x="66.699219"/>
      <use xlink:href="#ArialMT-67" x="122.314453"/>
      <use xlink:href="#ArialMT-72" x="177.929688"/>
      <use xlink:href="#ArialMT-65" x="211.230469"/>
      <use xlink:href="#ArialMT-67" x="266.845703"/>
      <use xlink:href="#ArialMT-61" x="322.460938"/>
      <use xlink:href="#ArialMT-74" x="378.076172"/>
      <use xlink:href="#ArialMT-65" x="405.859375"/>
      <use xlink:href="#ArialMT-64" x="461.474609"/>
      <use xlink:href="#ArialMT-20" x="517.089844"/>
      <use xlink:href="#ArialMT-41" x="539.373047"/>
      <use xlink:href="#ArialMT-52" x="606.072266"/>
      <use xlink:href="#ArialMT-49" x="678.289062"/>
      <use xlink:href="#ArialMT-20" x="706.072266"/>
      <use xlink:href="#ArialMT-53" x="733.855469"/>
      <use xlink:href="#ArialMT-63" x="800.554688"/>
      <use xlink:href="#ArialMT-6f" x="850.554688"/>
      <use xlink:href="#ArialMT-72" x="906.169922"/>
      <use xlink:href="#ArialMT-65" x="939.470703"/>
      <use xlink:href="#ArialMT-73" x="995.085938"/>
     </g>
    </g>
   </g>
   <g id="line2d_13">
    <path d="M 44.96 388.757778 
L 62.9235 387.307756 
L 80.887 389.52778 
L 98.8505 378.577826 
L 116.814 385.778055 
L 134.7775 383.034148 
L 152.741 384.836304 
L 170.7045 373.835591 
L 188.668 384.403636 
L 206.6315 377.719075 
L 224.595 369.511929 
L 242.5585 374.180004 
L 260.522 379.814464 
L 278.4855 372.152666 
L 296.449 378.835104 
L 314.4125 376.786305 
L 332.376 377.116765 
L 350.3395 382.340553 
L 368.303 373.23212 
L 386.2665 380.79035 
L 404.23 368.798273 
L 422.1935 373.726338 
L 440.157 373.465812 
L 458.1205 377.17255 
L 476.084 368.942778 
L 494.0475 369.025202 
L 512.011 369.642282 
L 529.9745 370.44386 
L 547.938 370.827639 
L 565.9015 365.505297 
L 583.865 369.379485 
L 601.8285 361.320405 
L 619.792 365.357808 
L 637.7555 368.772625 
L 655.719 366.475689 
L 673.6825 367.063948 
L 691.646 368.365662 
L 709.6095 366.338572 
L 727.573 360.507811 
L 745.5365 358.931126 
L 763.5 361.07353 
L 781.4635 365.85964 
L 799.427 360.925417 
L 817.3905 360.469771 
L 835.354 366.827352 
L 853.3175 356.928651 
L 871.281 362.614527 
L 889.2445 360.460343 
L 907.208 367.268996 
L 925.1715 357.304048 
L 943.135 363.910339 
" clip-path="url(#pb68aaf5a1a)" style="fill: none; stroke: #1f77b4; stroke-width: 1.5; stroke-linecap: square"/>
   </g>
   <g id="line2d_14">
    <path d="M 44.96 430.866294 
L 62.9235 425.822527 
L 80.887 432.754772 
L 98.8505 423.803364 
L 116.814 432.232362 
L 134.7775 433.389943 
L 152.741 429.478595 
L 170.7045 423.622073 
L 188.668 443.031606 
L 206.6315 425.617174 
L 224.595 412.918411 
L 242.5585 425.300473 
L 260.522 432.452199 
L 278.4855 437.917729 
L 296.449 422.902762 
L 314.4125 424.94712 
L 332.376 425.684263 
L 350.3395 408.202467 
L 368.303 424.281687 
L 386.2665 418.363728 
L 404.23 419.232032 
L 422.1935 428.226268 
L 440.157 417.934106 
L 458.1205 409.600044 
L 476.084 409.097345 
L 494.0475 414.55736 
L 512.011 406.091614 
L 529.9745 409.941424 
L 547.938 408.309039 
L 565.9015 417.82414 
L 583.865 419.390674 
L 601.8285 416.199464 
L 619.792 411.186535 
L 637.7555 411.803394 
L 655.719 413.60266 
L 673.6825 410.373881 
L 691.646 410.075004 
L 709.6095 408.080655 
L 727.573 408.067492 
L 745.5365 414.52482 
L 763.5 407.440666 
L 781.4635 407.789398 
L 799.427 404.335312 
L 817.3905 409.357475 
L 835.354 404.916087 
L 853.3175 408.648716 
L 871.281 404.526235 
L 889.2445 400.815973 
L 907.208 392.863296 
L 925.1715 396.143322 
L 943.135 406.407351 
" clip-path="url(#pb68aaf5a1a)" style="fill: none; stroke: #aec7e8; stroke-width: 1.5; stroke-linecap: square"/>
   </g>
   <g id="line2d_15">
    <path d="M 44.96 375.57239 
L 62.9235 379.004158 
L 80.887 378.603815 
L 98.8505 375.29604 
L 116.814 374.809851 
L 134.7775 381.932396 
L 152.741 374.849522 
L 170.7045 372.679554 
L 188.668 377.482825 
L 206.6315 382.679676 
L 224.595 377.302104 
L 242.5585 374.641154 
L 260.522 374.266534 
L 278.4855 372.657878 
L 296.449 380.715048 
L 314.4125 370.226447 
L 332.376 377.948422 
L 350.3395 377.922016 
L 368.303 368.8791 
L 386.2665 365.571753 
L 404.23 376.617547 
L 422.1935 375.137971 
L 440.157 376.037028 
L 458.1205 371.527152 
L 476.084 373.916503 
L 494.0475 377.875374 
L 512.011 376.507239 
L 529.9745 372.611281 
L 547.938 372.096164 
L 565.9015 372.857453 
L 583.865 375.856405 
L 601.8285 371.155796 
L 619.792 368.820116 
L 637.7555 376.553916 
L 655.719 372.298691 
L 673.6825 365.023994 
L 691.646 372.527336 
L 709.6095 374.688816 
L 727.573 366.985271 
L 745.5365 374.26471 
L 763.5 370.599664 
L 781.4635 372.964361 
L 799.427 360.828271 
L 817.3905 371.12236 
L 835.354 362.711289 
L 853.3175 369.179902 
L 871.281 365.596817 
L 889.2445 364.683521 
L 907.208 365.77042 
L 925.1715 364.676139 
L 943.135 356.523802 
" clip-path="url(#pb68aaf5a1a)" style="fill: none; stroke: #ffbb78; stroke-width: 1.5; stroke-linecap: square"/>
   </g>
   <g id="line2d_16">
    <path d="M 44.96 365.67193 
L 62.9235 370.547569 
L 80.887 365.134031 
L 98.8505 371.065294 
L 116.814 373.109184 
L 134.7775 366.354952 
L 152.741 368.957073 
L 170.7045 369.263065 
L 188.668 373.455595 
L 206.6315 372.89311 
L 224.595 374.677587 
L 242.5585 374.701276 
L 260.522 369.276958 
L 278.4855 376.610728 
L 296.449 372.184032 
L 314.4125 378.916893 
L 332.376 373.135773 
L 350.3395 375.306393 
L 368.303 376.071471 
L 386.2665 369.553232 
L 404.23 372.604152 
L 422.1935 369.026006 
L 440.157 383.371653 
L 458.1205 375.866684 
L 476.084 365.877558 
L 494.0475 369.92272 
L 512.011 372.58514 
L 529.9745 375.203799 
L 547.938 373.026878 
L 565.9015 370.650482 
L 583.865 371.257386 
L 601.8285 371.956344 
L 619.792 374.390672 
L 637.7555 365.362347 
L 655.719 372.129408 
L 673.6825 363.549216 
L 691.646 370.950261 
L 709.6095 358.946661 
L 727.573 364.802634 
L 745.5365 358.658204 
L 763.5 362.467276 
L 781.4635 350.081434 
L 799.427 366.855476 
L 817.3905 358.978614 
L 835.354 355.582506 
L 853.3175 358.731849 
L 871.281 369.337078 
L 889.2445 363.912819 
L 907.208 361.6566 
L 925.1715 358.696615 
L 943.135 354.354693 
" clip-path="url(#pb68aaf5a1a)" style="fill: none; stroke: #98df8a; stroke-width: 1.5; stroke-linecap: square"/>
   </g>
   <g id="line2d_17">
    <path d="M 44.96 366.487163 
L 62.9235 362.862928 
L 80.887 361.625723 
L 98.8505 362.455712 
L 116.814 357.931947 
L 134.7775 363.682036 
L 152.741 364.028546 
L 170.7045 369.701625 
L 188.668 364.877297 
L 206.6315 372.293089 
L 224.595 359.290052 
L 242.5585 362.516488 
L 260.522 361.408206 
L 278.4855 366.827684 
L 296.449 351.897803 
L 314.4125 352.508427 
L 332.376 359.20491 
L 350.3395 355.023909 
L 368.303 358.705475 
L 386.2665 362.342153 
L 404.23 362.232288 
L 422.1935 361.570511 
L 440.157 360.921334 
L 458.1205 358.537642 
L 476.084 358.676935 
L 494.0475 367.654452 
L 512.011 353.689593 
L 529.9745 361.361998 
L 547.938 353.937339 
L 565.9015 358.615982 
L 583.865 357.847204 
L 601.8285 350.660024 
L 619.792 353.827555 
L 637.7555 356.42129 
L 655.719 349.641911 
L 673.6825 352.453689 
L 691.646 356.550904 
L 709.6095 353.967653 
L 727.573 351.805416 
L 745.5365 351.579321 
L 763.5 346.042134 
L 781.4635 344.536694 
L 799.427 341.844645 
L 817.3905 347.293351 
L 835.354 352.735301 
L 853.3175 354.919277 
L 871.281 348.159762 
L 889.2445 348.746065 
L 907.208 348.481764 
L 925.1715 349.050858 
L 943.135 350.529534 
" clip-path="url(#pb68aaf5a1a)" style="fill: none; stroke: #ff9896; stroke-width: 1.5; stroke-linecap: square"/>
   </g>
   <g id="line2d_18">
    <path d="M 44.96 413.498235 
L 62.9235 415.278385 
L 80.887 405.670272 
L 98.8505 402.887417 
L 116.814 411.28498 
L 134.7775 405.29633 
L 152.741 408.489711 
L 170.7045 404.844116 
L 188.668 395.700481 
L 206.6315 395.937947 
L 224.595 399.277905 
L 242.5585 397.012322 
L 260.522 399.302973 
L 278.4855 397.743954 
L 296.449 394.393437 
L 314.4125 394.427323 
L 332.376 397.029737 
L 350.3395 389.037962 
L 368.303 381.750877 
L 386.2665 383.953144 
L 404.23 387.125913 
L 422.1935 388.788304 
L 440.157 377.815384 
L 458.1205 387.920229 
L 476.084 384.29232 
L 494.0475 381.000983 
L 512.011 383.920626 
L 529.9745 376.136723 
L 547.938 379.290968 
L 565.9015 381.957816 
L 583.865 385.555707 
L 601.8285 382.797977 
L 619.792 377.806676 
L 637.7555 385.846844 
L 655.719 377.179341 
L 673.6825 385.860732 
L 691.646 383.280433 
L 709.6095 380.618518 
L 727.573 387.283657 
L 745.5365 378.371304 
L 763.5 380.076661 
L 781.4635 387.752437 
L 799.427 374.810801 
L 817.3905 379.518245 
L 835.354 384.639224 
L 853.3175 384.234024 
L 871.281 388.73528 
L 889.2445 371.181371 
L 907.208 376.478179 
L 925.1715 380.036166 
L 943.135 381.304482 
" clip-path="url(#pb68aaf5a1a)" style="fill: none; stroke: #c5b0d5; stroke-width: 1.5; stroke-linecap: square"/>
   </g>
   <g id="line2d_19">
    <path d="M 44.96 421.191578 
L 62.9235 419.603817 
L 80.887 416.926316 
L 98.8505 419.053056 
L 116.814 418.506334 
L 134.7775 418.242906 
L 152.741 415.453494 
L 170.7045 418.569054 
L 188.668 417.224764 
L 206.6315 412.921003 
L 224.595 414.046991 
L 242.5585 411.284804 
L 260.522 412.489324 
L 278.4855 412.647172 
L 296.449 416.243608 
L 314.4125 412.618993 
L 332.376 414.572371 
L 350.3395 412.748553 
L 368.303 411.664223 
L 386.2665 408.787814 
L 404.23 409.386991 
L 422.1935 403.614115 
L 440.157 400.750955 
L 458.1205 410.751324 
L 476.084 411.48096 
L 494.0475 408.214786 
L 512.011 406.97507 
L 529.9745 402.59077 
L 547.938 410.067665 
L 565.9015 403.039708 
L 583.865 407.177028 
L 601.8285 407.386472 
L 619.792 407.891756 
L 637.7555 406.339436 
L 655.719 393.707927 
L 673.6825 401.848209 
L 691.646 396.893028 
L 709.6095 395.163001 
L 727.573 395.082501 
L 745.5365 395.832424 
L 763.5 397.056093 
L 781.4635 395.115714 
L 799.427 387.892389 
L 817.3905 395.757213 
L 835.354 381.373529 
L 853.3175 386.074446 
L 871.281 379.783881 
L 889.2445 389.98809 
L 907.208 379.112091 
L 925.1715 381.26161 
L 943.135 378.311135 
" clip-path="url(#pb68aaf5a1a)" style="fill: none; stroke: #8c564b; stroke-width: 1.5; stroke-linecap: square"/>
   </g>
   <g id="line2d_20">
    <path d="M 44.96 415.406741 
L 62.9235 418.029802 
L 80.887 421.565711 
L 98.8505 417.86889 
L 116.814 417.666516 
L 134.7775 415.834993 
L 152.741 410.272348 
L 170.7045 405.963752 
L 188.668 412.632719 
L 206.6315 407.292514 
L 224.595 402.508046 
L 242.5585 405.214481 
L 260.522 403.282155 
L 278.4855 408.51595 
L 296.449 397.682346 
L 314.4125 402.414482 
L 332.376 396.318435 
L 350.3395 400.988482 
L 368.303 403.189497 
L 386.2665 400.45407 
L 404.23 401.086054 
L 422.1935 407.360026 
L 440.157 397.624692 
L 458.1205 401.32565 
L 476.084 401.64959 
L 494.0475 399.424265 
L 512.011 393.347424 
L 529.9745 396.820852 
L 547.938 388.937837 
L 565.9015 391.85025 
L 583.865 386.577671 
L 601.8285 392.577069 
L 619.792 397.387342 
L 637.7555 396.494694 
L 655.719 392.682609 
L 673.6825 392.529157 
L 691.646 384.287988 
L 709.6095 390.579627 
L 727.573 387.86814 
L 745.5365 385.54259 
L 763.5 379.516536 
L 781.4635 387.16829 
L 799.427 382.169553 
L 817.3905 380.614829 
L 835.354 374.221719 
L 853.3175 383.069724 
L 871.281 381.600842 
L 889.2445 384.654058 
L 907.208 380.445168 
L 925.1715 383.710288 
L 943.135 375.819462 
" clip-path="url(#pb68aaf5a1a)" style="fill: none; stroke: #e377c2; stroke-width: 1.5; stroke-linecap: square"/>
   </g>
   <g id="line2d_21">
    <path d="M 44.96 394.012171 
L 62.9235 388.306922 
L 80.887 384.536117 
L 98.8505 388.7069 
L 116.814 386.624524 
L 134.7775 395.371494 
L 152.741 389.440667 
L 170.7045 389.762525 
L 188.668 387.341666 
L 206.6315 385.308893 
L 224.595 382.120824 
L 242.5585 387.018095 
L 260.522 385.954826 
L 278.4855 393.866623 
L 296.449 387.261491 
L 314.4125 382.291288 
L 332.376 388.210725 
L 350.3395 387.884401 
L 368.303 388.639872 
L 386.2665 387.43244 
L 404.23 391.134588 
L 422.1935 385.213777 
L 440.157 383.334811 
L 458.1205 387.486606 
L 476.084 387.76598 
L 494.0475 380.31214 
L 512.011 380.383672 
L 529.9745 384.509185 
L 547.938 377.442523 
L 565.9015 380.839259 
L 583.865 380.266375 
L 601.8285 374.225708 
L 619.792 379.021165 
L 637.7555 374.47498 
L 655.719 373.566277 
L 673.6825 374.484578 
L 691.646 380.607988 
L 709.6095 374.663248 
L 727.573 373.976095 
L 745.5365 376.689576 
L 763.5 372.936622 
L 781.4635 375.247859 
L 799.427 376.402959 
L 817.3905 373.426606 
L 835.354 369.58876 
L 853.3175 363.786355 
L 871.281 377.484151 
L 889.2445 374.255537 
L 907.208 372.789648 
L 925.1715 363.595538 
L 943.135 376.278204 
" clip-path="url(#pb68aaf5a1a)" style="fill: none; stroke: #7f7f7f; stroke-width: 1.5; stroke-linecap: square"/>
   </g>
   <g id="line2d_22">
    <path d="M 44.96 389.670372 
L 62.9235 385.0047 
L 80.887 390.496037 
L 98.8505 389.427209 
L 116.814 388.677597 
L 134.7775 392.727255 
L 152.741 394.740309 
L 170.7045 395.36555 
L 188.668 390.071258 
L 206.6315 391.448777 
L 224.595 392.075108 
L 242.5585 389.521132 
L 260.522 385.907806 
L 278.4855 388.021692 
L 296.449 390.002727 
L 314.4125 386.276097 
L 332.376 397.694987 
L 350.3395 387.981438 
L 368.303 396.251514 
L 386.2665 391.343585 
L 404.23 387.589778 
L 422.1935 389.324668 
L 440.157 392.995037 
L 458.1205 390.792859 
L 476.084 387.56268 
L 494.0475 386.625667 
L 512.011 387.270152 
L 529.9745 387.337962 
L 547.938 383.420364 
L 565.9015 379.615773 
L 583.865 388.629262 
L 601.8285 382.616242 
L 619.792 386.492196 
L 637.7555 385.454879 
L 655.719 381.127691 
L 673.6825 383.249945 
L 691.646 385.694906 
L 709.6095 381.220639 
L 727.573 388.746273 
L 745.5365 376.487748 
L 763.5 383.138984 
L 781.4635 379.093666 
L 799.427 376.346428 
L 817.3905 374.624397 
L 835.354 381.426715 
L 853.3175 374.530448 
L 871.281 376.467698 
L 889.2445 380.237451 
L 907.208 375.072593 
L 925.1715 373.544673 
L 943.135 368.634961 
" clip-path="url(#pb68aaf5a1a)" style="fill: none; stroke: #bcbd22; stroke-width: 1.5; stroke-linecap: square"/>
   </g>
   <g id="line2d_23">
    <path d="M 44.96 385.19972 
L 62.9235 387.188466 
L 80.887 389.373461 
L 98.8505 386.529672 
L 116.814 393.909208 
L 134.7775 390.064061 
L 152.741 391.654175 
L 170.7045 385.093581 
L 188.668 392.198198 
L 206.6315 394.263731 
L 224.595 393.316504 
L 242.5585 388.561899 
L 260.522 396.54667 
L 278.4855 397.206442 
L 296.449 391.033265 
L 314.4125 393.80494 
L 332.376 397.527397 
L 350.3395 392.239606 
L 368.303 394.021588 
L 386.2665 391.029132 
L 404.23 393.108851 
L 422.1935 394.588854 
L 440.157 391.239951 
L 458.1205 394.32077 
L 476.084 386.982884 
L 494.0475 394.812789 
L 512.011 390.044313 
L 529.9745 395.598675 
L 547.938 390.463644 
L 565.9015 387.587615 
L 583.865 390.936434 
L 601.8285 385.489431 
L 619.792 395.27603 
L 637.7555 385.943645 
L 655.719 383.86799 
L 673.6825 388.707138 
L 691.646 387.749467 
L 709.6095 381.045026 
L 727.573 378.011784 
L 745.5365 381.239581 
L 763.5 384.036964 
L 781.4635 373.606022 
L 799.427 375.88261 
L 817.3905 378.309552 
L 835.354 375.570581 
L 853.3175 370.331881 
L 871.281 375.30767 
L 889.2445 370.45358 
L 907.208 370.337831 
L 925.1715 362.785528 
L 943.135 374.609811 
" clip-path="url(#pb68aaf5a1a)" style="fill: none; stroke: #17becf; stroke-width: 1.5; stroke-linecap: square"/>
   </g>
   <g id="line2d_24">
    <path d="M 44.96 396.15453 
L 62.9235 394.352227 
L 80.887 391.395958 
L 98.8505 390.396993 
L 116.814 383.982942 
L 134.7775 384.51137 
L 152.741 385.415678 
L 170.7045 377.10575 
L 188.668 383.107886 
L 206.6315 386.15822 
L 224.595 381.038314 
L 242.5585 382.698809 
L 260.522 387.124389 
L 278.4855 375.308473 
L 296.449 384.167183 
L 314.4125 374.448342 
L 332.376 393.237282 
L 350.3395 378.174177 
L 368.303 372.17555 
L 386.2665 384.290593 
L 404.23 379.302723 
L 422.1935 378.976002 
L 440.157 372.945442 
L 458.1205 380.849543 
L 476.084 375.815327 
L 494.0475 366.473997 
L 512.011 367.607615 
L 529.9745 376.068756 
L 547.938 372.75878 
L 565.9015 377.664399 
L 583.865 378.350984 
L 601.8285 369.884977 
L 619.792 365.729473 
L 637.7555 375.070731 
L 655.719 372.908448 
L 673.6825 369.330867 
L 691.646 367.593098 
L 709.6095 374.902051 
L 727.573 372.868971 
L 745.5365 366.714802 
L 763.5 373.438655 
L 781.4635 366.108982 
L 799.427 367.634482 
L 817.3905 363.387792 
L 835.354 360.972014 
L 853.3175 371.616054 
L 871.281 355.490336 
L 889.2445 356.898423 
L 907.208 360.032569 
L 925.1715 365.905119 
L 943.135 360.193668 
" clip-path="url(#pb68aaf5a1a)" style="fill: none; stroke: #9edae5; stroke-width: 1.5; stroke-linecap: square"/>
   </g>
   <g id="patch_3">
    <path d="M 44.96 608.2 
L 44.96 30.748 
" style="fill: none; stroke: #000000; stroke-width: 0.8; stroke-linejoin: miter; stroke-linecap: square"/>
   </g>
   <g id="patch_4">
    <path d="M 943.135 608.2 
L 943.135 30.748 
" style="fill: none; stroke: #000000; stroke-width: 0.8; stroke-linejoin: miter; stroke-linecap: square"/>
   </g>
   <g id="patch_5">
    <path d="M 44.96 608.2 
L 943.135 608.2 
" style="fill: none; stroke: #000000; stroke-width: 0.8; stroke-linejoin: miter; stroke-linecap: square"/>
   </g>
   <g id="patch_6">
    <path d="M 44.96 30.748 
L 943.135 30.748 
" style="fill: none; stroke: #000000; stroke-width: 0.8; stroke-linejoin: miter; stroke-linecap: square"/>
   </g>
   <g id="text_15">
    <!-- GMM ARI Scores by Number of Baits for Each Method -->
    <g transform="translate(349.333125 24.748) scale(0.12 -0.12)">
     <defs>
      <path id="ArialMT-47" d="M 2638 1797 
L 2638 2334 
L 4578 2338 
L 4578 638 
Q 4131 281 3656 101 
Q 3181 -78 2681 -78 
Q 2006 -78 1454 211 
Q 903 500 622 1047 
Q 341 1594 341 2269 
Q 341 2938 620 3517 
Q 900 4097 1425 4378 
Q 1950 4659 2634 4659 
Q 3131 4659 3532 4498 
Q 3934 4338 4162 4050 
Q 4391 3763 4509 3300 
L 3963 3150 
Q 3859 3500 3706 3700 
Q 3553 3900 3268 4020 
Q 2984 4141 2638 4141 
Q 2222 4141 1919 4014 
Q 1616 3888 1430 3681 
Q 1244 3475 1141 3228 
Q 966 2803 966 2306 
Q 966 1694 1177 1281 
Q 1388 869 1791 669 
Q 2194 469 2647 469 
Q 3041 469 3416 620 
Q 3791 772 3984 944 
L 3984 1797 
L 2638 1797 
z
" transform="scale(0.015625)"/>
      <path id="ArialMT-4d" d="M 475 0 
L 475 4581 
L 1388 4581 
L 2472 1338 
Q 2622 884 2691 659 
Q 2769 909 2934 1394 
L 4031 4581 
L 4847 4581 
L 4847 0 
L 4263 0 
L 4263 3834 
L 2931 0 
L 2384 0 
L 1059 3900 
L 1059 0 
L 475 0 
z
" transform="scale(0.015625)"/>
      <path id="ArialMT-79" d="M 397 -1278 
L 334 -750 
Q 519 -800 656 -800 
Q 844 -800 956 -737 
Q 1069 -675 1141 -563 
Q 1194 -478 1313 -144 
Q 1328 -97 1363 -6 
L 103 3319 
L 709 3319 
L 1400 1397 
Q 1534 1031 1641 628 
Q 1738 1016 1872 1384 
L 2581 3319 
L 3144 3319 
L 1881 -56 
Q 1678 -603 1566 -809 
Q 1416 -1088 1222 -1217 
Q 1028 -1347 759 -1347 
Q 597 -1347 397 -1278 
z
" transform="scale(0.015625)"/>
      <path id="ArialMT-45" d="M 506 0 
L 506 4581 
L 3819 4581 
L 3819 4041 
L 1113 4041 
L 1113 2638 
L 3647 2638 
L 3647 2100 
L 1113 2100 
L 1113 541 
L 3925 541 
L 3925 0 
L 506 0 
z
" transform="scale(0.015625)"/>
      <path id="ArialMT-68" d="M 422 0 
L 422 4581 
L 984 4581 
L 984 2938 
Q 1378 3394 1978 3394 
Q 2347 3394 2619 3248 
Q 2891 3103 3008 2847 
Q 3125 2591 3125 2103 
L 3125 0 
L 2563 0 
L 2563 2103 
Q 2563 2525 2380 2717 
Q 2197 2909 1863 2909 
Q 1613 2909 1392 2779 
Q 1172 2650 1078 2428 
Q 984 2206 984 1816 
L 984 0 
L 422 0 
z
" transform="scale(0.015625)"/>
     </defs>
     <use xlink:href="#ArialMT-47"/>
     <use xlink:href="#ArialMT-4d" x="77.783203"/>
     <use xlink:href="#ArialMT-4d" x="161.083984"/>
     <use xlink:href="#ArialMT-20" x="244.384766"/>
     <use xlink:href="#ArialMT-41" x="266.667969"/>
     <use xlink:href="#ArialMT-52" x="333.367188"/>
     <use xlink:href="#ArialMT-49" x="405.583984"/>
     <use xlink:href="#ArialMT-20" x="433.367188"/>
     <use xlink:href="#ArialMT-53" x="461.150391"/>
     <use xlink:href="#ArialMT-63" x="527.849609"/>
     <use xlink:href="#ArialMT-6f" x="577.849609"/>
     <use xlink:href="#ArialMT-72" x="633.464844"/>
     <use xlink:href="#ArialMT-65" x="666.765625"/>
     <use xlink:href="#ArialMT-73" x="722.380859"/>
     <use xlink:href="#ArialMT-20" x="772.380859"/>
     <use xlink:href="#ArialMT-62" x="800.164062"/>
     <use xlink:href="#ArialMT-79" x="855.779297"/>
     <use xlink:href="#ArialMT-20" x="905.779297"/>
     <use xlink:href="#ArialMT-4e" x="933.5625"/>
     <use xlink:href="#ArialMT-75" x="1005.779297"/>
     <use xlink:href="#ArialMT-6d" x="1061.394531"/>
     <use xlink:href="#ArialMT-62" x="1144.695312"/>
     <use xlink:href="#ArialMT-65" x="1200.310547"/>
     <use xlink:href="#ArialMT-72" x="1255.925781"/>
     <use xlink:href="#ArialMT-20" x="1289.226562"/>
     <use xlink:href="#ArialMT-6f" x="1317.009766"/>
     <use xlink:href="#ArialMT-66" x="1372.625"/>
     <use xlink:href="#ArialMT-20" x="1400.408203"/>
     <use xlink:href="#ArialMT-42" x="1428.191406"/>
     <use xlink:href="#ArialMT-61" x="1494.890625"/>
     <use xlink:href="#ArialMT-69" x="1550.505859"/>
     <use xlink:href="#ArialMT-74" x="1572.722656"/>
     <use xlink:href="#ArialMT-73" x="1600.505859"/>
     <use xlink:href="#ArialMT-20" x="1650.505859"/>
     <use xlink:href="#ArialMT-66" x="1678.289062"/>
     <use xlink:href="#ArialMT-6f" x="1706.072266"/>
     <use xlink:href="#ArialMT-72" x="1761.6875"/>
     <use xlink:href="#ArialMT-20" x="1794.988281"/>
     <use xlink:href="#ArialMT-45" x="1822.771484"/>
     <use xlink:href="#ArialMT-61" x="1889.470703"/>
     <use xlink:href="#ArialMT-63" x="1945.085938"/>
     <use xlink:href="#ArialMT-68" x="1995.085938"/>
     <use xlink:href="#ArialMT-20" x="2050.701172"/>
     <use xlink:href="#ArialMT-4d" x="2078.484375"/>
     <use xlink:href="#ArialMT-65" x="2161.785156"/>
     <use xlink:href="#ArialMT-74" x="2217.400391"/>
     <use xlink:href="#ArialMT-68" x="2245.183594"/>
     <use xlink:href="#ArialMT-6f" x="2300.798828"/>
     <use xlink:href="#ArialMT-64" x="2356.414062"/>
    </g>
   </g>
   <g id="legend_1">
    <g id="patch_7">
     <path d="M 950.135 180.24415 
L 1067.174063 180.24415 
Q 1069.174063 180.24415 1069.174063 178.24415 
L 1069.174063 8.8754 
Q 1069.174063 6.8754 1067.174063 6.8754 
L 950.135 6.8754 
Q 948.135 6.8754 948.135 8.8754 
L 948.135 178.24415 
Q 948.135 180.24415 950.135 180.24415 
z
" style="fill: #ffffff; opacity: 0.8; stroke: #cccccc; stroke-linejoin: miter"/>
    </g>
    <g id="line2d_25">
     <path d="M 952.135 14.533212 
L 962.135 14.533212 
L 972.135 14.533212 
" style="fill: none; stroke: #1f77b4; stroke-width: 1.5; stroke-linecap: square"/>
    </g>
    <g id="text_16">
     <!-- GA -->
     <g transform="translate(980.135 18.033212) scale(0.1 -0.1)">
      <use xlink:href="#ArialMT-47"/>
      <use xlink:href="#ArialMT-41" x="77.783203"/>
     </g>
    </g>
    <g id="line2d_26">
     <path d="M 952.135 28.678525 
L 962.135 28.678525 
L 972.135 28.678525 
" style="fill: none; stroke: #aec7e8; stroke-width: 1.5; stroke-linecap: square"/>
    </g>
    <g id="text_17">
     <!-- Random -->
     <g transform="translate(980.135 32.178525) scale(0.1 -0.1)">
      <defs>
       <path id="ArialMT-6e" d="M 422 0 
L 422 3319 
L 928 3319 
L 928 2847 
Q 1294 3394 1984 3394 
Q 2284 3394 2536 3286 
Q 2788 3178 2913 3003 
Q 3038 2828 3088 2588 
Q 3119 2431 3119 2041 
L 3119 0 
L 2556 0 
L 2556 2019 
Q 2556 2363 2490 2533 
Q 2425 2703 2258 2804 
Q 2091 2906 1866 2906 
Q 1506 2906 1245 2678 
Q 984 2450 984 1813 
L 984 0 
L 422 0 
z
" transform="scale(0.015625)"/>
      </defs>
      <use xlink:href="#ArialMT-52"/>
      <use xlink:href="#ArialMT-61" x="72.216797"/>
      <use xlink:href="#ArialMT-6e" x="127.832031"/>
      <use xlink:href="#ArialMT-64" x="183.447266"/>
      <use xlink:href="#ArialMT-6f" x="239.0625"/>
      <use xlink:href="#ArialMT-6d" x="294.677734"/>
     </g>
    </g>
    <g id="line2d_27">
     <path d="M 952.135 42.853525 
L 962.135 42.853525 
L 972.135 42.853525 
" style="fill: none; stroke: #ffbb78; stroke-width: 1.5; stroke-linecap: square"/>
    </g>
    <g id="text_18">
     <!-- chi_2 -->
     <g transform="translate(980.135 46.353525) scale(0.1 -0.1)">
      <defs>
       <path id="ArialMT-5f" d="M -97 -1272 
L -97 -866 
L 3631 -866 
L 3631 -1272 
L -97 -1272 
z
" transform="scale(0.015625)"/>
      </defs>
      <use xlink:href="#ArialMT-63"/>
      <use xlink:href="#ArialMT-68" x="50"/>
      <use xlink:href="#ArialMT-69" x="105.615234"/>
      <use xlink:href="#ArialMT-5f" x="127.832031"/>
      <use xlink:href="#ArialMT-32" x="183.447266"/>
     </g>
    </g>
    <g id="line2d_28">
     <path d="M 952.135 57.120712 
L 962.135 57.120712 
L 972.135 57.120712 
" style="fill: none; stroke: #98df8a; stroke-width: 1.5; stroke-linecap: square"/>
    </g>
    <g id="text_19">
     <!-- f_classif -->
     <g transform="translate(980.135 60.620712) scale(0.1 -0.1)">
      <defs>
       <path id="ArialMT-6c" d="M 409 0 
L 409 4581 
L 972 4581 
L 972 0 
L 409 0 
z
" transform="scale(0.015625)"/>
      </defs>
      <use xlink:href="#ArialMT-66"/>
      <use xlink:href="#ArialMT-5f" x="27.783203"/>
      <use xlink:href="#ArialMT-63" x="83.398438"/>
      <use xlink:href="#ArialMT-6c" x="133.398438"/>
      <use xlink:href="#ArialMT-61" x="155.615234"/>
      <use xlink:href="#ArialMT-73" x="211.230469"/>
      <use xlink:href="#ArialMT-73" x="261.230469"/>
      <use xlink:href="#ArialMT-69" x="311.230469"/>
      <use xlink:href="#ArialMT-66" x="333.447266"/>
     </g>
    </g>
    <g id="line2d_29">
     <path d="M 952.135 71.3879 
L 962.135 71.3879 
L 972.135 71.3879 
" style="fill: none; stroke: #ff9896; stroke-width: 1.5; stroke-linecap: square"/>
    </g>
    <g id="text_20">
     <!-- mutual_info_classif -->
     <g transform="translate(980.135 74.8879) scale(0.1 -0.1)">
      <use xlink:href="#ArialMT-6d"/>
      <use xlink:href="#ArialMT-75" x="83.300781"/>
      <use xlink:href="#ArialMT-74" x="138.916016"/>
      <use xlink:href="#ArialMT-75" x="166.699219"/>
      <use xlink:href="#ArialMT-61" x="222.314453"/>
      <use xlink:href="#ArialMT-6c" x="277.929688"/>
      <use xlink:href="#ArialMT-5f" x="300.146484"/>
      <use xlink:href="#ArialMT-69" x="355.761719"/>
      <use xlink:href="#ArialMT-6e" x="377.978516"/>
      <use xlink:href="#ArialMT-66" x="433.59375"/>
      <use xlink:href="#ArialMT-6f" x="461.376953"/>
      <use xlink:href="#ArialMT-5f" x="516.992188"/>
      <use xlink:href="#ArialMT-63" x="572.607422"/>
      <use xlink:href="#ArialMT-6c" x="622.607422"/>
      <use xlink:href="#ArialMT-61" x="644.824219"/>
      <use xlink:href="#ArialMT-73" x="700.439453"/>
      <use xlink:href="#ArialMT-73" x="750.439453"/>
      <use xlink:href="#ArialMT-69" x="800.439453"/>
      <use xlink:href="#ArialMT-66" x="822.65625"/>
     </g>
    </g>
    <g id="line2d_30">
     <path d="M 952.135 85.533212 
L 962.135 85.533212 
L 972.135 85.533212 
" style="fill: none; stroke: #c5b0d5; stroke-width: 1.5; stroke-linecap: square"/>
    </g>
    <g id="text_21">
     <!-- lasso -->
     <g transform="translate(980.135 89.033212) scale(0.1 -0.1)">
      <use xlink:href="#ArialMT-6c"/>
      <use xlink:href="#ArialMT-61" x="22.216797"/>
      <use xlink:href="#ArialMT-73" x="77.832031"/>
      <use xlink:href="#ArialMT-73" x="127.832031"/>
      <use xlink:href="#ArialMT-6f" x="177.832031"/>
     </g>
    </g>
    <g id="line2d_31">
     <path d="M 952.135 99.678525 
L 962.135 99.678525 
L 972.135 99.678525 
" style="fill: none; stroke: #8c564b; stroke-width: 1.5; stroke-linecap: square"/>
    </g>
    <g id="text_22">
     <!-- ridge -->
     <g transform="translate(980.135 103.178525) scale(0.1 -0.1)">
      <use xlink:href="#ArialMT-72"/>
      <use xlink:href="#ArialMT-69" x="33.300781"/>
      <use xlink:href="#ArialMT-64" x="55.517578"/>
      <use xlink:href="#ArialMT-67" x="111.132812"/>
      <use xlink:href="#ArialMT-65" x="166.748047"/>
     </g>
    </g>
    <g id="line2d_32">
     <path d="M 952.135 113.941025 
L 962.135 113.941025 
L 972.135 113.941025 
" style="fill: none; stroke: #e377c2; stroke-width: 1.5; stroke-linecap: square"/>
    </g>
    <g id="text_23">
     <!-- elastic_net -->
     <g transform="translate(980.135 117.441025) scale(0.1 -0.1)">
      <use xlink:href="#ArialMT-65"/>
      <use xlink:href="#ArialMT-6c" x="55.615234"/>
      <use xlink:href="#ArialMT-61" x="77.832031"/>
      <use xlink:href="#ArialMT-73" x="133.447266"/>
      <use xlink:href="#ArialMT-74" x="183.447266"/>
      <use xlink:href="#ArialMT-69" x="211.230469"/>
      <use xlink:href="#ArialMT-63" x="233.447266"/>
      <use xlink:href="#ArialMT-5f" x="283.447266"/>
      <use xlink:href="#ArialMT-6e" x="339.0625"/>
      <use xlink:href="#ArialMT-65" x="394.677734"/>
      <use xlink:href="#ArialMT-74" x="450.292969"/>
     </g>
    </g>
    <g id="line2d_33">
     <path d="M 952.135 128.086338 
L 962.135 128.086338 
L 972.135 128.086338 
" style="fill: none; stroke: #7f7f7f; stroke-width: 1.5; stroke-linecap: square"/>
    </g>
    <g id="text_24">
     <!-- rf -->
     <g transform="translate(980.135 131.586338) scale(0.1 -0.1)">
      <use xlink:href="#ArialMT-72"/>
      <use xlink:href="#ArialMT-66" x="33.300781"/>
     </g>
    </g>
    <g id="line2d_34">
     <path d="M 952.135 142.23165 
L 962.135 142.23165 
L 972.135 142.23165 
" style="fill: none; stroke: #bcbd22; stroke-width: 1.5; stroke-linecap: square"/>
    </g>
    <g id="text_25">
     <!-- gbm -->
     <g transform="translate(980.135 145.73165) scale(0.1 -0.1)">
      <use xlink:href="#ArialMT-67"/>
      <use xlink:href="#ArialMT-62" x="55.615234"/>
      <use xlink:href="#ArialMT-6d" x="111.230469"/>
     </g>
    </g>
    <g id="line2d_35">
     <path d="M 952.135 156.49415 
L 962.135 156.49415 
L 972.135 156.49415 
" style="fill: none; stroke: #17becf; stroke-width: 1.5; stroke-linecap: square"/>
    </g>
    <g id="text_26">
     <!-- xgb -->
     <g transform="translate(980.135 159.99415) scale(0.1 -0.1)">
      <defs>
       <path id="ArialMT-78" d="M 47 0 
L 1259 1725 
L 138 3319 
L 841 3319 
L 1350 2541 
Q 1494 2319 1581 2169 
Q 1719 2375 1834 2534 
L 2394 3319 
L 3066 3319 
L 1919 1756 
L 3153 0 
L 2463 0 
L 1781 1031 
L 1600 1309 
L 728 0 
L 47 0 
z
" transform="scale(0.015625)"/>
      </defs>
      <use xlink:href="#ArialMT-78"/>
      <use xlink:href="#ArialMT-67" x="50"/>
      <use xlink:href="#ArialMT-62" x="105.615234"/>
     </g>
    </g>
    <g id="line2d_36">
     <path d="M 952.135 170.75665 
L 962.135 170.75665 
L 972.135 170.75665 
" style="fill: none; stroke: #9edae5; stroke-width: 1.5; stroke-linecap: square"/>
    </g>
    <g id="text_27">
     <!-- nn -->
     <g transform="translate(980.135 174.25665) scale(0.1 -0.1)">
      <use xlink:href="#ArialMT-6e"/>
      <use xlink:href="#ArialMT-6e" x="55.615234"/>
     </g>
    </g>
   </g>
  </g>
 </g>
 <defs>
  <clipPath id="pb68aaf5a1a">
   <rect x="44.96" y="30.748" width="898.175" height="577.452"/>
  </clipPath>
 </defs>
</svg>
