<?xml version="1.0" encoding="utf-8" standalone="no"?>
<!DOCTYPE svg PUBLIC "-//W3C//DTD SVG 1.1//EN"
  "http://www.w3.org/Graphics/SVG/1.1/DTD/svg11.dtd">
<svg xmlns:xlink="http://www.w3.org/1999/xlink" width="1080pt" height="432pt" viewBox="0 0 1080 432" xmlns="http://www.w3.org/2000/svg" version="1.1">
 <metadata>
  <rdf:RDF xmlns:dc="http://purl.org/dc/elements/1.1/" xmlns:cc="http://creativecommons.org/ns#" xmlns:rdf="http://www.w3.org/1999/02/22-rdf-syntax-ns#">
   <cc:Work>
    <dc:type rdf:resource="http://purl.org/dc/dcmitype/StillImage"/>
    <dc:date>2024-05-12T11:23:51.132863</dc:date>
    <dc:format>image/svg+xml</dc:format>
    <dc:creator>
     <cc:Agent>
      <dc:title>Matplotlib v3.7.2, https://matplotlib.org/</dc:title>
     </cc:Agent>
    </dc:creator>
   </cc:Work>
  </rdf:RDF>
 </metadata>
 <defs>
  <style type="text/css">*{stroke-linejoin: round; stroke-linecap: butt}</style>
 </defs>
 <g id="figure_1">
  <g id="patch_1">
   <path d="M 0 432 
L 1080 432 
L 1080 0 
L 0 0 
z
" style="fill: #ffffff"/>
  </g>
  <g id="axes_1">
   <g id="patch_2">
    <path d="M 52.28 382.12 
L 1055.85 382.12 
L 1055.85 28.32 
L 52.28 28.32 
z
" style="fill: #ffffff"/>
   </g>
   <g id="matplotlib.axis_1">
    <g id="xtick_1">
     <g id="line2d_1">
      <defs>
       <path id="mba9bef9d2d" d="M 0 0 
L 0 3.5 
" style="stroke: #000000; stroke-width: 0.8"/>
      </defs>
      <g>
       <use xlink:href="#mba9bef9d2d" x="252.19034" y="382.12" style="stroke: #000000; stroke-width: 0.8"/>
      </g>
     </g>
     <g id="text_1">
      <!-- 200 -->
      <g transform="translate(242.180653 397.709375) scale(0.12 -0.12)">
       <defs>
        <path id="ArialMT-32" d="M 3222 541 
L 3222 0 
L 194 0 
Q 188 203 259 391 
Q 375 700 629 1000 
Q 884 1300 1366 1694 
Q 2113 2306 2375 2664 
Q 2638 3022 2638 3341 
Q 2638 3675 2398 3904 
Q 2159 4134 1775 4134 
Q 1369 4134 1125 3890 
Q 881 3647 878 3216 
L 300 3275 
Q 359 3922 746 4261 
Q 1134 4600 1788 4600 
Q 2447 4600 2831 4234 
Q 3216 3869 3216 3328 
Q 3216 3053 3103 2787 
Q 2991 2522 2730 2228 
Q 2469 1934 1863 1422 
Q 1356 997 1212 845 
Q 1069 694 975 541 
L 3222 541 
z
" transform="scale(0.015625)"/>
        <path id="ArialMT-30" d="M 266 2259 
Q 266 3072 433 3567 
Q 600 4063 929 4331 
Q 1259 4600 1759 4600 
Q 2128 4600 2406 4451 
Q 2684 4303 2865 4023 
Q 3047 3744 3150 3342 
Q 3253 2941 3253 2259 
Q 3253 1453 3087 958 
Q 2922 463 2592 192 
Q 2263 -78 1759 -78 
Q 1097 -78 719 397 
Q 266 969 266 2259 
z
M 844 2259 
Q 844 1131 1108 757 
Q 1372 384 1759 384 
Q 2147 384 2411 759 
Q 2675 1134 2675 2259 
Q 2675 3391 2411 3762 
Q 2147 4134 1753 4134 
Q 1366 4134 1134 3806 
Q 844 3388 844 2259 
z
" transform="scale(0.015625)"/>
       </defs>
       <use xlink:href="#ArialMT-32"/>
       <use xlink:href="#ArialMT-30" x="55.615234"/>
       <use xlink:href="#ArialMT-30" x="111.230469"/>
      </g>
     </g>
    </g>
    <g id="xtick_2">
     <g id="line2d_2">
      <g>
       <use xlink:href="#mba9bef9d2d" x="453.105255" y="382.12" style="stroke: #000000; stroke-width: 0.8"/>
      </g>
     </g>
     <g id="text_2">
      <!-- 400 -->
      <g transform="translate(443.095568 397.709375) scale(0.12 -0.12)">
       <defs>
        <path id="ArialMT-34" d="M 2069 0 
L 2069 1097 
L 81 1097 
L 81 1613 
L 2172 4581 
L 2631 4581 
L 2631 1613 
L 3250 1613 
L 3250 1097 
L 2631 1097 
L 2631 0 
L 2069 0 
z
M 2069 1613 
L 2069 3678 
L 634 1613 
L 2069 1613 
z
" transform="scale(0.015625)"/>
       </defs>
       <use xlink:href="#ArialMT-34"/>
       <use xlink:href="#ArialMT-30" x="55.615234"/>
       <use xlink:href="#ArialMT-30" x="111.230469"/>
      </g>
     </g>
    </g>
    <g id="xtick_3">
     <g id="line2d_3">
      <g>
       <use xlink:href="#mba9bef9d2d" x="654.02017" y="382.12" style="stroke: #000000; stroke-width: 0.8"/>
      </g>
     </g>
     <g id="text_3">
      <!-- 600 -->
      <g transform="translate(644.010483 397.709375) scale(0.12 -0.12)">
       <defs>
        <path id="ArialMT-36" d="M 3184 3459 
L 2625 3416 
Q 2550 3747 2413 3897 
Q 2184 4138 1850 4138 
Q 1581 4138 1378 3988 
Q 1113 3794 959 3422 
Q 806 3050 800 2363 
Q 1003 2672 1297 2822 
Q 1591 2972 1913 2972 
Q 2475 2972 2870 2558 
Q 3266 2144 3266 1488 
Q 3266 1056 3080 686 
Q 2894 316 2569 119 
Q 2244 -78 1831 -78 
Q 1128 -78 684 439 
Q 241 956 241 2144 
Q 241 3472 731 4075 
Q 1159 4600 1884 4600 
Q 2425 4600 2770 4297 
Q 3116 3994 3184 3459 
z
M 888 1484 
Q 888 1194 1011 928 
Q 1134 663 1356 523 
Q 1578 384 1822 384 
Q 2178 384 2434 671 
Q 2691 959 2691 1453 
Q 2691 1928 2437 2201 
Q 2184 2475 1800 2475 
Q 1419 2475 1153 2201 
Q 888 1928 888 1484 
z
" transform="scale(0.015625)"/>
       </defs>
       <use xlink:href="#ArialMT-36"/>
       <use xlink:href="#ArialMT-30" x="55.615234"/>
       <use xlink:href="#ArialMT-30" x="111.230469"/>
      </g>
     </g>
    </g>
    <g id="xtick_4">
     <g id="line2d_4">
      <g>
       <use xlink:href="#mba9bef9d2d" x="854.935085" y="382.12" style="stroke: #000000; stroke-width: 0.8"/>
      </g>
     </g>
     <g id="text_4">
      <!-- 800 -->
      <g transform="translate(844.925398 397.709375) scale(0.12 -0.12)">
       <defs>
        <path id="ArialMT-38" d="M 1131 2484 
Q 781 2613 612 2850 
Q 444 3088 444 3419 
Q 444 3919 803 4259 
Q 1163 4600 1759 4600 
Q 2359 4600 2725 4251 
Q 3091 3903 3091 3403 
Q 3091 3084 2923 2848 
Q 2756 2613 2416 2484 
Q 2838 2347 3058 2040 
Q 3278 1734 3278 1309 
Q 3278 722 2862 322 
Q 2447 -78 1769 -78 
Q 1091 -78 675 323 
Q 259 725 259 1325 
Q 259 1772 486 2073 
Q 713 2375 1131 2484 
z
M 1019 3438 
Q 1019 3113 1228 2906 
Q 1438 2700 1772 2700 
Q 2097 2700 2305 2904 
Q 2513 3109 2513 3406 
Q 2513 3716 2298 3927 
Q 2084 4138 1766 4138 
Q 1444 4138 1231 3931 
Q 1019 3725 1019 3438 
z
M 838 1322 
Q 838 1081 952 856 
Q 1066 631 1291 507 
Q 1516 384 1775 384 
Q 2178 384 2440 643 
Q 2703 903 2703 1303 
Q 2703 1709 2433 1975 
Q 2163 2241 1756 2241 
Q 1359 2241 1098 1978 
Q 838 1716 838 1322 
z
" transform="scale(0.015625)"/>
       </defs>
       <use xlink:href="#ArialMT-38"/>
       <use xlink:href="#ArialMT-30" x="55.615234"/>
       <use xlink:href="#ArialMT-30" x="111.230469"/>
      </g>
     </g>
    </g>
    <g id="xtick_5">
     <g id="line2d_5">
      <g>
       <use xlink:href="#mba9bef9d2d" x="1055.85" y="382.12" style="stroke: #000000; stroke-width: 0.8"/>
      </g>
     </g>
     <g id="text_5">
      <!-- 1000 -->
      <g transform="translate(1042.50375 397.709375) scale(0.12 -0.12)">
       <defs>
        <path id="ArialMT-31" d="M 2384 0 
L 1822 0 
L 1822 3584 
Q 1619 3391 1289 3197 
Q 959 3003 697 2906 
L 697 3450 
Q 1169 3672 1522 3987 
Q 1875 4303 2022 4600 
L 2384 4600 
L 2384 0 
z
" transform="scale(0.015625)"/>
       </defs>
       <use xlink:href="#ArialMT-31"/>
       <use xlink:href="#ArialMT-30" x="55.615234"/>
       <use xlink:href="#ArialMT-30" x="111.230469"/>
       <use xlink:href="#ArialMT-30" x="166.845703"/>
      </g>
     </g>
    </g>
    <g id="text_6">
     <!-- Number of generations -->
     <g transform="translate(462.520937 417.197812) scale(0.18 -0.18)">
      <defs>
       <path id="ArialMT-4e" d="M 488 0 
L 488 4581 
L 1109 4581 
L 3516 984 
L 3516 4581 
L 4097 4581 
L 4097 0 
L 3475 0 
L 1069 3600 
L 1069 0 
L 488 0 
z
" transform="scale(0.015625)"/>
       <path id="ArialMT-75" d="M 2597 0 
L 2597 488 
Q 2209 -75 1544 -75 
Q 1250 -75 995 37 
Q 741 150 617 320 
Q 494 491 444 738 
Q 409 903 409 1263 
L 409 3319 
L 972 3319 
L 972 1478 
Q 972 1038 1006 884 
Q 1059 663 1231 536 
Q 1403 409 1656 409 
Q 1909 409 2131 539 
Q 2353 669 2445 892 
Q 2538 1116 2538 1541 
L 2538 3319 
L 3100 3319 
L 3100 0 
L 2597 0 
z
" transform="scale(0.015625)"/>
       <path id="ArialMT-6d" d="M 422 0 
L 422 3319 
L 925 3319 
L 925 2853 
Q 1081 3097 1340 3245 
Q 1600 3394 1931 3394 
Q 2300 3394 2536 3241 
Q 2772 3088 2869 2813 
Q 3263 3394 3894 3394 
Q 4388 3394 4653 3120 
Q 4919 2847 4919 2278 
L 4919 0 
L 4359 0 
L 4359 2091 
Q 4359 2428 4304 2576 
Q 4250 2725 4106 2815 
Q 3963 2906 3769 2906 
Q 3419 2906 3187 2673 
Q 2956 2441 2956 1928 
L 2956 0 
L 2394 0 
L 2394 2156 
Q 2394 2531 2256 2718 
Q 2119 2906 1806 2906 
Q 1569 2906 1367 2781 
Q 1166 2656 1075 2415 
Q 984 2175 984 1722 
L 984 0 
L 422 0 
z
" transform="scale(0.015625)"/>
       <path id="ArialMT-62" d="M 941 0 
L 419 0 
L 419 4581 
L 981 4581 
L 981 2947 
Q 1338 3394 1891 3394 
Q 2197 3394 2470 3270 
Q 2744 3147 2920 2923 
Q 3097 2700 3197 2384 
Q 3297 2069 3297 1709 
Q 3297 856 2875 390 
Q 2453 -75 1863 -75 
Q 1275 -75 941 416 
L 941 0 
z
M 934 1684 
Q 934 1088 1097 822 
Q 1363 388 1816 388 
Q 2184 388 2453 708 
Q 2722 1028 2722 1663 
Q 2722 2313 2464 2622 
Q 2206 2931 1841 2931 
Q 1472 2931 1203 2611 
Q 934 2291 934 1684 
z
" transform="scale(0.015625)"/>
       <path id="ArialMT-65" d="M 2694 1069 
L 3275 997 
Q 3138 488 2766 206 
Q 2394 -75 1816 -75 
Q 1088 -75 661 373 
Q 234 822 234 1631 
Q 234 2469 665 2931 
Q 1097 3394 1784 3394 
Q 2450 3394 2872 2941 
Q 3294 2488 3294 1666 
Q 3294 1616 3291 1516 
L 816 1516 
Q 847 969 1125 678 
Q 1403 388 1819 388 
Q 2128 388 2347 550 
Q 2566 713 2694 1069 
z
M 847 1978 
L 2700 1978 
Q 2663 2397 2488 2606 
Q 2219 2931 1791 2931 
Q 1403 2931 1139 2672 
Q 875 2413 847 1978 
z
" transform="scale(0.015625)"/>
       <path id="ArialMT-72" d="M 416 0 
L 416 3319 
L 922 3319 
L 922 2816 
Q 1116 3169 1280 3281 
Q 1444 3394 1641 3394 
Q 1925 3394 2219 3213 
L 2025 2691 
Q 1819 2813 1613 2813 
Q 1428 2813 1281 2702 
Q 1134 2591 1072 2394 
Q 978 2094 978 1738 
L 978 0 
L 416 0 
z
" transform="scale(0.015625)"/>
       <path id="ArialMT-20" transform="scale(0.015625)"/>
       <path id="ArialMT-6f" d="M 213 1659 
Q 213 2581 725 3025 
Q 1153 3394 1769 3394 
Q 2453 3394 2887 2945 
Q 3322 2497 3322 1706 
Q 3322 1066 3130 698 
Q 2938 331 2570 128 
Q 2203 -75 1769 -75 
Q 1072 -75 642 372 
Q 213 819 213 1659 
z
M 791 1659 
Q 791 1022 1069 705 
Q 1347 388 1769 388 
Q 2188 388 2466 706 
Q 2744 1025 2744 1678 
Q 2744 2294 2464 2611 
Q 2184 2928 1769 2928 
Q 1347 2928 1069 2612 
Q 791 2297 791 1659 
z
" transform="scale(0.015625)"/>
       <path id="ArialMT-66" d="M 556 0 
L 556 2881 
L 59 2881 
L 59 3319 
L 556 3319 
L 556 3672 
Q 556 4006 616 4169 
Q 697 4388 901 4523 
Q 1106 4659 1475 4659 
Q 1713 4659 2000 4603 
L 1916 4113 
Q 1741 4144 1584 4144 
Q 1328 4144 1222 4034 
Q 1116 3925 1116 3625 
L 1116 3319 
L 1763 3319 
L 1763 2881 
L 1116 2881 
L 1116 0 
L 556 0 
z
" transform="scale(0.015625)"/>
       <path id="ArialMT-67" d="M 319 -275 
L 866 -356 
Q 900 -609 1056 -725 
Q 1266 -881 1628 -881 
Q 2019 -881 2231 -725 
Q 2444 -569 2519 -288 
Q 2563 -116 2559 434 
Q 2191 0 1641 0 
Q 956 0 581 494 
Q 206 988 206 1678 
Q 206 2153 378 2554 
Q 550 2956 876 3175 
Q 1203 3394 1644 3394 
Q 2231 3394 2613 2919 
L 2613 3319 
L 3131 3319 
L 3131 450 
Q 3131 -325 2973 -648 
Q 2816 -972 2473 -1159 
Q 2131 -1347 1631 -1347 
Q 1038 -1347 672 -1080 
Q 306 -813 319 -275 
z
M 784 1719 
Q 784 1066 1043 766 
Q 1303 466 1694 466 
Q 2081 466 2343 764 
Q 2606 1063 2606 1700 
Q 2606 2309 2336 2618 
Q 2066 2928 1684 2928 
Q 1309 2928 1046 2623 
Q 784 2319 784 1719 
z
" transform="scale(0.015625)"/>
       <path id="ArialMT-6e" d="M 422 0 
L 422 3319 
L 928 3319 
L 928 2847 
Q 1294 3394 1984 3394 
Q 2284 3394 2536 3286 
Q 2788 3178 2913 3003 
Q 3038 2828 3088 2588 
Q 3119 2431 3119 2041 
L 3119 0 
L 2556 0 
L 2556 2019 
Q 2556 2363 2490 2533 
Q 2425 2703 2258 2804 
Q 2091 2906 1866 2906 
Q 1506 2906 1245 2678 
Q 984 2450 984 1813 
L 984 0 
L 422 0 
z
" transform="scale(0.015625)"/>
       <path id="ArialMT-61" d="M 2588 409 
Q 2275 144 1986 34 
Q 1697 -75 1366 -75 
Q 819 -75 525 192 
Q 231 459 231 875 
Q 231 1119 342 1320 
Q 453 1522 633 1644 
Q 813 1766 1038 1828 
Q 1203 1872 1538 1913 
Q 2219 1994 2541 2106 
Q 2544 2222 2544 2253 
Q 2544 2597 2384 2738 
Q 2169 2928 1744 2928 
Q 1347 2928 1158 2789 
Q 969 2650 878 2297 
L 328 2372 
Q 403 2725 575 2942 
Q 747 3159 1072 3276 
Q 1397 3394 1825 3394 
Q 2250 3394 2515 3294 
Q 2781 3194 2906 3042 
Q 3031 2891 3081 2659 
Q 3109 2516 3109 2141 
L 3109 1391 
Q 3109 606 3145 398 
Q 3181 191 3288 0 
L 2700 0 
Q 2613 175 2588 409 
z
M 2541 1666 
Q 2234 1541 1622 1453 
Q 1275 1403 1131 1340 
Q 988 1278 909 1158 
Q 831 1038 831 891 
Q 831 666 1001 516 
Q 1172 366 1500 366 
Q 1825 366 2078 508 
Q 2331 650 2450 897 
Q 2541 1088 2541 1459 
L 2541 1666 
z
" transform="scale(0.015625)"/>
       <path id="ArialMT-74" d="M 1650 503 
L 1731 6 
Q 1494 -44 1306 -44 
Q 1000 -44 831 53 
Q 663 150 594 308 
Q 525 466 525 972 
L 525 2881 
L 113 2881 
L 113 3319 
L 525 3319 
L 525 4141 
L 1084 4478 
L 1084 3319 
L 1650 3319 
L 1650 2881 
L 1084 2881 
L 1084 941 
Q 1084 700 1114 631 
Q 1144 563 1211 522 
Q 1278 481 1403 481 
Q 1497 481 1650 503 
z
" transform="scale(0.015625)"/>
       <path id="ArialMT-69" d="M 425 3934 
L 425 4581 
L 988 4581 
L 988 3934 
L 425 3934 
z
M 425 0 
L 425 3319 
L 988 3319 
L 988 0 
L 425 0 
z
" transform="scale(0.015625)"/>
       <path id="ArialMT-73" d="M 197 991 
L 753 1078 
Q 800 744 1014 566 
Q 1228 388 1613 388 
Q 2000 388 2187 545 
Q 2375 703 2375 916 
Q 2375 1106 2209 1216 
Q 2094 1291 1634 1406 
Q 1016 1563 777 1677 
Q 538 1791 414 1992 
Q 291 2194 291 2438 
Q 291 2659 392 2848 
Q 494 3038 669 3163 
Q 800 3259 1026 3326 
Q 1253 3394 1513 3394 
Q 1903 3394 2198 3281 
Q 2494 3169 2634 2976 
Q 2775 2784 2828 2463 
L 2278 2388 
Q 2241 2644 2061 2787 
Q 1881 2931 1553 2931 
Q 1166 2931 1000 2803 
Q 834 2675 834 2503 
Q 834 2394 903 2306 
Q 972 2216 1119 2156 
Q 1203 2125 1616 2013 
Q 2213 1853 2448 1751 
Q 2684 1650 2818 1456 
Q 2953 1263 2953 975 
Q 2953 694 2789 445 
Q 2625 197 2315 61 
Q 2006 -75 1616 -75 
Q 969 -75 630 194 
Q 291 463 197 991 
z
" transform="scale(0.015625)"/>
      </defs>
      <use xlink:href="#ArialMT-4e"/>
      <use xlink:href="#ArialMT-75" x="72.216797"/>
      <use xlink:href="#ArialMT-6d" x="127.832031"/>
      <use xlink:href="#ArialMT-62" x="211.132812"/>
      <use xlink:href="#ArialMT-65" x="266.748047"/>
      <use xlink:href="#ArialMT-72" x="322.363281"/>
      <use xlink:href="#ArialMT-20" x="355.664062"/>
      <use xlink:href="#ArialMT-6f" x="383.447266"/>
      <use xlink:href="#ArialMT-66" x="439.0625"/>
      <use xlink:href="#ArialMT-20" x="466.845703"/>
      <use xlink:href="#ArialMT-67" x="494.628906"/>
      <use xlink:href="#ArialMT-65" x="550.244141"/>
      <use xlink:href="#ArialMT-6e" x="605.859375"/>
      <use xlink:href="#ArialMT-65" x="661.474609"/>
      <use xlink:href="#ArialMT-72" x="717.089844"/>
      <use xlink:href="#ArialMT-61" x="750.390625"/>
      <use xlink:href="#ArialMT-74" x="806.005859"/>
      <use xlink:href="#ArialMT-69" x="833.789062"/>
      <use xlink:href="#ArialMT-6f" x="856.005859"/>
      <use xlink:href="#ArialMT-6e" x="911.621094"/>
      <use xlink:href="#ArialMT-73" x="967.236328"/>
     </g>
    </g>
   </g>
   <g id="matplotlib.axis_2">
    <g id="ytick_1">
     <g id="line2d_6">
      <defs>
       <path id="m7a7f9366eb" d="M 0 0 
L -3.5 0 
" style="stroke: #000000; stroke-width: 0.8"/>
      </defs>
      <g>
       <use xlink:href="#m7a7f9366eb" x="52.28" y="382.12" style="stroke: #000000; stroke-width: 0.8"/>
      </g>
     </g>
     <g id="text_7">
      <!-- 0.0 -->
      <g transform="translate(31.38 385.698906) scale(0.1 -0.1)">
       <defs>
        <path id="ArialMT-2e" d="M 581 0 
L 581 641 
L 1222 641 
L 1222 0 
L 581 0 
z
" transform="scale(0.015625)"/>
       </defs>
       <use xlink:href="#ArialMT-30"/>
       <use xlink:href="#ArialMT-2e" x="55.615234"/>
       <use xlink:href="#ArialMT-30" x="83.398438"/>
      </g>
     </g>
    </g>
    <g id="ytick_2">
     <g id="line2d_7">
      <g>
       <use xlink:href="#m7a7f9366eb" x="52.28" y="311.36" style="stroke: #000000; stroke-width: 0.8"/>
      </g>
     </g>
     <g id="text_8">
      <!-- 0.2 -->
      <g transform="translate(31.38 314.938906) scale(0.1 -0.1)">
       <use xlink:href="#ArialMT-30"/>
       <use xlink:href="#ArialMT-2e" x="55.615234"/>
       <use xlink:href="#ArialMT-32" x="83.398438"/>
      </g>
     </g>
    </g>
    <g id="ytick_3">
     <g id="line2d_8">
      <g>
       <use xlink:href="#m7a7f9366eb" x="52.28" y="240.6" style="stroke: #000000; stroke-width: 0.8"/>
      </g>
     </g>
     <g id="text_9">
      <!-- 0.4 -->
      <g transform="translate(31.38 244.178906) scale(0.1 -0.1)">
       <use xlink:href="#ArialMT-30"/>
       <use xlink:href="#ArialMT-2e" x="55.615234"/>
       <use xlink:href="#ArialMT-34" x="83.398438"/>
      </g>
     </g>
    </g>
    <g id="ytick_4">
     <g id="line2d_9">
      <g>
       <use xlink:href="#m7a7f9366eb" x="52.28" y="169.84" style="stroke: #000000; stroke-width: 0.8"/>
      </g>
     </g>
     <g id="text_10">
      <!-- 0.6 -->
      <g transform="translate(31.38 173.418906) scale(0.1 -0.1)">
       <use xlink:href="#ArialMT-30"/>
       <use xlink:href="#ArialMT-2e" x="55.615234"/>
       <use xlink:href="#ArialMT-36" x="83.398438"/>
      </g>
     </g>
    </g>
    <g id="ytick_5">
     <g id="line2d_10">
      <g>
       <use xlink:href="#m7a7f9366eb" x="52.28" y="99.08" style="stroke: #000000; stroke-width: 0.8"/>
      </g>
     </g>
     <g id="text_11">
      <!-- 0.8 -->
      <g transform="translate(31.38 102.658906) scale(0.1 -0.1)">
       <use xlink:href="#ArialMT-30"/>
       <use xlink:href="#ArialMT-2e" x="55.615234"/>
       <use xlink:href="#ArialMT-38" x="83.398438"/>
      </g>
     </g>
    </g>
    <g id="ytick_6">
     <g id="line2d_11">
      <g>
       <use xlink:href="#m7a7f9366eb" x="52.28" y="28.32" style="stroke: #000000; stroke-width: 0.8"/>
      </g>
     </g>
     <g id="text_12">
      <!-- 1.0 -->
      <g transform="translate(31.38 31.898906) scale(0.1 -0.1)">
       <use xlink:href="#ArialMT-31"/>
       <use xlink:href="#ArialMT-2e" x="55.615234"/>
       <use xlink:href="#ArialMT-30" x="83.398438"/>
      </g>
     </g>
    </g>
    <g id="text_13">
     <!-- NMF mean Pearson correlation score -->
     <g transform="translate(23.8025 354.769062) rotate(-90) scale(0.18 -0.18)">
      <defs>
       <path id="ArialMT-4d" d="M 475 0 
L 475 4581 
L 1388 4581 
L 2472 1338 
Q 2622 884 2691 659 
Q 2769 909 2934 1394 
L 4031 4581 
L 4847 4581 
L 4847 0 
L 4263 0 
L 4263 3834 
L 2931 0 
L 2384 0 
L 1059 3900 
L 1059 0 
L 475 0 
z
" transform="scale(0.015625)"/>
       <path id="ArialMT-46" d="M 525 0 
L 525 4581 
L 3616 4581 
L 3616 4041 
L 1131 4041 
L 1131 2622 
L 3281 2622 
L 3281 2081 
L 1131 2081 
L 1131 0 
L 525 0 
z
" transform="scale(0.015625)"/>
       <path id="ArialMT-50" d="M 494 0 
L 494 4581 
L 2222 4581 
Q 2678 4581 2919 4538 
Q 3256 4481 3484 4323 
Q 3713 4166 3852 3881 
Q 3991 3597 3991 3256 
Q 3991 2672 3619 2267 
Q 3247 1863 2275 1863 
L 1100 1863 
L 1100 0 
L 494 0 
z
M 1100 2403 
L 2284 2403 
Q 2872 2403 3119 2622 
Q 3366 2841 3366 3238 
Q 3366 3525 3220 3729 
Q 3075 3934 2838 4000 
Q 2684 4041 2272 4041 
L 1100 4041 
L 1100 2403 
z
" transform="scale(0.015625)"/>
       <path id="ArialMT-63" d="M 2588 1216 
L 3141 1144 
Q 3050 572 2676 248 
Q 2303 -75 1759 -75 
Q 1078 -75 664 370 
Q 250 816 250 1647 
Q 250 2184 428 2587 
Q 606 2991 970 3192 
Q 1334 3394 1763 3394 
Q 2303 3394 2647 3120 
Q 2991 2847 3088 2344 
L 2541 2259 
Q 2463 2594 2264 2762 
Q 2066 2931 1784 2931 
Q 1359 2931 1093 2626 
Q 828 2322 828 1663 
Q 828 994 1084 691 
Q 1341 388 1753 388 
Q 2084 388 2306 591 
Q 2528 794 2588 1216 
z
" transform="scale(0.015625)"/>
       <path id="ArialMT-6c" d="M 409 0 
L 409 4581 
L 972 4581 
L 972 0 
L 409 0 
z
" transform="scale(0.015625)"/>
      </defs>
      <use xlink:href="#ArialMT-4e"/>
      <use xlink:href="#ArialMT-4d" x="72.216797"/>
      <use xlink:href="#ArialMT-46" x="155.517578"/>
      <use xlink:href="#ArialMT-20" x="216.601562"/>
      <use xlink:href="#ArialMT-6d" x="244.384766"/>
      <use xlink:href="#ArialMT-65" x="327.685547"/>
      <use xlink:href="#ArialMT-61" x="383.300781"/>
      <use xlink:href="#ArialMT-6e" x="438.916016"/>
      <use xlink:href="#ArialMT-20" x="494.53125"/>
      <use xlink:href="#ArialMT-50" x="522.314453"/>
      <use xlink:href="#ArialMT-65" x="589.013672"/>
      <use xlink:href="#ArialMT-61" x="644.628906"/>
      <use xlink:href="#ArialMT-72" x="700.244141"/>
      <use xlink:href="#ArialMT-73" x="733.544922"/>
      <use xlink:href="#ArialMT-6f" x="783.544922"/>
      <use xlink:href="#ArialMT-6e" x="839.160156"/>
      <use xlink:href="#ArialMT-20" x="894.775391"/>
      <use xlink:href="#ArialMT-63" x="922.558594"/>
      <use xlink:href="#ArialMT-6f" x="972.558594"/>
      <use xlink:href="#ArialMT-72" x="1028.173828"/>
      <use xlink:href="#ArialMT-72" x="1061.474609"/>
      <use xlink:href="#ArialMT-65" x="1094.775391"/>
      <use xlink:href="#ArialMT-6c" x="1150.390625"/>
      <use xlink:href="#ArialMT-61" x="1172.607422"/>
      <use xlink:href="#ArialMT-74" x="1228.222656"/>
      <use xlink:href="#ArialMT-69" x="1256.005859"/>
      <use xlink:href="#ArialMT-6f" x="1278.222656"/>
      <use xlink:href="#ArialMT-6e" x="1333.837891"/>
      <use xlink:href="#ArialMT-20" x="1389.453125"/>
      <use xlink:href="#ArialMT-73" x="1417.236328"/>
      <use xlink:href="#ArialMT-63" x="1467.236328"/>
      <use xlink:href="#ArialMT-6f" x="1517.236328"/>
      <use xlink:href="#ArialMT-72" x="1572.851562"/>
      <use xlink:href="#ArialMT-65" x="1606.152344"/>
     </g>
    </g>
   </g>
   <g id="line2d_12">
    <path d="M 51.275425 112.095802 
L 53.284575 112.095802 
L 54.289149 100.818385 
L 55.293724 92.834953 
L 56.298298 89.562804 
L 57.302873 89.562804 
L 58.307447 88.894009 
L 59.312022 83.218257 
L 60.316597 78.738788 
L 61.321171 78.00602 
L 62.325746 78.00602 
L 63.33032 70.572848 
L 64.334895 69.294133 
L 65.339469 69.294133 
L 66.344044 68.252414 
L 67.348619 67.505097 
L 68.353193 67.505097 
L 69.357768 59.062015 
L 72.371491 59.062015 
L 73.376066 55.995895 
L 76.38979 55.995895 
L 77.394364 54.647164 
L 78.398939 54.985899 
L 79.403514 54.356332 
L 80.408088 54.291871 
L 81.412663 53.968185 
L 82.417237 53.122596 
L 83.421812 49.657851 
L 86.435536 49.657851 
L 87.44011 48.496914 
L 88.444685 48.140235 
L 89.449259 48.104028 
L 90.453834 47.710723 
L 91.458408 47.710723 
L 93.467558 47.254952 
L 94.472132 47.211458 
L 95.476707 46.738555 
L 96.481281 46.686371 
L 97.485856 46.298051 
L 99.495005 46.299487 
L 100.49958 46.008454 
L 102.508729 44.954408 
L 103.513303 45.290433 
L 104.517878 44.943884 
L 105.522452 44.943884 
L 106.527027 44.335516 
L 108.536176 44.444996 
L 109.540751 44.085198 
L 110.545325 43.983562 
L 111.5499 43.655542 
L 112.554474 43.608275 
L 113.559049 43.199517 
L 114.563624 43.279597 
L 115.568198 43.151869 
L 117.577347 43.151869 
L 118.581922 42.664354 
L 123.604795 42.44643 
L 124.609369 41.801099 
L 127.623093 41.801099 
L 128.627668 41.639614 
L 129.632242 41.634336 
L 130.636817 40.822909 
L 132.645966 40.822909 
L 133.650541 40.484937 
L 238.126296 40.393716 
L 240.135445 40.297747 
L 243.149169 40.297747 
L 244.153744 40.096905 
L 399.862803 40.029178 
L 401.871952 39.970445 
L 403.881101 39.970445 
L 404.885676 39.838646 
L 461.141852 39.838646 
L 462.146426 39.522765 
L 468.173874 39.457522 
L 469.178448 39.248553 
L 595.754845 39.248553 
L 596.759419 39.127926 
L 1030.735636 39.127926 
L 1031.74021 38.716257 
L 1055.85 38.716257 
L 1055.85 38.716257 
" clip-path="url(#p1abcf15f39)" style="fill: none; stroke: #0000ff; stroke-linecap: square"/>
   </g>
   <g id="line2d_13">
    <path d="M 51.275425 143.685263 
L 52.28 162.484644 
L 53.284575 171.380962 
L 54.289149 136.464515 
L 55.293724 160.807291 
L 56.298298 192.633632 
L 57.302873 141.391809 
L 58.307447 189.710387 
L 59.312022 150.481683 
L 60.316597 150.965019 
L 61.321171 208.88648 
L 62.325746 147.8446 
L 63.33032 167.656736 
L 64.334895 183.761932 
L 65.339469 150.925728 
L 66.344044 151.11304 
L 67.348619 184.307769 
L 68.353193 140.097515 
L 69.357768 175.956286 
L 70.362342 167.1238 
L 71.366917 183.94262 
L 72.371491 158.986063 
L 73.376066 185.628934 
L 74.380641 163.396406 
L 75.385215 153.42162 
L 76.38979 147.989591 
L 77.394364 192.493713 
L 78.398939 154.588545 
L 79.403514 170.02115 
L 80.408088 166.733789 
L 82.417237 182.98213 
L 83.421812 185.493176 
L 84.426386 142.117826 
L 85.430961 180.311969 
L 86.435536 133.293138 
L 87.44011 209.020481 
L 88.444685 133.970315 
L 89.449259 164.349158 
L 90.453834 167.410583 
L 91.458408 204.673178 
L 92.462983 161.678883 
L 93.467558 141.763505 
L 94.472132 187.805805 
L 95.476707 197.456964 
L 96.481281 172.815707 
L 97.485856 171.512342 
L 98.49043 157.125633 
L 99.495005 158.56262 
L 100.49958 191.346357 
L 101.504154 152.758797 
L 102.508729 153.266865 
L 103.513303 131.570632 
L 104.517878 127.054489 
L 105.522452 170.597801 
L 106.527027 173.486065 
L 107.531602 138.904172 
L 108.536176 174.507716 
L 110.545325 116.034834 
L 111.5499 191.268967 
L 112.554474 163.221564 
L 113.559049 142.700554 
L 114.563624 134.85826 
L 115.568198 150.92282 
L 116.572773 150.007868 
L 117.577347 173.673848 
L 118.581922 163.580022 
L 119.586496 211.901882 
L 120.591071 146.406553 
L 121.595646 129.875856 
L 122.60022 142.083264 
L 123.604795 176.037131 
L 124.609369 181.168481 
L 125.613944 173.124554 
L 126.618519 171.173007 
L 127.623093 161.991588 
L 128.627668 154.27701 
L 129.632242 158.842133 
L 130.636817 140.97298 
L 131.641391 163.042149 
L 132.645966 148.131532 
L 133.650541 154.858648 
L 134.655115 158.551531 
L 135.65969 147.297607 
L 136.664264 152.927396 
L 137.668839 164.133044 
L 138.673413 182.51196 
L 139.677988 159.366936 
L 140.682563 161.507757 
L 141.687137 190.150779 
L 142.691712 174.796323 
L 143.696286 180.503152 
L 144.700861 152.328881 
L 145.705435 156.135324 
L 146.71001 173.233867 
L 147.714585 182.366337 
L 148.719159 169.86985 
L 149.723734 141.869285 
L 150.728308 132.812884 
L 151.732883 140.897214 
L 152.737457 191.055083 
L 153.742032 182.29909 
L 154.746607 174.792647 
L 155.751181 199.87332 
L 156.755756 133.379177 
L 157.76033 189.924662 
L 158.764905 179.081643 
L 159.769479 143.010981 
L 160.774054 157.501237 
L 161.778629 180.122173 
L 162.783203 167.269739 
L 163.787778 145.277775 
L 164.792352 157.857648 
L 165.796927 147.481111 
L 166.801502 127.521592 
L 167.806076 158.879825 
L 168.810651 179.519888 
L 169.815225 136.830512 
L 170.8198 170.146185 
L 171.824374 136.025418 
L 172.828949 168.019634 
L 173.833524 159.910548 
L 174.838098 148.537572 
L 175.842673 171.621808 
L 176.847247 151.937119 
L 177.851822 159.153457 
L 178.856396 189.548291 
L 179.860971 177.570068 
L 180.865546 188.838587 
L 181.87012 168.220302 
L 182.874695 176.072211 
L 183.879269 176.301157 
L 184.883844 146.080167 
L 185.888418 175.621072 
L 186.892993 141.181447 
L 187.897568 137.579384 
L 188.902142 193.694873 
L 189.906717 149.967101 
L 190.911291 150.836457 
L 191.915866 144.35855 
L 192.92044 199.385537 
L 193.925015 166.679033 
L 194.92959 149.819596 
L 195.934164 183.330824 
L 196.938739 149.153897 
L 197.943313 138.484377 
L 199.952462 166.883806 
L 200.957037 162.457409 
L 201.961612 176.045813 
L 202.966186 202.482582 
L 203.970761 199.289217 
L 204.975335 151.484824 
L 205.97991 123.728712 
L 206.984484 140.033376 
L 207.989059 153.458498 
L 208.993634 142.956003 
L 209.998208 170.532574 
L 211.002783 168.091108 
L 212.007357 186.96197 
L 214.016507 159.980056 
L 215.021081 160.325213 
L 216.025656 134.889486 
L 217.03023 226.505861 
L 218.034805 157.278924 
L 219.039379 186.083418 
L 220.043954 111.481057 
L 221.048529 157.470169 
L 222.053103 153.808299 
L 223.057678 167.839654 
L 224.062252 142.564204 
L 225.066827 176.942649 
L 227.075976 222.439432 
L 228.080551 177.530568 
L 229.085125 166.903198 
L 230.0897 168.311182 
L 231.094274 183.92567 
L 232.098849 130.229601 
L 233.103423 155.518506 
L 234.107998 163.603843 
L 235.112573 166.122313 
L 236.117147 192.45619 
L 237.121722 181.457507 
L 238.126296 156.319982 
L 239.130871 162.605879 
L 240.135445 170.457423 
L 241.14002 149.29324 
L 242.144595 162.430256 
L 243.149169 165.647004 
L 244.153744 103.67177 
L 245.158318 152.989454 
L 247.167467 193.897432 
L 248.172042 178.535991 
L 249.176617 205.353269 
L 250.181191 180.694289 
L 251.185766 174.495944 
L 252.19034 156.660249 
L 253.194915 181.489297 
L 254.199489 192.922728 
L 255.204064 115.283754 
L 256.208639 164.401272 
L 257.213213 140.228153 
L 258.217788 135.238709 
L 259.222362 195.11621 
L 260.226937 151.279643 
L 261.231512 139.224092 
L 262.236086 170.721819 
L 263.240661 166.070802 
L 264.245235 189.779061 
L 265.24981 199.160685 
L 266.254384 136.231483 
L 267.258959 183.884671 
L 268.263534 178.311988 
L 269.268108 135.287999 
L 270.272683 183.413358 
L 272.281832 127.354474 
L 273.286406 175.633923 
L 274.290981 184.147444 
L 275.295556 127.255241 
L 276.30013 145.16928 
L 277.304705 143.573755 
L 278.309279 175.125819 
L 279.313854 178.041472 
L 280.318428 170.975398 
L 281.323003 173.385753 
L 282.327578 169.68061 
L 283.332152 156.103982 
L 284.336727 175.2053 
L 285.341301 169.023093 
L 286.345876 214.38557 
L 287.35045 175.191555 
L 288.355025 173.494107 
L 289.3596 178.243105 
L 290.364174 150.10658 
L 291.368749 142.740675 
L 292.373323 152.9452 
L 293.377898 174.164377 
L 294.382472 164.808436 
L 295.387047 136.3907 
L 296.391622 198.527868 
L 297.396196 191.266035 
L 298.400771 169.819591 
L 299.405345 145.919317 
L 300.40992 177.245981 
L 301.414494 180.48395 
L 302.419069 189.036152 
L 303.423644 173.930722 
L 304.428218 163.570699 
L 305.432793 141.476597 
L 306.437367 184.066069 
L 307.441942 206.846475 
L 308.446517 162.403364 
L 309.451091 151.300119 
L 310.455666 167.870373 
L 311.46024 141.463663 
L 313.469389 196.797976 
L 314.473964 166.26503 
L 315.478539 150.545042 
L 316.483113 191.924746 
L 317.487688 159.684186 
L 318.492262 162.99205 
L 319.496837 129.492713 
L 320.501411 146.768361 
L 321.505986 155.84092 
L 322.510561 124.815394 
L 323.515135 141.201154 
L 324.51971 171.81363 
L 325.524284 158.402119 
L 326.528859 207.184953 
L 327.533433 151.270894 
L 328.538008 185.281603 
L 329.542583 150.575102 
L 330.547157 150.851326 
L 331.551732 196.612347 
L 332.556306 160.629586 
L 333.560881 132.872089 
L 334.565455 144.721372 
L 335.57003 132.23005 
L 336.574605 186.377573 
L 337.579179 163.676317 
L 338.583754 129.208065 
L 339.588328 161.314614 
L 340.592903 169.194701 
L 341.597477 178.835131 
L 342.602052 151.060326 
L 343.606627 138.874077 
L 344.611201 136.403414 
L 345.615776 203.975016 
L 346.62035 167.447264 
L 347.624925 181.600195 
L 348.629499 168.406638 
L 349.634074 216.544614 
L 350.638649 149.178601 
L 351.643223 155.461994 
L 352.647798 164.682362 
L 353.652372 140.693181 
L 354.656947 146.312125 
L 355.661522 157.891024 
L 356.666096 116.555481 
L 357.670671 163.252271 
L 358.675245 151.524536 
L 360.684394 204.882592 
L 361.688969 176.206649 
L 362.693544 130.058402 
L 363.698118 166.615568 
L 364.702693 189.031704 
L 365.707267 148.678481 
L 366.711842 175.115744 
L 367.716416 160.477988 
L 368.720991 192.71134 
L 369.725566 186.5315 
L 370.73014 170.717597 
L 371.734715 150.757031 
L 372.739289 152.629807 
L 373.743864 140.806814 
L 374.748438 168.238568 
L 375.753013 151.03756 
L 376.757588 181.655215 
L 377.762162 193.285816 
L 378.766737 183.154179 
L 379.771311 162.477904 
L 380.775886 153.960783 
L 381.78046 172.710876 
L 382.785035 173.618659 
L 383.78961 170.660499 
L 384.794184 153.937848 
L 385.798759 177.267846 
L 386.803333 160.738669 
L 387.807908 171.889743 
L 388.812482 131.328983 
L 389.817057 184.707029 
L 390.821632 206.264407 
L 391.826206 146.405121 
L 392.830781 189.849557 
L 393.835355 141.711967 
L 394.83993 147.233092 
L 395.844505 185.622485 
L 396.849079 150.513945 
L 397.853654 178.539634 
L 399.862803 164.249197 
L 400.867377 159.681193 
L 401.871952 166.660706 
L 402.876527 194.692216 
L 403.881101 134.160665 
L 404.885676 166.714203 
L 405.89025 183.039752 
L 406.894825 156.432539 
L 407.899399 185.817132 
L 408.903974 160.936068 
L 409.908549 188.255907 
L 410.913123 168.896135 
L 411.917698 156.118566 
L 412.922272 182.407822 
L 413.926847 136.252612 
L 414.931421 163.17722 
L 415.935996 179.207443 
L 416.940571 190.756577 
L 417.945145 203.817957 
L 418.94972 144.183038 
L 419.954294 177.174773 
L 420.958869 151.388612 
L 421.963443 158.247029 
L 422.968018 163.765258 
L 423.972593 153.508613 
L 424.977167 135.596626 
L 425.981742 209.683755 
L 426.986316 169.405916 
L 427.990891 157.449592 
L 428.995465 158.674298 
L 430.00004 160.145019 
L 431.004615 179.750802 
L 433.013764 137.676431 
L 434.018338 144.861625 
L 435.022913 170.186022 
L 436.027487 190.635094 
L 437.032062 180.529004 
L 438.036637 201.469706 
L 439.041211 184.667757 
L 440.045786 125.164165 
L 441.05036 152.07386 
L 442.054935 154.785837 
L 443.05951 130.654472 
L 444.064084 217.52432 
L 446.073233 166.896954 
L 447.077808 131.12707 
L 448.082382 162.415398 
L 449.086957 150.296118 
L 450.091532 181.097773 
L 451.096106 146.438554 
L 452.100681 173.166715 
L 453.105255 161.495219 
L 454.10983 159.827405 
L 455.114404 191.013289 
L 456.118979 140.053064 
L 457.123554 186.030956 
L 458.128128 167.686317 
L 459.132703 136.19855 
L 460.137277 144.405316 
L 461.141852 169.870267 
L 462.146426 171.943353 
L 463.151001 159.239368 
L 464.155576 142.397645 
L 465.16015 164.744707 
L 467.169299 150.502698 
L 468.173874 167.725087 
L 469.178448 193.270614 
L 471.187598 141.040959 
L 472.192172 160.668128 
L 473.196747 149.85441 
L 474.201321 171.463425 
L 475.205896 159.004953 
L 476.21047 152.103694 
L 477.215045 157.858792 
L 478.21962 144.437494 
L 479.224194 128.128058 
L 480.228769 177.765673 
L 481.233343 166.283186 
L 482.237918 122.380275 
L 483.242492 175.958832 
L 484.247067 155.864905 
L 485.251642 162.773357 
L 486.256216 146.897443 
L 487.260791 162.128667 
L 488.265365 191.290192 
L 489.26994 133.460001 
L 490.274515 195.366766 
L 491.279089 178.570328 
L 492.283664 205.318481 
L 493.288238 184.556572 
L 494.292813 212.508411 
L 495.297387 170.217969 
L 496.301962 188.200008 
L 497.306537 194.40926 
L 498.311111 163.815365 
L 499.315686 181.605988 
L 500.32026 174.871752 
L 501.324835 192.19399 
L 502.329409 124.909458 
L 503.333984 155.097554 
L 504.338559 168.819317 
L 505.343133 171.309781 
L 506.347708 216.336981 
L 507.352282 183.625173 
L 508.356857 161.522086 
L 509.361431 196.176348 
L 510.366006 152.252176 
L 511.370581 145.083714 
L 512.375155 157.517151 
L 513.37973 181.773915 
L 514.384304 153.961616 
L 515.388879 171.572261 
L 516.393453 194.413013 
L 517.398028 187.417919 
L 518.402603 183.375344 
L 519.407177 159.535738 
L 520.411752 156.156613 
L 521.416326 148.38242 
L 522.420901 175.875702 
L 523.425475 181.64983 
L 524.43005 173.299867 
L 525.434625 136.942207 
L 526.439199 169.454518 
L 527.443774 148.918052 
L 528.448348 154.608952 
L 529.452923 171.002982 
L 530.457497 192.734618 
L 531.462072 162.813778 
L 532.466647 210.63264 
L 533.471221 174.163549 
L 534.475796 162.2964 
L 535.48037 160.304104 
L 536.484945 205.826469 
L 537.48952 153.264996 
L 538.494094 144.699282 
L 539.498669 154.808574 
L 540.503243 159.281385 
L 541.507818 188.652823 
L 542.512392 193.543045 
L 543.516967 160.97796 
L 544.521542 154.982916 
L 545.526116 150.988987 
L 546.530691 168.7236 
L 547.535265 158.920199 
L 548.53984 177.506445 
L 549.544414 166.835888 
L 550.548989 148.316208 
L 551.553564 161.882147 
L 552.558138 193.494177 
L 553.562713 177.226359 
L 554.567287 153.167376 
L 555.571862 213.887334 
L 556.576436 150.709076 
L 557.581011 146.321528 
L 558.585586 124.918293 
L 559.59016 162.308298 
L 560.594735 191.205411 
L 562.603884 163.804314 
L 563.608458 137.408432 
L 564.613033 167.708515 
L 565.617608 121.576227 
L 566.622182 178.017306 
L 567.626757 152.808148 
L 568.631331 180.889266 
L 569.635906 159.984425 
L 570.64048 163.792606 
L 571.645055 184.952588 
L 572.64963 164.44123 
L 573.654204 149.787095 
L 574.658779 146.749201 
L 575.663353 151.88917 
L 576.667928 139.521623 
L 577.672503 178.327388 
L 578.677077 191.139229 
L 579.681652 172.309874 
L 581.690801 195.732712 
L 582.695375 190.968625 
L 583.69995 149.157638 
L 584.704525 158.241306 
L 585.709099 189.007422 
L 586.713674 172.321041 
L 587.718248 195.931478 
L 588.722823 150.016319 
L 589.727397 147.011771 
L 590.731972 145.539101 
L 592.741121 193.767542 
L 593.745696 165.297191 
L 594.75027 152.951263 
L 595.754845 183.919052 
L 596.759419 160.293824 
L 597.763994 180.103447 
L 598.768569 140.323536 
L 599.773143 147.344054 
L 600.777718 142.638688 
L 601.782292 166.678281 
L 602.786867 165.827675 
L 603.791441 163.739195 
L 604.796016 177.35162 
L 605.800591 164.144618 
L 606.805165 139.030698 
L 607.80974 151.817621 
L 608.814314 158.470694 
L 609.818889 140.145032 
L 610.823463 132.578446 
L 611.828038 181.679659 
L 612.832613 187.761889 
L 613.837187 129.110048 
L 614.841762 159.696498 
L 615.846336 170.635044 
L 616.850911 149.924342 
L 617.855485 156.974426 
L 618.86006 134.324967 
L 619.864635 154.13015 
L 620.869209 158.876236 
L 621.873784 191.256247 
L 622.878358 151.491221 
L 623.882933 194.161008 
L 624.887508 171.652037 
L 625.892082 164.936414 
L 626.896657 187.533651 
L 627.901231 187.964527 
L 628.905806 182.872979 
L 629.91038 172.426275 
L 630.914955 165.929771 
L 631.91953 199.958251 
L 632.924104 173.856659 
L 633.928679 199.10493 
L 634.933253 169.725127 
L 635.937828 171.61106 
L 636.942402 143.214333 
L 637.946977 161.456637 
L 638.951552 167.439798 
L 639.956126 137.504308 
L 640.960701 137.955755 
L 641.965275 149.629524 
L 642.96985 159.610952 
L 643.974424 153.328127 
L 644.978999 151.53052 
L 645.983574 163.658961 
L 646.988148 202.711718 
L 647.992723 185.098216 
L 648.997297 158.122363 
L 650.001872 190.130997 
L 651.006446 133.809391 
L 652.011021 167.446743 
L 653.015596 192.88471 
L 654.02017 161.882915 
L 655.024745 153.000458 
L 656.029319 116.447059 
L 657.033894 146.587412 
L 658.038468 166.804249 
L 659.043043 208.756614 
L 660.047618 164.876842 
L 661.052192 168.247037 
L 662.056767 135.468047 
L 663.061341 183.898499 
L 664.065916 202.304572 
L 665.07049 190.086338 
L 666.075065 149.36638 
L 667.07964 157.251719 
L 668.084214 143.879504 
L 669.088789 151.910074 
L 670.093363 202.074504 
L 671.097938 168.629171 
L 672.102513 152.375787 
L 673.107087 162.431926 
L 674.111662 196.898721 
L 675.116236 157.357483 
L 676.120811 185.530175 
L 677.125385 156.019568 
L 678.12996 175.312793 
L 679.134535 172.182996 
L 680.139109 180.918358 
L 681.143684 154.752466 
L 682.148258 134.090664 
L 683.152833 132.359646 
L 684.157407 155.419104 
L 685.161982 137.020963 
L 686.166557 136.612488 
L 687.171131 154.825641 
L 688.175706 158.13452 
L 689.18028 173.405277 
L 690.184855 164.021113 
L 691.189429 162.018654 
L 692.194004 181.849362 
L 693.198579 185.733003 
L 694.203153 173.229024 
L 695.207728 134.925075 
L 696.212302 177.810752 
L 697.216877 129.057308 
L 698.221451 161.68132 
L 699.226026 128.752057 
L 700.230601 172.361179 
L 701.235175 156.795622 
L 702.23975 185.585439 
L 703.244324 143.098259 
L 704.248899 151.917273 
L 705.253473 183.380269 
L 706.258048 143.37871 
L 707.262623 181.172109 
L 708.267197 151.568807 
L 709.271772 180.053921 
L 710.276346 139.117719 
L 711.280921 173.797702 
L 712.285495 175.625621 
L 713.29007 168.891975 
L 714.294645 186.129178 
L 715.299219 182.789383 
L 716.303794 169.282686 
L 717.308368 193.462435 
L 718.312943 164.305604 
L 719.317518 159.6112 
L 720.322092 183.937261 
L 722.331241 108.829713 
L 723.335816 180.495591 
L 724.34039 167.986414 
L 725.344965 146.477634 
L 726.34954 146.412687 
L 727.354114 174.446169 
L 728.358689 147.163322 
L 729.363263 189.658866 
L 730.367838 149.70412 
L 731.372412 176.000063 
L 732.376987 173.333643 
L 733.381562 158.118232 
L 734.386136 150.80682 
L 735.390711 161.24691 
L 736.395285 176.482279 
L 737.39986 135.71362 
L 738.404434 152.936694 
L 739.409009 199.401253 
L 740.413584 186.364589 
L 741.418158 151.814602 
L 742.422733 156.838884 
L 743.427307 168.399004 
L 744.431882 204.253317 
L 745.436456 170.369649 
L 746.441031 166.270554 
L 747.445606 167.684747 
L 748.45018 189.300373 
L 749.454755 187.228967 
L 750.459329 171.809386 
L 751.463904 107.761509 
L 752.468478 147.911575 
L 753.473053 159.682355 
L 754.477628 148.070088 
L 755.482202 181.828667 
L 756.486777 145.51351 
L 757.491351 190.5031 
L 759.500501 165.229204 
L 760.505075 203.616943 
L 761.50965 159.079585 
L 762.514224 166.14413 
L 763.518799 164.191878 
L 764.523373 170.729409 
L 765.527948 148.387614 
L 766.532523 182.611801 
L 767.537097 181.693534 
L 768.541672 168.942613 
L 769.546246 176.723088 
L 770.550821 122.492173 
L 771.555395 134.569488 
L 772.55997 171.661387 
L 773.564545 188.818184 
L 774.569119 150.124083 
L 775.573694 166.914005 
L 776.578268 186.315087 
L 777.582843 163.540422 
L 778.587417 170.689748 
L 779.591992 133.240514 
L 780.596567 159.439877 
L 781.601141 150.95465 
L 782.605716 193.320238 
L 783.61029 146.025063 
L 784.614865 126.307041 
L 785.619439 195.070373 
L 786.624014 159.088709 
L 787.628589 186.379227 
L 789.637738 122.356403 
L 790.642312 194.564923 
L 791.646887 157.799643 
L 792.651461 153.878202 
L 793.656036 154.266026 
L 794.660611 165.790858 
L 795.665185 152.867256 
L 796.66976 159.843687 
L 797.674334 192.353602 
L 798.678909 206.036681 
L 799.683483 179.189583 
L 800.688058 160.143968 
L 801.692633 144.651182 
L 802.697207 184.748525 
L 803.701782 133.536293 
L 804.706356 142.478001 
L 805.710931 165.125927 
L 806.715506 157.750643 
L 807.72008 165.048689 
L 808.724655 180.573011 
L 809.729229 142.635751 
L 810.733804 170.631967 
L 811.738378 161.872285 
L 812.742953 126.49584 
L 813.747528 156.000237 
L 814.752102 203.098279 
L 815.756677 136.505547 
L 816.761251 180.801989 
L 817.765826 180.134742 
L 818.7704 198.176327 
L 819.774975 185.226737 
L 820.77955 183.76047 
L 821.784124 173.403502 
L 822.788699 133.622485 
L 823.793273 152.944298 
L 824.797848 166.67726 
L 825.802422 151.816891 
L 826.806997 166.396921 
L 827.811572 165.543867 
L 828.816146 177.076289 
L 829.820721 140.400696 
L 830.825295 168.510723 
L 831.82987 168.069113 
L 832.834444 156.484559 
L 833.839019 142.97408 
L 835.848168 207.330238 
L 836.852743 145.696384 
L 837.857317 172.386392 
L 838.861892 195.275772 
L 839.866466 168.014843 
L 840.871041 160.158668 
L 841.875616 179.344601 
L 842.88019 147.933615 
L 843.884765 178.393519 
L 844.889339 143.680198 
L 845.893914 201.480776 
L 846.898488 154.583868 
L 847.903063 162.994468 
L 848.907638 141.200995 
L 849.912212 216.604809 
L 850.916787 166.700946 
L 851.921361 169.426514 
L 852.925936 178.149097 
L 853.930511 182.494046 
L 854.935085 148.100645 
L 855.93966 170.436866 
L 856.944234 142.93855 
L 857.948809 185.765539 
L 858.953383 136.343449 
L 859.957958 211.82637 
L 860.962533 157.408735 
L 861.967107 170.825755 
L 862.971682 152.300483 
L 863.976256 139.181855 
L 864.980831 157.824858 
L 865.985405 148.265534 
L 866.98998 153.354011 
L 867.994555 187.832183 
L 868.999129 135.951574 
L 870.003704 175.95717 
L 871.008278 189.517406 
L 872.012853 170.005842 
L 873.017427 164.438532 
L 874.022002 185.377406 
L 875.026577 214.93621 
L 876.031151 174.847929 
L 877.035726 172.019599 
L 878.0403 195.795384 
L 879.044875 165.504147 
L 880.049449 171.478049 
L 881.054024 171.398151 
L 882.058599 175.19546 
L 883.063173 144.549651 
L 884.067748 188.986812 
L 885.072322 187.361713 
L 886.076897 152.797067 
L 887.081471 158.711733 
L 888.086046 160.133326 
L 889.090621 200.954039 
L 890.095195 174.706632 
L 891.09977 171.997015 
L 892.104344 187.621719 
L 893.108919 185.687624 
L 894.113493 161.553806 
L 895.118068 148.189036 
L 896.122643 138.585508 
L 897.127217 173.626361 
L 898.131792 192.809396 
L 899.136366 215.929794 
L 900.140941 183.889805 
L 901.145516 189.622133 
L 902.15009 180.311001 
L 903.154665 120.570164 
L 904.159239 166.741957 
L 905.163814 174.744726 
L 906.168388 186.293891 
L 907.172963 190.746564 
L 909.182112 182.914127 
L 910.186687 195.705847 
L 911.191261 153.442857 
L 912.195836 156.943978 
L 913.20041 176.079041 
L 914.204985 162.755827 
L 915.20956 164.982409 
L 916.214134 163.319408 
L 917.218709 181.418221 
L 918.223283 178.329662 
L 919.227858 179.427354 
L 920.232432 173.273857 
L 921.237007 160.362423 
L 922.241582 158.689136 
L 923.246156 155.672334 
L 924.250731 181.868743 
L 925.255305 168.024109 
L 926.25988 146.227288 
L 927.264454 186.239481 
L 928.269029 161.758261 
L 929.273604 149.183905 
L 930.278178 188.990711 
L 931.282753 201.119556 
L 932.287327 182.882451 
L 933.291902 147.363635 
L 934.296476 159.257768 
L 935.301051 153.280566 
L 936.305626 148.360772 
L 937.3102 166.297098 
L 938.314775 170.245367 
L 939.319349 198.076394 
L 940.323924 186.160848 
L 941.328498 182.380251 
L 942.333073 162.578137 
L 943.337648 167.933623 
L 944.342222 154.325447 
L 945.346797 172.954661 
L 946.351371 168.431834 
L 947.355946 136.522805 
L 948.360521 133.087881 
L 949.365095 159.523369 
L 950.36967 137.832762 
L 951.374244 167.574877 
L 952.378819 155.0509 
L 953.383393 164.578888 
L 954.387968 169.046017 
L 955.392543 170.652267 
L 956.397117 169.146883 
L 957.401692 131.638011 
L 959.410841 162.446762 
L 960.415415 183.772594 
L 961.41999 134.664469 
L 962.424565 175.25864 
L 963.429139 160.90509 
L 964.433714 154.973192 
L 965.438288 151.815041 
L 966.442863 174.780152 
L 967.447437 168.410148 
L 968.452012 197.983822 
L 969.456587 175.898365 
L 970.461161 199.799977 
L 971.465736 142.863149 
L 972.47031 193.724365 
L 973.474885 141.370291 
L 974.479459 172.669788 
L 975.484034 171.030328 
L 976.488609 184.882384 
L 977.493183 143.500325 
L 978.497758 227.134786 
L 979.502332 165.406596 
L 980.506907 159.768587 
L 981.511481 144.31965 
L 982.516056 182.901599 
L 983.520631 132.178232 
L 984.525205 164.125082 
L 985.52978 190.596826 
L 986.534354 190.378789 
L 987.538929 190.844491 
L 988.543504 140.178447 
L 989.548078 153.686996 
L 990.552653 173.653955 
L 991.557227 174.523981 
L 992.561802 107.378681 
L 993.566376 189.865699 
L 994.570951 182.657016 
L 995.575526 141.865337 
L 996.5801 159.483725 
L 997.584675 155.46156 
L 998.589249 171.424828 
L 999.593824 189.169689 
L 1000.598398 204.776757 
L 1001.602973 161.789589 
L 1002.607548 173.110709 
L 1003.612122 155.194044 
L 1004.616697 168.242105 
L 1005.621271 192.074212 
L 1006.625846 164.894857 
L 1007.63042 191.012345 
L 1008.634995 177.953483 
L 1009.63957 160.84747 
L 1010.644144 169.455932 
L 1011.648719 162.581732 
L 1012.653293 147.22973 
L 1013.657868 193.737124 
L 1014.662442 140.791293 
L 1015.667017 143.739047 
L 1016.671592 156.37741 
L 1017.676166 165.821285 
L 1018.680741 160.7848 
L 1019.685315 173.610639 
L 1020.68989 195.939769 
L 1021.694464 144.102147 
L 1022.699039 135.487142 
L 1023.703614 167.535123 
L 1024.708188 159.30962 
L 1025.712763 228.419823 
L 1026.717337 176.726271 
L 1027.721912 147.092163 
L 1028.726486 153.265941 
L 1029.731061 162.60204 
L 1030.735636 146.334013 
L 1031.74021 163.515108 
L 1032.744785 164.584035 
L 1033.749359 128.940501 
L 1034.753934 193.644923 
L 1035.758509 184.196329 
L 1036.763083 180.099106 
L 1037.767658 168.23857 
L 1038.772232 147.727642 
L 1039.776807 179.197554 
L 1040.781381 160.997444 
L 1041.785956 155.846514 
L 1042.790531 180.653809 
L 1044.79968 175.999955 
L 1045.804254 206.383681 
L 1046.808829 167.986331 
L 1047.813403 187.173548 
L 1048.817978 130.633345 
L 1049.822553 179.92691 
L 1050.827127 155.52904 
L 1051.831702 173.899346 
L 1052.836276 151.507057 
L 1053.840851 169.223181 
L 1054.845425 168.871922 
L 1054.845425 168.871922 
" clip-path="url(#p1abcf15f39)" style="fill: none; stroke: #ffa500; stroke-opacity: 0.7; stroke-linecap: square"/>
   </g>
   <g id="line2d_14">
    <path d="M 51.275425 143.685263 
L 53.284575 143.685263 
L 54.289149 136.464515 
L 85.430961 136.464515 
L 86.435536 133.293138 
L 102.508729 133.293138 
L 103.513303 131.570632 
L 104.517878 127.054489 
L 109.540751 127.054489 
L 110.545325 116.034834 
L 219.039379 116.034834 
L 220.043954 111.481057 
L 243.149169 111.481057 
L 244.153744 103.67177 
L 1054.845425 103.67177 
L 1054.845425 103.67177 
" clip-path="url(#p1abcf15f39)" style="fill: none; stroke: #ff0000; stroke-opacity: 0.7; stroke-linecap: square"/>
   </g>
   <g id="patch_3">
    <path d="M 52.28 382.12 
L 52.28 28.32 
" style="fill: none; stroke: #000000; stroke-width: 0.8; stroke-linejoin: miter; stroke-linecap: square"/>
   </g>
   <g id="patch_4">
    <path d="M 1055.85 382.12 
L 1055.85 28.32 
" style="fill: none; stroke: #000000; stroke-width: 0.8; stroke-linejoin: miter; stroke-linecap: square"/>
   </g>
   <g id="patch_5">
    <path d="M 52.28 382.12 
L 1055.85 382.12 
" style="fill: none; stroke: #000000; stroke-width: 0.8; stroke-linejoin: miter; stroke-linecap: square"/>
   </g>
   <g id="patch_6">
    <path d="M 52.28 28.32 
L 1055.85 28.32 
" style="fill: none; stroke: #000000; stroke-width: 0.8; stroke-linejoin: miter; stroke-linecap: square"/>
   </g>
   <g id="text_14">
    <!-- Dataset 1: Go et al., 2021 -->
    <g transform="translate(462.90375 22.32) scale(0.16 -0.16)">
     <defs>
      <path id="ArialMT-44" d="M 494 0 
L 494 4581 
L 2072 4581 
Q 2606 4581 2888 4516 
Q 3281 4425 3559 4188 
Q 3922 3881 4101 3404 
Q 4281 2928 4281 2316 
Q 4281 1794 4159 1391 
Q 4038 988 3847 723 
Q 3656 459 3429 307 
Q 3203 156 2883 78 
Q 2563 0 2147 0 
L 494 0 
z
M 1100 541 
L 2078 541 
Q 2531 541 2789 625 
Q 3047 709 3200 863 
Q 3416 1078 3536 1442 
Q 3656 1806 3656 2325 
Q 3656 3044 3420 3430 
Q 3184 3816 2847 3947 
Q 2603 4041 2063 4041 
L 1100 4041 
L 1100 541 
z
" transform="scale(0.015625)"/>
      <path id="ArialMT-3a" d="M 578 2678 
L 578 3319 
L 1219 3319 
L 1219 2678 
L 578 2678 
z
M 578 0 
L 578 641 
L 1219 641 
L 1219 0 
L 578 0 
z
" transform="scale(0.015625)"/>
      <path id="ArialMT-47" d="M 2638 1797 
L 2638 2334 
L 4578 2338 
L 4578 638 
Q 4131 281 3656 101 
Q 3181 -78 2681 -78 
Q 2006 -78 1454 211 
Q 903 500 622 1047 
Q 341 1594 341 2269 
Q 341 2938 620 3517 
Q 900 4097 1425 4378 
Q 1950 4659 2634 4659 
Q 3131 4659 3532 4498 
Q 3934 4338 4162 4050 
Q 4391 3763 4509 3300 
L 3963 3150 
Q 3859 3500 3706 3700 
Q 3553 3900 3268 4020 
Q 2984 4141 2638 4141 
Q 2222 4141 1919 4014 
Q 1616 3888 1430 3681 
Q 1244 3475 1141 3228 
Q 966 2803 966 2306 
Q 966 1694 1177 1281 
Q 1388 869 1791 669 
Q 2194 469 2647 469 
Q 3041 469 3416 620 
Q 3791 772 3984 944 
L 3984 1797 
L 2638 1797 
z
" transform="scale(0.015625)"/>
      <path id="ArialMT-2c" d="M 569 0 
L 569 641 
L 1209 641 
L 1209 0 
Q 1209 -353 1084 -570 
Q 959 -788 688 -906 
L 531 -666 
Q 709 -588 793 -436 
Q 878 -284 888 0 
L 569 0 
z
" transform="scale(0.015625)"/>
     </defs>
     <use xlink:href="#ArialMT-44"/>
     <use xlink:href="#ArialMT-61" x="72.216797"/>
     <use xlink:href="#ArialMT-74" x="127.832031"/>
     <use xlink:href="#ArialMT-61" x="155.615234"/>
     <use xlink:href="#ArialMT-73" x="211.230469"/>
     <use xlink:href="#ArialMT-65" x="261.230469"/>
     <use xlink:href="#ArialMT-74" x="316.845703"/>
     <use xlink:href="#ArialMT-20" x="344.628906"/>
     <use xlink:href="#ArialMT-31" x="372.412109"/>
     <use xlink:href="#ArialMT-3a" x="428.027344"/>
     <use xlink:href="#ArialMT-20" x="455.810547"/>
     <use xlink:href="#ArialMT-47" x="483.59375"/>
     <use xlink:href="#ArialMT-6f" x="561.376953"/>
     <use xlink:href="#ArialMT-20" x="616.992188"/>
     <use xlink:href="#ArialMT-65" x="644.775391"/>
     <use xlink:href="#ArialMT-74" x="700.390625"/>
     <use xlink:href="#ArialMT-20" x="728.173828"/>
     <use xlink:href="#ArialMT-61" x="755.957031"/>
     <use xlink:href="#ArialMT-6c" x="811.572266"/>
     <use xlink:href="#ArialMT-2e" x="833.789062"/>
     <use xlink:href="#ArialMT-2c" x="861.572266"/>
     <use xlink:href="#ArialMT-20" x="889.355469"/>
     <use xlink:href="#ArialMT-32" x="917.138672"/>
     <use xlink:href="#ArialMT-30" x="972.753906"/>
     <use xlink:href="#ArialMT-32" x="1028.369141"/>
     <use xlink:href="#ArialMT-31" x="1083.984375"/>
    </g>
   </g>
   <g id="legend_1">
    <g id="patch_7">
     <path d="M 915.66375 376.12 
L 1047.45 376.12 
Q 1049.85 376.12 1049.85 373.72 
L 1049.85 323.996875 
Q 1049.85 321.596875 1047.45 321.596875 
L 915.66375 321.596875 
Q 913.26375 321.596875 913.26375 323.996875 
L 913.26375 373.72 
Q 913.26375 376.12 915.66375 376.12 
z
" style="fill: #ffffff; opacity: 0.8; stroke: #cccccc; stroke-linejoin: miter"/>
    </g>
    <g id="line2d_15">
     <path d="M 918.06375 330.78625 
L 930.06375 330.78625 
L 942.06375 330.78625 
" style="fill: none; stroke: #0000ff; stroke-linecap: square"/>
    </g>
    <g id="text_15">
     <!-- GA -->
     <g transform="translate(951.66375 334.98625) scale(0.12 -0.12)">
      <defs>
       <path id="ArialMT-41" d="M -9 0 
L 1750 4581 
L 2403 4581 
L 4278 0 
L 3588 0 
L 3053 1388 
L 1138 1388 
L 634 0 
L -9 0 
z
M 1313 1881 
L 2866 1881 
L 2388 3150 
Q 2169 3728 2063 4100 
Q 1975 3659 1816 3225 
L 1313 1881 
z
" transform="scale(0.015625)"/>
      </defs>
      <use xlink:href="#ArialMT-47"/>
      <use xlink:href="#ArialMT-41" x="77.783203"/>
     </g>
    </g>
    <g id="line2d_16">
     <path d="M 918.06375 347.760625 
L 930.06375 347.760625 
L 942.06375 347.760625 
" style="fill: none; stroke: #ffa500; stroke-opacity: 0.7; stroke-linecap: square"/>
    </g>
    <g id="text_16">
     <!-- Random baseline -->
     <g transform="translate(951.66375 351.960625) scale(0.12 -0.12)">
      <defs>
       <path id="ArialMT-52" d="M 503 0 
L 503 4581 
L 2534 4581 
Q 3147 4581 3465 4457 
Q 3784 4334 3975 4021 
Q 4166 3709 4166 3331 
Q 4166 2844 3850 2509 
Q 3534 2175 2875 2084 
Q 3116 1969 3241 1856 
Q 3506 1613 3744 1247 
L 4541 0 
L 3778 0 
L 3172 953 
Q 2906 1366 2734 1584 
Q 2563 1803 2427 1890 
Q 2291 1978 2150 2013 
Q 2047 2034 1813 2034 
L 1109 2034 
L 1109 0 
L 503 0 
z
M 1109 2559 
L 2413 2559 
Q 2828 2559 3062 2645 
Q 3297 2731 3419 2920 
Q 3541 3109 3541 3331 
Q 3541 3656 3305 3865 
Q 3069 4075 2559 4075 
L 1109 4075 
L 1109 2559 
z
" transform="scale(0.015625)"/>
       <path id="ArialMT-64" d="M 2575 0 
L 2575 419 
Q 2259 -75 1647 -75 
Q 1250 -75 917 144 
Q 584 363 401 755 
Q 219 1147 219 1656 
Q 219 2153 384 2558 
Q 550 2963 881 3178 
Q 1213 3394 1622 3394 
Q 1922 3394 2156 3267 
Q 2391 3141 2538 2938 
L 2538 4581 
L 3097 4581 
L 3097 0 
L 2575 0 
z
M 797 1656 
Q 797 1019 1065 703 
Q 1334 388 1700 388 
Q 2069 388 2326 689 
Q 2584 991 2584 1609 
Q 2584 2291 2321 2609 
Q 2059 2928 1675 2928 
Q 1300 2928 1048 2622 
Q 797 2316 797 1656 
z
" transform="scale(0.015625)"/>
      </defs>
      <use xlink:href="#ArialMT-52"/>
      <use xlink:href="#ArialMT-61" x="72.216797"/>
      <use xlink:href="#ArialMT-6e" x="127.832031"/>
      <use xlink:href="#ArialMT-64" x="183.447266"/>
      <use xlink:href="#ArialMT-6f" x="239.0625"/>
      <use xlink:href="#ArialMT-6d" x="294.677734"/>
      <use xlink:href="#ArialMT-20" x="377.978516"/>
      <use xlink:href="#ArialMT-62" x="405.761719"/>
      <use xlink:href="#ArialMT-61" x="461.376953"/>
      <use xlink:href="#ArialMT-73" x="516.992188"/>
      <use xlink:href="#ArialMT-65" x="566.992188"/>
      <use xlink:href="#ArialMT-6c" x="622.607422"/>
      <use xlink:href="#ArialMT-69" x="644.824219"/>
      <use xlink:href="#ArialMT-6e" x="667.041016"/>
      <use xlink:href="#ArialMT-65" x="722.65625"/>
     </g>
    </g>
    <g id="line2d_17">
     <path d="M 918.06375 364.735 
L 930.06375 364.735 
L 942.06375 364.735 
" style="fill: none; stroke: #ff0000; stroke-opacity: 0.7; stroke-linecap: square"/>
    </g>
    <g id="text_17">
     <!-- Best random set -->
     <g transform="translate(951.66375 368.935) scale(0.12 -0.12)">
      <defs>
       <path id="ArialMT-42" d="M 469 0 
L 469 4581 
L 2188 4581 
Q 2713 4581 3030 4442 
Q 3347 4303 3526 4014 
Q 3706 3725 3706 3409 
Q 3706 3116 3547 2856 
Q 3388 2597 3066 2438 
Q 3481 2316 3704 2022 
Q 3928 1728 3928 1328 
Q 3928 1006 3792 729 
Q 3656 453 3456 303 
Q 3256 153 2954 76 
Q 2653 0 2216 0 
L 469 0 
z
M 1075 2656 
L 2066 2656 
Q 2469 2656 2644 2709 
Q 2875 2778 2992 2937 
Q 3109 3097 3109 3338 
Q 3109 3566 3000 3739 
Q 2891 3913 2687 3977 
Q 2484 4041 1991 4041 
L 1075 4041 
L 1075 2656 
z
M 1075 541 
L 2216 541 
Q 2509 541 2628 563 
Q 2838 600 2978 687 
Q 3119 775 3209 942 
Q 3300 1109 3300 1328 
Q 3300 1584 3169 1773 
Q 3038 1963 2805 2039 
Q 2572 2116 2134 2116 
L 1075 2116 
L 1075 541 
z
" transform="scale(0.015625)"/>
      </defs>
      <use xlink:href="#ArialMT-42"/>
      <use xlink:href="#ArialMT-65" x="66.699219"/>
      <use xlink:href="#ArialMT-73" x="122.314453"/>
      <use xlink:href="#ArialMT-74" x="172.314453"/>
      <use xlink:href="#ArialMT-20" x="200.097656"/>
      <use xlink:href="#ArialMT-72" x="227.880859"/>
      <use xlink:href="#ArialMT-61" x="261.181641"/>
      <use xlink:href="#ArialMT-6e" x="316.796875"/>
      <use xlink:href="#ArialMT-64" x="372.412109"/>
      <use xlink:href="#ArialMT-6f" x="428.027344"/>
      <use xlink:href="#ArialMT-6d" x="483.642578"/>
      <use xlink:href="#ArialMT-20" x="566.943359"/>
      <use xlink:href="#ArialMT-73" x="594.726562"/>
      <use xlink:href="#ArialMT-65" x="644.726562"/>
      <use xlink:href="#ArialMT-74" x="700.341797"/>
     </g>
    </g>
   </g>
  </g>
 </g>
 <defs>
  <clipPath id="p1abcf15f39">
   <rect x="52.28" y="28.32" width="1003.57" height="353.8"/>
  </clipPath>
 </defs>
</svg>
