<?xml version="1.0" encoding="utf-8" standalone="no"?>
<!DOCTYPE svg PUBLIC "-//W3C//DTD SVG 1.1//EN"
  "http://www.w3.org/Graphics/SVG/1.1/DTD/svg11.dtd">
<svg xmlns:xlink="http://www.w3.org/1999/xlink" width="1080pt" height="648pt" viewBox="0 0 1080 648" xmlns="http://www.w3.org/2000/svg" version="1.1">
 <metadata>
  <rdf:RDF xmlns:dc="http://purl.org/dc/elements/1.1/" xmlns:cc="http://creativecommons.org/ns#" xmlns:rdf="http://www.w3.org/1999/02/22-rdf-syntax-ns#">
   <cc:Work>
    <dc:type rdf:resource="http://purl.org/dc/dcmitype/StillImage"/>
    <dc:date>2024-04-04T23:50:43.030057</dc:date>
    <dc:format>image/svg+xml</dc:format>
    <dc:creator>
     <cc:Agent>
      <dc:title>Matplotlib v3.7.2, https://matplotlib.org/</dc:title>
     </cc:Agent>
    </dc:creator>
   </cc:Work>
  </rdf:RDF>
 </metadata>
 <defs>
  <style type="text/css">*{stroke-linejoin: round; stroke-linecap: butt}</style>
 </defs>
 <g id="figure_1">
  <g id="patch_1">
   <path d="M 0 648 
L 1080 648 
L 1080 0 
L 0 0 
z
" style="fill: #ffffff"/>
  </g>
  <g id="axes_1">
   <g id="patch_2">
    <path d="M 47.765 606.04 
L 933.07 606.04 
L 933.07 30.748 
L 47.765 30.748 
z
" style="fill: #ffffff"/>
   </g>
   <g id="PolyCollection_1">
    <defs>
     <path id="mb16cce7fc3" d="M 47.765 -233.853826 
L 47.765 -199.733426 
L 65.4711 -207.596511 
L 83.1772 -201.805844 
L 100.8833 -202.913248 
L 118.5894 -215.197514 
L 136.2955 -211.639622 
L 154.0016 -212.643783 
L 171.7077 -213.047411 
L 189.4138 -211.304019 
L 207.1199 -218.034286 
L 224.826 -218.378805 
L 242.5321 -221.130726 
L 260.2382 -221.269616 
L 277.9443 -224.842624 
L 295.6504 -221.937732 
L 313.3565 -230.217144 
L 331.0626 -226.953928 
L 348.7687 -226.546176 
L 366.4748 -229.183488 
L 384.1809 -232.064961 
L 401.887 -235.300433 
L 419.5931 -234.637691 
L 437.2992 -232.076298 
L 455.0053 -237.114077 
L 472.7114 -239.161586 
L 490.4175 -242.286456 
L 508.1236 -237.83246 
L 525.8297 -238.298711 
L 543.5358 -241.042344 
L 561.2419 -242.111959 
L 578.948 -245.726435 
L 596.6541 -246.576019 
L 614.3602 -246.91969 
L 632.0663 -249.111888 
L 649.7724 -250.734516 
L 667.4785 -251.696467 
L 685.1846 -254.250175 
L 702.8907 -253.07399 
L 720.5968 -255.04966 
L 738.3029 -256.416743 
L 756.009 -257.000686 
L 773.7151 -260.228893 
L 791.4212 -258.06923 
L 809.1273 -260.105056 
L 826.8334 -260.590495 
L 844.5395 -260.792846 
L 862.2456 -261.489426 
L 879.9517 -264.532331 
L 897.6578 -265.573735 
L 915.3639 -266.941036 
L 933.07 -263.271801 
L 933.07 -317.401252 
L 933.07 -317.401252 
L 915.3639 -317.14723 
L 897.6578 -318.452001 
L 879.9517 -316.781536 
L 862.2456 -308.156605 
L 844.5395 -307.56108 
L 826.8334 -309.509175 
L 809.1273 -309.597834 
L 791.4212 -305.288746 
L 773.7151 -305.766771 
L 756.009 -301.5533 
L 738.3029 -302.627388 
L 720.5968 -302.696417 
L 702.8907 -300.329963 
L 685.1846 -299.271306 
L 667.4785 -296.521448 
L 649.7724 -298.274206 
L 632.0663 -295.428095 
L 614.3602 -294.416899 
L 596.6541 -290.368536 
L 578.948 -288.82638 
L 561.2419 -286.199293 
L 543.5358 -284.636197 
L 525.8297 -282.852151 
L 508.1236 -281.851842 
L 490.4175 -285.806657 
L 472.7114 -281.544171 
L 455.0053 -280.239063 
L 437.2992 -274.932434 
L 419.5931 -274.588982 
L 401.887 -275.729053 
L 384.1809 -272.637909 
L 366.4748 -269.079384 
L 348.7687 -265.089991 
L 331.0626 -267.729221 
L 313.3565 -268.655169 
L 295.6504 -262.247873 
L 277.9443 -263.731071 
L 260.2382 -259.509563 
L 242.5321 -260.49921 
L 224.826 -253.782651 
L 207.1199 -254.297314 
L 189.4138 -249.519374 
L 171.7077 -249.095264 
L 154.0016 -248.085817 
L 136.2955 -246.918685 
L 118.5894 -251.501471 
L 100.8833 -238.841271 
L 83.1772 -240.296248 
L 65.4711 -242.006183 
L 47.765 -233.853826 
z
" style="stroke: #1f77b4; stroke-opacity: 0.2"/>
    </defs>
    <g clip-path="url(#pdb9e0d79e1)">
     <use xlink:href="#mb16cce7fc3" x="0" y="648" style="fill: #1f77b4; fill-opacity: 0.2; stroke: #1f77b4; stroke-opacity: 0.2"/>
    </g>
   </g>
   <g id="PolyCollection_2">
    <defs>
     <path id="mdd214e7859" d="M 47.765 -190.62376 
L 47.765 -156.205736 
L 65.4711 -168.527967 
L 83.1772 -154.692832 
L 100.8833 -162.88161 
L 118.5894 -168.332857 
L 136.2955 -166.150534 
L 154.0016 -174.457535 
L 171.7077 -172.517559 
L 189.4138 -175.863967 
L 207.1199 -172.605791 
L 224.826 -179.333788 
L 242.5321 -178.664308 
L 260.2382 -174.983072 
L 277.9443 -180.590887 
L 295.6504 -179.260994 
L 313.3565 -188.255039 
L 331.0626 -183.235328 
L 348.7687 -191.610758 
L 366.4748 -183.89125 
L 384.1809 -184.552043 
L 401.887 -186.489512 
L 419.5931 -194.696294 
L 437.2992 -184.15601 
L 455.0053 -194.873055 
L 472.7114 -196.859797 
L 490.4175 -197.079797 
L 508.1236 -200.107799 
L 525.8297 -199.3291 
L 543.5358 -201.066769 
L 561.2419 -203.478744 
L 578.948 -206.112289 
L 596.6541 -202.48682 
L 614.3602 -208.238545 
L 632.0663 -208.834488 
L 649.7724 -210.48026 
L 667.4785 -208.414006 
L 685.1846 -208.473473 
L 702.8907 -212.38372 
L 720.5968 -216.68742 
L 738.3029 -215.830794 
L 756.009 -226.626172 
L 773.7151 -213.796046 
L 791.4212 -219.080713 
L 809.1273 -223.604105 
L 826.8334 -223.889663 
L 844.5395 -224.619429 
L 862.2456 -229.599715 
L 879.9517 -224.244254 
L 897.6578 -226.939927 
L 915.3639 -231.726953 
L 933.07 -232.63909 
L 933.07 -276.373899 
L 933.07 -276.373899 
L 915.3639 -270.897549 
L 897.6578 -270.679058 
L 879.9517 -265.370273 
L 862.2456 -269.930579 
L 844.5395 -270.642347 
L 826.8334 -266.224814 
L 809.1273 -264.545682 
L 791.4212 -258.961184 
L 773.7151 -252.420096 
L 756.009 -267.874963 
L 738.3029 -260.069626 
L 720.5968 -257.374424 
L 702.8907 -257.6531 
L 685.1846 -252.133924 
L 667.4785 -246.423827 
L 649.7724 -248.090664 
L 632.0663 -249.972216 
L 614.3602 -241.909738 
L 596.6541 -240.014096 
L 578.948 -242.021875 
L 561.2419 -238.62281 
L 543.5358 -241.298053 
L 525.8297 -234.692489 
L 508.1236 -233.447818 
L 490.4175 -233.122893 
L 472.7114 -230.333154 
L 455.0053 -229.163591 
L 437.2992 -221.503523 
L 419.5931 -231.49433 
L 401.887 -223.310555 
L 384.1809 -221.740271 
L 366.4748 -222.310754 
L 348.7687 -229.082176 
L 331.0626 -220.868916 
L 313.3565 -222.744814 
L 295.6504 -217.259991 
L 277.9443 -214.502042 
L 260.2382 -213.987187 
L 242.5321 -215.004984 
L 224.826 -213.475112 
L 207.1199 -207.460443 
L 189.4138 -206.043215 
L 171.7077 -203.449323 
L 154.0016 -210.316703 
L 136.2955 -195.765709 
L 118.5894 -200.962472 
L 100.8833 -195.746898 
L 83.1772 -190.792738 
L 65.4711 -202.921465 
L 47.765 -190.62376 
z
" style="stroke: #ff7f0e; stroke-opacity: 0.2"/>
    </defs>
    <g clip-path="url(#pdb9e0d79e1)">
     <use xlink:href="#mdd214e7859" x="0" y="648" style="fill: #ff7f0e; fill-opacity: 0.2; stroke: #ff7f0e; stroke-opacity: 0.2"/>
    </g>
   </g>
   <g id="PolyCollection_3">
    <defs>
     <path id="me83bbf2c2a" d="M 47.765 -239.296113 
L 47.765 -195.718939 
L 65.4711 -198.339515 
L 83.1772 -201.844001 
L 100.8833 -200.580736 
L 118.5894 -205.05574 
L 136.2955 -205.775299 
L 154.0016 -206.667431 
L 171.7077 -206.752653 
L 189.4138 -207.90697 
L 207.1199 -208.711976 
L 224.826 -210.076935 
L 242.5321 -210.513805 
L 260.2382 -211.708618 
L 277.9443 -213.937407 
L 295.6504 -215.898546 
L 313.3565 -217.289878 
L 331.0626 -217.238807 
L 348.7687 -220.951431 
L 366.4748 -220.426836 
L 384.1809 -221.435738 
L 401.887 -223.250354 
L 419.5931 -224.757313 
L 437.2992 -226.461812 
L 455.0053 -227.813022 
L 472.7114 -231.832566 
L 490.4175 -233.980994 
L 508.1236 -233.687645 
L 525.8297 -235.845143 
L 543.5358 -233.666565 
L 561.2419 -238.687541 
L 578.948 -237.936116 
L 596.6541 -240.742368 
L 614.3602 -245.095251 
L 632.0663 -245.662216 
L 649.7724 -245.993947 
L 667.4785 -246.40129 
L 685.1846 -246.9681 
L 702.8907 -251.497226 
L 720.5968 -251.569768 
L 738.3029 -249.185598 
L 756.009 -255.232884 
L 773.7151 -255.662766 
L 791.4212 -259.379522 
L 809.1273 -256.686123 
L 826.8334 -256.949642 
L 844.5395 -257.758423 
L 862.2456 -262.422081 
L 879.9517 -263.717399 
L 897.6578 -258.511984 
L 915.3639 -266.262137 
L 933.07 -263.71004 
L 933.07 -313.738294 
L 933.07 -313.738294 
L 915.3639 -315.596396 
L 897.6578 -311.585712 
L 879.9517 -311.246679 
L 862.2456 -310.953894 
L 844.5395 -305.82483 
L 826.8334 -304.600566 
L 809.1273 -304.599892 
L 791.4212 -302.7648 
L 773.7151 -303.208085 
L 756.009 -299.521224 
L 738.3029 -298.253756 
L 720.5968 -295.203213 
L 702.8907 -295.556125 
L 685.1846 -293.316617 
L 667.4785 -291.090036 
L 649.7724 -289.016439 
L 632.0663 -289.389106 
L 614.3602 -285.598024 
L 596.6541 -284.141498 
L 578.948 -281.696069 
L 561.2419 -278.914803 
L 543.5358 -278.864441 
L 525.8297 -277.253157 
L 508.1236 -276.823331 
L 490.4175 -272.355313 
L 472.7114 -273.614213 
L 455.0053 -271.87835 
L 437.2992 -267.948406 
L 419.5931 -266.726815 
L 401.887 -264.31968 
L 384.1809 -264.44213 
L 366.4748 -262.622601 
L 348.7687 -262.481362 
L 331.0626 -259.951869 
L 313.3565 -259.802643 
L 295.6504 -257.558452 
L 277.9443 -257.689731 
L 260.2382 -254.297496 
L 242.5321 -255.188245 
L 224.826 -254.59388 
L 207.1199 -254.624252 
L 189.4138 -253.785294 
L 171.7077 -251.549274 
L 154.0016 -252.411793 
L 136.2955 -252.043277 
L 118.5894 -248.481164 
L 100.8833 -245.20076 
L 83.1772 -244.210329 
L 65.4711 -241.222398 
L 47.765 -239.296113 
z
" style="stroke: #2ca02c; stroke-opacity: 0.2"/>
    </defs>
    <g clip-path="url(#pdb9e0d79e1)">
     <use xlink:href="#me83bbf2c2a" x="0" y="648" style="fill: #2ca02c; fill-opacity: 0.2; stroke: #2ca02c; stroke-opacity: 0.2"/>
    </g>
   </g>
   <g id="PolyCollection_4">
    <defs>
     <path id="m376c6c2137" d="M 47.765 -241.848387 
L 47.765 -196.912615 
L 65.4711 -200.13711 
L 83.1772 -198.74319 
L 100.8833 -201.4717 
L 118.5894 -204.259171 
L 136.2955 -203.543501 
L 154.0016 -204.430307 
L 171.7077 -205.624657 
L 189.4138 -206.545089 
L 207.1199 -209.853481 
L 224.826 -209.476392 
L 242.5321 -211.575661 
L 260.2382 -213.267394 
L 277.9443 -213.720708 
L 295.6504 -217.473418 
L 313.3565 -217.640579 
L 331.0626 -220.853774 
L 348.7687 -223.99263 
L 366.4748 -223.146075 
L 384.1809 -223.611016 
L 401.887 -226.10459 
L 419.5931 -227.82182 
L 437.2992 -231.038648 
L 455.0053 -232.372666 
L 472.7114 -231.509939 
L 490.4175 -234.873079 
L 508.1236 -237.056773 
L 525.8297 -237.644352 
L 543.5358 -240.317124 
L 561.2419 -240.069652 
L 578.948 -242.592293 
L 596.6541 -242.868886 
L 614.3602 -244.766239 
L 632.0663 -244.283904 
L 649.7724 -246.208753 
L 667.4785 -250.743081 
L 685.1846 -249.991159 
L 702.8907 -250.930898 
L 720.5968 -250.600978 
L 738.3029 -250.397499 
L 756.009 -257.734243 
L 773.7151 -258.265053 
L 791.4212 -257.132855 
L 809.1273 -257.065365 
L 826.8334 -256.500842 
L 844.5395 -260.205836 
L 862.2456 -263.429579 
L 879.9517 -262.12694 
L 897.6578 -262.528343 
L 915.3639 -266.676503 
L 933.07 -263.660625 
L 933.07 -313.730613 
L 933.07 -313.730613 
L 915.3639 -312.256902 
L 897.6578 -308.420992 
L 879.9517 -310.924208 
L 862.2456 -307.970124 
L 844.5395 -311.331259 
L 826.8334 -306.286053 
L 809.1273 -303.974103 
L 791.4212 -304.997297 
L 773.7151 -301.867318 
L 756.009 -306.67175 
L 738.3029 -297.430317 
L 720.5968 -301.197061 
L 702.8907 -295.325681 
L 685.1846 -294.777754 
L 667.4785 -292.488725 
L 649.7724 -291.511625 
L 632.0663 -289.718101 
L 614.3602 -287.214414 
L 596.6541 -287.492223 
L 578.948 -284.345866 
L 561.2419 -285.504955 
L 543.5358 -282.188935 
L 525.8297 -280.046395 
L 508.1236 -278.631863 
L 490.4175 -278.899385 
L 472.7114 -276.28608 
L 455.0053 -272.12595 
L 437.2992 -273.522717 
L 419.5931 -271.450827 
L 401.887 -270.010074 
L 384.1809 -267.342178 
L 366.4748 -266.678411 
L 348.7687 -265.934756 
L 331.0626 -262.727714 
L 313.3565 -261.826266 
L 295.6504 -261.829926 
L 277.9443 -257.566706 
L 260.2382 -255.132772 
L 242.5321 -253.491693 
L 224.826 -255.025457 
L 207.1199 -252.001325 
L 189.4138 -251.969163 
L 171.7077 -250.684293 
L 154.0016 -248.493516 
L 136.2955 -246.998471 
L 118.5894 -246.201653 
L 100.8833 -247.027535 
L 83.1772 -240.501878 
L 65.4711 -241.21984 
L 47.765 -241.848387 
z
" style="stroke: #d62728; stroke-opacity: 0.2"/>
    </defs>
    <g clip-path="url(#pdb9e0d79e1)">
     <use xlink:href="#m376c6c2137" x="0" y="648" style="fill: #d62728; fill-opacity: 0.2; stroke: #d62728; stroke-opacity: 0.2"/>
    </g>
   </g>
   <g id="PolyCollection_5">
    <defs>
     <path id="m370a94b662" d="M 47.765 -229.688861 
L 47.765 -195.928175 
L 65.4711 -198.436842 
L 83.1772 -198.966687 
L 100.8833 -199.322638 
L 118.5894 -202.459325 
L 136.2955 -203.767383 
L 154.0016 -205.554149 
L 171.7077 -207.859701 
L 189.4138 -210.076131 
L 207.1199 -212.951785 
L 224.826 -214.053512 
L 242.5321 -215.081181 
L 260.2382 -219.397029 
L 277.9443 -221.112311 
L 295.6504 -219.979287 
L 313.3565 -222.062368 
L 331.0626 -224.149615 
L 348.7687 -225.917728 
L 366.4748 -226.670314 
L 384.1809 -228.221315 
L 401.887 -230.736354 
L 419.5931 -231.240176 
L 437.2992 -232.040607 
L 455.0053 -237.19403 
L 472.7114 -238.174673 
L 490.4175 -237.684817 
L 508.1236 -241.356374 
L 525.8297 -243.984762 
L 543.5358 -240.926634 
L 561.2419 -243.09655 
L 578.948 -242.289017 
L 596.6541 -246.289714 
L 614.3602 -247.447746 
L 632.0663 -245.084093 
L 649.7724 -250.19786 
L 667.4785 -249.377243 
L 685.1846 -249.709926 
L 702.8907 -249.551419 
L 720.5968 -250.417414 
L 738.3029 -250.15428 
L 756.009 -251.434336 
L 773.7151 -254.713589 
L 791.4212 -255.357007 
L 809.1273 -258.12599 
L 826.8334 -259.725088 
L 844.5395 -258.881848 
L 862.2456 -259.383086 
L 879.9517 -262.114218 
L 897.6578 -263.585149 
L 915.3639 -260.845546 
L 933.07 -264.292486 
L 933.07 -316.644416 
L 933.07 -316.644416 
L 915.3639 -315.973101 
L 897.6578 -316.104538 
L 879.9517 -313.866578 
L 862.2456 -311.697918 
L 844.5395 -311.035131 
L 826.8334 -311.097804 
L 809.1273 -308.657306 
L 791.4212 -307.641614 
L 773.7151 -305.958223 
L 756.009 -305.040596 
L 738.3029 -303.734503 
L 720.5968 -300.43457 
L 702.8907 -300.613297 
L 685.1846 -300.390842 
L 667.4785 -294.533363 
L 649.7724 -297.222763 
L 632.0663 -294.120116 
L 614.3602 -295.867439 
L 596.6541 -291.846546 
L 578.948 -290.349615 
L 561.2419 -287.166923 
L 543.5358 -287.803809 
L 525.8297 -287.52407 
L 508.1236 -288.048895 
L 490.4175 -284.80839 
L 472.7114 -284.340726 
L 455.0053 -281.441453 
L 437.2992 -280.54384 
L 419.5931 -273.81413 
L 401.887 -272.974467 
L 384.1809 -273.400387 
L 366.4748 -271.408674 
L 348.7687 -266.865604 
L 331.0626 -265.679063 
L 313.3565 -263.007747 
L 295.6504 -259.806632 
L 277.9443 -259.509248 
L 260.2382 -255.970108 
L 242.5321 -252.208958 
L 224.826 -250.390639 
L 207.1199 -248.535692 
L 189.4138 -243.920835 
L 171.7077 -243.930457 
L 154.0016 -241.421766 
L 136.2955 -238.933605 
L 118.5894 -236.204007 
L 100.8833 -232.309718 
L 83.1772 -230.712858 
L 65.4711 -230.102074 
L 47.765 -229.688861 
z
" style="stroke: #9467bd; stroke-opacity: 0.2"/>
    </defs>
    <g clip-path="url(#pdb9e0d79e1)">
     <use xlink:href="#m370a94b662" x="0" y="648" style="fill: #9467bd; fill-opacity: 0.2; stroke: #9467bd; stroke-opacity: 0.2"/>
    </g>
   </g>
   <g id="PolyCollection_6">
    <defs>
     <path id="m167a9b6fa0" d="M 47.765 -225.879092 
L 47.765 -186.110958 
L 65.4711 -186.606353 
L 83.1772 -190.607594 
L 100.8833 -192.60936 
L 118.5894 -194.73824 
L 136.2955 -199.429056 
L 154.0016 -200.24675 
L 171.7077 -202.088761 
L 189.4138 -204.511197 
L 207.1199 -206.086999 
L 224.826 -209.632159 
L 242.5321 -210.986189 
L 260.2382 -212.443623 
L 277.9443 -214.929559 
L 295.6504 -215.469193 
L 313.3565 -215.778997 
L 331.0626 -220.923308 
L 348.7687 -220.815282 
L 366.4748 -220.127717 
L 384.1809 -223.413421 
L 401.887 -223.103205 
L 419.5931 -227.475009 
L 437.2992 -226.824174 
L 455.0053 -229.012429 
L 472.7114 -228.120321 
L 490.4175 -230.271495 
L 508.1236 -231.334861 
L 525.8297 -232.989304 
L 543.5358 -231.303211 
L 561.2419 -234.19021 
L 578.948 -235.752362 
L 596.6541 -238.156169 
L 614.3602 -238.952395 
L 632.0663 -239.967967 
L 649.7724 -242.997865 
L 667.4785 -244.127108 
L 685.1846 -243.045567 
L 702.8907 -244.866936 
L 720.5968 -245.882452 
L 738.3029 -250.974946 
L 756.009 -249.496381 
L 773.7151 -251.407778 
L 791.4212 -252.953043 
L 809.1273 -253.08929 
L 826.8334 -256.541358 
L 844.5395 -255.181998 
L 862.2456 -259.252664 
L 879.9517 -259.306244 
L 897.6578 -260.804839 
L 915.3639 -262.277703 
L 933.07 -261.207673 
L 933.07 -313.803835 
L 933.07 -313.803835 
L 915.3639 -310.559875 
L 897.6578 -308.375473 
L 879.9517 -310.022332 
L 862.2456 -308.891504 
L 844.5395 -303.344445 
L 826.8334 -304.164237 
L 809.1273 -297.153503 
L 791.4212 -299.849212 
L 773.7151 -297.517825 
L 756.009 -294.907602 
L 738.3029 -294.264967 
L 720.5968 -292.229445 
L 702.8907 -290.290469 
L 685.1846 -289.621755 
L 667.4785 -286.563903 
L 649.7724 -282.930329 
L 632.0663 -283.553903 
L 614.3602 -278.688254 
L 596.6541 -279.720004 
L 578.948 -278.454882 
L 561.2419 -278.180595 
L 543.5358 -278.756125 
L 525.8297 -275.797339 
L 508.1236 -273.656612 
L 490.4175 -271.706163 
L 472.7114 -271.180716 
L 455.0053 -268.851111 
L 437.2992 -273.39644 
L 419.5931 -270.181025 
L 401.887 -266.51683 
L 384.1809 -263.619278 
L 366.4748 -263.309817 
L 348.7687 -262.369685 
L 331.0626 -261.204532 
L 313.3565 -258.832112 
L 295.6504 -257.940283 
L 277.9443 -254.957856 
L 260.2382 -254.449297 
L 242.5321 -253.081823 
L 224.826 -249.264329 
L 207.1199 -243.69952 
L 189.4138 -245.630938 
L 171.7077 -241.727964 
L 154.0016 -242.030391 
L 136.2955 -240.223267 
L 118.5894 -237.081851 
L 100.8833 -232.302558 
L 83.1772 -228.404814 
L 65.4711 -228.337921 
L 47.765 -225.879092 
z
" style="stroke: #8c564b; stroke-opacity: 0.2"/>
    </defs>
    <g clip-path="url(#pdb9e0d79e1)">
     <use xlink:href="#m167a9b6fa0" x="0" y="648" style="fill: #8c564b; fill-opacity: 0.2; stroke: #8c564b; stroke-opacity: 0.2"/>
    </g>
   </g>
   <g id="PolyCollection_7">
    <defs>
     <path id="m5003a1eef8" d="M 47.765 -226.770392 
L 47.765 -186.098072 
L 65.4711 -188.063421 
L 83.1772 -190.040012 
L 100.8833 -193.547071 
L 118.5894 -195.911557 
L 136.2955 -196.498614 
L 154.0016 -198.431717 
L 171.7077 -198.802715 
L 189.4138 -202.056238 
L 207.1199 -205.144205 
L 224.826 -205.930704 
L 242.5321 -207.061265 
L 260.2382 -209.063436 
L 277.9443 -210.911544 
L 295.6504 -212.626263 
L 313.3565 -213.888598 
L 331.0626 -215.523494 
L 348.7687 -216.099699 
L 366.4748 -219.891828 
L 384.1809 -221.621579 
L 401.887 -220.069984 
L 419.5931 -222.814129 
L 437.2992 -222.459322 
L 455.0053 -225.82332 
L 472.7114 -229.061292 
L 490.4175 -228.432146 
L 508.1236 -231.438992 
L 525.8297 -233.626449 
L 543.5358 -234.015346 
L 561.2419 -235.710165 
L 578.948 -237.325089 
L 596.6541 -238.644585 
L 614.3602 -238.860649 
L 632.0663 -242.508961 
L 649.7724 -240.729148 
L 667.4785 -245.189607 
L 685.1846 -246.384479 
L 702.8907 -248.273491 
L 720.5968 -250.095419 
L 738.3029 -250.93103 
L 756.009 -251.920992 
L 773.7151 -251.492939 
L 791.4212 -254.996013 
L 809.1273 -256.369131 
L 826.8334 -255.991858 
L 844.5395 -260.044697 
L 862.2456 -259.401705 
L 879.9517 -260.42141 
L 897.6578 -260.104896 
L 915.3639 -260.115223 
L 933.07 -266.553368 
L 933.07 -315.484895 
L 933.07 -315.484895 
L 915.3639 -312.139597 
L 897.6578 -312.574432 
L 879.9517 -311.61805 
L 862.2456 -311.98245 
L 844.5395 -305.311632 
L 826.8334 -306.208177 
L 809.1273 -301.977412 
L 791.4212 -300.9354 
L 773.7151 -300.312782 
L 756.009 -298.034553 
L 738.3029 -295.703678 
L 720.5968 -295.455566 
L 702.8907 -294.073316 
L 685.1846 -291.278601 
L 667.4785 -288.14286 
L 649.7724 -284.863075 
L 632.0663 -287.863978 
L 614.3602 -282.487355 
L 596.6541 -282.669558 
L 578.948 -279.27683 
L 561.2419 -278.203902 
L 543.5358 -277.562528 
L 525.8297 -274.614768 
L 508.1236 -272.246375 
L 490.4175 -273.521536 
L 472.7114 -270.737907 
L 455.0053 -266.106526 
L 437.2992 -266.989508 
L 419.5931 -264.079659 
L 401.887 -260.43784 
L 384.1809 -259.820438 
L 366.4748 -260.664846 
L 348.7687 -257.410913 
L 331.0626 -255.553376 
L 313.3565 -251.770194 
L 295.6504 -249.031585 
L 277.9443 -251.397674 
L 260.2382 -247.609669 
L 242.5321 -249.187765 
L 224.826 -244.381355 
L 207.1199 -244.975643 
L 189.4138 -242.221694 
L 171.7077 -240.351819 
L 154.0016 -237.833764 
L 136.2955 -236.705843 
L 118.5894 -234.32595 
L 100.8833 -232.992797 
L 83.1772 -228.595386 
L 65.4711 -227.32933 
L 47.765 -226.770392 
z
" style="stroke: #e377c2; stroke-opacity: 0.2"/>
    </defs>
    <g clip-path="url(#pdb9e0d79e1)">
     <use xlink:href="#m5003a1eef8" x="0" y="648" style="fill: #e377c2; fill-opacity: 0.2; stroke: #e377c2; stroke-opacity: 0.2"/>
    </g>
   </g>
   <g id="PolyCollection_8">
    <defs>
     <path id="m2cc36af7fc" d="M 47.765 -227.278992 
L 47.765 -187.036454 
L 65.4711 -190.521647 
L 83.1772 -191.520872 
L 100.8833 -194.218247 
L 118.5894 -199.071297 
L 136.2955 -199.573944 
L 154.0016 -199.775699 
L 171.7077 -202.399098 
L 189.4138 -202.817133 
L 207.1199 -205.24191 
L 224.826 -208.970448 
L 242.5321 -209.618926 
L 260.2382 -213.224545 
L 277.9443 -214.716767 
L 295.6504 -217.411752 
L 313.3565 -218.489919 
L 331.0626 -221.794217 
L 348.7687 -220.95856 
L 366.4748 -221.429106 
L 384.1809 -222.827659 
L 401.887 -226.401815 
L 419.5931 -228.077709 
L 437.2992 -226.340128 
L 455.0053 -228.514573 
L 472.7114 -230.33999 
L 490.4175 -231.076508 
L 508.1236 -231.631742 
L 525.8297 -232.046922 
L 543.5358 -232.958066 
L 561.2419 -235.963488 
L 578.948 -238.754482 
L 596.6541 -238.41424 
L 614.3602 -241.293404 
L 632.0663 -241.829651 
L 649.7724 -243.060577 
L 667.4785 -243.757659 
L 685.1846 -241.987282 
L 702.8907 -245.753707 
L 720.5968 -246.757486 
L 738.3029 -248.949026 
L 756.009 -251.741208 
L 773.7151 -249.800712 
L 791.4212 -254.29688 
L 809.1273 -254.544717 
L 826.8334 -258.423137 
L 844.5395 -257.867768 
L 862.2456 -257.342226 
L 879.9517 -260.006817 
L 897.6578 -260.970043 
L 915.3639 -261.930722 
L 933.07 -264.496357 
L 933.07 -313.1611 
L 933.07 -313.1611 
L 915.3639 -312.078207 
L 897.6578 -313.201958 
L 879.9517 -311.569757 
L 862.2456 -307.7121 
L 844.5395 -307.003336 
L 826.8334 -303.504653 
L 809.1273 -301.214629 
L 791.4212 -301.861418 
L 773.7151 -297.409064 
L 756.009 -298.701289 
L 738.3029 -296.832046 
L 720.5968 -293.068676 
L 702.8907 -293.162219 
L 685.1846 -290.228298 
L 667.4785 -290.468977 
L 649.7724 -288.802362 
L 632.0663 -286.646547 
L 614.3602 -284.75249 
L 596.6541 -282.563501 
L 578.948 -282.804014 
L 561.2419 -280.60991 
L 543.5358 -277.213068 
L 525.8297 -277.855388 
L 508.1236 -273.96525 
L 490.4175 -272.313484 
L 472.7114 -273.652292 
L 455.0053 -270.640956 
L 437.2992 -267.948341 
L 419.5931 -268.940308 
L 401.887 -267.915912 
L 384.1809 -266.79108 
L 366.4748 -263.793569 
L 348.7687 -264.099711 
L 331.0626 -262.485357 
L 313.3565 -258.824034 
L 295.6504 -255.785796 
L 277.9443 -254.932295 
L 260.2382 -253.399652 
L 242.5321 -250.059412 
L 224.826 -249.137933 
L 207.1199 -244.532162 
L 189.4138 -244.22299 
L 171.7077 -242.53018 
L 154.0016 -241.4742 
L 136.2955 -239.91276 
L 118.5894 -236.522531 
L 100.8833 -235.030764 
L 83.1772 -232.611972 
L 65.4711 -228.294822 
L 47.765 -227.278992 
z
" style="stroke: #7f7f7f; stroke-opacity: 0.2"/>
    </defs>
    <g clip-path="url(#pdb9e0d79e1)">
     <use xlink:href="#m2cc36af7fc" x="0" y="648" style="fill: #7f7f7f; fill-opacity: 0.2; stroke: #7f7f7f; stroke-opacity: 0.2"/>
    </g>
   </g>
   <g id="PolyCollection_9">
    <defs>
     <path id="m8e261214b7" d="M 47.765 -243.094648 
L 47.765 -203.247121 
L 65.4711 -201.901637 
L 83.1772 -204.650456 
L 100.8833 -206.0862 
L 118.5894 -207.549349 
L 136.2955 -208.720402 
L 154.0016 -210.055146 
L 171.7077 -209.896023 
L 189.4138 -212.125886 
L 207.1199 -213.66364 
L 224.826 -215.137482 
L 242.5321 -217.262118 
L 260.2382 -216.505069 
L 277.9443 -220.357052 
L 295.6504 -218.202702 
L 313.3565 -220.461963 
L 331.0626 -223.36017 
L 348.7687 -224.532551 
L 366.4748 -226.739195 
L 384.1809 -226.760032 
L 401.887 -228.265182 
L 419.5931 -232.247817 
L 437.2992 -232.643737 
L 455.0053 -231.251243 
L 472.7114 -229.640413 
L 490.4175 -232.0174 
L 508.1236 -236.260336 
L 525.8297 -237.705533 
L 543.5358 -236.438993 
L 561.2419 -238.66684 
L 578.948 -241.35742 
L 596.6541 -242.512118 
L 614.3602 -243.879364 
L 632.0663 -244.87088 
L 649.7724 -248.565286 
L 667.4785 -247.857481 
L 685.1846 -249.005347 
L 702.8907 -252.957312 
L 720.5968 -252.980728 
L 738.3029 -254.851141 
L 756.009 -256.856749 
L 773.7151 -253.34288 
L 791.4212 -257.12959 
L 809.1273 -256.708113 
L 826.8334 -259.349594 
L 844.5395 -259.537482 
L 862.2456 -260.07682 
L 879.9517 -264.392369 
L 897.6578 -264.424581 
L 915.3639 -265.989963 
L 933.07 -267.846439 
L 933.07 -318.917288 
L 933.07 -318.917288 
L 915.3639 -316.444196 
L 897.6578 -316.582285 
L 879.9517 -318.952434 
L 862.2456 -309.190652 
L 844.5395 -309.566988 
L 826.8334 -310.359795 
L 809.1273 -305.572379 
L 791.4212 -304.471318 
L 773.7151 -305.878294 
L 756.009 -302.109473 
L 738.3029 -300.012851 
L 720.5968 -301.018973 
L 702.8907 -299.059907 
L 685.1846 -294.471185 
L 667.4785 -295.108973 
L 649.7724 -293.355084 
L 632.0663 -290.547304 
L 614.3602 -291.829957 
L 596.6541 -288.536916 
L 578.948 -286.368794 
L 561.2419 -284.240596 
L 543.5358 -279.903628 
L 525.8297 -281.83535 
L 508.1236 -279.512796 
L 490.4175 -278.306879 
L 472.7114 -274.991469 
L 455.0053 -273.888174 
L 437.2992 -275.886281 
L 419.5931 -271.82045 
L 401.887 -272.5572 
L 384.1809 -269.480519 
L 366.4748 -268.868646 
L 348.7687 -267.78287 
L 331.0626 -264.854254 
L 313.3565 -263.329186 
L 295.6504 -262.522227 
L 277.9443 -260.844188 
L 260.2382 -260.045313 
L 242.5321 -259.301959 
L 224.826 -256.955148 
L 207.1199 -258.133767 
L 189.4138 -255.566565 
L 171.7077 -252.521284 
L 154.0016 -252.533331 
L 136.2955 -251.972446 
L 118.5894 -249.257195 
L 100.8833 -246.908627 
L 83.1772 -246.414974 
L 65.4711 -244.149526 
L 47.765 -243.094648 
z
" style="stroke: #bcbd22; stroke-opacity: 0.2"/>
    </defs>
    <g clip-path="url(#pdb9e0d79e1)">
     <use xlink:href="#m8e261214b7" x="0" y="648" style="fill: #bcbd22; fill-opacity: 0.2; stroke: #bcbd22; stroke-opacity: 0.2"/>
    </g>
   </g>
   <g id="PolyCollection_10">
    <defs>
     <path id="m53d99bbe0a" d="M 47.765 -242.031225 
L 47.765 -208.217598 
L 65.4711 -208.489132 
L 83.1772 -208.320662 
L 100.8833 -210.348117 
L 118.5894 -210.231052 
L 136.2955 -212.887146 
L 154.0016 -213.349431 
L 171.7077 -214.505532 
L 189.4138 -215.013918 
L 207.1199 -217.878983 
L 224.826 -217.574806 
L 242.5321 -220.12636 
L 260.2382 -220.389871 
L 277.9443 -223.867569 
L 295.6504 -224.152083 
L 313.3565 -225.526743 
L 331.0626 -229.292987 
L 348.7687 -229.07333 
L 366.4748 -231.30095 
L 384.1809 -231.523028 
L 401.887 -232.683446 
L 419.5931 -234.569022 
L 437.2992 -231.555366 
L 455.0053 -236.144875 
L 472.7114 -238.870027 
L 490.4175 -239.972318 
L 508.1236 -241.398374 
L 525.8297 -243.766481 
L 543.5358 -244.555653 
L 561.2419 -244.749604 
L 578.948 -244.954581 
L 596.6541 -246.916563 
L 614.3602 -249.639114 
L 632.0663 -250.837833 
L 649.7724 -249.269949 
L 667.4785 -251.931239 
L 685.1846 -254.33268 
L 702.8907 -251.893896 
L 720.5968 -252.249521 
L 738.3029 -254.833251 
L 756.009 -258.588735 
L 773.7151 -256.390782 
L 791.4212 -258.760757 
L 809.1273 -261.286754 
L 826.8334 -265.094748 
L 844.5395 -262.465426 
L 862.2456 -266.963602 
L 879.9517 -267.600032 
L 897.6578 -269.506523 
L 915.3639 -267.177761 
L 933.07 -271.533702 
L 933.07 -322.900782 
L 933.07 -322.900782 
L 915.3639 -321.538672 
L 897.6578 -320.010241 
L 879.9517 -318.12371 
L 862.2456 -315.322478 
L 844.5395 -314.68252 
L 826.8334 -313.658254 
L 809.1273 -312.446521 
L 791.4212 -307.139242 
L 773.7151 -306.11405 
L 756.009 -306.893071 
L 738.3029 -305.27248 
L 720.5968 -302.861747 
L 702.8907 -298.349927 
L 685.1846 -300.788854 
L 667.4785 -297.156814 
L 649.7724 -296.985028 
L 632.0663 -296.492573 
L 614.3602 -294.196437 
L 596.6541 -294.539785 
L 578.948 -290.310122 
L 561.2419 -288.006991 
L 543.5358 -286.858743 
L 525.8297 -287.45166 
L 508.1236 -284.753122 
L 490.4175 -282.196161 
L 472.7114 -281.646271 
L 455.0053 -276.556424 
L 437.2992 -277.145548 
L 419.5931 -274.357243 
L 401.887 -273.663099 
L 384.1809 -272.75615 
L 366.4748 -272.108563 
L 348.7687 -268.357392 
L 331.0626 -268.112802 
L 313.3565 -264.669463 
L 295.6504 -264.107004 
L 277.9443 -261.487412 
L 260.2382 -257.54815 
L 242.5321 -259.900727 
L 224.826 -252.526878 
L 207.1199 -254.249713 
L 189.4138 -253.226416 
L 171.7077 -251.148536 
L 154.0016 -248.27451 
L 136.2955 -247.113649 
L 118.5894 -247.671699 
L 100.8833 -244.072329 
L 83.1772 -242.902234 
L 65.4711 -243.341539 
L 47.765 -242.031225 
z
" style="stroke: #17becf; stroke-opacity: 0.2"/>
    </defs>
    <g clip-path="url(#pdb9e0d79e1)">
     <use xlink:href="#m53d99bbe0a" x="0" y="648" style="fill: #17becf; fill-opacity: 0.2; stroke: #17becf; stroke-opacity: 0.2"/>
    </g>
   </g>
   <g id="PolyCollection_11">
    <defs>
     <path id="m2d421d8e05" d="M 47.765 -239.294876 
L 47.765 -199.711185 
L 65.4711 -204.168707 
L 83.1772 -202.247098 
L 100.8833 -204.39421 
L 118.5894 -205.321704 
L 136.2955 -208.964044 
L 154.0016 -210.293021 
L 171.7077 -210.871088 
L 189.4138 -212.827225 
L 207.1199 -214.0975 
L 224.826 -213.384325 
L 242.5321 -215.352545 
L 260.2382 -220.005969 
L 277.9443 -219.613929 
L 295.6504 -221.21953 
L 313.3565 -225.760981 
L 331.0626 -225.519972 
L 348.7687 -224.443207 
L 366.4748 -225.963644 
L 384.1809 -228.519201 
L 401.887 -229.789718 
L 419.5931 -232.41172 
L 437.2992 -234.347022 
L 455.0053 -234.825616 
L 472.7114 -235.131742 
L 490.4175 -235.479087 
L 508.1236 -237.167719 
L 525.8297 -240.560471 
L 543.5358 -241.423845 
L 561.2419 -243.370657 
L 578.948 -243.798515 
L 596.6541 -243.945062 
L 614.3602 -246.757686 
L 632.0663 -247.42539 
L 649.7724 -249.936519 
L 667.4785 -251.495168 
L 685.1846 -253.078499 
L 702.8907 -253.63255 
L 720.5968 -251.925564 
L 738.3029 -255.322466 
L 756.009 -258.24154 
L 773.7151 -257.238167 
L 791.4212 -258.799215 
L 809.1273 -262.833941 
L 826.8334 -262.832646 
L 844.5395 -263.983551 
L 862.2456 -263.344495 
L 879.9517 -265.555438 
L 897.6578 -266.305821 
L 915.3639 -268.0204 
L 933.07 -267.585967 
L 933.07 -319.703041 
L 933.07 -319.703041 
L 915.3639 -317.635305 
L 897.6578 -316.328172 
L 879.9517 -314.763527 
L 862.2456 -313.770675 
L 844.5395 -312.179322 
L 826.8334 -310.440943 
L 809.1273 -310.609736 
L 791.4212 -306.282987 
L 773.7151 -306.77171 
L 756.009 -305.394703 
L 738.3029 -302.486293 
L 720.5968 -297.52766 
L 702.8907 -297.274511 
L 685.1846 -295.738374 
L 667.4785 -296.159622 
L 649.7724 -293.469713 
L 632.0663 -293.754321 
L 614.3602 -289.065968 
L 596.6541 -286.48272 
L 578.948 -288.141997 
L 561.2419 -287.453849 
L 543.5358 -282.625713 
L 525.8297 -281.543008 
L 508.1236 -278.442915 
L 490.4175 -279.500722 
L 472.7114 -278.898666 
L 455.0053 -276.29728 
L 437.2992 -273.358816 
L 419.5931 -273.416304 
L 401.887 -272.474492 
L 384.1809 -266.465207 
L 366.4748 -265.68244 
L 348.7687 -265.82617 
L 331.0626 -263.087403 
L 313.3565 -264.140917 
L 295.6504 -259.776018 
L 277.9443 -261.04064 
L 260.2382 -257.350819 
L 242.5321 -254.964697 
L 224.826 -252.385426 
L 207.1199 -252.116363 
L 189.4138 -252.151213 
L 171.7077 -251.313758 
L 154.0016 -249.14229 
L 136.2955 -247.85216 
L 118.5894 -244.633006 
L 100.8833 -242.296385 
L 83.1772 -240.498593 
L 65.4711 -241.888998 
L 47.765 -239.294876 
z
" style="stroke: #9edae5; stroke-opacity: 0.2"/>
    </defs>
    <g clip-path="url(#pdb9e0d79e1)">
     <use xlink:href="#m2d421d8e05" x="0" y="648" style="fill: #9edae5; fill-opacity: 0.2; stroke: #9edae5; stroke-opacity: 0.2"/>
    </g>
   </g>
   <g id="matplotlib.axis_1">
    <g id="xtick_1">
     <g id="line2d_1">
      <defs>
       <path id="m0c0bc2deac" d="M 0 0 
L 0 3.5 
" style="stroke: #000000; stroke-width: 0.8"/>
      </defs>
      <g>
       <use xlink:href="#m0c0bc2deac" x="47.765" y="606.04" style="stroke: #000000; stroke-width: 0.8"/>
      </g>
     </g>
     <g id="text_1">
      <!-- 30 -->
      <g transform="translate(41.4025 620.638438) scale(0.1 -0.1)">
       <defs>
        <path id="DejaVuSans-33" d="M 2597 2516 
Q 3050 2419 3304 2112 
Q 3559 1806 3559 1356 
Q 3559 666 3084 287 
Q 2609 -91 1734 -91 
Q 1441 -91 1130 -33 
Q 819 25 488 141 
L 488 750 
Q 750 597 1062 519 
Q 1375 441 1716 441 
Q 2309 441 2620 675 
Q 2931 909 2931 1356 
Q 2931 1769 2642 2001 
Q 2353 2234 1838 2234 
L 1294 2234 
L 1294 2753 
L 1863 2753 
Q 2328 2753 2575 2939 
Q 2822 3125 2822 3475 
Q 2822 3834 2567 4026 
Q 2313 4219 1838 4219 
Q 1578 4219 1281 4162 
Q 984 4106 628 3988 
L 628 4550 
Q 988 4650 1302 4700 
Q 1616 4750 1894 4750 
Q 2613 4750 3031 4423 
Q 3450 4097 3450 3541 
Q 3450 3153 3228 2886 
Q 3006 2619 2597 2516 
z
" transform="scale(0.015625)"/>
        <path id="DejaVuSans-30" d="M 2034 4250 
Q 1547 4250 1301 3770 
Q 1056 3291 1056 2328 
Q 1056 1369 1301 889 
Q 1547 409 2034 409 
Q 2525 409 2770 889 
Q 3016 1369 3016 2328 
Q 3016 3291 2770 3770 
Q 2525 4250 2034 4250 
z
M 2034 4750 
Q 2819 4750 3233 4129 
Q 3647 3509 3647 2328 
Q 3647 1150 3233 529 
Q 2819 -91 2034 -91 
Q 1250 -91 836 529 
Q 422 1150 422 2328 
Q 422 3509 836 4129 
Q 1250 4750 2034 4750 
z
" transform="scale(0.015625)"/>
       </defs>
       <use xlink:href="#DejaVuSans-33"/>
       <use xlink:href="#DejaVuSans-30" x="63.623047"/>
      </g>
     </g>
    </g>
    <g id="xtick_2">
     <g id="line2d_2">
      <g>
       <use xlink:href="#m0c0bc2deac" x="224.826" y="606.04" style="stroke: #000000; stroke-width: 0.8"/>
      </g>
     </g>
     <g id="text_2">
      <!-- 40 -->
      <g transform="translate(218.4635 620.638438) scale(0.1 -0.1)">
       <defs>
        <path id="DejaVuSans-34" d="M 2419 4116 
L 825 1625 
L 2419 1625 
L 2419 4116 
z
M 2253 4666 
L 3047 4666 
L 3047 1625 
L 3713 1625 
L 3713 1100 
L 3047 1100 
L 3047 0 
L 2419 0 
L 2419 1100 
L 313 1100 
L 313 1709 
L 2253 4666 
z
" transform="scale(0.015625)"/>
       </defs>
       <use xlink:href="#DejaVuSans-34"/>
       <use xlink:href="#DejaVuSans-30" x="63.623047"/>
      </g>
     </g>
    </g>
    <g id="xtick_3">
     <g id="line2d_3">
      <g>
       <use xlink:href="#m0c0bc2deac" x="401.887" y="606.04" style="stroke: #000000; stroke-width: 0.8"/>
      </g>
     </g>
     <g id="text_3">
      <!-- 50 -->
      <g transform="translate(395.5245 620.638438) scale(0.1 -0.1)">
       <defs>
        <path id="DejaVuSans-35" d="M 691 4666 
L 3169 4666 
L 3169 4134 
L 1269 4134 
L 1269 2991 
Q 1406 3038 1543 3061 
Q 1681 3084 1819 3084 
Q 2600 3084 3056 2656 
Q 3513 2228 3513 1497 
Q 3513 744 3044 326 
Q 2575 -91 1722 -91 
Q 1428 -91 1123 -41 
Q 819 9 494 109 
L 494 744 
Q 775 591 1075 516 
Q 1375 441 1709 441 
Q 2250 441 2565 725 
Q 2881 1009 2881 1497 
Q 2881 1984 2565 2268 
Q 2250 2553 1709 2553 
Q 1456 2553 1204 2497 
Q 953 2441 691 2322 
L 691 4666 
z
" transform="scale(0.015625)"/>
       </defs>
       <use xlink:href="#DejaVuSans-35"/>
       <use xlink:href="#DejaVuSans-30" x="63.623047"/>
      </g>
     </g>
    </g>
    <g id="xtick_4">
     <g id="line2d_4">
      <g>
       <use xlink:href="#m0c0bc2deac" x="578.948" y="606.04" style="stroke: #000000; stroke-width: 0.8"/>
      </g>
     </g>
     <g id="text_4">
      <!-- 60 -->
      <g transform="translate(572.5855 620.638438) scale(0.1 -0.1)">
       <defs>
        <path id="DejaVuSans-36" d="M 2113 2584 
Q 1688 2584 1439 2293 
Q 1191 2003 1191 1497 
Q 1191 994 1439 701 
Q 1688 409 2113 409 
Q 2538 409 2786 701 
Q 3034 994 3034 1497 
Q 3034 2003 2786 2293 
Q 2538 2584 2113 2584 
z
M 3366 4563 
L 3366 3988 
Q 3128 4100 2886 4159 
Q 2644 4219 2406 4219 
Q 1781 4219 1451 3797 
Q 1122 3375 1075 2522 
Q 1259 2794 1537 2939 
Q 1816 3084 2150 3084 
Q 2853 3084 3261 2657 
Q 3669 2231 3669 1497 
Q 3669 778 3244 343 
Q 2819 -91 2113 -91 
Q 1303 -91 875 529 
Q 447 1150 447 2328 
Q 447 3434 972 4092 
Q 1497 4750 2381 4750 
Q 2619 4750 2861 4703 
Q 3103 4656 3366 4563 
z
" transform="scale(0.015625)"/>
       </defs>
       <use xlink:href="#DejaVuSans-36"/>
       <use xlink:href="#DejaVuSans-30" x="63.623047"/>
      </g>
     </g>
    </g>
    <g id="xtick_5">
     <g id="line2d_5">
      <g>
       <use xlink:href="#m0c0bc2deac" x="756.009" y="606.04" style="stroke: #000000; stroke-width: 0.8"/>
      </g>
     </g>
     <g id="text_5">
      <!-- 70 -->
      <g transform="translate(749.6465 620.638438) scale(0.1 -0.1)">
       <defs>
        <path id="DejaVuSans-37" d="M 525 4666 
L 3525 4666 
L 3525 4397 
L 1831 0 
L 1172 0 
L 2766 4134 
L 525 4134 
L 525 4666 
z
" transform="scale(0.015625)"/>
       </defs>
       <use xlink:href="#DejaVuSans-37"/>
       <use xlink:href="#DejaVuSans-30" x="63.623047"/>
      </g>
     </g>
    </g>
    <g id="xtick_6">
     <g id="line2d_6">
      <g>
       <use xlink:href="#m0c0bc2deac" x="933.07" y="606.04" style="stroke: #000000; stroke-width: 0.8"/>
      </g>
     </g>
     <g id="text_6">
      <!-- 80 -->
      <g transform="translate(926.7075 620.638438) scale(0.1 -0.1)">
       <defs>
        <path id="DejaVuSans-38" d="M 2034 2216 
Q 1584 2216 1326 1975 
Q 1069 1734 1069 1313 
Q 1069 891 1326 650 
Q 1584 409 2034 409 
Q 2484 409 2743 651 
Q 3003 894 3003 1313 
Q 3003 1734 2745 1975 
Q 2488 2216 2034 2216 
z
M 1403 2484 
Q 997 2584 770 2862 
Q 544 3141 544 3541 
Q 544 4100 942 4425 
Q 1341 4750 2034 4750 
Q 2731 4750 3128 4425 
Q 3525 4100 3525 3541 
Q 3525 3141 3298 2862 
Q 3072 2584 2669 2484 
Q 3125 2378 3379 2068 
Q 3634 1759 3634 1313 
Q 3634 634 3220 271 
Q 2806 -91 2034 -91 
Q 1263 -91 848 271 
Q 434 634 434 1313 
Q 434 1759 690 2068 
Q 947 2378 1403 2484 
z
M 1172 3481 
Q 1172 3119 1398 2916 
Q 1625 2713 2034 2713 
Q 2441 2713 2670 2916 
Q 2900 3119 2900 3481 
Q 2900 3844 2670 4047 
Q 2441 4250 2034 4250 
Q 1625 4250 1398 4047 
Q 1172 3844 1172 3481 
z
" transform="scale(0.015625)"/>
       </defs>
       <use xlink:href="#DejaVuSans-38"/>
       <use xlink:href="#DejaVuSans-30" x="63.623047"/>
      </g>
     </g>
    </g>
    <g id="text_7">
     <!-- Number of Baits -->
     <g transform="translate(449.885469 634.316563) scale(0.1 -0.1)">
      <defs>
       <path id="DejaVuSans-4e" d="M 628 4666 
L 1478 4666 
L 3547 763 
L 3547 4666 
L 4159 4666 
L 4159 0 
L 3309 0 
L 1241 3903 
L 1241 0 
L 628 0 
L 628 4666 
z
" transform="scale(0.015625)"/>
       <path id="DejaVuSans-75" d="M 544 1381 
L 544 3500 
L 1119 3500 
L 1119 1403 
Q 1119 906 1312 657 
Q 1506 409 1894 409 
Q 2359 409 2629 706 
Q 2900 1003 2900 1516 
L 2900 3500 
L 3475 3500 
L 3475 0 
L 2900 0 
L 2900 538 
Q 2691 219 2414 64 
Q 2138 -91 1772 -91 
Q 1169 -91 856 284 
Q 544 659 544 1381 
z
M 1991 3584 
L 1991 3584 
z
" transform="scale(0.015625)"/>
       <path id="DejaVuSans-6d" d="M 3328 2828 
Q 3544 3216 3844 3400 
Q 4144 3584 4550 3584 
Q 5097 3584 5394 3201 
Q 5691 2819 5691 2113 
L 5691 0 
L 5113 0 
L 5113 2094 
Q 5113 2597 4934 2840 
Q 4756 3084 4391 3084 
Q 3944 3084 3684 2787 
Q 3425 2491 3425 1978 
L 3425 0 
L 2847 0 
L 2847 2094 
Q 2847 2600 2669 2842 
Q 2491 3084 2119 3084 
Q 1678 3084 1418 2786 
Q 1159 2488 1159 1978 
L 1159 0 
L 581 0 
L 581 3500 
L 1159 3500 
L 1159 2956 
Q 1356 3278 1631 3431 
Q 1906 3584 2284 3584 
Q 2666 3584 2933 3390 
Q 3200 3197 3328 2828 
z
" transform="scale(0.015625)"/>
       <path id="DejaVuSans-62" d="M 3116 1747 
Q 3116 2381 2855 2742 
Q 2594 3103 2138 3103 
Q 1681 3103 1420 2742 
Q 1159 2381 1159 1747 
Q 1159 1113 1420 752 
Q 1681 391 2138 391 
Q 2594 391 2855 752 
Q 3116 1113 3116 1747 
z
M 1159 2969 
Q 1341 3281 1617 3432 
Q 1894 3584 2278 3584 
Q 2916 3584 3314 3078 
Q 3713 2572 3713 1747 
Q 3713 922 3314 415 
Q 2916 -91 2278 -91 
Q 1894 -91 1617 61 
Q 1341 213 1159 525 
L 1159 0 
L 581 0 
L 581 4863 
L 1159 4863 
L 1159 2969 
z
" transform="scale(0.015625)"/>
       <path id="DejaVuSans-65" d="M 3597 1894 
L 3597 1613 
L 953 1613 
Q 991 1019 1311 708 
Q 1631 397 2203 397 
Q 2534 397 2845 478 
Q 3156 559 3463 722 
L 3463 178 
Q 3153 47 2828 -22 
Q 2503 -91 2169 -91 
Q 1331 -91 842 396 
Q 353 884 353 1716 
Q 353 2575 817 3079 
Q 1281 3584 2069 3584 
Q 2775 3584 3186 3129 
Q 3597 2675 3597 1894 
z
M 3022 2063 
Q 3016 2534 2758 2815 
Q 2500 3097 2075 3097 
Q 1594 3097 1305 2825 
Q 1016 2553 972 2059 
L 3022 2063 
z
" transform="scale(0.015625)"/>
       <path id="DejaVuSans-72" d="M 2631 2963 
Q 2534 3019 2420 3045 
Q 2306 3072 2169 3072 
Q 1681 3072 1420 2755 
Q 1159 2438 1159 1844 
L 1159 0 
L 581 0 
L 581 3500 
L 1159 3500 
L 1159 2956 
Q 1341 3275 1631 3429 
Q 1922 3584 2338 3584 
Q 2397 3584 2469 3576 
Q 2541 3569 2628 3553 
L 2631 2963 
z
" transform="scale(0.015625)"/>
       <path id="DejaVuSans-20" transform="scale(0.015625)"/>
       <path id="DejaVuSans-6f" d="M 1959 3097 
Q 1497 3097 1228 2736 
Q 959 2375 959 1747 
Q 959 1119 1226 758 
Q 1494 397 1959 397 
Q 2419 397 2687 759 
Q 2956 1122 2956 1747 
Q 2956 2369 2687 2733 
Q 2419 3097 1959 3097 
z
M 1959 3584 
Q 2709 3584 3137 3096 
Q 3566 2609 3566 1747 
Q 3566 888 3137 398 
Q 2709 -91 1959 -91 
Q 1206 -91 779 398 
Q 353 888 353 1747 
Q 353 2609 779 3096 
Q 1206 3584 1959 3584 
z
" transform="scale(0.015625)"/>
       <path id="DejaVuSans-66" d="M 2375 4863 
L 2375 4384 
L 1825 4384 
Q 1516 4384 1395 4259 
Q 1275 4134 1275 3809 
L 1275 3500 
L 2222 3500 
L 2222 3053 
L 1275 3053 
L 1275 0 
L 697 0 
L 697 3053 
L 147 3053 
L 147 3500 
L 697 3500 
L 697 3744 
Q 697 4328 969 4595 
Q 1241 4863 1831 4863 
L 2375 4863 
z
" transform="scale(0.015625)"/>
       <path id="DejaVuSans-42" d="M 1259 2228 
L 1259 519 
L 2272 519 
Q 2781 519 3026 730 
Q 3272 941 3272 1375 
Q 3272 1813 3026 2020 
Q 2781 2228 2272 2228 
L 1259 2228 
z
M 1259 4147 
L 1259 2741 
L 2194 2741 
Q 2656 2741 2882 2914 
Q 3109 3088 3109 3444 
Q 3109 3797 2882 3972 
Q 2656 4147 2194 4147 
L 1259 4147 
z
M 628 4666 
L 2241 4666 
Q 2963 4666 3353 4366 
Q 3744 4066 3744 3513 
Q 3744 3084 3544 2831 
Q 3344 2578 2956 2516 
Q 3422 2416 3680 2098 
Q 3938 1781 3938 1306 
Q 3938 681 3513 340 
Q 3088 0 2303 0 
L 628 0 
L 628 4666 
z
" transform="scale(0.015625)"/>
       <path id="DejaVuSans-61" d="M 2194 1759 
Q 1497 1759 1228 1600 
Q 959 1441 959 1056 
Q 959 750 1161 570 
Q 1363 391 1709 391 
Q 2188 391 2477 730 
Q 2766 1069 2766 1631 
L 2766 1759 
L 2194 1759 
z
M 3341 1997 
L 3341 0 
L 2766 0 
L 2766 531 
Q 2569 213 2275 61 
Q 1981 -91 1556 -91 
Q 1019 -91 701 211 
Q 384 513 384 1019 
Q 384 1609 779 1909 
Q 1175 2209 1959 2209 
L 2766 2209 
L 2766 2266 
Q 2766 2663 2505 2880 
Q 2244 3097 1772 3097 
Q 1472 3097 1187 3025 
Q 903 2953 641 2809 
L 641 3341 
Q 956 3463 1253 3523 
Q 1550 3584 1831 3584 
Q 2591 3584 2966 3190 
Q 3341 2797 3341 1997 
z
" transform="scale(0.015625)"/>
       <path id="DejaVuSans-69" d="M 603 3500 
L 1178 3500 
L 1178 0 
L 603 0 
L 603 3500 
z
M 603 4863 
L 1178 4863 
L 1178 4134 
L 603 4134 
L 603 4863 
z
" transform="scale(0.015625)"/>
       <path id="DejaVuSans-74" d="M 1172 4494 
L 1172 3500 
L 2356 3500 
L 2356 3053 
L 1172 3053 
L 1172 1153 
Q 1172 725 1289 603 
Q 1406 481 1766 481 
L 2356 481 
L 2356 0 
L 1766 0 
Q 1100 0 847 248 
Q 594 497 594 1153 
L 594 3053 
L 172 3053 
L 172 3500 
L 594 3500 
L 594 4494 
L 1172 4494 
z
" transform="scale(0.015625)"/>
       <path id="DejaVuSans-73" d="M 2834 3397 
L 2834 2853 
Q 2591 2978 2328 3040 
Q 2066 3103 1784 3103 
Q 1356 3103 1142 2972 
Q 928 2841 928 2578 
Q 928 2378 1081 2264 
Q 1234 2150 1697 2047 
L 1894 2003 
Q 2506 1872 2764 1633 
Q 3022 1394 3022 966 
Q 3022 478 2636 193 
Q 2250 -91 1575 -91 
Q 1294 -91 989 -36 
Q 684 19 347 128 
L 347 722 
Q 666 556 975 473 
Q 1284 391 1588 391 
Q 1994 391 2212 530 
Q 2431 669 2431 922 
Q 2431 1156 2273 1281 
Q 2116 1406 1581 1522 
L 1381 1569 
Q 847 1681 609 1914 
Q 372 2147 372 2553 
Q 372 3047 722 3315 
Q 1072 3584 1716 3584 
Q 2034 3584 2315 3537 
Q 2597 3491 2834 3397 
z
" transform="scale(0.015625)"/>
      </defs>
      <use xlink:href="#DejaVuSans-4e"/>
      <use xlink:href="#DejaVuSans-75" x="74.804688"/>
      <use xlink:href="#DejaVuSans-6d" x="138.183594"/>
      <use xlink:href="#DejaVuSans-62" x="235.595703"/>
      <use xlink:href="#DejaVuSans-65" x="299.072266"/>
      <use xlink:href="#DejaVuSans-72" x="360.595703"/>
      <use xlink:href="#DejaVuSans-20" x="401.708984"/>
      <use xlink:href="#DejaVuSans-6f" x="433.496094"/>
      <use xlink:href="#DejaVuSans-66" x="494.677734"/>
      <use xlink:href="#DejaVuSans-20" x="529.882812"/>
      <use xlink:href="#DejaVuSans-42" x="561.669922"/>
      <use xlink:href="#DejaVuSans-61" x="630.273438"/>
      <use xlink:href="#DejaVuSans-69" x="691.552734"/>
      <use xlink:href="#DejaVuSans-74" x="719.335938"/>
      <use xlink:href="#DejaVuSans-73" x="758.544922"/>
     </g>
    </g>
   </g>
   <g id="matplotlib.axis_2">
    <g id="ytick_1">
     <g id="line2d_7">
      <defs>
       <path id="mddf0adf442" d="M 0 0 
L -3.5 0 
" style="stroke: #000000; stroke-width: 0.8"/>
      </defs>
      <g>
       <use xlink:href="#mddf0adf442" x="47.765" y="606.04" style="stroke: #000000; stroke-width: 0.8"/>
      </g>
     </g>
     <g id="text_8">
      <!-- 0.0 -->
      <g transform="translate(24.861875 609.839219) scale(0.1 -0.1)">
       <defs>
        <path id="DejaVuSans-2e" d="M 684 794 
L 1344 794 
L 1344 0 
L 684 0 
L 684 794 
z
" transform="scale(0.015625)"/>
       </defs>
       <use xlink:href="#DejaVuSans-30"/>
       <use xlink:href="#DejaVuSans-2e" x="63.623047"/>
       <use xlink:href="#DejaVuSans-30" x="95.410156"/>
      </g>
     </g>
    </g>
    <g id="ytick_2">
     <g id="line2d_8">
      <g>
       <use xlink:href="#mddf0adf442" x="47.765" y="490.9816" style="stroke: #000000; stroke-width: 0.8"/>
      </g>
     </g>
     <g id="text_9">
      <!-- 0.2 -->
      <g transform="translate(24.861875 494.780819) scale(0.1 -0.1)">
       <defs>
        <path id="DejaVuSans-32" d="M 1228 531 
L 3431 531 
L 3431 0 
L 469 0 
L 469 531 
Q 828 903 1448 1529 
Q 2069 2156 2228 2338 
Q 2531 2678 2651 2914 
Q 2772 3150 2772 3378 
Q 2772 3750 2511 3984 
Q 2250 4219 1831 4219 
Q 1534 4219 1204 4116 
Q 875 4013 500 3803 
L 500 4441 
Q 881 4594 1212 4672 
Q 1544 4750 1819 4750 
Q 2544 4750 2975 4387 
Q 3406 4025 3406 3419 
Q 3406 3131 3298 2873 
Q 3191 2616 2906 2266 
Q 2828 2175 2409 1742 
Q 1991 1309 1228 531 
z
" transform="scale(0.015625)"/>
       </defs>
       <use xlink:href="#DejaVuSans-30"/>
       <use xlink:href="#DejaVuSans-2e" x="63.623047"/>
       <use xlink:href="#DejaVuSans-32" x="95.410156"/>
      </g>
     </g>
    </g>
    <g id="ytick_3">
     <g id="line2d_9">
      <g>
       <use xlink:href="#mddf0adf442" x="47.765" y="375.9232" style="stroke: #000000; stroke-width: 0.8"/>
      </g>
     </g>
     <g id="text_10">
      <!-- 0.4 -->
      <g transform="translate(24.861875 379.722419) scale(0.1 -0.1)">
       <use xlink:href="#DejaVuSans-30"/>
       <use xlink:href="#DejaVuSans-2e" x="63.623047"/>
       <use xlink:href="#DejaVuSans-34" x="95.410156"/>
      </g>
     </g>
    </g>
    <g id="ytick_4">
     <g id="line2d_10">
      <g>
       <use xlink:href="#mddf0adf442" x="47.765" y="260.8648" style="stroke: #000000; stroke-width: 0.8"/>
      </g>
     </g>
     <g id="text_11">
      <!-- 0.6 -->
      <g transform="translate(24.861875 264.664019) scale(0.1 -0.1)">
       <use xlink:href="#DejaVuSans-30"/>
       <use xlink:href="#DejaVuSans-2e" x="63.623047"/>
       <use xlink:href="#DejaVuSans-36" x="95.410156"/>
      </g>
     </g>
    </g>
    <g id="ytick_5">
     <g id="line2d_11">
      <g>
       <use xlink:href="#mddf0adf442" x="47.765" y="145.8064" style="stroke: #000000; stroke-width: 0.8"/>
      </g>
     </g>
     <g id="text_12">
      <!-- 0.8 -->
      <g transform="translate(24.861875 149.605619) scale(0.1 -0.1)">
       <use xlink:href="#DejaVuSans-30"/>
       <use xlink:href="#DejaVuSans-2e" x="63.623047"/>
       <use xlink:href="#DejaVuSans-38" x="95.410156"/>
      </g>
     </g>
    </g>
    <g id="ytick_6">
     <g id="line2d_12">
      <g>
       <use xlink:href="#mddf0adf442" x="47.765" y="30.748" style="stroke: #000000; stroke-width: 0.8"/>
      </g>
     </g>
     <g id="text_13">
      <!-- 1.0 -->
      <g transform="translate(24.861875 34.547219) scale(0.1 -0.1)">
       <defs>
        <path id="DejaVuSans-31" d="M 794 531 
L 1825 531 
L 1825 4091 
L 703 3866 
L 703 4441 
L 1819 4666 
L 2450 4666 
L 2450 531 
L 3481 531 
L 3481 0 
L 794 0 
L 794 531 
z
" transform="scale(0.015625)"/>
       </defs>
       <use xlink:href="#DejaVuSans-31"/>
       <use xlink:href="#DejaVuSans-2e" x="63.623047"/>
       <use xlink:href="#DejaVuSans-30" x="95.410156"/>
      </g>
     </g>
    </g>
    <g id="text_14">
     <!-- Aggregated mean correlation scores -->
     <g transform="translate(18.782187 409.442438) rotate(-90) scale(0.1 -0.1)">
      <defs>
       <path id="DejaVuSans-41" d="M 2188 4044 
L 1331 1722 
L 3047 1722 
L 2188 4044 
z
M 1831 4666 
L 2547 4666 
L 4325 0 
L 3669 0 
L 3244 1197 
L 1141 1197 
L 716 0 
L 50 0 
L 1831 4666 
z
" transform="scale(0.015625)"/>
       <path id="DejaVuSans-67" d="M 2906 1791 
Q 2906 2416 2648 2759 
Q 2391 3103 1925 3103 
Q 1463 3103 1205 2759 
Q 947 2416 947 1791 
Q 947 1169 1205 825 
Q 1463 481 1925 481 
Q 2391 481 2648 825 
Q 2906 1169 2906 1791 
z
M 3481 434 
Q 3481 -459 3084 -895 
Q 2688 -1331 1869 -1331 
Q 1566 -1331 1297 -1286 
Q 1028 -1241 775 -1147 
L 775 -588 
Q 1028 -725 1275 -790 
Q 1522 -856 1778 -856 
Q 2344 -856 2625 -561 
Q 2906 -266 2906 331 
L 2906 616 
Q 2728 306 2450 153 
Q 2172 0 1784 0 
Q 1141 0 747 490 
Q 353 981 353 1791 
Q 353 2603 747 3093 
Q 1141 3584 1784 3584 
Q 2172 3584 2450 3431 
Q 2728 3278 2906 2969 
L 2906 3500 
L 3481 3500 
L 3481 434 
z
" transform="scale(0.015625)"/>
       <path id="DejaVuSans-64" d="M 2906 2969 
L 2906 4863 
L 3481 4863 
L 3481 0 
L 2906 0 
L 2906 525 
Q 2725 213 2448 61 
Q 2172 -91 1784 -91 
Q 1150 -91 751 415 
Q 353 922 353 1747 
Q 353 2572 751 3078 
Q 1150 3584 1784 3584 
Q 2172 3584 2448 3432 
Q 2725 3281 2906 2969 
z
M 947 1747 
Q 947 1113 1208 752 
Q 1469 391 1925 391 
Q 2381 391 2643 752 
Q 2906 1113 2906 1747 
Q 2906 2381 2643 2742 
Q 2381 3103 1925 3103 
Q 1469 3103 1208 2742 
Q 947 2381 947 1747 
z
" transform="scale(0.015625)"/>
       <path id="DejaVuSans-6e" d="M 3513 2113 
L 3513 0 
L 2938 0 
L 2938 2094 
Q 2938 2591 2744 2837 
Q 2550 3084 2163 3084 
Q 1697 3084 1428 2787 
Q 1159 2491 1159 1978 
L 1159 0 
L 581 0 
L 581 3500 
L 1159 3500 
L 1159 2956 
Q 1366 3272 1645 3428 
Q 1925 3584 2291 3584 
Q 2894 3584 3203 3211 
Q 3513 2838 3513 2113 
z
" transform="scale(0.015625)"/>
       <path id="DejaVuSans-63" d="M 3122 3366 
L 3122 2828 
Q 2878 2963 2633 3030 
Q 2388 3097 2138 3097 
Q 1578 3097 1268 2742 
Q 959 2388 959 1747 
Q 959 1106 1268 751 
Q 1578 397 2138 397 
Q 2388 397 2633 464 
Q 2878 531 3122 666 
L 3122 134 
Q 2881 22 2623 -34 
Q 2366 -91 2075 -91 
Q 1284 -91 818 406 
Q 353 903 353 1747 
Q 353 2603 823 3093 
Q 1294 3584 2113 3584 
Q 2378 3584 2631 3529 
Q 2884 3475 3122 3366 
z
" transform="scale(0.015625)"/>
       <path id="DejaVuSans-6c" d="M 603 4863 
L 1178 4863 
L 1178 0 
L 603 0 
L 603 4863 
z
" transform="scale(0.015625)"/>
      </defs>
      <use xlink:href="#DejaVuSans-41"/>
      <use xlink:href="#DejaVuSans-67" x="68.408203"/>
      <use xlink:href="#DejaVuSans-67" x="131.884766"/>
      <use xlink:href="#DejaVuSans-72" x="195.361328"/>
      <use xlink:href="#DejaVuSans-65" x="234.224609"/>
      <use xlink:href="#DejaVuSans-67" x="295.748047"/>
      <use xlink:href="#DejaVuSans-61" x="359.224609"/>
      <use xlink:href="#DejaVuSans-74" x="420.503906"/>
      <use xlink:href="#DejaVuSans-65" x="459.712891"/>
      <use xlink:href="#DejaVuSans-64" x="521.236328"/>
      <use xlink:href="#DejaVuSans-20" x="584.712891"/>
      <use xlink:href="#DejaVuSans-6d" x="616.5"/>
      <use xlink:href="#DejaVuSans-65" x="713.912109"/>
      <use xlink:href="#DejaVuSans-61" x="775.435547"/>
      <use xlink:href="#DejaVuSans-6e" x="836.714844"/>
      <use xlink:href="#DejaVuSans-20" x="900.09375"/>
      <use xlink:href="#DejaVuSans-63" x="931.880859"/>
      <use xlink:href="#DejaVuSans-6f" x="986.861328"/>
      <use xlink:href="#DejaVuSans-72" x="1048.042969"/>
      <use xlink:href="#DejaVuSans-72" x="1087.40625"/>
      <use xlink:href="#DejaVuSans-65" x="1126.269531"/>
      <use xlink:href="#DejaVuSans-6c" x="1187.792969"/>
      <use xlink:href="#DejaVuSans-61" x="1215.576172"/>
      <use xlink:href="#DejaVuSans-74" x="1276.855469"/>
      <use xlink:href="#DejaVuSans-69" x="1316.064453"/>
      <use xlink:href="#DejaVuSans-6f" x="1343.847656"/>
      <use xlink:href="#DejaVuSans-6e" x="1405.029297"/>
      <use xlink:href="#DejaVuSans-20" x="1468.408203"/>
      <use xlink:href="#DejaVuSans-73" x="1500.195312"/>
      <use xlink:href="#DejaVuSans-63" x="1552.294922"/>
      <use xlink:href="#DejaVuSans-6f" x="1607.275391"/>
      <use xlink:href="#DejaVuSans-72" x="1668.457031"/>
      <use xlink:href="#DejaVuSans-65" x="1707.320312"/>
      <use xlink:href="#DejaVuSans-73" x="1768.84375"/>
     </g>
    </g>
   </g>
   <g id="line2d_13">
    <path d="M 47.765 431.206374 
L 65.4711 423.198653 
L 83.1772 426.948954 
L 100.8833 427.122741 
L 118.5894 414.650508 
L 136.2955 418.720847 
L 154.0016 417.6352 
L 171.7077 416.928663 
L 189.4138 417.588303 
L 207.1199 411.8342 
L 224.826 411.919272 
L 242.5321 407.185032 
L 260.2382 407.610411 
L 277.9443 403.713152 
L 295.6504 405.907198 
L 313.3565 398.563843 
L 331.0626 400.658425 
L 348.7687 402.181917 
L 366.4748 398.868564 
L 384.1809 395.648565 
L 401.887 392.485257 
L 419.5931 393.386663 
L 437.2992 394.495634 
L 455.0053 389.32343 
L 472.7114 387.647121 
L 490.4175 383.953444 
L 508.1236 388.157849 
L 525.8297 387.424569 
L 543.5358 385.160729 
L 561.2419 383.844374 
L 578.948 380.723592 
L 596.6541 379.527723 
L 614.3602 377.331706 
L 632.0663 375.730009 
L 649.7724 373.495639 
L 667.4785 373.891042 
L 685.1846 371.239259 
L 702.8907 371.298024 
L 720.5968 369.126962 
L 738.3029 368.477934 
L 756.009 368.723007 
L 773.7151 365.002168 
L 791.4212 366.321012 
L 809.1273 363.148555 
L 826.8334 362.950165 
L 844.5395 363.823037 
L 862.2456 363.176985 
L 879.9517 357.343066 
L 897.6578 355.987132 
L 915.3639 355.955867 
L 933.07 357.663473 
" clip-path="url(#pdb9e0d79e1)" style="fill: none; stroke: #1f77b4; stroke-width: 1.5; stroke-linecap: square"/>
   </g>
   <g id="line2d_14">
    <path d="M 47.765 474.585252 
L 65.4711 462.275284 
L 83.1772 475.257215 
L 100.8833 468.685746 
L 118.5894 463.352335 
L 136.2955 467.041878 
L 154.0016 455.612881 
L 171.7077 460.016559 
L 189.4138 457.046409 
L 207.1199 457.966883 
L 224.826 451.59555 
L 242.5321 451.165354 
L 260.2382 453.514871 
L 277.9443 450.453536 
L 295.6504 449.739508 
L 313.3565 442.500074 
L 331.0626 445.947878 
L 348.7687 437.653533 
L 366.4748 444.898998 
L 384.1809 444.853843 
L 401.887 443.099966 
L 419.5931 434.904688 
L 437.2992 445.170234 
L 455.0053 435.981677 
L 472.7114 434.403524 
L 490.4175 432.898655 
L 508.1236 431.222192 
L 525.8297 430.989206 
L 543.5358 426.817589 
L 561.2419 426.949223 
L 578.948 423.932918 
L 596.6541 426.749542 
L 614.3602 422.925858 
L 632.0663 418.596648 
L 649.7724 418.714538 
L 667.4785 420.581083 
L 685.1846 417.696302 
L 702.8907 412.98159 
L 720.5968 410.969078 
L 738.3029 410.04979 
L 756.009 400.749432 
L 773.7151 414.891929 
L 791.4212 408.979052 
L 809.1273 403.925107 
L 826.8334 402.942762 
L 844.5395 400.369112 
L 862.2456 398.234853 
L 879.9517 403.192736 
L 897.6578 399.190508 
L 915.3639 396.687749 
L 933.07 393.493506 
" clip-path="url(#pdb9e0d79e1)" style="fill: none; stroke: #ff7f0e; stroke-width: 1.5; stroke-linecap: square"/>
   </g>
   <g id="line2d_15">
    <path d="M 47.765 430.492474 
L 65.4711 428.219043 
L 83.1772 424.972835 
L 100.8833 425.109252 
L 118.5894 421.231548 
L 136.2955 419.090712 
L 154.0016 418.460388 
L 171.7077 418.849036 
L 189.4138 417.153868 
L 207.1199 416.331886 
L 224.826 415.664592 
L 242.5321 415.148975 
L 260.2382 414.996943 
L 277.9443 412.186431 
L 295.6504 411.271501 
L 313.3565 409.45374 
L 331.0626 409.404662 
L 348.7687 406.283604 
L 366.4748 406.475282 
L 384.1809 405.061066 
L 401.887 404.214983 
L 419.5931 402.257936 
L 437.2992 400.794891 
L 455.0053 398.154314 
L 472.7114 395.27661 
L 490.4175 394.831846 
L 508.1236 392.744512 
L 525.8297 391.45085 
L 543.5358 391.734497 
L 561.2419 389.198828 
L 578.948 388.183908 
L 596.6541 385.558067 
L 614.3602 382.653362 
L 632.0663 380.474339 
L 649.7724 380.494807 
L 667.4785 379.254337 
L 685.1846 377.857641 
L 702.8907 374.473325 
L 720.5968 374.61351 
L 738.3029 374.280323 
L 756.009 370.622946 
L 773.7151 368.564575 
L 791.4212 366.927839 
L 809.1273 367.356993 
L 826.8334 367.224896 
L 844.5395 366.208374 
L 862.2456 361.312013 
L 879.9517 360.517961 
L 897.6578 362.951152 
L 915.3639 357.070734 
L 933.07 359.275833 
" clip-path="url(#pdb9e0d79e1)" style="fill: none; stroke: #2ca02c; stroke-width: 1.5; stroke-linecap: square"/>
   </g>
   <g id="line2d_16">
    <path d="M 47.765 428.619499 
L 65.4711 427.321525 
L 83.1772 428.377466 
L 100.8833 423.750382 
L 118.5894 422.769588 
L 136.2955 422.729014 
L 154.0016 421.538089 
L 171.7077 419.845525 
L 189.4138 418.742874 
L 207.1199 417.072597 
L 224.826 415.749075 
L 242.5321 415.466323 
L 260.2382 413.799917 
L 277.9443 412.356293 
L 295.6504 408.348328 
L 313.3565 408.266577 
L 331.0626 406.209256 
L 348.7687 403.036307 
L 366.4748 403.087757 
L 384.1809 402.523403 
L 401.887 399.942668 
L 419.5931 398.363677 
L 437.2992 395.719317 
L 455.0053 395.750692 
L 472.7114 394.101991 
L 490.4175 391.113768 
L 508.1236 390.155682 
L 525.8297 389.154626 
L 543.5358 386.74697 
L 561.2419 385.212696 
L 578.948 384.530921 
L 596.6541 382.819445 
L 614.3602 382.009674 
L 632.0663 380.998997 
L 649.7724 379.139811 
L 667.4785 376.384097 
L 685.1846 375.615543 
L 702.8907 374.871711 
L 720.5968 372.10098 
L 738.3029 374.086092 
L 756.009 365.797004 
L 773.7151 367.933815 
L 791.4212 366.934924 
L 809.1273 367.480266 
L 826.8334 366.606553 
L 844.5395 362.231453 
L 862.2456 362.300149 
L 879.9517 361.474426 
L 897.6578 362.525333 
L 915.3639 358.533297 
L 933.07 359.304381 
" clip-path="url(#pdb9e0d79e1)" style="fill: none; stroke: #d62728; stroke-width: 1.5; stroke-linecap: square"/>
   </g>
   <g id="line2d_17">
    <path d="M 47.765 435.191482 
L 65.4711 433.730542 
L 83.1772 433.160228 
L 100.8833 432.183822 
L 118.5894 428.668334 
L 136.2955 426.649506 
L 154.0016 424.512043 
L 171.7077 422.104921 
L 189.4138 421.001517 
L 207.1199 417.256262 
L 224.826 415.777925 
L 242.5321 414.354931 
L 260.2382 410.316432 
L 277.9443 407.68922 
L 295.6504 408.107041 
L 313.3565 405.464942 
L 331.0626 403.085661 
L 348.7687 401.608334 
L 366.4748 398.960506 
L 384.1809 397.189149 
L 401.887 396.14459 
L 419.5931 395.472847 
L 437.2992 391.707777 
L 455.0053 388.682258 
L 472.7114 386.742301 
L 490.4175 386.753397 
L 508.1236 383.297366 
L 525.8297 382.245584 
L 543.5358 383.634779 
L 561.2419 382.868263 
L 578.948 381.680684 
L 596.6541 378.93187 
L 614.3602 376.342407 
L 632.0663 378.397895 
L 649.7724 374.289689 
L 667.4785 376.044697 
L 685.1846 372.949616 
L 702.8907 372.917642 
L 720.5968 372.574008 
L 738.3029 371.055609 
L 756.009 369.762534 
L 773.7151 367.664094 
L 791.4212 366.50069 
L 809.1273 364.608352 
L 826.8334 362.588554 
L 844.5395 363.041511 
L 862.2456 362.459498 
L 879.9517 360.009602 
L 897.6578 358.155156 
L 915.3639 359.590676 
L 933.07 357.531549 
" clip-path="url(#pdb9e0d79e1)" style="fill: none; stroke: #9467bd; stroke-width: 1.5; stroke-linecap: square"/>
   </g>
   <g id="line2d_18">
    <path d="M 47.765 442.004975 
L 65.4711 440.527863 
L 83.1772 438.493796 
L 100.8833 435.544041 
L 118.5894 432.089954 
L 136.2955 428.173839 
L 154.0016 426.86143 
L 171.7077 426.091637 
L 189.4138 422.928932 
L 207.1199 423.10674 
L 224.826 418.551756 
L 242.5321 415.965994 
L 260.2382 414.55354 
L 277.9443 413.056292 
L 295.6504 411.295262 
L 313.3565 410.694445 
L 331.0626 406.93608 
L 348.7687 406.407516 
L 366.4748 406.281233 
L 384.1809 404.48365 
L 401.887 403.189982 
L 419.5931 399.171983 
L 437.2992 397.889693 
L 455.0053 399.06823 
L 472.7114 398.349482 
L 490.4175 397.011171 
L 508.1236 395.504264 
L 525.8297 393.606679 
L 543.5358 392.970332 
L 561.2419 391.814597 
L 578.948 390.896378 
L 596.6541 389.061914 
L 614.3602 389.179675 
L 632.0663 386.239065 
L 649.7724 385.035903 
L 667.4785 382.654495 
L 685.1846 381.666339 
L 702.8907 380.421298 
L 720.5968 378.944052 
L 738.3029 375.380043 
L 756.009 375.798009 
L 773.7151 373.537198 
L 791.4212 371.598872 
L 809.1273 372.878603 
L 826.8334 367.647203 
L 844.5395 368.736779 
L 862.2456 363.927916 
L 879.9517 363.335712 
L 897.6578 363.409844 
L 915.3639 361.581211 
L 933.07 360.494246 
" clip-path="url(#pdb9e0d79e1)" style="fill: none; stroke: #8c564b; stroke-width: 1.5; stroke-linecap: square"/>
   </g>
   <g id="line2d_19">
    <path d="M 47.765 441.565768 
L 65.4711 440.303624 
L 83.1772 438.682301 
L 100.8833 434.730066 
L 118.5894 432.881247 
L 136.2955 431.397771 
L 154.0016 429.86726 
L 171.7077 428.422733 
L 189.4138 425.861034 
L 207.1199 422.940076 
L 224.826 422.84397 
L 242.5321 419.875485 
L 260.2382 419.663448 
L 277.9443 416.845391 
L 295.6504 417.171076 
L 313.3565 415.170604 
L 331.0626 412.461565 
L 348.7687 411.244694 
L 366.4748 407.721663 
L 384.1809 407.278991 
L 401.887 407.746088 
L 419.5931 404.553106 
L 437.2992 403.275585 
L 455.0053 402.035077 
L 472.7114 398.100401 
L 490.4175 397.023159 
L 508.1236 396.157316 
L 525.8297 393.879391 
L 543.5358 392.211063 
L 561.2419 391.042967 
L 578.948 389.699041 
L 596.6541 387.342929 
L 614.3602 387.325998 
L 632.0663 382.813531 
L 649.7724 385.203888 
L 667.4785 381.333767 
L 685.1846 379.16846 
L 702.8907 376.826596 
L 720.5968 375.224507 
L 738.3029 374.682646 
L 756.009 373.022227 
L 773.7151 372.097139 
L 791.4212 370.034293 
L 809.1273 368.826728 
L 826.8334 366.899982 
L 844.5395 365.321836 
L 862.2456 362.307922 
L 879.9517 361.98027 
L 897.6578 361.660336 
L 915.3639 361.87259 
L 933.07 356.980869 
" clip-path="url(#pdb9e0d79e1)" style="fill: none; stroke: #e377c2; stroke-width: 1.5; stroke-linecap: square"/>
   </g>
   <g id="line2d_20">
    <path d="M 47.765 440.842277 
L 65.4711 438.591765 
L 83.1772 435.933578 
L 100.8833 433.375495 
L 118.5894 430.203086 
L 136.2955 428.256648 
L 154.0016 427.375051 
L 171.7077 425.535361 
L 189.4138 424.479938 
L 207.1199 423.112964 
L 224.826 418.94581 
L 242.5321 418.160831 
L 260.2382 414.687902 
L 277.9443 413.175469 
L 295.6504 411.401226 
L 313.3565 409.343024 
L 331.0626 405.860213 
L 348.7687 405.470865 
L 366.4748 405.388663 
L 384.1809 403.19063 
L 401.887 400.841137 
L 419.5931 399.490991 
L 437.2992 400.855766 
L 455.0053 398.422235 
L 472.7114 396.003859 
L 490.4175 396.305004 
L 508.1236 395.201504 
L 525.8297 393.048845 
L 543.5358 392.914433 
L 561.2419 389.713301 
L 578.948 387.220752 
L 596.6541 387.51113 
L 614.3602 384.977053 
L 632.0663 383.761901 
L 649.7724 382.068531 
L 667.4785 380.886682 
L 685.1846 381.89221 
L 702.8907 378.542037 
L 720.5968 378.086919 
L 738.3029 375.109464 
L 756.009 372.778752 
L 773.7151 374.395112 
L 791.4212 369.920851 
L 809.1273 370.120327 
L 826.8334 367.036105 
L 844.5395 365.564448 
L 862.2456 365.472837 
L 879.9517 362.211713 
L 897.6578 360.913999 
L 915.3639 360.995535 
L 933.07 359.171272 
" clip-path="url(#pdb9e0d79e1)" style="fill: none; stroke: #7f7f7f; stroke-width: 1.5; stroke-linecap: square"/>
   </g>
   <g id="line2d_21">
    <path d="M 47.765 424.829115 
L 65.4711 424.974419 
L 83.1772 422.467285 
L 100.8833 421.502586 
L 118.5894 419.596728 
L 136.2955 417.653576 
L 154.0016 416.705762 
L 171.7077 416.791346 
L 189.4138 414.153774 
L 207.1199 412.101296 
L 224.826 411.953685 
L 242.5321 409.717962 
L 260.2382 409.724809 
L 277.9443 407.39938 
L 295.6504 407.637536 
L 313.3565 406.104425 
L 331.0626 403.892788 
L 348.7687 401.842289 
L 366.4748 400.19608 
L 384.1809 399.879725 
L 401.887 397.588809 
L 419.5931 395.965866 
L 437.2992 393.734991 
L 455.0053 395.430291 
L 472.7114 395.684059 
L 490.4175 392.837861 
L 508.1236 390.113434 
L 525.8297 388.229559 
L 543.5358 389.828689 
L 561.2419 386.546282 
L 578.948 384.136893 
L 596.6541 382.475483 
L 614.3602 380.14534 
L 632.0663 380.290908 
L 649.7724 377.039815 
L 667.4785 376.516773 
L 685.1846 376.261734 
L 702.8907 371.991391 
L 720.5968 371.00015 
L 738.3029 370.568004 
L 756.009 368.516889 
L 773.7151 368.389413 
L 791.4212 367.199546 
L 809.1273 366.859754 
L 826.8334 363.145305 
L 844.5395 363.447765 
L 862.2456 363.366264 
L 879.9517 356.327598 
L 897.6578 357.496567 
L 915.3639 356.782921 
L 933.07 354.618136 
" clip-path="url(#pdb9e0d79e1)" style="fill: none; stroke: #bcbd22; stroke-width: 1.5; stroke-linecap: square"/>
   </g>
   <g id="line2d_22">
    <path d="M 47.765 422.875589 
L 65.4711 422.084664 
L 83.1772 422.388552 
L 100.8833 420.789777 
L 118.5894 419.048625 
L 136.2955 417.999603 
L 154.0016 417.18803 
L 171.7077 415.172966 
L 189.4138 413.879833 
L 207.1199 411.935652 
L 224.826 412.949158 
L 242.5321 407.986456 
L 260.2382 409.030989 
L 277.9443 405.322509 
L 295.6504 403.870456 
L 313.3565 402.901897 
L 331.0626 399.297106 
L 348.7687 399.284639 
L 366.4748 396.295244 
L 384.1809 395.860411 
L 401.887 394.826728 
L 419.5931 393.536867 
L 437.2992 393.649543 
L 455.0053 391.649351 
L 472.7114 387.741851 
L 490.4175 386.915761 
L 508.1236 384.924252 
L 525.8297 382.390929 
L 543.5358 382.292802 
L 561.2419 381.621703 
L 578.948 380.367649 
L 596.6541 377.271826 
L 614.3602 376.082224 
L 632.0663 374.334797 
L 649.7724 374.872511 
L 667.4785 373.455974 
L 685.1846 370.439233 
L 702.8907 372.878088 
L 720.5968 370.444366 
L 738.3029 367.947134 
L 756.009 365.259097 
L 773.7151 366.747584 
L 791.4212 365.05 
L 809.1273 361.133362 
L 826.8334 358.623499 
L 844.5395 359.426027 
L 862.2456 356.85696 
L 879.9517 355.138129 
L 897.6578 353.241618 
L 915.3639 353.641783 
L 933.07 350.782758 
" clip-path="url(#pdb9e0d79e1)" style="fill: none; stroke: #17becf; stroke-width: 1.5; stroke-linecap: square"/>
   </g>
   <g id="line2d_23">
    <path d="M 47.765 428.496969 
L 65.4711 424.971148 
L 83.1772 426.627154 
L 100.8833 424.654703 
L 118.5894 423.022645 
L 136.2955 419.591898 
L 154.0016 418.282344 
L 171.7077 416.907577 
L 189.4138 415.510781 
L 207.1199 414.893069 
L 224.826 415.115124 
L 242.5321 412.841379 
L 260.2382 409.321606 
L 277.9443 407.672716 
L 295.6504 407.502226 
L 313.3565 403.049051 
L 331.0626 403.696313 
L 348.7687 402.865311 
L 366.4748 402.176958 
L 384.1809 400.507796 
L 401.887 396.867895 
L 419.5931 395.085988 
L 437.2992 394.147081 
L 455.0053 392.438552 
L 472.7114 390.984796 
L 490.4175 390.510096 
L 508.1236 390.194683 
L 525.8297 386.948261 
L 543.5358 385.975221 
L 561.2419 382.587747 
L 578.948 382.029744 
L 596.6541 382.786109 
L 614.3602 380.088173 
L 632.0663 377.410144 
L 649.7724 376.296884 
L 667.4785 374.172605 
L 685.1846 373.591564 
L 702.8907 372.54647 
L 720.5968 373.273388 
L 738.3029 369.09562 
L 756.009 366.181879 
L 773.7151 365.995062 
L 791.4212 365.458899 
L 809.1273 361.278161 
L 826.8334 361.363206 
L 844.5395 359.918564 
L 862.2456 359.442415 
L 879.9517 357.840518 
L 897.6578 356.683004 
L 915.3639 355.172147 
L 933.07 354.355496 
" clip-path="url(#pdb9e0d79e1)" style="fill: none; stroke: #9edae5; stroke-width: 1.5; stroke-linecap: square"/>
   </g>
   <g id="patch_3">
    <path d="M 47.765 606.04 
L 47.765 30.748 
" style="fill: none; stroke: #000000; stroke-width: 0.8; stroke-linejoin: miter; stroke-linecap: square"/>
   </g>
   <g id="patch_4">
    <path d="M 933.07 606.04 
L 933.07 30.748 
" style="fill: none; stroke: #000000; stroke-width: 0.8; stroke-linejoin: miter; stroke-linecap: square"/>
   </g>
   <g id="patch_5">
    <path d="M 47.765 606.04 
L 933.07 606.04 
" style="fill: none; stroke: #000000; stroke-width: 0.8; stroke-linejoin: miter; stroke-linecap: square"/>
   </g>
   <g id="patch_6">
    <path d="M 47.765 30.748 
L 933.07 30.748 
" style="fill: none; stroke: #000000; stroke-width: 0.8; stroke-linejoin: miter; stroke-linecap: square"/>
   </g>
   <g id="text_15">
    <!-- Mean Correlation Scores by Number of Baits for Each Method -->
    <g transform="translate(306.388125 24.748) scale(0.12 -0.12)">
     <defs>
      <path id="DejaVuSans-4d" d="M 628 4666 
L 1569 4666 
L 2759 1491 
L 3956 4666 
L 4897 4666 
L 4897 0 
L 4281 0 
L 4281 4097 
L 3078 897 
L 2444 897 
L 1241 4097 
L 1241 0 
L 628 0 
L 628 4666 
z
" transform="scale(0.015625)"/>
      <path id="DejaVuSans-43" d="M 4122 4306 
L 4122 3641 
Q 3803 3938 3442 4084 
Q 3081 4231 2675 4231 
Q 1875 4231 1450 3742 
Q 1025 3253 1025 2328 
Q 1025 1406 1450 917 
Q 1875 428 2675 428 
Q 3081 428 3442 575 
Q 3803 722 4122 1019 
L 4122 359 
Q 3791 134 3420 21 
Q 3050 -91 2638 -91 
Q 1578 -91 968 557 
Q 359 1206 359 2328 
Q 359 3453 968 4101 
Q 1578 4750 2638 4750 
Q 3056 4750 3426 4639 
Q 3797 4528 4122 4306 
z
" transform="scale(0.015625)"/>
      <path id="DejaVuSans-53" d="M 3425 4513 
L 3425 3897 
Q 3066 4069 2747 4153 
Q 2428 4238 2131 4238 
Q 1616 4238 1336 4038 
Q 1056 3838 1056 3469 
Q 1056 3159 1242 3001 
Q 1428 2844 1947 2747 
L 2328 2669 
Q 3034 2534 3370 2195 
Q 3706 1856 3706 1288 
Q 3706 609 3251 259 
Q 2797 -91 1919 -91 
Q 1588 -91 1214 -16 
Q 841 59 441 206 
L 441 856 
Q 825 641 1194 531 
Q 1563 422 1919 422 
Q 2459 422 2753 634 
Q 3047 847 3047 1241 
Q 3047 1584 2836 1778 
Q 2625 1972 2144 2069 
L 1759 2144 
Q 1053 2284 737 2584 
Q 422 2884 422 3419 
Q 422 4038 858 4394 
Q 1294 4750 2059 4750 
Q 2388 4750 2728 4690 
Q 3069 4631 3425 4513 
z
" transform="scale(0.015625)"/>
      <path id="DejaVuSans-79" d="M 2059 -325 
Q 1816 -950 1584 -1140 
Q 1353 -1331 966 -1331 
L 506 -1331 
L 506 -850 
L 844 -850 
Q 1081 -850 1212 -737 
Q 1344 -625 1503 -206 
L 1606 56 
L 191 3500 
L 800 3500 
L 1894 763 
L 2988 3500 
L 3597 3500 
L 2059 -325 
z
" transform="scale(0.015625)"/>
      <path id="DejaVuSans-45" d="M 628 4666 
L 3578 4666 
L 3578 4134 
L 1259 4134 
L 1259 2753 
L 3481 2753 
L 3481 2222 
L 1259 2222 
L 1259 531 
L 3634 531 
L 3634 0 
L 628 0 
L 628 4666 
z
" transform="scale(0.015625)"/>
      <path id="DejaVuSans-68" d="M 3513 2113 
L 3513 0 
L 2938 0 
L 2938 2094 
Q 2938 2591 2744 2837 
Q 2550 3084 2163 3084 
Q 1697 3084 1428 2787 
Q 1159 2491 1159 1978 
L 1159 0 
L 581 0 
L 581 4863 
L 1159 4863 
L 1159 2956 
Q 1366 3272 1645 3428 
Q 1925 3584 2291 3584 
Q 2894 3584 3203 3211 
Q 3513 2838 3513 2113 
z
" transform="scale(0.015625)"/>
     </defs>
     <use xlink:href="#DejaVuSans-4d"/>
     <use xlink:href="#DejaVuSans-65" x="86.279297"/>
     <use xlink:href="#DejaVuSans-61" x="147.802734"/>
     <use xlink:href="#DejaVuSans-6e" x="209.082031"/>
     <use xlink:href="#DejaVuSans-20" x="272.460938"/>
     <use xlink:href="#DejaVuSans-43" x="304.248047"/>
     <use xlink:href="#DejaVuSans-6f" x="374.072266"/>
     <use xlink:href="#DejaVuSans-72" x="435.253906"/>
     <use xlink:href="#DejaVuSans-72" x="474.617188"/>
     <use xlink:href="#DejaVuSans-65" x="513.480469"/>
     <use xlink:href="#DejaVuSans-6c" x="575.003906"/>
     <use xlink:href="#DejaVuSans-61" x="602.787109"/>
     <use xlink:href="#DejaVuSans-74" x="664.066406"/>
     <use xlink:href="#DejaVuSans-69" x="703.275391"/>
     <use xlink:href="#DejaVuSans-6f" x="731.058594"/>
     <use xlink:href="#DejaVuSans-6e" x="792.240234"/>
     <use xlink:href="#DejaVuSans-20" x="855.619141"/>
     <use xlink:href="#DejaVuSans-53" x="887.40625"/>
     <use xlink:href="#DejaVuSans-63" x="950.882812"/>
     <use xlink:href="#DejaVuSans-6f" x="1005.863281"/>
     <use xlink:href="#DejaVuSans-72" x="1067.044922"/>
     <use xlink:href="#DejaVuSans-65" x="1105.908203"/>
     <use xlink:href="#DejaVuSans-73" x="1167.431641"/>
     <use xlink:href="#DejaVuSans-20" x="1219.53125"/>
     <use xlink:href="#DejaVuSans-62" x="1251.318359"/>
     <use xlink:href="#DejaVuSans-79" x="1314.794922"/>
     <use xlink:href="#DejaVuSans-20" x="1373.974609"/>
     <use xlink:href="#DejaVuSans-4e" x="1405.761719"/>
     <use xlink:href="#DejaVuSans-75" x="1480.566406"/>
     <use xlink:href="#DejaVuSans-6d" x="1543.945312"/>
     <use xlink:href="#DejaVuSans-62" x="1641.357422"/>
     <use xlink:href="#DejaVuSans-65" x="1704.833984"/>
     <use xlink:href="#DejaVuSans-72" x="1766.357422"/>
     <use xlink:href="#DejaVuSans-20" x="1807.470703"/>
     <use xlink:href="#DejaVuSans-6f" x="1839.257812"/>
     <use xlink:href="#DejaVuSans-66" x="1900.439453"/>
     <use xlink:href="#DejaVuSans-20" x="1935.644531"/>
     <use xlink:href="#DejaVuSans-42" x="1967.431641"/>
     <use xlink:href="#DejaVuSans-61" x="2036.035156"/>
     <use xlink:href="#DejaVuSans-69" x="2097.314453"/>
     <use xlink:href="#DejaVuSans-74" x="2125.097656"/>
     <use xlink:href="#DejaVuSans-73" x="2164.306641"/>
     <use xlink:href="#DejaVuSans-20" x="2216.40625"/>
     <use xlink:href="#DejaVuSans-66" x="2248.193359"/>
     <use xlink:href="#DejaVuSans-6f" x="2283.398438"/>
     <use xlink:href="#DejaVuSans-72" x="2344.580078"/>
     <use xlink:href="#DejaVuSans-20" x="2385.693359"/>
     <use xlink:href="#DejaVuSans-45" x="2417.480469"/>
     <use xlink:href="#DejaVuSans-61" x="2480.664062"/>
     <use xlink:href="#DejaVuSans-63" x="2541.943359"/>
     <use xlink:href="#DejaVuSans-68" x="2596.923828"/>
     <use xlink:href="#DejaVuSans-20" x="2660.302734"/>
     <use xlink:href="#DejaVuSans-4d" x="2692.089844"/>
     <use xlink:href="#DejaVuSans-65" x="2778.369141"/>
     <use xlink:href="#DejaVuSans-74" x="2839.892578"/>
     <use xlink:href="#DejaVuSans-68" x="2879.101562"/>
     <use xlink:href="#DejaVuSans-6f" x="2942.480469"/>
     <use xlink:href="#DejaVuSans-64" x="3003.662109"/>
    </g>
   </g>
   <g id="legend_1">
    <g id="patch_7">
     <path d="M 940.07 172.555275 
L 1067.18875 172.555275 
Q 1069.18875 172.555275 1069.18875 170.555275 
L 1069.18875 8.9834 
Q 1069.18875 6.9834 1067.18875 6.9834 
L 940.07 6.9834 
Q 938.07 6.9834 938.07 8.9834 
L 938.07 170.555275 
Q 938.07 172.555275 940.07 172.555275 
z
" style="fill: #ffffff; opacity: 0.8; stroke: #cccccc; stroke-linejoin: miter"/>
    </g>
    <g id="line2d_24">
     <path d="M 942.07 15.081838 
L 952.07 15.081838 
L 962.07 15.081838 
" style="fill: none; stroke: #1f77b4; stroke-width: 1.5; stroke-linecap: square"/>
    </g>
    <g id="text_16">
     <!-- GA -->
     <g transform="translate(970.07 18.581838) scale(0.1 -0.1)">
      <defs>
       <path id="DejaVuSans-47" d="M 3809 666 
L 3809 1919 
L 2778 1919 
L 2778 2438 
L 4434 2438 
L 4434 434 
Q 4069 175 3628 42 
Q 3188 -91 2688 -91 
Q 1594 -91 976 548 
Q 359 1188 359 2328 
Q 359 3472 976 4111 
Q 1594 4750 2688 4750 
Q 3144 4750 3555 4637 
Q 3966 4525 4313 4306 
L 4313 3634 
Q 3963 3931 3569 4081 
Q 3175 4231 2741 4231 
Q 1884 4231 1454 3753 
Q 1025 3275 1025 2328 
Q 1025 1384 1454 906 
Q 1884 428 2741 428 
Q 3075 428 3337 486 
Q 3600 544 3809 666 
z
" transform="scale(0.015625)"/>
      </defs>
      <use xlink:href="#DejaVuSans-47"/>
      <use xlink:href="#DejaVuSans-41" x="77.490234"/>
     </g>
    </g>
    <g id="line2d_25">
     <path d="M 942.07 29.759963 
L 952.07 29.759963 
L 962.07 29.759963 
" style="fill: none; stroke: #ff7f0e; stroke-width: 1.5; stroke-linecap: square"/>
    </g>
    <g id="text_17">
     <!-- Random -->
     <g transform="translate(970.07 33.259963) scale(0.1 -0.1)">
      <defs>
       <path id="DejaVuSans-52" d="M 2841 2188 
Q 3044 2119 3236 1894 
Q 3428 1669 3622 1275 
L 4263 0 
L 3584 0 
L 2988 1197 
Q 2756 1666 2539 1819 
Q 2322 1972 1947 1972 
L 1259 1972 
L 1259 0 
L 628 0 
L 628 4666 
L 2053 4666 
Q 2853 4666 3247 4331 
Q 3641 3997 3641 3322 
Q 3641 2881 3436 2590 
Q 3231 2300 2841 2188 
z
M 1259 4147 
L 1259 2491 
L 2053 2491 
Q 2509 2491 2742 2702 
Q 2975 2913 2975 3322 
Q 2975 3731 2742 3939 
Q 2509 4147 2053 4147 
L 1259 4147 
z
" transform="scale(0.015625)"/>
      </defs>
      <use xlink:href="#DejaVuSans-52"/>
      <use xlink:href="#DejaVuSans-61" x="67.232422"/>
      <use xlink:href="#DejaVuSans-6e" x="128.511719"/>
      <use xlink:href="#DejaVuSans-64" x="191.890625"/>
      <use xlink:href="#DejaVuSans-6f" x="255.367188"/>
      <use xlink:href="#DejaVuSans-6d" x="316.548828"/>
     </g>
    </g>
    <g id="line2d_26">
     <path d="M 942.07 44.438088 
L 952.07 44.438088 
L 962.07 44.438088 
" style="fill: none; stroke: #2ca02c; stroke-width: 1.5; stroke-linecap: square"/>
    </g>
    <g id="text_18">
     <!-- chi_2 -->
     <g transform="translate(970.07 47.938088) scale(0.1 -0.1)">
      <defs>
       <path id="DejaVuSans-5f" d="M 3263 -1063 
L 3263 -1509 
L -63 -1509 
L -63 -1063 
L 3263 -1063 
z
" transform="scale(0.015625)"/>
      </defs>
      <use xlink:href="#DejaVuSans-63"/>
      <use xlink:href="#DejaVuSans-68" x="54.980469"/>
      <use xlink:href="#DejaVuSans-69" x="118.359375"/>
      <use xlink:href="#DejaVuSans-5f" x="146.142578"/>
      <use xlink:href="#DejaVuSans-32" x="196.142578"/>
     </g>
    </g>
    <g id="line2d_27">
     <path d="M 942.07 59.394338 
L 952.07 59.394338 
L 962.07 59.394338 
" style="fill: none; stroke: #d62728; stroke-width: 1.5; stroke-linecap: square"/>
    </g>
    <g id="text_19">
     <!-- f_classif -->
     <g transform="translate(970.07 62.894338) scale(0.1 -0.1)">
      <use xlink:href="#DejaVuSans-66"/>
      <use xlink:href="#DejaVuSans-5f" x="35.205078"/>
      <use xlink:href="#DejaVuSans-63" x="85.205078"/>
      <use xlink:href="#DejaVuSans-6c" x="140.185547"/>
      <use xlink:href="#DejaVuSans-61" x="167.96875"/>
      <use xlink:href="#DejaVuSans-73" x="229.248047"/>
      <use xlink:href="#DejaVuSans-73" x="281.347656"/>
      <use xlink:href="#DejaVuSans-69" x="333.447266"/>
      <use xlink:href="#DejaVuSans-66" x="361.230469"/>
     </g>
    </g>
    <g id="line2d_28">
     <path d="M 942.07 74.350588 
L 952.07 74.350588 
L 962.07 74.350588 
" style="fill: none; stroke: #9467bd; stroke-width: 1.5; stroke-linecap: square"/>
    </g>
    <g id="text_20">
     <!-- mutual_info_classif -->
     <g transform="translate(970.07 77.850588) scale(0.1 -0.1)">
      <use xlink:href="#DejaVuSans-6d"/>
      <use xlink:href="#DejaVuSans-75" x="97.412109"/>
      <use xlink:href="#DejaVuSans-74" x="160.791016"/>
      <use xlink:href="#DejaVuSans-75" x="200"/>
      <use xlink:href="#DejaVuSans-61" x="263.378906"/>
      <use xlink:href="#DejaVuSans-6c" x="324.658203"/>
      <use xlink:href="#DejaVuSans-5f" x="352.441406"/>
      <use xlink:href="#DejaVuSans-69" x="402.441406"/>
      <use xlink:href="#DejaVuSans-6e" x="430.224609"/>
      <use xlink:href="#DejaVuSans-66" x="493.603516"/>
      <use xlink:href="#DejaVuSans-6f" x="528.808594"/>
      <use xlink:href="#DejaVuSans-5f" x="589.990234"/>
      <use xlink:href="#DejaVuSans-63" x="639.990234"/>
      <use xlink:href="#DejaVuSans-6c" x="694.970703"/>
      <use xlink:href="#DejaVuSans-61" x="722.753906"/>
      <use xlink:href="#DejaVuSans-73" x="784.033203"/>
      <use xlink:href="#DejaVuSans-73" x="836.132812"/>
      <use xlink:href="#DejaVuSans-69" x="888.232422"/>
      <use xlink:href="#DejaVuSans-66" x="916.015625"/>
     </g>
    </g>
    <g id="line2d_29">
     <path d="M 942.07 89.306838 
L 952.07 89.306838 
L 962.07 89.306838 
" style="fill: none; stroke: #8c564b; stroke-width: 1.5; stroke-linecap: square"/>
    </g>
    <g id="text_21">
     <!-- lasso -->
     <g transform="translate(970.07 92.806838) scale(0.1 -0.1)">
      <use xlink:href="#DejaVuSans-6c"/>
      <use xlink:href="#DejaVuSans-61" x="27.783203"/>
      <use xlink:href="#DejaVuSans-73" x="89.0625"/>
      <use xlink:href="#DejaVuSans-73" x="141.162109"/>
      <use xlink:href="#DejaVuSans-6f" x="193.261719"/>
     </g>
    </g>
    <g id="line2d_30">
     <path d="M 942.07 103.984963 
L 952.07 103.984963 
L 962.07 103.984963 
" style="fill: none; stroke: #e377c2; stroke-width: 1.5; stroke-linecap: square"/>
    </g>
    <g id="text_22">
     <!-- ridge -->
     <g transform="translate(970.07 107.484963) scale(0.1 -0.1)">
      <use xlink:href="#DejaVuSans-72"/>
      <use xlink:href="#DejaVuSans-69" x="41.113281"/>
      <use xlink:href="#DejaVuSans-64" x="68.896484"/>
      <use xlink:href="#DejaVuSans-67" x="132.373047"/>
      <use xlink:href="#DejaVuSans-65" x="195.849609"/>
     </g>
    </g>
    <g id="line2d_31">
     <path d="M 942.07 118.663088 
L 952.07 118.663088 
L 962.07 118.663088 
" style="fill: none; stroke: #7f7f7f; stroke-width: 1.5; stroke-linecap: square"/>
    </g>
    <g id="text_23">
     <!-- elastic_net -->
     <g transform="translate(970.07 122.163088) scale(0.1 -0.1)">
      <use xlink:href="#DejaVuSans-65"/>
      <use xlink:href="#DejaVuSans-6c" x="61.523438"/>
      <use xlink:href="#DejaVuSans-61" x="89.306641"/>
      <use xlink:href="#DejaVuSans-73" x="150.585938"/>
      <use xlink:href="#DejaVuSans-74" x="202.685547"/>
      <use xlink:href="#DejaVuSans-69" x="241.894531"/>
      <use xlink:href="#DejaVuSans-63" x="269.677734"/>
      <use xlink:href="#DejaVuSans-5f" x="324.658203"/>
      <use xlink:href="#DejaVuSans-6e" x="374.658203"/>
      <use xlink:href="#DejaVuSans-65" x="438.037109"/>
      <use xlink:href="#DejaVuSans-74" x="499.560547"/>
     </g>
    </g>
    <g id="line2d_32">
     <path d="M 942.07 133.619338 
L 952.07 133.619338 
L 962.07 133.619338 
" style="fill: none; stroke: #bcbd22; stroke-width: 1.5; stroke-linecap: square"/>
    </g>
    <g id="text_24">
     <!-- rf -->
     <g transform="translate(970.07 137.119338) scale(0.1 -0.1)">
      <use xlink:href="#DejaVuSans-72"/>
      <use xlink:href="#DejaVuSans-66" x="41.113281"/>
     </g>
    </g>
    <g id="line2d_33">
     <path d="M 942.07 148.297463 
L 952.07 148.297463 
L 962.07 148.297463 
" style="fill: none; stroke: #17becf; stroke-width: 1.5; stroke-linecap: square"/>
    </g>
    <g id="text_25">
     <!-- gbm -->
     <g transform="translate(970.07 151.797463) scale(0.1 -0.1)">
      <use xlink:href="#DejaVuSans-67"/>
      <use xlink:href="#DejaVuSans-62" x="63.476562"/>
      <use xlink:href="#DejaVuSans-6d" x="126.953125"/>
     </g>
    </g>
    <g id="line2d_34">
     <path d="M 942.07 162.975588 
L 952.07 162.975588 
L 962.07 162.975588 
" style="fill: none; stroke: #9edae5; stroke-width: 1.5; stroke-linecap: square"/>
    </g>
    <g id="text_26">
     <!-- xgb -->
     <g transform="translate(970.07 166.475588) scale(0.1 -0.1)">
      <defs>
       <path id="DejaVuSans-78" d="M 3513 3500 
L 2247 1797 
L 3578 0 
L 2900 0 
L 1881 1375 
L 863 0 
L 184 0 
L 1544 1831 
L 300 3500 
L 978 3500 
L 1906 2253 
L 2834 3500 
L 3513 3500 
z
" transform="scale(0.015625)"/>
      </defs>
      <use xlink:href="#DejaVuSans-78"/>
      <use xlink:href="#DejaVuSans-67" x="59.179688"/>
      <use xlink:href="#DejaVuSans-62" x="122.65625"/>
     </g>
    </g>
   </g>
  </g>
 </g>
 <defs>
  <clipPath id="pdb9e0d79e1">
   <rect x="47.765" y="30.748" width="885.305" height="575.292"/>
  </clipPath>
 </defs>
</svg>
