<?xml version="1.0" encoding="utf-8" standalone="no"?>
<!DOCTYPE svg PUBLIC "-//W3C//DTD SVG 1.1//EN"
  "http://www.w3.org/Graphics/SVG/1.1/DTD/svg11.dtd">
<svg xmlns:xlink="http://www.w3.org/1999/xlink" width="1080pt" height="648pt" viewBox="0 0 1080 648" xmlns="http://www.w3.org/2000/svg" version="1.1">
 <metadata>
  <rdf:RDF xmlns:dc="http://purl.org/dc/elements/1.1/" xmlns:cc="http://creativecommons.org/ns#" xmlns:rdf="http://www.w3.org/1999/02/22-rdf-syntax-ns#">
   <cc:Work>
    <dc:type rdf:resource="http://purl.org/dc/dcmitype/StillImage"/>
    <dc:date>2024-04-04T23:51:03.285845</dc:date>
    <dc:format>image/svg+xml</dc:format>
    <dc:creator>
     <cc:Agent>
      <dc:title>Matplotlib v3.7.2, https://matplotlib.org/</dc:title>
     </cc:Agent>
    </dc:creator>
   </cc:Work>
  </rdf:RDF>
 </metadata>
 <defs>
  <style type="text/css">*{stroke-linejoin: round; stroke-linecap: butt}</style>
 </defs>
 <g id="figure_1">
  <g id="patch_1">
   <path d="M 0 648 
L 1080 648 
L 1080 0 
L 0 0 
z
" style="fill: #ffffff"/>
  </g>
  <g id="axes_1">
   <g id="patch_2">
    <path d="M 47.765 606.04 
L 933.07 606.04 
L 933.07 30.748 
L 47.765 30.748 
z
" style="fill: #ffffff"/>
   </g>
   <g id="PolyCollection_1">
    <defs>
     <path id="mc342159309" d="M 47.765 -273.415359 
L 47.765 -230.882069 
L 65.4711 -238.116546 
L 83.1772 -233.289543 
L 100.8833 -230.827309 
L 118.5894 -250.503396 
L 136.2955 -239.892604 
L 154.0016 -239.332413 
L 171.7077 -241.403036 
L 189.4138 -238.272951 
L 207.1199 -244.144392 
L 224.826 -248.273452 
L 242.5321 -249.578479 
L 260.2382 -247.622355 
L 277.9443 -250.984762 
L 295.6504 -243.055114 
L 313.3565 -251.368088 
L 331.0626 -258.978012 
L 348.7687 -248.813588 
L 366.4748 -251.308298 
L 384.1809 -255.406502 
L 401.887 -256.534387 
L 419.5931 -250.635244 
L 437.2992 -249.000838 
L 455.0053 -255.331104 
L 472.7114 -255.438467 
L 490.4175 -252.994081 
L 508.1236 -259.99967 
L 525.8297 -251.423118 
L 543.5358 -251.685489 
L 561.2419 -259.981147 
L 578.948 -258.009545 
L 596.6541 -250.162583 
L 614.3602 -266.480832 
L 632.0663 -253.337137 
L 649.7724 -258.329902 
L 667.4785 -253.485481 
L 685.1846 -257.555104 
L 702.8907 -261.763424 
L 720.5968 -259.302742 
L 738.3029 -261.086546 
L 756.009 -261.231027 
L 773.7151 -261.559601 
L 791.4212 -257.818596 
L 809.1273 -256.702355 
L 826.8334 -264.212782 
L 844.5395 -270.180146 
L 862.2456 -261.698214 
L 879.9517 -268.690258 
L 897.6578 -263.768308 
L 915.3639 -266.013146 
L 933.07 -260.211129 
L 933.07 -299.792372 
L 933.07 -299.792372 
L 915.3639 -299.5219 
L 897.6578 -299.485084 
L 879.9517 -308.494035 
L 862.2456 -297.560234 
L 844.5395 -297.83367 
L 826.8334 -298.987542 
L 809.1273 -293.91365 
L 791.4212 -296.057966 
L 773.7151 -298.068432 
L 756.009 -293.708249 
L 738.3029 -300.394807 
L 720.5968 -294.009645 
L 702.8907 -291.589657 
L 685.1846 -292.247683 
L 667.4785 -291.260987 
L 649.7724 -288.665637 
L 632.0663 -288.808215 
L 614.3602 -292.4707 
L 596.6541 -287.215773 
L 578.948 -285.547532 
L 561.2419 -290.156618 
L 543.5358 -285.628521 
L 525.8297 -278.814632 
L 508.1236 -295.89666 
L 490.4175 -288.392864 
L 472.7114 -288.019063 
L 455.0053 -282.326456 
L 437.2992 -282.895604 
L 419.5931 -287.225125 
L 401.887 -289.443453 
L 384.1809 -287.186043 
L 366.4748 -284.169478 
L 348.7687 -280.608916 
L 331.0626 -288.118522 
L 313.3565 -286.052118 
L 295.6504 -284.034079 
L 277.9443 -287.043414 
L 260.2382 -276.132284 
L 242.5321 -282.146072 
L 224.826 -283.946208 
L 207.1199 -281.905887 
L 189.4138 -277.448276 
L 171.7077 -286.063397 
L 154.0016 -282.399619 
L 136.2955 -276.514524 
L 118.5894 -289.317465 
L 100.8833 -274.631454 
L 83.1772 -273.330752 
L 65.4711 -277.048454 
L 47.765 -273.415359 
z
" style="stroke: #1f77b4; stroke-opacity: 0.2"/>
    </defs>
    <g clip-path="url(#pfde46f2058)">
     <use xlink:href="#mc342159309" x="0" y="648" style="fill: #1f77b4; fill-opacity: 0.2; stroke: #1f77b4; stroke-opacity: 0.2"/>
    </g>
   </g>
   <g id="PolyCollection_2">
    <defs>
     <path id="m2b3c34c687" d="M 47.765 -260.174354 
L 47.765 -199.457328 
L 65.4711 -204.892386 
L 83.1772 -186.464111 
L 100.8833 -205.370509 
L 118.5894 -199.321385 
L 136.2955 -201.695407 
L 154.0016 -210.221356 
L 171.7077 -199.500438 
L 189.4138 -205.746454 
L 207.1199 -204.334038 
L 224.826 -211.420738 
L 242.5321 -204.580886 
L 260.2382 -200.889179 
L 277.9443 -202.228309 
L 295.6504 -196.017099 
L 313.3565 -203.976171 
L 331.0626 -204.982651 
L 348.7687 -203.052709 
L 366.4748 -210.802517 
L 384.1809 -205.550341 
L 401.887 -208.419773 
L 419.5931 -222.688199 
L 437.2992 -190.681868 
L 455.0053 -205.919712 
L 472.7114 -215.718592 
L 490.4175 -207.09643 
L 508.1236 -213.17111 
L 525.8297 -210.312498 
L 543.5358 -208.552599 
L 561.2419 -216.716214 
L 578.948 -221.23243 
L 596.6541 -218.88154 
L 614.3602 -214.464986 
L 632.0663 -222.570235 
L 649.7724 -220.44631 
L 667.4785 -221.795543 
L 685.1846 -219.297808 
L 702.8907 -219.126501 
L 720.5968 -219.734471 
L 738.3029 -224.787416 
L 756.009 -234.354321 
L 773.7151 -223.113935 
L 791.4212 -222.540548 
L 809.1273 -233.29069 
L 826.8334 -239.21675 
L 844.5395 -231.801981 
L 862.2456 -237.464093 
L 879.9517 -237.074975 
L 897.6578 -243.279152 
L 915.3639 -232.501698 
L 933.07 -236.247893 
L 933.07 -272.398962 
L 933.07 -272.398962 
L 915.3639 -274.658808 
L 897.6578 -277.053068 
L 879.9517 -277.536574 
L 862.2456 -281.008792 
L 844.5395 -272.981718 
L 826.8334 -276.573514 
L 809.1273 -276.831984 
L 791.4212 -269.52455 
L 773.7151 -268.989634 
L 756.009 -276.833485 
L 738.3029 -276.906661 
L 720.5968 -271.02814 
L 702.8907 -271.391665 
L 685.1846 -268.533005 
L 667.4785 -260.004309 
L 649.7724 -265.605215 
L 632.0663 -271.378215 
L 614.3602 -264.855988 
L 596.6541 -259.8937 
L 578.948 -260.97767 
L 561.2419 -260.777274 
L 543.5358 -262.99147 
L 525.8297 -262.669747 
L 508.1236 -262.707025 
L 490.4175 -261.964456 
L 472.7114 -262.769899 
L 455.0053 -264.670223 
L 437.2992 -250.248077 
L 419.5931 -266.721063 
L 401.887 -263.032791 
L 384.1809 -263.620916 
L 366.4748 -262.636672 
L 348.7687 -260.018916 
L 331.0626 -254.390364 
L 313.3565 -254.079338 
L 295.6504 -259.396947 
L 277.9443 -261.253012 
L 260.2382 -258.615875 
L 242.5321 -260.73063 
L 224.826 -254.364883 
L 207.1199 -255.939462 
L 189.4138 -247.670132 
L 171.7077 -255.605407 
L 154.0016 -259.094532 
L 136.2955 -241.708612 
L 118.5894 -249.743922 
L 100.8833 -255.440392 
L 83.1772 -256.546733 
L 65.4711 -261.032881 
L 47.765 -260.174354 
z
" style="stroke: #ff7f0e; stroke-opacity: 0.2"/>
    </defs>
    <g clip-path="url(#pfde46f2058)">
     <use xlink:href="#m2b3c34c687" x="0" y="648" style="fill: #ff7f0e; fill-opacity: 0.2; stroke: #ff7f0e; stroke-opacity: 0.2"/>
    </g>
   </g>
   <g id="PolyCollection_3">
    <defs>
     <path id="m83071bb834" d="M 47.765 -294.486888 
L 47.765 -236.910884 
L 65.4711 -249.641031 
L 83.1772 -249.353625 
L 100.8833 -244.137272 
L 118.5894 -247.529713 
L 136.2955 -252.455256 
L 154.0016 -246.755255 
L 171.7077 -253.574581 
L 189.4138 -255.42196 
L 207.1199 -242.125966 
L 224.826 -242.635092 
L 242.5321 -249.527118 
L 260.2382 -243.887229 
L 277.9443 -238.876021 
L 295.6504 -252.336625 
L 313.3565 -251.995905 
L 331.0626 -249.122595 
L 348.7687 -248.962302 
L 366.4748 -257.241744 
L 384.1809 -259.704738 
L 401.887 -252.090611 
L 419.5931 -255.544915 
L 437.2992 -259.118715 
L 455.0053 -252.03615 
L 472.7114 -260.599674 
L 490.4175 -257.520644 
L 508.1236 -255.971517 
L 525.8297 -264.87061 
L 543.5358 -268.451879 
L 561.2419 -264.218699 
L 578.948 -263.876837 
L 596.6541 -270.281116 
L 614.3602 -268.926701 
L 632.0663 -268.928316 
L 649.7724 -269.589249 
L 667.4785 -264.875227 
L 685.1846 -273.129518 
L 702.8907 -275.370245 
L 720.5968 -273.971763 
L 738.3029 -278.241885 
L 756.009 -268.014263 
L 773.7151 -272.565756 
L 791.4212 -277.625531 
L 809.1273 -269.175019 
L 826.8334 -280.394042 
L 844.5395 -275.763455 
L 862.2456 -280.260211 
L 879.9517 -277.909429 
L 897.6578 -277.219402 
L 915.3639 -287.883381 
L 933.07 -279.928183 
L 933.07 -322.800942 
L 933.07 -322.800942 
L 915.3639 -320.22326 
L 897.6578 -318.992408 
L 879.9517 -318.356823 
L 862.2456 -322.704329 
L 844.5395 -320.990519 
L 826.8334 -311.668928 
L 809.1273 -316.081188 
L 791.4212 -315.082278 
L 773.7151 -308.054747 
L 756.009 -313.835512 
L 738.3029 -318.899242 
L 720.5968 -311.339747 
L 702.8907 -313.291588 
L 685.1846 -312.221785 
L 667.4785 -310.445865 
L 649.7724 -310.122934 
L 632.0663 -316.85008 
L 614.3602 -309.773386 
L 596.6541 -304.544258 
L 578.948 -300.453688 
L 561.2419 -298.933117 
L 543.5358 -303.972078 
L 525.8297 -305.738268 
L 508.1236 -300.284452 
L 490.4175 -300.792764 
L 472.7114 -295.718204 
L 455.0053 -301.907236 
L 437.2992 -295.704122 
L 419.5931 -297.600466 
L 401.887 -295.928995 
L 384.1809 -290.996919 
L 366.4748 -292.080299 
L 348.7687 -295.040528 
L 331.0626 -300.569565 
L 313.3565 -303.403037 
L 295.6504 -298.442392 
L 277.9443 -305.021183 
L 260.2382 -296.781779 
L 242.5321 -299.4496 
L 224.826 -305.537232 
L 207.1199 -302.119344 
L 189.4138 -301.46437 
L 171.7077 -302.138444 
L 154.0016 -294.726892 
L 136.2955 -307.182255 
L 118.5894 -295.194333 
L 100.8833 -298.42244 
L 83.1772 -306.685665 
L 65.4711 -293.338224 
L 47.765 -294.486888 
z
" style="stroke: #2ca02c; stroke-opacity: 0.2"/>
    </defs>
    <g clip-path="url(#pfde46f2058)">
     <use xlink:href="#m83071bb834" x="0" y="648" style="fill: #2ca02c; fill-opacity: 0.2; stroke: #2ca02c; stroke-opacity: 0.2"/>
    </g>
   </g>
   <g id="PolyCollection_4">
    <defs>
     <path id="md89d9b2b9c" d="M 47.765 -294.1153 
L 47.765 -236.596345 
L 65.4711 -245.97713 
L 83.1772 -249.892919 
L 100.8833 -244.434982 
L 118.5894 -250.938268 
L 136.2955 -248.153557 
L 154.0016 -248.151335 
L 171.7077 -251.121876 
L 189.4138 -250.498882 
L 207.1199 -257.526596 
L 224.826 -257.261352 
L 242.5321 -242.854173 
L 260.2382 -252.006506 
L 277.9443 -250.579503 
L 295.6504 -251.246001 
L 313.3565 -261.887392 
L 331.0626 -255.511388 
L 348.7687 -255.692399 
L 366.4748 -259.766688 
L 384.1809 -257.540501 
L 401.887 -259.988297 
L 419.5931 -260.434768 
L 437.2992 -267.777267 
L 455.0053 -266.862119 
L 472.7114 -251.74568 
L 490.4175 -258.738412 
L 508.1236 -254.443077 
L 525.8297 -263.095653 
L 543.5358 -268.662532 
L 561.2419 -265.189479 
L 578.948 -265.099644 
L 596.6541 -263.896224 
L 614.3602 -266.489441 
L 632.0663 -267.659325 
L 649.7724 -266.211875 
L 667.4785 -268.948415 
L 685.1846 -260.326022 
L 702.8907 -266.67501 
L 720.5968 -274.89679 
L 738.3029 -272.064073 
L 756.009 -275.482181 
L 773.7151 -278.447185 
L 791.4212 -277.110754 
L 809.1273 -279.358028 
L 826.8334 -274.293872 
L 844.5395 -276.184687 
L 862.2456 -278.286407 
L 879.9517 -285.001614 
L 897.6578 -285.870782 
L 915.3639 -280.749859 
L 933.07 -274.964279 
L 933.07 -317.236877 
L 933.07 -317.236877 
L 915.3639 -320.481898 
L 897.6578 -321.943076 
L 879.9517 -319.14236 
L 862.2456 -319.362358 
L 844.5395 -318.916238 
L 826.8334 -315.479006 
L 809.1273 -316.183665 
L 791.4212 -307.402016 
L 773.7151 -320.657325 
L 756.009 -312.643193 
L 738.3029 -313.881584 
L 720.5968 -314.035208 
L 702.8907 -307.047482 
L 685.1846 -304.682212 
L 667.4785 -307.878842 
L 649.7724 -301.954254 
L 632.0663 -300.85717 
L 614.3602 -305.246016 
L 596.6541 -298.774404 
L 578.948 -299.43721 
L 561.2419 -298.639065 
L 543.5358 -300.940125 
L 525.8297 -297.140961 
L 508.1236 -295.766579 
L 490.4175 -295.206514 
L 472.7114 -300.925476 
L 455.0053 -295.258552 
L 437.2992 -297.006436 
L 419.5931 -302.918842 
L 401.887 -297.973187 
L 384.1809 -303.298861 
L 366.4748 -295.551988 
L 348.7687 -290.320761 
L 331.0626 -295.025668 
L 313.3565 -297.285549 
L 295.6504 -297.77848 
L 277.9443 -297.970261 
L 260.2382 -297.468827 
L 242.5321 -301.113891 
L 224.826 -305.530116 
L 207.1199 -301.644378 
L 189.4138 -304.726789 
L 171.7077 -304.864867 
L 154.0016 -297.36574 
L 136.2955 -302.579952 
L 118.5894 -297.267212 
L 100.8833 -294.52613 
L 83.1772 -302.624713 
L 65.4711 -297.729914 
L 47.765 -294.1153 
z
" style="stroke: #d62728; stroke-opacity: 0.2"/>
    </defs>
    <g clip-path="url(#pfde46f2058)">
     <use xlink:href="#md89d9b2b9c" x="0" y="648" style="fill: #d62728; fill-opacity: 0.2; stroke: #d62728; stroke-opacity: 0.2"/>
    </g>
   </g>
   <g id="PolyCollection_5">
    <defs>
     <path id="m067c54ea9e" d="M 47.765 -285.870427 
L 47.765 -238.658633 
L 65.4711 -246.64894 
L 83.1772 -238.42333 
L 100.8833 -242.31344 
L 118.5894 -246.600767 
L 136.2955 -247.217403 
L 154.0016 -245.78219 
L 171.7077 -252.380487 
L 189.4138 -251.352726 
L 207.1199 -251.19701 
L 224.826 -249.921725 
L 242.5321 -253.884041 
L 260.2382 -250.411687 
L 277.9443 -250.886397 
L 295.6504 -250.358609 
L 313.3565 -251.325401 
L 331.0626 -257.291547 
L 348.7687 -268.039883 
L 366.4748 -260.456226 
L 384.1809 -268.720111 
L 401.887 -271.344918 
L 419.5931 -266.623683 
L 437.2992 -269.302068 
L 455.0053 -267.021839 
L 472.7114 -270.341085 
L 490.4175 -267.208486 
L 508.1236 -269.921365 
L 525.8297 -272.00362 
L 543.5358 -272.524754 
L 561.2419 -270.134727 
L 578.948 -271.704098 
L 596.6541 -274.798571 
L 614.3602 -271.23729 
L 632.0663 -271.417525 
L 649.7724 -278.314029 
L 667.4785 -270.506895 
L 685.1846 -275.295801 
L 702.8907 -275.083702 
L 720.5968 -279.253853 
L 738.3029 -278.481091 
L 756.009 -282.940922 
L 773.7151 -278.786551 
L 791.4212 -278.924027 
L 809.1273 -274.761836 
L 826.8334 -281.725775 
L 844.5395 -276.708713 
L 862.2456 -278.877797 
L 879.9517 -279.79204 
L 897.6578 -284.259318 
L 915.3639 -280.189814 
L 933.07 -280.010465 
L 933.07 -322.15426 
L 933.07 -322.15426 
L 915.3639 -317.941543 
L 897.6578 -326.509113 
L 879.9517 -323.576442 
L 862.2456 -317.065709 
L 844.5395 -325.283429 
L 826.8334 -319.066835 
L 809.1273 -318.251615 
L 791.4212 -318.179652 
L 773.7151 -322.754815 
L 756.009 -320.669171 
L 738.3029 -318.042483 
L 720.5968 -321.794026 
L 702.8907 -318.52389 
L 685.1846 -314.903616 
L 667.4785 -317.596177 
L 649.7724 -322.199774 
L 632.0663 -310.255342 
L 614.3602 -311.70045 
L 596.6541 -317.052275 
L 578.948 -314.734972 
L 561.2419 -318.255223 
L 543.5358 -314.637649 
L 525.8297 -316.640952 
L 508.1236 -306.660862 
L 490.4175 -315.752034 
L 472.7114 -310.253487 
L 455.0053 -310.354464 
L 437.2992 -303.991741 
L 419.5931 -303.038091 
L 401.887 -309.495712 
L 384.1809 -309.481343 
L 366.4748 -296.422423 
L 348.7687 -303.344722 
L 331.0626 -299.952218 
L 313.3565 -294.855147 
L 295.6504 -303.253337 
L 277.9443 -291.903533 
L 260.2382 -290.498371 
L 242.5321 -294.296799 
L 224.826 -295.962788 
L 207.1199 -293.979738 
L 189.4138 -285.97102 
L 171.7077 -294.689407 
L 154.0016 -296.264643 
L 136.2955 -294.564639 
L 118.5894 -295.436541 
L 100.8833 -286.774367 
L 83.1772 -290.276342 
L 65.4711 -291.335163 
L 47.765 -285.870427 
z
" style="stroke: #9467bd; stroke-opacity: 0.2"/>
    </defs>
    <g clip-path="url(#pfde46f2058)">
     <use xlink:href="#m067c54ea9e" x="0" y="648" style="fill: #9467bd; fill-opacity: 0.2; stroke: #9467bd; stroke-opacity: 0.2"/>
    </g>
   </g>
   <g id="PolyCollection_6">
    <defs>
     <path id="m344e934e36" d="M 47.765 -270.564432 
L 47.765 -231.537966 
L 65.4711 -225.246829 
L 83.1772 -226.058034 
L 100.8833 -227.824817 
L 118.5894 -233.321054 
L 136.2955 -240.210073 
L 154.0016 -232.87314 
L 171.7077 -238.295047 
L 189.4138 -239.404188 
L 207.1199 -237.779733 
L 224.826 -246.316639 
L 242.5321 -243.471151 
L 260.2382 -247.647308 
L 277.9443 -254.94725 
L 295.6504 -251.694722 
L 313.3565 -254.584822 
L 331.0626 -251.767895 
L 348.7687 -248.659502 
L 366.4748 -255.319166 
L 384.1809 -255.236071 
L 401.887 -259.051775 
L 419.5931 -259.625883 
L 437.2992 -251.090968 
L 455.0053 -257.3584 
L 472.7114 -254.993585 
L 490.4175 -258.197446 
L 508.1236 -251.617348 
L 525.8297 -262.967447 
L 543.5358 -258.407462 
L 561.2419 -259.498303 
L 578.948 -263.917113 
L 596.6541 -259.409422 
L 614.3602 -259.408744 
L 632.0663 -262.503787 
L 649.7724 -252.268938 
L 667.4785 -254.060789 
L 685.1846 -253.933637 
L 702.8907 -259.255558 
L 720.5968 -260.215264 
L 738.3029 -259.766928 
L 756.009 -262.20108 
L 773.7151 -266.683843 
L 791.4212 -254.720659 
L 809.1273 -264.963838 
L 826.8334 -257.077703 
L 844.5395 -262.121001 
L 862.2456 -270.754376 
L 879.9517 -268.380327 
L 897.6578 -261.457499 
L 915.3639 -267.461066 
L 933.07 -269.539449 
L 933.07 -307.95084 
L 933.07 -307.95084 
L 915.3639 -307.818406 
L 897.6578 -299.656005 
L 879.9517 -309.0941 
L 862.2456 -307.842252 
L 844.5395 -299.70227 
L 826.8334 -306.939058 
L 809.1273 -300.616398 
L 791.4212 -302.522883 
L 773.7151 -305.314856 
L 756.009 -306.328787 
L 738.3029 -297.718406 
L 720.5968 -300.752155 
L 702.8907 -294.461898 
L 685.1846 -304.505618 
L 667.4785 -296.507285 
L 649.7724 -304.896889 
L 632.0663 -305.992961 
L 614.3602 -289.977246 
L 596.6541 -300.651402 
L 578.948 -301.967508 
L 561.2419 -298.429317 
L 543.5358 -294.739671 
L 525.8297 -301.258848 
L 508.1236 -296.270503 
L 490.4175 -299.435225 
L 472.7114 -298.233743 
L 455.0053 -293.608736 
L 437.2992 -293.29772 
L 419.5931 -293.662224 
L 401.887 -295.958146 
L 384.1809 -300.568409 
L 366.4748 -288.837139 
L 348.7687 -295.059045 
L 331.0626 -290.971289 
L 313.3565 -293.673113 
L 295.6504 -288.801895 
L 277.9443 -296.3406 
L 260.2382 -286.30269 
L 242.5321 -282.447847 
L 224.826 -281.291501 
L 207.1199 -278.821761 
L 189.4138 -281.902246 
L 171.7077 -274.344987 
L 154.0016 -268.477589 
L 136.2955 -274.586761 
L 118.5894 -268.776603 
L 100.8833 -272.104341 
L 83.1772 -263.395794 
L 65.4711 -267.361703 
L 47.765 -270.564432 
z
" style="stroke: #8c564b; stroke-opacity: 0.2"/>
    </defs>
    <g clip-path="url(#pfde46f2058)">
     <use xlink:href="#m344e934e36" x="0" y="648" style="fill: #8c564b; fill-opacity: 0.2; stroke: #8c564b; stroke-opacity: 0.2"/>
    </g>
   </g>
   <g id="PolyCollection_7">
    <defs>
     <path id="m566222d362" d="M 47.765 -270.282375 
L 47.765 -230.124101 
L 65.4711 -231.073954 
L 83.1772 -232.059526 
L 100.8833 -234.424886 
L 118.5894 -235.894 
L 136.2955 -235.503242 
L 154.0016 -238.753653 
L 171.7077 -235.561239 
L 189.4138 -237.027694 
L 207.1199 -235.022041 
L 224.826 -239.149883 
L 242.5321 -239.977041 
L 260.2382 -240.002458 
L 277.9443 -241.279975 
L 295.6504 -244.461229 
L 313.3565 -242.542324 
L 331.0626 -241.281683 
L 348.7687 -246.356666 
L 366.4748 -243.506193 
L 384.1809 -243.945305 
L 401.887 -251.967567 
L 419.5931 -244.932995 
L 437.2992 -246.822168 
L 455.0053 -240.594354 
L 472.7114 -249.497343 
L 490.4175 -246.676411 
L 508.1236 -247.871074 
L 525.8297 -243.972408 
L 543.5358 -252.449463 
L 561.2419 -244.339786 
L 578.948 -248.995738 
L 596.6541 -243.346097 
L 614.3602 -241.526219 
L 632.0663 -246.200971 
L 649.7724 -247.788729 
L 667.4785 -251.898005 
L 685.1846 -255.138044 
L 702.8907 -250.669633 
L 720.5968 -256.059828 
L 738.3029 -248.961473 
L 756.009 -250.758333 
L 773.7151 -258.518607 
L 791.4212 -253.912094 
L 809.1273 -253.798895 
L 826.8334 -255.106293 
L 844.5395 -252.605277 
L 862.2456 -260.374217 
L 879.9517 -264.301911 
L 897.6578 -262.22787 
L 915.3639 -252.040725 
L 933.07 -257.406564 
L 933.07 -295.51615 
L 933.07 -295.51615 
L 915.3639 -295.610756 
L 897.6578 -302.279144 
L 879.9517 -298.447869 
L 862.2456 -300.215803 
L 844.5395 -290.760734 
L 826.8334 -297.509278 
L 809.1273 -291.595547 
L 791.4212 -293.557929 
L 773.7151 -296.452797 
L 756.009 -287.130892 
L 738.3029 -289.524696 
L 720.5968 -292.468946 
L 702.8907 -285.024578 
L 685.1846 -286.330293 
L 667.4785 -287.797743 
L 649.7724 -286.215482 
L 632.0663 -285.778794 
L 614.3602 -289.181674 
L 596.6541 -284.953801 
L 578.948 -286.525178 
L 561.2419 -284.888168 
L 543.5358 -288.094977 
L 525.8297 -287.123022 
L 508.1236 -286.071877 
L 490.4175 -284.160513 
L 472.7114 -283.309445 
L 455.0053 -285.302502 
L 437.2992 -285.220721 
L 419.5931 -277.10516 
L 401.887 -283.562322 
L 384.1809 -285.913659 
L 366.4748 -279.169981 
L 348.7687 -287.784203 
L 331.0626 -279.440977 
L 313.3565 -272.361699 
L 295.6504 -278.861693 
L 277.9443 -269.446824 
L 260.2382 -280.252572 
L 242.5321 -276.61913 
L 224.826 -275.511733 
L 207.1199 -277.045016 
L 189.4138 -269.797669 
L 171.7077 -274.291545 
L 154.0016 -271.663625 
L 136.2955 -268.343787 
L 118.5894 -264.363382 
L 100.8833 -265.324499 
L 83.1772 -261.040707 
L 65.4711 -261.09373 
L 47.765 -270.282375 
z
" style="stroke: #e377c2; stroke-opacity: 0.2"/>
    </defs>
    <g clip-path="url(#pfde46f2058)">
     <use xlink:href="#m566222d362" x="0" y="648" style="fill: #e377c2; fill-opacity: 0.2; stroke: #e377c2; stroke-opacity: 0.2"/>
    </g>
   </g>
   <g id="PolyCollection_8">
    <defs>
     <path id="md3a614f7f6" d="M 47.765 -269.14891 
L 47.765 -228.282783 
L 65.4711 -224.603042 
L 83.1772 -232.904688 
L 100.8833 -237.696168 
L 118.5894 -235.616245 
L 136.2955 -240.554229 
L 154.0016 -239.082432 
L 171.7077 -244.150851 
L 189.4138 -238.488892 
L 207.1199 -237.299451 
L 224.826 -244.329365 
L 242.5321 -241.756163 
L 260.2382 -244.618499 
L 277.9443 -247.725532 
L 295.6504 -252.843634 
L 313.3565 -252.681251 
L 331.0626 -251.945891 
L 348.7687 -253.943665 
L 366.4748 -253.994938 
L 384.1809 -248.832171 
L 401.887 -252.358856 
L 419.5931 -251.831073 
L 437.2992 -260.302665 
L 455.0053 -255.92479 
L 472.7114 -253.726782 
L 490.4175 -253.499272 
L 508.1236 -256.914897 
L 525.8297 -254.186983 
L 543.5358 -255.104787 
L 561.2419 -252.31515 
L 578.948 -256.116792 
L 596.6541 -262.155503 
L 614.3602 -255.397922 
L 632.0663 -256.488985 
L 649.7724 -257.503342 
L 667.4785 -264.214962 
L 685.1846 -261.388939 
L 702.8907 -259.713891 
L 720.5968 -258.735641 
L 738.3029 -258.409778 
L 756.009 -259.449411 
L 773.7151 -259.971717 
L 791.4212 -262.774379 
L 809.1273 -260.241725 
L 826.8334 -259.189209 
L 844.5395 -261.887722 
L 862.2456 -265.997801 
L 879.9517 -262.009651 
L 897.6578 -262.71372 
L 915.3639 -273.420383 
L 933.07 -266.75329 
L 933.07 -308.784728 
L 933.07 -308.784728 
L 915.3639 -315.126097 
L 897.6578 -295.277898 
L 879.9517 -301.34508 
L 862.2456 -304.115132 
L 844.5395 -307.174111 
L 826.8334 -303.971044 
L 809.1273 -297.752534 
L 791.4212 -297.973923 
L 773.7151 -298.570597 
L 756.009 -302.44698 
L 738.3029 -300.807391 
L 720.5968 -302.249401 
L 702.8907 -289.714203 
L 685.1846 -304.604249 
L 667.4785 -298.327956 
L 649.7724 -296.334131 
L 632.0663 -296.424364 
L 614.3602 -294.480751 
L 596.6541 -297.20921 
L 578.948 -295.497658 
L 561.2419 -290.549472 
L 543.5358 -301.089676 
L 525.8297 -288.148498 
L 508.1236 -296.693033 
L 490.4175 -293.99424 
L 472.7114 -295.559866 
L 455.0053 -300.437035 
L 437.2992 -297.439413 
L 419.5931 -286.402393 
L 401.887 -290.715677 
L 384.1809 -285.07273 
L 366.4748 -295.791602 
L 348.7687 -289.452181 
L 331.0626 -290.662926 
L 313.3565 -286.567619 
L 295.6504 -291.033141 
L 277.9443 -288.690734 
L 260.2382 -280.119096 
L 242.5321 -286.584013 
L 224.826 -278.757579 
L 207.1199 -276.879454 
L 189.4138 -273.443611 
L 171.7077 -280.553088 
L 154.0016 -273.850266 
L 136.2955 -274.266207 
L 118.5894 -272.819366 
L 100.8833 -268.362131 
L 83.1772 -268.049098 
L 65.4711 -264.703627 
L 47.765 -269.14891 
z
" style="stroke: #7f7f7f; stroke-opacity: 0.2"/>
    </defs>
    <g clip-path="url(#pfde46f2058)">
     <use xlink:href="#md3a614f7f6" x="0" y="648" style="fill: #7f7f7f; fill-opacity: 0.2; stroke: #7f7f7f; stroke-opacity: 0.2"/>
    </g>
   </g>
   <g id="PolyCollection_9">
    <defs>
     <path id="m20a29f3818" d="M 47.765 -285.581881 
L 47.765 -245.723888 
L 65.4711 -244.361059 
L 83.1772 -241.144895 
L 100.8833 -252.027394 
L 118.5894 -249.970962 
L 136.2955 -250.46201 
L 154.0016 -254.52983 
L 171.7077 -257.805713 
L 189.4138 -256.630786 
L 207.1199 -258.294402 
L 224.826 -260.039901 
L 242.5321 -254.880466 
L 260.2382 -256.488333 
L 277.9443 -258.607822 
L 295.6504 -257.622503 
L 313.3565 -257.664042 
L 331.0626 -258.356046 
L 348.7687 -262.682151 
L 366.4748 -260.46803 
L 384.1809 -260.255234 
L 401.887 -262.520925 
L 419.5931 -260.324858 
L 437.2992 -260.878718 
L 455.0053 -259.187317 
L 472.7114 -259.173867 
L 490.4175 -263.506683 
L 508.1236 -260.099833 
L 525.8297 -264.232793 
L 543.5358 -260.256652 
L 561.2419 -258.746781 
L 578.948 -272.129356 
L 596.6541 -265.029028 
L 614.3602 -257.175515 
L 632.0663 -265.893692 
L 649.7724 -263.562204 
L 667.4785 -266.640879 
L 685.1846 -262.686263 
L 702.8907 -269.019406 
L 720.5968 -262.276617 
L 738.3029 -265.417551 
L 756.009 -270.607003 
L 773.7151 -263.183575 
L 791.4212 -254.436408 
L 809.1273 -267.988782 
L 826.8334 -263.286114 
L 844.5395 -265.100455 
L 862.2456 -263.427538 
L 879.9517 -264.334749 
L 897.6578 -268.327036 
L 915.3639 -263.520994 
L 933.07 -264.742355 
L 933.07 -307.92374 
L 933.07 -307.92374 
L 915.3639 -298.651327 
L 897.6578 -303.759717 
L 879.9517 -309.837467 
L 862.2456 -299.883065 
L 844.5395 -307.541239 
L 826.8334 -303.444065 
L 809.1273 -304.403181 
L 791.4212 -300.67952 
L 773.7151 -312.200698 
L 756.009 -300.904387 
L 738.3029 -302.050038 
L 720.5968 -305.339067 
L 702.8907 -305.908595 
L 685.1846 -304.507197 
L 667.4785 -306.844592 
L 649.7724 -309.626551 
L 632.0663 -302.136797 
L 614.3602 -304.617902 
L 596.6541 -301.643957 
L 578.948 -307.120041 
L 561.2419 -302.672239 
L 543.5358 -301.114306 
L 525.8297 -307.914181 
L 508.1236 -297.267253 
L 490.4175 -294.133987 
L 472.7114 -299.489696 
L 455.0053 -296.55968 
L 437.2992 -309.623995 
L 419.5931 -300.727465 
L 401.887 -302.572232 
L 384.1809 -302.552165 
L 366.4748 -300.977614 
L 348.7687 -300.407264 
L 331.0626 -304.529398 
L 313.3565 -300.713279 
L 295.6504 -301.956918 
L 277.9443 -293.199889 
L 260.2382 -296.777995 
L 242.5321 -292.707611 
L 224.826 -303.799939 
L 207.1199 -297.383481 
L 189.4138 -299.439467 
L 171.7077 -293.860744 
L 154.0016 -286.581747 
L 136.2955 -285.126602 
L 118.5894 -285.670776 
L 100.8833 -281.081178 
L 83.1772 -278.329034 
L 65.4711 -288.319135 
L 47.765 -285.581881 
z
" style="stroke: #bcbd22; stroke-opacity: 0.2"/>
    </defs>
    <g clip-path="url(#pfde46f2058)">
     <use xlink:href="#m20a29f3818" x="0" y="648" style="fill: #bcbd22; fill-opacity: 0.2; stroke: #bcbd22; stroke-opacity: 0.2"/>
    </g>
   </g>
   <g id="PolyCollection_10">
    <defs>
     <path id="m4b8c269051" d="M 47.765 -286.63732 
L 47.765 -237.721537 
L 65.4711 -241.78874 
L 83.1772 -243.18027 
L 100.8833 -243.996325 
L 118.5894 -245.301475 
L 136.2955 -244.334868 
L 154.0016 -244.551406 
L 171.7077 -241.925739 
L 189.4138 -249.819275 
L 207.1199 -246.076639 
L 224.826 -248.451851 
L 242.5321 -247.302093 
L 260.2382 -251.092084 
L 277.9443 -251.167207 
L 295.6504 -253.285519 
L 313.3565 -251.961943 
L 331.0626 -247.562474 
L 348.7687 -248.923372 
L 366.4748 -250.141103 
L 384.1809 -259.638892 
L 401.887 -249.051973 
L 419.5931 -251.09266 
L 437.2992 -251.780288 
L 455.0053 -251.78045 
L 472.7114 -247.752662 
L 490.4175 -255.218525 
L 508.1236 -250.85003 
L 525.8297 -248.73247 
L 543.5358 -255.704637 
L 561.2419 -253.717472 
L 578.948 -249.889404 
L 596.6541 -259.866229 
L 614.3602 -249.630209 
L 632.0663 -253.808742 
L 649.7724 -255.678928 
L 667.4785 -252.618706 
L 685.1846 -249.297233 
L 702.8907 -255.26501 
L 720.5968 -258.860472 
L 738.3029 -259.848585 
L 756.009 -255.470296 
L 773.7151 -256.122886 
L 791.4212 -257.974185 
L 809.1273 -262.77922 
L 826.8334 -261.938037 
L 844.5395 -264.147772 
L 862.2456 -271.94944 
L 879.9517 -260.199462 
L 897.6578 -268.585744 
L 915.3639 -264.454228 
L 933.07 -266.425456 
L 933.07 -308.479954 
L 933.07 -308.479954 
L 915.3639 -304.792362 
L 897.6578 -301.8265 
L 879.9517 -296.469233 
L 862.2456 -306.963948 
L 844.5395 -305.635432 
L 826.8334 -302.78675 
L 809.1273 -300.597532 
L 791.4212 -303.946586 
L 773.7151 -286.800762 
L 756.009 -290.465897 
L 738.3029 -299.437809 
L 720.5968 -291.049001 
L 702.8907 -291.35289 
L 685.1846 -289.922947 
L 667.4785 -295.14614 
L 649.7724 -291.342402 
L 632.0663 -286.693849 
L 614.3602 -287.323532 
L 596.6541 -290.855286 
L 578.948 -282.98572 
L 561.2419 -291.383505 
L 543.5358 -291.814516 
L 525.8297 -287.915278 
L 508.1236 -287.967965 
L 490.4175 -287.433429 
L 472.7114 -290.841072 
L 455.0053 -292.006272 
L 437.2992 -290.491552 
L 419.5931 -286.999988 
L 401.887 -286.074865 
L 384.1809 -284.893723 
L 366.4748 -285.279695 
L 348.7687 -280.894422 
L 331.0626 -288.267641 
L 313.3565 -284.445535 
L 295.6504 -283.412501 
L 277.9443 -283.060977 
L 260.2382 -286.230221 
L 242.5321 -277.549048 
L 224.826 -286.903633 
L 207.1199 -279.123814 
L 189.4138 -276.935442 
L 171.7077 -269.844764 
L 154.0016 -278.014038 
L 136.2955 -274.100073 
L 118.5894 -279.125506 
L 100.8833 -278.793823 
L 83.1772 -275.58427 
L 65.4711 -283.548198 
L 47.765 -286.63732 
z
" style="stroke: #17becf; stroke-opacity: 0.2"/>
    </defs>
    <g clip-path="url(#pfde46f2058)">
     <use xlink:href="#m4b8c269051" x="0" y="648" style="fill: #17becf; fill-opacity: 0.2; stroke: #17becf; stroke-opacity: 0.2"/>
    </g>
   </g>
   <g id="PolyCollection_11">
    <defs>
     <path id="m0c4a0041d5" d="M 47.765 -274.726089 
L 47.765 -237.633066 
L 65.4711 -249.964087 
L 83.1772 -238.944142 
L 100.8833 -243.947418 
L 118.5894 -234.561539 
L 136.2955 -241.999761 
L 154.0016 -237.880198 
L 171.7077 -241.027013 
L 189.4138 -242.677508 
L 207.1199 -238.774814 
L 224.826 -237.09412 
L 242.5321 -238.486406 
L 260.2382 -244.526364 
L 277.9443 -238.688814 
L 295.6504 -238.970767 
L 313.3565 -250.767446 
L 331.0626 -245.480037 
L 348.7687 -247.352805 
L 366.4748 -246.265588 
L 384.1809 -246.785082 
L 401.887 -242.129727 
L 419.5931 -243.253423 
L 437.2992 -247.121142 
L 455.0053 -244.503739 
L 472.7114 -250.880199 
L 490.4175 -250.674849 
L 508.1236 -248.326296 
L 525.8297 -249.090817 
L 543.5358 -254.222401 
L 561.2419 -250.149126 
L 578.948 -247.194881 
L 596.6541 -248.986087 
L 614.3602 -258.645591 
L 632.0663 -251.914093 
L 649.7724 -256.686578 
L 667.4785 -256.437839 
L 685.1846 -255.120105 
L 702.8907 -252.655317 
L 720.5968 -258.453352 
L 738.3029 -253.33501 
L 756.009 -265.342634 
L 773.7151 -254.516671 
L 791.4212 -258.241125 
L 809.1273 -266.989808 
L 826.8334 -261.694901 
L 844.5395 -261.22254 
L 862.2456 -263.69965 
L 879.9517 -261.774143 
L 897.6578 -264.167586 
L 915.3639 -269.785223 
L 933.07 -266.450887 
L 933.07 -301.452551 
L 933.07 -301.452551 
L 915.3639 -307.92718 
L 897.6578 -300.622 
L 879.9517 -307.972248 
L 862.2456 -303.984269 
L 844.5395 -300.715475 
L 826.8334 -294.515449 
L 809.1273 -305.023308 
L 791.4212 -299.855979 
L 773.7151 -289.803867 
L 756.009 -299.830489 
L 738.3029 -302.636359 
L 720.5968 -290.662781 
L 702.8907 -298.27757 
L 685.1846 -294.918324 
L 667.4785 -298.877065 
L 649.7724 -296.083685 
L 632.0663 -295.182166 
L 614.3602 -297.947217 
L 596.6541 -292.286797 
L 578.948 -288.202602 
L 561.2419 -293.171028 
L 543.5358 -287.981909 
L 525.8297 -291.295004 
L 508.1236 -281.924414 
L 490.4175 -283.264742 
L 472.7114 -285.612017 
L 455.0053 -285.505638 
L 437.2992 -285.103585 
L 419.5931 -277.392866 
L 401.887 -275.74889 
L 384.1809 -284.312477 
L 366.4748 -280.595199 
L 348.7687 -281.542504 
L 331.0626 -283.570817 
L 313.3565 -285.482015 
L 295.6504 -277.542203 
L 277.9443 -270.712318 
L 260.2382 -272.128953 
L 242.5321 -270.750734 
L 224.826 -277.375547 
L 207.1199 -270.867133 
L 189.4138 -275.186408 
L 171.7077 -273.97116 
L 154.0016 -276.374452 
L 136.2955 -278.874921 
L 118.5894 -271.201828 
L 100.8833 -280.357424 
L 83.1772 -278.780492 
L 65.4711 -281.931348 
L 47.765 -274.726089 
z
" style="stroke: #9edae5; stroke-opacity: 0.2"/>
    </defs>
    <g clip-path="url(#pfde46f2058)">
     <use xlink:href="#m0c4a0041d5" x="0" y="648" style="fill: #9edae5; fill-opacity: 0.2; stroke: #9edae5; stroke-opacity: 0.2"/>
    </g>
   </g>
   <g id="matplotlib.axis_1">
    <g id="xtick_1">
     <g id="line2d_1">
      <defs>
       <path id="mdeefc7cd43" d="M 0 0 
L 0 3.5 
" style="stroke: #000000; stroke-width: 0.8"/>
      </defs>
      <g>
       <use xlink:href="#mdeefc7cd43" x="47.765" y="606.04" style="stroke: #000000; stroke-width: 0.8"/>
      </g>
     </g>
     <g id="text_1">
      <!-- 30 -->
      <g transform="translate(41.4025 620.638438) scale(0.1 -0.1)">
       <defs>
        <path id="DejaVuSans-33" d="M 2597 2516 
Q 3050 2419 3304 2112 
Q 3559 1806 3559 1356 
Q 3559 666 3084 287 
Q 2609 -91 1734 -91 
Q 1441 -91 1130 -33 
Q 819 25 488 141 
L 488 750 
Q 750 597 1062 519 
Q 1375 441 1716 441 
Q 2309 441 2620 675 
Q 2931 909 2931 1356 
Q 2931 1769 2642 2001 
Q 2353 2234 1838 2234 
L 1294 2234 
L 1294 2753 
L 1863 2753 
Q 2328 2753 2575 2939 
Q 2822 3125 2822 3475 
Q 2822 3834 2567 4026 
Q 2313 4219 1838 4219 
Q 1578 4219 1281 4162 
Q 984 4106 628 3988 
L 628 4550 
Q 988 4650 1302 4700 
Q 1616 4750 1894 4750 
Q 2613 4750 3031 4423 
Q 3450 4097 3450 3541 
Q 3450 3153 3228 2886 
Q 3006 2619 2597 2516 
z
" transform="scale(0.015625)"/>
        <path id="DejaVuSans-30" d="M 2034 4250 
Q 1547 4250 1301 3770 
Q 1056 3291 1056 2328 
Q 1056 1369 1301 889 
Q 1547 409 2034 409 
Q 2525 409 2770 889 
Q 3016 1369 3016 2328 
Q 3016 3291 2770 3770 
Q 2525 4250 2034 4250 
z
M 2034 4750 
Q 2819 4750 3233 4129 
Q 3647 3509 3647 2328 
Q 3647 1150 3233 529 
Q 2819 -91 2034 -91 
Q 1250 -91 836 529 
Q 422 1150 422 2328 
Q 422 3509 836 4129 
Q 1250 4750 2034 4750 
z
" transform="scale(0.015625)"/>
       </defs>
       <use xlink:href="#DejaVuSans-33"/>
       <use xlink:href="#DejaVuSans-30" x="63.623047"/>
      </g>
     </g>
    </g>
    <g id="xtick_2">
     <g id="line2d_2">
      <g>
       <use xlink:href="#mdeefc7cd43" x="224.826" y="606.04" style="stroke: #000000; stroke-width: 0.8"/>
      </g>
     </g>
     <g id="text_2">
      <!-- 40 -->
      <g transform="translate(218.4635 620.638438) scale(0.1 -0.1)">
       <defs>
        <path id="DejaVuSans-34" d="M 2419 4116 
L 825 1625 
L 2419 1625 
L 2419 4116 
z
M 2253 4666 
L 3047 4666 
L 3047 1625 
L 3713 1625 
L 3713 1100 
L 3047 1100 
L 3047 0 
L 2419 0 
L 2419 1100 
L 313 1100 
L 313 1709 
L 2253 4666 
z
" transform="scale(0.015625)"/>
       </defs>
       <use xlink:href="#DejaVuSans-34"/>
       <use xlink:href="#DejaVuSans-30" x="63.623047"/>
      </g>
     </g>
    </g>
    <g id="xtick_3">
     <g id="line2d_3">
      <g>
       <use xlink:href="#mdeefc7cd43" x="401.887" y="606.04" style="stroke: #000000; stroke-width: 0.8"/>
      </g>
     </g>
     <g id="text_3">
      <!-- 50 -->
      <g transform="translate(395.5245 620.638438) scale(0.1 -0.1)">
       <defs>
        <path id="DejaVuSans-35" d="M 691 4666 
L 3169 4666 
L 3169 4134 
L 1269 4134 
L 1269 2991 
Q 1406 3038 1543 3061 
Q 1681 3084 1819 3084 
Q 2600 3084 3056 2656 
Q 3513 2228 3513 1497 
Q 3513 744 3044 326 
Q 2575 -91 1722 -91 
Q 1428 -91 1123 -41 
Q 819 9 494 109 
L 494 744 
Q 775 591 1075 516 
Q 1375 441 1709 441 
Q 2250 441 2565 725 
Q 2881 1009 2881 1497 
Q 2881 1984 2565 2268 
Q 2250 2553 1709 2553 
Q 1456 2553 1204 2497 
Q 953 2441 691 2322 
L 691 4666 
z
" transform="scale(0.015625)"/>
       </defs>
       <use xlink:href="#DejaVuSans-35"/>
       <use xlink:href="#DejaVuSans-30" x="63.623047"/>
      </g>
     </g>
    </g>
    <g id="xtick_4">
     <g id="line2d_4">
      <g>
       <use xlink:href="#mdeefc7cd43" x="578.948" y="606.04" style="stroke: #000000; stroke-width: 0.8"/>
      </g>
     </g>
     <g id="text_4">
      <!-- 60 -->
      <g transform="translate(572.5855 620.638438) scale(0.1 -0.1)">
       <defs>
        <path id="DejaVuSans-36" d="M 2113 2584 
Q 1688 2584 1439 2293 
Q 1191 2003 1191 1497 
Q 1191 994 1439 701 
Q 1688 409 2113 409 
Q 2538 409 2786 701 
Q 3034 994 3034 1497 
Q 3034 2003 2786 2293 
Q 2538 2584 2113 2584 
z
M 3366 4563 
L 3366 3988 
Q 3128 4100 2886 4159 
Q 2644 4219 2406 4219 
Q 1781 4219 1451 3797 
Q 1122 3375 1075 2522 
Q 1259 2794 1537 2939 
Q 1816 3084 2150 3084 
Q 2853 3084 3261 2657 
Q 3669 2231 3669 1497 
Q 3669 778 3244 343 
Q 2819 -91 2113 -91 
Q 1303 -91 875 529 
Q 447 1150 447 2328 
Q 447 3434 972 4092 
Q 1497 4750 2381 4750 
Q 2619 4750 2861 4703 
Q 3103 4656 3366 4563 
z
" transform="scale(0.015625)"/>
       </defs>
       <use xlink:href="#DejaVuSans-36"/>
       <use xlink:href="#DejaVuSans-30" x="63.623047"/>
      </g>
     </g>
    </g>
    <g id="xtick_5">
     <g id="line2d_5">
      <g>
       <use xlink:href="#mdeefc7cd43" x="756.009" y="606.04" style="stroke: #000000; stroke-width: 0.8"/>
      </g>
     </g>
     <g id="text_5">
      <!-- 70 -->
      <g transform="translate(749.6465 620.638438) scale(0.1 -0.1)">
       <defs>
        <path id="DejaVuSans-37" d="M 525 4666 
L 3525 4666 
L 3525 4397 
L 1831 0 
L 1172 0 
L 2766 4134 
L 525 4134 
L 525 4666 
z
" transform="scale(0.015625)"/>
       </defs>
       <use xlink:href="#DejaVuSans-37"/>
       <use xlink:href="#DejaVuSans-30" x="63.623047"/>
      </g>
     </g>
    </g>
    <g id="xtick_6">
     <g id="line2d_6">
      <g>
       <use xlink:href="#mdeefc7cd43" x="933.07" y="606.04" style="stroke: #000000; stroke-width: 0.8"/>
      </g>
     </g>
     <g id="text_6">
      <!-- 80 -->
      <g transform="translate(926.7075 620.638438) scale(0.1 -0.1)">
       <defs>
        <path id="DejaVuSans-38" d="M 2034 2216 
Q 1584 2216 1326 1975 
Q 1069 1734 1069 1313 
Q 1069 891 1326 650 
Q 1584 409 2034 409 
Q 2484 409 2743 651 
Q 3003 894 3003 1313 
Q 3003 1734 2745 1975 
Q 2488 2216 2034 2216 
z
M 1403 2484 
Q 997 2584 770 2862 
Q 544 3141 544 3541 
Q 544 4100 942 4425 
Q 1341 4750 2034 4750 
Q 2731 4750 3128 4425 
Q 3525 4100 3525 3541 
Q 3525 3141 3298 2862 
Q 3072 2584 2669 2484 
Q 3125 2378 3379 2068 
Q 3634 1759 3634 1313 
Q 3634 634 3220 271 
Q 2806 -91 2034 -91 
Q 1263 -91 848 271 
Q 434 634 434 1313 
Q 434 1759 690 2068 
Q 947 2378 1403 2484 
z
M 1172 3481 
Q 1172 3119 1398 2916 
Q 1625 2713 2034 2713 
Q 2441 2713 2670 2916 
Q 2900 3119 2900 3481 
Q 2900 3844 2670 4047 
Q 2441 4250 2034 4250 
Q 1625 4250 1398 4047 
Q 1172 3844 1172 3481 
z
" transform="scale(0.015625)"/>
       </defs>
       <use xlink:href="#DejaVuSans-38"/>
       <use xlink:href="#DejaVuSans-30" x="63.623047"/>
      </g>
     </g>
    </g>
    <g id="text_7">
     <!-- Number of Baits -->
     <g transform="translate(449.885469 634.316563) scale(0.1 -0.1)">
      <defs>
       <path id="DejaVuSans-4e" d="M 628 4666 
L 1478 4666 
L 3547 763 
L 3547 4666 
L 4159 4666 
L 4159 0 
L 3309 0 
L 1241 3903 
L 1241 0 
L 628 0 
L 628 4666 
z
" transform="scale(0.015625)"/>
       <path id="DejaVuSans-75" d="M 544 1381 
L 544 3500 
L 1119 3500 
L 1119 1403 
Q 1119 906 1312 657 
Q 1506 409 1894 409 
Q 2359 409 2629 706 
Q 2900 1003 2900 1516 
L 2900 3500 
L 3475 3500 
L 3475 0 
L 2900 0 
L 2900 538 
Q 2691 219 2414 64 
Q 2138 -91 1772 -91 
Q 1169 -91 856 284 
Q 544 659 544 1381 
z
M 1991 3584 
L 1991 3584 
z
" transform="scale(0.015625)"/>
       <path id="DejaVuSans-6d" d="M 3328 2828 
Q 3544 3216 3844 3400 
Q 4144 3584 4550 3584 
Q 5097 3584 5394 3201 
Q 5691 2819 5691 2113 
L 5691 0 
L 5113 0 
L 5113 2094 
Q 5113 2597 4934 2840 
Q 4756 3084 4391 3084 
Q 3944 3084 3684 2787 
Q 3425 2491 3425 1978 
L 3425 0 
L 2847 0 
L 2847 2094 
Q 2847 2600 2669 2842 
Q 2491 3084 2119 3084 
Q 1678 3084 1418 2786 
Q 1159 2488 1159 1978 
L 1159 0 
L 581 0 
L 581 3500 
L 1159 3500 
L 1159 2956 
Q 1356 3278 1631 3431 
Q 1906 3584 2284 3584 
Q 2666 3584 2933 3390 
Q 3200 3197 3328 2828 
z
" transform="scale(0.015625)"/>
       <path id="DejaVuSans-62" d="M 3116 1747 
Q 3116 2381 2855 2742 
Q 2594 3103 2138 3103 
Q 1681 3103 1420 2742 
Q 1159 2381 1159 1747 
Q 1159 1113 1420 752 
Q 1681 391 2138 391 
Q 2594 391 2855 752 
Q 3116 1113 3116 1747 
z
M 1159 2969 
Q 1341 3281 1617 3432 
Q 1894 3584 2278 3584 
Q 2916 3584 3314 3078 
Q 3713 2572 3713 1747 
Q 3713 922 3314 415 
Q 2916 -91 2278 -91 
Q 1894 -91 1617 61 
Q 1341 213 1159 525 
L 1159 0 
L 581 0 
L 581 4863 
L 1159 4863 
L 1159 2969 
z
" transform="scale(0.015625)"/>
       <path id="DejaVuSans-65" d="M 3597 1894 
L 3597 1613 
L 953 1613 
Q 991 1019 1311 708 
Q 1631 397 2203 397 
Q 2534 397 2845 478 
Q 3156 559 3463 722 
L 3463 178 
Q 3153 47 2828 -22 
Q 2503 -91 2169 -91 
Q 1331 -91 842 396 
Q 353 884 353 1716 
Q 353 2575 817 3079 
Q 1281 3584 2069 3584 
Q 2775 3584 3186 3129 
Q 3597 2675 3597 1894 
z
M 3022 2063 
Q 3016 2534 2758 2815 
Q 2500 3097 2075 3097 
Q 1594 3097 1305 2825 
Q 1016 2553 972 2059 
L 3022 2063 
z
" transform="scale(0.015625)"/>
       <path id="DejaVuSans-72" d="M 2631 2963 
Q 2534 3019 2420 3045 
Q 2306 3072 2169 3072 
Q 1681 3072 1420 2755 
Q 1159 2438 1159 1844 
L 1159 0 
L 581 0 
L 581 3500 
L 1159 3500 
L 1159 2956 
Q 1341 3275 1631 3429 
Q 1922 3584 2338 3584 
Q 2397 3584 2469 3576 
Q 2541 3569 2628 3553 
L 2631 2963 
z
" transform="scale(0.015625)"/>
       <path id="DejaVuSans-20" transform="scale(0.015625)"/>
       <path id="DejaVuSans-6f" d="M 1959 3097 
Q 1497 3097 1228 2736 
Q 959 2375 959 1747 
Q 959 1119 1226 758 
Q 1494 397 1959 397 
Q 2419 397 2687 759 
Q 2956 1122 2956 1747 
Q 2956 2369 2687 2733 
Q 2419 3097 1959 3097 
z
M 1959 3584 
Q 2709 3584 3137 3096 
Q 3566 2609 3566 1747 
Q 3566 888 3137 398 
Q 2709 -91 1959 -91 
Q 1206 -91 779 398 
Q 353 888 353 1747 
Q 353 2609 779 3096 
Q 1206 3584 1959 3584 
z
" transform="scale(0.015625)"/>
       <path id="DejaVuSans-66" d="M 2375 4863 
L 2375 4384 
L 1825 4384 
Q 1516 4384 1395 4259 
Q 1275 4134 1275 3809 
L 1275 3500 
L 2222 3500 
L 2222 3053 
L 1275 3053 
L 1275 0 
L 697 0 
L 697 3053 
L 147 3053 
L 147 3500 
L 697 3500 
L 697 3744 
Q 697 4328 969 4595 
Q 1241 4863 1831 4863 
L 2375 4863 
z
" transform="scale(0.015625)"/>
       <path id="DejaVuSans-42" d="M 1259 2228 
L 1259 519 
L 2272 519 
Q 2781 519 3026 730 
Q 3272 941 3272 1375 
Q 3272 1813 3026 2020 
Q 2781 2228 2272 2228 
L 1259 2228 
z
M 1259 4147 
L 1259 2741 
L 2194 2741 
Q 2656 2741 2882 2914 
Q 3109 3088 3109 3444 
Q 3109 3797 2882 3972 
Q 2656 4147 2194 4147 
L 1259 4147 
z
M 628 4666 
L 2241 4666 
Q 2963 4666 3353 4366 
Q 3744 4066 3744 3513 
Q 3744 3084 3544 2831 
Q 3344 2578 2956 2516 
Q 3422 2416 3680 2098 
Q 3938 1781 3938 1306 
Q 3938 681 3513 340 
Q 3088 0 2303 0 
L 628 0 
L 628 4666 
z
" transform="scale(0.015625)"/>
       <path id="DejaVuSans-61" d="M 2194 1759 
Q 1497 1759 1228 1600 
Q 959 1441 959 1056 
Q 959 750 1161 570 
Q 1363 391 1709 391 
Q 2188 391 2477 730 
Q 2766 1069 2766 1631 
L 2766 1759 
L 2194 1759 
z
M 3341 1997 
L 3341 0 
L 2766 0 
L 2766 531 
Q 2569 213 2275 61 
Q 1981 -91 1556 -91 
Q 1019 -91 701 211 
Q 384 513 384 1019 
Q 384 1609 779 1909 
Q 1175 2209 1959 2209 
L 2766 2209 
L 2766 2266 
Q 2766 2663 2505 2880 
Q 2244 3097 1772 3097 
Q 1472 3097 1187 3025 
Q 903 2953 641 2809 
L 641 3341 
Q 956 3463 1253 3523 
Q 1550 3584 1831 3584 
Q 2591 3584 2966 3190 
Q 3341 2797 3341 1997 
z
" transform="scale(0.015625)"/>
       <path id="DejaVuSans-69" d="M 603 3500 
L 1178 3500 
L 1178 0 
L 603 0 
L 603 3500 
z
M 603 4863 
L 1178 4863 
L 1178 4134 
L 603 4134 
L 603 4863 
z
" transform="scale(0.015625)"/>
       <path id="DejaVuSans-74" d="M 1172 4494 
L 1172 3500 
L 2356 3500 
L 2356 3053 
L 1172 3053 
L 1172 1153 
Q 1172 725 1289 603 
Q 1406 481 1766 481 
L 2356 481 
L 2356 0 
L 1766 0 
Q 1100 0 847 248 
Q 594 497 594 1153 
L 594 3053 
L 172 3053 
L 172 3500 
L 594 3500 
L 594 4494 
L 1172 4494 
z
" transform="scale(0.015625)"/>
       <path id="DejaVuSans-73" d="M 2834 3397 
L 2834 2853 
Q 2591 2978 2328 3040 
Q 2066 3103 1784 3103 
Q 1356 3103 1142 2972 
Q 928 2841 928 2578 
Q 928 2378 1081 2264 
Q 1234 2150 1697 2047 
L 1894 2003 
Q 2506 1872 2764 1633 
Q 3022 1394 3022 966 
Q 3022 478 2636 193 
Q 2250 -91 1575 -91 
Q 1294 -91 989 -36 
Q 684 19 347 128 
L 347 722 
Q 666 556 975 473 
Q 1284 391 1588 391 
Q 1994 391 2212 530 
Q 2431 669 2431 922 
Q 2431 1156 2273 1281 
Q 2116 1406 1581 1522 
L 1381 1569 
Q 847 1681 609 1914 
Q 372 2147 372 2553 
Q 372 3047 722 3315 
Q 1072 3584 1716 3584 
Q 2034 3584 2315 3537 
Q 2597 3491 2834 3397 
z
" transform="scale(0.015625)"/>
      </defs>
      <use xlink:href="#DejaVuSans-4e"/>
      <use xlink:href="#DejaVuSans-75" x="74.804688"/>
      <use xlink:href="#DejaVuSans-6d" x="138.183594"/>
      <use xlink:href="#DejaVuSans-62" x="235.595703"/>
      <use xlink:href="#DejaVuSans-65" x="299.072266"/>
      <use xlink:href="#DejaVuSans-72" x="360.595703"/>
      <use xlink:href="#DejaVuSans-20" x="401.708984"/>
      <use xlink:href="#DejaVuSans-6f" x="433.496094"/>
      <use xlink:href="#DejaVuSans-66" x="494.677734"/>
      <use xlink:href="#DejaVuSans-20" x="529.882812"/>
      <use xlink:href="#DejaVuSans-42" x="561.669922"/>
      <use xlink:href="#DejaVuSans-61" x="630.273438"/>
      <use xlink:href="#DejaVuSans-69" x="691.552734"/>
      <use xlink:href="#DejaVuSans-74" x="719.335938"/>
      <use xlink:href="#DejaVuSans-73" x="758.544922"/>
     </g>
    </g>
   </g>
   <g id="matplotlib.axis_2">
    <g id="ytick_1">
     <g id="line2d_7">
      <defs>
       <path id="maaa7128815" d="M 0 0 
L -3.5 0 
" style="stroke: #000000; stroke-width: 0.8"/>
      </defs>
      <g>
       <use xlink:href="#maaa7128815" x="47.765" y="606.04" style="stroke: #000000; stroke-width: 0.8"/>
      </g>
     </g>
     <g id="text_8">
      <!-- 0.0 -->
      <g transform="translate(24.861875 609.839219) scale(0.1 -0.1)">
       <defs>
        <path id="DejaVuSans-2e" d="M 684 794 
L 1344 794 
L 1344 0 
L 684 0 
L 684 794 
z
" transform="scale(0.015625)"/>
       </defs>
       <use xlink:href="#DejaVuSans-30"/>
       <use xlink:href="#DejaVuSans-2e" x="63.623047"/>
       <use xlink:href="#DejaVuSans-30" x="95.410156"/>
      </g>
     </g>
    </g>
    <g id="ytick_2">
     <g id="line2d_8">
      <g>
       <use xlink:href="#maaa7128815" x="47.765" y="490.9816" style="stroke: #000000; stroke-width: 0.8"/>
      </g>
     </g>
     <g id="text_9">
      <!-- 0.2 -->
      <g transform="translate(24.861875 494.780819) scale(0.1 -0.1)">
       <defs>
        <path id="DejaVuSans-32" d="M 1228 531 
L 3431 531 
L 3431 0 
L 469 0 
L 469 531 
Q 828 903 1448 1529 
Q 2069 2156 2228 2338 
Q 2531 2678 2651 2914 
Q 2772 3150 2772 3378 
Q 2772 3750 2511 3984 
Q 2250 4219 1831 4219 
Q 1534 4219 1204 4116 
Q 875 4013 500 3803 
L 500 4441 
Q 881 4594 1212 4672 
Q 1544 4750 1819 4750 
Q 2544 4750 2975 4387 
Q 3406 4025 3406 3419 
Q 3406 3131 3298 2873 
Q 3191 2616 2906 2266 
Q 2828 2175 2409 1742 
Q 1991 1309 1228 531 
z
" transform="scale(0.015625)"/>
       </defs>
       <use xlink:href="#DejaVuSans-30"/>
       <use xlink:href="#DejaVuSans-2e" x="63.623047"/>
       <use xlink:href="#DejaVuSans-32" x="95.410156"/>
      </g>
     </g>
    </g>
    <g id="ytick_3">
     <g id="line2d_9">
      <g>
       <use xlink:href="#maaa7128815" x="47.765" y="375.9232" style="stroke: #000000; stroke-width: 0.8"/>
      </g>
     </g>
     <g id="text_10">
      <!-- 0.4 -->
      <g transform="translate(24.861875 379.722419) scale(0.1 -0.1)">
       <use xlink:href="#DejaVuSans-30"/>
       <use xlink:href="#DejaVuSans-2e" x="63.623047"/>
       <use xlink:href="#DejaVuSans-34" x="95.410156"/>
      </g>
     </g>
    </g>
    <g id="ytick_4">
     <g id="line2d_10">
      <g>
       <use xlink:href="#maaa7128815" x="47.765" y="260.8648" style="stroke: #000000; stroke-width: 0.8"/>
      </g>
     </g>
     <g id="text_11">
      <!-- 0.6 -->
      <g transform="translate(24.861875 264.664019) scale(0.1 -0.1)">
       <use xlink:href="#DejaVuSans-30"/>
       <use xlink:href="#DejaVuSans-2e" x="63.623047"/>
       <use xlink:href="#DejaVuSans-36" x="95.410156"/>
      </g>
     </g>
    </g>
    <g id="ytick_5">
     <g id="line2d_11">
      <g>
       <use xlink:href="#maaa7128815" x="47.765" y="145.8064" style="stroke: #000000; stroke-width: 0.8"/>
      </g>
     </g>
     <g id="text_12">
      <!-- 0.8 -->
      <g transform="translate(24.861875 149.605619) scale(0.1 -0.1)">
       <use xlink:href="#DejaVuSans-30"/>
       <use xlink:href="#DejaVuSans-2e" x="63.623047"/>
       <use xlink:href="#DejaVuSans-38" x="95.410156"/>
      </g>
     </g>
    </g>
    <g id="ytick_6">
     <g id="line2d_12">
      <g>
       <use xlink:href="#maaa7128815" x="47.765" y="30.748" style="stroke: #000000; stroke-width: 0.8"/>
      </g>
     </g>
     <g id="text_13">
      <!-- 1.0 -->
      <g transform="translate(24.861875 34.547219) scale(0.1 -0.1)">
       <defs>
        <path id="DejaVuSans-31" d="M 794 531 
L 1825 531 
L 1825 4091 
L 703 3866 
L 703 4441 
L 1819 4666 
L 2450 4666 
L 2450 531 
L 3481 531 
L 3481 0 
L 794 0 
L 794 531 
z
" transform="scale(0.015625)"/>
       </defs>
       <use xlink:href="#DejaVuSans-31"/>
       <use xlink:href="#DejaVuSans-2e" x="63.623047"/>
       <use xlink:href="#DejaVuSans-30" x="95.410156"/>
      </g>
     </g>
    </g>
    <g id="text_14">
     <!-- Aggregated ARI Scores -->
     <g transform="translate(18.782187 375.786188) rotate(-90) scale(0.1 -0.1)">
      <defs>
       <path id="DejaVuSans-41" d="M 2188 4044 
L 1331 1722 
L 3047 1722 
L 2188 4044 
z
M 1831 4666 
L 2547 4666 
L 4325 0 
L 3669 0 
L 3244 1197 
L 1141 1197 
L 716 0 
L 50 0 
L 1831 4666 
z
" transform="scale(0.015625)"/>
       <path id="DejaVuSans-67" d="M 2906 1791 
Q 2906 2416 2648 2759 
Q 2391 3103 1925 3103 
Q 1463 3103 1205 2759 
Q 947 2416 947 1791 
Q 947 1169 1205 825 
Q 1463 481 1925 481 
Q 2391 481 2648 825 
Q 2906 1169 2906 1791 
z
M 3481 434 
Q 3481 -459 3084 -895 
Q 2688 -1331 1869 -1331 
Q 1566 -1331 1297 -1286 
Q 1028 -1241 775 -1147 
L 775 -588 
Q 1028 -725 1275 -790 
Q 1522 -856 1778 -856 
Q 2344 -856 2625 -561 
Q 2906 -266 2906 331 
L 2906 616 
Q 2728 306 2450 153 
Q 2172 0 1784 0 
Q 1141 0 747 490 
Q 353 981 353 1791 
Q 353 2603 747 3093 
Q 1141 3584 1784 3584 
Q 2172 3584 2450 3431 
Q 2728 3278 2906 2969 
L 2906 3500 
L 3481 3500 
L 3481 434 
z
" transform="scale(0.015625)"/>
       <path id="DejaVuSans-64" d="M 2906 2969 
L 2906 4863 
L 3481 4863 
L 3481 0 
L 2906 0 
L 2906 525 
Q 2725 213 2448 61 
Q 2172 -91 1784 -91 
Q 1150 -91 751 415 
Q 353 922 353 1747 
Q 353 2572 751 3078 
Q 1150 3584 1784 3584 
Q 2172 3584 2448 3432 
Q 2725 3281 2906 2969 
z
M 947 1747 
Q 947 1113 1208 752 
Q 1469 391 1925 391 
Q 2381 391 2643 752 
Q 2906 1113 2906 1747 
Q 2906 2381 2643 2742 
Q 2381 3103 1925 3103 
Q 1469 3103 1208 2742 
Q 947 2381 947 1747 
z
" transform="scale(0.015625)"/>
       <path id="DejaVuSans-52" d="M 2841 2188 
Q 3044 2119 3236 1894 
Q 3428 1669 3622 1275 
L 4263 0 
L 3584 0 
L 2988 1197 
Q 2756 1666 2539 1819 
Q 2322 1972 1947 1972 
L 1259 1972 
L 1259 0 
L 628 0 
L 628 4666 
L 2053 4666 
Q 2853 4666 3247 4331 
Q 3641 3997 3641 3322 
Q 3641 2881 3436 2590 
Q 3231 2300 2841 2188 
z
M 1259 4147 
L 1259 2491 
L 2053 2491 
Q 2509 2491 2742 2702 
Q 2975 2913 2975 3322 
Q 2975 3731 2742 3939 
Q 2509 4147 2053 4147 
L 1259 4147 
z
" transform="scale(0.015625)"/>
       <path id="DejaVuSans-49" d="M 628 4666 
L 1259 4666 
L 1259 0 
L 628 0 
L 628 4666 
z
" transform="scale(0.015625)"/>
       <path id="DejaVuSans-53" d="M 3425 4513 
L 3425 3897 
Q 3066 4069 2747 4153 
Q 2428 4238 2131 4238 
Q 1616 4238 1336 4038 
Q 1056 3838 1056 3469 
Q 1056 3159 1242 3001 
Q 1428 2844 1947 2747 
L 2328 2669 
Q 3034 2534 3370 2195 
Q 3706 1856 3706 1288 
Q 3706 609 3251 259 
Q 2797 -91 1919 -91 
Q 1588 -91 1214 -16 
Q 841 59 441 206 
L 441 856 
Q 825 641 1194 531 
Q 1563 422 1919 422 
Q 2459 422 2753 634 
Q 3047 847 3047 1241 
Q 3047 1584 2836 1778 
Q 2625 1972 2144 2069 
L 1759 2144 
Q 1053 2284 737 2584 
Q 422 2884 422 3419 
Q 422 4038 858 4394 
Q 1294 4750 2059 4750 
Q 2388 4750 2728 4690 
Q 3069 4631 3425 4513 
z
" transform="scale(0.015625)"/>
       <path id="DejaVuSans-63" d="M 3122 3366 
L 3122 2828 
Q 2878 2963 2633 3030 
Q 2388 3097 2138 3097 
Q 1578 3097 1268 2742 
Q 959 2388 959 1747 
Q 959 1106 1268 751 
Q 1578 397 2138 397 
Q 2388 397 2633 464 
Q 2878 531 3122 666 
L 3122 134 
Q 2881 22 2623 -34 
Q 2366 -91 2075 -91 
Q 1284 -91 818 406 
Q 353 903 353 1747 
Q 353 2603 823 3093 
Q 1294 3584 2113 3584 
Q 2378 3584 2631 3529 
Q 2884 3475 3122 3366 
z
" transform="scale(0.015625)"/>
      </defs>
      <use xlink:href="#DejaVuSans-41"/>
      <use xlink:href="#DejaVuSans-67" x="68.408203"/>
      <use xlink:href="#DejaVuSans-67" x="131.884766"/>
      <use xlink:href="#DejaVuSans-72" x="195.361328"/>
      <use xlink:href="#DejaVuSans-65" x="234.224609"/>
      <use xlink:href="#DejaVuSans-67" x="295.748047"/>
      <use xlink:href="#DejaVuSans-61" x="359.224609"/>
      <use xlink:href="#DejaVuSans-74" x="420.503906"/>
      <use xlink:href="#DejaVuSans-65" x="459.712891"/>
      <use xlink:href="#DejaVuSans-64" x="521.236328"/>
      <use xlink:href="#DejaVuSans-20" x="584.712891"/>
      <use xlink:href="#DejaVuSans-41" x="616.5"/>
      <use xlink:href="#DejaVuSans-52" x="684.908203"/>
      <use xlink:href="#DejaVuSans-49" x="754.390625"/>
      <use xlink:href="#DejaVuSans-20" x="783.882812"/>
      <use xlink:href="#DejaVuSans-53" x="815.669922"/>
      <use xlink:href="#DejaVuSans-63" x="879.146484"/>
      <use xlink:href="#DejaVuSans-6f" x="934.126953"/>
      <use xlink:href="#DejaVuSans-72" x="995.308594"/>
      <use xlink:href="#DejaVuSans-65" x="1034.171875"/>
      <use xlink:href="#DejaVuSans-73" x="1095.695312"/>
     </g>
    </g>
   </g>
   <g id="line2d_13">
    <path d="M 47.765 395.851286 
L 65.4711 390.4175 
L 83.1772 394.689853 
L 100.8833 395.270619 
L 118.5894 378.089569 
L 136.2955 389.796436 
L 154.0016 387.133984 
L 171.7077 384.266784 
L 189.4138 390.139387 
L 207.1199 384.97486 
L 224.826 381.89017 
L 242.5321 382.137725 
L 260.2382 386.122681 
L 277.9443 378.985912 
L 295.6504 384.455403 
L 313.3565 379.289897 
L 331.0626 374.451733 
L 348.7687 383.288748 
L 366.4748 380.261112 
L 384.1809 376.703728 
L 401.887 375.01108 
L 419.5931 379.069816 
L 437.2992 382.051779 
L 455.0053 379.17122 
L 472.7114 376.271235 
L 490.4175 377.306527 
L 508.1236 370.051835 
L 525.8297 382.881125 
L 543.5358 379.342995 
L 561.2419 372.931117 
L 578.948 376.221462 
L 596.6541 379.310822 
L 614.3602 368.524234 
L 632.0663 376.927324 
L 649.7724 374.50223 
L 667.4785 375.626766 
L 685.1846 373.098606 
L 702.8907 371.323459 
L 720.5968 371.343806 
L 738.3029 367.259323 
L 756.009 370.530362 
L 773.7151 368.185984 
L 791.4212 371.061719 
L 809.1273 372.691998 
L 826.8334 366.399838 
L 844.5395 363.993092 
L 862.2456 368.370776 
L 879.9517 359.407853 
L 897.6578 366.373304 
L 915.3639 365.232477 
L 933.07 367.998249 
" clip-path="url(#pfde46f2058)" style="fill: none; stroke: #1f77b4; stroke-width: 1.5; stroke-linecap: square"/>
   </g>
   <g id="line2d_14">
    <path d="M 47.765 418.184159 
L 65.4711 415.037366 
L 83.1772 426.494578 
L 100.8833 417.59455 
L 118.5894 423.467346 
L 136.2955 426.29799 
L 154.0016 413.342056 
L 171.7077 420.447078 
L 189.4138 421.291707 
L 207.1199 417.86325 
L 224.826 415.10719 
L 242.5321 415.344242 
L 260.2382 418.247473 
L 277.9443 416.259339 
L 295.6504 420.292977 
L 313.3565 418.972246 
L 331.0626 418.313493 
L 348.7687 416.464187 
L 366.4748 411.280406 
L 384.1809 413.414371 
L 401.887 412.273718 
L 419.5931 403.295369 
L 437.2992 427.535027 
L 455.0053 412.705033 
L 472.7114 408.755755 
L 490.4175 413.469557 
L 508.1236 410.060932 
L 525.8297 411.508877 
L 543.5358 412.227966 
L 561.2419 409.253256 
L 578.948 406.89495 
L 596.6541 408.61238 
L 614.3602 408.339513 
L 632.0663 401.025775 
L 649.7724 404.974238 
L 667.4785 407.100074 
L 685.1846 404.084594 
L 702.8907 402.740917 
L 720.5968 402.618695 
L 738.3029 397.152962 
L 756.009 392.406097 
L 773.7151 401.948216 
L 791.4212 401.967451 
L 809.1273 392.938663 
L 826.8334 390.104868 
L 844.5395 395.60815 
L 862.2456 388.763557 
L 879.9517 390.694225 
L 897.6578 387.83389 
L 915.3639 394.419747 
L 933.07 393.676572 
" clip-path="url(#pfde46f2058)" style="fill: none; stroke: #ff7f0e; stroke-width: 1.5; stroke-linecap: square"/>
   </g>
   <g id="line2d_15">
    <path d="M 47.765 382.301114 
L 65.4711 376.510372 
L 83.1772 369.980355 
L 100.8833 376.720144 
L 118.5894 376.637977 
L 136.2955 368.181244 
L 154.0016 377.258926 
L 171.7077 370.143487 
L 189.4138 369.556835 
L 207.1199 375.877345 
L 224.826 373.913838 
L 242.5321 373.511641 
L 260.2382 377.665496 
L 277.9443 376.051398 
L 295.6504 372.610492 
L 313.3565 370.300529 
L 331.0626 373.15392 
L 348.7687 375.998585 
L 366.4748 373.338978 
L 384.1809 372.649172 
L 401.887 373.990197 
L 419.5931 371.427309 
L 437.2992 370.588582 
L 455.0053 371.028307 
L 472.7114 369.841061 
L 490.4175 368.843296 
L 508.1236 369.872016 
L 525.8297 362.695561 
L 543.5358 361.788021 
L 561.2419 366.424092 
L 578.948 365.834738 
L 596.6541 360.587313 
L 614.3602 358.649956 
L 632.0663 355.110802 
L 649.7724 358.143909 
L 667.4785 360.339454 
L 685.1846 355.324349 
L 702.8907 353.669083 
L 720.5968 355.344245 
L 738.3029 349.429437 
L 756.009 357.075113 
L 773.7151 357.689748 
L 791.4212 351.646095 
L 809.1273 355.371897 
L 826.8334 351.968515 
L 844.5395 349.623013 
L 862.2456 346.51773 
L 879.9517 349.866874 
L 897.6578 349.894095 
L 915.3639 343.946679 
L 933.07 346.635437 
" clip-path="url(#pfde46f2058)" style="fill: none; stroke: #2ca02c; stroke-width: 1.5; stroke-linecap: square"/>
   </g>
   <g id="line2d_16">
    <path d="M 47.765 382.644178 
L 65.4711 376.146478 
L 83.1772 371.741184 
L 100.8833 378.519444 
L 118.5894 373.89726 
L 136.2955 372.633246 
L 154.0016 375.241463 
L 171.7077 370.006628 
L 189.4138 370.387165 
L 207.1199 368.414513 
L 224.826 366.604266 
L 242.5321 376.015968 
L 260.2382 373.262334 
L 277.9443 373.725118 
L 295.6504 373.48776 
L 313.3565 368.41353 
L 331.0626 372.731472 
L 348.7687 374.99342 
L 366.4748 370.340662 
L 384.1809 367.580319 
L 401.887 369.019258 
L 419.5931 366.323195 
L 437.2992 365.608148 
L 455.0053 366.939665 
L 472.7114 371.664422 
L 490.4175 371.027537 
L 508.1236 372.895172 
L 525.8297 367.881693 
L 543.5358 363.198672 
L 561.2419 366.085728 
L 578.948 365.731573 
L 596.6541 366.664686 
L 614.3602 362.132272 
L 632.0663 363.741753 
L 649.7724 363.916936 
L 667.4785 359.586371 
L 685.1846 365.495883 
L 702.8907 361.138754 
L 720.5968 353.534001 
L 738.3029 355.027172 
L 756.009 353.937313 
L 773.7151 348.447745 
L 791.4212 355.743615 
L 809.1273 350.229154 
L 826.8334 353.113561 
L 844.5395 350.449537 
L 862.2456 349.175617 
L 879.9517 345.928013 
L 897.6578 344.093071 
L 915.3639 347.384121 
L 933.07 351.899422 
" clip-path="url(#pfde46f2058)" style="fill: none; stroke: #d62728; stroke-width: 1.5; stroke-linecap: square"/>
   </g>
   <g id="line2d_17">
    <path d="M 47.765 385.73547 
L 65.4711 379.007949 
L 83.1772 383.650164 
L 100.8833 383.456097 
L 118.5894 376.981346 
L 136.2955 377.108979 
L 154.0016 376.976583 
L 171.7077 374.465053 
L 189.4138 379.338127 
L 207.1199 375.411626 
L 224.826 375.057743 
L 242.5321 373.90958 
L 260.2382 377.544971 
L 277.9443 376.605035 
L 295.6504 371.194027 
L 313.3565 374.909726 
L 331.0626 369.378118 
L 348.7687 362.307697 
L 366.4748 369.560676 
L 384.1809 358.899273 
L 401.887 357.579685 
L 419.5931 363.169113 
L 437.2992 361.353096 
L 455.0053 359.311848 
L 472.7114 357.702714 
L 490.4175 356.51974 
L 508.1236 359.708887 
L 525.8297 353.677714 
L 543.5358 354.418799 
L 561.2419 353.805025 
L 578.948 354.780465 
L 596.6541 352.074577 
L 614.3602 356.53113 
L 632.0663 357.163566 
L 649.7724 347.743099 
L 667.4785 353.948464 
L 685.1846 352.900291 
L 702.8907 351.196204 
L 720.5968 347.47606 
L 738.3029 349.738213 
L 756.009 346.194954 
L 773.7151 347.229317 
L 791.4212 349.448161 
L 809.1273 351.493275 
L 826.8334 347.603695 
L 844.5395 347.003929 
L 862.2456 350.028247 
L 879.9517 346.315759 
L 897.6578 342.615784 
L 915.3639 348.934322 
L 933.07 346.917638 
" clip-path="url(#pfde46f2058)" style="fill: none; stroke: #9467bd; stroke-width: 1.5; stroke-linecap: square"/>
   </g>
   <g id="line2d_18">
    <path d="M 47.765 396.948801 
L 65.4711 401.695734 
L 83.1772 403.273086 
L 100.8833 398.035421 
L 118.5894 396.951171 
L 136.2955 390.601583 
L 154.0016 397.324635 
L 171.7077 391.679983 
L 189.4138 387.346783 
L 207.1199 389.699253 
L 224.826 384.19593 
L 242.5321 385.040501 
L 260.2382 381.025001 
L 277.9443 372.356075 
L 295.6504 377.751691 
L 313.3565 373.871033 
L 331.0626 376.630408 
L 348.7687 376.140727 
L 366.4748 375.921848 
L 384.1809 370.09776 
L 401.887 370.495039 
L 419.5931 371.355947 
L 437.2992 375.805656 
L 455.0053 372.516432 
L 472.7114 371.386336 
L 490.4175 369.183665 
L 508.1236 374.056074 
L 525.8297 365.886852 
L 543.5358 371.426433 
L 561.2419 369.03619 
L 578.948 365.05769 
L 596.6541 367.969588 
L 614.3602 373.307005 
L 632.0663 363.751626 
L 649.7724 369.417086 
L 667.4785 372.715963 
L 685.1846 368.780372 
L 702.8907 371.141272 
L 720.5968 367.516291 
L 738.3029 369.257333 
L 756.009 363.735067 
L 773.7151 362.00065 
L 791.4212 369.378229 
L 809.1273 365.209882 
L 826.8334 365.99162 
L 844.5395 367.088365 
L 862.2456 358.701686 
L 879.9517 359.262787 
L 897.6578 367.443248 
L 915.3639 360.360264 
L 933.07 359.254856 
" clip-path="url(#pfde46f2058)" style="fill: none; stroke: #8c564b; stroke-width: 1.5; stroke-linecap: square"/>
   </g>
   <g id="line2d_19">
    <path d="M 47.765 397.796762 
L 65.4711 401.916158 
L 83.1772 401.449883 
L 100.8833 398.125307 
L 118.5894 397.871309 
L 136.2955 396.076485 
L 154.0016 392.791361 
L 171.7077 393.073608 
L 189.4138 394.587318 
L 207.1199 391.966472 
L 224.826 390.669192 
L 242.5321 389.701914 
L 260.2382 387.872485 
L 277.9443 392.6366 
L 295.6504 386.338539 
L 313.3565 390.547989 
L 331.0626 387.63867 
L 348.7687 380.929565 
L 366.4748 386.661913 
L 384.1809 383.070518 
L 401.887 380.235056 
L 419.5931 386.980923 
L 437.2992 381.978556 
L 455.0053 385.051572 
L 472.7114 381.596606 
L 490.4175 382.581538 
L 508.1236 381.028524 
L 525.8297 382.452285 
L 543.5358 377.72778 
L 561.2419 383.386023 
L 578.948 380.239542 
L 596.6541 383.850051 
L 614.3602 382.646053 
L 632.0663 382.010117 
L 649.7724 380.997894 
L 667.4785 378.152126 
L 685.1846 377.265832 
L 702.8907 380.152894 
L 720.5968 373.735613 
L 738.3029 378.756916 
L 756.009 379.055387 
L 773.7151 370.514298 
L 791.4212 374.264988 
L 809.1273 375.302779 
L 826.8334 371.692215 
L 844.5395 376.316995 
L 862.2456 367.70499 
L 879.9517 366.62511 
L 897.6578 365.746493 
L 915.3639 374.17426 
L 933.07 371.538643 
" clip-path="url(#pfde46f2058)" style="fill: none; stroke: #e377c2; stroke-width: 1.5; stroke-linecap: square"/>
   </g>
   <g id="line2d_20">
    <path d="M 47.765 399.284154 
L 65.4711 403.346666 
L 83.1772 397.523107 
L 100.8833 394.97085 
L 118.5894 393.782195 
L 136.2955 390.589782 
L 154.0016 391.533651 
L 171.7077 385.64803 
L 189.4138 392.033749 
L 207.1199 390.910547 
L 224.826 386.456528 
L 242.5321 383.829912 
L 260.2382 385.631202 
L 277.9443 379.791867 
L 295.6504 376.061613 
L 313.3565 378.375565 
L 331.0626 376.695591 
L 348.7687 376.302077 
L 366.4748 373.10673 
L 384.1809 381.047549 
L 401.887 376.462734 
L 419.5931 378.883267 
L 437.2992 369.128961 
L 455.0053 369.819087 
L 472.7114 373.356676 
L 490.4175 374.253244 
L 508.1236 371.196035 
L 525.8297 376.83226 
L 543.5358 369.902769 
L 561.2419 376.567689 
L 578.948 372.192775 
L 596.6541 368.317644 
L 614.3602 373.060664 
L 632.0663 371.543326 
L 649.7724 371.081263 
L 667.4785 366.728541 
L 685.1846 365.003406 
L 702.8907 373.285953 
L 720.5968 367.507479 
L 738.3029 368.391416 
L 756.009 367.051805 
L 773.7151 368.728843 
L 791.4212 367.625849 
L 809.1273 369.002871 
L 826.8334 366.419874 
L 844.5395 363.469083 
L 862.2456 362.943534 
L 879.9517 366.322634 
L 897.6578 369.004191 
L 915.3639 353.72676 
L 933.07 360.230991 
" clip-path="url(#pfde46f2058)" style="fill: none; stroke: #7f7f7f; stroke-width: 1.5; stroke-linecap: square"/>
   </g>
   <g id="line2d_21">
    <path d="M 47.765 382.347115 
L 65.4711 381.659903 
L 83.1772 388.263035 
L 100.8833 381.445714 
L 118.5894 380.179131 
L 136.2955 380.205694 
L 154.0016 377.444212 
L 171.7077 372.166772 
L 189.4138 369.964873 
L 207.1199 370.161058 
L 224.826 366.08008 
L 242.5321 374.205962 
L 260.2382 371.366836 
L 277.9443 372.096144 
L 295.6504 368.21029 
L 313.3565 368.81134 
L 331.0626 366.557278 
L 348.7687 366.455292 
L 366.4748 367.277178 
L 384.1809 366.596301 
L 401.887 365.453422 
L 419.5931 367.473839 
L 437.2992 362.748644 
L 455.0053 370.126502 
L 472.7114 368.668218 
L 490.4175 369.179665 
L 508.1236 369.316457 
L 525.8297 361.926513 
L 543.5358 367.314521 
L 561.2419 367.29049 
L 578.948 358.375301 
L 596.6541 364.663507 
L 614.3602 367.103292 
L 632.0663 363.984756 
L 649.7724 361.405623 
L 667.4785 361.257265 
L 685.1846 364.40327 
L 702.8907 360.536 
L 720.5968 364.192158 
L 738.3029 364.266206 
L 756.009 362.244305 
L 773.7151 360.307863 
L 791.4212 370.442036 
L 809.1273 361.804018 
L 826.8334 364.634911 
L 844.5395 361.679153 
L 862.2456 366.344698 
L 879.9517 360.913892 
L 897.6578 361.956623 
L 915.3639 366.913839 
L 933.07 361.666952 
" clip-path="url(#pfde46f2058)" style="fill: none; stroke: #bcbd22; stroke-width: 1.5; stroke-linecap: square"/>
   </g>
   <g id="line2d_22">
    <path d="M 47.765 385.820571 
L 65.4711 385.331531 
L 83.1772 388.61773 
L 100.8833 386.604926 
L 118.5894 385.78651 
L 136.2955 388.78253 
L 154.0016 386.717278 
L 171.7077 392.114748 
L 189.4138 384.622641 
L 207.1199 385.399774 
L 224.826 380.322258 
L 242.5321 385.574429 
L 260.2382 379.338847 
L 277.9443 380.885908 
L 295.6504 379.65099 
L 313.3565 379.796261 
L 331.0626 380.084943 
L 348.7687 383.091103 
L 366.4748 380.289601 
L 384.1809 375.733692 
L 401.887 380.436581 
L 419.5931 378.953676 
L 437.2992 376.86408 
L 455.0053 376.106639 
L 472.7114 378.703133 
L 490.4175 376.674023 
L 508.1236 378.591003 
L 525.8297 379.676126 
L 543.5358 374.240424 
L 561.2419 375.449512 
L 578.948 381.562438 
L 596.6541 372.639242 
L 614.3602 379.523129 
L 632.0663 377.748704 
L 649.7724 374.489335 
L 667.4785 374.117577 
L 685.1846 378.38991 
L 702.8907 374.69105 
L 720.5968 373.045264 
L 738.3029 368.356803 
L 756.009 375.031904 
L 773.7151 376.538176 
L 791.4212 367.039615 
L 809.1273 366.311624 
L 826.8334 365.637606 
L 844.5395 363.108398 
L 862.2456 358.543306 
L 879.9517 369.665652 
L 897.6578 362.793878 
L 915.3639 363.376705 
L 933.07 360.547295 
" clip-path="url(#pfde46f2058)" style="fill: none; stroke: #17becf; stroke-width: 1.5; stroke-linecap: square"/>
   </g>
   <g id="line2d_23">
    <path d="M 47.765 391.820422 
L 65.4711 382.052283 
L 83.1772 389.137683 
L 100.8833 385.847579 
L 118.5894 395.118317 
L 136.2955 387.562659 
L 154.0016 390.872675 
L 171.7077 390.500914 
L 189.4138 389.068042 
L 207.1199 393.179026 
L 224.826 390.765167 
L 242.5321 393.38143 
L 260.2382 389.672342 
L 277.9443 393.299434 
L 295.6504 389.743515 
L 313.3565 379.87527 
L 331.0626 383.474573 
L 348.7687 383.552346 
L 366.4748 384.569606 
L 384.1809 382.45122 
L 401.887 389.060692 
L 419.5931 387.676855 
L 437.2992 381.887637 
L 455.0053 382.995311 
L 472.7114 379.753892 
L 490.4175 381.030205 
L 508.1236 382.874645 
L 525.8297 377.807089 
L 543.5358 376.897845 
L 561.2419 376.339923 
L 578.948 380.301259 
L 596.6541 377.363558 
L 614.3602 369.703596 
L 632.0663 374.451871 
L 649.7724 371.614869 
L 667.4785 370.342548 
L 685.1846 372.980785 
L 702.8907 372.533556 
L 720.5968 373.441934 
L 738.3029 370.014316 
L 756.009 365.413438 
L 773.7151 375.839731 
L 791.4212 368.951448 
L 809.1273 361.993442 
L 826.8334 369.894825 
L 844.5395 367.030992 
L 862.2456 364.15804 
L 879.9517 363.126805 
L 897.6578 365.605207 
L 915.3639 359.143799 
L 933.07 364.048281 
" clip-path="url(#pfde46f2058)" style="fill: none; stroke: #9edae5; stroke-width: 1.5; stroke-linecap: square"/>
   </g>
   <g id="patch_3">
    <path d="M 47.765 606.04 
L 47.765 30.748 
" style="fill: none; stroke: #000000; stroke-width: 0.8; stroke-linejoin: miter; stroke-linecap: square"/>
   </g>
   <g id="patch_4">
    <path d="M 933.07 606.04 
L 933.07 30.748 
" style="fill: none; stroke: #000000; stroke-width: 0.8; stroke-linejoin: miter; stroke-linecap: square"/>
   </g>
   <g id="patch_5">
    <path d="M 47.765 606.04 
L 933.07 606.04 
" style="fill: none; stroke: #000000; stroke-width: 0.8; stroke-linejoin: miter; stroke-linecap: square"/>
   </g>
   <g id="patch_6">
    <path d="M 47.765 30.748 
L 933.07 30.748 
" style="fill: none; stroke: #000000; stroke-width: 0.8; stroke-linejoin: miter; stroke-linecap: square"/>
   </g>
   <g id="text_15">
    <!-- GMM ARI Scores by Number of Baits for Each Method -->
    <g transform="translate(330.7725 24.748) scale(0.12 -0.12)">
     <defs>
      <path id="DejaVuSans-47" d="M 3809 666 
L 3809 1919 
L 2778 1919 
L 2778 2438 
L 4434 2438 
L 4434 434 
Q 4069 175 3628 42 
Q 3188 -91 2688 -91 
Q 1594 -91 976 548 
Q 359 1188 359 2328 
Q 359 3472 976 4111 
Q 1594 4750 2688 4750 
Q 3144 4750 3555 4637 
Q 3966 4525 4313 4306 
L 4313 3634 
Q 3963 3931 3569 4081 
Q 3175 4231 2741 4231 
Q 1884 4231 1454 3753 
Q 1025 3275 1025 2328 
Q 1025 1384 1454 906 
Q 1884 428 2741 428 
Q 3075 428 3337 486 
Q 3600 544 3809 666 
z
" transform="scale(0.015625)"/>
      <path id="DejaVuSans-4d" d="M 628 4666 
L 1569 4666 
L 2759 1491 
L 3956 4666 
L 4897 4666 
L 4897 0 
L 4281 0 
L 4281 4097 
L 3078 897 
L 2444 897 
L 1241 4097 
L 1241 0 
L 628 0 
L 628 4666 
z
" transform="scale(0.015625)"/>
      <path id="DejaVuSans-79" d="M 2059 -325 
Q 1816 -950 1584 -1140 
Q 1353 -1331 966 -1331 
L 506 -1331 
L 506 -850 
L 844 -850 
Q 1081 -850 1212 -737 
Q 1344 -625 1503 -206 
L 1606 56 
L 191 3500 
L 800 3500 
L 1894 763 
L 2988 3500 
L 3597 3500 
L 2059 -325 
z
" transform="scale(0.015625)"/>
      <path id="DejaVuSans-45" d="M 628 4666 
L 3578 4666 
L 3578 4134 
L 1259 4134 
L 1259 2753 
L 3481 2753 
L 3481 2222 
L 1259 2222 
L 1259 531 
L 3634 531 
L 3634 0 
L 628 0 
L 628 4666 
z
" transform="scale(0.015625)"/>
      <path id="DejaVuSans-68" d="M 3513 2113 
L 3513 0 
L 2938 0 
L 2938 2094 
Q 2938 2591 2744 2837 
Q 2550 3084 2163 3084 
Q 1697 3084 1428 2787 
Q 1159 2491 1159 1978 
L 1159 0 
L 581 0 
L 581 4863 
L 1159 4863 
L 1159 2956 
Q 1366 3272 1645 3428 
Q 1925 3584 2291 3584 
Q 2894 3584 3203 3211 
Q 3513 2838 3513 2113 
z
" transform="scale(0.015625)"/>
     </defs>
     <use xlink:href="#DejaVuSans-47"/>
     <use xlink:href="#DejaVuSans-4d" x="77.490234"/>
     <use xlink:href="#DejaVuSans-4d" x="163.769531"/>
     <use xlink:href="#DejaVuSans-20" x="250.048828"/>
     <use xlink:href="#DejaVuSans-41" x="281.835938"/>
     <use xlink:href="#DejaVuSans-52" x="350.244141"/>
     <use xlink:href="#DejaVuSans-49" x="419.726562"/>
     <use xlink:href="#DejaVuSans-20" x="449.21875"/>
     <use xlink:href="#DejaVuSans-53" x="481.005859"/>
     <use xlink:href="#DejaVuSans-63" x="544.482422"/>
     <use xlink:href="#DejaVuSans-6f" x="599.462891"/>
     <use xlink:href="#DejaVuSans-72" x="660.644531"/>
     <use xlink:href="#DejaVuSans-65" x="699.507812"/>
     <use xlink:href="#DejaVuSans-73" x="761.03125"/>
     <use xlink:href="#DejaVuSans-20" x="813.130859"/>
     <use xlink:href="#DejaVuSans-62" x="844.917969"/>
     <use xlink:href="#DejaVuSans-79" x="908.394531"/>
     <use xlink:href="#DejaVuSans-20" x="967.574219"/>
     <use xlink:href="#DejaVuSans-4e" x="999.361328"/>
     <use xlink:href="#DejaVuSans-75" x="1074.166016"/>
     <use xlink:href="#DejaVuSans-6d" x="1137.544922"/>
     <use xlink:href="#DejaVuSans-62" x="1234.957031"/>
     <use xlink:href="#DejaVuSans-65" x="1298.433594"/>
     <use xlink:href="#DejaVuSans-72" x="1359.957031"/>
     <use xlink:href="#DejaVuSans-20" x="1401.070312"/>
     <use xlink:href="#DejaVuSans-6f" x="1432.857422"/>
     <use xlink:href="#DejaVuSans-66" x="1494.039062"/>
     <use xlink:href="#DejaVuSans-20" x="1529.244141"/>
     <use xlink:href="#DejaVuSans-42" x="1561.03125"/>
     <use xlink:href="#DejaVuSans-61" x="1629.634766"/>
     <use xlink:href="#DejaVuSans-69" x="1690.914062"/>
     <use xlink:href="#DejaVuSans-74" x="1718.697266"/>
     <use xlink:href="#DejaVuSans-73" x="1757.90625"/>
     <use xlink:href="#DejaVuSans-20" x="1810.005859"/>
     <use xlink:href="#DejaVuSans-66" x="1841.792969"/>
     <use xlink:href="#DejaVuSans-6f" x="1876.998047"/>
     <use xlink:href="#DejaVuSans-72" x="1938.179688"/>
     <use xlink:href="#DejaVuSans-20" x="1979.292969"/>
     <use xlink:href="#DejaVuSans-45" x="2011.080078"/>
     <use xlink:href="#DejaVuSans-61" x="2074.263672"/>
     <use xlink:href="#DejaVuSans-63" x="2135.542969"/>
     <use xlink:href="#DejaVuSans-68" x="2190.523438"/>
     <use xlink:href="#DejaVuSans-20" x="2253.902344"/>
     <use xlink:href="#DejaVuSans-4d" x="2285.689453"/>
     <use xlink:href="#DejaVuSans-65" x="2371.96875"/>
     <use xlink:href="#DejaVuSans-74" x="2433.492188"/>
     <use xlink:href="#DejaVuSans-68" x="2472.701172"/>
     <use xlink:href="#DejaVuSans-6f" x="2536.080078"/>
     <use xlink:href="#DejaVuSans-64" x="2597.261719"/>
    </g>
   </g>
   <g id="legend_1">
    <g id="patch_7">
     <path d="M 940.07 172.555275 
L 1067.18875 172.555275 
Q 1069.18875 172.555275 1069.18875 170.555275 
L 1069.18875 8.9834 
Q 1069.18875 6.9834 1067.18875 6.9834 
L 940.07 6.9834 
Q 938.07 6.9834 938.07 8.9834 
L 938.07 170.555275 
Q 938.07 172.555275 940.07 172.555275 
z
" style="fill: #ffffff; opacity: 0.8; stroke: #cccccc; stroke-linejoin: miter"/>
    </g>
    <g id="line2d_24">
     <path d="M 942.07 15.081838 
L 952.07 15.081838 
L 962.07 15.081838 
" style="fill: none; stroke: #1f77b4; stroke-width: 1.5; stroke-linecap: square"/>
    </g>
    <g id="text_16">
     <!-- GA -->
     <g transform="translate(970.07 18.581838) scale(0.1 -0.1)">
      <use xlink:href="#DejaVuSans-47"/>
      <use xlink:href="#DejaVuSans-41" x="77.490234"/>
     </g>
    </g>
    <g id="line2d_25">
     <path d="M 942.07 29.759963 
L 952.07 29.759963 
L 962.07 29.759963 
" style="fill: none; stroke: #ff7f0e; stroke-width: 1.5; stroke-linecap: square"/>
    </g>
    <g id="text_17">
     <!-- Random -->
     <g transform="translate(970.07 33.259963) scale(0.1 -0.1)">
      <defs>
       <path id="DejaVuSans-6e" d="M 3513 2113 
L 3513 0 
L 2938 0 
L 2938 2094 
Q 2938 2591 2744 2837 
Q 2550 3084 2163 3084 
Q 1697 3084 1428 2787 
Q 1159 2491 1159 1978 
L 1159 0 
L 581 0 
L 581 3500 
L 1159 3500 
L 1159 2956 
Q 1366 3272 1645 3428 
Q 1925 3584 2291 3584 
Q 2894 3584 3203 3211 
Q 3513 2838 3513 2113 
z
" transform="scale(0.015625)"/>
      </defs>
      <use xlink:href="#DejaVuSans-52"/>
      <use xlink:href="#DejaVuSans-61" x="67.232422"/>
      <use xlink:href="#DejaVuSans-6e" x="128.511719"/>
      <use xlink:href="#DejaVuSans-64" x="191.890625"/>
      <use xlink:href="#DejaVuSans-6f" x="255.367188"/>
      <use xlink:href="#DejaVuSans-6d" x="316.548828"/>
     </g>
    </g>
    <g id="line2d_26">
     <path d="M 942.07 44.438088 
L 952.07 44.438088 
L 962.07 44.438088 
" style="fill: none; stroke: #2ca02c; stroke-width: 1.5; stroke-linecap: square"/>
    </g>
    <g id="text_18">
     <!-- chi_2 -->
     <g transform="translate(970.07 47.938088) scale(0.1 -0.1)">
      <defs>
       <path id="DejaVuSans-5f" d="M 3263 -1063 
L 3263 -1509 
L -63 -1509 
L -63 -1063 
L 3263 -1063 
z
" transform="scale(0.015625)"/>
      </defs>
      <use xlink:href="#DejaVuSans-63"/>
      <use xlink:href="#DejaVuSans-68" x="54.980469"/>
      <use xlink:href="#DejaVuSans-69" x="118.359375"/>
      <use xlink:href="#DejaVuSans-5f" x="146.142578"/>
      <use xlink:href="#DejaVuSans-32" x="196.142578"/>
     </g>
    </g>
    <g id="line2d_27">
     <path d="M 942.07 59.394338 
L 952.07 59.394338 
L 962.07 59.394338 
" style="fill: none; stroke: #d62728; stroke-width: 1.5; stroke-linecap: square"/>
    </g>
    <g id="text_19">
     <!-- f_classif -->
     <g transform="translate(970.07 62.894338) scale(0.1 -0.1)">
      <defs>
       <path id="DejaVuSans-6c" d="M 603 4863 
L 1178 4863 
L 1178 0 
L 603 0 
L 603 4863 
z
" transform="scale(0.015625)"/>
      </defs>
      <use xlink:href="#DejaVuSans-66"/>
      <use xlink:href="#DejaVuSans-5f" x="35.205078"/>
      <use xlink:href="#DejaVuSans-63" x="85.205078"/>
      <use xlink:href="#DejaVuSans-6c" x="140.185547"/>
      <use xlink:href="#DejaVuSans-61" x="167.96875"/>
      <use xlink:href="#DejaVuSans-73" x="229.248047"/>
      <use xlink:href="#DejaVuSans-73" x="281.347656"/>
      <use xlink:href="#DejaVuSans-69" x="333.447266"/>
      <use xlink:href="#DejaVuSans-66" x="361.230469"/>
     </g>
    </g>
    <g id="line2d_28">
     <path d="M 942.07 74.350588 
L 952.07 74.350588 
L 962.07 74.350588 
" style="fill: none; stroke: #9467bd; stroke-width: 1.5; stroke-linecap: square"/>
    </g>
    <g id="text_20">
     <!-- mutual_info_classif -->
     <g transform="translate(970.07 77.850588) scale(0.1 -0.1)">
      <use xlink:href="#DejaVuSans-6d"/>
      <use xlink:href="#DejaVuSans-75" x="97.412109"/>
      <use xlink:href="#DejaVuSans-74" x="160.791016"/>
      <use xlink:href="#DejaVuSans-75" x="200"/>
      <use xlink:href="#DejaVuSans-61" x="263.378906"/>
      <use xlink:href="#DejaVuSans-6c" x="324.658203"/>
      <use xlink:href="#DejaVuSans-5f" x="352.441406"/>
      <use xlink:href="#DejaVuSans-69" x="402.441406"/>
      <use xlink:href="#DejaVuSans-6e" x="430.224609"/>
      <use xlink:href="#DejaVuSans-66" x="493.603516"/>
      <use xlink:href="#DejaVuSans-6f" x="528.808594"/>
      <use xlink:href="#DejaVuSans-5f" x="589.990234"/>
      <use xlink:href="#DejaVuSans-63" x="639.990234"/>
      <use xlink:href="#DejaVuSans-6c" x="694.970703"/>
      <use xlink:href="#DejaVuSans-61" x="722.753906"/>
      <use xlink:href="#DejaVuSans-73" x="784.033203"/>
      <use xlink:href="#DejaVuSans-73" x="836.132812"/>
      <use xlink:href="#DejaVuSans-69" x="888.232422"/>
      <use xlink:href="#DejaVuSans-66" x="916.015625"/>
     </g>
    </g>
    <g id="line2d_29">
     <path d="M 942.07 89.306838 
L 952.07 89.306838 
L 962.07 89.306838 
" style="fill: none; stroke: #8c564b; stroke-width: 1.5; stroke-linecap: square"/>
    </g>
    <g id="text_21">
     <!-- lasso -->
     <g transform="translate(970.07 92.806838) scale(0.1 -0.1)">
      <use xlink:href="#DejaVuSans-6c"/>
      <use xlink:href="#DejaVuSans-61" x="27.783203"/>
      <use xlink:href="#DejaVuSans-73" x="89.0625"/>
      <use xlink:href="#DejaVuSans-73" x="141.162109"/>
      <use xlink:href="#DejaVuSans-6f" x="193.261719"/>
     </g>
    </g>
    <g id="line2d_30">
     <path d="M 942.07 103.984963 
L 952.07 103.984963 
L 962.07 103.984963 
" style="fill: none; stroke: #e377c2; stroke-width: 1.5; stroke-linecap: square"/>
    </g>
    <g id="text_22">
     <!-- ridge -->
     <g transform="translate(970.07 107.484963) scale(0.1 -0.1)">
      <use xlink:href="#DejaVuSans-72"/>
      <use xlink:href="#DejaVuSans-69" x="41.113281"/>
      <use xlink:href="#DejaVuSans-64" x="68.896484"/>
      <use xlink:href="#DejaVuSans-67" x="132.373047"/>
      <use xlink:href="#DejaVuSans-65" x="195.849609"/>
     </g>
    </g>
    <g id="line2d_31">
     <path d="M 942.07 118.663088 
L 952.07 118.663088 
L 962.07 118.663088 
" style="fill: none; stroke: #7f7f7f; stroke-width: 1.5; stroke-linecap: square"/>
    </g>
    <g id="text_23">
     <!-- elastic_net -->
     <g transform="translate(970.07 122.163088) scale(0.1 -0.1)">
      <use xlink:href="#DejaVuSans-65"/>
      <use xlink:href="#DejaVuSans-6c" x="61.523438"/>
      <use xlink:href="#DejaVuSans-61" x="89.306641"/>
      <use xlink:href="#DejaVuSans-73" x="150.585938"/>
      <use xlink:href="#DejaVuSans-74" x="202.685547"/>
      <use xlink:href="#DejaVuSans-69" x="241.894531"/>
      <use xlink:href="#DejaVuSans-63" x="269.677734"/>
      <use xlink:href="#DejaVuSans-5f" x="324.658203"/>
      <use xlink:href="#DejaVuSans-6e" x="374.658203"/>
      <use xlink:href="#DejaVuSans-65" x="438.037109"/>
      <use xlink:href="#DejaVuSans-74" x="499.560547"/>
     </g>
    </g>
    <g id="line2d_32">
     <path d="M 942.07 133.619338 
L 952.07 133.619338 
L 962.07 133.619338 
" style="fill: none; stroke: #bcbd22; stroke-width: 1.5; stroke-linecap: square"/>
    </g>
    <g id="text_24">
     <!-- rf -->
     <g transform="translate(970.07 137.119338) scale(0.1 -0.1)">
      <use xlink:href="#DejaVuSans-72"/>
      <use xlink:href="#DejaVuSans-66" x="41.113281"/>
     </g>
    </g>
    <g id="line2d_33">
     <path d="M 942.07 148.297463 
L 952.07 148.297463 
L 962.07 148.297463 
" style="fill: none; stroke: #17becf; stroke-width: 1.5; stroke-linecap: square"/>
    </g>
    <g id="text_25">
     <!-- gbm -->
     <g transform="translate(970.07 151.797463) scale(0.1 -0.1)">
      <use xlink:href="#DejaVuSans-67"/>
      <use xlink:href="#DejaVuSans-62" x="63.476562"/>
      <use xlink:href="#DejaVuSans-6d" x="126.953125"/>
     </g>
    </g>
    <g id="line2d_34">
     <path d="M 942.07 162.975588 
L 952.07 162.975588 
L 962.07 162.975588 
" style="fill: none; stroke: #9edae5; stroke-width: 1.5; stroke-linecap: square"/>
    </g>
    <g id="text_26">
     <!-- xgb -->
     <g transform="translate(970.07 166.475588) scale(0.1 -0.1)">
      <defs>
       <path id="DejaVuSans-78" d="M 3513 3500 
L 2247 1797 
L 3578 0 
L 2900 0 
L 1881 1375 
L 863 0 
L 184 0 
L 1544 1831 
L 300 3500 
L 978 3500 
L 1906 2253 
L 2834 3500 
L 3513 3500 
z
" transform="scale(0.015625)"/>
      </defs>
      <use xlink:href="#DejaVuSans-78"/>
      <use xlink:href="#DejaVuSans-67" x="59.179688"/>
      <use xlink:href="#DejaVuSans-62" x="122.65625"/>
     </g>
    </g>
   </g>
  </g>
 </g>
 <defs>
  <clipPath id="pfde46f2058">
   <rect x="47.765" y="30.748" width="885.305" height="575.292"/>
  </clipPath>
 </defs>
</svg>
