<?xml version="1.0" encoding="utf-8" standalone="no"?>
<!DOCTYPE svg PUBLIC "-//W3C//DTD SVG 1.1//EN"
  "http://www.w3.org/Graphics/SVG/1.1/DTD/svg11.dtd">
<svg xmlns:xlink="http://www.w3.org/1999/xlink" width="1080pt" height="648pt" viewBox="0 0 1080 648" xmlns="http://www.w3.org/2000/svg" version="1.1">
 <metadata>
  <rdf:RDF xmlns:dc="http://purl.org/dc/elements/1.1/" xmlns:cc="http://creativecommons.org/ns#" xmlns:rdf="http://www.w3.org/1999/02/22-rdf-syntax-ns#">
   <cc:Work>
    <dc:type rdf:resource="http://purl.org/dc/dcmitype/StillImage"/>
    <dc:date>2024-04-04T23:48:05.140400</dc:date>
    <dc:format>image/svg+xml</dc:format>
    <dc:creator>
     <cc:Agent>
      <dc:title>Matplotlib v3.7.2, https://matplotlib.org/</dc:title>
     </cc:Agent>
    </dc:creator>
   </cc:Work>
  </rdf:RDF>
 </metadata>
 <defs>
  <style type="text/css">*{stroke-linejoin: round; stroke-linecap: butt}</style>
 </defs>
 <g id="figure_1">
  <g id="patch_1">
   <path d="M 0 648 
L 1080 648 
L 1080 0 
L 0 0 
z
" style="fill: #ffffff"/>
  </g>
  <g id="axes_1">
   <g id="patch_2">
    <path d="M 50.915 606.04 
L 933.07 606.04 
L 933.07 30.748 
L 50.915 30.748 
z
" style="fill: #ffffff"/>
   </g>
   <g id="PolyCollection_1">
    <defs>
     <path id="mf20093e0f2" d="M 50.915 -570.936463 
L 50.915 -562.134473 
L 68.5581 -565.941633 
L 86.2012 -567.976238 
L 103.8443 -568.036573 
L 121.4874 -569.976032 
L 139.1305 -571.38528 
L 156.7736 -570.29928 
L 174.4167 -574.590024 
L 192.0598 -575.76084 
L 209.7029 -576.814149 
L 227.346 -575.078027 
L 244.9891 -578.451302 
L 262.6322 -580.507763 
L 280.2753 -579.141685 
L 297.9184 -581.347029 
L 315.5615 -579.998751 
L 333.2046 -584.317386 
L 350.8477 -582.377727 
L 368.4908 -581.768462 
L 386.1339 -585.29207 
L 403.777 -587.170617 
L 421.4201 -584.397579 
L 439.0632 -584.714428 
L 456.7063 -587.429913 
L 474.3494 -586.268969 
L 491.9925 -584.708987 
L 509.6356 -585.459547 
L 527.2787 -588.17024 
L 544.9218 -587.188303 
L 562.5649 -591.900611 
L 580.208 -590.153617 
L 597.8511 -589.338709 
L 615.4942 -593.380329 
L 633.1373 -592.502568 
L 650.7804 -592.328846 
L 668.4235 -593.218561 
L 686.0666 -595.898836 
L 703.7097 -592.455548 
L 721.3528 -595.518144 
L 738.9959 -596.754707 
L 756.639 -593.434247 
L 774.2821 -595.121823 
L 791.9252 -598.332822 
L 809.5683 -596.79233 
L 827.2114 -597.283869 
L 844.8545 -598.575573 
L 862.4976 -597.165861 
L 880.1407 -598.020712 
L 897.7838 -598.671692 
L 915.4269 -599.377031 
L 933.07 -597.791855 
L 933.07 -603.49482 
L 933.07 -603.49482 
L 915.4269 -604.254746 
L 897.7838 -602.34782 
L 880.1407 -601.752037 
L 862.4976 -601.27107 
L 844.8545 -602.354884 
L 827.2114 -600.8859 
L 809.5683 -600.932166 
L 791.9252 -600.450433 
L 774.2821 -600.692949 
L 756.639 -599.392252 
L 738.9959 -599.455863 
L 721.3528 -599.000391 
L 703.7097 -598.144589 
L 686.0666 -599.064971 
L 668.4235 -597.54979 
L 650.7804 -597.558855 
L 633.1373 -597.177339 
L 615.4942 -595.928517 
L 597.8511 -596.452485 
L 580.208 -594.479869 
L 562.5649 -595.137346 
L 544.9218 -593.388257 
L 527.2787 -593.613502 
L 509.6356 -592.227689 
L 491.9925 -592.443922 
L 474.3494 -590.260558 
L 456.7063 -590.969759 
L 439.0632 -593.239971 
L 421.4201 -591.508567 
L 403.777 -591.318109 
L 386.1339 -589.011095 
L 368.4908 -588.972524 
L 350.8477 -588.897586 
L 333.2046 -588.382799 
L 315.5615 -587.26911 
L 297.9184 -586.811377 
L 280.2753 -587.057522 
L 262.6322 -585.869553 
L 244.9891 -585.165325 
L 227.346 -581.325186 
L 209.7029 -581.281099 
L 192.0598 -581.532918 
L 174.4167 -581.100753 
L 156.7736 -580.137282 
L 139.1305 -577.893574 
L 121.4874 -577.254568 
L 103.8443 -575.297894 
L 86.2012 -573.822039 
L 68.5581 -573.897445 
L 50.915 -570.936463 
z
" style="stroke: #1f77b4; stroke-opacity: 0.2"/>
    </defs>
    <g clip-path="url(#pd934b8f563)">
     <use xlink:href="#mf20093e0f2" x="0" y="648" style="fill: #1f77b4; fill-opacity: 0.2; stroke: #1f77b4; stroke-opacity: 0.2"/>
    </g>
   </g>
   <g id="PolyCollection_2">
    <defs>
     <path id="m7e963938e8" d="M 50.915 -527.736766 
L 50.915 -498.023512 
L 68.5581 -514.1806 
L 86.2012 -505.515683 
L 103.8443 -508.604974 
L 121.4874 -517.635805 
L 139.1305 -511.566679 
L 156.7736 -526.74544 
L 174.4167 -516.557628 
L 192.0598 -529.50733 
L 209.7029 -526.781594 
L 227.346 -531.268601 
L 244.9891 -527.427524 
L 262.6322 -534.175585 
L 280.2753 -529.591268 
L 297.9184 -535.095537 
L 315.5615 -542.265067 
L 333.2046 -536.491675 
L 350.8477 -537.954389 
L 368.4908 -544.212835 
L 386.1339 -539.406259 
L 403.777 -545.060176 
L 421.4201 -547.917648 
L 439.0632 -541.316682 
L 456.7063 -546.690916 
L 474.3494 -554.658846 
L 491.9925 -545.453144 
L 509.6356 -557.646085 
L 527.2787 -552.810278 
L 544.9218 -549.779826 
L 562.5649 -557.109799 
L 580.208 -557.382032 
L 597.8511 -558.198817 
L 615.4942 -562.602905 
L 633.1373 -567.062254 
L 650.7804 -563.799768 
L 668.4235 -564.593634 
L 686.0666 -567.036407 
L 703.7097 -561.629944 
L 721.3528 -569.359028 
L 738.9959 -568.329709 
L 756.639 -574.909866 
L 774.2821 -571.837392 
L 791.9252 -569.488043 
L 809.5683 -577.003696 
L 827.2114 -571.004412 
L 844.8545 -573.290923 
L 862.4976 -573.411523 
L 880.1407 -572.63966 
L 897.7838 -576.913567 
L 915.4269 -575.018317 
L 933.07 -580.557009 
L 933.07 -589.293432 
L 933.07 -589.293432 
L 915.4269 -585.926674 
L 897.7838 -589.10753 
L 880.1407 -584.654098 
L 862.4976 -590.739431 
L 844.8545 -585.962034 
L 827.2114 -587.001782 
L 809.5683 -586.167658 
L 791.9252 -586.024625 
L 774.2821 -584.298658 
L 756.639 -583.986873 
L 738.9959 -586.559578 
L 721.3528 -581.879025 
L 703.7097 -579.812115 
L 686.0666 -585.537463 
L 668.4235 -575.423553 
L 650.7804 -582.896506 
L 633.1373 -583.107145 
L 615.4942 -575.633193 
L 597.8511 -573.981575 
L 580.208 -576.490395 
L 562.5649 -577.475064 
L 544.9218 -565.034941 
L 527.2787 -568.060193 
L 509.6356 -571.328345 
L 491.9925 -572.745693 
L 474.3494 -572.267331 
L 456.7063 -564.73978 
L 439.0632 -561.564783 
L 421.4201 -559.238432 
L 403.777 -566.014302 
L 386.1339 -558.3991 
L 368.4908 -559.559175 
L 350.8477 -560.296242 
L 333.2046 -556.148524 
L 315.5615 -557.855708 
L 297.9184 -560.305351 
L 280.2753 -554.855918 
L 262.6322 -554.991489 
L 244.9891 -554.080864 
L 227.346 -554.336293 
L 209.7029 -544.485528 
L 192.0598 -542.650336 
L 174.4167 -542.509029 
L 156.7736 -551.556986 
L 139.1305 -537.793038 
L 121.4874 -545.97263 
L 103.8443 -537.459727 
L 86.2012 -532.44506 
L 68.5581 -536.871152 
L 50.915 -527.736766 
z
" style="stroke: #ff7f0e; stroke-opacity: 0.2"/>
    </defs>
    <g clip-path="url(#pd934b8f563)">
     <use xlink:href="#m7e963938e8" x="0" y="648" style="fill: #ff7f0e; fill-opacity: 0.2; stroke: #ff7f0e; stroke-opacity: 0.2"/>
    </g>
   </g>
   <g id="PolyCollection_3">
    <defs>
     <path id="m7009248f12" d="M 50.915 -551.135718 
L 50.915 -537.764193 
L 68.5581 -538.631643 
L 86.2012 -539.654608 
L 103.8443 -541.788493 
L 121.4874 -545.485053 
L 139.1305 -545.945035 
L 156.7736 -547.189364 
L 174.4167 -547.453033 
L 192.0598 -551.029387 
L 209.7029 -551.671269 
L 227.346 -552.157255 
L 244.9891 -553.642966 
L 262.6322 -557.017479 
L 280.2753 -557.006411 
L 297.9184 -557.268922 
L 315.5615 -560.357724 
L 333.2046 -561.681999 
L 350.8477 -563.908361 
L 368.4908 -565.409769 
L 386.1339 -567.171772 
L 403.777 -568.149607 
L 421.4201 -569.546228 
L 439.0632 -570.04325 
L 456.7063 -570.258515 
L 474.3494 -570.409339 
L 491.9925 -571.81647 
L 509.6356 -572.628588 
L 527.2787 -572.921115 
L 544.9218 -572.714211 
L 562.5649 -572.601124 
L 580.208 -573.348137 
L 597.8511 -573.905238 
L 615.4942 -574.134553 
L 633.1373 -574.267421 
L 650.7804 -574.461755 
L 668.4235 -574.578927 
L 686.0666 -574.920494 
L 703.7097 -575.334901 
L 721.3528 -575.478332 
L 738.9959 -575.670689 
L 756.639 -575.947907 
L 774.2821 -576.418199 
L 791.9252 -576.504217 
L 809.5683 -576.504217 
L 827.2114 -576.22908 
L 844.8545 -577.203715 
L 862.4976 -577.495141 
L 880.1407 -577.667684 
L 897.7838 -577.970584 
L 915.4269 -578.241098 
L 933.07 -578.806806 
L 933.07 -583.295894 
L 933.07 -583.295894 
L 915.4269 -582.971057 
L 897.7838 -582.707245 
L 880.1407 -582.564872 
L 862.4976 -582.470251 
L 844.8545 -582.316405 
L 827.2114 -582.044277 
L 809.5683 -581.323867 
L 791.9252 -581.323867 
L 774.2821 -580.69745 
L 756.639 -580.544361 
L 738.9959 -580.109142 
L 721.3528 -579.945282 
L 703.7097 -579.910604 
L 686.0666 -579.612575 
L 668.4235 -579.063597 
L 650.7804 -579.00266 
L 633.1373 -578.92983 
L 615.4942 -578.884589 
L 597.8511 -578.757686 
L 580.208 -578.602352 
L 562.5649 -578.369765 
L 544.9218 -577.989515 
L 527.2787 -577.248284 
L 509.6356 -577.095538 
L 491.9925 -576.304675 
L 474.3494 -575.663554 
L 456.7063 -574.300451 
L 439.0632 -574.070443 
L 421.4201 -573.85503 
L 403.777 -572.936234 
L 386.1339 -572.222033 
L 368.4908 -571.757674 
L 350.8477 -570.23123 
L 333.2046 -568.984467 
L 315.5615 -567.904271 
L 297.9184 -567.430893 
L 280.2753 -565.734205 
L 262.6322 -563.40772 
L 244.9891 -561.884236 
L 227.346 -561.856021 
L 209.7029 -561.451463 
L 192.0598 -560.579417 
L 174.4167 -560.682646 
L 156.7736 -559.788607 
L 139.1305 -558.272248 
L 121.4874 -557.040194 
L 103.8443 -554.057668 
L 86.2012 -553.787081 
L 68.5581 -551.51503 
L 50.915 -551.135718 
z
" style="stroke: #2ca02c; stroke-opacity: 0.2"/>
    </defs>
    <g clip-path="url(#pd934b8f563)">
     <use xlink:href="#m7009248f12" x="0" y="648" style="fill: #2ca02c; fill-opacity: 0.2; stroke: #2ca02c; stroke-opacity: 0.2"/>
    </g>
   </g>
   <g id="PolyCollection_4">
    <defs>
     <path id="m3ba30b068b" d="M 50.915 -551.638178 
L 50.915 -535.213479 
L 68.5581 -537.086467 
L 86.2012 -538.197162 
L 103.8443 -539.318931 
L 121.4874 -540.670088 
L 139.1305 -542.265232 
L 156.7736 -543.245762 
L 174.4167 -545.216409 
L 192.0598 -545.449644 
L 209.7029 -546.045159 
L 227.346 -548.599526 
L 244.9891 -549.137665 
L 262.6322 -549.877614 
L 280.2753 -552.418527 
L 297.9184 -553.443726 
L 315.5615 -553.835316 
L 333.2046 -553.902483 
L 350.8477 -555.282881 
L 368.4908 -555.533238 
L 386.1339 -557.050124 
L 403.777 -557.682598 
L 421.4201 -561.367643 
L 439.0632 -563.39343 
L 456.7063 -564.243531 
L 474.3494 -564.493721 
L 491.9925 -565.058264 
L 509.6356 -568.980482 
L 527.2787 -569.035221 
L 544.9218 -569.696903 
L 562.5649 -569.807587 
L 580.208 -569.844281 
L 597.8511 -570.668985 
L 615.4942 -571.344753 
L 633.1373 -572.545028 
L 650.7804 -573.305883 
L 668.4235 -573.851046 
L 686.0666 -574.0002 
L 703.7097 -574.103181 
L 721.3528 -575.066517 
L 738.9959 -575.764008 
L 756.639 -575.861913 
L 774.2821 -576.134166 
L 791.9252 -575.930717 
L 809.5683 -576.424034 
L 827.2114 -576.424034 
L 844.8545 -576.480716 
L 862.4976 -576.647928 
L 880.1407 -576.839138 
L 897.7838 -577.130014 
L 915.4269 -577.347042 
L 933.07 -577.906004 
L 933.07 -582.326552 
L 933.07 -582.326552 
L 915.4269 -581.994969 
L 897.7838 -581.855779 
L 880.1407 -581.701383 
L 862.4976 -581.625429 
L 844.8545 -581.525478 
L 827.2114 -581.493105 
L 809.5683 -581.493105 
L 791.9252 -581.363041 
L 774.2821 -580.803374 
L 756.639 -580.5413 
L 738.9959 -579.926769 
L 721.3528 -579.555606 
L 703.7097 -579.272179 
L 686.0666 -578.395561 
L 668.4235 -577.921333 
L 650.7804 -577.665007 
L 633.1373 -577.446262 
L 615.4942 -577.13261 
L 597.8511 -577.006888 
L 580.208 -576.584829 
L 562.5649 -575.285705 
L 544.9218 -575.129227 
L 527.2787 -575.078472 
L 509.6356 -574.955103 
L 491.9925 -575.226087 
L 474.3494 -574.543866 
L 456.7063 -574.437839 
L 439.0632 -573.595904 
L 421.4201 -574.01871 
L 403.777 -572.44954 
L 386.1339 -572.280524 
L 368.4908 -571.39294 
L 350.8477 -570.752751 
L 333.2046 -568.660024 
L 315.5615 -568.281919 
L 297.9184 -566.981473 
L 280.2753 -565.602201 
L 262.6322 -564.759043 
L 244.9891 -563.896012 
L 227.346 -563.454551 
L 209.7029 -562.624848 
L 192.0598 -560.726837 
L 174.4167 -560.247636 
L 156.7736 -559.457594 
L 139.1305 -558.746088 
L 121.4874 -556.689998 
L 103.8443 -556.883447 
L 86.2012 -555.244527 
L 68.5581 -552.971152 
L 50.915 -551.638178 
z
" style="stroke: #d62728; stroke-opacity: 0.2"/>
    </defs>
    <g clip-path="url(#pd934b8f563)">
     <use xlink:href="#m3ba30b068b" x="0" y="648" style="fill: #d62728; fill-opacity: 0.2; stroke: #d62728; stroke-opacity: 0.2"/>
    </g>
   </g>
   <g id="PolyCollection_5">
    <defs>
     <path id="m8ca57da86f" d="M 50.915 -549.121551 
L 50.915 -542.806212 
L 68.5581 -544.392563 
L 86.2012 -545.353885 
L 103.8443 -546.800469 
L 121.4874 -548.050568 
L 139.1305 -549.447877 
L 156.7736 -551.142427 
L 174.4167 -552.541169 
L 192.0598 -554.370274 
L 209.7029 -555.246222 
L 227.346 -555.483522 
L 244.9891 -556.007345 
L 262.6322 -556.27048 
L 280.2753 -556.443209 
L 297.9184 -556.784002 
L 315.5615 -557.200481 
L 333.2046 -559.071724 
L 350.8477 -559.908777 
L 368.4908 -559.900909 
L 386.1339 -560.18334 
L 403.777 -560.599041 
L 421.4201 -561.11775 
L 439.0632 -562.279735 
L 456.7063 -562.378647 
L 474.3494 -563.058095 
L 491.9925 -564.184621 
L 509.6356 -564.877661 
L 527.2787 -565.077546 
L 544.9218 -565.332393 
L 562.5649 -565.791368 
L 580.208 -566.2385 
L 597.8511 -566.485064 
L 615.4942 -567.464248 
L 633.1373 -568.485723 
L 650.7804 -568.916533 
L 668.4235 -569.605892 
L 686.0666 -571.126528 
L 703.7097 -571.277979 
L 721.3528 -571.447052 
L 738.9959 -571.808108 
L 756.639 -573.140464 
L 774.2821 -573.649626 
L 791.9252 -574.260467 
L 809.5683 -574.271973 
L 827.2114 -575.102816 
L 844.8545 -575.828161 
L 862.4976 -576.147514 
L 880.1407 -576.910316 
L 897.7838 -578.387565 
L 915.4269 -578.839979 
L 933.07 -579.349549 
L 933.07 -585.246677 
L 933.07 -585.246677 
L 915.4269 -584.776648 
L 897.7838 -584.694735 
L 880.1407 -583.500349 
L 862.4976 -583.283552 
L 844.8545 -582.890469 
L 827.2114 -582.636215 
L 809.5683 -582.576513 
L 791.9252 -581.519364 
L 774.2821 -581.23966 
L 756.639 -580.413005 
L 738.9959 -579.429945 
L 721.3528 -579.167619 
L 703.7097 -578.178984 
L 686.0666 -577.796108 
L 668.4235 -577.713764 
L 650.7804 -577.156359 
L 633.1373 -576.696624 
L 615.4942 -576.293227 
L 597.8511 -575.936594 
L 580.208 -575.381668 
L 562.5649 -575.02731 
L 544.9218 -574.773849 
L 527.2787 -574.049096 
L 509.6356 -573.358436 
L 491.9925 -572.893768 
L 474.3494 -572.862586 
L 456.7063 -571.939052 
L 439.0632 -570.345929 
L 421.4201 -568.569116 
L 403.777 -568.37539 
L 386.1339 -566.920946 
L 368.4908 -566.223778 
L 350.8477 -565.948746 
L 333.2046 -564.826601 
L 315.5615 -564.115263 
L 297.9184 -563.997415 
L 280.2753 -563.625772 
L 262.6322 -562.729847 
L 244.9891 -562.369601 
L 227.346 -562.180988 
L 209.7029 -559.924762 
L 192.0598 -558.663403 
L 174.4167 -557.998982 
L 156.7736 -557.794743 
L 139.1305 -556.550496 
L 121.4874 -554.563734 
L 103.8443 -552.696925 
L 86.2012 -552.006202 
L 68.5581 -551.186434 
L 50.915 -549.121551 
z
" style="stroke: #9467bd; stroke-opacity: 0.2"/>
    </defs>
    <g clip-path="url(#pd934b8f563)">
     <use xlink:href="#m8ca57da86f" x="0" y="648" style="fill: #9467bd; fill-opacity: 0.2; stroke: #9467bd; stroke-opacity: 0.2"/>
    </g>
   </g>
   <g id="PolyCollection_6">
    <defs>
     <path id="me0d256295f" d="M 50.915 -569.446559 
L 50.915 -559.527871 
L 68.5581 -560.880508 
L 86.2012 -561.860108 
L 103.8443 -563.359219 
L 121.4874 -564.324395 
L 139.1305 -565.161664 
L 156.7736 -566.423344 
L 174.4167 -566.618193 
L 192.0598 -568.304098 
L 209.7029 -569.570161 
L 227.346 -570.820651 
L 244.9891 -572.322189 
L 262.6322 -572.644614 
L 280.2753 -573.064661 
L 297.9184 -573.484701 
L 315.5615 -573.692442 
L 333.2046 -574.656703 
L 350.8477 -576.108826 
L 368.4908 -576.74495 
L 386.1339 -577.276341 
L 403.777 -577.531935 
L 421.4201 -578.667788 
L 439.0632 -578.978815 
L 456.7063 -579.569521 
L 474.3494 -579.76006 
L 491.9925 -580.070075 
L 509.6356 -580.617611 
L 527.2787 -580.950287 
L 544.9218 -581.52754 
L 562.5649 -581.991934 
L 580.208 -582.676892 
L 597.8511 -583.345992 
L 615.4942 -584.283132 
L 633.1373 -586.145613 
L 650.7804 -588.091253 
L 668.4235 -588.720877 
L 686.0666 -591.338925 
L 703.7097 -591.749047 
L 721.3528 -591.89588 
L 738.9959 -592.469081 
L 756.639 -592.90695 
L 774.2821 -593.207288 
L 791.9252 -593.591473 
L 809.5683 -593.665309 
L 827.2114 -594.633644 
L 844.8545 -594.960409 
L 862.4976 -595.091833 
L 880.1407 -595.480003 
L 897.7838 -596.228672 
L 915.4269 -596.717261 
L 933.07 -596.972442 
L 933.07 -601.731653 
L 933.07 -601.731653 
L 915.4269 -601.630616 
L 897.7838 -601.139606 
L 880.1407 -600.908676 
L 862.4976 -600.584409 
L 844.8545 -600.092452 
L 827.2114 -599.973944 
L 809.5683 -599.873626 
L 791.9252 -599.235026 
L 774.2821 -598.550557 
L 756.639 -597.960351 
L 738.9959 -597.41862 
L 721.3528 -596.745058 
L 703.7097 -596.535674 
L 686.0666 -595.788086 
L 668.4235 -595.111119 
L 650.7804 -593.69249 
L 633.1373 -592.788386 
L 615.4942 -592.780722 
L 597.8511 -591.66961 
L 580.208 -591.002892 
L 562.5649 -590.619196 
L 544.9218 -590.282099 
L 527.2787 -588.722045 
L 509.6356 -588.342285 
L 491.9925 -588.355494 
L 474.3494 -588.042128 
L 456.7063 -587.876448 
L 439.0632 -587.57661 
L 421.4201 -587.086146 
L 403.777 -586.529964 
L 386.1339 -586.162176 
L 368.4908 -584.823424 
L 350.8477 -584.212785 
L 333.2046 -583.705709 
L 315.5615 -583.69037 
L 297.9184 -583.452839 
L 280.2753 -582.804226 
L 262.6322 -582.422781 
L 244.9891 -582.121825 
L 227.346 -581.129838 
L 209.7029 -579.708693 
L 192.0598 -578.659339 
L 174.4167 -576.961173 
L 156.7736 -575.642097 
L 139.1305 -574.855523 
L 121.4874 -572.219667 
L 103.8443 -571.403753 
L 86.2012 -570.854611 
L 68.5581 -570.409339 
L 50.915 -569.446559 
z
" style="stroke: #8c564b; stroke-opacity: 0.2"/>
    </defs>
    <g clip-path="url(#pd934b8f563)">
     <use xlink:href="#me0d256295f" x="0" y="648" style="fill: #8c564b; fill-opacity: 0.2; stroke: #8c564b; stroke-opacity: 0.2"/>
    </g>
   </g>
   <g id="PolyCollection_7">
    <defs>
     <path id="mb4a67fb084" d="M 50.915 -570.751763 
L 50.915 -562.141065 
L 68.5581 -563.685477 
L 86.2012 -564.735787 
L 103.8443 -567.254307 
L 121.4874 -568.937916 
L 139.1305 -570.285941 
L 156.7736 -571.36244 
L 174.4167 -571.721049 
L 192.0598 -572.985563 
L 209.7029 -573.6837 
L 227.346 -574.819894 
L 244.9891 -575.569499 
L 262.6322 -575.777703 
L 280.2753 -577.482695 
L 297.9184 -578.182755 
L 315.5615 -578.52131 
L 333.2046 -579.609582 
L 350.8477 -580.062807 
L 368.4908 -580.634864 
L 386.1339 -581.058152 
L 403.777 -582.801946 
L 421.4201 -583.49192 
L 439.0632 -584.816312 
L 456.7063 -585.267296 
L 474.3494 -586.429729 
L 491.9925 -587.046074 
L 509.6356 -587.750656 
L 527.2787 -589.421377 
L 544.9218 -589.542173 
L 562.5649 -590.396219 
L 580.208 -590.936803 
L 597.8511 -590.976688 
L 615.4942 -591.101494 
L 633.1373 -591.622408 
L 650.7804 -592.709264 
L 668.4235 -594.150209 
L 686.0666 -594.484693 
L 703.7097 -595.468107 
L 721.3528 -596.123157 
L 738.9959 -597.220556 
L 756.639 -597.333043 
L 774.2821 -599.087431 
L 791.9252 -599.087431 
L 809.5683 -599.171396 
L 827.2114 -599.491762 
L 844.8545 -600.318976 
L 862.4976 -600.384015 
L 880.1407 -600.764249 
L 897.7838 -601.428661 
L 915.4269 -601.592915 
L 933.07 -601.73197 
L 933.07 -604.98703 
L 933.07 -604.98703 
L 915.4269 -604.858921 
L 897.7838 -604.756011 
L 880.1407 -603.906497 
L 862.4976 -603.663349 
L 844.8545 -603.461225 
L 827.2114 -603.041676 
L 809.5683 -602.293388 
L 791.9252 -602.199245 
L 774.2821 -602.199245 
L 756.639 -601.371053 
L 738.9959 -601.30543 
L 721.3528 -601.334176 
L 703.7097 -601.187735 
L 686.0666 -600.924386 
L 668.4235 -600.45738 
L 650.7804 -599.22669 
L 633.1373 -598.176238 
L 615.4942 -597.361335 
L 597.8511 -596.595596 
L 580.208 -595.833991 
L 562.5649 -595.48403 
L 544.9218 -595.269422 
L 527.2787 -594.855891 
L 509.6356 -594.300249 
L 491.9925 -594.292396 
L 474.3494 -594.018196 
L 456.7063 -593.132376 
L 439.0632 -592.425652 
L 421.4201 -591.968953 
L 403.777 -590.699729 
L 386.1339 -589.504725 
L 368.4908 -589.215577 
L 350.8477 -588.273708 
L 333.2046 -588.192606 
L 315.5615 -586.431134 
L 297.9184 -585.879144 
L 280.2753 -584.530951 
L 262.6322 -583.653363 
L 244.9891 -583.505349 
L 227.346 -582.384809 
L 209.7029 -581.383696 
L 192.0598 -580.478852 
L 174.4167 -578.982677 
L 156.7736 -578.272632 
L 139.1305 -577.478986 
L 121.4874 -575.799159 
L 103.8443 -574.989242 
L 86.2012 -572.965983 
L 68.5581 -571.700876 
L 50.915 -570.751763 
z
" style="stroke: #e377c2; stroke-opacity: 0.2"/>
    </defs>
    <g clip-path="url(#pd934b8f563)">
     <use xlink:href="#mb4a67fb084" x="0" y="648" style="fill: #e377c2; fill-opacity: 0.2; stroke: #e377c2; stroke-opacity: 0.2"/>
    </g>
   </g>
   <g id="PolyCollection_8">
    <defs>
     <path id="m8179559127" d="M 50.915 -568.799412 
L 50.915 -561.956109 
L 68.5581 -561.931754 
L 86.2012 -563.471102 
L 103.8443 -565.349898 
L 121.4874 -566.684807 
L 139.1305 -567.16639 
L 156.7736 -567.552572 
L 174.4167 -568.021817 
L 192.0598 -568.996689 
L 209.7029 -569.513709 
L 227.346 -570.377668 
L 244.9891 -570.665632 
L 262.6322 -571.780737 
L 280.2753 -572.240779 
L 297.9184 -572.799157 
L 315.5615 -573.787477 
L 333.2046 -574.610464 
L 350.8477 -575.410198 
L 368.4908 -576.118267 
L 386.1339 -576.64609 
L 403.777 -576.811995 
L 421.4201 -577.417122 
L 439.0632 -577.663009 
L 456.7063 -578.458622 
L 474.3494 -579.008025 
L 491.9925 -579.125465 
L 509.6356 -579.635198 
L 527.2787 -581.580224 
L 544.9218 -584.077412 
L 562.5649 -584.355231 
L 580.208 -584.744042 
L 597.8511 -585.035042 
L 615.4942 -585.911601 
L 633.1373 -586.192817 
L 650.7804 -587.16546 
L 668.4235 -587.175854 
L 686.0666 -587.974383 
L 703.7097 -588.100242 
L 721.3528 -588.2521 
L 738.9959 -588.512629 
L 756.639 -588.984196 
L 774.2821 -589.539995 
L 791.9252 -591.03953 
L 809.5683 -591.241548 
L 827.2114 -592.463795 
L 844.8545 -593.377861 
L 862.4976 -593.442943 
L 880.1407 -593.591473 
L 897.7838 -593.592422 
L 915.4269 -593.755641 
L 933.07 -594.56012 
L 933.07 -600.136524 
L 933.07 -600.136524 
L 915.4269 -599.961403 
L 897.7838 -599.323132 
L 880.1407 -599.235026 
L 862.4976 -598.760175 
L 844.8545 -598.647148 
L 827.2114 -597.602015 
L 809.5683 -597.310335 
L 791.9252 -596.799917 
L 774.2821 -596.963636 
L 756.639 -596.62889 
L 738.9959 -596.031803 
L 721.3528 -595.936114 
L 703.7097 -595.820809 
L 686.0666 -595.768559 
L 668.4235 -595.320324 
L 650.7804 -595.15261 
L 633.1373 -594.166054 
L 615.4942 -594.091051 
L 597.8511 -592.652194 
L 580.208 -592.497922 
L 562.5649 -592.174296 
L 544.9218 -591.828734 
L 527.2787 -590.674688 
L 509.6356 -589.859025 
L 491.9925 -589.745376 
L 474.3494 -589.061326 
L 456.7063 -587.65153 
L 439.0632 -586.487945 
L 421.4201 -586.377614 
L 403.777 -585.379759 
L 386.1339 -584.744175 
L 368.4908 -583.669017 
L 350.8477 -582.863159 
L 333.2046 -582.238021 
L 315.5615 -581.814246 
L 297.9184 -580.932421 
L 280.2753 -580.065928 
L 262.6322 -579.54637 
L 244.9891 -578.702276 
L 227.346 -577.921587 
L 209.7029 -575.757693 
L 192.0598 -575.473222 
L 174.4167 -575.023222 
L 156.7736 -574.33476 
L 139.1305 -573.207015 
L 121.4874 -572.708999 
L 103.8443 -571.995654 
L 86.2012 -571.380925 
L 68.5581 -570.604856 
L 50.915 -568.799412 
z
" style="stroke: #7f7f7f; stroke-opacity: 0.2"/>
    </defs>
    <g clip-path="url(#pd934b8f563)">
     <use xlink:href="#m8179559127" x="0" y="648" style="fill: #7f7f7f; fill-opacity: 0.2; stroke: #7f7f7f; stroke-opacity: 0.2"/>
    </g>
   </g>
   <g id="PolyCollection_9">
    <defs>
     <path id="mbf72541576" d="M 50.915 -569.089072 
L 50.915 -561.933612 
L 68.5581 -563.32763 
L 86.2012 -564.530555 
L 103.8443 -566.192788 
L 121.4874 -566.749214 
L 139.1305 -567.667468 
L 156.7736 -568.119262 
L 174.4167 -569.149069 
L 192.0598 -570.207334 
L 209.7029 -570.426799 
L 227.346 -570.399011 
L 244.9891 -570.983621 
L 262.6322 -571.038584 
L 280.2753 -571.439705 
L 297.9184 -572.545747 
L 315.5615 -572.554669 
L 333.2046 -572.465769 
L 350.8477 -574.025064 
L 368.4908 -575.791572 
L 386.1339 -575.832964 
L 403.777 -575.965305 
L 421.4201 -576.550256 
L 439.0632 -580.609558 
L 456.7063 -581.600622 
L 474.3494 -582.208397 
L 491.9925 -582.795552 
L 509.6356 -585.300309 
L 527.2787 -585.397443 
L 544.9218 -585.820786 
L 562.5649 -586.19059 
L 580.208 -586.498647 
L 597.8511 -587.297593 
L 615.4942 -587.70426 
L 633.1373 -588.686458 
L 650.7804 -589.336202 
L 668.4235 -591.430892 
L 686.0666 -592.030934 
L 703.7097 -592.814384 
L 721.3528 -593.357655 
L 738.9959 -594.260678 
L 756.639 -594.776509 
L 774.2821 -595.252576 
L 791.9252 -595.252576 
L 809.5683 -595.584196 
L 827.2114 -595.715253 
L 844.8545 -595.654575 
L 862.4976 -595.814529 
L 880.1407 -596.748148 
L 897.7838 -597.173069 
L 915.4269 -597.622302 
L 933.07 -598.208778 
L 933.07 -600.940589 
L 933.07 -600.940589 
L 915.4269 -600.814629 
L 897.7838 -600.640481 
L 880.1407 -599.373368 
L 862.4976 -599.327387 
L 844.8545 -599.131123 
L 827.2114 -598.447064 
L 809.5683 -598.489066 
L 791.9252 -597.930141 
L 774.2821 -597.930141 
L 756.639 -597.159445 
L 738.9959 -596.873786 
L 721.3528 -596.530046 
L 703.7097 -596.093718 
L 686.0666 -595.452296 
L 668.4235 -594.805575 
L 650.7804 -594.317685 
L 633.1373 -594.344047 
L 615.4942 -594.168537 
L 597.8511 -593.50655 
L 580.208 -593.236842 
L 562.5649 -592.565299 
L 544.9218 -592.133613 
L 527.2787 -591.844521 
L 509.6356 -591.585436 
L 491.9925 -592.130995 
L 474.3494 -591.204223 
L 456.7063 -590.209018 
L 439.0632 -589.151829 
L 421.4201 -588.936515 
L 403.777 -588.541867 
L 386.1339 -587.694608 
L 368.4908 -586.133019 
L 350.8477 -585.227892 
L 333.2046 -582.156354 
L 315.5615 -581.444073 
L 297.9184 -581.36394 
L 280.2753 -578.106312 
L 262.6322 -577.794997 
L 244.9891 -577.493742 
L 227.346 -574.249009 
L 209.7029 -574.043113 
L 192.0598 -573.550141 
L 174.4167 -573.27259 
L 156.7736 -572.78847 
L 139.1305 -572.705937 
L 121.4874 -572.110265 
L 103.8443 -571.598036 
L 86.2012 -571.212016 
L 68.5581 -570.722907 
L 50.915 -569.089072 
z
" style="stroke: #bcbd22; stroke-opacity: 0.2"/>
    </defs>
    <g clip-path="url(#pd934b8f563)">
     <use xlink:href="#mbf72541576" x="0" y="648" style="fill: #bcbd22; fill-opacity: 0.2; stroke: #bcbd22; stroke-opacity: 0.2"/>
    </g>
   </g>
   <g id="PolyCollection_10">
    <defs>
     <path id="meeb18f0305" d="M 50.915 -578.112147 
L 50.915 -573.21496 
L 68.5581 -574.367815 
L 86.2012 -577.559038 
L 103.8443 -579.333038 
L 121.4874 -580.28027 
L 139.1305 -580.497572 
L 156.7736 -581.009697 
L 174.4167 -583.099158 
L 192.0598 -583.500349 
L 209.7029 -583.751077 
L 227.346 -585.430711 
L 244.9891 -586.152714 
L 262.6322 -586.583668 
L 280.2753 -587.838137 
L 297.9184 -588.428239 
L 315.5615 -588.701757 
L 333.2046 -590.499923 
L 350.8477 -591.861616 
L 368.4908 -592.255422 
L 386.1339 -592.750465 
L 403.777 -593.207288 
L 421.4201 -593.424166 
L 439.0632 -593.97955 
L 456.7063 -594.550879 
L 474.3494 -594.849749 
L 491.9925 -594.994755 
L 509.6356 -595.313186 
L 527.2787 -596.219338 
L 544.9218 -596.776082 
L 562.5649 -597.377585 
L 580.208 -597.799604 
L 597.8511 -598.596257 
L 615.4942 -598.743007 
L 633.1373 -599.152767 
L 650.7804 -599.415912 
L 668.4235 -599.782056 
L 686.0666 -600.230771 
L 703.7097 -600.20415 
L 721.3528 -600.718948 
L 738.9959 -601.114743 
L 756.639 -601.222192 
L 774.2821 -601.635599 
L 791.9252 -601.820384 
L 809.5683 -601.820384 
L 827.2114 -602.253763 
L 844.8545 -602.406889 
L 862.4976 -602.609757 
L 880.1407 -602.83759 
L 897.7838 -602.949753 
L 915.4269 -603.623793 
L 933.07 -603.885753 
L 933.07 -606.840698 
L 933.07 -606.840698 
L 915.4269 -606.390222 
L 897.7838 -606.262772 
L 880.1407 -606.018718 
L 862.4976 -605.623169 
L 844.8545 -605.024546 
L 827.2114 -604.643346 
L 809.5683 -604.364289 
L 791.9252 -604.364289 
L 774.2821 -603.658528 
L 756.639 -603.448554 
L 738.9959 -603.28884 
L 721.3528 -603.239363 
L 703.7097 -603.130779 
L 686.0666 -602.926049 
L 668.4235 -602.395164 
L 650.7804 -601.959818 
L 633.1373 -601.421473 
L 615.4942 -600.940687 
L 597.8511 -600.285947 
L 580.208 -600.103001 
L 562.5649 -599.990693 
L 544.9218 -599.167324 
L 527.2787 -598.744469 
L 509.6356 -597.869531 
L 491.9925 -597.475526 
L 474.3494 -596.819042 
L 456.7063 -596.583585 
L 439.0632 -595.908151 
L 421.4201 -595.840154 
L 403.777 -595.43365 
L 386.1339 -594.821819 
L 368.4908 -594.515372 
L 350.8477 -594.285796 
L 333.2046 -593.421127 
L 315.5615 -593.260094 
L 297.9184 -592.643067 
L 280.2753 -591.541134 
L 262.6322 -591.103568 
L 244.9891 -590.287759 
L 227.346 -589.58489 
L 209.7029 -588.59289 
L 192.0598 -587.68591 
L 174.4167 -587.552773 
L 156.7736 -586.525327 
L 139.1305 -584.900144 
L 121.4874 -584.226901 
L 103.8443 -583.660207 
L 86.2012 -582.228246 
L 68.5581 -579.274709 
L 50.915 -578.112147 
z
" style="stroke: #17becf; stroke-opacity: 0.2"/>
    </defs>
    <g clip-path="url(#pd934b8f563)">
     <use xlink:href="#meeb18f0305" x="0" y="648" style="fill: #17becf; fill-opacity: 0.2; stroke: #17becf; stroke-opacity: 0.2"/>
    </g>
   </g>
   <g id="PolyCollection_11">
    <defs>
     <path id="m97d017eca9" d="M 50.915 -578.118404 
L 50.915 -573.030594 
L 68.5581 -574.920437 
L 86.2012 -575.837794 
L 103.8443 -577.376914 
L 121.4874 -577.943583 
L 139.1305 -578.841462 
L 156.7736 -579.718421 
L 174.4167 -580.828714 
L 192.0598 -582.016962 
L 209.7029 -583.313356 
L 227.346 -584.143881 
L 244.9891 -584.719923 
L 262.6322 -585.679094 
L 280.2753 -586.063785 
L 297.9184 -586.59336 
L 315.5615 -587.166135 
L 333.2046 -588.146084 
L 350.8477 -589.128241 
L 368.4908 -589.37572 
L 386.1339 -589.74663 
L 403.777 -590.209378 
L 421.4201 -590.701771 
L 439.0632 -591.576744 
L 456.7063 -592.004357 
L 474.3494 -592.339919 
L 491.9925 -593.03939 
L 509.6356 -593.314707 
L 527.2787 -593.645544 
L 544.9218 -594.329266 
L 562.5649 -594.537372 
L 580.208 -595.40846 
L 597.8511 -596.146086 
L 615.4942 -596.432481 
L 633.1373 -596.664611 
L 650.7804 -597.005221 
L 668.4235 -597.086894 
L 686.0666 -597.073031 
L 703.7097 -597.036631 
L 721.3528 -597.059405 
L 738.9959 -597.354514 
L 756.639 -597.706641 
L 774.2821 -597.965164 
L 791.9252 -598.299482 
L 809.5683 -598.248317 
L 827.2114 -598.784351 
L 844.8545 -599.076337 
L 862.4976 -599.173939 
L 880.1407 -599.992619 
L 897.7838 -600.08935 
L 915.4269 -600.463168 
L 933.07 -600.334476 
L 933.07 -605.939251 
L 933.07 -605.939251 
L 915.4269 -605.276232 
L 897.7838 -604.84856 
L 880.1407 -604.589073 
L 862.4976 -603.982881 
L 844.8545 -603.724265 
L 827.2114 -603.570978 
L 809.5683 -603.483631 
L 791.9252 -602.72003 
L 774.2821 -602.520021 
L 756.639 -602.422326 
L 738.9959 -602.151072 
L 721.3528 -601.911854 
L 703.7097 -600.865974 
L 686.0666 -600.740519 
L 668.4235 -600.19233 
L 650.7804 -599.561566 
L 633.1373 -599.189741 
L 615.4942 -598.887544 
L 597.8511 -598.639612 
L 580.208 -597.952366 
L 562.5649 -597.309528 
L 544.9218 -597.25047 
L 527.2787 -597.043647 
L 509.6356 -596.751103 
L 491.9925 -596.135875 
L 474.3494 -595.054256 
L 456.7063 -594.855492 
L 439.0632 -594.481614 
L 421.4201 -594.020769 
L 403.777 -593.622617 
L 386.1339 -593.551039 
L 368.4908 -592.942349 
L 350.8477 -592.744556 
L 333.2046 -591.856569 
L 315.5615 -590.966373 
L 297.9184 -589.936167 
L 280.2753 -589.397089 
L 262.6322 -588.891234 
L 244.9891 -588.247425 
L 227.346 -587.665758 
L 209.7029 -586.893302 
L 192.0598 -586.141444 
L 174.4167 -585.014275 
L 156.7736 -584.521587 
L 139.1305 -584.240838 
L 121.4874 -583.357627 
L 103.8443 -581.074552 
L 86.2012 -579.942037 
L 68.5581 -579.345468 
L 50.915 -578.118404 
z
" style="stroke: #9edae5; stroke-opacity: 0.2"/>
    </defs>
    <g clip-path="url(#pd934b8f563)">
     <use xlink:href="#m97d017eca9" x="0" y="648" style="fill: #9edae5; fill-opacity: 0.2; stroke: #9edae5; stroke-opacity: 0.2"/>
    </g>
   </g>
   <g id="matplotlib.axis_1">
    <g id="xtick_1">
     <g id="line2d_1">
      <defs>
       <path id="mff158225a8" d="M 0 0 
L 0 3.5 
" style="stroke: #000000; stroke-width: 0.8"/>
      </defs>
      <g>
       <use xlink:href="#mff158225a8" x="50.915" y="606.04" style="stroke: #000000; stroke-width: 0.8"/>
      </g>
     </g>
     <g id="text_1">
      <!-- 30 -->
      <g transform="translate(44.5525 620.638438) scale(0.1 -0.1)">
       <defs>
        <path id="DejaVuSans-33" d="M 2597 2516 
Q 3050 2419 3304 2112 
Q 3559 1806 3559 1356 
Q 3559 666 3084 287 
Q 2609 -91 1734 -91 
Q 1441 -91 1130 -33 
Q 819 25 488 141 
L 488 750 
Q 750 597 1062 519 
Q 1375 441 1716 441 
Q 2309 441 2620 675 
Q 2931 909 2931 1356 
Q 2931 1769 2642 2001 
Q 2353 2234 1838 2234 
L 1294 2234 
L 1294 2753 
L 1863 2753 
Q 2328 2753 2575 2939 
Q 2822 3125 2822 3475 
Q 2822 3834 2567 4026 
Q 2313 4219 1838 4219 
Q 1578 4219 1281 4162 
Q 984 4106 628 3988 
L 628 4550 
Q 988 4650 1302 4700 
Q 1616 4750 1894 4750 
Q 2613 4750 3031 4423 
Q 3450 4097 3450 3541 
Q 3450 3153 3228 2886 
Q 3006 2619 2597 2516 
z
" transform="scale(0.015625)"/>
        <path id="DejaVuSans-30" d="M 2034 4250 
Q 1547 4250 1301 3770 
Q 1056 3291 1056 2328 
Q 1056 1369 1301 889 
Q 1547 409 2034 409 
Q 2525 409 2770 889 
Q 3016 1369 3016 2328 
Q 3016 3291 2770 3770 
Q 2525 4250 2034 4250 
z
M 2034 4750 
Q 2819 4750 3233 4129 
Q 3647 3509 3647 2328 
Q 3647 1150 3233 529 
Q 2819 -91 2034 -91 
Q 1250 -91 836 529 
Q 422 1150 422 2328 
Q 422 3509 836 4129 
Q 1250 4750 2034 4750 
z
" transform="scale(0.015625)"/>
       </defs>
       <use xlink:href="#DejaVuSans-33"/>
       <use xlink:href="#DejaVuSans-30" x="63.623047"/>
      </g>
     </g>
    </g>
    <g id="xtick_2">
     <g id="line2d_2">
      <g>
       <use xlink:href="#mff158225a8" x="227.346" y="606.04" style="stroke: #000000; stroke-width: 0.8"/>
      </g>
     </g>
     <g id="text_2">
      <!-- 40 -->
      <g transform="translate(220.9835 620.638438) scale(0.1 -0.1)">
       <defs>
        <path id="DejaVuSans-34" d="M 2419 4116 
L 825 1625 
L 2419 1625 
L 2419 4116 
z
M 2253 4666 
L 3047 4666 
L 3047 1625 
L 3713 1625 
L 3713 1100 
L 3047 1100 
L 3047 0 
L 2419 0 
L 2419 1100 
L 313 1100 
L 313 1709 
L 2253 4666 
z
" transform="scale(0.015625)"/>
       </defs>
       <use xlink:href="#DejaVuSans-34"/>
       <use xlink:href="#DejaVuSans-30" x="63.623047"/>
      </g>
     </g>
    </g>
    <g id="xtick_3">
     <g id="line2d_3">
      <g>
       <use xlink:href="#mff158225a8" x="403.777" y="606.04" style="stroke: #000000; stroke-width: 0.8"/>
      </g>
     </g>
     <g id="text_3">
      <!-- 50 -->
      <g transform="translate(397.4145 620.638438) scale(0.1 -0.1)">
       <defs>
        <path id="DejaVuSans-35" d="M 691 4666 
L 3169 4666 
L 3169 4134 
L 1269 4134 
L 1269 2991 
Q 1406 3038 1543 3061 
Q 1681 3084 1819 3084 
Q 2600 3084 3056 2656 
Q 3513 2228 3513 1497 
Q 3513 744 3044 326 
Q 2575 -91 1722 -91 
Q 1428 -91 1123 -41 
Q 819 9 494 109 
L 494 744 
Q 775 591 1075 516 
Q 1375 441 1709 441 
Q 2250 441 2565 725 
Q 2881 1009 2881 1497 
Q 2881 1984 2565 2268 
Q 2250 2553 1709 2553 
Q 1456 2553 1204 2497 
Q 953 2441 691 2322 
L 691 4666 
z
" transform="scale(0.015625)"/>
       </defs>
       <use xlink:href="#DejaVuSans-35"/>
       <use xlink:href="#DejaVuSans-30" x="63.623047"/>
      </g>
     </g>
    </g>
    <g id="xtick_4">
     <g id="line2d_4">
      <g>
       <use xlink:href="#mff158225a8" x="580.208" y="606.04" style="stroke: #000000; stroke-width: 0.8"/>
      </g>
     </g>
     <g id="text_4">
      <!-- 60 -->
      <g transform="translate(573.8455 620.638438) scale(0.1 -0.1)">
       <defs>
        <path id="DejaVuSans-36" d="M 2113 2584 
Q 1688 2584 1439 2293 
Q 1191 2003 1191 1497 
Q 1191 994 1439 701 
Q 1688 409 2113 409 
Q 2538 409 2786 701 
Q 3034 994 3034 1497 
Q 3034 2003 2786 2293 
Q 2538 2584 2113 2584 
z
M 3366 4563 
L 3366 3988 
Q 3128 4100 2886 4159 
Q 2644 4219 2406 4219 
Q 1781 4219 1451 3797 
Q 1122 3375 1075 2522 
Q 1259 2794 1537 2939 
Q 1816 3084 2150 3084 
Q 2853 3084 3261 2657 
Q 3669 2231 3669 1497 
Q 3669 778 3244 343 
Q 2819 -91 2113 -91 
Q 1303 -91 875 529 
Q 447 1150 447 2328 
Q 447 3434 972 4092 
Q 1497 4750 2381 4750 
Q 2619 4750 2861 4703 
Q 3103 4656 3366 4563 
z
" transform="scale(0.015625)"/>
       </defs>
       <use xlink:href="#DejaVuSans-36"/>
       <use xlink:href="#DejaVuSans-30" x="63.623047"/>
      </g>
     </g>
    </g>
    <g id="xtick_5">
     <g id="line2d_5">
      <g>
       <use xlink:href="#mff158225a8" x="756.639" y="606.04" style="stroke: #000000; stroke-width: 0.8"/>
      </g>
     </g>
     <g id="text_5">
      <!-- 70 -->
      <g transform="translate(750.2765 620.638438) scale(0.1 -0.1)">
       <defs>
        <path id="DejaVuSans-37" d="M 525 4666 
L 3525 4666 
L 3525 4397 
L 1831 0 
L 1172 0 
L 2766 4134 
L 525 4134 
L 525 4666 
z
" transform="scale(0.015625)"/>
       </defs>
       <use xlink:href="#DejaVuSans-37"/>
       <use xlink:href="#DejaVuSans-30" x="63.623047"/>
      </g>
     </g>
    </g>
    <g id="xtick_6">
     <g id="line2d_6">
      <g>
       <use xlink:href="#mff158225a8" x="933.07" y="606.04" style="stroke: #000000; stroke-width: 0.8"/>
      </g>
     </g>
     <g id="text_6">
      <!-- 80 -->
      <g transform="translate(926.7075 620.638438) scale(0.1 -0.1)">
       <defs>
        <path id="DejaVuSans-38" d="M 2034 2216 
Q 1584 2216 1326 1975 
Q 1069 1734 1069 1313 
Q 1069 891 1326 650 
Q 1584 409 2034 409 
Q 2484 409 2743 651 
Q 3003 894 3003 1313 
Q 3003 1734 2745 1975 
Q 2488 2216 2034 2216 
z
M 1403 2484 
Q 997 2584 770 2862 
Q 544 3141 544 3541 
Q 544 4100 942 4425 
Q 1341 4750 2034 4750 
Q 2731 4750 3128 4425 
Q 3525 4100 3525 3541 
Q 3525 3141 3298 2862 
Q 3072 2584 2669 2484 
Q 3125 2378 3379 2068 
Q 3634 1759 3634 1313 
Q 3634 634 3220 271 
Q 2806 -91 2034 -91 
Q 1263 -91 848 271 
Q 434 634 434 1313 
Q 434 1759 690 2068 
Q 947 2378 1403 2484 
z
M 1172 3481 
Q 1172 3119 1398 2916 
Q 1625 2713 2034 2713 
Q 2441 2713 2670 2916 
Q 2900 3119 2900 3481 
Q 2900 3844 2670 4047 
Q 2441 4250 2034 4250 
Q 1625 4250 1398 4047 
Q 1172 3844 1172 3481 
z
" transform="scale(0.015625)"/>
       </defs>
       <use xlink:href="#DejaVuSans-38"/>
       <use xlink:href="#DejaVuSans-30" x="63.623047"/>
      </g>
     </g>
    </g>
    <g id="text_7">
     <!-- Number of Features -->
     <g transform="translate(442.414375 634.316563) scale(0.1 -0.1)">
      <defs>
       <path id="DejaVuSans-4e" d="M 628 4666 
L 1478 4666 
L 3547 763 
L 3547 4666 
L 4159 4666 
L 4159 0 
L 3309 0 
L 1241 3903 
L 1241 0 
L 628 0 
L 628 4666 
z
" transform="scale(0.015625)"/>
       <path id="DejaVuSans-75" d="M 544 1381 
L 544 3500 
L 1119 3500 
L 1119 1403 
Q 1119 906 1312 657 
Q 1506 409 1894 409 
Q 2359 409 2629 706 
Q 2900 1003 2900 1516 
L 2900 3500 
L 3475 3500 
L 3475 0 
L 2900 0 
L 2900 538 
Q 2691 219 2414 64 
Q 2138 -91 1772 -91 
Q 1169 -91 856 284 
Q 544 659 544 1381 
z
M 1991 3584 
L 1991 3584 
z
" transform="scale(0.015625)"/>
       <path id="DejaVuSans-6d" d="M 3328 2828 
Q 3544 3216 3844 3400 
Q 4144 3584 4550 3584 
Q 5097 3584 5394 3201 
Q 5691 2819 5691 2113 
L 5691 0 
L 5113 0 
L 5113 2094 
Q 5113 2597 4934 2840 
Q 4756 3084 4391 3084 
Q 3944 3084 3684 2787 
Q 3425 2491 3425 1978 
L 3425 0 
L 2847 0 
L 2847 2094 
Q 2847 2600 2669 2842 
Q 2491 3084 2119 3084 
Q 1678 3084 1418 2786 
Q 1159 2488 1159 1978 
L 1159 0 
L 581 0 
L 581 3500 
L 1159 3500 
L 1159 2956 
Q 1356 3278 1631 3431 
Q 1906 3584 2284 3584 
Q 2666 3584 2933 3390 
Q 3200 3197 3328 2828 
z
" transform="scale(0.015625)"/>
       <path id="DejaVuSans-62" d="M 3116 1747 
Q 3116 2381 2855 2742 
Q 2594 3103 2138 3103 
Q 1681 3103 1420 2742 
Q 1159 2381 1159 1747 
Q 1159 1113 1420 752 
Q 1681 391 2138 391 
Q 2594 391 2855 752 
Q 3116 1113 3116 1747 
z
M 1159 2969 
Q 1341 3281 1617 3432 
Q 1894 3584 2278 3584 
Q 2916 3584 3314 3078 
Q 3713 2572 3713 1747 
Q 3713 922 3314 415 
Q 2916 -91 2278 -91 
Q 1894 -91 1617 61 
Q 1341 213 1159 525 
L 1159 0 
L 581 0 
L 581 4863 
L 1159 4863 
L 1159 2969 
z
" transform="scale(0.015625)"/>
       <path id="DejaVuSans-65" d="M 3597 1894 
L 3597 1613 
L 953 1613 
Q 991 1019 1311 708 
Q 1631 397 2203 397 
Q 2534 397 2845 478 
Q 3156 559 3463 722 
L 3463 178 
Q 3153 47 2828 -22 
Q 2503 -91 2169 -91 
Q 1331 -91 842 396 
Q 353 884 353 1716 
Q 353 2575 817 3079 
Q 1281 3584 2069 3584 
Q 2775 3584 3186 3129 
Q 3597 2675 3597 1894 
z
M 3022 2063 
Q 3016 2534 2758 2815 
Q 2500 3097 2075 3097 
Q 1594 3097 1305 2825 
Q 1016 2553 972 2059 
L 3022 2063 
z
" transform="scale(0.015625)"/>
       <path id="DejaVuSans-72" d="M 2631 2963 
Q 2534 3019 2420 3045 
Q 2306 3072 2169 3072 
Q 1681 3072 1420 2755 
Q 1159 2438 1159 1844 
L 1159 0 
L 581 0 
L 581 3500 
L 1159 3500 
L 1159 2956 
Q 1341 3275 1631 3429 
Q 1922 3584 2338 3584 
Q 2397 3584 2469 3576 
Q 2541 3569 2628 3553 
L 2631 2963 
z
" transform="scale(0.015625)"/>
       <path id="DejaVuSans-20" transform="scale(0.015625)"/>
       <path id="DejaVuSans-6f" d="M 1959 3097 
Q 1497 3097 1228 2736 
Q 959 2375 959 1747 
Q 959 1119 1226 758 
Q 1494 397 1959 397 
Q 2419 397 2687 759 
Q 2956 1122 2956 1747 
Q 2956 2369 2687 2733 
Q 2419 3097 1959 3097 
z
M 1959 3584 
Q 2709 3584 3137 3096 
Q 3566 2609 3566 1747 
Q 3566 888 3137 398 
Q 2709 -91 1959 -91 
Q 1206 -91 779 398 
Q 353 888 353 1747 
Q 353 2609 779 3096 
Q 1206 3584 1959 3584 
z
" transform="scale(0.015625)"/>
       <path id="DejaVuSans-66" d="M 2375 4863 
L 2375 4384 
L 1825 4384 
Q 1516 4384 1395 4259 
Q 1275 4134 1275 3809 
L 1275 3500 
L 2222 3500 
L 2222 3053 
L 1275 3053 
L 1275 0 
L 697 0 
L 697 3053 
L 147 3053 
L 147 3500 
L 697 3500 
L 697 3744 
Q 697 4328 969 4595 
Q 1241 4863 1831 4863 
L 2375 4863 
z
" transform="scale(0.015625)"/>
       <path id="DejaVuSans-46" d="M 628 4666 
L 3309 4666 
L 3309 4134 
L 1259 4134 
L 1259 2759 
L 3109 2759 
L 3109 2228 
L 1259 2228 
L 1259 0 
L 628 0 
L 628 4666 
z
" transform="scale(0.015625)"/>
       <path id="DejaVuSans-61" d="M 2194 1759 
Q 1497 1759 1228 1600 
Q 959 1441 959 1056 
Q 959 750 1161 570 
Q 1363 391 1709 391 
Q 2188 391 2477 730 
Q 2766 1069 2766 1631 
L 2766 1759 
L 2194 1759 
z
M 3341 1997 
L 3341 0 
L 2766 0 
L 2766 531 
Q 2569 213 2275 61 
Q 1981 -91 1556 -91 
Q 1019 -91 701 211 
Q 384 513 384 1019 
Q 384 1609 779 1909 
Q 1175 2209 1959 2209 
L 2766 2209 
L 2766 2266 
Q 2766 2663 2505 2880 
Q 2244 3097 1772 3097 
Q 1472 3097 1187 3025 
Q 903 2953 641 2809 
L 641 3341 
Q 956 3463 1253 3523 
Q 1550 3584 1831 3584 
Q 2591 3584 2966 3190 
Q 3341 2797 3341 1997 
z
" transform="scale(0.015625)"/>
       <path id="DejaVuSans-74" d="M 1172 4494 
L 1172 3500 
L 2356 3500 
L 2356 3053 
L 1172 3053 
L 1172 1153 
Q 1172 725 1289 603 
Q 1406 481 1766 481 
L 2356 481 
L 2356 0 
L 1766 0 
Q 1100 0 847 248 
Q 594 497 594 1153 
L 594 3053 
L 172 3053 
L 172 3500 
L 594 3500 
L 594 4494 
L 1172 4494 
z
" transform="scale(0.015625)"/>
       <path id="DejaVuSans-73" d="M 2834 3397 
L 2834 2853 
Q 2591 2978 2328 3040 
Q 2066 3103 1784 3103 
Q 1356 3103 1142 2972 
Q 928 2841 928 2578 
Q 928 2378 1081 2264 
Q 1234 2150 1697 2047 
L 1894 2003 
Q 2506 1872 2764 1633 
Q 3022 1394 3022 966 
Q 3022 478 2636 193 
Q 2250 -91 1575 -91 
Q 1294 -91 989 -36 
Q 684 19 347 128 
L 347 722 
Q 666 556 975 473 
Q 1284 391 1588 391 
Q 1994 391 2212 530 
Q 2431 669 2431 922 
Q 2431 1156 2273 1281 
Q 2116 1406 1581 1522 
L 1381 1569 
Q 847 1681 609 1914 
Q 372 2147 372 2553 
Q 372 3047 722 3315 
Q 1072 3584 1716 3584 
Q 2034 3584 2315 3537 
Q 2597 3491 2834 3397 
z
" transform="scale(0.015625)"/>
      </defs>
      <use xlink:href="#DejaVuSans-4e"/>
      <use xlink:href="#DejaVuSans-75" x="74.804688"/>
      <use xlink:href="#DejaVuSans-6d" x="138.183594"/>
      <use xlink:href="#DejaVuSans-62" x="235.595703"/>
      <use xlink:href="#DejaVuSans-65" x="299.072266"/>
      <use xlink:href="#DejaVuSans-72" x="360.595703"/>
      <use xlink:href="#DejaVuSans-20" x="401.708984"/>
      <use xlink:href="#DejaVuSans-6f" x="433.496094"/>
      <use xlink:href="#DejaVuSans-66" x="494.677734"/>
      <use xlink:href="#DejaVuSans-20" x="529.882812"/>
      <use xlink:href="#DejaVuSans-46" x="561.669922"/>
      <use xlink:href="#DejaVuSans-65" x="613.689453"/>
      <use xlink:href="#DejaVuSans-61" x="675.212891"/>
      <use xlink:href="#DejaVuSans-74" x="736.492188"/>
      <use xlink:href="#DejaVuSans-75" x="775.701172"/>
      <use xlink:href="#DejaVuSans-72" x="839.080078"/>
      <use xlink:href="#DejaVuSans-65" x="877.943359"/>
      <use xlink:href="#DejaVuSans-73" x="939.466797"/>
     </g>
    </g>
   </g>
   <g id="matplotlib.axis_2">
    <g id="ytick_1">
     <g id="line2d_7">
      <defs>
       <path id="mebb2aeaea2" d="M 0 0 
L -3.5 0 
" style="stroke: #000000; stroke-width: 0.8"/>
      </defs>
      <g>
       <use xlink:href="#mebb2aeaea2" x="50.915" y="606.04" style="stroke: #000000; stroke-width: 0.8"/>
      </g>
     </g>
     <g id="text_8">
      <!-- 0 -->
      <g transform="translate(37.5525 609.839219) scale(0.1 -0.1)">
       <use xlink:href="#DejaVuSans-30"/>
      </g>
     </g>
    </g>
    <g id="ytick_2">
     <g id="line2d_8">
      <g>
       <use xlink:href="#mebb2aeaea2" x="50.915" y="490.9816" style="stroke: #000000; stroke-width: 0.8"/>
      </g>
     </g>
     <g id="text_9">
      <!-- 20 -->
      <g transform="translate(31.19 494.780819) scale(0.1 -0.1)">
       <defs>
        <path id="DejaVuSans-32" d="M 1228 531 
L 3431 531 
L 3431 0 
L 469 0 
L 469 531 
Q 828 903 1448 1529 
Q 2069 2156 2228 2338 
Q 2531 2678 2651 2914 
Q 2772 3150 2772 3378 
Q 2772 3750 2511 3984 
Q 2250 4219 1831 4219 
Q 1534 4219 1204 4116 
Q 875 4013 500 3803 
L 500 4441 
Q 881 4594 1212 4672 
Q 1544 4750 1819 4750 
Q 2544 4750 2975 4387 
Q 3406 4025 3406 3419 
Q 3406 3131 3298 2873 
Q 3191 2616 2906 2266 
Q 2828 2175 2409 1742 
Q 1991 1309 1228 531 
z
" transform="scale(0.015625)"/>
       </defs>
       <use xlink:href="#DejaVuSans-32"/>
       <use xlink:href="#DejaVuSans-30" x="63.623047"/>
      </g>
     </g>
    </g>
    <g id="ytick_3">
     <g id="line2d_9">
      <g>
       <use xlink:href="#mebb2aeaea2" x="50.915" y="375.9232" style="stroke: #000000; stroke-width: 0.8"/>
      </g>
     </g>
     <g id="text_10">
      <!-- 40 -->
      <g transform="translate(31.19 379.722419) scale(0.1 -0.1)">
       <use xlink:href="#DejaVuSans-34"/>
       <use xlink:href="#DejaVuSans-30" x="63.623047"/>
      </g>
     </g>
    </g>
    <g id="ytick_4">
     <g id="line2d_10">
      <g>
       <use xlink:href="#mebb2aeaea2" x="50.915" y="260.8648" style="stroke: #000000; stroke-width: 0.8"/>
      </g>
     </g>
     <g id="text_11">
      <!-- 60 -->
      <g transform="translate(31.19 264.664019) scale(0.1 -0.1)">
       <use xlink:href="#DejaVuSans-36"/>
       <use xlink:href="#DejaVuSans-30" x="63.623047"/>
      </g>
     </g>
    </g>
    <g id="ytick_5">
     <g id="line2d_11">
      <g>
       <use xlink:href="#mebb2aeaea2" x="50.915" y="145.8064" style="stroke: #000000; stroke-width: 0.8"/>
      </g>
     </g>
     <g id="text_12">
      <!-- 80 -->
      <g transform="translate(31.19 149.605619) scale(0.1 -0.1)">
       <use xlink:href="#DejaVuSans-38"/>
       <use xlink:href="#DejaVuSans-30" x="63.623047"/>
      </g>
     </g>
    </g>
    <g id="ytick_6">
     <g id="line2d_12">
      <g>
       <use xlink:href="#mebb2aeaea2" x="50.915" y="30.748" style="stroke: #000000; stroke-width: 0.8"/>
      </g>
     </g>
     <g id="text_13">
      <!-- 100 -->
      <g transform="translate(24.8275 34.547219) scale(0.1 -0.1)">
       <defs>
        <path id="DejaVuSans-31" d="M 794 531 
L 1825 531 
L 1825 4091 
L 703 3866 
L 703 4441 
L 1819 4666 
L 2450 4666 
L 2450 531 
L 3481 531 
L 3481 0 
L 794 0 
L 794 531 
z
" transform="scale(0.015625)"/>
       </defs>
       <use xlink:href="#DejaVuSans-31"/>
       <use xlink:href="#DejaVuSans-30" x="63.623047"/>
       <use xlink:href="#DejaVuSans-30" x="127.246094"/>
      </g>
     </g>
    </g>
    <g id="text_14">
     <!-- Values -->
     <g transform="translate(18.747813 334.729938) rotate(-90) scale(0.1 -0.1)">
      <defs>
       <path id="DejaVuSans-56" d="M 1831 0 
L 50 4666 
L 709 4666 
L 2188 738 
L 3669 4666 
L 4325 4666 
L 2547 0 
L 1831 0 
z
" transform="scale(0.015625)"/>
       <path id="DejaVuSans-6c" d="M 603 4863 
L 1178 4863 
L 1178 0 
L 603 0 
L 603 4863 
z
" transform="scale(0.015625)"/>
      </defs>
      <use xlink:href="#DejaVuSans-56"/>
      <use xlink:href="#DejaVuSans-61" x="60.658203"/>
      <use xlink:href="#DejaVuSans-6c" x="121.9375"/>
      <use xlink:href="#DejaVuSans-75" x="149.720703"/>
      <use xlink:href="#DejaVuSans-65" x="213.099609"/>
      <use xlink:href="#DejaVuSans-73" x="274.623047"/>
     </g>
    </g>
   </g>
   <g id="line2d_13">
    <path d="M 50.915 81.464532 
L 68.5581 78.080461 
L 86.2012 77.100862 
L 103.8443 76.332767 
L 121.4874 74.3847 
L 139.1305 73.360573 
L 156.7736 72.781719 
L 174.4167 70.154611 
L 192.0598 69.353121 
L 209.7029 68.952376 
L 227.346 69.798393 
L 244.9891 66.191687 
L 262.6322 64.811342 
L 280.2753 64.900397 
L 297.9184 63.920797 
L 315.5615 64.36607 
L 333.2046 61.649908 
L 350.8477 62.362344 
L 368.4908 62.629507 
L 386.1339 60.848417 
L 403.777 58.755637 
L 421.4201 60.046927 
L 439.0632 59.0228 
L 456.7063 58.800164 
L 474.3494 59.735236 
L 491.9925 59.423546 
L 509.6356 59.156382 
L 527.2787 57.108129 
L 544.9218 57.71172 
L 562.5649 54.481021 
L 580.208 55.683257 
L 597.8511 55.104403 
L 615.4942 53.345577 
L 633.1373 53.160046 
L 650.7804 53.05615 
L 668.4235 52.615825 
L 686.0666 50.518097 
L 703.7097 52.699932 
L 721.3528 50.740733 
L 738.9959 49.894715 
L 756.639 51.58675 
L 774.2821 50.092614 
L 791.9252 48.608373 
L 809.5683 49.137752 
L 827.2114 48.915116 
L 844.8545 47.534771 
L 862.4976 48.781534 
L 880.1407 48.113625 
L 897.7838 47.490244 
L 915.4269 46.184111 
L 933.07 47.356662 
" clip-path="url(#pd934b8f563)" style="fill: none; stroke: #1f77b4; stroke-width: 1.5; stroke-linecap: square"/>
   </g>
   <g id="line2d_14">
    <path d="M 50.915 135.119861 
L 68.5581 122.474124 
L 86.2012 129.019629 
L 103.8443 124.96765 
L 121.4874 116.195782 
L 139.1305 123.320141 
L 156.7736 108.848787 
L 174.4167 118.466672 
L 192.0598 111.921167 
L 209.7029 112.366439 
L 227.346 105.197553 
L 244.9891 107.245806 
L 262.6322 103.416463 
L 280.2753 105.776407 
L 297.9184 100.299556 
L 315.5615 97.939612 
L 333.2046 101.679901 
L 350.8477 98.874684 
L 368.4908 96.113995 
L 386.1339 99.09732 
L 403.777 92.462761 
L 421.4201 94.42196 
L 439.0632 96.559267 
L 456.7063 92.284652 
L 474.3494 84.536911 
L 491.9925 88.900581 
L 509.6356 83.512785 
L 527.2787 87.564764 
L 544.9218 90.592617 
L 562.5649 80.707568 
L 580.208 81.063786 
L 597.8511 81.909804 
L 615.4942 78.881951 
L 633.1373 72.915301 
L 650.7804 74.651863 
L 668.4235 77.991407 
L 686.0666 71.713065 
L 703.7097 77.278971 
L 721.3528 72.380974 
L 738.9959 70.555357 
L 756.639 68.551631 
L 774.2821 69.931975 
L 791.9252 70.243666 
L 809.5683 66.414323 
L 827.2114 68.996903 
L 844.8545 68.373522 
L 862.4976 65.924523 
L 880.1407 69.353121 
L 897.7838 64.989451 
L 915.4269 67.527504 
L 933.07 63.07478 
" clip-path="url(#pd934b8f563)" style="fill: none; stroke: #ff7f0e; stroke-width: 1.5; stroke-linecap: square"/>
   </g>
   <g id="line2d_15">
    <path d="M 50.915 103.550045 
L 68.5581 102.926663 
L 86.2012 101.279155 
L 103.8443 100.07692 
L 121.4874 96.737376 
L 139.1305 95.891359 
L 156.7736 94.511014 
L 174.4167 93.93216 
L 192.0598 92.195598 
L 209.7029 91.438634 
L 227.346 90.993362 
L 244.9891 90.236399 
L 262.6322 87.7874 
L 280.2753 86.629692 
L 297.9184 85.650093 
L 315.5615 83.869003 
L 333.2046 82.666767 
L 350.8477 80.930205 
L 368.4908 79.416278 
L 386.1339 78.303097 
L 403.777 77.45708 
L 421.4201 76.299371 
L 439.0632 75.943153 
L 456.7063 75.720517 
L 474.3494 74.963554 
L 491.9925 73.939427 
L 509.6356 73.137937 
L 527.2787 72.915301 
L 544.9218 72.648137 
L 562.5649 72.514555 
L 580.208 72.024756 
L 597.8511 71.668538 
L 615.4942 71.490429 
L 633.1373 71.401374 
L 650.7804 71.267793 
L 668.4235 71.178738 
L 686.0666 70.733466 
L 703.7097 70.377248 
L 721.3528 70.288193 
L 738.9959 70.110084 
L 756.639 69.753866 
L 774.2821 69.442176 
L 791.9252 69.085958 
L 809.5683 69.085958 
L 827.2114 68.863321 
L 844.8545 68.23994 
L 862.4976 68.017304 
L 880.1407 67.883722 
L 897.7838 67.661086 
L 915.4269 67.393922 
L 933.07 66.94865 
" clip-path="url(#pd934b8f563)" style="fill: none; stroke: #2ca02c; stroke-width: 1.5; stroke-linecap: square"/>
   </g>
   <g id="line2d_16">
    <path d="M 50.915 104.574172 
L 68.5581 102.971191 
L 86.2012 101.279155 
L 103.8443 99.898811 
L 121.4874 99.319957 
L 139.1305 97.49434 
L 156.7736 96.648322 
L 174.4167 95.267977 
L 192.0598 94.911759 
L 209.7029 93.664997 
L 227.346 91.972961 
L 244.9891 91.483162 
L 262.6322 90.681671 
L 280.2753 88.989636 
L 297.9184 87.7874 
L 315.5615 86.941383 
L 333.2046 86.718746 
L 350.8477 84.982184 
L 368.4908 84.536911 
L 386.1339 83.334676 
L 403.777 82.933931 
L 421.4201 80.306823 
L 439.0632 79.505333 
L 456.7063 78.659315 
L 474.3494 78.481206 
L 491.9925 77.857825 
L 509.6356 76.032208 
L 527.2787 75.943153 
L 544.9218 75.586935 
L 562.5649 75.453354 
L 580.208 74.785445 
L 597.8511 74.162063 
L 615.4942 73.761318 
L 633.1373 73.004355 
L 650.7804 72.514555 
L 668.4235 72.11381 
L 686.0666 71.80212 
L 703.7097 71.31232 
L 721.3528 70.688938 
L 738.9959 70.154611 
L 756.639 69.798393 
L 774.2821 69.53123 
L 791.9252 69.353121 
L 809.5683 69.04143 
L 827.2114 69.04143 
L 844.8545 68.996903 
L 862.4976 68.863321 
L 880.1407 68.72974 
L 897.7838 68.507103 
L 915.4269 68.328994 
L 933.07 67.883722 
" clip-path="url(#pd934b8f563)" style="fill: none; stroke: #d62728; stroke-width: 1.5; stroke-linecap: square"/>
   </g>
   <g id="line2d_17">
    <path d="M 50.915 102.036119 
L 68.5581 100.210502 
L 86.2012 99.319957 
L 103.8443 98.251303 
L 121.4874 96.692849 
L 139.1305 95.000814 
L 156.7736 93.531415 
L 174.4167 92.729924 
L 192.0598 91.483162 
L 209.7029 90.414508 
L 227.346 89.167745 
L 244.9891 88.811527 
L 262.6322 88.499836 
L 280.2753 87.965509 
L 297.9184 87.609291 
L 315.5615 87.342128 
L 333.2046 86.050838 
L 350.8477 85.071238 
L 368.4908 84.937657 
L 386.1339 84.447857 
L 403.777 83.512785 
L 421.4201 83.156567 
L 439.0632 81.687168 
L 456.7063 80.84115 
L 474.3494 80.03966 
L 491.9925 79.460806 
L 509.6356 78.881951 
L 527.2787 78.436679 
L 544.9218 77.946879 
L 562.5649 77.590661 
L 580.208 77.189916 
L 597.8511 76.789171 
L 615.4942 76.121262 
L 633.1373 75.408826 
L 650.7804 74.963554 
L 668.4235 74.340172 
L 686.0666 73.538682 
L 703.7097 73.271519 
L 721.3528 72.692664 
L 738.9959 72.380974 
L 756.639 71.223265 
L 774.2821 70.555357 
L 791.9252 70.110084 
L 809.5683 69.575757 
L 827.2114 69.130485 
L 844.8545 68.640685 
L 862.4976 68.284467 
L 880.1407 67.794667 
L 897.7838 66.45885 
L 915.4269 66.191687 
L 933.07 65.701887 
" clip-path="url(#pd934b8f563)" style="fill: none; stroke: #9467bd; stroke-width: 1.5; stroke-linecap: square"/>
   </g>
   <g id="line2d_18">
    <path d="M 50.915 83.512785 
L 68.5581 82.355076 
L 86.2012 81.642641 
L 103.8443 80.618514 
L 121.4874 79.727969 
L 139.1305 77.991407 
L 156.7736 76.96728 
L 174.4167 76.210317 
L 192.0598 74.518281 
L 209.7029 73.360573 
L 227.346 72.024756 
L 244.9891 70.777993 
L 262.6322 70.466302 
L 280.2753 70.065557 
L 297.9184 69.53123 
L 315.5615 69.308594 
L 333.2046 68.818794 
L 350.8477 67.839195 
L 368.4908 67.215813 
L 386.1339 66.280741 
L 403.777 65.96905 
L 421.4201 65.123033 
L 439.0632 64.722288 
L 456.7063 64.277015 
L 474.3494 64.098906 
L 491.9925 63.787215 
L 509.6356 63.520052 
L 527.2787 63.163834 
L 544.9218 62.09518 
L 562.5649 61.694435 
L 580.208 61.160108 
L 597.8511 60.492199 
L 615.4942 59.468073 
L 633.1373 58.533001 
L 650.7804 57.108129 
L 668.4235 56.084002 
L 686.0666 54.436494 
L 703.7097 53.85764 
L 721.3528 53.679531 
L 738.9959 53.05615 
L 756.639 52.56635 
L 774.2821 52.121077 
L 791.9252 51.58675 
L 809.5683 51.230533 
L 827.2114 50.696206 
L 844.8545 50.473569 
L 862.4976 50.161879 
L 880.1407 49.805661 
L 897.7838 49.315861 
L 915.4269 48.826061 
L 933.07 48.647952 
" clip-path="url(#pd934b8f563)" style="fill: none; stroke: #8c564b; stroke-width: 1.5; stroke-linecap: square"/>
   </g>
   <g id="line2d_19">
    <path d="M 50.915 81.553586 
L 68.5581 80.306823 
L 86.2012 79.149115 
L 103.8443 76.878225 
L 121.4874 75.631463 
L 139.1305 74.117536 
L 156.7736 73.182464 
L 174.4167 72.648137 
L 192.0598 71.267793 
L 209.7029 70.466302 
L 227.346 69.397648 
L 244.9891 68.462576 
L 262.6322 68.284467 
L 280.2753 66.993177 
L 297.9184 65.96905 
L 315.5615 65.523778 
L 333.2046 64.098906 
L 350.8477 63.831743 
L 368.4908 63.07478 
L 386.1339 62.718562 
L 403.777 61.249163 
L 421.4201 60.269563 
L 439.0632 59.379018 
L 456.7063 58.800164 
L 474.3494 57.776037 
L 491.9925 57.330765 
L 509.6356 56.974547 
L 527.2787 55.861366 
L 544.9218 55.594202 
L 562.5649 55.059876 
L 580.208 54.614603 
L 597.8511 54.213858 
L 615.4942 53.768585 
L 633.1373 53.100677 
L 650.7804 52.032023 
L 668.4235 50.696206 
L 686.0666 50.29546 
L 703.7097 49.672079 
L 721.3528 49.271334 
L 738.9959 48.737007 
L 756.639 48.647952 
L 774.2821 47.356662 
L 791.9252 47.356662 
L 809.5683 47.267608 
L 827.2114 46.733281 
L 844.8545 46.109899 
L 862.4976 45.976318 
L 880.1407 45.664627 
L 897.7838 44.907664 
L 915.4269 44.774082 
L 933.07 44.6405 
" clip-path="url(#pd934b8f563)" style="fill: none; stroke: #e377c2; stroke-width: 1.5; stroke-linecap: square"/>
   </g>
   <g id="line2d_20">
    <path d="M 50.915 82.62224 
L 68.5581 81.731695 
L 86.2012 80.573987 
L 103.8443 79.327224 
L 121.4874 78.303097 
L 139.1305 77.813298 
L 156.7736 77.056334 
L 174.4167 76.47748 
L 192.0598 75.765044 
L 209.7029 75.364299 
L 227.346 73.850373 
L 244.9891 73.316046 
L 262.6322 72.336446 
L 280.2753 71.846647 
L 297.9184 71.134211 
L 315.5615 70.199139 
L 333.2046 69.575757 
L 350.8477 68.863321 
L 368.4908 68.106358 
L 386.1339 67.304868 
L 403.777 66.904123 
L 421.4201 66.102632 
L 439.0632 65.924523 
L 456.7063 64.944924 
L 474.3494 63.965324 
L 491.9925 63.564579 
L 509.6356 63.252889 
L 527.2787 61.872544 
L 544.9218 60.046927 
L 562.5649 59.735236 
L 580.208 59.379018 
L 597.8511 59.156382 
L 615.4942 57.998674 
L 633.1373 57.820565 
L 650.7804 56.840965 
L 668.4235 56.751911 
L 686.0666 56.128529 
L 703.7097 56.039475 
L 721.3528 55.905893 
L 738.9959 55.727784 
L 756.639 55.193457 
L 774.2821 54.748185 
L 791.9252 54.080276 
L 809.5683 53.724058 
L 827.2114 52.967095 
L 844.8545 51.987496 
L 862.4976 51.898441 
L 880.1407 51.58675 
L 897.7838 51.542223 
L 915.4269 51.141478 
L 933.07 50.651678 
" clip-path="url(#pd934b8f563)" style="fill: none; stroke: #7f7f7f; stroke-width: 1.5; stroke-linecap: square"/>
   </g>
   <g id="line2d_21">
    <path d="M 50.915 82.488658 
L 68.5581 80.974732 
L 86.2012 80.128714 
L 103.8443 79.104588 
L 121.4874 78.570261 
L 139.1305 77.813298 
L 156.7736 77.546134 
L 174.4167 76.789171 
L 192.0598 76.121262 
L 209.7029 75.765044 
L 227.346 75.67599 
L 244.9891 73.761318 
L 262.6322 73.583209 
L 280.2753 73.226991 
L 297.9184 71.045156 
L 315.5615 71.000629 
L 333.2046 70.688938 
L 350.8477 68.373522 
L 368.4908 67.037704 
L 386.1339 66.236214 
L 403.777 65.746414 
L 421.4201 65.256615 
L 439.0632 63.119307 
L 456.7063 62.09518 
L 474.3494 61.29369 
L 491.9925 60.536727 
L 509.6356 59.557127 
L 527.2787 59.379018 
L 544.9218 59.0228 
L 562.5649 58.622055 
L 580.208 58.132255 
L 597.8511 57.597928 
L 615.4942 57.063602 
L 633.1373 56.484747 
L 650.7804 56.173057 
L 668.4235 54.881767 
L 686.0666 54.258385 
L 703.7097 53.545949 
L 721.3528 53.05615 
L 738.9959 52.432768 
L 756.639 52.032023 
L 774.2821 51.408641 
L 791.9252 51.408641 
L 809.5683 50.963369 
L 827.2114 50.918842 
L 844.8545 50.607151 
L 862.4976 50.429042 
L 880.1407 49.939242 
L 897.7838 49.093225 
L 915.4269 48.781534 
L 933.07 48.425316 
" clip-path="url(#pd934b8f563)" style="fill: none; stroke: #bcbd22; stroke-width: 1.5; stroke-linecap: square"/>
   </g>
   <g id="line2d_22">
    <path d="M 50.915 72.336446 
L 68.5581 71.178738 
L 86.2012 68.106358 
L 103.8443 66.503377 
L 121.4874 65.746414 
L 139.1305 65.301142 
L 156.7736 64.232488 
L 174.4167 62.674034 
L 192.0598 62.406871 
L 209.7029 61.828017 
L 227.346 60.492199 
L 244.9891 59.779763 
L 262.6322 59.156382 
L 280.2753 58.310364 
L 297.9184 57.464347 
L 315.5615 57.019074 
L 333.2046 56.039475 
L 350.8477 54.926294 
L 368.4908 54.614603 
L 386.1339 54.213858 
L 403.777 53.679531 
L 421.4201 53.36784 
L 439.0632 53.05615 
L 456.7063 52.432768 
L 474.3494 52.165605 
L 491.9925 51.764859 
L 509.6356 51.408641 
L 527.2787 50.518097 
L 544.9218 50.028297 
L 562.5649 49.315861 
L 580.208 49.048698 
L 597.8511 48.558898 
L 615.4942 48.158153 
L 633.1373 47.71288 
L 650.7804 47.312135 
L 668.4235 46.91139 
L 686.0666 46.42159 
L 703.7097 46.332536 
L 721.3528 46.020845 
L 738.9959 45.798209 
L 756.639 45.664627 
L 774.2821 45.352936 
L 791.9252 44.907664 
L 809.5683 44.907664 
L 827.2114 44.551446 
L 844.8545 44.284282 
L 862.4976 43.883537 
L 880.1407 43.571846 
L 897.7838 43.393737 
L 915.4269 42.992992 
L 933.07 42.636774 
" clip-path="url(#pd934b8f563)" style="fill: none; stroke: #17becf; stroke-width: 1.5; stroke-linecap: square"/>
   </g>
   <g id="line2d_23">
    <path d="M 50.915 72.425501 
L 68.5581 70.867047 
L 86.2012 70.110084 
L 103.8443 68.774267 
L 121.4874 67.349395 
L 139.1305 66.45885 
L 156.7736 65.879996 
L 174.4167 65.078506 
L 192.0598 63.920797 
L 209.7029 62.896671 
L 227.346 62.09518 
L 244.9891 61.516326 
L 262.6322 60.714836 
L 280.2753 60.269563 
L 297.9184 59.735236 
L 315.5615 58.933746 
L 333.2046 57.998674 
L 350.8477 57.063602 
L 368.4908 56.840965 
L 386.1339 56.351166 
L 403.777 56.084002 
L 421.4201 55.63873 
L 439.0632 54.970821 
L 456.7063 54.570076 
L 474.3494 54.302912 
L 491.9925 53.412367 
L 509.6356 52.967095 
L 527.2787 52.655404 
L 544.9218 52.210132 
L 562.5649 52.07655 
L 580.208 51.319587 
L 597.8511 50.607151 
L 615.4942 50.339988 
L 633.1373 50.072824 
L 650.7804 49.716606 
L 668.4235 49.360388 
L 686.0666 49.093225 
L 703.7097 49.048698 
L 721.3528 48.514371 
L 738.9959 48.247207 
L 756.639 47.935516 
L 774.2821 47.757407 
L 791.9252 47.490244 
L 809.5683 47.134026 
L 827.2114 46.822335 
L 844.8545 46.599699 
L 862.4976 46.42159 
L 880.1407 45.709154 
L 897.7838 45.531045 
L 915.4269 45.1303 
L 933.07 44.863137 
" clip-path="url(#pd934b8f563)" style="fill: none; stroke: #9edae5; stroke-width: 1.5; stroke-linecap: square"/>
   </g>
   <g id="patch_3">
    <path d="M 50.915 606.04 
L 50.915 30.748 
" style="fill: none; stroke: #000000; stroke-width: 0.8; stroke-linejoin: miter; stroke-linecap: square"/>
   </g>
   <g id="patch_4">
    <path d="M 933.07 606.04 
L 933.07 30.748 
" style="fill: none; stroke: #000000; stroke-width: 0.8; stroke-linejoin: miter; stroke-linecap: square"/>
   </g>
   <g id="patch_5">
    <path d="M 50.915 606.04 
L 933.07 606.04 
" style="fill: none; stroke: #000000; stroke-width: 0.8; stroke-linejoin: miter; stroke-linecap: square"/>
   </g>
   <g id="patch_6">
    <path d="M 50.915 30.748 
L 933.07 30.748 
" style="fill: none; stroke: #000000; stroke-width: 0.8; stroke-linejoin: miter; stroke-linecap: square"/>
   </g>
   <g id="text_15">
    <!-- Values Across Different Methods and Feature Numbers -->
    <g transform="translate(328.2 24.748) scale(0.12 -0.12)">
     <defs>
      <path id="DejaVuSans-41" d="M 2188 4044 
L 1331 1722 
L 3047 1722 
L 2188 4044 
z
M 1831 4666 
L 2547 4666 
L 4325 0 
L 3669 0 
L 3244 1197 
L 1141 1197 
L 716 0 
L 50 0 
L 1831 4666 
z
" transform="scale(0.015625)"/>
      <path id="DejaVuSans-63" d="M 3122 3366 
L 3122 2828 
Q 2878 2963 2633 3030 
Q 2388 3097 2138 3097 
Q 1578 3097 1268 2742 
Q 959 2388 959 1747 
Q 959 1106 1268 751 
Q 1578 397 2138 397 
Q 2388 397 2633 464 
Q 2878 531 3122 666 
L 3122 134 
Q 2881 22 2623 -34 
Q 2366 -91 2075 -91 
Q 1284 -91 818 406 
Q 353 903 353 1747 
Q 353 2603 823 3093 
Q 1294 3584 2113 3584 
Q 2378 3584 2631 3529 
Q 2884 3475 3122 3366 
z
" transform="scale(0.015625)"/>
      <path id="DejaVuSans-44" d="M 1259 4147 
L 1259 519 
L 2022 519 
Q 2988 519 3436 956 
Q 3884 1394 3884 2338 
Q 3884 3275 3436 3711 
Q 2988 4147 2022 4147 
L 1259 4147 
z
M 628 4666 
L 1925 4666 
Q 3281 4666 3915 4102 
Q 4550 3538 4550 2338 
Q 4550 1131 3912 565 
Q 3275 0 1925 0 
L 628 0 
L 628 4666 
z
" transform="scale(0.015625)"/>
      <path id="DejaVuSans-69" d="M 603 3500 
L 1178 3500 
L 1178 0 
L 603 0 
L 603 3500 
z
M 603 4863 
L 1178 4863 
L 1178 4134 
L 603 4134 
L 603 4863 
z
" transform="scale(0.015625)"/>
      <path id="DejaVuSans-6e" d="M 3513 2113 
L 3513 0 
L 2938 0 
L 2938 2094 
Q 2938 2591 2744 2837 
Q 2550 3084 2163 3084 
Q 1697 3084 1428 2787 
Q 1159 2491 1159 1978 
L 1159 0 
L 581 0 
L 581 3500 
L 1159 3500 
L 1159 2956 
Q 1366 3272 1645 3428 
Q 1925 3584 2291 3584 
Q 2894 3584 3203 3211 
Q 3513 2838 3513 2113 
z
" transform="scale(0.015625)"/>
      <path id="DejaVuSans-4d" d="M 628 4666 
L 1569 4666 
L 2759 1491 
L 3956 4666 
L 4897 4666 
L 4897 0 
L 4281 0 
L 4281 4097 
L 3078 897 
L 2444 897 
L 1241 4097 
L 1241 0 
L 628 0 
L 628 4666 
z
" transform="scale(0.015625)"/>
      <path id="DejaVuSans-68" d="M 3513 2113 
L 3513 0 
L 2938 0 
L 2938 2094 
Q 2938 2591 2744 2837 
Q 2550 3084 2163 3084 
Q 1697 3084 1428 2787 
Q 1159 2491 1159 1978 
L 1159 0 
L 581 0 
L 581 4863 
L 1159 4863 
L 1159 2956 
Q 1366 3272 1645 3428 
Q 1925 3584 2291 3584 
Q 2894 3584 3203 3211 
Q 3513 2838 3513 2113 
z
" transform="scale(0.015625)"/>
      <path id="DejaVuSans-64" d="M 2906 2969 
L 2906 4863 
L 3481 4863 
L 3481 0 
L 2906 0 
L 2906 525 
Q 2725 213 2448 61 
Q 2172 -91 1784 -91 
Q 1150 -91 751 415 
Q 353 922 353 1747 
Q 353 2572 751 3078 
Q 1150 3584 1784 3584 
Q 2172 3584 2448 3432 
Q 2725 3281 2906 2969 
z
M 947 1747 
Q 947 1113 1208 752 
Q 1469 391 1925 391 
Q 2381 391 2643 752 
Q 2906 1113 2906 1747 
Q 2906 2381 2643 2742 
Q 2381 3103 1925 3103 
Q 1469 3103 1208 2742 
Q 947 2381 947 1747 
z
" transform="scale(0.015625)"/>
     </defs>
     <use xlink:href="#DejaVuSans-56"/>
     <use xlink:href="#DejaVuSans-61" x="60.658203"/>
     <use xlink:href="#DejaVuSans-6c" x="121.9375"/>
     <use xlink:href="#DejaVuSans-75" x="149.720703"/>
     <use xlink:href="#DejaVuSans-65" x="213.099609"/>
     <use xlink:href="#DejaVuSans-73" x="274.623047"/>
     <use xlink:href="#DejaVuSans-20" x="326.722656"/>
     <use xlink:href="#DejaVuSans-41" x="358.509766"/>
     <use xlink:href="#DejaVuSans-63" x="425.167969"/>
     <use xlink:href="#DejaVuSans-72" x="480.148438"/>
     <use xlink:href="#DejaVuSans-6f" x="519.011719"/>
     <use xlink:href="#DejaVuSans-73" x="580.193359"/>
     <use xlink:href="#DejaVuSans-73" x="632.292969"/>
     <use xlink:href="#DejaVuSans-20" x="684.392578"/>
     <use xlink:href="#DejaVuSans-44" x="716.179688"/>
     <use xlink:href="#DejaVuSans-69" x="793.181641"/>
     <use xlink:href="#DejaVuSans-66" x="820.964844"/>
     <use xlink:href="#DejaVuSans-66" x="856.169922"/>
     <use xlink:href="#DejaVuSans-65" x="891.375"/>
     <use xlink:href="#DejaVuSans-72" x="952.898438"/>
     <use xlink:href="#DejaVuSans-65" x="991.761719"/>
     <use xlink:href="#DejaVuSans-6e" x="1053.285156"/>
     <use xlink:href="#DejaVuSans-74" x="1116.664062"/>
     <use xlink:href="#DejaVuSans-20" x="1155.873047"/>
     <use xlink:href="#DejaVuSans-4d" x="1187.660156"/>
     <use xlink:href="#DejaVuSans-65" x="1273.939453"/>
     <use xlink:href="#DejaVuSans-74" x="1335.462891"/>
     <use xlink:href="#DejaVuSans-68" x="1374.671875"/>
     <use xlink:href="#DejaVuSans-6f" x="1438.050781"/>
     <use xlink:href="#DejaVuSans-64" x="1499.232422"/>
     <use xlink:href="#DejaVuSans-73" x="1562.708984"/>
     <use xlink:href="#DejaVuSans-20" x="1614.808594"/>
     <use xlink:href="#DejaVuSans-61" x="1646.595703"/>
     <use xlink:href="#DejaVuSans-6e" x="1707.875"/>
     <use xlink:href="#DejaVuSans-64" x="1771.253906"/>
     <use xlink:href="#DejaVuSans-20" x="1834.730469"/>
     <use xlink:href="#DejaVuSans-46" x="1866.517578"/>
     <use xlink:href="#DejaVuSans-65" x="1918.537109"/>
     <use xlink:href="#DejaVuSans-61" x="1980.060547"/>
     <use xlink:href="#DejaVuSans-74" x="2041.339844"/>
     <use xlink:href="#DejaVuSans-75" x="2080.548828"/>
     <use xlink:href="#DejaVuSans-72" x="2143.927734"/>
     <use xlink:href="#DejaVuSans-65" x="2182.791016"/>
     <use xlink:href="#DejaVuSans-20" x="2244.314453"/>
     <use xlink:href="#DejaVuSans-4e" x="2276.101562"/>
     <use xlink:href="#DejaVuSans-75" x="2350.90625"/>
     <use xlink:href="#DejaVuSans-6d" x="2414.285156"/>
     <use xlink:href="#DejaVuSans-62" x="2511.697266"/>
     <use xlink:href="#DejaVuSans-65" x="2575.173828"/>
     <use xlink:href="#DejaVuSans-72" x="2636.697266"/>
     <use xlink:href="#DejaVuSans-73" x="2677.810547"/>
    </g>
   </g>
   <g id="legend_1">
    <g id="patch_7">
     <path d="M 940.07 172.555275 
L 1067.18875 172.555275 
Q 1069.18875 172.555275 1069.18875 170.555275 
L 1069.18875 8.9834 
Q 1069.18875 6.9834 1067.18875 6.9834 
L 940.07 6.9834 
Q 938.07 6.9834 938.07 8.9834 
L 938.07 170.555275 
Q 938.07 172.555275 940.07 172.555275 
z
" style="fill: #ffffff; opacity: 0.8; stroke: #cccccc; stroke-linejoin: miter"/>
    </g>
    <g id="line2d_24">
     <path d="M 942.07 15.081838 
L 952.07 15.081838 
L 962.07 15.081838 
" style="fill: none; stroke: #1f77b4; stroke-width: 1.5; stroke-linecap: square"/>
    </g>
    <g id="text_16">
     <!-- GA -->
     <g transform="translate(970.07 18.581838) scale(0.1 -0.1)">
      <defs>
       <path id="DejaVuSans-47" d="M 3809 666 
L 3809 1919 
L 2778 1919 
L 2778 2438 
L 4434 2438 
L 4434 434 
Q 4069 175 3628 42 
Q 3188 -91 2688 -91 
Q 1594 -91 976 548 
Q 359 1188 359 2328 
Q 359 3472 976 4111 
Q 1594 4750 2688 4750 
Q 3144 4750 3555 4637 
Q 3966 4525 4313 4306 
L 4313 3634 
Q 3963 3931 3569 4081 
Q 3175 4231 2741 4231 
Q 1884 4231 1454 3753 
Q 1025 3275 1025 2328 
Q 1025 1384 1454 906 
Q 1884 428 2741 428 
Q 3075 428 3337 486 
Q 3600 544 3809 666 
z
" transform="scale(0.015625)"/>
      </defs>
      <use xlink:href="#DejaVuSans-47"/>
      <use xlink:href="#DejaVuSans-41" x="77.490234"/>
     </g>
    </g>
    <g id="line2d_25">
     <path d="M 942.07 29.759963 
L 952.07 29.759963 
L 962.07 29.759963 
" style="fill: none; stroke: #ff7f0e; stroke-width: 1.5; stroke-linecap: square"/>
    </g>
    <g id="text_17">
     <!-- Random -->
     <g transform="translate(970.07 33.259963) scale(0.1 -0.1)">
      <defs>
       <path id="DejaVuSans-52" d="M 2841 2188 
Q 3044 2119 3236 1894 
Q 3428 1669 3622 1275 
L 4263 0 
L 3584 0 
L 2988 1197 
Q 2756 1666 2539 1819 
Q 2322 1972 1947 1972 
L 1259 1972 
L 1259 0 
L 628 0 
L 628 4666 
L 2053 4666 
Q 2853 4666 3247 4331 
Q 3641 3997 3641 3322 
Q 3641 2881 3436 2590 
Q 3231 2300 2841 2188 
z
M 1259 4147 
L 1259 2491 
L 2053 2491 
Q 2509 2491 2742 2702 
Q 2975 2913 2975 3322 
Q 2975 3731 2742 3939 
Q 2509 4147 2053 4147 
L 1259 4147 
z
" transform="scale(0.015625)"/>
      </defs>
      <use xlink:href="#DejaVuSans-52"/>
      <use xlink:href="#DejaVuSans-61" x="67.232422"/>
      <use xlink:href="#DejaVuSans-6e" x="128.511719"/>
      <use xlink:href="#DejaVuSans-64" x="191.890625"/>
      <use xlink:href="#DejaVuSans-6f" x="255.367188"/>
      <use xlink:href="#DejaVuSans-6d" x="316.548828"/>
     </g>
    </g>
    <g id="line2d_26">
     <path d="M 942.07 44.438088 
L 952.07 44.438088 
L 962.07 44.438088 
" style="fill: none; stroke: #2ca02c; stroke-width: 1.5; stroke-linecap: square"/>
    </g>
    <g id="text_18">
     <!-- chi_2 -->
     <g transform="translate(970.07 47.938088) scale(0.1 -0.1)">
      <defs>
       <path id="DejaVuSans-5f" d="M 3263 -1063 
L 3263 -1509 
L -63 -1509 
L -63 -1063 
L 3263 -1063 
z
" transform="scale(0.015625)"/>
      </defs>
      <use xlink:href="#DejaVuSans-63"/>
      <use xlink:href="#DejaVuSans-68" x="54.980469"/>
      <use xlink:href="#DejaVuSans-69" x="118.359375"/>
      <use xlink:href="#DejaVuSans-5f" x="146.142578"/>
      <use xlink:href="#DejaVuSans-32" x="196.142578"/>
     </g>
    </g>
    <g id="line2d_27">
     <path d="M 942.07 59.394338 
L 952.07 59.394338 
L 962.07 59.394338 
" style="fill: none; stroke: #d62728; stroke-width: 1.5; stroke-linecap: square"/>
    </g>
    <g id="text_19">
     <!-- f_classif -->
     <g transform="translate(970.07 62.894338) scale(0.1 -0.1)">
      <use xlink:href="#DejaVuSans-66"/>
      <use xlink:href="#DejaVuSans-5f" x="35.205078"/>
      <use xlink:href="#DejaVuSans-63" x="85.205078"/>
      <use xlink:href="#DejaVuSans-6c" x="140.185547"/>
      <use xlink:href="#DejaVuSans-61" x="167.96875"/>
      <use xlink:href="#DejaVuSans-73" x="229.248047"/>
      <use xlink:href="#DejaVuSans-73" x="281.347656"/>
      <use xlink:href="#DejaVuSans-69" x="333.447266"/>
      <use xlink:href="#DejaVuSans-66" x="361.230469"/>
     </g>
    </g>
    <g id="line2d_28">
     <path d="M 942.07 74.350588 
L 952.07 74.350588 
L 962.07 74.350588 
" style="fill: none; stroke: #9467bd; stroke-width: 1.5; stroke-linecap: square"/>
    </g>
    <g id="text_20">
     <!-- mutual_info_classif -->
     <g transform="translate(970.07 77.850588) scale(0.1 -0.1)">
      <use xlink:href="#DejaVuSans-6d"/>
      <use xlink:href="#DejaVuSans-75" x="97.412109"/>
      <use xlink:href="#DejaVuSans-74" x="160.791016"/>
      <use xlink:href="#DejaVuSans-75" x="200"/>
      <use xlink:href="#DejaVuSans-61" x="263.378906"/>
      <use xlink:href="#DejaVuSans-6c" x="324.658203"/>
      <use xlink:href="#DejaVuSans-5f" x="352.441406"/>
      <use xlink:href="#DejaVuSans-69" x="402.441406"/>
      <use xlink:href="#DejaVuSans-6e" x="430.224609"/>
      <use xlink:href="#DejaVuSans-66" x="493.603516"/>
      <use xlink:href="#DejaVuSans-6f" x="528.808594"/>
      <use xlink:href="#DejaVuSans-5f" x="589.990234"/>
      <use xlink:href="#DejaVuSans-63" x="639.990234"/>
      <use xlink:href="#DejaVuSans-6c" x="694.970703"/>
      <use xlink:href="#DejaVuSans-61" x="722.753906"/>
      <use xlink:href="#DejaVuSans-73" x="784.033203"/>
      <use xlink:href="#DejaVuSans-73" x="836.132812"/>
      <use xlink:href="#DejaVuSans-69" x="888.232422"/>
      <use xlink:href="#DejaVuSans-66" x="916.015625"/>
     </g>
    </g>
    <g id="line2d_29">
     <path d="M 942.07 89.306838 
L 952.07 89.306838 
L 962.07 89.306838 
" style="fill: none; stroke: #8c564b; stroke-width: 1.5; stroke-linecap: square"/>
    </g>
    <g id="text_21">
     <!-- lasso -->
     <g transform="translate(970.07 92.806838) scale(0.1 -0.1)">
      <use xlink:href="#DejaVuSans-6c"/>
      <use xlink:href="#DejaVuSans-61" x="27.783203"/>
      <use xlink:href="#DejaVuSans-73" x="89.0625"/>
      <use xlink:href="#DejaVuSans-73" x="141.162109"/>
      <use xlink:href="#DejaVuSans-6f" x="193.261719"/>
     </g>
    </g>
    <g id="line2d_30">
     <path d="M 942.07 103.984963 
L 952.07 103.984963 
L 962.07 103.984963 
" style="fill: none; stroke: #e377c2; stroke-width: 1.5; stroke-linecap: square"/>
    </g>
    <g id="text_22">
     <!-- ridge -->
     <g transform="translate(970.07 107.484963) scale(0.1 -0.1)">
      <defs>
       <path id="DejaVuSans-67" d="M 2906 1791 
Q 2906 2416 2648 2759 
Q 2391 3103 1925 3103 
Q 1463 3103 1205 2759 
Q 947 2416 947 1791 
Q 947 1169 1205 825 
Q 1463 481 1925 481 
Q 2391 481 2648 825 
Q 2906 1169 2906 1791 
z
M 3481 434 
Q 3481 -459 3084 -895 
Q 2688 -1331 1869 -1331 
Q 1566 -1331 1297 -1286 
Q 1028 -1241 775 -1147 
L 775 -588 
Q 1028 -725 1275 -790 
Q 1522 -856 1778 -856 
Q 2344 -856 2625 -561 
Q 2906 -266 2906 331 
L 2906 616 
Q 2728 306 2450 153 
Q 2172 0 1784 0 
Q 1141 0 747 490 
Q 353 981 353 1791 
Q 353 2603 747 3093 
Q 1141 3584 1784 3584 
Q 2172 3584 2450 3431 
Q 2728 3278 2906 2969 
L 2906 3500 
L 3481 3500 
L 3481 434 
z
" transform="scale(0.015625)"/>
      </defs>
      <use xlink:href="#DejaVuSans-72"/>
      <use xlink:href="#DejaVuSans-69" x="41.113281"/>
      <use xlink:href="#DejaVuSans-64" x="68.896484"/>
      <use xlink:href="#DejaVuSans-67" x="132.373047"/>
      <use xlink:href="#DejaVuSans-65" x="195.849609"/>
     </g>
    </g>
    <g id="line2d_31">
     <path d="M 942.07 118.663088 
L 952.07 118.663088 
L 962.07 118.663088 
" style="fill: none; stroke: #7f7f7f; stroke-width: 1.5; stroke-linecap: square"/>
    </g>
    <g id="text_23">
     <!-- elastic_net -->
     <g transform="translate(970.07 122.163088) scale(0.1 -0.1)">
      <use xlink:href="#DejaVuSans-65"/>
      <use xlink:href="#DejaVuSans-6c" x="61.523438"/>
      <use xlink:href="#DejaVuSans-61" x="89.306641"/>
      <use xlink:href="#DejaVuSans-73" x="150.585938"/>
      <use xlink:href="#DejaVuSans-74" x="202.685547"/>
      <use xlink:href="#DejaVuSans-69" x="241.894531"/>
      <use xlink:href="#DejaVuSans-63" x="269.677734"/>
      <use xlink:href="#DejaVuSans-5f" x="324.658203"/>
      <use xlink:href="#DejaVuSans-6e" x="374.658203"/>
      <use xlink:href="#DejaVuSans-65" x="438.037109"/>
      <use xlink:href="#DejaVuSans-74" x="499.560547"/>
     </g>
    </g>
    <g id="line2d_32">
     <path d="M 942.07 133.619338 
L 952.07 133.619338 
L 962.07 133.619338 
" style="fill: none; stroke: #bcbd22; stroke-width: 1.5; stroke-linecap: square"/>
    </g>
    <g id="text_24">
     <!-- rf -->
     <g transform="translate(970.07 137.119338) scale(0.1 -0.1)">
      <use xlink:href="#DejaVuSans-72"/>
      <use xlink:href="#DejaVuSans-66" x="41.113281"/>
     </g>
    </g>
    <g id="line2d_33">
     <path d="M 942.07 148.297463 
L 952.07 148.297463 
L 962.07 148.297463 
" style="fill: none; stroke: #17becf; stroke-width: 1.5; stroke-linecap: square"/>
    </g>
    <g id="text_25">
     <!-- gbm -->
     <g transform="translate(970.07 151.797463) scale(0.1 -0.1)">
      <use xlink:href="#DejaVuSans-67"/>
      <use xlink:href="#DejaVuSans-62" x="63.476562"/>
      <use xlink:href="#DejaVuSans-6d" x="126.953125"/>
     </g>
    </g>
    <g id="line2d_34">
     <path d="M 942.07 162.975588 
L 952.07 162.975588 
L 962.07 162.975588 
" style="fill: none; stroke: #9edae5; stroke-width: 1.5; stroke-linecap: square"/>
    </g>
    <g id="text_26">
     <!-- xgb -->
     <g transform="translate(970.07 166.475588) scale(0.1 -0.1)">
      <defs>
       <path id="DejaVuSans-78" d="M 3513 3500 
L 2247 1797 
L 3578 0 
L 2900 0 
L 1881 1375 
L 863 0 
L 184 0 
L 1544 1831 
L 300 3500 
L 978 3500 
L 1906 2253 
L 2834 3500 
L 3513 3500 
z
" transform="scale(0.015625)"/>
      </defs>
      <use xlink:href="#DejaVuSans-78"/>
      <use xlink:href="#DejaVuSans-67" x="59.179688"/>
      <use xlink:href="#DejaVuSans-62" x="122.65625"/>
     </g>
    </g>
   </g>
  </g>
 </g>
 <defs>
  <clipPath id="pd934b8f563">
   <rect x="50.915" y="30.748" width="882.155" height="575.292"/>
  </clipPath>
 </defs>
</svg>
