<?xml version="1.0" encoding="utf-8" standalone="no"?>
<!DOCTYPE svg PUBLIC "-//W3C//DTD SVG 1.1//EN"
  "http://www.w3.org/Graphics/SVG/1.1/DTD/svg11.dtd">
<svg xmlns:xlink="http://www.w3.org/1999/xlink" width="1080pt" height="432pt" viewBox="0 0 1080 432" xmlns="http://www.w3.org/2000/svg" version="1.1">
 <metadata>
  <rdf:RDF xmlns:dc="http://purl.org/dc/elements/1.1/" xmlns:cc="http://creativecommons.org/ns#" xmlns:rdf="http://www.w3.org/1999/02/22-rdf-syntax-ns#">
   <cc:Work>
    <dc:type rdf:resource="http://purl.org/dc/dcmitype/StillImage"/>
    <dc:date>2024-04-17T09:15:35.135088</dc:date>
    <dc:format>image/svg+xml</dc:format>
    <dc:creator>
     <cc:Agent>
      <dc:title>Matplotlib v3.7.2, https://matplotlib.org/</dc:title>
     </cc:Agent>
    </dc:creator>
   </cc:Work>
  </rdf:RDF>
 </metadata>
 <defs>
  <style type="text/css">*{stroke-linejoin: round; stroke-linecap: butt}</style>
 </defs>
 <g id="figure_1">
  <g id="patch_1">
   <path d="M 0 432 
L 1080 432 
L 1080 0 
L 0 0 
z
" style="fill: #ffffff"/>
  </g>
  <g id="axes_1">
   <g id="patch_2">
    <path d="M 53.495 324.38 
L 1069.2 324.38 
L 1069.2 10.8 
L 53.495 10.8 
z
" style="fill: #ffffff"/>
   </g>
   <g id="matplotlib.axis_1">
    <g id="xtick_1">
     <g id="line2d_1">
      <defs>
       <path id="m9b126276a4" d="M 0 0 
L 0 3.5 
" style="stroke: #000000; stroke-width: 0.8"/>
      </defs>
      <g>
       <use xlink:href="#m9b126276a4" x="111.920509" y="324.38" style="stroke: #000000; stroke-width: 0.8"/>
      </g>
     </g>
     <g id="text_1">
      <!-- GBM -->
      <g transform="translate(116.056759 367.825) rotate(-90) scale(0.16 -0.16)">
       <defs>
        <path id="ArialMT-47" d="M 2638 1797 
L 2638 2334 
L 4578 2338 
L 4578 638 
Q 4131 281 3656 101 
Q 3181 -78 2681 -78 
Q 2006 -78 1454 211 
Q 903 500 622 1047 
Q 341 1594 341 2269 
Q 341 2938 620 3517 
Q 900 4097 1425 4378 
Q 1950 4659 2634 4659 
Q 3131 4659 3532 4498 
Q 3934 4338 4162 4050 
Q 4391 3763 4509 3300 
L 3963 3150 
Q 3859 3500 3706 3700 
Q 3553 3900 3268 4020 
Q 2984 4141 2638 4141 
Q 2222 4141 1919 4014 
Q 1616 3888 1430 3681 
Q 1244 3475 1141 3228 
Q 966 2803 966 2306 
Q 966 1694 1177 1281 
Q 1388 869 1791 669 
Q 2194 469 2647 469 
Q 3041 469 3416 620 
Q 3791 772 3984 944 
L 3984 1797 
L 2638 1797 
z
" transform="scale(0.015625)"/>
        <path id="ArialMT-42" d="M 469 0 
L 469 4581 
L 2188 4581 
Q 2713 4581 3030 4442 
Q 3347 4303 3526 4014 
Q 3706 3725 3706 3409 
Q 3706 3116 3547 2856 
Q 3388 2597 3066 2438 
Q 3481 2316 3704 2022 
Q 3928 1728 3928 1328 
Q 3928 1006 3792 729 
Q 3656 453 3456 303 
Q 3256 153 2954 76 
Q 2653 0 2216 0 
L 469 0 
z
M 1075 2656 
L 2066 2656 
Q 2469 2656 2644 2709 
Q 2875 2778 2992 2937 
Q 3109 3097 3109 3338 
Q 3109 3566 3000 3739 
Q 2891 3913 2687 3977 
Q 2484 4041 1991 4041 
L 1075 4041 
L 1075 2656 
z
M 1075 541 
L 2216 541 
Q 2509 541 2628 563 
Q 2838 600 2978 687 
Q 3119 775 3209 942 
Q 3300 1109 3300 1328 
Q 3300 1584 3169 1773 
Q 3038 1963 2805 2039 
Q 2572 2116 2134 2116 
L 1075 2116 
L 1075 541 
z
" transform="scale(0.015625)"/>
        <path id="ArialMT-4d" d="M 475 0 
L 475 4581 
L 1388 4581 
L 2472 1338 
Q 2622 884 2691 659 
Q 2769 909 2934 1394 
L 4031 4581 
L 4847 4581 
L 4847 0 
L 4263 0 
L 4263 3834 
L 2931 0 
L 2384 0 
L 1059 3900 
L 1059 0 
L 475 0 
z
" transform="scale(0.015625)"/>
       </defs>
       <use xlink:href="#ArialMT-47"/>
       <use xlink:href="#ArialMT-42" x="77.783203"/>
       <use xlink:href="#ArialMT-4d" x="144.482422"/>
      </g>
     </g>
    </g>
    <g id="xtick_2">
     <g id="line2d_2">
      <g>
       <use xlink:href="#m9b126276a4" x="201.805907" y="324.38" style="stroke: #000000; stroke-width: 0.8"/>
      </g>
     </g>
     <g id="text_2">
      <!-- Ridge -->
      <g transform="translate(205.848407 373.1825) rotate(-90) scale(0.16 -0.16)">
       <defs>
        <path id="ArialMT-52" d="M 503 0 
L 503 4581 
L 2534 4581 
Q 3147 4581 3465 4457 
Q 3784 4334 3975 4021 
Q 4166 3709 4166 3331 
Q 4166 2844 3850 2509 
Q 3534 2175 2875 2084 
Q 3116 1969 3241 1856 
Q 3506 1613 3744 1247 
L 4541 0 
L 3778 0 
L 3172 953 
Q 2906 1366 2734 1584 
Q 2563 1803 2427 1890 
Q 2291 1978 2150 2013 
Q 2047 2034 1813 2034 
L 1109 2034 
L 1109 0 
L 503 0 
z
M 1109 2559 
L 2413 2559 
Q 2828 2559 3062 2645 
Q 3297 2731 3419 2920 
Q 3541 3109 3541 3331 
Q 3541 3656 3305 3865 
Q 3069 4075 2559 4075 
L 1109 4075 
L 1109 2559 
z
" transform="scale(0.015625)"/>
        <path id="ArialMT-69" d="M 425 3934 
L 425 4581 
L 988 4581 
L 988 3934 
L 425 3934 
z
M 425 0 
L 425 3319 
L 988 3319 
L 988 0 
L 425 0 
z
" transform="scale(0.015625)"/>
        <path id="ArialMT-64" d="M 2575 0 
L 2575 419 
Q 2259 -75 1647 -75 
Q 1250 -75 917 144 
Q 584 363 401 755 
Q 219 1147 219 1656 
Q 219 2153 384 2558 
Q 550 2963 881 3178 
Q 1213 3394 1622 3394 
Q 1922 3394 2156 3267 
Q 2391 3141 2538 2938 
L 2538 4581 
L 3097 4581 
L 3097 0 
L 2575 0 
z
M 797 1656 
Q 797 1019 1065 703 
Q 1334 388 1700 388 
Q 2069 388 2326 689 
Q 2584 991 2584 1609 
Q 2584 2291 2321 2609 
Q 2059 2928 1675 2928 
Q 1300 2928 1048 2622 
Q 797 2316 797 1656 
z
" transform="scale(0.015625)"/>
        <path id="ArialMT-67" d="M 319 -275 
L 866 -356 
Q 900 -609 1056 -725 
Q 1266 -881 1628 -881 
Q 2019 -881 2231 -725 
Q 2444 -569 2519 -288 
Q 2563 -116 2559 434 
Q 2191 0 1641 0 
Q 956 0 581 494 
Q 206 988 206 1678 
Q 206 2153 378 2554 
Q 550 2956 876 3175 
Q 1203 3394 1644 3394 
Q 2231 3394 2613 2919 
L 2613 3319 
L 3131 3319 
L 3131 450 
Q 3131 -325 2973 -648 
Q 2816 -972 2473 -1159 
Q 2131 -1347 1631 -1347 
Q 1038 -1347 672 -1080 
Q 306 -813 319 -275 
z
M 784 1719 
Q 784 1066 1043 766 
Q 1303 466 1694 466 
Q 2081 466 2343 764 
Q 2606 1063 2606 1700 
Q 2606 2309 2336 2618 
Q 2066 2928 1684 2928 
Q 1309 2928 1046 2623 
Q 784 2319 784 1719 
z
" transform="scale(0.015625)"/>
        <path id="ArialMT-65" d="M 2694 1069 
L 3275 997 
Q 3138 488 2766 206 
Q 2394 -75 1816 -75 
Q 1088 -75 661 373 
Q 234 822 234 1631 
Q 234 2469 665 2931 
Q 1097 3394 1784 3394 
Q 2450 3394 2872 2941 
Q 3294 2488 3294 1666 
Q 3294 1616 3291 1516 
L 816 1516 
Q 847 969 1125 678 
Q 1403 388 1819 388 
Q 2128 388 2347 550 
Q 2566 713 2694 1069 
z
M 847 1978 
L 2700 1978 
Q 2663 2397 2488 2606 
Q 2219 2931 1791 2931 
Q 1403 2931 1139 2672 
Q 875 2413 847 1978 
z
" transform="scale(0.015625)"/>
       </defs>
       <use xlink:href="#ArialMT-52"/>
       <use xlink:href="#ArialMT-69" x="72.216797"/>
       <use xlink:href="#ArialMT-64" x="94.433594"/>
       <use xlink:href="#ArialMT-67" x="150.048828"/>
       <use xlink:href="#ArialMT-65" x="205.664062"/>
      </g>
     </g>
    </g>
    <g id="xtick_3">
     <g id="line2d_3">
      <g>
       <use xlink:href="#m9b126276a4" x="291.691305" y="324.38" style="stroke: #000000; stroke-width: 0.8"/>
      </g>
     </g>
     <g id="text_3">
      <!-- XGB -->
      <g transform="translate(295.827555 365.17) rotate(-90) scale(0.16 -0.16)">
       <defs>
        <path id="ArialMT-58" d="M 28 0 
L 1800 2388 
L 238 4581 
L 959 4581 
L 1791 3406 
Q 2050 3041 2159 2844 
Q 2313 3094 2522 3366 
L 3444 4581 
L 4103 4581 
L 2494 2422 
L 4228 0 
L 3478 0 
L 2325 1634 
Q 2228 1775 2125 1941 
Q 1972 1691 1906 1597 
L 756 0 
L 28 0 
z
" transform="scale(0.015625)"/>
       </defs>
       <use xlink:href="#ArialMT-58"/>
       <use xlink:href="#ArialMT-47" x="66.699219"/>
       <use xlink:href="#ArialMT-42" x="144.482422"/>
      </g>
     </g>
    </g>
    <g id="xtick_4">
     <g id="line2d_4">
      <g>
       <use xlink:href="#m9b126276a4" x="381.576704" y="324.38" style="stroke: #000000; stroke-width: 0.8"/>
      </g>
     </g>
     <g id="text_4">
      <!-- RF -->
      <g transform="translate(385.712954 352.7075) rotate(-90) scale(0.16 -0.16)">
       <defs>
        <path id="ArialMT-46" d="M 525 0 
L 525 4581 
L 3616 4581 
L 3616 4041 
L 1131 4041 
L 1131 2622 
L 3281 2622 
L 3281 2081 
L 1131 2081 
L 1131 0 
L 525 0 
z
" transform="scale(0.015625)"/>
       </defs>
       <use xlink:href="#ArialMT-52"/>
       <use xlink:href="#ArialMT-46" x="72.216797"/>
      </g>
     </g>
    </g>
    <g id="xtick_5">
     <g id="line2d_5">
      <g>
       <use xlink:href="#m9b126276a4" x="471.462102" y="324.38" style="stroke: #000000; stroke-width: 0.8"/>
      </g>
     </g>
     <g id="text_5">
      <!-- ElasticNet -->
      <g transform="translate(475.598352 403.4025) rotate(-90) scale(0.16 -0.16)">
       <defs>
        <path id="ArialMT-45" d="M 506 0 
L 506 4581 
L 3819 4581 
L 3819 4041 
L 1113 4041 
L 1113 2638 
L 3647 2638 
L 3647 2100 
L 1113 2100 
L 1113 541 
L 3925 541 
L 3925 0 
L 506 0 
z
" transform="scale(0.015625)"/>
        <path id="ArialMT-6c" d="M 409 0 
L 409 4581 
L 972 4581 
L 972 0 
L 409 0 
z
" transform="scale(0.015625)"/>
        <path id="ArialMT-61" d="M 2588 409 
Q 2275 144 1986 34 
Q 1697 -75 1366 -75 
Q 819 -75 525 192 
Q 231 459 231 875 
Q 231 1119 342 1320 
Q 453 1522 633 1644 
Q 813 1766 1038 1828 
Q 1203 1872 1538 1913 
Q 2219 1994 2541 2106 
Q 2544 2222 2544 2253 
Q 2544 2597 2384 2738 
Q 2169 2928 1744 2928 
Q 1347 2928 1158 2789 
Q 969 2650 878 2297 
L 328 2372 
Q 403 2725 575 2942 
Q 747 3159 1072 3276 
Q 1397 3394 1825 3394 
Q 2250 3394 2515 3294 
Q 2781 3194 2906 3042 
Q 3031 2891 3081 2659 
Q 3109 2516 3109 2141 
L 3109 1391 
Q 3109 606 3145 398 
Q 3181 191 3288 0 
L 2700 0 
Q 2613 175 2588 409 
z
M 2541 1666 
Q 2234 1541 1622 1453 
Q 1275 1403 1131 1340 
Q 988 1278 909 1158 
Q 831 1038 831 891 
Q 831 666 1001 516 
Q 1172 366 1500 366 
Q 1825 366 2078 508 
Q 2331 650 2450 897 
Q 2541 1088 2541 1459 
L 2541 1666 
z
" transform="scale(0.015625)"/>
        <path id="ArialMT-73" d="M 197 991 
L 753 1078 
Q 800 744 1014 566 
Q 1228 388 1613 388 
Q 2000 388 2187 545 
Q 2375 703 2375 916 
Q 2375 1106 2209 1216 
Q 2094 1291 1634 1406 
Q 1016 1563 777 1677 
Q 538 1791 414 1992 
Q 291 2194 291 2438 
Q 291 2659 392 2848 
Q 494 3038 669 3163 
Q 800 3259 1026 3326 
Q 1253 3394 1513 3394 
Q 1903 3394 2198 3281 
Q 2494 3169 2634 2976 
Q 2775 2784 2828 2463 
L 2278 2388 
Q 2241 2644 2061 2787 
Q 1881 2931 1553 2931 
Q 1166 2931 1000 2803 
Q 834 2675 834 2503 
Q 834 2394 903 2306 
Q 972 2216 1119 2156 
Q 1203 2125 1616 2013 
Q 2213 1853 2448 1751 
Q 2684 1650 2818 1456 
Q 2953 1263 2953 975 
Q 2953 694 2789 445 
Q 2625 197 2315 61 
Q 2006 -75 1616 -75 
Q 969 -75 630 194 
Q 291 463 197 991 
z
" transform="scale(0.015625)"/>
        <path id="ArialMT-74" d="M 1650 503 
L 1731 6 
Q 1494 -44 1306 -44 
Q 1000 -44 831 53 
Q 663 150 594 308 
Q 525 466 525 972 
L 525 2881 
L 113 2881 
L 113 3319 
L 525 3319 
L 525 4141 
L 1084 4478 
L 1084 3319 
L 1650 3319 
L 1650 2881 
L 1084 2881 
L 1084 941 
Q 1084 700 1114 631 
Q 1144 563 1211 522 
Q 1278 481 1403 481 
Q 1497 481 1650 503 
z
" transform="scale(0.015625)"/>
        <path id="ArialMT-63" d="M 2588 1216 
L 3141 1144 
Q 3050 572 2676 248 
Q 2303 -75 1759 -75 
Q 1078 -75 664 370 
Q 250 816 250 1647 
Q 250 2184 428 2587 
Q 606 2991 970 3192 
Q 1334 3394 1763 3394 
Q 2303 3394 2647 3120 
Q 2991 2847 3088 2344 
L 2541 2259 
Q 2463 2594 2264 2762 
Q 2066 2931 1784 2931 
Q 1359 2931 1093 2626 
Q 828 2322 828 1663 
Q 828 994 1084 691 
Q 1341 388 1753 388 
Q 2084 388 2306 591 
Q 2528 794 2588 1216 
z
" transform="scale(0.015625)"/>
        <path id="ArialMT-4e" d="M 488 0 
L 488 4581 
L 1109 4581 
L 3516 984 
L 3516 4581 
L 4097 4581 
L 4097 0 
L 3475 0 
L 1069 3600 
L 1069 0 
L 488 0 
z
" transform="scale(0.015625)"/>
       </defs>
       <use xlink:href="#ArialMT-45"/>
       <use xlink:href="#ArialMT-6c" x="66.699219"/>
       <use xlink:href="#ArialMT-61" x="88.916016"/>
       <use xlink:href="#ArialMT-73" x="144.53125"/>
       <use xlink:href="#ArialMT-74" x="194.53125"/>
       <use xlink:href="#ArialMT-69" x="222.314453"/>
       <use xlink:href="#ArialMT-63" x="244.53125"/>
       <use xlink:href="#ArialMT-4e" x="294.53125"/>
       <use xlink:href="#ArialMT-65" x="366.748047"/>
       <use xlink:href="#ArialMT-74" x="422.363281"/>
      </g>
     </g>
    </g>
    <g id="xtick_6">
     <g id="line2d_6">
      <g>
       <use xlink:href="#m9b126276a4" x="561.3475" y="324.38" style="stroke: #000000; stroke-width: 0.8"/>
      </g>
     </g>
     <g id="text_6">
      <!-- Lasso -->
      <g transform="translate(565.48375 374.0725) rotate(-90) scale(0.16 -0.16)">
       <defs>
        <path id="ArialMT-4c" d="M 469 0 
L 469 4581 
L 1075 4581 
L 1075 541 
L 3331 541 
L 3331 0 
L 469 0 
z
" transform="scale(0.015625)"/>
        <path id="ArialMT-6f" d="M 213 1659 
Q 213 2581 725 3025 
Q 1153 3394 1769 3394 
Q 2453 3394 2887 2945 
Q 3322 2497 3322 1706 
Q 3322 1066 3130 698 
Q 2938 331 2570 128 
Q 2203 -75 1769 -75 
Q 1072 -75 642 372 
Q 213 819 213 1659 
z
M 791 1659 
Q 791 1022 1069 705 
Q 1347 388 1769 388 
Q 2188 388 2466 706 
Q 2744 1025 2744 1678 
Q 2744 2294 2464 2611 
Q 2184 2928 1769 2928 
Q 1347 2928 1069 2612 
Q 791 2297 791 1659 
z
" transform="scale(0.015625)"/>
       </defs>
       <use xlink:href="#ArialMT-4c"/>
       <use xlink:href="#ArialMT-61" x="55.615234"/>
       <use xlink:href="#ArialMT-73" x="111.230469"/>
       <use xlink:href="#ArialMT-73" x="161.230469"/>
       <use xlink:href="#ArialMT-6f" x="211.230469"/>
      </g>
     </g>
    </g>
    <g id="xtick_7">
     <g id="line2d_7">
      <g>
       <use xlink:href="#m9b126276a4" x="651.232898" y="324.38" style="stroke: #000000; stroke-width: 0.8"/>
      </g>
     </g>
     <g id="text_7">
      <!-- GA -->
      <g transform="translate(655.369148 354.4975) rotate(-90) scale(0.16 -0.16)">
       <defs>
        <path id="ArialMT-41" d="M -9 0 
L 1750 4581 
L 2403 4581 
L 4278 0 
L 3588 0 
L 3053 1388 
L 1138 1388 
L 634 0 
L -9 0 
z
M 1313 1881 
L 2866 1881 
L 2388 3150 
Q 2169 3728 2063 4100 
Q 1975 3659 1816 3225 
L 1313 1881 
z
" transform="scale(0.015625)"/>
       </defs>
       <use xlink:href="#ArialMT-47"/>
       <use xlink:href="#ArialMT-41" x="77.783203"/>
      </g>
     </g>
    </g>
    <g id="xtick_8">
     <g id="line2d_8">
      <g>
       <use xlink:href="#m9b126276a4" x="741.118296" y="324.38" style="stroke: #000000; stroke-width: 0.8"/>
      </g>
     </g>
     <g id="text_8">
      <!-- Chi-Squared -->
      <g transform="translate(745.352046 421.2025) rotate(-90) scale(0.16 -0.16)">
       <defs>
        <path id="ArialMT-43" d="M 3763 1606 
L 4369 1453 
Q 4178 706 3683 314 
Q 3188 -78 2472 -78 
Q 1731 -78 1267 223 
Q 803 525 561 1097 
Q 319 1669 319 2325 
Q 319 3041 592 3573 
Q 866 4106 1370 4382 
Q 1875 4659 2481 4659 
Q 3169 4659 3637 4309 
Q 4106 3959 4291 3325 
L 3694 3184 
Q 3534 3684 3231 3912 
Q 2928 4141 2469 4141 
Q 1941 4141 1586 3887 
Q 1231 3634 1087 3207 
Q 944 2781 944 2328 
Q 944 1744 1114 1308 
Q 1284 872 1643 656 
Q 2003 441 2422 441 
Q 2931 441 3284 734 
Q 3638 1028 3763 1606 
z
" transform="scale(0.015625)"/>
        <path id="ArialMT-68" d="M 422 0 
L 422 4581 
L 984 4581 
L 984 2938 
Q 1378 3394 1978 3394 
Q 2347 3394 2619 3248 
Q 2891 3103 3008 2847 
Q 3125 2591 3125 2103 
L 3125 0 
L 2563 0 
L 2563 2103 
Q 2563 2525 2380 2717 
Q 2197 2909 1863 2909 
Q 1613 2909 1392 2779 
Q 1172 2650 1078 2428 
Q 984 2206 984 1816 
L 984 0 
L 422 0 
z
" transform="scale(0.015625)"/>
        <path id="ArialMT-2d" d="M 203 1375 
L 203 1941 
L 1931 1941 
L 1931 1375 
L 203 1375 
z
" transform="scale(0.015625)"/>
        <path id="ArialMT-53" d="M 288 1472 
L 859 1522 
Q 900 1178 1048 958 
Q 1197 738 1509 602 
Q 1822 466 2213 466 
Q 2559 466 2825 569 
Q 3091 672 3220 851 
Q 3350 1031 3350 1244 
Q 3350 1459 3225 1620 
Q 3100 1781 2813 1891 
Q 2628 1963 1997 2114 
Q 1366 2266 1113 2400 
Q 784 2572 623 2826 
Q 463 3081 463 3397 
Q 463 3744 659 4045 
Q 856 4347 1234 4503 
Q 1613 4659 2075 4659 
Q 2584 4659 2973 4495 
Q 3363 4331 3572 4012 
Q 3781 3694 3797 3291 
L 3216 3247 
Q 3169 3681 2898 3903 
Q 2628 4125 2100 4125 
Q 1550 4125 1298 3923 
Q 1047 3722 1047 3438 
Q 1047 3191 1225 3031 
Q 1400 2872 2139 2705 
Q 2878 2538 3153 2413 
Q 3553 2228 3743 1945 
Q 3934 1663 3934 1294 
Q 3934 928 3725 604 
Q 3516 281 3123 101 
Q 2731 -78 2241 -78 
Q 1619 -78 1198 103 
Q 778 284 539 648 
Q 300 1013 288 1472 
z
" transform="scale(0.015625)"/>
        <path id="ArialMT-71" d="M 2538 -1272 
L 2538 353 
Q 2406 169 2170 47 
Q 1934 -75 1669 -75 
Q 1078 -75 651 397 
Q 225 869 225 1691 
Q 225 2191 398 2587 
Q 572 2984 901 3189 
Q 1231 3394 1625 3394 
Q 2241 3394 2594 2875 
L 2594 3319 
L 3100 3319 
L 3100 -1272 
L 2538 -1272 
z
M 803 1669 
Q 803 1028 1072 708 
Q 1341 388 1716 388 
Q 2075 388 2334 692 
Q 2594 997 2594 1619 
Q 2594 2281 2320 2615 
Q 2047 2950 1678 2950 
Q 1313 2950 1058 2639 
Q 803 2328 803 1669 
z
" transform="scale(0.015625)"/>
        <path id="ArialMT-75" d="M 2597 0 
L 2597 488 
Q 2209 -75 1544 -75 
Q 1250 -75 995 37 
Q 741 150 617 320 
Q 494 491 444 738 
Q 409 903 409 1263 
L 409 3319 
L 972 3319 
L 972 1478 
Q 972 1038 1006 884 
Q 1059 663 1231 536 
Q 1403 409 1656 409 
Q 1909 409 2131 539 
Q 2353 669 2445 892 
Q 2538 1116 2538 1541 
L 2538 3319 
L 3100 3319 
L 3100 0 
L 2597 0 
z
" transform="scale(0.015625)"/>
        <path id="ArialMT-72" d="M 416 0 
L 416 3319 
L 922 3319 
L 922 2816 
Q 1116 3169 1280 3281 
Q 1444 3394 1641 3394 
Q 1925 3394 2219 3213 
L 2025 2691 
Q 1819 2813 1613 2813 
Q 1428 2813 1281 2702 
Q 1134 2591 1072 2394 
Q 978 2094 978 1738 
L 978 0 
L 416 0 
z
" transform="scale(0.015625)"/>
       </defs>
       <use xlink:href="#ArialMT-43"/>
       <use xlink:href="#ArialMT-68" x="72.216797"/>
       <use xlink:href="#ArialMT-69" x="127.832031"/>
       <use xlink:href="#ArialMT-2d" x="150.048828"/>
       <use xlink:href="#ArialMT-53" x="183.349609"/>
       <use xlink:href="#ArialMT-71" x="250.048828"/>
       <use xlink:href="#ArialMT-75" x="305.664062"/>
       <use xlink:href="#ArialMT-61" x="361.279297"/>
       <use xlink:href="#ArialMT-72" x="416.894531"/>
       <use xlink:href="#ArialMT-65" x="450.195312"/>
       <use xlink:href="#ArialMT-64" x="505.810547"/>
      </g>
     </g>
    </g>
    <g id="xtick_9">
     <g id="line2d_9">
      <g>
       <use xlink:href="#m9b126276a4" x="831.003695" y="324.38" style="stroke: #000000; stroke-width: 0.8"/>
      </g>
     </g>
     <g id="text_9">
      <!-- ANOVA F -->
      <g transform="translate(835.139945 399.555) rotate(-90) scale(0.16 -0.16)">
       <defs>
        <path id="ArialMT-4f" d="M 309 2231 
Q 309 3372 921 4017 
Q 1534 4663 2503 4663 
Q 3138 4663 3647 4359 
Q 4156 4056 4423 3514 
Q 4691 2972 4691 2284 
Q 4691 1588 4409 1038 
Q 4128 488 3612 205 
Q 3097 -78 2500 -78 
Q 1853 -78 1343 234 
Q 834 547 571 1087 
Q 309 1628 309 2231 
z
M 934 2222 
Q 934 1394 1379 917 
Q 1825 441 2497 441 
Q 3181 441 3623 922 
Q 4066 1403 4066 2288 
Q 4066 2847 3877 3264 
Q 3688 3681 3323 3911 
Q 2959 4141 2506 4141 
Q 1863 4141 1398 3698 
Q 934 3256 934 2222 
z
" transform="scale(0.015625)"/>
        <path id="ArialMT-56" d="M 1803 0 
L 28 4581 
L 684 4581 
L 1875 1253 
Q 2019 853 2116 503 
Q 2222 878 2363 1253 
L 3600 4581 
L 4219 4581 
L 2425 0 
L 1803 0 
z
" transform="scale(0.015625)"/>
        <path id="ArialMT-20" transform="scale(0.015625)"/>
       </defs>
       <use xlink:href="#ArialMT-41"/>
       <use xlink:href="#ArialMT-4e" x="66.699219"/>
       <use xlink:href="#ArialMT-4f" x="138.916016"/>
       <use xlink:href="#ArialMT-56" x="216.699219"/>
       <use xlink:href="#ArialMT-41" x="276.023438"/>
       <use xlink:href="#ArialMT-20" x="337.222656"/>
       <use xlink:href="#ArialMT-46" x="365.005859"/>
      </g>
     </g>
    </g>
    <g id="xtick_10">
     <g id="line2d_10">
      <g>
       <use xlink:href="#m9b126276a4" x="920.889093" y="324.38" style="stroke: #000000; stroke-width: 0.8"/>
      </g>
     </g>
     <g id="text_10">
      <!-- Mutual Info -->
      <g transform="translate(925.025343 410.53) rotate(-90) scale(0.16 -0.16)">
       <defs>
        <path id="ArialMT-49" d="M 597 0 
L 597 4581 
L 1203 4581 
L 1203 0 
L 597 0 
z
" transform="scale(0.015625)"/>
        <path id="ArialMT-6e" d="M 422 0 
L 422 3319 
L 928 3319 
L 928 2847 
Q 1294 3394 1984 3394 
Q 2284 3394 2536 3286 
Q 2788 3178 2913 3003 
Q 3038 2828 3088 2588 
Q 3119 2431 3119 2041 
L 3119 0 
L 2556 0 
L 2556 2019 
Q 2556 2363 2490 2533 
Q 2425 2703 2258 2804 
Q 2091 2906 1866 2906 
Q 1506 2906 1245 2678 
Q 984 2450 984 1813 
L 984 0 
L 422 0 
z
" transform="scale(0.015625)"/>
        <path id="ArialMT-66" d="M 556 0 
L 556 2881 
L 59 2881 
L 59 3319 
L 556 3319 
L 556 3672 
Q 556 4006 616 4169 
Q 697 4388 901 4523 
Q 1106 4659 1475 4659 
Q 1713 4659 2000 4603 
L 1916 4113 
Q 1741 4144 1584 4144 
Q 1328 4144 1222 4034 
Q 1116 3925 1116 3625 
L 1116 3319 
L 1763 3319 
L 1763 2881 
L 1116 2881 
L 1116 0 
L 556 0 
z
" transform="scale(0.015625)"/>
       </defs>
       <use xlink:href="#ArialMT-4d"/>
       <use xlink:href="#ArialMT-75" x="83.300781"/>
       <use xlink:href="#ArialMT-74" x="138.916016"/>
       <use xlink:href="#ArialMT-75" x="166.699219"/>
       <use xlink:href="#ArialMT-61" x="222.314453"/>
       <use xlink:href="#ArialMT-6c" x="277.929688"/>
       <use xlink:href="#ArialMT-20" x="300.146484"/>
       <use xlink:href="#ArialMT-49" x="327.929688"/>
       <use xlink:href="#ArialMT-6e" x="355.712891"/>
       <use xlink:href="#ArialMT-66" x="411.328125"/>
       <use xlink:href="#ArialMT-6f" x="439.111328"/>
      </g>
     </g>
    </g>
    <g id="xtick_11">
     <g id="line2d_11">
      <g>
       <use xlink:href="#m9b126276a4" x="1010.774491" y="324.38" style="stroke: #000000; stroke-width: 0.8"/>
      </g>
     </g>
     <g id="text_11">
      <!-- Random -->
      <g transform="translate(1014.910741 391.8525) rotate(-90) scale(0.16 -0.16)">
       <defs>
        <path id="ArialMT-6d" d="M 422 0 
L 422 3319 
L 925 3319 
L 925 2853 
Q 1081 3097 1340 3245 
Q 1600 3394 1931 3394 
Q 2300 3394 2536 3241 
Q 2772 3088 2869 2813 
Q 3263 3394 3894 3394 
Q 4388 3394 4653 3120 
Q 4919 2847 4919 2278 
L 4919 0 
L 4359 0 
L 4359 2091 
Q 4359 2428 4304 2576 
Q 4250 2725 4106 2815 
Q 3963 2906 3769 2906 
Q 3419 2906 3187 2673 
Q 2956 2441 2956 1928 
L 2956 0 
L 2394 0 
L 2394 2156 
Q 2394 2531 2256 2718 
Q 2119 2906 1806 2906 
Q 1569 2906 1367 2781 
Q 1166 2656 1075 2415 
Q 984 2175 984 1722 
L 984 0 
L 422 0 
z
" transform="scale(0.015625)"/>
       </defs>
       <use xlink:href="#ArialMT-52"/>
       <use xlink:href="#ArialMT-61" x="72.216797"/>
       <use xlink:href="#ArialMT-6e" x="127.832031"/>
       <use xlink:href="#ArialMT-64" x="183.447266"/>
       <use xlink:href="#ArialMT-6f" x="239.0625"/>
       <use xlink:href="#ArialMT-6d" x="294.677734"/>
      </g>
     </g>
    </g>
   </g>
   <g id="matplotlib.axis_2">
    <g id="ytick_1">
     <g id="line2d_12">
      <defs>
       <path id="m44cf51101f" d="M 0 0 
L -3.5 0 
" style="stroke: #000000; stroke-width: 0.8"/>
      </defs>
      <g>
       <use xlink:href="#m44cf51101f" x="53.495" y="324.38" style="stroke: #000000; stroke-width: 0.8"/>
      </g>
     </g>
     <g id="text_12">
      <!-- 0 -->
      <g transform="translate(40.934062 327.958906) scale(0.1 -0.1)">
       <defs>
        <path id="ArialMT-30" d="M 266 2259 
Q 266 3072 433 3567 
Q 600 4063 929 4331 
Q 1259 4600 1759 4600 
Q 2128 4600 2406 4451 
Q 2684 4303 2865 4023 
Q 3047 3744 3150 3342 
Q 3253 2941 3253 2259 
Q 3253 1453 3087 958 
Q 2922 463 2592 192 
Q 2263 -78 1759 -78 
Q 1097 -78 719 397 
Q 266 969 266 2259 
z
M 844 2259 
Q 844 1131 1108 757 
Q 1372 384 1759 384 
Q 2147 384 2411 759 
Q 2675 1134 2675 2259 
Q 2675 3391 2411 3762 
Q 2147 4134 1753 4134 
Q 1366 4134 1134 3806 
Q 844 3388 844 2259 
z
" transform="scale(0.015625)"/>
       </defs>
       <use xlink:href="#ArialMT-30"/>
      </g>
     </g>
    </g>
    <g id="ytick_2">
     <g id="line2d_13">
      <g>
       <use xlink:href="#m44cf51101f" x="53.495" y="261.664" style="stroke: #000000; stroke-width: 0.8"/>
      </g>
     </g>
     <g id="text_13">
      <!-- 20 -->
      <g transform="translate(35.373125 265.242906) scale(0.1 -0.1)">
       <defs>
        <path id="ArialMT-32" d="M 3222 541 
L 3222 0 
L 194 0 
Q 188 203 259 391 
Q 375 700 629 1000 
Q 884 1300 1366 1694 
Q 2113 2306 2375 2664 
Q 2638 3022 2638 3341 
Q 2638 3675 2398 3904 
Q 2159 4134 1775 4134 
Q 1369 4134 1125 3890 
Q 881 3647 878 3216 
L 300 3275 
Q 359 3922 746 4261 
Q 1134 4600 1788 4600 
Q 2447 4600 2831 4234 
Q 3216 3869 3216 3328 
Q 3216 3053 3103 2787 
Q 2991 2522 2730 2228 
Q 2469 1934 1863 1422 
Q 1356 997 1212 845 
Q 1069 694 975 541 
L 3222 541 
z
" transform="scale(0.015625)"/>
       </defs>
       <use xlink:href="#ArialMT-32"/>
       <use xlink:href="#ArialMT-30" x="55.615234"/>
      </g>
     </g>
    </g>
    <g id="ytick_3">
     <g id="line2d_14">
      <g>
       <use xlink:href="#m44cf51101f" x="53.495" y="198.948" style="stroke: #000000; stroke-width: 0.8"/>
      </g>
     </g>
     <g id="text_14">
      <!-- 40 -->
      <g transform="translate(35.373125 202.526906) scale(0.1 -0.1)">
       <defs>
        <path id="ArialMT-34" d="M 2069 0 
L 2069 1097 
L 81 1097 
L 81 1613 
L 2172 4581 
L 2631 4581 
L 2631 1613 
L 3250 1613 
L 3250 1097 
L 2631 1097 
L 2631 0 
L 2069 0 
z
M 2069 1613 
L 2069 3678 
L 634 1613 
L 2069 1613 
z
" transform="scale(0.015625)"/>
       </defs>
       <use xlink:href="#ArialMT-34"/>
       <use xlink:href="#ArialMT-30" x="55.615234"/>
      </g>
     </g>
    </g>
    <g id="ytick_4">
     <g id="line2d_15">
      <g>
       <use xlink:href="#m44cf51101f" x="53.495" y="136.232" style="stroke: #000000; stroke-width: 0.8"/>
      </g>
     </g>
     <g id="text_15">
      <!-- 60 -->
      <g transform="translate(35.373125 139.810906) scale(0.1 -0.1)">
       <defs>
        <path id="ArialMT-36" d="M 3184 3459 
L 2625 3416 
Q 2550 3747 2413 3897 
Q 2184 4138 1850 4138 
Q 1581 4138 1378 3988 
Q 1113 3794 959 3422 
Q 806 3050 800 2363 
Q 1003 2672 1297 2822 
Q 1591 2972 1913 2972 
Q 2475 2972 2870 2558 
Q 3266 2144 3266 1488 
Q 3266 1056 3080 686 
Q 2894 316 2569 119 
Q 2244 -78 1831 -78 
Q 1128 -78 684 439 
Q 241 956 241 2144 
Q 241 3472 731 4075 
Q 1159 4600 1884 4600 
Q 2425 4600 2770 4297 
Q 3116 3994 3184 3459 
z
M 888 1484 
Q 888 1194 1011 928 
Q 1134 663 1356 523 
Q 1578 384 1822 384 
Q 2178 384 2434 671 
Q 2691 959 2691 1453 
Q 2691 1928 2437 2201 
Q 2184 2475 1800 2475 
Q 1419 2475 1153 2201 
Q 888 1928 888 1484 
z
" transform="scale(0.015625)"/>
       </defs>
       <use xlink:href="#ArialMT-36"/>
       <use xlink:href="#ArialMT-30" x="55.615234"/>
      </g>
     </g>
    </g>
    <g id="ytick_5">
     <g id="line2d_16">
      <g>
       <use xlink:href="#m44cf51101f" x="53.495" y="73.516" style="stroke: #000000; stroke-width: 0.8"/>
      </g>
     </g>
     <g id="text_16">
      <!-- 80 -->
      <g transform="translate(35.373125 77.094906) scale(0.1 -0.1)">
       <defs>
        <path id="ArialMT-38" d="M 1131 2484 
Q 781 2613 612 2850 
Q 444 3088 444 3419 
Q 444 3919 803 4259 
Q 1163 4600 1759 4600 
Q 2359 4600 2725 4251 
Q 3091 3903 3091 3403 
Q 3091 3084 2923 2848 
Q 2756 2613 2416 2484 
Q 2838 2347 3058 2040 
Q 3278 1734 3278 1309 
Q 3278 722 2862 322 
Q 2447 -78 1769 -78 
Q 1091 -78 675 323 
Q 259 725 259 1325 
Q 259 1772 486 2073 
Q 713 2375 1131 2484 
z
M 1019 3438 
Q 1019 3113 1228 2906 
Q 1438 2700 1772 2700 
Q 2097 2700 2305 2904 
Q 2513 3109 2513 3406 
Q 2513 3716 2298 3927 
Q 2084 4138 1766 4138 
Q 1444 4138 1231 3931 
Q 1019 3725 1019 3438 
z
M 838 1322 
Q 838 1081 952 856 
Q 1066 631 1291 507 
Q 1516 384 1775 384 
Q 2178 384 2440 643 
Q 2703 903 2703 1303 
Q 2703 1709 2433 1975 
Q 2163 2241 1756 2241 
Q 1359 2241 1098 1978 
Q 838 1716 838 1322 
z
" transform="scale(0.015625)"/>
       </defs>
       <use xlink:href="#ArialMT-38"/>
       <use xlink:href="#ArialMT-30" x="55.615234"/>
      </g>
     </g>
    </g>
    <g id="ytick_6">
     <g id="line2d_17">
      <g>
       <use xlink:href="#m44cf51101f" x="53.495" y="10.8" style="stroke: #000000; stroke-width: 0.8"/>
      </g>
     </g>
     <g id="text_17">
      <!-- 100 -->
      <g transform="translate(29.812187 14.378906) scale(0.1 -0.1)">
       <defs>
        <path id="ArialMT-31" d="M 2384 0 
L 1822 0 
L 1822 3584 
Q 1619 3391 1289 3197 
Q 959 3003 697 2906 
L 697 3450 
Q 1169 3672 1522 3987 
Q 1875 4303 2022 4600 
L 2384 4600 
L 2384 0 
z
" transform="scale(0.015625)"/>
       </defs>
       <use xlink:href="#ArialMT-31"/>
       <use xlink:href="#ArialMT-30" x="55.615234"/>
       <use xlink:href="#ArialMT-30" x="111.230469"/>
      </g>
     </g>
    </g>
    <g id="text_18">
     <!-- GO retrieval percentage -->
     <g transform="translate(22.444687 252.95875) rotate(-90) scale(0.16 -0.16)">
      <defs>
       <path id="ArialMT-76" d="M 1344 0 
L 81 3319 
L 675 3319 
L 1388 1331 
Q 1503 1009 1600 663 
Q 1675 925 1809 1294 
L 2547 3319 
L 3125 3319 
L 1869 0 
L 1344 0 
z
" transform="scale(0.015625)"/>
       <path id="ArialMT-70" d="M 422 -1272 
L 422 3319 
L 934 3319 
L 934 2888 
Q 1116 3141 1344 3267 
Q 1572 3394 1897 3394 
Q 2322 3394 2647 3175 
Q 2972 2956 3137 2557 
Q 3303 2159 3303 1684 
Q 3303 1175 3120 767 
Q 2938 359 2589 142 
Q 2241 -75 1856 -75 
Q 1575 -75 1351 44 
Q 1128 163 984 344 
L 984 -1272 
L 422 -1272 
z
M 931 1641 
Q 931 1000 1190 694 
Q 1450 388 1819 388 
Q 2194 388 2461 705 
Q 2728 1022 2728 1688 
Q 2728 2322 2467 2637 
Q 2206 2953 1844 2953 
Q 1484 2953 1207 2617 
Q 931 2281 931 1641 
z
" transform="scale(0.015625)"/>
      </defs>
      <use xlink:href="#ArialMT-47"/>
      <use xlink:href="#ArialMT-4f" x="77.783203"/>
      <use xlink:href="#ArialMT-20" x="155.566406"/>
      <use xlink:href="#ArialMT-72" x="183.349609"/>
      <use xlink:href="#ArialMT-65" x="216.650391"/>
      <use xlink:href="#ArialMT-74" x="272.265625"/>
      <use xlink:href="#ArialMT-72" x="300.048828"/>
      <use xlink:href="#ArialMT-69" x="333.349609"/>
      <use xlink:href="#ArialMT-65" x="355.566406"/>
      <use xlink:href="#ArialMT-76" x="411.181641"/>
      <use xlink:href="#ArialMT-61" x="461.181641"/>
      <use xlink:href="#ArialMT-6c" x="516.796875"/>
      <use xlink:href="#ArialMT-20" x="539.013672"/>
      <use xlink:href="#ArialMT-70" x="566.796875"/>
      <use xlink:href="#ArialMT-65" x="622.412109"/>
      <use xlink:href="#ArialMT-72" x="678.027344"/>
      <use xlink:href="#ArialMT-63" x="711.328125"/>
      <use xlink:href="#ArialMT-65" x="761.328125"/>
      <use xlink:href="#ArialMT-6e" x="816.943359"/>
      <use xlink:href="#ArialMT-74" x="872.558594"/>
      <use xlink:href="#ArialMT-61" x="900.341797"/>
      <use xlink:href="#ArialMT-67" x="955.957031"/>
      <use xlink:href="#ArialMT-65" x="1011.572266"/>
     </g>
    </g>
   </g>
   <g id="patch_3">
    <path d="M 84.954889 25.847957 
L 111.920509 25.847957 
L 111.920509 19.294814 
L 84.954889 19.294814 
L 84.954889 25.847957 
z
" clip-path="url(#p229d688bad)" style="fill: #add8e6; stroke: #000000; stroke-linejoin: miter"/>
   </g>
   <g id="line2d_18">
    <path d="M 98.437699 25.847957 
L 98.437699 35.556316 
" clip-path="url(#p229d688bad)" style="fill: none; stroke: #000000; stroke-linecap: square"/>
   </g>
   <g id="line2d_19">
    <path d="M 98.437699 19.294814 
L 98.437699 16.139598 
" clip-path="url(#p229d688bad)" style="fill: none; stroke: #000000; stroke-linecap: square"/>
   </g>
   <g id="line2d_20">
    <path d="M 91.696294 35.556316 
L 105.179104 35.556316 
" clip-path="url(#p229d688bad)" style="fill: none; stroke: #000000; stroke-linecap: square"/>
   </g>
   <g id="line2d_21">
    <path d="M 91.696294 16.139598 
L 105.179104 16.139598 
" clip-path="url(#p229d688bad)" style="fill: none; stroke: #000000; stroke-linecap: square"/>
   </g>
   <g id="line2d_22">
    <defs>
     <path id="ma38a95e53e" d="M 0 1 
C 0.265203 1 0.51958 0.894634 0.707107 0.707107 
C 0.894634 0.51958 1 0.265203 1 0 
C 1 -0.265203 0.894634 -0.51958 0.707107 -0.707107 
C 0.51958 -0.894634 0.265203 -1 0 -1 
C -0.265203 -1 -0.51958 -0.894634 -0.707107 -0.707107 
C -0.894634 -0.51958 -1 -0.265203 -1 0 
C -1 0.265203 -0.894634 0.51958 -0.707107 0.707107 
C -0.51958 0.894634 -0.265203 1 0 1 
z
" style="stroke: #000000"/>
    </defs>
    <g clip-path="url(#p229d688bad)">
     <use xlink:href="#ma38a95e53e" x="98.437699" y="35.799025" style="fill-opacity: 0; stroke: #000000"/>
     <use xlink:href="#ma38a95e53e" x="98.437699" y="35.799025" style="fill-opacity: 0; stroke: #000000"/>
    </g>
   </g>
   <g id="patch_4">
    <path d="M 111.920509 24.7927 
L 138.886128 24.7927 
L 138.886128 15.105446 
L 111.920509 15.105446 
L 111.920509 24.7927 
z
" clip-path="url(#p229d688bad)" style="fill: #008000; stroke: #000000; stroke-linejoin: miter"/>
   </g>
   <g id="line2d_23">
    <path d="M 125.403319 24.7927 
L 125.403319 37.709039 
" clip-path="url(#p229d688bad)" style="fill: none; stroke: #000000; stroke-linecap: square"/>
   </g>
   <g id="line2d_24">
    <path d="M 125.403319 15.105446 
L 125.403319 12.593936 
" clip-path="url(#p229d688bad)" style="fill: none; stroke: #000000; stroke-linecap: square"/>
   </g>
   <g id="line2d_25">
    <path d="M 118.661914 37.709039 
L 132.144723 37.709039 
" clip-path="url(#p229d688bad)" style="fill: none; stroke: #000000; stroke-linecap: square"/>
   </g>
   <g id="line2d_26">
    <path d="M 118.661914 12.593936 
L 132.144723 12.593936 
" clip-path="url(#p229d688bad)" style="fill: none; stroke: #000000; stroke-linecap: square"/>
   </g>
   <g id="line2d_27"/>
   <g id="patch_5">
    <path d="M 174.840288 31.126877 
L 201.805907 31.126877 
L 201.805907 20.751068 
L 174.840288 20.751068 
L 174.840288 31.126877 
z
" clip-path="url(#p229d688bad)" style="fill: #add8e6; stroke: #000000; stroke-linejoin: miter"/>
   </g>
   <g id="line2d_28">
    <path d="M 188.323097 31.126877 
L 188.323097 41.381331 
" clip-path="url(#p229d688bad)" style="fill: none; stroke: #000000; stroke-linecap: square"/>
   </g>
   <g id="line2d_29">
    <path d="M 188.323097 20.751068 
L 188.323097 17.353142 
" clip-path="url(#p229d688bad)" style="fill: none; stroke: #000000; stroke-linecap: square"/>
   </g>
   <g id="line2d_30">
    <path d="M 181.581692 41.381331 
L 195.064502 41.381331 
" clip-path="url(#p229d688bad)" style="fill: none; stroke: #000000; stroke-linecap: square"/>
   </g>
   <g id="line2d_31">
    <path d="M 181.581692 17.353142 
L 195.064502 17.353142 
" clip-path="url(#p229d688bad)" style="fill: none; stroke: #000000; stroke-linecap: square"/>
   </g>
   <g id="line2d_32"/>
   <g id="patch_6">
    <path d="M 201.805907 23.716339 
L 228.771527 23.716339 
L 228.771527 15.105446 
L 201.805907 15.105446 
L 201.805907 23.716339 
z
" clip-path="url(#p229d688bad)" style="fill: #008000; stroke: #000000; stroke-linejoin: miter"/>
   </g>
   <g id="line2d_33">
    <path d="M 215.288717 23.716339 
L 215.288717 36.27389 
" clip-path="url(#p229d688bad)" style="fill: none; stroke: #000000; stroke-linecap: square"/>
   </g>
   <g id="line2d_34">
    <path d="M 215.288717 15.105446 
L 215.288717 13.670297 
" clip-path="url(#p229d688bad)" style="fill: none; stroke: #000000; stroke-linecap: square"/>
   </g>
   <g id="line2d_35">
    <path d="M 208.547312 36.27389 
L 222.030122 36.27389 
" clip-path="url(#p229d688bad)" style="fill: none; stroke: #000000; stroke-linecap: square"/>
   </g>
   <g id="line2d_36">
    <path d="M 208.547312 13.670297 
L 222.030122 13.670297 
" clip-path="url(#p229d688bad)" style="fill: none; stroke: #000000; stroke-linecap: square"/>
   </g>
   <g id="line2d_37"/>
   <g id="patch_7">
    <path d="M 264.725686 27.061502 
L 291.691305 27.061502 
L 291.691305 20.751068 
L 264.725686 20.751068 
L 264.725686 27.061502 
z
" clip-path="url(#p229d688bad)" style="fill: #add8e6; stroke: #000000; stroke-linejoin: miter"/>
   </g>
   <g id="line2d_38">
    <path d="M 278.208496 27.061502 
L 278.208496 35.070898 
" clip-path="url(#p229d688bad)" style="fill: none; stroke: #000000; stroke-linecap: square"/>
   </g>
   <g id="line2d_39">
    <path d="M 278.208496 20.751068 
L 278.208496 15.411471 
" clip-path="url(#p229d688bad)" style="fill: none; stroke: #000000; stroke-linecap: square"/>
   </g>
   <g id="line2d_40">
    <path d="M 271.467091 35.070898 
L 284.9499 35.070898 
" clip-path="url(#p229d688bad)" style="fill: none; stroke: #000000; stroke-linecap: square"/>
   </g>
   <g id="line2d_41">
    <path d="M 271.467091 15.411471 
L 284.9499 15.411471 
" clip-path="url(#p229d688bad)" style="fill: none; stroke: #000000; stroke-linecap: square"/>
   </g>
   <g id="line2d_42"/>
   <g id="patch_8">
    <path d="M 291.691305 32.596322 
L 318.656925 32.596322 
L 318.656925 17.706653 
L 291.691305 17.706653 
L 291.691305 32.596322 
z
" clip-path="url(#p229d688bad)" style="fill: #008000; stroke: #000000; stroke-linejoin: miter"/>
   </g>
   <g id="line2d_43">
    <path d="M 305.174115 32.596322 
L 305.174115 54.572037 
" clip-path="url(#p229d688bad)" style="fill: none; stroke: #000000; stroke-linecap: square"/>
   </g>
   <g id="line2d_44">
    <path d="M 305.174115 17.706653 
L 305.174115 12.952723 
" clip-path="url(#p229d688bad)" style="fill: none; stroke: #000000; stroke-linecap: square"/>
   </g>
   <g id="line2d_45">
    <path d="M 298.43271 54.572037 
L 311.91552 54.572037 
" clip-path="url(#p229d688bad)" style="fill: none; stroke: #000000; stroke-linecap: square"/>
   </g>
   <g id="line2d_46">
    <path d="M 298.43271 12.952723 
L 311.91552 12.952723 
" clip-path="url(#p229d688bad)" style="fill: none; stroke: #000000; stroke-linecap: square"/>
   </g>
   <g id="line2d_47"/>
   <g id="patch_9">
    <path d="M 354.611084 34.828189 
L 381.576704 34.828189 
L 381.576704 23.178158 
L 354.611084 23.178158 
L 354.611084 34.828189 
z
" clip-path="url(#p229d688bad)" style="fill: #add8e6; stroke: #000000; stroke-linejoin: miter"/>
   </g>
   <g id="line2d_48">
    <path d="M 368.093894 34.828189 
L 368.093894 40.653204 
" clip-path="url(#p229d688bad)" style="fill: none; stroke: #000000; stroke-linecap: square"/>
   </g>
   <g id="line2d_49">
    <path d="M 368.093894 23.178158 
L 368.093894 18.809396 
" clip-path="url(#p229d688bad)" style="fill: none; stroke: #000000; stroke-linecap: square"/>
   </g>
   <g id="line2d_50">
    <path d="M 361.352489 40.653204 
L 374.835299 40.653204 
" clip-path="url(#p229d688bad)" style="fill: none; stroke: #000000; stroke-linecap: square"/>
   </g>
   <g id="line2d_51">
    <path d="M 361.352489 18.809396 
L 374.835299 18.809396 
" clip-path="url(#p229d688bad)" style="fill: none; stroke: #000000; stroke-linecap: square"/>
   </g>
   <g id="line2d_52"/>
   <g id="patch_10">
    <path d="M 381.576704 24.433913 
L 408.542323 24.433913 
L 408.542323 15.823021 
L 381.576704 15.823021 
L 381.576704 24.433913 
z
" clip-path="url(#p229d688bad)" style="fill: #008000; stroke: #000000; stroke-linejoin: miter"/>
   </g>
   <g id="line2d_53">
    <path d="M 395.059513 24.433913 
L 395.059513 36.991465 
" clip-path="url(#p229d688bad)" style="fill: none; stroke: #000000; stroke-linecap: square"/>
   </g>
   <g id="line2d_54">
    <path d="M 395.059513 15.823021 
L 395.059513 12.952723 
" clip-path="url(#p229d688bad)" style="fill: none; stroke: #000000; stroke-linecap: square"/>
   </g>
   <g id="line2d_55">
    <path d="M 388.318108 36.991465 
L 401.800918 36.991465 
" clip-path="url(#p229d688bad)" style="fill: none; stroke: #000000; stroke-linecap: square"/>
   </g>
   <g id="line2d_56">
    <path d="M 388.318108 12.952723 
L 401.800918 12.952723 
" clip-path="url(#p229d688bad)" style="fill: none; stroke: #000000; stroke-linecap: square"/>
   </g>
   <g id="line2d_57">
    <g clip-path="url(#p229d688bad)">
     <use xlink:href="#ma38a95e53e" x="395.059513" y="38.067826" style="fill-opacity: 0; stroke: #000000"/>
     <use xlink:href="#ma38a95e53e" x="395.059513" y="37.709039" style="fill-opacity: 0; stroke: #000000"/>
    </g>
   </g>
   <g id="patch_11">
    <path d="M 444.496482 33.796676 
L 471.462102 33.796676 
L 471.462102 23.906285 
L 444.496482 23.906285 
L 444.496482 33.796676 
z
" clip-path="url(#p229d688bad)" style="fill: #add8e6; stroke: #000000; stroke-linejoin: miter"/>
   </g>
   <g id="line2d_58">
    <path d="M 457.979292 33.796676 
L 457.979292 41.138622 
" clip-path="url(#p229d688bad)" style="fill: none; stroke: #000000; stroke-linecap: square"/>
   </g>
   <g id="line2d_59">
    <path d="M 457.979292 23.906285 
L 457.979292 20.022941 
" clip-path="url(#p229d688bad)" style="fill: none; stroke: #000000; stroke-linecap: square"/>
   </g>
   <g id="line2d_60">
    <path d="M 451.237887 41.138622 
L 464.720697 41.138622 
" clip-path="url(#p229d688bad)" style="fill: none; stroke: #000000; stroke-linecap: square"/>
   </g>
   <g id="line2d_61">
    <path d="M 451.237887 20.022941 
L 464.720697 20.022941 
" clip-path="url(#p229d688bad)" style="fill: none; stroke: #000000; stroke-linecap: square"/>
   </g>
   <g id="line2d_62"/>
   <g id="patch_12">
    <path d="M 471.462102 24.433913 
L 498.427721 24.433913 
L 498.427721 15.105446 
L 471.462102 15.105446 
L 471.462102 24.433913 
z
" clip-path="url(#p229d688bad)" style="fill: #008000; stroke: #000000; stroke-linejoin: miter"/>
   </g>
   <g id="line2d_63">
    <path d="M 484.944912 24.433913 
L 484.944912 38.067826 
" clip-path="url(#p229d688bad)" style="fill: none; stroke: #000000; stroke-linecap: square"/>
   </g>
   <g id="line2d_64">
    <path d="M 484.944912 15.105446 
L 484.944912 12.952723 
" clip-path="url(#p229d688bad)" style="fill: none; stroke: #000000; stroke-linecap: square"/>
   </g>
   <g id="line2d_65">
    <path d="M 478.203507 38.067826 
L 491.686316 38.067826 
" clip-path="url(#p229d688bad)" style="fill: none; stroke: #000000; stroke-linecap: square"/>
   </g>
   <g id="line2d_66">
    <path d="M 478.203507 12.952723 
L 491.686316 12.952723 
" clip-path="url(#p229d688bad)" style="fill: none; stroke: #000000; stroke-linecap: square"/>
   </g>
   <g id="line2d_67">
    <g clip-path="url(#p229d688bad)">
     <use xlink:href="#ma38a95e53e" x="484.944912" y="39.502975" style="fill-opacity: 0; stroke: #000000"/>
     <use xlink:href="#ma38a95e53e" x="484.944912" y="39.144188" style="fill-opacity: 0; stroke: #000000"/>
    </g>
   </g>
   <g id="patch_13">
    <path d="M 534.381881 33.129226 
L 561.3475 33.129226 
L 561.3475 23.663576 
L 534.381881 23.663576 
L 534.381881 33.129226 
z
" clip-path="url(#p229d688bad)" style="fill: #add8e6; stroke: #000000; stroke-linejoin: miter"/>
   </g>
   <g id="line2d_68">
    <path d="M 547.86469 33.129226 
L 547.86469 43.565712 
" clip-path="url(#p229d688bad)" style="fill: none; stroke: #000000; stroke-linecap: square"/>
   </g>
   <g id="line2d_69">
    <path d="M 547.86469 23.663576 
L 547.86469 18.081269 
" clip-path="url(#p229d688bad)" style="fill: none; stroke: #000000; stroke-linecap: square"/>
   </g>
   <g id="line2d_70">
    <path d="M 541.123285 43.565712 
L 554.606095 43.565712 
" clip-path="url(#p229d688bad)" style="fill: none; stroke: #000000; stroke-linecap: square"/>
   </g>
   <g id="line2d_71">
    <path d="M 541.123285 18.081269 
L 554.606095 18.081269 
" clip-path="url(#p229d688bad)" style="fill: none; stroke: #000000; stroke-linecap: square"/>
   </g>
   <g id="line2d_72"/>
   <g id="patch_14">
    <path d="M 561.3475 26.227849 
L 588.313119 26.227849 
L 588.313119 15.464233 
L 561.3475 15.464233 
L 561.3475 26.227849 
z
" clip-path="url(#p229d688bad)" style="fill: #008000; stroke: #000000; stroke-linejoin: miter"/>
   </g>
   <g id="line2d_73">
    <path d="M 574.83031 26.227849 
L 574.83031 40.938124 
" clip-path="url(#p229d688bad)" style="fill: none; stroke: #000000; stroke-linecap: square"/>
   </g>
   <g id="line2d_74">
    <path d="M 574.83031 15.464233 
L 574.83031 12.593936 
" clip-path="url(#p229d688bad)" style="fill: none; stroke: #000000; stroke-linecap: square"/>
   </g>
   <g id="line2d_75">
    <path d="M 568.088905 40.938124 
L 581.571715 40.938124 
" clip-path="url(#p229d688bad)" style="fill: none; stroke: #000000; stroke-linecap: square"/>
   </g>
   <g id="line2d_76">
    <path d="M 568.088905 12.593936 
L 581.571715 12.593936 
" clip-path="url(#p229d688bad)" style="fill: none; stroke: #000000; stroke-linecap: square"/>
   </g>
   <g id="line2d_77">
    <g clip-path="url(#p229d688bad)">
     <use xlink:href="#ma38a95e53e" x="574.83031" y="43.449634" style="fill-opacity: 0; stroke: #000000"/>
     <use xlink:href="#ma38a95e53e" x="574.83031" y="43.090847" style="fill-opacity: 0; stroke: #000000"/>
     <use xlink:href="#ma38a95e53e" x="574.83031" y="42.373272" style="fill-opacity: 0; stroke: #000000"/>
    </g>
   </g>
   <g id="patch_15">
    <path d="M 624.267279 30.095364 
L 651.232898 30.095364 
L 651.232898 21.964613 
L 624.267279 21.964613 
L 624.267279 30.095364 
z
" clip-path="url(#p229d688bad)" style="fill: #add8e6; stroke: #000000; stroke-linejoin: miter"/>
   </g>
   <g id="line2d_78">
    <path d="M 637.750088 30.095364 
L 637.750088 41.866749 
" clip-path="url(#p229d688bad)" style="fill: none; stroke: #000000; stroke-linecap: square"/>
   </g>
   <g id="line2d_79">
    <path d="M 637.750088 21.964613 
L 637.750088 17.353142 
" clip-path="url(#p229d688bad)" style="fill: none; stroke: #000000; stroke-linecap: square"/>
   </g>
   <g id="line2d_80">
    <path d="M 631.008684 41.866749 
L 644.491493 41.866749 
" clip-path="url(#p229d688bad)" style="fill: none; stroke: #000000; stroke-linecap: square"/>
   </g>
   <g id="line2d_81">
    <path d="M 631.008684 17.353142 
L 644.491493 17.353142 
" clip-path="url(#p229d688bad)" style="fill: none; stroke: #000000; stroke-linecap: square"/>
   </g>
   <g id="line2d_82"/>
   <g id="patch_16">
    <path d="M 651.232898 34.838741 
L 678.198518 34.838741 
L 678.198518 21.563616 
L 651.232898 21.563616 
L 651.232898 34.838741 
z
" clip-path="url(#p229d688bad)" style="fill: #008000; stroke: #000000; stroke-linejoin: miter"/>
   </g>
   <g id="line2d_83">
    <path d="M 664.715708 34.838741 
L 664.715708 48.831442 
" clip-path="url(#p229d688bad)" style="fill: none; stroke: #000000; stroke-linecap: square"/>
   </g>
   <g id="line2d_84">
    <path d="M 664.715708 21.563616 
L 664.715708 16.540595 
" clip-path="url(#p229d688bad)" style="fill: none; stroke: #000000; stroke-linecap: square"/>
   </g>
   <g id="line2d_85">
    <path d="M 657.974303 48.831442 
L 671.457113 48.831442 
" clip-path="url(#p229d688bad)" style="fill: none; stroke: #000000; stroke-linecap: square"/>
   </g>
   <g id="line2d_86">
    <path d="M 657.974303 16.540595 
L 671.457113 16.540595 
" clip-path="url(#p229d688bad)" style="fill: none; stroke: #000000; stroke-linecap: square"/>
   </g>
   <g id="line2d_87"/>
   <g id="patch_17">
    <path d="M 714.152677 41.62404 
L 741.118296 41.62404 
L 741.118296 32.643808 
L 714.152677 32.643808 
L 714.152677 41.62404 
z
" clip-path="url(#p229d688bad)" style="fill: #add8e6; stroke: #000000; stroke-linejoin: miter"/>
   </g>
   <g id="line2d_88">
    <path d="M 727.635487 41.62404 
L 727.635487 54.973034 
" clip-path="url(#p229d688bad)" style="fill: none; stroke: #000000; stroke-linecap: square"/>
   </g>
   <g id="line2d_89">
    <path d="M 727.635487 32.643808 
L 727.635487 27.061502 
" clip-path="url(#p229d688bad)" style="fill: none; stroke: #000000; stroke-linecap: square"/>
   </g>
   <g id="line2d_90">
    <path d="M 720.894082 54.973034 
L 734.376892 54.973034 
" clip-path="url(#p229d688bad)" style="fill: none; stroke: #000000; stroke-linecap: square"/>
   </g>
   <g id="line2d_91">
    <path d="M 720.894082 27.061502 
L 734.376892 27.061502 
" clip-path="url(#p229d688bad)" style="fill: none; stroke: #000000; stroke-linecap: square"/>
   </g>
   <g id="line2d_92">
    <g clip-path="url(#p229d688bad)">
     <use xlink:href="#ma38a95e53e" x="727.635487" y="56.429288" style="fill-opacity: 0; stroke: #000000"/>
     <use xlink:href="#ma38a95e53e" x="727.635487" y="56.914706" style="fill-opacity: 0; stroke: #000000"/>
     <use xlink:href="#ma38a95e53e" x="727.635487" y="56.186579" style="fill-opacity: 0; stroke: #000000"/>
     <use xlink:href="#ma38a95e53e" x="727.635487" y="55.215743" style="fill-opacity: 0; stroke: #000000"/>
     <use xlink:href="#ma38a95e53e" x="727.635487" y="55.701161" style="fill-opacity: 0; stroke: #000000"/>
     <use xlink:href="#ma38a95e53e" x="727.635487" y="55.215743" style="fill-opacity: 0; stroke: #000000"/>
     <use xlink:href="#ma38a95e53e" x="727.635487" y="55.701161" style="fill-opacity: 0; stroke: #000000"/>
    </g>
   </g>
   <g id="patch_18">
    <path d="M 741.118296 29.456934 
L 768.083916 29.456934 
L 768.083916 18.693318 
L 741.118296 18.693318 
L 741.118296 29.456934 
z
" clip-path="url(#p229d688bad)" style="fill: #008000; stroke: #000000; stroke-linejoin: miter"/>
   </g>
   <g id="line2d_93">
    <path d="M 754.601106 29.456934 
L 754.601106 45.24357 
" clip-path="url(#p229d688bad)" style="fill: none; stroke: #000000; stroke-linecap: square"/>
   </g>
   <g id="line2d_94">
    <path d="M 754.601106 18.693318 
L 754.601106 14.029085 
" clip-path="url(#p229d688bad)" style="fill: none; stroke: #000000; stroke-linecap: square"/>
   </g>
   <g id="line2d_95">
    <path d="M 747.859701 45.24357 
L 761.342511 45.24357 
" clip-path="url(#p229d688bad)" style="fill: none; stroke: #000000; stroke-linecap: square"/>
   </g>
   <g id="line2d_96">
    <path d="M 747.859701 14.029085 
L 761.342511 14.029085 
" clip-path="url(#p229d688bad)" style="fill: none; stroke: #000000; stroke-linecap: square"/>
   </g>
   <g id="line2d_97">
    <g clip-path="url(#p229d688bad)">
     <use xlink:href="#ma38a95e53e" x="754.601106" y="45.961144" style="fill-opacity: 0; stroke: #000000"/>
     <use xlink:href="#ma38a95e53e" x="754.601106" y="46.678719" style="fill-opacity: 0; stroke: #000000"/>
     <use xlink:href="#ma38a95e53e" x="754.601106" y="47.75508" style="fill-opacity: 0; stroke: #000000"/>
     <use xlink:href="#ma38a95e53e" x="754.601106" y="45.961144" style="fill-opacity: 0; stroke: #000000"/>
     <use xlink:href="#ma38a95e53e" x="754.601106" y="47.037506" style="fill-opacity: 0; stroke: #000000"/>
     <use xlink:href="#ma38a95e53e" x="754.601106" y="45.961144" style="fill-opacity: 0; stroke: #000000"/>
    </g>
   </g>
   <g id="patch_19">
    <path d="M 804.038075 42.534199 
L 831.003695 42.534199 
L 831.003695 32.401099 
L 804.038075 32.401099 
L 804.038075 42.534199 
z
" clip-path="url(#p229d688bad)" style="fill: #add8e6; stroke: #000000; stroke-linejoin: miter"/>
   </g>
   <g id="line2d_98">
    <path d="M 817.520885 42.534199 
L 817.520885 57.400124 
" clip-path="url(#p229d688bad)" style="fill: none; stroke: #000000; stroke-linecap: square"/>
   </g>
   <g id="line2d_99">
    <path d="M 817.520885 32.401099 
L 817.520885 27.54692 
" clip-path="url(#p229d688bad)" style="fill: none; stroke: #000000; stroke-linecap: square"/>
   </g>
   <g id="line2d_100">
    <path d="M 810.77948 57.400124 
L 824.26229 57.400124 
" clip-path="url(#p229d688bad)" style="fill: none; stroke: #000000; stroke-linecap: square"/>
   </g>
   <g id="line2d_101">
    <path d="M 810.77948 27.54692 
L 824.26229 27.54692 
" clip-path="url(#p229d688bad)" style="fill: none; stroke: #000000; stroke-linecap: square"/>
   </g>
   <g id="line2d_102">
    <g clip-path="url(#p229d688bad)">
     <use xlink:href="#ma38a95e53e" x="817.520885" y="60.555341" style="fill-opacity: 0; stroke: #000000"/>
     <use xlink:href="#ma38a95e53e" x="817.520885" y="58.128251" style="fill-opacity: 0; stroke: #000000"/>
     <use xlink:href="#ma38a95e53e" x="817.520885" y="57.885542" style="fill-opacity: 0; stroke: #000000"/>
     <use xlink:href="#ma38a95e53e" x="817.520885" y="57.885542" style="fill-opacity: 0; stroke: #000000"/>
    </g>
   </g>
   <g id="patch_20">
    <path d="M 831.003695 33.76238 
L 857.969314 33.76238 
L 857.969314 20.128467 
L 831.003695 20.128467 
L 831.003695 33.76238 
z
" clip-path="url(#p229d688bad)" style="fill: #008000; stroke: #000000; stroke-linejoin: miter"/>
   </g>
   <g id="line2d_103">
    <path d="M 844.486504 33.76238 
L 844.486504 52.419314 
" clip-path="url(#p229d688bad)" style="fill: none; stroke: #000000; stroke-linecap: square"/>
   </g>
   <g id="line2d_104">
    <path d="M 844.486504 20.128467 
L 844.486504 14.746659 
" clip-path="url(#p229d688bad)" style="fill: none; stroke: #000000; stroke-linecap: square"/>
   </g>
   <g id="line2d_105">
    <path d="M 837.7451 52.419314 
L 851.227909 52.419314 
" clip-path="url(#p229d688bad)" style="fill: none; stroke: #000000; stroke-linecap: square"/>
   </g>
   <g id="line2d_106">
    <path d="M 837.7451 14.746659 
L 851.227909 14.746659 
" clip-path="url(#p229d688bad)" style="fill: none; stroke: #000000; stroke-linecap: square"/>
   </g>
   <g id="line2d_107"/>
   <g id="patch_21">
    <path d="M 893.923473 42.594876 
L 920.889093 42.594876 
L 920.889093 33.371935 
L 893.923473 33.371935 
L 893.923473 42.594876 
z
" clip-path="url(#p229d688bad)" style="fill: #add8e6; stroke: #000000; stroke-linejoin: miter"/>
   </g>
   <g id="line2d_108">
    <path d="M 907.406283 42.594876 
L 907.406283 52.060526 
" clip-path="url(#p229d688bad)" style="fill: none; stroke: #000000; stroke-linecap: square"/>
   </g>
   <g id="line2d_109">
    <path d="M 907.406283 33.371935 
L 907.406283 26.333375 
" clip-path="url(#p229d688bad)" style="fill: none; stroke: #000000; stroke-linecap: square"/>
   </g>
   <g id="line2d_110">
    <path d="M 900.664878 52.060526 
L 914.147688 52.060526 
" clip-path="url(#p229d688bad)" style="fill: none; stroke: #000000; stroke-linecap: square"/>
   </g>
   <g id="line2d_111">
    <path d="M 900.664878 26.333375 
L 914.147688 26.333375 
" clip-path="url(#p229d688bad)" style="fill: none; stroke: #000000; stroke-linecap: square"/>
   </g>
   <g id="line2d_112"/>
   <g id="patch_22">
    <path d="M 920.889093 37.709039 
L 947.854712 37.709039 
L 947.854712 24.075126 
L 920.889093 24.075126 
L 920.889093 37.709039 
z
" clip-path="url(#p229d688bad)" style="fill: #008000; stroke: #000000; stroke-linejoin: miter"/>
   </g>
   <g id="line2d_113">
    <path d="M 934.371903 37.709039 
L 934.371903 48.113867 
" clip-path="url(#p229d688bad)" style="fill: none; stroke: #000000; stroke-linecap: square"/>
   </g>
   <g id="line2d_114">
    <path d="M 934.371903 24.075126 
L 934.371903 17.975744 
" clip-path="url(#p229d688bad)" style="fill: none; stroke: #000000; stroke-linecap: square"/>
   </g>
   <g id="line2d_115">
    <path d="M 927.630498 48.113867 
L 941.113308 48.113867 
" clip-path="url(#p229d688bad)" style="fill: none; stroke: #000000; stroke-linecap: square"/>
   </g>
   <g id="line2d_116">
    <path d="M 927.630498 17.975744 
L 941.113308 17.975744 
" clip-path="url(#p229d688bad)" style="fill: none; stroke: #000000; stroke-linecap: square"/>
   </g>
   <g id="line2d_117"/>
   <g id="patch_23">
    <path d="M 983.808872 51.029013 
L 1010.774491 51.029013 
L 1010.774491 33.857353 
L 983.808872 33.857353 
L 983.808872 51.029013 
z
" clip-path="url(#p229d688bad)" style="fill: #add8e6; stroke: #000000; stroke-linejoin: miter"/>
   </g>
   <g id="line2d_118">
    <path d="M 997.291681 51.029013 
L 997.291681 75.603297 
" clip-path="url(#p229d688bad)" style="fill: none; stroke: #000000; stroke-linecap: square"/>
   </g>
   <g id="line2d_119">
    <path d="M 997.291681 33.857353 
L 997.291681 20.26565 
" clip-path="url(#p229d688bad)" style="fill: none; stroke: #000000; stroke-linecap: square"/>
   </g>
   <g id="line2d_120">
    <path d="M 990.550277 75.603297 
L 1004.033086 75.603297 
" clip-path="url(#p229d688bad)" style="fill: none; stroke: #000000; stroke-linecap: square"/>
   </g>
   <g id="line2d_121">
    <path d="M 990.550277 20.26565 
L 1004.033086 20.26565 
" clip-path="url(#p229d688bad)" style="fill: none; stroke: #000000; stroke-linecap: square"/>
   </g>
   <g id="line2d_122">
    <g clip-path="url(#p229d688bad)">
     <use xlink:href="#ma38a95e53e" x="997.291681" y="78.515805" style="fill-opacity: 0; stroke: #000000"/>
    </g>
   </g>
   <g id="patch_24">
    <path d="M 1010.774491 101.483461 
L 1037.740111 101.483461 
L 1037.740111 56.096882 
L 1010.774491 56.096882 
L 1010.774491 101.483461 
z
" clip-path="url(#p229d688bad)" style="fill: #008000; stroke: #000000; stroke-linejoin: miter"/>
   </g>
   <g id="line2d_123">
    <path d="M 1024.257301 101.483461 
L 1024.257301 150.368215 
" clip-path="url(#p229d688bad)" style="fill: none; stroke: #000000; stroke-linecap: square"/>
   </g>
   <g id="line2d_124">
    <path d="M 1024.257301 56.096882 
L 1024.257301 26.227849 
" clip-path="url(#p229d688bad)" style="fill: none; stroke: #000000; stroke-linecap: square"/>
   </g>
   <g id="line2d_125">
    <path d="M 1017.515896 150.368215 
L 1030.998706 150.368215 
" clip-path="url(#p229d688bad)" style="fill: none; stroke: #000000; stroke-linecap: square"/>
   </g>
   <g id="line2d_126">
    <path d="M 1017.515896 26.227849 
L 1030.998706 26.227849 
" clip-path="url(#p229d688bad)" style="fill: none; stroke: #000000; stroke-linecap: square"/>
   </g>
   <g id="line2d_127"/>
   <g id="line2d_128">
    <path d="M 84.954889 22.207322 
L 111.920509 22.207322 
" clip-path="url(#p229d688bad)" style="fill: none; stroke: #000000; stroke-linecap: square"/>
   </g>
   <g id="line2d_129">
    <path d="M 111.920509 18.334531 
L 138.886128 18.334531 
" clip-path="url(#p229d688bad)" style="fill: none; stroke: #000000; stroke-linecap: square"/>
   </g>
   <g id="line2d_130">
    <path d="M 174.840288 25.362539 
L 201.805907 25.362539 
" clip-path="url(#p229d688bad)" style="fill: none; stroke: #000000; stroke-linecap: square"/>
   </g>
   <g id="line2d_131">
    <path d="M 201.805907 19.410892 
L 228.771527 19.410892 
" clip-path="url(#p229d688bad)" style="fill: none; stroke: #000000; stroke-linecap: square"/>
   </g>
   <g id="line2d_132">
    <path d="M 264.725686 23.178158 
L 291.691305 23.178158 
" clip-path="url(#p229d688bad)" style="fill: none; stroke: #000000; stroke-linecap: square"/>
   </g>
   <g id="line2d_133">
    <path d="M 291.691305 21.743009 
L 318.656925 21.743009 
" clip-path="url(#p229d688bad)" style="fill: none; stroke: #000000; stroke-linecap: square"/>
   </g>
   <g id="line2d_134">
    <path d="M 354.611084 27.061502 
L 381.576704 27.061502 
" clip-path="url(#p229d688bad)" style="fill: none; stroke: #000000; stroke-linecap: square"/>
   </g>
   <g id="line2d_135">
    <path d="M 381.576704 18.334531 
L 408.542323 18.334531 
" clip-path="url(#p229d688bad)" style="fill: none; stroke: #000000; stroke-linecap: square"/>
   </g>
   <g id="line2d_136">
    <path d="M 444.496482 28.760464 
L 471.462102 28.760464 
" clip-path="url(#p229d688bad)" style="fill: none; stroke: #000000; stroke-linecap: square"/>
   </g>
   <g id="line2d_137">
    <path d="M 471.462102 18.693318 
L 498.427721 18.693318 
" clip-path="url(#p229d688bad)" style="fill: none; stroke: #000000; stroke-linecap: square"/>
   </g>
   <g id="line2d_138">
    <path d="M 534.381881 28.275046 
L 561.3475 28.275046 
" clip-path="url(#p229d688bad)" style="fill: none; stroke: #000000; stroke-linecap: square"/>
   </g>
   <g id="line2d_139">
    <path d="M 561.3475 19.76968 
L 588.313119 19.76968 
" clip-path="url(#p229d688bad)" style="fill: none; stroke: #000000; stroke-linecap: square"/>
   </g>
   <g id="line2d_140">
    <path d="M 624.267279 25.605248 
L 651.232898 25.605248 
" clip-path="url(#p229d688bad)" style="fill: none; stroke: #000000; stroke-linecap: square"/>
   </g>
   <g id="line2d_141">
    <path d="M 651.232898 26.945423 
L 678.198518 26.945423 
" clip-path="url(#p229d688bad)" style="fill: none; stroke: #000000; stroke-linecap: square"/>
   </g>
   <g id="line2d_142">
    <path d="M 714.152677 34.342771 
L 741.118296 34.342771 
" clip-path="url(#p229d688bad)" style="fill: none; stroke: #000000; stroke-linecap: square"/>
   </g>
   <g id="line2d_143">
    <path d="M 741.118296 23.357551 
L 768.083916 23.357551 
" clip-path="url(#p229d688bad)" style="fill: none; stroke: #000000; stroke-linecap: square"/>
   </g>
   <g id="line2d_144">
    <path d="M 804.038075 36.041734 
L 831.003695 36.041734 
" clip-path="url(#p229d688bad)" style="fill: none; stroke: #000000; stroke-linecap: square"/>
   </g>
   <g id="line2d_145">
    <path d="M 831.003695 26.945423 
L 857.969314 26.945423 
" clip-path="url(#p229d688bad)" style="fill: none; stroke: #000000; stroke-linecap: square"/>
   </g>
   <g id="line2d_146">
    <path d="M 893.923473 37.376633 
L 920.889093 37.376633 
" clip-path="url(#p229d688bad)" style="fill: none; stroke: #000000; stroke-linecap: square"/>
   </g>
   <g id="line2d_147">
    <path d="M 920.889093 29.456934 
L 947.854712 29.456934 
" clip-path="url(#p229d688bad)" style="fill: none; stroke: #000000; stroke-linecap: square"/>
   </g>
   <g id="line2d_148">
    <path d="M 983.808872 41.62404 
L 1010.774491 41.62404 
" clip-path="url(#p229d688bad)" style="fill: none; stroke: #000000; stroke-linecap: square"/>
   </g>
   <g id="line2d_149">
    <path d="M 1010.774491 77.355023 
L 1037.740111 77.355023 
" clip-path="url(#p229d688bad)" style="fill: none; stroke: #000000; stroke-linecap: square"/>
   </g>
   <g id="patch_25">
    <path d="M 53.495 324.38 
L 53.495 10.8 
" style="fill: none; stroke: #000000; stroke-width: 0.8; stroke-linejoin: miter; stroke-linecap: square"/>
   </g>
   <g id="patch_26">
    <path d="M 1069.2 324.38 
L 1069.2 10.8 
" style="fill: none; stroke: #000000; stroke-width: 0.8; stroke-linejoin: miter; stroke-linecap: square"/>
   </g>
   <g id="patch_27">
    <path d="M 53.495 324.38 
L 1069.2 324.38 
" style="fill: none; stroke: #000000; stroke-width: 0.8; stroke-linejoin: miter; stroke-linecap: square"/>
   </g>
   <g id="patch_28">
    <path d="M 53.495 10.8 
L 1069.2 10.8 
" style="fill: none; stroke: #000000; stroke-width: 0.8; stroke-linejoin: miter; stroke-linecap: square"/>
   </g>
   <g id="legend_1">
    <g id="patch_29">
     <path d="M 971.04 318.38 
L 1060.8 318.38 
Q 1063.2 318.38 1063.2 315.98 
L 1063.2 283.23125 
Q 1063.2 280.83125 1060.8 280.83125 
L 971.04 280.83125 
Q 968.64 280.83125 968.64 283.23125 
L 968.64 315.98 
Q 968.64 318.38 971.04 318.38 
z
" style="fill: #ffffff; opacity: 0.8; stroke: #cccccc; stroke-linejoin: miter"/>
    </g>
    <g id="patch_30">
     <path d="M 973.44 294.220625 
L 997.44 294.220625 
L 997.44 285.820625 
L 973.44 285.820625 
z
" style="fill: #add8e6; stroke: #add8e6; stroke-linejoin: miter"/>
    </g>
    <g id="text_19">
     <!-- Dataset 1 -->
     <g transform="translate(1007.04 294.220625) scale(0.12 -0.12)">
      <defs>
       <path id="ArialMT-44" d="M 494 0 
L 494 4581 
L 2072 4581 
Q 2606 4581 2888 4516 
Q 3281 4425 3559 4188 
Q 3922 3881 4101 3404 
Q 4281 2928 4281 2316 
Q 4281 1794 4159 1391 
Q 4038 988 3847 723 
Q 3656 459 3429 307 
Q 3203 156 2883 78 
Q 2563 0 2147 0 
L 494 0 
z
M 1100 541 
L 2078 541 
Q 2531 541 2789 625 
Q 3047 709 3200 863 
Q 3416 1078 3536 1442 
Q 3656 1806 3656 2325 
Q 3656 3044 3420 3430 
Q 3184 3816 2847 3947 
Q 2603 4041 2063 4041 
L 1100 4041 
L 1100 541 
z
" transform="scale(0.015625)"/>
      </defs>
      <use xlink:href="#ArialMT-44"/>
      <use xlink:href="#ArialMT-61" x="72.216797"/>
      <use xlink:href="#ArialMT-74" x="127.832031"/>
      <use xlink:href="#ArialMT-61" x="155.615234"/>
      <use xlink:href="#ArialMT-73" x="211.230469"/>
      <use xlink:href="#ArialMT-65" x="261.230469"/>
      <use xlink:href="#ArialMT-74" x="316.845703"/>
      <use xlink:href="#ArialMT-20" x="344.628906"/>
      <use xlink:href="#ArialMT-31" x="372.412109"/>
     </g>
    </g>
    <g id="patch_31">
     <path d="M 973.44 311.195 
L 997.44 311.195 
L 997.44 302.795 
L 973.44 302.795 
z
" style="fill: #008000; stroke: #008000; stroke-linejoin: miter"/>
    </g>
    <g id="text_20">
     <!-- Dataset 2 -->
     <g transform="translate(1007.04 311.195) scale(0.12 -0.12)">
      <use xlink:href="#ArialMT-44"/>
      <use xlink:href="#ArialMT-61" x="72.216797"/>
      <use xlink:href="#ArialMT-74" x="127.832031"/>
      <use xlink:href="#ArialMT-61" x="155.615234"/>
      <use xlink:href="#ArialMT-73" x="211.230469"/>
      <use xlink:href="#ArialMT-65" x="261.230469"/>
      <use xlink:href="#ArialMT-74" x="316.845703"/>
      <use xlink:href="#ArialMT-20" x="344.628906"/>
      <use xlink:href="#ArialMT-32" x="372.412109"/>
     </g>
    </g>
   </g>
  </g>
 </g>
 <defs>
  <clipPath id="p229d688bad">
   <rect x="53.495" y="10.8" width="1015.705" height="313.58"/>
  </clipPath>
 </defs>
</svg>
