<?xml version="1.0" encoding="utf-8" standalone="no"?>
<!DOCTYPE svg PUBLIC "-//W3C//DTD SVG 1.1//EN"
  "http://www.w3.org/Graphics/SVG/1.1/DTD/svg11.dtd">
<svg xmlns:xlink="http://www.w3.org/1999/xlink" width="1080pt" height="648pt" viewBox="0 0 1080 648" xmlns="http://www.w3.org/2000/svg" version="1.1">
 <metadata>
  <rdf:RDF xmlns:dc="http://purl.org/dc/elements/1.1/" xmlns:cc="http://creativecommons.org/ns#" xmlns:rdf="http://www.w3.org/1999/02/22-rdf-syntax-ns#">
   <cc:Work>
    <dc:type rdf:resource="http://purl.org/dc/dcmitype/StillImage"/>
    <dc:date>2024-04-04T23:49:57.818314</dc:date>
    <dc:format>image/svg+xml</dc:format>
    <dc:creator>
     <cc:Agent>
      <dc:title>Matplotlib v3.7.2, https://matplotlib.org/</dc:title>
     </cc:Agent>
    </dc:creator>
   </cc:Work>
  </rdf:RDF>
 </metadata>
 <defs>
  <style type="text/css">*{stroke-linejoin: round; stroke-linecap: butt}</style>
 </defs>
 <g id="figure_1">
  <g id="patch_1">
   <path d="M 0 648 
L 1080 648 
L 1080 0 
L 0 0 
z
" style="fill: #ffffff"/>
  </g>
  <g id="axes_1">
   <g id="patch_2">
    <path d="M 47.765 606.04 
L 933.07 606.04 
L 933.07 30.748 
L 47.765 30.748 
z
" style="fill: #ffffff"/>
   </g>
   <g id="PolyCollection_1">
    <defs>
     <path id="mf236d1f7cc" d="M 47.765 -378.6188 
L 47.765 -347.785265 
L 65.4711 -351.709083 
L 83.1772 -354.612003 
L 100.8833 -348.803102 
L 118.5894 -354.173788 
L 136.2955 -358.151155 
L 154.0016 -359.150241 
L 171.7077 -362.096427 
L 189.4138 -358.86085 
L 207.1199 -360.136862 
L 224.826 -361.962393 
L 242.5321 -364.245256 
L 260.2382 -364.738853 
L 277.9443 -367.125896 
L 295.6504 -364.917081 
L 313.3565 -365.760672 
L 331.0626 -366.140035 
L 348.7687 -361.682753 
L 366.4748 -363.79065 
L 384.1809 -373.44956 
L 401.887 -368.255204 
L 419.5931 -366.211421 
L 437.2992 -366.970554 
L 455.0053 -377.518977 
L 472.7114 -376.45785 
L 490.4175 -370.202714 
L 508.1236 -366.72308 
L 525.8297 -370.94672 
L 543.5358 -370.073645 
L 561.2419 -384.600861 
L 578.948 -370.151131 
L 596.6541 -375.777899 
L 614.3602 -383.778231 
L 632.0663 -380.508582 
L 649.7724 -383.78828 
L 667.4785 -389.517467 
L 685.1846 -378.892779 
L 702.8907 -389.405742 
L 720.5968 -396.080823 
L 738.3029 -393.199527 
L 756.009 -395.770035 
L 773.7151 -392.669884 
L 791.4212 -394.863511 
L 809.1273 -396.802725 
L 826.8334 -400.341988 
L 844.5395 -407.556756 
L 862.2456 -401.912323 
L 879.9517 -401.710599 
L 897.6578 -410.249842 
L 915.3639 -403.932633 
L 933.07 -420.060246 
L 933.07 -454.935663 
L 933.07 -454.935663 
L 915.3639 -445.685245 
L 897.6578 -447.187612 
L 879.9517 -441.008279 
L 862.2456 -436.692219 
L 844.5395 -442.958507 
L 826.8334 -447.731251 
L 809.1273 -442.846854 
L 791.4212 -438.597175 
L 773.7151 -431.092959 
L 756.009 -429.080527 
L 738.3029 -432.991034 
L 720.5968 -430.048197 
L 702.8907 -424.649692 
L 685.1846 -424.75098 
L 667.4785 -421.516217 
L 649.7724 -422.653698 
L 632.0663 -418.673672 
L 614.3602 -417.331972 
L 596.6541 -416.618936 
L 578.948 -409.111727 
L 561.2419 -417.992962 
L 543.5358 -405.572718 
L 525.8297 -402.747676 
L 508.1236 -404.544941 
L 490.4175 -405.536405 
L 472.7114 -409.15775 
L 455.0053 -409.306143 
L 437.2992 -407.648575 
L 419.5931 -397.956978 
L 401.887 -401.442514 
L 384.1809 -406.549421 
L 366.4748 -392.566253 
L 348.7687 -395.283639 
L 331.0626 -401.73999 
L 313.3565 -398.671308 
L 295.6504 -397.296118 
L 277.9443 -390.86645 
L 260.2382 -391.200837 
L 242.5321 -394.79663 
L 224.826 -393.063429 
L 207.1199 -386.625659 
L 189.4138 -401.241896 
L 171.7077 -392.616088 
L 154.0016 -403.655709 
L 136.2955 -393.232758 
L 118.5894 -386.080569 
L 100.8833 -389.07156 
L 83.1772 -385.630728 
L 65.4711 -383.794984 
L 47.765 -378.6188 
z
" style="stroke: #1f77b4; stroke-opacity: 0.2"/>
    </defs>
    <g clip-path="url(#pf5c52fb1a1)">
     <use xlink:href="#mf236d1f7cc" x="0" y="648" style="fill: #1f77b4; fill-opacity: 0.2; stroke: #1f77b4; stroke-opacity: 0.2"/>
    </g>
   </g>
   <g id="PolyCollection_2">
    <defs>
     <path id="m479f517aa8" d="M 47.765 -296.739438 
L 47.765 -248.013195 
L 65.4711 -276.629103 
L 83.1772 -258.88466 
L 100.8833 -262.296878 
L 118.5894 -263.848614 
L 136.2955 -269.350872 
L 154.0016 -274.56171 
L 171.7077 -268.125807 
L 189.4138 -283.922965 
L 207.1199 -280.385172 
L 224.826 -271.096869 
L 242.5321 -277.624732 
L 260.2382 -284.612193 
L 277.9443 -285.464812 
L 295.6504 -289.050282 
L 313.3565 -287.351141 
L 331.0626 -274.4062 
L 348.7687 -296.016877 
L 366.4748 -274.9252 
L 384.1809 -282.834863 
L 401.887 -289.658833 
L 419.5931 -296.134236 
L 437.2992 -289.066071 
L 455.0053 -289.348564 
L 472.7114 -288.143244 
L 490.4175 -288.395085 
L 508.1236 -296.727696 
L 525.8297 -287.88405 
L 543.5358 -297.953843 
L 561.2419 -303.000267 
L 578.948 -304.381795 
L 596.6541 -293.127184 
L 614.3602 -301.219922 
L 632.0663 -294.62883 
L 649.7724 -307.309236 
L 667.4785 -308.762173 
L 685.1846 -307.846458 
L 702.8907 -308.400133 
L 720.5968 -312.636401 
L 738.3029 -312.510267 
L 756.009 -330.542231 
L 773.7151 -312.722622 
L 791.4212 -309.64155 
L 809.1273 -315.274236 
L 826.8334 -320.135955 
L 844.5395 -323.063683 
L 862.2456 -316.845269 
L 879.9517 -321.74849 
L 897.6578 -319.650894 
L 915.3639 -323.372738 
L 933.07 -323.984279 
L 933.07 -377.279862 
L 933.07 -377.279862 
L 915.3639 -356.409678 
L 897.6578 -361.372387 
L 879.9517 -358.301875 
L 862.2456 -372.369885 
L 844.5395 -367.671621 
L 826.8334 -371.022544 
L 809.1273 -363.541581 
L 791.4212 -359.456461 
L 773.7151 -351.132317 
L 756.009 -371.250387 
L 738.3029 -362.813292 
L 720.5968 -352.128195 
L 702.8907 -359.607317 
L 685.1846 -344.638113 
L 667.4785 -354.913327 
L 649.7724 -353.433859 
L 632.0663 -345.011767 
L 614.3602 -344.751199 
L 596.6541 -335.542697 
L 578.948 -342.871225 
L 561.2419 -341.606507 
L 543.5358 -339.949289 
L 525.8297 -339.425477 
L 508.1236 -331.04584 
L 490.4175 -341.848843 
L 472.7114 -334.849931 
L 455.0053 -322.625795 
L 437.2992 -325.161191 
L 419.5931 -338.603896 
L 401.887 -332.833016 
L 384.1809 -322.262374 
L 366.4748 -320.199029 
L 348.7687 -338.044178 
L 331.0626 -319.255828 
L 313.3565 -332.159716 
L 295.6504 -327.351484 
L 277.9443 -330.155277 
L 260.2382 -329.591314 
L 242.5321 -327.002998 
L 224.826 -324.958678 
L 207.1199 -333.551301 
L 189.4138 -322.882972 
L 171.7077 -318.361606 
L 154.0016 -333.1095 
L 136.2955 -310.765216 
L 118.5894 -326.264068 
L 100.8833 -315.945238 
L 83.1772 -308.329274 
L 65.4711 -320.144583 
L 47.765 -296.739438 
z
" style="stroke: #ff7f0e; stroke-opacity: 0.2"/>
    </defs>
    <g clip-path="url(#pf5c52fb1a1)">
     <use xlink:href="#m479f517aa8" x="0" y="648" style="fill: #ff7f0e; fill-opacity: 0.2; stroke: #ff7f0e; stroke-opacity: 0.2"/>
    </g>
   </g>
   <g id="PolyCollection_3">
    <defs>
     <path id="ma03c7089a9" d="M 47.765 -399.250374 
L 47.765 -369.307782 
L 65.4711 -371.685344 
L 83.1772 -376.450639 
L 100.8833 -374.440807 
L 118.5894 -380.236032 
L 136.2955 -379.244954 
L 154.0016 -379.907132 
L 171.7077 -378.977176 
L 189.4138 -377.783854 
L 207.1199 -383.838387 
L 224.826 -384.1198 
L 242.5321 -386.336422 
L 260.2382 -390.594829 
L 277.9443 -391.882962 
L 295.6504 -396.544617 
L 313.3565 -398.204356 
L 331.0626 -400.976485 
L 348.7687 -404.658471 
L 366.4748 -410.917522 
L 384.1809 -413.563808 
L 401.887 -417.567431 
L 419.5931 -419.936188 
L 437.2992 -419.999933 
L 455.0053 -422.026044 
L 472.7114 -422.822061 
L 490.4175 -424.294204 
L 508.1236 -425.136517 
L 525.8297 -425.871921 
L 543.5358 -426.926916 
L 561.2419 -430.194054 
L 578.948 -429.148609 
L 596.6541 -433.000675 
L 614.3602 -433.517374 
L 632.0663 -433.863475 
L 649.7724 -434.702427 
L 667.4785 -434.88069 
L 685.1846 -434.395264 
L 702.8907 -435.500606 
L 720.5968 -434.229588 
L 738.3029 -435.20022 
L 756.009 -434.143089 
L 773.7151 -435.177883 
L 791.4212 -434.947793 
L 809.1273 -434.383659 
L 826.8334 -434.336187 
L 844.5395 -433.387238 
L 862.2456 -434.253213 
L 879.9517 -434.057927 
L 897.6578 -433.647872 
L 915.3639 -436.107486 
L 933.07 -435.438349 
L 933.07 -480.088582 
L 933.07 -480.088582 
L 915.3639 -477.405218 
L 897.6578 -476.201889 
L 879.9517 -476.321636 
L 862.2456 -474.674444 
L 844.5395 -472.915932 
L 826.8334 -471.107335 
L 809.1273 -473.620172 
L 791.4212 -473.047341 
L 773.7151 -472.725845 
L 756.009 -472.906305 
L 738.3029 -473.793298 
L 720.5968 -473.145037 
L 702.8907 -472.306789 
L 685.1846 -473.637738 
L 667.4785 -474.815924 
L 649.7724 -472.327321 
L 632.0663 -470.454747 
L 614.3602 -469.505061 
L 596.6541 -466.778525 
L 578.948 -463.519339 
L 561.2419 -463.734742 
L 543.5358 -461.341153 
L 525.8297 -459.565596 
L 508.1236 -458.986243 
L 490.4175 -458.112356 
L 472.7114 -456.480992 
L 455.0053 -454.136863 
L 437.2992 -454.157908 
L 419.5931 -453.224768 
L 401.887 -453.878383 
L 384.1809 -448.957352 
L 366.4748 -445.165044 
L 348.7687 -441.256842 
L 331.0626 -440.045097 
L 313.3565 -436.154708 
L 295.6504 -435.487744 
L 277.9443 -433.218544 
L 260.2382 -428.763775 
L 242.5321 -428.558811 
L 224.826 -423.992062 
L 207.1199 -418.9109 
L 189.4138 -416.711922 
L 171.7077 -413.787029 
L 154.0016 -414.449631 
L 136.2955 -411.179299 
L 118.5894 -412.616691 
L 100.8833 -409.429816 
L 83.1772 -403.455225 
L 65.4711 -399.200206 
L 47.765 -399.250374 
z
" style="stroke: #2ca02c; stroke-opacity: 0.2"/>
    </defs>
    <g clip-path="url(#pf5c52fb1a1)">
     <use xlink:href="#ma03c7089a9" x="0" y="648" style="fill: #2ca02c; fill-opacity: 0.2; stroke: #2ca02c; stroke-opacity: 0.2"/>
    </g>
   </g>
   <g id="PolyCollection_4">
    <defs>
     <path id="m428cefcc62" d="M 47.765 -399.269256 
L 47.765 -368.444995 
L 65.4711 -370.42618 
L 83.1772 -370.084091 
L 100.8833 -374.4882 
L 118.5894 -373.90087 
L 136.2955 -375.468891 
L 154.0016 -377.264311 
L 171.7077 -378.469371 
L 189.4138 -379.799893 
L 207.1199 -380.247837 
L 224.826 -378.101251 
L 242.5321 -379.124171 
L 260.2382 -380.248729 
L 277.9443 -380.871669 
L 295.6504 -383.361178 
L 313.3565 -384.4317 
L 331.0626 -386.074416 
L 348.7687 -389.624957 
L 366.4748 -390.440038 
L 384.1809 -392.654224 
L 401.887 -394.609108 
L 419.5931 -399.409492 
L 437.2992 -402.071323 
L 455.0053 -404.74581 
L 472.7114 -406.309226 
L 490.4175 -407.275325 
L 508.1236 -410.355083 
L 525.8297 -412.506461 
L 543.5358 -411.294257 
L 561.2419 -414.120063 
L 578.948 -417.51785 
L 596.6541 -419.043866 
L 614.3602 -419.843111 
L 632.0663 -419.735467 
L 649.7724 -417.309941 
L 667.4785 -419.548256 
L 685.1846 -422.192925 
L 702.8907 -419.944104 
L 720.5968 -424.434832 
L 738.3029 -423.362312 
L 756.009 -426.100975 
L 773.7151 -424.373314 
L 791.4212 -425.60598 
L 809.1273 -424.504836 
L 826.8334 -423.946166 
L 844.5395 -424.619683 
L 862.2456 -424.315162 
L 879.9517 -424.543495 
L 897.6578 -425.882381 
L 915.3639 -428.125691 
L 933.07 -429.268835 
L 933.07 -472.590752 
L 933.07 -472.590752 
L 915.3639 -470.794826 
L 897.6578 -467.230042 
L 879.9517 -466.28334 
L 862.2456 -464.819603 
L 844.5395 -462.030938 
L 826.8334 -460.079557 
L 809.1273 -460.005499 
L 791.4212 -459.255183 
L 773.7151 -457.282507 
L 756.009 -457.55428 
L 738.3029 -457.205983 
L 720.5968 -456.799374 
L 702.8907 -453.916359 
L 685.1846 -454.303726 
L 667.4785 -451.878063 
L 649.7724 -451.779993 
L 632.0663 -451.22288 
L 614.3602 -454.449929 
L 596.6541 -451.93219 
L 578.948 -451.768019 
L 561.2419 -450.904451 
L 543.5358 -448.312493 
L 525.8297 -447.362549 
L 508.1236 -445.914812 
L 490.4175 -441.960403 
L 472.7114 -439.886132 
L 455.0053 -439.94385 
L 437.2992 -437.352355 
L 419.5931 -435.02831 
L 401.887 -432.736059 
L 384.1809 -430.666245 
L 366.4748 -429.977473 
L 348.7687 -428.131659 
L 331.0626 -424.549561 
L 313.3565 -426.527824 
L 295.6504 -425.923065 
L 277.9443 -422.82885 
L 260.2382 -419.435034 
L 242.5321 -421.368852 
L 224.826 -421.546993 
L 207.1199 -417.018641 
L 189.4138 -416.34729 
L 171.7077 -416.014542 
L 154.0016 -412.370753 
L 136.2955 -407.636734 
L 118.5894 -405.22649 
L 100.8833 -405.832826 
L 83.1772 -404.194617 
L 65.4711 -398.277967 
L 47.765 -399.269256 
z
" style="stroke: #d62728; stroke-opacity: 0.2"/>
    </defs>
    <g clip-path="url(#pf5c52fb1a1)">
     <use xlink:href="#m428cefcc62" x="0" y="648" style="fill: #d62728; fill-opacity: 0.2; stroke: #d62728; stroke-opacity: 0.2"/>
    </g>
   </g>
   <g id="PolyCollection_5">
    <defs>
     <path id="m8b60f7afc5" d="M 47.765 -383.592162 
L 47.765 -346.295534 
L 65.4711 -348.402935 
L 83.1772 -348.431803 
L 100.8833 -348.401274 
L 118.5894 -354.065242 
L 136.2955 -358.56924 
L 154.0016 -358.358223 
L 171.7077 -359.641865 
L 189.4138 -361.596398 
L 207.1199 -364.143676 
L 224.826 -364.96726 
L 242.5321 -366.817878 
L 260.2382 -369.20099 
L 277.9443 -374.078948 
L 295.6504 -374.32393 
L 313.3565 -375.572369 
L 331.0626 -376.550651 
L 348.7687 -381.184869 
L 366.4748 -382.340557 
L 384.1809 -385.362175 
L 401.887 -386.864572 
L 419.5931 -389.676342 
L 437.2992 -390.945076 
L 455.0053 -394.12564 
L 472.7114 -395.161632 
L 490.4175 -397.519155 
L 508.1236 -398.912679 
L 525.8297 -400.951512 
L 543.5358 -402.88763 
L 561.2419 -401.863975 
L 578.948 -401.950817 
L 596.6541 -403.740225 
L 614.3602 -405.595414 
L 632.0663 -406.575772 
L 649.7724 -408.301137 
L 667.4785 -407.296023 
L 685.1846 -409.780354 
L 702.8907 -410.834967 
L 720.5968 -410.563074 
L 738.3029 -412.098755 
L 756.009 -416.277041 
L 773.7151 -415.038381 
L 791.4212 -416.059629 
L 809.1273 -419.894911 
L 826.8334 -417.929706 
L 844.5395 -421.032339 
L 862.2456 -421.507732 
L 879.9517 -422.509625 
L 897.6578 -422.464102 
L 915.3639 -422.910371 
L 933.07 -421.990015 
L 933.07 -468.166759 
L 933.07 -468.166759 
L 915.3639 -465.101357 
L 897.6578 -466.042132 
L 879.9517 -464.418721 
L 862.2456 -464.701697 
L 844.5395 -463.783835 
L 826.8334 -462.422017 
L 809.1273 -461.030198 
L 791.4212 -458.90989 
L 773.7151 -458.881662 
L 756.009 -456.326174 
L 738.3029 -454.249726 
L 720.5968 -452.612925 
L 702.8907 -452.279363 
L 685.1846 -450.537819 
L 667.4785 -448.75571 
L 649.7724 -444.718825 
L 632.0663 -444.552778 
L 614.3602 -443.919768 
L 596.6541 -440.477513 
L 578.948 -437.280264 
L 561.2419 -438.633074 
L 543.5358 -434.000872 
L 525.8297 -434.81429 
L 508.1236 -433.874614 
L 490.4175 -430.766883 
L 472.7114 -429.084566 
L 455.0053 -430.203034 
L 437.2992 -427.210522 
L 419.5931 -424.26519 
L 401.887 -422.388959 
L 384.1809 -423.272695 
L 366.4748 -418.010925 
L 348.7687 -416.196137 
L 331.0626 -413.86754 
L 313.3565 -409.816651 
L 295.6504 -408.013815 
L 277.9443 -411.164025 
L 260.2382 -407.660325 
L 242.5321 -404.347572 
L 224.826 -401.539451 
L 207.1199 -400.67413 
L 189.4138 -397.484453 
L 171.7077 -399.103378 
L 154.0016 -393.977024 
L 136.2955 -393.483496 
L 118.5894 -390.885525 
L 100.8833 -387.826348 
L 83.1772 -386.196124 
L 65.4711 -385.541354 
L 47.765 -383.592162 
z
" style="stroke: #9467bd; stroke-opacity: 0.2"/>
    </defs>
    <g clip-path="url(#pf5c52fb1a1)">
     <use xlink:href="#m8b60f7afc5" x="0" y="648" style="fill: #9467bd; fill-opacity: 0.2; stroke: #9467bd; stroke-opacity: 0.2"/>
    </g>
   </g>
   <g id="PolyCollection_6">
    <defs>
     <path id="m85b65fbef8" d="M 47.765 -396.080623 
L 47.765 -348.543429 
L 65.4711 -349.468328 
L 83.1772 -352.268965 
L 100.8833 -358.072717 
L 118.5894 -359.135173 
L 136.2955 -362.721713 
L 154.0016 -372.190925 
L 171.7077 -376.666326 
L 189.4138 -381.689045 
L 207.1199 -387.565757 
L 224.826 -391.557718 
L 242.5321 -394.837678 
L 260.2382 -395.40562 
L 277.9443 -401.958973 
L 295.6504 -401.977083 
L 313.3565 -401.235738 
L 331.0626 -406.412166 
L 348.7687 -407.411243 
L 366.4748 -409.978056 
L 384.1809 -410.497923 
L 401.887 -411.468617 
L 419.5931 -416.263811 
L 437.2992 -414.190706 
L 455.0053 -414.578869 
L 472.7114 -417.079015 
L 490.4175 -418.980168 
L 508.1236 -418.192039 
L 525.8297 -419.037974 
L 543.5358 -419.826661 
L 561.2419 -422.930685 
L 578.948 -421.641591 
L 596.6541 -422.533338 
L 614.3602 -420.517845 
L 632.0663 -421.1502 
L 649.7724 -426.140514 
L 667.4785 -427.253584 
L 685.1846 -434.197225 
L 702.8907 -432.169384 
L 720.5968 -434.455093 
L 738.3029 -441.937127 
L 756.009 -440.298561 
L 773.7151 -442.146975 
L 791.4212 -443.174729 
L 809.1273 -442.057109 
L 826.8334 -442.310714 
L 844.5395 -443.657346 
L 862.2456 -443.240872 
L 879.9517 -447.068705 
L 897.6578 -448.011748 
L 915.3639 -447.288557 
L 933.07 -449.498119 
L 933.07 -474.649088 
L 933.07 -474.649088 
L 915.3639 -474.532491 
L 897.6578 -474.367928 
L 879.9517 -473.717936 
L 862.2456 -474.235404 
L 844.5395 -472.517125 
L 826.8334 -472.583747 
L 809.1273 -471.214701 
L 791.4212 -470.671533 
L 773.7151 -472.477473 
L 756.009 -470.961368 
L 738.3029 -472.026993 
L 720.5968 -469.411001 
L 702.8907 -468.886311 
L 685.1846 -470.761979 
L 667.4785 -467.491271 
L 649.7724 -464.837853 
L 632.0663 -464.336546 
L 614.3602 -463.779067 
L 596.6541 -465.584042 
L 578.948 -464.356913 
L 561.2419 -463.686476 
L 543.5358 -463.912612 
L 525.8297 -460.293348 
L 508.1236 -455.728519 
L 490.4175 -456.957134 
L 472.7114 -456.29036 
L 455.0053 -453.061044 
L 437.2992 -451.819625 
L 419.5931 -451.381378 
L 401.887 -449.747927 
L 384.1809 -447.818943 
L 366.4748 -446.938652 
L 348.7687 -447.324494 
L 331.0626 -445.212001 
L 313.3565 -439.807167 
L 295.6504 -441.926027 
L 277.9443 -440.082767 
L 260.2382 -435.84518 
L 242.5321 -433.794563 
L 224.826 -432.481922 
L 207.1199 -426.147632 
L 189.4138 -421.959725 
L 171.7077 -419.702657 
L 154.0016 -414.927348 
L 136.2955 -406.740897 
L 118.5894 -403.426223 
L 100.8833 -401.842923 
L 83.1772 -399.5644 
L 65.4711 -398.980497 
L 47.765 -396.080623 
z
" style="stroke: #8c564b; stroke-opacity: 0.2"/>
    </defs>
    <g clip-path="url(#pf5c52fb1a1)">
     <use xlink:href="#m85b65fbef8" x="0" y="648" style="fill: #8c564b; fill-opacity: 0.2; stroke: #8c564b; stroke-opacity: 0.2"/>
    </g>
   </g>
   <g id="PolyCollection_7">
    <defs>
     <path id="m205e211ebf" d="M 47.765 -415.902309 
L 47.765 -367.888781 
L 65.4711 -368.00929 
L 83.1772 -370.486997 
L 100.8833 -376.913318 
L 118.5894 -377.289348 
L 136.2955 -379.082432 
L 154.0016 -382.652741 
L 171.7077 -383.462217 
L 189.4138 -382.874948 
L 207.1199 -386.413007 
L 224.826 -385.692423 
L 242.5321 -390.852136 
L 260.2382 -390.125415 
L 277.9443 -392.22319 
L 295.6504 -396.964649 
L 313.3565 -397.535871 
L 331.0626 -394.713472 
L 348.7687 -398.201605 
L 366.4748 -400.343248 
L 384.1809 -398.182114 
L 401.887 -402.152807 
L 419.5931 -408.029072 
L 437.2992 -409.705433 
L 455.0053 -411.267471 
L 472.7114 -414.15895 
L 490.4175 -414.398843 
L 508.1236 -416.210466 
L 525.8297 -419.171897 
L 543.5358 -415.608021 
L 561.2419 -417.527522 
L 578.948 -418.253326 
L 596.6541 -420.637296 
L 614.3602 -423.610435 
L 632.0663 -422.641148 
L 649.7724 -423.13328 
L 667.4785 -426.290583 
L 685.1846 -426.674955 
L 702.8907 -428.511751 
L 720.5968 -430.347704 
L 738.3029 -433.410023 
L 756.009 -434.332435 
L 773.7151 -436.961252 
L 791.4212 -438.468148 
L 809.1273 -440.331244 
L 826.8334 -438.546121 
L 844.5395 -442.114265 
L 862.2456 -443.976636 
L 879.9517 -445.26231 
L 897.6578 -443.891555 
L 915.3639 -446.803951 
L 933.07 -448.214522 
L 933.07 -479.557301 
L 933.07 -479.557301 
L 915.3639 -480.092884 
L 897.6578 -476.871181 
L 879.9517 -476.333535 
L 862.2456 -473.972292 
L 844.5395 -471.670793 
L 826.8334 -471.439226 
L 809.1273 -469.734425 
L 791.4212 -468.490332 
L 773.7151 -467.755506 
L 756.009 -471.876637 
L 738.3029 -466.872393 
L 720.5968 -466.688824 
L 702.8907 -463.73174 
L 685.1846 -465.653297 
L 667.4785 -461.340402 
L 649.7724 -462.580842 
L 632.0663 -462.312842 
L 614.3602 -461.750055 
L 596.6541 -459.330194 
L 578.948 -458.727707 
L 561.2419 -460.280318 
L 543.5358 -458.003903 
L 525.8297 -454.753212 
L 508.1236 -454.08261 
L 490.4175 -452.792182 
L 472.7114 -451.905483 
L 455.0053 -449.47801 
L 437.2992 -449.05647 
L 419.5931 -448.168266 
L 401.887 -447.974856 
L 384.1809 -443.344632 
L 366.4748 -444.85475 
L 348.7687 -444.969461 
L 331.0626 -442.103108 
L 313.3565 -439.344257 
L 295.6504 -437.726854 
L 277.9443 -431.529006 
L 260.2382 -430.781638 
L 242.5321 -430.001692 
L 224.826 -426.594844 
L 207.1199 -425.658833 
L 189.4138 -426.300364 
L 171.7077 -425.304858 
L 154.0016 -424.519593 
L 136.2955 -424.873492 
L 118.5894 -424.863103 
L 100.8833 -423.103685 
L 83.1772 -418.433356 
L 65.4711 -420.578232 
L 47.765 -415.902309 
z
" style="stroke: #e377c2; stroke-opacity: 0.2"/>
    </defs>
    <g clip-path="url(#pf5c52fb1a1)">
     <use xlink:href="#m205e211ebf" x="0" y="648" style="fill: #e377c2; fill-opacity: 0.2; stroke: #e377c2; stroke-opacity: 0.2"/>
    </g>
   </g>
   <g id="PolyCollection_8">
    <defs>
     <path id="m48faa5de7e" d="M 47.765 -403.833609 
L 47.765 -361.374384 
L 65.4711 -363.295657 
L 83.1772 -363.346701 
L 100.8833 -366.66315 
L 118.5894 -372.286494 
L 136.2955 -373.421831 
L 154.0016 -376.691237 
L 171.7077 -379.066309 
L 189.4138 -378.971397 
L 207.1199 -383.068356 
L 224.826 -385.357203 
L 242.5321 -389.030735 
L 260.2382 -386.90415 
L 277.9443 -395.60236 
L 295.6504 -399.959655 
L 313.3565 -403.188847 
L 331.0626 -405.212538 
L 348.7687 -408.577487 
L 366.4748 -409.832338 
L 384.1809 -413.301501 
L 401.887 -413.203883 
L 419.5931 -412.608908 
L 437.2992 -413.865428 
L 455.0053 -416.6212 
L 472.7114 -417.491095 
L 490.4175 -420.093214 
L 508.1236 -418.714781 
L 525.8297 -420.678719 
L 543.5358 -423.411043 
L 561.2419 -422.933733 
L 578.948 -421.856644 
L 596.6541 -423.545049 
L 614.3602 -423.950036 
L 632.0663 -424.411427 
L 649.7724 -426.403187 
L 667.4785 -423.5119 
L 685.1846 -428.140664 
L 702.8907 -428.428857 
L 720.5968 -427.096089 
L 738.3029 -428.543621 
L 756.009 -433.739971 
L 773.7151 -433.7254 
L 791.4212 -436.85084 
L 809.1273 -436.291694 
L 826.8334 -438.164692 
L 844.5395 -441.693898 
L 862.2456 -439.496988 
L 879.9517 -440.453942 
L 897.6578 -442.914686 
L 915.3639 -444.347865 
L 933.07 -450.044676 
L 933.07 -483.706661 
L 933.07 -483.706661 
L 915.3639 -482.693491 
L 897.6578 -481.906131 
L 879.9517 -480.704469 
L 862.2456 -479.10779 
L 844.5395 -478.285738 
L 826.8334 -479.473958 
L 809.1273 -477.675932 
L 791.4212 -475.279672 
L 773.7151 -472.971642 
L 756.009 -475.514384 
L 738.3029 -472.548447 
L 720.5968 -469.941686 
L 702.8907 -467.326436 
L 685.1846 -468.418533 
L 667.4785 -464.004794 
L 649.7724 -465.548483 
L 632.0663 -465.40854 
L 614.3602 -461.850605 
L 596.6541 -462.488729 
L 578.948 -461.006867 
L 561.2419 -461.574549 
L 543.5358 -462.813065 
L 525.8297 -462.579971 
L 508.1236 -458.03877 
L 490.4175 -459.020225 
L 472.7114 -456.928671 
L 455.0053 -453.147831 
L 437.2992 -455.770509 
L 419.5931 -454.330226 
L 401.887 -452.030945 
L 384.1809 -451.703349 
L 366.4748 -448.525766 
L 348.7687 -448.242176 
L 331.0626 -443.912365 
L 313.3565 -444.362204 
L 295.6504 -442.988083 
L 277.9443 -439.660904 
L 260.2382 -435.42657 
L 242.5321 -434.465637 
L 224.826 -429.386469 
L 207.1199 -428.712286 
L 189.4138 -428.297885 
L 171.7077 -426.240287 
L 154.0016 -425.193564 
L 136.2955 -422.002311 
L 118.5894 -422.490646 
L 100.8833 -414.564168 
L 83.1772 -411.134695 
L 65.4711 -405.704608 
L 47.765 -403.833609 
z
" style="stroke: #7f7f7f; stroke-opacity: 0.2"/>
    </defs>
    <g clip-path="url(#pf5c52fb1a1)">
     <use xlink:href="#m48faa5de7e" x="0" y="648" style="fill: #7f7f7f; fill-opacity: 0.2; stroke: #7f7f7f; stroke-opacity: 0.2"/>
    </g>
   </g>
   <g id="PolyCollection_9">
    <defs>
     <path id="me2d08ac0c1" d="M 47.765 -412.697391 
L 47.765 -378.806367 
L 65.4711 -387.840771 
L 83.1772 -391.675419 
L 100.8833 -399.022206 
L 118.5894 -403.221979 
L 136.2955 -406.995891 
L 154.0016 -412.388537 
L 171.7077 -413.634019 
L 189.4138 -418.582923 
L 207.1199 -419.17385 
L 224.826 -419.60356 
L 242.5321 -420.904931 
L 260.2382 -420.153685 
L 277.9443 -421.630819 
L 295.6504 -421.381841 
L 313.3565 -422.461386 
L 331.0626 -424.672105 
L 348.7687 -420.991832 
L 366.4748 -421.418697 
L 384.1809 -422.135046 
L 401.887 -420.83067 
L 419.5931 -418.44686 
L 437.2992 -420.974792 
L 455.0053 -420.574792 
L 472.7114 -421.506436 
L 490.4175 -424.434332 
L 508.1236 -423.14017 
L 525.8297 -421.082587 
L 543.5358 -424.917079 
L 561.2419 -423.883867 
L 578.948 -423.552697 
L 596.6541 -426.578299 
L 614.3602 -424.601898 
L 632.0663 -424.805561 
L 649.7724 -425.527114 
L 667.4785 -428.783301 
L 685.1846 -427.170771 
L 702.8907 -430.571146 
L 720.5968 -429.40273 
L 738.3029 -431.536617 
L 756.009 -433.227098 
L 773.7151 -436.129275 
L 791.4212 -437.176391 
L 809.1273 -441.180205 
L 826.8334 -440.717259 
L 844.5395 -445.422585 
L 862.2456 -447.221675 
L 879.9517 -448.244653 
L 897.6578 -451.800002 
L 915.3639 -452.430918 
L 933.07 -453.320569 
L 933.07 -486.182751 
L 933.07 -486.182751 
L 915.3639 -484.553481 
L 897.6578 -482.580881 
L 879.9517 -480.714033 
L 862.2456 -476.816557 
L 844.5395 -475.824218 
L 826.8334 -474.018442 
L 809.1273 -470.977255 
L 791.4212 -468.71282 
L 773.7151 -469.373938 
L 756.009 -466.184493 
L 738.3029 -465.300662 
L 720.5968 -463.745685 
L 702.8907 -462.76279 
L 685.1846 -460.846091 
L 667.4785 -463.801188 
L 649.7724 -460.378954 
L 632.0663 -459.324626 
L 614.3602 -458.715096 
L 596.6541 -457.499855 
L 578.948 -455.142144 
L 561.2419 -457.920262 
L 543.5358 -455.670256 
L 525.8297 -456.089613 
L 508.1236 -453.035719 
L 490.4175 -452.778819 
L 472.7114 -451.22202 
L 455.0053 -453.878139 
L 437.2992 -457.339631 
L 419.5931 -457.463384 
L 401.887 -457.74762 
L 384.1809 -458.719753 
L 366.4748 -458.656428 
L 348.7687 -458.433863 
L 331.0626 -457.161164 
L 313.3565 -457.495243 
L 295.6504 -456.000085 
L 277.9443 -453.391211 
L 260.2382 -452.422749 
L 242.5321 -448.644487 
L 224.826 -448.179274 
L 207.1199 -446.769222 
L 189.4138 -447.040564 
L 171.7077 -440.107711 
L 154.0016 -438.181819 
L 136.2955 -435.182117 
L 118.5894 -431.570938 
L 100.8833 -430.3768 
L 83.1772 -424.025798 
L 65.4711 -419.871856 
L 47.765 -412.697391 
z
" style="stroke: #bcbd22; stroke-opacity: 0.2"/>
    </defs>
    <g clip-path="url(#pf5c52fb1a1)">
     <use xlink:href="#me2d08ac0c1" x="0" y="648" style="fill: #bcbd22; fill-opacity: 0.2; stroke: #bcbd22; stroke-opacity: 0.2"/>
    </g>
   </g>
   <g id="PolyCollection_10">
    <defs>
     <path id="meb22a566d5" d="M 47.765 -404.731828 
L 47.765 -371.522689 
L 65.4711 -373.588626 
L 83.1772 -373.064688 
L 100.8833 -375.469539 
L 118.5894 -379.137061 
L 136.2955 -379.535196 
L 154.0016 -383.640258 
L 171.7077 -383.61966 
L 189.4138 -385.207894 
L 207.1199 -386.732245 
L 224.826 -385.785113 
L 242.5321 -387.0866 
L 260.2382 -387.787485 
L 277.9443 -389.361285 
L 295.6504 -392.121002 
L 313.3565 -391.839116 
L 331.0626 -393.590106 
L 348.7687 -394.087972 
L 366.4748 -396.225808 
L 384.1809 -400.20521 
L 401.887 -400.561138 
L 419.5931 -401.797329 
L 437.2992 -401.910835 
L 455.0053 -406.710807 
L 472.7114 -407.647192 
L 490.4175 -408.178085 
L 508.1236 -410.737564 
L 525.8297 -409.829193 
L 543.5358 -411.333589 
L 561.2419 -414.17524 
L 578.948 -412.095504 
L 596.6541 -410.12296 
L 614.3602 -409.88811 
L 632.0663 -412.536444 
L 649.7724 -415.36356 
L 667.4785 -417.149662 
L 685.1846 -417.955092 
L 702.8907 -416.863425 
L 720.5968 -419.346051 
L 738.3029 -422.850198 
L 756.009 -422.372731 
L 773.7151 -423.486267 
L 791.4212 -420.775943 
L 809.1273 -421.603817 
L 826.8334 -426.31366 
L 844.5395 -427.039611 
L 862.2456 -428.610581 
L 879.9517 -427.801934 
L 897.6578 -430.258004 
L 915.3639 -431.160774 
L 933.07 -431.715857 
L 933.07 -461.485287 
L 933.07 -461.485287 
L 915.3639 -460.349117 
L 897.6578 -458.165223 
L 879.9517 -455.943602 
L 862.2456 -454.994659 
L 844.5395 -456.808891 
L 826.8334 -454.797756 
L 809.1273 -454.865052 
L 791.4212 -453.37827 
L 773.7151 -454.446045 
L 756.009 -452.403996 
L 738.3029 -452.443593 
L 720.5968 -451.338683 
L 702.8907 -451.938465 
L 685.1846 -448.939007 
L 667.4785 -451.351292 
L 649.7724 -452.240645 
L 632.0663 -448.796599 
L 614.3602 -448.181251 
L 596.6541 -449.485849 
L 578.948 -448.371351 
L 561.2419 -446.518274 
L 543.5358 -443.602105 
L 525.8297 -444.87132 
L 508.1236 -444.463401 
L 490.4175 -441.283591 
L 472.7114 -440.743367 
L 455.0053 -440.741589 
L 437.2992 -438.935759 
L 419.5931 -437.005187 
L 401.887 -434.395081 
L 384.1809 -434.914563 
L 366.4748 -430.351904 
L 348.7687 -428.229644 
L 331.0626 -428.50862 
L 313.3565 -427.013431 
L 295.6504 -425.898438 
L 277.9443 -422.567973 
L 260.2382 -424.709263 
L 242.5321 -419.710684 
L 224.826 -414.066723 
L 207.1199 -418.161753 
L 189.4138 -420.79464 
L 171.7077 -418.08781 
L 154.0016 -415.278958 
L 136.2955 -414.128472 
L 118.5894 -410.199792 
L 100.8833 -408.446362 
L 83.1772 -410.952987 
L 65.4711 -410.36355 
L 47.765 -404.731828 
z
" style="stroke: #17becf; stroke-opacity: 0.2"/>
    </defs>
    <g clip-path="url(#pf5c52fb1a1)">
     <use xlink:href="#meb22a566d5" x="0" y="648" style="fill: #17becf; fill-opacity: 0.2; stroke: #17becf; stroke-opacity: 0.2"/>
    </g>
   </g>
   <g id="PolyCollection_11">
    <defs>
     <path id="madcea282d3" d="M 47.765 -397.617848 
L 47.765 -367.402425 
L 65.4711 -371.137688 
L 83.1772 -374.378439 
L 100.8833 -377.308987 
L 118.5894 -379.866309 
L 136.2955 -379.671263 
L 154.0016 -380.834139 
L 171.7077 -382.490227 
L 189.4138 -383.735693 
L 207.1199 -384.141826 
L 224.826 -384.327095 
L 242.5321 -387.046174 
L 260.2382 -386.376897 
L 277.9443 -386.187942 
L 295.6504 -387.690926 
L 313.3565 -388.693441 
L 331.0626 -389.482205 
L 348.7687 -390.114569 
L 366.4748 -390.91161 
L 384.1809 -391.735505 
L 401.887 -391.686543 
L 419.5931 -393.142292 
L 437.2992 -396.982691 
L 455.0053 -399.030219 
L 472.7114 -398.352805 
L 490.4175 -399.665227 
L 508.1236 -401.416538 
L 525.8297 -405.610186 
L 543.5358 -405.278276 
L 561.2419 -406.399453 
L 578.948 -406.849904 
L 596.6541 -413.803524 
L 614.3602 -413.828647 
L 632.0663 -416.437806 
L 649.7724 -413.919397 
L 667.4785 -417.595674 
L 685.1846 -418.702724 
L 702.8907 -419.893545 
L 720.5968 -418.694488 
L 738.3029 -421.425155 
L 756.009 -420.496931 
L 773.7151 -420.831575 
L 791.4212 -419.818994 
L 809.1273 -421.503008 
L 826.8334 -425.228173 
L 844.5395 -423.975498 
L 862.2456 -424.536692 
L 879.9517 -423.155599 
L 897.6578 -424.914387 
L 915.3639 -425.369142 
L 933.07 -426.780619 
L 933.07 -465.573068 
L 933.07 -465.573068 
L 915.3639 -466.662151 
L 897.6578 -462.902271 
L 879.9517 -461.756622 
L 862.2456 -460.915492 
L 844.5395 -460.611194 
L 826.8334 -457.785312 
L 809.1273 -457.364958 
L 791.4212 -456.7479 
L 773.7151 -457.082803 
L 756.009 -454.416913 
L 738.3029 -455.65812 
L 720.5968 -452.60524 
L 702.8907 -453.159783 
L 685.1846 -452.810407 
L 667.4785 -453.610882 
L 649.7724 -449.148157 
L 632.0663 -449.163315 
L 614.3602 -447.568297 
L 596.6541 -445.635734 
L 578.948 -442.856057 
L 561.2419 -442.391162 
L 543.5358 -441.735429 
L 525.8297 -437.364538 
L 508.1236 -436.373164 
L 490.4175 -437.528719 
L 472.7114 -433.605145 
L 455.0053 -431.547179 
L 437.2992 -430.553231 
L 419.5931 -431.205345 
L 401.887 -429.994567 
L 384.1809 -427.281042 
L 366.4748 -426.371478 
L 348.7687 -421.237982 
L 331.0626 -416.645966 
L 313.3565 -413.903444 
L 295.6504 -411.642375 
L 277.9443 -408.50228 
L 260.2382 -409.25761 
L 242.5321 -408.707382 
L 224.826 -408.065886 
L 207.1199 -407.248359 
L 189.4138 -408.248637 
L 171.7077 -408.199566 
L 154.0016 -404.678965 
L 136.2955 -406.664805 
L 118.5894 -407.377137 
L 100.8833 -403.993412 
L 83.1772 -402.153551 
L 65.4711 -399.791658 
L 47.765 -397.617848 
z
" style="stroke: #9edae5; stroke-opacity: 0.2"/>
    </defs>
    <g clip-path="url(#pf5c52fb1a1)">
     <use xlink:href="#madcea282d3" x="0" y="648" style="fill: #9edae5; fill-opacity: 0.2; stroke: #9edae5; stroke-opacity: 0.2"/>
    </g>
   </g>
   <g id="matplotlib.axis_1">
    <g id="xtick_1">
     <g id="line2d_1">
      <defs>
       <path id="m6f7da3c656" d="M 0 0 
L 0 3.5 
" style="stroke: #000000; stroke-width: 0.8"/>
      </defs>
      <g>
       <use xlink:href="#m6f7da3c656" x="47.765" y="606.04" style="stroke: #000000; stroke-width: 0.8"/>
      </g>
     </g>
     <g id="text_1">
      <!-- 30 -->
      <g transform="translate(41.4025 620.638438) scale(0.1 -0.1)">
       <defs>
        <path id="DejaVuSans-33" d="M 2597 2516 
Q 3050 2419 3304 2112 
Q 3559 1806 3559 1356 
Q 3559 666 3084 287 
Q 2609 -91 1734 -91 
Q 1441 -91 1130 -33 
Q 819 25 488 141 
L 488 750 
Q 750 597 1062 519 
Q 1375 441 1716 441 
Q 2309 441 2620 675 
Q 2931 909 2931 1356 
Q 2931 1769 2642 2001 
Q 2353 2234 1838 2234 
L 1294 2234 
L 1294 2753 
L 1863 2753 
Q 2328 2753 2575 2939 
Q 2822 3125 2822 3475 
Q 2822 3834 2567 4026 
Q 2313 4219 1838 4219 
Q 1578 4219 1281 4162 
Q 984 4106 628 3988 
L 628 4550 
Q 988 4650 1302 4700 
Q 1616 4750 1894 4750 
Q 2613 4750 3031 4423 
Q 3450 4097 3450 3541 
Q 3450 3153 3228 2886 
Q 3006 2619 2597 2516 
z
" transform="scale(0.015625)"/>
        <path id="DejaVuSans-30" d="M 2034 4250 
Q 1547 4250 1301 3770 
Q 1056 3291 1056 2328 
Q 1056 1369 1301 889 
Q 1547 409 2034 409 
Q 2525 409 2770 889 
Q 3016 1369 3016 2328 
Q 3016 3291 2770 3770 
Q 2525 4250 2034 4250 
z
M 2034 4750 
Q 2819 4750 3233 4129 
Q 3647 3509 3647 2328 
Q 3647 1150 3233 529 
Q 2819 -91 2034 -91 
Q 1250 -91 836 529 
Q 422 1150 422 2328 
Q 422 3509 836 4129 
Q 1250 4750 2034 4750 
z
" transform="scale(0.015625)"/>
       </defs>
       <use xlink:href="#DejaVuSans-33"/>
       <use xlink:href="#DejaVuSans-30" x="63.623047"/>
      </g>
     </g>
    </g>
    <g id="xtick_2">
     <g id="line2d_2">
      <g>
       <use xlink:href="#m6f7da3c656" x="224.826" y="606.04" style="stroke: #000000; stroke-width: 0.8"/>
      </g>
     </g>
     <g id="text_2">
      <!-- 40 -->
      <g transform="translate(218.4635 620.638438) scale(0.1 -0.1)">
       <defs>
        <path id="DejaVuSans-34" d="M 2419 4116 
L 825 1625 
L 2419 1625 
L 2419 4116 
z
M 2253 4666 
L 3047 4666 
L 3047 1625 
L 3713 1625 
L 3713 1100 
L 3047 1100 
L 3047 0 
L 2419 0 
L 2419 1100 
L 313 1100 
L 313 1709 
L 2253 4666 
z
" transform="scale(0.015625)"/>
       </defs>
       <use xlink:href="#DejaVuSans-34"/>
       <use xlink:href="#DejaVuSans-30" x="63.623047"/>
      </g>
     </g>
    </g>
    <g id="xtick_3">
     <g id="line2d_3">
      <g>
       <use xlink:href="#m6f7da3c656" x="401.887" y="606.04" style="stroke: #000000; stroke-width: 0.8"/>
      </g>
     </g>
     <g id="text_3">
      <!-- 50 -->
      <g transform="translate(395.5245 620.638438) scale(0.1 -0.1)">
       <defs>
        <path id="DejaVuSans-35" d="M 691 4666 
L 3169 4666 
L 3169 4134 
L 1269 4134 
L 1269 2991 
Q 1406 3038 1543 3061 
Q 1681 3084 1819 3084 
Q 2600 3084 3056 2656 
Q 3513 2228 3513 1497 
Q 3513 744 3044 326 
Q 2575 -91 1722 -91 
Q 1428 -91 1123 -41 
Q 819 9 494 109 
L 494 744 
Q 775 591 1075 516 
Q 1375 441 1709 441 
Q 2250 441 2565 725 
Q 2881 1009 2881 1497 
Q 2881 1984 2565 2268 
Q 2250 2553 1709 2553 
Q 1456 2553 1204 2497 
Q 953 2441 691 2322 
L 691 4666 
z
" transform="scale(0.015625)"/>
       </defs>
       <use xlink:href="#DejaVuSans-35"/>
       <use xlink:href="#DejaVuSans-30" x="63.623047"/>
      </g>
     </g>
    </g>
    <g id="xtick_4">
     <g id="line2d_4">
      <g>
       <use xlink:href="#m6f7da3c656" x="578.948" y="606.04" style="stroke: #000000; stroke-width: 0.8"/>
      </g>
     </g>
     <g id="text_4">
      <!-- 60 -->
      <g transform="translate(572.5855 620.638438) scale(0.1 -0.1)">
       <defs>
        <path id="DejaVuSans-36" d="M 2113 2584 
Q 1688 2584 1439 2293 
Q 1191 2003 1191 1497 
Q 1191 994 1439 701 
Q 1688 409 2113 409 
Q 2538 409 2786 701 
Q 3034 994 3034 1497 
Q 3034 2003 2786 2293 
Q 2538 2584 2113 2584 
z
M 3366 4563 
L 3366 3988 
Q 3128 4100 2886 4159 
Q 2644 4219 2406 4219 
Q 1781 4219 1451 3797 
Q 1122 3375 1075 2522 
Q 1259 2794 1537 2939 
Q 1816 3084 2150 3084 
Q 2853 3084 3261 2657 
Q 3669 2231 3669 1497 
Q 3669 778 3244 343 
Q 2819 -91 2113 -91 
Q 1303 -91 875 529 
Q 447 1150 447 2328 
Q 447 3434 972 4092 
Q 1497 4750 2381 4750 
Q 2619 4750 2861 4703 
Q 3103 4656 3366 4563 
z
" transform="scale(0.015625)"/>
       </defs>
       <use xlink:href="#DejaVuSans-36"/>
       <use xlink:href="#DejaVuSans-30" x="63.623047"/>
      </g>
     </g>
    </g>
    <g id="xtick_5">
     <g id="line2d_5">
      <g>
       <use xlink:href="#m6f7da3c656" x="756.009" y="606.04" style="stroke: #000000; stroke-width: 0.8"/>
      </g>
     </g>
     <g id="text_5">
      <!-- 70 -->
      <g transform="translate(749.6465 620.638438) scale(0.1 -0.1)">
       <defs>
        <path id="DejaVuSans-37" d="M 525 4666 
L 3525 4666 
L 3525 4397 
L 1831 0 
L 1172 0 
L 2766 4134 
L 525 4134 
L 525 4666 
z
" transform="scale(0.015625)"/>
       </defs>
       <use xlink:href="#DejaVuSans-37"/>
       <use xlink:href="#DejaVuSans-30" x="63.623047"/>
      </g>
     </g>
    </g>
    <g id="xtick_6">
     <g id="line2d_6">
      <g>
       <use xlink:href="#m6f7da3c656" x="933.07" y="606.04" style="stroke: #000000; stroke-width: 0.8"/>
      </g>
     </g>
     <g id="text_6">
      <!-- 80 -->
      <g transform="translate(926.7075 620.638438) scale(0.1 -0.1)">
       <defs>
        <path id="DejaVuSans-38" d="M 2034 2216 
Q 1584 2216 1326 1975 
Q 1069 1734 1069 1313 
Q 1069 891 1326 650 
Q 1584 409 2034 409 
Q 2484 409 2743 651 
Q 3003 894 3003 1313 
Q 3003 1734 2745 1975 
Q 2488 2216 2034 2216 
z
M 1403 2484 
Q 997 2584 770 2862 
Q 544 3141 544 3541 
Q 544 4100 942 4425 
Q 1341 4750 2034 4750 
Q 2731 4750 3128 4425 
Q 3525 4100 3525 3541 
Q 3525 3141 3298 2862 
Q 3072 2584 2669 2484 
Q 3125 2378 3379 2068 
Q 3634 1759 3634 1313 
Q 3634 634 3220 271 
Q 2806 -91 2034 -91 
Q 1263 -91 848 271 
Q 434 634 434 1313 
Q 434 1759 690 2068 
Q 947 2378 1403 2484 
z
M 1172 3481 
Q 1172 3119 1398 2916 
Q 1625 2713 2034 2713 
Q 2441 2713 2670 2916 
Q 2900 3119 2900 3481 
Q 2900 3844 2670 4047 
Q 2441 4250 2034 4250 
Q 1625 4250 1398 4047 
Q 1172 3844 1172 3481 
z
" transform="scale(0.015625)"/>
       </defs>
       <use xlink:href="#DejaVuSans-38"/>
       <use xlink:href="#DejaVuSans-30" x="63.623047"/>
      </g>
     </g>
    </g>
    <g id="text_7">
     <!-- Number of Baits -->
     <g transform="translate(449.885469 634.316563) scale(0.1 -0.1)">
      <defs>
       <path id="DejaVuSans-4e" d="M 628 4666 
L 1478 4666 
L 3547 763 
L 3547 4666 
L 4159 4666 
L 4159 0 
L 3309 0 
L 1241 3903 
L 1241 0 
L 628 0 
L 628 4666 
z
" transform="scale(0.015625)"/>
       <path id="DejaVuSans-75" d="M 544 1381 
L 544 3500 
L 1119 3500 
L 1119 1403 
Q 1119 906 1312 657 
Q 1506 409 1894 409 
Q 2359 409 2629 706 
Q 2900 1003 2900 1516 
L 2900 3500 
L 3475 3500 
L 3475 0 
L 2900 0 
L 2900 538 
Q 2691 219 2414 64 
Q 2138 -91 1772 -91 
Q 1169 -91 856 284 
Q 544 659 544 1381 
z
M 1991 3584 
L 1991 3584 
z
" transform="scale(0.015625)"/>
       <path id="DejaVuSans-6d" d="M 3328 2828 
Q 3544 3216 3844 3400 
Q 4144 3584 4550 3584 
Q 5097 3584 5394 3201 
Q 5691 2819 5691 2113 
L 5691 0 
L 5113 0 
L 5113 2094 
Q 5113 2597 4934 2840 
Q 4756 3084 4391 3084 
Q 3944 3084 3684 2787 
Q 3425 2491 3425 1978 
L 3425 0 
L 2847 0 
L 2847 2094 
Q 2847 2600 2669 2842 
Q 2491 3084 2119 3084 
Q 1678 3084 1418 2786 
Q 1159 2488 1159 1978 
L 1159 0 
L 581 0 
L 581 3500 
L 1159 3500 
L 1159 2956 
Q 1356 3278 1631 3431 
Q 1906 3584 2284 3584 
Q 2666 3584 2933 3390 
Q 3200 3197 3328 2828 
z
" transform="scale(0.015625)"/>
       <path id="DejaVuSans-62" d="M 3116 1747 
Q 3116 2381 2855 2742 
Q 2594 3103 2138 3103 
Q 1681 3103 1420 2742 
Q 1159 2381 1159 1747 
Q 1159 1113 1420 752 
Q 1681 391 2138 391 
Q 2594 391 2855 752 
Q 3116 1113 3116 1747 
z
M 1159 2969 
Q 1341 3281 1617 3432 
Q 1894 3584 2278 3584 
Q 2916 3584 3314 3078 
Q 3713 2572 3713 1747 
Q 3713 922 3314 415 
Q 2916 -91 2278 -91 
Q 1894 -91 1617 61 
Q 1341 213 1159 525 
L 1159 0 
L 581 0 
L 581 4863 
L 1159 4863 
L 1159 2969 
z
" transform="scale(0.015625)"/>
       <path id="DejaVuSans-65" d="M 3597 1894 
L 3597 1613 
L 953 1613 
Q 991 1019 1311 708 
Q 1631 397 2203 397 
Q 2534 397 2845 478 
Q 3156 559 3463 722 
L 3463 178 
Q 3153 47 2828 -22 
Q 2503 -91 2169 -91 
Q 1331 -91 842 396 
Q 353 884 353 1716 
Q 353 2575 817 3079 
Q 1281 3584 2069 3584 
Q 2775 3584 3186 3129 
Q 3597 2675 3597 1894 
z
M 3022 2063 
Q 3016 2534 2758 2815 
Q 2500 3097 2075 3097 
Q 1594 3097 1305 2825 
Q 1016 2553 972 2059 
L 3022 2063 
z
" transform="scale(0.015625)"/>
       <path id="DejaVuSans-72" d="M 2631 2963 
Q 2534 3019 2420 3045 
Q 2306 3072 2169 3072 
Q 1681 3072 1420 2755 
Q 1159 2438 1159 1844 
L 1159 0 
L 581 0 
L 581 3500 
L 1159 3500 
L 1159 2956 
Q 1341 3275 1631 3429 
Q 1922 3584 2338 3584 
Q 2397 3584 2469 3576 
Q 2541 3569 2628 3553 
L 2631 2963 
z
" transform="scale(0.015625)"/>
       <path id="DejaVuSans-20" transform="scale(0.015625)"/>
       <path id="DejaVuSans-6f" d="M 1959 3097 
Q 1497 3097 1228 2736 
Q 959 2375 959 1747 
Q 959 1119 1226 758 
Q 1494 397 1959 397 
Q 2419 397 2687 759 
Q 2956 1122 2956 1747 
Q 2956 2369 2687 2733 
Q 2419 3097 1959 3097 
z
M 1959 3584 
Q 2709 3584 3137 3096 
Q 3566 2609 3566 1747 
Q 3566 888 3137 398 
Q 2709 -91 1959 -91 
Q 1206 -91 779 398 
Q 353 888 353 1747 
Q 353 2609 779 3096 
Q 1206 3584 1959 3584 
z
" transform="scale(0.015625)"/>
       <path id="DejaVuSans-66" d="M 2375 4863 
L 2375 4384 
L 1825 4384 
Q 1516 4384 1395 4259 
Q 1275 4134 1275 3809 
L 1275 3500 
L 2222 3500 
L 2222 3053 
L 1275 3053 
L 1275 0 
L 697 0 
L 697 3053 
L 147 3053 
L 147 3500 
L 697 3500 
L 697 3744 
Q 697 4328 969 4595 
Q 1241 4863 1831 4863 
L 2375 4863 
z
" transform="scale(0.015625)"/>
       <path id="DejaVuSans-42" d="M 1259 2228 
L 1259 519 
L 2272 519 
Q 2781 519 3026 730 
Q 3272 941 3272 1375 
Q 3272 1813 3026 2020 
Q 2781 2228 2272 2228 
L 1259 2228 
z
M 1259 4147 
L 1259 2741 
L 2194 2741 
Q 2656 2741 2882 2914 
Q 3109 3088 3109 3444 
Q 3109 3797 2882 3972 
Q 2656 4147 2194 4147 
L 1259 4147 
z
M 628 4666 
L 2241 4666 
Q 2963 4666 3353 4366 
Q 3744 4066 3744 3513 
Q 3744 3084 3544 2831 
Q 3344 2578 2956 2516 
Q 3422 2416 3680 2098 
Q 3938 1781 3938 1306 
Q 3938 681 3513 340 
Q 3088 0 2303 0 
L 628 0 
L 628 4666 
z
" transform="scale(0.015625)"/>
       <path id="DejaVuSans-61" d="M 2194 1759 
Q 1497 1759 1228 1600 
Q 959 1441 959 1056 
Q 959 750 1161 570 
Q 1363 391 1709 391 
Q 2188 391 2477 730 
Q 2766 1069 2766 1631 
L 2766 1759 
L 2194 1759 
z
M 3341 1997 
L 3341 0 
L 2766 0 
L 2766 531 
Q 2569 213 2275 61 
Q 1981 -91 1556 -91 
Q 1019 -91 701 211 
Q 384 513 384 1019 
Q 384 1609 779 1909 
Q 1175 2209 1959 2209 
L 2766 2209 
L 2766 2266 
Q 2766 2663 2505 2880 
Q 2244 3097 1772 3097 
Q 1472 3097 1187 3025 
Q 903 2953 641 2809 
L 641 3341 
Q 956 3463 1253 3523 
Q 1550 3584 1831 3584 
Q 2591 3584 2966 3190 
Q 3341 2797 3341 1997 
z
" transform="scale(0.015625)"/>
       <path id="DejaVuSans-69" d="M 603 3500 
L 1178 3500 
L 1178 0 
L 603 0 
L 603 3500 
z
M 603 4863 
L 1178 4863 
L 1178 4134 
L 603 4134 
L 603 4863 
z
" transform="scale(0.015625)"/>
       <path id="DejaVuSans-74" d="M 1172 4494 
L 1172 3500 
L 2356 3500 
L 2356 3053 
L 1172 3053 
L 1172 1153 
Q 1172 725 1289 603 
Q 1406 481 1766 481 
L 2356 481 
L 2356 0 
L 1766 0 
Q 1100 0 847 248 
Q 594 497 594 1153 
L 594 3053 
L 172 3053 
L 172 3500 
L 594 3500 
L 594 4494 
L 1172 4494 
z
" transform="scale(0.015625)"/>
       <path id="DejaVuSans-73" d="M 2834 3397 
L 2834 2853 
Q 2591 2978 2328 3040 
Q 2066 3103 1784 3103 
Q 1356 3103 1142 2972 
Q 928 2841 928 2578 
Q 928 2378 1081 2264 
Q 1234 2150 1697 2047 
L 1894 2003 
Q 2506 1872 2764 1633 
Q 3022 1394 3022 966 
Q 3022 478 2636 193 
Q 2250 -91 1575 -91 
Q 1294 -91 989 -36 
Q 684 19 347 128 
L 347 722 
Q 666 556 975 473 
Q 1284 391 1588 391 
Q 1994 391 2212 530 
Q 2431 669 2431 922 
Q 2431 1156 2273 1281 
Q 2116 1406 1581 1522 
L 1381 1569 
Q 847 1681 609 1914 
Q 372 2147 372 2553 
Q 372 3047 722 3315 
Q 1072 3584 1716 3584 
Q 2034 3584 2315 3537 
Q 2597 3491 2834 3397 
z
" transform="scale(0.015625)"/>
      </defs>
      <use xlink:href="#DejaVuSans-4e"/>
      <use xlink:href="#DejaVuSans-75" x="74.804688"/>
      <use xlink:href="#DejaVuSans-6d" x="138.183594"/>
      <use xlink:href="#DejaVuSans-62" x="235.595703"/>
      <use xlink:href="#DejaVuSans-65" x="299.072266"/>
      <use xlink:href="#DejaVuSans-72" x="360.595703"/>
      <use xlink:href="#DejaVuSans-20" x="401.708984"/>
      <use xlink:href="#DejaVuSans-6f" x="433.496094"/>
      <use xlink:href="#DejaVuSans-66" x="494.677734"/>
      <use xlink:href="#DejaVuSans-20" x="529.882812"/>
      <use xlink:href="#DejaVuSans-42" x="561.669922"/>
      <use xlink:href="#DejaVuSans-61" x="630.273438"/>
      <use xlink:href="#DejaVuSans-69" x="691.552734"/>
      <use xlink:href="#DejaVuSans-74" x="719.335938"/>
      <use xlink:href="#DejaVuSans-73" x="758.544922"/>
     </g>
    </g>
   </g>
   <g id="matplotlib.axis_2">
    <g id="ytick_1">
     <g id="line2d_7">
      <defs>
       <path id="md08c8d3c1e" d="M 0 0 
L -3.5 0 
" style="stroke: #000000; stroke-width: 0.8"/>
      </defs>
      <g>
       <use xlink:href="#md08c8d3c1e" x="47.765" y="606.04" style="stroke: #000000; stroke-width: 0.8"/>
      </g>
     </g>
     <g id="text_8">
      <!-- 0.0 -->
      <g transform="translate(24.861875 609.839219) scale(0.1 -0.1)">
       <defs>
        <path id="DejaVuSans-2e" d="M 684 794 
L 1344 794 
L 1344 0 
L 684 0 
L 684 794 
z
" transform="scale(0.015625)"/>
       </defs>
       <use xlink:href="#DejaVuSans-30"/>
       <use xlink:href="#DejaVuSans-2e" x="63.623047"/>
       <use xlink:href="#DejaVuSans-30" x="95.410156"/>
      </g>
     </g>
    </g>
    <g id="ytick_2">
     <g id="line2d_8">
      <g>
       <use xlink:href="#md08c8d3c1e" x="47.765" y="490.9816" style="stroke: #000000; stroke-width: 0.8"/>
      </g>
     </g>
     <g id="text_9">
      <!-- 0.2 -->
      <g transform="translate(24.861875 494.780819) scale(0.1 -0.1)">
       <defs>
        <path id="DejaVuSans-32" d="M 1228 531 
L 3431 531 
L 3431 0 
L 469 0 
L 469 531 
Q 828 903 1448 1529 
Q 2069 2156 2228 2338 
Q 2531 2678 2651 2914 
Q 2772 3150 2772 3378 
Q 2772 3750 2511 3984 
Q 2250 4219 1831 4219 
Q 1534 4219 1204 4116 
Q 875 4013 500 3803 
L 500 4441 
Q 881 4594 1212 4672 
Q 1544 4750 1819 4750 
Q 2544 4750 2975 4387 
Q 3406 4025 3406 3419 
Q 3406 3131 3298 2873 
Q 3191 2616 2906 2266 
Q 2828 2175 2409 1742 
Q 1991 1309 1228 531 
z
" transform="scale(0.015625)"/>
       </defs>
       <use xlink:href="#DejaVuSans-30"/>
       <use xlink:href="#DejaVuSans-2e" x="63.623047"/>
       <use xlink:href="#DejaVuSans-32" x="95.410156"/>
      </g>
     </g>
    </g>
    <g id="ytick_3">
     <g id="line2d_9">
      <g>
       <use xlink:href="#md08c8d3c1e" x="47.765" y="375.9232" style="stroke: #000000; stroke-width: 0.8"/>
      </g>
     </g>
     <g id="text_10">
      <!-- 0.4 -->
      <g transform="translate(24.861875 379.722419) scale(0.1 -0.1)">
       <use xlink:href="#DejaVuSans-30"/>
       <use xlink:href="#DejaVuSans-2e" x="63.623047"/>
       <use xlink:href="#DejaVuSans-34" x="95.410156"/>
      </g>
     </g>
    </g>
    <g id="ytick_4">
     <g id="line2d_10">
      <g>
       <use xlink:href="#md08c8d3c1e" x="47.765" y="260.8648" style="stroke: #000000; stroke-width: 0.8"/>
      </g>
     </g>
     <g id="text_11">
      <!-- 0.6 -->
      <g transform="translate(24.861875 264.664019) scale(0.1 -0.1)">
       <use xlink:href="#DejaVuSans-30"/>
       <use xlink:href="#DejaVuSans-2e" x="63.623047"/>
       <use xlink:href="#DejaVuSans-36" x="95.410156"/>
      </g>
     </g>
    </g>
    <g id="ytick_5">
     <g id="line2d_11">
      <g>
       <use xlink:href="#md08c8d3c1e" x="47.765" y="145.8064" style="stroke: #000000; stroke-width: 0.8"/>
      </g>
     </g>
     <g id="text_12">
      <!-- 0.8 -->
      <g transform="translate(24.861875 149.605619) scale(0.1 -0.1)">
       <use xlink:href="#DejaVuSans-30"/>
       <use xlink:href="#DejaVuSans-2e" x="63.623047"/>
       <use xlink:href="#DejaVuSans-38" x="95.410156"/>
      </g>
     </g>
    </g>
    <g id="ytick_6">
     <g id="line2d_12">
      <g>
       <use xlink:href="#md08c8d3c1e" x="47.765" y="30.748" style="stroke: #000000; stroke-width: 0.8"/>
      </g>
     </g>
     <g id="text_13">
      <!-- 1.0 -->
      <g transform="translate(24.861875 34.547219) scale(0.1 -0.1)">
       <defs>
        <path id="DejaVuSans-31" d="M 794 531 
L 1825 531 
L 1825 4091 
L 703 3866 
L 703 4441 
L 1819 4666 
L 2450 4666 
L 2450 531 
L 3481 531 
L 3481 0 
L 794 0 
L 794 531 
z
" transform="scale(0.015625)"/>
       </defs>
       <use xlink:href="#DejaVuSans-31"/>
       <use xlink:href="#DejaVuSans-2e" x="63.623047"/>
       <use xlink:href="#DejaVuSans-30" x="95.410156"/>
      </g>
     </g>
    </g>
    <g id="text_14">
     <!-- Aggregated ARI Scores -->
     <g transform="translate(18.782187 375.786188) rotate(-90) scale(0.1 -0.1)">
      <defs>
       <path id="DejaVuSans-41" d="M 2188 4044 
L 1331 1722 
L 3047 1722 
L 2188 4044 
z
M 1831 4666 
L 2547 4666 
L 4325 0 
L 3669 0 
L 3244 1197 
L 1141 1197 
L 716 0 
L 50 0 
L 1831 4666 
z
" transform="scale(0.015625)"/>
       <path id="DejaVuSans-67" d="M 2906 1791 
Q 2906 2416 2648 2759 
Q 2391 3103 1925 3103 
Q 1463 3103 1205 2759 
Q 947 2416 947 1791 
Q 947 1169 1205 825 
Q 1463 481 1925 481 
Q 2391 481 2648 825 
Q 2906 1169 2906 1791 
z
M 3481 434 
Q 3481 -459 3084 -895 
Q 2688 -1331 1869 -1331 
Q 1566 -1331 1297 -1286 
Q 1028 -1241 775 -1147 
L 775 -588 
Q 1028 -725 1275 -790 
Q 1522 -856 1778 -856 
Q 2344 -856 2625 -561 
Q 2906 -266 2906 331 
L 2906 616 
Q 2728 306 2450 153 
Q 2172 0 1784 0 
Q 1141 0 747 490 
Q 353 981 353 1791 
Q 353 2603 747 3093 
Q 1141 3584 1784 3584 
Q 2172 3584 2450 3431 
Q 2728 3278 2906 2969 
L 2906 3500 
L 3481 3500 
L 3481 434 
z
" transform="scale(0.015625)"/>
       <path id="DejaVuSans-64" d="M 2906 2969 
L 2906 4863 
L 3481 4863 
L 3481 0 
L 2906 0 
L 2906 525 
Q 2725 213 2448 61 
Q 2172 -91 1784 -91 
Q 1150 -91 751 415 
Q 353 922 353 1747 
Q 353 2572 751 3078 
Q 1150 3584 1784 3584 
Q 2172 3584 2448 3432 
Q 2725 3281 2906 2969 
z
M 947 1747 
Q 947 1113 1208 752 
Q 1469 391 1925 391 
Q 2381 391 2643 752 
Q 2906 1113 2906 1747 
Q 2906 2381 2643 2742 
Q 2381 3103 1925 3103 
Q 1469 3103 1208 2742 
Q 947 2381 947 1747 
z
" transform="scale(0.015625)"/>
       <path id="DejaVuSans-52" d="M 2841 2188 
Q 3044 2119 3236 1894 
Q 3428 1669 3622 1275 
L 4263 0 
L 3584 0 
L 2988 1197 
Q 2756 1666 2539 1819 
Q 2322 1972 1947 1972 
L 1259 1972 
L 1259 0 
L 628 0 
L 628 4666 
L 2053 4666 
Q 2853 4666 3247 4331 
Q 3641 3997 3641 3322 
Q 3641 2881 3436 2590 
Q 3231 2300 2841 2188 
z
M 1259 4147 
L 1259 2491 
L 2053 2491 
Q 2509 2491 2742 2702 
Q 2975 2913 2975 3322 
Q 2975 3731 2742 3939 
Q 2509 4147 2053 4147 
L 1259 4147 
z
" transform="scale(0.015625)"/>
       <path id="DejaVuSans-49" d="M 628 4666 
L 1259 4666 
L 1259 0 
L 628 0 
L 628 4666 
z
" transform="scale(0.015625)"/>
       <path id="DejaVuSans-53" d="M 3425 4513 
L 3425 3897 
Q 3066 4069 2747 4153 
Q 2428 4238 2131 4238 
Q 1616 4238 1336 4038 
Q 1056 3838 1056 3469 
Q 1056 3159 1242 3001 
Q 1428 2844 1947 2747 
L 2328 2669 
Q 3034 2534 3370 2195 
Q 3706 1856 3706 1288 
Q 3706 609 3251 259 
Q 2797 -91 1919 -91 
Q 1588 -91 1214 -16 
Q 841 59 441 206 
L 441 856 
Q 825 641 1194 531 
Q 1563 422 1919 422 
Q 2459 422 2753 634 
Q 3047 847 3047 1241 
Q 3047 1584 2836 1778 
Q 2625 1972 2144 2069 
L 1759 2144 
Q 1053 2284 737 2584 
Q 422 2884 422 3419 
Q 422 4038 858 4394 
Q 1294 4750 2059 4750 
Q 2388 4750 2728 4690 
Q 3069 4631 3425 4513 
z
" transform="scale(0.015625)"/>
       <path id="DejaVuSans-63" d="M 3122 3366 
L 3122 2828 
Q 2878 2963 2633 3030 
Q 2388 3097 2138 3097 
Q 1578 3097 1268 2742 
Q 959 2388 959 1747 
Q 959 1106 1268 751 
Q 1578 397 2138 397 
Q 2388 397 2633 464 
Q 2878 531 3122 666 
L 3122 134 
Q 2881 22 2623 -34 
Q 2366 -91 2075 -91 
Q 1284 -91 818 406 
Q 353 903 353 1747 
Q 353 2603 823 3093 
Q 1294 3584 2113 3584 
Q 2378 3584 2631 3529 
Q 2884 3475 3122 3366 
z
" transform="scale(0.015625)"/>
      </defs>
      <use xlink:href="#DejaVuSans-41"/>
      <use xlink:href="#DejaVuSans-67" x="68.408203"/>
      <use xlink:href="#DejaVuSans-67" x="131.884766"/>
      <use xlink:href="#DejaVuSans-72" x="195.361328"/>
      <use xlink:href="#DejaVuSans-65" x="234.224609"/>
      <use xlink:href="#DejaVuSans-67" x="295.748047"/>
      <use xlink:href="#DejaVuSans-61" x="359.224609"/>
      <use xlink:href="#DejaVuSans-74" x="420.503906"/>
      <use xlink:href="#DejaVuSans-65" x="459.712891"/>
      <use xlink:href="#DejaVuSans-64" x="521.236328"/>
      <use xlink:href="#DejaVuSans-20" x="584.712891"/>
      <use xlink:href="#DejaVuSans-41" x="616.5"/>
      <use xlink:href="#DejaVuSans-52" x="684.908203"/>
      <use xlink:href="#DejaVuSans-49" x="754.390625"/>
      <use xlink:href="#DejaVuSans-20" x="783.882812"/>
      <use xlink:href="#DejaVuSans-53" x="815.669922"/>
      <use xlink:href="#DejaVuSans-63" x="879.146484"/>
      <use xlink:href="#DejaVuSans-6f" x="934.126953"/>
      <use xlink:href="#DejaVuSans-72" x="995.308594"/>
      <use xlink:href="#DejaVuSans-65" x="1034.171875"/>
      <use xlink:href="#DejaVuSans-73" x="1095.695312"/>
     </g>
    </g>
   </g>
   <g id="line2d_13">
    <path d="M 47.765 284.797968 
L 65.4711 280.247967 
L 83.1772 277.878634 
L 100.8833 279.062669 
L 118.5894 277.872821 
L 136.2955 272.308043 
L 154.0016 266.597025 
L 171.7077 270.643743 
L 189.4138 267.948627 
L 207.1199 274.61874 
L 224.826 270.487089 
L 242.5321 268.479057 
L 260.2382 270.030155 
L 277.9443 269.003827 
L 295.6504 266.8934 
L 313.3565 265.78401 
L 331.0626 264.059988 
L 348.7687 269.516804 
L 366.4748 269.821548 
L 384.1809 258.000509 
L 401.887 263.151141 
L 419.5931 265.9158 
L 437.2992 260.690436 
L 455.0053 254.58744 
L 472.7114 255.1922 
L 490.4175 260.130441 
L 508.1236 262.36599 
L 525.8297 261.152802 
L 543.5358 260.176819 
L 561.2419 246.703089 
L 578.948 258.368571 
L 596.6541 251.801582 
L 614.3602 247.444899 
L 632.0663 248.408873 
L 649.7724 244.779011 
L 667.4785 242.483158 
L 685.1846 246.178121 
L 702.8907 240.972283 
L 720.5968 234.93549 
L 738.3029 234.90472 
L 756.009 235.574719 
L 773.7151 236.118579 
L 791.4212 231.269657 
L 809.1273 228.175211 
L 826.8334 223.963381 
L 844.5395 222.742368 
L 862.2456 228.697729 
L 879.9517 226.640561 
L 897.6578 219.281273 
L 915.3639 223.191061 
L 933.07 210.502045 
" clip-path="url(#pf5c52fb1a1)" style="fill: none; stroke: #1f77b4; stroke-width: 1.5; stroke-linecap: square"/>
   </g>
   <g id="line2d_14">
    <path d="M 47.765 375.623684 
L 65.4711 349.613157 
L 83.1772 364.393033 
L 100.8833 358.878942 
L 118.5894 352.943659 
L 136.2955 357.941956 
L 154.0016 344.164395 
L 171.7077 354.756294 
L 189.4138 344.597031 
L 207.1199 341.031764 
L 224.826 349.972226 
L 242.5321 345.686135 
L 260.2382 340.898247 
L 277.9443 340.189955 
L 295.6504 339.799117 
L 313.3565 338.244571 
L 331.0626 351.168986 
L 348.7687 330.969473 
L 366.4748 350.437885 
L 384.1809 345.451382 
L 401.887 336.754076 
L 419.5931 330.630934 
L 437.2992 340.886369 
L 455.0053 342.012821 
L 472.7114 336.503412 
L 490.4175 332.878036 
L 508.1236 334.113232 
L 525.8297 334.345236 
L 543.5358 329.048434 
L 561.2419 325.696613 
L 578.948 324.37349 
L 596.6541 333.66506 
L 614.3602 325.01444 
L 632.0663 328.179702 
L 649.7724 317.628453 
L 667.4785 316.16225 
L 685.1846 321.757714 
L 702.8907 313.996275 
L 720.5968 315.617702 
L 738.3029 310.338221 
L 756.009 297.103691 
L 773.7151 316.07253 
L 791.4212 313.450994 
L 809.1273 308.592092 
L 826.8334 302.420751 
L 844.5395 302.632348 
L 862.2456 303.392423 
L 879.9517 307.974818 
L 897.6578 307.48836 
L 915.3639 308.108792 
L 933.07 297.36793 
" clip-path="url(#pf5c52fb1a1)" style="fill: none; stroke: #ff7f0e; stroke-width: 1.5; stroke-linecap: square"/>
   </g>
   <g id="line2d_15">
    <path d="M 47.765 263.720922 
L 65.4711 262.557225 
L 83.1772 258.047068 
L 100.8833 256.064688 
L 118.5894 251.573639 
L 136.2955 252.787873 
L 154.0016 250.821619 
L 171.7077 251.617897 
L 189.4138 250.752112 
L 207.1199 246.625356 
L 224.826 243.944069 
L 242.5321 240.552384 
L 260.2382 238.320698 
L 277.9443 235.449247 
L 295.6504 231.98382 
L 313.3565 230.820468 
L 331.0626 227.489209 
L 348.7687 225.042344 
L 366.4748 219.958717 
L 384.1809 216.73942 
L 401.887 212.277093 
L 419.5931 211.419522 
L 437.2992 210.92108 
L 455.0053 209.918546 
L 472.7114 208.348473 
L 490.4175 206.79672 
L 508.1236 205.93862 
L 525.8297 205.281242 
L 543.5358 203.865966 
L 561.2419 201.035602 
L 578.948 201.666026 
L 596.6541 198.1104 
L 614.3602 196.488782 
L 632.0663 195.840889 
L 649.7724 194.485126 
L 667.4785 193.151693 
L 685.1846 193.983499 
L 702.8907 194.096303 
L 720.5968 194.312688 
L 738.3029 193.503241 
L 756.009 194.475303 
L 773.7151 194.048136 
L 791.4212 194.002433 
L 809.1273 193.998084 
L 826.8334 195.278239 
L 844.5395 194.848415 
L 862.2456 193.536172 
L 879.9517 192.810219 
L 897.6578 193.075119 
L 915.3639 191.243648 
L 933.07 190.236534 
" clip-path="url(#pf5c52fb1a1)" style="fill: none; stroke: #2ca02c; stroke-width: 1.5; stroke-linecap: square"/>
   </g>
   <g id="line2d_16">
    <path d="M 47.765 264.142875 
L 65.4711 263.647926 
L 83.1772 260.860646 
L 100.8833 257.839487 
L 118.5894 258.43632 
L 136.2955 256.447188 
L 154.0016 253.182468 
L 171.7077 250.758043 
L 189.4138 249.926409 
L 207.1199 249.366761 
L 224.826 248.175878 
L 242.5321 247.753489 
L 260.2382 248.158119 
L 277.9443 246.149741 
L 295.6504 243.357878 
L 313.3565 242.520238 
L 331.0626 242.688011 
L 348.7687 239.121692 
L 366.4748 237.791245 
L 384.1809 236.339766 
L 401.887 234.327417 
L 419.5931 230.781099 
L 437.2992 228.288161 
L 455.0053 225.65517 
L 472.7114 224.902321 
L 490.4175 223.382136 
L 508.1236 219.865052 
L 525.8297 218.065495 
L 543.5358 218.196625 
L 561.2419 215.487743 
L 578.948 213.357065 
L 596.6541 212.511972 
L 614.3602 210.85348 
L 632.0663 212.520827 
L 649.7724 213.455033 
L 667.4785 212.286841 
L 685.1846 209.751674 
L 702.8907 211.069769 
L 720.5968 207.382897 
L 738.3029 207.715852 
L 756.009 206.172373 
L 773.7151 207.172089 
L 791.4212 205.569419 
L 809.1273 205.744832 
L 826.8334 205.987139 
L 844.5395 204.67469 
L 862.2456 203.432618 
L 879.9517 202.586582 
L 897.6578 201.443789 
L 915.3639 198.539742 
L 933.07 197.070206 
" clip-path="url(#pf5c52fb1a1)" style="fill: none; stroke: #d62728; stroke-width: 1.5; stroke-linecap: square"/>
   </g>
   <g id="line2d_17">
    <path d="M 47.765 283.056152 
L 65.4711 281.027855 
L 83.1772 280.686036 
L 100.8833 279.886189 
L 118.5894 275.524617 
L 136.2955 271.973632 
L 154.0016 271.832376 
L 171.7077 268.627379 
L 189.4138 268.459574 
L 207.1199 265.591097 
L 224.826 264.746644 
L 242.5321 262.417275 
L 260.2382 259.569342 
L 277.9443 255.378513 
L 295.6504 256.831128 
L 313.3565 255.30549 
L 331.0626 252.790905 
L 348.7687 249.309497 
L 366.4748 247.824259 
L 384.1809 243.682565 
L 401.887 243.373235 
L 419.5931 241.029234 
L 437.2992 238.922201 
L 455.0053 235.835663 
L 472.7114 235.876901 
L 490.4175 233.856981 
L 508.1236 231.606354 
L 525.8297 230.117099 
L 543.5358 229.555749 
L 561.2419 227.751476 
L 578.948 228.384459 
L 596.6541 225.891131 
L 614.3602 223.242409 
L 632.0663 222.435725 
L 649.7724 221.490019 
L 667.4785 219.974133 
L 685.1846 217.840913 
L 702.8907 216.442835 
L 720.5968 216.412 
L 738.3029 214.825759 
L 756.009 211.698392 
L 773.7151 211.039979 
L 791.4212 210.515241 
L 809.1273 207.537446 
L 826.8334 207.824138 
L 844.5395 205.591913 
L 862.2456 204.895285 
L 879.9517 204.535827 
L 897.6578 203.746883 
L 915.3639 203.994136 
L 933.07 202.921613 
" clip-path="url(#pf5c52fb1a1)" style="fill: none; stroke: #9467bd; stroke-width: 1.5; stroke-linecap: square"/>
   </g>
   <g id="line2d_18">
    <path d="M 47.765 275.687974 
L 65.4711 273.775587 
L 83.1772 272.083317 
L 100.8833 268.04218 
L 118.5894 266.719302 
L 136.2955 263.268695 
L 154.0016 254.440864 
L 171.7077 249.815508 
L 189.4138 246.175615 
L 207.1199 241.143306 
L 224.826 235.98018 
L 242.5321 233.68388 
L 260.2382 232.3746 
L 277.9443 226.97913 
L 295.6504 226.048445 
L 313.3565 227.478547 
L 331.0626 222.187916 
L 348.7687 220.632131 
L 366.4748 219.541646 
L 384.1809 218.841567 
L 401.887 217.391728 
L 419.5931 214.177406 
L 437.2992 214.994835 
L 455.0053 214.180044 
L 472.7114 211.315313 
L 490.4175 210.031349 
L 508.1236 211.039721 
L 525.8297 208.334339 
L 543.5358 206.130363 
L 561.2419 204.69142 
L 578.948 205.000748 
L 596.6541 203.94131 
L 614.3602 205.851544 
L 632.0663 205.256627 
L 649.7724 202.510817 
L 667.4785 200.627572 
L 685.1846 195.520398 
L 702.8907 197.472153 
L 720.5968 196.066953 
L 738.3029 191.01794 
L 756.009 192.370035 
L 773.7151 190.687776 
L 791.4212 191.076869 
L 809.1273 191.364095 
L 826.8334 190.552769 
L 844.5395 189.912764 
L 862.2456 189.261862 
L 879.9517 187.60668 
L 897.6578 186.810162 
L 915.3639 187.089476 
L 933.07 185.926396 
" clip-path="url(#pf5c52fb1a1)" style="fill: none; stroke: #8c564b; stroke-width: 1.5; stroke-linecap: square"/>
   </g>
   <g id="line2d_19">
    <path d="M 47.765 256.104455 
L 65.4711 253.706239 
L 83.1772 253.539823 
L 100.8833 247.991499 
L 118.5894 246.923774 
L 136.2955 246.022038 
L 154.0016 244.413833 
L 171.7077 243.616462 
L 189.4138 243.412344 
L 207.1199 241.96408 
L 224.826 241.856366 
L 242.5321 237.573086 
L 260.2382 237.546473 
L 277.9443 236.123902 
L 295.6504 230.654249 
L 313.3565 229.559936 
L 331.0626 229.59171 
L 348.7687 226.414467 
L 366.4748 225.401001 
L 384.1809 227.236627 
L 401.887 222.936169 
L 419.5931 219.901331 
L 437.2992 218.619049 
L 455.0053 217.62726 
L 472.7114 214.967783 
L 490.4175 214.404487 
L 508.1236 212.853462 
L 525.8297 211.037446 
L 543.5358 211.194038 
L 561.2419 209.09608 
L 578.948 209.509483 
L 596.6541 208.016255 
L 614.3602 205.319755 
L 632.0663 205.523005 
L 649.7724 205.142939 
L 667.4785 204.184507 
L 685.1846 201.835874 
L 702.8907 201.878254 
L 720.5968 199.481736 
L 738.3029 197.858792 
L 756.009 194.895464 
L 773.7151 195.641621 
L 791.4212 194.52076 
L 809.1273 192.967166 
L 826.8334 193.007326 
L 844.5395 191.107471 
L 862.2456 189.025536 
L 879.9517 187.202077 
L 897.6578 187.618632 
L 915.3639 184.551583 
L 933.07 184.114088 
" clip-path="url(#pf5c52fb1a1)" style="fill: none; stroke: #e377c2; stroke-width: 1.5; stroke-linecap: square"/>
   </g>
   <g id="line2d_20">
    <path d="M 47.765 265.396003 
L 65.4711 263.499868 
L 83.1772 260.759302 
L 100.8833 257.386341 
L 118.5894 250.61143 
L 136.2955 250.287929 
L 154.0016 247.0576 
L 171.7077 245.346702 
L 189.4138 244.365359 
L 207.1199 242.109679 
L 224.826 240.628164 
L 242.5321 236.251814 
L 260.2382 236.83464 
L 277.9443 230.368368 
L 295.6504 226.526131 
L 313.3565 224.224474 
L 331.0626 223.437548 
L 348.7687 219.590168 
L 366.4748 218.820948 
L 384.1809 215.497575 
L 401.887 215.382586 
L 419.5931 214.530433 
L 437.2992 213.182031 
L 455.0053 213.115484 
L 472.7114 210.790117 
L 490.4175 208.443281 
L 508.1236 209.623224 
L 525.8297 206.370655 
L 543.5358 204.887946 
L 561.2419 205.745859 
L 578.948 206.568244 
L 596.6541 204.983111 
L 614.3602 205.099679 
L 632.0663 203.090017 
L 649.7724 202.024165 
L 667.4785 204.241653 
L 685.1846 199.720402 
L 702.8907 200.122354 
L 720.5968 199.481113 
L 738.3029 197.453966 
L 756.009 193.372822 
L 773.7151 194.651479 
L 791.4212 191.934744 
L 809.1273 191.016187 
L 826.8334 189.180675 
L 844.5395 188.010182 
L 862.2456 188.697611 
L 879.9517 187.420794 
L 897.6578 185.589591 
L 915.3639 184.479322 
L 933.07 181.124332 
" clip-path="url(#pf5c52fb1a1)" style="fill: none; stroke: #7f7f7f; stroke-width: 1.5; stroke-linecap: square"/>
   </g>
   <g id="line2d_21">
    <path d="M 47.765 252.248121 
L 65.4711 244.143686 
L 83.1772 240.149391 
L 100.8833 233.300497 
L 118.5894 230.603541 
L 136.2955 226.910996 
L 154.0016 222.714822 
L 171.7077 221.129135 
L 189.4138 215.188256 
L 207.1199 215.028464 
L 224.826 214.108583 
L 242.5321 213.225291 
L 260.2382 211.711783 
L 277.9443 210.488985 
L 295.6504 209.309037 
L 313.3565 208.021685 
L 331.0626 207.083365 
L 348.7687 208.287153 
L 366.4748 207.962437 
L 384.1809 207.5726 
L 401.887 208.710855 
L 419.5931 210.044878 
L 437.2992 208.842789 
L 455.0053 210.773535 
L 472.7114 211.635772 
L 490.4175 209.393424 
L 508.1236 209.912055 
L 525.8297 209.4139 
L 543.5358 207.706332 
L 561.2419 207.097935 
L 578.948 208.652579 
L 596.6541 205.960923 
L 614.3602 206.341503 
L 632.0663 205.934907 
L 649.7724 205.046966 
L 667.4785 201.707755 
L 685.1846 203.991569 
L 702.8907 201.333032 
L 720.5968 201.425792 
L 738.3029 199.58136 
L 756.009 198.294205 
L 773.7151 195.248393 
L 791.4212 195.055394 
L 809.1273 191.92127 
L 826.8334 190.632149 
L 844.5395 187.376599 
L 862.2456 185.980884 
L 879.9517 183.520657 
L 897.6578 180.809558 
L 915.3639 179.507801 
L 933.07 178.24834 
" clip-path="url(#pf5c52fb1a1)" style="fill: none; stroke: #bcbd22; stroke-width: 1.5; stroke-linecap: square"/>
   </g>
   <g id="line2d_22">
    <path d="M 47.765 259.872742 
L 65.4711 256.023912 
L 83.1772 255.991163 
L 100.8833 256.04205 
L 118.5894 253.331574 
L 136.2955 251.168166 
L 154.0016 248.540392 
L 171.7077 247.146265 
L 189.4138 244.998733 
L 207.1199 245.553001 
L 224.826 248.074082 
L 242.5321 244.601358 
L 260.2382 241.751626 
L 277.9443 242.035371 
L 295.6504 238.99028 
L 313.3565 238.573727 
L 331.0626 236.950637 
L 348.7687 236.841192 
L 366.4748 234.711144 
L 384.1809 230.440113 
L 401.887 230.521891 
L 419.5931 228.598742 
L 437.2992 227.576703 
L 455.0053 224.273802 
L 472.7114 223.80472 
L 490.4175 223.269162 
L 508.1236 220.399518 
L 525.8297 220.649744 
L 543.5358 220.532153 
L 561.2419 217.653243 
L 578.948 217.766572 
L 596.6541 218.195595 
L 614.3602 218.965319 
L 632.0663 217.333478 
L 649.7724 214.197897 
L 667.4785 213.749523 
L 685.1846 214.552951 
L 702.8907 213.599055 
L 720.5968 212.657633 
L 738.3029 210.353104 
L 756.009 210.611636 
L 773.7151 209.033844 
L 791.4212 210.922894 
L 809.1273 209.765565 
L 826.8334 207.444292 
L 844.5395 206.075749 
L 862.2456 206.19738 
L 879.9517 206.127232 
L 897.6578 203.788387 
L 915.3639 202.245054 
L 933.07 201.399428 
" clip-path="url(#pf5c52fb1a1)" style="fill: none; stroke: #17becf; stroke-width: 1.5; stroke-linecap: square"/>
   </g>
   <g id="line2d_23">
    <path d="M 47.765 265.489864 
L 65.4711 262.535327 
L 83.1772 259.734005 
L 100.8833 257.348801 
L 118.5894 254.378277 
L 136.2955 254.831966 
L 154.0016 255.243448 
L 171.7077 252.655104 
L 189.4138 252.007835 
L 207.1199 252.304907 
L 224.826 251.803509 
L 242.5321 250.123222 
L 260.2382 250.182746 
L 277.9443 250.654889 
L 295.6504 248.333349 
L 313.3565 246.701557 
L 331.0626 244.935915 
L 348.7687 242.323724 
L 366.4748 239.358456 
L 384.1809 238.491727 
L 401.887 237.159445 
L 419.5931 235.826181 
L 437.2992 234.232039 
L 455.0053 232.711301 
L 472.7114 232.021025 
L 490.4175 229.403027 
L 508.1236 229.105149 
L 525.8297 226.512638 
L 543.5358 224.493147 
L 561.2419 223.604693 
L 578.948 223.14702 
L 596.6541 218.280371 
L 614.3602 217.301528 
L 632.0663 215.19944 
L 649.7724 216.466223 
L 667.4785 212.396722 
L 685.1846 212.243435 
L 702.8907 211.473336 
L 720.5968 212.350136 
L 738.3029 209.458363 
L 756.009 210.543078 
L 773.7151 209.042811 
L 791.4212 209.716553 
L 809.1273 208.566017 
L 826.8334 206.493258 
L 844.5395 205.706654 
L 862.2456 205.273908 
L 879.9517 205.543889 
L 897.6578 204.091671 
L 915.3639 201.984354 
L 933.07 201.823156 
" clip-path="url(#pf5c52fb1a1)" style="fill: none; stroke: #9edae5; stroke-width: 1.5; stroke-linecap: square"/>
   </g>
   <g id="patch_3">
    <path d="M 47.765 606.04 
L 47.765 30.748 
" style="fill: none; stroke: #000000; stroke-width: 0.8; stroke-linejoin: miter; stroke-linecap: square"/>
   </g>
   <g id="patch_4">
    <path d="M 933.07 606.04 
L 933.07 30.748 
" style="fill: none; stroke: #000000; stroke-width: 0.8; stroke-linejoin: miter; stroke-linecap: square"/>
   </g>
   <g id="patch_5">
    <path d="M 47.765 606.04 
L 933.07 606.04 
" style="fill: none; stroke: #000000; stroke-width: 0.8; stroke-linejoin: miter; stroke-linecap: square"/>
   </g>
   <g id="patch_6">
    <path d="M 47.765 30.748 
L 933.07 30.748 
" style="fill: none; stroke: #000000; stroke-width: 0.8; stroke-linejoin: miter; stroke-linecap: square"/>
   </g>
   <g id="text_15">
    <!-- ARI Scores by Number of Baits for Each Method -->
    <g transform="translate(347.682188 24.748) scale(0.12 -0.12)">
     <defs>
      <path id="DejaVuSans-79" d="M 2059 -325 
Q 1816 -950 1584 -1140 
Q 1353 -1331 966 -1331 
L 506 -1331 
L 506 -850 
L 844 -850 
Q 1081 -850 1212 -737 
Q 1344 -625 1503 -206 
L 1606 56 
L 191 3500 
L 800 3500 
L 1894 763 
L 2988 3500 
L 3597 3500 
L 2059 -325 
z
" transform="scale(0.015625)"/>
      <path id="DejaVuSans-45" d="M 628 4666 
L 3578 4666 
L 3578 4134 
L 1259 4134 
L 1259 2753 
L 3481 2753 
L 3481 2222 
L 1259 2222 
L 1259 531 
L 3634 531 
L 3634 0 
L 628 0 
L 628 4666 
z
" transform="scale(0.015625)"/>
      <path id="DejaVuSans-68" d="M 3513 2113 
L 3513 0 
L 2938 0 
L 2938 2094 
Q 2938 2591 2744 2837 
Q 2550 3084 2163 3084 
Q 1697 3084 1428 2787 
Q 1159 2491 1159 1978 
L 1159 0 
L 581 0 
L 581 4863 
L 1159 4863 
L 1159 2956 
Q 1366 3272 1645 3428 
Q 1925 3584 2291 3584 
Q 2894 3584 3203 3211 
Q 3513 2838 3513 2113 
z
" transform="scale(0.015625)"/>
      <path id="DejaVuSans-4d" d="M 628 4666 
L 1569 4666 
L 2759 1491 
L 3956 4666 
L 4897 4666 
L 4897 0 
L 4281 0 
L 4281 4097 
L 3078 897 
L 2444 897 
L 1241 4097 
L 1241 0 
L 628 0 
L 628 4666 
z
" transform="scale(0.015625)"/>
     </defs>
     <use xlink:href="#DejaVuSans-41"/>
     <use xlink:href="#DejaVuSans-52" x="68.408203"/>
     <use xlink:href="#DejaVuSans-49" x="137.890625"/>
     <use xlink:href="#DejaVuSans-20" x="167.382812"/>
     <use xlink:href="#DejaVuSans-53" x="199.169922"/>
     <use xlink:href="#DejaVuSans-63" x="262.646484"/>
     <use xlink:href="#DejaVuSans-6f" x="317.626953"/>
     <use xlink:href="#DejaVuSans-72" x="378.808594"/>
     <use xlink:href="#DejaVuSans-65" x="417.671875"/>
     <use xlink:href="#DejaVuSans-73" x="479.195312"/>
     <use xlink:href="#DejaVuSans-20" x="531.294922"/>
     <use xlink:href="#DejaVuSans-62" x="563.082031"/>
     <use xlink:href="#DejaVuSans-79" x="626.558594"/>
     <use xlink:href="#DejaVuSans-20" x="685.738281"/>
     <use xlink:href="#DejaVuSans-4e" x="717.525391"/>
     <use xlink:href="#DejaVuSans-75" x="792.330078"/>
     <use xlink:href="#DejaVuSans-6d" x="855.708984"/>
     <use xlink:href="#DejaVuSans-62" x="953.121094"/>
     <use xlink:href="#DejaVuSans-65" x="1016.597656"/>
     <use xlink:href="#DejaVuSans-72" x="1078.121094"/>
     <use xlink:href="#DejaVuSans-20" x="1119.234375"/>
     <use xlink:href="#DejaVuSans-6f" x="1151.021484"/>
     <use xlink:href="#DejaVuSans-66" x="1212.203125"/>
     <use xlink:href="#DejaVuSans-20" x="1247.408203"/>
     <use xlink:href="#DejaVuSans-42" x="1279.195312"/>
     <use xlink:href="#DejaVuSans-61" x="1347.798828"/>
     <use xlink:href="#DejaVuSans-69" x="1409.078125"/>
     <use xlink:href="#DejaVuSans-74" x="1436.861328"/>
     <use xlink:href="#DejaVuSans-73" x="1476.070312"/>
     <use xlink:href="#DejaVuSans-20" x="1528.169922"/>
     <use xlink:href="#DejaVuSans-66" x="1559.957031"/>
     <use xlink:href="#DejaVuSans-6f" x="1595.162109"/>
     <use xlink:href="#DejaVuSans-72" x="1656.34375"/>
     <use xlink:href="#DejaVuSans-20" x="1697.457031"/>
     <use xlink:href="#DejaVuSans-45" x="1729.244141"/>
     <use xlink:href="#DejaVuSans-61" x="1792.427734"/>
     <use xlink:href="#DejaVuSans-63" x="1853.707031"/>
     <use xlink:href="#DejaVuSans-68" x="1908.6875"/>
     <use xlink:href="#DejaVuSans-20" x="1972.066406"/>
     <use xlink:href="#DejaVuSans-4d" x="2003.853516"/>
     <use xlink:href="#DejaVuSans-65" x="2090.132812"/>
     <use xlink:href="#DejaVuSans-74" x="2151.65625"/>
     <use xlink:href="#DejaVuSans-68" x="2190.865234"/>
     <use xlink:href="#DejaVuSans-6f" x="2254.244141"/>
     <use xlink:href="#DejaVuSans-64" x="2315.425781"/>
    </g>
   </g>
   <g id="legend_1">
    <g id="patch_7">
     <path d="M 940.07 172.555275 
L 1067.18875 172.555275 
Q 1069.18875 172.555275 1069.18875 170.555275 
L 1069.18875 8.9834 
Q 1069.18875 6.9834 1067.18875 6.9834 
L 940.07 6.9834 
Q 938.07 6.9834 938.07 8.9834 
L 938.07 170.555275 
Q 938.07 172.555275 940.07 172.555275 
z
" style="fill: #ffffff; opacity: 0.8; stroke: #cccccc; stroke-linejoin: miter"/>
    </g>
    <g id="line2d_24">
     <path d="M 942.07 15.081838 
L 952.07 15.081838 
L 962.07 15.081838 
" style="fill: none; stroke: #1f77b4; stroke-width: 1.5; stroke-linecap: square"/>
    </g>
    <g id="text_16">
     <!-- GA -->
     <g transform="translate(970.07 18.581838) scale(0.1 -0.1)">
      <defs>
       <path id="DejaVuSans-47" d="M 3809 666 
L 3809 1919 
L 2778 1919 
L 2778 2438 
L 4434 2438 
L 4434 434 
Q 4069 175 3628 42 
Q 3188 -91 2688 -91 
Q 1594 -91 976 548 
Q 359 1188 359 2328 
Q 359 3472 976 4111 
Q 1594 4750 2688 4750 
Q 3144 4750 3555 4637 
Q 3966 4525 4313 4306 
L 4313 3634 
Q 3963 3931 3569 4081 
Q 3175 4231 2741 4231 
Q 1884 4231 1454 3753 
Q 1025 3275 1025 2328 
Q 1025 1384 1454 906 
Q 1884 428 2741 428 
Q 3075 428 3337 486 
Q 3600 544 3809 666 
z
" transform="scale(0.015625)"/>
      </defs>
      <use xlink:href="#DejaVuSans-47"/>
      <use xlink:href="#DejaVuSans-41" x="77.490234"/>
     </g>
    </g>
    <g id="line2d_25">
     <path d="M 942.07 29.759963 
L 952.07 29.759963 
L 962.07 29.759963 
" style="fill: none; stroke: #ff7f0e; stroke-width: 1.5; stroke-linecap: square"/>
    </g>
    <g id="text_17">
     <!-- Random -->
     <g transform="translate(970.07 33.259963) scale(0.1 -0.1)">
      <defs>
       <path id="DejaVuSans-6e" d="M 3513 2113 
L 3513 0 
L 2938 0 
L 2938 2094 
Q 2938 2591 2744 2837 
Q 2550 3084 2163 3084 
Q 1697 3084 1428 2787 
Q 1159 2491 1159 1978 
L 1159 0 
L 581 0 
L 581 3500 
L 1159 3500 
L 1159 2956 
Q 1366 3272 1645 3428 
Q 1925 3584 2291 3584 
Q 2894 3584 3203 3211 
Q 3513 2838 3513 2113 
z
" transform="scale(0.015625)"/>
      </defs>
      <use xlink:href="#DejaVuSans-52"/>
      <use xlink:href="#DejaVuSans-61" x="67.232422"/>
      <use xlink:href="#DejaVuSans-6e" x="128.511719"/>
      <use xlink:href="#DejaVuSans-64" x="191.890625"/>
      <use xlink:href="#DejaVuSans-6f" x="255.367188"/>
      <use xlink:href="#DejaVuSans-6d" x="316.548828"/>
     </g>
    </g>
    <g id="line2d_26">
     <path d="M 942.07 44.438088 
L 952.07 44.438088 
L 962.07 44.438088 
" style="fill: none; stroke: #2ca02c; stroke-width: 1.5; stroke-linecap: square"/>
    </g>
    <g id="text_18">
     <!-- chi_2 -->
     <g transform="translate(970.07 47.938088) scale(0.1 -0.1)">
      <defs>
       <path id="DejaVuSans-5f" d="M 3263 -1063 
L 3263 -1509 
L -63 -1509 
L -63 -1063 
L 3263 -1063 
z
" transform="scale(0.015625)"/>
      </defs>
      <use xlink:href="#DejaVuSans-63"/>
      <use xlink:href="#DejaVuSans-68" x="54.980469"/>
      <use xlink:href="#DejaVuSans-69" x="118.359375"/>
      <use xlink:href="#DejaVuSans-5f" x="146.142578"/>
      <use xlink:href="#DejaVuSans-32" x="196.142578"/>
     </g>
    </g>
    <g id="line2d_27">
     <path d="M 942.07 59.394338 
L 952.07 59.394338 
L 962.07 59.394338 
" style="fill: none; stroke: #d62728; stroke-width: 1.5; stroke-linecap: square"/>
    </g>
    <g id="text_19">
     <!-- f_classif -->
     <g transform="translate(970.07 62.894338) scale(0.1 -0.1)">
      <defs>
       <path id="DejaVuSans-6c" d="M 603 4863 
L 1178 4863 
L 1178 0 
L 603 0 
L 603 4863 
z
" transform="scale(0.015625)"/>
      </defs>
      <use xlink:href="#DejaVuSans-66"/>
      <use xlink:href="#DejaVuSans-5f" x="35.205078"/>
      <use xlink:href="#DejaVuSans-63" x="85.205078"/>
      <use xlink:href="#DejaVuSans-6c" x="140.185547"/>
      <use xlink:href="#DejaVuSans-61" x="167.96875"/>
      <use xlink:href="#DejaVuSans-73" x="229.248047"/>
      <use xlink:href="#DejaVuSans-73" x="281.347656"/>
      <use xlink:href="#DejaVuSans-69" x="333.447266"/>
      <use xlink:href="#DejaVuSans-66" x="361.230469"/>
     </g>
    </g>
    <g id="line2d_28">
     <path d="M 942.07 74.350588 
L 952.07 74.350588 
L 962.07 74.350588 
" style="fill: none; stroke: #9467bd; stroke-width: 1.5; stroke-linecap: square"/>
    </g>
    <g id="text_20">
     <!-- mutual_info_classif -->
     <g transform="translate(970.07 77.850588) scale(0.1 -0.1)">
      <use xlink:href="#DejaVuSans-6d"/>
      <use xlink:href="#DejaVuSans-75" x="97.412109"/>
      <use xlink:href="#DejaVuSans-74" x="160.791016"/>
      <use xlink:href="#DejaVuSans-75" x="200"/>
      <use xlink:href="#DejaVuSans-61" x="263.378906"/>
      <use xlink:href="#DejaVuSans-6c" x="324.658203"/>
      <use xlink:href="#DejaVuSans-5f" x="352.441406"/>
      <use xlink:href="#DejaVuSans-69" x="402.441406"/>
      <use xlink:href="#DejaVuSans-6e" x="430.224609"/>
      <use xlink:href="#DejaVuSans-66" x="493.603516"/>
      <use xlink:href="#DejaVuSans-6f" x="528.808594"/>
      <use xlink:href="#DejaVuSans-5f" x="589.990234"/>
      <use xlink:href="#DejaVuSans-63" x="639.990234"/>
      <use xlink:href="#DejaVuSans-6c" x="694.970703"/>
      <use xlink:href="#DejaVuSans-61" x="722.753906"/>
      <use xlink:href="#DejaVuSans-73" x="784.033203"/>
      <use xlink:href="#DejaVuSans-73" x="836.132812"/>
      <use xlink:href="#DejaVuSans-69" x="888.232422"/>
      <use xlink:href="#DejaVuSans-66" x="916.015625"/>
     </g>
    </g>
    <g id="line2d_29">
     <path d="M 942.07 89.306838 
L 952.07 89.306838 
L 962.07 89.306838 
" style="fill: none; stroke: #8c564b; stroke-width: 1.5; stroke-linecap: square"/>
    </g>
    <g id="text_21">
     <!-- lasso -->
     <g transform="translate(970.07 92.806838) scale(0.1 -0.1)">
      <use xlink:href="#DejaVuSans-6c"/>
      <use xlink:href="#DejaVuSans-61" x="27.783203"/>
      <use xlink:href="#DejaVuSans-73" x="89.0625"/>
      <use xlink:href="#DejaVuSans-73" x="141.162109"/>
      <use xlink:href="#DejaVuSans-6f" x="193.261719"/>
     </g>
    </g>
    <g id="line2d_30">
     <path d="M 942.07 103.984963 
L 952.07 103.984963 
L 962.07 103.984963 
" style="fill: none; stroke: #e377c2; stroke-width: 1.5; stroke-linecap: square"/>
    </g>
    <g id="text_22">
     <!-- ridge -->
     <g transform="translate(970.07 107.484963) scale(0.1 -0.1)">
      <use xlink:href="#DejaVuSans-72"/>
      <use xlink:href="#DejaVuSans-69" x="41.113281"/>
      <use xlink:href="#DejaVuSans-64" x="68.896484"/>
      <use xlink:href="#DejaVuSans-67" x="132.373047"/>
      <use xlink:href="#DejaVuSans-65" x="195.849609"/>
     </g>
    </g>
    <g id="line2d_31">
     <path d="M 942.07 118.663088 
L 952.07 118.663088 
L 962.07 118.663088 
" style="fill: none; stroke: #7f7f7f; stroke-width: 1.5; stroke-linecap: square"/>
    </g>
    <g id="text_23">
     <!-- elastic_net -->
     <g transform="translate(970.07 122.163088) scale(0.1 -0.1)">
      <use xlink:href="#DejaVuSans-65"/>
      <use xlink:href="#DejaVuSans-6c" x="61.523438"/>
      <use xlink:href="#DejaVuSans-61" x="89.306641"/>
      <use xlink:href="#DejaVuSans-73" x="150.585938"/>
      <use xlink:href="#DejaVuSans-74" x="202.685547"/>
      <use xlink:href="#DejaVuSans-69" x="241.894531"/>
      <use xlink:href="#DejaVuSans-63" x="269.677734"/>
      <use xlink:href="#DejaVuSans-5f" x="324.658203"/>
      <use xlink:href="#DejaVuSans-6e" x="374.658203"/>
      <use xlink:href="#DejaVuSans-65" x="438.037109"/>
      <use xlink:href="#DejaVuSans-74" x="499.560547"/>
     </g>
    </g>
    <g id="line2d_32">
     <path d="M 942.07 133.619338 
L 952.07 133.619338 
L 962.07 133.619338 
" style="fill: none; stroke: #bcbd22; stroke-width: 1.5; stroke-linecap: square"/>
    </g>
    <g id="text_24">
     <!-- rf -->
     <g transform="translate(970.07 137.119338) scale(0.1 -0.1)">
      <use xlink:href="#DejaVuSans-72"/>
      <use xlink:href="#DejaVuSans-66" x="41.113281"/>
     </g>
    </g>
    <g id="line2d_33">
     <path d="M 942.07 148.297463 
L 952.07 148.297463 
L 962.07 148.297463 
" style="fill: none; stroke: #17becf; stroke-width: 1.5; stroke-linecap: square"/>
    </g>
    <g id="text_25">
     <!-- gbm -->
     <g transform="translate(970.07 151.797463) scale(0.1 -0.1)">
      <use xlink:href="#DejaVuSans-67"/>
      <use xlink:href="#DejaVuSans-62" x="63.476562"/>
      <use xlink:href="#DejaVuSans-6d" x="126.953125"/>
     </g>
    </g>
    <g id="line2d_34">
     <path d="M 942.07 162.975588 
L 952.07 162.975588 
L 962.07 162.975588 
" style="fill: none; stroke: #9edae5; stroke-width: 1.5; stroke-linecap: square"/>
    </g>
    <g id="text_26">
     <!-- xgb -->
     <g transform="translate(970.07 166.475588) scale(0.1 -0.1)">
      <defs>
       <path id="DejaVuSans-78" d="M 3513 3500 
L 2247 1797 
L 3578 0 
L 2900 0 
L 1881 1375 
L 863 0 
L 184 0 
L 1544 1831 
L 300 3500 
L 978 3500 
L 1906 2253 
L 2834 3500 
L 3513 3500 
z
" transform="scale(0.015625)"/>
      </defs>
      <use xlink:href="#DejaVuSans-78"/>
      <use xlink:href="#DejaVuSans-67" x="59.179688"/>
      <use xlink:href="#DejaVuSans-62" x="122.65625"/>
     </g>
    </g>
   </g>
  </g>
 </g>
 <defs>
  <clipPath id="pf5c52fb1a1">
   <rect x="47.765" y="30.748" width="885.305" height="575.292"/>
  </clipPath>
 </defs>
</svg>
