<?xml version="1.0" encoding="utf-8" standalone="no"?>
<!DOCTYPE svg PUBLIC "-//W3C//DTD SVG 1.1//EN"
  "http://www.w3.org/Graphics/SVG/1.1/DTD/svg11.dtd">
<svg xmlns:xlink="http://www.w3.org/1999/xlink" width="1080pt" height="648pt" viewBox="0 0 1080 648" xmlns="http://www.w3.org/2000/svg" version="1.1">
 <metadata>
  <rdf:RDF xmlns:dc="http://purl.org/dc/elements/1.1/" xmlns:cc="http://creativecommons.org/ns#" xmlns:rdf="http://www.w3.org/1999/02/22-rdf-syntax-ns#">
   <cc:Work>
    <dc:type rdf:resource="http://purl.org/dc/dcmitype/StillImage"/>
    <dc:date>2024-04-04T23:38:21.382768</dc:date>
    <dc:format>image/svg+xml</dc:format>
    <dc:creator>
     <cc:Agent>
      <dc:title>Matplotlib v3.7.2, https://matplotlib.org/</dc:title>
     </cc:Agent>
    </dc:creator>
   </cc:Work>
  </rdf:RDF>
 </metadata>
 <defs>
  <style type="text/css">*{stroke-linejoin: round; stroke-linecap: butt}</style>
 </defs>
 <g id="figure_1">
  <g id="patch_1">
   <path d="M 0 648 
L 1080 648 
L 1080 0 
L 0 0 
z
" style="fill: #ffffff"/>
  </g>
  <g id="axes_1">
   <g id="patch_2">
    <path d="M 47.765 606.04 
L 933.07 606.04 
L 933.07 30.748 
L 47.765 30.748 
z
" style="fill: #ffffff"/>
   </g>
   <g id="PolyCollection_1">
    <defs>
     <path id="m5c5084a13d" d="M 47.765 -470.921596 
L 47.765 -445.420549 
L 65.4711 -456.1735 
L 83.1772 -455.774676 
L 100.8833 -462.491467 
L 118.5894 -465.784485 
L 136.2955 -467.679385 
L 154.0016 -470.868289 
L 171.7077 -472.119166 
L 189.4138 -473.598873 
L 207.1199 -471.617027 
L 224.826 -474.653117 
L 242.5321 -478.945336 
L 260.2382 -485.917321 
L 277.9443 -488.278305 
L 295.6504 -478.587514 
L 313.3565 -484.292943 
L 331.0626 -481.415739 
L 348.7687 -481.4006 
L 366.4748 -486.667014 
L 384.1809 -491.89397 
L 401.887 -491.335182 
L 419.5931 -489.32512 
L 437.2992 -490.628206 
L 455.0053 -492.055762 
L 472.7114 -497.770258 
L 490.4175 -495.32278 
L 508.1236 -494.166678 
L 525.8297 -494.183376 
L 543.5358 -491.530879 
L 561.2419 -499.43536 
L 578.948 -501.349891 
L 596.6541 -499.005277 
L 614.3602 -504.333022 
L 632.0663 -508.377431 
L 649.7724 -505.338818 
L 667.4785 -503.888806 
L 685.1846 -502.128639 
L 702.8907 -501.522547 
L 720.5968 -503.928316 
L 738.3029 -510.028471 
L 756.009 -500.87932 
L 773.7151 -509.91912 
L 791.4212 -514.429462 
L 809.1273 -507.859623 
L 826.8334 -510.569279 
L 844.5395 -512.36567 
L 862.2456 -509.870892 
L 879.9517 -519.055039 
L 897.6578 -517.419257 
L 915.3639 -514.183766 
L 933.07 -509.991527 
L 933.07 -532.033387 
L 933.07 -532.033387 
L 915.3639 -535.419628 
L 897.6578 -535.605745 
L 879.9517 -535.258777 
L 862.2456 -529.430548 
L 844.5395 -530.513679 
L 826.8334 -531.719516 
L 809.1273 -533.374269 
L 791.4212 -533.087719 
L 773.7151 -531.09884 
L 756.009 -523.248844 
L 738.3029 -522.891448 
L 720.5968 -523.823425 
L 702.8907 -522.652551 
L 685.1846 -522.713499 
L 667.4785 -518.238241 
L 649.7724 -520.970673 
L 632.0663 -522.230432 
L 614.3602 -520.191285 
L 596.6541 -520.089418 
L 578.948 -511.696953 
L 561.2419 -515.880993 
L 543.5358 -511.235575 
L 525.8297 -514.628624 
L 508.1236 -507.025289 
L 490.4175 -510.380694 
L 472.7114 -512.051209 
L 455.0053 -510.387146 
L 437.2992 -505.915339 
L 419.5931 -504.304668 
L 401.887 -504.193273 
L 384.1809 -505.1298 
L 366.4748 -503.812359 
L 348.7687 -504.417275 
L 331.0626 -504.786313 
L 313.3565 -502.564409 
L 295.6504 -498.907973 
L 277.9443 -501.684214 
L 260.2382 -493.642356 
L 242.5321 -496.758406 
L 224.826 -492.488764 
L 207.1199 -490.474172 
L 189.4138 -493.474751 
L 171.7077 -492.30327 
L 154.0016 -491.297805 
L 136.2955 -484.761703 
L 118.5894 -488.29284 
L 100.8833 -480.676421 
L 83.1772 -478.523648 
L 65.4711 -477.926298 
L 47.765 -470.921596 
z
" style="stroke: #1f77b4; stroke-opacity: 0.2"/>
    </defs>
    <g clip-path="url(#p758a73bcea)">
     <use xlink:href="#m5c5084a13d" x="0" y="648" style="fill: #1f77b4; fill-opacity: 0.2; stroke: #1f77b4; stroke-opacity: 0.2"/>
    </g>
   </g>
   <g id="PolyCollection_2">
    <defs>
     <path id="mafa0cbe0d7" d="M 47.765 -316.167701 
L 47.765 -252.843861 
L 65.4711 -265.931926 
L 83.1772 -252.755844 
L 100.8833 -266.259411 
L 118.5894 -269.357384 
L 136.2955 -269.722037 
L 154.0016 -293.447122 
L 171.7077 -277.746113 
L 189.4138 -291.947992 
L 207.1199 -285.209031 
L 224.826 -283.849429 
L 242.5321 -298.390223 
L 260.2382 -302.955545 
L 277.9443 -289.668146 
L 295.6504 -313.569116 
L 313.3565 -314.647786 
L 331.0626 -302.212994 
L 348.7687 -302.485938 
L 366.4748 -310.863511 
L 384.1809 -307.589582 
L 401.887 -310.208594 
L 419.5931 -313.887493 
L 437.2992 -303.452784 
L 455.0053 -320.03031 
L 472.7114 -318.597719 
L 490.4175 -328.63283 
L 508.1236 -330.445968 
L 525.8297 -319.464115 
L 543.5358 -321.649595 
L 561.2419 -327.211535 
L 578.948 -328.052153 
L 596.6541 -310.080184 
L 614.3602 -330.267649 
L 632.0663 -341.771326 
L 649.7724 -331.070335 
L 667.4785 -325.152828 
L 685.1846 -340.241123 
L 702.8907 -337.453431 
L 720.5968 -342.508024 
L 738.3029 -342.927481 
L 756.009 -352.678356 
L 773.7151 -344.687399 
L 791.4212 -337.256543 
L 809.1273 -364.324909 
L 826.8334 -360.212936 
L 844.5395 -351.978445 
L 862.2456 -364.915483 
L 879.9517 -340.400366 
L 897.6578 -335.337181 
L 915.3639 -353.482427 
L 933.07 -351.367835 
L 933.07 -409.636455 
L 933.07 -409.636455 
L 915.3639 -405.27427 
L 897.6578 -398.606104 
L 879.9517 -372.272989 
L 862.2456 -408.189758 
L 844.5395 -400.942383 
L 826.8334 -389.976235 
L 809.1273 -391.72646 
L 791.4212 -390.489778 
L 773.7151 -384.56009 
L 756.009 -397.695465 
L 738.3029 -388.714478 
L 720.5968 -385.211457 
L 702.8907 -376.079519 
L 685.1846 -377.322646 
L 667.4785 -381.903351 
L 649.7724 -392.401253 
L 632.0663 -387.557546 
L 614.3602 -376.491477 
L 596.6541 -356.335456 
L 578.948 -382.038344 
L 561.2419 -370.722698 
L 543.5358 -375.654032 
L 525.8297 -357.78336 
L 508.1236 -383.958437 
L 490.4175 -361.398396 
L 472.7114 -377.877819 
L 455.0053 -358.85306 
L 437.2992 -345.919256 
L 419.5931 -358.72199 
L 401.887 -348.233806 
L 384.1809 -333.229691 
L 366.4748 -348.467302 
L 348.7687 -360.414873 
L 331.0626 -355.562701 
L 313.3565 -342.752656 
L 295.6504 -359.976217 
L 277.9443 -331.451446 
L 260.2382 -346.069705 
L 242.5321 -342.833301 
L 224.826 -342.350249 
L 207.1199 -333.011793 
L 189.4138 -327.458801 
L 171.7077 -323.400947 
L 154.0016 -351.294264 
L 136.2955 -316.622314 
L 118.5894 -310.22142 
L 100.8833 -320.301861 
L 83.1772 -298.956704 
L 65.4711 -329.129322 
L 47.765 -316.167701 
z
" style="stroke: #ff7f0e; stroke-opacity: 0.2"/>
    </defs>
    <g clip-path="url(#p758a73bcea)">
     <use xlink:href="#mafa0cbe0d7" x="0" y="648" style="fill: #ff7f0e; fill-opacity: 0.2; stroke: #ff7f0e; stroke-opacity: 0.2"/>
    </g>
   </g>
   <g id="PolyCollection_3">
    <defs>
     <path id="m163a90ec38" d="M 47.765 -424.131246 
L 47.765 -389.676132 
L 65.4711 -391.592979 
L 83.1772 -390.310766 
L 100.8833 -396.648646 
L 118.5894 -404.31202 
L 136.2955 -405.264414 
L 154.0016 -407.914762 
L 171.7077 -405.967249 
L 189.4138 -417.041041 
L 207.1199 -418.235245 
L 224.826 -418.182981 
L 242.5321 -418.309978 
L 260.2382 -418.807206 
L 277.9443 -429.206611 
L 295.6504 -424.948057 
L 313.3565 -427.691887 
L 331.0626 -427.188489 
L 348.7687 -438.954541 
L 366.4748 -433.193255 
L 384.1809 -429.331103 
L 401.887 -437.794886 
L 419.5931 -437.671273 
L 437.2992 -457.864721 
L 455.0053 -462.47942 
L 472.7114 -463.222048 
L 490.4175 -459.133248 
L 508.1236 -462.098122 
L 525.8297 -455.318706 
L 543.5358 -459.269687 
L 561.2419 -462.265249 
L 578.948 -460.475068 
L 596.6541 -467.496843 
L 614.3602 -467.723236 
L 632.0663 -462.510426 
L 649.7724 -468.084135 
L 667.4785 -469.791609 
L 685.1846 -471.860174 
L 702.8907 -472.2847 
L 720.5968 -467.93531 
L 738.3029 -466.559865 
L 756.009 -479.675029 
L 773.7151 -482.016219 
L 791.4212 -486.082106 
L 809.1273 -485.444412 
L 826.8334 -485.760627 
L 844.5395 -484.40077 
L 862.2456 -484.660382 
L 879.9517 -482.952869 
L 897.6578 -489.900494 
L 915.3639 -490.854516 
L 933.07 -474.120478 
L 933.07 -508.851346 
L 933.07 -508.851346 
L 915.3639 -499.612329 
L 897.6578 -502.865924 
L 879.9517 -500.496296 
L 862.2456 -500.474795 
L 844.5395 -491.641516 
L 826.8334 -495.120233 
L 809.1273 -494.596175 
L 791.4212 -495.340063 
L 773.7151 -494.681686 
L 756.009 -495.443441 
L 738.3029 -495.910086 
L 720.5968 -494.95639 
L 702.8907 -498.228316 
L 685.1846 -495.082338 
L 667.4785 -494.203081 
L 649.7724 -493.213706 
L 632.0663 -489.683442 
L 614.3602 -493.262256 
L 596.6541 -495.642175 
L 578.948 -490.471955 
L 561.2419 -490.476161 
L 543.5358 -490.033227 
L 525.8297 -486.704247 
L 508.1236 -486.940226 
L 490.4175 -489.282178 
L 472.7114 -484.736804 
L 455.0053 -485.077564 
L 437.2992 -486.993745 
L 419.5931 -482.705703 
L 401.887 -479.815454 
L 384.1809 -464.8629 
L 366.4748 -467.620091 
L 348.7687 -472.211233 
L 331.0626 -466.034584 
L 313.3565 -460.16985 
L 295.6504 -445.436711 
L 277.9443 -445.301859 
L 260.2382 -447.36369 
L 242.5321 -446.483985 
L 224.826 -446.786534 
L 207.1199 -448.847358 
L 189.4138 -447.773541 
L 171.7077 -447.311308 
L 154.0016 -448.124836 
L 136.2955 -441.900467 
L 118.5894 -438.254452 
L 100.8833 -433.652091 
L 83.1772 -432.540932 
L 65.4711 -425.683597 
L 47.765 -424.131246 
z
" style="stroke: #2ca02c; stroke-opacity: 0.2"/>
    </defs>
    <g clip-path="url(#p758a73bcea)">
     <use xlink:href="#m163a90ec38" x="0" y="648" style="fill: #2ca02c; fill-opacity: 0.2; stroke: #2ca02c; stroke-opacity: 0.2"/>
    </g>
   </g>
   <g id="PolyCollection_4">
    <defs>
     <path id="m550d32887e" d="M 47.765 -432.706532 
L 47.765 -373.026405 
L 65.4711 -382.868847 
L 83.1772 -387.667269 
L 100.8833 -389.944516 
L 118.5894 -392.306698 
L 136.2955 -393.384218 
L 154.0016 -402.155346 
L 171.7077 -410.367983 
L 189.4138 -411.429388 
L 207.1199 -411.580404 
L 224.826 -415.833178 
L 242.5321 -409.835102 
L 260.2382 -406.362336 
L 277.9443 -406.691602 
L 295.6504 -410.33134 
L 313.3565 -416.717691 
L 331.0626 -415.769983 
L 348.7687 -428.207949 
L 366.4748 -429.140824 
L 384.1809 -424.68171 
L 401.887 -424.526932 
L 419.5931 -430.317934 
L 437.2992 -440.374568 
L 455.0053 -440.18521 
L 472.7114 -438.002108 
L 490.4175 -445.565823 
L 508.1236 -444.882486 
L 525.8297 -472.823248 
L 543.5358 -474.96058 
L 561.2419 -465.672779 
L 578.948 -467.528388 
L 596.6541 -464.803421 
L 614.3602 -456.493558 
L 632.0663 -456.786692 
L 649.7724 -469.528685 
L 667.4785 -462.673997 
L 685.1846 -471.486183 
L 702.8907 -471.877157 
L 720.5968 -461.446264 
L 738.3029 -473.024714 
L 756.009 -477.079682 
L 773.7151 -479.098653 
L 791.4212 -477.664628 
L 809.1273 -479.749633 
L 826.8334 -479.401395 
L 844.5395 -480.597771 
L 862.2456 -468.486863 
L 879.9517 -483.424065 
L 897.6578 -485.725236 
L 915.3639 -485.110932 
L 933.07 -485.533402 
L 933.07 -504.555512 
L 933.07 -504.555512 
L 915.3639 -503.544588 
L 897.6578 -501.101058 
L 879.9517 -500.649891 
L 862.2456 -503.876851 
L 844.5395 -497.694309 
L 826.8334 -490.050365 
L 809.1273 -487.277947 
L 791.4212 -490.355953 
L 773.7151 -495.199288 
L 756.009 -487.565116 
L 738.3029 -487.703294 
L 720.5968 -485.87932 
L 702.8907 -484.552949 
L 685.1846 -482.702367 
L 667.4785 -484.727627 
L 649.7724 -483.388449 
L 632.0663 -485.195923 
L 614.3602 -486.538418 
L 596.6541 -484.699654 
L 578.948 -484.828493 
L 561.2419 -485.331888 
L 543.5358 -485.235105 
L 525.8297 -482.950096 
L 508.1236 -488.887836 
L 490.4175 -481.646335 
L 472.7114 -477.79807 
L 455.0053 -481.324024 
L 437.2992 -479.431772 
L 419.5931 -477.094289 
L 401.887 -475.454674 
L 384.1809 -474.197887 
L 366.4748 -472.559805 
L 348.7687 -470.773635 
L 331.0626 -471.463859 
L 313.3565 -470.564524 
L 295.6504 -463.722448 
L 277.9443 -449.47499 
L 260.2382 -454.097699 
L 242.5321 -453.216986 
L 224.826 -447.892921 
L 207.1199 -449.072845 
L 189.4138 -445.55884 
L 171.7077 -444.632125 
L 154.0016 -443.102313 
L 136.2955 -443.622789 
L 118.5894 -441.28108 
L 100.8833 -438.117953 
L 83.1772 -436.87462 
L 65.4711 -431.464163 
L 47.765 -432.706532 
z
" style="stroke: #d62728; stroke-opacity: 0.2"/>
    </defs>
    <g clip-path="url(#p758a73bcea)">
     <use xlink:href="#m550d32887e" x="0" y="648" style="fill: #d62728; fill-opacity: 0.2; stroke: #d62728; stroke-opacity: 0.2"/>
    </g>
   </g>
   <g id="PolyCollection_5">
    <defs>
     <path id="m756d4195ab" d="M 47.765 -381.381391 
L 47.765 -363.290951 
L 65.4711 -363.428139 
L 83.1772 -365.966313 
L 100.8833 -372.135559 
L 118.5894 -371.612325 
L 136.2955 -376.141184 
L 154.0016 -376.446387 
L 171.7077 -376.202681 
L 189.4138 -375.722436 
L 207.1199 -385.26315 
L 224.826 -383.084574 
L 242.5321 -391.212151 
L 260.2382 -393.51059 
L 277.9443 -394.923576 
L 295.6504 -393.378163 
L 313.3565 -391.176983 
L 331.0626 -390.694762 
L 348.7687 -392.87452 
L 366.4748 -392.560614 
L 384.1809 -396.366282 
L 401.887 -388.560278 
L 419.5931 -383.253071 
L 437.2992 -389.16733 
L 455.0053 -399.929802 
L 472.7114 -407.209149 
L 490.4175 -400.204634 
L 508.1236 -410.4301 
L 525.8297 -409.567617 
L 543.5358 -407.454632 
L 561.2419 -409.183875 
L 578.948 -414.942027 
L 596.6541 -412.023992 
L 614.3602 -403.839769 
L 632.0663 -407.827103 
L 649.7724 -406.378944 
L 667.4785 -407.629816 
L 685.1846 -427.672714 
L 702.8907 -425.697922 
L 720.5968 -425.85997 
L 738.3029 -425.698486 
L 756.009 -425.493475 
L 773.7151 -429.698179 
L 791.4212 -441.712171 
L 809.1273 -445.394381 
L 826.8334 -450.151143 
L 844.5395 -448.582893 
L 862.2456 -451.337912 
L 879.9517 -465.88801 
L 897.6578 -470.049214 
L 915.3639 -471.050698 
L 933.07 -475.216801 
L 933.07 -501.203695 
L 933.07 -501.203695 
L 915.3639 -497.906865 
L 897.6578 -499.206319 
L 879.9517 -495.487121 
L 862.2456 -491.80274 
L 844.5395 -488.875119 
L 826.8334 -491.984409 
L 809.1273 -486.135603 
L 791.4212 -483.963294 
L 773.7151 -481.202482 
L 756.009 -482.345855 
L 738.3029 -481.016781 
L 720.5968 -480.985867 
L 702.8907 -475.981174 
L 685.1846 -477.141842 
L 667.4785 -471.050174 
L 649.7724 -470.505207 
L 632.0663 -463.915018 
L 614.3602 -461.009154 
L 596.6541 -450.836987 
L 578.948 -452.779413 
L 561.2419 -452.327197 
L 543.5358 -450.35662 
L 525.8297 -448.522431 
L 508.1236 -449.466456 
L 490.4175 -449.110175 
L 472.7114 -449.607605 
L 455.0053 -448.569488 
L 437.2992 -447.558613 
L 419.5931 -436.508342 
L 401.887 -433.729594 
L 384.1809 -423.415322 
L 366.4748 -421.051943 
L 348.7687 -419.012217 
L 331.0626 -413.066271 
L 313.3565 -414.343503 
L 295.6504 -409.654711 
L 277.9443 -412.475501 
L 260.2382 -410.492648 
L 242.5321 -408.388869 
L 224.826 -402.899005 
L 207.1199 -405.106242 
L 189.4138 -399.806368 
L 171.7077 -400.756928 
L 154.0016 -403.943544 
L 136.2955 -397.488558 
L 118.5894 -396.286685 
L 100.8833 -392.822774 
L 83.1772 -386.350024 
L 65.4711 -385.530219 
L 47.765 -381.381391 
z
" style="stroke: #9467bd; stroke-opacity: 0.2"/>
    </defs>
    <g clip-path="url(#p758a73bcea)">
     <use xlink:href="#m756d4195ab" x="0" y="648" style="fill: #9467bd; fill-opacity: 0.2; stroke: #9467bd; stroke-opacity: 0.2"/>
    </g>
   </g>
   <g id="PolyCollection_6">
    <defs>
     <path id="m53d3d13d60" d="M 47.765 -437.987739 
L 47.765 -405.346874 
L 65.4711 -407.008112 
L 83.1772 -412.646912 
L 100.8833 -420.163611 
L 118.5894 -428.072825 
L 136.2955 -426.35455 
L 154.0016 -431.253466 
L 171.7077 -430.187 
L 189.4138 -429.525209 
L 207.1199 -429.586515 
L 224.826 -427.136948 
L 242.5321 -423.407563 
L 260.2382 -427.939886 
L 277.9443 -425.336655 
L 295.6504 -424.228083 
L 313.3565 -427.513531 
L 331.0626 -431.130614 
L 348.7687 -428.490315 
L 366.4748 -430.600018 
L 384.1809 -419.440786 
L 401.887 -427.085053 
L 419.5931 -427.629665 
L 437.2992 -428.190607 
L 455.0053 -427.157836 
L 472.7114 -429.134523 
L 490.4175 -428.512238 
L 508.1236 -429.043447 
L 525.8297 -430.002236 
L 543.5358 -424.205412 
L 561.2419 -425.108838 
L 578.948 -425.677499 
L 596.6541 -425.423281 
L 614.3602 -423.65534 
L 632.0663 -422.124284 
L 649.7724 -418.51779 
L 667.4785 -421.48783 
L 685.1846 -419.470032 
L 702.8907 -423.668662 
L 720.5968 -419.443329 
L 738.3029 -416.719644 
L 756.009 -418.423271 
L 773.7151 -415.4972 
L 791.4212 -414.971886 
L 809.1273 -415.229649 
L 826.8334 -420.049281 
L 844.5395 -428.113757 
L 862.2456 -435.926294 
L 879.9517 -433.350647 
L 897.6578 -434.116847 
L 915.3639 -437.871373 
L 933.07 -436.601069 
L 933.07 -488.894023 
L 933.07 -488.894023 
L 915.3639 -488.648218 
L 897.6578 -486.458325 
L 879.9517 -487.989488 
L 862.2456 -490.026209 
L 844.5395 -480.538519 
L 826.8334 -481.815205 
L 809.1273 -479.149949 
L 791.4212 -479.680631 
L 773.7151 -478.786752 
L 756.009 -476.671832 
L 738.3029 -473.967536 
L 720.5968 -483.390196 
L 702.8907 -472.037733 
L 685.1846 -461.380653 
L 667.4785 -468.656303 
L 649.7724 -467.420392 
L 632.0663 -472.622645 
L 614.3602 -464.989256 
L 596.6541 -461.48754 
L 578.948 -463.920735 
L 561.2419 -462.093829 
L 543.5358 -458.173565 
L 525.8297 -457.205252 
L 508.1236 -463.81498 
L 490.4175 -462.410125 
L 472.7114 -459.806937 
L 455.0053 -461.085116 
L 437.2992 -462.121097 
L 419.5931 -457.266132 
L 401.887 -447.619594 
L 384.1809 -449.97726 
L 366.4748 -448.380331 
L 348.7687 -454.21812 
L 331.0626 -456.453655 
L 313.3565 -454.336223 
L 295.6504 -453.774087 
L 277.9443 -453.89353 
L 260.2382 -454.577887 
L 242.5321 -451.201994 
L 224.826 -452.811072 
L 207.1199 -452.851228 
L 189.4138 -451.147698 
L 171.7077 -454.051199 
L 154.0016 -452.177871 
L 136.2955 -450.118336 
L 118.5894 -451.298659 
L 100.8833 -448.571244 
L 83.1772 -449.934132 
L 65.4711 -439.154977 
L 47.765 -437.987739 
z
" style="stroke: #8c564b; stroke-opacity: 0.2"/>
    </defs>
    <g clip-path="url(#p758a73bcea)">
     <use xlink:href="#m53d3d13d60" x="0" y="648" style="fill: #8c564b; fill-opacity: 0.2; stroke: #8c564b; stroke-opacity: 0.2"/>
    </g>
   </g>
   <g id="PolyCollection_7">
    <defs>
     <path id="me0ec4b6b7d" d="M 47.765 -417.74771 
L 47.765 -400.574503 
L 65.4711 -398.944907 
L 83.1772 -412.397091 
L 100.8833 -417.229381 
L 118.5894 -419.046939 
L 136.2955 -419.109585 
L 154.0016 -422.646517 
L 171.7077 -423.58411 
L 189.4138 -419.328095 
L 207.1199 -406.54014 
L 224.826 -402.438227 
L 242.5321 -409.432676 
L 260.2382 -398.61165 
L 277.9443 -399.392397 
L 295.6504 -410.404457 
L 313.3565 -412.02287 
L 331.0626 -415.349218 
L 348.7687 -406.502264 
L 366.4748 -403.312048 
L 384.1809 -404.52649 
L 401.887 -406.986367 
L 419.5931 -405.002238 
L 437.2992 -406.562054 
L 455.0053 -411.989246 
L 472.7114 -414.349857 
L 490.4175 -420.887881 
L 508.1236 -425.667513 
L 525.8297 -417.810063 
L 543.5358 -426.248 
L 561.2419 -436.630057 
L 578.948 -438.224911 
L 596.6541 -438.749149 
L 614.3602 -439.168584 
L 632.0663 -435.014521 
L 649.7724 -429.375252 
L 667.4785 -429.667683 
L 685.1846 -432.296816 
L 702.8907 -437.529134 
L 720.5968 -436.247814 
L 738.3029 -442.472238 
L 756.009 -422.916895 
L 773.7151 -423.118613 
L 791.4212 -425.943019 
L 809.1273 -424.422324 
L 826.8334 -431.816742 
L 844.5395 -442.285155 
L 862.2456 -447.690382 
L 879.9517 -447.713171 
L 897.6578 -437.950537 
L 915.3639 -439.660237 
L 933.07 -441.254278 
L 933.07 -477.412803 
L 933.07 -477.412803 
L 915.3639 -477.114583 
L 897.6578 -474.176922 
L 879.9517 -477.128979 
L 862.2456 -478.210809 
L 844.5395 -481.065289 
L 826.8334 -468.250226 
L 809.1273 -462.41814 
L 791.4212 -467.464367 
L 773.7151 -469.304771 
L 756.009 -468.796767 
L 738.3029 -477.214203 
L 720.5968 -475.150741 
L 702.8907 -472.547844 
L 685.1846 -471.589583 
L 667.4785 -470.551119 
L 649.7724 -466.627528 
L 632.0663 -470.384705 
L 614.3602 -479.289056 
L 596.6541 -471.380215 
L 578.948 -470.471885 
L 561.2419 -470.150826 
L 543.5358 -460.222289 
L 525.8297 -460.075611 
L 508.1236 -457.269024 
L 490.4175 -455.650392 
L 472.7114 -459.999988 
L 455.0053 -453.032736 
L 437.2992 -447.056517 
L 419.5931 -446.996957 
L 401.887 -439.052678 
L 384.1809 -437.618193 
L 366.4748 -436.768578 
L 348.7687 -438.703724 
L 331.0626 -441.466498 
L 313.3565 -448.403247 
L 295.6504 -443.44694 
L 277.9443 -439.610856 
L 260.2382 -441.249097 
L 242.5321 -441.843263 
L 224.826 -435.562676 
L 207.1199 -438.674751 
L 189.4138 -436.281652 
L 171.7077 -438.942012 
L 154.0016 -436.566826 
L 136.2955 -435.541175 
L 118.5894 -434.266514 
L 100.8833 -431.635987 
L 83.1772 -429.449812 
L 65.4711 -427.554793 
L 47.765 -417.74771 
z
" style="stroke: #e377c2; stroke-opacity: 0.2"/>
    </defs>
    <g clip-path="url(#p758a73bcea)">
     <use xlink:href="#me0ec4b6b7d" x="0" y="648" style="fill: #e377c2; fill-opacity: 0.2; stroke: #e377c2; stroke-opacity: 0.2"/>
    </g>
   </g>
   <g id="PolyCollection_8">
    <defs>
     <path id="m63e06237fb" d="M 47.765 -430.862833 
L 47.765 -414.574884 
L 65.4711 -416.604373 
L 83.1772 -420.375282 
L 100.8833 -423.300201 
L 118.5894 -428.164838 
L 136.2955 -425.11911 
L 154.0016 -418.5568 
L 171.7077 -422.746063 
L 189.4138 -434.097531 
L 207.1199 -427.533502 
L 224.826 -426.601983 
L 242.5321 -427.541881 
L 260.2382 -423.473123 
L 277.9443 -418.515583 
L 295.6504 -423.274965 
L 313.3565 -421.146169 
L 331.0626 -423.988706 
L 348.7687 -421.769055 
L 366.4748 -425.015198 
L 384.1809 -425.651446 
L 401.887 -430.849757 
L 419.5931 -430.535086 
L 437.2992 -433.269274 
L 455.0053 -428.849355 
L 472.7114 -429.376286 
L 490.4175 -429.012531 
L 508.1236 -430.925685 
L 525.8297 -429.924878 
L 543.5358 -422.374611 
L 561.2419 -424.069161 
L 578.948 -429.200703 
L 596.6541 -429.938793 
L 614.3602 -419.622415 
L 632.0663 -430.3518 
L 649.7724 -431.696346 
L 667.4785 -428.434273 
L 685.1846 -424.294852 
L 702.8907 -431.140192 
L 720.5968 -428.767979 
L 738.3029 -428.283347 
L 756.009 -428.054085 
L 773.7151 -433.879396 
L 791.4212 -442.18356 
L 809.1273 -435.865799 
L 826.8334 -434.410326 
L 844.5395 -446.933233 
L 862.2456 -450.913757 
L 879.9517 -448.85612 
L 897.6578 -444.643593 
L 915.3639 -440.885778 
L 933.07 -445.356893 
L 933.07 -490.643428 
L 933.07 -490.643428 
L 915.3639 -486.208889 
L 897.6578 -497.27762 
L 879.9517 -495.304966 
L 862.2456 -493.35923 
L 844.5395 -489.025571 
L 826.8334 -486.95187 
L 809.1273 -489.933638 
L 791.4212 -488.619937 
L 773.7151 -480.839354 
L 756.009 -475.359535 
L 738.3029 -466.2571 
L 720.5968 -465.601017 
L 702.8907 -459.783284 
L 685.1846 -476.70176 
L 667.4785 -477.332731 
L 649.7724 -468.233768 
L 632.0663 -473.556389 
L 614.3602 -465.729189 
L 596.6541 -466.737087 
L 578.948 -469.23511 
L 561.2419 -460.00859 
L 543.5358 -459.411196 
L 525.8297 -470.433178 
L 508.1236 -471.972684 
L 490.4175 -472.660796 
L 472.7114 -468.91249 
L 455.0053 -459.041471 
L 437.2992 -466.811859 
L 419.5931 -467.755116 
L 401.887 -467.144021 
L 384.1809 -466.146237 
L 366.4748 -459.151336 
L 348.7687 -455.810571 
L 331.0626 -456.775155 
L 313.3565 -446.729689 
L 295.6504 -450.013559 
L 277.9443 -446.324173 
L 260.2382 -446.638898 
L 242.5321 -450.024317 
L 224.826 -449.695969 
L 207.1199 -448.712501 
L 189.4138 -446.788522 
L 171.7077 -447.693172 
L 154.0016 -446.727892 
L 136.2955 -444.116586 
L 118.5894 -441.87974 
L 100.8833 -443.844545 
L 83.1772 -441.326942 
L 65.4711 -435.30897 
L 47.765 -430.862833 
z
" style="stroke: #7f7f7f; stroke-opacity: 0.2"/>
    </defs>
    <g clip-path="url(#p758a73bcea)">
     <use xlink:href="#m63e06237fb" x="0" y="648" style="fill: #7f7f7f; fill-opacity: 0.2; stroke: #7f7f7f; stroke-opacity: 0.2"/>
    </g>
   </g>
   <g id="PolyCollection_9">
    <defs>
     <path id="m4dc293cfe3" d="M 47.765 -436.68659 
L 47.765 -419.695708 
L 65.4711 -415.991339 
L 83.1772 -420.442777 
L 100.8833 -422.752281 
L 118.5894 -424.12139 
L 136.2955 -427.57089 
L 154.0016 -428.377674 
L 171.7077 -427.418164 
L 189.4138 -429.174448 
L 207.1199 -425.346009 
L 224.826 -426.560657 
L 242.5321 -425.081403 
L 260.2382 -431.60999 
L 277.9443 -429.344247 
L 295.6504 -430.432824 
L 313.3565 -431.17382 
L 331.0626 -427.76594 
L 348.7687 -424.695832 
L 366.4748 -430.707011 
L 384.1809 -428.886788 
L 401.887 -424.270366 
L 419.5931 -429.467009 
L 437.2992 -423.680422 
L 455.0053 -426.448473 
L 472.7114 -446.591007 
L 490.4175 -446.398021 
L 508.1236 -457.779694 
L 525.8297 -433.385397 
L 543.5358 -462.508242 
L 561.2419 -458.234651 
L 578.948 -443.467906 
L 596.6541 -460.264879 
L 614.3602 -457.578931 
L 632.0663 -462.472988 
L 649.7724 -452.478891 
L 667.4785 -463.089653 
L 685.1846 -468.589655 
L 702.8907 -471.512872 
L 720.5968 -462.405447 
L 738.3029 -465.974547 
L 756.009 -472.038014 
L 773.7151 -473.015394 
L 791.4212 -466.816413 
L 809.1273 -473.228378 
L 826.8334 -461.604432 
L 844.5395 -465.943113 
L 862.2456 -463.148496 
L 879.9517 -468.263088 
L 897.6578 -461.927694 
L 915.3639 -461.29361 
L 933.07 -469.968307 
L 933.07 -502.227231 
L 933.07 -502.227231 
L 915.3639 -496.430907 
L 897.6578 -497.615616 
L 879.9517 -501.198576 
L 862.2456 -500.433667 
L 844.5395 -489.228264 
L 826.8334 -499.513487 
L 809.1273 -500.449388 
L 791.4212 -484.676532 
L 773.7151 -486.042575 
L 756.009 -489.157789 
L 738.3029 -488.595453 
L 720.5968 -486.421396 
L 702.8907 -483.594586 
L 685.1846 -483.310186 
L 667.4785 -486.330313 
L 649.7724 -492.428246 
L 632.0663 -485.32114 
L 614.3602 -485.973122 
L 596.6541 -488.201361 
L 578.948 -481.841219 
L 561.2419 -479.58767 
L 543.5358 -486.420178 
L 525.8297 -484.615614 
L 508.1236 -490.763497 
L 490.4175 -494.158824 
L 472.7114 -490.01145 
L 455.0053 -481.42348 
L 437.2992 -477.159171 
L 419.5931 -481.295152 
L 401.887 -471.862258 
L 384.1809 -472.372066 
L 366.4748 -468.955783 
L 348.7687 -471.710548 
L 331.0626 -472.463969 
L 313.3565 -462.829107 
L 295.6504 -462.020935 
L 277.9443 -458.497625 
L 260.2382 -455.385484 
L 242.5321 -455.400163 
L 224.826 -453.532726 
L 207.1199 -453.039135 
L 189.4138 -440.313479 
L 171.7077 -436.663656 
L 154.0016 -439.834572 
L 136.2955 -439.326182 
L 118.5894 -435.345647 
L 100.8833 -431.648237 
L 83.1772 -432.882202 
L 65.4711 -437.265856 
L 47.765 -436.68659 
z
" style="stroke: #bcbd22; stroke-opacity: 0.2"/>
    </defs>
    <g clip-path="url(#p758a73bcea)">
     <use xlink:href="#m4dc293cfe3" x="0" y="648" style="fill: #bcbd22; fill-opacity: 0.2; stroke: #bcbd22; stroke-opacity: 0.2"/>
    </g>
   </g>
   <g id="PolyCollection_10">
    <defs>
     <path id="m4254b34fae" d="M 47.765 -424.266247 
L 47.765 -400.02782 
L 65.4711 -397.121796 
L 83.1772 -399.150104 
L 100.8833 -396.543223 
L 118.5894 -402.930091 
L 136.2955 -403.956271 
L 154.0016 -399.415667 
L 171.7077 -401.819213 
L 189.4138 -396.359965 
L 207.1199 -407.254135 
L 224.826 -416.397627 
L 242.5321 -421.52019 
L 260.2382 -424.125408 
L 277.9443 -427.343574 
L 295.6504 -426.257926 
L 313.3565 -436.108027 
L 331.0626 -424.507709 
L 348.7687 -430.939253 
L 366.4748 -440.407031 
L 384.1809 -429.159642 
L 401.887 -439.848087 
L 419.5931 -441.016196 
L 437.2992 -430.791486 
L 455.0053 -430.698649 
L 472.7114 -429.471799 
L 490.4175 -437.283693 
L 508.1236 -444.391736 
L 525.8297 -449.708125 
L 543.5358 -444.481216 
L 561.2419 -446.790641 
L 578.948 -432.095377 
L 596.6541 -447.676303 
L 614.3602 -442.199784 
L 632.0663 -443.650177 
L 649.7724 -458.252753 
L 667.4785 -444.317556 
L 685.1846 -457.262937 
L 702.8907 -457.50124 
L 720.5968 -460.452087 
L 738.3029 -446.865832 
L 756.009 -459.186726 
L 773.7151 -448.542175 
L 791.4212 -455.787514 
L 809.1273 -459.156996 
L 826.8334 -458.938727 
L 844.5395 -461.126839 
L 862.2456 -469.45772 
L 879.9517 -466.736333 
L 897.6578 -461.994737 
L 915.3639 -460.179282 
L 933.07 -458.006734 
L 933.07 -503.635537 
L 933.07 -503.635537 
L 915.3639 -504.454366 
L 897.6578 -514.744592 
L 879.9517 -523.978422 
L 862.2456 -513.828443 
L 844.5395 -506.205612 
L 826.8334 -496.617604 
L 809.1273 -503.196535 
L 791.4212 -503.494245 
L 773.7151 -494.268603 
L 756.009 -482.480049 
L 738.3029 -485.418507 
L 720.5968 -479.59529 
L 702.8907 -478.64898 
L 685.1846 -481.522752 
L 667.4785 -491.533503 
L 649.7724 -470.017156 
L 632.0663 -486.77857 
L 614.3602 -492.181193 
L 596.6541 -495.322991 
L 578.948 -488.442982 
L 561.2419 -481.261276 
L 543.5358 -476.105258 
L 525.8297 -471.872202 
L 508.1236 -481.811988 
L 490.4175 -482.780694 
L 472.7114 -475.560092 
L 455.0053 -479.309846 
L 437.2992 -470.436024 
L 419.5931 -473.842936 
L 401.887 -470.648892 
L 384.1809 -477.921126 
L 366.4748 -477.483213 
L 348.7687 -460.247936 
L 331.0626 -458.379922 
L 313.3565 -464.765888 
L 295.6504 -463.814306 
L 277.9443 -469.080993 
L 260.2382 -464.216536 
L 242.5321 -455.767042 
L 224.826 -450.843905 
L 207.1199 -452.279548 
L 189.4138 -438.688069 
L 171.7077 -430.352464 
L 154.0016 -437.726738 
L 136.2955 -427.316375 
L 118.5894 -425.438855 
L 100.8833 -420.062679 
L 83.1772 -423.92146 
L 65.4711 -428.685316 
L 47.765 -424.266247 
z
" style="stroke: #17becf; stroke-opacity: 0.2"/>
    </defs>
    <g clip-path="url(#p758a73bcea)">
     <use xlink:href="#m4254b34fae" x="0" y="648" style="fill: #17becf; fill-opacity: 0.2; stroke: #17becf; stroke-opacity: 0.2"/>
    </g>
   </g>
   <g id="PolyCollection_11">
    <defs>
     <path id="m17576d0387" d="M 47.765 -465.986123 
L 47.765 -438.706753 
L 65.4711 -436.775867 
L 83.1772 -436.580274 
L 100.8833 -433.002885 
L 118.5894 -433.192446 
L 136.2955 -426.170328 
L 154.0016 -434.426567 
L 171.7077 -431.385745 
L 189.4138 -423.477502 
L 207.1199 -419.655826 
L 224.826 -423.561361 
L 242.5321 -420.810057 
L 260.2382 -431.698689 
L 277.9443 -434.122367 
L 295.6504 -433.925951 
L 313.3565 -437.884425 
L 331.0626 -435.430895 
L 348.7687 -434.735579 
L 366.4748 -442.628756 
L 384.1809 -447.362881 
L 401.887 -446.410391 
L 419.5931 -443.154749 
L 437.2992 -440.901256 
L 455.0053 -436.194725 
L 472.7114 -438.728164 
L 490.4175 -441.626323 
L 508.1236 -441.022763 
L 525.8297 -442.981937 
L 543.5358 -445.347933 
L 561.2419 -440.104172 
L 578.948 -426.504343 
L 596.6541 -438.608657 
L 614.3602 -449.828106 
L 632.0663 -449.614858 
L 649.7724 -453.916268 
L 667.4785 -456.433761 
L 685.1846 -451.867965 
L 702.8907 -455.390587 
L 720.5968 -456.295758 
L 738.3029 -448.693062 
L 756.009 -441.324481 
L 773.7151 -439.092249 
L 791.4212 -438.74883 
L 809.1273 -449.766334 
L 826.8334 -459.183686 
L 844.5395 -456.719371 
L 862.2456 -451.690413 
L 879.9517 -463.784934 
L 897.6578 -461.631543 
L 915.3639 -455.747673 
L 933.07 -446.286124 
L 933.07 -493.604451 
L 933.07 -493.604451 
L 915.3639 -494.837051 
L 897.6578 -488.912121 
L 879.9517 -490.408148 
L 862.2456 -491.043609 
L 844.5395 -498.057705 
L 826.8334 -495.279108 
L 809.1273 -493.221324 
L 791.4212 -492.676437 
L 773.7151 -484.678028 
L 756.009 -484.27055 
L 738.3029 -484.745802 
L 720.5968 -485.262104 
L 702.8907 -481.079131 
L 685.1846 -479.681496 
L 667.4785 -482.691433 
L 649.7724 -480.698402 
L 632.0663 -478.388292 
L 614.3602 -478.430245 
L 596.6541 -477.307942 
L 578.948 -478.500193 
L 561.2419 -477.003334 
L 543.5358 -483.75016 
L 525.8297 -484.653451 
L 508.1236 -484.767367 
L 490.4175 -482.275662 
L 472.7114 -487.295296 
L 455.0053 -484.152186 
L 437.2992 -486.278649 
L 419.5931 -480.678859 
L 401.887 -487.397171 
L 384.1809 -473.421466 
L 366.4748 -468.906885 
L 348.7687 -478.909391 
L 331.0626 -467.733831 
L 313.3565 -472.838675 
L 295.6504 -476.017314 
L 277.9443 -489.00794 
L 260.2382 -474.89494 
L 242.5321 -482.216581 
L 224.826 -476.77732 
L 207.1199 -467.425066 
L 189.4138 -469.652654 
L 171.7077 -462.678451 
L 154.0016 -471.715755 
L 136.2955 -466.762439 
L 118.5894 -480.712233 
L 100.8833 -484.84579 
L 83.1772 -478.136222 
L 65.4711 -464.502086 
L 47.765 -465.986123 
z
" style="stroke: #9edae5; stroke-opacity: 0.2"/>
    </defs>
    <g clip-path="url(#p758a73bcea)">
     <use xlink:href="#m17576d0387" x="0" y="648" style="fill: #9edae5; fill-opacity: 0.2; stroke: #9edae5; stroke-opacity: 0.2"/>
    </g>
   </g>
   <g id="matplotlib.axis_1">
    <g id="xtick_1">
     <g id="line2d_1">
      <defs>
       <path id="m432bb829f6" d="M 0 0 
L 0 3.5 
" style="stroke: #000000; stroke-width: 0.8"/>
      </defs>
      <g>
       <use xlink:href="#m432bb829f6" x="47.765" y="606.04" style="stroke: #000000; stroke-width: 0.8"/>
      </g>
     </g>
     <g id="text_1">
      <!-- 30 -->
      <g transform="translate(41.4025 620.638438) scale(0.1 -0.1)">
       <defs>
        <path id="DejaVuSans-33" d="M 2597 2516 
Q 3050 2419 3304 2112 
Q 3559 1806 3559 1356 
Q 3559 666 3084 287 
Q 2609 -91 1734 -91 
Q 1441 -91 1130 -33 
Q 819 25 488 141 
L 488 750 
Q 750 597 1062 519 
Q 1375 441 1716 441 
Q 2309 441 2620 675 
Q 2931 909 2931 1356 
Q 2931 1769 2642 2001 
Q 2353 2234 1838 2234 
L 1294 2234 
L 1294 2753 
L 1863 2753 
Q 2328 2753 2575 2939 
Q 2822 3125 2822 3475 
Q 2822 3834 2567 4026 
Q 2313 4219 1838 4219 
Q 1578 4219 1281 4162 
Q 984 4106 628 3988 
L 628 4550 
Q 988 4650 1302 4700 
Q 1616 4750 1894 4750 
Q 2613 4750 3031 4423 
Q 3450 4097 3450 3541 
Q 3450 3153 3228 2886 
Q 3006 2619 2597 2516 
z
" transform="scale(0.015625)"/>
        <path id="DejaVuSans-30" d="M 2034 4250 
Q 1547 4250 1301 3770 
Q 1056 3291 1056 2328 
Q 1056 1369 1301 889 
Q 1547 409 2034 409 
Q 2525 409 2770 889 
Q 3016 1369 3016 2328 
Q 3016 3291 2770 3770 
Q 2525 4250 2034 4250 
z
M 2034 4750 
Q 2819 4750 3233 4129 
Q 3647 3509 3647 2328 
Q 3647 1150 3233 529 
Q 2819 -91 2034 -91 
Q 1250 -91 836 529 
Q 422 1150 422 2328 
Q 422 3509 836 4129 
Q 1250 4750 2034 4750 
z
" transform="scale(0.015625)"/>
       </defs>
       <use xlink:href="#DejaVuSans-33"/>
       <use xlink:href="#DejaVuSans-30" x="63.623047"/>
      </g>
     </g>
    </g>
    <g id="xtick_2">
     <g id="line2d_2">
      <g>
       <use xlink:href="#m432bb829f6" x="224.826" y="606.04" style="stroke: #000000; stroke-width: 0.8"/>
      </g>
     </g>
     <g id="text_2">
      <!-- 40 -->
      <g transform="translate(218.4635 620.638438) scale(0.1 -0.1)">
       <defs>
        <path id="DejaVuSans-34" d="M 2419 4116 
L 825 1625 
L 2419 1625 
L 2419 4116 
z
M 2253 4666 
L 3047 4666 
L 3047 1625 
L 3713 1625 
L 3713 1100 
L 3047 1100 
L 3047 0 
L 2419 0 
L 2419 1100 
L 313 1100 
L 313 1709 
L 2253 4666 
z
" transform="scale(0.015625)"/>
       </defs>
       <use xlink:href="#DejaVuSans-34"/>
       <use xlink:href="#DejaVuSans-30" x="63.623047"/>
      </g>
     </g>
    </g>
    <g id="xtick_3">
     <g id="line2d_3">
      <g>
       <use xlink:href="#m432bb829f6" x="401.887" y="606.04" style="stroke: #000000; stroke-width: 0.8"/>
      </g>
     </g>
     <g id="text_3">
      <!-- 50 -->
      <g transform="translate(395.5245 620.638438) scale(0.1 -0.1)">
       <defs>
        <path id="DejaVuSans-35" d="M 691 4666 
L 3169 4666 
L 3169 4134 
L 1269 4134 
L 1269 2991 
Q 1406 3038 1543 3061 
Q 1681 3084 1819 3084 
Q 2600 3084 3056 2656 
Q 3513 2228 3513 1497 
Q 3513 744 3044 326 
Q 2575 -91 1722 -91 
Q 1428 -91 1123 -41 
Q 819 9 494 109 
L 494 744 
Q 775 591 1075 516 
Q 1375 441 1709 441 
Q 2250 441 2565 725 
Q 2881 1009 2881 1497 
Q 2881 1984 2565 2268 
Q 2250 2553 1709 2553 
Q 1456 2553 1204 2497 
Q 953 2441 691 2322 
L 691 4666 
z
" transform="scale(0.015625)"/>
       </defs>
       <use xlink:href="#DejaVuSans-35"/>
       <use xlink:href="#DejaVuSans-30" x="63.623047"/>
      </g>
     </g>
    </g>
    <g id="xtick_4">
     <g id="line2d_4">
      <g>
       <use xlink:href="#m432bb829f6" x="578.948" y="606.04" style="stroke: #000000; stroke-width: 0.8"/>
      </g>
     </g>
     <g id="text_4">
      <!-- 60 -->
      <g transform="translate(572.5855 620.638438) scale(0.1 -0.1)">
       <defs>
        <path id="DejaVuSans-36" d="M 2113 2584 
Q 1688 2584 1439 2293 
Q 1191 2003 1191 1497 
Q 1191 994 1439 701 
Q 1688 409 2113 409 
Q 2538 409 2786 701 
Q 3034 994 3034 1497 
Q 3034 2003 2786 2293 
Q 2538 2584 2113 2584 
z
M 3366 4563 
L 3366 3988 
Q 3128 4100 2886 4159 
Q 2644 4219 2406 4219 
Q 1781 4219 1451 3797 
Q 1122 3375 1075 2522 
Q 1259 2794 1537 2939 
Q 1816 3084 2150 3084 
Q 2853 3084 3261 2657 
Q 3669 2231 3669 1497 
Q 3669 778 3244 343 
Q 2819 -91 2113 -91 
Q 1303 -91 875 529 
Q 447 1150 447 2328 
Q 447 3434 972 4092 
Q 1497 4750 2381 4750 
Q 2619 4750 2861 4703 
Q 3103 4656 3366 4563 
z
" transform="scale(0.015625)"/>
       </defs>
       <use xlink:href="#DejaVuSans-36"/>
       <use xlink:href="#DejaVuSans-30" x="63.623047"/>
      </g>
     </g>
    </g>
    <g id="xtick_5">
     <g id="line2d_5">
      <g>
       <use xlink:href="#m432bb829f6" x="756.009" y="606.04" style="stroke: #000000; stroke-width: 0.8"/>
      </g>
     </g>
     <g id="text_5">
      <!-- 70 -->
      <g transform="translate(749.6465 620.638438) scale(0.1 -0.1)">
       <defs>
        <path id="DejaVuSans-37" d="M 525 4666 
L 3525 4666 
L 3525 4397 
L 1831 0 
L 1172 0 
L 2766 4134 
L 525 4134 
L 525 4666 
z
" transform="scale(0.015625)"/>
       </defs>
       <use xlink:href="#DejaVuSans-37"/>
       <use xlink:href="#DejaVuSans-30" x="63.623047"/>
      </g>
     </g>
    </g>
    <g id="xtick_6">
     <g id="line2d_6">
      <g>
       <use xlink:href="#m432bb829f6" x="933.07" y="606.04" style="stroke: #000000; stroke-width: 0.8"/>
      </g>
     </g>
     <g id="text_6">
      <!-- 80 -->
      <g transform="translate(926.7075 620.638438) scale(0.1 -0.1)">
       <defs>
        <path id="DejaVuSans-38" d="M 2034 2216 
Q 1584 2216 1326 1975 
Q 1069 1734 1069 1313 
Q 1069 891 1326 650 
Q 1584 409 2034 409 
Q 2484 409 2743 651 
Q 3003 894 3003 1313 
Q 3003 1734 2745 1975 
Q 2488 2216 2034 2216 
z
M 1403 2484 
Q 997 2584 770 2862 
Q 544 3141 544 3541 
Q 544 4100 942 4425 
Q 1341 4750 2034 4750 
Q 2731 4750 3128 4425 
Q 3525 4100 3525 3541 
Q 3525 3141 3298 2862 
Q 3072 2584 2669 2484 
Q 3125 2378 3379 2068 
Q 3634 1759 3634 1313 
Q 3634 634 3220 271 
Q 2806 -91 2034 -91 
Q 1263 -91 848 271 
Q 434 634 434 1313 
Q 434 1759 690 2068 
Q 947 2378 1403 2484 
z
M 1172 3481 
Q 1172 3119 1398 2916 
Q 1625 2713 2034 2713 
Q 2441 2713 2670 2916 
Q 2900 3119 2900 3481 
Q 2900 3844 2670 4047 
Q 2441 4250 2034 4250 
Q 1625 4250 1398 4047 
Q 1172 3844 1172 3481 
z
" transform="scale(0.015625)"/>
       </defs>
       <use xlink:href="#DejaVuSans-38"/>
       <use xlink:href="#DejaVuSans-30" x="63.623047"/>
      </g>
     </g>
    </g>
    <g id="text_7">
     <!-- Number of Baits -->
     <g transform="translate(449.885469 634.316563) scale(0.1 -0.1)">
      <defs>
       <path id="DejaVuSans-4e" d="M 628 4666 
L 1478 4666 
L 3547 763 
L 3547 4666 
L 4159 4666 
L 4159 0 
L 3309 0 
L 1241 3903 
L 1241 0 
L 628 0 
L 628 4666 
z
" transform="scale(0.015625)"/>
       <path id="DejaVuSans-75" d="M 544 1381 
L 544 3500 
L 1119 3500 
L 1119 1403 
Q 1119 906 1312 657 
Q 1506 409 1894 409 
Q 2359 409 2629 706 
Q 2900 1003 2900 1516 
L 2900 3500 
L 3475 3500 
L 3475 0 
L 2900 0 
L 2900 538 
Q 2691 219 2414 64 
Q 2138 -91 1772 -91 
Q 1169 -91 856 284 
Q 544 659 544 1381 
z
M 1991 3584 
L 1991 3584 
z
" transform="scale(0.015625)"/>
       <path id="DejaVuSans-6d" d="M 3328 2828 
Q 3544 3216 3844 3400 
Q 4144 3584 4550 3584 
Q 5097 3584 5394 3201 
Q 5691 2819 5691 2113 
L 5691 0 
L 5113 0 
L 5113 2094 
Q 5113 2597 4934 2840 
Q 4756 3084 4391 3084 
Q 3944 3084 3684 2787 
Q 3425 2491 3425 1978 
L 3425 0 
L 2847 0 
L 2847 2094 
Q 2847 2600 2669 2842 
Q 2491 3084 2119 3084 
Q 1678 3084 1418 2786 
Q 1159 2488 1159 1978 
L 1159 0 
L 581 0 
L 581 3500 
L 1159 3500 
L 1159 2956 
Q 1356 3278 1631 3431 
Q 1906 3584 2284 3584 
Q 2666 3584 2933 3390 
Q 3200 3197 3328 2828 
z
" transform="scale(0.015625)"/>
       <path id="DejaVuSans-62" d="M 3116 1747 
Q 3116 2381 2855 2742 
Q 2594 3103 2138 3103 
Q 1681 3103 1420 2742 
Q 1159 2381 1159 1747 
Q 1159 1113 1420 752 
Q 1681 391 2138 391 
Q 2594 391 2855 752 
Q 3116 1113 3116 1747 
z
M 1159 2969 
Q 1341 3281 1617 3432 
Q 1894 3584 2278 3584 
Q 2916 3584 3314 3078 
Q 3713 2572 3713 1747 
Q 3713 922 3314 415 
Q 2916 -91 2278 -91 
Q 1894 -91 1617 61 
Q 1341 213 1159 525 
L 1159 0 
L 581 0 
L 581 4863 
L 1159 4863 
L 1159 2969 
z
" transform="scale(0.015625)"/>
       <path id="DejaVuSans-65" d="M 3597 1894 
L 3597 1613 
L 953 1613 
Q 991 1019 1311 708 
Q 1631 397 2203 397 
Q 2534 397 2845 478 
Q 3156 559 3463 722 
L 3463 178 
Q 3153 47 2828 -22 
Q 2503 -91 2169 -91 
Q 1331 -91 842 396 
Q 353 884 353 1716 
Q 353 2575 817 3079 
Q 1281 3584 2069 3584 
Q 2775 3584 3186 3129 
Q 3597 2675 3597 1894 
z
M 3022 2063 
Q 3016 2534 2758 2815 
Q 2500 3097 2075 3097 
Q 1594 3097 1305 2825 
Q 1016 2553 972 2059 
L 3022 2063 
z
" transform="scale(0.015625)"/>
       <path id="DejaVuSans-72" d="M 2631 2963 
Q 2534 3019 2420 3045 
Q 2306 3072 2169 3072 
Q 1681 3072 1420 2755 
Q 1159 2438 1159 1844 
L 1159 0 
L 581 0 
L 581 3500 
L 1159 3500 
L 1159 2956 
Q 1341 3275 1631 3429 
Q 1922 3584 2338 3584 
Q 2397 3584 2469 3576 
Q 2541 3569 2628 3553 
L 2631 2963 
z
" transform="scale(0.015625)"/>
       <path id="DejaVuSans-20" transform="scale(0.015625)"/>
       <path id="DejaVuSans-6f" d="M 1959 3097 
Q 1497 3097 1228 2736 
Q 959 2375 959 1747 
Q 959 1119 1226 758 
Q 1494 397 1959 397 
Q 2419 397 2687 759 
Q 2956 1122 2956 1747 
Q 2956 2369 2687 2733 
Q 2419 3097 1959 3097 
z
M 1959 3584 
Q 2709 3584 3137 3096 
Q 3566 2609 3566 1747 
Q 3566 888 3137 398 
Q 2709 -91 1959 -91 
Q 1206 -91 779 398 
Q 353 888 353 1747 
Q 353 2609 779 3096 
Q 1206 3584 1959 3584 
z
" transform="scale(0.015625)"/>
       <path id="DejaVuSans-66" d="M 2375 4863 
L 2375 4384 
L 1825 4384 
Q 1516 4384 1395 4259 
Q 1275 4134 1275 3809 
L 1275 3500 
L 2222 3500 
L 2222 3053 
L 1275 3053 
L 1275 0 
L 697 0 
L 697 3053 
L 147 3053 
L 147 3500 
L 697 3500 
L 697 3744 
Q 697 4328 969 4595 
Q 1241 4863 1831 4863 
L 2375 4863 
z
" transform="scale(0.015625)"/>
       <path id="DejaVuSans-42" d="M 1259 2228 
L 1259 519 
L 2272 519 
Q 2781 519 3026 730 
Q 3272 941 3272 1375 
Q 3272 1813 3026 2020 
Q 2781 2228 2272 2228 
L 1259 2228 
z
M 1259 4147 
L 1259 2741 
L 2194 2741 
Q 2656 2741 2882 2914 
Q 3109 3088 3109 3444 
Q 3109 3797 2882 3972 
Q 2656 4147 2194 4147 
L 1259 4147 
z
M 628 4666 
L 2241 4666 
Q 2963 4666 3353 4366 
Q 3744 4066 3744 3513 
Q 3744 3084 3544 2831 
Q 3344 2578 2956 2516 
Q 3422 2416 3680 2098 
Q 3938 1781 3938 1306 
Q 3938 681 3513 340 
Q 3088 0 2303 0 
L 628 0 
L 628 4666 
z
" transform="scale(0.015625)"/>
       <path id="DejaVuSans-61" d="M 2194 1759 
Q 1497 1759 1228 1600 
Q 959 1441 959 1056 
Q 959 750 1161 570 
Q 1363 391 1709 391 
Q 2188 391 2477 730 
Q 2766 1069 2766 1631 
L 2766 1759 
L 2194 1759 
z
M 3341 1997 
L 3341 0 
L 2766 0 
L 2766 531 
Q 2569 213 2275 61 
Q 1981 -91 1556 -91 
Q 1019 -91 701 211 
Q 384 513 384 1019 
Q 384 1609 779 1909 
Q 1175 2209 1959 2209 
L 2766 2209 
L 2766 2266 
Q 2766 2663 2505 2880 
Q 2244 3097 1772 3097 
Q 1472 3097 1187 3025 
Q 903 2953 641 2809 
L 641 3341 
Q 956 3463 1253 3523 
Q 1550 3584 1831 3584 
Q 2591 3584 2966 3190 
Q 3341 2797 3341 1997 
z
" transform="scale(0.015625)"/>
       <path id="DejaVuSans-69" d="M 603 3500 
L 1178 3500 
L 1178 0 
L 603 0 
L 603 3500 
z
M 603 4863 
L 1178 4863 
L 1178 4134 
L 603 4134 
L 603 4863 
z
" transform="scale(0.015625)"/>
       <path id="DejaVuSans-74" d="M 1172 4494 
L 1172 3500 
L 2356 3500 
L 2356 3053 
L 1172 3053 
L 1172 1153 
Q 1172 725 1289 603 
Q 1406 481 1766 481 
L 2356 481 
L 2356 0 
L 1766 0 
Q 1100 0 847 248 
Q 594 497 594 1153 
L 594 3053 
L 172 3053 
L 172 3500 
L 594 3500 
L 594 4494 
L 1172 4494 
z
" transform="scale(0.015625)"/>
       <path id="DejaVuSans-73" d="M 2834 3397 
L 2834 2853 
Q 2591 2978 2328 3040 
Q 2066 3103 1784 3103 
Q 1356 3103 1142 2972 
Q 928 2841 928 2578 
Q 928 2378 1081 2264 
Q 1234 2150 1697 2047 
L 1894 2003 
Q 2506 1872 2764 1633 
Q 3022 1394 3022 966 
Q 3022 478 2636 193 
Q 2250 -91 1575 -91 
Q 1294 -91 989 -36 
Q 684 19 347 128 
L 347 722 
Q 666 556 975 473 
Q 1284 391 1588 391 
Q 1994 391 2212 530 
Q 2431 669 2431 922 
Q 2431 1156 2273 1281 
Q 2116 1406 1581 1522 
L 1381 1569 
Q 847 1681 609 1914 
Q 372 2147 372 2553 
Q 372 3047 722 3315 
Q 1072 3584 1716 3584 
Q 2034 3584 2315 3537 
Q 2597 3491 2834 3397 
z
" transform="scale(0.015625)"/>
      </defs>
      <use xlink:href="#DejaVuSans-4e"/>
      <use xlink:href="#DejaVuSans-75" x="74.804688"/>
      <use xlink:href="#DejaVuSans-6d" x="138.183594"/>
      <use xlink:href="#DejaVuSans-62" x="235.595703"/>
      <use xlink:href="#DejaVuSans-65" x="299.072266"/>
      <use xlink:href="#DejaVuSans-72" x="360.595703"/>
      <use xlink:href="#DejaVuSans-20" x="401.708984"/>
      <use xlink:href="#DejaVuSans-6f" x="433.496094"/>
      <use xlink:href="#DejaVuSans-66" x="494.677734"/>
      <use xlink:href="#DejaVuSans-20" x="529.882812"/>
      <use xlink:href="#DejaVuSans-42" x="561.669922"/>
      <use xlink:href="#DejaVuSans-61" x="630.273438"/>
      <use xlink:href="#DejaVuSans-69" x="691.552734"/>
      <use xlink:href="#DejaVuSans-74" x="719.335938"/>
      <use xlink:href="#DejaVuSans-73" x="758.544922"/>
     </g>
    </g>
   </g>
   <g id="matplotlib.axis_2">
    <g id="ytick_1">
     <g id="line2d_7">
      <defs>
       <path id="mc13fd60ff9" d="M 0 0 
L -3.5 0 
" style="stroke: #000000; stroke-width: 0.8"/>
      </defs>
      <g>
       <use xlink:href="#mc13fd60ff9" x="47.765" y="606.04" style="stroke: #000000; stroke-width: 0.8"/>
      </g>
     </g>
     <g id="text_8">
      <!-- 0.0 -->
      <g transform="translate(24.861875 609.839219) scale(0.1 -0.1)">
       <defs>
        <path id="DejaVuSans-2e" d="M 684 794 
L 1344 794 
L 1344 0 
L 684 0 
L 684 794 
z
" transform="scale(0.015625)"/>
       </defs>
       <use xlink:href="#DejaVuSans-30"/>
       <use xlink:href="#DejaVuSans-2e" x="63.623047"/>
       <use xlink:href="#DejaVuSans-30" x="95.410156"/>
      </g>
     </g>
    </g>
    <g id="ytick_2">
     <g id="line2d_8">
      <g>
       <use xlink:href="#mc13fd60ff9" x="47.765" y="490.9816" style="stroke: #000000; stroke-width: 0.8"/>
      </g>
     </g>
     <g id="text_9">
      <!-- 0.2 -->
      <g transform="translate(24.861875 494.780819) scale(0.1 -0.1)">
       <defs>
        <path id="DejaVuSans-32" d="M 1228 531 
L 3431 531 
L 3431 0 
L 469 0 
L 469 531 
Q 828 903 1448 1529 
Q 2069 2156 2228 2338 
Q 2531 2678 2651 2914 
Q 2772 3150 2772 3378 
Q 2772 3750 2511 3984 
Q 2250 4219 1831 4219 
Q 1534 4219 1204 4116 
Q 875 4013 500 3803 
L 500 4441 
Q 881 4594 1212 4672 
Q 1544 4750 1819 4750 
Q 2544 4750 2975 4387 
Q 3406 4025 3406 3419 
Q 3406 3131 3298 2873 
Q 3191 2616 2906 2266 
Q 2828 2175 2409 1742 
Q 1991 1309 1228 531 
z
" transform="scale(0.015625)"/>
       </defs>
       <use xlink:href="#DejaVuSans-30"/>
       <use xlink:href="#DejaVuSans-2e" x="63.623047"/>
       <use xlink:href="#DejaVuSans-32" x="95.410156"/>
      </g>
     </g>
    </g>
    <g id="ytick_3">
     <g id="line2d_9">
      <g>
       <use xlink:href="#mc13fd60ff9" x="47.765" y="375.9232" style="stroke: #000000; stroke-width: 0.8"/>
      </g>
     </g>
     <g id="text_10">
      <!-- 0.4 -->
      <g transform="translate(24.861875 379.722419) scale(0.1 -0.1)">
       <use xlink:href="#DejaVuSans-30"/>
       <use xlink:href="#DejaVuSans-2e" x="63.623047"/>
       <use xlink:href="#DejaVuSans-34" x="95.410156"/>
      </g>
     </g>
    </g>
    <g id="ytick_4">
     <g id="line2d_10">
      <g>
       <use xlink:href="#mc13fd60ff9" x="47.765" y="260.8648" style="stroke: #000000; stroke-width: 0.8"/>
      </g>
     </g>
     <g id="text_11">
      <!-- 0.6 -->
      <g transform="translate(24.861875 264.664019) scale(0.1 -0.1)">
       <use xlink:href="#DejaVuSans-30"/>
       <use xlink:href="#DejaVuSans-2e" x="63.623047"/>
       <use xlink:href="#DejaVuSans-36" x="95.410156"/>
      </g>
     </g>
    </g>
    <g id="ytick_5">
     <g id="line2d_11">
      <g>
       <use xlink:href="#mc13fd60ff9" x="47.765" y="145.8064" style="stroke: #000000; stroke-width: 0.8"/>
      </g>
     </g>
     <g id="text_12">
      <!-- 0.8 -->
      <g transform="translate(24.861875 149.605619) scale(0.1 -0.1)">
       <use xlink:href="#DejaVuSans-30"/>
       <use xlink:href="#DejaVuSans-2e" x="63.623047"/>
       <use xlink:href="#DejaVuSans-38" x="95.410156"/>
      </g>
     </g>
    </g>
    <g id="ytick_6">
     <g id="line2d_12">
      <g>
       <use xlink:href="#mc13fd60ff9" x="47.765" y="30.748" style="stroke: #000000; stroke-width: 0.8"/>
      </g>
     </g>
     <g id="text_13">
      <!-- 1.0 -->
      <g transform="translate(24.861875 34.547219) scale(0.1 -0.1)">
       <defs>
        <path id="DejaVuSans-31" d="M 794 531 
L 1825 531 
L 1825 4091 
L 703 3866 
L 703 4441 
L 1819 4666 
L 2450 4666 
L 2450 531 
L 3481 531 
L 3481 0 
L 794 0 
L 794 531 
z
" transform="scale(0.015625)"/>
       </defs>
       <use xlink:href="#DejaVuSans-31"/>
       <use xlink:href="#DejaVuSans-2e" x="63.623047"/>
       <use xlink:href="#DejaVuSans-30" x="95.410156"/>
      </g>
     </g>
    </g>
    <g id="text_14">
     <!-- Aggregated NMF GO Scores -->
     <g transform="translate(18.782187 387.746344) rotate(-90) scale(0.1 -0.1)">
      <defs>
       <path id="DejaVuSans-41" d="M 2188 4044 
L 1331 1722 
L 3047 1722 
L 2188 4044 
z
M 1831 4666 
L 2547 4666 
L 4325 0 
L 3669 0 
L 3244 1197 
L 1141 1197 
L 716 0 
L 50 0 
L 1831 4666 
z
" transform="scale(0.015625)"/>
       <path id="DejaVuSans-67" d="M 2906 1791 
Q 2906 2416 2648 2759 
Q 2391 3103 1925 3103 
Q 1463 3103 1205 2759 
Q 947 2416 947 1791 
Q 947 1169 1205 825 
Q 1463 481 1925 481 
Q 2391 481 2648 825 
Q 2906 1169 2906 1791 
z
M 3481 434 
Q 3481 -459 3084 -895 
Q 2688 -1331 1869 -1331 
Q 1566 -1331 1297 -1286 
Q 1028 -1241 775 -1147 
L 775 -588 
Q 1028 -725 1275 -790 
Q 1522 -856 1778 -856 
Q 2344 -856 2625 -561 
Q 2906 -266 2906 331 
L 2906 616 
Q 2728 306 2450 153 
Q 2172 0 1784 0 
Q 1141 0 747 490 
Q 353 981 353 1791 
Q 353 2603 747 3093 
Q 1141 3584 1784 3584 
Q 2172 3584 2450 3431 
Q 2728 3278 2906 2969 
L 2906 3500 
L 3481 3500 
L 3481 434 
z
" transform="scale(0.015625)"/>
       <path id="DejaVuSans-64" d="M 2906 2969 
L 2906 4863 
L 3481 4863 
L 3481 0 
L 2906 0 
L 2906 525 
Q 2725 213 2448 61 
Q 2172 -91 1784 -91 
Q 1150 -91 751 415 
Q 353 922 353 1747 
Q 353 2572 751 3078 
Q 1150 3584 1784 3584 
Q 2172 3584 2448 3432 
Q 2725 3281 2906 2969 
z
M 947 1747 
Q 947 1113 1208 752 
Q 1469 391 1925 391 
Q 2381 391 2643 752 
Q 2906 1113 2906 1747 
Q 2906 2381 2643 2742 
Q 2381 3103 1925 3103 
Q 1469 3103 1208 2742 
Q 947 2381 947 1747 
z
" transform="scale(0.015625)"/>
       <path id="DejaVuSans-4d" d="M 628 4666 
L 1569 4666 
L 2759 1491 
L 3956 4666 
L 4897 4666 
L 4897 0 
L 4281 0 
L 4281 4097 
L 3078 897 
L 2444 897 
L 1241 4097 
L 1241 0 
L 628 0 
L 628 4666 
z
" transform="scale(0.015625)"/>
       <path id="DejaVuSans-46" d="M 628 4666 
L 3309 4666 
L 3309 4134 
L 1259 4134 
L 1259 2759 
L 3109 2759 
L 3109 2228 
L 1259 2228 
L 1259 0 
L 628 0 
L 628 4666 
z
" transform="scale(0.015625)"/>
       <path id="DejaVuSans-47" d="M 3809 666 
L 3809 1919 
L 2778 1919 
L 2778 2438 
L 4434 2438 
L 4434 434 
Q 4069 175 3628 42 
Q 3188 -91 2688 -91 
Q 1594 -91 976 548 
Q 359 1188 359 2328 
Q 359 3472 976 4111 
Q 1594 4750 2688 4750 
Q 3144 4750 3555 4637 
Q 3966 4525 4313 4306 
L 4313 3634 
Q 3963 3931 3569 4081 
Q 3175 4231 2741 4231 
Q 1884 4231 1454 3753 
Q 1025 3275 1025 2328 
Q 1025 1384 1454 906 
Q 1884 428 2741 428 
Q 3075 428 3337 486 
Q 3600 544 3809 666 
z
" transform="scale(0.015625)"/>
       <path id="DejaVuSans-4f" d="M 2522 4238 
Q 1834 4238 1429 3725 
Q 1025 3213 1025 2328 
Q 1025 1447 1429 934 
Q 1834 422 2522 422 
Q 3209 422 3611 934 
Q 4013 1447 4013 2328 
Q 4013 3213 3611 3725 
Q 3209 4238 2522 4238 
z
M 2522 4750 
Q 3503 4750 4090 4092 
Q 4678 3434 4678 2328 
Q 4678 1225 4090 567 
Q 3503 -91 2522 -91 
Q 1538 -91 948 565 
Q 359 1222 359 2328 
Q 359 3434 948 4092 
Q 1538 4750 2522 4750 
z
" transform="scale(0.015625)"/>
       <path id="DejaVuSans-53" d="M 3425 4513 
L 3425 3897 
Q 3066 4069 2747 4153 
Q 2428 4238 2131 4238 
Q 1616 4238 1336 4038 
Q 1056 3838 1056 3469 
Q 1056 3159 1242 3001 
Q 1428 2844 1947 2747 
L 2328 2669 
Q 3034 2534 3370 2195 
Q 3706 1856 3706 1288 
Q 3706 609 3251 259 
Q 2797 -91 1919 -91 
Q 1588 -91 1214 -16 
Q 841 59 441 206 
L 441 856 
Q 825 641 1194 531 
Q 1563 422 1919 422 
Q 2459 422 2753 634 
Q 3047 847 3047 1241 
Q 3047 1584 2836 1778 
Q 2625 1972 2144 2069 
L 1759 2144 
Q 1053 2284 737 2584 
Q 422 2884 422 3419 
Q 422 4038 858 4394 
Q 1294 4750 2059 4750 
Q 2388 4750 2728 4690 
Q 3069 4631 3425 4513 
z
" transform="scale(0.015625)"/>
       <path id="DejaVuSans-63" d="M 3122 3366 
L 3122 2828 
Q 2878 2963 2633 3030 
Q 2388 3097 2138 3097 
Q 1578 3097 1268 2742 
Q 959 2388 959 1747 
Q 959 1106 1268 751 
Q 1578 397 2138 397 
Q 2388 397 2633 464 
Q 2878 531 3122 666 
L 3122 134 
Q 2881 22 2623 -34 
Q 2366 -91 2075 -91 
Q 1284 -91 818 406 
Q 353 903 353 1747 
Q 353 2603 823 3093 
Q 1294 3584 2113 3584 
Q 2378 3584 2631 3529 
Q 2884 3475 3122 3366 
z
" transform="scale(0.015625)"/>
      </defs>
      <use xlink:href="#DejaVuSans-41"/>
      <use xlink:href="#DejaVuSans-67" x="68.408203"/>
      <use xlink:href="#DejaVuSans-67" x="131.884766"/>
      <use xlink:href="#DejaVuSans-72" x="195.361328"/>
      <use xlink:href="#DejaVuSans-65" x="234.224609"/>
      <use xlink:href="#DejaVuSans-67" x="295.748047"/>
      <use xlink:href="#DejaVuSans-61" x="359.224609"/>
      <use xlink:href="#DejaVuSans-74" x="420.503906"/>
      <use xlink:href="#DejaVuSans-65" x="459.712891"/>
      <use xlink:href="#DejaVuSans-64" x="521.236328"/>
      <use xlink:href="#DejaVuSans-20" x="584.712891"/>
      <use xlink:href="#DejaVuSans-4e" x="616.5"/>
      <use xlink:href="#DejaVuSans-4d" x="691.304688"/>
      <use xlink:href="#DejaVuSans-46" x="777.583984"/>
      <use xlink:href="#DejaVuSans-20" x="835.103516"/>
      <use xlink:href="#DejaVuSans-47" x="866.890625"/>
      <use xlink:href="#DejaVuSans-4f" x="944.380859"/>
      <use xlink:href="#DejaVuSans-20" x="1023.091797"/>
      <use xlink:href="#DejaVuSans-53" x="1054.878906"/>
      <use xlink:href="#DejaVuSans-63" x="1118.355469"/>
      <use xlink:href="#DejaVuSans-6f" x="1173.335938"/>
      <use xlink:href="#DejaVuSans-72" x="1234.517578"/>
      <use xlink:href="#DejaVuSans-65" x="1273.380859"/>
      <use xlink:href="#DejaVuSans-73" x="1334.904297"/>
     </g>
    </g>
   </g>
   <g id="line2d_13">
    <path d="M 47.765 189.828928 
L 65.4711 180.950101 
L 83.1772 180.850838 
L 100.8833 176.416056 
L 118.5894 170.961338 
L 136.2955 171.779456 
L 154.0016 166.916953 
L 171.7077 165.788782 
L 189.4138 164.463188 
L 207.1199 166.9544 
L 224.826 164.42906 
L 242.5321 160.148129 
L 260.2382 158.220161 
L 277.9443 153.01874 
L 295.6504 159.252257 
L 313.3565 154.571324 
L 331.0626 154.898974 
L 348.7687 155.091063 
L 366.4748 152.760314 
L 384.1809 149.488115 
L 401.887 150.235773 
L 419.5931 151.185106 
L 437.2992 149.728228 
L 455.0053 146.778546 
L 472.7114 143.089266 
L 490.4175 145.148263 
L 508.1236 147.404016 
L 525.8297 143.594 
L 543.5358 146.616773 
L 561.2419 140.341824 
L 578.948 141.476578 
L 596.6541 138.452652 
L 614.3602 135.737846 
L 632.0663 132.696069 
L 649.7724 134.845254 
L 667.4785 136.936476 
L 685.1846 135.578931 
L 702.8907 135.912451 
L 720.5968 134.124129 
L 738.3029 131.540041 
L 756.009 135.935918 
L 773.7151 127.49102 
L 791.4212 124.241409 
L 809.1273 127.383054 
L 826.8334 126.855602 
L 844.5395 126.560326 
L 862.2456 128.34928 
L 879.9517 120.843092 
L 897.6578 121.487499 
L 915.3639 123.198303 
L 933.07 126.987543 
" clip-path="url(#p758a73bcea)" style="fill: none; stroke: #1f77b4; stroke-width: 1.5; stroke-linecap: square"/>
   </g>
   <g id="line2d_14">
    <path d="M 47.765 363.494219 
L 65.4711 350.469376 
L 83.1772 372.143726 
L 100.8833 354.719364 
L 118.5894 358.210598 
L 136.2955 354.827824 
L 154.0016 325.629307 
L 171.7077 347.42647 
L 189.4138 338.296603 
L 207.1199 338.889588 
L 224.826 334.900161 
L 242.5321 327.388238 
L 260.2382 323.487375 
L 277.9443 337.440204 
L 295.6504 311.227333 
L 313.3565 319.299779 
L 331.0626 319.112153 
L 348.7687 316.549594 
L 366.4748 318.334593 
L 384.1809 327.590363 
L 401.887 318.7788 
L 419.5931 311.695259 
L 437.2992 323.31398 
L 455.0053 308.558315 
L 472.7114 299.762231 
L 490.4175 302.984387 
L 508.1236 290.797798 
L 525.8297 309.376263 
L 543.5358 299.348186 
L 561.2419 299.032884 
L 578.948 292.954751 
L 596.6541 314.79218 
L 614.3602 294.620437 
L 632.0663 283.335564 
L 649.7724 286.264206 
L 667.4785 294.471911 
L 685.1846 289.218116 
L 702.8907 291.233525 
L 720.5968 284.140259 
L 738.3029 282.17902 
L 756.009 272.813089 
L 773.7151 283.376256 
L 791.4212 284.126839 
L 809.1273 269.974315 
L 826.8334 272.905414 
L 844.5395 271.539586 
L 862.2456 261.44738 
L 879.9517 291.663323 
L 897.6578 281.028357 
L 915.3639 268.621651 
L 933.07 267.497855 
" clip-path="url(#p758a73bcea)" style="fill: none; stroke: #ff7f0e; stroke-width: 1.5; stroke-linecap: square"/>
   </g>
   <g id="line2d_15">
    <path d="M 47.765 241.096311 
L 65.4711 239.361712 
L 83.1772 236.574151 
L 100.8833 232.849632 
L 118.5894 226.716764 
L 136.2955 224.417559 
L 154.0016 219.980201 
L 171.7077 221.360721 
L 189.4138 215.592709 
L 207.1199 214.458698 
L 224.826 215.515243 
L 242.5321 215.603018 
L 260.2382 214.914552 
L 277.9443 210.745765 
L 295.6504 212.807616 
L 313.3565 204.069132 
L 331.0626 201.388463 
L 348.7687 192.417113 
L 366.4748 197.593327 
L 384.1809 200.902999 
L 401.887 189.19483 
L 419.5931 187.811512 
L 437.2992 175.570767 
L 455.0053 174.221508 
L 472.7114 174.020574 
L 490.4175 173.792287 
L 508.1236 173.480826 
L 525.8297 176.988524 
L 543.5358 173.348543 
L 561.2419 171.629295 
L 578.948 172.526488 
L 596.6541 166.430491 
L 614.3602 167.507254 
L 632.0663 171.903066 
L 649.7724 167.35108 
L 667.4785 166.002655 
L 685.1846 164.528744 
L 702.8907 162.743492 
L 720.5968 166.55415 
L 738.3029 166.765025 
L 756.009 160.440765 
L 773.7151 159.651047 
L 791.4212 157.288916 
L 809.1273 157.979707 
L 826.8334 157.55957 
L 844.5395 159.978857 
L 862.2456 155.432412 
L 879.9517 156.275417 
L 897.6578 151.616791 
L 915.3639 152.766578 
L 933.07 156.514088 
" clip-path="url(#p758a73bcea)" style="fill: none; stroke: #2ca02c; stroke-width: 1.5; stroke-linecap: square"/>
   </g>
   <g id="line2d_16">
    <path d="M 47.765 245.133531 
L 65.4711 240.833495 
L 83.1772 235.729056 
L 100.8833 233.968765 
L 118.5894 231.206111 
L 136.2955 229.496496 
L 154.0016 225.37117 
L 171.7077 220.499946 
L 189.4138 219.505886 
L 207.1199 217.673375 
L 224.826 216.136951 
L 242.5321 216.473956 
L 260.2382 217.769982 
L 277.9443 219.916704 
L 295.6504 210.973106 
L 313.3565 204.358893 
L 331.0626 204.383079 
L 348.7687 198.509208 
L 366.4748 197.149685 
L 384.1809 198.560202 
L 401.887 198.009197 
L 419.5931 194.293889 
L 437.2992 188.09683 
L 455.0053 187.245383 
L 472.7114 190.099911 
L 490.4175 184.393921 
L 508.1236 181.114839 
L 525.8297 170.113328 
L 543.5358 167.902157 
L 561.2419 172.497667 
L 578.948 171.82156 
L 596.6541 173.248462 
L 614.3602 176.484012 
L 632.0663 177.008693 
L 649.7724 171.541433 
L 667.4785 174.299188 
L 685.1846 170.905725 
L 702.8907 169.784947 
L 720.5968 174.337208 
L 738.3029 167.635996 
L 756.009 165.677601 
L 773.7151 160.851029 
L 791.4212 163.98971 
L 809.1273 164.48621 
L 826.8334 163.27412 
L 844.5395 158.85396 
L 862.2456 161.818143 
L 879.9517 155.963022 
L 897.6578 154.586853 
L 915.3639 153.67224 
L 933.07 152.955543 
" clip-path="url(#p758a73bcea)" style="fill: none; stroke: #d62728; stroke-width: 1.5; stroke-linecap: square"/>
   </g>
   <g id="line2d_17">
    <path d="M 47.765 275.663829 
L 65.4711 273.520821 
L 83.1772 271.841832 
L 100.8833 265.520834 
L 118.5894 264.050495 
L 136.2955 261.185129 
L 154.0016 257.805035 
L 171.7077 259.520196 
L 189.4138 260.235598 
L 207.1199 252.815304 
L 224.826 255.008211 
L 242.5321 248.19949 
L 260.2382 245.998381 
L 277.9443 244.300462 
L 295.6504 246.483563 
L 313.3565 245.239757 
L 331.0626 246.119484 
L 348.7687 242.056631 
L 366.4748 241.193721 
L 384.1809 238.109198 
L 401.887 236.855064 
L 419.5931 238.119293 
L 437.2992 229.637029 
L 455.0053 223.750355 
L 472.7114 219.591623 
L 490.4175 223.342596 
L 508.1236 218.051722 
L 525.8297 218.954976 
L 543.5358 219.094374 
L 561.2419 217.244464 
L 578.948 214.13928 
L 596.6541 216.56951 
L 614.3602 215.575539 
L 632.0663 212.128939 
L 649.7724 209.557924 
L 667.4785 208.660005 
L 685.1846 195.592722 
L 702.8907 197.160452 
L 720.5968 194.577081 
L 738.3029 194.642367 
L 756.009 194.080335 
L 773.7151 192.54967 
L 791.4212 185.162267 
L 809.1273 182.235008 
L 826.8334 176.932224 
L 844.5395 179.270994 
L 862.2456 176.429674 
L 879.9517 167.312435 
L 897.6578 163.372233 
L 915.3639 163.521219 
L 933.07 159.789752 
" clip-path="url(#p758a73bcea)" style="fill: none; stroke: #9467bd; stroke-width: 1.5; stroke-linecap: square"/>
   </g>
   <g id="line2d_18">
    <path d="M 47.765 226.332693 
L 65.4711 224.918456 
L 83.1772 216.709478 
L 100.8833 213.632573 
L 118.5894 208.314258 
L 136.2955 209.763557 
L 154.0016 206.284331 
L 171.7077 205.8809 
L 189.4138 207.663547 
L 207.1199 206.781129 
L 224.826 208.02599 
L 242.5321 210.695222 
L 260.2382 206.741113 
L 277.9443 208.384907 
L 295.6504 208.998915 
L 313.3565 207.075123 
L 331.0626 204.207866 
L 348.7687 206.645782 
L 366.4748 208.509825 
L 384.1809 213.290977 
L 401.887 210.647677 
L 419.5931 205.552102 
L 437.2992 202.844148 
L 455.0053 203.878524 
L 472.7114 203.52927 
L 490.4175 202.538819 
L 508.1236 201.570786 
L 525.8297 204.396256 
L 543.5358 206.810511 
L 561.2419 204.398667 
L 578.948 203.200883 
L 596.6541 204.54459 
L 614.3602 203.677702 
L 632.0663 200.626535 
L 649.7724 205.030909 
L 667.4785 202.927934 
L 685.1846 207.574657 
L 702.8907 200.146802 
L 720.5968 196.583238 
L 738.3029 202.65641 
L 756.009 200.452449 
L 773.7151 200.858024 
L 791.4212 200.673741 
L 809.1273 200.810201 
L 826.8334 197.067757 
L 844.5395 193.673862 
L 862.2456 185.023748 
L 879.9517 187.329932 
L 897.6578 187.712414 
L 915.3639 184.740204 
L 933.07 185.252454 
" clip-path="url(#p758a73bcea)" style="fill: none; stroke: #8c564b; stroke-width: 1.5; stroke-linecap: square"/>
   </g>
   <g id="line2d_19">
    <path d="M 47.765 238.838893 
L 65.4711 234.75015 
L 83.1772 227.076549 
L 100.8833 223.567316 
L 118.5894 221.343274 
L 136.2955 220.67462 
L 154.0016 218.393328 
L 171.7077 216.736939 
L 189.4138 220.195126 
L 207.1199 225.392554 
L 224.826 228.999548 
L 242.5321 222.36203 
L 260.2382 228.069626 
L 277.9443 228.498373 
L 295.6504 221.074302 
L 313.3565 217.786941 
L 331.0626 219.592142 
L 348.7687 225.397006 
L 366.4748 227.959687 
L 384.1809 226.927658 
L 401.887 224.980478 
L 419.5931 222.000403 
L 437.2992 221.190715 
L 455.0053 215.489009 
L 472.7114 210.825077 
L 490.4175 209.730864 
L 508.1236 206.531731 
L 525.8297 209.057163 
L 543.5358 204.764855 
L 561.2419 194.609558 
L 578.948 193.651602 
L 596.6541 192.935318 
L 614.3602 188.77118 
L 632.0663 195.300387 
L 649.7724 199.99861 
L 667.4785 197.890599 
L 685.1846 196.0568 
L 702.8907 192.961511 
L 720.5968 192.300723 
L 738.3029 188.156779 
L 756.009 202.143169 
L 773.7151 201.788308 
L 791.4212 201.296307 
L 809.1273 204.579768 
L 826.8334 197.966516 
L 844.5395 186.324778 
L 862.2456 185.049405 
L 879.9517 185.578925 
L 897.6578 191.936271 
L 915.3639 189.61259 
L 933.07 188.66646 
" clip-path="url(#p758a73bcea)" style="fill: none; stroke: #e377c2; stroke-width: 1.5; stroke-linecap: square"/>
   </g>
   <g id="line2d_20">
    <path d="M 47.765 225.281142 
L 65.4711 222.043328 
L 83.1772 217.148888 
L 100.8833 214.427627 
L 118.5894 212.977711 
L 136.2955 213.382152 
L 154.0016 215.357654 
L 171.7077 212.780382 
L 189.4138 207.556974 
L 207.1199 209.876998 
L 224.826 209.851024 
L 242.5321 209.216901 
L 260.2382 212.943989 
L 277.9443 215.580122 
L 295.6504 211.355738 
L 313.3565 214.062071 
L 331.0626 207.61807 
L 348.7687 209.210187 
L 366.4748 205.916733 
L 384.1809 202.101158 
L 401.887 199.003111 
L 419.5931 198.854899 
L 437.2992 197.959434 
L 455.0053 204.054587 
L 472.7114 198.855612 
L 490.4175 197.163337 
L 508.1236 196.550815 
L 525.8297 197.820972 
L 543.5358 207.107096 
L 561.2419 205.961124 
L 578.948 198.782093 
L 596.6541 199.66206 
L 614.3602 205.324198 
L 632.0663 196.045906 
L 649.7724 198.034943 
L 667.4785 195.116498 
L 685.1846 197.501694 
L 702.8907 202.538262 
L 720.5968 200.815502 
L 738.3029 200.729776 
L 756.009 196.29319 
L 773.7151 190.640625 
L 791.4212 182.598251 
L 809.1273 185.100282 
L 826.8334 187.318902 
L 844.5395 180.020598 
L 862.2456 175.863507 
L 879.9517 175.919457 
L 897.6578 177.039394 
L 915.3639 184.452667 
L 933.07 179.99984 
" clip-path="url(#p758a73bcea)" style="fill: none; stroke: #7f7f7f; stroke-width: 1.5; stroke-linecap: square"/>
   </g>
   <g id="line2d_21">
    <path d="M 47.765 219.808851 
L 65.4711 221.371402 
L 83.1772 221.33751 
L 100.8833 220.799741 
L 118.5894 218.266482 
L 136.2955 214.551464 
L 154.0016 213.893877 
L 171.7077 215.95909 
L 189.4138 213.256036 
L 207.1199 208.807428 
L 224.826 207.953309 
L 242.5321 207.759217 
L 260.2382 204.502263 
L 277.9443 204.079064 
L 295.6504 201.77312 
L 313.3565 200.998536 
L 331.0626 197.885046 
L 348.7687 199.79681 
L 366.4748 198.168603 
L 384.1809 197.370573 
L 401.887 199.933688 
L 419.5931 192.618919 
L 437.2992 197.580204 
L 455.0053 194.064023 
L 472.7114 179.698771 
L 490.4175 177.721577 
L 508.1236 173.728405 
L 525.8297 188.999495 
L 543.5358 173.53579 
L 561.2419 179.088839 
L 578.948 185.345438 
L 596.6541 173.76688 
L 614.3602 176.223974 
L 632.0663 174.102936 
L 649.7724 175.546431 
L 667.4785 173.290017 
L 685.1846 172.050079 
L 702.8907 170.446271 
L 720.5968 173.586578 
L 738.3029 170.715 
L 756.009 167.402098 
L 773.7151 168.471015 
L 791.4212 172.253527 
L 809.1273 161.161117 
L 826.8334 167.44104 
L 844.5395 170.414312 
L 862.2456 166.208919 
L 879.9517 163.269168 
L 897.6578 168.228345 
L 915.3639 169.137742 
L 933.07 161.902231 
" clip-path="url(#p758a73bcea)" style="fill: none; stroke: #bcbd22; stroke-width: 1.5; stroke-linecap: square"/>
   </g>
   <g id="line2d_22">
    <path d="M 47.765 235.852967 
L 65.4711 235.096444 
L 83.1772 236.464218 
L 100.8833 239.697049 
L 118.5894 233.815527 
L 136.2955 232.363677 
L 154.0016 229.428797 
L 171.7077 231.914161 
L 189.4138 230.475983 
L 207.1199 218.233158 
L 224.826 214.379234 
L 242.5321 209.356384 
L 260.2382 203.829028 
L 277.9443 199.787717 
L 295.6504 202.963884 
L 313.3565 197.563043 
L 331.0626 206.556184 
L 348.7687 202.406406 
L 366.4748 189.054878 
L 384.1809 194.459616 
L 401.887 192.75151 
L 419.5931 190.570434 
L 437.2992 197.386245 
L 455.0053 192.995752 
L 472.7114 195.484054 
L 490.4175 187.967806 
L 508.1236 184.898138 
L 525.8297 187.209837 
L 543.5358 187.706763 
L 561.2419 183.974042 
L 578.948 187.730821 
L 596.6541 176.500353 
L 614.3602 180.809511 
L 632.0663 182.785627 
L 649.7724 183.865046 
L 667.4785 180.07447 
L 685.1846 178.607156 
L 702.8907 179.92489 
L 720.5968 177.976312 
L 738.3029 181.85783 
L 756.009 177.166612 
L 773.7151 176.594611 
L 791.4212 168.35912 
L 809.1273 166.823234 
L 826.8334 170.221835 
L 844.5395 164.333775 
L 862.2456 156.356919 
L 879.9517 152.642623 
L 897.6578 159.630335 
L 915.3639 165.683176 
L 933.07 167.178864 
" clip-path="url(#p758a73bcea)" style="fill: none; stroke: #17becf; stroke-width: 1.5; stroke-linecap: square"/>
   </g>
   <g id="line2d_23">
    <path d="M 47.765 195.653562 
L 65.4711 197.361024 
L 83.1772 190.641752 
L 100.8833 189.075663 
L 118.5894 191.047661 
L 136.2955 201.533616 
L 154.0016 194.928839 
L 171.7077 200.967902 
L 189.4138 201.434922 
L 207.1199 204.459554 
L 224.826 197.830659 
L 242.5321 196.486681 
L 260.2382 194.703186 
L 277.9443 186.434847 
L 295.6504 193.028368 
L 313.3565 192.63845 
L 331.0626 196.417637 
L 348.7687 191.177515 
L 366.4748 192.23218 
L 384.1809 187.607826 
L 401.887 181.096219 
L 419.5931 186.083196 
L 437.2992 184.410047 
L 455.0053 187.826545 
L 472.7114 184.98827 
L 490.4175 186.049007 
L 508.1236 185.104935 
L 525.8297 184.182306 
L 543.5358 183.450953 
L 561.2419 189.446247 
L 578.948 195.497732 
L 596.6541 190.041701 
L 614.3602 183.870825 
L 632.0663 183.998425 
L 649.7724 180.692665 
L 667.4785 178.437403 
L 685.1846 182.225269 
L 702.8907 179.765141 
L 720.5968 177.221069 
L 738.3029 181.280568 
L 756.009 185.202484 
L 773.7151 186.114861 
L 791.4212 182.287366 
L 809.1273 176.506171 
L 826.8334 170.768603 
L 844.5395 170.611462 
L 862.2456 176.632989 
L 879.9517 170.903459 
L 897.6578 172.728168 
L 915.3639 172.707638 
L 933.07 178.054713 
" clip-path="url(#p758a73bcea)" style="fill: none; stroke: #9edae5; stroke-width: 1.5; stroke-linecap: square"/>
   </g>
   <g id="patch_3">
    <path d="M 47.765 606.04 
L 47.765 30.748 
" style="fill: none; stroke: #000000; stroke-width: 0.8; stroke-linejoin: miter; stroke-linecap: square"/>
   </g>
   <g id="patch_4">
    <path d="M 933.07 606.04 
L 933.07 30.748 
" style="fill: none; stroke: #000000; stroke-width: 0.8; stroke-linejoin: miter; stroke-linecap: square"/>
   </g>
   <g id="patch_5">
    <path d="M 47.765 606.04 
L 933.07 606.04 
" style="fill: none; stroke: #000000; stroke-width: 0.8; stroke-linejoin: miter; stroke-linecap: square"/>
   </g>
   <g id="patch_6">
    <path d="M 47.765 30.748 
L 933.07 30.748 
" style="fill: none; stroke: #000000; stroke-width: 0.8; stroke-linejoin: miter; stroke-linecap: square"/>
   </g>
   <g id="text_15">
    <!-- Aggregated NMF GO Scores by Number of Baits for Each Method -->
    <g transform="translate(296.338125 24.748) scale(0.12 -0.12)">
     <defs>
      <path id="DejaVuSans-79" d="M 2059 -325 
Q 1816 -950 1584 -1140 
Q 1353 -1331 966 -1331 
L 506 -1331 
L 506 -850 
L 844 -850 
Q 1081 -850 1212 -737 
Q 1344 -625 1503 -206 
L 1606 56 
L 191 3500 
L 800 3500 
L 1894 763 
L 2988 3500 
L 3597 3500 
L 2059 -325 
z
" transform="scale(0.015625)"/>
      <path id="DejaVuSans-45" d="M 628 4666 
L 3578 4666 
L 3578 4134 
L 1259 4134 
L 1259 2753 
L 3481 2753 
L 3481 2222 
L 1259 2222 
L 1259 531 
L 3634 531 
L 3634 0 
L 628 0 
L 628 4666 
z
" transform="scale(0.015625)"/>
      <path id="DejaVuSans-68" d="M 3513 2113 
L 3513 0 
L 2938 0 
L 2938 2094 
Q 2938 2591 2744 2837 
Q 2550 3084 2163 3084 
Q 1697 3084 1428 2787 
Q 1159 2491 1159 1978 
L 1159 0 
L 581 0 
L 581 4863 
L 1159 4863 
L 1159 2956 
Q 1366 3272 1645 3428 
Q 1925 3584 2291 3584 
Q 2894 3584 3203 3211 
Q 3513 2838 3513 2113 
z
" transform="scale(0.015625)"/>
     </defs>
     <use xlink:href="#DejaVuSans-41"/>
     <use xlink:href="#DejaVuSans-67" x="68.408203"/>
     <use xlink:href="#DejaVuSans-67" x="131.884766"/>
     <use xlink:href="#DejaVuSans-72" x="195.361328"/>
     <use xlink:href="#DejaVuSans-65" x="234.224609"/>
     <use xlink:href="#DejaVuSans-67" x="295.748047"/>
     <use xlink:href="#DejaVuSans-61" x="359.224609"/>
     <use xlink:href="#DejaVuSans-74" x="420.503906"/>
     <use xlink:href="#DejaVuSans-65" x="459.712891"/>
     <use xlink:href="#DejaVuSans-64" x="521.236328"/>
     <use xlink:href="#DejaVuSans-20" x="584.712891"/>
     <use xlink:href="#DejaVuSans-4e" x="616.5"/>
     <use xlink:href="#DejaVuSans-4d" x="691.304688"/>
     <use xlink:href="#DejaVuSans-46" x="777.583984"/>
     <use xlink:href="#DejaVuSans-20" x="835.103516"/>
     <use xlink:href="#DejaVuSans-47" x="866.890625"/>
     <use xlink:href="#DejaVuSans-4f" x="944.380859"/>
     <use xlink:href="#DejaVuSans-20" x="1023.091797"/>
     <use xlink:href="#DejaVuSans-53" x="1054.878906"/>
     <use xlink:href="#DejaVuSans-63" x="1118.355469"/>
     <use xlink:href="#DejaVuSans-6f" x="1173.335938"/>
     <use xlink:href="#DejaVuSans-72" x="1234.517578"/>
     <use xlink:href="#DejaVuSans-65" x="1273.380859"/>
     <use xlink:href="#DejaVuSans-73" x="1334.904297"/>
     <use xlink:href="#DejaVuSans-20" x="1387.003906"/>
     <use xlink:href="#DejaVuSans-62" x="1418.791016"/>
     <use xlink:href="#DejaVuSans-79" x="1482.267578"/>
     <use xlink:href="#DejaVuSans-20" x="1541.447266"/>
     <use xlink:href="#DejaVuSans-4e" x="1573.234375"/>
     <use xlink:href="#DejaVuSans-75" x="1648.039062"/>
     <use xlink:href="#DejaVuSans-6d" x="1711.417969"/>
     <use xlink:href="#DejaVuSans-62" x="1808.830078"/>
     <use xlink:href="#DejaVuSans-65" x="1872.306641"/>
     <use xlink:href="#DejaVuSans-72" x="1933.830078"/>
     <use xlink:href="#DejaVuSans-20" x="1974.943359"/>
     <use xlink:href="#DejaVuSans-6f" x="2006.730469"/>
     <use xlink:href="#DejaVuSans-66" x="2067.912109"/>
     <use xlink:href="#DejaVuSans-20" x="2103.117188"/>
     <use xlink:href="#DejaVuSans-42" x="2134.904297"/>
     <use xlink:href="#DejaVuSans-61" x="2203.507812"/>
     <use xlink:href="#DejaVuSans-69" x="2264.787109"/>
     <use xlink:href="#DejaVuSans-74" x="2292.570312"/>
     <use xlink:href="#DejaVuSans-73" x="2331.779297"/>
     <use xlink:href="#DejaVuSans-20" x="2383.878906"/>
     <use xlink:href="#DejaVuSans-66" x="2415.666016"/>
     <use xlink:href="#DejaVuSans-6f" x="2450.871094"/>
     <use xlink:href="#DejaVuSans-72" x="2512.052734"/>
     <use xlink:href="#DejaVuSans-20" x="2553.166016"/>
     <use xlink:href="#DejaVuSans-45" x="2584.953125"/>
     <use xlink:href="#DejaVuSans-61" x="2648.136719"/>
     <use xlink:href="#DejaVuSans-63" x="2709.416016"/>
     <use xlink:href="#DejaVuSans-68" x="2764.396484"/>
     <use xlink:href="#DejaVuSans-20" x="2827.775391"/>
     <use xlink:href="#DejaVuSans-4d" x="2859.5625"/>
     <use xlink:href="#DejaVuSans-65" x="2945.841797"/>
     <use xlink:href="#DejaVuSans-74" x="3007.365234"/>
     <use xlink:href="#DejaVuSans-68" x="3046.574219"/>
     <use xlink:href="#DejaVuSans-6f" x="3109.953125"/>
     <use xlink:href="#DejaVuSans-64" x="3171.134766"/>
    </g>
   </g>
   <g id="legend_1">
    <g id="patch_7">
     <path d="M 940.07 172.555275 
L 1067.18875 172.555275 
Q 1069.18875 172.555275 1069.18875 170.555275 
L 1069.18875 8.9834 
Q 1069.18875 6.9834 1067.18875 6.9834 
L 940.07 6.9834 
Q 938.07 6.9834 938.07 8.9834 
L 938.07 170.555275 
Q 938.07 172.555275 940.07 172.555275 
z
" style="fill: #ffffff; opacity: 0.8; stroke: #cccccc; stroke-linejoin: miter"/>
    </g>
    <g id="line2d_24">
     <path d="M 942.07 15.081838 
L 952.07 15.081838 
L 962.07 15.081838 
" style="fill: none; stroke: #1f77b4; stroke-width: 1.5; stroke-linecap: square"/>
    </g>
    <g id="text_16">
     <!-- GA -->
     <g transform="translate(970.07 18.581838) scale(0.1 -0.1)">
      <use xlink:href="#DejaVuSans-47"/>
      <use xlink:href="#DejaVuSans-41" x="77.490234"/>
     </g>
    </g>
    <g id="line2d_25">
     <path d="M 942.07 29.759963 
L 952.07 29.759963 
L 962.07 29.759963 
" style="fill: none; stroke: #ff7f0e; stroke-width: 1.5; stroke-linecap: square"/>
    </g>
    <g id="text_17">
     <!-- Random -->
     <g transform="translate(970.07 33.259963) scale(0.1 -0.1)">
      <defs>
       <path id="DejaVuSans-52" d="M 2841 2188 
Q 3044 2119 3236 1894 
Q 3428 1669 3622 1275 
L 4263 0 
L 3584 0 
L 2988 1197 
Q 2756 1666 2539 1819 
Q 2322 1972 1947 1972 
L 1259 1972 
L 1259 0 
L 628 0 
L 628 4666 
L 2053 4666 
Q 2853 4666 3247 4331 
Q 3641 3997 3641 3322 
Q 3641 2881 3436 2590 
Q 3231 2300 2841 2188 
z
M 1259 4147 
L 1259 2491 
L 2053 2491 
Q 2509 2491 2742 2702 
Q 2975 2913 2975 3322 
Q 2975 3731 2742 3939 
Q 2509 4147 2053 4147 
L 1259 4147 
z
" transform="scale(0.015625)"/>
       <path id="DejaVuSans-6e" d="M 3513 2113 
L 3513 0 
L 2938 0 
L 2938 2094 
Q 2938 2591 2744 2837 
Q 2550 3084 2163 3084 
Q 1697 3084 1428 2787 
Q 1159 2491 1159 1978 
L 1159 0 
L 581 0 
L 581 3500 
L 1159 3500 
L 1159 2956 
Q 1366 3272 1645 3428 
Q 1925 3584 2291 3584 
Q 2894 3584 3203 3211 
Q 3513 2838 3513 2113 
z
" transform="scale(0.015625)"/>
      </defs>
      <use xlink:href="#DejaVuSans-52"/>
      <use xlink:href="#DejaVuSans-61" x="67.232422"/>
      <use xlink:href="#DejaVuSans-6e" x="128.511719"/>
      <use xlink:href="#DejaVuSans-64" x="191.890625"/>
      <use xlink:href="#DejaVuSans-6f" x="255.367188"/>
      <use xlink:href="#DejaVuSans-6d" x="316.548828"/>
     </g>
    </g>
    <g id="line2d_26">
     <path d="M 942.07 44.438088 
L 952.07 44.438088 
L 962.07 44.438088 
" style="fill: none; stroke: #2ca02c; stroke-width: 1.5; stroke-linecap: square"/>
    </g>
    <g id="text_18">
     <!-- chi_2 -->
     <g transform="translate(970.07 47.938088) scale(0.1 -0.1)">
      <defs>
       <path id="DejaVuSans-5f" d="M 3263 -1063 
L 3263 -1509 
L -63 -1509 
L -63 -1063 
L 3263 -1063 
z
" transform="scale(0.015625)"/>
      </defs>
      <use xlink:href="#DejaVuSans-63"/>
      <use xlink:href="#DejaVuSans-68" x="54.980469"/>
      <use xlink:href="#DejaVuSans-69" x="118.359375"/>
      <use xlink:href="#DejaVuSans-5f" x="146.142578"/>
      <use xlink:href="#DejaVuSans-32" x="196.142578"/>
     </g>
    </g>
    <g id="line2d_27">
     <path d="M 942.07 59.394338 
L 952.07 59.394338 
L 962.07 59.394338 
" style="fill: none; stroke: #d62728; stroke-width: 1.5; stroke-linecap: square"/>
    </g>
    <g id="text_19">
     <!-- f_classif -->
     <g transform="translate(970.07 62.894338) scale(0.1 -0.1)">
      <defs>
       <path id="DejaVuSans-6c" d="M 603 4863 
L 1178 4863 
L 1178 0 
L 603 0 
L 603 4863 
z
" transform="scale(0.015625)"/>
      </defs>
      <use xlink:href="#DejaVuSans-66"/>
      <use xlink:href="#DejaVuSans-5f" x="35.205078"/>
      <use xlink:href="#DejaVuSans-63" x="85.205078"/>
      <use xlink:href="#DejaVuSans-6c" x="140.185547"/>
      <use xlink:href="#DejaVuSans-61" x="167.96875"/>
      <use xlink:href="#DejaVuSans-73" x="229.248047"/>
      <use xlink:href="#DejaVuSans-73" x="281.347656"/>
      <use xlink:href="#DejaVuSans-69" x="333.447266"/>
      <use xlink:href="#DejaVuSans-66" x="361.230469"/>
     </g>
    </g>
    <g id="line2d_28">
     <path d="M 942.07 74.350588 
L 952.07 74.350588 
L 962.07 74.350588 
" style="fill: none; stroke: #9467bd; stroke-width: 1.5; stroke-linecap: square"/>
    </g>
    <g id="text_20">
     <!-- mutual_info_classif -->
     <g transform="translate(970.07 77.850588) scale(0.1 -0.1)">
      <use xlink:href="#DejaVuSans-6d"/>
      <use xlink:href="#DejaVuSans-75" x="97.412109"/>
      <use xlink:href="#DejaVuSans-74" x="160.791016"/>
      <use xlink:href="#DejaVuSans-75" x="200"/>
      <use xlink:href="#DejaVuSans-61" x="263.378906"/>
      <use xlink:href="#DejaVuSans-6c" x="324.658203"/>
      <use xlink:href="#DejaVuSans-5f" x="352.441406"/>
      <use xlink:href="#DejaVuSans-69" x="402.441406"/>
      <use xlink:href="#DejaVuSans-6e" x="430.224609"/>
      <use xlink:href="#DejaVuSans-66" x="493.603516"/>
      <use xlink:href="#DejaVuSans-6f" x="528.808594"/>
      <use xlink:href="#DejaVuSans-5f" x="589.990234"/>
      <use xlink:href="#DejaVuSans-63" x="639.990234"/>
      <use xlink:href="#DejaVuSans-6c" x="694.970703"/>
      <use xlink:href="#DejaVuSans-61" x="722.753906"/>
      <use xlink:href="#DejaVuSans-73" x="784.033203"/>
      <use xlink:href="#DejaVuSans-73" x="836.132812"/>
      <use xlink:href="#DejaVuSans-69" x="888.232422"/>
      <use xlink:href="#DejaVuSans-66" x="916.015625"/>
     </g>
    </g>
    <g id="line2d_29">
     <path d="M 942.07 89.306838 
L 952.07 89.306838 
L 962.07 89.306838 
" style="fill: none; stroke: #8c564b; stroke-width: 1.5; stroke-linecap: square"/>
    </g>
    <g id="text_21">
     <!-- lasso -->
     <g transform="translate(970.07 92.806838) scale(0.1 -0.1)">
      <use xlink:href="#DejaVuSans-6c"/>
      <use xlink:href="#DejaVuSans-61" x="27.783203"/>
      <use xlink:href="#DejaVuSans-73" x="89.0625"/>
      <use xlink:href="#DejaVuSans-73" x="141.162109"/>
      <use xlink:href="#DejaVuSans-6f" x="193.261719"/>
     </g>
    </g>
    <g id="line2d_30">
     <path d="M 942.07 103.984963 
L 952.07 103.984963 
L 962.07 103.984963 
" style="fill: none; stroke: #e377c2; stroke-width: 1.5; stroke-linecap: square"/>
    </g>
    <g id="text_22">
     <!-- ridge -->
     <g transform="translate(970.07 107.484963) scale(0.1 -0.1)">
      <use xlink:href="#DejaVuSans-72"/>
      <use xlink:href="#DejaVuSans-69" x="41.113281"/>
      <use xlink:href="#DejaVuSans-64" x="68.896484"/>
      <use xlink:href="#DejaVuSans-67" x="132.373047"/>
      <use xlink:href="#DejaVuSans-65" x="195.849609"/>
     </g>
    </g>
    <g id="line2d_31">
     <path d="M 942.07 118.663088 
L 952.07 118.663088 
L 962.07 118.663088 
" style="fill: none; stroke: #7f7f7f; stroke-width: 1.5; stroke-linecap: square"/>
    </g>
    <g id="text_23">
     <!-- elastic_net -->
     <g transform="translate(970.07 122.163088) scale(0.1 -0.1)">
      <use xlink:href="#DejaVuSans-65"/>
      <use xlink:href="#DejaVuSans-6c" x="61.523438"/>
      <use xlink:href="#DejaVuSans-61" x="89.306641"/>
      <use xlink:href="#DejaVuSans-73" x="150.585938"/>
      <use xlink:href="#DejaVuSans-74" x="202.685547"/>
      <use xlink:href="#DejaVuSans-69" x="241.894531"/>
      <use xlink:href="#DejaVuSans-63" x="269.677734"/>
      <use xlink:href="#DejaVuSans-5f" x="324.658203"/>
      <use xlink:href="#DejaVuSans-6e" x="374.658203"/>
      <use xlink:href="#DejaVuSans-65" x="438.037109"/>
      <use xlink:href="#DejaVuSans-74" x="499.560547"/>
     </g>
    </g>
    <g id="line2d_32">
     <path d="M 942.07 133.619338 
L 952.07 133.619338 
L 962.07 133.619338 
" style="fill: none; stroke: #bcbd22; stroke-width: 1.5; stroke-linecap: square"/>
    </g>
    <g id="text_24">
     <!-- rf -->
     <g transform="translate(970.07 137.119338) scale(0.1 -0.1)">
      <use xlink:href="#DejaVuSans-72"/>
      <use xlink:href="#DejaVuSans-66" x="41.113281"/>
     </g>
    </g>
    <g id="line2d_33">
     <path d="M 942.07 148.297463 
L 952.07 148.297463 
L 962.07 148.297463 
" style="fill: none; stroke: #17becf; stroke-width: 1.5; stroke-linecap: square"/>
    </g>
    <g id="text_25">
     <!-- gbm -->
     <g transform="translate(970.07 151.797463) scale(0.1 -0.1)">
      <use xlink:href="#DejaVuSans-67"/>
      <use xlink:href="#DejaVuSans-62" x="63.476562"/>
      <use xlink:href="#DejaVuSans-6d" x="126.953125"/>
     </g>
    </g>
    <g id="line2d_34">
     <path d="M 942.07 162.975588 
L 952.07 162.975588 
L 962.07 162.975588 
" style="fill: none; stroke: #9edae5; stroke-width: 1.5; stroke-linecap: square"/>
    </g>
    <g id="text_26">
     <!-- xgb -->
     <g transform="translate(970.07 166.475588) scale(0.1 -0.1)">
      <defs>
       <path id="DejaVuSans-78" d="M 3513 3500 
L 2247 1797 
L 3578 0 
L 2900 0 
L 1881 1375 
L 863 0 
L 184 0 
L 1544 1831 
L 300 3500 
L 978 3500 
L 1906 2253 
L 2834 3500 
L 3513 3500 
z
" transform="scale(0.015625)"/>
      </defs>
      <use xlink:href="#DejaVuSans-78"/>
      <use xlink:href="#DejaVuSans-67" x="59.179688"/>
      <use xlink:href="#DejaVuSans-62" x="122.65625"/>
     </g>
    </g>
   </g>
  </g>
 </g>
 <defs>
  <clipPath id="p758a73bcea">
   <rect x="47.765" y="30.748" width="885.305" height="575.292"/>
  </clipPath>
 </defs>
</svg>
