<?xml version="1.0" encoding="utf-8" standalone="no"?>
<!DOCTYPE svg PUBLIC "-//W3C//DTD SVG 1.1//EN"
  "http://www.w3.org/Graphics/SVG/1.1/DTD/svg11.dtd">
<svg xmlns:xlink="http://www.w3.org/1999/xlink" width="1080pt" height="648pt" viewBox="0 0 1080 648" xmlns="http://www.w3.org/2000/svg" version="1.1">
 <metadata>
  <rdf:RDF xmlns:dc="http://purl.org/dc/elements/1.1/" xmlns:cc="http://creativecommons.org/ns#" xmlns:rdf="http://www.w3.org/1999/02/22-rdf-syntax-ns#">
   <cc:Work>
    <dc:type rdf:resource="http://purl.org/dc/dcmitype/StillImage"/>
    <dc:date>2024-04-05T15:52:53.591873</dc:date>
    <dc:format>image/svg+xml</dc:format>
    <dc:creator>
     <cc:Agent>
      <dc:title>Matplotlib v3.7.2, https://matplotlib.org/</dc:title>
     </cc:Agent>
    </dc:creator>
   </cc:Work>
  </rdf:RDF>
 </metadata>
 <defs>
  <style type="text/css">*{stroke-linejoin: round; stroke-linecap: butt}</style>
 </defs>
 <g id="figure_1">
  <g id="patch_1">
   <path d="M 0 648 
L 1080 648 
L 1080 0 
L 0 0 
z
" style="fill: #ffffff"/>
  </g>
  <g id="axes_1">
   <g id="patch_2">
    <path d="M 47.765 606.04 
L 933.07 606.04 
L 933.07 30.748 
L 47.765 30.748 
z
" style="fill: #ffffff"/>
   </g>
   <g id="PolyCollection_1">
    <defs>
     <path id="mf8cc27f502" d="M 47.765 -540.009865 
L 47.765 -483.01444 
L 65.4711 -493.640184 
L 83.1772 -493.933046 
L 100.8833 -497.203705 
L 118.5894 -501.36203 
L 136.2955 -501.181509 
L 154.0016 -502.646377 
L 171.7077 -501.840276 
L 189.4138 -505.21592 
L 207.1199 -509.475401 
L 224.826 -508.609793 
L 242.5321 -510.577597 
L 260.2382 -508.615329 
L 277.9443 -516.794111 
L 295.6504 -513.904693 
L 313.3565 -512.718419 
L 331.0626 -514.974235 
L 348.7687 -517.197165 
L 366.4748 -517.331334 
L 384.1809 -519.558122 
L 401.887 -519.635897 
L 419.5931 -519.341111 
L 437.2992 -521.341625 
L 455.0053 -521.13926 
L 472.7114 -522.999626 
L 490.4175 -523.651986 
L 508.1236 -524.71518 
L 525.8297 -520.611305 
L 543.5358 -527.420284 
L 561.2419 -529.430783 
L 578.948 -526.189808 
L 596.6541 -522.996756 
L 614.3602 -528.106813 
L 632.0663 -532.420593 
L 649.7724 -526.219272 
L 667.4785 -534.868438 
L 685.1846 -533.010405 
L 702.8907 -533.391269 
L 720.5968 -530.801309 
L 738.3029 -534.446368 
L 756.009 -532.508405 
L 773.7151 -533.207939 
L 791.4212 -534.761268 
L 809.1273 -534.594456 
L 826.8334 -539.153082 
L 844.5395 -537.912075 
L 862.2456 -533.63079 
L 879.9517 -534.919332 
L 897.6578 -537.572432 
L 915.3639 -537.181323 
L 933.07 -539.600396 
L 933.07 -591.469214 
L 933.07 -591.469214 
L 915.3639 -590.81882 
L 897.6578 -591.226189 
L 879.9517 -589.287097 
L 862.2456 -591.992422 
L 844.5395 -591.719643 
L 826.8334 -588.661783 
L 809.1273 -589.440512 
L 791.4212 -594.009174 
L 773.7151 -586.33979 
L 756.009 -588.505819 
L 738.3029 -586.483846 
L 720.5968 -589.442067 
L 702.8907 -586.491105 
L 685.1846 -585.197594 
L 667.4785 -588.25362 
L 649.7724 -586.153132 
L 632.0663 -581.117592 
L 614.3602 -584.019174 
L 596.6541 -581.634678 
L 578.948 -581.409084 
L 561.2419 -584.983865 
L 543.5358 -581.22492 
L 525.8297 -578.768385 
L 508.1236 -583.726387 
L 490.4175 -577.547449 
L 472.7114 -579.920694 
L 455.0053 -576.825683 
L 437.2992 -576.582782 
L 419.5931 -575.041414 
L 401.887 -579.384242 
L 384.1809 -577.554335 
L 366.4748 -577.15271 
L 348.7687 -574.379712 
L 331.0626 -573.478928 
L 313.3565 -572.892496 
L 295.6504 -572.11579 
L 277.9443 -573.821702 
L 260.2382 -572.862084 
L 242.5321 -572.671276 
L 224.826 -567.679332 
L 207.1199 -568.894396 
L 189.4138 -567.288395 
L 171.7077 -563.311546 
L 154.0016 -561.06824 
L 136.2955 -561.378995 
L 118.5894 -558.871247 
L 100.8833 -555.068727 
L 83.1772 -550.097421 
L 65.4711 -547.070661 
L 47.765 -540.009865 
z
" style="stroke: #1f77b4; stroke-opacity: 0.2"/>
    </defs>
    <g clip-path="url(#p7cc72ee5a4)">
     <use xlink:href="#mf8cc27f502" x="0" y="648" style="fill: #1f77b4; fill-opacity: 0.2; stroke: #1f77b4; stroke-opacity: 0.2"/>
    </g>
   </g>
   <g id="PolyCollection_2">
    <defs>
     <path id="m58fa677f41" d="M 47.765 -363.777474 
L 47.765 -274.40498 
L 65.4711 -297.622423 
L 83.1772 -285.756767 
L 100.8833 -295.594566 
L 118.5894 -313.973672 
L 136.2955 -310.828747 
L 154.0016 -333.949989 
L 171.7077 -330.426109 
L 189.4138 -337.798263 
L 207.1199 -328.736272 
L 224.826 -338.076181 
L 242.5321 -339.396703 
L 260.2382 -348.149049 
L 277.9443 -334.582903 
L 295.6504 -349.903837 
L 313.3565 -358.94945 
L 331.0626 -338.908799 
L 348.7687 -357.611701 
L 366.4748 -349.997495 
L 384.1809 -343.655706 
L 401.887 -358.903373 
L 419.5931 -366.848388 
L 437.2992 -345.825205 
L 455.0053 -366.541757 
L 472.7114 -372.333958 
L 490.4175 -367.35159 
L 508.1236 -379.980714 
L 525.8297 -370.219354 
L 543.5358 -367.224538 
L 561.2419 -378.381156 
L 578.948 -386.331207 
L 596.6541 -374.582538 
L 614.3602 -389.958266 
L 632.0663 -389.705088 
L 649.7724 -396.0732 
L 667.4785 -392.311388 
L 685.1846 -407.673724 
L 702.8907 -395.966969 
L 720.5968 -414.364993 
L 738.3029 -416.4334 
L 756.009 -422.152061 
L 773.7151 -394.144453 
L 791.4212 -409.647713 
L 809.1273 -435.480716 
L 826.8334 -417.700606 
L 844.5395 -410.545585 
L 862.2456 -423.984246 
L 879.9517 -404.196758 
L 897.6578 -419.142659 
L 915.3639 -420.227902 
L 933.07 -435.628925 
L 933.07 -490.596248 
L 933.07 -490.596248 
L 915.3639 -475.406253 
L 897.6578 -484.289667 
L 879.9517 -456.238752 
L 862.2456 -486.896373 
L 844.5395 -482.311704 
L 826.8334 -471.398321 
L 809.1273 -470.025972 
L 791.4212 -460.883238 
L 773.7151 -467.141242 
L 756.009 -482.588948 
L 738.3029 -472.939925 
L 720.5968 -463.751106 
L 702.8907 -460.600039 
L 685.1846 -460.972045 
L 667.4785 -449.71641 
L 649.7724 -458.03668 
L 632.0663 -459.262777 
L 614.3602 -453.47739 
L 596.6541 -421.964737 
L 578.948 -461.472699 
L 561.2419 -441.381972 
L 543.5358 -432.733514 
L 525.8297 -426.33767 
L 508.1236 -446.038001 
L 490.4175 -429.306366 
L 472.7114 -432.208208 
L 455.0053 -417.691781 
L 437.2992 -411.552921 
L 419.5931 -416.889653 
L 401.887 -411.008909 
L 384.1809 -394.286128 
L 366.4748 -405.924134 
L 348.7687 -426.392475 
L 331.0626 -421.261349 
L 313.3565 -406.442654 
L 295.6504 -423.155579 
L 277.9443 -400.831377 
L 260.2382 -407.722747 
L 242.5321 -401.504979 
L 224.826 -399.633322 
L 207.1199 -391.329376 
L 189.4138 -376.898233 
L 171.7077 -389.341542 
L 154.0016 -418.475787 
L 136.2955 -366.098576 
L 118.5894 -368.762193 
L 100.8833 -368.319036 
L 83.1772 -350.640711 
L 65.4711 -380.690569 
L 47.765 -363.777474 
z
" style="stroke: #ff7f0e; stroke-opacity: 0.2"/>
    </defs>
    <g clip-path="url(#p7cc72ee5a4)">
     <use xlink:href="#m58fa677f41" x="0" y="648" style="fill: #ff7f0e; fill-opacity: 0.2; stroke: #ff7f0e; stroke-opacity: 0.2"/>
    </g>
   </g>
   <g id="PolyCollection_3">
    <defs>
     <path id="m07a20e4a2c" d="M 47.765 -496.210744 
L 47.765 -448.003414 
L 65.4711 -451.535264 
L 83.1772 -457.087003 
L 100.8833 -460.340628 
L 118.5894 -466.749125 
L 136.2955 -468.034379 
L 154.0016 -471.457093 
L 171.7077 -473.041385 
L 189.4138 -482.662 
L 207.1199 -485.700527 
L 224.826 -487.626265 
L 242.5321 -491.932667 
L 260.2382 -496.524801 
L 277.9443 -498.840416 
L 295.6504 -496.47209 
L 313.3565 -502.068065 
L 331.0626 -504.779341 
L 348.7687 -505.735557 
L 366.4748 -507.362597 
L 384.1809 -510.039093 
L 401.887 -512.51406 
L 419.5931 -513.038948 
L 437.2992 -512.709218 
L 455.0053 -515.223196 
L 472.7114 -517.49526 
L 490.4175 -519.500528 
L 508.1236 -519.978324 
L 525.8297 -520.761482 
L 543.5358 -521.155682 
L 561.2419 -520.198546 
L 578.948 -521.782375 
L 596.6541 -524.013786 
L 614.3602 -523.150002 
L 632.0663 -523.824521 
L 649.7724 -524.477221 
L 667.4785 -526.002796 
L 685.1846 -527.035556 
L 702.8907 -529.483614 
L 720.5968 -530.601118 
L 738.3029 -531.035157 
L 756.009 -533.610618 
L 773.7151 -535.102508 
L 791.4212 -535.125673 
L 809.1273 -536.172325 
L 826.8334 -537.449129 
L 844.5395 -537.136041 
L 862.2456 -536.468557 
L 879.9517 -536.051622 
L 897.6578 -535.745642 
L 915.3639 -534.498172 
L 933.07 -531.332399 
L 933.07 -572.481418 
L 933.07 -572.481418 
L 915.3639 -574.138704 
L 897.6578 -574.771198 
L 879.9517 -574.474363 
L 862.2456 -573.712883 
L 844.5395 -573.65895 
L 826.8334 -574.719593 
L 809.1273 -573.211185 
L 791.4212 -573.902359 
L 773.7151 -574.374966 
L 756.009 -572.861415 
L 738.3029 -572.707785 
L 720.5968 -571.493525 
L 702.8907 -571.453879 
L 685.1846 -567.292402 
L 667.4785 -568.794406 
L 649.7724 -566.853554 
L 632.0663 -565.798538 
L 614.3602 -565.819619 
L 596.6541 -565.468116 
L 578.948 -564.58837 
L 561.2419 -560.642101 
L 543.5358 -561.738341 
L 525.8297 -561.189813 
L 508.1236 -560.674053 
L 490.4175 -558.277274 
L 472.7114 -554.733179 
L 455.0053 -550.621055 
L 437.2992 -550.80779 
L 419.5931 -549.466637 
L 401.887 -549.310467 
L 384.1809 -547.496188 
L 366.4748 -545.647827 
L 348.7687 -543.832006 
L 331.0626 -541.300609 
L 313.3565 -537.606549 
L 295.6504 -534.873163 
L 277.9443 -534.355331 
L 260.2382 -532.270321 
L 242.5321 -528.093543 
L 224.826 -526.35648 
L 207.1199 -523.839035 
L 189.4138 -523.655218 
L 171.7077 -520.585905 
L 154.0016 -518.669785 
L 136.2955 -513.422347 
L 118.5894 -511.026057 
L 100.8833 -504.017908 
L 83.1772 -502.31518 
L 65.4711 -497.985819 
L 47.765 -496.210744 
z
" style="stroke: #2ca02c; stroke-opacity: 0.2"/>
    </defs>
    <g clip-path="url(#p7cc72ee5a4)">
     <use xlink:href="#m07a20e4a2c" x="0" y="648" style="fill: #2ca02c; fill-opacity: 0.2; stroke: #2ca02c; stroke-opacity: 0.2"/>
    </g>
   </g>
   <g id="PolyCollection_4">
    <defs>
     <path id="mb086f9fc2d" d="M 47.765 -501.802041 
L 47.765 -441.972961 
L 65.4711 -450.810296 
L 83.1772 -453.681131 
L 100.8833 -455.484762 
L 118.5894 -456.896017 
L 136.2955 -458.596833 
L 154.0016 -460.374338 
L 171.7077 -464.343346 
L 189.4138 -464.92046 
L 207.1199 -466.604478 
L 224.826 -469.558475 
L 242.5321 -470.3284 
L 260.2382 -474.670475 
L 277.9443 -477.930076 
L 295.6504 -481.753083 
L 313.3565 -483.381735 
L 331.0626 -483.63906 
L 348.7687 -488.745513 
L 366.4748 -489.630298 
L 384.1809 -491.788296 
L 401.887 -492.887768 
L 419.5931 -499.574915 
L 437.2992 -506.332287 
L 455.0053 -507.925108 
L 472.7114 -511.058269 
L 490.4175 -511.091186 
L 508.1236 -514.017348 
L 525.8297 -516.168292 
L 543.5358 -517.580822 
L 561.2419 -519.587288 
L 578.948 -519.833621 
L 596.6541 -521.288766 
L 614.3602 -522.097065 
L 632.0663 -522.580174 
L 649.7724 -525.323669 
L 667.4785 -525.831789 
L 685.1846 -528.197801 
L 702.8907 -528.499946 
L 720.5968 -529.744936 
L 738.3029 -532.455148 
L 756.009 -532.985616 
L 773.7151 -533.912205 
L 791.4212 -533.939759 
L 809.1273 -535.361413 
L 826.8334 -534.656173 
L 844.5395 -533.372517 
L 862.2456 -532.46901 
L 879.9517 -536.234131 
L 897.6578 -536.684245 
L 915.3639 -535.938777 
L 933.07 -535.644486 
L 933.07 -574.155797 
L 933.07 -574.155797 
L 915.3639 -575.17054 
L 897.6578 -575.537571 
L 879.9517 -575.333548 
L 862.2456 -573.449311 
L 844.5395 -574.240034 
L 826.8334 -573.265282 
L 809.1273 -573.461207 
L 791.4212 -573.837575 
L 773.7151 -573.968936 
L 756.009 -573.292555 
L 738.3029 -572.602114 
L 720.5968 -570.912257 
L 702.8907 -569.680869 
L 685.1846 -568.985022 
L 667.4785 -569.033023 
L 649.7724 -569.186187 
L 632.0663 -565.757783 
L 614.3602 -564.414919 
L 596.6541 -563.527109 
L 578.948 -562.712572 
L 561.2419 -560.724435 
L 543.5358 -559.9931 
L 525.8297 -557.30292 
L 508.1236 -554.729885 
L 490.4175 -553.646644 
L 472.7114 -551.339983 
L 455.0053 -549.748153 
L 437.2992 -549.234352 
L 419.5931 -548.096395 
L 401.887 -546.022078 
L 384.1809 -545.022013 
L 366.4748 -541.919001 
L 348.7687 -538.28235 
L 331.0626 -536.779095 
L 313.3565 -536.182433 
L 295.6504 -533.355783 
L 277.9443 -526.677858 
L 260.2382 -525.211272 
L 242.5321 -521.629347 
L 224.826 -520.786759 
L 207.1199 -519.510412 
L 189.4138 -516.254267 
L 171.7077 -514.457354 
L 154.0016 -512.970207 
L 136.2955 -512.522384 
L 118.5894 -509.945646 
L 100.8833 -509.437306 
L 83.1772 -505.643525 
L 65.4711 -502.193366 
L 47.765 -501.802041 
z
" style="stroke: #d62728; stroke-opacity: 0.2"/>
    </defs>
    <g clip-path="url(#p7cc72ee5a4)">
     <use xlink:href="#mb086f9fc2d" x="0" y="648" style="fill: #d62728; fill-opacity: 0.2; stroke: #d62728; stroke-opacity: 0.2"/>
    </g>
   </g>
   <g id="PolyCollection_5">
    <defs>
     <path id="mc37a07ca0d" d="M 47.765 -454.907001 
L 47.765 -414.425311 
L 65.4711 -419.50594 
L 83.1772 -421.309483 
L 100.8833 -426.509711 
L 118.5894 -432.619102 
L 136.2955 -439.192485 
L 154.0016 -440.260158 
L 171.7077 -442.551835 
L 189.4138 -443.684615 
L 207.1199 -450.361942 
L 224.826 -450.527823 
L 242.5321 -455.221161 
L 260.2382 -455.834401 
L 277.9443 -456.680351 
L 295.6504 -455.438975 
L 313.3565 -455.508195 
L 331.0626 -462.681115 
L 348.7687 -465.547634 
L 366.4748 -466.141289 
L 384.1809 -466.901925 
L 401.887 -459.182394 
L 419.5931 -456.947535 
L 437.2992 -466.147334 
L 455.0053 -476.937013 
L 472.7114 -478.638774 
L 490.4175 -474.807187 
L 508.1236 -477.94988 
L 525.8297 -485.319107 
L 543.5358 -485.514953 
L 561.2419 -485.875466 
L 578.948 -486.60803 
L 596.6541 -485.126853 
L 614.3602 -483.640484 
L 632.0663 -486.767509 
L 649.7724 -487.915676 
L 667.4785 -488.941914 
L 685.1846 -496.839818 
L 702.8907 -497.604838 
L 720.5968 -497.627813 
L 738.3029 -497.378514 
L 756.009 -496.777793 
L 773.7151 -499.263669 
L 791.4212 -502.597707 
L 809.1273 -508.633024 
L 826.8334 -512.22431 
L 844.5395 -514.436177 
L 862.2456 -514.309895 
L 879.9517 -517.360438 
L 897.6578 -519.467729 
L 915.3639 -521.576103 
L 933.07 -523.365668 
L 933.07 -565.227629 
L 933.07 -565.227629 
L 915.3639 -563.984558 
L 897.6578 -563.974806 
L 879.9517 -563.030231 
L 862.2456 -559.861824 
L 844.5395 -559.073622 
L 826.8334 -555.372884 
L 809.1273 -552.85983 
L 791.4212 -545.69377 
L 773.7151 -545.236402 
L 756.009 -543.907691 
L 738.3029 -543.451948 
L 720.5968 -542.294232 
L 702.8907 -541.142222 
L 685.1846 -541.698967 
L 667.4785 -537.073759 
L 649.7724 -536.293472 
L 632.0663 -536.237117 
L 614.3602 -533.96993 
L 596.6541 -530.795424 
L 578.948 -528.997093 
L 561.2419 -528.830419 
L 543.5358 -528.510095 
L 525.8297 -529.5197 
L 508.1236 -525.088196 
L 490.4175 -525.761238 
L 472.7114 -525.320428 
L 455.0053 -522.324811 
L 437.2992 -519.956614 
L 419.5931 -511.639035 
L 401.887 -508.835837 
L 384.1809 -507.889377 
L 366.4748 -506.563547 
L 348.7687 -504.11259 
L 331.0626 -502.197768 
L 313.3565 -497.776482 
L 295.6504 -498.995384 
L 277.9443 -497.613221 
L 260.2382 -495.606622 
L 242.5321 -494.759727 
L 224.826 -490.013852 
L 207.1199 -488.852449 
L 189.4138 -484.980927 
L 171.7077 -484.486047 
L 154.0016 -484.150896 
L 136.2955 -480.364378 
L 118.5894 -472.277251 
L 100.8833 -465.291125 
L 83.1772 -463.849088 
L 65.4711 -462.339275 
L 47.765 -454.907001 
z
" style="stroke: #9467bd; stroke-opacity: 0.2"/>
    </defs>
    <g clip-path="url(#p7cc72ee5a4)">
     <use xlink:href="#mc37a07ca0d" x="0" y="648" style="fill: #9467bd; fill-opacity: 0.2; stroke: #9467bd; stroke-opacity: 0.2"/>
    </g>
   </g>
   <g id="PolyCollection_6">
    <defs>
     <path id="m92b603a119" d="M 47.765 -510.394324 
L 47.765 -462.606777 
L 65.4711 -466.399959 
L 83.1772 -470.034896 
L 100.8833 -479.530562 
L 118.5894 -483.027406 
L 136.2955 -484.019397 
L 154.0016 -489.202998 
L 171.7077 -490.313013 
L 189.4138 -491.470594 
L 207.1199 -494.573963 
L 224.826 -491.011772 
L 242.5321 -490.400563 
L 260.2382 -496.0331 
L 277.9443 -496.989435 
L 295.6504 -496.415703 
L 313.3565 -499.072465 
L 331.0626 -499.589672 
L 348.7687 -500.029116 
L 366.4748 -501.919614 
L 384.1809 -501.466821 
L 401.887 -502.810534 
L 419.5931 -503.559564 
L 437.2992 -503.647203 
L 455.0053 -504.185633 
L 472.7114 -505.922986 
L 490.4175 -505.01935 
L 508.1236 -505.95386 
L 525.8297 -503.859565 
L 543.5358 -503.74175 
L 561.2419 -506.383979 
L 578.948 -506.787019 
L 596.6541 -507.814098 
L 614.3602 -505.996425 
L 632.0663 -510.264426 
L 649.7724 -511.087505 
L 667.4785 -510.001112 
L 685.1846 -512.76048 
L 702.8907 -514.386939 
L 720.5968 -515.449965 
L 738.3029 -516.129503 
L 756.009 -516.303896 
L 773.7151 -514.404283 
L 791.4212 -516.128719 
L 809.1273 -515.415598 
L 826.8334 -518.073887 
L 844.5395 -518.193723 
L 862.2456 -521.874858 
L 879.9517 -521.337176 
L 897.6578 -519.903812 
L 915.3639 -521.583292 
L 933.07 -523.987995 
L 933.07 -573.616038 
L 933.07 -573.616038 
L 915.3639 -573.565967 
L 897.6578 -570.829686 
L 879.9517 -570.145711 
L 862.2456 -568.142125 
L 844.5395 -565.659373 
L 826.8334 -565.375847 
L 809.1273 -560.531662 
L 791.4212 -560.664091 
L 773.7151 -558.303926 
L 756.009 -557.294481 
L 738.3029 -556.758866 
L 720.5968 -555.310616 
L 702.8907 -554.073825 
L 685.1846 -553.504518 
L 667.4785 -551.887837 
L 649.7724 -551.501885 
L 632.0663 -550.262394 
L 614.3602 -547.596545 
L 596.6541 -546.208208 
L 578.948 -545.702554 
L 561.2419 -543.353771 
L 543.5358 -541.80167 
L 525.8297 -542.588881 
L 508.1236 -541.599463 
L 490.4175 -541.261855 
L 472.7114 -542.140318 
L 455.0053 -542.562931 
L 437.2992 -541.997369 
L 419.5931 -541.331804 
L 401.887 -539.567428 
L 384.1809 -537.942706 
L 366.4748 -537.743274 
L 348.7687 -537.105581 
L 331.0626 -536.550591 
L 313.3565 -536.571367 
L 295.6504 -534.573958 
L 277.9443 -533.272103 
L 260.2382 -532.549872 
L 242.5321 -532.884338 
L 224.826 -531.501957 
L 207.1199 -529.310885 
L 189.4138 -527.454521 
L 171.7077 -525.915812 
L 154.0016 -524.311273 
L 136.2955 -524.396413 
L 118.5894 -522.444959 
L 100.8833 -519.041041 
L 83.1772 -517.953119 
L 65.4711 -514.067259 
L 47.765 -510.394324 
z
" style="stroke: #8c564b; stroke-opacity: 0.2"/>
    </defs>
    <g clip-path="url(#p7cc72ee5a4)">
     <use xlink:href="#m92b603a119" x="0" y="648" style="fill: #8c564b; fill-opacity: 0.2; stroke: #8c564b; stroke-opacity: 0.2"/>
    </g>
   </g>
   <g id="PolyCollection_7">
    <defs>
     <path id="m3aa01a403a" d="M 47.765 -505.018079 
L 47.765 -463.533397 
L 65.4711 -469.425635 
L 83.1772 -472.674462 
L 100.8833 -475.044167 
L 118.5894 -477.562489 
L 136.2955 -477.754782 
L 154.0016 -480.653238 
L 171.7077 -479.47336 
L 189.4138 -483.492343 
L 207.1199 -481.314478 
L 224.826 -484.242033 
L 242.5321 -486.85772 
L 260.2382 -484.205806 
L 277.9443 -482.166736 
L 295.6504 -484.306053 
L 313.3565 -488.156075 
L 331.0626 -489.063014 
L 348.7687 -489.868527 
L 366.4748 -491.418319 
L 384.1809 -491.09448 
L 401.887 -492.854446 
L 419.5931 -493.67121 
L 437.2992 -494.877038 
L 455.0053 -496.016018 
L 472.7114 -497.891534 
L 490.4175 -501.978659 
L 508.1236 -501.436753 
L 525.8297 -503.211667 
L 543.5358 -504.580672 
L 561.2419 -505.992353 
L 578.948 -505.646879 
L 596.6541 -508.99143 
L 614.3602 -509.597516 
L 632.0663 -510.883872 
L 649.7724 -511.499985 
L 667.4785 -513.356553 
L 685.1846 -515.422751 
L 702.8907 -518.813402 
L 720.5968 -520.818042 
L 738.3029 -519.479871 
L 756.009 -517.541532 
L 773.7151 -517.6835 
L 791.4212 -519.948147 
L 809.1273 -522.137072 
L 826.8334 -525.166002 
L 844.5395 -527.062653 
L 862.2456 -529.19718 
L 879.9517 -529.805468 
L 897.6578 -525.832883 
L 915.3639 -527.771367 
L 933.07 -527.076426 
L 933.07 -576.653476 
L 933.07 -576.653476 
L 915.3639 -576.367672 
L 897.6578 -574.536517 
L 879.9517 -572.417692 
L 862.2456 -571.839993 
L 844.5395 -572.481163 
L 826.8334 -571.234912 
L 809.1273 -569.877689 
L 791.4212 -570.272489 
L 773.7151 -569.067166 
L 756.009 -567.336643 
L 738.3029 -566.950673 
L 720.5968 -566.253103 
L 702.8907 -567.028723 
L 685.1846 -563.263423 
L 667.4785 -559.54493 
L 649.7724 -559.573789 
L 632.0663 -558.131429 
L 614.3602 -555.589519 
L 596.6541 -556.262879 
L 578.948 -555.796932 
L 561.2419 -556.271804 
L 543.5358 -551.975777 
L 525.8297 -549.597557 
L 508.1236 -548.009789 
L 490.4175 -546.34104 
L 472.7114 -543.201299 
L 455.0053 -540.625305 
L 437.2992 -537.479786 
L 419.5931 -535.936959 
L 401.887 -534.270607 
L 384.1809 -529.279363 
L 366.4748 -528.619593 
L 348.7687 -525.527726 
L 331.0626 -524.688255 
L 313.3565 -526.010844 
L 295.6504 -521.533113 
L 277.9443 -522.262054 
L 260.2382 -522.902052 
L 242.5321 -522.373854 
L 224.826 -519.992133 
L 207.1199 -518.303816 
L 189.4138 -517.795797 
L 171.7077 -518.731567 
L 154.0016 -516.885467 
L 136.2955 -515.722056 
L 118.5894 -515.628031 
L 100.8833 -513.634213 
L 83.1772 -511.522941 
L 65.4711 -506.638023 
L 47.765 -505.018079 
z
" style="stroke: #e377c2; stroke-opacity: 0.2"/>
    </defs>
    <g clip-path="url(#p7cc72ee5a4)">
     <use xlink:href="#m3aa01a403a" x="0" y="648" style="fill: #e377c2; fill-opacity: 0.2; stroke: #e377c2; stroke-opacity: 0.2"/>
    </g>
   </g>
   <g id="PolyCollection_8">
    <defs>
     <path id="macdedb47a0" d="M 47.765 -506.955934 
L 47.765 -467.730833 
L 65.4711 -471.552057 
L 83.1772 -473.960533 
L 100.8833 -480.259834 
L 118.5894 -480.634128 
L 136.2955 -481.415606 
L 154.0016 -484.527252 
L 171.7077 -485.981664 
L 189.4138 -486.909521 
L 207.1199 -488.401287 
L 224.826 -489.996075 
L 242.5321 -490.787958 
L 260.2382 -491.0043 
L 277.9443 -491.359097 
L 295.6504 -492.167891 
L 313.3565 -493.58091 
L 331.0626 -493.455952 
L 348.7687 -494.525821 
L 366.4748 -498.680752 
L 384.1809 -502.021414 
L 401.887 -502.091292 
L 419.5931 -501.854138 
L 437.2992 -502.602867 
L 455.0053 -503.38027 
L 472.7114 -504.612292 
L 490.4175 -504.596825 
L 508.1236 -506.850606 
L 525.8297 -507.501484 
L 543.5358 -508.094304 
L 561.2419 -508.514382 
L 578.948 -510.59822 
L 596.6541 -509.148877 
L 614.3602 -509.245795 
L 632.0663 -511.743998 
L 649.7724 -513.387638 
L 667.4785 -516.624326 
L 685.1846 -515.504226 
L 702.8907 -515.088042 
L 720.5968 -512.786441 
L 738.3029 -515.712497 
L 756.009 -514.138979 
L 773.7151 -517.126576 
L 791.4212 -520.594132 
L 809.1273 -521.97705 
L 826.8334 -523.376826 
L 844.5395 -525.55561 
L 862.2456 -522.938079 
L 879.9517 -524.815876 
L 897.6578 -522.392119 
L 915.3639 -525.52966 
L 933.07 -525.874299 
L 933.07 -571.144152 
L 933.07 -571.144152 
L 915.3639 -570.115931 
L 897.6578 -571.07916 
L 879.9517 -573.599482 
L 862.2456 -572.558275 
L 844.5395 -570.984187 
L 826.8334 -569.333435 
L 809.1273 -568.768251 
L 791.4212 -568.280703 
L 773.7151 -564.95206 
L 756.009 -561.669536 
L 738.3029 -558.646328 
L 720.5968 -559.40792 
L 702.8907 -559.81113 
L 685.1846 -560.14504 
L 667.4785 -559.527483 
L 649.7724 -559.485058 
L 632.0663 -556.249354 
L 614.3602 -554.342586 
L 596.6541 -553.530473 
L 578.948 -554.298429 
L 561.2419 -550.94263 
L 543.5358 -549.923756 
L 525.8297 -550.495902 
L 508.1236 -550.891213 
L 490.4175 -547.666712 
L 472.7114 -545.680294 
L 455.0053 -543.789796 
L 437.2992 -543.119445 
L 419.5931 -544.102469 
L 401.887 -544.162367 
L 384.1809 -543.251904 
L 366.4748 -541.428851 
L 348.7687 -536.101421 
L 331.0626 -533.423 
L 313.3565 -532.032486 
L 295.6504 -531.472267 
L 277.9443 -528.786436 
L 260.2382 -527.338564 
L 242.5321 -526.773546 
L 224.826 -525.876534 
L 207.1199 -523.124697 
L 189.4138 -519.817681 
L 171.7077 -519.439984 
L 154.0016 -517.849656 
L 136.2955 -518.845755 
L 118.5894 -518.178857 
L 100.8833 -517.342801 
L 83.1772 -513.996607 
L 65.4711 -513.009348 
L 47.765 -506.955934 
z
" style="stroke: #7f7f7f; stroke-opacity: 0.2"/>
    </defs>
    <g clip-path="url(#p7cc72ee5a4)">
     <use xlink:href="#macdedb47a0" x="0" y="648" style="fill: #7f7f7f; fill-opacity: 0.2; stroke: #7f7f7f; stroke-opacity: 0.2"/>
    </g>
   </g>
   <g id="PolyCollection_9">
    <defs>
     <path id="m96a6bad4de" d="M 47.765 -516.462894 
L 47.765 -474.516281 
L 65.4711 -474.646757 
L 83.1772 -474.924841 
L 100.8833 -475.438703 
L 118.5894 -475.160304 
L 136.2955 -474.845526 
L 154.0016 -476.082915 
L 171.7077 -477.853624 
L 189.4138 -482.372071 
L 207.1199 -482.961778 
L 224.826 -486.126095 
L 242.5321 -488.093789 
L 260.2382 -489.539371 
L 277.9443 -492.986245 
L 295.6504 -493.610512 
L 313.3565 -496.903521 
L 331.0626 -496.132188 
L 348.7687 -498.98363 
L 366.4748 -500.274072 
L 384.1809 -497.980859 
L 401.887 -501.938544 
L 419.5931 -502.492614 
L 437.2992 -502.601011 
L 455.0053 -502.632981 
L 472.7114 -505.238 
L 490.4175 -506.162414 
L 508.1236 -507.700639 
L 525.8297 -509.232044 
L 543.5358 -511.341483 
L 561.2419 -514.479331 
L 578.948 -515.872088 
L 596.6541 -516.720863 
L 614.3602 -517.238951 
L 632.0663 -517.934344 
L 649.7724 -517.888448 
L 667.4785 -523.646499 
L 685.1846 -524.738194 
L 702.8907 -523.420168 
L 720.5968 -522.610602 
L 738.3029 -523.699116 
L 756.009 -528.071319 
L 773.7151 -529.702222 
L 791.4212 -525.987926 
L 809.1273 -528.697383 
L 826.8334 -526.607391 
L 844.5395 -529.514066 
L 862.2456 -532.239315 
L 879.9517 -531.208077 
L 897.6578 -533.358797 
L 915.3639 -533.338459 
L 933.07 -536.155415 
L 933.07 -581.992598 
L 933.07 -581.992598 
L 915.3639 -581.542659 
L 897.6578 -581.735107 
L 879.9517 -580.400023 
L 862.2456 -579.250165 
L 844.5395 -576.813472 
L 826.8334 -578.476004 
L 809.1273 -578.299551 
L 791.4212 -575.462374 
L 773.7151 -573.972824 
L 756.009 -572.576112 
L 738.3029 -572.75714 
L 720.5968 -569.999093 
L 702.8907 -569.466158 
L 685.1846 -569.987634 
L 667.4785 -570.056613 
L 649.7724 -565.709202 
L 632.0663 -565.022128 
L 614.3602 -564.553952 
L 596.6541 -564.124529 
L 578.948 -562.346673 
L 561.2419 -562.83424 
L 543.5358 -559.956264 
L 525.8297 -556.152121 
L 508.1236 -558.313803 
L 490.4175 -555.930471 
L 472.7114 -553.087173 
L 455.0053 -549.840577 
L 437.2992 -548.201492 
L 419.5931 -547.182335 
L 401.887 -545.948105 
L 384.1809 -543.854935 
L 366.4748 -542.977575 
L 348.7687 -538.367878 
L 331.0626 -538.879679 
L 313.3565 -533.681479 
L 295.6504 -532.943582 
L 277.9443 -530.746892 
L 260.2382 -527.305768 
L 242.5321 -525.267598 
L 224.826 -524.651387 
L 207.1199 -523.638107 
L 189.4138 -522.389977 
L 171.7077 -519.584561 
L 154.0016 -519.494349 
L 136.2955 -518.404713 
L 118.5894 -519.451807 
L 100.8833 -519.811617 
L 83.1772 -520.453244 
L 65.4711 -519.228677 
L 47.765 -516.462894 
z
" style="stroke: #bcbd22; stroke-opacity: 0.2"/>
    </defs>
    <g clip-path="url(#p7cc72ee5a4)">
     <use xlink:href="#m96a6bad4de" x="0" y="648" style="fill: #bcbd22; fill-opacity: 0.2; stroke: #bcbd22; stroke-opacity: 0.2"/>
    </g>
   </g>
   <g id="PolyCollection_10">
    <defs>
     <path id="m381206557f" d="M 47.765 -536.617952 
L 47.765 -485.934317 
L 65.4711 -484.878364 
L 83.1772 -487.158566 
L 100.8833 -486.169272 
L 118.5894 -485.868567 
L 136.2955 -486.166733 
L 154.0016 -486.384218 
L 171.7077 -486.752709 
L 189.4138 -485.428101 
L 207.1199 -484.766601 
L 224.826 -486.875762 
L 242.5321 -488.359508 
L 260.2382 -489.404245 
L 277.9443 -489.548913 
L 295.6504 -490.287771 
L 313.3565 -490.087865 
L 331.0626 -491.757753 
L 348.7687 -490.446132 
L 366.4748 -491.734679 
L 384.1809 -493.680431 
L 401.887 -494.320061 
L 419.5931 -496.059477 
L 437.2992 -495.437613 
L 455.0053 -494.10186 
L 472.7114 -498.721499 
L 490.4175 -503.261731 
L 508.1236 -505.073468 
L 525.8297 -508.857144 
L 543.5358 -509.508079 
L 561.2419 -509.968826 
L 578.948 -508.432454 
L 596.6541 -506.87769 
L 614.3602 -507.706824 
L 632.0663 -507.453513 
L 649.7724 -511.528033 
L 667.4785 -513.34454 
L 685.1846 -515.712288 
L 702.8907 -514.749253 
L 720.5968 -515.023644 
L 738.3029 -513.899278 
L 756.009 -515.938452 
L 773.7151 -515.801003 
L 791.4212 -519.171742 
L 809.1273 -520.465473 
L 826.8334 -520.17414 
L 844.5395 -521.354599 
L 862.2456 -519.917893 
L 879.9517 -523.15568 
L 897.6578 -524.832779 
L 915.3639 -526.133605 
L 933.07 -526.565936 
L 933.07 -576.063031 
L 933.07 -576.063031 
L 915.3639 -575.186369 
L 897.6578 -574.278999 
L 879.9517 -576.195236 
L 862.2456 -570.717147 
L 844.5395 -571.044831 
L 826.8334 -570.060406 
L 809.1273 -571.272412 
L 791.4212 -569.601943 
L 773.7151 -568.028451 
L 756.009 -567.305569 
L 738.3029 -566.044366 
L 720.5968 -565.415652 
L 702.8907 -564.562512 
L 685.1846 -565.245836 
L 667.4785 -566.853874 
L 649.7724 -565.349277 
L 632.0663 -566.348458 
L 614.3602 -567.448221 
L 596.6541 -566.42941 
L 578.948 -565.634881 
L 561.2419 -563.346954 
L 543.5358 -561.503705 
L 525.8297 -562.531583 
L 508.1236 -563.053229 
L 490.4175 -561.576625 
L 472.7114 -558.936451 
L 455.0053 -557.833568 
L 437.2992 -556.222504 
L 419.5931 -555.188594 
L 401.887 -554.548893 
L 384.1809 -554.659577 
L 366.4748 -553.959877 
L 348.7687 -552.159776 
L 331.0626 -552.664988 
L 313.3565 -552.861902 
L 295.6504 -553.514583 
L 277.9443 -553.818276 
L 260.2382 -550.700364 
L 242.5321 -547.839736 
L 224.826 -546.664603 
L 207.1199 -544.595419 
L 189.4138 -540.320654 
L 171.7077 -541.646401 
L 154.0016 -540.054101 
L 136.2955 -538.547729 
L 118.5894 -535.445318 
L 100.8833 -533.960297 
L 83.1772 -534.2953 
L 65.4711 -534.764821 
L 47.765 -536.617952 
z
" style="stroke: #17becf; stroke-opacity: 0.2"/>
    </defs>
    <g clip-path="url(#p7cc72ee5a4)">
     <use xlink:href="#m381206557f" x="0" y="648" style="fill: #17becf; fill-opacity: 0.2; stroke: #17becf; stroke-opacity: 0.2"/>
    </g>
   </g>
   <g id="PolyCollection_11">
    <defs>
     <path id="m9eb1913f5e" d="M 47.765 -531.923408 
L 47.765 -477.125334 
L 65.4711 -480.03063 
L 83.1772 -485.595577 
L 100.8833 -487.612908 
L 118.5894 -488.799668 
L 136.2955 -491.520566 
L 154.0016 -497.029322 
L 171.7077 -500.505692 
L 189.4138 -499.281372 
L 207.1199 -499.489697 
L 224.826 -500.275474 
L 242.5321 -499.625918 
L 260.2382 -501.916505 
L 277.9443 -502.94002 
L 295.6504 -501.586925 
L 313.3565 -503.213887 
L 331.0626 -506.089192 
L 348.7687 -506.44205 
L 366.4748 -506.092938 
L 384.1809 -506.202984 
L 401.887 -506.779543 
L 419.5931 -506.322597 
L 437.2992 -507.075292 
L 455.0053 -506.143099 
L 472.7114 -507.674054 
L 490.4175 -508.199759 
L 508.1236 -508.705366 
L 525.8297 -509.21748 
L 543.5358 -510.461058 
L 561.2419 -511.509851 
L 578.948 -510.976916 
L 596.6541 -512.274463 
L 614.3602 -513.240727 
L 632.0663 -514.594618 
L 649.7724 -514.714211 
L 667.4785 -516.315643 
L 685.1846 -518.900056 
L 702.8907 -517.363716 
L 720.5968 -518.950281 
L 738.3029 -517.242634 
L 756.009 -515.190295 
L 773.7151 -515.105301 
L 791.4212 -518.832842 
L 809.1273 -520.41493 
L 826.8334 -522.129933 
L 844.5395 -523.657477 
L 862.2456 -523.546158 
L 879.9517 -529.067148 
L 897.6578 -528.714325 
L 915.3639 -529.978578 
L 933.07 -527.019814 
L 933.07 -577.612614 
L 933.07 -577.612614 
L 915.3639 -578.627434 
L 897.6578 -578.065622 
L 879.9517 -578.408356 
L 862.2456 -575.106002 
L 844.5395 -576.838959 
L 826.8334 -575.626144 
L 809.1273 -573.162044 
L 791.4212 -570.723108 
L 773.7151 -567.277803 
L 756.009 -566.903794 
L 738.3029 -568.147184 
L 720.5968 -568.859225 
L 702.8907 -567.456854 
L 685.1846 -567.305837 
L 667.4785 -567.362197 
L 649.7724 -565.609303 
L 632.0663 -564.609241 
L 614.3602 -565.191904 
L 596.6541 -561.16197 
L 578.948 -558.741419 
L 561.2419 -560.223425 
L 543.5358 -560.965706 
L 525.8297 -559.944845 
L 508.1236 -560.684016 
L 490.4175 -557.553212 
L 472.7114 -555.526093 
L 455.0053 -553.499633 
L 437.2992 -554.974824 
L 419.5931 -552.760046 
L 401.887 -553.690324 
L 384.1809 -551.924886 
L 366.4748 -549.652455 
L 348.7687 -550.681437 
L 331.0626 -549.637295 
L 313.3565 -547.537978 
L 295.6504 -547.843167 
L 277.9443 -549.701896 
L 260.2382 -547.286688 
L 242.5321 -546.473221 
L 224.826 -546.909888 
L 207.1199 -545.069753 
L 189.4138 -545.254182 
L 171.7077 -545.33883 
L 154.0016 -545.536313 
L 136.2955 -542.584156 
L 118.5894 -544.800698 
L 100.8833 -543.007858 
L 83.1772 -536.230898 
L 65.4711 -532.466799 
L 47.765 -531.923408 
z
" style="stroke: #9edae5; stroke-opacity: 0.2"/>
    </defs>
    <g clip-path="url(#p7cc72ee5a4)">
     <use xlink:href="#m9eb1913f5e" x="0" y="648" style="fill: #9edae5; fill-opacity: 0.2; stroke: #9edae5; stroke-opacity: 0.2"/>
    </g>
   </g>
   <g id="matplotlib.axis_1">
    <g id="xtick_1">
     <g id="line2d_1">
      <defs>
       <path id="m90977a3d17" d="M 0 0 
L 0 3.5 
" style="stroke: #000000; stroke-width: 0.8"/>
      </defs>
      <g>
       <use xlink:href="#m90977a3d17" x="47.765" y="606.04" style="stroke: #000000; stroke-width: 0.8"/>
      </g>
     </g>
     <g id="text_1">
      <!-- 30 -->
      <g transform="translate(41.4025 620.638438) scale(0.1 -0.1)">
       <defs>
        <path id="DejaVuSans-33" d="M 2597 2516 
Q 3050 2419 3304 2112 
Q 3559 1806 3559 1356 
Q 3559 666 3084 287 
Q 2609 -91 1734 -91 
Q 1441 -91 1130 -33 
Q 819 25 488 141 
L 488 750 
Q 750 597 1062 519 
Q 1375 441 1716 441 
Q 2309 441 2620 675 
Q 2931 909 2931 1356 
Q 2931 1769 2642 2001 
Q 2353 2234 1838 2234 
L 1294 2234 
L 1294 2753 
L 1863 2753 
Q 2328 2753 2575 2939 
Q 2822 3125 2822 3475 
Q 2822 3834 2567 4026 
Q 2313 4219 1838 4219 
Q 1578 4219 1281 4162 
Q 984 4106 628 3988 
L 628 4550 
Q 988 4650 1302 4700 
Q 1616 4750 1894 4750 
Q 2613 4750 3031 4423 
Q 3450 4097 3450 3541 
Q 3450 3153 3228 2886 
Q 3006 2619 2597 2516 
z
" transform="scale(0.015625)"/>
        <path id="DejaVuSans-30" d="M 2034 4250 
Q 1547 4250 1301 3770 
Q 1056 3291 1056 2328 
Q 1056 1369 1301 889 
Q 1547 409 2034 409 
Q 2525 409 2770 889 
Q 3016 1369 3016 2328 
Q 3016 3291 2770 3770 
Q 2525 4250 2034 4250 
z
M 2034 4750 
Q 2819 4750 3233 4129 
Q 3647 3509 3647 2328 
Q 3647 1150 3233 529 
Q 2819 -91 2034 -91 
Q 1250 -91 836 529 
Q 422 1150 422 2328 
Q 422 3509 836 4129 
Q 1250 4750 2034 4750 
z
" transform="scale(0.015625)"/>
       </defs>
       <use xlink:href="#DejaVuSans-33"/>
       <use xlink:href="#DejaVuSans-30" x="63.623047"/>
      </g>
     </g>
    </g>
    <g id="xtick_2">
     <g id="line2d_2">
      <g>
       <use xlink:href="#m90977a3d17" x="224.826" y="606.04" style="stroke: #000000; stroke-width: 0.8"/>
      </g>
     </g>
     <g id="text_2">
      <!-- 40 -->
      <g transform="translate(218.4635 620.638438) scale(0.1 -0.1)">
       <defs>
        <path id="DejaVuSans-34" d="M 2419 4116 
L 825 1625 
L 2419 1625 
L 2419 4116 
z
M 2253 4666 
L 3047 4666 
L 3047 1625 
L 3713 1625 
L 3713 1100 
L 3047 1100 
L 3047 0 
L 2419 0 
L 2419 1100 
L 313 1100 
L 313 1709 
L 2253 4666 
z
" transform="scale(0.015625)"/>
       </defs>
       <use xlink:href="#DejaVuSans-34"/>
       <use xlink:href="#DejaVuSans-30" x="63.623047"/>
      </g>
     </g>
    </g>
    <g id="xtick_3">
     <g id="line2d_3">
      <g>
       <use xlink:href="#m90977a3d17" x="401.887" y="606.04" style="stroke: #000000; stroke-width: 0.8"/>
      </g>
     </g>
     <g id="text_3">
      <!-- 50 -->
      <g transform="translate(395.5245 620.638438) scale(0.1 -0.1)">
       <defs>
        <path id="DejaVuSans-35" d="M 691 4666 
L 3169 4666 
L 3169 4134 
L 1269 4134 
L 1269 2991 
Q 1406 3038 1543 3061 
Q 1681 3084 1819 3084 
Q 2600 3084 3056 2656 
Q 3513 2228 3513 1497 
Q 3513 744 3044 326 
Q 2575 -91 1722 -91 
Q 1428 -91 1123 -41 
Q 819 9 494 109 
L 494 744 
Q 775 591 1075 516 
Q 1375 441 1709 441 
Q 2250 441 2565 725 
Q 2881 1009 2881 1497 
Q 2881 1984 2565 2268 
Q 2250 2553 1709 2553 
Q 1456 2553 1204 2497 
Q 953 2441 691 2322 
L 691 4666 
z
" transform="scale(0.015625)"/>
       </defs>
       <use xlink:href="#DejaVuSans-35"/>
       <use xlink:href="#DejaVuSans-30" x="63.623047"/>
      </g>
     </g>
    </g>
    <g id="xtick_4">
     <g id="line2d_4">
      <g>
       <use xlink:href="#m90977a3d17" x="578.948" y="606.04" style="stroke: #000000; stroke-width: 0.8"/>
      </g>
     </g>
     <g id="text_4">
      <!-- 60 -->
      <g transform="translate(572.5855 620.638438) scale(0.1 -0.1)">
       <defs>
        <path id="DejaVuSans-36" d="M 2113 2584 
Q 1688 2584 1439 2293 
Q 1191 2003 1191 1497 
Q 1191 994 1439 701 
Q 1688 409 2113 409 
Q 2538 409 2786 701 
Q 3034 994 3034 1497 
Q 3034 2003 2786 2293 
Q 2538 2584 2113 2584 
z
M 3366 4563 
L 3366 3988 
Q 3128 4100 2886 4159 
Q 2644 4219 2406 4219 
Q 1781 4219 1451 3797 
Q 1122 3375 1075 2522 
Q 1259 2794 1537 2939 
Q 1816 3084 2150 3084 
Q 2853 3084 3261 2657 
Q 3669 2231 3669 1497 
Q 3669 778 3244 343 
Q 2819 -91 2113 -91 
Q 1303 -91 875 529 
Q 447 1150 447 2328 
Q 447 3434 972 4092 
Q 1497 4750 2381 4750 
Q 2619 4750 2861 4703 
Q 3103 4656 3366 4563 
z
" transform="scale(0.015625)"/>
       </defs>
       <use xlink:href="#DejaVuSans-36"/>
       <use xlink:href="#DejaVuSans-30" x="63.623047"/>
      </g>
     </g>
    </g>
    <g id="xtick_5">
     <g id="line2d_5">
      <g>
       <use xlink:href="#m90977a3d17" x="756.009" y="606.04" style="stroke: #000000; stroke-width: 0.8"/>
      </g>
     </g>
     <g id="text_5">
      <!-- 70 -->
      <g transform="translate(749.6465 620.638438) scale(0.1 -0.1)">
       <defs>
        <path id="DejaVuSans-37" d="M 525 4666 
L 3525 4666 
L 3525 4397 
L 1831 0 
L 1172 0 
L 2766 4134 
L 525 4134 
L 525 4666 
z
" transform="scale(0.015625)"/>
       </defs>
       <use xlink:href="#DejaVuSans-37"/>
       <use xlink:href="#DejaVuSans-30" x="63.623047"/>
      </g>
     </g>
    </g>
    <g id="xtick_6">
     <g id="line2d_6">
      <g>
       <use xlink:href="#m90977a3d17" x="933.07" y="606.04" style="stroke: #000000; stroke-width: 0.8"/>
      </g>
     </g>
     <g id="text_6">
      <!-- 80 -->
      <g transform="translate(926.7075 620.638438) scale(0.1 -0.1)">
       <defs>
        <path id="DejaVuSans-38" d="M 2034 2216 
Q 1584 2216 1326 1975 
Q 1069 1734 1069 1313 
Q 1069 891 1326 650 
Q 1584 409 2034 409 
Q 2484 409 2743 651 
Q 3003 894 3003 1313 
Q 3003 1734 2745 1975 
Q 2488 2216 2034 2216 
z
M 1403 2484 
Q 997 2584 770 2862 
Q 544 3141 544 3541 
Q 544 4100 942 4425 
Q 1341 4750 2034 4750 
Q 2731 4750 3128 4425 
Q 3525 4100 3525 3541 
Q 3525 3141 3298 2862 
Q 3072 2584 2669 2484 
Q 3125 2378 3379 2068 
Q 3634 1759 3634 1313 
Q 3634 634 3220 271 
Q 2806 -91 2034 -91 
Q 1263 -91 848 271 
Q 434 634 434 1313 
Q 434 1759 690 2068 
Q 947 2378 1403 2484 
z
M 1172 3481 
Q 1172 3119 1398 2916 
Q 1625 2713 2034 2713 
Q 2441 2713 2670 2916 
Q 2900 3119 2900 3481 
Q 2900 3844 2670 4047 
Q 2441 4250 2034 4250 
Q 1625 4250 1398 4047 
Q 1172 3844 1172 3481 
z
" transform="scale(0.015625)"/>
       </defs>
       <use xlink:href="#DejaVuSans-38"/>
       <use xlink:href="#DejaVuSans-30" x="63.623047"/>
      </g>
     </g>
    </g>
    <g id="text_7">
     <!-- Number of Baits -->
     <g transform="translate(449.885469 634.316563) scale(0.1 -0.1)">
      <defs>
       <path id="DejaVuSans-4e" d="M 628 4666 
L 1478 4666 
L 3547 763 
L 3547 4666 
L 4159 4666 
L 4159 0 
L 3309 0 
L 1241 3903 
L 1241 0 
L 628 0 
L 628 4666 
z
" transform="scale(0.015625)"/>
       <path id="DejaVuSans-75" d="M 544 1381 
L 544 3500 
L 1119 3500 
L 1119 1403 
Q 1119 906 1312 657 
Q 1506 409 1894 409 
Q 2359 409 2629 706 
Q 2900 1003 2900 1516 
L 2900 3500 
L 3475 3500 
L 3475 0 
L 2900 0 
L 2900 538 
Q 2691 219 2414 64 
Q 2138 -91 1772 -91 
Q 1169 -91 856 284 
Q 544 659 544 1381 
z
M 1991 3584 
L 1991 3584 
z
" transform="scale(0.015625)"/>
       <path id="DejaVuSans-6d" d="M 3328 2828 
Q 3544 3216 3844 3400 
Q 4144 3584 4550 3584 
Q 5097 3584 5394 3201 
Q 5691 2819 5691 2113 
L 5691 0 
L 5113 0 
L 5113 2094 
Q 5113 2597 4934 2840 
Q 4756 3084 4391 3084 
Q 3944 3084 3684 2787 
Q 3425 2491 3425 1978 
L 3425 0 
L 2847 0 
L 2847 2094 
Q 2847 2600 2669 2842 
Q 2491 3084 2119 3084 
Q 1678 3084 1418 2786 
Q 1159 2488 1159 1978 
L 1159 0 
L 581 0 
L 581 3500 
L 1159 3500 
L 1159 2956 
Q 1356 3278 1631 3431 
Q 1906 3584 2284 3584 
Q 2666 3584 2933 3390 
Q 3200 3197 3328 2828 
z
" transform="scale(0.015625)"/>
       <path id="DejaVuSans-62" d="M 3116 1747 
Q 3116 2381 2855 2742 
Q 2594 3103 2138 3103 
Q 1681 3103 1420 2742 
Q 1159 2381 1159 1747 
Q 1159 1113 1420 752 
Q 1681 391 2138 391 
Q 2594 391 2855 752 
Q 3116 1113 3116 1747 
z
M 1159 2969 
Q 1341 3281 1617 3432 
Q 1894 3584 2278 3584 
Q 2916 3584 3314 3078 
Q 3713 2572 3713 1747 
Q 3713 922 3314 415 
Q 2916 -91 2278 -91 
Q 1894 -91 1617 61 
Q 1341 213 1159 525 
L 1159 0 
L 581 0 
L 581 4863 
L 1159 4863 
L 1159 2969 
z
" transform="scale(0.015625)"/>
       <path id="DejaVuSans-65" d="M 3597 1894 
L 3597 1613 
L 953 1613 
Q 991 1019 1311 708 
Q 1631 397 2203 397 
Q 2534 397 2845 478 
Q 3156 559 3463 722 
L 3463 178 
Q 3153 47 2828 -22 
Q 2503 -91 2169 -91 
Q 1331 -91 842 396 
Q 353 884 353 1716 
Q 353 2575 817 3079 
Q 1281 3584 2069 3584 
Q 2775 3584 3186 3129 
Q 3597 2675 3597 1894 
z
M 3022 2063 
Q 3016 2534 2758 2815 
Q 2500 3097 2075 3097 
Q 1594 3097 1305 2825 
Q 1016 2553 972 2059 
L 3022 2063 
z
" transform="scale(0.015625)"/>
       <path id="DejaVuSans-72" d="M 2631 2963 
Q 2534 3019 2420 3045 
Q 2306 3072 2169 3072 
Q 1681 3072 1420 2755 
Q 1159 2438 1159 1844 
L 1159 0 
L 581 0 
L 581 3500 
L 1159 3500 
L 1159 2956 
Q 1341 3275 1631 3429 
Q 1922 3584 2338 3584 
Q 2397 3584 2469 3576 
Q 2541 3569 2628 3553 
L 2631 2963 
z
" transform="scale(0.015625)"/>
       <path id="DejaVuSans-20" transform="scale(0.015625)"/>
       <path id="DejaVuSans-6f" d="M 1959 3097 
Q 1497 3097 1228 2736 
Q 959 2375 959 1747 
Q 959 1119 1226 758 
Q 1494 397 1959 397 
Q 2419 397 2687 759 
Q 2956 1122 2956 1747 
Q 2956 2369 2687 2733 
Q 2419 3097 1959 3097 
z
M 1959 3584 
Q 2709 3584 3137 3096 
Q 3566 2609 3566 1747 
Q 3566 888 3137 398 
Q 2709 -91 1959 -91 
Q 1206 -91 779 398 
Q 353 888 353 1747 
Q 353 2609 779 3096 
Q 1206 3584 1959 3584 
z
" transform="scale(0.015625)"/>
       <path id="DejaVuSans-66" d="M 2375 4863 
L 2375 4384 
L 1825 4384 
Q 1516 4384 1395 4259 
Q 1275 4134 1275 3809 
L 1275 3500 
L 2222 3500 
L 2222 3053 
L 1275 3053 
L 1275 0 
L 697 0 
L 697 3053 
L 147 3053 
L 147 3500 
L 697 3500 
L 697 3744 
Q 697 4328 969 4595 
Q 1241 4863 1831 4863 
L 2375 4863 
z
" transform="scale(0.015625)"/>
       <path id="DejaVuSans-42" d="M 1259 2228 
L 1259 519 
L 2272 519 
Q 2781 519 3026 730 
Q 3272 941 3272 1375 
Q 3272 1813 3026 2020 
Q 2781 2228 2272 2228 
L 1259 2228 
z
M 1259 4147 
L 1259 2741 
L 2194 2741 
Q 2656 2741 2882 2914 
Q 3109 3088 3109 3444 
Q 3109 3797 2882 3972 
Q 2656 4147 2194 4147 
L 1259 4147 
z
M 628 4666 
L 2241 4666 
Q 2963 4666 3353 4366 
Q 3744 4066 3744 3513 
Q 3744 3084 3544 2831 
Q 3344 2578 2956 2516 
Q 3422 2416 3680 2098 
Q 3938 1781 3938 1306 
Q 3938 681 3513 340 
Q 3088 0 2303 0 
L 628 0 
L 628 4666 
z
" transform="scale(0.015625)"/>
       <path id="DejaVuSans-61" d="M 2194 1759 
Q 1497 1759 1228 1600 
Q 959 1441 959 1056 
Q 959 750 1161 570 
Q 1363 391 1709 391 
Q 2188 391 2477 730 
Q 2766 1069 2766 1631 
L 2766 1759 
L 2194 1759 
z
M 3341 1997 
L 3341 0 
L 2766 0 
L 2766 531 
Q 2569 213 2275 61 
Q 1981 -91 1556 -91 
Q 1019 -91 701 211 
Q 384 513 384 1019 
Q 384 1609 779 1909 
Q 1175 2209 1959 2209 
L 2766 2209 
L 2766 2266 
Q 2766 2663 2505 2880 
Q 2244 3097 1772 3097 
Q 1472 3097 1187 3025 
Q 903 2953 641 2809 
L 641 3341 
Q 956 3463 1253 3523 
Q 1550 3584 1831 3584 
Q 2591 3584 2966 3190 
Q 3341 2797 3341 1997 
z
" transform="scale(0.015625)"/>
       <path id="DejaVuSans-69" d="M 603 3500 
L 1178 3500 
L 1178 0 
L 603 0 
L 603 3500 
z
M 603 4863 
L 1178 4863 
L 1178 4134 
L 603 4134 
L 603 4863 
z
" transform="scale(0.015625)"/>
       <path id="DejaVuSans-74" d="M 1172 4494 
L 1172 3500 
L 2356 3500 
L 2356 3053 
L 1172 3053 
L 1172 1153 
Q 1172 725 1289 603 
Q 1406 481 1766 481 
L 2356 481 
L 2356 0 
L 1766 0 
Q 1100 0 847 248 
Q 594 497 594 1153 
L 594 3053 
L 172 3053 
L 172 3500 
L 594 3500 
L 594 4494 
L 1172 4494 
z
" transform="scale(0.015625)"/>
       <path id="DejaVuSans-73" d="M 2834 3397 
L 2834 2853 
Q 2591 2978 2328 3040 
Q 2066 3103 1784 3103 
Q 1356 3103 1142 2972 
Q 928 2841 928 2578 
Q 928 2378 1081 2264 
Q 1234 2150 1697 2047 
L 1894 2003 
Q 2506 1872 2764 1633 
Q 3022 1394 3022 966 
Q 3022 478 2636 193 
Q 2250 -91 1575 -91 
Q 1294 -91 989 -36 
Q 684 19 347 128 
L 347 722 
Q 666 556 975 473 
Q 1284 391 1588 391 
Q 1994 391 2212 530 
Q 2431 669 2431 922 
Q 2431 1156 2273 1281 
Q 2116 1406 1581 1522 
L 1381 1569 
Q 847 1681 609 1914 
Q 372 2147 372 2553 
Q 372 3047 722 3315 
Q 1072 3584 1716 3584 
Q 2034 3584 2315 3537 
Q 2597 3491 2834 3397 
z
" transform="scale(0.015625)"/>
      </defs>
      <use xlink:href="#DejaVuSans-4e"/>
      <use xlink:href="#DejaVuSans-75" x="74.804688"/>
      <use xlink:href="#DejaVuSans-6d" x="138.183594"/>
      <use xlink:href="#DejaVuSans-62" x="235.595703"/>
      <use xlink:href="#DejaVuSans-65" x="299.072266"/>
      <use xlink:href="#DejaVuSans-72" x="360.595703"/>
      <use xlink:href="#DejaVuSans-20" x="401.708984"/>
      <use xlink:href="#DejaVuSans-6f" x="433.496094"/>
      <use xlink:href="#DejaVuSans-66" x="494.677734"/>
      <use xlink:href="#DejaVuSans-20" x="529.882812"/>
      <use xlink:href="#DejaVuSans-42" x="561.669922"/>
      <use xlink:href="#DejaVuSans-61" x="630.273438"/>
      <use xlink:href="#DejaVuSans-69" x="691.552734"/>
      <use xlink:href="#DejaVuSans-74" x="719.335938"/>
      <use xlink:href="#DejaVuSans-73" x="758.544922"/>
     </g>
    </g>
   </g>
   <g id="matplotlib.axis_2">
    <g id="ytick_1">
     <g id="line2d_7">
      <defs>
       <path id="m76234fa136" d="M 0 0 
L -3.5 0 
" style="stroke: #000000; stroke-width: 0.8"/>
      </defs>
      <g>
       <use xlink:href="#m76234fa136" x="47.765" y="606.04" style="stroke: #000000; stroke-width: 0.8"/>
      </g>
     </g>
     <g id="text_8">
      <!-- 0.0 -->
      <g transform="translate(24.861875 609.839219) scale(0.1 -0.1)">
       <defs>
        <path id="DejaVuSans-2e" d="M 684 794 
L 1344 794 
L 1344 0 
L 684 0 
L 684 794 
z
" transform="scale(0.015625)"/>
       </defs>
       <use xlink:href="#DejaVuSans-30"/>
       <use xlink:href="#DejaVuSans-2e" x="63.623047"/>
       <use xlink:href="#DejaVuSans-30" x="95.410156"/>
      </g>
     </g>
    </g>
    <g id="ytick_2">
     <g id="line2d_8">
      <g>
       <use xlink:href="#m76234fa136" x="47.765" y="490.9816" style="stroke: #000000; stroke-width: 0.8"/>
      </g>
     </g>
     <g id="text_9">
      <!-- 0.2 -->
      <g transform="translate(24.861875 494.780819) scale(0.1 -0.1)">
       <defs>
        <path id="DejaVuSans-32" d="M 1228 531 
L 3431 531 
L 3431 0 
L 469 0 
L 469 531 
Q 828 903 1448 1529 
Q 2069 2156 2228 2338 
Q 2531 2678 2651 2914 
Q 2772 3150 2772 3378 
Q 2772 3750 2511 3984 
Q 2250 4219 1831 4219 
Q 1534 4219 1204 4116 
Q 875 4013 500 3803 
L 500 4441 
Q 881 4594 1212 4672 
Q 1544 4750 1819 4750 
Q 2544 4750 2975 4387 
Q 3406 4025 3406 3419 
Q 3406 3131 3298 2873 
Q 3191 2616 2906 2266 
Q 2828 2175 2409 1742 
Q 1991 1309 1228 531 
z
" transform="scale(0.015625)"/>
       </defs>
       <use xlink:href="#DejaVuSans-30"/>
       <use xlink:href="#DejaVuSans-2e" x="63.623047"/>
       <use xlink:href="#DejaVuSans-32" x="95.410156"/>
      </g>
     </g>
    </g>
    <g id="ytick_3">
     <g id="line2d_9">
      <g>
       <use xlink:href="#m76234fa136" x="47.765" y="375.9232" style="stroke: #000000; stroke-width: 0.8"/>
      </g>
     </g>
     <g id="text_10">
      <!-- 0.4 -->
      <g transform="translate(24.861875 379.722419) scale(0.1 -0.1)">
       <use xlink:href="#DejaVuSans-30"/>
       <use xlink:href="#DejaVuSans-2e" x="63.623047"/>
       <use xlink:href="#DejaVuSans-34" x="95.410156"/>
      </g>
     </g>
    </g>
    <g id="ytick_4">
     <g id="line2d_10">
      <g>
       <use xlink:href="#m76234fa136" x="47.765" y="260.8648" style="stroke: #000000; stroke-width: 0.8"/>
      </g>
     </g>
     <g id="text_11">
      <!-- 0.6 -->
      <g transform="translate(24.861875 264.664019) scale(0.1 -0.1)">
       <use xlink:href="#DejaVuSans-30"/>
       <use xlink:href="#DejaVuSans-2e" x="63.623047"/>
       <use xlink:href="#DejaVuSans-36" x="95.410156"/>
      </g>
     </g>
    </g>
    <g id="ytick_5">
     <g id="line2d_11">
      <g>
       <use xlink:href="#m76234fa136" x="47.765" y="145.8064" style="stroke: #000000; stroke-width: 0.8"/>
      </g>
     </g>
     <g id="text_12">
      <!-- 0.8 -->
      <g transform="translate(24.861875 149.605619) scale(0.1 -0.1)">
       <use xlink:href="#DejaVuSans-30"/>
       <use xlink:href="#DejaVuSans-2e" x="63.623047"/>
       <use xlink:href="#DejaVuSans-38" x="95.410156"/>
      </g>
     </g>
    </g>
    <g id="ytick_6">
     <g id="line2d_12">
      <g>
       <use xlink:href="#m76234fa136" x="47.765" y="30.748" style="stroke: #000000; stroke-width: 0.8"/>
      </g>
     </g>
     <g id="text_13">
      <!-- 1.0 -->
      <g transform="translate(24.861875 34.547219) scale(0.1 -0.1)">
       <defs>
        <path id="DejaVuSans-31" d="M 794 531 
L 1825 531 
L 1825 4091 
L 703 3866 
L 703 4441 
L 1819 4666 
L 2450 4666 
L 2450 531 
L 3481 531 
L 3481 0 
L 794 0 
L 794 531 
z
" transform="scale(0.015625)"/>
       </defs>
       <use xlink:href="#DejaVuSans-31"/>
       <use xlink:href="#DejaVuSans-2e" x="63.623047"/>
       <use xlink:href="#DejaVuSans-30" x="95.410156"/>
      </g>
     </g>
    </g>
    <g id="text_14">
     <!-- Aggregated NMF Cos Scores -->
     <g transform="translate(18.782187 389.091656) rotate(-90) scale(0.1 -0.1)">
      <defs>
       <path id="DejaVuSans-41" d="M 2188 4044 
L 1331 1722 
L 3047 1722 
L 2188 4044 
z
M 1831 4666 
L 2547 4666 
L 4325 0 
L 3669 0 
L 3244 1197 
L 1141 1197 
L 716 0 
L 50 0 
L 1831 4666 
z
" transform="scale(0.015625)"/>
       <path id="DejaVuSans-67" d="M 2906 1791 
Q 2906 2416 2648 2759 
Q 2391 3103 1925 3103 
Q 1463 3103 1205 2759 
Q 947 2416 947 1791 
Q 947 1169 1205 825 
Q 1463 481 1925 481 
Q 2391 481 2648 825 
Q 2906 1169 2906 1791 
z
M 3481 434 
Q 3481 -459 3084 -895 
Q 2688 -1331 1869 -1331 
Q 1566 -1331 1297 -1286 
Q 1028 -1241 775 -1147 
L 775 -588 
Q 1028 -725 1275 -790 
Q 1522 -856 1778 -856 
Q 2344 -856 2625 -561 
Q 2906 -266 2906 331 
L 2906 616 
Q 2728 306 2450 153 
Q 2172 0 1784 0 
Q 1141 0 747 490 
Q 353 981 353 1791 
Q 353 2603 747 3093 
Q 1141 3584 1784 3584 
Q 2172 3584 2450 3431 
Q 2728 3278 2906 2969 
L 2906 3500 
L 3481 3500 
L 3481 434 
z
" transform="scale(0.015625)"/>
       <path id="DejaVuSans-64" d="M 2906 2969 
L 2906 4863 
L 3481 4863 
L 3481 0 
L 2906 0 
L 2906 525 
Q 2725 213 2448 61 
Q 2172 -91 1784 -91 
Q 1150 -91 751 415 
Q 353 922 353 1747 
Q 353 2572 751 3078 
Q 1150 3584 1784 3584 
Q 2172 3584 2448 3432 
Q 2725 3281 2906 2969 
z
M 947 1747 
Q 947 1113 1208 752 
Q 1469 391 1925 391 
Q 2381 391 2643 752 
Q 2906 1113 2906 1747 
Q 2906 2381 2643 2742 
Q 2381 3103 1925 3103 
Q 1469 3103 1208 2742 
Q 947 2381 947 1747 
z
" transform="scale(0.015625)"/>
       <path id="DejaVuSans-4d" d="M 628 4666 
L 1569 4666 
L 2759 1491 
L 3956 4666 
L 4897 4666 
L 4897 0 
L 4281 0 
L 4281 4097 
L 3078 897 
L 2444 897 
L 1241 4097 
L 1241 0 
L 628 0 
L 628 4666 
z
" transform="scale(0.015625)"/>
       <path id="DejaVuSans-46" d="M 628 4666 
L 3309 4666 
L 3309 4134 
L 1259 4134 
L 1259 2759 
L 3109 2759 
L 3109 2228 
L 1259 2228 
L 1259 0 
L 628 0 
L 628 4666 
z
" transform="scale(0.015625)"/>
       <path id="DejaVuSans-43" d="M 4122 4306 
L 4122 3641 
Q 3803 3938 3442 4084 
Q 3081 4231 2675 4231 
Q 1875 4231 1450 3742 
Q 1025 3253 1025 2328 
Q 1025 1406 1450 917 
Q 1875 428 2675 428 
Q 3081 428 3442 575 
Q 3803 722 4122 1019 
L 4122 359 
Q 3791 134 3420 21 
Q 3050 -91 2638 -91 
Q 1578 -91 968 557 
Q 359 1206 359 2328 
Q 359 3453 968 4101 
Q 1578 4750 2638 4750 
Q 3056 4750 3426 4639 
Q 3797 4528 4122 4306 
z
" transform="scale(0.015625)"/>
       <path id="DejaVuSans-53" d="M 3425 4513 
L 3425 3897 
Q 3066 4069 2747 4153 
Q 2428 4238 2131 4238 
Q 1616 4238 1336 4038 
Q 1056 3838 1056 3469 
Q 1056 3159 1242 3001 
Q 1428 2844 1947 2747 
L 2328 2669 
Q 3034 2534 3370 2195 
Q 3706 1856 3706 1288 
Q 3706 609 3251 259 
Q 2797 -91 1919 -91 
Q 1588 -91 1214 -16 
Q 841 59 441 206 
L 441 856 
Q 825 641 1194 531 
Q 1563 422 1919 422 
Q 2459 422 2753 634 
Q 3047 847 3047 1241 
Q 3047 1584 2836 1778 
Q 2625 1972 2144 2069 
L 1759 2144 
Q 1053 2284 737 2584 
Q 422 2884 422 3419 
Q 422 4038 858 4394 
Q 1294 4750 2059 4750 
Q 2388 4750 2728 4690 
Q 3069 4631 3425 4513 
z
" transform="scale(0.015625)"/>
       <path id="DejaVuSans-63" d="M 3122 3366 
L 3122 2828 
Q 2878 2963 2633 3030 
Q 2388 3097 2138 3097 
Q 1578 3097 1268 2742 
Q 959 2388 959 1747 
Q 959 1106 1268 751 
Q 1578 397 2138 397 
Q 2388 397 2633 464 
Q 2878 531 3122 666 
L 3122 134 
Q 2881 22 2623 -34 
Q 2366 -91 2075 -91 
Q 1284 -91 818 406 
Q 353 903 353 1747 
Q 353 2603 823 3093 
Q 1294 3584 2113 3584 
Q 2378 3584 2631 3529 
Q 2884 3475 3122 3366 
z
" transform="scale(0.015625)"/>
      </defs>
      <use xlink:href="#DejaVuSans-41"/>
      <use xlink:href="#DejaVuSans-67" x="68.408203"/>
      <use xlink:href="#DejaVuSans-67" x="131.884766"/>
      <use xlink:href="#DejaVuSans-72" x="195.361328"/>
      <use xlink:href="#DejaVuSans-65" x="234.224609"/>
      <use xlink:href="#DejaVuSans-67" x="295.748047"/>
      <use xlink:href="#DejaVuSans-61" x="359.224609"/>
      <use xlink:href="#DejaVuSans-74" x="420.503906"/>
      <use xlink:href="#DejaVuSans-65" x="459.712891"/>
      <use xlink:href="#DejaVuSans-64" x="521.236328"/>
      <use xlink:href="#DejaVuSans-20" x="584.712891"/>
      <use xlink:href="#DejaVuSans-4e" x="616.5"/>
      <use xlink:href="#DejaVuSans-4d" x="691.304688"/>
      <use xlink:href="#DejaVuSans-46" x="777.583984"/>
      <use xlink:href="#DejaVuSans-20" x="835.103516"/>
      <use xlink:href="#DejaVuSans-43" x="866.890625"/>
      <use xlink:href="#DejaVuSans-6f" x="936.714844"/>
      <use xlink:href="#DejaVuSans-73" x="997.896484"/>
      <use xlink:href="#DejaVuSans-20" x="1049.996094"/>
      <use xlink:href="#DejaVuSans-53" x="1081.783203"/>
      <use xlink:href="#DejaVuSans-63" x="1145.259766"/>
      <use xlink:href="#DejaVuSans-6f" x="1200.240234"/>
      <use xlink:href="#DejaVuSans-72" x="1261.421875"/>
      <use xlink:href="#DejaVuSans-65" x="1300.285156"/>
      <use xlink:href="#DejaVuSans-73" x="1361.808594"/>
     </g>
    </g>
   </g>
   <g id="line2d_13">
    <path d="M 47.765 136.487848 
L 65.4711 127.644577 
L 83.1772 125.984767 
L 100.8833 121.863784 
L 118.5894 117.883361 
L 136.2955 116.719748 
L 154.0016 116.142692 
L 171.7077 115.424089 
L 189.4138 111.747842 
L 207.1199 108.815102 
L 224.826 109.855437 
L 242.5321 106.375564 
L 260.2382 107.261294 
L 277.9443 102.692094 
L 295.6504 104.989758 
L 313.3565 105.194543 
L 331.0626 103.773419 
L 348.7687 102.211561 
L 366.4748 100.757978 
L 384.1809 99.443771 
L 401.887 98.48993 
L 419.5931 100.808737 
L 437.2992 99.037797 
L 455.0053 99.017529 
L 472.7114 96.53984 
L 490.4175 97.400282 
L 508.1236 93.779216 
L 525.8297 98.310155 
L 543.5358 93.677398 
L 561.2419 90.792676 
L 578.948 94.200554 
L 596.6541 95.684283 
L 614.3602 91.937006 
L 632.0663 91.230908 
L 649.7724 91.813798 
L 667.4785 86.438971 
L 685.1846 88.896 
L 702.8907 88.058813 
L 720.5968 87.878312 
L 738.3029 87.534893 
L 756.009 87.492888 
L 773.7151 88.226135 
L 791.4212 83.614779 
L 809.1273 85.982516 
L 826.8334 84.092568 
L 844.5395 83.184141 
L 862.2456 85.188394 
L 879.9517 85.896785 
L 897.6578 83.60069 
L 915.3639 83.999929 
L 933.07 82.465195 
" clip-path="url(#p7cc72ee5a4)" style="fill: none; stroke: #1f77b4; stroke-width: 1.5; stroke-linecap: square"/>
   </g>
   <g id="line2d_14">
    <path d="M 47.765 328.908773 
L 65.4711 308.843504 
L 83.1772 329.801261 
L 100.8833 316.043199 
L 118.5894 306.632068 
L 136.2955 309.536338 
L 154.0016 271.787112 
L 171.7077 288.116175 
L 189.4138 290.651752 
L 207.1199 287.967176 
L 224.826 279.145249 
L 242.5321 277.549159 
L 260.2382 270.064102 
L 277.9443 280.29286 
L 295.6504 261.470292 
L 313.3565 265.303948 
L 331.0626 267.914926 
L 348.7687 255.997912 
L 366.4748 270.039185 
L 384.1809 279.029083 
L 401.887 263.043859 
L 419.5931 256.130979 
L 437.2992 269.310937 
L 455.0053 255.883231 
L 472.7114 245.728917 
L 490.4175 249.671022 
L 508.1236 234.990643 
L 525.8297 249.721488 
L 543.5358 248.020974 
L 561.2419 238.118436 
L 578.948 224.098047 
L 596.6541 249.726363 
L 614.3602 226.282172 
L 632.0663 223.516067 
L 649.7724 220.94506 
L 667.4785 226.986101 
L 685.1846 213.677115 
L 702.8907 219.716496 
L 720.5968 208.941951 
L 738.3029 203.313337 
L 756.009 195.629495 
L 773.7151 217.357152 
L 791.4212 212.734524 
L 809.1273 195.246656 
L 826.8334 203.450537 
L 844.5395 201.571355 
L 862.2456 192.559691 
L 879.9517 217.782245 
L 897.6578 196.283837 
L 915.3639 200.182923 
L 933.07 184.887414 
" clip-path="url(#p7cc72ee5a4)" style="fill: none; stroke: #ff7f0e; stroke-width: 1.5; stroke-linecap: square"/>
   </g>
   <g id="line2d_15">
    <path d="M 47.765 175.892921 
L 65.4711 173.239458 
L 83.1772 168.298909 
L 100.8833 165.820732 
L 118.5894 159.112409 
L 136.2955 157.271637 
L 154.0016 152.936561 
L 171.7077 151.186355 
L 189.4138 144.841391 
L 207.1199 143.230219 
L 224.826 141.008627 
L 242.5321 137.986895 
L 260.2382 133.602439 
L 277.9443 131.402127 
L 295.6504 132.327374 
L 313.3565 128.162693 
L 331.0626 124.960025 
L 348.7687 123.216218 
L 366.4748 121.494788 
L 384.1809 119.23236 
L 401.887 117.087737 
L 419.5931 116.747208 
L 437.2992 116.241496 
L 455.0053 115.077874 
L 472.7114 111.88578 
L 490.4175 109.111099 
L 508.1236 107.673811 
L 525.8297 107.024352 
L 543.5358 106.552988 
L 561.2419 107.579676 
L 578.948 104.814627 
L 596.6541 103.259049 
L 614.3602 103.51519 
L 632.0663 103.18847 
L 649.7724 102.334612 
L 667.4785 100.601399 
L 685.1846 100.836021 
L 702.8907 97.531253 
L 720.5968 96.952679 
L 738.3029 96.128529 
L 756.009 94.763983 
L 773.7151 93.261263 
L 791.4212 93.485984 
L 809.1273 93.308245 
L 826.8334 91.915639 
L 844.5395 92.602504 
L 862.2456 92.90928 
L 879.9517 92.737008 
L 897.6578 92.74158 
L 915.3639 93.681562 
L 933.07 96.093091 
" clip-path="url(#p7cc72ee5a4)" style="fill: none; stroke: #2ca02c; stroke-width: 1.5; stroke-linecap: square"/>
   </g>
   <g id="line2d_16">
    <path d="M 47.765 176.112499 
L 65.4711 171.498169 
L 83.1772 168.337672 
L 100.8833 165.538966 
L 118.5894 164.579169 
L 136.2955 162.440391 
L 154.0016 161.327727 
L 171.7077 158.59965 
L 189.4138 157.412636 
L 207.1199 154.942555 
L 224.826 152.827383 
L 242.5321 152.021126 
L 260.2382 148.059126 
L 277.9443 145.696033 
L 295.6504 140.445567 
L 313.3565 138.217916 
L 331.0626 137.790922 
L 348.7687 134.486068 
L 366.4748 132.22535 
L 384.1809 129.594846 
L 401.887 128.545077 
L 419.5931 124.164345 
L 437.2992 120.216681 
L 455.0053 119.16337 
L 472.7114 116.800874 
L 490.4175 115.631085 
L 508.1236 113.626383 
L 525.8297 111.264394 
L 543.5358 109.213039 
L 561.2419 107.844138 
L 578.948 106.726903 
L 596.6541 105.592062 
L 614.3602 104.744008 
L 632.0663 103.831022 
L 649.7724 100.745072 
L 667.4785 100.567594 
L 685.1846 99.408588 
L 702.8907 98.909592 
L 720.5968 97.671403 
L 738.3029 95.471369 
L 756.009 94.860914 
L 773.7151 94.059429 
L 791.4212 94.111333 
L 809.1273 93.58869 
L 826.8334 94.039273 
L 844.5395 94.193724 
L 862.2456 95.040839 
L 879.9517 92.21616 
L 897.6578 91.889092 
L 915.3639 92.445342 
L 933.07 93.099858 
" clip-path="url(#p7cc72ee5a4)" style="fill: none; stroke: #d62728; stroke-width: 1.5; stroke-linecap: square"/>
   </g>
   <g id="line2d_17">
    <path d="M 47.765 213.333844 
L 65.4711 207.077392 
L 83.1772 205.420714 
L 100.8833 202.099582 
L 118.5894 195.551824 
L 136.2955 188.221569 
L 154.0016 185.794473 
L 171.7077 184.481059 
L 189.4138 183.667229 
L 207.1199 178.392804 
L 224.826 177.729163 
L 242.5321 173.009556 
L 260.2382 172.279488 
L 277.9443 170.853214 
L 295.6504 170.78282 
L 313.3565 171.357661 
L 331.0626 165.560558 
L 348.7687 163.169888 
L 366.4748 161.647582 
L 384.1809 160.604349 
L 401.887 163.990885 
L 419.5931 163.706715 
L 437.2992 154.948026 
L 455.0053 148.369088 
L 472.7114 146.020399 
L 490.4175 147.715788 
L 508.1236 146.480962 
L 525.8297 140.580597 
L 543.5358 140.987476 
L 561.2419 140.647058 
L 578.948 140.197438 
L 596.6541 140.038862 
L 614.3602 139.194793 
L 632.0663 136.497687 
L 649.7724 135.895426 
L 667.4785 134.992164 
L 685.1846 128.730607 
L 702.8907 128.62647 
L 720.5968 128.038978 
L 738.3029 127.584769 
L 756.009 127.657258 
L 773.7151 125.749964 
L 791.4212 123.854262 
L 809.1273 117.253573 
L 826.8334 114.201403 
L 844.5395 111.2451 
L 862.2456 110.91414 
L 879.9517 107.804665 
L 897.6578 106.278733 
L 915.3639 105.219669 
L 933.07 103.703351 
" clip-path="url(#p7cc72ee5a4)" style="fill: none; stroke: #9467bd; stroke-width: 1.5; stroke-linecap: square"/>
   </g>
   <g id="line2d_18">
    <path d="M 47.765 161.49945 
L 65.4711 157.766391 
L 83.1772 154.005992 
L 100.8833 148.714198 
L 118.5894 145.263818 
L 136.2955 143.792095 
L 154.0016 141.242865 
L 171.7077 139.885588 
L 189.4138 138.537443 
L 207.1199 136.057576 
L 224.826 136.743135 
L 242.5321 136.357549 
L 260.2382 133.708514 
L 277.9443 132.869231 
L 295.6504 132.505169 
L 313.3565 130.178084 
L 331.0626 129.929868 
L 348.7687 129.432651 
L 366.4748 128.168556 
L 384.1809 128.295237 
L 401.887 126.811019 
L 419.5931 125.554316 
L 437.2992 125.177714 
L 455.0053 124.625718 
L 472.7114 123.968348 
L 490.4175 124.859398 
L 508.1236 124.223338 
L 525.8297 124.775777 
L 543.5358 125.22829 
L 561.2419 123.131125 
L 578.948 121.755213 
L 596.6541 120.988847 
L 614.3602 121.203515 
L 632.0663 117.73659 
L 649.7724 116.705305 
L 667.4785 117.055526 
L 685.1846 114.867501 
L 702.8907 113.769618 
L 720.5968 112.61971 
L 738.3029 111.555815 
L 756.009 111.200811 
L 773.7151 111.645895 
L 791.4212 109.603595 
L 809.1273 110.02637 
L 826.8334 106.275133 
L 844.5395 106.073452 
L 862.2456 102.991508 
L 879.9517 102.258557 
L 897.6578 102.633251 
L 915.3639 100.42537 
L 933.07 99.197983 
" clip-path="url(#p7cc72ee5a4)" style="fill: none; stroke: #8c564b; stroke-width: 1.5; stroke-linecap: square"/>
   </g>
   <g id="line2d_19">
    <path d="M 47.765 163.724262 
L 65.4711 159.968171 
L 83.1772 155.901298 
L 100.8833 153.66081 
L 118.5894 151.40474 
L 136.2955 151.261581 
L 154.0016 149.230647 
L 171.7077 148.897537 
L 189.4138 147.35593 
L 207.1199 148.190853 
L 224.826 145.882917 
L 242.5321 143.384213 
L 260.2382 144.446071 
L 277.9443 145.785605 
L 295.6504 145.080417 
L 313.3565 140.916541 
L 331.0626 141.124365 
L 348.7687 140.301873 
L 366.4748 137.981044 
L 384.1809 137.813078 
L 401.887 134.437473 
L 419.5931 133.195915 
L 437.2992 131.821588 
L 455.0053 129.679338 
L 472.7114 127.453584 
L 490.4175 123.84015 
L 508.1236 123.276729 
L 525.8297 121.595388 
L 543.5358 119.721775 
L 561.2419 116.867921 
L 578.948 117.278094 
L 596.6541 115.372845 
L 614.3602 115.406482 
L 632.0663 113.492349 
L 649.7724 112.463113 
L 667.4785 111.549259 
L 685.1846 108.656913 
L 702.8907 105.078938 
L 720.5968 104.464427 
L 738.3029 104.784728 
L 756.009 105.560912 
L 773.7151 104.624667 
L 791.4212 102.889682 
L 809.1273 101.99262 
L 826.8334 99.799543 
L 844.5395 98.228092 
L 862.2456 97.481414 
L 879.9517 96.88842 
L 897.6578 97.8153 
L 915.3639 95.93048 
L 933.07 96.135049 
" clip-path="url(#p7cc72ee5a4)" style="fill: none; stroke: #e377c2; stroke-width: 1.5; stroke-linecap: square"/>
   </g>
   <g id="line2d_20">
    <path d="M 47.765 160.656616 
L 65.4711 155.719298 
L 83.1772 154.02143 
L 100.8833 149.198682 
L 118.5894 148.593507 
L 136.2955 147.869319 
L 154.0016 146.811546 
L 171.7077 145.289176 
L 189.4138 144.636399 
L 207.1199 142.237008 
L 224.826 140.063695 
L 242.5321 139.219248 
L 260.2382 138.828568 
L 277.9443 137.927234 
L 295.6504 136.179921 
L 313.3565 135.193302 
L 331.0626 134.560524 
L 348.7687 132.686379 
L 366.4748 127.945199 
L 384.1809 125.363341 
L 401.887 124.873171 
L 419.5931 125.021697 
L 437.2992 125.138844 
L 455.0053 124.414967 
L 472.7114 122.853707 
L 490.4175 121.868231 
L 508.1236 119.129091 
L 525.8297 119.001307 
L 543.5358 118.99097 
L 561.2419 118.271494 
L 578.948 115.551676 
L 596.6541 116.660325 
L 614.3602 116.20581 
L 632.0663 114.003324 
L 649.7724 111.563652 
L 667.4785 109.924096 
L 685.1846 110.175367 
L 702.8907 110.550414 
L 720.5968 111.902819 
L 738.3029 110.820587 
L 756.009 110.095743 
L 773.7151 106.960682 
L 791.4212 103.562583 
L 809.1273 102.627349 
L 826.8334 101.64487 
L 844.5395 99.730101 
L 862.2456 100.251823 
L 879.9517 98.792321 
L 897.6578 101.26436 
L 915.3639 100.177205 
L 933.07 99.490775 
" clip-path="url(#p7cc72ee5a4)" style="fill: none; stroke: #7f7f7f; stroke-width: 1.5; stroke-linecap: square"/>
   </g>
   <g id="line2d_21">
    <path d="M 47.765 152.510412 
L 65.4711 151.062283 
L 83.1772 150.310957 
L 100.8833 150.37484 
L 118.5894 150.693944 
L 136.2955 151.374881 
L 154.0016 150.211368 
L 171.7077 149.280907 
L 189.4138 145.618976 
L 207.1199 144.700057 
L 224.826 142.611259 
L 242.5321 141.319307 
L 260.2382 139.57743 
L 277.9443 136.133431 
L 295.6504 134.722953 
L 313.3565 132.7075 
L 331.0626 130.494067 
L 348.7687 129.324246 
L 366.4748 126.374176 
L 384.1809 127.082103 
L 401.887 124.056675 
L 419.5931 123.162525 
L 437.2992 122.598749 
L 455.0053 121.763221 
L 472.7114 118.837414 
L 490.4175 116.953557 
L 508.1236 114.992779 
L 525.8297 115.307917 
L 543.5358 112.351127 
L 561.2419 109.343215 
L 578.948 108.89062 
L 596.6541 107.577304 
L 614.3602 107.103548 
L 632.0663 106.521764 
L 649.7724 106.201175 
L 667.4785 101.148444 
L 685.1846 100.637086 
L 702.8907 101.556837 
L 720.5968 101.695153 
L 738.3029 99.771872 
L 756.009 97.676285 
L 773.7151 96.162477 
L 791.4212 97.27485 
L 809.1273 94.501533 
L 826.8334 95.458303 
L 844.5395 94.836231 
L 862.2456 92.25526 
L 879.9517 92.19595 
L 897.6578 90.453048 
L 915.3639 90.559441 
L 933.07 88.925994 
" clip-path="url(#p7cc72ee5a4)" style="fill: none; stroke: #bcbd22; stroke-width: 1.5; stroke-linecap: square"/>
   </g>
   <g id="line2d_22">
    <path d="M 47.765 136.723866 
L 65.4711 138.178407 
L 83.1772 137.273067 
L 100.8833 137.935216 
L 118.5894 137.343058 
L 136.2955 135.642769 
L 154.0016 134.78084 
L 171.7077 133.800445 
L 189.4138 135.125623 
L 207.1199 133.31899 
L 224.826 131.229817 
L 242.5321 129.900378 
L 260.2382 127.947696 
L 277.9443 126.316406 
L 295.6504 126.098823 
L 313.3565 126.525116 
L 331.0626 125.78863 
L 348.7687 126.697046 
L 366.4748 125.152722 
L 384.1809 123.829996 
L 401.887 123.565523 
L 419.5931 122.375965 
L 437.2992 122.169942 
L 455.0053 122.032286 
L 472.7114 119.171025 
L 490.4175 115.580822 
L 508.1236 113.936651 
L 525.8297 112.305637 
L 543.5358 112.494108 
L 561.2419 111.34211 
L 578.948 110.966332 
L 596.6541 111.34645 
L 614.3602 110.422477 
L 632.0663 111.099015 
L 649.7724 109.561345 
L 667.4785 107.900793 
L 685.1846 107.520938 
L 702.8907 108.344117 
L 720.5968 107.780352 
L 738.3029 108.028178 
L 756.009 106.377989 
L 773.7151 106.085273 
L 791.4212 103.613158 
L 809.1273 102.131057 
L 826.8334 102.882727 
L 844.5395 101.800285 
L 862.2456 102.68248 
L 879.9517 98.324542 
L 897.6578 98.444111 
L 915.3639 97.340013 
L 933.07 96.685517 
" clip-path="url(#p7cc72ee5a4)" style="fill: none; stroke: #17becf; stroke-width: 1.5; stroke-linecap: square"/>
   </g>
   <g id="line2d_23">
    <path d="M 47.765 143.475629 
L 65.4711 141.751286 
L 83.1772 137.086762 
L 100.8833 132.689617 
L 118.5894 131.199817 
L 136.2955 130.947639 
L 154.0016 126.717183 
L 171.7077 125.077739 
L 189.4138 125.732223 
L 207.1199 125.720275 
L 224.826 124.407319 
L 242.5321 124.95043 
L 260.2382 123.398403 
L 277.9443 121.679042 
L 295.6504 123.284954 
L 313.3565 122.624067 
L 331.0626 120.136756 
L 348.7687 119.438256 
L 366.4748 120.127303 
L 384.1809 118.936065 
L 401.887 117.765067 
L 419.5931 118.458679 
L 437.2992 116.974942 
L 455.0053 118.178634 
L 472.7114 116.399926 
L 490.4175 115.123514 
L 508.1236 113.305309 
L 525.8297 113.418837 
L 543.5358 112.286618 
L 561.2419 112.133362 
L 578.948 113.140833 
L 596.6541 111.281784 
L 614.3602 108.783685 
L 632.0663 108.39807 
L 649.7724 107.838243 
L 667.4785 106.16108 
L 685.1846 104.897053 
L 702.8907 105.589715 
L 720.5968 104.095247 
L 738.3029 105.305091 
L 756.009 106.952956 
L 773.7151 106.808448 
L 791.4212 103.222025 
L 809.1273 101.211513 
L 826.8334 99.121962 
L 844.5395 97.751782 
L 862.2456 98.67392 
L 879.9517 94.262248 
L 897.6578 94.610026 
L 915.3639 93.696994 
L 933.07 95.683786 
" clip-path="url(#p7cc72ee5a4)" style="fill: none; stroke: #9edae5; stroke-width: 1.5; stroke-linecap: square"/>
   </g>
   <g id="patch_3">
    <path d="M 47.765 606.04 
L 47.765 30.748 
" style="fill: none; stroke: #000000; stroke-width: 0.8; stroke-linejoin: miter; stroke-linecap: square"/>
   </g>
   <g id="patch_4">
    <path d="M 933.07 606.04 
L 933.07 30.748 
" style="fill: none; stroke: #000000; stroke-width: 0.8; stroke-linejoin: miter; stroke-linecap: square"/>
   </g>
   <g id="patch_5">
    <path d="M 47.765 606.04 
L 933.07 606.04 
" style="fill: none; stroke: #000000; stroke-width: 0.8; stroke-linejoin: miter; stroke-linecap: square"/>
   </g>
   <g id="patch_6">
    <path d="M 47.765 30.748 
L 933.07 30.748 
" style="fill: none; stroke: #000000; stroke-width: 0.8; stroke-linejoin: miter; stroke-linecap: square"/>
   </g>
   <g id="text_15">
    <!-- Aggregated NMF Cos Scores by Number of Baits for Each Method -->
    <g transform="translate(294.72375 24.748) scale(0.12 -0.12)">
     <defs>
      <path id="DejaVuSans-79" d="M 2059 -325 
Q 1816 -950 1584 -1140 
Q 1353 -1331 966 -1331 
L 506 -1331 
L 506 -850 
L 844 -850 
Q 1081 -850 1212 -737 
Q 1344 -625 1503 -206 
L 1606 56 
L 191 3500 
L 800 3500 
L 1894 763 
L 2988 3500 
L 3597 3500 
L 2059 -325 
z
" transform="scale(0.015625)"/>
      <path id="DejaVuSans-45" d="M 628 4666 
L 3578 4666 
L 3578 4134 
L 1259 4134 
L 1259 2753 
L 3481 2753 
L 3481 2222 
L 1259 2222 
L 1259 531 
L 3634 531 
L 3634 0 
L 628 0 
L 628 4666 
z
" transform="scale(0.015625)"/>
      <path id="DejaVuSans-68" d="M 3513 2113 
L 3513 0 
L 2938 0 
L 2938 2094 
Q 2938 2591 2744 2837 
Q 2550 3084 2163 3084 
Q 1697 3084 1428 2787 
Q 1159 2491 1159 1978 
L 1159 0 
L 581 0 
L 581 4863 
L 1159 4863 
L 1159 2956 
Q 1366 3272 1645 3428 
Q 1925 3584 2291 3584 
Q 2894 3584 3203 3211 
Q 3513 2838 3513 2113 
z
" transform="scale(0.015625)"/>
     </defs>
     <use xlink:href="#DejaVuSans-41"/>
     <use xlink:href="#DejaVuSans-67" x="68.408203"/>
     <use xlink:href="#DejaVuSans-67" x="131.884766"/>
     <use xlink:href="#DejaVuSans-72" x="195.361328"/>
     <use xlink:href="#DejaVuSans-65" x="234.224609"/>
     <use xlink:href="#DejaVuSans-67" x="295.748047"/>
     <use xlink:href="#DejaVuSans-61" x="359.224609"/>
     <use xlink:href="#DejaVuSans-74" x="420.503906"/>
     <use xlink:href="#DejaVuSans-65" x="459.712891"/>
     <use xlink:href="#DejaVuSans-64" x="521.236328"/>
     <use xlink:href="#DejaVuSans-20" x="584.712891"/>
     <use xlink:href="#DejaVuSans-4e" x="616.5"/>
     <use xlink:href="#DejaVuSans-4d" x="691.304688"/>
     <use xlink:href="#DejaVuSans-46" x="777.583984"/>
     <use xlink:href="#DejaVuSans-20" x="835.103516"/>
     <use xlink:href="#DejaVuSans-43" x="866.890625"/>
     <use xlink:href="#DejaVuSans-6f" x="936.714844"/>
     <use xlink:href="#DejaVuSans-73" x="997.896484"/>
     <use xlink:href="#DejaVuSans-20" x="1049.996094"/>
     <use xlink:href="#DejaVuSans-53" x="1081.783203"/>
     <use xlink:href="#DejaVuSans-63" x="1145.259766"/>
     <use xlink:href="#DejaVuSans-6f" x="1200.240234"/>
     <use xlink:href="#DejaVuSans-72" x="1261.421875"/>
     <use xlink:href="#DejaVuSans-65" x="1300.285156"/>
     <use xlink:href="#DejaVuSans-73" x="1361.808594"/>
     <use xlink:href="#DejaVuSans-20" x="1413.908203"/>
     <use xlink:href="#DejaVuSans-62" x="1445.695312"/>
     <use xlink:href="#DejaVuSans-79" x="1509.171875"/>
     <use xlink:href="#DejaVuSans-20" x="1568.351562"/>
     <use xlink:href="#DejaVuSans-4e" x="1600.138672"/>
     <use xlink:href="#DejaVuSans-75" x="1674.943359"/>
     <use xlink:href="#DejaVuSans-6d" x="1738.322266"/>
     <use xlink:href="#DejaVuSans-62" x="1835.734375"/>
     <use xlink:href="#DejaVuSans-65" x="1899.210938"/>
     <use xlink:href="#DejaVuSans-72" x="1960.734375"/>
     <use xlink:href="#DejaVuSans-20" x="2001.847656"/>
     <use xlink:href="#DejaVuSans-6f" x="2033.634766"/>
     <use xlink:href="#DejaVuSans-66" x="2094.816406"/>
     <use xlink:href="#DejaVuSans-20" x="2130.021484"/>
     <use xlink:href="#DejaVuSans-42" x="2161.808594"/>
     <use xlink:href="#DejaVuSans-61" x="2230.412109"/>
     <use xlink:href="#DejaVuSans-69" x="2291.691406"/>
     <use xlink:href="#DejaVuSans-74" x="2319.474609"/>
     <use xlink:href="#DejaVuSans-73" x="2358.683594"/>
     <use xlink:href="#DejaVuSans-20" x="2410.783203"/>
     <use xlink:href="#DejaVuSans-66" x="2442.570312"/>
     <use xlink:href="#DejaVuSans-6f" x="2477.775391"/>
     <use xlink:href="#DejaVuSans-72" x="2538.957031"/>
     <use xlink:href="#DejaVuSans-20" x="2580.070312"/>
     <use xlink:href="#DejaVuSans-45" x="2611.857422"/>
     <use xlink:href="#DejaVuSans-61" x="2675.041016"/>
     <use xlink:href="#DejaVuSans-63" x="2736.320312"/>
     <use xlink:href="#DejaVuSans-68" x="2791.300781"/>
     <use xlink:href="#DejaVuSans-20" x="2854.679688"/>
     <use xlink:href="#DejaVuSans-4d" x="2886.466797"/>
     <use xlink:href="#DejaVuSans-65" x="2972.746094"/>
     <use xlink:href="#DejaVuSans-74" x="3034.269531"/>
     <use xlink:href="#DejaVuSans-68" x="3073.478516"/>
     <use xlink:href="#DejaVuSans-6f" x="3136.857422"/>
     <use xlink:href="#DejaVuSans-64" x="3198.039062"/>
    </g>
   </g>
   <g id="legend_1">
    <g id="patch_7">
     <path d="M 940.07 172.555275 
L 1067.18875 172.555275 
Q 1069.18875 172.555275 1069.18875 170.555275 
L 1069.18875 8.9834 
Q 1069.18875 6.9834 1067.18875 6.9834 
L 940.07 6.9834 
Q 938.07 6.9834 938.07 8.9834 
L 938.07 170.555275 
Q 938.07 172.555275 940.07 172.555275 
z
" style="fill: #ffffff; opacity: 0.8; stroke: #cccccc; stroke-linejoin: miter"/>
    </g>
    <g id="line2d_24">
     <path d="M 942.07 15.081838 
L 952.07 15.081838 
L 962.07 15.081838 
" style="fill: none; stroke: #1f77b4; stroke-width: 1.5; stroke-linecap: square"/>
    </g>
    <g id="text_16">
     <!-- GA -->
     <g transform="translate(970.07 18.581838) scale(0.1 -0.1)">
      <defs>
       <path id="DejaVuSans-47" d="M 3809 666 
L 3809 1919 
L 2778 1919 
L 2778 2438 
L 4434 2438 
L 4434 434 
Q 4069 175 3628 42 
Q 3188 -91 2688 -91 
Q 1594 -91 976 548 
Q 359 1188 359 2328 
Q 359 3472 976 4111 
Q 1594 4750 2688 4750 
Q 3144 4750 3555 4637 
Q 3966 4525 4313 4306 
L 4313 3634 
Q 3963 3931 3569 4081 
Q 3175 4231 2741 4231 
Q 1884 4231 1454 3753 
Q 1025 3275 1025 2328 
Q 1025 1384 1454 906 
Q 1884 428 2741 428 
Q 3075 428 3337 486 
Q 3600 544 3809 666 
z
" transform="scale(0.015625)"/>
      </defs>
      <use xlink:href="#DejaVuSans-47"/>
      <use xlink:href="#DejaVuSans-41" x="77.490234"/>
     </g>
    </g>
    <g id="line2d_25">
     <path d="M 942.07 29.759963 
L 952.07 29.759963 
L 962.07 29.759963 
" style="fill: none; stroke: #ff7f0e; stroke-width: 1.5; stroke-linecap: square"/>
    </g>
    <g id="text_17">
     <!-- Random -->
     <g transform="translate(970.07 33.259963) scale(0.1 -0.1)">
      <defs>
       <path id="DejaVuSans-52" d="M 2841 2188 
Q 3044 2119 3236 1894 
Q 3428 1669 3622 1275 
L 4263 0 
L 3584 0 
L 2988 1197 
Q 2756 1666 2539 1819 
Q 2322 1972 1947 1972 
L 1259 1972 
L 1259 0 
L 628 0 
L 628 4666 
L 2053 4666 
Q 2853 4666 3247 4331 
Q 3641 3997 3641 3322 
Q 3641 2881 3436 2590 
Q 3231 2300 2841 2188 
z
M 1259 4147 
L 1259 2491 
L 2053 2491 
Q 2509 2491 2742 2702 
Q 2975 2913 2975 3322 
Q 2975 3731 2742 3939 
Q 2509 4147 2053 4147 
L 1259 4147 
z
" transform="scale(0.015625)"/>
       <path id="DejaVuSans-6e" d="M 3513 2113 
L 3513 0 
L 2938 0 
L 2938 2094 
Q 2938 2591 2744 2837 
Q 2550 3084 2163 3084 
Q 1697 3084 1428 2787 
Q 1159 2491 1159 1978 
L 1159 0 
L 581 0 
L 581 3500 
L 1159 3500 
L 1159 2956 
Q 1366 3272 1645 3428 
Q 1925 3584 2291 3584 
Q 2894 3584 3203 3211 
Q 3513 2838 3513 2113 
z
" transform="scale(0.015625)"/>
      </defs>
      <use xlink:href="#DejaVuSans-52"/>
      <use xlink:href="#DejaVuSans-61" x="67.232422"/>
      <use xlink:href="#DejaVuSans-6e" x="128.511719"/>
      <use xlink:href="#DejaVuSans-64" x="191.890625"/>
      <use xlink:href="#DejaVuSans-6f" x="255.367188"/>
      <use xlink:href="#DejaVuSans-6d" x="316.548828"/>
     </g>
    </g>
    <g id="line2d_26">
     <path d="M 942.07 44.438088 
L 952.07 44.438088 
L 962.07 44.438088 
" style="fill: none; stroke: #2ca02c; stroke-width: 1.5; stroke-linecap: square"/>
    </g>
    <g id="text_18">
     <!-- chi_2 -->
     <g transform="translate(970.07 47.938088) scale(0.1 -0.1)">
      <defs>
       <path id="DejaVuSans-5f" d="M 3263 -1063 
L 3263 -1509 
L -63 -1509 
L -63 -1063 
L 3263 -1063 
z
" transform="scale(0.015625)"/>
      </defs>
      <use xlink:href="#DejaVuSans-63"/>
      <use xlink:href="#DejaVuSans-68" x="54.980469"/>
      <use xlink:href="#DejaVuSans-69" x="118.359375"/>
      <use xlink:href="#DejaVuSans-5f" x="146.142578"/>
      <use xlink:href="#DejaVuSans-32" x="196.142578"/>
     </g>
    </g>
    <g id="line2d_27">
     <path d="M 942.07 59.394338 
L 952.07 59.394338 
L 962.07 59.394338 
" style="fill: none; stroke: #d62728; stroke-width: 1.5; stroke-linecap: square"/>
    </g>
    <g id="text_19">
     <!-- f_classif -->
     <g transform="translate(970.07 62.894338) scale(0.1 -0.1)">
      <defs>
       <path id="DejaVuSans-6c" d="M 603 4863 
L 1178 4863 
L 1178 0 
L 603 0 
L 603 4863 
z
" transform="scale(0.015625)"/>
      </defs>
      <use xlink:href="#DejaVuSans-66"/>
      <use xlink:href="#DejaVuSans-5f" x="35.205078"/>
      <use xlink:href="#DejaVuSans-63" x="85.205078"/>
      <use xlink:href="#DejaVuSans-6c" x="140.185547"/>
      <use xlink:href="#DejaVuSans-61" x="167.96875"/>
      <use xlink:href="#DejaVuSans-73" x="229.248047"/>
      <use xlink:href="#DejaVuSans-73" x="281.347656"/>
      <use xlink:href="#DejaVuSans-69" x="333.447266"/>
      <use xlink:href="#DejaVuSans-66" x="361.230469"/>
     </g>
    </g>
    <g id="line2d_28">
     <path d="M 942.07 74.350588 
L 952.07 74.350588 
L 962.07 74.350588 
" style="fill: none; stroke: #9467bd; stroke-width: 1.5; stroke-linecap: square"/>
    </g>
    <g id="text_20">
     <!-- mutual_info_classif -->
     <g transform="translate(970.07 77.850588) scale(0.1 -0.1)">
      <use xlink:href="#DejaVuSans-6d"/>
      <use xlink:href="#DejaVuSans-75" x="97.412109"/>
      <use xlink:href="#DejaVuSans-74" x="160.791016"/>
      <use xlink:href="#DejaVuSans-75" x="200"/>
      <use xlink:href="#DejaVuSans-61" x="263.378906"/>
      <use xlink:href="#DejaVuSans-6c" x="324.658203"/>
      <use xlink:href="#DejaVuSans-5f" x="352.441406"/>
      <use xlink:href="#DejaVuSans-69" x="402.441406"/>
      <use xlink:href="#DejaVuSans-6e" x="430.224609"/>
      <use xlink:href="#DejaVuSans-66" x="493.603516"/>
      <use xlink:href="#DejaVuSans-6f" x="528.808594"/>
      <use xlink:href="#DejaVuSans-5f" x="589.990234"/>
      <use xlink:href="#DejaVuSans-63" x="639.990234"/>
      <use xlink:href="#DejaVuSans-6c" x="694.970703"/>
      <use xlink:href="#DejaVuSans-61" x="722.753906"/>
      <use xlink:href="#DejaVuSans-73" x="784.033203"/>
      <use xlink:href="#DejaVuSans-73" x="836.132812"/>
      <use xlink:href="#DejaVuSans-69" x="888.232422"/>
      <use xlink:href="#DejaVuSans-66" x="916.015625"/>
     </g>
    </g>
    <g id="line2d_29">
     <path d="M 942.07 89.306838 
L 952.07 89.306838 
L 962.07 89.306838 
" style="fill: none; stroke: #8c564b; stroke-width: 1.5; stroke-linecap: square"/>
    </g>
    <g id="text_21">
     <!-- lasso -->
     <g transform="translate(970.07 92.806838) scale(0.1 -0.1)">
      <use xlink:href="#DejaVuSans-6c"/>
      <use xlink:href="#DejaVuSans-61" x="27.783203"/>
      <use xlink:href="#DejaVuSans-73" x="89.0625"/>
      <use xlink:href="#DejaVuSans-73" x="141.162109"/>
      <use xlink:href="#DejaVuSans-6f" x="193.261719"/>
     </g>
    </g>
    <g id="line2d_30">
     <path d="M 942.07 103.984963 
L 952.07 103.984963 
L 962.07 103.984963 
" style="fill: none; stroke: #e377c2; stroke-width: 1.5; stroke-linecap: square"/>
    </g>
    <g id="text_22">
     <!-- ridge -->
     <g transform="translate(970.07 107.484963) scale(0.1 -0.1)">
      <use xlink:href="#DejaVuSans-72"/>
      <use xlink:href="#DejaVuSans-69" x="41.113281"/>
      <use xlink:href="#DejaVuSans-64" x="68.896484"/>
      <use xlink:href="#DejaVuSans-67" x="132.373047"/>
      <use xlink:href="#DejaVuSans-65" x="195.849609"/>
     </g>
    </g>
    <g id="line2d_31">
     <path d="M 942.07 118.663088 
L 952.07 118.663088 
L 962.07 118.663088 
" style="fill: none; stroke: #7f7f7f; stroke-width: 1.5; stroke-linecap: square"/>
    </g>
    <g id="text_23">
     <!-- elastic_net -->
     <g transform="translate(970.07 122.163088) scale(0.1 -0.1)">
      <use xlink:href="#DejaVuSans-65"/>
      <use xlink:href="#DejaVuSans-6c" x="61.523438"/>
      <use xlink:href="#DejaVuSans-61" x="89.306641"/>
      <use xlink:href="#DejaVuSans-73" x="150.585938"/>
      <use xlink:href="#DejaVuSans-74" x="202.685547"/>
      <use xlink:href="#DejaVuSans-69" x="241.894531"/>
      <use xlink:href="#DejaVuSans-63" x="269.677734"/>
      <use xlink:href="#DejaVuSans-5f" x="324.658203"/>
      <use xlink:href="#DejaVuSans-6e" x="374.658203"/>
      <use xlink:href="#DejaVuSans-65" x="438.037109"/>
      <use xlink:href="#DejaVuSans-74" x="499.560547"/>
     </g>
    </g>
    <g id="line2d_32">
     <path d="M 942.07 133.619338 
L 952.07 133.619338 
L 962.07 133.619338 
" style="fill: none; stroke: #bcbd22; stroke-width: 1.5; stroke-linecap: square"/>
    </g>
    <g id="text_24">
     <!-- rf -->
     <g transform="translate(970.07 137.119338) scale(0.1 -0.1)">
      <use xlink:href="#DejaVuSans-72"/>
      <use xlink:href="#DejaVuSans-66" x="41.113281"/>
     </g>
    </g>
    <g id="line2d_33">
     <path d="M 942.07 148.297463 
L 952.07 148.297463 
L 962.07 148.297463 
" style="fill: none; stroke: #17becf; stroke-width: 1.5; stroke-linecap: square"/>
    </g>
    <g id="text_25">
     <!-- gbm -->
     <g transform="translate(970.07 151.797463) scale(0.1 -0.1)">
      <use xlink:href="#DejaVuSans-67"/>
      <use xlink:href="#DejaVuSans-62" x="63.476562"/>
      <use xlink:href="#DejaVuSans-6d" x="126.953125"/>
     </g>
    </g>
    <g id="line2d_34">
     <path d="M 942.07 162.975588 
L 952.07 162.975588 
L 962.07 162.975588 
" style="fill: none; stroke: #9edae5; stroke-width: 1.5; stroke-linecap: square"/>
    </g>
    <g id="text_26">
     <!-- xgb -->
     <g transform="translate(970.07 166.475588) scale(0.1 -0.1)">
      <defs>
       <path id="DejaVuSans-78" d="M 3513 3500 
L 2247 1797 
L 3578 0 
L 2900 0 
L 1881 1375 
L 863 0 
L 184 0 
L 1544 1831 
L 300 3500 
L 978 3500 
L 1906 2253 
L 2834 3500 
L 3513 3500 
z
" transform="scale(0.015625)"/>
      </defs>
      <use xlink:href="#DejaVuSans-78"/>
      <use xlink:href="#DejaVuSans-67" x="59.179688"/>
      <use xlink:href="#DejaVuSans-62" x="122.65625"/>
     </g>
    </g>
   </g>
  </g>
 </g>
 <defs>
  <clipPath id="p7cc72ee5a4">
   <rect x="47.765" y="30.748" width="885.305" height="575.292"/>
  </clipPath>
 </defs>
</svg>
