<?xml version="1.0" encoding="utf-8" standalone="no"?>
<!DOCTYPE svg PUBLIC "-//W3C//DTD SVG 1.1//EN"
  "http://www.w3.org/Graphics/SVG/1.1/DTD/svg11.dtd">
<svg xmlns:xlink="http://www.w3.org/1999/xlink" width="1080pt" height="648pt" viewBox="0 0 1080 648" xmlns="http://www.w3.org/2000/svg" version="1.1">
 <metadata>
  <rdf:RDF xmlns:dc="http://purl.org/dc/elements/1.1/" xmlns:cc="http://creativecommons.org/ns#" xmlns:rdf="http://www.w3.org/1999/02/22-rdf-syntax-ns#">
   <cc:Work>
    <dc:type rdf:resource="http://purl.org/dc/dcmitype/StillImage"/>
    <dc:date>2024-04-04T23:39:56.339104</dc:date>
    <dc:format>image/svg+xml</dc:format>
    <dc:creator>
     <cc:Agent>
      <dc:title>Matplotlib v3.7.2, https://matplotlib.org/</dc:title>
     </cc:Agent>
    </dc:creator>
   </cc:Work>
  </rdf:RDF>
 </metadata>
 <defs>
  <style type="text/css">*{stroke-linejoin: round; stroke-linecap: butt}</style>
 </defs>
 <g id="figure_1">
  <g id="patch_1">
   <path d="M 0 648 
L 1080 648 
L 1080 0 
L 0 0 
z
" style="fill: #ffffff"/>
  </g>
  <g id="axes_1">
   <g id="patch_2">
    <path d="M 47.765 606.04 
L 933.07 606.04 
L 933.07 30.748 
L 47.765 30.748 
z
" style="fill: #ffffff"/>
   </g>
   <g id="PolyCollection_1">
    <defs>
     <path id="m1d2ccf5382" d="M 47.765 -461.359075 
L 47.765 -430.144063 
L 65.4711 -445.479845 
L 83.1772 -436.67739 
L 100.8833 -441.935487 
L 118.5894 -453.393976 
L 136.2955 -459.373096 
L 154.0016 -452.015815 
L 171.7077 -459.859313 
L 189.4138 -458.339994 
L 207.1199 -462.990524 
L 224.826 -468.075774 
L 242.5321 -462.731027 
L 260.2382 -466.671737 
L 277.9443 -472.466843 
L 295.6504 -453.24722 
L 313.3565 -461.592269 
L 331.0626 -456.531188 
L 348.7687 -466.727173 
L 366.4748 -472.915602 
L 384.1809 -471.681649 
L 401.887 -469.687673 
L 419.5931 -469.241561 
L 437.2992 -467.12118 
L 455.0053 -471.013618 
L 472.7114 -477.573832 
L 490.4175 -468.472726 
L 508.1236 -472.37787 
L 525.8297 -475.134863 
L 543.5358 -480.221947 
L 561.2419 -473.921612 
L 578.948 -480.305101 
L 596.6541 -467.613439 
L 614.3602 -478.637985 
L 632.0663 -483.081937 
L 649.7724 -481.439736 
L 667.4785 -482.859214 
L 685.1846 -483.057155 
L 702.8907 -487.060493 
L 720.5968 -473.596061 
L 738.3029 -487.280432 
L 756.009 -473.084904 
L 773.7151 -489.104483 
L 791.4212 -490.572987 
L 809.1273 -490.629674 
L 826.8334 -486.296395 
L 844.5395 -487.153452 
L 862.2456 -485.026021 
L 879.9517 -483.666259 
L 897.6578 -497.641477 
L 915.3639 -494.191462 
L 933.07 -491.003126 
L 933.07 -509.47086 
L 933.07 -509.47086 
L 915.3639 -510.60025 
L 897.6578 -520.149573 
L 879.9517 -520.560835 
L 862.2456 -509.541141 
L 844.5395 -514.272469 
L 826.8334 -516.156293 
L 809.1273 -510.654882 
L 791.4212 -515.794722 
L 773.7151 -508.267198 
L 756.009 -503.551918 
L 738.3029 -500.841258 
L 720.5968 -500.33744 
L 702.8907 -506.4467 
L 685.1846 -508.777012 
L 667.4785 -497.999388 
L 649.7724 -509.365897 
L 632.0663 -505.933255 
L 614.3602 -504.529946 
L 596.6541 -499.681897 
L 578.948 -497.203232 
L 561.2419 -501.640772 
L 543.5358 -497.483608 
L 525.8297 -497.049538 
L 508.1236 -493.094265 
L 490.4175 -493.827371 
L 472.7114 -495.336284 
L 455.0053 -490.639503 
L 437.2992 -491.630733 
L 419.5931 -489.504684 
L 401.887 -487.954919 
L 384.1809 -492.744052 
L 366.4748 -493.029819 
L 348.7687 -488.521824 
L 331.0626 -493.596301 
L 313.3565 -495.771824 
L 295.6504 -483.676695 
L 277.9443 -495.50586 
L 260.2382 -489.429741 
L 242.5321 -486.436293 
L 224.826 -488.752489 
L 207.1199 -488.970699 
L 189.4138 -476.839806 
L 171.7077 -481.968273 
L 154.0016 -483.813353 
L 136.2955 -474.94497 
L 118.5894 -481.683063 
L 100.8833 -471.137183 
L 83.1772 -469.523199 
L 65.4711 -474.493304 
L 47.765 -461.359075 
z
" style="stroke: #1f77b4; stroke-opacity: 0.2"/>
    </defs>
    <g clip-path="url(#pfd6b2d0fbd)">
     <use xlink:href="#m1d2ccf5382" x="0" y="648" style="fill: #1f77b4; fill-opacity: 0.2; stroke: #1f77b4; stroke-opacity: 0.2"/>
    </g>
   </g>
   <g id="PolyCollection_2">
    <defs>
     <path id="m1b2445fe6e" d="M 47.765 -316.345657 
L 47.765 -240.878891 
L 65.4711 -252.462715 
L 83.1772 -245.145753 
L 100.8833 -258.083003 
L 118.5894 -244.102522 
L 136.2955 -252.897567 
L 154.0016 -286.630172 
L 171.7077 -282.393308 
L 189.4138 -268.992464 
L 207.1199 -273.482824 
L 224.826 -261.009504 
L 242.5321 -257.391681 
L 260.2382 -267.256501 
L 277.9443 -264.025484 
L 295.6504 -280.404656 
L 313.3565 -281.837807 
L 331.0626 -256.202616 
L 348.7687 -286.59933 
L 366.4748 -275.029062 
L 384.1809 -271.507303 
L 401.887 -287.312952 
L 419.5931 -284.422959 
L 437.2992 -271.631497 
L 455.0053 -276.34057 
L 472.7114 -277.057488 
L 490.4175 -282.694174 
L 508.1236 -289.412851 
L 525.8297 -279.525455 
L 543.5358 -288.087403 
L 561.2419 -286.281667 
L 578.948 -303.335177 
L 596.6541 -282.726501 
L 614.3602 -287.981074 
L 632.0663 -295.459783 
L 649.7724 -301.33855 
L 667.4785 -294.733831 
L 685.1846 -292.896393 
L 702.8907 -297.768037 
L 720.5968 -308.597693 
L 738.3029 -311.704777 
L 756.009 -298.415768 
L 773.7151 -292.329845 
L 791.4212 -303.120288 
L 809.1273 -316.065645 
L 826.8334 -320.13067 
L 844.5395 -319.235712 
L 862.2456 -327.286788 
L 879.9517 -286.851729 
L 897.6578 -312.638676 
L 915.3639 -318.967714 
L 933.07 -310.061092 
L 933.07 -380.526158 
L 933.07 -380.526158 
L 915.3639 -367.081718 
L 897.6578 -358.614213 
L 879.9517 -328.901313 
L 862.2456 -361.563287 
L 844.5395 -358.329321 
L 826.8334 -352.537768 
L 809.1273 -360.61201 
L 791.4212 -341.947511 
L 773.7151 -348.744208 
L 756.009 -367.366555 
L 738.3029 -341.27303 
L 720.5968 -350.825053 
L 702.8907 -367.485351 
L 685.1846 -352.749837 
L 667.4785 -339.163126 
L 649.7724 -354.46675 
L 632.0663 -337.240663 
L 614.3602 -343.488801 
L 596.6541 -319.853998 
L 578.948 -356.010427 
L 561.2419 -325.805183 
L 543.5358 -335.489354 
L 525.8297 -330.0646 
L 508.1236 -354.688244 
L 490.4175 -335.451013 
L 472.7114 -341.758016 
L 455.0053 -326.195104 
L 437.2992 -310.250882 
L 419.5931 -326.359651 
L 401.887 -306.478487 
L 384.1809 -319.339659 
L 366.4748 -316.826186 
L 348.7687 -339.48474 
L 331.0626 -335.156594 
L 313.3565 -325.260299 
L 295.6504 -342.29425 
L 277.9443 -326.544651 
L 260.2382 -331.369312 
L 242.5321 -329.576996 
L 224.826 -321.065121 
L 207.1199 -325.362574 
L 189.4138 -323.364311 
L 171.7077 -326.973464 
L 154.0016 -360.225637 
L 136.2955 -306.12583 
L 118.5894 -302.190609 
L 100.8833 -307.189566 
L 83.1772 -302.721513 
L 65.4711 -330.743963 
L 47.765 -316.345657 
z
" style="stroke: #ff7f0e; stroke-opacity: 0.2"/>
    </defs>
    <g clip-path="url(#pfd6b2d0fbd)">
     <use xlink:href="#m1b2445fe6e" x="0" y="648" style="fill: #ff7f0e; fill-opacity: 0.2; stroke: #ff7f0e; stroke-opacity: 0.2"/>
    </g>
   </g>
   <g id="PolyCollection_3">
    <defs>
     <path id="m3bd380e2b1" d="M 47.765 -425.882075 
L 47.765 -397.536349 
L 65.4711 -396.461239 
L 83.1772 -391.925655 
L 100.8833 -397.542029 
L 118.5894 -402.219892 
L 136.2955 -407.332341 
L 154.0016 -408.106788 
L 171.7077 -409.40346 
L 189.4138 -412.321979 
L 207.1199 -420.772713 
L 224.826 -415.075554 
L 242.5321 -419.761054 
L 260.2382 -417.617365 
L 277.9443 -429.137119 
L 295.6504 -425.248295 
L 313.3565 -424.417485 
L 331.0626 -424.320032 
L 348.7687 -426.855136 
L 366.4748 -434.966558 
L 384.1809 -421.304442 
L 401.887 -435.929885 
L 419.5931 -437.637716 
L 437.2992 -441.163612 
L 455.0053 -448.206534 
L 472.7114 -449.489343 
L 490.4175 -447.911591 
L 508.1236 -453.796291 
L 525.8297 -450.463904 
L 543.5358 -446.342029 
L 561.2419 -454.758723 
L 578.948 -450.009337 
L 596.6541 -455.84192 
L 614.3602 -459.607941 
L 632.0663 -457.26214 
L 649.7724 -461.454308 
L 667.4785 -460.551711 
L 685.1846 -462.630383 
L 702.8907 -461.764029 
L 720.5968 -460.26049 
L 738.3029 -453.934741 
L 756.009 -474.26363 
L 773.7151 -474.488784 
L 791.4212 -474.175022 
L 809.1273 -473.076305 
L 826.8334 -472.53755 
L 844.5395 -474.326146 
L 862.2456 -478.170811 
L 879.9517 -476.341407 
L 897.6578 -486.113371 
L 915.3639 -482.581671 
L 933.07 -475.167715 
L 933.07 -499.916598 
L 933.07 -499.916598 
L 915.3639 -500.275534 
L 897.6578 -501.961389 
L 879.9517 -499.061532 
L 862.2456 -492.382317 
L 844.5395 -494.997443 
L 826.8334 -492.242883 
L 809.1273 -487.60937 
L 791.4212 -490.449827 
L 773.7151 -491.605922 
L 756.009 -492.751852 
L 738.3029 -494.791631 
L 720.5968 -493.246607 
L 702.8907 -494.423122 
L 685.1846 -489.744425 
L 667.4785 -487.023569 
L 649.7724 -486.247497 
L 632.0663 -478.863185 
L 614.3602 -485.122043 
L 596.6541 -486.351055 
L 578.948 -478.908332 
L 561.2419 -478.991506 
L 543.5358 -478.213802 
L 525.8297 -471.158653 
L 508.1236 -471.564416 
L 490.4175 -471.964133 
L 472.7114 -473.296021 
L 455.0053 -472.30202 
L 437.2992 -475.278497 
L 419.5931 -468.043784 
L 401.887 -465.148608 
L 384.1809 -455.824615 
L 366.4748 -448.301885 
L 348.7687 -466.137654 
L 331.0626 -458.916111 
L 313.3565 -455.933427 
L 295.6504 -445.592425 
L 277.9443 -445.726654 
L 260.2382 -446.380429 
L 242.5321 -443.830293 
L 224.826 -443.800472 
L 207.1199 -442.226799 
L 189.4138 -435.385906 
L 171.7077 -436.657927 
L 154.0016 -437.655013 
L 136.2955 -435.002365 
L 118.5894 -429.278128 
L 100.8833 -431.2624 
L 83.1772 -429.550259 
L 65.4711 -426.446068 
L 47.765 -425.882075 
z
" style="stroke: #2ca02c; stroke-opacity: 0.2"/>
    </defs>
    <g clip-path="url(#pfd6b2d0fbd)">
     <use xlink:href="#m3bd380e2b1" x="0" y="648" style="fill: #2ca02c; fill-opacity: 0.2; stroke: #2ca02c; stroke-opacity: 0.2"/>
    </g>
   </g>
   <g id="PolyCollection_4">
    <defs>
     <path id="m60c9eaa293" d="M 47.765 -430.911303 
L 47.765 -384.534353 
L 65.4711 -389.087567 
L 83.1772 -392.027006 
L 100.8833 -391.941241 
L 118.5894 -394.246567 
L 136.2955 -395.618179 
L 154.0016 -398.282042 
L 171.7077 -405.900043 
L 189.4138 -401.480909 
L 207.1199 -402.980028 
L 224.826 -407.112775 
L 242.5321 -407.62677 
L 260.2382 -397.957728 
L 277.9443 -402.828095 
L 295.6504 -414.588477 
L 313.3565 -420.024729 
L 331.0626 -414.182233 
L 348.7687 -428.686484 
L 366.4748 -426.816369 
L 384.1809 -426.990117 
L 401.887 -423.818565 
L 419.5931 -432.968434 
L 437.2992 -441.188356 
L 455.0053 -440.273255 
L 472.7114 -440.491854 
L 490.4175 -442.825325 
L 508.1236 -445.202034 
L 525.8297 -451.870086 
L 543.5358 -451.516636 
L 561.2419 -447.644459 
L 578.948 -448.537438 
L 596.6541 -447.98917 
L 614.3602 -439.737841 
L 632.0663 -441.256734 
L 649.7724 -450.155342 
L 667.4785 -449.779519 
L 685.1846 -459.391802 
L 702.8907 -459.624157 
L 720.5968 -453.96514 
L 738.3029 -461.876458 
L 756.009 -462.694099 
L 773.7151 -467.245743 
L 791.4212 -458.465784 
L 809.1273 -458.831158 
L 826.8334 -459.213677 
L 844.5395 -471.391897 
L 862.2456 -469.749724 
L 879.9517 -479.818828 
L 897.6578 -486.025175 
L 915.3639 -486.675039 
L 933.07 -491.507785 
L 933.07 -502.441327 
L 933.07 -502.441327 
L 915.3639 -502.355104 
L 897.6578 -502.12123 
L 879.9517 -501.729092 
L 862.2456 -495.222611 
L 844.5395 -496.570513 
L 826.8334 -490.888914 
L 809.1273 -487.901104 
L 791.4212 -490.319922 
L 773.7151 -481.514708 
L 756.009 -480.81389 
L 738.3029 -476.906317 
L 720.5968 -476.96011 
L 702.8907 -474.509449 
L 685.1846 -473.385786 
L 667.4785 -472.170695 
L 649.7724 -471.212469 
L 632.0663 -471.864435 
L 614.3602 -472.707527 
L 596.6541 -468.926013 
L 578.948 -467.877958 
L 561.2419 -471.816754 
L 543.5358 -474.768964 
L 525.8297 -470.187828 
L 508.1236 -467.045484 
L 490.4175 -464.654658 
L 472.7114 -465.455288 
L 455.0053 -467.043888 
L 437.2992 -467.814593 
L 419.5931 -470.763895 
L 401.887 -470.573539 
L 384.1809 -473.366963 
L 366.4748 -474.364234 
L 348.7687 -474.622601 
L 331.0626 -475.473265 
L 313.3565 -473.301794 
L 295.6504 -472.695549 
L 277.9443 -452.541905 
L 260.2382 -455.209375 
L 242.5321 -454.691428 
L 224.826 -450.150066 
L 207.1199 -444.992701 
L 189.4138 -441.562594 
L 171.7077 -443.04904 
L 154.0016 -433.884415 
L 136.2955 -430.096977 
L 118.5894 -431.623399 
L 100.8833 -434.556682 
L 83.1772 -435.999525 
L 65.4711 -430.976654 
L 47.765 -430.911303 
z
" style="stroke: #d62728; stroke-opacity: 0.2"/>
    </defs>
    <g clip-path="url(#pfd6b2d0fbd)">
     <use xlink:href="#m60c9eaa293" x="0" y="648" style="fill: #d62728; fill-opacity: 0.2; stroke: #d62728; stroke-opacity: 0.2"/>
    </g>
   </g>
   <g id="PolyCollection_5">
    <defs>
     <path id="mddcae8e9bc" d="M 47.765 -405.627566 
L 47.765 -363.782131 
L 65.4711 -360.539616 
L 83.1772 -365.550791 
L 100.8833 -375.013041 
L 118.5894 -365.782581 
L 136.2955 -378.738096 
L 154.0016 -370.453055 
L 171.7077 -364.659758 
L 189.4138 -368.23964 
L 207.1199 -379.769707 
L 224.826 -377.209443 
L 242.5321 -387.376383 
L 260.2382 -389.545473 
L 277.9443 -392.589008 
L 295.6504 -391.074458 
L 313.3565 -388.799175 
L 331.0626 -401.265983 
L 348.7687 -407.414315 
L 366.4748 -410.870559 
L 384.1809 -407.847952 
L 401.887 -399.862307 
L 419.5931 -402.809512 
L 437.2992 -411.5449 
L 455.0053 -428.744432 
L 472.7114 -430.351001 
L 490.4175 -419.065915 
L 508.1236 -422.568772 
L 525.8297 -425.481128 
L 543.5358 -424.390918 
L 561.2419 -423.842081 
L 578.948 -426.45757 
L 596.6541 -421.11006 
L 614.3602 -421.485213 
L 632.0663 -421.032598 
L 649.7724 -423.03309 
L 667.4785 -421.799887 
L 685.1846 -431.667836 
L 702.8907 -429.152447 
L 720.5968 -429.3172 
L 738.3029 -431.316032 
L 756.009 -435.486761 
L 773.7151 -444.466035 
L 791.4212 -447.287349 
L 809.1273 -447.651068 
L 826.8334 -455.4217 
L 844.5395 -458.347199 
L 862.2456 -459.178652 
L 879.9517 -466.623938 
L 897.6578 -467.372831 
L 915.3639 -466.98269 
L 933.07 -465.954954 
L 933.07 -489.98344 
L 933.07 -489.98344 
L 915.3639 -491.149129 
L 897.6578 -489.673537 
L 879.9517 -490.861063 
L 862.2456 -486.827632 
L 844.5395 -485.328603 
L 826.8334 -484.32546 
L 809.1273 -485.23301 
L 791.4212 -478.85266 
L 773.7151 -477.794248 
L 756.009 -486.025811 
L 738.3029 -484.317163 
L 720.5968 -483.082776 
L 702.8907 -477.357576 
L 685.1846 -468.229828 
L 667.4785 -461.975049 
L 649.7724 -462.033332 
L 632.0663 -458.337979 
L 614.3602 -458.89121 
L 596.6541 -453.288402 
L 578.948 -451.723024 
L 561.2419 -449.264009 
L 543.5358 -447.11297 
L 525.8297 -449.660729 
L 508.1236 -446.212404 
L 490.4175 -447.743956 
L 472.7114 -449.382225 
L 455.0053 -447.326802 
L 437.2992 -443.866292 
L 419.5931 -439.907077 
L 401.887 -437.549474 
L 384.1809 -439.448605 
L 366.4748 -437.422185 
L 348.7687 -436.227176 
L 331.0626 -425.921482 
L 313.3565 -420.109971 
L 295.6504 -420.171587 
L 277.9443 -416.407653 
L 260.2382 -419.700176 
L 242.5321 -418.206214 
L 224.826 -418.819368 
L 207.1199 -424.617032 
L 189.4138 -413.987583 
L 171.7077 -418.715999 
L 154.0016 -421.600755 
L 136.2955 -417.764112 
L 118.5894 -407.82683 
L 100.8833 -404.232293 
L 83.1772 -405.730023 
L 65.4711 -397.834555 
L 47.765 -405.627566 
z
" style="stroke: #9467bd; stroke-opacity: 0.2"/>
    </defs>
    <g clip-path="url(#pfd6b2d0fbd)">
     <use xlink:href="#mddcae8e9bc" x="0" y="648" style="fill: #9467bd; fill-opacity: 0.2; stroke: #9467bd; stroke-opacity: 0.2"/>
    </g>
   </g>
   <g id="PolyCollection_6">
    <defs>
     <path id="maed2e308a3" d="M 47.765 -415.277341 
L 47.765 -389.799178 
L 65.4711 -397.14515 
L 83.1772 -397.355061 
L 100.8833 -402.480909 
L 118.5894 -416.270183 
L 136.2955 -411.933464 
L 154.0016 -411.095285 
L 171.7077 -410.228129 
L 189.4138 -414.631151 
L 207.1199 -410.792413 
L 224.826 -411.48173 
L 242.5321 -406.979161 
L 260.2382 -405.972714 
L 277.9443 -410.828993 
L 295.6504 -414.055426 
L 313.3565 -413.817912 
L 331.0626 -421.456168 
L 348.7687 -420.383522 
L 366.4748 -422.542361 
L 384.1809 -419.326761 
L 401.887 -422.620616 
L 419.5931 -422.661595 
L 437.2992 -423.46286 
L 455.0053 -423.668212 
L 472.7114 -422.747574 
L 490.4175 -425.639876 
L 508.1236 -424.046236 
L 525.8297 -421.989061 
L 543.5358 -421.563952 
L 561.2419 -422.441815 
L 578.948 -423.120847 
L 596.6541 -419.068684 
L 614.3602 -415.035308 
L 632.0663 -411.798141 
L 649.7724 -409.75915 
L 667.4785 -409.907441 
L 685.1846 -406.229698 
L 702.8907 -409.124214 
L 720.5968 -407.227771 
L 738.3029 -401.186884 
L 756.009 -398.871327 
L 773.7151 -398.854274 
L 791.4212 -397.04359 
L 809.1273 -394.770307 
L 826.8334 -397.815544 
L 844.5395 -397.121094 
L 862.2456 -404.818446 
L 879.9517 -401.378986 
L 897.6578 -397.927534 
L 915.3639 -401.013341 
L 933.07 -391.87027 
L 933.07 -447.011934 
L 933.07 -447.011934 
L 915.3639 -446.916443 
L 897.6578 -447.624414 
L 879.9517 -446.448283 
L 862.2456 -451.426696 
L 844.5395 -448.891411 
L 826.8334 -441.814685 
L 809.1273 -443.074128 
L 791.4212 -442.755104 
L 773.7151 -445.537644 
L 756.009 -443.629105 
L 738.3029 -445.230334 
L 720.5968 -454.460568 
L 702.8907 -443.592885 
L 685.1846 -442.419861 
L 667.4785 -445.519091 
L 649.7724 -446.432879 
L 632.0663 -447.331159 
L 614.3602 -442.544303 
L 596.6541 -445.907893 
L 578.948 -444.567936 
L 561.2419 -449.554928 
L 543.5358 -443.887355 
L 525.8297 -451.155726 
L 508.1236 -457.027179 
L 490.4175 -455.743035 
L 472.7114 -451.74756 
L 455.0053 -452.409162 
L 437.2992 -452.384884 
L 419.5931 -445.869974 
L 401.887 -439.271638 
L 384.1809 -439.574108 
L 366.4748 -439.937516 
L 348.7687 -441.322386 
L 331.0626 -444.80256 
L 313.3565 -440.567321 
L 295.6504 -439.951618 
L 277.9443 -440.563453 
L 260.2382 -441.580034 
L 242.5321 -435.448057 
L 224.826 -434.127451 
L 207.1199 -433.32614 
L 189.4138 -431.026591 
L 171.7077 -433.839112 
L 154.0016 -432.351043 
L 136.2955 -429.617645 
L 118.5894 -428.249764 
L 100.8833 -425.852942 
L 83.1772 -425.03861 
L 65.4711 -423.095121 
L 47.765 -415.277341 
z
" style="stroke: #8c564b; stroke-opacity: 0.2"/>
    </defs>
    <g clip-path="url(#pfd6b2d0fbd)">
     <use xlink:href="#maed2e308a3" x="0" y="648" style="fill: #8c564b; fill-opacity: 0.2; stroke: #8c564b; stroke-opacity: 0.2"/>
    </g>
   </g>
   <g id="PolyCollection_7">
    <defs>
     <path id="m62df2900c6" d="M 47.765 -407.272398 
L 47.765 -388.194821 
L 65.4711 -394.379596 
L 83.1772 -397.455959 
L 100.8833 -402.548966 
L 118.5894 -402.630485 
L 136.2955 -399.934262 
L 154.0016 -402.345055 
L 171.7077 -400.363331 
L 189.4138 -396.873448 
L 207.1199 -388.587254 
L 224.826 -396.891841 
L 242.5321 -398.010309 
L 260.2382 -389.504022 
L 277.9443 -391.650087 
L 295.6504 -397.298863 
L 313.3565 -398.318128 
L 331.0626 -396.090601 
L 348.7687 -396.274747 
L 366.4748 -393.46794 
L 384.1809 -394.932065 
L 401.887 -389.523942 
L 419.5931 -387.289332 
L 437.2992 -387.770306 
L 455.0053 -390.012165 
L 472.7114 -394.075028 
L 490.4175 -404.20522 
L 508.1236 -409.607733 
L 525.8297 -398.521027 
L 543.5358 -394.721421 
L 561.2419 -402.008437 
L 578.948 -403.909256 
L 596.6541 -407.833825 
L 614.3602 -410.541191 
L 632.0663 -413.353482 
L 649.7724 -397.705422 
L 667.4785 -396.71915 
L 685.1846 -394.900889 
L 702.8907 -396.185905 
L 720.5968 -388.116675 
L 738.3029 -393.84678 
L 756.009 -378.991837 
L 773.7151 -373.404546 
L 791.4212 -379.192664 
L 809.1273 -377.338811 
L 826.8334 -379.403212 
L 844.5395 -387.113323 
L 862.2456 -392.440874 
L 879.9517 -392.713473 
L 897.6578 -388.154865 
L 915.3639 -386.548902 
L 933.07 -385.230309 
L 933.07 -427.374059 
L 933.07 -427.374059 
L 915.3639 -419.681215 
L 897.6578 -425.342945 
L 879.9517 -428.032198 
L 862.2456 -428.030504 
L 844.5395 -427.285972 
L 826.8334 -420.70347 
L 809.1273 -416.703625 
L 791.4212 -415.327919 
L 773.7151 -421.455349 
L 756.009 -422.318631 
L 738.3029 -440.048416 
L 720.5968 -439.401593 
L 702.8907 -434.307749 
L 685.1846 -437.249499 
L 667.4785 -442.096845 
L 649.7724 -438.164825 
L 632.0663 -442.212917 
L 614.3602 -447.922666 
L 596.6541 -443.825162 
L 578.948 -446.64326 
L 561.2419 -442.585202 
L 543.5358 -424.246698 
L 525.8297 -421.850519 
L 508.1236 -423.328686 
L 490.4175 -425.7039 
L 472.7114 -428.234295 
L 455.0053 -428.097861 
L 437.2992 -421.912848 
L 419.5931 -424.451768 
L 401.887 -417.735351 
L 384.1809 -415.206207 
L 366.4748 -415.72274 
L 348.7687 -413.491931 
L 331.0626 -415.16465 
L 313.3565 -421.237005 
L 295.6504 -421.522969 
L 277.9443 -417.634606 
L 260.2382 -421.720292 
L 242.5321 -421.720451 
L 224.826 -414.727703 
L 207.1199 -414.396579 
L 189.4138 -417.001897 
L 171.7077 -416.131444 
L 154.0016 -417.302169 
L 136.2955 -418.424348 
L 118.5894 -417.437652 
L 100.8833 -417.724298 
L 83.1772 -415.587324 
L 65.4711 -410.395693 
L 47.765 -407.272398 
z
" style="stroke: #e377c2; stroke-opacity: 0.2"/>
    </defs>
    <g clip-path="url(#pfd6b2d0fbd)">
     <use xlink:href="#m62df2900c6" x="0" y="648" style="fill: #e377c2; fill-opacity: 0.2; stroke: #e377c2; stroke-opacity: 0.2"/>
    </g>
   </g>
   <g id="PolyCollection_8">
    <defs>
     <path id="m619402f619" d="M 47.765 -411.705274 
L 47.765 -390.784944 
L 65.4711 -394.38528 
L 83.1772 -395.763312 
L 100.8833 -408.967815 
L 118.5894 -412.083729 
L 136.2955 -412.048509 
L 154.0016 -405.271986 
L 171.7077 -406.487443 
L 189.4138 -411.848407 
L 207.1199 -408.239275 
L 224.826 -412.425714 
L 242.5321 -411.799048 
L 260.2382 -409.124992 
L 277.9443 -407.033829 
L 295.6504 -410.219087 
L 313.3565 -408.380317 
L 331.0626 -413.138787 
L 348.7687 -406.301783 
L 366.4748 -413.380144 
L 384.1809 -414.901697 
L 401.887 -417.844561 
L 419.5931 -417.180738 
L 437.2992 -417.190831 
L 455.0053 -417.053538 
L 472.7114 -419.17026 
L 490.4175 -418.339548 
L 508.1236 -419.523586 
L 525.8297 -417.884466 
L 543.5358 -413.231635 
L 561.2419 -417.37627 
L 578.948 -424.963791 
L 596.6541 -419.599365 
L 614.3602 -407.154797 
L 632.0663 -418.641374 
L 649.7724 -412.372363 
L 667.4785 -412.681657 
L 685.1846 -411.088264 
L 702.8907 -410.855697 
L 720.5968 -409.555175 
L 738.3029 -411.089035 
L 756.009 -409.141692 
L 773.7151 -408.154167 
L 791.4212 -411.027677 
L 809.1273 -407.783784 
L 826.8334 -407.673465 
L 844.5395 -413.99502 
L 862.2456 -410.739979 
L 879.9517 -410.349056 
L 897.6578 -403.321574 
L 915.3639 -404.95406 
L 933.07 -405.909625 
L 933.07 -442.817422 
L 933.07 -442.817422 
L 915.3639 -444.615575 
L 897.6578 -451.218554 
L 879.9517 -452.210657 
L 862.2456 -453.849661 
L 844.5395 -452.03254 
L 826.8334 -452.950259 
L 809.1273 -453.150823 
L 791.4212 -455.646979 
L 773.7151 -449.846661 
L 756.009 -446.889926 
L 738.3029 -440.186854 
L 720.5968 -439.779465 
L 702.8907 -436.963445 
L 685.1846 -449.667572 
L 667.4785 -449.571431 
L 649.7724 -448.140847 
L 632.0663 -450.355292 
L 614.3602 -453.78464 
L 596.6541 -454.538775 
L 578.948 -460.284541 
L 561.2419 -451.047316 
L 543.5358 -448.895762 
L 525.8297 -455.430113 
L 508.1236 -461.026522 
L 490.4175 -459.413786 
L 472.7114 -456.13403 
L 455.0053 -445.511626 
L 437.2992 -446.715797 
L 419.5931 -448.094368 
L 401.887 -445.542771 
L 384.1809 -442.364754 
L 366.4748 -435.783126 
L 348.7687 -436.26937 
L 331.0626 -440.700592 
L 313.3565 -434.921217 
L 295.6504 -431.44506 
L 277.9443 -432.357398 
L 260.2382 -431.392054 
L 242.5321 -431.000702 
L 224.826 -430.537233 
L 207.1199 -427.401808 
L 189.4138 -427.704714 
L 171.7077 -423.892068 
L 154.0016 -425.037021 
L 136.2955 -421.629327 
L 118.5894 -422.496178 
L 100.8833 -420.395343 
L 83.1772 -423.012508 
L 65.4711 -423.208367 
L 47.765 -411.705274 
z
" style="stroke: #7f7f7f; stroke-opacity: 0.2"/>
    </defs>
    <g clip-path="url(#pfd6b2d0fbd)">
     <use xlink:href="#m619402f619" x="0" y="648" style="fill: #7f7f7f; fill-opacity: 0.2; stroke: #7f7f7f; stroke-opacity: 0.2"/>
    </g>
   </g>
   <g id="PolyCollection_9">
    <defs>
     <path id="mdb65014d39" d="M 47.765 -428.903983 
L 47.765 -406.884492 
L 65.4711 -412.629039 
L 83.1772 -413.602341 
L 100.8833 -417.598821 
L 118.5894 -419.120134 
L 136.2955 -425.349135 
L 154.0016 -426.306053 
L 171.7077 -425.246427 
L 189.4138 -423.235389 
L 207.1199 -428.508247 
L 224.826 -427.17658 
L 242.5321 -425.027262 
L 260.2382 -432.851077 
L 277.9443 -431.109147 
L 295.6504 -427.23463 
L 313.3565 -425.082323 
L 331.0626 -423.099924 
L 348.7687 -417.372069 
L 366.4748 -423.953305 
L 384.1809 -420.370702 
L 401.887 -415.786508 
L 419.5931 -417.611569 
L 437.2992 -412.815616 
L 455.0053 -419.264841 
L 472.7114 -430.688301 
L 490.4175 -430.828982 
L 508.1236 -438.672284 
L 525.8297 -410.746268 
L 543.5358 -437.115827 
L 561.2419 -429.23237 
L 578.948 -421.718508 
L 596.6541 -426.050165 
L 614.3602 -423.000685 
L 632.0663 -428.111986 
L 649.7724 -429.536934 
L 667.4785 -433.270116 
L 685.1846 -439.061085 
L 702.8907 -437.197047 
L 720.5968 -431.452884 
L 738.3029 -430.840003 
L 756.009 -431.03064 
L 773.7151 -430.418109 
L 791.4212 -423.982689 
L 809.1273 -430.346971 
L 826.8334 -424.165959 
L 844.5395 -422.198678 
L 862.2456 -424.449751 
L 879.9517 -424.473253 
L 897.6578 -415.75983 
L 915.3639 -416.015444 
L 933.07 -416.184405 
L 933.07 -456.253266 
L 933.07 -456.253266 
L 915.3639 -454.800904 
L 897.6578 -455.087455 
L 879.9517 -462.483478 
L 862.2456 -458.014232 
L 844.5395 -448.864289 
L 826.8334 -459.150221 
L 809.1273 -458.251533 
L 791.4212 -452.291674 
L 773.7151 -453.39043 
L 756.009 -453.759865 
L 738.3029 -450.236265 
L 720.5968 -451.94254 
L 702.8907 -451.472552 
L 685.1846 -456.369668 
L 667.4785 -460.42758 
L 649.7724 -461.594652 
L 632.0663 -457.223832 
L 614.3602 -457.527388 
L 596.6541 -457.983465 
L 578.948 -453.816521 
L 561.2419 -459.966276 
L 543.5358 -462.282732 
L 525.8297 -464.918671 
L 508.1236 -460.923355 
L 490.4175 -458.601196 
L 472.7114 -461.6398 
L 455.0053 -450.636643 
L 437.2992 -451.50277 
L 419.5931 -457.800889 
L 401.887 -447.792638 
L 384.1809 -445.855381 
L 366.4748 -442.237834 
L 348.7687 -443.742853 
L 331.0626 -447.563945 
L 313.3565 -446.87228 
L 295.6504 -445.945641 
L 277.9443 -441.404923 
L 260.2382 -441.39428 
L 242.5321 -443.785257 
L 224.826 -443.56873 
L 207.1199 -443.909911 
L 189.4138 -436.359954 
L 171.7077 -436.943692 
L 154.0016 -438.571161 
L 136.2955 -440.053894 
L 118.5894 -433.101309 
L 100.8833 -431.331712 
L 83.1772 -436.457532 
L 65.4711 -434.614073 
L 47.765 -428.903983 
z
" style="stroke: #bcbd22; stroke-opacity: 0.2"/>
    </defs>
    <g clip-path="url(#pfd6b2d0fbd)">
     <use xlink:href="#mdb65014d39" x="0" y="648" style="fill: #bcbd22; fill-opacity: 0.2; stroke: #bcbd22; stroke-opacity: 0.2"/>
    </g>
   </g>
   <g id="PolyCollection_10">
    <defs>
     <path id="md808b928d0" d="M 47.765 -423.602853 
L 47.765 -403.734392 
L 65.4711 -401.774786 
L 83.1772 -395.685077 
L 100.8833 -390.394739 
L 118.5894 -388.773125 
L 136.2955 -392.5453 
L 154.0016 -391.502146 
L 171.7077 -396.066707 
L 189.4138 -385.183781 
L 207.1199 -390.182828 
L 224.826 -396.892105 
L 242.5321 -397.90535 
L 260.2382 -398.019208 
L 277.9443 -400.809132 
L 295.6504 -398.067819 
L 313.3565 -396.938836 
L 331.0626 -386.825524 
L 348.7687 -388.466002 
L 366.4748 -398.982102 
L 384.1809 -395.595292 
L 401.887 -402.79488 
L 419.5931 -406.038514 
L 437.2992 -395.788216 
L 455.0053 -393.991891 
L 472.7114 -396.315581 
L 490.4175 -398.713579 
L 508.1236 -400.06003 
L 525.8297 -398.102107 
L 543.5358 -396.864758 
L 561.2419 -399.809733 
L 578.948 -385.920881 
L 596.6541 -391.857791 
L 614.3602 -386.487799 
L 632.0663 -386.64288 
L 649.7724 -391.995753 
L 667.4785 -393.828826 
L 685.1846 -412.623973 
L 702.8907 -407.893493 
L 720.5968 -413.175315 
L 738.3029 -390.6603 
L 756.009 -407.8145 
L 773.7151 -401.511886 
L 791.4212 -406.713084 
L 809.1273 -406.412394 
L 826.8334 -401.241206 
L 844.5395 -398.488812 
L 862.2456 -405.392466 
L 879.9517 -410.456223 
L 897.6578 -405.381461 
L 915.3639 -402.690283 
L 933.07 -399.832818 
L 933.07 -459.303579 
L 933.07 -459.303579 
L 915.3639 -459.508601 
L 897.6578 -468.307006 
L 879.9517 -476.229994 
L 862.2456 -473.698467 
L 844.5395 -463.58402 
L 826.8334 -457.603838 
L 809.1273 -460.505643 
L 791.4212 -459.686009 
L 773.7151 -448.857241 
L 756.009 -442.003197 
L 738.3029 -449.287133 
L 720.5968 -443.380944 
L 702.8907 -440.568521 
L 685.1846 -442.397142 
L 667.4785 -442.956999 
L 649.7724 -434.491749 
L 632.0663 -444.986931 
L 614.3602 -450.748012 
L 596.6541 -456.703671 
L 578.948 -451.833625 
L 561.2419 -445.384814 
L 543.5358 -436.92508 
L 525.8297 -442.0713 
L 508.1236 -443.473839 
L 490.4175 -448.205674 
L 472.7114 -431.675311 
L 455.0053 -444.072161 
L 437.2992 -429.091705 
L 419.5931 -438.749967 
L 401.887 -433.509218 
L 384.1809 -432.518586 
L 366.4748 -432.074672 
L 348.7687 -421.16072 
L 331.0626 -417.255517 
L 313.3565 -429.778225 
L 295.6504 -427.089551 
L 277.9443 -431.26979 
L 260.2382 -434.266458 
L 242.5321 -418.508752 
L 224.826 -421.91892 
L 207.1199 -422.707398 
L 189.4138 -418.620737 
L 171.7077 -412.886902 
L 154.0016 -414.262444 
L 136.2955 -419.997728 
L 118.5894 -418.211664 
L 100.8833 -408.765843 
L 83.1772 -418.263366 
L 65.4711 -424.084132 
L 47.765 -423.602853 
z
" style="stroke: #17becf; stroke-opacity: 0.2"/>
    </defs>
    <g clip-path="url(#pfd6b2d0fbd)">
     <use xlink:href="#md808b928d0" x="0" y="648" style="fill: #17becf; fill-opacity: 0.2; stroke: #17becf; stroke-opacity: 0.2"/>
    </g>
   </g>
   <g id="PolyCollection_11">
    <defs>
     <path id="m4cccb0f313" d="M 47.765 -475.996861 
L 47.765 -430.020795 
L 65.4711 -431.716291 
L 83.1772 -438.387723 
L 100.8833 -435.148878 
L 118.5894 -434.396213 
L 136.2955 -441.831754 
L 154.0016 -440.177918 
L 171.7077 -439.372841 
L 189.4138 -430.447977 
L 207.1199 -420.163323 
L 224.826 -420.505551 
L 242.5321 -420.578589 
L 260.2382 -434.863919 
L 277.9443 -433.879122 
L 295.6504 -433.578848 
L 313.3565 -434.881372 
L 331.0626 -420.888565 
L 348.7687 -419.744196 
L 366.4748 -423.35959 
L 384.1809 -421.291401 
L 401.887 -423.241057 
L 419.5931 -418.863578 
L 437.2992 -415.441559 
L 455.0053 -414.647427 
L 472.7114 -404.972195 
L 490.4175 -409.792246 
L 508.1236 -415.006097 
L 525.8297 -416.729016 
L 543.5358 -411.702791 
L 561.2419 -391.670656 
L 578.948 -396.970174 
L 596.6541 -400.509961 
L 614.3602 -407.433567 
L 632.0663 -399.428074 
L 649.7724 -410.249351 
L 667.4785 -410.414809 
L 685.1846 -404.669308 
L 702.8907 -404.654845 
L 720.5968 -408.035683 
L 738.3029 -413.950971 
L 756.009 -403.865416 
L 773.7151 -402.823057 
L 791.4212 -389.506574 
L 809.1273 -401.010541 
L 826.8334 -411.278499 
L 844.5395 -401.277489 
L 862.2456 -398.545953 
L 879.9517 -412.975533 
L 897.6578 -408.966581 
L 915.3639 -402.763014 
L 933.07 -390.496272 
L 933.07 -442.924198 
L 933.07 -442.924198 
L 915.3639 -446.889076 
L 897.6578 -446.775693 
L 879.9517 -451.267195 
L 862.2456 -450.833715 
L 844.5395 -452.111088 
L 826.8334 -451.217253 
L 809.1273 -442.669454 
L 791.4212 -440.492672 
L 773.7151 -436.96615 
L 756.009 -441.439378 
L 738.3029 -446.334826 
L 720.5968 -455.623798 
L 702.8907 -447.855984 
L 685.1846 -442.297711 
L 667.4785 -442.773177 
L 649.7724 -443.20646 
L 632.0663 -438.56449 
L 614.3602 -445.38763 
L 596.6541 -440.304636 
L 578.948 -438.329476 
L 561.2419 -448.321963 
L 543.5358 -450.102316 
L 525.8297 -451.103567 
L 508.1236 -451.1458 
L 490.4175 -451.695859 
L 472.7114 -455.046295 
L 455.0053 -453.379139 
L 437.2992 -460.889135 
L 419.5931 -456.050518 
L 401.887 -455.407959 
L 384.1809 -451.127379 
L 366.4748 -449.82998 
L 348.7687 -449.600935 
L 331.0626 -450.280575 
L 313.3565 -453.008473 
L 295.6504 -459.874556 
L 277.9443 -474.246055 
L 260.2382 -470.546454 
L 242.5321 -478.146332 
L 224.826 -476.139222 
L 207.1199 -473.753331 
L 189.4138 -470.204746 
L 171.7077 -461.287734 
L 154.0016 -472.384057 
L 136.2955 -463.624861 
L 118.5894 -477.001238 
L 100.8833 -488.881496 
L 83.1772 -476.77681 
L 65.4711 -469.622149 
L 47.765 -475.996861 
z
" style="stroke: #9edae5; stroke-opacity: 0.2"/>
    </defs>
    <g clip-path="url(#pfd6b2d0fbd)">
     <use xlink:href="#m4cccb0f313" x="0" y="648" style="fill: #9edae5; fill-opacity: 0.2; stroke: #9edae5; stroke-opacity: 0.2"/>
    </g>
   </g>
   <g id="matplotlib.axis_1">
    <g id="xtick_1">
     <g id="line2d_1">
      <defs>
       <path id="m219132dbb6" d="M 0 0 
L 0 3.5 
" style="stroke: #000000; stroke-width: 0.8"/>
      </defs>
      <g>
       <use xlink:href="#m219132dbb6" x="47.765" y="606.04" style="stroke: #000000; stroke-width: 0.8"/>
      </g>
     </g>
     <g id="text_1">
      <!-- 30 -->
      <g transform="translate(41.4025 620.638438) scale(0.1 -0.1)">
       <defs>
        <path id="DejaVuSans-33" d="M 2597 2516 
Q 3050 2419 3304 2112 
Q 3559 1806 3559 1356 
Q 3559 666 3084 287 
Q 2609 -91 1734 -91 
Q 1441 -91 1130 -33 
Q 819 25 488 141 
L 488 750 
Q 750 597 1062 519 
Q 1375 441 1716 441 
Q 2309 441 2620 675 
Q 2931 909 2931 1356 
Q 2931 1769 2642 2001 
Q 2353 2234 1838 2234 
L 1294 2234 
L 1294 2753 
L 1863 2753 
Q 2328 2753 2575 2939 
Q 2822 3125 2822 3475 
Q 2822 3834 2567 4026 
Q 2313 4219 1838 4219 
Q 1578 4219 1281 4162 
Q 984 4106 628 3988 
L 628 4550 
Q 988 4650 1302 4700 
Q 1616 4750 1894 4750 
Q 2613 4750 3031 4423 
Q 3450 4097 3450 3541 
Q 3450 3153 3228 2886 
Q 3006 2619 2597 2516 
z
" transform="scale(0.015625)"/>
        <path id="DejaVuSans-30" d="M 2034 4250 
Q 1547 4250 1301 3770 
Q 1056 3291 1056 2328 
Q 1056 1369 1301 889 
Q 1547 409 2034 409 
Q 2525 409 2770 889 
Q 3016 1369 3016 2328 
Q 3016 3291 2770 3770 
Q 2525 4250 2034 4250 
z
M 2034 4750 
Q 2819 4750 3233 4129 
Q 3647 3509 3647 2328 
Q 3647 1150 3233 529 
Q 2819 -91 2034 -91 
Q 1250 -91 836 529 
Q 422 1150 422 2328 
Q 422 3509 836 4129 
Q 1250 4750 2034 4750 
z
" transform="scale(0.015625)"/>
       </defs>
       <use xlink:href="#DejaVuSans-33"/>
       <use xlink:href="#DejaVuSans-30" x="63.623047"/>
      </g>
     </g>
    </g>
    <g id="xtick_2">
     <g id="line2d_2">
      <g>
       <use xlink:href="#m219132dbb6" x="224.826" y="606.04" style="stroke: #000000; stroke-width: 0.8"/>
      </g>
     </g>
     <g id="text_2">
      <!-- 40 -->
      <g transform="translate(218.4635 620.638438) scale(0.1 -0.1)">
       <defs>
        <path id="DejaVuSans-34" d="M 2419 4116 
L 825 1625 
L 2419 1625 
L 2419 4116 
z
M 2253 4666 
L 3047 4666 
L 3047 1625 
L 3713 1625 
L 3713 1100 
L 3047 1100 
L 3047 0 
L 2419 0 
L 2419 1100 
L 313 1100 
L 313 1709 
L 2253 4666 
z
" transform="scale(0.015625)"/>
       </defs>
       <use xlink:href="#DejaVuSans-34"/>
       <use xlink:href="#DejaVuSans-30" x="63.623047"/>
      </g>
     </g>
    </g>
    <g id="xtick_3">
     <g id="line2d_3">
      <g>
       <use xlink:href="#m219132dbb6" x="401.887" y="606.04" style="stroke: #000000; stroke-width: 0.8"/>
      </g>
     </g>
     <g id="text_3">
      <!-- 50 -->
      <g transform="translate(395.5245 620.638438) scale(0.1 -0.1)">
       <defs>
        <path id="DejaVuSans-35" d="M 691 4666 
L 3169 4666 
L 3169 4134 
L 1269 4134 
L 1269 2991 
Q 1406 3038 1543 3061 
Q 1681 3084 1819 3084 
Q 2600 3084 3056 2656 
Q 3513 2228 3513 1497 
Q 3513 744 3044 326 
Q 2575 -91 1722 -91 
Q 1428 -91 1123 -41 
Q 819 9 494 109 
L 494 744 
Q 775 591 1075 516 
Q 1375 441 1709 441 
Q 2250 441 2565 725 
Q 2881 1009 2881 1497 
Q 2881 1984 2565 2268 
Q 2250 2553 1709 2553 
Q 1456 2553 1204 2497 
Q 953 2441 691 2322 
L 691 4666 
z
" transform="scale(0.015625)"/>
       </defs>
       <use xlink:href="#DejaVuSans-35"/>
       <use xlink:href="#DejaVuSans-30" x="63.623047"/>
      </g>
     </g>
    </g>
    <g id="xtick_4">
     <g id="line2d_4">
      <g>
       <use xlink:href="#m219132dbb6" x="578.948" y="606.04" style="stroke: #000000; stroke-width: 0.8"/>
      </g>
     </g>
     <g id="text_4">
      <!-- 60 -->
      <g transform="translate(572.5855 620.638438) scale(0.1 -0.1)">
       <defs>
        <path id="DejaVuSans-36" d="M 2113 2584 
Q 1688 2584 1439 2293 
Q 1191 2003 1191 1497 
Q 1191 994 1439 701 
Q 1688 409 2113 409 
Q 2538 409 2786 701 
Q 3034 994 3034 1497 
Q 3034 2003 2786 2293 
Q 2538 2584 2113 2584 
z
M 3366 4563 
L 3366 3988 
Q 3128 4100 2886 4159 
Q 2644 4219 2406 4219 
Q 1781 4219 1451 3797 
Q 1122 3375 1075 2522 
Q 1259 2794 1537 2939 
Q 1816 3084 2150 3084 
Q 2853 3084 3261 2657 
Q 3669 2231 3669 1497 
Q 3669 778 3244 343 
Q 2819 -91 2113 -91 
Q 1303 -91 875 529 
Q 447 1150 447 2328 
Q 447 3434 972 4092 
Q 1497 4750 2381 4750 
Q 2619 4750 2861 4703 
Q 3103 4656 3366 4563 
z
" transform="scale(0.015625)"/>
       </defs>
       <use xlink:href="#DejaVuSans-36"/>
       <use xlink:href="#DejaVuSans-30" x="63.623047"/>
      </g>
     </g>
    </g>
    <g id="xtick_5">
     <g id="line2d_5">
      <g>
       <use xlink:href="#m219132dbb6" x="756.009" y="606.04" style="stroke: #000000; stroke-width: 0.8"/>
      </g>
     </g>
     <g id="text_5">
      <!-- 70 -->
      <g transform="translate(749.6465 620.638438) scale(0.1 -0.1)">
       <defs>
        <path id="DejaVuSans-37" d="M 525 4666 
L 3525 4666 
L 3525 4397 
L 1831 0 
L 1172 0 
L 2766 4134 
L 525 4134 
L 525 4666 
z
" transform="scale(0.015625)"/>
       </defs>
       <use xlink:href="#DejaVuSans-37"/>
       <use xlink:href="#DejaVuSans-30" x="63.623047"/>
      </g>
     </g>
    </g>
    <g id="xtick_6">
     <g id="line2d_6">
      <g>
       <use xlink:href="#m219132dbb6" x="933.07" y="606.04" style="stroke: #000000; stroke-width: 0.8"/>
      </g>
     </g>
     <g id="text_6">
      <!-- 80 -->
      <g transform="translate(926.7075 620.638438) scale(0.1 -0.1)">
       <defs>
        <path id="DejaVuSans-38" d="M 2034 2216 
Q 1584 2216 1326 1975 
Q 1069 1734 1069 1313 
Q 1069 891 1326 650 
Q 1584 409 2034 409 
Q 2484 409 2743 651 
Q 3003 894 3003 1313 
Q 3003 1734 2745 1975 
Q 2488 2216 2034 2216 
z
M 1403 2484 
Q 997 2584 770 2862 
Q 544 3141 544 3541 
Q 544 4100 942 4425 
Q 1341 4750 2034 4750 
Q 2731 4750 3128 4425 
Q 3525 4100 3525 3541 
Q 3525 3141 3298 2862 
Q 3072 2584 2669 2484 
Q 3125 2378 3379 2068 
Q 3634 1759 3634 1313 
Q 3634 634 3220 271 
Q 2806 -91 2034 -91 
Q 1263 -91 848 271 
Q 434 634 434 1313 
Q 434 1759 690 2068 
Q 947 2378 1403 2484 
z
M 1172 3481 
Q 1172 3119 1398 2916 
Q 1625 2713 2034 2713 
Q 2441 2713 2670 2916 
Q 2900 3119 2900 3481 
Q 2900 3844 2670 4047 
Q 2441 4250 2034 4250 
Q 1625 4250 1398 4047 
Q 1172 3844 1172 3481 
z
" transform="scale(0.015625)"/>
       </defs>
       <use xlink:href="#DejaVuSans-38"/>
       <use xlink:href="#DejaVuSans-30" x="63.623047"/>
      </g>
     </g>
    </g>
    <g id="text_7">
     <!-- Number of Baits -->
     <g transform="translate(449.885469 634.316563) scale(0.1 -0.1)">
      <defs>
       <path id="DejaVuSans-4e" d="M 628 4666 
L 1478 4666 
L 3547 763 
L 3547 4666 
L 4159 4666 
L 4159 0 
L 3309 0 
L 1241 3903 
L 1241 0 
L 628 0 
L 628 4666 
z
" transform="scale(0.015625)"/>
       <path id="DejaVuSans-75" d="M 544 1381 
L 544 3500 
L 1119 3500 
L 1119 1403 
Q 1119 906 1312 657 
Q 1506 409 1894 409 
Q 2359 409 2629 706 
Q 2900 1003 2900 1516 
L 2900 3500 
L 3475 3500 
L 3475 0 
L 2900 0 
L 2900 538 
Q 2691 219 2414 64 
Q 2138 -91 1772 -91 
Q 1169 -91 856 284 
Q 544 659 544 1381 
z
M 1991 3584 
L 1991 3584 
z
" transform="scale(0.015625)"/>
       <path id="DejaVuSans-6d" d="M 3328 2828 
Q 3544 3216 3844 3400 
Q 4144 3584 4550 3584 
Q 5097 3584 5394 3201 
Q 5691 2819 5691 2113 
L 5691 0 
L 5113 0 
L 5113 2094 
Q 5113 2597 4934 2840 
Q 4756 3084 4391 3084 
Q 3944 3084 3684 2787 
Q 3425 2491 3425 1978 
L 3425 0 
L 2847 0 
L 2847 2094 
Q 2847 2600 2669 2842 
Q 2491 3084 2119 3084 
Q 1678 3084 1418 2786 
Q 1159 2488 1159 1978 
L 1159 0 
L 581 0 
L 581 3500 
L 1159 3500 
L 1159 2956 
Q 1356 3278 1631 3431 
Q 1906 3584 2284 3584 
Q 2666 3584 2933 3390 
Q 3200 3197 3328 2828 
z
" transform="scale(0.015625)"/>
       <path id="DejaVuSans-62" d="M 3116 1747 
Q 3116 2381 2855 2742 
Q 2594 3103 2138 3103 
Q 1681 3103 1420 2742 
Q 1159 2381 1159 1747 
Q 1159 1113 1420 752 
Q 1681 391 2138 391 
Q 2594 391 2855 752 
Q 3116 1113 3116 1747 
z
M 1159 2969 
Q 1341 3281 1617 3432 
Q 1894 3584 2278 3584 
Q 2916 3584 3314 3078 
Q 3713 2572 3713 1747 
Q 3713 922 3314 415 
Q 2916 -91 2278 -91 
Q 1894 -91 1617 61 
Q 1341 213 1159 525 
L 1159 0 
L 581 0 
L 581 4863 
L 1159 4863 
L 1159 2969 
z
" transform="scale(0.015625)"/>
       <path id="DejaVuSans-65" d="M 3597 1894 
L 3597 1613 
L 953 1613 
Q 991 1019 1311 708 
Q 1631 397 2203 397 
Q 2534 397 2845 478 
Q 3156 559 3463 722 
L 3463 178 
Q 3153 47 2828 -22 
Q 2503 -91 2169 -91 
Q 1331 -91 842 396 
Q 353 884 353 1716 
Q 353 2575 817 3079 
Q 1281 3584 2069 3584 
Q 2775 3584 3186 3129 
Q 3597 2675 3597 1894 
z
M 3022 2063 
Q 3016 2534 2758 2815 
Q 2500 3097 2075 3097 
Q 1594 3097 1305 2825 
Q 1016 2553 972 2059 
L 3022 2063 
z
" transform="scale(0.015625)"/>
       <path id="DejaVuSans-72" d="M 2631 2963 
Q 2534 3019 2420 3045 
Q 2306 3072 2169 3072 
Q 1681 3072 1420 2755 
Q 1159 2438 1159 1844 
L 1159 0 
L 581 0 
L 581 3500 
L 1159 3500 
L 1159 2956 
Q 1341 3275 1631 3429 
Q 1922 3584 2338 3584 
Q 2397 3584 2469 3576 
Q 2541 3569 2628 3553 
L 2631 2963 
z
" transform="scale(0.015625)"/>
       <path id="DejaVuSans-20" transform="scale(0.015625)"/>
       <path id="DejaVuSans-6f" d="M 1959 3097 
Q 1497 3097 1228 2736 
Q 959 2375 959 1747 
Q 959 1119 1226 758 
Q 1494 397 1959 397 
Q 2419 397 2687 759 
Q 2956 1122 2956 1747 
Q 2956 2369 2687 2733 
Q 2419 3097 1959 3097 
z
M 1959 3584 
Q 2709 3584 3137 3096 
Q 3566 2609 3566 1747 
Q 3566 888 3137 398 
Q 2709 -91 1959 -91 
Q 1206 -91 779 398 
Q 353 888 353 1747 
Q 353 2609 779 3096 
Q 1206 3584 1959 3584 
z
" transform="scale(0.015625)"/>
       <path id="DejaVuSans-66" d="M 2375 4863 
L 2375 4384 
L 1825 4384 
Q 1516 4384 1395 4259 
Q 1275 4134 1275 3809 
L 1275 3500 
L 2222 3500 
L 2222 3053 
L 1275 3053 
L 1275 0 
L 697 0 
L 697 3053 
L 147 3053 
L 147 3500 
L 697 3500 
L 697 3744 
Q 697 4328 969 4595 
Q 1241 4863 1831 4863 
L 2375 4863 
z
" transform="scale(0.015625)"/>
       <path id="DejaVuSans-42" d="M 1259 2228 
L 1259 519 
L 2272 519 
Q 2781 519 3026 730 
Q 3272 941 3272 1375 
Q 3272 1813 3026 2020 
Q 2781 2228 2272 2228 
L 1259 2228 
z
M 1259 4147 
L 1259 2741 
L 2194 2741 
Q 2656 2741 2882 2914 
Q 3109 3088 3109 3444 
Q 3109 3797 2882 3972 
Q 2656 4147 2194 4147 
L 1259 4147 
z
M 628 4666 
L 2241 4666 
Q 2963 4666 3353 4366 
Q 3744 4066 3744 3513 
Q 3744 3084 3544 2831 
Q 3344 2578 2956 2516 
Q 3422 2416 3680 2098 
Q 3938 1781 3938 1306 
Q 3938 681 3513 340 
Q 3088 0 2303 0 
L 628 0 
L 628 4666 
z
" transform="scale(0.015625)"/>
       <path id="DejaVuSans-61" d="M 2194 1759 
Q 1497 1759 1228 1600 
Q 959 1441 959 1056 
Q 959 750 1161 570 
Q 1363 391 1709 391 
Q 2188 391 2477 730 
Q 2766 1069 2766 1631 
L 2766 1759 
L 2194 1759 
z
M 3341 1997 
L 3341 0 
L 2766 0 
L 2766 531 
Q 2569 213 2275 61 
Q 1981 -91 1556 -91 
Q 1019 -91 701 211 
Q 384 513 384 1019 
Q 384 1609 779 1909 
Q 1175 2209 1959 2209 
L 2766 2209 
L 2766 2266 
Q 2766 2663 2505 2880 
Q 2244 3097 1772 3097 
Q 1472 3097 1187 3025 
Q 903 2953 641 2809 
L 641 3341 
Q 956 3463 1253 3523 
Q 1550 3584 1831 3584 
Q 2591 3584 2966 3190 
Q 3341 2797 3341 1997 
z
" transform="scale(0.015625)"/>
       <path id="DejaVuSans-69" d="M 603 3500 
L 1178 3500 
L 1178 0 
L 603 0 
L 603 3500 
z
M 603 4863 
L 1178 4863 
L 1178 4134 
L 603 4134 
L 603 4863 
z
" transform="scale(0.015625)"/>
       <path id="DejaVuSans-74" d="M 1172 4494 
L 1172 3500 
L 2356 3500 
L 2356 3053 
L 1172 3053 
L 1172 1153 
Q 1172 725 1289 603 
Q 1406 481 1766 481 
L 2356 481 
L 2356 0 
L 1766 0 
Q 1100 0 847 248 
Q 594 497 594 1153 
L 594 3053 
L 172 3053 
L 172 3500 
L 594 3500 
L 594 4494 
L 1172 4494 
z
" transform="scale(0.015625)"/>
       <path id="DejaVuSans-73" d="M 2834 3397 
L 2834 2853 
Q 2591 2978 2328 3040 
Q 2066 3103 1784 3103 
Q 1356 3103 1142 2972 
Q 928 2841 928 2578 
Q 928 2378 1081 2264 
Q 1234 2150 1697 2047 
L 1894 2003 
Q 2506 1872 2764 1633 
Q 3022 1394 3022 966 
Q 3022 478 2636 193 
Q 2250 -91 1575 -91 
Q 1294 -91 989 -36 
Q 684 19 347 128 
L 347 722 
Q 666 556 975 473 
Q 1284 391 1588 391 
Q 1994 391 2212 530 
Q 2431 669 2431 922 
Q 2431 1156 2273 1281 
Q 2116 1406 1581 1522 
L 1381 1569 
Q 847 1681 609 1914 
Q 372 2147 372 2553 
Q 372 3047 722 3315 
Q 1072 3584 1716 3584 
Q 2034 3584 2315 3537 
Q 2597 3491 2834 3397 
z
" transform="scale(0.015625)"/>
      </defs>
      <use xlink:href="#DejaVuSans-4e"/>
      <use xlink:href="#DejaVuSans-75" x="74.804688"/>
      <use xlink:href="#DejaVuSans-6d" x="138.183594"/>
      <use xlink:href="#DejaVuSans-62" x="235.595703"/>
      <use xlink:href="#DejaVuSans-65" x="299.072266"/>
      <use xlink:href="#DejaVuSans-72" x="360.595703"/>
      <use xlink:href="#DejaVuSans-20" x="401.708984"/>
      <use xlink:href="#DejaVuSans-6f" x="433.496094"/>
      <use xlink:href="#DejaVuSans-66" x="494.677734"/>
      <use xlink:href="#DejaVuSans-20" x="529.882812"/>
      <use xlink:href="#DejaVuSans-42" x="561.669922"/>
      <use xlink:href="#DejaVuSans-61" x="630.273438"/>
      <use xlink:href="#DejaVuSans-69" x="691.552734"/>
      <use xlink:href="#DejaVuSans-74" x="719.335938"/>
      <use xlink:href="#DejaVuSans-73" x="758.544922"/>
     </g>
    </g>
   </g>
   <g id="matplotlib.axis_2">
    <g id="ytick_1">
     <g id="line2d_7">
      <defs>
       <path id="mf7a8efe667" d="M 0 0 
L -3.5 0 
" style="stroke: #000000; stroke-width: 0.8"/>
      </defs>
      <g>
       <use xlink:href="#mf7a8efe667" x="47.765" y="606.04" style="stroke: #000000; stroke-width: 0.8"/>
      </g>
     </g>
     <g id="text_8">
      <!-- 0.0 -->
      <g transform="translate(24.861875 609.839219) scale(0.1 -0.1)">
       <defs>
        <path id="DejaVuSans-2e" d="M 684 794 
L 1344 794 
L 1344 0 
L 684 0 
L 684 794 
z
" transform="scale(0.015625)"/>
       </defs>
       <use xlink:href="#DejaVuSans-30"/>
       <use xlink:href="#DejaVuSans-2e" x="63.623047"/>
       <use xlink:href="#DejaVuSans-30" x="95.410156"/>
      </g>
     </g>
    </g>
    <g id="ytick_2">
     <g id="line2d_8">
      <g>
       <use xlink:href="#mf7a8efe667" x="47.765" y="490.9816" style="stroke: #000000; stroke-width: 0.8"/>
      </g>
     </g>
     <g id="text_9">
      <!-- 0.2 -->
      <g transform="translate(24.861875 494.780819) scale(0.1 -0.1)">
       <defs>
        <path id="DejaVuSans-32" d="M 1228 531 
L 3431 531 
L 3431 0 
L 469 0 
L 469 531 
Q 828 903 1448 1529 
Q 2069 2156 2228 2338 
Q 2531 2678 2651 2914 
Q 2772 3150 2772 3378 
Q 2772 3750 2511 3984 
Q 2250 4219 1831 4219 
Q 1534 4219 1204 4116 
Q 875 4013 500 3803 
L 500 4441 
Q 881 4594 1212 4672 
Q 1544 4750 1819 4750 
Q 2544 4750 2975 4387 
Q 3406 4025 3406 3419 
Q 3406 3131 3298 2873 
Q 3191 2616 2906 2266 
Q 2828 2175 2409 1742 
Q 1991 1309 1228 531 
z
" transform="scale(0.015625)"/>
       </defs>
       <use xlink:href="#DejaVuSans-30"/>
       <use xlink:href="#DejaVuSans-2e" x="63.623047"/>
       <use xlink:href="#DejaVuSans-32" x="95.410156"/>
      </g>
     </g>
    </g>
    <g id="ytick_3">
     <g id="line2d_9">
      <g>
       <use xlink:href="#mf7a8efe667" x="47.765" y="375.9232" style="stroke: #000000; stroke-width: 0.8"/>
      </g>
     </g>
     <g id="text_10">
      <!-- 0.4 -->
      <g transform="translate(24.861875 379.722419) scale(0.1 -0.1)">
       <use xlink:href="#DejaVuSans-30"/>
       <use xlink:href="#DejaVuSans-2e" x="63.623047"/>
       <use xlink:href="#DejaVuSans-34" x="95.410156"/>
      </g>
     </g>
    </g>
    <g id="ytick_4">
     <g id="line2d_10">
      <g>
       <use xlink:href="#mf7a8efe667" x="47.765" y="260.8648" style="stroke: #000000; stroke-width: 0.8"/>
      </g>
     </g>
     <g id="text_11">
      <!-- 0.6 -->
      <g transform="translate(24.861875 264.664019) scale(0.1 -0.1)">
       <use xlink:href="#DejaVuSans-30"/>
       <use xlink:href="#DejaVuSans-2e" x="63.623047"/>
       <use xlink:href="#DejaVuSans-36" x="95.410156"/>
      </g>
     </g>
    </g>
    <g id="ytick_5">
     <g id="line2d_11">
      <g>
       <use xlink:href="#mf7a8efe667" x="47.765" y="145.8064" style="stroke: #000000; stroke-width: 0.8"/>
      </g>
     </g>
     <g id="text_12">
      <!-- 0.8 -->
      <g transform="translate(24.861875 149.605619) scale(0.1 -0.1)">
       <use xlink:href="#DejaVuSans-30"/>
       <use xlink:href="#DejaVuSans-2e" x="63.623047"/>
       <use xlink:href="#DejaVuSans-38" x="95.410156"/>
      </g>
     </g>
    </g>
    <g id="ytick_6">
     <g id="line2d_12">
      <g>
       <use xlink:href="#mf7a8efe667" x="47.765" y="30.748" style="stroke: #000000; stroke-width: 0.8"/>
      </g>
     </g>
     <g id="text_13">
      <!-- 1.0 -->
      <g transform="translate(24.861875 34.547219) scale(0.1 -0.1)">
       <defs>
        <path id="DejaVuSans-31" d="M 794 531 
L 1825 531 
L 1825 4091 
L 703 3866 
L 703 4441 
L 1819 4666 
L 2450 4666 
L 2450 531 
L 3481 531 
L 3481 0 
L 794 0 
L 794 531 
z
" transform="scale(0.015625)"/>
       </defs>
       <use xlink:href="#DejaVuSans-31"/>
       <use xlink:href="#DejaVuSans-2e" x="63.623047"/>
       <use xlink:href="#DejaVuSans-30" x="95.410156"/>
      </g>
     </g>
    </g>
    <g id="text_14">
     <!-- Aggregated NMF ARI Scores -->
     <g transform="translate(18.782187 388.305719) rotate(-90) scale(0.1 -0.1)">
      <defs>
       <path id="DejaVuSans-41" d="M 2188 4044 
L 1331 1722 
L 3047 1722 
L 2188 4044 
z
M 1831 4666 
L 2547 4666 
L 4325 0 
L 3669 0 
L 3244 1197 
L 1141 1197 
L 716 0 
L 50 0 
L 1831 4666 
z
" transform="scale(0.015625)"/>
       <path id="DejaVuSans-67" d="M 2906 1791 
Q 2906 2416 2648 2759 
Q 2391 3103 1925 3103 
Q 1463 3103 1205 2759 
Q 947 2416 947 1791 
Q 947 1169 1205 825 
Q 1463 481 1925 481 
Q 2391 481 2648 825 
Q 2906 1169 2906 1791 
z
M 3481 434 
Q 3481 -459 3084 -895 
Q 2688 -1331 1869 -1331 
Q 1566 -1331 1297 -1286 
Q 1028 -1241 775 -1147 
L 775 -588 
Q 1028 -725 1275 -790 
Q 1522 -856 1778 -856 
Q 2344 -856 2625 -561 
Q 2906 -266 2906 331 
L 2906 616 
Q 2728 306 2450 153 
Q 2172 0 1784 0 
Q 1141 0 747 490 
Q 353 981 353 1791 
Q 353 2603 747 3093 
Q 1141 3584 1784 3584 
Q 2172 3584 2450 3431 
Q 2728 3278 2906 2969 
L 2906 3500 
L 3481 3500 
L 3481 434 
z
" transform="scale(0.015625)"/>
       <path id="DejaVuSans-64" d="M 2906 2969 
L 2906 4863 
L 3481 4863 
L 3481 0 
L 2906 0 
L 2906 525 
Q 2725 213 2448 61 
Q 2172 -91 1784 -91 
Q 1150 -91 751 415 
Q 353 922 353 1747 
Q 353 2572 751 3078 
Q 1150 3584 1784 3584 
Q 2172 3584 2448 3432 
Q 2725 3281 2906 2969 
z
M 947 1747 
Q 947 1113 1208 752 
Q 1469 391 1925 391 
Q 2381 391 2643 752 
Q 2906 1113 2906 1747 
Q 2906 2381 2643 2742 
Q 2381 3103 1925 3103 
Q 1469 3103 1208 2742 
Q 947 2381 947 1747 
z
" transform="scale(0.015625)"/>
       <path id="DejaVuSans-4d" d="M 628 4666 
L 1569 4666 
L 2759 1491 
L 3956 4666 
L 4897 4666 
L 4897 0 
L 4281 0 
L 4281 4097 
L 3078 897 
L 2444 897 
L 1241 4097 
L 1241 0 
L 628 0 
L 628 4666 
z
" transform="scale(0.015625)"/>
       <path id="DejaVuSans-46" d="M 628 4666 
L 3309 4666 
L 3309 4134 
L 1259 4134 
L 1259 2759 
L 3109 2759 
L 3109 2228 
L 1259 2228 
L 1259 0 
L 628 0 
L 628 4666 
z
" transform="scale(0.015625)"/>
       <path id="DejaVuSans-52" d="M 2841 2188 
Q 3044 2119 3236 1894 
Q 3428 1669 3622 1275 
L 4263 0 
L 3584 0 
L 2988 1197 
Q 2756 1666 2539 1819 
Q 2322 1972 1947 1972 
L 1259 1972 
L 1259 0 
L 628 0 
L 628 4666 
L 2053 4666 
Q 2853 4666 3247 4331 
Q 3641 3997 3641 3322 
Q 3641 2881 3436 2590 
Q 3231 2300 2841 2188 
z
M 1259 4147 
L 1259 2491 
L 2053 2491 
Q 2509 2491 2742 2702 
Q 2975 2913 2975 3322 
Q 2975 3731 2742 3939 
Q 2509 4147 2053 4147 
L 1259 4147 
z
" transform="scale(0.015625)"/>
       <path id="DejaVuSans-49" d="M 628 4666 
L 1259 4666 
L 1259 0 
L 628 0 
L 628 4666 
z
" transform="scale(0.015625)"/>
       <path id="DejaVuSans-53" d="M 3425 4513 
L 3425 3897 
Q 3066 4069 2747 4153 
Q 2428 4238 2131 4238 
Q 1616 4238 1336 4038 
Q 1056 3838 1056 3469 
Q 1056 3159 1242 3001 
Q 1428 2844 1947 2747 
L 2328 2669 
Q 3034 2534 3370 2195 
Q 3706 1856 3706 1288 
Q 3706 609 3251 259 
Q 2797 -91 1919 -91 
Q 1588 -91 1214 -16 
Q 841 59 441 206 
L 441 856 
Q 825 641 1194 531 
Q 1563 422 1919 422 
Q 2459 422 2753 634 
Q 3047 847 3047 1241 
Q 3047 1584 2836 1778 
Q 2625 1972 2144 2069 
L 1759 2144 
Q 1053 2284 737 2584 
Q 422 2884 422 3419 
Q 422 4038 858 4394 
Q 1294 4750 2059 4750 
Q 2388 4750 2728 4690 
Q 3069 4631 3425 4513 
z
" transform="scale(0.015625)"/>
       <path id="DejaVuSans-63" d="M 3122 3366 
L 3122 2828 
Q 2878 2963 2633 3030 
Q 2388 3097 2138 3097 
Q 1578 3097 1268 2742 
Q 959 2388 959 1747 
Q 959 1106 1268 751 
Q 1578 397 2138 397 
Q 2388 397 2633 464 
Q 2878 531 3122 666 
L 3122 134 
Q 2881 22 2623 -34 
Q 2366 -91 2075 -91 
Q 1284 -91 818 406 
Q 353 903 353 1747 
Q 353 2603 823 3093 
Q 1294 3584 2113 3584 
Q 2378 3584 2631 3529 
Q 2884 3475 3122 3366 
z
" transform="scale(0.015625)"/>
      </defs>
      <use xlink:href="#DejaVuSans-41"/>
      <use xlink:href="#DejaVuSans-67" x="68.408203"/>
      <use xlink:href="#DejaVuSans-67" x="131.884766"/>
      <use xlink:href="#DejaVuSans-72" x="195.361328"/>
      <use xlink:href="#DejaVuSans-65" x="234.224609"/>
      <use xlink:href="#DejaVuSans-67" x="295.748047"/>
      <use xlink:href="#DejaVuSans-61" x="359.224609"/>
      <use xlink:href="#DejaVuSans-74" x="420.503906"/>
      <use xlink:href="#DejaVuSans-65" x="459.712891"/>
      <use xlink:href="#DejaVuSans-64" x="521.236328"/>
      <use xlink:href="#DejaVuSans-20" x="584.712891"/>
      <use xlink:href="#DejaVuSans-4e" x="616.5"/>
      <use xlink:href="#DejaVuSans-4d" x="691.304688"/>
      <use xlink:href="#DejaVuSans-46" x="777.583984"/>
      <use xlink:href="#DejaVuSans-20" x="835.103516"/>
      <use xlink:href="#DejaVuSans-41" x="866.890625"/>
      <use xlink:href="#DejaVuSans-52" x="935.298828"/>
      <use xlink:href="#DejaVuSans-49" x="1004.78125"/>
      <use xlink:href="#DejaVuSans-20" x="1034.273438"/>
      <use xlink:href="#DejaVuSans-53" x="1066.060547"/>
      <use xlink:href="#DejaVuSans-63" x="1129.537109"/>
      <use xlink:href="#DejaVuSans-6f" x="1184.517578"/>
      <use xlink:href="#DejaVuSans-72" x="1245.699219"/>
      <use xlink:href="#DejaVuSans-65" x="1284.5625"/>
      <use xlink:href="#DejaVuSans-73" x="1346.085938"/>
     </g>
    </g>
   </g>
   <g id="line2d_13">
    <path d="M 47.765 202.248431 
L 65.4711 188.013426 
L 83.1772 194.899705 
L 100.8833 191.463665 
L 118.5894 180.46148 
L 136.2955 180.840967 
L 154.0016 180.085416 
L 171.7077 177.086207 
L 189.4138 180.4101 
L 207.1199 172.019389 
L 224.826 169.585868 
L 242.5321 173.41634 
L 260.2382 169.949261 
L 277.9443 164.013648 
L 295.6504 179.538043 
L 313.3565 169.317954 
L 331.0626 172.936256 
L 348.7687 170.375501 
L 366.4748 165.027289 
L 384.1809 165.78715 
L 401.887 169.178704 
L 419.5931 168.626878 
L 437.2992 168.624043 
L 455.0053 167.17344 
L 472.7114 161.544942 
L 490.4175 166.849951 
L 508.1236 165.263932 
L 525.8297 161.9078 
L 543.5358 159.147223 
L 561.2419 160.218808 
L 578.948 159.245834 
L 596.6541 164.352332 
L 614.3602 156.416035 
L 632.0663 153.492404 
L 649.7724 152.597184 
L 667.4785 157.570699 
L 685.1846 152.082916 
L 702.8907 151.246403 
L 720.5968 161.03325 
L 738.3029 153.939155 
L 756.009 159.681589 
L 773.7151 149.314159 
L 791.4212 144.816146 
L 809.1273 147.357722 
L 826.8334 146.773656 
L 844.5395 147.28704 
L 862.2456 150.716419 
L 879.9517 145.886453 
L 897.6578 139.104475 
L 915.3639 145.604144 
L 933.07 147.763007 
" clip-path="url(#pfd6b2d0fbd)" style="fill: none; stroke: #1f77b4; stroke-width: 1.5; stroke-linecap: square"/>
   </g>
   <g id="line2d_14">
    <path d="M 47.765 369.387726 
L 65.4711 356.396661 
L 83.1772 374.066367 
L 100.8833 365.363716 
L 118.5894 374.853435 
L 136.2955 368.488301 
L 154.0016 324.572096 
L 171.7077 343.316614 
L 189.4138 351.821612 
L 207.1199 348.577301 
L 224.826 356.962687 
L 242.5321 354.515662 
L 260.2382 348.687094 
L 277.9443 352.714933 
L 295.6504 336.650547 
L 313.3565 344.450947 
L 331.0626 352.320395 
L 348.7687 334.957965 
L 366.4748 352.072376 
L 384.1809 352.576519 
L 401.887 351.104281 
L 419.5931 342.608695 
L 437.2992 357.05881 
L 455.0053 346.732163 
L 472.7114 338.592248 
L 490.4175 338.927406 
L 508.1236 325.949453 
L 525.8297 343.204972 
L 543.5358 336.211622 
L 561.2419 341.956575 
L 578.948 318.327198 
L 596.6541 346.70975 
L 614.3602 332.265062 
L 632.0663 331.649777 
L 649.7724 320.09735 
L 667.4785 331.051521 
L 685.1846 325.176885 
L 702.8907 315.373306 
L 720.5968 318.288627 
L 738.3029 321.511096 
L 756.009 315.108839 
L 773.7151 327.462974 
L 791.4212 325.4661 
L 809.1273 309.661172 
L 826.8334 311.665781 
L 844.5395 309.217484 
L 862.2456 303.574963 
L 879.9517 340.123479 
L 897.6578 312.373555 
L 915.3639 304.975284 
L 933.07 302.706375 
" clip-path="url(#pfd6b2d0fbd)" style="fill: none; stroke: #ff7f0e; stroke-width: 1.5; stroke-linecap: square"/>
   </g>
   <g id="line2d_15">
    <path d="M 47.765 236.290788 
L 65.4711 236.546346 
L 83.1772 237.262043 
L 100.8833 233.597785 
L 118.5894 232.25099 
L 136.2955 226.832647 
L 154.0016 225.1191 
L 171.7077 224.969306 
L 189.4138 224.146057 
L 207.1199 216.500244 
L 224.826 218.561987 
L 242.5321 216.204326 
L 260.2382 216.001103 
L 277.9443 210.568114 
L 295.6504 212.57964 
L 313.3565 207.824544 
L 331.0626 206.381929 
L 348.7687 201.503605 
L 366.4748 206.365778 
L 384.1809 209.435471 
L 401.887 197.460753 
L 419.5931 195.15925 
L 437.2992 189.778946 
L 455.0053 187.745723 
L 472.7114 186.607318 
L 490.4175 188.062138 
L 508.1236 185.319646 
L 525.8297 187.188721 
L 543.5358 185.722085 
L 561.2419 181.124886 
L 578.948 183.541165 
L 596.6541 176.903512 
L 614.3602 175.635008 
L 632.0663 179.937338 
L 649.7724 174.149098 
L 667.4785 174.21236 
L 685.1846 171.812596 
L 702.8907 169.906424 
L 720.5968 171.246451 
L 738.3029 173.636814 
L 756.009 164.492259 
L 773.7151 164.952647 
L 791.4212 165.687575 
L 809.1273 167.657163 
L 826.8334 165.609784 
L 844.5395 163.338205 
L 862.2456 162.723436 
L 879.9517 160.298531 
L 897.6578 153.96262 
L 915.3639 156.571398 
L 933.07 160.457844 
" clip-path="url(#pfd6b2d0fbd)" style="fill: none; stroke: #2ca02c; stroke-width: 1.5; stroke-linecap: square"/>
   </g>
   <g id="line2d_16">
    <path d="M 47.765 240.277172 
L 65.4711 237.967889 
L 83.1772 233.986734 
L 100.8833 234.751038 
L 118.5894 235.065017 
L 136.2955 235.142422 
L 154.0016 231.916771 
L 171.7077 223.525459 
L 189.4138 226.478248 
L 207.1199 224.013635 
L 224.826 219.36858 
L 242.5321 216.840901 
L 260.2382 221.416449 
L 277.9443 220.315 
L 295.6504 204.357987 
L 313.3565 201.336739 
L 331.0626 203.172251 
L 348.7687 196.345457 
L 366.4748 197.409698 
L 384.1809 197.82146 
L 401.887 200.803948 
L 419.5931 196.133836 
L 437.2992 193.498525 
L 455.0053 194.341429 
L 472.7114 195.026429 
L 490.4175 194.260009 
L 508.1236 191.876241 
L 525.8297 186.971043 
L 543.5358 184.8572 
L 561.2419 188.269394 
L 578.948 189.792302 
L 596.6541 189.542409 
L 614.3602 191.777316 
L 632.0663 191.439415 
L 649.7724 187.316095 
L 667.4785 187.024893 
L 685.1846 181.611206 
L 702.8907 180.933197 
L 720.5968 182.537375 
L 738.3029 178.608612 
L 756.009 176.246006 
L 773.7151 173.619774 
L 791.4212 173.607147 
L 809.1273 174.633869 
L 826.8334 172.948705 
L 844.5395 164.018795 
L 862.2456 165.513833 
L 879.9517 157.22604 
L 897.6578 153.926797 
L 915.3639 153.484928 
L 933.07 151.025444 
" clip-path="url(#pfd6b2d0fbd)" style="fill: none; stroke: #d62728; stroke-width: 1.5; stroke-linecap: square"/>
   </g>
   <g id="line2d_17">
    <path d="M 47.765 263.295151 
L 65.4711 268.812914 
L 83.1772 262.359593 
L 100.8833 258.377333 
L 118.5894 261.195295 
L 136.2955 249.748896 
L 154.0016 251.973095 
L 171.7077 256.312122 
L 189.4138 256.886389 
L 207.1199 245.806631 
L 224.826 249.985594 
L 242.5321 245.208702 
L 260.2382 243.377176 
L 277.9443 243.50167 
L 295.6504 242.376977 
L 313.3565 243.545427 
L 331.0626 234.406267 
L 348.7687 226.179255 
L 366.4748 223.853628 
L 384.1809 224.351721 
L 401.887 229.29411 
L 419.5931 226.641706 
L 437.2992 220.294404 
L 455.0053 209.964383 
L 472.7114 208.133387 
L 490.4175 214.595064 
L 508.1236 213.609412 
L 525.8297 210.429072 
L 543.5358 212.248056 
L 561.2419 211.446955 
L 578.948 208.909703 
L 596.6541 210.800769 
L 614.3602 207.811788 
L 632.0663 208.314712 
L 649.7724 205.466789 
L 667.4785 206.112532 
L 685.1846 198.051168 
L 702.8907 194.744989 
L 720.5968 191.800012 
L 738.3029 190.183403 
L 756.009 187.243714 
L 773.7151 186.869859 
L 791.4212 184.929996 
L 809.1273 181.557961 
L 826.8334 178.12642 
L 844.5395 176.162099 
L 862.2456 174.996858 
L 879.9517 169.2575 
L 897.6578 169.476816 
L 915.3639 168.93409 
L 933.07 170.030803 
" clip-path="url(#pfd6b2d0fbd)" style="fill: none; stroke: #9467bd; stroke-width: 1.5; stroke-linecap: square"/>
   </g>
   <g id="line2d_18">
    <path d="M 47.765 245.46174 
L 65.4711 237.879864 
L 83.1772 236.803164 
L 100.8833 233.833075 
L 118.5894 225.740026 
L 136.2955 227.224445 
L 154.0016 226.276836 
L 171.7077 225.96638 
L 189.4138 225.171129 
L 207.1199 225.940724 
L 224.826 225.19541 
L 242.5321 226.786391 
L 260.2382 224.223626 
L 277.9443 222.303777 
L 295.6504 220.996478 
L 313.3565 220.807384 
L 331.0626 214.870636 
L 348.7687 217.147046 
L 366.4748 216.760061 
L 384.1809 218.549565 
L 401.887 217.053873 
L 419.5931 213.734215 
L 437.2992 210.076128 
L 455.0053 209.961313 
L 472.7114 210.752433 
L 490.4175 207.308544 
L 508.1236 207.463293 
L 525.8297 211.427606 
L 543.5358 215.274346 
L 561.2419 212.001628 
L 578.948 214.155608 
L 596.6541 215.511712 
L 614.3602 219.210194 
L 632.0663 218.43535 
L 649.7724 219.903986 
L 667.4785 220.286734 
L 685.1846 223.67522 
L 702.8907 221.641451 
L 720.5968 217.155831 
L 738.3029 224.791391 
L 756.009 226.749784 
L 773.7151 225.804041 
L 791.4212 228.100653 
L 809.1273 229.077782 
L 826.8334 228.184885 
L 844.5395 224.993747 
L 862.2456 219.877429 
L 879.9517 224.086365 
L 897.6578 225.224026 
L 915.3639 224.035108 
L 933.07 228.558898 
" clip-path="url(#pfd6b2d0fbd)" style="fill: none; stroke: #8c564b; stroke-width: 1.5; stroke-linecap: square"/>
   </g>
   <g id="line2d_19">
    <path d="M 47.765 250.26639 
L 65.4711 245.612355 
L 83.1772 241.478359 
L 100.8833 237.863368 
L 118.5894 237.965931 
L 136.2955 238.820695 
L 154.0016 238.176388 
L 171.7077 239.752612 
L 189.4138 241.062328 
L 207.1199 246.508083 
L 224.826 242.190228 
L 242.5321 238.13462 
L 260.2382 242.387843 
L 277.9443 243.357654 
L 295.6504 238.589084 
L 313.3565 238.222433 
L 331.0626 242.372374 
L 348.7687 243.116661 
L 366.4748 243.40466 
L 384.1809 242.930864 
L 401.887 244.370354 
L 419.5931 242.12945 
L 437.2992 243.158423 
L 455.0053 238.944987 
L 472.7114 236.845338 
L 490.4175 233.04544 
L 508.1236 231.531791 
L 525.8297 237.814227 
L 543.5358 238.51594 
L 561.2419 225.703181 
L 578.948 222.723742 
L 596.6541 222.170507 
L 614.3602 218.768071 
L 632.0663 220.2168 
L 649.7724 230.064877 
L 667.4785 228.592002 
L 685.1846 231.924806 
L 702.8907 232.753173 
L 720.5968 234.240866 
L 738.3029 231.052402 
L 756.009 247.344766 
L 773.7151 250.570052 
L 791.4212 250.739708 
L 809.1273 250.978782 
L 826.8334 247.946659 
L 844.5395 240.800352 
L 862.2456 237.764311 
L 879.9517 237.627165 
L 897.6578 241.251095 
L 915.3639 244.884941 
L 933.07 241.697816 
" clip-path="url(#pfd6b2d0fbd)" style="fill: none; stroke: #e377c2; stroke-width: 1.5; stroke-linecap: square"/>
   </g>
   <g id="line2d_20">
    <path d="M 47.765 246.754891 
L 65.4711 239.203176 
L 83.1772 238.61209 
L 100.8833 233.318421 
L 118.5894 230.710047 
L 136.2955 231.161082 
L 154.0016 232.845497 
L 171.7077 232.810244 
L 189.4138 228.223439 
L 207.1199 230.179459 
L 224.826 226.518527 
L 242.5321 226.600125 
L 260.2382 227.741477 
L 277.9443 228.304387 
L 295.6504 227.167927 
L 313.3565 226.349233 
L 331.0626 221.080311 
L 348.7687 226.714423 
L 366.4748 223.418365 
L 384.1809 219.366775 
L 401.887 216.306334 
L 419.5931 215.362447 
L 437.2992 216.046686 
L 455.0053 216.717418 
L 472.7114 210.347855 
L 490.4175 209.123333 
L 508.1236 207.724946 
L 525.8297 211.342711 
L 543.5358 216.936302 
L 561.2419 213.788207 
L 578.948 205.375834 
L 596.6541 210.93093 
L 614.3602 217.530281 
L 632.0663 213.501667 
L 649.7724 217.743395 
L 667.4785 216.873456 
L 685.1846 217.622082 
L 702.8907 224.090429 
L 720.5968 223.33268 
L 738.3029 222.362055 
L 756.009 219.984191 
L 773.7151 218.999586 
L 791.4212 214.662672 
L 809.1273 217.532696 
L 826.8334 217.688138 
L 844.5395 214.98622 
L 862.2456 215.70518 
L 879.9517 216.720143 
L 897.6578 220.729936 
L 915.3639 223.215183 
L 933.07 223.636476 
" clip-path="url(#pfd6b2d0fbd)" style="fill: none; stroke: #7f7f7f; stroke-width: 1.5; stroke-linecap: square"/>
   </g>
   <g id="line2d_21">
    <path d="M 47.765 230.105762 
L 65.4711 224.378444 
L 83.1772 222.970063 
L 100.8833 223.534733 
L 118.5894 221.889278 
L 136.2955 215.298486 
L 154.0016 215.561393 
L 171.7077 216.90494 
L 189.4138 218.202328 
L 207.1199 211.790921 
L 224.826 212.627345 
L 242.5321 213.59374 
L 260.2382 210.877322 
L 277.9443 211.742965 
L 295.6504 211.409865 
L 313.3565 212.022698 
L 331.0626 212.668066 
L 348.7687 217.442539 
L 366.4748 214.90443 
L 384.1809 214.886959 
L 401.887 216.210427 
L 419.5931 210.293771 
L 437.2992 215.840807 
L 455.0053 213.049258 
L 472.7114 201.83595 
L 490.4175 203.284911 
L 508.1236 198.202181 
L 525.8297 210.167531 
L 543.5358 198.300721 
L 561.2419 203.400677 
L 578.948 210.232486 
L 596.6541 205.983185 
L 614.3602 207.735964 
L 632.0663 205.332091 
L 649.7724 202.434207 
L 667.4785 201.151152 
L 685.1846 200.284623 
L 702.8907 203.665201 
L 720.5968 206.302288 
L 738.3029 207.461866 
L 756.009 205.604748 
L 773.7151 206.09573 
L 791.4212 209.862818 
L 809.1273 203.700748 
L 826.8334 206.34191 
L 844.5395 212.468516 
L 862.2456 206.768008 
L 879.9517 204.521634 
L 897.6578 212.576358 
L 915.3639 212.591826 
L 933.07 211.781165 
" clip-path="url(#pfd6b2d0fbd)" style="fill: none; stroke: #bcbd22; stroke-width: 1.5; stroke-linecap: square"/>
   </g>
   <g id="line2d_22">
    <path d="M 47.765 234.331377 
L 65.4711 235.070541 
L 83.1772 241.025778 
L 100.8833 248.419709 
L 118.5894 244.507605 
L 136.2955 241.728486 
L 154.0016 245.117705 
L 171.7077 243.523195 
L 189.4138 246.097741 
L 207.1199 241.554887 
L 224.826 238.594488 
L 242.5321 239.792949 
L 260.2382 231.857167 
L 277.9443 231.960539 
L 295.6504 235.421315 
L 313.3565 234.64147 
L 331.0626 245.959479 
L 348.7687 243.186639 
L 366.4748 232.471613 
L 384.1809 233.943061 
L 401.887 229.847951 
L 419.5931 225.605759 
L 437.2992 235.560039 
L 455.0053 228.967974 
L 472.7114 234.004554 
L 490.4175 224.540373 
L 508.1236 226.233066 
L 525.8297 227.913297 
L 543.5358 231.105081 
L 561.2419 225.402726 
L 578.948 229.122747 
L 596.6541 223.719269 
L 614.3602 229.382094 
L 632.0663 232.185095 
L 649.7724 234.756249 
L 667.4785 229.607088 
L 685.1846 220.489443 
L 702.8907 223.768993 
L 720.5968 219.72187 
L 738.3029 228.026284 
L 756.009 223.091151 
L 773.7151 222.815437 
L 791.4212 214.800454 
L 809.1273 214.540981 
L 826.8334 218.577478 
L 844.5395 216.963584 
L 862.2456 208.454533 
L 879.9517 204.656891 
L 897.6578 211.155766 
L 915.3639 216.900558 
L 933.07 218.431802 
" clip-path="url(#pfd6b2d0fbd)" style="fill: none; stroke: #17becf; stroke-width: 1.5; stroke-linecap: square"/>
   </g>
   <g id="line2d_23">
    <path d="M 47.765 194.991172 
L 65.4711 197.33078 
L 83.1772 190.417733 
L 100.8833 185.984813 
L 118.5894 192.301274 
L 136.2955 195.271692 
L 154.0016 191.719012 
L 171.7077 197.669713 
L 189.4138 197.673639 
L 207.1199 201.041673 
L 224.826 199.677613 
L 242.5321 198.63754 
L 260.2382 195.294813 
L 277.9443 193.937411 
L 295.6504 201.273298 
L 313.3565 204.055077 
L 331.0626 212.41543 
L 348.7687 213.327435 
L 366.4748 211.405215 
L 384.1809 211.79061 
L 401.887 208.675492 
L 419.5931 210.542952 
L 437.2992 209.834653 
L 455.0053 213.986717 
L 472.7114 217.990755 
L 490.4175 217.255947 
L 508.1236 214.924051 
L 525.8297 214.083709 
L 543.5358 217.097447 
L 561.2419 228.00369 
L 578.948 230.350175 
L 596.6541 227.592702 
L 614.3602 221.589401 
L 632.0663 229.003718 
L 649.7724 221.272094 
L 667.4785 221.406007 
L 685.1846 224.516491 
L 702.8907 221.744586 
L 720.5968 216.170259 
L 738.3029 217.857101 
L 756.009 225.347603 
L 773.7151 228.105396 
L 791.4212 233.000377 
L 809.1273 226.160002 
L 826.8334 216.752124 
L 844.5395 221.305712 
L 862.2456 223.310166 
L 879.9517 215.878636 
L 897.6578 220.128863 
L 915.3639 223.173955 
L 933.07 231.289765 
" clip-path="url(#pfd6b2d0fbd)" style="fill: none; stroke: #9edae5; stroke-width: 1.5; stroke-linecap: square"/>
   </g>
   <g id="patch_3">
    <path d="M 47.765 606.04 
L 47.765 30.748 
" style="fill: none; stroke: #000000; stroke-width: 0.8; stroke-linejoin: miter; stroke-linecap: square"/>
   </g>
   <g id="patch_4">
    <path d="M 933.07 606.04 
L 933.07 30.748 
" style="fill: none; stroke: #000000; stroke-width: 0.8; stroke-linejoin: miter; stroke-linecap: square"/>
   </g>
   <g id="patch_5">
    <path d="M 47.765 606.04 
L 933.07 606.04 
" style="fill: none; stroke: #000000; stroke-width: 0.8; stroke-linejoin: miter; stroke-linecap: square"/>
   </g>
   <g id="patch_6">
    <path d="M 47.765 30.748 
L 933.07 30.748 
" style="fill: none; stroke: #000000; stroke-width: 0.8; stroke-linejoin: miter; stroke-linecap: square"/>
   </g>
   <g id="text_15">
    <!-- Aggregated NMF ARI Scores by Number of Baits for Each Method -->
    <g transform="translate(295.666875 24.748) scale(0.12 -0.12)">
     <defs>
      <path id="DejaVuSans-79" d="M 2059 -325 
Q 1816 -950 1584 -1140 
Q 1353 -1331 966 -1331 
L 506 -1331 
L 506 -850 
L 844 -850 
Q 1081 -850 1212 -737 
Q 1344 -625 1503 -206 
L 1606 56 
L 191 3500 
L 800 3500 
L 1894 763 
L 2988 3500 
L 3597 3500 
L 2059 -325 
z
" transform="scale(0.015625)"/>
      <path id="DejaVuSans-45" d="M 628 4666 
L 3578 4666 
L 3578 4134 
L 1259 4134 
L 1259 2753 
L 3481 2753 
L 3481 2222 
L 1259 2222 
L 1259 531 
L 3634 531 
L 3634 0 
L 628 0 
L 628 4666 
z
" transform="scale(0.015625)"/>
      <path id="DejaVuSans-68" d="M 3513 2113 
L 3513 0 
L 2938 0 
L 2938 2094 
Q 2938 2591 2744 2837 
Q 2550 3084 2163 3084 
Q 1697 3084 1428 2787 
Q 1159 2491 1159 1978 
L 1159 0 
L 581 0 
L 581 4863 
L 1159 4863 
L 1159 2956 
Q 1366 3272 1645 3428 
Q 1925 3584 2291 3584 
Q 2894 3584 3203 3211 
Q 3513 2838 3513 2113 
z
" transform="scale(0.015625)"/>
     </defs>
     <use xlink:href="#DejaVuSans-41"/>
     <use xlink:href="#DejaVuSans-67" x="68.408203"/>
     <use xlink:href="#DejaVuSans-67" x="131.884766"/>
     <use xlink:href="#DejaVuSans-72" x="195.361328"/>
     <use xlink:href="#DejaVuSans-65" x="234.224609"/>
     <use xlink:href="#DejaVuSans-67" x="295.748047"/>
     <use xlink:href="#DejaVuSans-61" x="359.224609"/>
     <use xlink:href="#DejaVuSans-74" x="420.503906"/>
     <use xlink:href="#DejaVuSans-65" x="459.712891"/>
     <use xlink:href="#DejaVuSans-64" x="521.236328"/>
     <use xlink:href="#DejaVuSans-20" x="584.712891"/>
     <use xlink:href="#DejaVuSans-4e" x="616.5"/>
     <use xlink:href="#DejaVuSans-4d" x="691.304688"/>
     <use xlink:href="#DejaVuSans-46" x="777.583984"/>
     <use xlink:href="#DejaVuSans-20" x="835.103516"/>
     <use xlink:href="#DejaVuSans-41" x="866.890625"/>
     <use xlink:href="#DejaVuSans-52" x="935.298828"/>
     <use xlink:href="#DejaVuSans-49" x="1004.78125"/>
     <use xlink:href="#DejaVuSans-20" x="1034.273438"/>
     <use xlink:href="#DejaVuSans-53" x="1066.060547"/>
     <use xlink:href="#DejaVuSans-63" x="1129.537109"/>
     <use xlink:href="#DejaVuSans-6f" x="1184.517578"/>
     <use xlink:href="#DejaVuSans-72" x="1245.699219"/>
     <use xlink:href="#DejaVuSans-65" x="1284.5625"/>
     <use xlink:href="#DejaVuSans-73" x="1346.085938"/>
     <use xlink:href="#DejaVuSans-20" x="1398.185547"/>
     <use xlink:href="#DejaVuSans-62" x="1429.972656"/>
     <use xlink:href="#DejaVuSans-79" x="1493.449219"/>
     <use xlink:href="#DejaVuSans-20" x="1552.628906"/>
     <use xlink:href="#DejaVuSans-4e" x="1584.416016"/>
     <use xlink:href="#DejaVuSans-75" x="1659.220703"/>
     <use xlink:href="#DejaVuSans-6d" x="1722.599609"/>
     <use xlink:href="#DejaVuSans-62" x="1820.011719"/>
     <use xlink:href="#DejaVuSans-65" x="1883.488281"/>
     <use xlink:href="#DejaVuSans-72" x="1945.011719"/>
     <use xlink:href="#DejaVuSans-20" x="1986.125"/>
     <use xlink:href="#DejaVuSans-6f" x="2017.912109"/>
     <use xlink:href="#DejaVuSans-66" x="2079.09375"/>
     <use xlink:href="#DejaVuSans-20" x="2114.298828"/>
     <use xlink:href="#DejaVuSans-42" x="2146.085938"/>
     <use xlink:href="#DejaVuSans-61" x="2214.689453"/>
     <use xlink:href="#DejaVuSans-69" x="2275.96875"/>
     <use xlink:href="#DejaVuSans-74" x="2303.751953"/>
     <use xlink:href="#DejaVuSans-73" x="2342.960938"/>
     <use xlink:href="#DejaVuSans-20" x="2395.060547"/>
     <use xlink:href="#DejaVuSans-66" x="2426.847656"/>
     <use xlink:href="#DejaVuSans-6f" x="2462.052734"/>
     <use xlink:href="#DejaVuSans-72" x="2523.234375"/>
     <use xlink:href="#DejaVuSans-20" x="2564.347656"/>
     <use xlink:href="#DejaVuSans-45" x="2596.134766"/>
     <use xlink:href="#DejaVuSans-61" x="2659.318359"/>
     <use xlink:href="#DejaVuSans-63" x="2720.597656"/>
     <use xlink:href="#DejaVuSans-68" x="2775.578125"/>
     <use xlink:href="#DejaVuSans-20" x="2838.957031"/>
     <use xlink:href="#DejaVuSans-4d" x="2870.744141"/>
     <use xlink:href="#DejaVuSans-65" x="2957.023438"/>
     <use xlink:href="#DejaVuSans-74" x="3018.546875"/>
     <use xlink:href="#DejaVuSans-68" x="3057.755859"/>
     <use xlink:href="#DejaVuSans-6f" x="3121.134766"/>
     <use xlink:href="#DejaVuSans-64" x="3182.316406"/>
    </g>
   </g>
   <g id="legend_1">
    <g id="patch_7">
     <path d="M 940.07 172.555275 
L 1067.18875 172.555275 
Q 1069.18875 172.555275 1069.18875 170.555275 
L 1069.18875 8.9834 
Q 1069.18875 6.9834 1067.18875 6.9834 
L 940.07 6.9834 
Q 938.07 6.9834 938.07 8.9834 
L 938.07 170.555275 
Q 938.07 172.555275 940.07 172.555275 
z
" style="fill: #ffffff; opacity: 0.8; stroke: #cccccc; stroke-linejoin: miter"/>
    </g>
    <g id="line2d_24">
     <path d="M 942.07 15.081838 
L 952.07 15.081838 
L 962.07 15.081838 
" style="fill: none; stroke: #1f77b4; stroke-width: 1.5; stroke-linecap: square"/>
    </g>
    <g id="text_16">
     <!-- GA -->
     <g transform="translate(970.07 18.581838) scale(0.1 -0.1)">
      <defs>
       <path id="DejaVuSans-47" d="M 3809 666 
L 3809 1919 
L 2778 1919 
L 2778 2438 
L 4434 2438 
L 4434 434 
Q 4069 175 3628 42 
Q 3188 -91 2688 -91 
Q 1594 -91 976 548 
Q 359 1188 359 2328 
Q 359 3472 976 4111 
Q 1594 4750 2688 4750 
Q 3144 4750 3555 4637 
Q 3966 4525 4313 4306 
L 4313 3634 
Q 3963 3931 3569 4081 
Q 3175 4231 2741 4231 
Q 1884 4231 1454 3753 
Q 1025 3275 1025 2328 
Q 1025 1384 1454 906 
Q 1884 428 2741 428 
Q 3075 428 3337 486 
Q 3600 544 3809 666 
z
" transform="scale(0.015625)"/>
      </defs>
      <use xlink:href="#DejaVuSans-47"/>
      <use xlink:href="#DejaVuSans-41" x="77.490234"/>
     </g>
    </g>
    <g id="line2d_25">
     <path d="M 942.07 29.759963 
L 952.07 29.759963 
L 962.07 29.759963 
" style="fill: none; stroke: #ff7f0e; stroke-width: 1.5; stroke-linecap: square"/>
    </g>
    <g id="text_17">
     <!-- Random -->
     <g transform="translate(970.07 33.259963) scale(0.1 -0.1)">
      <defs>
       <path id="DejaVuSans-6e" d="M 3513 2113 
L 3513 0 
L 2938 0 
L 2938 2094 
Q 2938 2591 2744 2837 
Q 2550 3084 2163 3084 
Q 1697 3084 1428 2787 
Q 1159 2491 1159 1978 
L 1159 0 
L 581 0 
L 581 3500 
L 1159 3500 
L 1159 2956 
Q 1366 3272 1645 3428 
Q 1925 3584 2291 3584 
Q 2894 3584 3203 3211 
Q 3513 2838 3513 2113 
z
" transform="scale(0.015625)"/>
      </defs>
      <use xlink:href="#DejaVuSans-52"/>
      <use xlink:href="#DejaVuSans-61" x="67.232422"/>
      <use xlink:href="#DejaVuSans-6e" x="128.511719"/>
      <use xlink:href="#DejaVuSans-64" x="191.890625"/>
      <use xlink:href="#DejaVuSans-6f" x="255.367188"/>
      <use xlink:href="#DejaVuSans-6d" x="316.548828"/>
     </g>
    </g>
    <g id="line2d_26">
     <path d="M 942.07 44.438088 
L 952.07 44.438088 
L 962.07 44.438088 
" style="fill: none; stroke: #2ca02c; stroke-width: 1.5; stroke-linecap: square"/>
    </g>
    <g id="text_18">
     <!-- chi_2 -->
     <g transform="translate(970.07 47.938088) scale(0.1 -0.1)">
      <defs>
       <path id="DejaVuSans-5f" d="M 3263 -1063 
L 3263 -1509 
L -63 -1509 
L -63 -1063 
L 3263 -1063 
z
" transform="scale(0.015625)"/>
      </defs>
      <use xlink:href="#DejaVuSans-63"/>
      <use xlink:href="#DejaVuSans-68" x="54.980469"/>
      <use xlink:href="#DejaVuSans-69" x="118.359375"/>
      <use xlink:href="#DejaVuSans-5f" x="146.142578"/>
      <use xlink:href="#DejaVuSans-32" x="196.142578"/>
     </g>
    </g>
    <g id="line2d_27">
     <path d="M 942.07 59.394338 
L 952.07 59.394338 
L 962.07 59.394338 
" style="fill: none; stroke: #d62728; stroke-width: 1.5; stroke-linecap: square"/>
    </g>
    <g id="text_19">
     <!-- f_classif -->
     <g transform="translate(970.07 62.894338) scale(0.1 -0.1)">
      <defs>
       <path id="DejaVuSans-6c" d="M 603 4863 
L 1178 4863 
L 1178 0 
L 603 0 
L 603 4863 
z
" transform="scale(0.015625)"/>
      </defs>
      <use xlink:href="#DejaVuSans-66"/>
      <use xlink:href="#DejaVuSans-5f" x="35.205078"/>
      <use xlink:href="#DejaVuSans-63" x="85.205078"/>
      <use xlink:href="#DejaVuSans-6c" x="140.185547"/>
      <use xlink:href="#DejaVuSans-61" x="167.96875"/>
      <use xlink:href="#DejaVuSans-73" x="229.248047"/>
      <use xlink:href="#DejaVuSans-73" x="281.347656"/>
      <use xlink:href="#DejaVuSans-69" x="333.447266"/>
      <use xlink:href="#DejaVuSans-66" x="361.230469"/>
     </g>
    </g>
    <g id="line2d_28">
     <path d="M 942.07 74.350588 
L 952.07 74.350588 
L 962.07 74.350588 
" style="fill: none; stroke: #9467bd; stroke-width: 1.5; stroke-linecap: square"/>
    </g>
    <g id="text_20">
     <!-- mutual_info_classif -->
     <g transform="translate(970.07 77.850588) scale(0.1 -0.1)">
      <use xlink:href="#DejaVuSans-6d"/>
      <use xlink:href="#DejaVuSans-75" x="97.412109"/>
      <use xlink:href="#DejaVuSans-74" x="160.791016"/>
      <use xlink:href="#DejaVuSans-75" x="200"/>
      <use xlink:href="#DejaVuSans-61" x="263.378906"/>
      <use xlink:href="#DejaVuSans-6c" x="324.658203"/>
      <use xlink:href="#DejaVuSans-5f" x="352.441406"/>
      <use xlink:href="#DejaVuSans-69" x="402.441406"/>
      <use xlink:href="#DejaVuSans-6e" x="430.224609"/>
      <use xlink:href="#DejaVuSans-66" x="493.603516"/>
      <use xlink:href="#DejaVuSans-6f" x="528.808594"/>
      <use xlink:href="#DejaVuSans-5f" x="589.990234"/>
      <use xlink:href="#DejaVuSans-63" x="639.990234"/>
      <use xlink:href="#DejaVuSans-6c" x="694.970703"/>
      <use xlink:href="#DejaVuSans-61" x="722.753906"/>
      <use xlink:href="#DejaVuSans-73" x="784.033203"/>
      <use xlink:href="#DejaVuSans-73" x="836.132812"/>
      <use xlink:href="#DejaVuSans-69" x="888.232422"/>
      <use xlink:href="#DejaVuSans-66" x="916.015625"/>
     </g>
    </g>
    <g id="line2d_29">
     <path d="M 942.07 89.306838 
L 952.07 89.306838 
L 962.07 89.306838 
" style="fill: none; stroke: #8c564b; stroke-width: 1.5; stroke-linecap: square"/>
    </g>
    <g id="text_21">
     <!-- lasso -->
     <g transform="translate(970.07 92.806838) scale(0.1 -0.1)">
      <use xlink:href="#DejaVuSans-6c"/>
      <use xlink:href="#DejaVuSans-61" x="27.783203"/>
      <use xlink:href="#DejaVuSans-73" x="89.0625"/>
      <use xlink:href="#DejaVuSans-73" x="141.162109"/>
      <use xlink:href="#DejaVuSans-6f" x="193.261719"/>
     </g>
    </g>
    <g id="line2d_30">
     <path d="M 942.07 103.984963 
L 952.07 103.984963 
L 962.07 103.984963 
" style="fill: none; stroke: #e377c2; stroke-width: 1.5; stroke-linecap: square"/>
    </g>
    <g id="text_22">
     <!-- ridge -->
     <g transform="translate(970.07 107.484963) scale(0.1 -0.1)">
      <use xlink:href="#DejaVuSans-72"/>
      <use xlink:href="#DejaVuSans-69" x="41.113281"/>
      <use xlink:href="#DejaVuSans-64" x="68.896484"/>
      <use xlink:href="#DejaVuSans-67" x="132.373047"/>
      <use xlink:href="#DejaVuSans-65" x="195.849609"/>
     </g>
    </g>
    <g id="line2d_31">
     <path d="M 942.07 118.663088 
L 952.07 118.663088 
L 962.07 118.663088 
" style="fill: none; stroke: #7f7f7f; stroke-width: 1.5; stroke-linecap: square"/>
    </g>
    <g id="text_23">
     <!-- elastic_net -->
     <g transform="translate(970.07 122.163088) scale(0.1 -0.1)">
      <use xlink:href="#DejaVuSans-65"/>
      <use xlink:href="#DejaVuSans-6c" x="61.523438"/>
      <use xlink:href="#DejaVuSans-61" x="89.306641"/>
      <use xlink:href="#DejaVuSans-73" x="150.585938"/>
      <use xlink:href="#DejaVuSans-74" x="202.685547"/>
      <use xlink:href="#DejaVuSans-69" x="241.894531"/>
      <use xlink:href="#DejaVuSans-63" x="269.677734"/>
      <use xlink:href="#DejaVuSans-5f" x="324.658203"/>
      <use xlink:href="#DejaVuSans-6e" x="374.658203"/>
      <use xlink:href="#DejaVuSans-65" x="438.037109"/>
      <use xlink:href="#DejaVuSans-74" x="499.560547"/>
     </g>
    </g>
    <g id="line2d_32">
     <path d="M 942.07 133.619338 
L 952.07 133.619338 
L 962.07 133.619338 
" style="fill: none; stroke: #bcbd22; stroke-width: 1.5; stroke-linecap: square"/>
    </g>
    <g id="text_24">
     <!-- rf -->
     <g transform="translate(970.07 137.119338) scale(0.1 -0.1)">
      <use xlink:href="#DejaVuSans-72"/>
      <use xlink:href="#DejaVuSans-66" x="41.113281"/>
     </g>
    </g>
    <g id="line2d_33">
     <path d="M 942.07 148.297463 
L 952.07 148.297463 
L 962.07 148.297463 
" style="fill: none; stroke: #17becf; stroke-width: 1.5; stroke-linecap: square"/>
    </g>
    <g id="text_25">
     <!-- gbm -->
     <g transform="translate(970.07 151.797463) scale(0.1 -0.1)">
      <use xlink:href="#DejaVuSans-67"/>
      <use xlink:href="#DejaVuSans-62" x="63.476562"/>
      <use xlink:href="#DejaVuSans-6d" x="126.953125"/>
     </g>
    </g>
    <g id="line2d_34">
     <path d="M 942.07 162.975588 
L 952.07 162.975588 
L 962.07 162.975588 
" style="fill: none; stroke: #9edae5; stroke-width: 1.5; stroke-linecap: square"/>
    </g>
    <g id="text_26">
     <!-- xgb -->
     <g transform="translate(970.07 166.475588) scale(0.1 -0.1)">
      <defs>
       <path id="DejaVuSans-78" d="M 3513 3500 
L 2247 1797 
L 3578 0 
L 2900 0 
L 1881 1375 
L 863 0 
L 184 0 
L 1544 1831 
L 300 3500 
L 978 3500 
L 1906 2253 
L 2834 3500 
L 3513 3500 
z
" transform="scale(0.015625)"/>
      </defs>
      <use xlink:href="#DejaVuSans-78"/>
      <use xlink:href="#DejaVuSans-67" x="59.179688"/>
      <use xlink:href="#DejaVuSans-62" x="122.65625"/>
     </g>
    </g>
   </g>
  </g>
 </g>
 <defs>
  <clipPath id="pfd6b2d0fbd">
   <rect x="47.765" y="30.748" width="885.305" height="575.292"/>
  </clipPath>
 </defs>
</svg>
