<?xml version="1.0" encoding="utf-8" standalone="no"?>
<!DOCTYPE svg PUBLIC "-//W3C//DTD SVG 1.1//EN"
  "http://www.w3.org/Graphics/SVG/1.1/DTD/svg11.dtd">
<svg xmlns:xlink="http://www.w3.org/1999/xlink" width="1080pt" height="648pt" viewBox="0 0 1080 648" xmlns="http://www.w3.org/2000/svg" version="1.1">
 <metadata>
  <rdf:RDF xmlns:dc="http://purl.org/dc/elements/1.1/" xmlns:cc="http://creativecommons.org/ns#" xmlns:rdf="http://www.w3.org/1999/02/22-rdf-syntax-ns#">
   <cc:Work>
    <dc:type rdf:resource="http://purl.org/dc/dcmitype/StillImage"/>
    <dc:date>2024-04-04T23:39:17.597467</dc:date>
    <dc:format>image/svg+xml</dc:format>
    <dc:creator>
     <cc:Agent>
      <dc:title>Matplotlib v3.7.2, https://matplotlib.org/</dc:title>
     </cc:Agent>
    </dc:creator>
   </cc:Work>
  </rdf:RDF>
 </metadata>
 <defs>
  <style type="text/css">*{stroke-linejoin: round; stroke-linecap: butt}</style>
 </defs>
 <g id="figure_1">
  <g id="patch_1">
   <path d="M 0 648 
L 1080 648 
L 1080 0 
L 0 0 
z
" style="fill: #ffffff"/>
  </g>
  <g id="axes_1">
   <g id="patch_2">
    <path d="M 44.57 606.04 
L 933.07 606.04 
L 933.07 30.748 
L 44.57 30.748 
z
" style="fill: #ffffff"/>
   </g>
   <g id="PolyCollection_1">
    <defs>
     <path id="m50de4b3f91" d="M 44.57 -266.594769 
L 44.57 -188.373513 
L 62.34 -181.780767 
L 80.11 -169.760054 
L 97.88 -165.079804 
L 115.65 -161.136056 
L 133.42 -154.273777 
L 151.19 -155.546461 
L 168.96 -151.393148 
L 186.73 -140.225322 
L 204.5 -138.136698 
L 222.27 -140.547356 
L 240.04 -134.633349 
L 257.81 -129.23796 
L 275.58 -127.78133 
L 293.35 -127.105425 
L 311.12 -125.493531 
L 328.89 -121.841349 
L 346.66 -121.056547 
L 364.43 -118.281485 
L 382.2 -113.152774 
L 399.97 -109.773384 
L 417.74 -114.648611 
L 435.51 -109.288957 
L 453.28 -109.183753 
L 471.05 -106.162866 
L 488.82 -104.855235 
L 506.59 -102.446992 
L 524.36 -105.446158 
L 542.13 -102.299223 
L 559.9 -95.773473 
L 577.67 -98.165279 
L 595.44 -96.920199 
L 613.21 -95.5687 
L 630.98 -95.505656 
L 648.75 -89.24867 
L 666.52 -84.917985 
L 684.29 -87.6804 
L 702.06 -87.115602 
L 719.83 -85.690359 
L 737.6 -82.975613 
L 755.37 -82.824361 
L 773.14 -81.990879 
L 790.91 -73.801916 
L 808.68 -76.608114 
L 826.45 -77.915507 
L 844.22 -74.315108 
L 861.99 -73.282077 
L 879.76 -76.246821 
L 897.53 -71.82422 
L 915.3 -71.804495 
L 933.07 -68.109636 
L 933.07 -127.358618 
L 933.07 -127.358618 
L 915.3 -135.545149 
L 897.53 -133.655707 
L 879.76 -139.904446 
L 861.99 -140.277403 
L 844.22 -135.001602 
L 826.45 -133.02398 
L 808.68 -140.3406 
L 790.91 -140.013683 
L 773.14 -144.765731 
L 755.37 -147.21699 
L 737.6 -138.760196 
L 719.83 -148.563014 
L 702.06 -145.372498 
L 684.29 -144.697179 
L 666.52 -140.273109 
L 648.75 -161.316911 
L 630.98 -146.651668 
L 613.21 -159.910276 
L 595.44 -161.801493 
L 577.67 -158.940703 
L 559.9 -151.77933 
L 542.13 -162.473855 
L 524.36 -169.268739 
L 506.59 -164.072531 
L 488.82 -163.85273 
L 471.05 -168.093458 
L 453.28 -170.623007 
L 435.51 -175.569216 
L 417.74 -175.512686 
L 399.97 -172.886851 
L 382.2 -180.741106 
L 364.43 -187.599491 
L 346.66 -185.811827 
L 328.89 -185.390679 
L 311.12 -193.215536 
L 293.35 -189.252988 
L 275.58 -193.799391 
L 257.81 -203.493461 
L 240.04 -203.520455 
L 222.27 -207.703189 
L 204.5 -209.14313 
L 186.73 -210.886587 
L 168.96 -222.390348 
L 151.19 -221.762913 
L 133.42 -220.435792 
L 115.65 -225.307581 
L 97.88 -235.298517 
L 80.11 -235.172115 
L 62.34 -247.324928 
L 44.57 -266.594769 
z
" style="stroke: #1f77b4; stroke-opacity: 0.2"/>
    </defs>
    <g clip-path="url(#p73fa385f28)">
     <use xlink:href="#m50de4b3f91" x="0" y="648" style="fill: #1f77b4; fill-opacity: 0.2; stroke: #1f77b4; stroke-opacity: 0.2"/>
    </g>
   </g>
   <g id="PolyCollection_2">
    <defs>
     <path id="ma17e277914" d="M 44.57 -591.102364 
L 44.57 -450.037439 
L 62.34 -417.482547 
L 80.11 -468.990246 
L 97.88 -443.444311 
L 115.65 -440.174945 
L 133.42 -443.233762 
L 151.19 -361.920524 
L 168.96 -401.459174 
L 186.73 -416.843239 
L 204.5 -396.728786 
L 222.27 -378.038929 
L 240.04 -373.764725 
L 257.81 -375.136064 
L 275.58 -376.975912 
L 293.35 -348.602719 
L 311.12 -364.099359 
L 328.89 -353.27821 
L 346.66 -334.846552 
L 364.43 -366.09589 
L 382.2 -381.099342 
L 399.97 -350.086537 
L 417.74 -354.20901 
L 435.51 -346.41312 
L 453.28 -342.225563 
L 471.05 -312.09312 
L 488.82 -319.427316 
L 506.59 -297.504231 
L 524.36 -329.126516 
L 542.13 -316.453804 
L 559.9 -294.401268 
L 577.67 -280.157575 
L 595.44 -317.545503 
L 613.21 -280.622146 
L 630.98 -271.416679 
L 648.75 -278.827771 
L 666.52 -286.551751 
L 684.29 -266.646433 
L 702.06 -270.577772 
L 719.83 -260.40881 
L 737.6 -249.919121 
L 755.37 -237.303058 
L 773.14 -256.665661 
L 790.91 -265.484034 
L 808.68 -248.233729 
L 826.45 -244.056848 
L 844.22 -224.90774 
L 861.99 -224.342671 
L 879.76 -269.503835 
L 897.53 -230.967078 
L 915.3 -249.861101 
L 933.07 -220.524185 
L 933.07 -297.29986 
L 933.07 -297.29986 
L 915.3 -322.050784 
L 897.53 -324.116689 
L 879.76 -348.948375 
L 861.99 -318.772508 
L 844.22 -338.465874 
L 826.45 -329.082196 
L 808.68 -306.821295 
L 790.91 -344.036937 
L 773.14 -352.780878 
L 755.37 -319.821833 
L 737.6 -336.528756 
L 719.83 -339.0817 
L 702.06 -367.789964 
L 684.29 -352.380691 
L 666.52 -369.285064 
L 648.75 -370.798162 
L 630.98 -377.48525 
L 613.21 -371.709984 
L 595.44 -396.394057 
L 577.67 -381.742579 
L 559.9 -396.938408 
L 542.13 -410.602802 
L 524.36 -413.274386 
L 506.59 -398.295488 
L 488.82 -421.33471 
L 471.05 -406.147557 
L 453.28 -420.491973 
L 435.51 -457.466025 
L 417.74 -425.52485 
L 399.97 -440.915733 
L 382.2 -459.641848 
L 364.43 -455.91701 
L 346.66 -446.290494 
L 328.89 -470.75565 
L 311.12 -435.941382 
L 293.35 -464.310467 
L 275.58 -487.865442 
L 257.81 -468.507621 
L 240.04 -481.175995 
L 222.27 -481.779573 
L 204.5 -502.113068 
L 186.73 -484.280627 
L 168.96 -502.081488 
L 151.19 -499.478875 
L 133.42 -529.365293 
L 115.65 -522.005343 
L 97.88 -557.185674 
L 80.11 -572.849893 
L 62.34 -549.983615 
L 44.57 -591.102364 
z
" style="stroke: #ff7f0e; stroke-opacity: 0.2"/>
    </defs>
    <g clip-path="url(#p73fa385f28)">
     <use xlink:href="#ma17e277914" x="0" y="648" style="fill: #ff7f0e; fill-opacity: 0.2; stroke: #ff7f0e; stroke-opacity: 0.2"/>
    </g>
   </g>
   <g id="PolyCollection_3">
    <defs>
     <path id="mbc713977bc" d="M 44.57 -324.288826 
L 44.57 -253.50593 
L 62.34 -249.269182 
L 80.11 -242.468192 
L 97.88 -239.988653 
L 115.65 -230.04899 
L 133.42 -224.119818 
L 151.19 -214.937741 
L 168.96 -211.168396 
L 186.73 -204.120628 
L 204.5 -201.824834 
L 222.27 -197.210263 
L 240.04 -193.84373 
L 257.81 -184.804618 
L 275.58 -180.774297 
L 293.35 -178.734209 
L 311.12 -173.894618 
L 328.89 -167.175225 
L 346.66 -163.314709 
L 364.43 -159.371954 
L 382.2 -154.418184 
L 399.97 -150.960078 
L 417.74 -149.449479 
L 435.51 -146.710616 
L 453.28 -146.312467 
L 471.05 -139.462129 
L 488.82 -133.042757 
L 506.59 -127.908858 
L 524.36 -126.455415 
L 542.13 -124.704901 
L 559.9 -125.038153 
L 577.67 -118.765281 
L 595.44 -116.76881 
L 613.21 -115.495534 
L 630.98 -115.983798 
L 648.75 -114.160893 
L 666.52 -111.531357 
L 684.29 -111.940932 
L 702.06 -107.672982 
L 719.83 -107.319501 
L 737.6 -106.385654 
L 755.37 -104.738605 
L 773.14 -102.821482 
L 790.91 -103.061762 
L 808.68 -102.573204 
L 826.45 -101.423406 
L 844.22 -101.632226 
L 861.99 -100.976294 
L 879.76 -100.373354 
L 897.53 -100.112029 
L 915.3 -100.487295 
L 933.07 -102.968338 
L 933.07 -167.908224 
L 933.07 -167.908224 
L 915.3 -164.238916 
L 897.53 -164.226721 
L 879.76 -162.541599 
L 861.99 -162.587436 
L 844.22 -162.28015 
L 826.45 -162.360655 
L 808.68 -163.808173 
L 790.91 -165.001502 
L 773.14 -165.423674 
L 755.37 -166.94377 
L 737.6 -170.254167 
L 719.83 -170.726489 
L 702.06 -172.153497 
L 684.29 -174.40233 
L 666.52 -176.640341 
L 648.75 -179.699062 
L 630.98 -180.81244 
L 613.21 -180.898638 
L 595.44 -180.625682 
L 577.67 -184.476668 
L 559.9 -186.697891 
L 542.13 -186.751293 
L 524.36 -187.776156 
L 506.59 -188.032857 
L 488.82 -189.103208 
L 471.05 -191.336859 
L 453.28 -194.82348 
L 435.51 -197.97731 
L 417.74 -198.736058 
L 399.97 -200.969686 
L 382.2 -205.327952 
L 364.43 -211.24232 
L 346.66 -215.120382 
L 328.89 -217.955482 
L 311.12 -223.74589 
L 293.35 -233.317727 
L 275.58 -232.188982 
L 257.81 -237.782789 
L 240.04 -245.733023 
L 222.27 -254.203007 
L 204.5 -258.539733 
L 186.73 -264.321008 
L 168.96 -280.654329 
L 151.19 -284.04366 
L 133.42 -290.743934 
L 115.65 -292.298249 
L 97.88 -303.003131 
L 80.11 -309.495838 
L 62.34 -317.400385 
L 44.57 -324.288826 
z
" style="stroke: #2ca02c; stroke-opacity: 0.2"/>
    </defs>
    <g clip-path="url(#p73fa385f28)">
     <use xlink:href="#mbc713977bc" x="0" y="648" style="fill: #2ca02c; fill-opacity: 0.2; stroke: #2ca02c; stroke-opacity: 0.2"/>
    </g>
   </g>
   <g id="PolyCollection_4">
    <defs>
     <path id="m45f4bfc748" d="M 44.57 -332.032614 
L 44.57 -243.871494 
L 62.34 -243.847654 
L 80.11 -236.768624 
L 97.88 -231.663513 
L 115.65 -230.549709 
L 133.42 -225.150584 
L 151.19 -223.983609 
L 168.96 -219.472411 
L 186.73 -215.598329 
L 204.5 -209.631312 
L 222.27 -207.404726 
L 240.04 -203.032535 
L 257.81 -197.530068 
L 275.58 -194.425388 
L 293.35 -186.652534 
L 311.12 -181.920792 
L 328.89 -180.828256 
L 346.66 -177.109593 
L 364.43 -171.390794 
L 382.2 -164.671016 
L 399.97 -162.220062 
L 417.74 -157.338266 
L 435.51 -155.307797 
L 453.28 -153.743693 
L 471.05 -148.237725 
L 488.82 -144.408668 
L 506.59 -142.487817 
L 524.36 -139.421966 
L 542.13 -134.045418 
L 559.9 -132.490064 
L 577.67 -130.037271 
L 595.44 -127.366277 
L 613.21 -124.96902 
L 630.98 -122.281305 
L 648.75 -117.845203 
L 666.52 -115.922255 
L 684.29 -114.354984 
L 702.06 -112.100725 
L 719.83 -110.257467 
L 737.6 -107.526011 
L 755.37 -106.446889 
L 773.14 -104.91322 
L 790.91 -104.204664 
L 808.68 -103.798046 
L 826.45 -103.585161 
L 844.22 -101.732344 
L 861.99 -102.711023 
L 879.76 -100.956584 
L 897.53 -100.341379 
L 915.3 -100.646996 
L 933.07 -100.796977 
L 933.07 -162.918311 
L 933.07 -162.918311 
L 915.3 -163.585911 
L 897.53 -162.517096 
L 879.76 -163.322291 
L 861.99 -168.944189 
L 844.22 -167.448286 
L 826.45 -166.113588 
L 808.68 -166.436406 
L 790.91 -168.82664 
L 773.14 -169.133054 
L 755.37 -170.464769 
L 737.6 -171.31103 
L 719.83 -175.478542 
L 702.06 -177.710238 
L 684.29 -179.125266 
L 666.52 -182.634567 
L 648.75 -183.900961 
L 630.98 -187.576315 
L 613.21 -188.107885 
L 595.44 -190.801586 
L 577.67 -193.48858 
L 559.9 -194.279627 
L 542.13 -197.332115 
L 524.36 -200.52128 
L 506.59 -203.715457 
L 488.82 -208.970695 
L 471.05 -209.812586 
L 453.28 -215.389173 
L 435.51 -218.038811 
L 417.74 -228.400891 
L 399.97 -240.661189 
L 382.2 -242.449211 
L 364.43 -248.709275 
L 346.66 -249.666598 
L 328.89 -256.482573 
L 311.12 -257.036224 
L 293.35 -259.510769 
L 275.58 -265.47749 
L 257.81 -271.215662 
L 240.04 -278.892047 
L 222.27 -280.735847 
L 204.5 -288.312486 
L 186.73 -292.645857 
L 168.96 -293.311673 
L 151.19 -299.903446 
L 133.42 -302.970731 
L 115.65 -305.629715 
L 97.88 -309.687672 
L 80.11 -313.032149 
L 62.34 -318.278605 
L 44.57 -332.032614 
z
" style="stroke: #d62728; stroke-opacity: 0.2"/>
    </defs>
    <g clip-path="url(#p73fa385f28)">
     <use xlink:href="#m45f4bfc748" x="0" y="648" style="fill: #d62728; fill-opacity: 0.2; stroke: #d62728; stroke-opacity: 0.2"/>
    </g>
   </g>
   <g id="PolyCollection_5">
    <defs>
     <path id="mfbb77a0dda" d="M 44.57 -366.638959 
L 44.57 -300.687205 
L 62.34 -287.274829 
L 80.11 -283.732208 
L 97.88 -281.348752 
L 115.65 -272.259379 
L 133.42 -258.385583 
L 151.19 -252.155982 
L 168.96 -250.917188 
L 186.73 -248.536751 
L 204.5 -240.983071 
L 222.27 -239.154787 
L 240.04 -233.367815 
L 257.81 -232.057638 
L 275.58 -229.727437 
L 293.35 -227.44375 
L 311.12 -228.899492 
L 328.89 -221.722597 
L 346.66 -218.852816 
L 364.43 -215.311076 
L 382.2 -213.351515 
L 399.97 -211.154165 
L 417.74 -208.308623 
L 435.51 -195.710337 
L 453.28 -191.675697 
L 471.05 -185.137702 
L 488.82 -184.622511 
L 506.59 -185.207282 
L 524.36 -178.037344 
L 542.13 -177.70837 
L 559.9 -177.627083 
L 577.67 -177.927027 
L 595.44 -173.121128 
L 613.21 -168.401762 
L 630.98 -164.819262 
L 648.75 -164.130743 
L 666.52 -162.789248 
L 684.29 -154.551039 
L 702.06 -154.385148 
L 719.83 -152.858715 
L 737.6 -151.364773 
L 755.37 -149.586716 
L 773.14 -145.180434 
L 790.91 -144.481466 
L 808.68 -133.772595 
L 826.45 -129.097476 
L 844.22 -123.33762 
L 861.99 -121.55364 
L 879.76 -116.83038 
L 897.53 -113.282316 
L 915.3 -111.3282 
L 933.07 -108.736081 
L 933.07 -177.148822 
L 933.07 -177.148822 
L 915.3 -181.340427 
L 897.53 -183.932132 
L 879.76 -188.590045 
L 861.99 -193.987452 
L 844.22 -194.598277 
L 826.45 -198.400452 
L 808.68 -204.009643 
L 790.91 -215.623936 
L 773.14 -221.161612 
L 755.37 -226.469674 
L 737.6 -226.85218 
L 719.83 -226.008776 
L 702.06 -226.703274 
L 684.29 -228.364053 
L 666.52 -239.400907 
L 648.75 -241.822093 
L 630.98 -244.283071 
L 613.21 -249.4021 
L 595.44 -248.185399 
L 577.67 -246.456549 
L 559.9 -248.426573 
L 542.13 -248.703989 
L 524.36 -249.212557 
L 506.59 -256.943836 
L 488.82 -263.861856 
L 471.05 -258.559565 
L 453.28 -263.1193 
L 435.51 -275.445156 
L 417.74 -287.167361 
L 399.97 -285.679047 
L 382.2 -276.277448 
L 364.43 -278.080174 
L 346.66 -279.004037 
L 328.89 -284.076821 
L 311.12 -295.099363 
L 293.35 -295.478741 
L 275.58 -293.932713 
L 257.81 -295.312995 
L 240.04 -296.462158 
L 222.27 -301.116436 
L 204.5 -302.63466 
L 186.73 -314.637011 
L 168.96 -317.204901 
L 151.19 -320.303117 
L 133.42 -325.023699 
L 115.65 -336.840746 
L 97.88 -347.125928 
L 80.11 -354.743462 
L 62.34 -356.975476 
L 44.57 -366.638959 
z
" style="stroke: #9467bd; stroke-opacity: 0.2"/>
    </defs>
    <g clip-path="url(#p73fa385f28)">
     <use xlink:href="#mfbb77a0dda" x="0" y="648" style="fill: #9467bd; fill-opacity: 0.2; stroke: #9467bd; stroke-opacity: 0.2"/>
    </g>
   </g>
   <g id="PolyCollection_6">
    <defs>
     <path id="me95ccec563" d="M 44.57 -280.575872 
L 44.57 -201.910989 
L 62.34 -198.123172 
L 80.11 -190.704304 
L 97.88 -189.109105 
L 115.65 -185.741867 
L 133.42 -180.306858 
L 151.19 -179.725856 
L 168.96 -177.063076 
L 186.73 -173.268217 
L 204.5 -169.061297 
L 222.27 -164.631946 
L 240.04 -160.984762 
L 257.81 -161.617941 
L 275.58 -159.8505 
L 293.35 -156.083462 
L 311.12 -154.243597 
L 328.89 -153.349973 
L 346.66 -152.724012 
L 364.43 -150.882139 
L 382.2 -148.946637 
L 399.97 -147.811491 
L 417.74 -145.242238 
L 435.51 -144.752488 
L 453.28 -143.019634 
L 471.05 -142.950233 
L 488.82 -143.110071 
L 506.59 -142.808479 
L 524.36 -140.715509 
L 542.13 -139.698792 
L 559.9 -136.738139 
L 577.67 -132.171254 
L 595.44 -130.566234 
L 613.21 -129.337904 
L 630.98 -125.690605 
L 648.75 -123.357133 
L 666.52 -121.471333 
L 684.29 -117.527499 
L 702.06 -113.853116 
L 719.83 -111.085766 
L 737.6 -108.224021 
L 755.37 -106.34413 
L 773.14 -104.403158 
L 790.91 -101.494839 
L 808.68 -99.873162 
L 826.45 -95.216381 
L 844.22 -94.064751 
L 861.99 -92.549381 
L 879.76 -89.310546 
L 897.53 -87.07877 
L 915.3 -82.828776 
L 933.07 -83.074477 
L 933.07 -145.254844 
L 933.07 -145.254844 
L 915.3 -150.286192 
L 897.53 -151.828113 
L 879.76 -151.691218 
L 861.99 -154.298373 
L 844.22 -158.12823 
L 826.45 -159.509362 
L 808.68 -162.341186 
L 790.91 -161.165239 
L 773.14 -165.318864 
L 755.37 -163.904961 
L 737.6 -165.412065 
L 719.83 -167.435514 
L 702.06 -171.026704 
L 684.29 -172.947916 
L 666.52 -177.581713 
L 648.75 -178.03345 
L 630.98 -180.594446 
L 613.21 -187.664884 
L 595.44 -186.676528 
L 577.67 -190.789924 
L 559.9 -192.022767 
L 542.13 -195.990157 
L 524.36 -195.180716 
L 506.59 -192.124591 
L 488.82 -193.442096 
L 471.05 -194.093195 
L 453.28 -197.600487 
L 435.51 -197.619729 
L 417.74 -198.630954 
L 399.97 -200.473386 
L 382.2 -201.713592 
L 364.43 -202.606981 
L 346.66 -205.916422 
L 328.89 -206.636946 
L 311.12 -206.249785 
L 293.35 -209.462402 
L 275.58 -210.009111 
L 257.81 -211.363726 
L 240.04 -220.872554 
L 222.27 -221.417842 
L 204.5 -217.151396 
L 186.73 -224.635278 
L 168.96 -228.592877 
L 151.19 -231.380644 
L 133.42 -241.376903 
L 115.65 -244.12523 
L 97.88 -251.309944 
L 80.11 -266.956511 
L 62.34 -274.917043 
L 44.57 -280.575872 
z
" style="stroke: #8c564b; stroke-opacity: 0.2"/>
    </defs>
    <g clip-path="url(#p73fa385f28)">
     <use xlink:href="#me95ccec563" x="0" y="648" style="fill: #8c564b; fill-opacity: 0.2; stroke: #8c564b; stroke-opacity: 0.2"/>
    </g>
   </g>
   <g id="PolyCollection_7">
    <defs>
     <path id="m7b82e6a605" d="M 44.57 -268.080401 
L 44.57 -201.54495 
L 62.34 -199.36875 
L 80.11 -192.690304 
L 97.88 -189.428463 
L 115.65 -185.195134 
L 133.42 -181.977272 
L 151.19 -179.316396 
L 168.96 -175.229757 
L 186.73 -174.915119 
L 204.5 -170.741044 
L 222.27 -169.568264 
L 240.04 -163.813646 
L 257.81 -162.881206 
L 275.58 -163.234695 
L 293.35 -162.0466 
L 311.12 -156.436963 
L 328.89 -153.452553 
L 346.66 -152.698513 
L 364.43 -149.57157 
L 382.2 -147.831881 
L 399.97 -143.784896 
L 417.74 -139.922741 
L 435.51 -136.934347 
L 453.28 -134.034705 
L 471.05 -130.359451 
L 488.82 -126.809584 
L 506.59 -122.739985 
L 524.36 -119.457212 
L 542.13 -116.469661 
L 559.9 -111.435425 
L 577.67 -111.395595 
L 595.44 -110.57526 
L 613.21 -110.740284 
L 630.98 -108.178117 
L 648.75 -104.403398 
L 666.52 -101.813744 
L 684.29 -98.290912 
L 702.06 -92.466776 
L 719.83 -92.768858 
L 737.6 -91.597228 
L 755.37 -89.275326 
L 773.14 -85.036377 
L 790.91 -84.884713 
L 808.68 -84.058381 
L 826.45 -81.832936 
L 844.22 -81.635526 
L 861.99 -81.090016 
L 879.76 -80.059016 
L 897.53 -78.024387 
L 915.3 -76.015165 
L 933.07 -75.65396 
L 933.07 -131.337418 
L 933.07 -131.337418 
L 915.3 -133.812992 
L 897.53 -133.708094 
L 879.76 -132.948903 
L 861.99 -133.377563 
L 844.22 -137.193144 
L 826.45 -139.106195 
L 808.68 -142.337136 
L 790.91 -145.703768 
L 773.14 -147.315266 
L 755.37 -150.165504 
L 737.6 -147.283583 
L 719.83 -148.023656 
L 702.06 -152.191786 
L 684.29 -156.343461 
L 666.52 -160.392314 
L 648.75 -163.780021 
L 630.98 -164.457075 
L 613.21 -167.260981 
L 595.44 -168.493103 
L 577.67 -173.612587 
L 559.9 -173.834744 
L 542.13 -178.788323 
L 524.36 -177.510356 
L 506.59 -181.470043 
L 488.82 -180.18302 
L 471.05 -186.799878 
L 453.28 -188.844129 
L 435.51 -192.410983 
L 417.74 -193.585759 
L 399.97 -196.916434 
L 382.2 -201.938459 
L 364.43 -200.930437 
L 346.66 -203.426775 
L 328.89 -205.727374 
L 311.12 -208.948215 
L 293.35 -216.848668 
L 275.58 -219.136014 
L 257.81 -219.530108 
L 240.04 -215.894189 
L 222.27 -222.260667 
L 204.5 -228.835869 
L 186.73 -226.306475 
L 168.96 -229.951511 
L 151.19 -229.979324 
L 133.42 -234.667681 
L 115.65 -235.419513 
L 97.88 -239.61615 
L 80.11 -247.014437 
L 62.34 -254.934391 
L 44.57 -268.080401 
z
" style="stroke: #e377c2; stroke-opacity: 0.2"/>
    </defs>
    <g clip-path="url(#p73fa385f28)">
     <use xlink:href="#m7b82e6a605" x="0" y="648" style="fill: #e377c2; fill-opacity: 0.2; stroke: #e377c2; stroke-opacity: 0.2"/>
    </g>
   </g>
   <g id="PolyCollection_8">
    <defs>
     <path id="mf7ab918b69" d="M 44.57 -260.834425 
L 44.57 -202.844886 
L 62.34 -192.358806 
L 80.11 -188.96457 
L 97.88 -183.953681 
L 115.65 -182.505053 
L 133.42 -180.860756 
L 151.19 -181.20941 
L 168.96 -179.572718 
L 186.73 -178.133396 
L 204.5 -170.96627 
L 222.27 -167.206013 
L 240.04 -165.219276 
L 257.81 -163.6364 
L 275.58 -159.761375 
L 293.35 -153.931024 
L 311.12 -153.408262 
L 328.89 -152.557502 
L 346.66 -149.030153 
L 364.43 -143.004886 
L 382.2 -140.47711 
L 399.97 -139.014358 
L 417.74 -138.641983 
L 435.51 -139.081984 
L 453.28 -138.674246 
L 471.05 -134.311283 
L 488.82 -129.867957 
L 506.59 -126.510692 
L 524.36 -126.691117 
L 542.13 -125.586428 
L 559.9 -124.02596 
L 577.67 -120.353685 
L 595.44 -121.246652 
L 613.21 -119.781108 
L 630.98 -115.979429 
L 648.75 -111.058219 
L 666.52 -108.612749 
L 684.29 -108.122815 
L 702.06 -106.888302 
L 719.83 -107.711371 
L 737.6 -108.099176 
L 755.37 -103.288644 
L 773.14 -98.957234 
L 790.91 -93.907614 
L 808.68 -93.071616 
L 826.45 -90.599034 
L 844.22 -87.666284 
L 861.99 -86.276814 
L 879.76 -84.225078 
L 897.53 -86.597758 
L 915.3 -87.856307 
L 933.07 -86.419347 
L 933.07 -145.917353 
L 933.07 -145.917353 
L 915.3 -147.685723 
L 897.53 -153.043554 
L 879.76 -149.354033 
L 861.99 -152.172876 
L 844.22 -148.994719 
L 826.45 -154.139198 
L 808.68 -157.392681 
L 790.91 -159.436134 
L 773.14 -165.065325 
L 755.37 -169.538382 
L 737.6 -170.214104 
L 719.83 -171.914227 
L 702.06 -170.639077 
L 684.29 -172.186317 
L 666.52 -170.51368 
L 648.75 -172.995588 
L 630.98 -179.334132 
L 613.21 -180.636181 
L 595.44 -181.776619 
L 577.67 -180.931902 
L 559.9 -184.177562 
L 542.13 -184.03828 
L 524.36 -186.484082 
L 506.59 -187.976257 
L 488.82 -191.723489 
L 471.05 -191.628753 
L 453.28 -194.827519 
L 435.51 -196.174442 
L 417.74 -197.287487 
L 399.97 -197.91756 
L 382.2 -197.124032 
L 364.43 -204.553948 
L 346.66 -211.222261 
L 328.89 -212.065969 
L 311.12 -211.498415 
L 293.35 -214.378085 
L 275.58 -215.268361 
L 257.81 -217.318572 
L 240.04 -218.4691 
L 222.27 -220.844764 
L 204.5 -223.58765 
L 186.73 -227.831199 
L 168.96 -227.6173 
L 151.19 -231.08739 
L 133.42 -235.78676 
L 115.65 -233.174177 
L 97.88 -235.474776 
L 80.11 -247.060225 
L 62.34 -251.854487 
L 44.57 -260.834425 
z
" style="stroke: #7f7f7f; stroke-opacity: 0.2"/>
    </defs>
    <g clip-path="url(#p73fa385f28)">
     <use xlink:href="#mf7ab918b69" x="0" y="648" style="fill: #7f7f7f; fill-opacity: 0.2; stroke: #7f7f7f; stroke-opacity: 0.2"/>
    </g>
   </g>
   <g id="PolyCollection_9">
    <defs>
     <path id="m92162870ad" d="M 44.57 -254.541685 
L 44.57 -195.923997 
L 62.34 -188.31596 
L 80.11 -184.323743 
L 97.88 -184.533858 
L 115.65 -185.110652 
L 133.42 -183.037922 
L 151.19 -179.775132 
L 168.96 -177.31632 
L 186.73 -175.249456 
L 204.5 -171.845788 
L 222.27 -167.863909 
L 240.04 -166.552082 
L 257.81 -164.035812 
L 275.58 -160.163601 
L 293.35 -155.503056 
L 311.12 -154.420139 
L 328.89 -149.695725 
L 346.66 -148.21201 
L 364.43 -143.870622 
L 382.2 -142.507097 
L 399.97 -140.82567 
L 417.74 -138.217986 
L 435.51 -136.221465 
L 453.28 -132.797253 
L 471.05 -128.67197 
L 488.82 -122.955959 
L 506.59 -121.709105 
L 524.36 -123.566785 
L 542.13 -118.604058 
L 559.9 -113.541631 
L 577.67 -112.379559 
L 595.44 -108.7185 
L 613.21 -107.863289 
L 630.98 -106.40898 
L 648.75 -104.201898 
L 666.52 -97.6422 
L 684.29 -98.694498 
L 702.06 -97.432982 
L 719.83 -96.143475 
L 737.6 -91.531599 
L 755.37 -90.993733 
L 773.14 -88.575804 
L 790.91 -87.383393 
L 808.68 -82.104477 
L 826.45 -81.095851 
L 844.22 -82.371343 
L 861.99 -79.965174 
L 879.76 -76.860801 
L 897.53 -74.346989 
L 915.3 -75.256441 
L 933.07 -73.032985 
L 933.07 -138.549741 
L 933.07 -138.549741 
L 915.3 -141.409876 
L 897.53 -142.621786 
L 879.76 -145.51611 
L 861.99 -146.112967 
L 844.22 -148.497223 
L 826.45 -153.247679 
L 808.68 -151.452244 
L 790.91 -154.813683 
L 773.14 -152.167395 
L 755.37 -154.839475 
L 737.6 -160.621655 
L 719.83 -162.725063 
L 702.06 -164.640187 
L 684.29 -166.439026 
L 666.52 -165.404986 
L 648.75 -171.719026 
L 630.98 -168.742703 
L 613.21 -171.023193 
L 595.44 -173.272106 
L 577.67 -175.585147 
L 559.9 -177.005729 
L 542.13 -184.351339 
L 524.36 -187.665281 
L 506.59 -190.119558 
L 488.82 -191.744801 
L 471.05 -194.392403 
L 453.28 -197.567627 
L 435.51 -199.153737 
L 417.74 -199.149307 
L 399.97 -199.967799 
L 382.2 -205.338674 
L 364.43 -201.572435 
L 346.66 -202.78751 
L 328.89 -207.914278 
L 311.12 -207.494229 
L 293.35 -211.354804 
L 275.58 -213.025585 
L 257.81 -219.145855 
L 240.04 -222.503728 
L 222.27 -226.877546 
L 204.5 -231.502301 
L 186.73 -230.826333 
L 168.96 -238.354043 
L 151.19 -242.549764 
L 133.42 -243.744183 
L 115.65 -244.401042 
L 97.88 -243.800312 
L 80.11 -246.859898 
L 62.34 -250.25131 
L 44.57 -254.541685 
z
" style="stroke: #bcbd22; stroke-opacity: 0.2"/>
    </defs>
    <g clip-path="url(#p73fa385f28)">
     <use xlink:href="#m92162870ad" x="0" y="648" style="fill: #bcbd22; fill-opacity: 0.2; stroke: #bcbd22; stroke-opacity: 0.2"/>
    </g>
   </g>
   <g id="PolyCollection_10">
    <defs>
     <path id="mfe6a5713d0" d="M 44.57 -224.935895 
L 44.57 -168.861289 
L 62.34 -167.649893 
L 80.11 -164.026264 
L 97.88 -161.621377 
L 115.65 -156.646456 
L 133.42 -153.515844 
L 151.19 -150.815809 
L 168.96 -148.659997 
L 186.73 -150.20127 
L 204.5 -143.786126 
L 222.27 -139.666316 
L 240.04 -138.305276 
L 257.81 -134.192146 
L 275.58 -132.870945 
L 293.35 -133.573853 
L 311.12 -132.759709 
L 328.89 -131.966855 
L 346.66 -129.091258 
L 364.43 -125.937005 
L 382.2 -124.485408 
L 399.97 -124.515018 
L 417.74 -123.890364 
L 435.51 -122.846233 
L 453.28 -118.679117 
L 471.05 -115.63781 
L 488.82 -111.180339 
L 506.59 -107.485633 
L 524.36 -108.896286 
L 542.13 -110.026036 
L 559.9 -107.383798 
L 577.67 -104.003574 
L 595.44 -102.975452 
L 613.21 -101.455677 
L 630.98 -104.111931 
L 648.75 -105.237704 
L 666.52 -100.018597 
L 684.29 -102.611718 
L 702.06 -102.864477 
L 719.83 -99.887067 
L 737.6 -98.947632 
L 755.37 -97.66073 
L 773.14 -93.335211 
L 790.91 -90.786219 
L 808.68 -88.305597 
L 826.45 -92.535734 
L 844.22 -90.53292 
L 861.99 -90.327704 
L 879.76 -79.553688 
L 897.53 -81.102157 
L 915.3 -78.783351 
L 933.07 -78.053117 
L 933.07 -144.248245 
L 933.07 -144.248245 
L 915.3 -146.441286 
L 897.53 -145.540187 
L 879.76 -146.648235 
L 861.99 -151.747954 
L 844.22 -149.520314 
L 826.45 -149.973291 
L 808.68 -151.027682 
L 790.91 -152.671205 
L 773.14 -159.058312 
L 755.37 -159.182741 
L 737.6 -164.277267 
L 719.83 -159.781862 
L 702.06 -159.355389 
L 684.29 -159.800405 
L 666.52 -164.640066 
L 648.75 -164.793076 
L 630.98 -170.253768 
L 613.21 -168.017586 
L 595.44 -172.642635 
L 577.67 -169.579486 
L 559.9 -167.247901 
L 542.13 -169.927949 
L 524.36 -173.785807 
L 506.59 -178.504141 
L 488.82 -181.752853 
L 471.05 -188.800406 
L 453.28 -193.681078 
L 435.51 -191.366033 
L 417.74 -190.883308 
L 399.97 -195.937173 
L 382.2 -197.046688 
L 364.43 -199.510742 
L 346.66 -202.714061 
L 328.89 -203.156556 
L 311.12 -206.532564 
L 293.35 -206.336174 
L 275.58 -207.669808 
L 257.81 -206.99829 
L 240.04 -208.7776 
L 222.27 -211.669895 
L 204.5 -214.75822 
L 186.73 -215.07221 
L 168.96 -212.088049 
L 151.19 -212.910547 
L 133.42 -214.590586 
L 115.65 -212.653084 
L 97.88 -216.407774 
L 80.11 -218.850646 
L 62.34 -224.786228 
L 44.57 -224.935895 
z
" style="stroke: #17becf; stroke-opacity: 0.2"/>
    </defs>
    <g clip-path="url(#p73fa385f28)">
     <use xlink:href="#mfe6a5713d0" x="0" y="648" style="fill: #17becf; fill-opacity: 0.2; stroke: #17becf; stroke-opacity: 0.2"/>
    </g>
   </g>
   <g id="PolyCollection_11">
    <defs>
     <path id="m33b1eb2184" d="M 44.57 -282.592792 
L 44.57 -198.872218 
L 62.34 -195.212025 
L 80.11 -188.472192 
L 97.88 -176.180075 
L 115.65 -171.200676 
L 133.42 -170.006655 
L 151.19 -166.738088 
L 168.96 -164.496607 
L 186.73 -163.761655 
L 204.5 -161.277213 
L 222.27 -157.706578 
L 240.04 -156.38571 
L 257.81 -156.025799 
L 275.58 -151.269394 
L 293.35 -149.914272 
L 311.12 -147.289437 
L 328.89 -143.01567 
L 346.66 -139.387357 
L 364.43 -140.993056 
L 382.2 -136.232634 
L 399.97 -132.919898 
L 417.74 -134.127122 
L 435.51 -131.044049 
L 453.28 -130.916994 
L 471.05 -126.36825 
L 488.82 -123.56278 
L 506.59 -118.057947 
L 524.36 -119.736587 
L 542.13 -117.581052 
L 559.9 -117.673277 
L 577.67 -118.614206 
L 595.44 -115.955627 
L 613.21 -110.880424 
L 630.98 -110.169308 
L 648.75 -108.847795 
L 666.52 -103.467682 
L 684.29 -104.007658 
L 702.06 -104.471502 
L 719.83 -101.868284 
L 737.6 -102.30423 
L 755.37 -101.727485 
L 773.14 -102.200436 
L 790.91 -97.671249 
L 808.68 -94.816963 
L 826.45 -93.106568 
L 844.22 -91.262016 
L 861.99 -93.412591 
L 879.76 -86.634055 
L 897.53 -85.215815 
L 915.3 -83.671814 
L 933.07 -84.747031 
L 933.07 -145.067443 
L 933.07 -145.067443 
L 915.3 -143.425834 
L 897.53 -143.195172 
L 879.76 -143.730001 
L 861.99 -151.271262 
L 844.22 -150.311385 
L 826.45 -153.540606 
L 808.68 -158.137176 
L 790.91 -160.78552 
L 773.14 -165.0264 
L 755.37 -165.455968 
L 737.6 -162.984683 
L 719.83 -162.547046 
L 702.06 -165.39074 
L 684.29 -165.61636 
L 666.52 -168.23496 
L 648.75 -169.165916 
L 630.98 -169.676162 
L 613.21 -171.81971 
L 595.44 -172.363812 
L 577.67 -175.631244 
L 559.9 -174.637606 
L 542.13 -175.849417 
L 524.36 -178.770138 
L 506.59 -179.593451 
L 488.82 -181.161995 
L 471.05 -182.925051 
L 453.28 -183.724868 
L 435.51 -183.845905 
L 417.74 -183.392148 
L 399.97 -185.478919 
L 382.2 -186.456312 
L 364.43 -188.124508 
L 346.66 -188.527044 
L 328.89 -188.748878 
L 311.12 -198.147213 
L 293.35 -200.387181 
L 275.58 -203.545378 
L 257.81 -201.035474 
L 240.04 -208.361425 
L 222.27 -209.474534 
L 204.5 -212.81194 
L 186.73 -216.463436 
L 168.96 -216.693385 
L 151.19 -224.231042 
L 133.42 -237.210825 
L 115.65 -243.745143 
L 97.88 -254.350577 
L 80.11 -259.252512 
L 62.34 -274.579384 
L 44.57 -282.592792 
z
" style="stroke: #9edae5; stroke-opacity: 0.2"/>
    </defs>
    <g clip-path="url(#p73fa385f28)">
     <use xlink:href="#m33b1eb2184" x="0" y="648" style="fill: #9edae5; fill-opacity: 0.2; stroke: #9edae5; stroke-opacity: 0.2"/>
    </g>
   </g>
   <g id="matplotlib.axis_1">
    <g id="xtick_1">
     <g id="line2d_1">
      <defs>
       <path id="m108cea6de4" d="M 0 0 
L 0 3.5 
" style="stroke: #000000; stroke-width: 0.8"/>
      </defs>
      <g>
       <use xlink:href="#m108cea6de4" x="44.57" y="606.04" style="stroke: #000000; stroke-width: 0.8"/>
      </g>
     </g>
     <g id="text_1">
      <!-- 30 -->
      <g transform="translate(38.2075 620.638438) scale(0.1 -0.1)">
       <defs>
        <path id="DejaVuSans-33" d="M 2597 2516 
Q 3050 2419 3304 2112 
Q 3559 1806 3559 1356 
Q 3559 666 3084 287 
Q 2609 -91 1734 -91 
Q 1441 -91 1130 -33 
Q 819 25 488 141 
L 488 750 
Q 750 597 1062 519 
Q 1375 441 1716 441 
Q 2309 441 2620 675 
Q 2931 909 2931 1356 
Q 2931 1769 2642 2001 
Q 2353 2234 1838 2234 
L 1294 2234 
L 1294 2753 
L 1863 2753 
Q 2328 2753 2575 2939 
Q 2822 3125 2822 3475 
Q 2822 3834 2567 4026 
Q 2313 4219 1838 4219 
Q 1578 4219 1281 4162 
Q 984 4106 628 3988 
L 628 4550 
Q 988 4650 1302 4700 
Q 1616 4750 1894 4750 
Q 2613 4750 3031 4423 
Q 3450 4097 3450 3541 
Q 3450 3153 3228 2886 
Q 3006 2619 2597 2516 
z
" transform="scale(0.015625)"/>
        <path id="DejaVuSans-30" d="M 2034 4250 
Q 1547 4250 1301 3770 
Q 1056 3291 1056 2328 
Q 1056 1369 1301 889 
Q 1547 409 2034 409 
Q 2525 409 2770 889 
Q 3016 1369 3016 2328 
Q 3016 3291 2770 3770 
Q 2525 4250 2034 4250 
z
M 2034 4750 
Q 2819 4750 3233 4129 
Q 3647 3509 3647 2328 
Q 3647 1150 3233 529 
Q 2819 -91 2034 -91 
Q 1250 -91 836 529 
Q 422 1150 422 2328 
Q 422 3509 836 4129 
Q 1250 4750 2034 4750 
z
" transform="scale(0.015625)"/>
       </defs>
       <use xlink:href="#DejaVuSans-33"/>
       <use xlink:href="#DejaVuSans-30" x="63.623047"/>
      </g>
     </g>
    </g>
    <g id="xtick_2">
     <g id="line2d_2">
      <g>
       <use xlink:href="#m108cea6de4" x="222.27" y="606.04" style="stroke: #000000; stroke-width: 0.8"/>
      </g>
     </g>
     <g id="text_2">
      <!-- 40 -->
      <g transform="translate(215.9075 620.638438) scale(0.1 -0.1)">
       <defs>
        <path id="DejaVuSans-34" d="M 2419 4116 
L 825 1625 
L 2419 1625 
L 2419 4116 
z
M 2253 4666 
L 3047 4666 
L 3047 1625 
L 3713 1625 
L 3713 1100 
L 3047 1100 
L 3047 0 
L 2419 0 
L 2419 1100 
L 313 1100 
L 313 1709 
L 2253 4666 
z
" transform="scale(0.015625)"/>
       </defs>
       <use xlink:href="#DejaVuSans-34"/>
       <use xlink:href="#DejaVuSans-30" x="63.623047"/>
      </g>
     </g>
    </g>
    <g id="xtick_3">
     <g id="line2d_3">
      <g>
       <use xlink:href="#m108cea6de4" x="399.97" y="606.04" style="stroke: #000000; stroke-width: 0.8"/>
      </g>
     </g>
     <g id="text_3">
      <!-- 50 -->
      <g transform="translate(393.6075 620.638438) scale(0.1 -0.1)">
       <defs>
        <path id="DejaVuSans-35" d="M 691 4666 
L 3169 4666 
L 3169 4134 
L 1269 4134 
L 1269 2991 
Q 1406 3038 1543 3061 
Q 1681 3084 1819 3084 
Q 2600 3084 3056 2656 
Q 3513 2228 3513 1497 
Q 3513 744 3044 326 
Q 2575 -91 1722 -91 
Q 1428 -91 1123 -41 
Q 819 9 494 109 
L 494 744 
Q 775 591 1075 516 
Q 1375 441 1709 441 
Q 2250 441 2565 725 
Q 2881 1009 2881 1497 
Q 2881 1984 2565 2268 
Q 2250 2553 1709 2553 
Q 1456 2553 1204 2497 
Q 953 2441 691 2322 
L 691 4666 
z
" transform="scale(0.015625)"/>
       </defs>
       <use xlink:href="#DejaVuSans-35"/>
       <use xlink:href="#DejaVuSans-30" x="63.623047"/>
      </g>
     </g>
    </g>
    <g id="xtick_4">
     <g id="line2d_4">
      <g>
       <use xlink:href="#m108cea6de4" x="577.67" y="606.04" style="stroke: #000000; stroke-width: 0.8"/>
      </g>
     </g>
     <g id="text_4">
      <!-- 60 -->
      <g transform="translate(571.3075 620.638438) scale(0.1 -0.1)">
       <defs>
        <path id="DejaVuSans-36" d="M 2113 2584 
Q 1688 2584 1439 2293 
Q 1191 2003 1191 1497 
Q 1191 994 1439 701 
Q 1688 409 2113 409 
Q 2538 409 2786 701 
Q 3034 994 3034 1497 
Q 3034 2003 2786 2293 
Q 2538 2584 2113 2584 
z
M 3366 4563 
L 3366 3988 
Q 3128 4100 2886 4159 
Q 2644 4219 2406 4219 
Q 1781 4219 1451 3797 
Q 1122 3375 1075 2522 
Q 1259 2794 1537 2939 
Q 1816 3084 2150 3084 
Q 2853 3084 3261 2657 
Q 3669 2231 3669 1497 
Q 3669 778 3244 343 
Q 2819 -91 2113 -91 
Q 1303 -91 875 529 
Q 447 1150 447 2328 
Q 447 3434 972 4092 
Q 1497 4750 2381 4750 
Q 2619 4750 2861 4703 
Q 3103 4656 3366 4563 
z
" transform="scale(0.015625)"/>
       </defs>
       <use xlink:href="#DejaVuSans-36"/>
       <use xlink:href="#DejaVuSans-30" x="63.623047"/>
      </g>
     </g>
    </g>
    <g id="xtick_5">
     <g id="line2d_5">
      <g>
       <use xlink:href="#m108cea6de4" x="755.37" y="606.04" style="stroke: #000000; stroke-width: 0.8"/>
      </g>
     </g>
     <g id="text_5">
      <!-- 70 -->
      <g transform="translate(749.0075 620.638438) scale(0.1 -0.1)">
       <defs>
        <path id="DejaVuSans-37" d="M 525 4666 
L 3525 4666 
L 3525 4397 
L 1831 0 
L 1172 0 
L 2766 4134 
L 525 4134 
L 525 4666 
z
" transform="scale(0.015625)"/>
       </defs>
       <use xlink:href="#DejaVuSans-37"/>
       <use xlink:href="#DejaVuSans-30" x="63.623047"/>
      </g>
     </g>
    </g>
    <g id="xtick_6">
     <g id="line2d_6">
      <g>
       <use xlink:href="#m108cea6de4" x="933.07" y="606.04" style="stroke: #000000; stroke-width: 0.8"/>
      </g>
     </g>
     <g id="text_6">
      <!-- 80 -->
      <g transform="translate(926.7075 620.638438) scale(0.1 -0.1)">
       <defs>
        <path id="DejaVuSans-38" d="M 2034 2216 
Q 1584 2216 1326 1975 
Q 1069 1734 1069 1313 
Q 1069 891 1326 650 
Q 1584 409 2034 409 
Q 2484 409 2743 651 
Q 3003 894 3003 1313 
Q 3003 1734 2745 1975 
Q 2488 2216 2034 2216 
z
M 1403 2484 
Q 997 2584 770 2862 
Q 544 3141 544 3541 
Q 544 4100 942 4425 
Q 1341 4750 2034 4750 
Q 2731 4750 3128 4425 
Q 3525 4100 3525 3541 
Q 3525 3141 3298 2862 
Q 3072 2584 2669 2484 
Q 3125 2378 3379 2068 
Q 3634 1759 3634 1313 
Q 3634 634 3220 271 
Q 2806 -91 2034 -91 
Q 1263 -91 848 271 
Q 434 634 434 1313 
Q 434 1759 690 2068 
Q 947 2378 1403 2484 
z
M 1172 3481 
Q 1172 3119 1398 2916 
Q 1625 2713 2034 2713 
Q 2441 2713 2670 2916 
Q 2900 3119 2900 3481 
Q 2900 3844 2670 4047 
Q 2441 4250 2034 4250 
Q 1625 4250 1398 4047 
Q 1172 3844 1172 3481 
z
" transform="scale(0.015625)"/>
       </defs>
       <use xlink:href="#DejaVuSans-38"/>
       <use xlink:href="#DejaVuSans-30" x="63.623047"/>
      </g>
     </g>
    </g>
    <g id="text_7">
     <!-- Number of Baits -->
     <g transform="translate(448.287969 634.316563) scale(0.1 -0.1)">
      <defs>
       <path id="DejaVuSans-4e" d="M 628 4666 
L 1478 4666 
L 3547 763 
L 3547 4666 
L 4159 4666 
L 4159 0 
L 3309 0 
L 1241 3903 
L 1241 0 
L 628 0 
L 628 4666 
z
" transform="scale(0.015625)"/>
       <path id="DejaVuSans-75" d="M 544 1381 
L 544 3500 
L 1119 3500 
L 1119 1403 
Q 1119 906 1312 657 
Q 1506 409 1894 409 
Q 2359 409 2629 706 
Q 2900 1003 2900 1516 
L 2900 3500 
L 3475 3500 
L 3475 0 
L 2900 0 
L 2900 538 
Q 2691 219 2414 64 
Q 2138 -91 1772 -91 
Q 1169 -91 856 284 
Q 544 659 544 1381 
z
M 1991 3584 
L 1991 3584 
z
" transform="scale(0.015625)"/>
       <path id="DejaVuSans-6d" d="M 3328 2828 
Q 3544 3216 3844 3400 
Q 4144 3584 4550 3584 
Q 5097 3584 5394 3201 
Q 5691 2819 5691 2113 
L 5691 0 
L 5113 0 
L 5113 2094 
Q 5113 2597 4934 2840 
Q 4756 3084 4391 3084 
Q 3944 3084 3684 2787 
Q 3425 2491 3425 1978 
L 3425 0 
L 2847 0 
L 2847 2094 
Q 2847 2600 2669 2842 
Q 2491 3084 2119 3084 
Q 1678 3084 1418 2786 
Q 1159 2488 1159 1978 
L 1159 0 
L 581 0 
L 581 3500 
L 1159 3500 
L 1159 2956 
Q 1356 3278 1631 3431 
Q 1906 3584 2284 3584 
Q 2666 3584 2933 3390 
Q 3200 3197 3328 2828 
z
" transform="scale(0.015625)"/>
       <path id="DejaVuSans-62" d="M 3116 1747 
Q 3116 2381 2855 2742 
Q 2594 3103 2138 3103 
Q 1681 3103 1420 2742 
Q 1159 2381 1159 1747 
Q 1159 1113 1420 752 
Q 1681 391 2138 391 
Q 2594 391 2855 752 
Q 3116 1113 3116 1747 
z
M 1159 2969 
Q 1341 3281 1617 3432 
Q 1894 3584 2278 3584 
Q 2916 3584 3314 3078 
Q 3713 2572 3713 1747 
Q 3713 922 3314 415 
Q 2916 -91 2278 -91 
Q 1894 -91 1617 61 
Q 1341 213 1159 525 
L 1159 0 
L 581 0 
L 581 4863 
L 1159 4863 
L 1159 2969 
z
" transform="scale(0.015625)"/>
       <path id="DejaVuSans-65" d="M 3597 1894 
L 3597 1613 
L 953 1613 
Q 991 1019 1311 708 
Q 1631 397 2203 397 
Q 2534 397 2845 478 
Q 3156 559 3463 722 
L 3463 178 
Q 3153 47 2828 -22 
Q 2503 -91 2169 -91 
Q 1331 -91 842 396 
Q 353 884 353 1716 
Q 353 2575 817 3079 
Q 1281 3584 2069 3584 
Q 2775 3584 3186 3129 
Q 3597 2675 3597 1894 
z
M 3022 2063 
Q 3016 2534 2758 2815 
Q 2500 3097 2075 3097 
Q 1594 3097 1305 2825 
Q 1016 2553 972 2059 
L 3022 2063 
z
" transform="scale(0.015625)"/>
       <path id="DejaVuSans-72" d="M 2631 2963 
Q 2534 3019 2420 3045 
Q 2306 3072 2169 3072 
Q 1681 3072 1420 2755 
Q 1159 2438 1159 1844 
L 1159 0 
L 581 0 
L 581 3500 
L 1159 3500 
L 1159 2956 
Q 1341 3275 1631 3429 
Q 1922 3584 2338 3584 
Q 2397 3584 2469 3576 
Q 2541 3569 2628 3553 
L 2631 2963 
z
" transform="scale(0.015625)"/>
       <path id="DejaVuSans-20" transform="scale(0.015625)"/>
       <path id="DejaVuSans-6f" d="M 1959 3097 
Q 1497 3097 1228 2736 
Q 959 2375 959 1747 
Q 959 1119 1226 758 
Q 1494 397 1959 397 
Q 2419 397 2687 759 
Q 2956 1122 2956 1747 
Q 2956 2369 2687 2733 
Q 2419 3097 1959 3097 
z
M 1959 3584 
Q 2709 3584 3137 3096 
Q 3566 2609 3566 1747 
Q 3566 888 3137 398 
Q 2709 -91 1959 -91 
Q 1206 -91 779 398 
Q 353 888 353 1747 
Q 353 2609 779 3096 
Q 1206 3584 1959 3584 
z
" transform="scale(0.015625)"/>
       <path id="DejaVuSans-66" d="M 2375 4863 
L 2375 4384 
L 1825 4384 
Q 1516 4384 1395 4259 
Q 1275 4134 1275 3809 
L 1275 3500 
L 2222 3500 
L 2222 3053 
L 1275 3053 
L 1275 0 
L 697 0 
L 697 3053 
L 147 3053 
L 147 3500 
L 697 3500 
L 697 3744 
Q 697 4328 969 4595 
Q 1241 4863 1831 4863 
L 2375 4863 
z
" transform="scale(0.015625)"/>
       <path id="DejaVuSans-42" d="M 1259 2228 
L 1259 519 
L 2272 519 
Q 2781 519 3026 730 
Q 3272 941 3272 1375 
Q 3272 1813 3026 2020 
Q 2781 2228 2272 2228 
L 1259 2228 
z
M 1259 4147 
L 1259 2741 
L 2194 2741 
Q 2656 2741 2882 2914 
Q 3109 3088 3109 3444 
Q 3109 3797 2882 3972 
Q 2656 4147 2194 4147 
L 1259 4147 
z
M 628 4666 
L 2241 4666 
Q 2963 4666 3353 4366 
Q 3744 4066 3744 3513 
Q 3744 3084 3544 2831 
Q 3344 2578 2956 2516 
Q 3422 2416 3680 2098 
Q 3938 1781 3938 1306 
Q 3938 681 3513 340 
Q 3088 0 2303 0 
L 628 0 
L 628 4666 
z
" transform="scale(0.015625)"/>
       <path id="DejaVuSans-61" d="M 2194 1759 
Q 1497 1759 1228 1600 
Q 959 1441 959 1056 
Q 959 750 1161 570 
Q 1363 391 1709 391 
Q 2188 391 2477 730 
Q 2766 1069 2766 1631 
L 2766 1759 
L 2194 1759 
z
M 3341 1997 
L 3341 0 
L 2766 0 
L 2766 531 
Q 2569 213 2275 61 
Q 1981 -91 1556 -91 
Q 1019 -91 701 211 
Q 384 513 384 1019 
Q 384 1609 779 1909 
Q 1175 2209 1959 2209 
L 2766 2209 
L 2766 2266 
Q 2766 2663 2505 2880 
Q 2244 3097 1772 3097 
Q 1472 3097 1187 3025 
Q 903 2953 641 2809 
L 641 3341 
Q 956 3463 1253 3523 
Q 1550 3584 1831 3584 
Q 2591 3584 2966 3190 
Q 3341 2797 3341 1997 
z
" transform="scale(0.015625)"/>
       <path id="DejaVuSans-69" d="M 603 3500 
L 1178 3500 
L 1178 0 
L 603 0 
L 603 3500 
z
M 603 4863 
L 1178 4863 
L 1178 4134 
L 603 4134 
L 603 4863 
z
" transform="scale(0.015625)"/>
       <path id="DejaVuSans-74" d="M 1172 4494 
L 1172 3500 
L 2356 3500 
L 2356 3053 
L 1172 3053 
L 1172 1153 
Q 1172 725 1289 603 
Q 1406 481 1766 481 
L 2356 481 
L 2356 0 
L 1766 0 
Q 1100 0 847 248 
Q 594 497 594 1153 
L 594 3053 
L 172 3053 
L 172 3500 
L 594 3500 
L 594 4494 
L 1172 4494 
z
" transform="scale(0.015625)"/>
       <path id="DejaVuSans-73" d="M 2834 3397 
L 2834 2853 
Q 2591 2978 2328 3040 
Q 2066 3103 1784 3103 
Q 1356 3103 1142 2972 
Q 928 2841 928 2578 
Q 928 2378 1081 2264 
Q 1234 2150 1697 2047 
L 1894 2003 
Q 2506 1872 2764 1633 
Q 3022 1394 3022 966 
Q 3022 478 2636 193 
Q 2250 -91 1575 -91 
Q 1294 -91 989 -36 
Q 684 19 347 128 
L 347 722 
Q 666 556 975 473 
Q 1284 391 1588 391 
Q 1994 391 2212 530 
Q 2431 669 2431 922 
Q 2431 1156 2273 1281 
Q 2116 1406 1581 1522 
L 1381 1569 
Q 847 1681 609 1914 
Q 372 2147 372 2553 
Q 372 3047 722 3315 
Q 1072 3584 1716 3584 
Q 2034 3584 2315 3537 
Q 2597 3491 2834 3397 
z
" transform="scale(0.015625)"/>
      </defs>
      <use xlink:href="#DejaVuSans-4e"/>
      <use xlink:href="#DejaVuSans-75" x="74.804688"/>
      <use xlink:href="#DejaVuSans-6d" x="138.183594"/>
      <use xlink:href="#DejaVuSans-62" x="235.595703"/>
      <use xlink:href="#DejaVuSans-65" x="299.072266"/>
      <use xlink:href="#DejaVuSans-72" x="360.595703"/>
      <use xlink:href="#DejaVuSans-20" x="401.708984"/>
      <use xlink:href="#DejaVuSans-6f" x="433.496094"/>
      <use xlink:href="#DejaVuSans-66" x="494.677734"/>
      <use xlink:href="#DejaVuSans-20" x="529.882812"/>
      <use xlink:href="#DejaVuSans-42" x="561.669922"/>
      <use xlink:href="#DejaVuSans-61" x="630.273438"/>
      <use xlink:href="#DejaVuSans-69" x="691.552734"/>
      <use xlink:href="#DejaVuSans-74" x="719.335938"/>
      <use xlink:href="#DejaVuSans-73" x="758.544922"/>
     </g>
    </g>
   </g>
   <g id="matplotlib.axis_2">
    <g id="ytick_1">
     <g id="line2d_7">
      <defs>
       <path id="m4ea0259ea3" d="M 0 0 
L -3.5 0 
" style="stroke: #000000; stroke-width: 0.8"/>
      </defs>
      <g>
       <use xlink:href="#m4ea0259ea3" x="44.57" y="535.869671" style="stroke: #000000; stroke-width: 0.8"/>
      </g>
     </g>
     <g id="text_8">
      <!-- 2 -->
      <g transform="translate(31.2075 539.66889) scale(0.1 -0.1)">
       <defs>
        <path id="DejaVuSans-32" d="M 1228 531 
L 3431 531 
L 3431 0 
L 469 0 
L 469 531 
Q 828 903 1448 1529 
Q 2069 2156 2228 2338 
Q 2531 2678 2651 2914 
Q 2772 3150 2772 3378 
Q 2772 3750 2511 3984 
Q 2250 4219 1831 4219 
Q 1534 4219 1204 4116 
Q 875 4013 500 3803 
L 500 4441 
Q 881 4594 1212 4672 
Q 1544 4750 1819 4750 
Q 2544 4750 2975 4387 
Q 3406 4025 3406 3419 
Q 3406 3131 3298 2873 
Q 3191 2616 2906 2266 
Q 2828 2175 2409 1742 
Q 1991 1309 1228 531 
z
" transform="scale(0.015625)"/>
       </defs>
       <use xlink:href="#DejaVuSans-32"/>
      </g>
     </g>
    </g>
    <g id="ytick_2">
     <g id="line2d_8">
      <g>
       <use xlink:href="#m4ea0259ea3" x="44.57" y="442.684644" style="stroke: #000000; stroke-width: 0.8"/>
      </g>
     </g>
     <g id="text_9">
      <!-- 4 -->
      <g transform="translate(31.2075 446.483863) scale(0.1 -0.1)">
       <use xlink:href="#DejaVuSans-34"/>
      </g>
     </g>
    </g>
    <g id="ytick_3">
     <g id="line2d_9">
      <g>
       <use xlink:href="#m4ea0259ea3" x="44.57" y="349.499618" style="stroke: #000000; stroke-width: 0.8"/>
      </g>
     </g>
     <g id="text_10">
      <!-- 6 -->
      <g transform="translate(31.2075 353.298836) scale(0.1 -0.1)">
       <use xlink:href="#DejaVuSans-36"/>
      </g>
     </g>
    </g>
    <g id="ytick_4">
     <g id="line2d_10">
      <g>
       <use xlink:href="#m4ea0259ea3" x="44.57" y="256.314591" style="stroke: #000000; stroke-width: 0.8"/>
      </g>
     </g>
     <g id="text_11">
      <!-- 8 -->
      <g transform="translate(31.2075 260.113809) scale(0.1 -0.1)">
       <use xlink:href="#DejaVuSans-38"/>
      </g>
     </g>
    </g>
    <g id="ytick_5">
     <g id="line2d_11">
      <g>
       <use xlink:href="#m4ea0259ea3" x="44.57" y="163.129564" style="stroke: #000000; stroke-width: 0.8"/>
      </g>
     </g>
     <g id="text_12">
      <!-- 10 -->
      <g transform="translate(24.845 166.928783) scale(0.1 -0.1)">
       <defs>
        <path id="DejaVuSans-31" d="M 794 531 
L 1825 531 
L 1825 4091 
L 703 3866 
L 703 4441 
L 1819 4666 
L 2450 4666 
L 2450 531 
L 3481 531 
L 3481 0 
L 794 0 
L 794 531 
z
" transform="scale(0.015625)"/>
       </defs>
       <use xlink:href="#DejaVuSans-31"/>
       <use xlink:href="#DejaVuSans-30" x="63.623047"/>
      </g>
     </g>
    </g>
    <g id="ytick_6">
     <g id="line2d_12">
      <g>
       <use xlink:href="#m4ea0259ea3" x="44.57" y="69.944537" style="stroke: #000000; stroke-width: 0.8"/>
      </g>
     </g>
     <g id="text_13">
      <!-- 12 -->
      <g transform="translate(24.845 73.743756) scale(0.1 -0.1)">
       <use xlink:href="#DejaVuSans-31"/>
       <use xlink:href="#DejaVuSans-32" x="63.623047"/>
      </g>
     </g>
    </g>
    <g id="text_14">
     <!-- Aggregated NMF KL Scores -->
     <g transform="translate(18.765312 386.001031) rotate(-90) scale(0.1 -0.1)">
      <defs>
       <path id="DejaVuSans-41" d="M 2188 4044 
L 1331 1722 
L 3047 1722 
L 2188 4044 
z
M 1831 4666 
L 2547 4666 
L 4325 0 
L 3669 0 
L 3244 1197 
L 1141 1197 
L 716 0 
L 50 0 
L 1831 4666 
z
" transform="scale(0.015625)"/>
       <path id="DejaVuSans-67" d="M 2906 1791 
Q 2906 2416 2648 2759 
Q 2391 3103 1925 3103 
Q 1463 3103 1205 2759 
Q 947 2416 947 1791 
Q 947 1169 1205 825 
Q 1463 481 1925 481 
Q 2391 481 2648 825 
Q 2906 1169 2906 1791 
z
M 3481 434 
Q 3481 -459 3084 -895 
Q 2688 -1331 1869 -1331 
Q 1566 -1331 1297 -1286 
Q 1028 -1241 775 -1147 
L 775 -588 
Q 1028 -725 1275 -790 
Q 1522 -856 1778 -856 
Q 2344 -856 2625 -561 
Q 2906 -266 2906 331 
L 2906 616 
Q 2728 306 2450 153 
Q 2172 0 1784 0 
Q 1141 0 747 490 
Q 353 981 353 1791 
Q 353 2603 747 3093 
Q 1141 3584 1784 3584 
Q 2172 3584 2450 3431 
Q 2728 3278 2906 2969 
L 2906 3500 
L 3481 3500 
L 3481 434 
z
" transform="scale(0.015625)"/>
       <path id="DejaVuSans-64" d="M 2906 2969 
L 2906 4863 
L 3481 4863 
L 3481 0 
L 2906 0 
L 2906 525 
Q 2725 213 2448 61 
Q 2172 -91 1784 -91 
Q 1150 -91 751 415 
Q 353 922 353 1747 
Q 353 2572 751 3078 
Q 1150 3584 1784 3584 
Q 2172 3584 2448 3432 
Q 2725 3281 2906 2969 
z
M 947 1747 
Q 947 1113 1208 752 
Q 1469 391 1925 391 
Q 2381 391 2643 752 
Q 2906 1113 2906 1747 
Q 2906 2381 2643 2742 
Q 2381 3103 1925 3103 
Q 1469 3103 1208 2742 
Q 947 2381 947 1747 
z
" transform="scale(0.015625)"/>
       <path id="DejaVuSans-4d" d="M 628 4666 
L 1569 4666 
L 2759 1491 
L 3956 4666 
L 4897 4666 
L 4897 0 
L 4281 0 
L 4281 4097 
L 3078 897 
L 2444 897 
L 1241 4097 
L 1241 0 
L 628 0 
L 628 4666 
z
" transform="scale(0.015625)"/>
       <path id="DejaVuSans-46" d="M 628 4666 
L 3309 4666 
L 3309 4134 
L 1259 4134 
L 1259 2759 
L 3109 2759 
L 3109 2228 
L 1259 2228 
L 1259 0 
L 628 0 
L 628 4666 
z
" transform="scale(0.015625)"/>
       <path id="DejaVuSans-4b" d="M 628 4666 
L 1259 4666 
L 1259 2694 
L 3353 4666 
L 4166 4666 
L 1850 2491 
L 4331 0 
L 3500 0 
L 1259 2247 
L 1259 0 
L 628 0 
L 628 4666 
z
" transform="scale(0.015625)"/>
       <path id="DejaVuSans-4c" d="M 628 4666 
L 1259 4666 
L 1259 531 
L 3531 531 
L 3531 0 
L 628 0 
L 628 4666 
z
" transform="scale(0.015625)"/>
       <path id="DejaVuSans-53" d="M 3425 4513 
L 3425 3897 
Q 3066 4069 2747 4153 
Q 2428 4238 2131 4238 
Q 1616 4238 1336 4038 
Q 1056 3838 1056 3469 
Q 1056 3159 1242 3001 
Q 1428 2844 1947 2747 
L 2328 2669 
Q 3034 2534 3370 2195 
Q 3706 1856 3706 1288 
Q 3706 609 3251 259 
Q 2797 -91 1919 -91 
Q 1588 -91 1214 -16 
Q 841 59 441 206 
L 441 856 
Q 825 641 1194 531 
Q 1563 422 1919 422 
Q 2459 422 2753 634 
Q 3047 847 3047 1241 
Q 3047 1584 2836 1778 
Q 2625 1972 2144 2069 
L 1759 2144 
Q 1053 2284 737 2584 
Q 422 2884 422 3419 
Q 422 4038 858 4394 
Q 1294 4750 2059 4750 
Q 2388 4750 2728 4690 
Q 3069 4631 3425 4513 
z
" transform="scale(0.015625)"/>
       <path id="DejaVuSans-63" d="M 3122 3366 
L 3122 2828 
Q 2878 2963 2633 3030 
Q 2388 3097 2138 3097 
Q 1578 3097 1268 2742 
Q 959 2388 959 1747 
Q 959 1106 1268 751 
Q 1578 397 2138 397 
Q 2388 397 2633 464 
Q 2878 531 3122 666 
L 3122 134 
Q 2881 22 2623 -34 
Q 2366 -91 2075 -91 
Q 1284 -91 818 406 
Q 353 903 353 1747 
Q 353 2603 823 3093 
Q 1294 3584 2113 3584 
Q 2378 3584 2631 3529 
Q 2884 3475 3122 3366 
z
" transform="scale(0.015625)"/>
      </defs>
      <use xlink:href="#DejaVuSans-41"/>
      <use xlink:href="#DejaVuSans-67" x="68.408203"/>
      <use xlink:href="#DejaVuSans-67" x="131.884766"/>
      <use xlink:href="#DejaVuSans-72" x="195.361328"/>
      <use xlink:href="#DejaVuSans-65" x="234.224609"/>
      <use xlink:href="#DejaVuSans-67" x="295.748047"/>
      <use xlink:href="#DejaVuSans-61" x="359.224609"/>
      <use xlink:href="#DejaVuSans-74" x="420.503906"/>
      <use xlink:href="#DejaVuSans-65" x="459.712891"/>
      <use xlink:href="#DejaVuSans-64" x="521.236328"/>
      <use xlink:href="#DejaVuSans-20" x="584.712891"/>
      <use xlink:href="#DejaVuSans-4e" x="616.5"/>
      <use xlink:href="#DejaVuSans-4d" x="691.304688"/>
      <use xlink:href="#DejaVuSans-46" x="777.583984"/>
      <use xlink:href="#DejaVuSans-20" x="835.103516"/>
      <use xlink:href="#DejaVuSans-4b" x="866.890625"/>
      <use xlink:href="#DejaVuSans-4c" x="932.466797"/>
      <use xlink:href="#DejaVuSans-20" x="988.179688"/>
      <use xlink:href="#DejaVuSans-53" x="1019.966797"/>
      <use xlink:href="#DejaVuSans-63" x="1083.443359"/>
      <use xlink:href="#DejaVuSans-6f" x="1138.423828"/>
      <use xlink:href="#DejaVuSans-72" x="1199.605469"/>
      <use xlink:href="#DejaVuSans-65" x="1238.46875"/>
      <use xlink:href="#DejaVuSans-73" x="1299.992188"/>
     </g>
    </g>
   </g>
   <g id="line2d_13">
    <path d="M 44.57 420.515859 
L 62.34 433.447152 
L 80.11 445.533915 
L 97.88 447.810839 
L 115.65 454.778181 
L 133.42 460.645215 
L 151.19 459.345313 
L 168.96 461.108252 
L 186.73 472.444045 
L 204.5 474.360086 
L 222.27 473.874727 
L 240.04 478.923098 
L 257.81 481.634289 
L 275.58 487.20964 
L 293.35 489.820794 
L 311.12 488.645466 
L 328.89 494.383986 
L 346.66 494.565813 
L 364.43 495.059512 
L 382.2 501.05306 
L 399.97 506.669883 
L 417.74 502.919352 
L 435.51 505.570914 
L 453.28 508.09662 
L 471.05 510.871838 
L 488.82 513.646018 
L 506.59 514.740238 
L 524.36 510.642551 
L 542.13 515.613461 
L 559.9 524.223598 
L 577.67 519.447009 
L 595.44 518.639154 
L 613.21 520.260512 
L 630.98 526.921338 
L 648.75 522.71721 
L 666.52 535.404453 
L 684.29 531.81121 
L 702.06 531.75595 
L 719.83 530.873313 
L 737.6 537.132095 
L 755.37 532.979324 
L 773.14 534.621695 
L 790.91 541.092201 
L 808.68 539.525643 
L 826.45 542.530257 
L 844.22 543.341645 
L 861.99 541.22026 
L 879.76 539.924367 
L 897.53 545.260036 
L 915.3 544.325178 
L 933.07 550.265873 
" clip-path="url(#p73fa385f28)" style="fill: none; stroke: #1f77b4; stroke-width: 1.5; stroke-linecap: square"/>
   </g>
   <g id="line2d_14">
    <path d="M 44.57 127.430099 
L 62.34 164.266919 
L 80.11 127.079931 
L 97.88 147.685007 
L 115.65 166.909856 
L 133.42 161.700472 
L 151.19 217.3003 
L 168.96 196.229669 
L 186.73 197.438067 
L 204.5 198.579073 
L 222.27 218.090749 
L 240.04 220.52964 
L 257.81 226.178158 
L 275.58 215.579323 
L 293.35 241.543407 
L 311.12 247.97963 
L 328.89 235.98307 
L 346.66 257.431477 
L 364.43 236.99355 
L 382.2 227.629405 
L 399.97 252.498865 
L 417.74 258.13307 
L 435.51 246.060427 
L 453.28 266.641232 
L 471.05 288.879661 
L 488.82 277.618987 
L 506.59 300.10014 
L 524.36 276.799549 
L 542.13 284.471697 
L 559.9 302.330162 
L 577.67 317.049923 
L 595.44 291.03022 
L 613.21 321.833935 
L 630.98 323.549035 
L 648.75 323.187034 
L 666.52 320.081593 
L 684.29 338.486438 
L 702.06 328.816132 
L 719.83 348.254745 
L 737.6 354.776062 
L 755.37 369.437554 
L 773.14 343.27673 
L 790.91 343.239514 
L 808.68 370.472488 
L 826.45 361.430478 
L 844.22 366.313193 
L 861.99 376.44241 
L 879.76 338.773895 
L 897.53 370.458116 
L 915.3 362.044057 
L 933.07 389.087978 
" clip-path="url(#p73fa385f28)" style="fill: none; stroke: #ff7f0e; stroke-width: 1.5; stroke-linecap: square"/>
   </g>
   <g id="line2d_15">
    <path d="M 44.57 359.102622 
L 62.34 364.665217 
L 80.11 372.017985 
L 97.88 376.504108 
L 115.65 386.82638 
L 133.42 390.568124 
L 151.19 398.509299 
L 168.96 402.088638 
L 186.73 413.779182 
L 204.5 417.817716 
L 222.27 422.293365 
L 240.04 428.211624 
L 257.81 436.706297 
L 275.58 441.518361 
L 293.35 441.974032 
L 311.12 449.179746 
L 328.89 455.434647 
L 346.66 458.782455 
L 364.43 462.692863 
L 382.2 468.126932 
L 399.97 472.035118 
L 417.74 473.907231 
L 435.51 475.656037 
L 453.28 477.432026 
L 471.05 482.600506 
L 488.82 486.927017 
L 506.59 490.029142 
L 524.36 490.884215 
L 542.13 492.271903 
L 559.9 492.131978 
L 577.67 496.379025 
L 595.44 499.302754 
L 613.21 499.802914 
L 630.98 499.601881 
L 648.75 501.070023 
L 666.52 503.914151 
L 684.29 504.828369 
L 702.06 508.086761 
L 719.83 508.977005 
L 737.6 509.68009 
L 755.37 512.158812 
L 773.14 513.877422 
L 790.91 513.968368 
L 808.68 514.809312 
L 826.45 516.107969 
L 844.22 516.043812 
L 861.99 516.218135 
L 879.76 516.542524 
L 897.53 515.830625 
L 915.3 515.636895 
L 933.07 512.561719 
" clip-path="url(#p73fa385f28)" style="fill: none; stroke: #2ca02c; stroke-width: 1.5; stroke-linecap: square"/>
   </g>
   <g id="line2d_16">
    <path d="M 44.57 360.047946 
L 62.34 366.936871 
L 80.11 373.099613 
L 97.88 377.324408 
L 115.65 379.910288 
L 133.42 383.939342 
L 151.19 386.056472 
L 168.96 391.607958 
L 186.73 393.877907 
L 204.5 399.028101 
L 222.27 403.929713 
L 240.04 407.037709 
L 257.81 413.627135 
L 275.58 418.048561 
L 293.35 424.918349 
L 311.12 428.521492 
L 328.89 429.344585 
L 346.66 434.611904 
L 364.43 437.949965 
L 382.2 444.439886 
L 399.97 446.559374 
L 417.74 455.130422 
L 435.51 461.326696 
L 453.28 463.433567 
L 471.05 468.974844 
L 488.82 471.310319 
L 506.59 474.898363 
L 524.36 478.028377 
L 542.13 482.311234 
L 559.9 484.615154 
L 577.67 486.237075 
L 595.44 488.916068 
L 613.21 491.461547 
L 630.98 493.07119 
L 648.75 497.126918 
L 666.52 498.721589 
L 684.29 501.259875 
L 702.06 503.094519 
L 719.83 505.131995 
L 737.6 508.58148 
L 755.37 509.544171 
L 773.14 510.976863 
L 790.91 511.484348 
L 808.68 512.882774 
L 826.45 513.150626 
L 844.22 513.409685 
L 861.99 512.172394 
L 879.76 515.860562 
L 897.53 516.570763 
L 915.3 515.883547 
L 933.07 516.142356 
" clip-path="url(#p73fa385f28)" style="fill: none; stroke: #d62728; stroke-width: 1.5; stroke-linecap: square"/>
   </g>
   <g id="line2d_17">
    <path d="M 44.57 314.336918 
L 62.34 325.874848 
L 80.11 328.762165 
L 97.88 333.76266 
L 115.65 343.449937 
L 133.42 356.295359 
L 151.19 361.770451 
L 168.96 363.938956 
L 186.73 366.413119 
L 204.5 376.191134 
L 222.27 377.864388 
L 240.04 383.085014 
L 257.81 384.314684 
L 275.58 386.169925 
L 293.35 386.538755 
L 311.12 386.000573 
L 328.89 395.100291 
L 346.66 399.071574 
L 364.43 401.304375 
L 382.2 403.185518 
L 399.97 399.583394 
L 417.74 400.262008 
L 435.51 412.422253 
L 453.28 420.602502 
L 471.05 426.151366 
L 488.82 423.757816 
L 506.59 426.924441 
L 524.36 434.375049 
L 542.13 434.793821 
L 559.9 434.973172 
L 577.67 435.808212 
L 595.44 437.346736 
L 613.21 439.098069 
L 630.98 443.448833 
L 648.75 445.023582 
L 666.52 446.904922 
L 684.29 456.542454 
L 702.06 457.455789 
L 719.83 458.566254 
L 737.6 458.891523 
L 755.37 459.971805 
L 773.14 464.828977 
L 790.91 467.947299 
L 808.68 479.108881 
L 826.45 484.251036 
L 844.22 489.032052 
L 861.99 490.229454 
L 879.76 495.289787 
L 897.53 499.392776 
L 915.3 501.665686 
L 933.07 505.057548 
" clip-path="url(#p73fa385f28)" style="fill: none; stroke: #9467bd; stroke-width: 1.5; stroke-linecap: square"/>
   </g>
   <g id="line2d_18">
    <path d="M 44.57 406.756569 
L 62.34 411.479892 
L 80.11 419.169592 
L 97.88 427.790475 
L 115.65 433.066451 
L 133.42 437.158119 
L 151.19 442.44675 
L 168.96 445.172023 
L 186.73 449.048253 
L 204.5 454.893653 
L 222.27 454.975106 
L 240.04 457.071342 
L 257.81 461.509167 
L 275.58 463.070194 
L 293.35 465.227068 
L 311.12 467.753309 
L 328.89 468.00654 
L 346.66 468.679783 
L 364.43 471.25544 
L 382.2 472.669886 
L 399.97 473.857562 
L 417.74 476.063404 
L 435.51 476.813892 
L 453.28 477.68994 
L 471.05 479.478286 
L 488.82 479.723917 
L 506.59 480.533465 
L 524.36 480.051887 
L 542.13 480.155526 
L 559.9 483.619547 
L 577.67 486.519411 
L 595.44 489.378619 
L 613.21 489.498606 
L 630.98 494.857475 
L 648.75 497.304709 
L 666.52 498.473477 
L 684.29 502.762292 
L 702.06 505.56009 
L 719.83 508.73936 
L 737.6 511.181957 
L 755.37 512.875454 
L 773.14 513.138989 
L 790.91 516.669961 
L 808.68 516.892826 
L 826.45 520.637129 
L 844.22 521.903509 
L 861.99 524.576123 
L 879.76 527.499118 
L 897.53 528.546558 
L 915.3 531.442516 
L 933.07 533.835339 
" clip-path="url(#p73fa385f28)" style="fill: none; stroke: #8c564b; stroke-width: 1.5; stroke-linecap: square"/>
   </g>
   <g id="line2d_19">
    <path d="M 44.57 413.187325 
L 62.34 420.84843 
L 80.11 428.147629 
L 97.88 433.477694 
L 115.65 437.692676 
L 133.42 439.677524 
L 151.19 443.35214 
L 168.96 445.409366 
L 186.73 447.389203 
L 204.5 448.211544 
L 222.27 452.085534 
L 240.04 458.146082 
L 257.81 456.794343 
L 275.58 456.814645 
L 293.35 458.552366 
L 311.12 465.307411 
L 328.89 468.410037 
L 346.66 469.937356 
L 364.43 472.748997 
L 382.2 473.11483 
L 399.97 477.649335 
L 417.74 481.24575 
L 435.51 483.327335 
L 453.28 486.560583 
L 471.05 489.420336 
L 488.82 494.503698 
L 506.59 495.894986 
L 524.36 499.516216 
L 542.13 500.371008 
L 559.9 505.364915 
L 577.67 505.495909 
L 595.44 508.465819 
L 613.21 508.999368 
L 630.98 511.682404 
L 648.75 513.90829 
L 666.52 516.896971 
L 684.29 520.682814 
L 702.06 525.670719 
L 719.83 527.603743 
L 737.6 528.559594 
L 755.37 528.279585 
L 773.14 531.824178 
L 790.91 532.70576 
L 808.68 534.802242 
L 826.45 537.530435 
L 844.22 538.585665 
L 861.99 540.766211 
L 879.76 541.496041 
L 897.53 542.13376 
L 915.3 543.085921 
L 933.07 544.504311 
" clip-path="url(#p73fa385f28)" style="fill: none; stroke: #e377c2; stroke-width: 1.5; stroke-linecap: square"/>
   </g>
   <g id="line2d_20">
    <path d="M 44.57 416.160345 
L 62.34 425.893354 
L 80.11 429.987602 
L 97.88 438.285772 
L 115.65 440.160385 
L 133.42 439.676242 
L 151.19 441.8516 
L 168.96 444.404991 
L 186.73 445.017702 
L 204.5 450.72304 
L 222.27 453.974611 
L 240.04 456.155812 
L 257.81 457.522514 
L 275.58 460.485132 
L 293.35 463.845445 
L 311.12 465.546661 
L 328.89 465.688264 
L 346.66 467.873793 
L 364.43 474.220583 
L 382.2 479.199429 
L 399.97 479.534041 
L 417.74 480.035265 
L 435.51 480.371787 
L 453.28 481.249118 
L 471.05 485.029982 
L 488.82 487.204277 
L 506.59 490.756526 
L 524.36 491.4124 
L 542.13 493.187646 
L 559.9 493.898239 
L 577.67 497.357206 
L 595.44 496.488364 
L 613.21 497.791356 
L 630.98 500.343219 
L 648.75 505.973096 
L 666.52 508.436785 
L 684.29 507.845434 
L 702.06 509.23631 
L 719.83 508.187201 
L 737.6 508.84336 
L 755.37 511.586487 
L 773.14 515.988721 
L 790.91 521.328126 
L 808.68 522.767852 
L 826.45 525.630884 
L 844.22 529.669499 
L 861.99 528.775155 
L 879.76 531.210444 
L 897.53 528.179344 
L 915.3 530.228985 
L 933.07 531.83165 
" clip-path="url(#p73fa385f28)" style="fill: none; stroke: #7f7f7f; stroke-width: 1.5; stroke-linecap: square"/>
   </g>
   <g id="line2d_21">
    <path d="M 44.57 422.767159 
L 62.34 428.716365 
L 80.11 432.40818 
L 97.88 433.832915 
L 115.65 433.244153 
L 133.42 434.608947 
L 151.19 436.837552 
L 168.96 440.164818 
L 186.73 444.962106 
L 204.5 446.325955 
L 222.27 450.629272 
L 240.04 453.472095 
L 257.81 456.409166 
L 275.58 461.405407 
L 293.35 464.57107 
L 311.12 467.042816 
L 328.89 469.194998 
L 346.66 472.50024 
L 364.43 475.278471 
L 382.2 474.077115 
L 399.97 477.603266 
L 417.74 479.316354 
L 435.51 480.312399 
L 453.28 482.81756 
L 471.05 486.467814 
L 488.82 490.64962 
L 506.59 492.085669 
L 524.36 492.383967 
L 542.13 496.522301 
L 559.9 502.72632 
L 577.67 504.017647 
L 595.44 507.004697 
L 613.21 508.556759 
L 630.98 510.424158 
L 648.75 510.039538 
L 666.52 516.476407 
L 684.29 515.433238 
L 702.06 516.963416 
L 719.83 518.565731 
L 737.6 521.923373 
L 755.37 525.083396 
L 773.14 527.6284 
L 790.91 526.901462 
L 808.68 531.221639 
L 826.45 530.828235 
L 844.22 532.565717 
L 861.99 534.960929 
L 879.76 536.811544 
L 897.53 539.515613 
L 915.3 539.666841 
L 933.07 542.208637 
" clip-path="url(#p73fa385f28)" style="fill: none; stroke: #bcbd22; stroke-width: 1.5; stroke-linecap: square"/>
   </g>
   <g id="line2d_22">
    <path d="M 44.57 451.101408 
L 62.34 451.781939 
L 80.11 456.561545 
L 97.88 458.985424 
L 115.65 463.35023 
L 133.42 463.946785 
L 151.19 466.136822 
L 168.96 467.625977 
L 186.73 465.36326 
L 204.5 468.727827 
L 222.27 472.331895 
L 240.04 474.458562 
L 257.81 477.404782 
L 275.58 477.729623 
L 293.35 478.044986 
L 311.12 478.353863 
L 328.89 480.438295 
L 346.66 482.09734 
L 364.43 485.276127 
L 382.2 487.233952 
L 399.97 487.773904 
L 417.74 490.613164 
L 435.51 490.893867 
L 453.28 491.819902 
L 471.05 495.780892 
L 488.82 501.533404 
L 506.59 505.005113 
L 524.36 506.658954 
L 542.13 508.023008 
L 559.9 510.684151 
L 577.67 511.20847 
L 595.44 510.190957 
L 613.21 513.263368 
L 630.98 510.817151 
L 648.75 512.98461 
L 666.52 515.670668 
L 684.29 516.793938 
L 702.06 516.890067 
L 719.83 518.165535 
L 737.6 516.387551 
L 755.37 519.578265 
L 773.14 521.803239 
L 790.91 526.271288 
L 808.68 528.33336 
L 826.45 526.745487 
L 844.22 527.973383 
L 861.99 526.962171 
L 879.76 534.899039 
L 897.53 534.678828 
L 915.3 535.387682 
L 933.07 536.849319 
" clip-path="url(#p73fa385f28)" style="fill: none; stroke: #17becf; stroke-width: 1.5; stroke-linecap: square"/>
   </g>
   <g id="line2d_23">
    <path d="M 44.57 407.267495 
L 62.34 413.104295 
L 80.11 424.137648 
L 97.88 432.734674 
L 115.65 440.52709 
L 133.42 444.39126 
L 151.19 452.515435 
L 168.96 457.405004 
L 186.73 457.887454 
L 204.5 460.955423 
L 222.27 464.409444 
L 240.04 465.626432 
L 257.81 469.469363 
L 275.58 470.592614 
L 293.35 472.849274 
L 311.12 475.281675 
L 328.89 482.117726 
L 346.66 484.0428 
L 364.43 483.441218 
L 382.2 486.655527 
L 399.97 488.800591 
L 417.74 489.240365 
L 435.51 490.555023 
L 453.28 490.679069 
L 471.05 493.35335 
L 488.82 495.637612 
L 506.59 499.174301 
L 524.36 498.746638 
L 542.13 501.284766 
L 559.9 501.844559 
L 577.67 500.877275 
L 595.44 503.840281 
L 613.21 506.649933 
L 630.98 508.077265 
L 648.75 508.993145 
L 666.52 512.148679 
L 684.29 513.187991 
L 702.06 513.068879 
L 719.83 515.792335 
L 737.6 515.355543 
L 755.37 514.408273 
L 773.14 514.386582 
L 790.91 518.771615 
L 808.68 521.52293 
L 826.45 524.676413 
L 844.22 527.2133 
L 861.99 525.658073 
L 879.76 532.817972 
L 897.53 533.794506 
L 915.3 534.451176 
L 933.07 533.092763 
" clip-path="url(#p73fa385f28)" style="fill: none; stroke: #9edae5; stroke-width: 1.5; stroke-linecap: square"/>
   </g>
   <g id="patch_3">
    <path d="M 44.57 606.04 
L 44.57 30.748 
" style="fill: none; stroke: #000000; stroke-width: 0.8; stroke-linejoin: miter; stroke-linecap: square"/>
   </g>
   <g id="patch_4">
    <path d="M 933.07 606.04 
L 933.07 30.748 
" style="fill: none; stroke: #000000; stroke-width: 0.8; stroke-linejoin: miter; stroke-linecap: square"/>
   </g>
   <g id="patch_5">
    <path d="M 44.57 606.04 
L 933.07 606.04 
" style="fill: none; stroke: #000000; stroke-width: 0.8; stroke-linejoin: miter; stroke-linecap: square"/>
   </g>
   <g id="patch_6">
    <path d="M 44.57 30.748 
L 933.07 30.748 
" style="fill: none; stroke: #000000; stroke-width: 0.8; stroke-linejoin: miter; stroke-linecap: square"/>
   </g>
   <g id="text_15">
    <!-- Aggregated NMF KL Scores by Number of Baits for Each Method -->
    <g transform="translate(296.835 24.748) scale(0.12 -0.12)">
     <defs>
      <path id="DejaVuSans-79" d="M 2059 -325 
Q 1816 -950 1584 -1140 
Q 1353 -1331 966 -1331 
L 506 -1331 
L 506 -850 
L 844 -850 
Q 1081 -850 1212 -737 
Q 1344 -625 1503 -206 
L 1606 56 
L 191 3500 
L 800 3500 
L 1894 763 
L 2988 3500 
L 3597 3500 
L 2059 -325 
z
" transform="scale(0.015625)"/>
      <path id="DejaVuSans-45" d="M 628 4666 
L 3578 4666 
L 3578 4134 
L 1259 4134 
L 1259 2753 
L 3481 2753 
L 3481 2222 
L 1259 2222 
L 1259 531 
L 3634 531 
L 3634 0 
L 628 0 
L 628 4666 
z
" transform="scale(0.015625)"/>
      <path id="DejaVuSans-68" d="M 3513 2113 
L 3513 0 
L 2938 0 
L 2938 2094 
Q 2938 2591 2744 2837 
Q 2550 3084 2163 3084 
Q 1697 3084 1428 2787 
Q 1159 2491 1159 1978 
L 1159 0 
L 581 0 
L 581 4863 
L 1159 4863 
L 1159 2956 
Q 1366 3272 1645 3428 
Q 1925 3584 2291 3584 
Q 2894 3584 3203 3211 
Q 3513 2838 3513 2113 
z
" transform="scale(0.015625)"/>
     </defs>
     <use xlink:href="#DejaVuSans-41"/>
     <use xlink:href="#DejaVuSans-67" x="68.408203"/>
     <use xlink:href="#DejaVuSans-67" x="131.884766"/>
     <use xlink:href="#DejaVuSans-72" x="195.361328"/>
     <use xlink:href="#DejaVuSans-65" x="234.224609"/>
     <use xlink:href="#DejaVuSans-67" x="295.748047"/>
     <use xlink:href="#DejaVuSans-61" x="359.224609"/>
     <use xlink:href="#DejaVuSans-74" x="420.503906"/>
     <use xlink:href="#DejaVuSans-65" x="459.712891"/>
     <use xlink:href="#DejaVuSans-64" x="521.236328"/>
     <use xlink:href="#DejaVuSans-20" x="584.712891"/>
     <use xlink:href="#DejaVuSans-4e" x="616.5"/>
     <use xlink:href="#DejaVuSans-4d" x="691.304688"/>
     <use xlink:href="#DejaVuSans-46" x="777.583984"/>
     <use xlink:href="#DejaVuSans-20" x="835.103516"/>
     <use xlink:href="#DejaVuSans-4b" x="866.890625"/>
     <use xlink:href="#DejaVuSans-4c" x="932.466797"/>
     <use xlink:href="#DejaVuSans-20" x="988.179688"/>
     <use xlink:href="#DejaVuSans-53" x="1019.966797"/>
     <use xlink:href="#DejaVuSans-63" x="1083.443359"/>
     <use xlink:href="#DejaVuSans-6f" x="1138.423828"/>
     <use xlink:href="#DejaVuSans-72" x="1199.605469"/>
     <use xlink:href="#DejaVuSans-65" x="1238.46875"/>
     <use xlink:href="#DejaVuSans-73" x="1299.992188"/>
     <use xlink:href="#DejaVuSans-20" x="1352.091797"/>
     <use xlink:href="#DejaVuSans-62" x="1383.878906"/>
     <use xlink:href="#DejaVuSans-79" x="1447.355469"/>
     <use xlink:href="#DejaVuSans-20" x="1506.535156"/>
     <use xlink:href="#DejaVuSans-4e" x="1538.322266"/>
     <use xlink:href="#DejaVuSans-75" x="1613.126953"/>
     <use xlink:href="#DejaVuSans-6d" x="1676.505859"/>
     <use xlink:href="#DejaVuSans-62" x="1773.917969"/>
     <use xlink:href="#DejaVuSans-65" x="1837.394531"/>
     <use xlink:href="#DejaVuSans-72" x="1898.917969"/>
     <use xlink:href="#DejaVuSans-20" x="1940.03125"/>
     <use xlink:href="#DejaVuSans-6f" x="1971.818359"/>
     <use xlink:href="#DejaVuSans-66" x="2033"/>
     <use xlink:href="#DejaVuSans-20" x="2068.205078"/>
     <use xlink:href="#DejaVuSans-42" x="2099.992188"/>
     <use xlink:href="#DejaVuSans-61" x="2168.595703"/>
     <use xlink:href="#DejaVuSans-69" x="2229.875"/>
     <use xlink:href="#DejaVuSans-74" x="2257.658203"/>
     <use xlink:href="#DejaVuSans-73" x="2296.867188"/>
     <use xlink:href="#DejaVuSans-20" x="2348.966797"/>
     <use xlink:href="#DejaVuSans-66" x="2380.753906"/>
     <use xlink:href="#DejaVuSans-6f" x="2415.958984"/>
     <use xlink:href="#DejaVuSans-72" x="2477.140625"/>
     <use xlink:href="#DejaVuSans-20" x="2518.253906"/>
     <use xlink:href="#DejaVuSans-45" x="2550.041016"/>
     <use xlink:href="#DejaVuSans-61" x="2613.224609"/>
     <use xlink:href="#DejaVuSans-63" x="2674.503906"/>
     <use xlink:href="#DejaVuSans-68" x="2729.484375"/>
     <use xlink:href="#DejaVuSans-20" x="2792.863281"/>
     <use xlink:href="#DejaVuSans-4d" x="2824.650391"/>
     <use xlink:href="#DejaVuSans-65" x="2910.929688"/>
     <use xlink:href="#DejaVuSans-74" x="2972.453125"/>
     <use xlink:href="#DejaVuSans-68" x="3011.662109"/>
     <use xlink:href="#DejaVuSans-6f" x="3075.041016"/>
     <use xlink:href="#DejaVuSans-64" x="3136.222656"/>
    </g>
   </g>
   <g id="legend_1">
    <g id="patch_7">
     <path d="M 940.07 172.555275 
L 1067.18875 172.555275 
Q 1069.18875 172.555275 1069.18875 170.555275 
L 1069.18875 8.9834 
Q 1069.18875 6.9834 1067.18875 6.9834 
L 940.07 6.9834 
Q 938.07 6.9834 938.07 8.9834 
L 938.07 170.555275 
Q 938.07 172.555275 940.07 172.555275 
z
" style="fill: #ffffff; opacity: 0.8; stroke: #cccccc; stroke-linejoin: miter"/>
    </g>
    <g id="line2d_24">
     <path d="M 942.07 15.081838 
L 952.07 15.081838 
L 962.07 15.081838 
" style="fill: none; stroke: #1f77b4; stroke-width: 1.5; stroke-linecap: square"/>
    </g>
    <g id="text_16">
     <!-- GA -->
     <g transform="translate(970.07 18.581838) scale(0.1 -0.1)">
      <defs>
       <path id="DejaVuSans-47" d="M 3809 666 
L 3809 1919 
L 2778 1919 
L 2778 2438 
L 4434 2438 
L 4434 434 
Q 4069 175 3628 42 
Q 3188 -91 2688 -91 
Q 1594 -91 976 548 
Q 359 1188 359 2328 
Q 359 3472 976 4111 
Q 1594 4750 2688 4750 
Q 3144 4750 3555 4637 
Q 3966 4525 4313 4306 
L 4313 3634 
Q 3963 3931 3569 4081 
Q 3175 4231 2741 4231 
Q 1884 4231 1454 3753 
Q 1025 3275 1025 2328 
Q 1025 1384 1454 906 
Q 1884 428 2741 428 
Q 3075 428 3337 486 
Q 3600 544 3809 666 
z
" transform="scale(0.015625)"/>
      </defs>
      <use xlink:href="#DejaVuSans-47"/>
      <use xlink:href="#DejaVuSans-41" x="77.490234"/>
     </g>
    </g>
    <g id="line2d_25">
     <path d="M 942.07 29.759963 
L 952.07 29.759963 
L 962.07 29.759963 
" style="fill: none; stroke: #ff7f0e; stroke-width: 1.5; stroke-linecap: square"/>
    </g>
    <g id="text_17">
     <!-- Random -->
     <g transform="translate(970.07 33.259963) scale(0.1 -0.1)">
      <defs>
       <path id="DejaVuSans-52" d="M 2841 2188 
Q 3044 2119 3236 1894 
Q 3428 1669 3622 1275 
L 4263 0 
L 3584 0 
L 2988 1197 
Q 2756 1666 2539 1819 
Q 2322 1972 1947 1972 
L 1259 1972 
L 1259 0 
L 628 0 
L 628 4666 
L 2053 4666 
Q 2853 4666 3247 4331 
Q 3641 3997 3641 3322 
Q 3641 2881 3436 2590 
Q 3231 2300 2841 2188 
z
M 1259 4147 
L 1259 2491 
L 2053 2491 
Q 2509 2491 2742 2702 
Q 2975 2913 2975 3322 
Q 2975 3731 2742 3939 
Q 2509 4147 2053 4147 
L 1259 4147 
z
" transform="scale(0.015625)"/>
       <path id="DejaVuSans-6e" d="M 3513 2113 
L 3513 0 
L 2938 0 
L 2938 2094 
Q 2938 2591 2744 2837 
Q 2550 3084 2163 3084 
Q 1697 3084 1428 2787 
Q 1159 2491 1159 1978 
L 1159 0 
L 581 0 
L 581 3500 
L 1159 3500 
L 1159 2956 
Q 1366 3272 1645 3428 
Q 1925 3584 2291 3584 
Q 2894 3584 3203 3211 
Q 3513 2838 3513 2113 
z
" transform="scale(0.015625)"/>
      </defs>
      <use xlink:href="#DejaVuSans-52"/>
      <use xlink:href="#DejaVuSans-61" x="67.232422"/>
      <use xlink:href="#DejaVuSans-6e" x="128.511719"/>
      <use xlink:href="#DejaVuSans-64" x="191.890625"/>
      <use xlink:href="#DejaVuSans-6f" x="255.367188"/>
      <use xlink:href="#DejaVuSans-6d" x="316.548828"/>
     </g>
    </g>
    <g id="line2d_26">
     <path d="M 942.07 44.438088 
L 952.07 44.438088 
L 962.07 44.438088 
" style="fill: none; stroke: #2ca02c; stroke-width: 1.5; stroke-linecap: square"/>
    </g>
    <g id="text_18">
     <!-- chi_2 -->
     <g transform="translate(970.07 47.938088) scale(0.1 -0.1)">
      <defs>
       <path id="DejaVuSans-5f" d="M 3263 -1063 
L 3263 -1509 
L -63 -1509 
L -63 -1063 
L 3263 -1063 
z
" transform="scale(0.015625)"/>
      </defs>
      <use xlink:href="#DejaVuSans-63"/>
      <use xlink:href="#DejaVuSans-68" x="54.980469"/>
      <use xlink:href="#DejaVuSans-69" x="118.359375"/>
      <use xlink:href="#DejaVuSans-5f" x="146.142578"/>
      <use xlink:href="#DejaVuSans-32" x="196.142578"/>
     </g>
    </g>
    <g id="line2d_27">
     <path d="M 942.07 59.394338 
L 952.07 59.394338 
L 962.07 59.394338 
" style="fill: none; stroke: #d62728; stroke-width: 1.5; stroke-linecap: square"/>
    </g>
    <g id="text_19">
     <!-- f_classif -->
     <g transform="translate(970.07 62.894338) scale(0.1 -0.1)">
      <defs>
       <path id="DejaVuSans-6c" d="M 603 4863 
L 1178 4863 
L 1178 0 
L 603 0 
L 603 4863 
z
" transform="scale(0.015625)"/>
      </defs>
      <use xlink:href="#DejaVuSans-66"/>
      <use xlink:href="#DejaVuSans-5f" x="35.205078"/>
      <use xlink:href="#DejaVuSans-63" x="85.205078"/>
      <use xlink:href="#DejaVuSans-6c" x="140.185547"/>
      <use xlink:href="#DejaVuSans-61" x="167.96875"/>
      <use xlink:href="#DejaVuSans-73" x="229.248047"/>
      <use xlink:href="#DejaVuSans-73" x="281.347656"/>
      <use xlink:href="#DejaVuSans-69" x="333.447266"/>
      <use xlink:href="#DejaVuSans-66" x="361.230469"/>
     </g>
    </g>
    <g id="line2d_28">
     <path d="M 942.07 74.350588 
L 952.07 74.350588 
L 962.07 74.350588 
" style="fill: none; stroke: #9467bd; stroke-width: 1.5; stroke-linecap: square"/>
    </g>
    <g id="text_20">
     <!-- mutual_info_classif -->
     <g transform="translate(970.07 77.850588) scale(0.1 -0.1)">
      <use xlink:href="#DejaVuSans-6d"/>
      <use xlink:href="#DejaVuSans-75" x="97.412109"/>
      <use xlink:href="#DejaVuSans-74" x="160.791016"/>
      <use xlink:href="#DejaVuSans-75" x="200"/>
      <use xlink:href="#DejaVuSans-61" x="263.378906"/>
      <use xlink:href="#DejaVuSans-6c" x="324.658203"/>
      <use xlink:href="#DejaVuSans-5f" x="352.441406"/>
      <use xlink:href="#DejaVuSans-69" x="402.441406"/>
      <use xlink:href="#DejaVuSans-6e" x="430.224609"/>
      <use xlink:href="#DejaVuSans-66" x="493.603516"/>
      <use xlink:href="#DejaVuSans-6f" x="528.808594"/>
      <use xlink:href="#DejaVuSans-5f" x="589.990234"/>
      <use xlink:href="#DejaVuSans-63" x="639.990234"/>
      <use xlink:href="#DejaVuSans-6c" x="694.970703"/>
      <use xlink:href="#DejaVuSans-61" x="722.753906"/>
      <use xlink:href="#DejaVuSans-73" x="784.033203"/>
      <use xlink:href="#DejaVuSans-73" x="836.132812"/>
      <use xlink:href="#DejaVuSans-69" x="888.232422"/>
      <use xlink:href="#DejaVuSans-66" x="916.015625"/>
     </g>
    </g>
    <g id="line2d_29">
     <path d="M 942.07 89.306838 
L 952.07 89.306838 
L 962.07 89.306838 
" style="fill: none; stroke: #8c564b; stroke-width: 1.5; stroke-linecap: square"/>
    </g>
    <g id="text_21">
     <!-- lasso -->
     <g transform="translate(970.07 92.806838) scale(0.1 -0.1)">
      <use xlink:href="#DejaVuSans-6c"/>
      <use xlink:href="#DejaVuSans-61" x="27.783203"/>
      <use xlink:href="#DejaVuSans-73" x="89.0625"/>
      <use xlink:href="#DejaVuSans-73" x="141.162109"/>
      <use xlink:href="#DejaVuSans-6f" x="193.261719"/>
     </g>
    </g>
    <g id="line2d_30">
     <path d="M 942.07 103.984963 
L 952.07 103.984963 
L 962.07 103.984963 
" style="fill: none; stroke: #e377c2; stroke-width: 1.5; stroke-linecap: square"/>
    </g>
    <g id="text_22">
     <!-- ridge -->
     <g transform="translate(970.07 107.484963) scale(0.1 -0.1)">
      <use xlink:href="#DejaVuSans-72"/>
      <use xlink:href="#DejaVuSans-69" x="41.113281"/>
      <use xlink:href="#DejaVuSans-64" x="68.896484"/>
      <use xlink:href="#DejaVuSans-67" x="132.373047"/>
      <use xlink:href="#DejaVuSans-65" x="195.849609"/>
     </g>
    </g>
    <g id="line2d_31">
     <path d="M 942.07 118.663088 
L 952.07 118.663088 
L 962.07 118.663088 
" style="fill: none; stroke: #7f7f7f; stroke-width: 1.5; stroke-linecap: square"/>
    </g>
    <g id="text_23">
     <!-- elastic_net -->
     <g transform="translate(970.07 122.163088) scale(0.1 -0.1)">
      <use xlink:href="#DejaVuSans-65"/>
      <use xlink:href="#DejaVuSans-6c" x="61.523438"/>
      <use xlink:href="#DejaVuSans-61" x="89.306641"/>
      <use xlink:href="#DejaVuSans-73" x="150.585938"/>
      <use xlink:href="#DejaVuSans-74" x="202.685547"/>
      <use xlink:href="#DejaVuSans-69" x="241.894531"/>
      <use xlink:href="#DejaVuSans-63" x="269.677734"/>
      <use xlink:href="#DejaVuSans-5f" x="324.658203"/>
      <use xlink:href="#DejaVuSans-6e" x="374.658203"/>
      <use xlink:href="#DejaVuSans-65" x="438.037109"/>
      <use xlink:href="#DejaVuSans-74" x="499.560547"/>
     </g>
    </g>
    <g id="line2d_32">
     <path d="M 942.07 133.619338 
L 952.07 133.619338 
L 962.07 133.619338 
" style="fill: none; stroke: #bcbd22; stroke-width: 1.5; stroke-linecap: square"/>
    </g>
    <g id="text_24">
     <!-- rf -->
     <g transform="translate(970.07 137.119338) scale(0.1 -0.1)">
      <use xlink:href="#DejaVuSans-72"/>
      <use xlink:href="#DejaVuSans-66" x="41.113281"/>
     </g>
    </g>
    <g id="line2d_33">
     <path d="M 942.07 148.297463 
L 952.07 148.297463 
L 962.07 148.297463 
" style="fill: none; stroke: #17becf; stroke-width: 1.5; stroke-linecap: square"/>
    </g>
    <g id="text_25">
     <!-- gbm -->
     <g transform="translate(970.07 151.797463) scale(0.1 -0.1)">
      <use xlink:href="#DejaVuSans-67"/>
      <use xlink:href="#DejaVuSans-62" x="63.476562"/>
      <use xlink:href="#DejaVuSans-6d" x="126.953125"/>
     </g>
    </g>
    <g id="line2d_34">
     <path d="M 942.07 162.975588 
L 952.07 162.975588 
L 962.07 162.975588 
" style="fill: none; stroke: #9edae5; stroke-width: 1.5; stroke-linecap: square"/>
    </g>
    <g id="text_26">
     <!-- xgb -->
     <g transform="translate(970.07 166.475588) scale(0.1 -0.1)">
      <defs>
       <path id="DejaVuSans-78" d="M 3513 3500 
L 2247 1797 
L 3578 0 
L 2900 0 
L 1881 1375 
L 863 0 
L 184 0 
L 1544 1831 
L 300 3500 
L 978 3500 
L 1906 2253 
L 2834 3500 
L 3513 3500 
z
" transform="scale(0.015625)"/>
      </defs>
      <use xlink:href="#DejaVuSans-78"/>
      <use xlink:href="#DejaVuSans-67" x="59.179688"/>
      <use xlink:href="#DejaVuSans-62" x="122.65625"/>
     </g>
    </g>
   </g>
  </g>
 </g>
 <defs>
  <clipPath id="p73fa385f28">
   <rect x="44.57" y="30.748" width="888.5" height="575.292"/>
  </clipPath>
 </defs>
</svg>
