<?xml version="1.0" encoding="utf-8" standalone="no"?>
<!DOCTYPE svg PUBLIC "-//W3C//DTD SVG 1.1//EN"
  "http://www.w3.org/Graphics/SVG/1.1/DTD/svg11.dtd">
<svg xmlns:xlink="http://www.w3.org/1999/xlink" width="1080pt" height="648pt" viewBox="0 0 1080 648" xmlns="http://www.w3.org/2000/svg" version="1.1">
 <metadata>
  <rdf:RDF xmlns:dc="http://purl.org/dc/elements/1.1/" xmlns:cc="http://creativecommons.org/ns#" xmlns:rdf="http://www.w3.org/1999/02/22-rdf-syntax-ns#">
   <cc:Work>
    <dc:type rdf:resource="http://purl.org/dc/dcmitype/StillImage"/>
    <dc:date>2024-04-14T11:47:20.230715</dc:date>
    <dc:format>image/svg+xml</dc:format>
    <dc:creator>
     <cc:Agent>
      <dc:title>Matplotlib v3.7.2, https://matplotlib.org/</dc:title>
     </cc:Agent>
    </dc:creator>
   </cc:Work>
  </rdf:RDF>
 </metadata>
 <defs>
  <style type="text/css">*{stroke-linejoin: round; stroke-linecap: butt}</style>
 </defs>
 <g id="figure_1">
  <g id="patch_1">
   <path d="M 0 648 
L 1080 648 
L 1080 0 
L 0 0 
z
" style="fill: #ffffff"/>
  </g>
  <g id="axes_1">
   <g id="patch_2">
    <path d="M 51.365 602.44 
L 1062.855 602.44 
L 1062.855 14.76 
L 51.365 14.76 
z
" style="fill: #ffffff"/>
   </g>
   <g id="PolyCollection_1">
    <defs>
     <path id="mb5028fd951" d="M 51.365 -549.265069 
L 51.365 -487.724947 
L 71.5948 -498.915898 
L 91.8246 -498.968022 
L 112.0544 -502.343164 
L 132.2842 -506.695735 
L 152.514 -506.613344 
L 172.7438 -508.1848 
L 192.9736 -507.383293 
L 213.2034 -510.69972 
L 233.4332 -515.394991 
L 253.663 -514.142024 
L 273.8928 -516.371579 
L 294.1226 -514.395712 
L 314.3524 -522.926104 
L 334.5822 -519.694185 
L 354.812 -518.390796 
L 375.0418 -520.865313 
L 395.2716 -523.347823 
L 415.5014 -523.389646 
L 435.7312 -525.812756 
L 455.961 -525.814705 
L 476.1908 -525.445586 
L 496.4206 -527.728192 
L 516.6504 -527.464831 
L 536.8802 -529.562063 
L 557.11 -530.054725 
L 577.3398 -531.363533 
L 597.5696 -526.659108 
L 617.7994 -534.204659 
L 638.0292 -536.325951 
L 658.259 -533.035887 
L 678.4888 -529.231982 
L 698.7186 -535.015168 
L 718.9484 -539.580812 
L 739.1782 -532.994412 
L 759.408 -542.303228 
L 779.6378 -540.303014 
L 799.8676 -540.525563 
L 820.0974 -537.907083 
L 840.3272 -541.715595 
L 860.557 -539.479509 
L 880.7868 -540.3866 
L 901.0166 -542.191331 
L 921.2464 -541.781708 
L 941.4762 -546.9237 
L 961.706 -545.545358 
L 981.9358 -540.903537 
L 1002.1656 -542.474203 
L 1022.3954 -545.130244 
L 1042.6252 -544.595394 
L 1062.855 -547.247067 
L 1062.855 -604.583854 
L 1062.855 -604.583854 
L 1042.6252 -603.919179 
L 1022.3954 -604.229756 
L 1002.1656 -602.132875 
L 981.9358 -605.183009 
L 961.706 -604.945111 
L 941.4762 -601.537196 
L 921.2464 -602.377632 
L 901.0166 -607.396797 
L 880.7868 -598.956482 
L 860.557 -601.458069 
L 840.3272 -598.975263 
L 820.0974 -602.478361 
L 799.8676 -599.114239 
L 779.6378 -597.696455 
L 759.408 -601.090163 
L 739.1782 -598.799066 
L 718.9484 -593.291871 
L 698.7186 -596.425373 
L 678.4888 -593.943957 
L 658.259 -593.586522 
L 638.0292 -597.614132 
L 617.7994 -593.490112 
L 597.5696 -590.772122 
L 577.3398 -596.224789 
L 557.11 -589.331016 
L 536.8802 -592.020695 
L 516.6504 -588.660613 
L 496.4206 -588.423272 
L 476.1908 -586.691603 
L 455.961 -591.421759 
L 435.7312 -589.512322 
L 415.5014 -589.187885 
L 395.2716 -586.10784 
L 375.0418 -585.148686 
L 354.812 -584.447826 
L 334.5822 -583.630978 
L 314.3524 -585.553026 
L 294.1226 -584.580565 
L 273.8928 -584.335046 
L 253.663 -578.929507 
L 233.4332 -580.213552 
L 213.2034 -578.556437 
L 192.9736 -574.330276 
L 172.7438 -571.920902 
L 152.514 -572.374536 
L 132.2842 -569.499016 
L 112.0544 -565.562758 
L 91.8246 -560.256684 
L 71.5948 -557.050571 
L 51.365 -549.265069 
z
" style="stroke: #1f77b4; stroke-opacity: 0.2"/>
    </defs>
    <g clip-path="url(#p5e2f092459)">
     <use xlink:href="#mb5028fd951" x="0" y="648" style="fill: #1f77b4; fill-opacity: 0.2; stroke: #1f77b4; stroke-opacity: 0.2"/>
    </g>
   </g>
   <g id="PolyCollection_2">
    <defs>
     <path id="m28d91865ea" d="M 51.365 -361.307336 
L 51.365 -266.846537 
L 71.5948 -291.428605 
L 91.8246 -279.503292 
L 112.0544 -290.144163 
L 132.2842 -308.322076 
L 152.514 -305.558868 
L 172.7438 -330.177697 
L 192.9736 -326.326902 
L 213.2034 -332.928263 
L 233.4332 -323.699417 
L 253.663 -333.576462 
L 273.8928 -334.760587 
L 294.1226 -344.113949 
L 314.3524 -328.687441 
L 334.5822 -345.941715 
L 354.812 -355.155646 
L 375.0418 -333.466577 
L 395.2716 -353.496384 
L 415.5014 -345.259999 
L 435.7312 -338.476797 
L 455.961 -354.394725 
L 476.1908 -362.472671 
L 496.4206 -340.81825 
L 516.6504 -362.880397 
L 536.8802 -368.215691 
L 557.11 -362.909188 
L 577.3398 -376.512392 
L 597.5696 -365.949832 
L 617.7994 -362.781661 
L 638.0292 -374.799315 
L 658.259 -382.635885 
L 678.4888 -369.839651 
L 698.7186 -386.165464 
L 718.9484 -386.913744 
L 739.1782 -392.862316 
L 759.408 -388.715451 
L 779.6378 -405.795077 
L 799.8676 -392.621853 
L 820.0974 -412.703858 
L 840.3272 -415.361817 
L 860.557 -420.786438 
L 880.7868 -391.343656 
L 901.0166 -408.080516 
L 921.2464 -435.509228 
L 941.4762 -416.123254 
L 961.706 -408.550778 
L 981.9358 -422.684612 
L 1002.1656 -401.554227 
L 1022.3954 -417.299433 
L 1042.6252 -417.996818 
L 1062.855 -435.3773 
L 1062.855 -494.499543 
L 1062.855 -494.499543 
L 1042.6252 -478.060506 
L 1022.3954 -487.900002 
L 1002.1656 -457.518224 
L 981.9358 -490.49267 
L 961.706 -485.516081 
L 941.4762 -473.748898 
L 921.2464 -472.047277 
L 901.0166 -462.510146 
L 880.7868 -469.941561 
L 860.557 -486.224518 
L 840.3272 -475.737846 
L 820.0974 -465.873403 
L 799.8676 -462.475932 
L 779.6378 -463.40481 
L 759.408 -450.500307 
L 739.1782 -460.175531 
L 718.9484 -460.732768 
L 698.7186 -454.893363 
L 678.4888 -420.696347 
L 658.259 -463.892367 
L 638.0292 -441.914759 
L 617.7994 -432.798589 
L 597.5696 -426.342448 
L 577.3398 -447.160155 
L 557.11 -429.100001 
L 536.8802 -432.720378 
L 516.6504 -416.724135 
L 496.4206 -410.417278 
L 476.1908 -416.369813 
L 455.961 -409.551222 
L 435.7312 -392.285761 
L 415.5014 -404.437579 
L 395.2716 -426.459863 
L 375.0418 -421.513703 
L 354.812 -404.509043 
L 334.5822 -423.343964 
L 314.3524 -399.416285 
L 294.1226 -406.940268 
L 273.8928 -400.751735 
L 253.663 -398.385078 
L 233.4332 -389.987359 
L 213.2034 -374.202939 
L 192.9736 -387.694331 
L 172.7438 -418.834524 
L 152.514 -363.8228 
L 132.2842 -365.384665 
L 112.0544 -364.940432 
L 91.8246 -347.338039 
L 71.5948 -378.354918 
L 51.365 -361.307336 
z
" style="stroke: #ff7f0e; stroke-opacity: 0.2"/>
    </defs>
    <g clip-path="url(#p5e2f092459)">
     <use xlink:href="#m28d91865ea" x="0" y="648" style="fill: #ff7f0e; fill-opacity: 0.2; stroke: #ff7f0e; stroke-opacity: 0.2"/>
    </g>
   </g>
   <g id="PolyCollection_3">
    <defs>
     <path id="mfa9e586649" d="M 51.365 -499.99358 
L 51.365 -448.609849 
L 71.5948 -452.382706 
L 91.8246 -458.354939 
L 112.0544 -461.91839 
L 132.2842 -468.834909 
L 152.514 -470.248918 
L 172.7438 -473.866454 
L 192.9736 -475.506437 
L 213.2034 -485.792766 
L 233.4332 -489.025924 
L 253.663 -491.034818 
L 273.8928 -495.635546 
L 294.1226 -500.574345 
L 314.3524 -503.098132 
L 334.5822 -500.606434 
L 354.812 -506.623247 
L 375.0418 -509.529894 
L 395.2716 -510.558303 
L 415.5014 -512.333518 
L 435.7312 -515.157891 
L 455.961 -517.832658 
L 476.1908 -518.407221 
L 496.4206 -518.056026 
L 516.6504 -520.760258 
L 536.8802 -523.273207 
L 557.11 -525.468911 
L 577.3398 -526.012645 
L 597.5696 -526.847223 
L 617.7994 -527.283282 
L 638.0292 -526.231674 
L 658.259 -527.991832 
L 678.4888 -530.456778 
L 698.7186 -529.461838 
L 718.9484 -530.190684 
L 739.1782 -530.928954 
L 759.408 -532.565975 
L 779.6378 -533.686283 
L 799.8676 -536.417762 
L 820.0974 -537.680382 
L 840.3272 -538.197051 
L 860.557 -540.994286 
L 880.7868 -542.646012 
L 901.0166 -542.717588 
L 921.2464 -543.883549 
L 941.4762 -545.222452 
L 961.706 -544.868933 
L 981.9358 -544.070875 
L 1002.1656 -543.620454 
L 1022.3954 -543.239354 
L 1042.6252 -541.856401 
L 1062.855 -538.441196 
L 1062.855 -582.774452 
L 1062.855 -582.774452 
L 1042.6252 -584.768689 
L 1022.3954 -585.465039 
L 1002.1656 -585.178813 
L 981.9358 -584.368479 
L 961.706 -584.294727 
L 941.4762 -585.506627 
L 921.2464 -583.808742 
L 901.0166 -584.600429 
L 880.7868 -585.099582 
L 860.557 -583.41377 
L 840.3272 -583.266094 
L 820.0974 -581.929121 
L 799.8676 -581.852827 
L 779.6378 -577.332579 
L 759.408 -578.985602 
L 739.1782 -576.914131 
L 718.9484 -575.767328 
L 698.7186 -575.748007 
L 678.4888 -575.362605 
L 658.259 -574.445098 
L 638.0292 -570.16902 
L 617.7994 -571.379144 
L 597.5696 -570.802124 
L 577.3398 -570.279146 
L 557.11 -567.738202 
L 536.8802 -563.960979 
L 516.6504 -559.478759 
L 496.4206 -559.68216 
L 476.1908 -558.273033 
L 455.961 -558.131322 
L 435.7312 -556.084859 
L 415.5014 -553.979597 
L 395.2716 -552.027609 
L 375.0418 -549.246262 
L 354.812 -545.204238 
L 334.5822 -542.240079 
L 314.3524 -541.721173 
L 294.1226 -539.41987 
L 273.8928 -534.75292 
L 253.663 -532.881052 
L 233.4332 -530.090816 
L 213.2034 -529.85116 
L 192.9736 -526.518647 
L 172.7438 -524.439002 
L 152.514 -518.761442 
L 132.2842 -516.145375 
L 112.0544 -508.35692 
L 91.8246 -506.493912 
L 71.5948 -501.840708 
L 51.365 -499.99358 
z
" style="stroke: #2ca02c; stroke-opacity: 0.2"/>
    </defs>
    <g clip-path="url(#p5e2f092459)">
     <use xlink:href="#mfa9e586649" x="0" y="648" style="fill: #2ca02c; fill-opacity: 0.2; stroke: #2ca02c; stroke-opacity: 0.2"/>
    </g>
   </g>
   <g id="PolyCollection_4">
    <defs>
     <path id="mb83f1fcad7" d="M 51.365 -506.010588 
L 51.365 -442.068368 
L 71.5948 -451.659072 
L 91.8246 -454.757999 
L 112.0544 -456.701225 
L 132.2842 -458.156327 
L 152.514 -459.966924 
L 172.7438 -461.801561 
L 192.9736 -466.113873 
L 213.2034 -466.665579 
L 233.4332 -468.427046 
L 253.663 -471.538318 
L 273.8928 -472.269365 
L 294.1226 -476.815899 
L 314.3524 -480.408774 
L 334.5822 -484.507214 
L 354.812 -486.308905 
L 375.0418 -486.552814 
L 395.2716 -492.132437 
L 415.5014 -493.117169 
L 435.7312 -495.42365 
L 455.961 -496.587238 
L 476.1908 -503.815523 
L 496.4206 -511.205213 
L 516.6504 -512.950391 
L 536.8802 -516.282342 
L 557.11 -516.311034 
L 577.3398 -519.51714 
L 597.5696 -521.950266 
L 617.7994 -523.459577 
L 638.0292 -525.66865 
L 658.259 -525.936186 
L 678.4888 -527.500337 
L 698.7186 -528.389666 
L 718.9484 -528.932557 
L 739.1782 -531.885953 
L 759.408 -532.446555 
L 779.6378 -535.059412 
L 799.8676 -535.378367 
L 820.0974 -536.677575 
L 840.3272 -539.722567 
L 860.557 -540.267949 
L 880.7868 -541.259761 
L 901.0166 -541.268613 
L 921.2464 -542.796757 
L 941.4762 -542.049585 
L 961.706 -540.613388 
L 981.9358 -539.59409 
L 1002.1656 -543.660483 
L 1022.3954 -544.159321 
L 1042.6252 -543.395516 
L 1062.855 -543.110581 
L 1062.855 -584.57935 
L 1062.855 -584.57935 
L 1042.6252 -585.814378 
L 1022.3954 -586.168044 
L 1002.1656 -585.954987 
L 981.9358 -584.066359 
L 961.706 -584.881267 
L 941.4762 -583.806701 
L 921.2464 -584.063258 
L 901.0166 -584.495543 
L 880.7868 -584.664213 
L 860.557 -583.95116 
L 840.3272 -583.186105 
L 820.0974 -581.333335 
L 799.8676 -579.97722 
L 779.6378 -579.248807 
L 759.408 -579.220211 
L 739.1782 -579.295075 
L 718.9484 -575.643451 
L 698.7186 -574.135328 
L 678.4888 -573.086973 
L 658.259 -572.234714 
L 638.0292 -570.027339 
L 617.7994 -569.234353 
L 597.5696 -566.325919 
L 577.3398 -563.490021 
L 557.11 -562.179307 
L 536.8802 -559.681925 
L 516.6504 -557.976734 
L 496.4206 -557.426828 
L 476.1908 -556.22414 
L 455.961 -553.996128 
L 435.7312 -552.898425 
L 415.5014 -549.44093 
L 395.2716 -545.48378 
L 375.0418 -543.871529 
L 354.812 -543.252451 
L 334.5822 -540.191477 
L 314.3524 -532.922189 
L 294.1226 -531.350079 
L 273.8928 -527.450594 
L 253.663 -526.562497 
L 233.4332 -525.233022 
L 213.2034 -521.723405 
L 192.9736 -519.801103 
L 172.7438 -518.286254 
L 152.514 -517.873975 
L 132.2842 -515.075216 
L 112.0544 -514.525233 
L 91.8246 -510.319204 
L 71.5948 -506.549552 
L 51.365 -506.010588 
z
" style="stroke: #d62728; stroke-opacity: 0.2"/>
    </defs>
    <g clip-path="url(#p5e2f092459)">
     <use xlink:href="#mb83f1fcad7" x="0" y="648" style="fill: #d62728; fill-opacity: 0.2; stroke: #d62728; stroke-opacity: 0.2"/>
    </g>
   </g>
   <g id="PolyCollection_5">
    <defs>
     <path id="m9ed6dbadf9" d="M 51.365 -454.896082 
L 51.365 -411.668092 
L 71.5948 -417.206571 
L 91.8246 -419.249841 
L 112.0544 -424.863776 
L 132.2842 -431.578077 
L 152.514 -438.727038 
L 172.7438 -439.725799 
L 192.9736 -442.191273 
L 213.2034 -443.33919 
L 233.4332 -450.584245 
L 253.663 -450.5819 
L 273.8928 -455.909788 
L 294.1226 -456.613687 
L 314.3524 -457.60695 
L 334.5822 -456.165 
L 354.812 -456.092574 
L 375.0418 -464.117153 
L 395.2716 -467.18708 
L 415.5014 -467.883261 
L 435.7312 -468.719882 
L 455.961 -459.883469 
L 476.1908 -457.468139 
L 496.4206 -467.593629 
L 516.6504 -479.428381 
L 536.8802 -481.090519 
L 557.11 -476.817096 
L 577.3398 -480.247486 
L 597.5696 -488.40387 
L 617.7994 -488.61038 
L 638.0292 -489.044043 
L 658.259 -489.779801 
L 678.4888 -488.170792 
L 698.7186 -486.499796 
L 718.9484 -489.902802 
L 739.1782 -491.208168 
L 759.408 -492.27932 
L 779.6378 -500.888881 
L 799.8676 -501.653577 
L 820.0974 -501.645777 
L 840.3272 -501.362583 
L 860.557 -500.583186 
L 880.7868 -503.31303 
L 901.0166 -506.894046 
L 921.2464 -513.423339 
L 941.4762 -517.392568 
L 961.706 -519.754238 
L 981.9358 -519.622665 
L 1002.1656 -522.997988 
L 1022.3954 -525.266064 
L 1042.6252 -527.591113 
L 1062.855 -529.437081 
L 1062.855 -574.745295 
L 1062.855 -574.745295 
L 1042.6252 -573.404886 
L 1022.3954 -573.381318 
L 1002.1656 -572.399115 
L 981.9358 -568.984084 
L 961.706 -568.15536 
L 941.4762 -564.128996 
L 921.2464 -561.394693 
L 901.0166 -553.645821 
L 880.7868 -553.122338 
L 860.557 -551.720525 
L 840.3272 -551.240161 
L 820.0974 -549.951005 
L 799.8676 -548.813101 
L 779.6378 -549.511764 
L 759.408 -544.516265 
L 739.1782 -543.628486 
L 718.9484 -543.521444 
L 698.7186 -541.037267 
L 678.4888 -537.470005 
L 658.259 -535.547593 
L 638.0292 -535.432046 
L 617.7994 -535.073294 
L 597.5696 -536.177024 
L 577.3398 -531.300313 
L 557.11 -532.03616 
L 536.8802 -531.435601 
L 516.6504 -528.165089 
L 496.4206 -525.695008 
L 476.1908 -516.613529 
L 455.961 -513.524292 
L 435.7312 -512.307043 
L 415.5014 -510.888631 
L 395.2716 -508.199492 
L 375.0418 -506.068738 
L 354.812 -501.483494 
L 334.5822 -502.773626 
L 314.3524 -501.182228 
L 294.1226 -499.027361 
L 273.8928 -498.143177 
L 253.663 -493.074391 
L 233.4332 -491.710525 
L 213.2034 -487.569984 
L 192.9736 -486.981405 
L 172.7438 -486.586377 
L 152.514 -482.453126 
L 132.2842 -473.70532 
L 112.0544 -466.213423 
L 91.8246 -464.546583 
L 71.5948 -462.950184 
L 51.365 -454.896082 
z
" style="stroke: #9467bd; stroke-opacity: 0.2"/>
    </defs>
    <g clip-path="url(#p5e2f092459)">
     <use xlink:href="#m9ed6dbadf9" x="0" y="648" style="fill: #9467bd; fill-opacity: 0.2; stroke: #9467bd; stroke-opacity: 0.2"/>
    </g>
   </g>
   <g id="PolyCollection_6">
    <defs>
     <path id="me527927625" d="M 51.365 -515.616174 
L 51.365 -463.731612 
L 71.5948 -467.909382 
L 91.8246 -471.985154 
L 112.0544 -482.284717 
L 132.2842 -486.088433 
L 152.514 -487.132289 
L 172.7438 -492.729389 
L 192.9736 -493.801544 
L 213.2034 -495.019441 
L 233.4332 -498.350575 
L 253.663 -494.549744 
L 273.8928 -493.822433 
L 294.1226 -500.013705 
L 314.3524 -500.964953 
L 334.5822 -500.269854 
L 354.812 -503.117158 
L 375.0418 -503.581299 
L 395.2716 -504.078692 
L 415.5014 -506.160291 
L 435.7312 -505.641206 
L 455.961 -507.092845 
L 476.1908 -507.876248 
L 496.4206 -507.947715 
L 516.6504 -508.50572 
L 536.8802 -510.348782 
L 557.11 -509.434672 
L 577.3398 -510.471494 
L 597.5696 -508.084242 
L 617.7994 -507.968865 
L 638.0292 -510.864879 
L 658.259 -511.298822 
L 678.4888 -512.438836 
L 698.7186 -510.471748 
L 718.9484 -515.017835 
L 739.1782 -515.914182 
L 759.408 -514.744084 
L 779.6378 -517.805318 
L 799.8676 -519.512951 
L 820.0974 -520.694702 
L 840.3272 -521.41418 
L 860.557 -521.574395 
L 880.7868 -519.439109 
L 901.0166 -521.270588 
L 921.2464 -520.511446 
L 941.4762 -523.389929 
L 961.706 -523.492478 
L 981.9358 -527.602595 
L 1002.1656 -526.94445 
L 1022.3954 -525.349196 
L 1042.6252 -527.204462 
L 1062.855 -529.876822 
L 1062.855 -584.353133 
L 1062.855 -584.353133 
L 1042.6252 -584.271886 
L 1022.3954 -581.219114 
L 1002.1656 -580.511065 
L 981.9358 -578.298198 
L 961.706 -575.587207 
L 941.4762 -575.2923 
L 921.2464 -569.976149 
L 901.0166 -570.110574 
L 880.7868 -567.529456 
L 860.557 -566.513829 
L 840.3272 -566.025767 
L 820.0974 -564.429405 
L 799.8676 -563.105139 
L 779.6378 -562.429357 
L 759.408 -560.692585 
L 739.1782 -560.351752 
L 718.9484 -559.05798 
L 698.7186 -556.149332 
L 678.4888 -554.591534 
L 658.259 -554.079074 
L 638.0292 -551.467381 
L 617.7994 -549.835924 
L 597.5696 -550.706696 
L 577.3398 -549.575609 
L 557.11 -549.311538 
L 536.8802 -550.285971 
L 516.6504 -550.711182 
L 496.4206 -550.128763 
L 476.1908 -549.391586 
L 455.961 -547.474876 
L 435.7312 -545.689961 
L 415.5014 -545.502158 
L 395.2716 -544.811639 
L 375.0418 -544.206501 
L 354.812 -544.235075 
L 334.5822 -542.047927 
L 314.3524 -540.619749 
L 294.1226 -539.854724 
L 273.8928 -540.239467 
L 253.663 -538.681611 
L 233.4332 -536.241746 
L 213.2034 -534.16145 
L 192.9736 -532.494926 
L 172.7438 -530.718339 
L 152.514 -530.877217 
L 132.2842 -528.761021 
L 112.0544 -524.949675 
L 91.8246 -523.794839 
L 71.5948 -519.632372 
L 51.365 -515.616174 
z
" style="stroke: #8c564b; stroke-opacity: 0.2"/>
    </defs>
    <g clip-path="url(#p5e2f092459)">
     <use xlink:href="#me527927625" x="0" y="648" style="fill: #8c564b; fill-opacity: 0.2; stroke: #8c564b; stroke-opacity: 0.2"/>
    </g>
   </g>
   <g id="PolyCollection_7">
    <defs>
     <path id="md5679951c5" d="M 51.365 -510.043707 
L 51.365 -464.927046 
L 71.5948 -471.326578 
L 91.8246 -474.75783 
L 112.0544 -477.297115 
L 132.2842 -480.04676 
L 152.514 -480.24633 
L 172.7438 -483.340549 
L 192.9736 -481.981971 
L 213.2034 -486.419789 
L 233.4332 -483.949101 
L 253.663 -487.069941 
L 273.8928 -489.851838 
L 294.1226 -486.77337 
L 314.3524 -484.676653 
L 334.5822 -487.063209 
L 354.812 -491.254211 
L 375.0418 -492.23426 
L 395.2716 -493.073739 
L 415.5014 -494.69307 
L 435.7312 -494.356111 
L 455.961 -496.191198 
L 476.1908 -497.102695 
L 496.4206 -498.401203 
L 516.6504 -499.594349 
L 536.8802 -501.780431 
L 557.11 -506.206566 
L 577.3398 -505.582909 
L 597.5696 -507.491235 
L 617.7994 -509.011076 
L 638.0292 -510.563478 
L 658.259 -510.16599 
L 678.4888 -513.729786 
L 698.7186 -514.452569 
L 718.9484 -515.809876 
L 739.1782 -516.376255 
L 759.408 -518.41349 
L 779.6378 -520.752304 
L 799.8676 -524.410584 
L 820.0974 -526.536078 
L 840.3272 -524.993538 
L 860.557 -522.850096 
L 880.7868 -522.952221 
L 901.0166 -525.463872 
L 921.2464 -527.964658 
L 941.4762 -531.246858 
L 961.706 -533.5033 
L 981.9358 -535.815792 
L 1002.1656 -536.504883 
L 1022.3954 -532.062505 
L 1042.6252 -534.075668 
L 1062.855 -533.360835 
L 1062.855 -587.879198 
L 1062.855 -587.879198 
L 1042.6252 -587.60278 
L 1022.3954 -585.592111 
L 1002.1656 -583.172169 
L 981.9358 -582.528653 
L 961.706 -583.29949 
L 941.4762 -581.900158 
L 921.2464 -580.501754 
L 901.0166 -580.974686 
L 880.7868 -579.613239 
L 860.557 -577.776742 
L 840.3272 -577.489674 
L 820.0974 -576.742914 
L 799.8676 -577.62439 
L 779.6378 -573.49365 
L 759.408 -569.234736 
L 739.1782 -569.442898 
L 718.9484 -567.811156 
L 698.7186 -565.050721 
L 678.4888 -565.846884 
L 658.259 -565.377767 
L 638.0292 -565.913995 
L 617.7994 -561.028233 
L 597.5696 -558.730917 
L 577.3398 -556.942485 
L 557.11 -555.310337 
L 536.8802 -551.726293 
L 516.6504 -548.923135 
L 496.4206 -545.459915 
L 476.1908 -543.741254 
L 455.961 -541.98731 
L 435.7312 -536.460179 
L 415.5014 -535.779081 
L 395.2716 -532.335966 
L 375.0418 -531.452508 
L 354.812 -532.897439 
L 334.5822 -528.061776 
L 314.3524 -528.829173 
L 294.1226 -529.514041 
L 273.8928 -528.911795 
L 253.663 -526.278823 
L 233.4332 -524.356687 
L 213.2034 -523.721438 
L 192.9736 -524.71481 
L 172.7438 -522.735213 
L 152.514 -521.505103 
L 132.2842 -521.473272 
L 112.0544 -519.402762 
L 91.8246 -517.12568 
L 71.5948 -511.750956 
L 51.365 -510.043707 
z
" style="stroke: #e377c2; stroke-opacity: 0.2"/>
    </defs>
    <g clip-path="url(#p5e2f092459)">
     <use xlink:href="#md5679951c5" x="0" y="648" style="fill: #e377c2; fill-opacity: 0.2; stroke: #e377c2; stroke-opacity: 0.2"/>
    </g>
   </g>
   <g id="PolyCollection_8">
    <defs>
     <path id="me419397b54" d="M 51.365 -512.066706 
L 51.365 -469.428694 
L 71.5948 -473.400813 
L 91.8246 -476.015122 
L 112.0544 -482.936618 
L 132.2842 -483.301029 
L 152.514 -484.208157 
L 172.7438 -487.538483 
L 192.9736 -489.088015 
L 213.2034 -490.180987 
L 233.4332 -491.702706 
L 253.663 -493.448744 
L 273.8928 -494.246889 
L 294.1226 -494.49224 
L 314.3524 -494.85419 
L 334.5822 -495.661056 
L 354.812 -497.205605 
L 375.0418 -497.162585 
L 395.2716 -498.171378 
L 415.5014 -502.685722 
L 435.7312 -506.308271 
L 455.961 -506.371449 
L 476.1908 -506.120703 
L 496.4206 -507.006839 
L 516.6504 -507.824027 
L 536.8802 -509.173229 
L 557.11 -509.189392 
L 577.3398 -511.585244 
L 597.5696 -512.271929 
L 617.7994 -512.843423 
L 638.0292 -513.299441 
L 658.259 -515.529755 
L 678.4888 -513.90388 
L 698.7186 -514.060228 
L 718.9484 -516.721603 
L 739.1782 -518.48916 
L 759.408 -522.109291 
L 779.6378 -520.788486 
L 799.8676 -520.252409 
L 820.0974 -517.729591 
L 840.3272 -520.984665 
L 860.557 -519.043093 
L 880.7868 -522.379726 
L 901.0166 -526.244792 
L 921.2464 -527.820182 
L 941.4762 -529.311243 
L 961.706 -531.687226 
L 981.9358 -528.735159 
L 1002.1656 -530.837984 
L 1022.3954 -528.140651 
L 1042.6252 -531.600078 
L 1062.855 -531.982283 
L 1062.855 -581.601069 
L 1062.855 -581.601069 
L 1042.6252 -580.492028 
L 1022.3954 -581.544039 
L 1002.1656 -584.336238 
L 981.9358 -583.241864 
L 961.706 -581.535839 
L 941.4762 -579.691782 
L 921.2464 -579.091806 
L 901.0166 -578.531394 
L 880.7868 -574.860332 
L 860.557 -571.333966 
L 840.3272 -568.100907 
L 820.0974 -568.969711 
L 799.8676 -569.450756 
L 779.6378 -569.861877 
L 759.408 -569.165435 
L 739.1782 -569.163255 
L 718.9484 -565.612771 
L 698.7186 -563.487067 
L 678.4888 -562.605044 
L 658.259 -563.379265 
L 638.0292 -559.690737 
L 617.7994 -558.634459 
L 597.5696 -559.281053 
L 577.3398 -559.706084 
L 557.11 -556.1658 
L 536.8802 -554.057675 
L 516.6504 -552.020943 
L 496.4206 -551.341779 
L 476.1908 -552.389115 
L 455.961 -552.415542 
L 435.7312 -551.467998 
L 415.5014 -549.441092 
L 395.2716 -543.616101 
L 375.0418 -540.628596 
L 354.812 -539.031977 
L 334.5822 -538.476856 
L 314.3524 -535.496896 
L 294.1226 -534.004227 
L 273.8928 -533.389988 
L 253.663 -532.416101 
L 233.4332 -529.504526 
L 213.2034 -525.86779 
L 192.9736 -525.557038 
L 172.7438 -523.864723 
L 152.514 -524.987724 
L 132.2842 -524.336721 
L 112.0544 -523.246973 
L 91.8246 -519.595496 
L 71.5948 -518.613 
L 51.365 -512.066706 
z
" style="stroke: #7f7f7f; stroke-opacity: 0.2"/>
    </defs>
    <g clip-path="url(#p5e2f092459)">
     <use xlink:href="#me419397b54" x="0" y="648" style="fill: #7f7f7f; fill-opacity: 0.2; stroke: #7f7f7f; stroke-opacity: 0.2"/>
    </g>
   </g>
   <g id="PolyCollection_9">
    <defs>
     <path id="mc25aae572c" d="M 51.365 -522.10019 
L 51.365 -476.496736 
L 71.5948 -476.645734 
L 91.8246 -476.912862 
L 112.0544 -477.40064 
L 132.2842 -477.232296 
L 152.514 -477.026336 
L 172.7438 -478.330111 
L 192.9736 -480.20751 
L 213.2034 -485.0439 
L 233.4332 -485.703518 
L 253.663 -489.158469 
L 273.8928 -491.248235 
L 294.1226 -492.76733 
L 314.3524 -496.390704 
L 334.5822 -497.01929 
L 354.812 -500.624751 
L 375.0418 -499.804657 
L 395.2716 -502.844883 
L 415.5014 -504.307792 
L 435.7312 -501.850375 
L 455.961 -506.161755 
L 476.1908 -506.808041 
L 496.4206 -506.917901 
L 516.6504 -507.024849 
L 536.8802 -509.917341 
L 557.11 -510.957219 
L 577.3398 -512.666383 
L 597.5696 -514.289634 
L 617.7994 -516.698209 
L 638.0292 -520.009274 
L 658.259 -521.476892 
L 678.4888 -522.354182 
L 698.7186 -522.881834 
L 718.9484 -523.621283 
L 739.1782 -523.548479 
L 759.408 -529.913498 
L 779.6378 -531.282687 
L 799.8676 -529.711988 
L 820.0974 -528.726693 
L 840.3272 -529.901151 
L 860.557 -534.874144 
L 880.7868 -536.563319 
L 901.0166 -532.31736 
L 921.2464 -535.409045 
L 941.4762 -532.930232 
L 961.706 -536.251857 
L 981.9358 -539.259763 
L 1002.1656 -538.190562 
L 1022.3954 -540.473437 
L 1042.6252 -540.499234 
L 1062.855 -543.566502 
L 1062.855 -593.432402 
L 1062.855 -593.432402 
L 1042.6252 -592.999433 
L 1022.3954 -593.276484 
L 1002.1656 -591.679271 
L 981.9358 -590.44298 
L 961.706 -587.693347 
L 941.4762 -589.618058 
L 921.2464 -589.406707 
L 901.0166 -586.323545 
L 880.7868 -584.680051 
L 860.557 -583.051194 
L 840.3272 -583.316454 
L 820.0974 -580.286698 
L 799.8676 -579.672594 
L 779.6378 -580.207888 
L 759.408 -580.278341 
L 739.1782 -575.618968 
L 718.9484 -574.897476 
L 698.7186 -574.430599 
L 678.4888 -573.941451 
L 658.259 -572.007876 
L 638.0292 -572.543495 
L 617.7994 -569.399049 
L 597.5696 -565.311453 
L 577.3398 -567.638004 
L 557.11 -565.00126 
L 536.8802 -561.895655 
L 516.6504 -558.305697 
L 496.4206 -556.489855 
L 476.1908 -555.364915 
L 455.961 -554.069402 
L 435.7312 -551.865372 
L 415.5014 -550.87267 
L 395.2716 -545.825161 
L 375.0418 -546.341002 
L 354.812 -540.75574 
L 334.5822 -539.963778 
L 314.3524 -537.62063 
L 294.1226 -533.910013 
L 273.8928 -531.684933 
L 253.663 -531.008805 
L 233.4332 -529.954754 
L 213.2034 -528.541399 
L 192.9736 -525.484896 
L 172.7438 -525.493441 
L 152.514 -524.455801 
L 132.2842 -525.480559 
L 112.0544 -525.869241 
L 91.8246 -526.510021 
L 71.5948 -525.134088 
L 51.365 -522.10019 
z
" style="stroke: #bcbd22; stroke-opacity: 0.2"/>
    </defs>
    <g clip-path="url(#p5e2f092459)">
     <use xlink:href="#mc25aae572c" x="0" y="648" style="fill: #bcbd22; fill-opacity: 0.2; stroke: #bcbd22; stroke-opacity: 0.2"/>
    </g>
   </g>
   <g id="PolyCollection_10">
    <defs>
     <path id="mfced60a171" d="M 51.365 -544.69994 
L 51.365 -488.666207 
L 71.5948 -487.496188 
L 91.8246 -489.870901 
L 112.0544 -488.779737 
L 132.2842 -488.457199 
L 152.514 -488.722557 
L 172.7438 -488.840154 
L 192.9736 -489.174256 
L 213.2034 -487.738673 
L 233.4332 -487.020235 
L 253.663 -489.364253 
L 273.8928 -490.981435 
L 294.1226 -492.161501 
L 314.3524 -492.311124 
L 334.5822 -493.141749 
L 354.812 -492.954432 
L 375.0418 -494.719591 
L 395.2716 -493.341639 
L 415.5014 -494.776966 
L 435.7312 -496.848358 
L 455.961 -497.566053 
L 476.1908 -499.51166 
L 496.4206 -498.78021 
L 516.6504 -497.334943 
L 536.8802 -502.373928 
L 557.11 -507.362945 
L 577.3398 -509.338455 
L 597.5696 -513.542941 
L 617.7994 -514.197738 
L 638.0292 -514.719045 
L 658.259 -513.025905 
L 678.4888 -511.270633 
L 698.7186 -512.072032 
L 718.9484 -511.985611 
L 739.1782 -516.352291 
L 759.408 -518.426561 
L 779.6378 -521.034599 
L 799.8676 -519.976325 
L 820.0974 -520.352429 
L 840.3272 -519.232817 
L 860.557 -521.364506 
L 880.7868 -521.339512 
L 901.0166 -525.001095 
L 921.2464 -526.45427 
L 941.4762 -526.000107 
L 961.706 -527.479246 
L 981.9358 -525.889253 
L 1002.1656 -529.433345 
L 1022.3954 -531.222195 
L 1042.6252 -532.573644 
L 1062.855 -532.993517 
L 1062.855 -587.570701 
L 1062.855 -587.570701 
L 1042.6252 -586.595263 
L 1022.3954 -585.596315 
L 1002.1656 -587.670153 
L 981.9358 -581.684535 
L 961.706 -582.050103 
L 941.4762 -580.99724 
L 921.2464 -582.339711 
L 901.0166 -580.530609 
L 880.7868 -578.791617 
L 860.557 -578.123421 
L 840.3272 -576.717235 
L 820.0974 -575.986077 
L 799.8676 -575.009329 
L 779.6378 -575.746329 
L 759.408 -577.477119 
L 739.1782 -575.887227 
L 718.9484 -576.893391 
L 698.7186 -578.112267 
L 678.4888 -577.05641 
L 658.259 -576.25668 
L 638.0292 -573.724383 
L 617.7994 -571.549159 
L 597.5696 -572.76324 
L 577.3398 -573.375659 
L 557.11 -571.736293 
L 536.8802 -568.837793 
L 516.6504 -567.70736 
L 496.4206 -566.0081 
L 476.1908 -564.782665 
L 455.961 -564.103448 
L 435.7312 -564.175553 
L 415.5014 -563.388976 
L 395.2716 -561.361622 
L 375.0418 -561.949286 
L 354.812 -562.184914 
L 334.5822 -562.875116 
L 314.3524 -563.231732 
L 294.1226 -559.863193 
L 273.8928 -556.80081 
L 253.663 -555.557117 
L 233.4332 -553.337389 
L 213.2034 -548.708918 
L 192.9736 -550.019145 
L 172.7438 -548.271946 
L 152.514 -546.635927 
L 132.2842 -543.308031 
L 112.0544 -541.788918 
L 91.8246 -542.079892 
L 71.5948 -542.64909 
L 51.365 -544.69994 
z
" style="stroke: #17becf; stroke-opacity: 0.2"/>
    </defs>
    <g clip-path="url(#p5e2f092459)">
     <use xlink:href="#mfced60a171" x="0" y="648" style="fill: #17becf; fill-opacity: 0.2; stroke: #17becf; stroke-opacity: 0.2"/>
    </g>
   </g>
   <g id="PolyCollection_11">
    <defs>
     <path id="mdb30d63a96" d="M 51.365 -540.464376 
L 51.365 -482.084892 
L 71.5948 -484.943183 
L 91.8246 -490.42631 
L 112.0544 -492.415068 
L 132.2842 -493.374388 
L 152.514 -496.033513 
L 172.7438 -501.66484 
L 192.9736 -505.356076 
L 213.2034 -503.933408 
L 233.4332 -504.050421 
L 253.663 -504.858404 
L 273.8928 -504.045474 
L 294.1226 -506.362658 
L 314.3524 -507.565594 
L 334.5822 -506.004386 
L 354.812 -507.683388 
L 375.0418 -510.762435 
L 395.2716 -511.09644 
L 415.5014 -510.684942 
L 435.7312 -510.647821 
L 455.961 -511.123175 
L 476.1908 -510.586554 
L 496.4206 -511.488683 
L 516.6504 -510.419373 
L 536.8802 -512.158225 
L 557.11 -512.673383 
L 577.3398 -513.26336 
L 597.5696 -513.820655 
L 617.7994 -515.234302 
L 638.0292 -516.442937 
L 658.259 -515.869205 
L 678.4888 -517.209478 
L 698.7186 -518.266212 
L 718.9484 -519.761858 
L 739.1782 -519.871219 
L 759.408 -521.690799 
L 779.6378 -524.54059 
L 799.8676 -522.924662 
L 820.0974 -524.675873 
L 840.3272 -522.757354 
L 860.557 -520.407748 
L 880.7868 -520.374467 
L 901.0166 -524.599985 
L 921.2464 -526.32953 
L 941.4762 -528.217393 
L 961.706 -529.969739 
L 981.9358 -529.820234 
L 1002.1656 -535.92688 
L 1022.3954 -535.409645 
L 1042.6252 -536.820268 
L 1062.855 -533.550491 
L 1062.855 -589.174626 
L 1062.855 -589.174626 
L 1042.6252 -590.284383 
L 1022.3954 -589.719004 
L 1002.1656 -590.202114 
L 981.9358 -586.671488 
L 961.706 -588.464612 
L 941.4762 -587.204092 
L 921.2464 -584.387671 
L 901.0166 -581.677563 
L 880.7868 -578.001586 
L 860.557 -577.611499 
L 840.3272 -579.049829 
L 820.0974 -579.84971 
L 799.8676 -578.264923 
L 779.6378 -578.090804 
L 759.408 -578.129459 
L 739.1782 -576.249464 
L 718.9484 -575.19985 
L 698.7186 -575.885203 
L 678.4888 -571.461658 
L 658.259 -568.775679 
L 638.0292 -570.460077 
L 617.7994 -571.31535 
L 597.5696 -570.322392 
L 577.3398 -571.121785 
L 557.11 -567.654307 
L 536.8802 -565.457047 
L 516.6504 -563.315011 
L 496.4206 -564.868509 
L 476.1908 -562.396446 
L 455.961 -563.458835 
L 435.7312 -561.549148 
L 415.5014 -559.09294 
L 395.2716 -560.262736 
L 375.0418 -559.156061 
L 354.812 -556.829479 
L 334.5822 -557.177142 
L 314.3524 -559.258519 
L 294.1226 -556.714663 
L 273.8928 -555.799747 
L 253.663 -556.286104 
L 233.4332 -554.306338 
L 213.2034 -554.560197 
L 192.9736 -554.577741 
L 172.7438 -554.857521 
L 152.514 -551.640848 
L 132.2842 -554.265377 
L 112.0544 -552.375886 
L 91.8246 -545.093538 
L 71.5948 -541.026874 
L 51.365 -540.464376 
z
" style="stroke: #9edae5; stroke-opacity: 0.2"/>
    </defs>
    <g clip-path="url(#p5e2f092459)">
     <use xlink:href="#mdb30d63a96" x="0" y="648" style="fill: #9edae5; fill-opacity: 0.2; stroke: #9edae5; stroke-opacity: 0.2"/>
    </g>
   </g>
   <g id="matplotlib.axis_1">
    <g id="xtick_1">
     <g id="line2d_1">
      <defs>
       <path id="m7607486948" d="M 0 0 
L 0 3.5 
" style="stroke: #000000; stroke-width: 0.8"/>
      </defs>
      <g>
       <use xlink:href="#m7607486948" x="51.365" y="602.44" style="stroke: #000000; stroke-width: 0.8"/>
      </g>
     </g>
     <g id="text_1">
      <!-- 30 -->
      <g transform="translate(45.0025 617.038437) scale(0.1 -0.1)">
       <defs>
        <path id="DejaVuSans-33" d="M 2597 2516 
Q 3050 2419 3304 2112 
Q 3559 1806 3559 1356 
Q 3559 666 3084 287 
Q 2609 -91 1734 -91 
Q 1441 -91 1130 -33 
Q 819 25 488 141 
L 488 750 
Q 750 597 1062 519 
Q 1375 441 1716 441 
Q 2309 441 2620 675 
Q 2931 909 2931 1356 
Q 2931 1769 2642 2001 
Q 2353 2234 1838 2234 
L 1294 2234 
L 1294 2753 
L 1863 2753 
Q 2328 2753 2575 2939 
Q 2822 3125 2822 3475 
Q 2822 3834 2567 4026 
Q 2313 4219 1838 4219 
Q 1578 4219 1281 4162 
Q 984 4106 628 3988 
L 628 4550 
Q 988 4650 1302 4700 
Q 1616 4750 1894 4750 
Q 2613 4750 3031 4423 
Q 3450 4097 3450 3541 
Q 3450 3153 3228 2886 
Q 3006 2619 2597 2516 
z
" transform="scale(0.015625)"/>
        <path id="DejaVuSans-30" d="M 2034 4250 
Q 1547 4250 1301 3770 
Q 1056 3291 1056 2328 
Q 1056 1369 1301 889 
Q 1547 409 2034 409 
Q 2525 409 2770 889 
Q 3016 1369 3016 2328 
Q 3016 3291 2770 3770 
Q 2525 4250 2034 4250 
z
M 2034 4750 
Q 2819 4750 3233 4129 
Q 3647 3509 3647 2328 
Q 3647 1150 3233 529 
Q 2819 -91 2034 -91 
Q 1250 -91 836 529 
Q 422 1150 422 2328 
Q 422 3509 836 4129 
Q 1250 4750 2034 4750 
z
" transform="scale(0.015625)"/>
       </defs>
       <use xlink:href="#DejaVuSans-33"/>
       <use xlink:href="#DejaVuSans-30" x="63.623047"/>
      </g>
     </g>
    </g>
    <g id="xtick_2">
     <g id="line2d_2">
      <g>
       <use xlink:href="#m7607486948" x="253.663" y="602.44" style="stroke: #000000; stroke-width: 0.8"/>
      </g>
     </g>
     <g id="text_2">
      <!-- 40 -->
      <g transform="translate(247.3005 617.038437) scale(0.1 -0.1)">
       <defs>
        <path id="DejaVuSans-34" d="M 2419 4116 
L 825 1625 
L 2419 1625 
L 2419 4116 
z
M 2253 4666 
L 3047 4666 
L 3047 1625 
L 3713 1625 
L 3713 1100 
L 3047 1100 
L 3047 0 
L 2419 0 
L 2419 1100 
L 313 1100 
L 313 1709 
L 2253 4666 
z
" transform="scale(0.015625)"/>
       </defs>
       <use xlink:href="#DejaVuSans-34"/>
       <use xlink:href="#DejaVuSans-30" x="63.623047"/>
      </g>
     </g>
    </g>
    <g id="xtick_3">
     <g id="line2d_3">
      <g>
       <use xlink:href="#m7607486948" x="455.961" y="602.44" style="stroke: #000000; stroke-width: 0.8"/>
      </g>
     </g>
     <g id="text_3">
      <!-- 50 -->
      <g transform="translate(449.5985 617.038437) scale(0.1 -0.1)">
       <defs>
        <path id="DejaVuSans-35" d="M 691 4666 
L 3169 4666 
L 3169 4134 
L 1269 4134 
L 1269 2991 
Q 1406 3038 1543 3061 
Q 1681 3084 1819 3084 
Q 2600 3084 3056 2656 
Q 3513 2228 3513 1497 
Q 3513 744 3044 326 
Q 2575 -91 1722 -91 
Q 1428 -91 1123 -41 
Q 819 9 494 109 
L 494 744 
Q 775 591 1075 516 
Q 1375 441 1709 441 
Q 2250 441 2565 725 
Q 2881 1009 2881 1497 
Q 2881 1984 2565 2268 
Q 2250 2553 1709 2553 
Q 1456 2553 1204 2497 
Q 953 2441 691 2322 
L 691 4666 
z
" transform="scale(0.015625)"/>
       </defs>
       <use xlink:href="#DejaVuSans-35"/>
       <use xlink:href="#DejaVuSans-30" x="63.623047"/>
      </g>
     </g>
    </g>
    <g id="xtick_4">
     <g id="line2d_4">
      <g>
       <use xlink:href="#m7607486948" x="658.259" y="602.44" style="stroke: #000000; stroke-width: 0.8"/>
      </g>
     </g>
     <g id="text_4">
      <!-- 60 -->
      <g transform="translate(651.8965 617.038437) scale(0.1 -0.1)">
       <defs>
        <path id="DejaVuSans-36" d="M 2113 2584 
Q 1688 2584 1439 2293 
Q 1191 2003 1191 1497 
Q 1191 994 1439 701 
Q 1688 409 2113 409 
Q 2538 409 2786 701 
Q 3034 994 3034 1497 
Q 3034 2003 2786 2293 
Q 2538 2584 2113 2584 
z
M 3366 4563 
L 3366 3988 
Q 3128 4100 2886 4159 
Q 2644 4219 2406 4219 
Q 1781 4219 1451 3797 
Q 1122 3375 1075 2522 
Q 1259 2794 1537 2939 
Q 1816 3084 2150 3084 
Q 2853 3084 3261 2657 
Q 3669 2231 3669 1497 
Q 3669 778 3244 343 
Q 2819 -91 2113 -91 
Q 1303 -91 875 529 
Q 447 1150 447 2328 
Q 447 3434 972 4092 
Q 1497 4750 2381 4750 
Q 2619 4750 2861 4703 
Q 3103 4656 3366 4563 
z
" transform="scale(0.015625)"/>
       </defs>
       <use xlink:href="#DejaVuSans-36"/>
       <use xlink:href="#DejaVuSans-30" x="63.623047"/>
      </g>
     </g>
    </g>
    <g id="xtick_5">
     <g id="line2d_5">
      <g>
       <use xlink:href="#m7607486948" x="860.557" y="602.44" style="stroke: #000000; stroke-width: 0.8"/>
      </g>
     </g>
     <g id="text_5">
      <!-- 70 -->
      <g transform="translate(854.1945 617.038437) scale(0.1 -0.1)">
       <defs>
        <path id="DejaVuSans-37" d="M 525 4666 
L 3525 4666 
L 3525 4397 
L 1831 0 
L 1172 0 
L 2766 4134 
L 525 4134 
L 525 4666 
z
" transform="scale(0.015625)"/>
       </defs>
       <use xlink:href="#DejaVuSans-37"/>
       <use xlink:href="#DejaVuSans-30" x="63.623047"/>
      </g>
     </g>
    </g>
    <g id="xtick_6">
     <g id="line2d_6">
      <g>
       <use xlink:href="#m7607486948" x="1062.855" y="602.44" style="stroke: #000000; stroke-width: 0.8"/>
      </g>
     </g>
     <g id="text_6">
      <!-- 80 -->
      <g transform="translate(1056.4925 617.038437) scale(0.1 -0.1)">
       <defs>
        <path id="DejaVuSans-38" d="M 2034 2216 
Q 1584 2216 1326 1975 
Q 1069 1734 1069 1313 
Q 1069 891 1326 650 
Q 1584 409 2034 409 
Q 2484 409 2743 651 
Q 3003 894 3003 1313 
Q 3003 1734 2745 1975 
Q 2488 2216 2034 2216 
z
M 1403 2484 
Q 997 2584 770 2862 
Q 544 3141 544 3541 
Q 544 4100 942 4425 
Q 1341 4750 2034 4750 
Q 2731 4750 3128 4425 
Q 3525 4100 3525 3541 
Q 3525 3141 3298 2862 
Q 3072 2584 2669 2484 
Q 3125 2378 3379 2068 
Q 3634 1759 3634 1313 
Q 3634 634 3220 271 
Q 2806 -91 2034 -91 
Q 1263 -91 848 271 
Q 434 634 434 1313 
Q 434 1759 690 2068 
Q 947 2378 1403 2484 
z
M 1172 3481 
Q 1172 3119 1398 2916 
Q 1625 2713 2034 2713 
Q 2441 2713 2670 2916 
Q 2900 3119 2900 3481 
Q 2900 3844 2670 4047 
Q 2441 4250 2034 4250 
Q 1625 4250 1398 4047 
Q 1172 3844 1172 3481 
z
" transform="scale(0.015625)"/>
       </defs>
       <use xlink:href="#DejaVuSans-38"/>
       <use xlink:href="#DejaVuSans-30" x="63.623047"/>
      </g>
     </g>
    </g>
    <g id="text_7">
     <!-- Number of Baits -->
     <g transform="translate(500.365156 633.755938) scale(0.14 -0.14)">
      <defs>
       <path id="DejaVuSans-4e" d="M 628 4666 
L 1478 4666 
L 3547 763 
L 3547 4666 
L 4159 4666 
L 4159 0 
L 3309 0 
L 1241 3903 
L 1241 0 
L 628 0 
L 628 4666 
z
" transform="scale(0.015625)"/>
       <path id="DejaVuSans-75" d="M 544 1381 
L 544 3500 
L 1119 3500 
L 1119 1403 
Q 1119 906 1312 657 
Q 1506 409 1894 409 
Q 2359 409 2629 706 
Q 2900 1003 2900 1516 
L 2900 3500 
L 3475 3500 
L 3475 0 
L 2900 0 
L 2900 538 
Q 2691 219 2414 64 
Q 2138 -91 1772 -91 
Q 1169 -91 856 284 
Q 544 659 544 1381 
z
M 1991 3584 
L 1991 3584 
z
" transform="scale(0.015625)"/>
       <path id="DejaVuSans-6d" d="M 3328 2828 
Q 3544 3216 3844 3400 
Q 4144 3584 4550 3584 
Q 5097 3584 5394 3201 
Q 5691 2819 5691 2113 
L 5691 0 
L 5113 0 
L 5113 2094 
Q 5113 2597 4934 2840 
Q 4756 3084 4391 3084 
Q 3944 3084 3684 2787 
Q 3425 2491 3425 1978 
L 3425 0 
L 2847 0 
L 2847 2094 
Q 2847 2600 2669 2842 
Q 2491 3084 2119 3084 
Q 1678 3084 1418 2786 
Q 1159 2488 1159 1978 
L 1159 0 
L 581 0 
L 581 3500 
L 1159 3500 
L 1159 2956 
Q 1356 3278 1631 3431 
Q 1906 3584 2284 3584 
Q 2666 3584 2933 3390 
Q 3200 3197 3328 2828 
z
" transform="scale(0.015625)"/>
       <path id="DejaVuSans-62" d="M 3116 1747 
Q 3116 2381 2855 2742 
Q 2594 3103 2138 3103 
Q 1681 3103 1420 2742 
Q 1159 2381 1159 1747 
Q 1159 1113 1420 752 
Q 1681 391 2138 391 
Q 2594 391 2855 752 
Q 3116 1113 3116 1747 
z
M 1159 2969 
Q 1341 3281 1617 3432 
Q 1894 3584 2278 3584 
Q 2916 3584 3314 3078 
Q 3713 2572 3713 1747 
Q 3713 922 3314 415 
Q 2916 -91 2278 -91 
Q 1894 -91 1617 61 
Q 1341 213 1159 525 
L 1159 0 
L 581 0 
L 581 4863 
L 1159 4863 
L 1159 2969 
z
" transform="scale(0.015625)"/>
       <path id="DejaVuSans-65" d="M 3597 1894 
L 3597 1613 
L 953 1613 
Q 991 1019 1311 708 
Q 1631 397 2203 397 
Q 2534 397 2845 478 
Q 3156 559 3463 722 
L 3463 178 
Q 3153 47 2828 -22 
Q 2503 -91 2169 -91 
Q 1331 -91 842 396 
Q 353 884 353 1716 
Q 353 2575 817 3079 
Q 1281 3584 2069 3584 
Q 2775 3584 3186 3129 
Q 3597 2675 3597 1894 
z
M 3022 2063 
Q 3016 2534 2758 2815 
Q 2500 3097 2075 3097 
Q 1594 3097 1305 2825 
Q 1016 2553 972 2059 
L 3022 2063 
z
" transform="scale(0.015625)"/>
       <path id="DejaVuSans-72" d="M 2631 2963 
Q 2534 3019 2420 3045 
Q 2306 3072 2169 3072 
Q 1681 3072 1420 2755 
Q 1159 2438 1159 1844 
L 1159 0 
L 581 0 
L 581 3500 
L 1159 3500 
L 1159 2956 
Q 1341 3275 1631 3429 
Q 1922 3584 2338 3584 
Q 2397 3584 2469 3576 
Q 2541 3569 2628 3553 
L 2631 2963 
z
" transform="scale(0.015625)"/>
       <path id="DejaVuSans-20" transform="scale(0.015625)"/>
       <path id="DejaVuSans-6f" d="M 1959 3097 
Q 1497 3097 1228 2736 
Q 959 2375 959 1747 
Q 959 1119 1226 758 
Q 1494 397 1959 397 
Q 2419 397 2687 759 
Q 2956 1122 2956 1747 
Q 2956 2369 2687 2733 
Q 2419 3097 1959 3097 
z
M 1959 3584 
Q 2709 3584 3137 3096 
Q 3566 2609 3566 1747 
Q 3566 888 3137 398 
Q 2709 -91 1959 -91 
Q 1206 -91 779 398 
Q 353 888 353 1747 
Q 353 2609 779 3096 
Q 1206 3584 1959 3584 
z
" transform="scale(0.015625)"/>
       <path id="DejaVuSans-66" d="M 2375 4863 
L 2375 4384 
L 1825 4384 
Q 1516 4384 1395 4259 
Q 1275 4134 1275 3809 
L 1275 3500 
L 2222 3500 
L 2222 3053 
L 1275 3053 
L 1275 0 
L 697 0 
L 697 3053 
L 147 3053 
L 147 3500 
L 697 3500 
L 697 3744 
Q 697 4328 969 4595 
Q 1241 4863 1831 4863 
L 2375 4863 
z
" transform="scale(0.015625)"/>
       <path id="DejaVuSans-42" d="M 1259 2228 
L 1259 519 
L 2272 519 
Q 2781 519 3026 730 
Q 3272 941 3272 1375 
Q 3272 1813 3026 2020 
Q 2781 2228 2272 2228 
L 1259 2228 
z
M 1259 4147 
L 1259 2741 
L 2194 2741 
Q 2656 2741 2882 2914 
Q 3109 3088 3109 3444 
Q 3109 3797 2882 3972 
Q 2656 4147 2194 4147 
L 1259 4147 
z
M 628 4666 
L 2241 4666 
Q 2963 4666 3353 4366 
Q 3744 4066 3744 3513 
Q 3744 3084 3544 2831 
Q 3344 2578 2956 2516 
Q 3422 2416 3680 2098 
Q 3938 1781 3938 1306 
Q 3938 681 3513 340 
Q 3088 0 2303 0 
L 628 0 
L 628 4666 
z
" transform="scale(0.015625)"/>
       <path id="DejaVuSans-61" d="M 2194 1759 
Q 1497 1759 1228 1600 
Q 959 1441 959 1056 
Q 959 750 1161 570 
Q 1363 391 1709 391 
Q 2188 391 2477 730 
Q 2766 1069 2766 1631 
L 2766 1759 
L 2194 1759 
z
M 3341 1997 
L 3341 0 
L 2766 0 
L 2766 531 
Q 2569 213 2275 61 
Q 1981 -91 1556 -91 
Q 1019 -91 701 211 
Q 384 513 384 1019 
Q 384 1609 779 1909 
Q 1175 2209 1959 2209 
L 2766 2209 
L 2766 2266 
Q 2766 2663 2505 2880 
Q 2244 3097 1772 3097 
Q 1472 3097 1187 3025 
Q 903 2953 641 2809 
L 641 3341 
Q 956 3463 1253 3523 
Q 1550 3584 1831 3584 
Q 2591 3584 2966 3190 
Q 3341 2797 3341 1997 
z
" transform="scale(0.015625)"/>
       <path id="DejaVuSans-69" d="M 603 3500 
L 1178 3500 
L 1178 0 
L 603 0 
L 603 3500 
z
M 603 4863 
L 1178 4863 
L 1178 4134 
L 603 4134 
L 603 4863 
z
" transform="scale(0.015625)"/>
       <path id="DejaVuSans-74" d="M 1172 4494 
L 1172 3500 
L 2356 3500 
L 2356 3053 
L 1172 3053 
L 1172 1153 
Q 1172 725 1289 603 
Q 1406 481 1766 481 
L 2356 481 
L 2356 0 
L 1766 0 
Q 1100 0 847 248 
Q 594 497 594 1153 
L 594 3053 
L 172 3053 
L 172 3500 
L 594 3500 
L 594 4494 
L 1172 4494 
z
" transform="scale(0.015625)"/>
       <path id="DejaVuSans-73" d="M 2834 3397 
L 2834 2853 
Q 2591 2978 2328 3040 
Q 2066 3103 1784 3103 
Q 1356 3103 1142 2972 
Q 928 2841 928 2578 
Q 928 2378 1081 2264 
Q 1234 2150 1697 2047 
L 1894 2003 
Q 2506 1872 2764 1633 
Q 3022 1394 3022 966 
Q 3022 478 2636 193 
Q 2250 -91 1575 -91 
Q 1294 -91 989 -36 
Q 684 19 347 128 
L 347 722 
Q 666 556 975 473 
Q 1284 391 1588 391 
Q 1994 391 2212 530 
Q 2431 669 2431 922 
Q 2431 1156 2273 1281 
Q 2116 1406 1581 1522 
L 1381 1569 
Q 847 1681 609 1914 
Q 372 2147 372 2553 
Q 372 3047 722 3315 
Q 1072 3584 1716 3584 
Q 2034 3584 2315 3537 
Q 2597 3491 2834 3397 
z
" transform="scale(0.015625)"/>
      </defs>
      <use xlink:href="#DejaVuSans-4e"/>
      <use xlink:href="#DejaVuSans-75" x="74.804688"/>
      <use xlink:href="#DejaVuSans-6d" x="138.183594"/>
      <use xlink:href="#DejaVuSans-62" x="235.595703"/>
      <use xlink:href="#DejaVuSans-65" x="299.072266"/>
      <use xlink:href="#DejaVuSans-72" x="360.595703"/>
      <use xlink:href="#DejaVuSans-20" x="401.708984"/>
      <use xlink:href="#DejaVuSans-6f" x="433.496094"/>
      <use xlink:href="#DejaVuSans-66" x="494.677734"/>
      <use xlink:href="#DejaVuSans-20" x="529.882812"/>
      <use xlink:href="#DejaVuSans-42" x="561.669922"/>
      <use xlink:href="#DejaVuSans-61" x="630.273438"/>
      <use xlink:href="#DejaVuSans-69" x="691.552734"/>
      <use xlink:href="#DejaVuSans-74" x="719.335938"/>
      <use xlink:href="#DejaVuSans-73" x="758.544922"/>
     </g>
    </g>
   </g>
   <g id="matplotlib.axis_2">
    <g id="ytick_1">
     <g id="line2d_7">
      <defs>
       <path id="m5c313c4738" d="M 0 0 
L -3.5 0 
" style="stroke: #000000; stroke-width: 0.8"/>
      </defs>
      <g>
       <use xlink:href="#m5c313c4738" x="51.365" y="602.44" style="stroke: #000000; stroke-width: 0.8"/>
      </g>
     </g>
     <g id="text_8">
      <!-- 0.0 -->
      <g transform="translate(28.461875 606.239219) scale(0.1 -0.1)">
       <defs>
        <path id="DejaVuSans-2e" d="M 684 794 
L 1344 794 
L 1344 0 
L 684 0 
L 684 794 
z
" transform="scale(0.015625)"/>
       </defs>
       <use xlink:href="#DejaVuSans-30"/>
       <use xlink:href="#DejaVuSans-2e" x="63.623047"/>
       <use xlink:href="#DejaVuSans-30" x="95.410156"/>
      </g>
     </g>
    </g>
    <g id="ytick_2">
     <g id="line2d_8">
      <g>
       <use xlink:href="#m5c313c4738" x="51.365" y="484.904" style="stroke: #000000; stroke-width: 0.8"/>
      </g>
     </g>
     <g id="text_9">
      <!-- 0.2 -->
      <g transform="translate(28.461875 488.703219) scale(0.1 -0.1)">
       <defs>
        <path id="DejaVuSans-32" d="M 1228 531 
L 3431 531 
L 3431 0 
L 469 0 
L 469 531 
Q 828 903 1448 1529 
Q 2069 2156 2228 2338 
Q 2531 2678 2651 2914 
Q 2772 3150 2772 3378 
Q 2772 3750 2511 3984 
Q 2250 4219 1831 4219 
Q 1534 4219 1204 4116 
Q 875 4013 500 3803 
L 500 4441 
Q 881 4594 1212 4672 
Q 1544 4750 1819 4750 
Q 2544 4750 2975 4387 
Q 3406 4025 3406 3419 
Q 3406 3131 3298 2873 
Q 3191 2616 2906 2266 
Q 2828 2175 2409 1742 
Q 1991 1309 1228 531 
z
" transform="scale(0.015625)"/>
       </defs>
       <use xlink:href="#DejaVuSans-30"/>
       <use xlink:href="#DejaVuSans-2e" x="63.623047"/>
       <use xlink:href="#DejaVuSans-32" x="95.410156"/>
      </g>
     </g>
    </g>
    <g id="ytick_3">
     <g id="line2d_9">
      <g>
       <use xlink:href="#m5c313c4738" x="51.365" y="367.368" style="stroke: #000000; stroke-width: 0.8"/>
      </g>
     </g>
     <g id="text_10">
      <!-- 0.4 -->
      <g transform="translate(28.461875 371.167219) scale(0.1 -0.1)">
       <use xlink:href="#DejaVuSans-30"/>
       <use xlink:href="#DejaVuSans-2e" x="63.623047"/>
       <use xlink:href="#DejaVuSans-34" x="95.410156"/>
      </g>
     </g>
    </g>
    <g id="ytick_4">
     <g id="line2d_10">
      <g>
       <use xlink:href="#m5c313c4738" x="51.365" y="249.832" style="stroke: #000000; stroke-width: 0.8"/>
      </g>
     </g>
     <g id="text_11">
      <!-- 0.6 -->
      <g transform="translate(28.461875 253.631219) scale(0.1 -0.1)">
       <use xlink:href="#DejaVuSans-30"/>
       <use xlink:href="#DejaVuSans-2e" x="63.623047"/>
       <use xlink:href="#DejaVuSans-36" x="95.410156"/>
      </g>
     </g>
    </g>
    <g id="ytick_5">
     <g id="line2d_11">
      <g>
       <use xlink:href="#m5c313c4738" x="51.365" y="132.296" style="stroke: #000000; stroke-width: 0.8"/>
      </g>
     </g>
     <g id="text_12">
      <!-- 0.8 -->
      <g transform="translate(28.461875 136.095219) scale(0.1 -0.1)">
       <use xlink:href="#DejaVuSans-30"/>
       <use xlink:href="#DejaVuSans-2e" x="63.623047"/>
       <use xlink:href="#DejaVuSans-38" x="95.410156"/>
      </g>
     </g>
    </g>
    <g id="ytick_6">
     <g id="line2d_12">
      <g>
       <use xlink:href="#m5c313c4738" x="51.365" y="14.76" style="stroke: #000000; stroke-width: 0.8"/>
      </g>
     </g>
     <g id="text_13">
      <!-- 1.0 -->
      <g transform="translate(28.461875 18.559219) scale(0.1 -0.1)">
       <defs>
        <path id="DejaVuSans-31" d="M 794 531 
L 1825 531 
L 1825 4091 
L 703 3866 
L 703 4441 
L 1819 4666 
L 2450 4666 
L 2450 531 
L 3481 531 
L 3481 0 
L 794 0 
L 794 531 
z
" transform="scale(0.015625)"/>
       </defs>
       <use xlink:href="#DejaVuSans-31"/>
       <use xlink:href="#DejaVuSans-2e" x="63.623047"/>
       <use xlink:href="#DejaVuSans-30" x="95.410156"/>
      </g>
     </g>
    </g>
    <g id="text_14">
     <!-- Aggregated NMF Mean Pearson's Correlation Score -->
     <g transform="translate(21.550312 486.608906) rotate(-90) scale(0.14 -0.14)">
      <defs>
       <path id="DejaVuSans-41" d="M 2188 4044 
L 1331 1722 
L 3047 1722 
L 2188 4044 
z
M 1831 4666 
L 2547 4666 
L 4325 0 
L 3669 0 
L 3244 1197 
L 1141 1197 
L 716 0 
L 50 0 
L 1831 4666 
z
" transform="scale(0.015625)"/>
       <path id="DejaVuSans-67" d="M 2906 1791 
Q 2906 2416 2648 2759 
Q 2391 3103 1925 3103 
Q 1463 3103 1205 2759 
Q 947 2416 947 1791 
Q 947 1169 1205 825 
Q 1463 481 1925 481 
Q 2391 481 2648 825 
Q 2906 1169 2906 1791 
z
M 3481 434 
Q 3481 -459 3084 -895 
Q 2688 -1331 1869 -1331 
Q 1566 -1331 1297 -1286 
Q 1028 -1241 775 -1147 
L 775 -588 
Q 1028 -725 1275 -790 
Q 1522 -856 1778 -856 
Q 2344 -856 2625 -561 
Q 2906 -266 2906 331 
L 2906 616 
Q 2728 306 2450 153 
Q 2172 0 1784 0 
Q 1141 0 747 490 
Q 353 981 353 1791 
Q 353 2603 747 3093 
Q 1141 3584 1784 3584 
Q 2172 3584 2450 3431 
Q 2728 3278 2906 2969 
L 2906 3500 
L 3481 3500 
L 3481 434 
z
" transform="scale(0.015625)"/>
       <path id="DejaVuSans-64" d="M 2906 2969 
L 2906 4863 
L 3481 4863 
L 3481 0 
L 2906 0 
L 2906 525 
Q 2725 213 2448 61 
Q 2172 -91 1784 -91 
Q 1150 -91 751 415 
Q 353 922 353 1747 
Q 353 2572 751 3078 
Q 1150 3584 1784 3584 
Q 2172 3584 2448 3432 
Q 2725 3281 2906 2969 
z
M 947 1747 
Q 947 1113 1208 752 
Q 1469 391 1925 391 
Q 2381 391 2643 752 
Q 2906 1113 2906 1747 
Q 2906 2381 2643 2742 
Q 2381 3103 1925 3103 
Q 1469 3103 1208 2742 
Q 947 2381 947 1747 
z
" transform="scale(0.015625)"/>
       <path id="DejaVuSans-4d" d="M 628 4666 
L 1569 4666 
L 2759 1491 
L 3956 4666 
L 4897 4666 
L 4897 0 
L 4281 0 
L 4281 4097 
L 3078 897 
L 2444 897 
L 1241 4097 
L 1241 0 
L 628 0 
L 628 4666 
z
" transform="scale(0.015625)"/>
       <path id="DejaVuSans-46" d="M 628 4666 
L 3309 4666 
L 3309 4134 
L 1259 4134 
L 1259 2759 
L 3109 2759 
L 3109 2228 
L 1259 2228 
L 1259 0 
L 628 0 
L 628 4666 
z
" transform="scale(0.015625)"/>
       <path id="DejaVuSans-6e" d="M 3513 2113 
L 3513 0 
L 2938 0 
L 2938 2094 
Q 2938 2591 2744 2837 
Q 2550 3084 2163 3084 
Q 1697 3084 1428 2787 
Q 1159 2491 1159 1978 
L 1159 0 
L 581 0 
L 581 3500 
L 1159 3500 
L 1159 2956 
Q 1366 3272 1645 3428 
Q 1925 3584 2291 3584 
Q 2894 3584 3203 3211 
Q 3513 2838 3513 2113 
z
" transform="scale(0.015625)"/>
       <path id="DejaVuSans-50" d="M 1259 4147 
L 1259 2394 
L 2053 2394 
Q 2494 2394 2734 2622 
Q 2975 2850 2975 3272 
Q 2975 3691 2734 3919 
Q 2494 4147 2053 4147 
L 1259 4147 
z
M 628 4666 
L 2053 4666 
Q 2838 4666 3239 4311 
Q 3641 3956 3641 3272 
Q 3641 2581 3239 2228 
Q 2838 1875 2053 1875 
L 1259 1875 
L 1259 0 
L 628 0 
L 628 4666 
z
" transform="scale(0.015625)"/>
       <path id="DejaVuSans-27" d="M 1147 4666 
L 1147 2931 
L 616 2931 
L 616 4666 
L 1147 4666 
z
" transform="scale(0.015625)"/>
       <path id="DejaVuSans-43" d="M 4122 4306 
L 4122 3641 
Q 3803 3938 3442 4084 
Q 3081 4231 2675 4231 
Q 1875 4231 1450 3742 
Q 1025 3253 1025 2328 
Q 1025 1406 1450 917 
Q 1875 428 2675 428 
Q 3081 428 3442 575 
Q 3803 722 4122 1019 
L 4122 359 
Q 3791 134 3420 21 
Q 3050 -91 2638 -91 
Q 1578 -91 968 557 
Q 359 1206 359 2328 
Q 359 3453 968 4101 
Q 1578 4750 2638 4750 
Q 3056 4750 3426 4639 
Q 3797 4528 4122 4306 
z
" transform="scale(0.015625)"/>
       <path id="DejaVuSans-6c" d="M 603 4863 
L 1178 4863 
L 1178 0 
L 603 0 
L 603 4863 
z
" transform="scale(0.015625)"/>
       <path id="DejaVuSans-53" d="M 3425 4513 
L 3425 3897 
Q 3066 4069 2747 4153 
Q 2428 4238 2131 4238 
Q 1616 4238 1336 4038 
Q 1056 3838 1056 3469 
Q 1056 3159 1242 3001 
Q 1428 2844 1947 2747 
L 2328 2669 
Q 3034 2534 3370 2195 
Q 3706 1856 3706 1288 
Q 3706 609 3251 259 
Q 2797 -91 1919 -91 
Q 1588 -91 1214 -16 
Q 841 59 441 206 
L 441 856 
Q 825 641 1194 531 
Q 1563 422 1919 422 
Q 2459 422 2753 634 
Q 3047 847 3047 1241 
Q 3047 1584 2836 1778 
Q 2625 1972 2144 2069 
L 1759 2144 
Q 1053 2284 737 2584 
Q 422 2884 422 3419 
Q 422 4038 858 4394 
Q 1294 4750 2059 4750 
Q 2388 4750 2728 4690 
Q 3069 4631 3425 4513 
z
" transform="scale(0.015625)"/>
       <path id="DejaVuSans-63" d="M 3122 3366 
L 3122 2828 
Q 2878 2963 2633 3030 
Q 2388 3097 2138 3097 
Q 1578 3097 1268 2742 
Q 959 2388 959 1747 
Q 959 1106 1268 751 
Q 1578 397 2138 397 
Q 2388 397 2633 464 
Q 2878 531 3122 666 
L 3122 134 
Q 2881 22 2623 -34 
Q 2366 -91 2075 -91 
Q 1284 -91 818 406 
Q 353 903 353 1747 
Q 353 2603 823 3093 
Q 1294 3584 2113 3584 
Q 2378 3584 2631 3529 
Q 2884 3475 3122 3366 
z
" transform="scale(0.015625)"/>
      </defs>
      <use xlink:href="#DejaVuSans-41"/>
      <use xlink:href="#DejaVuSans-67" x="68.408203"/>
      <use xlink:href="#DejaVuSans-67" x="131.884766"/>
      <use xlink:href="#DejaVuSans-72" x="195.361328"/>
      <use xlink:href="#DejaVuSans-65" x="234.224609"/>
      <use xlink:href="#DejaVuSans-67" x="295.748047"/>
      <use xlink:href="#DejaVuSans-61" x="359.224609"/>
      <use xlink:href="#DejaVuSans-74" x="420.503906"/>
      <use xlink:href="#DejaVuSans-65" x="459.712891"/>
      <use xlink:href="#DejaVuSans-64" x="521.236328"/>
      <use xlink:href="#DejaVuSans-20" x="584.712891"/>
      <use xlink:href="#DejaVuSans-4e" x="616.5"/>
      <use xlink:href="#DejaVuSans-4d" x="691.304688"/>
      <use xlink:href="#DejaVuSans-46" x="777.583984"/>
      <use xlink:href="#DejaVuSans-20" x="835.103516"/>
      <use xlink:href="#DejaVuSans-4d" x="866.890625"/>
      <use xlink:href="#DejaVuSans-65" x="953.169922"/>
      <use xlink:href="#DejaVuSans-61" x="1014.693359"/>
      <use xlink:href="#DejaVuSans-6e" x="1075.972656"/>
      <use xlink:href="#DejaVuSans-20" x="1139.351562"/>
      <use xlink:href="#DejaVuSans-50" x="1171.138672"/>
      <use xlink:href="#DejaVuSans-65" x="1227.816406"/>
      <use xlink:href="#DejaVuSans-61" x="1289.339844"/>
      <use xlink:href="#DejaVuSans-72" x="1350.619141"/>
      <use xlink:href="#DejaVuSans-73" x="1391.732422"/>
      <use xlink:href="#DejaVuSans-6f" x="1443.832031"/>
      <use xlink:href="#DejaVuSans-6e" x="1505.013672"/>
      <use xlink:href="#DejaVuSans-27" x="1568.392578"/>
      <use xlink:href="#DejaVuSans-73" x="1595.882812"/>
      <use xlink:href="#DejaVuSans-20" x="1647.982422"/>
      <use xlink:href="#DejaVuSans-43" x="1679.769531"/>
      <use xlink:href="#DejaVuSans-6f" x="1749.59375"/>
      <use xlink:href="#DejaVuSans-72" x="1810.775391"/>
      <use xlink:href="#DejaVuSans-72" x="1850.138672"/>
      <use xlink:href="#DejaVuSans-65" x="1889.001953"/>
      <use xlink:href="#DejaVuSans-6c" x="1950.525391"/>
      <use xlink:href="#DejaVuSans-61" x="1978.308594"/>
      <use xlink:href="#DejaVuSans-74" x="2039.587891"/>
      <use xlink:href="#DejaVuSans-69" x="2078.796875"/>
      <use xlink:href="#DejaVuSans-6f" x="2106.580078"/>
      <use xlink:href="#DejaVuSans-6e" x="2167.761719"/>
      <use xlink:href="#DejaVuSans-20" x="2231.140625"/>
      <use xlink:href="#DejaVuSans-53" x="2262.927734"/>
      <use xlink:href="#DejaVuSans-63" x="2326.404297"/>
      <use xlink:href="#DejaVuSans-6f" x="2381.384766"/>
      <use xlink:href="#DejaVuSans-72" x="2442.566406"/>
      <use xlink:href="#DejaVuSans-65" x="2481.429688"/>
     </g>
    </g>
   </g>
   <g id="line2d_13">
    <path d="M 51.365 129.504992 
L 71.5948 120.016765 
L 91.8246 118.387647 
L 112.0544 114.047039 
L 132.2842 109.902624 
L 152.514 108.50606 
L 172.7438 107.947149 
L 192.9736 107.143215 
L 213.2034 103.371921 
L 233.4332 100.195728 
L 253.663 101.464234 
L 273.8928 97.646688 
L 294.1226 98.511861 
L 314.3524 93.760435 
L 334.5822 96.337419 
L 354.812 96.580689 
L 375.0418 94.993 
L 395.2716 93.272169 
L 415.5014 91.711235 
L 435.7312 90.337461 
L 455.961 89.381768 
L 476.1908 91.931406 
L 496.4206 89.924268 
L 516.6504 89.937278 
L 536.8802 87.208621 
L 557.11 88.30713 
L 577.3398 84.205839 
L 597.5696 89.284385 
L 617.7994 84.152614 
L 638.0292 81.029959 
L 658.259 84.688796 
L 678.4888 86.412031 
L 698.7186 82.279729 
L 718.9484 81.563658 
L 739.1782 82.103261 
L 759.408 76.303305 
L 779.6378 79.000265 
L 799.8676 78.180099 
L 820.0974 77.807278 
L 840.3272 77.654571 
L 860.557 77.531211 
L 880.7868 78.328459 
L 901.0166 73.205936 
L 921.2464 75.92033 
L 941.4762 73.769552 
L 961.706 72.754766 
L 981.9358 74.956727 
L 1002.1656 75.696461 
L 1022.3954 73.32 
L 1042.6252 73.742713 
L 1062.855 72.08454 
" clip-path="url(#p5e2f092459)" style="fill: none; stroke: #1f77b4; stroke-width: 1.5; stroke-linecap: square"/>
   </g>
   <g id="line2d_14">
    <path d="M 51.365 333.923064 
L 71.5948 313.108238 
L 91.8246 334.579334 
L 112.0544 320.457702 
L 132.2842 311.14663 
L 152.514 313.309166 
L 172.7438 273.49389 
L 192.9736 290.989383 
L 213.2034 294.434399 
L 233.4332 291.156612 
L 253.663 282.01923 
L 273.8928 280.243839 
L 294.1226 272.472892 
L 314.3524 283.948137 
L 334.5822 263.35716 
L 354.812 268.167656 
L 375.0418 270.50986 
L 395.2716 258.021877 
L 415.5014 273.151211 
L 435.7312 282.618721 
L 455.961 266.027026 
L 476.1908 258.578758 
L 496.4206 272.382236 
L 516.6504 258.197734 
L 536.8802 247.531966 
L 557.11 251.995406 
L 577.3398 236.163727 
L 597.5696 251.85386 
L 617.7994 250.209875 
L 638.0292 239.642963 
L 658.259 224.735874 
L 678.4888 252.732001 
L 698.7186 227.470586 
L 718.9484 224.176744 
L 739.1782 221.481077 
L 759.408 228.392121 
L 779.6378 213.400057 
L 799.8676 220.451107 
L 820.0974 208.711369 
L 840.3272 202.450169 
L 860.557 194.494522 
L 880.7868 217.357392 
L 901.0166 212.704669 
L 921.2464 194.221747 
L 941.4762 203.063924 
L 961.706 200.96657 
L 981.9358 191.411359 
L 1002.1656 218.463775 
L 1022.3954 195.400282 
L 1042.6252 199.971338 
L 1062.855 183.061578 
" clip-path="url(#p5e2f092459)" style="fill: none; stroke: #ff7f0e; stroke-width: 1.5; stroke-linecap: square"/>
   </g>
   <g id="line2d_15">
    <path d="M 51.365 173.698285 
L 71.5948 170.888293 
L 91.8246 165.575574 
L 112.0544 162.862345 
L 132.2842 155.509858 
L 152.514 153.49482 
L 172.7438 148.847272 
L 192.9736 146.987458 
L 213.2034 140.178037 
L 233.4332 138.44163 
L 253.663 136.042065 
L 273.8928 132.805767 
L 294.1226 128.002892 
L 314.3524 125.590347 
L 334.5822 126.576743 
L 354.812 122.086258 
L 375.0418 118.611922 
L 395.2716 116.707044 
L 415.5014 114.843443 
L 435.7312 112.378625 
L 455.961 110.01801 
L 476.1908 109.659873 
L 496.4206 109.130907 
L 516.6504 107.880492 
L 536.8802 104.382907 
L 557.11 101.396444 
L 577.3398 99.854104 
L 597.5696 99.175327 
L 617.7994 98.668787 
L 638.0292 99.799653 
L 658.259 96.781535 
L 678.4888 95.090309 
L 698.7186 95.395077 
L 718.9484 95.020994 
L 739.1782 94.078458 
L 759.408 92.224212 
L 779.6378 92.490569 
L 799.8676 88.864705 
L 820.0974 88.195248 
L 840.3272 87.268427 
L 860.557 85.795972 
L 880.7868 84.127203 
L 901.0166 84.340991 
L 921.2464 84.153854 
L 941.4762 82.635461 
L 961.706 83.41817 
L 981.9358 83.780323 
L 1002.1656 83.600367 
L 1022.3954 83.647803 
L 1042.6252 84.687455 
L 1062.855 87.392176 
" clip-path="url(#p5e2f092459)" style="fill: none; stroke: #2ca02c; stroke-width: 1.5; stroke-linecap: square"/>
   </g>
   <g id="line2d_16">
    <path d="M 51.365 173.960522 
L 71.5948 168.895688 
L 91.8246 165.461399 
L 112.0544 162.386771 
L 132.2842 161.384229 
L 152.514 159.079551 
L 172.7438 157.956093 
L 192.9736 155.042512 
L 213.2034 153.805508 
L 233.4332 151.169966 
L 253.663 148.949592 
L 273.8928 148.14002 
L 294.1226 143.917011 
L 314.3524 141.334519 
L 334.5822 135.650655 
L 354.812 133.219322 
L 375.0418 132.787829 
L 395.2716 129.191891 
L 415.5014 126.72095 
L 435.7312 123.838963 
L 455.961 122.708317 
L 476.1908 117.980168 
L 496.4206 113.683979 
L 516.6504 112.536438 
L 536.8802 110.017866 
L 557.11 108.75483 
L 577.3398 106.496419 
L 597.5696 103.861908 
L 617.7994 101.653035 
L 638.0292 100.152006 
L 658.259 98.91455 
L 678.4888 97.706345 
L 698.7186 96.737503 
L 718.9484 95.711996 
L 739.1782 92.409486 
L 759.408 92.166617 
L 779.6378 90.845891 
L 799.8676 90.322206 
L 820.0974 88.994545 
L 840.3272 86.545664 
L 860.557 85.890446 
L 880.7868 85.038013 
L 901.0166 85.117922 
L 921.2464 84.569993 
L 941.4762 85.071857 
L 961.706 85.252673 
L 981.9358 86.169775 
L 1002.1656 83.192265 
L 1022.3954 82.836317 
L 1042.6252 83.395053 
L 1062.855 84.155035 
" clip-path="url(#p5e2f092459)" style="fill: none; stroke: #d62728; stroke-width: 1.5; stroke-linecap: square"/>
   </g>
   <g id="line2d_17">
    <path d="M 51.365 214.717913 
L 71.5948 207.921623 
L 91.8246 206.101788 
L 112.0544 202.4614 
L 132.2842 195.358302 
L 152.514 187.409918 
L 172.7438 184.843912 
L 192.9736 183.413661 
L 213.2034 182.545413 
L 233.4332 176.852615 
L 253.663 176.171854 
L 273.8928 170.973517 
L 294.1226 170.179476 
L 314.3524 168.605411 
L 334.5822 168.530687 
L 354.812 169.211966 
L 375.0418 162.907055 
L 395.2716 160.306714 
L 415.5014 158.614054 
L 435.7312 157.486537 
L 455.961 161.296119 
L 476.1908 160.959166 
L 496.4206 151.355681 
L 516.6504 144.203265 
L 536.8802 141.73694 
L 557.11 143.573372 
L 577.3398 142.2261 
L 597.5696 135.709553 
L 617.7994 136.158163 
L 638.0292 135.761956 
L 658.259 135.336303 
L 678.4888 135.179602 
L 698.7186 134.231469 
L 718.9484 131.287877 
L 739.1782 130.581673 
L 759.408 129.602208 
L 779.6378 122.799678 
L 799.8676 122.766661 
L 820.0974 122.201609 
L 840.3272 121.698628 
L 860.557 121.848144 
L 880.7868 119.782316 
L 901.0166 117.730067 
L 921.2464 110.590984 
L 941.4762 107.239218 
L 961.706 104.045201 
L 981.9358 103.696626 
L 1002.1656 100.301448 
L 1022.3954 98.676309 
L 1042.6252 97.502 
L 1062.855 95.908812 
" clip-path="url(#p5e2f092459)" style="fill: none; stroke: #9467bd; stroke-width: 1.5; stroke-linecap: square"/>
   </g>
   <g id="line2d_18">
    <path d="M 51.365 158.326107 
L 71.5948 154.229123 
L 91.8246 150.110004 
L 112.0544 144.382804 
L 132.2842 140.575273 
L 152.514 138.995247 
L 172.7438 136.276136 
L 192.9736 134.851765 
L 213.2034 133.409555 
L 233.4332 130.70384 
L 253.663 131.384323 
L 273.8928 130.96905 
L 294.1226 128.065785 
L 314.3524 127.207649 
L 334.5822 126.84111 
L 354.812 124.323883 
L 375.0418 124.1061 
L 395.2716 123.554835 
L 415.5014 122.168775 
L 435.7312 122.334417 
L 455.961 120.71614 
L 476.1908 119.366083 
L 496.4206 118.961761 
L 516.6504 118.391549 
L 536.8802 117.682624 
L 557.11 118.626895 
L 577.3398 117.976449 
L 597.5696 118.604531 
L 617.7994 119.097606 
L 638.0292 116.83387 
L 658.259 115.311052 
L 678.4888 114.484815 
L 698.7186 114.68946 
L 718.9484 110.962093 
L 739.1782 109.867033 
L 759.408 110.281665 
L 779.6378 107.882663 
L 799.8676 106.690955 
L 820.0974 105.437946 
L 840.3272 104.280026 
L 860.557 103.955888 
L 880.7868 104.515718 
L 901.0166 102.309419 
L 921.2464 102.756203 
L 941.4762 98.658886 
L 961.706 98.460158 
L 981.9358 95.049604 
L 1002.1656 94.272243 
L 1022.3954 94.715845 
L 1042.6252 92.261826 
L 1062.855 90.885023 
" clip-path="url(#p5e2f092459)" style="fill: none; stroke: #8c564b; stroke-width: 1.5; stroke-linecap: square"/>
   </g>
   <g id="line2d_19">
    <path d="M 51.365 160.514624 
L 71.5948 156.461233 
L 91.8246 152.058245 
L 112.0544 149.650061 
L 132.2842 147.239984 
L 152.514 147.124284 
L 172.7438 144.962119 
L 192.9736 144.65161 
L 213.2034 142.929386 
L 233.4332 143.847106 
L 253.663 141.325618 
L 273.8928 138.618183 
L 294.1226 139.856294 
L 314.3524 141.247087 
L 334.5822 140.437507 
L 354.812 135.924175 
L 375.0418 136.156616 
L 395.2716 135.295147 
L 415.5014 132.763925 
L 435.7312 132.591855 
L 455.961 128.910746 
L 476.1908 127.578026 
L 496.4206 126.069441 
L 516.6504 123.741258 
L 536.8802 121.246638 
L 557.11 117.241549 
L 577.3398 116.737303 
L 597.5696 114.888924 
L 617.7994 112.980345 
L 638.0292 109.761264 
L 658.259 110.228122 
L 678.4888 108.211665 
L 698.7186 108.248355 
L 718.9484 106.189484 
L 739.1782 105.090423 
L 759.408 104.175887 
L 779.6378 100.877023 
L 799.8676 96.982513 
L 820.0974 96.360504 
L 840.3272 96.758394 
L 860.557 97.686581 
L 880.7868 96.71727 
L 901.0166 94.780721 
L 921.2464 93.766794 
L 941.4762 91.426492 
L 961.706 89.598605 
L 981.9358 88.827777 
L 1002.1656 88.161474 
L 1022.3954 89.172692 
L 1042.6252 87.160776 
L 1062.855 87.379983 
" clip-path="url(#p5e2f092459)" style="fill: none; stroke: #e377c2; stroke-width: 1.5; stroke-linecap: square"/>
   </g>
   <g id="line2d_20">
    <path d="M 51.365 157.2523 
L 71.5948 151.993093 
L 91.8246 150.194691 
L 112.0544 144.908204 
L 132.2842 144.181125 
L 152.514 143.402059 
L 172.7438 142.298397 
L 192.9736 140.677473 
L 213.2034 139.975611 
L 233.4332 137.396384 
L 253.663 135.067577 
L 273.8928 134.181561 
L 294.1226 133.751766 
L 314.3524 132.824457 
L 334.5822 130.931044 
L 354.812 129.881209 
L 375.0418 129.10441 
L 395.2716 127.10626 
L 415.5014 121.936593 
L 435.7312 119.111865 
L 455.961 118.606504 
L 476.1908 118.745091 
L 496.4206 118.825691 
L 516.6504 118.077515 
L 536.8802 116.384548 
L 557.11 115.322404 
L 577.3398 112.354336 
L 597.5696 112.223509 
L 617.7994 112.261059 
L 638.0292 111.504911 
L 658.259 108.54549 
L 678.4888 109.745538 
L 698.7186 109.226352 
L 718.9484 106.832813 
L 739.1782 104.173793 
L 759.408 102.362637 
L 779.6378 102.674819 
L 799.8676 103.148417 
L 820.0974 104.650349 
L 840.3272 103.457214 
L 860.557 102.81147 
L 880.7868 99.379971 
L 901.0166 95.611907 
L 921.2464 94.544006 
L 941.4762 93.498488 
L 961.706 91.388468 
L 981.9358 92.011488 
L 1002.1656 90.412889 
L 1022.3954 93.157655 
L 1042.6252 91.953947 
L 1062.855 91.208324 
" clip-path="url(#p5e2f092459)" style="fill: none; stroke: #7f7f7f; stroke-width: 1.5; stroke-linecap: square"/>
   </g>
   <g id="line2d_21">
    <path d="M 51.365 148.701537 
L 71.5948 147.110089 
L 91.8246 146.288559 
L 112.0544 146.36506 
L 132.2842 146.643572 
L 152.514 147.258931 
L 172.7438 146.088224 
L 192.9736 145.153797 
L 213.2034 141.207351 
L 233.4332 140.170864 
L 253.663 137.916363 
L 273.8928 136.533416 
L 294.1226 134.661328 
L 314.3524 130.994333 
L 334.5822 129.508466 
L 354.812 127.309754 
L 375.0418 124.927171 
L 395.2716 123.664978 
L 415.5014 120.409769 
L 435.7312 121.142127 
L 455.961 117.884422 
L 476.1908 116.913522 
L 496.4206 116.296122 
L 516.6504 115.334727 
L 536.8802 112.093502 
L 557.11 110.02076 
L 577.3398 107.847807 
L 597.5696 108.199456 
L 617.7994 104.951371 
L 638.0292 101.723615 
L 658.259 101.257616 
L 678.4888 99.852184 
L 698.7186 99.343783 
L 718.9484 98.740621 
L 739.1782 98.416276 
L 759.408 92.90408 
L 779.6378 92.254713 
L 799.8676 93.307709 
L 820.0974 93.493305 
L 840.3272 91.391197 
L 860.557 89.037331 
L 880.7868 87.378315 
L 901.0166 88.679547 
L 921.2464 85.592124 
L 941.4762 86.725855 
L 961.706 86.027398 
L 981.9358 83.148629 
L 1002.1656 83.065084 
L 1022.3954 81.12504 
L 1042.6252 81.250666 
L 1062.855 79.500548 
" clip-path="url(#p5e2f092459)" style="fill: none; stroke: #bcbd22; stroke-width: 1.5; stroke-linecap: square"/>
   </g>
   <g id="line2d_22">
    <path d="M 51.365 131.316926 
L 71.5948 132.927361 
L 91.8246 132.024603 
L 112.0544 132.715673 
L 132.2842 132.117385 
L 152.514 130.320758 
L 172.7438 129.44395 
L 192.9736 128.403299 
L 213.2034 129.776205 
L 233.4332 127.821188 
L 253.663 125.539315 
L 273.8928 124.108877 
L 294.1226 121.987653 
L 314.3524 120.228572 
L 334.5822 119.991568 
L 354.812 120.430327 
L 375.0418 119.665562 
L 395.2716 120.64837 
L 415.5014 118.917029 
L 435.7312 117.488045 
L 455.961 117.165249 
L 476.1908 115.852837 
L 496.4206 115.605845 
L 516.6504 115.478848 
L 536.8802 112.39414 
L 557.11 108.450381 
L 577.3398 106.642943 
L 597.5696 104.84691 
L 617.7994 105.126551 
L 638.0292 103.778286 
L 658.259 103.358708 
L 678.4888 103.836478 
L 698.7186 102.90785 
L 718.9484 103.560499 
L 739.1782 101.880241 
L 759.408 100.04816 
L 779.6378 99.609536 
L 799.8676 100.507173 
L 820.0974 99.830747 
L 840.3272 100.024974 
L 860.557 98.256036 
L 880.7868 97.934435 
L 901.0166 95.234148 
L 921.2464 93.603009 
L 941.4762 94.501327 
L 961.706 93.235325 
L 981.9358 94.213106 
L 1002.1656 89.448251 
L 1022.3954 89.590745 
L 1042.6252 88.415546 
L 1062.855 87.717891 
" clip-path="url(#p5e2f092459)" style="fill: none; stroke: #17becf; stroke-width: 1.5; stroke-linecap: square"/>
   </g>
   <g id="line2d_23">
    <path d="M 51.365 136.725366 
L 71.5948 135.014972 
L 91.8246 130.240076 
L 112.0544 125.604523 
L 132.2842 124.180118 
L 152.514 124.162819 
L 172.7438 119.73882 
L 192.9736 118.033092 
L 213.2034 118.753197 
L 233.4332 118.821621 
L 253.663 117.427746 
L 273.8928 118.077389 
L 294.1226 116.461339 
L 314.3524 114.587944 
L 334.5822 116.409236 
L 354.812 115.743567 
L 375.0418 113.040752 
L 395.2716 112.320412 
L 415.5014 113.111059 
L 435.7312 111.901516 
L 455.961 110.708995 
L 476.1908 111.5085 
L 496.4206 109.821404 
L 516.6504 111.132808 
L 536.8802 109.192364 
L 557.11 107.836155 
L 577.3398 105.807428 
L 597.5696 105.928477 
L 617.7994 104.725174 
L 638.0292 104.548493 
L 658.259 105.677558 
L 678.4888 103.664432 
L 698.7186 100.924292 
L 718.9484 100.519146 
L 739.1782 99.939659 
L 759.408 98.089871 
L 779.6378 96.684303 
L 799.8676 97.405208 
L 820.0974 95.737208 
L 840.3272 97.096409 
L 860.557 98.990377 
L 880.7868 98.811974 
L 901.0166 94.861226 
L 921.2464 92.6414 
L 941.4762 90.289257 
L 961.706 88.782825 
L 981.9358 89.754139 
L 1002.1656 84.935503 
L 1022.3954 85.435676 
L 1042.6252 84.447675 
L 1062.855 86.637441 
" clip-path="url(#p5e2f092459)" style="fill: none; stroke: #9edae5; stroke-width: 1.5; stroke-linecap: square"/>
   </g>
   <g id="patch_3">
    <path d="M 51.365 602.44 
L 51.365 14.76 
" style="fill: none; stroke: #000000; stroke-width: 0.8; stroke-linejoin: miter; stroke-linecap: square"/>
   </g>
   <g id="patch_4">
    <path d="M 1062.855 602.44 
L 1062.855 14.76 
" style="fill: none; stroke: #000000; stroke-width: 0.8; stroke-linejoin: miter; stroke-linecap: square"/>
   </g>
   <g id="patch_5">
    <path d="M 51.365 602.44 
L 1062.855 602.44 
" style="fill: none; stroke: #000000; stroke-width: 0.8; stroke-linejoin: miter; stroke-linecap: square"/>
   </g>
   <g id="patch_6">
    <path d="M 51.365 14.76 
L 1062.855 14.76 
" style="fill: none; stroke: #000000; stroke-width: 0.8; stroke-linejoin: miter; stroke-linecap: square"/>
   </g>
   <g id="legend_1">
    <g id="patch_7">
     <path d="M 922.49625 595.44 
L 1053.055 595.44 
Q 1055.855 595.44 1055.855 592.64 
L 1055.855 367.996875 
Q 1055.855 365.196875 1053.055 365.196875 
L 922.49625 365.196875 
Q 919.69625 365.196875 919.69625 367.996875 
L 919.69625 592.64 
Q 919.69625 595.44 922.49625 595.44 
z
" style="fill: #ffffff; opacity: 0.8; stroke: #cccccc; stroke-linejoin: miter"/>
    </g>
    <g id="line2d_24">
     <path d="M 925.29625 376.534688 
L 939.29625 376.534688 
L 953.29625 376.534688 
" style="fill: none; stroke: #1f77b4; stroke-width: 1.5; stroke-linecap: square"/>
    </g>
    <g id="text_15">
     <!-- GA -->
     <g transform="translate(964.49625 381.434687) scale(0.14 -0.14)">
      <defs>
       <path id="DejaVuSans-47" d="M 3809 666 
L 3809 1919 
L 2778 1919 
L 2778 2438 
L 4434 2438 
L 4434 434 
Q 4069 175 3628 42 
Q 3188 -91 2688 -91 
Q 1594 -91 976 548 
Q 359 1188 359 2328 
Q 359 3472 976 4111 
Q 1594 4750 2688 4750 
Q 3144 4750 3555 4637 
Q 3966 4525 4313 4306 
L 4313 3634 
Q 3963 3931 3569 4081 
Q 3175 4231 2741 4231 
Q 1884 4231 1454 3753 
Q 1025 3275 1025 2328 
Q 1025 1384 1454 906 
Q 1884 428 2741 428 
Q 3075 428 3337 486 
Q 3600 544 3809 666 
z
" transform="scale(0.015625)"/>
      </defs>
      <use xlink:href="#DejaVuSans-47"/>
      <use xlink:href="#DejaVuSans-41" x="77.490234"/>
     </g>
    </g>
    <g id="line2d_25">
     <path d="M 925.29625 397.084063 
L 939.29625 397.084063 
L 953.29625 397.084063 
" style="fill: none; stroke: #ff7f0e; stroke-width: 1.5; stroke-linecap: square"/>
    </g>
    <g id="text_16">
     <!-- Random -->
     <g transform="translate(964.49625 401.984062) scale(0.14 -0.14)">
      <defs>
       <path id="DejaVuSans-52" d="M 2841 2188 
Q 3044 2119 3236 1894 
Q 3428 1669 3622 1275 
L 4263 0 
L 3584 0 
L 2988 1197 
Q 2756 1666 2539 1819 
Q 2322 1972 1947 1972 
L 1259 1972 
L 1259 0 
L 628 0 
L 628 4666 
L 2053 4666 
Q 2853 4666 3247 4331 
Q 3641 3997 3641 3322 
Q 3641 2881 3436 2590 
Q 3231 2300 2841 2188 
z
M 1259 4147 
L 1259 2491 
L 2053 2491 
Q 2509 2491 2742 2702 
Q 2975 2913 2975 3322 
Q 2975 3731 2742 3939 
Q 2509 4147 2053 4147 
L 1259 4147 
z
" transform="scale(0.015625)"/>
      </defs>
      <use xlink:href="#DejaVuSans-52"/>
      <use xlink:href="#DejaVuSans-61" x="67.232422"/>
      <use xlink:href="#DejaVuSans-6e" x="128.511719"/>
      <use xlink:href="#DejaVuSans-64" x="191.890625"/>
      <use xlink:href="#DejaVuSans-6f" x="255.367188"/>
      <use xlink:href="#DejaVuSans-6d" x="316.548828"/>
     </g>
    </g>
    <g id="line2d_26">
     <path d="M 925.29625 417.633438 
L 939.29625 417.633438 
L 953.29625 417.633438 
" style="fill: none; stroke: #2ca02c; stroke-width: 1.5; stroke-linecap: square"/>
    </g>
    <g id="text_17">
     <!-- Chi-Squared -->
     <g transform="translate(964.49625 422.533437) scale(0.14 -0.14)">
      <defs>
       <path id="DejaVuSans-68" d="M 3513 2113 
L 3513 0 
L 2938 0 
L 2938 2094 
Q 2938 2591 2744 2837 
Q 2550 3084 2163 3084 
Q 1697 3084 1428 2787 
Q 1159 2491 1159 1978 
L 1159 0 
L 581 0 
L 581 4863 
L 1159 4863 
L 1159 2956 
Q 1366 3272 1645 3428 
Q 1925 3584 2291 3584 
Q 2894 3584 3203 3211 
Q 3513 2838 3513 2113 
z
" transform="scale(0.015625)"/>
       <path id="DejaVuSans-2d" d="M 313 2009 
L 1997 2009 
L 1997 1497 
L 313 1497 
L 313 2009 
z
" transform="scale(0.015625)"/>
       <path id="DejaVuSans-71" d="M 947 1747 
Q 947 1113 1208 752 
Q 1469 391 1925 391 
Q 2381 391 2643 752 
Q 2906 1113 2906 1747 
Q 2906 2381 2643 2742 
Q 2381 3103 1925 3103 
Q 1469 3103 1208 2742 
Q 947 2381 947 1747 
z
M 2906 525 
Q 2725 213 2448 61 
Q 2172 -91 1784 -91 
Q 1150 -91 751 415 
Q 353 922 353 1747 
Q 353 2572 751 3078 
Q 1150 3584 1784 3584 
Q 2172 3584 2448 3432 
Q 2725 3281 2906 2969 
L 2906 3500 
L 3481 3500 
L 3481 -1331 
L 2906 -1331 
L 2906 525 
z
" transform="scale(0.015625)"/>
      </defs>
      <use xlink:href="#DejaVuSans-43"/>
      <use xlink:href="#DejaVuSans-68" x="69.824219"/>
      <use xlink:href="#DejaVuSans-69" x="133.203125"/>
      <use xlink:href="#DejaVuSans-2d" x="160.986328"/>
      <use xlink:href="#DejaVuSans-53" x="197.070312"/>
      <use xlink:href="#DejaVuSans-71" x="260.546875"/>
      <use xlink:href="#DejaVuSans-75" x="324.023438"/>
      <use xlink:href="#DejaVuSans-61" x="387.402344"/>
      <use xlink:href="#DejaVuSans-72" x="448.681641"/>
      <use xlink:href="#DejaVuSans-65" x="487.544922"/>
      <use xlink:href="#DejaVuSans-64" x="549.068359"/>
     </g>
    </g>
    <g id="line2d_27">
     <path d="M 925.29625 438.182813 
L 939.29625 438.182813 
L 953.29625 438.182813 
" style="fill: none; stroke: #d62728; stroke-width: 1.5; stroke-linecap: square"/>
    </g>
    <g id="text_18">
     <!-- ANOVA F -->
     <g transform="translate(964.49625 443.082813) scale(0.14 -0.14)">
      <defs>
       <path id="DejaVuSans-4f" d="M 2522 4238 
Q 1834 4238 1429 3725 
Q 1025 3213 1025 2328 
Q 1025 1447 1429 934 
Q 1834 422 2522 422 
Q 3209 422 3611 934 
Q 4013 1447 4013 2328 
Q 4013 3213 3611 3725 
Q 3209 4238 2522 4238 
z
M 2522 4750 
Q 3503 4750 4090 4092 
Q 4678 3434 4678 2328 
Q 4678 1225 4090 567 
Q 3503 -91 2522 -91 
Q 1538 -91 948 565 
Q 359 1222 359 2328 
Q 359 3434 948 4092 
Q 1538 4750 2522 4750 
z
" transform="scale(0.015625)"/>
       <path id="DejaVuSans-56" d="M 1831 0 
L 50 4666 
L 709 4666 
L 2188 738 
L 3669 4666 
L 4325 4666 
L 2547 0 
L 1831 0 
z
" transform="scale(0.015625)"/>
      </defs>
      <use xlink:href="#DejaVuSans-41"/>
      <use xlink:href="#DejaVuSans-4e" x="68.408203"/>
      <use xlink:href="#DejaVuSans-4f" x="143.212891"/>
      <use xlink:href="#DejaVuSans-56" x="220.173828"/>
      <use xlink:href="#DejaVuSans-41" x="282.207031"/>
      <use xlink:href="#DejaVuSans-20" x="350.615234"/>
      <use xlink:href="#DejaVuSans-46" x="382.402344"/>
     </g>
    </g>
    <g id="line2d_28">
     <path d="M 925.29625 458.732188 
L 939.29625 458.732188 
L 953.29625 458.732188 
" style="fill: none; stroke: #9467bd; stroke-width: 1.5; stroke-linecap: square"/>
    </g>
    <g id="text_19">
     <!-- Mutual Info -->
     <g transform="translate(964.49625 463.632187) scale(0.14 -0.14)">
      <defs>
       <path id="DejaVuSans-49" d="M 628 4666 
L 1259 4666 
L 1259 0 
L 628 0 
L 628 4666 
z
" transform="scale(0.015625)"/>
      </defs>
      <use xlink:href="#DejaVuSans-4d"/>
      <use xlink:href="#DejaVuSans-75" x="86.279297"/>
      <use xlink:href="#DejaVuSans-74" x="149.658203"/>
      <use xlink:href="#DejaVuSans-75" x="188.867188"/>
      <use xlink:href="#DejaVuSans-61" x="252.246094"/>
      <use xlink:href="#DejaVuSans-6c" x="313.525391"/>
      <use xlink:href="#DejaVuSans-20" x="341.308594"/>
      <use xlink:href="#DejaVuSans-49" x="373.095703"/>
      <use xlink:href="#DejaVuSans-6e" x="402.587891"/>
      <use xlink:href="#DejaVuSans-66" x="465.966797"/>
      <use xlink:href="#DejaVuSans-6f" x="501.171875"/>
     </g>
    </g>
    <g id="line2d_29">
     <path d="M 925.29625 479.281563 
L 939.29625 479.281563 
L 953.29625 479.281563 
" style="fill: none; stroke: #8c564b; stroke-width: 1.5; stroke-linecap: square"/>
    </g>
    <g id="text_20">
     <!-- Lasso -->
     <g transform="translate(964.49625 484.181562) scale(0.14 -0.14)">
      <defs>
       <path id="DejaVuSans-4c" d="M 628 4666 
L 1259 4666 
L 1259 531 
L 3531 531 
L 3531 0 
L 628 0 
L 628 4666 
z
" transform="scale(0.015625)"/>
      </defs>
      <use xlink:href="#DejaVuSans-4c"/>
      <use xlink:href="#DejaVuSans-61" x="55.712891"/>
      <use xlink:href="#DejaVuSans-73" x="116.992188"/>
      <use xlink:href="#DejaVuSans-73" x="169.091797"/>
      <use xlink:href="#DejaVuSans-6f" x="221.191406"/>
     </g>
    </g>
    <g id="line2d_30">
     <path d="M 925.29625 499.830938 
L 939.29625 499.830938 
L 953.29625 499.830938 
" style="fill: none; stroke: #e377c2; stroke-width: 1.5; stroke-linecap: square"/>
    </g>
    <g id="text_21">
     <!-- Ridge -->
     <g transform="translate(964.49625 504.730937) scale(0.14 -0.14)">
      <use xlink:href="#DejaVuSans-52"/>
      <use xlink:href="#DejaVuSans-69" x="69.482422"/>
      <use xlink:href="#DejaVuSans-64" x="97.265625"/>
      <use xlink:href="#DejaVuSans-67" x="160.742188"/>
      <use xlink:href="#DejaVuSans-65" x="224.21875"/>
     </g>
    </g>
    <g id="line2d_31">
     <path d="M 925.29625 520.380313 
L 939.29625 520.380313 
L 953.29625 520.380313 
" style="fill: none; stroke: #7f7f7f; stroke-width: 1.5; stroke-linecap: square"/>
    </g>
    <g id="text_22">
     <!-- ElasticNet -->
     <g transform="translate(964.49625 525.280313) scale(0.14 -0.14)">
      <defs>
       <path id="DejaVuSans-45" d="M 628 4666 
L 3578 4666 
L 3578 4134 
L 1259 4134 
L 1259 2753 
L 3481 2753 
L 3481 2222 
L 1259 2222 
L 1259 531 
L 3634 531 
L 3634 0 
L 628 0 
L 628 4666 
z
" transform="scale(0.015625)"/>
      </defs>
      <use xlink:href="#DejaVuSans-45"/>
      <use xlink:href="#DejaVuSans-6c" x="63.183594"/>
      <use xlink:href="#DejaVuSans-61" x="90.966797"/>
      <use xlink:href="#DejaVuSans-73" x="152.246094"/>
      <use xlink:href="#DejaVuSans-74" x="204.345703"/>
      <use xlink:href="#DejaVuSans-69" x="243.554688"/>
      <use xlink:href="#DejaVuSans-63" x="271.337891"/>
      <use xlink:href="#DejaVuSans-4e" x="326.318359"/>
      <use xlink:href="#DejaVuSans-65" x="401.123047"/>
      <use xlink:href="#DejaVuSans-74" x="462.646484"/>
     </g>
    </g>
    <g id="line2d_32">
     <path d="M 925.29625 540.929688 
L 939.29625 540.929688 
L 953.29625 540.929688 
" style="fill: none; stroke: #bcbd22; stroke-width: 1.5; stroke-linecap: square"/>
    </g>
    <g id="text_23">
     <!-- RF -->
     <g transform="translate(964.49625 545.829687) scale(0.14 -0.14)">
      <use xlink:href="#DejaVuSans-52"/>
      <use xlink:href="#DejaVuSans-46" x="69.482422"/>
     </g>
    </g>
    <g id="line2d_33">
     <path d="M 925.29625 561.479063 
L 939.29625 561.479063 
L 953.29625 561.479063 
" style="fill: none; stroke: #17becf; stroke-width: 1.5; stroke-linecap: square"/>
    </g>
    <g id="text_24">
     <!-- GBM -->
     <g transform="translate(964.49625 566.379063) scale(0.14 -0.14)">
      <use xlink:href="#DejaVuSans-47"/>
      <use xlink:href="#DejaVuSans-42" x="77.490234"/>
      <use xlink:href="#DejaVuSans-4d" x="146.09375"/>
     </g>
    </g>
    <g id="line2d_34">
     <path d="M 925.29625 582.028437 
L 939.29625 582.028437 
L 953.29625 582.028437 
" style="fill: none; stroke: #9edae5; stroke-width: 1.5; stroke-linecap: square"/>
    </g>
    <g id="text_25">
     <!-- XGB -->
     <g transform="translate(964.49625 586.928437) scale(0.14 -0.14)">
      <defs>
       <path id="DejaVuSans-58" d="M 403 4666 
L 1081 4666 
L 2241 2931 
L 3406 4666 
L 4084 4666 
L 2584 2425 
L 4184 0 
L 3506 0 
L 2194 1984 
L 872 0 
L 191 0 
L 1856 2491 
L 403 4666 
z
" transform="scale(0.015625)"/>
      </defs>
      <use xlink:href="#DejaVuSans-58"/>
      <use xlink:href="#DejaVuSans-47" x="68.505859"/>
      <use xlink:href="#DejaVuSans-42" x="145.996094"/>
     </g>
    </g>
   </g>
  </g>
 </g>
 <defs>
  <clipPath id="p5e2f092459">
   <rect x="51.365" y="14.76" width="1011.49" height="587.68"/>
  </clipPath>
 </defs>
</svg>
