<?xml version="1.0" encoding="utf-8" standalone="no"?>
<!DOCTYPE svg PUBLIC "-//W3C//DTD SVG 1.1//EN"
  "http://www.w3.org/Graphics/SVG/1.1/DTD/svg11.dtd">
<svg xmlns:xlink="http://www.w3.org/1999/xlink" width="1080pt" height="432pt" viewBox="0 0 1080 432" xmlns="http://www.w3.org/2000/svg" version="1.1">
 <metadata>
  <rdf:RDF xmlns:dc="http://purl.org/dc/elements/1.1/" xmlns:cc="http://creativecommons.org/ns#" xmlns:rdf="http://www.w3.org/1999/02/22-rdf-syntax-ns#">
   <cc:Work>
    <dc:type rdf:resource="http://purl.org/dc/dcmitype/StillImage"/>
    <dc:date>2024-04-16T23:21:15.251406</dc:date>
    <dc:format>image/svg+xml</dc:format>
    <dc:creator>
     <cc:Agent>
      <dc:title>Matplotlib v3.7.2, https://matplotlib.org/</dc:title>
     </cc:Agent>
    </dc:creator>
   </cc:Work>
  </rdf:RDF>
 </metadata>
 <defs>
  <style type="text/css">*{stroke-linejoin: round; stroke-linecap: butt}</style>
 </defs>
 <g id="figure_1">
  <g id="patch_1">
   <path d="M 0 432 
L 1080 432 
L 1080 0 
L 0 0 
z
" style="fill: #ffffff"/>
  </g>
  <g id="axes_1">
   <g id="patch_2">
    <path d="M 52.28 382.6 
L 1062.525 382.6 
L 1062.525 28.32 
L 52.28 28.32 
z
" style="fill: #ffffff"/>
   </g>
   <g id="PolyCollection_1">
    <defs>
     <path id="m6fe354a271" d="M 52.28 -370.89212 
L 52.28 -356.214292 
L 72.4849 -360.422114 
L 92.6898 -364.773821 
L 112.8947 -365.258045 
L 133.0996 -373.899864 
L 153.3045 -375.280189 
L 173.5094 -370.806595 
L 193.7143 -374.877162 
L 213.9192 -379.138538 
L 234.1241 -377.479846 
L 254.329 -377.609929 
L 274.5339 -381.042114 
L 294.7388 -383.033749 
L 314.9437 -383.836088 
L 335.1486 -382.617715 
L 355.3535 -385.476355 
L 375.5584 -383.677721 
L 395.7633 -383.637255 
L 415.9682 -384.977601 
L 436.1731 -388.094368 
L 456.378 -388.404446 
L 476.5829 -387.693317 
L 496.7878 -384.811251 
L 516.9927 -388.84511 
L 537.1976 -389.518685 
L 557.4025 -389.318793 
L 577.6074 -389.340416 
L 597.8123 -389.282794 
L 618.0172 -389.956216 
L 638.2221 -391.609484 
L 658.427 -391.289292 
L 678.6319 -389.514585 
L 698.8368 -391.697867 
L 719.0417 -391.439102 
L 739.2466 -391.898431 
L 759.4515 -393.768457 
L 779.6564 -393.70222 
L 799.8613 -392.935341 
L 820.0662 -393.874801 
L 840.2711 -394.666884 
L 860.476 -393.255641 
L 880.6809 -394.83094 
L 900.8858 -394.973562 
L 921.0907 -395.104922 
L 941.2956 -395.180189 
L 961.5005 -395.204528 
L 981.7054 -395.050222 
L 1001.9103 -395.422666 
L 1022.1152 -396.325877 
L 1042.3201 -394.923502 
L 1062.525 -395.087522 
L 1062.525 -399.035583 
L 1062.525 -399.035583 
L 1042.3201 -398.130659 
L 1022.1152 -397.788593 
L 1001.9103 -398.20071 
L 981.7054 -397.540844 
L 961.5005 -397.295643 
L 941.2956 -397.22226 
L 921.0907 -397.560519 
L 900.8858 -396.60271 
L 880.6809 -396.05722 
L 860.476 -396.285706 
L 840.2711 -396.04183 
L 820.0662 -395.9021 
L 799.8613 -395.949936 
L 779.6564 -395.256902 
L 759.4515 -395.172817 
L 739.2466 -394.480667 
L 719.0417 -394.217401 
L 698.8368 -394.301983 
L 678.6319 -394.259215 
L 658.427 -392.788951 
L 638.2221 -393.008562 
L 618.0172 -392.186973 
L 597.8123 -392.253223 
L 577.6074 -391.723219 
L 557.4025 -391.577691 
L 537.1976 -391.337711 
L 516.9927 -390.891004 
L 496.7878 -391.668949 
L 476.5829 -389.983645 
L 456.378 -390.23829 
L 436.1731 -389.530588 
L 415.9682 -389.202592 
L 395.7633 -389.656795 
L 375.5584 -389.248719 
L 355.3535 -387.726795 
L 335.1486 -387.005928 
L 314.9437 -386.490327 
L 294.7388 -386.076479 
L 274.5339 -385.620103 
L 254.329 -386.258552 
L 234.1241 -386.092265 
L 213.9192 -383.412627 
L 193.7143 -382.72839 
L 173.5094 -382.576773 
L 153.3045 -380.841207 
L 133.0996 -381.159661 
L 112.8947 -377.889397 
L 92.6898 -378.736251 
L 72.4849 -374.271723 
L 52.28 -370.89212 
z
" style="stroke: #1f77b4; stroke-opacity: 0.2"/>
    </defs>
    <g clip-path="url(#p125d003cdc)">
     <use xlink:href="#m6fe354a271" x="0" y="432" style="fill: #1f77b4; fill-opacity: 0.2; stroke: #1f77b4; stroke-opacity: 0.2"/>
    </g>
   </g>
   <g id="PolyCollection_2">
    <defs>
     <path id="m866f387f01" d="M 52.28 -233.972212 
L 52.28 -188.042626 
L 72.4849 -195.674399 
L 92.6898 -198.683096 
L 112.8947 -199.513799 
L 133.0996 -222.847802 
L 153.3045 -214.576861 
L 173.5094 -223.622719 
L 193.7143 -204.086992 
L 213.9192 -230.109606 
L 234.1241 -214.650151 
L 254.329 -204.2642 
L 274.5339 -223.454725 
L 294.7388 -237.264831 
L 314.9437 -223.820713 
L 335.1486 -222.512622 
L 355.3535 -238.764548 
L 375.5584 -224.715664 
L 395.7633 -231.26762 
L 415.9682 -230.361506 
L 436.1731 -242.982708 
L 456.378 -239.022307 
L 476.5829 -235.960623 
L 496.7878 -253.185827 
L 516.9927 -239.601398 
L 537.1976 -242.214169 
L 557.4025 -260.493362 
L 577.6074 -243.715232 
L 597.8123 -241.079706 
L 618.0172 -240.954343 
L 638.2221 -263.242943 
L 658.427 -245.212445 
L 678.6319 -263.536288 
L 698.8368 -263.245454 
L 719.0417 -275.50518 
L 739.2466 -259.29793 
L 759.4515 -266.388092 
L 779.6564 -261.211117 
L 799.8613 -262.384079 
L 820.0662 -277.651214 
L 840.2711 -281.346695 
L 860.476 -274.183056 
L 880.6809 -266.075049 
L 900.8858 -264.098791 
L 921.0907 -253.698257 
L 941.2956 -269.713441 
L 961.5005 -272.698663 
L 981.7054 -282.970393 
L 1001.9103 -273.206529 
L 1022.1152 -258.219838 
L 1042.3201 -282.104626 
L 1062.525 -281.68405 
L 1062.525 -309.441541 
L 1062.525 -309.441541 
L 1042.3201 -318.392146 
L 1022.1152 -304.981132 
L 1001.9103 -320.666499 
L 981.7054 -303.181383 
L 961.5005 -307.805182 
L 941.2956 -316.35946 
L 921.0907 -310.147998 
L 900.8858 -316.902681 
L 880.6809 -287.737806 
L 860.476 -303.726998 
L 840.2711 -298.83798 
L 820.0662 -308.128635 
L 799.8613 -301.602472 
L 779.6564 -297.132537 
L 759.4515 -295.415831 
L 739.2466 -293.765324 
L 719.0417 -306.210219 
L 698.8368 -309.137909 
L 678.6319 -284.030587 
L 658.427 -287.536665 
L 638.2221 -305.676567 
L 618.0172 -280.340697 
L 597.8123 -289.348407 
L 577.6074 -287.955124 
L 557.4025 -294.932579 
L 537.1976 -280.778023 
L 516.9927 -266.098153 
L 496.7878 -291.46399 
L 476.5829 -265.550513 
L 456.378 -281.196388 
L 436.1731 -273.626554 
L 415.9682 -267.221942 
L 395.7633 -265.465971 
L 375.5584 -272.06895 
L 355.3535 -270.743061 
L 335.1486 -267.697055 
L 314.9437 -259.380074 
L 294.7388 -274.5 
L 274.5339 -251.376883 
L 254.329 -244.870622 
L 234.1241 -259.961508 
L 213.9192 -265.344008 
L 193.7143 -245.0432 
L 173.5094 -254.748885 
L 153.3045 -249.483749 
L 133.0996 -237.780235 
L 112.8947 -252.385067 
L 92.6898 -246.569884 
L 72.4849 -225.729902 
L 52.28 -233.972212 
z
" style="stroke: #ff7f0e; stroke-opacity: 0.2"/>
    </defs>
    <g clip-path="url(#p125d003cdc)">
     <use xlink:href="#m866f387f01" x="0" y="432" style="fill: #ff7f0e; fill-opacity: 0.2; stroke: #ff7f0e; stroke-opacity: 0.2"/>
    </g>
   </g>
   <g id="PolyCollection_3">
    <defs>
     <path id="m2676323cef" d="M 52.28 -331.950863 
L 52.28 -309.033903 
L 72.4849 -310.184486 
L 92.6898 -312.485539 
L 112.8947 -315.553949 
L 133.0996 -318.578086 
L 153.3045 -319.239451 
L 173.5094 -321.888915 
L 193.7143 -322.490409 
L 213.9192 -327.993388 
L 234.1241 -329.75016 
L 254.329 -329.649669 
L 274.5339 -329.56337 
L 294.7388 -334.781642 
L 314.9437 -335.243246 
L 335.1486 -333.428226 
L 355.3535 -335.877342 
L 375.5584 -335.697116 
L 395.7633 -337.699961 
L 415.9682 -336.45499 
L 436.1731 -335.75578 
L 456.378 -340.599288 
L 476.5829 -340.86456 
L 496.7878 -346.63167 
L 516.9927 -350.204773 
L 537.1976 -350.759637 
L 557.4025 -351.167032 
L 577.6074 -353.239343 
L 597.8123 -350.679681 
L 618.0172 -349.945894 
L 638.2221 -350.031212 
L 658.427 -351.215179 
L 678.6319 -356.413986 
L 698.8368 -354.715262 
L 719.0417 -351.866419 
L 739.2466 -354.990936 
L 759.4515 -355.223005 
L 779.6564 -355.436669 
L 799.8613 -356.090633 
L 820.0662 -356.270525 
L 840.2711 -355.151187 
L 860.476 -361.468036 
L 880.6809 -362.938738 
L 900.8858 -363.140416 
L 921.0907 -363.001298 
L 941.2956 -362.088271 
L 961.5005 -363.870813 
L 981.7054 -361.576024 
L 1001.9103 -361.734447 
L 1022.1152 -362.141349 
L 1042.3201 -362.282003 
L 1062.525 -356.096978 
L 1062.525 -373.032327 
L 1062.525 -373.032327 
L 1042.3201 -370.941945 
L 1022.1152 -370.872817 
L 1001.9103 -370.700902 
L 981.7054 -370.621783 
L 961.5005 -365.042827 
L 941.2956 -368.879549 
L 921.0907 -366.636319 
L 900.8858 -366.177024 
L 880.6809 -366.075731 
L 860.476 -365.204804 
L 840.2711 -366.986566 
L 820.0662 -366.232586 
L 799.8613 -366.098229 
L 779.6564 -365.835603 
L 759.4515 -365.578662 
L 739.2466 -365.317842 
L 719.0417 -364.719025 
L 698.8368 -364.910806 
L 678.6319 -364.555355 
L 658.427 -364.08194 
L 638.2221 -364.605995 
L 618.0172 -364.513953 
L 597.8123 -363.378369 
L 577.6074 -363.305524 
L 557.4025 -363.374318 
L 537.1976 -362.985311 
L 516.9927 -362.372426 
L 496.7878 -361.576411 
L 476.5829 -359.05749 
L 456.378 -358.536928 
L 436.1731 -351.603932 
L 415.9682 -353.309068 
L 395.7633 -355.664208 
L 375.5584 -351.042203 
L 355.3535 -346.615794 
L 335.1486 -342.821436 
L 314.9437 -343.10648 
L 294.7388 -339.630847 
L 274.5339 -340.648816 
L 254.329 -340.982298 
L 234.1241 -342.237607 
L 213.9192 -342.946757 
L 193.7143 -345.85614 
L 173.5094 -344.882755 
L 153.3045 -343.508633 
L 133.0996 -342.53864 
L 112.8947 -337.476947 
L 92.6898 -338.520971 
L 72.4849 -332.906623 
L 52.28 -331.950863 
z
" style="stroke: #2ca02c; stroke-opacity: 0.2"/>
    </defs>
    <g clip-path="url(#p125d003cdc)">
     <use xlink:href="#m2676323cef" x="0" y="432" style="fill: #2ca02c; fill-opacity: 0.2; stroke: #2ca02c; stroke-opacity: 0.2"/>
    </g>
   </g>
   <g id="PolyCollection_4">
    <defs>
     <path id="m094b89c752" d="M 52.28 -291.367209 
L 52.28 -277.585687 
L 72.4849 -277.234604 
L 92.6898 -281.315338 
L 112.8947 -283.464023 
L 133.0996 -284.878275 
L 153.3045 -288.753133 
L 173.5094 -287.826204 
L 193.7143 -289.985464 
L 213.9192 -288.889629 
L 234.1241 -296.129626 
L 254.329 -294.42094 
L 274.5339 -302.266424 
L 294.7388 -301.136216 
L 314.9437 -301.560132 
L 335.1486 -302.146356 
L 355.3535 -300.711797 
L 375.5584 -307.683122 
L 395.7633 -308.409781 
L 415.9682 -305.312627 
L 436.1731 -307.210992 
L 456.378 -299.510036 
L 476.5829 -297.225516 
L 496.7878 -303.312797 
L 516.9927 -313.250513 
L 537.1976 -314.897267 
L 557.4025 -311.080269 
L 577.6074 -316.575323 
L 597.8123 -320.582308 
L 618.0172 -320.532013 
L 638.2221 -320.537369 
L 658.427 -321.187963 
L 678.6319 -320.959267 
L 698.8368 -320.296599 
L 719.0417 -322.403543 
L 739.2466 -323.207502 
L 759.4515 -322.870261 
L 779.6564 -330.791252 
L 799.8613 -331.379809 
L 820.0662 -331.775298 
L 840.2711 -331.636054 
L 860.476 -334.593689 
L 880.6809 -336.222293 
L 900.8858 -340.693371 
L 921.0907 -340.723189 
L 941.2956 -345.619619 
L 961.5005 -345.444342 
L 981.7054 -346.579477 
L 1001.9103 -350.926002 
L 1022.1152 -353.86613 
L 1042.3201 -354.811187 
L 1062.525 -355.976149 
L 1062.525 -368.531451 
L 1062.525 -368.531451 
L 1042.3201 -367.964545 
L 1022.1152 -368.178119 
L 1001.9103 -367.050253 
L 981.7054 -364.584549 
L 961.5005 -364.294662 
L 941.2956 -362.373438 
L 921.0907 -362.344446 
L 900.8858 -359.794848 
L 880.6809 -360.155229 
L 860.476 -359.422326 
L 840.2711 -358.008278 
L 820.0662 -357.817883 
L 799.8613 -357.526264 
L 779.6564 -357.324719 
L 759.4515 -353.253168 
L 739.2466 -353.366413 
L 719.0417 -351.750367 
L 698.8368 -349.610746 
L 678.6319 -346.690155 
L 658.427 -346.342484 
L 638.2221 -344.557587 
L 618.0172 -344.517242 
L 597.8123 -344.651693 
L 577.6074 -343.870162 
L 557.4025 -344.501297 
L 537.1976 -343.605293 
L 516.9927 -340.870114 
L 496.7878 -339.849276 
L 476.5829 -331.966445 
L 456.378 -329.515394 
L 436.1731 -324.749646 
L 415.9682 -325.049962 
L 395.7633 -322.865833 
L 375.5584 -318.70173 
L 355.3535 -316.371765 
L 335.1486 -315.396013 
L 314.9437 -314.99483 
L 294.7388 -314.890435 
L 274.5339 -315.013124 
L 254.329 -314.101276 
L 234.1241 -314.186899 
L 213.9192 -311.918315 
L 193.7143 -312.619105 
L 173.5094 -312.869989 
L 153.3045 -308.99137 
L 133.0996 -301.384635 
L 112.8947 -296.475993 
L 92.6898 -294.916216 
L 72.4849 -295.270171 
L 52.28 -291.367209 
z
" style="stroke: #d62728; stroke-opacity: 0.2"/>
    </defs>
    <g clip-path="url(#p125d003cdc)">
     <use xlink:href="#m094b89c752" x="0" y="432" style="fill: #d62728; fill-opacity: 0.2; stroke: #d62728; stroke-opacity: 0.2"/>
    </g>
   </g>
   <g id="PolyCollection_5">
    <defs>
     <path id="m8493e3cb63" d="M 52.28 -338.354941 
L 52.28 -299.763741 
L 72.4849 -306.771253 
L 92.6898 -307.866189 
L 112.8947 -309.004404 
L 133.0996 -310.104702 
L 153.3045 -311.096489 
L 173.5094 -315.18597 
L 193.7143 -318.700666 
L 213.9192 -318.869863 
L 234.1241 -319.296402 
L 254.329 -321.816601 
L 274.5339 -320.347387 
L 294.7388 -320.70323 
L 314.9437 -321.585897 
L 335.1486 -324.776113 
L 355.3535 -327.771944 
L 375.5584 -327.97483 
L 395.7633 -332.361162 
L 415.9682 -332.599342 
L 436.1731 -332.221473 
L 456.378 -332.678045 
L 476.5829 -337.957169 
L 496.7878 -345.005273 
L 516.9927 -345.614011 
L 537.1976 -343.673414 
L 557.4025 -346.196774 
L 577.6074 -347.173027 
L 597.8123 -356.789297 
L 618.0172 -356.819539 
L 638.2221 -357.025634 
L 658.427 -357.879105 
L 678.6319 -358.147156 
L 698.8368 -354.301352 
L 719.0417 -355.106624 
L 739.2466 -360.230274 
L 759.4515 -355.909905 
L 779.6564 -361.13275 
L 799.8613 -361.445165 
L 820.0662 -356.489686 
L 840.2711 -362.215863 
L 860.476 -362.380427 
L 880.6809 -360.752313 
L 900.8858 -362.089317 
L 921.0907 -363.102367 
L 941.2956 -363.204316 
L 961.5005 -361.345709 
L 981.7054 -355.669289 
L 1001.9103 -361.779637 
L 1022.1152 -362.039952 
L 1042.3201 -362.127137 
L 1062.525 -362.188998 
L 1062.525 -370.92139 
L 1062.525 -370.92139 
L 1042.3201 -370.822627 
L 1022.1152 -370.682163 
L 1001.9103 -370.529814 
L 981.7054 -372.003433 
L 961.5005 -370.20013 
L 941.2956 -366.203065 
L 921.0907 -366.157928 
L 900.8858 -366.153882 
L 880.6809 -369.677833 
L 860.476 -366.052394 
L 840.2711 -365.732685 
L 820.0662 -367.578891 
L 799.8613 -364.999047 
L 779.6564 -364.66339 
L 759.4515 -366.261004 
L 739.2466 -364.058033 
L 719.0417 -363.708787 
L 698.8368 -363.641931 
L 678.6319 -361.850028 
L 658.427 -361.503519 
L 638.2221 -361.10274 
L 618.0172 -364.165893 
L 597.8123 -363.862409 
L 577.6074 -365.414036 
L 557.4025 -364.424996 
L 537.1976 -363.302306 
L 516.9927 -364.071047 
L 496.7878 -363.992859 
L 476.5829 -363.915581 
L 456.378 -365.838511 
L 436.1731 -365.860155 
L 415.9682 -363.017326 
L 395.7633 -362.441739 
L 375.5584 -362.417141 
L 355.3535 -361.540728 
L 335.1486 -358.781564 
L 314.9437 -347.788803 
L 294.7388 -348.018559 
L 274.5339 -347.879522 
L 254.329 -346.215083 
L 234.1241 -347.269977 
L 213.9192 -346.295288 
L 193.7143 -346.054888 
L 173.5094 -344.492522 
L 153.3045 -345.25397 
L 133.0996 -343.715559 
L 112.8947 -343.594674 
L 92.6898 -341.818218 
L 72.4849 -338.631558 
L 52.28 -338.354941 
z
" style="stroke: #9467bd; stroke-opacity: 0.2"/>
    </defs>
    <g clip-path="url(#p125d003cdc)">
     <use xlink:href="#m8493e3cb63" x="0" y="432" style="fill: #9467bd; fill-opacity: 0.2; stroke: #9467bd; stroke-opacity: 0.2"/>
    </g>
   </g>
   <g id="PolyCollection_6">
    <defs>
     <path id="mf1aae01ac8" d="M 52.28 -332.794963 
L 52.28 -310.519636 
L 72.4849 -311.465599 
L 92.6898 -314.358991 
L 112.8947 -324.10617 
L 133.0996 -326.329105 
L 153.3045 -326.842245 
L 173.5094 -331.25254 
L 193.7143 -330.886514 
L 213.9192 -331.38439 
L 234.1241 -332.868607 
L 254.329 -333.58057 
L 274.5339 -333.891821 
L 294.7388 -334.838183 
L 314.9437 -334.066693 
L 335.1486 -335.042178 
L 355.3535 -337.239822 
L 375.5584 -337.857327 
L 395.7633 -338.079378 
L 415.9682 -338.27392 
L 436.1731 -336.587583 
L 456.378 -338.740695 
L 476.5829 -336.998019 
L 496.7878 -337.836192 
L 516.9927 -338.297746 
L 537.1976 -338.65146 
L 557.4025 -338.511788 
L 577.6074 -338.883839 
L 597.8123 -333.54437 
L 618.0172 -332.542118 
L 638.2221 -337.838638 
L 658.427 -335.381244 
L 678.6319 -339.358941 
L 698.8368 -337.158031 
L 719.0417 -338.214613 
L 739.2466 -338.745352 
L 759.4515 -339.141241 
L 779.6564 -338.890157 
L 799.8613 -340.949337 
L 820.0662 -340.197735 
L 840.2711 -338.47948 
L 860.476 -339.22796 
L 880.6809 -340.038952 
L 900.8858 -340.397751 
L 921.0907 -340.556797 
L 941.2956 -342.809346 
L 961.5005 -344.870796 
L 981.7054 -348.189835 
L 1001.9103 -348.565101 
L 1022.1152 -349.44047 
L 1042.3201 -351.516224 
L 1062.525 -347.536035 
L 1062.525 -373.270968 
L 1062.525 -373.270968 
L 1042.3201 -371.654651 
L 1022.1152 -370.584812 
L 1001.9103 -370.641314 
L 981.7054 -371.021278 
L 961.5005 -368.213988 
L 941.2956 -367.391275 
L 921.0907 -365.073816 
L 900.8858 -364.850255 
L 880.6809 -364.666069 
L 860.476 -364.067566 
L 840.2711 -363.640623 
L 820.0662 -365.775169 
L 799.8613 -360.208603 
L 779.6564 -354.971568 
L 759.4515 -354.727758 
L 739.2466 -354.59203 
L 719.0417 -357.430401 
L 698.8368 -352.690003 
L 678.6319 -347.77692 
L 658.427 -352.09939 
L 638.2221 -347.384693 
L 618.0172 -349.095061 
L 597.8123 -349.285466 
L 577.6074 -347.565148 
L 557.4025 -347.284953 
L 537.1976 -346.722194 
L 516.9927 -346.618302 
L 496.7878 -346.441507 
L 476.5829 -346.217967 
L 456.378 -342.147603 
L 436.1731 -342.40057 
L 415.9682 -341.723878 
L 395.7633 -341.42099 
L 375.5584 -341.68897 
L 355.3535 -341.164923 
L 335.1486 -343.783863 
L 314.9437 -342.894018 
L 294.7388 -342.134509 
L 274.5339 -341.688592 
L 254.329 -341.297009 
L 234.1241 -340.714104 
L 213.9192 -339.646988 
L 193.7143 -339.142257 
L 173.5094 -337.862928 
L 153.3045 -338.717666 
L 133.0996 -338.243677 
L 112.8947 -335.67638 
L 92.6898 -337.154316 
L 72.4849 -334.680206 
L 52.28 -332.794963 
z
" style="stroke: #8c564b; stroke-opacity: 0.2"/>
    </defs>
    <g clip-path="url(#p125d003cdc)">
     <use xlink:href="#mf1aae01ac8" x="0" y="432" style="fill: #8c564b; fill-opacity: 0.2; stroke: #8c564b; stroke-opacity: 0.2"/>
    </g>
   </g>
   <g id="PolyCollection_7">
    <defs>
     <path id="ma4c887a3d2" d="M 52.28 -325.29192 
L 52.28 -312.227897 
L 72.4849 -316.01021 
L 92.6898 -319.086483 
L 112.8947 -321.720051 
L 133.0996 -324.556308 
L 153.3045 -324.661335 
L 173.5094 -329.123131 
L 193.7143 -329.876262 
L 213.9192 -329.485328 
L 234.1241 -322.994734 
L 254.329 -325.928966 
L 274.5339 -327.414211 
L 294.7388 -322.518431 
L 314.9437 -322.531147 
L 335.1486 -328.098135 
L 355.3535 -326.487742 
L 375.5584 -330.067831 
L 395.7633 -329.536225 
L 415.9682 -326.295251 
L 436.1731 -326.809683 
L 456.378 -329.192539 
L 476.5829 -330.576658 
L 496.7878 -330.883424 
L 516.9927 -331.946143 
L 537.1976 -334.810134 
L 557.4025 -338.082247 
L 577.6074 -338.091819 
L 597.8123 -336.409404 
L 618.0172 -338.491131 
L 638.2221 -344.390203 
L 658.427 -344.062367 
L 678.6319 -345.036377 
L 698.8368 -346.528971 
L 719.0417 -346.227101 
L 739.2466 -342.613656 
L 759.4515 -344.060972 
L 779.6564 -346.851869 
L 799.8613 -348.592394 
L 820.0662 -348.376958 
L 840.2711 -350.38643 
L 860.476 -347.090521 
L 880.6809 -347.132913 
L 900.8858 -347.632848 
L 921.0907 -348.481598 
L 941.2956 -349.106564 
L 961.5005 -351.845269 
L 981.7054 -354.037535 
L 1001.9103 -354.128859 
L 1022.1152 -347.977301 
L 1042.3201 -352.374611 
L 1062.525 -350.358804 
L 1062.525 -374.167244 
L 1062.525 -374.167244 
L 1042.3201 -372.749516 
L 1022.1152 -371.443555 
L 1001.9103 -372.928726 
L 981.7054 -372.80232 
L 961.5005 -373.32546 
L 941.2956 -365.881261 
L 921.0907 -364.278158 
L 900.8858 -364.319292 
L 880.6809 -361.88878 
L 860.476 -361.760958 
L 840.2711 -366.848279 
L 820.0662 -365.456752 
L 799.8613 -366.872542 
L 779.6564 -364.013177 
L 759.4515 -360.659315 
L 739.2466 -361.201076 
L 719.0417 -360.929021 
L 698.8368 -364.938762 
L 678.6319 -361.011768 
L 658.427 -357.613659 
L 638.2221 -359.060014 
L 618.0172 -356.999483 
L 597.8123 -357.342779 
L 577.6074 -356.995613 
L 557.4025 -356.650034 
L 537.1976 -355.430153 
L 516.9927 -352.443658 
L 496.7878 -349.176405 
L 476.5829 -350.725413 
L 456.378 -347.722151 
L 436.1731 -343.568364 
L 415.9682 -343.228432 
L 395.7633 -341.962553 
L 375.5584 -341.586081 
L 355.3535 -345.268507 
L 335.1486 -339.27758 
L 314.9437 -338.657651 
L 294.7388 -339.516425 
L 274.5339 -338.364473 
L 254.329 -336.839619 
L 234.1241 -338.745094 
L 213.9192 -332.429753 
L 193.7143 -331.675775 
L 173.5094 -331.492887 
L 153.3045 -332.305622 
L 133.0996 -331.691245 
L 112.8947 -331.14513 
L 92.6898 -329.840321 
L 72.4849 -327.873337 
L 52.28 -325.29192 
z
" style="stroke: #e377c2; stroke-opacity: 0.2"/>
    </defs>
    <g clip-path="url(#p125d003cdc)">
     <use xlink:href="#ma4c887a3d2" x="0" y="432" style="fill: #e377c2; fill-opacity: 0.2; stroke: #e377c2; stroke-opacity: 0.2"/>
    </g>
   </g>
   <g id="PolyCollection_8">
    <defs>
     <path id="m8402c43f81" d="M 52.28 -328.784678 
L 52.28 -317.905491 
L 72.4849 -320.157231 
L 92.6898 -320.288143 
L 112.8947 -328.34024 
L 133.0996 -328.391318 
L 153.3045 -328.991008 
L 173.5094 -327.600807 
L 193.7143 -328.494189 
L 213.9192 -331.417804 
L 234.1241 -330.41499 
L 254.329 -330.418173 
L 274.5339 -331.161951 
L 294.7388 -331.618234 
L 314.9437 -331.154679 
L 335.1486 -332.786176 
L 355.3535 -333.123575 
L 375.5584 -333.313843 
L 395.7633 -334.140478 
L 415.9682 -333.8018 
L 436.1731 -335.295121 
L 456.378 -336.9525 
L 476.5829 -337.014068 
L 496.7878 -337.951971 
L 516.9927 -338.202022 
L 537.1976 -338.442247 
L 557.4025 -338.290847 
L 577.6074 -339.485055 
L 597.8123 -339.71793 
L 618.0172 -338.691298 
L 638.2221 -338.692018 
L 658.427 -340.879065 
L 678.6319 -340.039864 
L 698.8368 -337.801914 
L 719.0417 -340.408655 
L 739.2466 -342.846894 
L 759.4515 -341.796575 
L 779.6564 -341.168144 
L 799.8613 -343.980721 
L 820.0662 -344.290414 
L 840.2711 -344.258496 
L 860.476 -342.066939 
L 880.6809 -343.590791 
L 900.8858 -346.482253 
L 921.0907 -347.10773 
L 941.2956 -347.552049 
L 961.5005 -351.912192 
L 981.7054 -352.438279 
L 1001.9103 -353.526055 
L 1022.1152 -349.951323 
L 1042.3201 -349.410373 
L 1062.525 -351.882737 
L 1062.525 -368.772046 
L 1062.525 -368.772046 
L 1042.3201 -367.556103 
L 1022.1152 -371.21332 
L 1001.9103 -370.725135 
L 981.7054 -370.940664 
L 961.5005 -370.30975 
L 941.2956 -369.156066 
L 921.0907 -369.070435 
L 900.8858 -368.645803 
L 880.6809 -365.436782 
L 860.476 -363.205257 
L 840.2711 -356.715844 
L 820.0662 -356.597824 
L 799.8613 -356.44832 
L 779.6564 -364.063363 
L 759.4515 -364.185382 
L 739.2466 -358.410314 
L 719.0417 -363.504835 
L 698.8368 -357.448166 
L 678.6319 -357.043556 
L 658.427 -359.238352 
L 638.2221 -353.695012 
L 618.0172 -353.311443 
L 597.8123 -358.619303 
L 577.6074 -358.572024 
L 557.4025 -357.366995 
L 537.1976 -357.057071 
L 516.9927 -353.753039 
L 496.7878 -356.430684 
L 476.5829 -356.036298 
L 456.378 -355.382286 
L 436.1731 -354.59699 
L 415.9682 -352.085065 
L 395.7633 -348.822081 
L 375.5584 -348.223989 
L 355.3535 -342.868726 
L 335.1486 -341.935807 
L 314.9437 -341.418194 
L 294.7388 -340.801383 
L 274.5339 -339.37767 
L 254.329 -338.910178 
L 234.1241 -336.591171 
L 213.9192 -334.013797 
L 193.7143 -334.358211 
L 173.5094 -332.813006 
L 153.3045 -331.974145 
L 133.0996 -333.534581 
L 112.8947 -331.200353 
L 92.6898 -335.008591 
L 72.4849 -332.793539 
L 52.28 -328.784678 
z
" style="stroke: #7f7f7f; stroke-opacity: 0.2"/>
    </defs>
    <g clip-path="url(#p125d003cdc)">
     <use xlink:href="#m8402c43f81" x="0" y="432" style="fill: #7f7f7f; fill-opacity: 0.2; stroke: #7f7f7f; stroke-opacity: 0.2"/>
    </g>
   </g>
   <g id="PolyCollection_9">
    <defs>
     <path id="m64af936908" d="M 52.28 -332.046271 
L 52.28 -319.233457 
L 72.4849 -321.905084 
L 92.6898 -322.923905 
L 112.8947 -325.075291 
L 133.0996 -326.141441 
L 153.3045 -329.803639 
L 173.5094 -330.0527 
L 193.7143 -330.414052 
L 213.9192 -330.366237 
L 234.1241 -328.241018 
L 254.329 -328.656921 
L 274.5339 -329.303644 
L 294.7388 -329.9849 
L 314.9437 -330.462341 
L 335.1486 -331.104874 
L 355.3535 -332.643127 
L 375.5584 -332.004018 
L 395.7633 -332.015219 
L 415.9682 -333.565976 
L 436.1731 -333.879857 
L 456.378 -334.561421 
L 476.5829 -338.021349 
L 496.7878 -336.369977 
L 516.9927 -339.094294 
L 537.1976 -350.035195 
L 557.4025 -349.659889 
L 577.6074 -352.903004 
L 597.8123 -339.128987 
L 618.0172 -353.338976 
L 638.2221 -351.368975 
L 658.427 -346.286455 
L 678.6319 -351.800392 
L 698.8368 -353.14336 
L 719.0417 -356.507021 
L 739.2466 -350.579235 
L 759.4515 -358.741435 
L 779.6564 -361.263765 
L 799.8613 -361.396026 
L 820.0662 -358.110894 
L 840.2711 -360.054628 
L 860.476 -362.045357 
L 880.6809 -363.394876 
L 900.8858 -360.304746 
L 921.0907 -361.871093 
L 941.2956 -356.861485 
L 961.5005 -356.347024 
L 981.7054 -359.915843 
L 1001.9103 -356.910008 
L 1022.1152 -356.529946 
L 1042.3201 -359.990403 
L 1062.525 -362.463197 
L 1062.525 -371.989164 
L 1062.525 -371.989164 
L 1042.3201 -372.323309 
L 1022.1152 -373.581542 
L 1001.9103 -374.209158 
L 981.7054 -371.892432 
L 961.5005 -369.393214 
L 941.2956 -372.816881 
L 921.0907 -371.245808 
L 900.8858 -368.100669 
L 880.6809 -366.840404 
L 860.476 -366.011633 
L 840.2711 -365.988172 
L 820.0662 -365.699898 
L 799.8613 -365.345821 
L 779.6564 -365.061742 
L 759.4515 -365.458154 
L 739.2466 -367.267531 
L 719.0417 -365.650002 
L 698.8368 -365.621342 
L 678.6319 -365.574032 
L 658.427 -363.107484 
L 638.2221 -364.569287 
L 618.0172 -364.61812 
L 597.8123 -364.426567 
L 577.6074 -364.033462 
L 557.4025 -363.585156 
L 537.1976 -364.411611 
L 516.9927 -359.115904 
L 496.7878 -355.906877 
L 476.5829 -358.173762 
L 456.378 -355.305363 
L 436.1731 -354.7107 
L 415.9682 -354.525398 
L 395.7633 -354.06785 
L 375.5584 -353.263251 
L 355.3535 -348.101228 
L 335.1486 -347.542161 
L 314.9437 -344.719075 
L 294.7388 -343.973617 
L 274.5339 -343.260142 
L 254.329 -342.851551 
L 234.1241 -342.459451 
L 213.9192 -333.845997 
L 193.7143 -333.016819 
L 173.5094 -333.713056 
L 153.3045 -333.271438 
L 133.0996 -333.562994 
L 112.8947 -333.025984 
L 92.6898 -334.966984 
L 72.4849 -330.984868 
L 52.28 -332.046271 
z
" style="stroke: #bcbd22; stroke-opacity: 0.2"/>
    </defs>
    <g clip-path="url(#p125d003cdc)">
     <use xlink:href="#m64af936908" x="0" y="432" style="fill: #bcbd22; fill-opacity: 0.2; stroke: #bcbd22; stroke-opacity: 0.2"/>
    </g>
   </g>
   <g id="PolyCollection_10">
    <defs>
     <path id="me22c181105" d="M 52.28 -341.190287 
L 52.28 -325.361651 
L 72.4849 -324.539213 
L 92.6898 -325.462422 
L 112.8947 -326.368768 
L 133.0996 -325.684509 
L 153.3045 -325.685379 
L 173.5094 -325.698367 
L 193.7143 -326.230509 
L 213.9192 -322.655266 
L 234.1241 -329.72133 
L 254.329 -333.81271 
L 274.5339 -335.558692 
L 294.7388 -337.10235 
L 314.9437 -341.62736 
L 335.1486 -341.227325 
L 355.3535 -342.892258 
L 375.5584 -336.495157 
L 395.7633 -339.131232 
L 415.9682 -347.202456 
L 436.1731 -344.412793 
L 456.378 -348.327731 
L 476.5829 -348.310784 
L 496.7878 -345.261288 
L 516.9927 -345.730333 
L 537.1976 -344.763929 
L 557.4025 -349.378231 
L 577.6074 -355.24657 
L 597.8123 -354.592993 
L 618.0172 -350.909407 
L 638.2221 -354.550987 
L 658.427 -346.149269 
L 678.6319 -355.584062 
L 698.8368 -351.84545 
L 719.0417 -353.823037 
L 739.2466 -358.935569 
L 759.4515 -353.677257 
L 779.6564 -359.271928 
L 799.8613 -359.409646 
L 820.0662 -359.206684 
L 840.2711 -350.717329 
L 860.476 -356.195942 
L 880.6809 -354.905433 
L 900.8858 -359.590319 
L 921.0907 -361.662876 
L 941.2956 -357.495046 
L 961.5005 -354.969122 
L 981.7054 -360.949019 
L 1001.9103 -357.133549 
L 1022.1152 -354.52777 
L 1042.3201 -358.385535 
L 1062.525 -358.510516 
L 1062.525 -374.350026 
L 1062.525 -374.350026 
L 1042.3201 -374.274675 
L 1022.1152 -377.436782 
L 1001.9103 -381.799367 
L 981.7054 -377.39496 
L 961.5005 -376.43344 
L 941.2956 -372.097345 
L 921.0907 -374.42532 
L 900.8858 -373.790775 
L 880.6809 -371.995078 
L 860.476 -368.13155 
L 840.2711 -371.115813 
L 820.0662 -369.32115 
L 799.8613 -367.942609 
L 779.6564 -368.59526 
L 759.4515 -369.179095 
L 739.2466 -363.844461 
L 719.0417 -368.86468 
L 698.8368 -370.316289 
L 678.6319 -372.378287 
L 658.427 -371.317082 
L 638.2221 -366.864907 
L 618.0172 -365.282976 
L 597.8123 -364.200839 
L 577.6074 -368.22002 
L 557.4025 -368.658114 
L 537.1976 -365.200673 
L 516.9927 -368.442578 
L 496.7878 -363.845248 
L 476.5829 -365.422158 
L 456.378 -365.407631 
L 436.1731 -365.19926 
L 415.9682 -363.844529 
L 395.7633 -359.463177 
L 375.5584 -357.507714 
L 355.3535 -358.279528 
L 335.1486 -358.005615 
L 314.9437 -360.929167 
L 294.7388 -359.409558 
L 274.5339 -353.874677 
L 254.329 -350.358931 
L 234.1241 -350.750608 
L 213.9192 -346.259363 
L 193.7143 -341.854274 
L 173.5094 -345.235798 
L 153.3045 -340.341042 
L 133.0996 -339.792137 
L 112.8947 -333.694525 
L 92.6898 -337.403939 
L 72.4849 -340.370025 
L 52.28 -341.190287 
z
" style="stroke: #17becf; stroke-opacity: 0.2"/>
    </defs>
    <g clip-path="url(#p125d003cdc)">
     <use xlink:href="#me22c181105" x="0" y="432" style="fill: #17becf; fill-opacity: 0.2; stroke: #17becf; stroke-opacity: 0.2"/>
    </g>
   </g>
   <g id="PolyCollection_11">
    <defs>
     <path id="m28d6eec5af" d="M 52.28 -358.253473 
L 52.28 -334.45507 
L 72.4849 -334.653801 
L 92.6898 -340.157573 
L 112.8947 -335.37634 
L 133.0996 -339.401843 
L 153.3045 -337.690235 
L 173.5094 -342.874524 
L 193.7143 -344.142727 
L 213.9192 -338.794274 
L 234.1241 -338.537201 
L 254.329 -339.763876 
L 274.5339 -340.170073 
L 294.7388 -343.328362 
L 314.9437 -344.818571 
L 335.1486 -342.96584 
L 355.3535 -344.597529 
L 375.5584 -345.01584 
L 395.7633 -345.888882 
L 415.9682 -346.515152 
L 436.1731 -349.340732 
L 456.378 -350.985005 
L 476.5829 -349.96001 
L 496.7878 -350.589642 
L 516.9927 -350.236022 
L 537.1976 -350.98291 
L 557.4025 -349.840289 
L 577.6074 -350.946837 
L 597.8123 -350.829201 
L 618.0172 -351.101948 
L 638.2221 -349.377618 
L 658.427 -344.884598 
L 678.6319 -349.057214 
L 698.8368 -352.00887 
L 719.0417 -352.931928 
L 739.2466 -352.193998 
L 759.4515 -353.039704 
L 779.6564 -352.891829 
L 799.8613 -352.246855 
L 820.0662 -353.869996 
L 840.2711 -348.472099 
L 860.476 -344.828485 
L 880.6809 -345.511047 
L 900.8858 -351.681636 
L 921.0907 -352.376647 
L 941.2956 -358.727888 
L 961.5005 -358.704053 
L 981.7054 -354.847323 
L 1001.9103 -360.382959 
L 1022.1152 -357.933731 
L 1042.3201 -356.6054 
L 1062.525 -352.231691 
L 1062.525 -374.870661 
L 1062.525 -374.870661 
L 1042.3201 -373.576373 
L 1022.1152 -369.714294 
L 1001.9103 -371.82327 
L 981.7054 -371.92042 
L 961.5005 -372.65031 
L 941.2956 -372.311349 
L 921.0907 -371.866177 
L 900.8858 -369.988599 
L 880.6809 -365.659818 
L 860.476 -366.317791 
L 840.2711 -366.151273 
L 820.0662 -368.37635 
L 799.8613 -365.289586 
L 779.6564 -365.293932 
L 759.4515 -367.009751 
L 739.2466 -366.41379 
L 719.0417 -366.627327 
L 698.8368 -365.300875 
L 678.6319 -365.367291 
L 658.427 -364.773683 
L 638.2221 -365.696894 
L 618.0172 -367.383327 
L 597.8123 -366.889796 
L 577.6074 -366.626063 
L 557.4025 -366.072133 
L 537.1976 -366.9156 
L 516.9927 -363.925066 
L 496.7878 -367.485606 
L 476.5829 -364.203692 
L 456.378 -367.692356 
L 436.1731 -362.675075 
L 415.9682 -360.858822 
L 395.7633 -361.814605 
L 375.5584 -361.820994 
L 355.3535 -362.397093 
L 335.1486 -366.975762 
L 314.9437 -372.580123 
L 294.7388 -366.961076 
L 274.5339 -369.674289 
L 254.329 -368.710734 
L 234.1241 -367.036699 
L 213.9192 -368.413623 
L 193.7143 -363.446022 
L 173.5094 -367.44969 
L 153.3045 -364.293848 
L 133.0996 -369.675053 
L 112.8947 -373.014529 
L 92.6898 -364.32937 
L 72.4849 -356.187788 
L 52.28 -358.253473 
z
" style="stroke: #9edae5; stroke-opacity: 0.2"/>
    </defs>
    <g clip-path="url(#p125d003cdc)">
     <use xlink:href="#m28d6eec5af" x="0" y="432" style="fill: #9edae5; fill-opacity: 0.2; stroke: #9edae5; stroke-opacity: 0.2"/>
    </g>
   </g>
   <g id="matplotlib.axis_1">
    <g id="xtick_1">
     <g id="line2d_1">
      <defs>
       <path id="m321b5a7959" d="M 0 0 
L 0 3.5 
" style="stroke: #000000; stroke-width: 0.8"/>
      </defs>
      <g>
       <use xlink:href="#m321b5a7959" x="52.28" y="382.6" style="stroke: #000000; stroke-width: 0.8"/>
      </g>
     </g>
     <g id="text_1">
      <!-- 30 -->
      <g transform="translate(45.606875 398.189375) scale(0.12 -0.12)">
       <defs>
        <path id="ArialMT-33" d="M 269 1209 
L 831 1284 
Q 928 806 1161 595 
Q 1394 384 1728 384 
Q 2125 384 2398 659 
Q 2672 934 2672 1341 
Q 2672 1728 2419 1979 
Q 2166 2231 1775 2231 
Q 1616 2231 1378 2169 
L 1441 2663 
Q 1497 2656 1531 2656 
Q 1891 2656 2178 2843 
Q 2466 3031 2466 3422 
Q 2466 3731 2256 3934 
Q 2047 4138 1716 4138 
Q 1388 4138 1169 3931 
Q 950 3725 888 3313 
L 325 3413 
Q 428 3978 793 4289 
Q 1159 4600 1703 4600 
Q 2078 4600 2393 4439 
Q 2709 4278 2876 4000 
Q 3044 3722 3044 3409 
Q 3044 3113 2884 2869 
Q 2725 2625 2413 2481 
Q 2819 2388 3044 2092 
Q 3269 1797 3269 1353 
Q 3269 753 2831 336 
Q 2394 -81 1725 -81 
Q 1122 -81 723 278 
Q 325 638 269 1209 
z
" transform="scale(0.015625)"/>
        <path id="ArialMT-30" d="M 266 2259 
Q 266 3072 433 3567 
Q 600 4063 929 4331 
Q 1259 4600 1759 4600 
Q 2128 4600 2406 4451 
Q 2684 4303 2865 4023 
Q 3047 3744 3150 3342 
Q 3253 2941 3253 2259 
Q 3253 1453 3087 958 
Q 2922 463 2592 192 
Q 2263 -78 1759 -78 
Q 1097 -78 719 397 
Q 266 969 266 2259 
z
M 844 2259 
Q 844 1131 1108 757 
Q 1372 384 1759 384 
Q 2147 384 2411 759 
Q 2675 1134 2675 2259 
Q 2675 3391 2411 3762 
Q 2147 4134 1753 4134 
Q 1366 4134 1134 3806 
Q 844 3388 844 2259 
z
" transform="scale(0.015625)"/>
       </defs>
       <use xlink:href="#ArialMT-33"/>
       <use xlink:href="#ArialMT-30" x="55.615234"/>
      </g>
     </g>
    </g>
    <g id="xtick_2">
     <g id="line2d_2">
      <g>
       <use xlink:href="#m321b5a7959" x="254.329" y="382.6" style="stroke: #000000; stroke-width: 0.8"/>
      </g>
     </g>
     <g id="text_2">
      <!-- 40 -->
      <g transform="translate(247.655875 398.189375) scale(0.12 -0.12)">
       <defs>
        <path id="ArialMT-34" d="M 2069 0 
L 2069 1097 
L 81 1097 
L 81 1613 
L 2172 4581 
L 2631 4581 
L 2631 1613 
L 3250 1613 
L 3250 1097 
L 2631 1097 
L 2631 0 
L 2069 0 
z
M 2069 1613 
L 2069 3678 
L 634 1613 
L 2069 1613 
z
" transform="scale(0.015625)"/>
       </defs>
       <use xlink:href="#ArialMT-34"/>
       <use xlink:href="#ArialMT-30" x="55.615234"/>
      </g>
     </g>
    </g>
    <g id="xtick_3">
     <g id="line2d_3">
      <g>
       <use xlink:href="#m321b5a7959" x="456.378" y="382.6" style="stroke: #000000; stroke-width: 0.8"/>
      </g>
     </g>
     <g id="text_3">
      <!-- 50 -->
      <g transform="translate(449.704875 398.189375) scale(0.12 -0.12)">
       <defs>
        <path id="ArialMT-35" d="M 266 1200 
L 856 1250 
Q 922 819 1161 601 
Q 1400 384 1738 384 
Q 2144 384 2425 690 
Q 2706 997 2706 1503 
Q 2706 1984 2436 2262 
Q 2166 2541 1728 2541 
Q 1456 2541 1237 2417 
Q 1019 2294 894 2097 
L 366 2166 
L 809 4519 
L 3088 4519 
L 3088 3981 
L 1259 3981 
L 1013 2750 
Q 1425 3038 1878 3038 
Q 2478 3038 2890 2622 
Q 3303 2206 3303 1553 
Q 3303 931 2941 478 
Q 2500 -78 1738 -78 
Q 1113 -78 717 272 
Q 322 622 266 1200 
z
" transform="scale(0.015625)"/>
       </defs>
       <use xlink:href="#ArialMT-35"/>
       <use xlink:href="#ArialMT-30" x="55.615234"/>
      </g>
     </g>
    </g>
    <g id="xtick_4">
     <g id="line2d_4">
      <g>
       <use xlink:href="#m321b5a7959" x="658.427" y="382.6" style="stroke: #000000; stroke-width: 0.8"/>
      </g>
     </g>
     <g id="text_4">
      <!-- 60 -->
      <g transform="translate(651.753875 398.189375) scale(0.12 -0.12)">
       <defs>
        <path id="ArialMT-36" d="M 3184 3459 
L 2625 3416 
Q 2550 3747 2413 3897 
Q 2184 4138 1850 4138 
Q 1581 4138 1378 3988 
Q 1113 3794 959 3422 
Q 806 3050 800 2363 
Q 1003 2672 1297 2822 
Q 1591 2972 1913 2972 
Q 2475 2972 2870 2558 
Q 3266 2144 3266 1488 
Q 3266 1056 3080 686 
Q 2894 316 2569 119 
Q 2244 -78 1831 -78 
Q 1128 -78 684 439 
Q 241 956 241 2144 
Q 241 3472 731 4075 
Q 1159 4600 1884 4600 
Q 2425 4600 2770 4297 
Q 3116 3994 3184 3459 
z
M 888 1484 
Q 888 1194 1011 928 
Q 1134 663 1356 523 
Q 1578 384 1822 384 
Q 2178 384 2434 671 
Q 2691 959 2691 1453 
Q 2691 1928 2437 2201 
Q 2184 2475 1800 2475 
Q 1419 2475 1153 2201 
Q 888 1928 888 1484 
z
" transform="scale(0.015625)"/>
       </defs>
       <use xlink:href="#ArialMT-36"/>
       <use xlink:href="#ArialMT-30" x="55.615234"/>
      </g>
     </g>
    </g>
    <g id="xtick_5">
     <g id="line2d_5">
      <g>
       <use xlink:href="#m321b5a7959" x="860.476" y="382.6" style="stroke: #000000; stroke-width: 0.8"/>
      </g>
     </g>
     <g id="text_5">
      <!-- 70 -->
      <g transform="translate(853.802875 398.189375) scale(0.12 -0.12)">
       <defs>
        <path id="ArialMT-37" d="M 303 3981 
L 303 4522 
L 3269 4522 
L 3269 4084 
Q 2831 3619 2401 2847 
Q 1972 2075 1738 1259 
Q 1569 684 1522 0 
L 944 0 
Q 953 541 1156 1306 
Q 1359 2072 1739 2783 
Q 2119 3494 2547 3981 
L 303 3981 
z
" transform="scale(0.015625)"/>
       </defs>
       <use xlink:href="#ArialMT-37"/>
       <use xlink:href="#ArialMT-30" x="55.615234"/>
      </g>
     </g>
    </g>
    <g id="xtick_6">
     <g id="line2d_6">
      <g>
       <use xlink:href="#m321b5a7959" x="1062.525" y="382.6" style="stroke: #000000; stroke-width: 0.8"/>
      </g>
     </g>
     <g id="text_6">
      <!-- 80 -->
      <g transform="translate(1055.851875 398.189375) scale(0.12 -0.12)">
       <defs>
        <path id="ArialMT-38" d="M 1131 2484 
Q 781 2613 612 2850 
Q 444 3088 444 3419 
Q 444 3919 803 4259 
Q 1163 4600 1759 4600 
Q 2359 4600 2725 4251 
Q 3091 3903 3091 3403 
Q 3091 3084 2923 2848 
Q 2756 2613 2416 2484 
Q 2838 2347 3058 2040 
Q 3278 1734 3278 1309 
Q 3278 722 2862 322 
Q 2447 -78 1769 -78 
Q 1091 -78 675 323 
Q 259 725 259 1325 
Q 259 1772 486 2073 
Q 713 2375 1131 2484 
z
M 1019 3438 
Q 1019 3113 1228 2906 
Q 1438 2700 1772 2700 
Q 2097 2700 2305 2904 
Q 2513 3109 2513 3406 
Q 2513 3716 2298 3927 
Q 2084 4138 1766 4138 
Q 1444 4138 1231 3931 
Q 1019 3725 1019 3438 
z
M 838 1322 
Q 838 1081 952 856 
Q 1066 631 1291 507 
Q 1516 384 1775 384 
Q 2178 384 2440 643 
Q 2703 903 2703 1303 
Q 2703 1709 2433 1975 
Q 2163 2241 1756 2241 
Q 1359 2241 1098 1978 
Q 838 1716 838 1322 
z
" transform="scale(0.015625)"/>
       </defs>
       <use xlink:href="#ArialMT-38"/>
       <use xlink:href="#ArialMT-30" x="55.615234"/>
      </g>
     </g>
    </g>
    <g id="text_7">
     <!-- Number of baits -->
     <g transform="translate(493.879375 417.458438) scale(0.18 -0.18)">
      <defs>
       <path id="ArialMT-4e" d="M 488 0 
L 488 4581 
L 1109 4581 
L 3516 984 
L 3516 4581 
L 4097 4581 
L 4097 0 
L 3475 0 
L 1069 3600 
L 1069 0 
L 488 0 
z
" transform="scale(0.015625)"/>
       <path id="ArialMT-75" d="M 2597 0 
L 2597 488 
Q 2209 -75 1544 -75 
Q 1250 -75 995 37 
Q 741 150 617 320 
Q 494 491 444 738 
Q 409 903 409 1263 
L 409 3319 
L 972 3319 
L 972 1478 
Q 972 1038 1006 884 
Q 1059 663 1231 536 
Q 1403 409 1656 409 
Q 1909 409 2131 539 
Q 2353 669 2445 892 
Q 2538 1116 2538 1541 
L 2538 3319 
L 3100 3319 
L 3100 0 
L 2597 0 
z
" transform="scale(0.015625)"/>
       <path id="ArialMT-6d" d="M 422 0 
L 422 3319 
L 925 3319 
L 925 2853 
Q 1081 3097 1340 3245 
Q 1600 3394 1931 3394 
Q 2300 3394 2536 3241 
Q 2772 3088 2869 2813 
Q 3263 3394 3894 3394 
Q 4388 3394 4653 3120 
Q 4919 2847 4919 2278 
L 4919 0 
L 4359 0 
L 4359 2091 
Q 4359 2428 4304 2576 
Q 4250 2725 4106 2815 
Q 3963 2906 3769 2906 
Q 3419 2906 3187 2673 
Q 2956 2441 2956 1928 
L 2956 0 
L 2394 0 
L 2394 2156 
Q 2394 2531 2256 2718 
Q 2119 2906 1806 2906 
Q 1569 2906 1367 2781 
Q 1166 2656 1075 2415 
Q 984 2175 984 1722 
L 984 0 
L 422 0 
z
" transform="scale(0.015625)"/>
       <path id="ArialMT-62" d="M 941 0 
L 419 0 
L 419 4581 
L 981 4581 
L 981 2947 
Q 1338 3394 1891 3394 
Q 2197 3394 2470 3270 
Q 2744 3147 2920 2923 
Q 3097 2700 3197 2384 
Q 3297 2069 3297 1709 
Q 3297 856 2875 390 
Q 2453 -75 1863 -75 
Q 1275 -75 941 416 
L 941 0 
z
M 934 1684 
Q 934 1088 1097 822 
Q 1363 388 1816 388 
Q 2184 388 2453 708 
Q 2722 1028 2722 1663 
Q 2722 2313 2464 2622 
Q 2206 2931 1841 2931 
Q 1472 2931 1203 2611 
Q 934 2291 934 1684 
z
" transform="scale(0.015625)"/>
       <path id="ArialMT-65" d="M 2694 1069 
L 3275 997 
Q 3138 488 2766 206 
Q 2394 -75 1816 -75 
Q 1088 -75 661 373 
Q 234 822 234 1631 
Q 234 2469 665 2931 
Q 1097 3394 1784 3394 
Q 2450 3394 2872 2941 
Q 3294 2488 3294 1666 
Q 3294 1616 3291 1516 
L 816 1516 
Q 847 969 1125 678 
Q 1403 388 1819 388 
Q 2128 388 2347 550 
Q 2566 713 2694 1069 
z
M 847 1978 
L 2700 1978 
Q 2663 2397 2488 2606 
Q 2219 2931 1791 2931 
Q 1403 2931 1139 2672 
Q 875 2413 847 1978 
z
" transform="scale(0.015625)"/>
       <path id="ArialMT-72" d="M 416 0 
L 416 3319 
L 922 3319 
L 922 2816 
Q 1116 3169 1280 3281 
Q 1444 3394 1641 3394 
Q 1925 3394 2219 3213 
L 2025 2691 
Q 1819 2813 1613 2813 
Q 1428 2813 1281 2702 
Q 1134 2591 1072 2394 
Q 978 2094 978 1738 
L 978 0 
L 416 0 
z
" transform="scale(0.015625)"/>
       <path id="ArialMT-20" transform="scale(0.015625)"/>
       <path id="ArialMT-6f" d="M 213 1659 
Q 213 2581 725 3025 
Q 1153 3394 1769 3394 
Q 2453 3394 2887 2945 
Q 3322 2497 3322 1706 
Q 3322 1066 3130 698 
Q 2938 331 2570 128 
Q 2203 -75 1769 -75 
Q 1072 -75 642 372 
Q 213 819 213 1659 
z
M 791 1659 
Q 791 1022 1069 705 
Q 1347 388 1769 388 
Q 2188 388 2466 706 
Q 2744 1025 2744 1678 
Q 2744 2294 2464 2611 
Q 2184 2928 1769 2928 
Q 1347 2928 1069 2612 
Q 791 2297 791 1659 
z
" transform="scale(0.015625)"/>
       <path id="ArialMT-66" d="M 556 0 
L 556 2881 
L 59 2881 
L 59 3319 
L 556 3319 
L 556 3672 
Q 556 4006 616 4169 
Q 697 4388 901 4523 
Q 1106 4659 1475 4659 
Q 1713 4659 2000 4603 
L 1916 4113 
Q 1741 4144 1584 4144 
Q 1328 4144 1222 4034 
Q 1116 3925 1116 3625 
L 1116 3319 
L 1763 3319 
L 1763 2881 
L 1116 2881 
L 1116 0 
L 556 0 
z
" transform="scale(0.015625)"/>
       <path id="ArialMT-61" d="M 2588 409 
Q 2275 144 1986 34 
Q 1697 -75 1366 -75 
Q 819 -75 525 192 
Q 231 459 231 875 
Q 231 1119 342 1320 
Q 453 1522 633 1644 
Q 813 1766 1038 1828 
Q 1203 1872 1538 1913 
Q 2219 1994 2541 2106 
Q 2544 2222 2544 2253 
Q 2544 2597 2384 2738 
Q 2169 2928 1744 2928 
Q 1347 2928 1158 2789 
Q 969 2650 878 2297 
L 328 2372 
Q 403 2725 575 2942 
Q 747 3159 1072 3276 
Q 1397 3394 1825 3394 
Q 2250 3394 2515 3294 
Q 2781 3194 2906 3042 
Q 3031 2891 3081 2659 
Q 3109 2516 3109 2141 
L 3109 1391 
Q 3109 606 3145 398 
Q 3181 191 3288 0 
L 2700 0 
Q 2613 175 2588 409 
z
M 2541 1666 
Q 2234 1541 1622 1453 
Q 1275 1403 1131 1340 
Q 988 1278 909 1158 
Q 831 1038 831 891 
Q 831 666 1001 516 
Q 1172 366 1500 366 
Q 1825 366 2078 508 
Q 2331 650 2450 897 
Q 2541 1088 2541 1459 
L 2541 1666 
z
" transform="scale(0.015625)"/>
       <path id="ArialMT-69" d="M 425 3934 
L 425 4581 
L 988 4581 
L 988 3934 
L 425 3934 
z
M 425 0 
L 425 3319 
L 988 3319 
L 988 0 
L 425 0 
z
" transform="scale(0.015625)"/>
       <path id="ArialMT-74" d="M 1650 503 
L 1731 6 
Q 1494 -44 1306 -44 
Q 1000 -44 831 53 
Q 663 150 594 308 
Q 525 466 525 972 
L 525 2881 
L 113 2881 
L 113 3319 
L 525 3319 
L 525 4141 
L 1084 4478 
L 1084 3319 
L 1650 3319 
L 1650 2881 
L 1084 2881 
L 1084 941 
Q 1084 700 1114 631 
Q 1144 563 1211 522 
Q 1278 481 1403 481 
Q 1497 481 1650 503 
z
" transform="scale(0.015625)"/>
       <path id="ArialMT-73" d="M 197 991 
L 753 1078 
Q 800 744 1014 566 
Q 1228 388 1613 388 
Q 2000 388 2187 545 
Q 2375 703 2375 916 
Q 2375 1106 2209 1216 
Q 2094 1291 1634 1406 
Q 1016 1563 777 1677 
Q 538 1791 414 1992 
Q 291 2194 291 2438 
Q 291 2659 392 2848 
Q 494 3038 669 3163 
Q 800 3259 1026 3326 
Q 1253 3394 1513 3394 
Q 1903 3394 2198 3281 
Q 2494 3169 2634 2976 
Q 2775 2784 2828 2463 
L 2278 2388 
Q 2241 2644 2061 2787 
Q 1881 2931 1553 2931 
Q 1166 2931 1000 2803 
Q 834 2675 834 2503 
Q 834 2394 903 2306 
Q 972 2216 1119 2156 
Q 1203 2125 1616 2013 
Q 2213 1853 2448 1751 
Q 2684 1650 2818 1456 
Q 2953 1263 2953 975 
Q 2953 694 2789 445 
Q 2625 197 2315 61 
Q 2006 -75 1616 -75 
Q 969 -75 630 194 
Q 291 463 197 991 
z
" transform="scale(0.015625)"/>
      </defs>
      <use xlink:href="#ArialMT-4e"/>
      <use xlink:href="#ArialMT-75" x="72.216797"/>
      <use xlink:href="#ArialMT-6d" x="127.832031"/>
      <use xlink:href="#ArialMT-62" x="211.132812"/>
      <use xlink:href="#ArialMT-65" x="266.748047"/>
      <use xlink:href="#ArialMT-72" x="322.363281"/>
      <use xlink:href="#ArialMT-20" x="355.664062"/>
      <use xlink:href="#ArialMT-6f" x="383.447266"/>
      <use xlink:href="#ArialMT-66" x="439.0625"/>
      <use xlink:href="#ArialMT-20" x="466.845703"/>
      <use xlink:href="#ArialMT-62" x="494.628906"/>
      <use xlink:href="#ArialMT-61" x="550.244141"/>
      <use xlink:href="#ArialMT-69" x="605.859375"/>
      <use xlink:href="#ArialMT-74" x="628.076172"/>
      <use xlink:href="#ArialMT-73" x="655.859375"/>
     </g>
    </g>
   </g>
   <g id="matplotlib.axis_2">
    <g id="ytick_1">
     <g id="line2d_7">
      <defs>
       <path id="m62e35910fc" d="M 0 0 
L -3.5 0 
" style="stroke: #000000; stroke-width: 0.8"/>
      </defs>
      <g>
       <use xlink:href="#m62e35910fc" x="52.28" y="382.6" style="stroke: #000000; stroke-width: 0.8"/>
      </g>
     </g>
     <g id="text_8">
      <!-- 0.0 -->
      <g transform="translate(31.38 386.178906) scale(0.1 -0.1)">
       <defs>
        <path id="ArialMT-2e" d="M 581 0 
L 581 641 
L 1222 641 
L 1222 0 
L 581 0 
z
" transform="scale(0.015625)"/>
       </defs>
       <use xlink:href="#ArialMT-30"/>
       <use xlink:href="#ArialMT-2e" x="55.615234"/>
       <use xlink:href="#ArialMT-30" x="83.398438"/>
      </g>
     </g>
    </g>
    <g id="ytick_2">
     <g id="line2d_8">
      <g>
       <use xlink:href="#m62e35910fc" x="52.28" y="311.744" style="stroke: #000000; stroke-width: 0.8"/>
      </g>
     </g>
     <g id="text_9">
      <!-- 0.2 -->
      <g transform="translate(31.38 315.322906) scale(0.1 -0.1)">
       <defs>
        <path id="ArialMT-32" d="M 3222 541 
L 3222 0 
L 194 0 
Q 188 203 259 391 
Q 375 700 629 1000 
Q 884 1300 1366 1694 
Q 2113 2306 2375 2664 
Q 2638 3022 2638 3341 
Q 2638 3675 2398 3904 
Q 2159 4134 1775 4134 
Q 1369 4134 1125 3890 
Q 881 3647 878 3216 
L 300 3275 
Q 359 3922 746 4261 
Q 1134 4600 1788 4600 
Q 2447 4600 2831 4234 
Q 3216 3869 3216 3328 
Q 3216 3053 3103 2787 
Q 2991 2522 2730 2228 
Q 2469 1934 1863 1422 
Q 1356 997 1212 845 
Q 1069 694 975 541 
L 3222 541 
z
" transform="scale(0.015625)"/>
       </defs>
       <use xlink:href="#ArialMT-30"/>
       <use xlink:href="#ArialMT-2e" x="55.615234"/>
       <use xlink:href="#ArialMT-32" x="83.398438"/>
      </g>
     </g>
    </g>
    <g id="ytick_3">
     <g id="line2d_9">
      <g>
       <use xlink:href="#m62e35910fc" x="52.28" y="240.888" style="stroke: #000000; stroke-width: 0.8"/>
      </g>
     </g>
     <g id="text_10">
      <!-- 0.4 -->
      <g transform="translate(31.38 244.466906) scale(0.1 -0.1)">
       <use xlink:href="#ArialMT-30"/>
       <use xlink:href="#ArialMT-2e" x="55.615234"/>
       <use xlink:href="#ArialMT-34" x="83.398438"/>
      </g>
     </g>
    </g>
    <g id="ytick_4">
     <g id="line2d_10">
      <g>
       <use xlink:href="#m62e35910fc" x="52.28" y="170.032" style="stroke: #000000; stroke-width: 0.8"/>
      </g>
     </g>
     <g id="text_11">
      <!-- 0.6 -->
      <g transform="translate(31.38 173.610906) scale(0.1 -0.1)">
       <use xlink:href="#ArialMT-30"/>
       <use xlink:href="#ArialMT-2e" x="55.615234"/>
       <use xlink:href="#ArialMT-36" x="83.398438"/>
      </g>
     </g>
    </g>
    <g id="ytick_5">
     <g id="line2d_11">
      <g>
       <use xlink:href="#m62e35910fc" x="52.28" y="99.176" style="stroke: #000000; stroke-width: 0.8"/>
      </g>
     </g>
     <g id="text_12">
      <!-- 0.8 -->
      <g transform="translate(31.38 102.754906) scale(0.1 -0.1)">
       <use xlink:href="#ArialMT-30"/>
       <use xlink:href="#ArialMT-2e" x="55.615234"/>
       <use xlink:href="#ArialMT-38" x="83.398438"/>
      </g>
     </g>
    </g>
    <g id="ytick_6">
     <g id="line2d_12">
      <g>
       <use xlink:href="#m62e35910fc" x="52.28" y="28.32" style="stroke: #000000; stroke-width: 0.8"/>
      </g>
     </g>
     <g id="text_13">
      <!-- 1.0 -->
      <g transform="translate(31.38 31.898906) scale(0.1 -0.1)">
       <defs>
        <path id="ArialMT-31" d="M 2384 0 
L 1822 0 
L 1822 3584 
Q 1619 3391 1289 3197 
Q 959 3003 697 2906 
L 697 3450 
Q 1169 3672 1522 3987 
Q 1875 4303 2022 4600 
L 2384 4600 
L 2384 0 
z
" transform="scale(0.015625)"/>
       </defs>
       <use xlink:href="#ArialMT-31"/>
       <use xlink:href="#ArialMT-2e" x="55.615234"/>
       <use xlink:href="#ArialMT-30" x="83.398438"/>
      </g>
     </g>
    </g>
    <g id="text_14">
     <!-- NMF mean Pearson correlation score -->
     <g transform="translate(23.8025 355.009063) rotate(-90) scale(0.18 -0.18)">
      <defs>
       <path id="ArialMT-4d" d="M 475 0 
L 475 4581 
L 1388 4581 
L 2472 1338 
Q 2622 884 2691 659 
Q 2769 909 2934 1394 
L 4031 4581 
L 4847 4581 
L 4847 0 
L 4263 0 
L 4263 3834 
L 2931 0 
L 2384 0 
L 1059 3900 
L 1059 0 
L 475 0 
z
" transform="scale(0.015625)"/>
       <path id="ArialMT-46" d="M 525 0 
L 525 4581 
L 3616 4581 
L 3616 4041 
L 1131 4041 
L 1131 2622 
L 3281 2622 
L 3281 2081 
L 1131 2081 
L 1131 0 
L 525 0 
z
" transform="scale(0.015625)"/>
       <path id="ArialMT-6e" d="M 422 0 
L 422 3319 
L 928 3319 
L 928 2847 
Q 1294 3394 1984 3394 
Q 2284 3394 2536 3286 
Q 2788 3178 2913 3003 
Q 3038 2828 3088 2588 
Q 3119 2431 3119 2041 
L 3119 0 
L 2556 0 
L 2556 2019 
Q 2556 2363 2490 2533 
Q 2425 2703 2258 2804 
Q 2091 2906 1866 2906 
Q 1506 2906 1245 2678 
Q 984 2450 984 1813 
L 984 0 
L 422 0 
z
" transform="scale(0.015625)"/>
       <path id="ArialMT-50" d="M 494 0 
L 494 4581 
L 2222 4581 
Q 2678 4581 2919 4538 
Q 3256 4481 3484 4323 
Q 3713 4166 3852 3881 
Q 3991 3597 3991 3256 
Q 3991 2672 3619 2267 
Q 3247 1863 2275 1863 
L 1100 1863 
L 1100 0 
L 494 0 
z
M 1100 2403 
L 2284 2403 
Q 2872 2403 3119 2622 
Q 3366 2841 3366 3238 
Q 3366 3525 3220 3729 
Q 3075 3934 2838 4000 
Q 2684 4041 2272 4041 
L 1100 4041 
L 1100 2403 
z
" transform="scale(0.015625)"/>
       <path id="ArialMT-63" d="M 2588 1216 
L 3141 1144 
Q 3050 572 2676 248 
Q 2303 -75 1759 -75 
Q 1078 -75 664 370 
Q 250 816 250 1647 
Q 250 2184 428 2587 
Q 606 2991 970 3192 
Q 1334 3394 1763 3394 
Q 2303 3394 2647 3120 
Q 2991 2847 3088 2344 
L 2541 2259 
Q 2463 2594 2264 2762 
Q 2066 2931 1784 2931 
Q 1359 2931 1093 2626 
Q 828 2322 828 1663 
Q 828 994 1084 691 
Q 1341 388 1753 388 
Q 2084 388 2306 591 
Q 2528 794 2588 1216 
z
" transform="scale(0.015625)"/>
       <path id="ArialMT-6c" d="M 409 0 
L 409 4581 
L 972 4581 
L 972 0 
L 409 0 
z
" transform="scale(0.015625)"/>
      </defs>
      <use xlink:href="#ArialMT-4e"/>
      <use xlink:href="#ArialMT-4d" x="72.216797"/>
      <use xlink:href="#ArialMT-46" x="155.517578"/>
      <use xlink:href="#ArialMT-20" x="216.601562"/>
      <use xlink:href="#ArialMT-6d" x="244.384766"/>
      <use xlink:href="#ArialMT-65" x="327.685547"/>
      <use xlink:href="#ArialMT-61" x="383.300781"/>
      <use xlink:href="#ArialMT-6e" x="438.916016"/>
      <use xlink:href="#ArialMT-20" x="494.53125"/>
      <use xlink:href="#ArialMT-50" x="522.314453"/>
      <use xlink:href="#ArialMT-65" x="589.013672"/>
      <use xlink:href="#ArialMT-61" x="644.628906"/>
      <use xlink:href="#ArialMT-72" x="700.244141"/>
      <use xlink:href="#ArialMT-73" x="733.544922"/>
      <use xlink:href="#ArialMT-6f" x="783.544922"/>
      <use xlink:href="#ArialMT-6e" x="839.160156"/>
      <use xlink:href="#ArialMT-20" x="894.775391"/>
      <use xlink:href="#ArialMT-63" x="922.558594"/>
      <use xlink:href="#ArialMT-6f" x="972.558594"/>
      <use xlink:href="#ArialMT-72" x="1028.173828"/>
      <use xlink:href="#ArialMT-72" x="1061.474609"/>
      <use xlink:href="#ArialMT-65" x="1094.775391"/>
      <use xlink:href="#ArialMT-6c" x="1150.390625"/>
      <use xlink:href="#ArialMT-61" x="1172.607422"/>
      <use xlink:href="#ArialMT-74" x="1228.222656"/>
      <use xlink:href="#ArialMT-69" x="1256.005859"/>
      <use xlink:href="#ArialMT-6f" x="1278.222656"/>
      <use xlink:href="#ArialMT-6e" x="1333.837891"/>
      <use xlink:href="#ArialMT-20" x="1389.453125"/>
      <use xlink:href="#ArialMT-73" x="1417.236328"/>
      <use xlink:href="#ArialMT-63" x="1467.236328"/>
      <use xlink:href="#ArialMT-6f" x="1517.236328"/>
      <use xlink:href="#ArialMT-72" x="1572.851562"/>
      <use xlink:href="#ArialMT-65" x="1606.152344"/>
     </g>
    </g>
   </g>
   <g id="line2d_13">
    <path d="M 52.28 68.446794 
L 72.4849 64.653082 
L 92.6898 60.244964 
L 112.8947 60.426279 
L 133.0996 54.470238 
L 153.3045 53.939302 
L 173.5094 55.308316 
L 193.7143 53.197224 
L 213.9192 50.724417 
L 234.1241 50.213944 
L 254.329 50.06576 
L 274.5339 48.668892 
L 294.7388 47.444886 
L 314.9437 46.836792 
L 335.1486 47.188179 
L 355.3535 45.398425 
L 375.5584 45.53678 
L 395.7633 45.352975 
L 415.9682 44.909904 
L 436.1731 43.187522 
L 456.378 42.678632 
L 476.5829 43.161519 
L 496.7878 43.7599 
L 516.9927 42.131943 
L 537.1976 41.571802 
L 557.4025 41.551758 
L 577.6074 41.468182 
L 597.8123 41.231992 
L 618.0172 40.928406 
L 638.2221 39.690977 
L 658.427 39.960879 
L 678.6319 40.1131 
L 698.8368 39.000075 
L 719.0417 39.171748 
L 739.2466 38.810451 
L 759.4515 37.529363 
L 779.6564 37.520439 
L 799.8613 37.557362 
L 820.0662 37.11155 
L 840.2711 36.645643 
L 860.476 37.229326 
L 880.6809 36.55592 
L 900.8858 36.211864 
L 921.0907 35.66728 
L 941.2956 35.798775 
L 961.5005 35.749914 
L 981.7054 35.704467 
L 1001.9103 35.188312 
L 1022.1152 34.942765 
L 1042.3201 35.472919 
L 1062.525 34.938448 
" clip-path="url(#p125d003cdc)" style="fill: none; stroke: #1f77b4; stroke-width: 0.8; stroke-linecap: square"/>
   </g>
   <g id="line2d_14">
    <path d="M 52.28 220.992581 
L 72.4849 221.297849 
L 92.6898 209.37351 
L 112.8947 206.050567 
L 133.0996 201.685981 
L 153.3045 199.969695 
L 173.5094 192.814198 
L 193.7143 207.434904 
L 213.9192 184.273193 
L 234.1241 194.694171 
L 254.329 207.432589 
L 274.5339 194.584196 
L 294.7388 176.117585 
L 314.9437 190.399606 
L 335.1486 186.895161 
L 355.3535 177.246196 
L 375.5584 183.607693 
L 395.7633 183.633205 
L 415.9682 183.208276 
L 436.1731 173.695369 
L 456.378 171.890652 
L 476.5829 181.244432 
L 496.7878 159.675091 
L 516.9927 179.150225 
L 537.1976 170.503904 
L 557.4025 154.287029 
L 577.6074 166.164822 
L 597.8123 166.785943 
L 618.0172 171.35248 
L 638.2221 147.540245 
L 658.427 165.625445 
L 678.6319 158.216563 
L 698.8368 145.808319 
L 719.0417 141.142301 
L 739.2466 155.468373 
L 759.4515 151.098039 
L 779.6564 152.828173 
L 799.8613 150.006724 
L 820.0662 139.110076 
L 840.2711 141.907662 
L 860.476 143.044973 
L 880.6809 155.093572 
L 900.8858 141.499264 
L 921.0907 150.076872 
L 941.2956 138.963549 
L 961.5005 141.748078 
L 981.7054 138.924112 
L 1001.9103 135.063486 
L 1022.1152 150.399515 
L 1042.3201 131.751614 
L 1062.525 136.437204 
" clip-path="url(#p125d003cdc)" style="fill: none; stroke: #ff7f0e; stroke-width: 0.8; stroke-linecap: square"/>
   </g>
   <g id="line2d_15">
    <path d="M 52.28 111.507617 
L 72.4849 110.454446 
L 92.6898 106.496745 
L 112.8947 105.484552 
L 133.0996 101.441637 
L 153.3045 100.625958 
L 173.5094 98.614165 
L 193.7143 97.826725 
L 213.9192 96.529927 
L 234.1241 96.006117 
L 254.329 96.684017 
L 274.5339 96.893907 
L 294.7388 94.793755 
L 314.9437 92.825137 
L 335.1486 93.875169 
L 355.3535 90.753432 
L 375.5584 88.63034 
L 395.7633 85.317915 
L 415.9682 87.117971 
L 436.1731 88.320144 
L 456.378 82.431892 
L 476.5829 82.038975 
L 496.7878 77.89596 
L 516.9927 75.711401 
L 537.1976 75.127526 
L 557.4025 74.729325 
L 577.6074 73.727566 
L 597.8123 74.970975 
L 618.0172 74.770077 
L 638.2221 74.681396 
L 658.427 74.351441 
L 678.6319 71.515329 
L 698.8368 72.186966 
L 719.0417 73.707278 
L 739.2466 71.845611 
L 759.4515 71.599166 
L 779.6564 71.363864 
L 799.8613 70.905569 
L 820.0662 70.748445 
L 840.2711 70.931123 
L 860.476 68.66358 
L 880.6809 67.492765 
L 900.8858 67.34128 
L 921.0907 67.181192 
L 941.2956 66.51609 
L 961.5005 67.54318 
L 981.7054 65.901096 
L 1001.9103 65.782326 
L 1022.1152 65.492917 
L 1042.3201 65.388026 
L 1062.525 67.435347 
" clip-path="url(#p125d003cdc)" style="fill: none; stroke: #2ca02c; stroke-width: 0.8; stroke-linecap: square"/>
   </g>
   <g id="line2d_16">
    <path d="M 52.28 147.523552 
L 72.4849 145.747613 
L 92.6898 143.884223 
L 112.8947 142.029992 
L 133.0996 138.868545 
L 153.3045 133.127748 
L 173.5094 131.651904 
L 193.7143 130.697716 
L 213.9192 131.596028 
L 234.1241 126.841738 
L 254.329 127.738892 
L 274.5339 123.360226 
L 294.7388 123.986674 
L 314.9437 123.722519 
L 335.1486 123.228815 
L 355.3535 123.458219 
L 375.5584 118.807574 
L 395.7633 116.362193 
L 415.9682 116.818705 
L 436.1731 116.019681 
L 456.378 117.487285 
L 476.5829 117.404019 
L 496.7878 110.418963 
L 516.9927 104.939687 
L 537.1976 102.74872 
L 557.4025 104.209217 
L 577.6074 101.777258 
L 597.8123 99.383 
L 618.0172 99.475373 
L 638.2221 99.452522 
L 658.427 98.234777 
L 678.6319 98.175289 
L 698.8368 97.046328 
L 719.0417 94.923045 
L 739.2466 93.713043 
L 759.4515 93.938286 
L 779.6564 87.942014 
L 799.8613 87.546963 
L 820.0662 87.203409 
L 840.2711 87.177834 
L 860.476 84.991993 
L 880.6809 83.811239 
L 900.8858 81.75589 
L 921.0907 80.466183 
L 941.2956 78.003471 
L 961.5005 77.130498 
L 981.7054 76.417987 
L 1001.9103 73.011872 
L 1022.1152 70.977876 
L 1042.3201 70.612134 
L 1062.525 69.7462 
" clip-path="url(#p125d003cdc)" style="fill: none; stroke: #d62728; stroke-width: 0.8; stroke-linecap: square"/>
   </g>
   <g id="line2d_17">
    <path d="M 52.28 112.940659 
L 72.4849 109.298595 
L 92.6898 107.157796 
L 112.8947 105.700461 
L 133.0996 105.089869 
L 153.3045 103.82477 
L 173.5094 102.160754 
L 193.7143 99.622223 
L 213.9192 99.417424 
L 234.1241 98.71681 
L 254.329 97.984158 
L 274.5339 97.886545 
L 294.7388 97.639105 
L 314.9437 97.31265 
L 335.1486 90.221161 
L 355.3535 87.343664 
L 375.5584 86.804014 
L 395.7633 84.598549 
L 415.9682 84.191666 
L 436.1731 82.959186 
L 456.378 82.741722 
L 476.5829 81.063625 
L 496.7878 77.500934 
L 516.9927 77.157471 
L 537.1976 78.51214 
L 557.4025 76.689115 
L 577.6074 75.706468 
L 597.8123 71.674147 
L 618.0172 71.507284 
L 638.2221 72.935813 
L 658.427 72.308688 
L 678.6319 72.001408 
L 698.8368 73.028358 
L 719.0417 72.592294 
L 739.2466 69.855847 
L 759.4515 70.914545 
L 779.6564 69.10193 
L 799.8613 68.777894 
L 820.0662 69.965712 
L 840.2711 68.025726 
L 860.476 67.78359 
L 880.6809 66.784927 
L 900.8858 67.8784 
L 921.0907 67.369852 
L 941.2956 67.29631 
L 961.5005 66.22708 
L 981.7054 68.163639 
L 1001.9103 65.845275 
L 1022.1152 65.638943 
L 1042.3201 65.525118 
L 1062.525 65.444806 
" clip-path="url(#p125d003cdc)" style="fill: none; stroke: #9467bd; stroke-width: 0.8; stroke-linecap: square"/>
   </g>
   <g id="line2d_18">
    <path d="M 52.28 110.342701 
L 72.4849 108.927098 
L 92.6898 106.243346 
L 112.8947 102.108725 
L 133.0996 99.713609 
L 153.3045 99.220045 
L 173.5094 97.442266 
L 193.7143 96.985615 
L 213.9192 96.484311 
L 234.1241 95.208644 
L 254.329 94.561211 
L 274.5339 94.209794 
L 294.7388 93.513654 
L 314.9437 93.519645 
L 335.1486 92.58698 
L 355.3535 92.797628 
L 375.5584 92.226851 
L 395.7633 92.249816 
L 415.9682 92.001101 
L 436.1731 92.505924 
L 456.378 91.555851 
L 476.5829 90.392007 
L 496.7878 89.861151 
L 516.9927 89.541976 
L 537.1976 89.313173 
L 557.4025 89.101629 
L 577.6074 88.775507 
L 597.8123 90.585082 
L 618.0172 91.18141 
L 638.2221 89.388335 
L 658.427 88.259683 
L 678.6319 88.43207 
L 698.8368 87.075983 
L 719.0417 84.177493 
L 739.2466 85.331309 
L 759.4515 85.065501 
L 779.6564 85.069137 
L 799.8613 81.42103 
L 820.0662 79.013548 
L 840.2711 80.939948 
L 860.476 80.352237 
L 880.6809 79.647489 
L 900.8858 79.375997 
L 921.0907 79.184694 
L 941.2956 76.899689 
L 961.5005 75.457608 
L 981.7054 72.394444 
L 1001.9103 72.396793 
L 1022.1152 71.987359 
L 1042.3201 70.414562 
L 1062.525 71.596499 
" clip-path="url(#p125d003cdc)" style="fill: none; stroke: #8c564b; stroke-width: 0.8; stroke-linecap: square"/>
   </g>
   <g id="line2d_19">
    <path d="M 52.28 113.240091 
L 72.4849 110.058227 
L 92.6898 107.536598 
L 112.8947 105.567409 
L 133.0996 103.876224 
L 153.3045 103.516522 
L 173.5094 101.691991 
L 193.7143 101.223981 
L 213.9192 101.04246 
L 234.1241 101.130086 
L 254.329 100.615707 
L 274.5339 99.110658 
L 294.7388 100.982572 
L 314.9437 101.405601 
L 335.1486 98.312143 
L 355.3535 96.121876 
L 375.5584 96.173044 
L 395.7633 96.250611 
L 415.9682 97.238158 
L 436.1731 96.810976 
L 456.378 93.542655 
L 476.5829 91.348964 
L 496.7878 91.970086 
L 516.9927 89.805099 
L 537.1976 86.879857 
L 557.4025 84.63386 
L 577.6074 84.456284 
L 597.8123 85.123908 
L 618.0172 84.254693 
L 638.2221 80.274892 
L 658.427 81.161987 
L 678.6319 78.975928 
L 698.8368 76.266133 
L 719.0417 78.421939 
L 739.2466 80.092634 
L 759.4515 79.639857 
L 779.6564 76.567477 
L 799.8613 74.267532 
L 820.0662 75.083145 
L 840.2711 73.382646 
L 860.476 77.574261 
L 880.6809 77.489153 
L 900.8858 76.02393 
L 921.0907 75.620122 
L 941.2956 74.506088 
L 961.5005 69.414635 
L 981.7054 68.580073 
L 1001.9103 68.471208 
L 1022.1152 72.289572 
L 1042.3201 69.437937 
L 1062.525 69.736976 
" clip-path="url(#p125d003cdc)" style="fill: none; stroke: #e377c2; stroke-width: 0.8; stroke-linecap: square"/>
   </g>
   <g id="line2d_20">
    <path d="M 52.28 108.654916 
L 72.4849 105.524615 
L 92.6898 104.351633 
L 112.8947 102.229704 
L 133.0996 101.03705 
L 153.3045 101.517423 
L 173.5094 101.793093 
L 193.7143 100.5738 
L 213.9192 99.2842 
L 234.1241 98.49692 
L 254.329 97.335824 
L 274.5339 96.730189 
L 294.7388 95.790191 
L 314.9437 95.713564 
L 335.1486 94.639008 
L 355.3535 94.00385 
L 375.5584 91.231084 
L 395.7633 90.518721 
L 415.9682 89.056568 
L 436.1731 87.053944 
L 456.378 85.832607 
L 476.5829 85.474817 
L 496.7878 84.808673 
L 516.9927 86.022469 
L 537.1976 84.250341 
L 557.4025 84.171079 
L 577.6074 82.971461 
L 597.8123 82.831384 
L 618.0172 85.998629 
L 638.2221 85.806485 
L 658.427 81.941292 
L 678.6319 83.45829 
L 698.8368 84.37496 
L 719.0417 80.043255 
L 739.2466 81.371396 
L 759.4515 79.009022 
L 779.6564 79.384247 
L 799.8613 81.785479 
L 820.0662 81.555881 
L 840.2711 81.51283 
L 860.476 79.363902 
L 880.6809 77.486213 
L 900.8858 74.435972 
L 921.0907 73.910917 
L 941.2956 73.645943 
L 961.5005 70.889029 
L 981.7054 70.310529 
L 1001.9103 69.874405 
L 1022.1152 71.417678 
L 1042.3201 73.516762 
L 1062.525 71.672609 
" clip-path="url(#p125d003cdc)" style="fill: none; stroke: #7f7f7f; stroke-width: 0.8; stroke-linecap: square"/>
   </g>
   <g id="line2d_21">
    <path d="M 52.28 106.360136 
L 72.4849 105.555024 
L 92.6898 103.054556 
L 112.8947 102.949362 
L 133.0996 102.147782 
L 153.3045 100.462461 
L 173.5094 100.117122 
L 193.7143 100.284565 
L 213.9192 99.893883 
L 234.1241 96.649766 
L 254.329 96.245764 
L 274.5339 95.718107 
L 294.7388 95.020741 
L 314.9437 94.409292 
L 335.1486 92.676482 
L 355.3535 91.627822 
L 375.5584 89.366366 
L 395.7633 88.958466 
L 415.9682 87.954313 
L 436.1731 87.704721 
L 456.378 87.066608 
L 476.5829 83.902444 
L 496.7878 85.861573 
L 516.9927 82.894901 
L 537.1976 74.776597 
L 557.4025 75.377477 
L 577.6074 73.531767 
L 597.8123 80.222223 
L 618.0172 73.021452 
L 638.2221 74.030869 
L 658.427 77.303031 
L 678.6319 73.312788 
L 698.8368 72.617649 
L 719.0417 70.921488 
L 739.2466 73.076617 
L 759.4515 69.900205 
L 779.6564 68.837247 
L 799.8613 68.629077 
L 820.0662 70.094604 
L 840.2711 68.9786 
L 860.476 67.971505 
L 880.6809 66.88236 
L 900.8858 67.797293 
L 921.0907 65.441549 
L 941.2956 67.160817 
L 961.5005 69.129881 
L 981.7054 66.095862 
L 1001.9103 66.440417 
L 1022.1152 66.944256 
L 1042.3201 65.843144 
L 1062.525 64.77382 
" clip-path="url(#p125d003cdc)" style="fill: none; stroke: #bcbd22; stroke-width: 0.8; stroke-linecap: square"/>
   </g>
   <g id="line2d_22">
    <path d="M 52.28 98.724031 
L 72.4849 99.545381 
L 92.6898 100.56682 
L 112.8947 101.968353 
L 133.0996 99.261677 
L 153.3045 98.986789 
L 173.5094 96.532918 
L 193.7143 97.957609 
L 213.9192 97.542685 
L 234.1241 91.764031 
L 254.329 89.91418 
L 274.5339 87.283316 
L 294.7388 83.744046 
L 314.9437 80.721736 
L 335.1486 82.38353 
L 355.3535 81.414107 
L 375.5584 84.998565 
L 395.7633 82.702796 
L 415.9682 76.476508 
L 436.1731 77.193974 
L 456.378 75.132319 
L 476.5829 75.133529 
L 496.7878 77.446732 
L 516.9927 74.913545 
L 537.1976 77.017699 
L 557.4025 72.981827 
L 577.6074 70.266705 
L 597.8123 72.603084 
L 618.0172 73.903809 
L 638.2221 71.292053 
L 658.427 73.266824 
L 678.6319 68.018825 
L 698.8368 70.91913 
L 719.0417 70.656141 
L 739.2466 70.609985 
L 759.4515 70.571824 
L 779.6564 68.066406 
L 799.8613 68.323873 
L 820.0662 67.736083 
L 840.2711 71.083429 
L 860.476 69.836254 
L 880.6809 68.549744 
L 900.8858 65.309453 
L 921.0907 63.955902 
L 941.2956 67.203805 
L 961.5005 66.298719 
L 981.7054 62.82801 
L 1001.9103 62.533542 
L 1022.1152 66.017724 
L 1042.3201 65.669895 
L 1062.525 65.569729 
" clip-path="url(#p125d003cdc)" style="fill: none; stroke: #17becf; stroke-width: 0.8; stroke-linecap: square"/>
   </g>
   <g id="line2d_23">
    <path d="M 52.28 85.645728 
L 72.4849 86.579206 
L 92.6898 79.756529 
L 112.8947 77.804566 
L 133.0996 77.461552 
L 153.3045 81.007958 
L 173.5094 76.837893 
L 193.7143 78.205625 
L 213.9192 78.396052 
L 234.1241 79.21305 
L 254.329 77.762695 
L 274.5339 77.077819 
L 294.7388 76.855281 
L 314.9437 73.300653 
L 335.1486 77.029199 
L 355.3535 78.502689 
L 375.5584 78.581583 
L 395.7633 78.148257 
L 415.9682 78.313013 
L 436.1731 75.992096 
L 456.378 72.661319 
L 476.5829 74.918149 
L 496.7878 72.962376 
L 516.9927 74.919456 
L 537.1976 73.050745 
L 557.4025 74.043789 
L 577.6074 73.21355 
L 597.8123 73.140502 
L 618.0172 72.757363 
L 638.2221 74.462744 
L 658.427 77.17086 
L 678.6319 74.787747 
L 698.8368 73.345127 
L 719.0417 72.220372 
L 739.2466 72.696106 
L 759.4515 71.975272 
L 779.6564 72.90712 
L 799.8613 73.23178 
L 820.0662 70.876827 
L 840.2711 74.688314 
L 860.476 76.426862 
L 880.6809 76.414567 
L 900.8858 71.164882 
L 921.0907 69.878588 
L 941.2956 66.480381 
L 961.5005 66.322818 
L 981.7054 68.616129 
L 1001.9103 65.896886 
L 1022.1152 68.175987 
L 1042.3201 66.909113 
L 1062.525 68.448824 
" clip-path="url(#p125d003cdc)" style="fill: none; stroke: #9edae5; stroke-width: 0.8; stroke-linecap: square"/>
   </g>
   <g id="patch_3">
    <path d="M 52.28 382.6 
L 52.28 28.32 
" style="fill: none; stroke: #000000; stroke-width: 0.8; stroke-linejoin: miter; stroke-linecap: square"/>
   </g>
   <g id="patch_4">
    <path d="M 1062.525 382.6 
L 1062.525 28.32 
" style="fill: none; stroke: #000000; stroke-width: 0.8; stroke-linejoin: miter; stroke-linecap: square"/>
   </g>
   <g id="patch_5">
    <path d="M 52.28 382.6 
L 1062.525 382.6 
" style="fill: none; stroke: #000000; stroke-width: 0.8; stroke-linejoin: miter; stroke-linecap: square"/>
   </g>
   <g id="patch_6">
    <path d="M 52.28 28.32 
L 1062.525 28.32 
" style="fill: none; stroke: #000000; stroke-width: 0.8; stroke-linejoin: miter; stroke-linecap: square"/>
   </g>
   <g id="text_15">
    <!-- Dataset 1: GO et al., 2021 -->
    <g transform="translate(464.4675 22.32) scale(0.16 -0.16)">
     <defs>
      <path id="ArialMT-44" d="M 494 0 
L 494 4581 
L 2072 4581 
Q 2606 4581 2888 4516 
Q 3281 4425 3559 4188 
Q 3922 3881 4101 3404 
Q 4281 2928 4281 2316 
Q 4281 1794 4159 1391 
Q 4038 988 3847 723 
Q 3656 459 3429 307 
Q 3203 156 2883 78 
Q 2563 0 2147 0 
L 494 0 
z
M 1100 541 
L 2078 541 
Q 2531 541 2789 625 
Q 3047 709 3200 863 
Q 3416 1078 3536 1442 
Q 3656 1806 3656 2325 
Q 3656 3044 3420 3430 
Q 3184 3816 2847 3947 
Q 2603 4041 2063 4041 
L 1100 4041 
L 1100 541 
z
" transform="scale(0.015625)"/>
      <path id="ArialMT-3a" d="M 578 2678 
L 578 3319 
L 1219 3319 
L 1219 2678 
L 578 2678 
z
M 578 0 
L 578 641 
L 1219 641 
L 1219 0 
L 578 0 
z
" transform="scale(0.015625)"/>
      <path id="ArialMT-47" d="M 2638 1797 
L 2638 2334 
L 4578 2338 
L 4578 638 
Q 4131 281 3656 101 
Q 3181 -78 2681 -78 
Q 2006 -78 1454 211 
Q 903 500 622 1047 
Q 341 1594 341 2269 
Q 341 2938 620 3517 
Q 900 4097 1425 4378 
Q 1950 4659 2634 4659 
Q 3131 4659 3532 4498 
Q 3934 4338 4162 4050 
Q 4391 3763 4509 3300 
L 3963 3150 
Q 3859 3500 3706 3700 
Q 3553 3900 3268 4020 
Q 2984 4141 2638 4141 
Q 2222 4141 1919 4014 
Q 1616 3888 1430 3681 
Q 1244 3475 1141 3228 
Q 966 2803 966 2306 
Q 966 1694 1177 1281 
Q 1388 869 1791 669 
Q 2194 469 2647 469 
Q 3041 469 3416 620 
Q 3791 772 3984 944 
L 3984 1797 
L 2638 1797 
z
" transform="scale(0.015625)"/>
      <path id="ArialMT-4f" d="M 309 2231 
Q 309 3372 921 4017 
Q 1534 4663 2503 4663 
Q 3138 4663 3647 4359 
Q 4156 4056 4423 3514 
Q 4691 2972 4691 2284 
Q 4691 1588 4409 1038 
Q 4128 488 3612 205 
Q 3097 -78 2500 -78 
Q 1853 -78 1343 234 
Q 834 547 571 1087 
Q 309 1628 309 2231 
z
M 934 2222 
Q 934 1394 1379 917 
Q 1825 441 2497 441 
Q 3181 441 3623 922 
Q 4066 1403 4066 2288 
Q 4066 2847 3877 3264 
Q 3688 3681 3323 3911 
Q 2959 4141 2506 4141 
Q 1863 4141 1398 3698 
Q 934 3256 934 2222 
z
" transform="scale(0.015625)"/>
      <path id="ArialMT-2c" d="M 569 0 
L 569 641 
L 1209 641 
L 1209 0 
Q 1209 -353 1084 -570 
Q 959 -788 688 -906 
L 531 -666 
Q 709 -588 793 -436 
Q 878 -284 888 0 
L 569 0 
z
" transform="scale(0.015625)"/>
     </defs>
     <use xlink:href="#ArialMT-44"/>
     <use xlink:href="#ArialMT-61" x="72.216797"/>
     <use xlink:href="#ArialMT-74" x="127.832031"/>
     <use xlink:href="#ArialMT-61" x="155.615234"/>
     <use xlink:href="#ArialMT-73" x="211.230469"/>
     <use xlink:href="#ArialMT-65" x="261.230469"/>
     <use xlink:href="#ArialMT-74" x="316.845703"/>
     <use xlink:href="#ArialMT-20" x="344.628906"/>
     <use xlink:href="#ArialMT-31" x="372.412109"/>
     <use xlink:href="#ArialMT-3a" x="428.027344"/>
     <use xlink:href="#ArialMT-20" x="455.810547"/>
     <use xlink:href="#ArialMT-47" x="483.59375"/>
     <use xlink:href="#ArialMT-4f" x="561.376953"/>
     <use xlink:href="#ArialMT-20" x="639.160156"/>
     <use xlink:href="#ArialMT-65" x="666.943359"/>
     <use xlink:href="#ArialMT-74" x="722.558594"/>
     <use xlink:href="#ArialMT-20" x="750.341797"/>
     <use xlink:href="#ArialMT-61" x="778.125"/>
     <use xlink:href="#ArialMT-6c" x="833.740234"/>
     <use xlink:href="#ArialMT-2e" x="855.957031"/>
     <use xlink:href="#ArialMT-2c" x="883.740234"/>
     <use xlink:href="#ArialMT-20" x="911.523438"/>
     <use xlink:href="#ArialMT-32" x="939.306641"/>
     <use xlink:href="#ArialMT-30" x="994.921875"/>
     <use xlink:href="#ArialMT-32" x="1050.537109"/>
     <use xlink:href="#ArialMT-31" x="1106.152344"/>
    </g>
   </g>
   <g id="legend_1">
    <g id="patch_7">
     <path d="M 948.358125 376.6 
L 1054.125 376.6 
Q 1056.525 376.6 1056.525 374.2 
L 1056.525 188.395 
Q 1056.525 185.995 1054.125 185.995 
L 948.358125 185.995 
Q 945.958125 185.995 945.958125 188.395 
L 945.958125 374.2 
Q 945.958125 376.6 948.358125 376.6 
z
" style="fill: #ffffff; opacity: 0.8; stroke: #cccccc; stroke-linejoin: miter"/>
    </g>
    <g id="line2d_24">
     <path d="M 950.758125 195.184375 
L 962.758125 195.184375 
L 974.758125 195.184375 
" style="fill: none; stroke: #1f77b4; stroke-width: 0.8; stroke-linecap: square"/>
    </g>
    <g id="text_16">
     <!-- GA -->
     <g transform="translate(984.358125 199.384375) scale(0.12 -0.12)">
      <defs>
       <path id="ArialMT-41" d="M -9 0 
L 1750 4581 
L 2403 4581 
L 4278 0 
L 3588 0 
L 3053 1388 
L 1138 1388 
L 634 0 
L -9 0 
z
M 1313 1881 
L 2866 1881 
L 2388 3150 
Q 2169 3728 2063 4100 
Q 1975 3659 1816 3225 
L 1313 1881 
z
" transform="scale(0.015625)"/>
      </defs>
      <use xlink:href="#ArialMT-47"/>
      <use xlink:href="#ArialMT-41" x="77.783203"/>
     </g>
    </g>
    <g id="line2d_25">
     <path d="M 950.758125 212.15875 
L 962.758125 212.15875 
L 974.758125 212.15875 
" style="fill: none; stroke: #ff7f0e; stroke-width: 0.8; stroke-linecap: square"/>
    </g>
    <g id="text_17">
     <!-- Random -->
     <g transform="translate(984.358125 216.35875) scale(0.12 -0.12)">
      <defs>
       <path id="ArialMT-52" d="M 503 0 
L 503 4581 
L 2534 4581 
Q 3147 4581 3465 4457 
Q 3784 4334 3975 4021 
Q 4166 3709 4166 3331 
Q 4166 2844 3850 2509 
Q 3534 2175 2875 2084 
Q 3116 1969 3241 1856 
Q 3506 1613 3744 1247 
L 4541 0 
L 3778 0 
L 3172 953 
Q 2906 1366 2734 1584 
Q 2563 1803 2427 1890 
Q 2291 1978 2150 2013 
Q 2047 2034 1813 2034 
L 1109 2034 
L 1109 0 
L 503 0 
z
M 1109 2559 
L 2413 2559 
Q 2828 2559 3062 2645 
Q 3297 2731 3419 2920 
Q 3541 3109 3541 3331 
Q 3541 3656 3305 3865 
Q 3069 4075 2559 4075 
L 1109 4075 
L 1109 2559 
z
" transform="scale(0.015625)"/>
       <path id="ArialMT-64" d="M 2575 0 
L 2575 419 
Q 2259 -75 1647 -75 
Q 1250 -75 917 144 
Q 584 363 401 755 
Q 219 1147 219 1656 
Q 219 2153 384 2558 
Q 550 2963 881 3178 
Q 1213 3394 1622 3394 
Q 1922 3394 2156 3267 
Q 2391 3141 2538 2938 
L 2538 4581 
L 3097 4581 
L 3097 0 
L 2575 0 
z
M 797 1656 
Q 797 1019 1065 703 
Q 1334 388 1700 388 
Q 2069 388 2326 689 
Q 2584 991 2584 1609 
Q 2584 2291 2321 2609 
Q 2059 2928 1675 2928 
Q 1300 2928 1048 2622 
Q 797 2316 797 1656 
z
" transform="scale(0.015625)"/>
      </defs>
      <use xlink:href="#ArialMT-52"/>
      <use xlink:href="#ArialMT-61" x="72.216797"/>
      <use xlink:href="#ArialMT-6e" x="127.832031"/>
      <use xlink:href="#ArialMT-64" x="183.447266"/>
      <use xlink:href="#ArialMT-6f" x="239.0625"/>
      <use xlink:href="#ArialMT-6d" x="294.677734"/>
     </g>
    </g>
    <g id="line2d_26">
     <path d="M 950.758125 229.279375 
L 962.758125 229.279375 
L 974.758125 229.279375 
" style="fill: none; stroke: #2ca02c; stroke-width: 0.8; stroke-linecap: square"/>
    </g>
    <g id="text_18">
     <!-- Chi-Squared -->
     <g transform="translate(984.358125 233.479375) scale(0.12 -0.12)">
      <defs>
       <path id="ArialMT-43" d="M 3763 1606 
L 4369 1453 
Q 4178 706 3683 314 
Q 3188 -78 2472 -78 
Q 1731 -78 1267 223 
Q 803 525 561 1097 
Q 319 1669 319 2325 
Q 319 3041 592 3573 
Q 866 4106 1370 4382 
Q 1875 4659 2481 4659 
Q 3169 4659 3637 4309 
Q 4106 3959 4291 3325 
L 3694 3184 
Q 3534 3684 3231 3912 
Q 2928 4141 2469 4141 
Q 1941 4141 1586 3887 
Q 1231 3634 1087 3207 
Q 944 2781 944 2328 
Q 944 1744 1114 1308 
Q 1284 872 1643 656 
Q 2003 441 2422 441 
Q 2931 441 3284 734 
Q 3638 1028 3763 1606 
z
" transform="scale(0.015625)"/>
       <path id="ArialMT-68" d="M 422 0 
L 422 4581 
L 984 4581 
L 984 2938 
Q 1378 3394 1978 3394 
Q 2347 3394 2619 3248 
Q 2891 3103 3008 2847 
Q 3125 2591 3125 2103 
L 3125 0 
L 2563 0 
L 2563 2103 
Q 2563 2525 2380 2717 
Q 2197 2909 1863 2909 
Q 1613 2909 1392 2779 
Q 1172 2650 1078 2428 
Q 984 2206 984 1816 
L 984 0 
L 422 0 
z
" transform="scale(0.015625)"/>
       <path id="ArialMT-2d" d="M 203 1375 
L 203 1941 
L 1931 1941 
L 1931 1375 
L 203 1375 
z
" transform="scale(0.015625)"/>
       <path id="ArialMT-53" d="M 288 1472 
L 859 1522 
Q 900 1178 1048 958 
Q 1197 738 1509 602 
Q 1822 466 2213 466 
Q 2559 466 2825 569 
Q 3091 672 3220 851 
Q 3350 1031 3350 1244 
Q 3350 1459 3225 1620 
Q 3100 1781 2813 1891 
Q 2628 1963 1997 2114 
Q 1366 2266 1113 2400 
Q 784 2572 623 2826 
Q 463 3081 463 3397 
Q 463 3744 659 4045 
Q 856 4347 1234 4503 
Q 1613 4659 2075 4659 
Q 2584 4659 2973 4495 
Q 3363 4331 3572 4012 
Q 3781 3694 3797 3291 
L 3216 3247 
Q 3169 3681 2898 3903 
Q 2628 4125 2100 4125 
Q 1550 4125 1298 3923 
Q 1047 3722 1047 3438 
Q 1047 3191 1225 3031 
Q 1400 2872 2139 2705 
Q 2878 2538 3153 2413 
Q 3553 2228 3743 1945 
Q 3934 1663 3934 1294 
Q 3934 928 3725 604 
Q 3516 281 3123 101 
Q 2731 -78 2241 -78 
Q 1619 -78 1198 103 
Q 778 284 539 648 
Q 300 1013 288 1472 
z
" transform="scale(0.015625)"/>
       <path id="ArialMT-71" d="M 2538 -1272 
L 2538 353 
Q 2406 169 2170 47 
Q 1934 -75 1669 -75 
Q 1078 -75 651 397 
Q 225 869 225 1691 
Q 225 2191 398 2587 
Q 572 2984 901 3189 
Q 1231 3394 1625 3394 
Q 2241 3394 2594 2875 
L 2594 3319 
L 3100 3319 
L 3100 -1272 
L 2538 -1272 
z
M 803 1669 
Q 803 1028 1072 708 
Q 1341 388 1716 388 
Q 2075 388 2334 692 
Q 2594 997 2594 1619 
Q 2594 2281 2320 2615 
Q 2047 2950 1678 2950 
Q 1313 2950 1058 2639 
Q 803 2328 803 1669 
z
" transform="scale(0.015625)"/>
      </defs>
      <use xlink:href="#ArialMT-43"/>
      <use xlink:href="#ArialMT-68" x="72.216797"/>
      <use xlink:href="#ArialMT-69" x="127.832031"/>
      <use xlink:href="#ArialMT-2d" x="150.048828"/>
      <use xlink:href="#ArialMT-53" x="183.349609"/>
      <use xlink:href="#ArialMT-71" x="250.048828"/>
      <use xlink:href="#ArialMT-75" x="305.664062"/>
      <use xlink:href="#ArialMT-61" x="361.279297"/>
      <use xlink:href="#ArialMT-72" x="416.894531"/>
      <use xlink:href="#ArialMT-65" x="450.195312"/>
      <use xlink:href="#ArialMT-64" x="505.810547"/>
     </g>
    </g>
    <g id="line2d_27">
     <path d="M 950.758125 246.25375 
L 962.758125 246.25375 
L 974.758125 246.25375 
" style="fill: none; stroke: #d62728; stroke-width: 0.8; stroke-linecap: square"/>
    </g>
    <g id="text_19">
     <!-- Mutual Info -->
     <g transform="translate(984.358125 250.45375) scale(0.12 -0.12)">
      <defs>
       <path id="ArialMT-49" d="M 597 0 
L 597 4581 
L 1203 4581 
L 1203 0 
L 597 0 
z
" transform="scale(0.015625)"/>
      </defs>
      <use xlink:href="#ArialMT-4d"/>
      <use xlink:href="#ArialMT-75" x="83.300781"/>
      <use xlink:href="#ArialMT-74" x="138.916016"/>
      <use xlink:href="#ArialMT-75" x="166.699219"/>
      <use xlink:href="#ArialMT-61" x="222.314453"/>
      <use xlink:href="#ArialMT-6c" x="277.929688"/>
      <use xlink:href="#ArialMT-20" x="300.146484"/>
      <use xlink:href="#ArialMT-49" x="327.929688"/>
      <use xlink:href="#ArialMT-6e" x="355.712891"/>
      <use xlink:href="#ArialMT-66" x="411.328125"/>
      <use xlink:href="#ArialMT-6f" x="439.111328"/>
     </g>
    </g>
    <g id="line2d_28">
     <path d="M 950.758125 263.228125 
L 962.758125 263.228125 
L 974.758125 263.228125 
" style="fill: none; stroke: #9467bd; stroke-width: 0.8; stroke-linecap: square"/>
    </g>
    <g id="text_20">
     <!-- ANOVA F -->
     <g transform="translate(984.358125 267.428125) scale(0.12 -0.12)">
      <defs>
       <path id="ArialMT-56" d="M 1803 0 
L 28 4581 
L 684 4581 
L 1875 1253 
Q 2019 853 2116 503 
Q 2222 878 2363 1253 
L 3600 4581 
L 4219 4581 
L 2425 0 
L 1803 0 
z
" transform="scale(0.015625)"/>
      </defs>
      <use xlink:href="#ArialMT-41"/>
      <use xlink:href="#ArialMT-4e" x="66.699219"/>
      <use xlink:href="#ArialMT-4f" x="138.916016"/>
      <use xlink:href="#ArialMT-56" x="216.699219"/>
      <use xlink:href="#ArialMT-41" x="276.023438"/>
      <use xlink:href="#ArialMT-20" x="337.222656"/>
      <use xlink:href="#ArialMT-46" x="365.005859"/>
     </g>
    </g>
    <g id="line2d_29">
     <path d="M 950.758125 280.2025 
L 962.758125 280.2025 
L 974.758125 280.2025 
" style="fill: none; stroke: #8c564b; stroke-width: 0.8; stroke-linecap: square"/>
    </g>
    <g id="text_21">
     <!-- Lasso -->
     <g transform="translate(984.358125 284.4025) scale(0.12 -0.12)">
      <defs>
       <path id="ArialMT-4c" d="M 469 0 
L 469 4581 
L 1075 4581 
L 1075 541 
L 3331 541 
L 3331 0 
L 469 0 
z
" transform="scale(0.015625)"/>
      </defs>
      <use xlink:href="#ArialMT-4c"/>
      <use xlink:href="#ArialMT-61" x="55.615234"/>
      <use xlink:href="#ArialMT-73" x="111.230469"/>
      <use xlink:href="#ArialMT-73" x="161.230469"/>
      <use xlink:href="#ArialMT-6f" x="211.230469"/>
     </g>
    </g>
    <g id="line2d_30">
     <path d="M 950.758125 297.176875 
L 962.758125 297.176875 
L 974.758125 297.176875 
" style="fill: none; stroke: #e377c2; stroke-width: 0.8; stroke-linecap: square"/>
    </g>
    <g id="text_22">
     <!-- Ridge -->
     <g transform="translate(984.358125 301.376875) scale(0.12 -0.12)">
      <defs>
       <path id="ArialMT-67" d="M 319 -275 
L 866 -356 
Q 900 -609 1056 -725 
Q 1266 -881 1628 -881 
Q 2019 -881 2231 -725 
Q 2444 -569 2519 -288 
Q 2563 -116 2559 434 
Q 2191 0 1641 0 
Q 956 0 581 494 
Q 206 988 206 1678 
Q 206 2153 378 2554 
Q 550 2956 876 3175 
Q 1203 3394 1644 3394 
Q 2231 3394 2613 2919 
L 2613 3319 
L 3131 3319 
L 3131 450 
Q 3131 -325 2973 -648 
Q 2816 -972 2473 -1159 
Q 2131 -1347 1631 -1347 
Q 1038 -1347 672 -1080 
Q 306 -813 319 -275 
z
M 784 1719 
Q 784 1066 1043 766 
Q 1303 466 1694 466 
Q 2081 466 2343 764 
Q 2606 1063 2606 1700 
Q 2606 2309 2336 2618 
Q 2066 2928 1684 2928 
Q 1309 2928 1046 2623 
Q 784 2319 784 1719 
z
" transform="scale(0.015625)"/>
      </defs>
      <use xlink:href="#ArialMT-52"/>
      <use xlink:href="#ArialMT-69" x="72.216797"/>
      <use xlink:href="#ArialMT-64" x="94.433594"/>
      <use xlink:href="#ArialMT-67" x="150.048828"/>
      <use xlink:href="#ArialMT-65" x="205.664062"/>
     </g>
    </g>
    <g id="line2d_31">
     <path d="M 950.758125 314.291875 
L 962.758125 314.291875 
L 974.758125 314.291875 
" style="fill: none; stroke: #7f7f7f; stroke-width: 0.8; stroke-linecap: square"/>
    </g>
    <g id="text_23">
     <!-- ElasticNet -->
     <g transform="translate(984.358125 318.491875) scale(0.12 -0.12)">
      <defs>
       <path id="ArialMT-45" d="M 506 0 
L 506 4581 
L 3819 4581 
L 3819 4041 
L 1113 4041 
L 1113 2638 
L 3647 2638 
L 3647 2100 
L 1113 2100 
L 1113 541 
L 3925 541 
L 3925 0 
L 506 0 
z
" transform="scale(0.015625)"/>
      </defs>
      <use xlink:href="#ArialMT-45"/>
      <use xlink:href="#ArialMT-6c" x="66.699219"/>
      <use xlink:href="#ArialMT-61" x="88.916016"/>
      <use xlink:href="#ArialMT-73" x="144.53125"/>
      <use xlink:href="#ArialMT-74" x="194.53125"/>
      <use xlink:href="#ArialMT-69" x="222.314453"/>
      <use xlink:href="#ArialMT-63" x="244.53125"/>
      <use xlink:href="#ArialMT-4e" x="294.53125"/>
      <use xlink:href="#ArialMT-65" x="366.748047"/>
      <use xlink:href="#ArialMT-74" x="422.363281"/>
     </g>
    </g>
    <g id="line2d_32">
     <path d="M 950.758125 331.26625 
L 962.758125 331.26625 
L 974.758125 331.26625 
" style="fill: none; stroke: #bcbd22; stroke-width: 0.8; stroke-linecap: square"/>
    </g>
    <g id="text_24">
     <!-- RF -->
     <g transform="translate(984.358125 335.46625) scale(0.12 -0.12)">
      <use xlink:href="#ArialMT-52"/>
      <use xlink:href="#ArialMT-46" x="72.216797"/>
     </g>
    </g>
    <g id="line2d_33">
     <path d="M 950.758125 348.240625 
L 962.758125 348.240625 
L 974.758125 348.240625 
" style="fill: none; stroke: #17becf; stroke-width: 0.8; stroke-linecap: square"/>
    </g>
    <g id="text_25">
     <!-- GBM -->
     <g transform="translate(984.358125 352.440625) scale(0.12 -0.12)">
      <defs>
       <path id="ArialMT-42" d="M 469 0 
L 469 4581 
L 2188 4581 
Q 2713 4581 3030 4442 
Q 3347 4303 3526 4014 
Q 3706 3725 3706 3409 
Q 3706 3116 3547 2856 
Q 3388 2597 3066 2438 
Q 3481 2316 3704 2022 
Q 3928 1728 3928 1328 
Q 3928 1006 3792 729 
Q 3656 453 3456 303 
Q 3256 153 2954 76 
Q 2653 0 2216 0 
L 469 0 
z
M 1075 2656 
L 2066 2656 
Q 2469 2656 2644 2709 
Q 2875 2778 2992 2937 
Q 3109 3097 3109 3338 
Q 3109 3566 3000 3739 
Q 2891 3913 2687 3977 
Q 2484 4041 1991 4041 
L 1075 4041 
L 1075 2656 
z
M 1075 541 
L 2216 541 
Q 2509 541 2628 563 
Q 2838 600 2978 687 
Q 3119 775 3209 942 
Q 3300 1109 3300 1328 
Q 3300 1584 3169 1773 
Q 3038 1963 2805 2039 
Q 2572 2116 2134 2116 
L 1075 2116 
L 1075 541 
z
" transform="scale(0.015625)"/>
      </defs>
      <use xlink:href="#ArialMT-47"/>
      <use xlink:href="#ArialMT-42" x="77.783203"/>
      <use xlink:href="#ArialMT-4d" x="144.482422"/>
     </g>
    </g>
    <g id="line2d_34">
     <path d="M 950.758125 365.215 
L 962.758125 365.215 
L 974.758125 365.215 
" style="fill: none; stroke: #9edae5; stroke-width: 0.8; stroke-linecap: square"/>
    </g>
    <g id="text_26">
     <!-- XGB -->
     <g transform="translate(984.358125 369.415) scale(0.12 -0.12)">
      <defs>
       <path id="ArialMT-58" d="M 28 0 
L 1800 2388 
L 238 4581 
L 959 4581 
L 1791 3406 
Q 2050 3041 2159 2844 
Q 2313 3094 2522 3366 
L 3444 4581 
L 4103 4581 
L 2494 2422 
L 4228 0 
L 3478 0 
L 2325 1634 
Q 2228 1775 2125 1941 
Q 1972 1691 1906 1597 
L 756 0 
L 28 0 
z
" transform="scale(0.015625)"/>
      </defs>
      <use xlink:href="#ArialMT-58"/>
      <use xlink:href="#ArialMT-47" x="66.699219"/>
      <use xlink:href="#ArialMT-42" x="144.482422"/>
     </g>
    </g>
   </g>
  </g>
 </g>
 <defs>
  <clipPath id="p125d003cdc">
   <rect x="52.28" y="28.32" width="1010.245" height="354.28"/>
  </clipPath>
 </defs>
</svg>
