<?xml version="1.0" encoding="utf-8" standalone="no"?>
<!DOCTYPE svg PUBLIC "-//W3C//DTD SVG 1.1//EN"
  "http://www.w3.org/Graphics/SVG/1.1/DTD/svg11.dtd">
<svg xmlns:xlink="http://www.w3.org/1999/xlink" width="1080pt" height="648pt" viewBox="0 0 1080 648" xmlns="http://www.w3.org/2000/svg" version="1.1">
 <metadata>
  <rdf:RDF xmlns:dc="http://purl.org/dc/elements/1.1/" xmlns:cc="http://creativecommons.org/ns#" xmlns:rdf="http://www.w3.org/1999/02/22-rdf-syntax-ns#">
   <cc:Work>
    <dc:type rdf:resource="http://purl.org/dc/dcmitype/StillImage"/>
    <dc:date>2024-04-04T23:42:32.938574</dc:date>
    <dc:format>image/svg+xml</dc:format>
    <dc:creator>
     <cc:Agent>
      <dc:title>Matplotlib v3.7.2, https://matplotlib.org/</dc:title>
     </cc:Agent>
    </dc:creator>
   </cc:Work>
  </rdf:RDF>
 </metadata>
 <defs>
  <style type="text/css">*{stroke-linejoin: round; stroke-linecap: butt}</style>
 </defs>
 <g id="figure_1">
  <g id="patch_1">
   <path d="M 0 648 
L 1080 648 
L 1080 0 
L 0 0 
z
" style="fill: #ffffff"/>
  </g>
  <g id="axes_1">
   <g id="patch_2">
    <path d="M 47.765 606.04 
L 933.07 606.04 
L 933.07 30.748 
L 47.765 30.748 
z
" style="fill: #ffffff"/>
   </g>
   <g id="PolyCollection_1">
    <defs>
     <path id="mee2867fbfc" d="M 47.765 -473.473769 
L 47.765 -456.65969 
L 65.4711 -467.064229 
L 83.1772 -472.824016 
L 100.8833 -470.918155 
L 118.5894 -478.377647 
L 136.2955 -485.205868 
L 154.0016 -483.307018 
L 171.7077 -487.963686 
L 189.4138 -496.120249 
L 207.1199 -496.734319 
L 224.826 -494.500457 
L 242.5321 -501.583904 
L 260.2382 -508.08774 
L 277.9443 -506.95183 
L 295.6504 -511.241179 
L 313.3565 -511.510109 
L 331.0626 -512.966411 
L 348.7687 -516.074581 
L 366.4748 -513.706518 
L 384.1809 -520.895438 
L 401.887 -524.933166 
L 419.5931 -522.15723 
L 437.2992 -520.712908 
L 455.0053 -528.741352 
L 472.7114 -529.544019 
L 490.4175 -529.071102 
L 508.1236 -527.910618 
L 525.8297 -528.243889 
L 543.5358 -527.627402 
L 561.2419 -535.384827 
L 578.948 -535.673637 
L 596.6541 -535.342895 
L 614.3602 -540.272375 
L 632.0663 -540.399402 
L 649.7724 -540.125019 
L 667.4785 -545.638157 
L 685.1846 -548.361345 
L 702.8907 -545.658671 
L 720.5968 -549.961924 
L 738.3029 -550.910236 
L 756.009 -550.618847 
L 773.7151 -551.643404 
L 791.4212 -553.627591 
L 809.1273 -553.996397 
L 826.8334 -554.828423 
L 844.5395 -557.385516 
L 862.2456 -557.266996 
L 879.9517 -557.44785 
L 897.6578 -558.655079 
L 915.3639 -556.995227 
L 933.07 -561.306983 
L 933.07 -572.635009 
L 933.07 -572.635009 
L 915.3639 -571.291383 
L 897.6578 -566.938065 
L 879.9517 -567.796307 
L 862.2456 -565.104728 
L 844.5395 -566.838524 
L 826.8334 -566.039971 
L 809.1273 -563.892183 
L 791.4212 -560.192455 
L 773.7151 -559.611436 
L 756.009 -560.048382 
L 738.3029 -556.213431 
L 720.5968 -559.12144 
L 702.8907 -554.861084 
L 685.1846 -555.030843 
L 667.4785 -554.729475 
L 649.7724 -553.522373 
L 632.0663 -548.066872 
L 614.3602 -547.959003 
L 596.6541 -548.828151 
L 578.948 -542.859924 
L 561.2419 -541.699094 
L 543.5358 -540.764649 
L 525.8297 -539.79321 
L 508.1236 -540.0191 
L 490.4175 -536.684157 
L 472.7114 -536.291776 
L 455.0053 -535.537423 
L 437.2992 -532.666728 
L 419.5931 -531.276096 
L 401.887 -531.265213 
L 384.1809 -526.282963 
L 366.4748 -526.116306 
L 348.7687 -524.956276 
L 331.0626 -524.54773 
L 313.3565 -520.849759 
L 295.6504 -516.957687 
L 277.9443 -515.743777 
L 260.2382 -517.507144 
L 242.5321 -510.883692 
L 224.826 -511.336382 
L 207.1199 -508.914604 
L 189.4138 -507.488441 
L 171.7077 -502.571406 
L 154.0016 -498.557084 
L 136.2955 -495.611272 
L 118.5894 -494.520168 
L 100.8833 -487.449712 
L 83.1772 -487.725021 
L 65.4711 -479.417938 
L 47.765 -473.473769 
z
" style="stroke: #1f77b4; stroke-opacity: 0.2"/>
    </defs>
    <g clip-path="url(#p55e7c3b34f)">
     <use xlink:href="#mee2867fbfc" x="0" y="648" style="fill: #1f77b4; fill-opacity: 0.2; stroke: #1f77b4; stroke-opacity: 0.2"/>
    </g>
   </g>
   <g id="PolyCollection_2">
    <defs>
     <path id="m8ed0f5fb7f" d="M 47.765 -384.741104 
L 47.765 -337.449666 
L 65.4711 -359.235996 
L 83.1772 -346.50504 
L 100.8833 -350.557276 
L 118.5894 -359.138911 
L 136.2955 -359.614591 
L 154.0016 -378.679541 
L 171.7077 -370.413311 
L 189.4138 -384.513115 
L 207.1199 -385.494452 
L 224.826 -393.409653 
L 242.5321 -388.121434 
L 260.2382 -392.675127 
L 277.9443 -391.331555 
L 295.6504 -397.653199 
L 313.3565 -419.240013 
L 331.0626 -403.759324 
L 348.7687 -408.932866 
L 366.4748 -410.986866 
L 384.1809 -413.210607 
L 401.887 -423.068993 
L 419.5931 -430.593441 
L 437.2992 -418.668713 
L 455.0053 -429.561638 
L 472.7114 -438.107968 
L 490.4175 -422.485937 
L 508.1236 -445.624392 
L 525.8297 -439.01793 
L 543.5358 -439.666182 
L 561.2419 -454.073147 
L 578.948 -452.48133 
L 596.6541 -443.57689 
L 614.3602 -460.284903 
L 632.0663 -459.362377 
L 649.7724 -465.933922 
L 667.4785 -468.864829 
L 685.1846 -467.938573 
L 702.8907 -465.696581 
L 720.5968 -478.175654 
L 738.3029 -481.666313 
L 756.009 -489.409355 
L 773.7151 -479.653767 
L 791.4212 -481.86365 
L 809.1273 -494.60806 
L 826.8334 -483.201651 
L 844.5395 -483.665926 
L 862.2456 -494.167785 
L 879.9517 -484.830946 
L 897.6578 -498.443352 
L 915.3639 -495.064078 
L 933.07 -504.815653 
L 933.07 -529.960279 
L 933.07 -529.960279 
L 915.3639 -512.410317 
L 897.6578 -521.191905 
L 879.9517 -508.764496 
L 862.2456 -516.823327 
L 844.5395 -516.291821 
L 826.8334 -516.944012 
L 809.1273 -511.926753 
L 791.4212 -507.141268 
L 773.7151 -506.800859 
L 756.009 -513.179219 
L 738.3029 -508.949315 
L 720.5968 -503.23208 
L 702.8907 -504.758324 
L 685.1846 -504.610255 
L 667.4785 -489.751355 
L 649.7724 -493.702379 
L 632.0663 -492.300909 
L 614.3602 -486.895239 
L 596.6541 -480.140573 
L 578.948 -482.108427 
L 561.2419 -489.321826 
L 543.5358 -469.554889 
L 525.8297 -463.81399 
L 508.1236 -475.65016 
L 490.4175 -471.003865 
L 472.7114 -481.045817 
L 455.0053 -459.49871 
L 437.2992 -458.47238 
L 419.5931 -447.514078 
L 401.887 -451.870796 
L 384.1809 -446.158983 
L 366.4748 -445.268684 
L 348.7687 -456.047364 
L 331.0626 -440.389055 
L 313.3565 -439.673209 
L 295.6504 -442.736855 
L 277.9443 -439.179477 
L 260.2382 -437.057395 
L 242.5321 -428.886477 
L 224.826 -429.960563 
L 207.1199 -425.231689 
L 189.4138 -407.421407 
L 171.7077 -417.4139 
L 154.0016 -429.308393 
L 136.2955 -399.08561 
L 118.5894 -403.40015 
L 100.8833 -394.827721 
L 83.1772 -383.148687 
L 65.4711 -402.041342 
L 47.765 -384.741104 
z
" style="stroke: #ff7f0e; stroke-opacity: 0.2"/>
    </defs>
    <g clip-path="url(#p55e7c3b34f)">
     <use xlink:href="#m8ed0f5fb7f" x="0" y="648" style="fill: #ff7f0e; fill-opacity: 0.2; stroke: #ff7f0e; stroke-opacity: 0.2"/>
    </g>
   </g>
   <g id="PolyCollection_3">
    <defs>
     <path id="mff3e0bacf4" d="M 47.765 -451.652917 
L 47.765 -438.910761 
L 65.4711 -441.35545 
L 83.1772 -443.977499 
L 100.8833 -447.241475 
L 118.5894 -451.530327 
L 136.2955 -452.559389 
L 154.0016 -455.585939 
L 171.7077 -456.27999 
L 189.4138 -462.635723 
L 207.1199 -465.354304 
L 224.826 -466.658189 
L 242.5321 -468.880996 
L 260.2382 -472.518685 
L 277.9443 -473.738158 
L 295.6504 -475.126823 
L 313.3565 -478.946326 
L 331.0626 -481.778731 
L 348.7687 -484.656838 
L 366.4748 -487.157587 
L 384.1809 -490.53387 
L 401.887 -492.806917 
L 419.5931 -494.265673 
L 437.2992 -494.989686 
L 455.0053 -496.002549 
L 472.7114 -496.891934 
L 490.4175 -497.743599 
L 508.1236 -499.059381 
L 525.8297 -499.529716 
L 543.5358 -500.107234 
L 561.2419 -500.498662 
L 578.948 -501.423911 
L 596.6541 -502.960167 
L 614.3602 -503.837196 
L 632.0663 -504.595533 
L 649.7724 -505.513813 
L 667.4785 -506.523103 
L 685.1846 -507.29074 
L 702.8907 -508.141992 
L 720.5968 -508.815455 
L 738.3029 -509.606478 
L 756.009 -510.191551 
L 773.7151 -511.073682 
L 791.4212 -511.245118 
L 809.1273 -511.523122 
L 826.8334 -512.020512 
L 844.5395 -512.773319 
L 862.2456 -513.502478 
L 879.9517 -514.196614 
L 897.6578 -514.876709 
L 915.3639 -516.088302 
L 933.07 -517.239084 
L 933.07 -525.268258 
L 933.07 -525.268258 
L 915.3639 -524.217736 
L 897.6578 -522.905883 
L 879.9517 -522.24372 
L 862.2456 -521.864048 
L 844.5395 -520.714046 
L 826.8334 -520.231975 
L 809.1273 -519.601868 
L 791.4212 -518.913445 
L 773.7151 -517.688933 
L 756.009 -516.987198 
L 738.3029 -515.988406 
L 720.5968 -515.705623 
L 702.8907 -515.144208 
L 685.1846 -514.411595 
L 667.4785 -513.595366 
L 649.7724 -513.074482 
L 632.0663 -512.462588 
L 614.3602 -511.824976 
L 596.6541 -511.11814 
L 578.948 -510.23833 
L 561.2419 -509.284418 
L 543.5358 -507.823528 
L 525.8297 -506.844027 
L 508.1236 -506.079483 
L 490.4175 -504.603368 
L 472.7114 -503.253729 
L 455.0053 -500.733777 
L 437.2992 -499.518491 
L 419.5931 -497.960665 
L 401.887 -495.956394 
L 384.1809 -494.17582 
L 366.4748 -493.525327 
L 348.7687 -491.381862 
L 331.0626 -488.91778 
L 313.3565 -486.783829 
L 295.6504 -485.55644 
L 277.9443 -483.589458 
L 260.2382 -479.735194 
L 242.5321 -476.876352 
L 224.826 -475.475061 
L 207.1199 -474.040739 
L 189.4138 -472.007725 
L 171.7077 -470.497822 
L 154.0016 -468.561046 
L 136.2955 -466.057492 
L 118.5894 -462.845017 
L 100.8833 -459.080317 
L 83.1772 -456.787344 
L 65.4711 -453.315539 
L 47.765 -451.652917 
z
" style="stroke: #2ca02c; stroke-opacity: 0.2"/>
    </defs>
    <g clip-path="url(#p55e7c3b34f)">
     <use xlink:href="#mff3e0bacf4" x="0" y="648" style="fill: #2ca02c; fill-opacity: 0.2; stroke: #2ca02c; stroke-opacity: 0.2"/>
    </g>
   </g>
   <g id="PolyCollection_4">
    <defs>
     <path id="medefbb33d1" d="M 47.765 -454.907234 
L 47.765 -433.696746 
L 65.4711 -438.243338 
L 83.1772 -440.580194 
L 100.8833 -441.495413 
L 118.5894 -443.52068 
L 136.2955 -446.763353 
L 154.0016 -448.992845 
L 171.7077 -451.980416 
L 189.4138 -452.712787 
L 207.1199 -453.703668 
L 224.826 -456.874182 
L 242.5321 -457.97451 
L 260.2382 -459.40564 
L 277.9443 -462.737755 
L 295.6504 -464.367979 
L 313.3565 -465.498462 
L 331.0626 -466.126565 
L 348.7687 -468.404191 
L 366.4748 -468.874943 
L 384.1809 -471.061123 
L 401.887 -472.256939 
L 419.5931 -477.745492 
L 437.2992 -482.91393 
L 455.0053 -484.168624 
L 472.7114 -485.254605 
L 490.4175 -486.596096 
L 508.1236 -491.065777 
L 525.8297 -491.739627 
L 543.5358 -493.66109 
L 561.2419 -493.89568 
L 578.948 -494.440949 
L 596.6541 -495.80704 
L 614.3602 -497.756443 
L 632.0663 -499.057382 
L 649.7724 -499.877592 
L 667.4785 -501.607446 
L 685.1846 -503.152168 
L 702.8907 -503.8614 
L 720.5968 -505.185342 
L 738.3029 -506.685706 
L 756.009 -506.831542 
L 773.7151 -507.916763 
L 791.4212 -508.32074 
L 809.1273 -508.935151 
L 826.8334 -509.505066 
L 844.5395 -509.722677 
L 862.2456 -510.590252 
L 879.9517 -511.199796 
L 897.6578 -512.529985 
L 915.3639 -513.347194 
L 933.07 -514.528884 
L 933.07 -522.01883 
L 933.07 -522.01883 
L 915.3639 -521.187133 
L 897.6578 -520.501012 
L 879.9517 -519.737278 
L 862.2456 -519.165634 
L 844.5395 -517.885595 
L 826.8334 -517.244161 
L 809.1273 -516.95503 
L 791.4212 -516.146648 
L 773.7151 -514.778843 
L 756.009 -513.501689 
L 738.3029 -512.385802 
L 720.5968 -511.094268 
L 702.8907 -510.216906 
L 685.1846 -509.395964 
L 667.4785 -507.934027 
L 649.7724 -506.871983 
L 632.0663 -506.000947 
L 614.3602 -505.154273 
L 596.6541 -504.150707 
L 578.948 -503.181268 
L 561.2419 -501.203091 
L 543.5358 -499.585364 
L 525.8297 -498.634395 
L 508.1236 -497.912295 
L 490.4175 -495.992826 
L 472.7114 -494.622954 
L 455.0053 -493.776083 
L 437.2992 -492.45364 
L 419.5931 -493.085246 
L 401.887 -491.88935 
L 384.1809 -490.615411 
L 366.4748 -487.459402 
L 348.7687 -486.45367 
L 331.0626 -484.194462 
L 313.3565 -483.104474 
L 295.6504 -481.094072 
L 277.9443 -478.670675 
L 260.2382 -476.741137 
L 242.5321 -475.380369 
L 224.826 -474.252548 
L 207.1199 -472.886228 
L 189.4138 -469.742953 
L 171.7077 -468.542472 
L 154.0016 -466.966364 
L 136.2955 -465.383841 
L 118.5894 -462.505816 
L 100.8833 -462.141863 
L 83.1772 -459.271913 
L 65.4711 -456.454496 
L 47.765 -454.907234 
z
" style="stroke: #d62728; stroke-opacity: 0.2"/>
    </defs>
    <g clip-path="url(#p55e7c3b34f)">
     <use xlink:href="#medefbb33d1" x="0" y="648" style="fill: #d62728; fill-opacity: 0.2; stroke: #d62728; stroke-opacity: 0.2"/>
    </g>
   </g>
   <g id="PolyCollection_5">
    <defs>
     <path id="md50cf59487" d="M 47.765 -434.902794 
L 47.765 -425.701673 
L 65.4711 -428.568355 
L 83.1772 -430.367143 
L 100.8833 -432.786894 
L 118.5894 -436.027009 
L 136.2955 -438.527375 
L 154.0016 -440.76141 
L 171.7077 -442.632037 
L 189.4138 -445.313149 
L 207.1199 -447.825879 
L 224.826 -448.721806 
L 242.5321 -450.177875 
L 260.2382 -451.053705 
L 277.9443 -452.129944 
L 295.6504 -453.052097 
L 313.3565 -454.175565 
L 331.0626 -458.175476 
L 348.7687 -461.285359 
L 366.4748 -462.087217 
L 384.1809 -463.688037 
L 401.887 -463.915023 
L 419.5931 -464.934507 
L 437.2992 -467.829498 
L 455.0053 -469.030719 
L 472.7114 -470.993456 
L 490.4175 -474.395748 
L 508.1236 -475.889088 
L 525.8297 -477.480764 
L 543.5358 -478.198123 
L 561.2419 -480.581103 
L 578.948 -481.51409 
L 596.6541 -482.169182 
L 614.3602 -484.915212 
L 632.0663 -487.278066 
L 649.7724 -489.074783 
L 667.4785 -490.238944 
L 685.1846 -493.849198 
L 702.8907 -494.821995 
L 720.5968 -495.533319 
L 738.3029 -496.155718 
L 756.009 -499.35593 
L 773.7151 -500.912825 
L 791.4212 -502.5483 
L 809.1273 -503.891572 
L 826.8334 -506.159937 
L 844.5395 -508.363893 
L 862.2456 -509.44211 
L 879.9517 -510.918006 
L 897.6578 -513.021804 
L 915.3639 -514.488959 
L 933.07 -517.163588 
L 933.07 -526.390715 
L 933.07 -526.390715 
L 915.3639 -525.119104 
L 897.6578 -524.572872 
L 879.9517 -521.441861 
L 862.2456 -520.931215 
L 844.5395 -520.506103 
L 826.8334 -519.515483 
L 809.1273 -518.88457 
L 791.4212 -516.039995 
L 773.7151 -514.776192 
L 756.009 -511.635182 
L 738.3029 -509.734811 
L 720.5968 -508.988107 
L 702.8907 -507.20283 
L 685.1846 -506.001168 
L 667.4785 -504.483994 
L 649.7724 -502.507271 
L 632.0663 -501.082567 
L 614.3602 -499.606562 
L 596.6541 -498.460042 
L 578.948 -497.209127 
L 561.2419 -496.450868 
L 543.5358 -495.397667 
L 525.8297 -493.296283 
L 508.1236 -492.391358 
L 490.4175 -490.636432 
L 472.7114 -490.038794 
L 455.0053 -488.055291 
L 437.2992 -484.236465 
L 419.5931 -479.319511 
L 401.887 -478.674595 
L 384.1809 -475.196947 
L 366.4748 -474.032715 
L 348.7687 -472.096366 
L 331.0626 -469.944595 
L 313.3565 -467.904343 
L 295.6504 -467.148649 
L 277.9443 -466.057414 
L 260.2382 -465.03973 
L 242.5321 -464.278005 
L 224.826 -462.80795 
L 207.1199 -458.093236 
L 189.4138 -456.283894 
L 171.7077 -455.260372 
L 154.0016 -454.231721 
L 136.2955 -450.506128 
L 118.5894 -445.624073 
L 100.8833 -443.602533 
L 83.1772 -441.404916 
L 65.4711 -438.854786 
L 47.765 -434.902794 
z
" style="stroke: #9467bd; stroke-opacity: 0.2"/>
    </defs>
    <g clip-path="url(#p55e7c3b34f)">
     <use xlink:href="#md50cf59487" x="0" y="648" style="fill: #9467bd; fill-opacity: 0.2; stroke: #9467bd; stroke-opacity: 0.2"/>
    </g>
   </g>
   <g id="PolyCollection_6">
    <defs>
     <path id="m0f56718544" d="M 47.765 -478.426518 
L 47.765 -465.77381 
L 65.4711 -468.484982 
L 83.1772 -470.872283 
L 100.8833 -476.053841 
L 118.5894 -477.562416 
L 136.2955 -480.579991 
L 154.0016 -483.448393 
L 171.7077 -484.681462 
L 189.4138 -486.925218 
L 207.1199 -488.281047 
L 224.826 -490.581809 
L 242.5321 -493.411929 
L 260.2382 -494.886456 
L 277.9443 -496.143622 
L 295.6504 -497.301211 
L 313.3565 -498.240604 
L 331.0626 -499.747403 
L 348.7687 -502.291545 
L 366.4748 -504.209498 
L 384.1809 -505.106922 
L 401.887 -506.044897 
L 419.5931 -507.508329 
L 437.2992 -508.264023 
L 455.0053 -509.152588 
L 472.7114 -510.211728 
L 490.4175 -510.904451 
L 508.1236 -512.266216 
L 525.8297 -513.055967 
L 543.5358 -515.250666 
L 561.2419 -516.413392 
L 578.948 -517.862166 
L 596.6541 -520.302552 
L 614.3602 -522.813654 
L 632.0663 -526.940781 
L 649.7724 -529.507257 
L 667.4785 -531.149647 
L 685.1846 -534.797512 
L 702.8907 -538.392321 
L 720.5968 -538.960059 
L 738.3029 -541.960215 
L 756.009 -543.282764 
L 773.7151 -544.6544 
L 791.4212 -546.282124 
L 809.1273 -546.78608 
L 826.8334 -548.76598 
L 844.5395 -551.361818 
L 862.2456 -551.710158 
L 879.9517 -554.376427 
L 897.6578 -555.643489 
L 915.3639 -556.968449 
L 933.07 -559.67707 
L 933.07 -569.808624 
L 933.07 -569.808624 
L 915.3639 -569.483741 
L 897.6578 -568.124184 
L 879.9517 -567.297323 
L 862.2456 -565.480448 
L 844.5395 -564.083852 
L 826.8334 -563.216663 
L 809.1273 -562.270439 
L 791.4212 -560.761007 
L 773.7151 -559.05993 
L 756.009 -557.183301 
L 738.3029 -555.123358 
L 720.5968 -552.02966 
L 702.8907 -550.610856 
L 685.1846 -549.534606 
L 667.4785 -546.095345 
L 649.7724 -543.469353 
L 632.0663 -539.351382 
L 614.3602 -538.377927 
L 596.6541 -535.117317 
L 578.948 -531.463849 
L 561.2419 -530.926081 
L 543.5358 -530.263334 
L 525.8297 -527.948045 
L 508.1236 -526.858634 
L 490.4175 -526.394928 
L 472.7114 -525.342715 
L 455.0053 -524.415312 
L 437.2992 -523.666321 
L 419.5931 -522.757615 
L 401.887 -521.966053 
L 384.1809 -520.487963 
L 366.4748 -517.412301 
L 348.7687 -516.430976 
L 331.0626 -514.223523 
L 313.3565 -513.287412 
L 295.6504 -512.669784 
L 277.9443 -511.57238 
L 260.2382 -509.420209 
L 242.5321 -508.263909 
L 224.826 -505.080711 
L 207.1199 -503.757375 
L 189.4138 -499.851551 
L 171.7077 -496.269904 
L 154.0016 -493.852031 
L 136.2955 -491.458779 
L 118.5894 -488.516726 
L 100.8833 -485.058945 
L 83.1772 -483.63659 
L 65.4711 -480.923309 
L 47.765 -478.426518 
z
" style="stroke: #8c564b; stroke-opacity: 0.2"/>
    </defs>
    <g clip-path="url(#p55e7c3b34f)">
     <use xlink:href="#m0f56718544" x="0" y="648" style="fill: #8c564b; fill-opacity: 0.2; stroke: #8c564b; stroke-opacity: 0.2"/>
    </g>
   </g>
   <g id="PolyCollection_7">
    <defs>
     <path id="m34639a0ba1" d="M 47.765 -479.556891 
L 47.765 -469.153426 
L 65.4711 -473.777524 
L 83.1772 -476.674227 
L 100.8833 -480.005435 
L 118.5894 -482.363101 
L 136.2955 -484.117012 
L 154.0016 -486.285367 
L 171.7077 -488.121191 
L 189.4138 -490.613046 
L 207.1199 -493.172136 
L 224.826 -495.381552 
L 242.5321 -497.391194 
L 260.2382 -498.764608 
L 277.9443 -501.698811 
L 295.6504 -504.438235 
L 313.3565 -506.243851 
L 331.0626 -508.783743 
L 348.7687 -509.777693 
L 366.4748 -510.752781 
L 384.1809 -512.555504 
L 401.887 -515.858766 
L 419.5931 -518.132436 
L 437.2992 -520.428198 
L 455.0053 -522.643706 
L 472.7114 -524.84741 
L 490.4175 -526.90259 
L 508.1236 -528.506691 
L 525.8297 -532.368349 
L 543.5358 -533.13837 
L 561.2419 -536.544241 
L 578.948 -537.050432 
L 596.6541 -538.162664 
L 614.3602 -538.906484 
L 632.0663 -540.673423 
L 649.7724 -543.290047 
L 667.4785 -546.436102 
L 685.1846 -547.661178 
L 702.8907 -550.043934 
L 720.5968 -554.19858 
L 738.3029 -557.687363 
L 756.009 -558.056041 
L 773.7151 -563.486257 
L 791.4212 -564.032184 
L 809.1273 -564.348058 
L 826.8334 -564.694815 
L 844.5395 -567.044037 
L 862.2456 -567.750932 
L 879.9517 -568.683255 
L 897.6578 -570.431911 
L 915.3639 -572.026142 
L 933.07 -572.738611 
L 933.07 -579.780238 
L 933.07 -579.780238 
L 915.3639 -579.177294 
L 897.6578 -578.623912 
L 879.9517 -577.339064 
L 862.2456 -576.848593 
L 844.5395 -576.186384 
L 826.8334 -574.750437 
L 809.1273 -573.110652 
L 791.4212 -572.62117 
L 773.7151 -571.905375 
L 756.009 -569.362575 
L 738.3029 -568.201078 
L 720.5968 -567.663085 
L 702.8907 -567.576194 
L 685.1846 -565.90533 
L 667.4785 -562.486191 
L 649.7724 -559.10887 
L 632.0663 -557.645028 
L 614.3602 -555.868405 
L 596.6541 -554.598837 
L 578.948 -553.160778 
L 561.2419 -551.707271 
L 543.5358 -549.126669 
L 525.8297 -548.124909 
L 508.1236 -544.335693 
L 490.4175 -543.657955 
L 472.7114 -541.256837 
L 455.0053 -538.73579 
L 437.2992 -534.77691 
L 419.5931 -533.663335 
L 401.887 -530.648506 
L 384.1809 -527.750534 
L 366.4748 -527.029811 
L 348.7687 -524.434492 
L 331.0626 -522.82446 
L 313.3565 -518.438298 
L 295.6504 -515.787616 
L 277.9443 -512.916399 
L 260.2382 -509.783594 
L 242.5321 -508.150348 
L 224.826 -505.38155 
L 207.1199 -503.34943 
L 189.4138 -501.693827 
L 171.7077 -498.924029 
L 154.0016 -496.867303 
L 136.2955 -495.169954 
L 118.5894 -489.756204 
L 100.8833 -487.711262 
L 83.1772 -484.089571 
L 65.4711 -481.160873 
L 47.765 -479.556891 
z
" style="stroke: #e377c2; stroke-opacity: 0.2"/>
    </defs>
    <g clip-path="url(#p55e7c3b34f)">
     <use xlink:href="#m34639a0ba1" x="0" y="648" style="fill: #e377c2; fill-opacity: 0.2; stroke: #e377c2; stroke-opacity: 0.2"/>
    </g>
   </g>
   <g id="PolyCollection_8">
    <defs>
     <path id="m2ddbf9d5b5" d="M 47.765 -477.162118 
L 47.765 -468.917372 
L 65.4711 -470.837524 
L 83.1772 -474.22156 
L 100.8833 -478.61063 
L 118.5894 -481.384007 
L 136.2955 -483.397657 
L 154.0016 -485.397964 
L 171.7077 -487.207413 
L 189.4138 -488.427634 
L 207.1199 -490.377924 
L 224.826 -492.117859 
L 242.5321 -494.250552 
L 260.2382 -496.042863 
L 277.9443 -497.8625 
L 295.6504 -499.553919 
L 313.3565 -501.703928 
L 331.0626 -502.53943 
L 348.7687 -504.227574 
L 366.4748 -505.575014 
L 384.1809 -506.720211 
L 401.887 -507.461933 
L 419.5931 -508.738062 
L 437.2992 -509.617711 
L 455.0053 -510.904114 
L 472.7114 -511.540144 
L 490.4175 -511.374888 
L 508.1236 -512.472395 
L 525.8297 -515.039833 
L 543.5358 -519.303942 
L 561.2419 -520.439578 
L 578.948 -521.371161 
L 596.6541 -522.316605 
L 614.3602 -524.060911 
L 632.0663 -524.752376 
L 649.7724 -528.871499 
L 667.4785 -529.630107 
L 685.1846 -531.969853 
L 702.8907 -532.654617 
L 720.5968 -532.994185 
L 738.3029 -533.395202 
L 756.009 -534.901705 
L 773.7151 -538.259336 
L 791.4212 -542.173734 
L 809.1273 -543.072197 
L 826.8334 -549.342034 
L 844.5395 -551.431364 
L 862.2456 -551.835614 
L 879.9517 -552.516979 
L 897.6578 -552.679837 
L 915.3639 -553.923872 
L 933.07 -556.732178 
L 933.07 -565.344249 
L 933.07 -565.344249 
L 915.3639 -563.642566 
L 897.6578 -561.235658 
L 879.9517 -560.807922 
L 862.2456 -559.180602 
L 844.5395 -558.591581 
L 826.8334 -555.660865 
L 809.1273 -554.54828 
L 791.4212 -552.869606 
L 773.7151 -550.985447 
L 756.009 -549.859935 
L 738.3029 -547.581268 
L 720.5968 -547.12324 
L 702.8907 -546.550073 
L 685.1846 -545.624126 
L 667.4785 -544.178703 
L 649.7724 -543.407136 
L 632.0663 -540.653897 
L 614.3602 -539.734651 
L 596.6541 -537.505872 
L 578.948 -536.330547 
L 561.2419 -535.624575 
L 543.5358 -534.693133 
L 525.8297 -531.977497 
L 508.1236 -530.088637 
L 490.4175 -529.441209 
L 472.7114 -525.705544 
L 455.0053 -521.804741 
L 437.2992 -520.138175 
L 419.5931 -519.380268 
L 401.887 -517.488667 
L 384.1809 -516.458608 
L 366.4748 -513.603875 
L 348.7687 -512.293643 
L 331.0626 -510.760366 
L 313.3565 -509.743552 
L 295.6504 -508.027856 
L 277.9443 -505.934106 
L 260.2382 -504.398097 
L 242.5321 -502.324703 
L 224.826 -500.886989 
L 207.1199 -496.828367 
L 189.4138 -495.235095 
L 171.7077 -493.126514 
L 154.0016 -491.419246 
L 136.2955 -489.902835 
L 118.5894 -487.674948 
L 100.8833 -485.992027 
L 83.1772 -484.555696 
L 65.4711 -481.845877 
L 47.765 -477.162118 
z
" style="stroke: #7f7f7f; stroke-opacity: 0.2"/>
    </defs>
    <g clip-path="url(#p55e7c3b34f)">
     <use xlink:href="#m2ddbf9d5b5" x="0" y="648" style="fill: #7f7f7f; fill-opacity: 0.2; stroke: #7f7f7f; stroke-opacity: 0.2"/>
    </g>
   </g>
   <g id="PolyCollection_9">
    <defs>
     <path id="m7ec88f3207" d="M 47.765 -478.999201 
L 47.765 -470.597006 
L 65.4711 -474.421839 
L 83.1772 -476.784463 
L 100.8833 -479.46812 
L 118.5894 -481.44935 
L 136.2955 -483.023912 
L 154.0016 -484.835169 
L 171.7077 -487.558233 
L 189.4138 -488.8486 
L 207.1199 -490.022637 
L 224.826 -490.929228 
L 242.5321 -492.990827 
L 260.2382 -494.455522 
L 277.9443 -495.402354 
L 295.6504 -497.22005 
L 313.3565 -497.989072 
L 331.0626 -499.110241 
L 348.7687 -502.110532 
L 366.4748 -505.129239 
L 384.1809 -506.674429 
L 401.887 -507.347148 
L 419.5931 -508.76325 
L 437.2992 -517.628272 
L 455.0053 -519.359641 
L 472.7114 -520.565219 
L 490.4175 -522.519631 
L 508.1236 -525.368065 
L 525.8297 -525.907504 
L 543.5358 -526.606079 
L 561.2419 -527.162272 
L 578.948 -527.817389 
L 596.6541 -529.765377 
L 614.3602 -531.028636 
L 632.0663 -533.530951 
L 649.7724 -534.245462 
L 667.4785 -537.136676 
L 685.1846 -538.12284 
L 702.8907 -542.329405 
L 720.5968 -544.313364 
L 738.3029 -546.505684 
L 756.009 -548.355395 
L 773.7151 -551.838495 
L 791.4212 -552.208399 
L 809.1273 -555.471576 
L 826.8334 -555.767628 
L 844.5395 -556.357707 
L 862.2456 -557.074166 
L 879.9517 -559.630292 
L 897.6578 -561.239124 
L 915.3639 -563.129748 
L 933.07 -564.451955 
L 933.07 -569.355811 
L 933.07 -569.355811 
L 915.3639 -568.261952 
L 897.6578 -566.716395 
L 879.9517 -563.976309 
L 862.2456 -563.364706 
L 844.5395 -562.470454 
L 826.8334 -560.617623 
L 809.1273 -560.242545 
L 791.4212 -559.264186 
L 773.7151 -558.882424 
L 756.009 -557.452858 
L 738.3029 -556.752278 
L 720.5968 -556.018474 
L 702.8907 -553.411909 
L 685.1846 -551.068253 
L 667.4785 -550.577933 
L 649.7724 -548.422254 
L 632.0663 -547.955578 
L 614.3602 -547.290163 
L 596.6541 -545.89575 
L 578.948 -544.837079 
L 561.2419 -543.666725 
L 543.5358 -540.276677 
L 525.8297 -538.93502 
L 508.1236 -538.078509 
L 490.4175 -537.141774 
L 472.7114 -534.102985 
L 455.0053 -531.201252 
L 437.2992 -528.154181 
L 419.5931 -528.106606 
L 401.887 -527.240868 
L 384.1809 -525.363296 
L 366.4748 -520.948859 
L 348.7687 -519.189125 
L 331.0626 -513.760032 
L 313.3565 -512.089304 
L 295.6504 -510.952319 
L 277.9443 -505.307058 
L 260.2382 -504.079431 
L 242.5321 -502.13479 
L 224.826 -496.357598 
L 207.1199 -494.955505 
L 189.4138 -493.981928 
L 171.7077 -492.722004 
L 154.0016 -490.371331 
L 136.2955 -488.504799 
L 118.5894 -487.153238 
L 100.8833 -485.859357 
L 83.1772 -483.684038 
L 65.4711 -482.342029 
L 47.765 -478.999201 
z
" style="stroke: #bcbd22; stroke-opacity: 0.2"/>
    </defs>
    <g clip-path="url(#p55e7c3b34f)">
     <use xlink:href="#m7ec88f3207" x="0" y="648" style="fill: #bcbd22; fill-opacity: 0.2; stroke: #bcbd22; stroke-opacity: 0.2"/>
    </g>
   </g>
   <g id="PolyCollection_10">
    <defs>
     <path id="m4f113bbae8" d="M 47.765 -502.677791 
L 47.765 -493.09211 
L 65.4711 -495.539311 
L 83.1772 -501.122301 
L 100.8833 -505.852208 
L 118.5894 -510.070929 
L 136.2955 -511.20041 
L 154.0016 -516.346963 
L 171.7077 -519.915273 
L 189.4138 -521.360597 
L 207.1199 -523.67329 
L 224.826 -526.271482 
L 242.5321 -528.234125 
L 260.2382 -529.935368 
L 277.9443 -533.297679 
L 295.6504 -534.954172 
L 313.3565 -536.060768 
L 331.0626 -538.245068 
L 348.7687 -540.349796 
L 366.4748 -541.356525 
L 384.1809 -543.222949 
L 401.887 -544.353776 
L 419.5931 -545.461925 
L 437.2992 -547.887651 
L 455.0053 -549.44477 
L 472.7114 -550.676723 
L 490.4175 -551.572321 
L 508.1236 -553.015221 
L 525.8297 -554.5095 
L 543.5358 -555.433712 
L 561.2419 -557.990676 
L 578.948 -558.956884 
L 596.6541 -560.361782 
L 614.3602 -561.314896 
L 632.0663 -563.17534 
L 649.7724 -564.433105 
L 667.4785 -565.512557 
L 685.1846 -566.433509 
L 702.8907 -567.598791 
L 720.5968 -568.745791 
L 738.3029 -569.939441 
L 756.009 -570.534233 
L 773.7151 -571.87391 
L 791.4212 -572.71543 
L 809.1273 -573.759473 
L 826.8334 -574.661344 
L 844.5395 -575.36108 
L 862.2456 -576.447889 
L 879.9517 -577.489756 
L 897.6578 -578.26275 
L 915.3639 -578.978628 
L 933.07 -579.620601 
L 933.07 -582.481974 
L 933.07 -582.481974 
L 915.3639 -581.727998 
L 897.6578 -581.208999 
L 879.9517 -580.505509 
L 862.2456 -579.07762 
L 844.5395 -578.151041 
L 826.8334 -577.159532 
L 809.1273 -576.343312 
L 791.4212 -576.045096 
L 773.7151 -575.061145 
L 756.009 -574.360588 
L 738.3029 -573.183599 
L 720.5968 -571.612197 
L 702.8907 -571.067951 
L 685.1846 -570.13931 
L 667.4785 -569.288481 
L 649.7724 -568.48877 
L 632.0663 -567.652612 
L 614.3602 -566.560088 
L 596.6541 -565.123982 
L 578.948 -563.52222 
L 561.2419 -562.42135 
L 543.5358 -560.709932 
L 525.8297 -559.916053 
L 508.1236 -558.833196 
L 490.4175 -556.732533 
L 472.7114 -555.507362 
L 455.0053 -554.350096 
L 437.2992 -552.122046 
L 419.5931 -551.621648 
L 401.887 -549.830519 
L 384.1809 -547.71308 
L 366.4748 -546.707071 
L 348.7687 -545.27089 
L 331.0626 -543.214616 
L 313.3565 -541.049999 
L 295.6504 -538.371426 
L 277.9443 -536.806498 
L 260.2382 -535.578284 
L 242.5321 -534.326559 
L 224.826 -531.752369 
L 207.1199 -528.73992 
L 189.4138 -526.113102 
L 171.7077 -524.578612 
L 154.0016 -522.751042 
L 136.2955 -521.776896 
L 118.5894 -518.933292 
L 100.8833 -513.648823 
L 83.1772 -510.029882 
L 65.4711 -505.975455 
L 47.765 -502.677791 
z
" style="stroke: #17becf; stroke-opacity: 0.2"/>
    </defs>
    <g clip-path="url(#p55e7c3b34f)">
     <use xlink:href="#m4f113bbae8" x="0" y="648" style="fill: #17becf; fill-opacity: 0.2; stroke: #17becf; stroke-opacity: 0.2"/>
    </g>
   </g>
   <g id="PolyCollection_11">
    <defs>
     <path id="m5938824ab5" d="M 47.765 -491.410763 
L 47.765 -479.688426 
L 65.4711 -484.038629 
L 83.1772 -490.182912 
L 100.8833 -492.822789 
L 118.5894 -497.777044 
L 136.2955 -501.605822 
L 154.0016 -505.556577 
L 171.7077 -510.350046 
L 189.4138 -514.118953 
L 207.1199 -516.203873 
L 224.826 -518.593355 
L 242.5321 -520.215747 
L 260.2382 -521.236163 
L 277.9443 -522.962211 
L 295.6504 -525.794631 
L 313.3565 -527.085035 
L 331.0626 -530.931733 
L 348.7687 -532.823755 
L 366.4748 -534.404594 
L 384.1809 -536.585053 
L 401.887 -540.144837 
L 419.5931 -542.430499 
L 437.2992 -544.540565 
L 455.0053 -547.364629 
L 472.7114 -548.222227 
L 490.4175 -550.063651 
L 508.1236 -551.307878 
L 525.8297 -552.026636 
L 543.5358 -554.310538 
L 561.2419 -556.046744 
L 578.948 -557.156512 
L 596.6541 -558.985838 
L 614.3602 -559.896455 
L 632.0663 -560.804607 
L 649.7724 -561.900907 
L 667.4785 -563.279341 
L 685.1846 -563.901777 
L 702.8907 -564.971279 
L 720.5968 -565.794137 
L 738.3029 -567.063632 
L 756.009 -568.004959 
L 773.7151 -569.291954 
L 791.4212 -570.16487 
L 809.1273 -570.968063 
L 826.8334 -572.252837 
L 844.5395 -573.066487 
L 862.2456 -573.85625 
L 879.9517 -574.617791 
L 897.6578 -575.630014 
L 915.3639 -576.482912 
L 933.07 -576.742381 
L 933.07 -582.353535 
L 933.07 -582.353535 
L 915.3639 -581.512353 
L 897.6578 -579.976031 
L 879.9517 -579.216472 
L 862.2456 -578.259922 
L 844.5395 -577.46582 
L 826.8334 -576.480844 
L 809.1273 -575.75223 
L 791.4212 -574.273584 
L 773.7151 -573.213647 
L 756.009 -572.67517 
L 738.3029 -570.744065 
L 720.5968 -569.78541 
L 702.8907 -568.59488 
L 685.1846 -567.973137 
L 667.4785 -566.931172 
L 649.7724 -566.242528 
L 632.0663 -565.030143 
L 614.3602 -564.408121 
L 596.6541 -563.627492 
L 578.948 -562.128017 
L 561.2419 -560.20428 
L 543.5358 -559.121744 
L 525.8297 -558.452677 
L 508.1236 -557.721796 
L 490.4175 -555.556687 
L 472.7114 -554.149845 
L 455.0053 -553.128281 
L 437.2992 -551.657118 
L 419.5931 -550.518918 
L 401.887 -547.972449 
L 384.1809 -546.914864 
L 366.4748 -545.632296 
L 348.7687 -544.555463 
L 331.0626 -541.883806 
L 313.3565 -539.287663 
L 295.6504 -536.094924 
L 277.9443 -533.987833 
L 260.2382 -531.955557 
L 242.5321 -529.217649 
L 224.826 -525.95422 
L 207.1199 -523.645797 
L 189.4138 -521.086503 
L 171.7077 -518.868937 
L 154.0016 -517.837003 
L 136.2955 -515.425454 
L 118.5894 -509.777886 
L 100.8833 -503.752466 
L 83.1772 -498.526709 
L 65.4711 -494.711433 
L 47.765 -491.410763 
z
" style="stroke: #9edae5; stroke-opacity: 0.2"/>
    </defs>
    <g clip-path="url(#p55e7c3b34f)">
     <use xlink:href="#m5938824ab5" x="0" y="648" style="fill: #9edae5; fill-opacity: 0.2; stroke: #9edae5; stroke-opacity: 0.2"/>
    </g>
   </g>
   <g id="matplotlib.axis_1">
    <g id="xtick_1">
     <g id="line2d_1">
      <defs>
       <path id="m13a8e368d1" d="M 0 0 
L 0 3.5 
" style="stroke: #000000; stroke-width: 0.8"/>
      </defs>
      <g>
       <use xlink:href="#m13a8e368d1" x="47.765" y="606.04" style="stroke: #000000; stroke-width: 0.8"/>
      </g>
     </g>
     <g id="text_1">
      <!-- 30 -->
      <g transform="translate(41.4025 620.638438) scale(0.1 -0.1)">
       <defs>
        <path id="DejaVuSans-33" d="M 2597 2516 
Q 3050 2419 3304 2112 
Q 3559 1806 3559 1356 
Q 3559 666 3084 287 
Q 2609 -91 1734 -91 
Q 1441 -91 1130 -33 
Q 819 25 488 141 
L 488 750 
Q 750 597 1062 519 
Q 1375 441 1716 441 
Q 2309 441 2620 675 
Q 2931 909 2931 1356 
Q 2931 1769 2642 2001 
Q 2353 2234 1838 2234 
L 1294 2234 
L 1294 2753 
L 1863 2753 
Q 2328 2753 2575 2939 
Q 2822 3125 2822 3475 
Q 2822 3834 2567 4026 
Q 2313 4219 1838 4219 
Q 1578 4219 1281 4162 
Q 984 4106 628 3988 
L 628 4550 
Q 988 4650 1302 4700 
Q 1616 4750 1894 4750 
Q 2613 4750 3031 4423 
Q 3450 4097 3450 3541 
Q 3450 3153 3228 2886 
Q 3006 2619 2597 2516 
z
" transform="scale(0.015625)"/>
        <path id="DejaVuSans-30" d="M 2034 4250 
Q 1547 4250 1301 3770 
Q 1056 3291 1056 2328 
Q 1056 1369 1301 889 
Q 1547 409 2034 409 
Q 2525 409 2770 889 
Q 3016 1369 3016 2328 
Q 3016 3291 2770 3770 
Q 2525 4250 2034 4250 
z
M 2034 4750 
Q 2819 4750 3233 4129 
Q 3647 3509 3647 2328 
Q 3647 1150 3233 529 
Q 2819 -91 2034 -91 
Q 1250 -91 836 529 
Q 422 1150 422 2328 
Q 422 3509 836 4129 
Q 1250 4750 2034 4750 
z
" transform="scale(0.015625)"/>
       </defs>
       <use xlink:href="#DejaVuSans-33"/>
       <use xlink:href="#DejaVuSans-30" x="63.623047"/>
      </g>
     </g>
    </g>
    <g id="xtick_2">
     <g id="line2d_2">
      <g>
       <use xlink:href="#m13a8e368d1" x="224.826" y="606.04" style="stroke: #000000; stroke-width: 0.8"/>
      </g>
     </g>
     <g id="text_2">
      <!-- 40 -->
      <g transform="translate(218.4635 620.638438) scale(0.1 -0.1)">
       <defs>
        <path id="DejaVuSans-34" d="M 2419 4116 
L 825 1625 
L 2419 1625 
L 2419 4116 
z
M 2253 4666 
L 3047 4666 
L 3047 1625 
L 3713 1625 
L 3713 1100 
L 3047 1100 
L 3047 0 
L 2419 0 
L 2419 1100 
L 313 1100 
L 313 1709 
L 2253 4666 
z
" transform="scale(0.015625)"/>
       </defs>
       <use xlink:href="#DejaVuSans-34"/>
       <use xlink:href="#DejaVuSans-30" x="63.623047"/>
      </g>
     </g>
    </g>
    <g id="xtick_3">
     <g id="line2d_3">
      <g>
       <use xlink:href="#m13a8e368d1" x="401.887" y="606.04" style="stroke: #000000; stroke-width: 0.8"/>
      </g>
     </g>
     <g id="text_3">
      <!-- 50 -->
      <g transform="translate(395.5245 620.638438) scale(0.1 -0.1)">
       <defs>
        <path id="DejaVuSans-35" d="M 691 4666 
L 3169 4666 
L 3169 4134 
L 1269 4134 
L 1269 2991 
Q 1406 3038 1543 3061 
Q 1681 3084 1819 3084 
Q 2600 3084 3056 2656 
Q 3513 2228 3513 1497 
Q 3513 744 3044 326 
Q 2575 -91 1722 -91 
Q 1428 -91 1123 -41 
Q 819 9 494 109 
L 494 744 
Q 775 591 1075 516 
Q 1375 441 1709 441 
Q 2250 441 2565 725 
Q 2881 1009 2881 1497 
Q 2881 1984 2565 2268 
Q 2250 2553 1709 2553 
Q 1456 2553 1204 2497 
Q 953 2441 691 2322 
L 691 4666 
z
" transform="scale(0.015625)"/>
       </defs>
       <use xlink:href="#DejaVuSans-35"/>
       <use xlink:href="#DejaVuSans-30" x="63.623047"/>
      </g>
     </g>
    </g>
    <g id="xtick_4">
     <g id="line2d_4">
      <g>
       <use xlink:href="#m13a8e368d1" x="578.948" y="606.04" style="stroke: #000000; stroke-width: 0.8"/>
      </g>
     </g>
     <g id="text_4">
      <!-- 60 -->
      <g transform="translate(572.5855 620.638438) scale(0.1 -0.1)">
       <defs>
        <path id="DejaVuSans-36" d="M 2113 2584 
Q 1688 2584 1439 2293 
Q 1191 2003 1191 1497 
Q 1191 994 1439 701 
Q 1688 409 2113 409 
Q 2538 409 2786 701 
Q 3034 994 3034 1497 
Q 3034 2003 2786 2293 
Q 2538 2584 2113 2584 
z
M 3366 4563 
L 3366 3988 
Q 3128 4100 2886 4159 
Q 2644 4219 2406 4219 
Q 1781 4219 1451 3797 
Q 1122 3375 1075 2522 
Q 1259 2794 1537 2939 
Q 1816 3084 2150 3084 
Q 2853 3084 3261 2657 
Q 3669 2231 3669 1497 
Q 3669 778 3244 343 
Q 2819 -91 2113 -91 
Q 1303 -91 875 529 
Q 447 1150 447 2328 
Q 447 3434 972 4092 
Q 1497 4750 2381 4750 
Q 2619 4750 2861 4703 
Q 3103 4656 3366 4563 
z
" transform="scale(0.015625)"/>
       </defs>
       <use xlink:href="#DejaVuSans-36"/>
       <use xlink:href="#DejaVuSans-30" x="63.623047"/>
      </g>
     </g>
    </g>
    <g id="xtick_5">
     <g id="line2d_5">
      <g>
       <use xlink:href="#m13a8e368d1" x="756.009" y="606.04" style="stroke: #000000; stroke-width: 0.8"/>
      </g>
     </g>
     <g id="text_5">
      <!-- 70 -->
      <g transform="translate(749.6465 620.638438) scale(0.1 -0.1)">
       <defs>
        <path id="DejaVuSans-37" d="M 525 4666 
L 3525 4666 
L 3525 4397 
L 1831 0 
L 1172 0 
L 2766 4134 
L 525 4134 
L 525 4666 
z
" transform="scale(0.015625)"/>
       </defs>
       <use xlink:href="#DejaVuSans-37"/>
       <use xlink:href="#DejaVuSans-30" x="63.623047"/>
      </g>
     </g>
    </g>
    <g id="xtick_6">
     <g id="line2d_6">
      <g>
       <use xlink:href="#m13a8e368d1" x="933.07" y="606.04" style="stroke: #000000; stroke-width: 0.8"/>
      </g>
     </g>
     <g id="text_6">
      <!-- 80 -->
      <g transform="translate(926.7075 620.638438) scale(0.1 -0.1)">
       <defs>
        <path id="DejaVuSans-38" d="M 2034 2216 
Q 1584 2216 1326 1975 
Q 1069 1734 1069 1313 
Q 1069 891 1326 650 
Q 1584 409 2034 409 
Q 2484 409 2743 651 
Q 3003 894 3003 1313 
Q 3003 1734 2745 1975 
Q 2488 2216 2034 2216 
z
M 1403 2484 
Q 997 2584 770 2862 
Q 544 3141 544 3541 
Q 544 4100 942 4425 
Q 1341 4750 2034 4750 
Q 2731 4750 3128 4425 
Q 3525 4100 3525 3541 
Q 3525 3141 3298 2862 
Q 3072 2584 2669 2484 
Q 3125 2378 3379 2068 
Q 3634 1759 3634 1313 
Q 3634 634 3220 271 
Q 2806 -91 2034 -91 
Q 1263 -91 848 271 
Q 434 634 434 1313 
Q 434 1759 690 2068 
Q 947 2378 1403 2484 
z
M 1172 3481 
Q 1172 3119 1398 2916 
Q 1625 2713 2034 2713 
Q 2441 2713 2670 2916 
Q 2900 3119 2900 3481 
Q 2900 3844 2670 4047 
Q 2441 4250 2034 4250 
Q 1625 4250 1398 4047 
Q 1172 3844 1172 3481 
z
" transform="scale(0.015625)"/>
       </defs>
       <use xlink:href="#DejaVuSans-38"/>
       <use xlink:href="#DejaVuSans-30" x="63.623047"/>
      </g>
     </g>
    </g>
    <g id="text_7">
     <!-- Number of Baits -->
     <g transform="translate(449.885469 634.316563) scale(0.1 -0.1)">
      <defs>
       <path id="DejaVuSans-4e" d="M 628 4666 
L 1478 4666 
L 3547 763 
L 3547 4666 
L 4159 4666 
L 4159 0 
L 3309 0 
L 1241 3903 
L 1241 0 
L 628 0 
L 628 4666 
z
" transform="scale(0.015625)"/>
       <path id="DejaVuSans-75" d="M 544 1381 
L 544 3500 
L 1119 3500 
L 1119 1403 
Q 1119 906 1312 657 
Q 1506 409 1894 409 
Q 2359 409 2629 706 
Q 2900 1003 2900 1516 
L 2900 3500 
L 3475 3500 
L 3475 0 
L 2900 0 
L 2900 538 
Q 2691 219 2414 64 
Q 2138 -91 1772 -91 
Q 1169 -91 856 284 
Q 544 659 544 1381 
z
M 1991 3584 
L 1991 3584 
z
" transform="scale(0.015625)"/>
       <path id="DejaVuSans-6d" d="M 3328 2828 
Q 3544 3216 3844 3400 
Q 4144 3584 4550 3584 
Q 5097 3584 5394 3201 
Q 5691 2819 5691 2113 
L 5691 0 
L 5113 0 
L 5113 2094 
Q 5113 2597 4934 2840 
Q 4756 3084 4391 3084 
Q 3944 3084 3684 2787 
Q 3425 2491 3425 1978 
L 3425 0 
L 2847 0 
L 2847 2094 
Q 2847 2600 2669 2842 
Q 2491 3084 2119 3084 
Q 1678 3084 1418 2786 
Q 1159 2488 1159 1978 
L 1159 0 
L 581 0 
L 581 3500 
L 1159 3500 
L 1159 2956 
Q 1356 3278 1631 3431 
Q 1906 3584 2284 3584 
Q 2666 3584 2933 3390 
Q 3200 3197 3328 2828 
z
" transform="scale(0.015625)"/>
       <path id="DejaVuSans-62" d="M 3116 1747 
Q 3116 2381 2855 2742 
Q 2594 3103 2138 3103 
Q 1681 3103 1420 2742 
Q 1159 2381 1159 1747 
Q 1159 1113 1420 752 
Q 1681 391 2138 391 
Q 2594 391 2855 752 
Q 3116 1113 3116 1747 
z
M 1159 2969 
Q 1341 3281 1617 3432 
Q 1894 3584 2278 3584 
Q 2916 3584 3314 3078 
Q 3713 2572 3713 1747 
Q 3713 922 3314 415 
Q 2916 -91 2278 -91 
Q 1894 -91 1617 61 
Q 1341 213 1159 525 
L 1159 0 
L 581 0 
L 581 4863 
L 1159 4863 
L 1159 2969 
z
" transform="scale(0.015625)"/>
       <path id="DejaVuSans-65" d="M 3597 1894 
L 3597 1613 
L 953 1613 
Q 991 1019 1311 708 
Q 1631 397 2203 397 
Q 2534 397 2845 478 
Q 3156 559 3463 722 
L 3463 178 
Q 3153 47 2828 -22 
Q 2503 -91 2169 -91 
Q 1331 -91 842 396 
Q 353 884 353 1716 
Q 353 2575 817 3079 
Q 1281 3584 2069 3584 
Q 2775 3584 3186 3129 
Q 3597 2675 3597 1894 
z
M 3022 2063 
Q 3016 2534 2758 2815 
Q 2500 3097 2075 3097 
Q 1594 3097 1305 2825 
Q 1016 2553 972 2059 
L 3022 2063 
z
" transform="scale(0.015625)"/>
       <path id="DejaVuSans-72" d="M 2631 2963 
Q 2534 3019 2420 3045 
Q 2306 3072 2169 3072 
Q 1681 3072 1420 2755 
Q 1159 2438 1159 1844 
L 1159 0 
L 581 0 
L 581 3500 
L 1159 3500 
L 1159 2956 
Q 1341 3275 1631 3429 
Q 1922 3584 2338 3584 
Q 2397 3584 2469 3576 
Q 2541 3569 2628 3553 
L 2631 2963 
z
" transform="scale(0.015625)"/>
       <path id="DejaVuSans-20" transform="scale(0.015625)"/>
       <path id="DejaVuSans-6f" d="M 1959 3097 
Q 1497 3097 1228 2736 
Q 959 2375 959 1747 
Q 959 1119 1226 758 
Q 1494 397 1959 397 
Q 2419 397 2687 759 
Q 2956 1122 2956 1747 
Q 2956 2369 2687 2733 
Q 2419 3097 1959 3097 
z
M 1959 3584 
Q 2709 3584 3137 3096 
Q 3566 2609 3566 1747 
Q 3566 888 3137 398 
Q 2709 -91 1959 -91 
Q 1206 -91 779 398 
Q 353 888 353 1747 
Q 353 2609 779 3096 
Q 1206 3584 1959 3584 
z
" transform="scale(0.015625)"/>
       <path id="DejaVuSans-66" d="M 2375 4863 
L 2375 4384 
L 1825 4384 
Q 1516 4384 1395 4259 
Q 1275 4134 1275 3809 
L 1275 3500 
L 2222 3500 
L 2222 3053 
L 1275 3053 
L 1275 0 
L 697 0 
L 697 3053 
L 147 3053 
L 147 3500 
L 697 3500 
L 697 3744 
Q 697 4328 969 4595 
Q 1241 4863 1831 4863 
L 2375 4863 
z
" transform="scale(0.015625)"/>
       <path id="DejaVuSans-42" d="M 1259 2228 
L 1259 519 
L 2272 519 
Q 2781 519 3026 730 
Q 3272 941 3272 1375 
Q 3272 1813 3026 2020 
Q 2781 2228 2272 2228 
L 1259 2228 
z
M 1259 4147 
L 1259 2741 
L 2194 2741 
Q 2656 2741 2882 2914 
Q 3109 3088 3109 3444 
Q 3109 3797 2882 3972 
Q 2656 4147 2194 4147 
L 1259 4147 
z
M 628 4666 
L 2241 4666 
Q 2963 4666 3353 4366 
Q 3744 4066 3744 3513 
Q 3744 3084 3544 2831 
Q 3344 2578 2956 2516 
Q 3422 2416 3680 2098 
Q 3938 1781 3938 1306 
Q 3938 681 3513 340 
Q 3088 0 2303 0 
L 628 0 
L 628 4666 
z
" transform="scale(0.015625)"/>
       <path id="DejaVuSans-61" d="M 2194 1759 
Q 1497 1759 1228 1600 
Q 959 1441 959 1056 
Q 959 750 1161 570 
Q 1363 391 1709 391 
Q 2188 391 2477 730 
Q 2766 1069 2766 1631 
L 2766 1759 
L 2194 1759 
z
M 3341 1997 
L 3341 0 
L 2766 0 
L 2766 531 
Q 2569 213 2275 61 
Q 1981 -91 1556 -91 
Q 1019 -91 701 211 
Q 384 513 384 1019 
Q 384 1609 779 1909 
Q 1175 2209 1959 2209 
L 2766 2209 
L 2766 2266 
Q 2766 2663 2505 2880 
Q 2244 3097 1772 3097 
Q 1472 3097 1187 3025 
Q 903 2953 641 2809 
L 641 3341 
Q 956 3463 1253 3523 
Q 1550 3584 1831 3584 
Q 2591 3584 2966 3190 
Q 3341 2797 3341 1997 
z
" transform="scale(0.015625)"/>
       <path id="DejaVuSans-69" d="M 603 3500 
L 1178 3500 
L 1178 0 
L 603 0 
L 603 3500 
z
M 603 4863 
L 1178 4863 
L 1178 4134 
L 603 4134 
L 603 4863 
z
" transform="scale(0.015625)"/>
       <path id="DejaVuSans-74" d="M 1172 4494 
L 1172 3500 
L 2356 3500 
L 2356 3053 
L 1172 3053 
L 1172 1153 
Q 1172 725 1289 603 
Q 1406 481 1766 481 
L 2356 481 
L 2356 0 
L 1766 0 
Q 1100 0 847 248 
Q 594 497 594 1153 
L 594 3053 
L 172 3053 
L 172 3500 
L 594 3500 
L 594 4494 
L 1172 4494 
z
" transform="scale(0.015625)"/>
       <path id="DejaVuSans-73" d="M 2834 3397 
L 2834 2853 
Q 2591 2978 2328 3040 
Q 2066 3103 1784 3103 
Q 1356 3103 1142 2972 
Q 928 2841 928 2578 
Q 928 2378 1081 2264 
Q 1234 2150 1697 2047 
L 1894 2003 
Q 2506 1872 2764 1633 
Q 3022 1394 3022 966 
Q 3022 478 2636 193 
Q 2250 -91 1575 -91 
Q 1294 -91 989 -36 
Q 684 19 347 128 
L 347 722 
Q 666 556 975 473 
Q 1284 391 1588 391 
Q 1994 391 2212 530 
Q 2431 669 2431 922 
Q 2431 1156 2273 1281 
Q 2116 1406 1581 1522 
L 1381 1569 
Q 847 1681 609 1914 
Q 372 2147 372 2553 
Q 372 3047 722 3315 
Q 1072 3584 1716 3584 
Q 2034 3584 2315 3537 
Q 2597 3491 2834 3397 
z
" transform="scale(0.015625)"/>
      </defs>
      <use xlink:href="#DejaVuSans-4e"/>
      <use xlink:href="#DejaVuSans-75" x="74.804688"/>
      <use xlink:href="#DejaVuSans-6d" x="138.183594"/>
      <use xlink:href="#DejaVuSans-62" x="235.595703"/>
      <use xlink:href="#DejaVuSans-65" x="299.072266"/>
      <use xlink:href="#DejaVuSans-72" x="360.595703"/>
      <use xlink:href="#DejaVuSans-20" x="401.708984"/>
      <use xlink:href="#DejaVuSans-6f" x="433.496094"/>
      <use xlink:href="#DejaVuSans-66" x="494.677734"/>
      <use xlink:href="#DejaVuSans-20" x="529.882812"/>
      <use xlink:href="#DejaVuSans-42" x="561.669922"/>
      <use xlink:href="#DejaVuSans-61" x="630.273438"/>
      <use xlink:href="#DejaVuSans-69" x="691.552734"/>
      <use xlink:href="#DejaVuSans-74" x="719.335938"/>
      <use xlink:href="#DejaVuSans-73" x="758.544922"/>
     </g>
    </g>
   </g>
   <g id="matplotlib.axis_2">
    <g id="ytick_1">
     <g id="line2d_7">
      <defs>
       <path id="mc2cbcb41c7" d="M 0 0 
L -3.5 0 
" style="stroke: #000000; stroke-width: 0.8"/>
      </defs>
      <g>
       <use xlink:href="#mc2cbcb41c7" x="47.765" y="606.04" style="stroke: #000000; stroke-width: 0.8"/>
      </g>
     </g>
     <g id="text_8">
      <!-- 0.0 -->
      <g transform="translate(24.861875 609.839219) scale(0.1 -0.1)">
       <defs>
        <path id="DejaVuSans-2e" d="M 684 794 
L 1344 794 
L 1344 0 
L 684 0 
L 684 794 
z
" transform="scale(0.015625)"/>
       </defs>
       <use xlink:href="#DejaVuSans-30"/>
       <use xlink:href="#DejaVuSans-2e" x="63.623047"/>
       <use xlink:href="#DejaVuSans-30" x="95.410156"/>
      </g>
     </g>
    </g>
    <g id="ytick_2">
     <g id="line2d_8">
      <g>
       <use xlink:href="#mc2cbcb41c7" x="47.765" y="490.9816" style="stroke: #000000; stroke-width: 0.8"/>
      </g>
     </g>
     <g id="text_9">
      <!-- 0.2 -->
      <g transform="translate(24.861875 494.780819) scale(0.1 -0.1)">
       <defs>
        <path id="DejaVuSans-32" d="M 1228 531 
L 3431 531 
L 3431 0 
L 469 0 
L 469 531 
Q 828 903 1448 1529 
Q 2069 2156 2228 2338 
Q 2531 2678 2651 2914 
Q 2772 3150 2772 3378 
Q 2772 3750 2511 3984 
Q 2250 4219 1831 4219 
Q 1534 4219 1204 4116 
Q 875 4013 500 3803 
L 500 4441 
Q 881 4594 1212 4672 
Q 1544 4750 1819 4750 
Q 2544 4750 2975 4387 
Q 3406 4025 3406 3419 
Q 3406 3131 3298 2873 
Q 3191 2616 2906 2266 
Q 2828 2175 2409 1742 
Q 1991 1309 1228 531 
z
" transform="scale(0.015625)"/>
       </defs>
       <use xlink:href="#DejaVuSans-30"/>
       <use xlink:href="#DejaVuSans-2e" x="63.623047"/>
       <use xlink:href="#DejaVuSans-32" x="95.410156"/>
      </g>
     </g>
    </g>
    <g id="ytick_3">
     <g id="line2d_9">
      <g>
       <use xlink:href="#mc2cbcb41c7" x="47.765" y="375.9232" style="stroke: #000000; stroke-width: 0.8"/>
      </g>
     </g>
     <g id="text_10">
      <!-- 0.4 -->
      <g transform="translate(24.861875 379.722419) scale(0.1 -0.1)">
       <use xlink:href="#DejaVuSans-30"/>
       <use xlink:href="#DejaVuSans-2e" x="63.623047"/>
       <use xlink:href="#DejaVuSans-34" x="95.410156"/>
      </g>
     </g>
    </g>
    <g id="ytick_4">
     <g id="line2d_10">
      <g>
       <use xlink:href="#mc2cbcb41c7" x="47.765" y="260.8648" style="stroke: #000000; stroke-width: 0.8"/>
      </g>
     </g>
     <g id="text_11">
      <!-- 0.6 -->
      <g transform="translate(24.861875 264.664019) scale(0.1 -0.1)">
       <use xlink:href="#DejaVuSans-30"/>
       <use xlink:href="#DejaVuSans-2e" x="63.623047"/>
       <use xlink:href="#DejaVuSans-36" x="95.410156"/>
      </g>
     </g>
    </g>
    <g id="ytick_5">
     <g id="line2d_11">
      <g>
       <use xlink:href="#mc2cbcb41c7" x="47.765" y="145.8064" style="stroke: #000000; stroke-width: 0.8"/>
      </g>
     </g>
     <g id="text_12">
      <!-- 0.8 -->
      <g transform="translate(24.861875 149.605619) scale(0.1 -0.1)">
       <use xlink:href="#DejaVuSans-30"/>
       <use xlink:href="#DejaVuSans-2e" x="63.623047"/>
       <use xlink:href="#DejaVuSans-38" x="95.410156"/>
      </g>
     </g>
    </g>
    <g id="ytick_6">
     <g id="line2d_12">
      <g>
       <use xlink:href="#mc2cbcb41c7" x="47.765" y="30.748" style="stroke: #000000; stroke-width: 0.8"/>
      </g>
     </g>
     <g id="text_13">
      <!-- 1.0 -->
      <g transform="translate(24.861875 34.547219) scale(0.1 -0.1)">
       <defs>
        <path id="DejaVuSans-31" d="M 794 531 
L 1825 531 
L 1825 4091 
L 703 3866 
L 703 4441 
L 1819 4666 
L 2450 4666 
L 2450 531 
L 3481 531 
L 3481 0 
L 794 0 
L 794 531 
z
" transform="scale(0.015625)"/>
       </defs>
       <use xlink:href="#DejaVuSans-31"/>
       <use xlink:href="#DejaVuSans-2e" x="63.623047"/>
       <use xlink:href="#DejaVuSans-30" x="95.410156"/>
      </g>
     </g>
    </g>
    <g id="text_14">
     <!-- Aggregated NMF remaining preys  -->
     <g transform="translate(18.782187 403.919781) rotate(-90) scale(0.1 -0.1)">
      <defs>
       <path id="DejaVuSans-41" d="M 2188 4044 
L 1331 1722 
L 3047 1722 
L 2188 4044 
z
M 1831 4666 
L 2547 4666 
L 4325 0 
L 3669 0 
L 3244 1197 
L 1141 1197 
L 716 0 
L 50 0 
L 1831 4666 
z
" transform="scale(0.015625)"/>
       <path id="DejaVuSans-67" d="M 2906 1791 
Q 2906 2416 2648 2759 
Q 2391 3103 1925 3103 
Q 1463 3103 1205 2759 
Q 947 2416 947 1791 
Q 947 1169 1205 825 
Q 1463 481 1925 481 
Q 2391 481 2648 825 
Q 2906 1169 2906 1791 
z
M 3481 434 
Q 3481 -459 3084 -895 
Q 2688 -1331 1869 -1331 
Q 1566 -1331 1297 -1286 
Q 1028 -1241 775 -1147 
L 775 -588 
Q 1028 -725 1275 -790 
Q 1522 -856 1778 -856 
Q 2344 -856 2625 -561 
Q 2906 -266 2906 331 
L 2906 616 
Q 2728 306 2450 153 
Q 2172 0 1784 0 
Q 1141 0 747 490 
Q 353 981 353 1791 
Q 353 2603 747 3093 
Q 1141 3584 1784 3584 
Q 2172 3584 2450 3431 
Q 2728 3278 2906 2969 
L 2906 3500 
L 3481 3500 
L 3481 434 
z
" transform="scale(0.015625)"/>
       <path id="DejaVuSans-64" d="M 2906 2969 
L 2906 4863 
L 3481 4863 
L 3481 0 
L 2906 0 
L 2906 525 
Q 2725 213 2448 61 
Q 2172 -91 1784 -91 
Q 1150 -91 751 415 
Q 353 922 353 1747 
Q 353 2572 751 3078 
Q 1150 3584 1784 3584 
Q 2172 3584 2448 3432 
Q 2725 3281 2906 2969 
z
M 947 1747 
Q 947 1113 1208 752 
Q 1469 391 1925 391 
Q 2381 391 2643 752 
Q 2906 1113 2906 1747 
Q 2906 2381 2643 2742 
Q 2381 3103 1925 3103 
Q 1469 3103 1208 2742 
Q 947 2381 947 1747 
z
" transform="scale(0.015625)"/>
       <path id="DejaVuSans-4d" d="M 628 4666 
L 1569 4666 
L 2759 1491 
L 3956 4666 
L 4897 4666 
L 4897 0 
L 4281 0 
L 4281 4097 
L 3078 897 
L 2444 897 
L 1241 4097 
L 1241 0 
L 628 0 
L 628 4666 
z
" transform="scale(0.015625)"/>
       <path id="DejaVuSans-46" d="M 628 4666 
L 3309 4666 
L 3309 4134 
L 1259 4134 
L 1259 2759 
L 3109 2759 
L 3109 2228 
L 1259 2228 
L 1259 0 
L 628 0 
L 628 4666 
z
" transform="scale(0.015625)"/>
       <path id="DejaVuSans-6e" d="M 3513 2113 
L 3513 0 
L 2938 0 
L 2938 2094 
Q 2938 2591 2744 2837 
Q 2550 3084 2163 3084 
Q 1697 3084 1428 2787 
Q 1159 2491 1159 1978 
L 1159 0 
L 581 0 
L 581 3500 
L 1159 3500 
L 1159 2956 
Q 1366 3272 1645 3428 
Q 1925 3584 2291 3584 
Q 2894 3584 3203 3211 
Q 3513 2838 3513 2113 
z
" transform="scale(0.015625)"/>
       <path id="DejaVuSans-70" d="M 1159 525 
L 1159 -1331 
L 581 -1331 
L 581 3500 
L 1159 3500 
L 1159 2969 
Q 1341 3281 1617 3432 
Q 1894 3584 2278 3584 
Q 2916 3584 3314 3078 
Q 3713 2572 3713 1747 
Q 3713 922 3314 415 
Q 2916 -91 2278 -91 
Q 1894 -91 1617 61 
Q 1341 213 1159 525 
z
M 3116 1747 
Q 3116 2381 2855 2742 
Q 2594 3103 2138 3103 
Q 1681 3103 1420 2742 
Q 1159 2381 1159 1747 
Q 1159 1113 1420 752 
Q 1681 391 2138 391 
Q 2594 391 2855 752 
Q 3116 1113 3116 1747 
z
" transform="scale(0.015625)"/>
       <path id="DejaVuSans-79" d="M 2059 -325 
Q 1816 -950 1584 -1140 
Q 1353 -1331 966 -1331 
L 506 -1331 
L 506 -850 
L 844 -850 
Q 1081 -850 1212 -737 
Q 1344 -625 1503 -206 
L 1606 56 
L 191 3500 
L 800 3500 
L 1894 763 
L 2988 3500 
L 3597 3500 
L 2059 -325 
z
" transform="scale(0.015625)"/>
      </defs>
      <use xlink:href="#DejaVuSans-41"/>
      <use xlink:href="#DejaVuSans-67" x="68.408203"/>
      <use xlink:href="#DejaVuSans-67" x="131.884766"/>
      <use xlink:href="#DejaVuSans-72" x="195.361328"/>
      <use xlink:href="#DejaVuSans-65" x="234.224609"/>
      <use xlink:href="#DejaVuSans-67" x="295.748047"/>
      <use xlink:href="#DejaVuSans-61" x="359.224609"/>
      <use xlink:href="#DejaVuSans-74" x="420.503906"/>
      <use xlink:href="#DejaVuSans-65" x="459.712891"/>
      <use xlink:href="#DejaVuSans-64" x="521.236328"/>
      <use xlink:href="#DejaVuSans-20" x="584.712891"/>
      <use xlink:href="#DejaVuSans-4e" x="616.5"/>
      <use xlink:href="#DejaVuSans-4d" x="691.304688"/>
      <use xlink:href="#DejaVuSans-46" x="777.583984"/>
      <use xlink:href="#DejaVuSans-20" x="835.103516"/>
      <use xlink:href="#DejaVuSans-72" x="866.890625"/>
      <use xlink:href="#DejaVuSans-65" x="905.753906"/>
      <use xlink:href="#DejaVuSans-6d" x="967.277344"/>
      <use xlink:href="#DejaVuSans-61" x="1064.689453"/>
      <use xlink:href="#DejaVuSans-69" x="1125.96875"/>
      <use xlink:href="#DejaVuSans-6e" x="1153.751953"/>
      <use xlink:href="#DejaVuSans-69" x="1217.130859"/>
      <use xlink:href="#DejaVuSans-6e" x="1244.914062"/>
      <use xlink:href="#DejaVuSans-67" x="1308.292969"/>
      <use xlink:href="#DejaVuSans-20" x="1371.769531"/>
      <use xlink:href="#DejaVuSans-70" x="1403.556641"/>
      <use xlink:href="#DejaVuSans-72" x="1467.033203"/>
      <use xlink:href="#DejaVuSans-65" x="1505.896484"/>
      <use xlink:href="#DejaVuSans-79" x="1567.419922"/>
      <use xlink:href="#DejaVuSans-73" x="1626.599609"/>
      <use xlink:href="#DejaVuSans-20" x="1678.699219"/>
     </g>
    </g>
   </g>
   <g id="line2d_13">
    <path d="M 47.765 182.933271 
L 65.4711 174.758916 
L 83.1772 167.725482 
L 100.8833 168.816067 
L 118.5894 161.551092 
L 136.2955 157.59143 
L 154.0016 157.067949 
L 171.7077 152.732454 
L 189.4138 146.195655 
L 207.1199 145.175538 
L 224.826 145.08158 
L 242.5321 141.766202 
L 260.2382 135.202558 
L 277.9443 136.652197 
L 295.6504 133.900567 
L 313.3565 131.820066 
L 331.0626 129.24293 
L 348.7687 127.484571 
L 366.4748 128.088588 
L 384.1809 124.410799 
L 401.887 119.900811 
L 419.5931 121.283337 
L 437.2992 121.310182 
L 455.0053 115.860613 
L 472.7114 115.082103 
L 490.4175 115.12237 
L 508.1236 114.035141 
L 525.8297 113.981451 
L 543.5358 113.803974 
L 561.2419 109.458039 
L 578.948 108.73322 
L 596.6541 105.914477 
L 614.3602 103.884311 
L 632.0663 103.766863 
L 649.7724 101.176304 
L 667.4785 97.816184 
L 685.1846 96.303906 
L 702.8907 97.740123 
L 720.5968 93.458318 
L 738.3029 94.438167 
L 756.009 92.666385 
L 773.7151 92.37258 
L 791.4212 91.089977 
L 809.1273 89.05571 
L 826.8334 87.565803 
L 844.5395 85.88798 
L 862.2456 86.814138 
L 879.9517 85.377922 
L 897.6578 85.203428 
L 915.3639 83.856695 
L 933.07 81.029004 
" clip-path="url(#p55e7c3b34f)" style="fill: none; stroke: #1f77b4; stroke-width: 1.5; stroke-linecap: square"/>
   </g>
   <g id="line2d_14">
    <path d="M 47.765 286.904615 
L 65.4711 267.361331 
L 83.1772 283.173137 
L 100.8833 275.307502 
L 118.5894 266.73047 
L 136.2955 268.649899 
L 154.0016 244.006033 
L 171.7077 254.086394 
L 189.4138 252.032739 
L 207.1199 242.636929 
L 224.826 236.314892 
L 242.5321 239.496044 
L 260.2382 233.133739 
L 277.9443 232.744484 
L 295.6504 227.804973 
L 313.3565 218.543389 
L 331.0626 225.925811 
L 348.7687 215.509885 
L 366.4748 219.872225 
L 384.1809 218.315205 
L 401.887 210.530106 
L 419.5931 208.946241 
L 437.2992 209.429454 
L 455.0053 203.469826 
L 472.7114 188.423108 
L 490.4175 201.255099 
L 508.1236 187.362724 
L 525.8297 196.58404 
L 543.5358 193.389464 
L 561.2419 176.302513 
L 578.948 180.705121 
L 596.6541 186.141268 
L 614.3602 174.409929 
L 632.0663 172.168357 
L 649.7724 168.181849 
L 667.4785 168.691908 
L 685.1846 161.725586 
L 702.8907 162.772548 
L 720.5968 157.296133 
L 738.3029 152.692186 
L 756.009 146.705713 
L 773.7151 154.772687 
L 791.4212 153.497541 
L 809.1273 144.732593 
L 826.8334 147.927168 
L 844.5395 148.021127 
L 862.2456 142.504444 
L 879.9517 151.202279 
L 897.6578 138.182372 
L 915.3639 144.262803 
L 933.07 130.612034 
" clip-path="url(#p55e7c3b34f)" style="fill: none; stroke: #ff7f0e; stroke-width: 1.5; stroke-linecap: square"/>
   </g>
   <g id="line2d_15">
    <path d="M 47.765 202.718161 
L 65.4711 200.664506 
L 83.1772 197.617579 
L 100.8833 194.839104 
L 118.5894 190.812328 
L 136.2955 188.69156 
L 154.0016 185.926507 
L 171.7077 184.611094 
L 189.4138 180.678276 
L 207.1199 178.302479 
L 224.826 176.933375 
L 242.5321 175.121326 
L 260.2382 171.87306 
L 277.9443 169.336192 
L 295.6504 167.658369 
L 313.3565 165.134923 
L 331.0626 162.651744 
L 348.7687 159.98065 
L 366.4748 157.658543 
L 384.1809 155.645155 
L 401.887 153.618345 
L 419.5931 151.886831 
L 437.2992 150.745911 
L 455.0053 149.631837 
L 472.7114 147.927168 
L 490.4175 146.826516 
L 508.1236 145.430568 
L 525.8297 144.813129 
L 543.5358 144.034619 
L 561.2419 143.10846 
L 578.948 142.168879 
L 596.6541 140.960847 
L 614.3602 140.168914 
L 632.0663 139.47094 
L 649.7724 138.705852 
L 667.4785 137.940765 
L 685.1846 137.148833 
L 702.8907 136.3569 
L 720.5968 135.739461 
L 738.3029 135.202558 
L 756.009 134.410625 
L 773.7151 133.618693 
L 791.4212 132.920718 
L 809.1273 132.437505 
L 826.8334 131.873757 
L 844.5395 131.256318 
L 862.2456 130.316737 
L 879.9517 129.779833 
L 897.6578 129.108704 
L 915.3639 127.846981 
L 933.07 126.746329 
" clip-path="url(#p55e7c3b34f)" style="fill: none; stroke: #2ca02c; stroke-width: 1.5; stroke-linecap: square"/>
   </g>
   <g id="line2d_16">
    <path d="M 47.765 203.69801 
L 65.4711 200.651083 
L 83.1772 198.073947 
L 100.8833 196.181362 
L 118.5894 194.986752 
L 136.2955 191.926403 
L 154.0016 190.020396 
L 171.7077 187.738556 
L 189.4138 186.77213 
L 207.1199 184.705052 
L 224.826 182.436635 
L 242.5321 181.32256 
L 260.2382 179.926611 
L 277.9443 177.295785 
L 295.6504 175.268974 
L 313.3565 173.698532 
L 331.0626 172.839487 
L 348.7687 170.57107 
L 366.4748 169.832827 
L 384.1809 167.161733 
L 401.887 165.926855 
L 419.5931 162.584631 
L 437.2992 160.316215 
L 455.0053 159.027646 
L 472.7114 158.06122 
L 490.4175 156.705539 
L 508.1236 153.510964 
L 525.8297 152.812989 
L 543.5358 151.376773 
L 561.2419 150.450614 
L 578.948 149.188891 
L 596.6541 148.021127 
L 614.3602 146.544642 
L 632.0663 145.470835 
L 649.7724 144.625213 
L 667.4785 143.229264 
L 685.1846 141.725934 
L 702.8907 140.960847 
L 720.5968 139.860195 
L 738.3029 138.464246 
L 756.009 137.833384 
L 773.7151 136.652197 
L 791.4212 135.766306 
L 809.1273 135.054909 
L 826.8334 134.625387 
L 844.5395 134.195864 
L 862.2456 133.122057 
L 879.9517 132.531463 
L 897.6578 131.484502 
L 915.3639 130.732837 
L 933.07 129.726143 
" clip-path="url(#p55e7c3b34f)" style="fill: none; stroke: #d62728; stroke-width: 1.5; stroke-linecap: square"/>
   </g>
   <g id="line2d_17">
    <path d="M 47.765 217.697766 
L 65.4711 214.288429 
L 83.1772 212.113971 
L 100.8833 209.805286 
L 118.5894 207.174459 
L 136.2955 203.483248 
L 154.0016 200.503435 
L 171.7077 199.053795 
L 189.4138 197.201479 
L 207.1199 195.040442 
L 224.826 192.235122 
L 242.5321 190.77206 
L 260.2382 189.953283 
L 277.9443 188.906321 
L 295.6504 187.899627 
L 313.3565 186.960046 
L 331.0626 183.939964 
L 348.7687 181.309138 
L 366.4748 179.940034 
L 384.1809 178.557508 
L 401.887 176.705191 
L 419.5931 175.872991 
L 437.2992 171.967018 
L 455.0053 169.456995 
L 472.7114 167.483875 
L 490.4175 165.48391 
L 508.1236 163.859777 
L 525.8297 162.611477 
L 543.5358 161.202105 
L 561.2419 159.484014 
L 578.948 158.638391 
L 596.6541 157.685388 
L 614.3602 155.739113 
L 632.0663 153.819683 
L 649.7724 152.208973 
L 667.4785 150.638531 
L 685.1846 148.074817 
L 702.8907 146.987587 
L 720.5968 145.739287 
L 738.3029 145.054735 
L 756.009 142.504444 
L 773.7151 140.155492 
L 791.4212 138.705852 
L 809.1273 136.611929 
L 826.8334 135.16229 
L 844.5395 133.565002 
L 862.2456 132.813338 
L 879.9517 131.820066 
L 897.6578 129.202662 
L 915.3639 128.195968 
L 933.07 126.222848 
" clip-path="url(#p55e7c3b34f)" style="fill: none; stroke: #9467bd; stroke-width: 1.5; stroke-linecap: square"/>
   </g>
   <g id="line2d_18">
    <path d="M 47.765 175.899836 
L 65.4711 173.295854 
L 83.1772 170.745563 
L 100.8833 167.443607 
L 118.5894 164.960429 
L 136.2955 161.980615 
L 154.0016 159.349788 
L 171.7077 157.524317 
L 189.4138 154.611616 
L 207.1199 151.980789 
L 224.826 150.16874 
L 242.5321 147.162081 
L 260.2382 145.846668 
L 277.9443 144.141999 
L 295.6504 143.014502 
L 313.3565 142.235992 
L 331.0626 141.014537 
L 348.7687 138.63874 
L 366.4748 137.1891 
L 384.1809 135.202558 
L 401.887 133.994525 
L 419.5931 132.867028 
L 437.2992 132.034828 
L 455.0053 131.21605 
L 472.7114 130.222779 
L 490.4175 129.350311 
L 508.1236 128.437575 
L 525.8297 127.497994 
L 543.5358 125.243 
L 561.2419 124.330264 
L 578.948 123.336992 
L 596.6541 120.290066 
L 614.3602 117.40421 
L 632.0663 114.853919 
L 649.7724 111.511695 
L 667.4785 109.377504 
L 685.1846 105.833941 
L 702.8907 103.498412 
L 720.5968 102.50514 
L 738.3029 99.458213 
L 756.009 97.766968 
L 773.7151 96.142835 
L 791.4212 94.478434 
L 809.1273 93.47174 
L 826.8334 92.008679 
L 844.5395 90.277165 
L 862.2456 89.404697 
L 879.9517 87.163125 
L 897.6578 86.116164 
L 915.3639 84.773905 
L 933.07 83.257153 
" clip-path="url(#p55e7c3b34f)" style="fill: none; stroke: #8c564b; stroke-width: 1.5; stroke-linecap: square"/>
   </g>
   <g id="line2d_19">
    <path d="M 47.765 173.644842 
L 65.4711 170.530802 
L 83.1772 167.618101 
L 100.8833 164.141651 
L 118.5894 161.940347 
L 136.2955 158.356517 
L 154.0016 156.423665 
L 171.7077 154.47739 
L 189.4138 151.846563 
L 207.1199 149.739217 
L 224.826 147.618449 
L 242.5321 145.229229 
L 260.2382 143.725899 
L 277.9443 140.692395 
L 295.6504 137.887075 
L 313.3565 135.658926 
L 331.0626 132.195899 
L 348.7687 130.893908 
L 366.4748 129.108704 
L 384.1809 127.846981 
L 401.887 124.746364 
L 419.5931 122.102115 
L 437.2992 120.397446 
L 455.0053 117.310252 
L 472.7114 114.947877 
L 490.4175 112.719728 
L 508.1236 111.578808 
L 525.8297 107.753371 
L 543.5358 106.86748 
L 561.2419 103.874244 
L 578.948 102.894395 
L 596.6541 101.61925 
L 614.3602 100.612556 
L 632.0663 98.840775 
L 649.7724 96.800542 
L 667.4785 93.538853 
L 685.1846 91.216746 
L 702.8907 89.189936 
L 720.5968 87.069167 
L 738.3029 85.05578 
L 756.009 84.290692 
L 773.7151 80.304184 
L 791.4212 79.673323 
L 809.1273 79.270645 
L 826.8334 78.277374 
L 844.5395 76.38479 
L 862.2456 75.700238 
L 879.9517 74.988841 
L 897.6578 73.472089 
L 915.3639 72.398282 
L 933.07 71.740575 
" clip-path="url(#p55e7c3b34f)" style="fill: none; stroke: #e377c2; stroke-width: 1.5; stroke-linecap: square"/>
   </g>
   <g id="line2d_20">
    <path d="M 47.765 174.960255 
L 65.4711 171.658299 
L 83.1772 168.611372 
L 100.8833 165.698671 
L 118.5894 163.470522 
L 136.2955 161.349754 
L 154.0016 159.591395 
L 171.7077 157.833036 
L 189.4138 156.168636 
L 207.1199 154.396855 
L 224.826 151.497576 
L 242.5321 149.712372 
L 260.2382 147.77952 
L 277.9443 146.101697 
L 295.6504 144.209112 
L 313.3565 142.27626 
L 331.0626 141.350102 
L 348.7687 139.739392 
L 366.4748 138.410556 
L 384.1809 136.41059 
L 401.887 135.5247 
L 419.5931 133.940835 
L 437.2992 133.122057 
L 455.0053 131.645573 
L 472.7114 129.377156 
L 490.4175 127.591952 
L 508.1236 126.719484 
L 525.8297 124.491335 
L 543.5358 121.001463 
L 561.2419 119.967924 
L 578.948 119.149146 
L 596.6541 118.088762 
L 614.3602 116.102219 
L 632.0663 115.296864 
L 649.7724 111.860682 
L 667.4785 111.095595 
L 685.1846 109.20301 
L 702.8907 108.397655 
L 720.5968 107.941287 
L 738.3029 107.511765 
L 756.009 105.61918 
L 773.7151 103.377608 
L 791.4212 100.47833 
L 809.1273 99.189762 
L 826.8334 95.498551 
L 844.5395 92.988527 
L 862.2456 92.491892 
L 879.9517 91.337549 
L 897.6578 91.042253 
L 915.3639 89.216781 
L 933.07 86.961787 
" clip-path="url(#p55e7c3b34f)" style="fill: none; stroke: #7f7f7f; stroke-width: 1.5; stroke-linecap: square"/>
   </g>
   <g id="line2d_21">
    <path d="M 47.765 173.201896 
L 65.4711 169.618066 
L 83.1772 167.765749 
L 100.8833 165.336261 
L 118.5894 163.698706 
L 136.2955 162.235644 
L 154.0016 160.39675 
L 171.7077 157.859881 
L 189.4138 156.584736 
L 207.1199 155.510929 
L 224.826 154.356587 
L 242.5321 150.437192 
L 260.2382 148.732524 
L 277.9443 147.645294 
L 295.6504 143.913815 
L 313.3565 142.960812 
L 331.0626 141.564863 
L 348.7687 137.350171 
L 366.4748 134.960951 
L 384.1809 131.981137 
L 401.887 130.705992 
L 419.5931 129.565072 
L 437.2992 125.108774 
L 455.0053 122.719554 
L 472.7114 120.665898 
L 490.4175 118.169297 
L 508.1236 116.276713 
L 525.8297 115.578738 
L 543.5358 114.558622 
L 561.2419 112.585502 
L 578.948 111.672766 
L 596.6541 110.169436 
L 614.3602 108.8406 
L 632.0663 107.256735 
L 649.7724 106.666142 
L 667.4785 104.142696 
L 685.1846 103.404453 
L 702.8907 100.129343 
L 720.5968 97.834081 
L 738.3029 96.371019 
L 756.009 95.095873 
L 773.7151 92.63954 
L 791.4212 92.263708 
L 809.1273 90.142939 
L 826.8334 89.807375 
L 844.5395 88.585919 
L 862.2456 87.780564 
L 879.9517 86.196699 
L 897.6578 84.022241 
L 915.3639 82.30415 
L 933.07 81.096117 
" clip-path="url(#p55e7c3b34f)" style="fill: none; stroke: #bcbd22; stroke-width: 1.5; stroke-linecap: square"/>
   </g>
   <g id="line2d_22">
    <path d="M 47.765 150.11505 
L 65.4711 147.242617 
L 83.1772 142.423909 
L 100.8833 138.249485 
L 118.5894 133.497889 
L 136.2955 131.511347 
L 154.0016 128.450997 
L 171.7077 125.753058 
L 189.4138 124.263151 
L 207.1199 121.793395 
L 224.826 118.988075 
L 242.5321 116.719658 
L 260.2382 115.243174 
L 277.9443 112.947912 
L 295.6504 111.337201 
L 313.3565 109.444617 
L 331.0626 107.270158 
L 348.7687 105.189657 
L 366.4748 103.968202 
L 384.1809 102.531985 
L 401.887 100.907853 
L 419.5931 99.458213 
L 437.2992 97.995152 
L 455.0053 96.102567 
L 472.7114 94.907957 
L 490.4175 93.847573 
L 508.1236 92.075792 
L 525.8297 90.787223 
L 543.5358 89.928178 
L 561.2419 87.793987 
L 578.948 86.760448 
L 596.6541 85.257118 
L 614.3602 84.062508 
L 632.0663 82.586024 
L 649.7724 81.539062 
L 667.4785 80.599481 
L 685.1846 79.713591 
L 702.8907 78.666629 
L 720.5968 77.821006 
L 738.3029 76.43848 
L 756.009 75.552589 
L 773.7151 74.532473 
L 791.4212 73.619737 
L 809.1273 72.948608 
L 826.8334 72.089562 
L 844.5395 71.243939 
L 862.2456 70.237246 
L 879.9517 69.002368 
L 897.6578 68.264126 
L 915.3639 67.646687 
L 933.07 66.948712 
" clip-path="url(#p55e7c3b34f)" style="fill: none; stroke: #17becf; stroke-width: 1.5; stroke-linecap: square"/>
   </g>
   <g id="line2d_23">
    <path d="M 47.765 162.450406 
L 65.4711 158.624969 
L 83.1772 153.64519 
L 100.8833 149.712372 
L 118.5894 144.222535 
L 136.2955 139.484362 
L 154.0016 136.30321 
L 171.7077 133.390509 
L 189.4138 130.397272 
L 207.1199 128.075165 
L 224.826 125.726213 
L 242.5321 123.283302 
L 260.2382 121.40414 
L 277.9443 119.524978 
L 295.6504 117.055223 
L 313.3565 114.813651 
L 331.0626 111.59223 
L 348.7687 109.310391 
L 366.4748 107.981555 
L 384.1809 106.250042 
L 401.887 103.941357 
L 419.5931 101.525292 
L 437.2992 99.901159 
L 455.0053 97.753545 
L 472.7114 96.813964 
L 490.4175 95.189831 
L 508.1236 93.485163 
L 525.8297 92.760343 
L 543.5358 91.283859 
L 561.2419 89.874488 
L 578.948 88.357736 
L 596.6541 86.693335 
L 614.3602 85.847712 
L 632.0663 85.082625 
L 649.7724 83.928282 
L 667.4785 82.894743 
L 685.1846 82.062543 
L 702.8907 81.21692 
L 720.5968 80.210226 
L 738.3029 79.096152 
L 756.009 77.659935 
L 773.7151 76.747199 
L 791.4212 75.780773 
L 809.1273 74.639853 
L 826.8334 73.63316 
L 844.5395 72.733846 
L 862.2456 71.941914 
L 879.9517 71.082868 
L 897.6578 70.196978 
L 915.3639 69.002368 
L 933.07 68.452042 
" clip-path="url(#p55e7c3b34f)" style="fill: none; stroke: #9edae5; stroke-width: 1.5; stroke-linecap: square"/>
   </g>
   <g id="patch_3">
    <path d="M 47.765 606.04 
L 47.765 30.748 
" style="fill: none; stroke: #000000; stroke-width: 0.8; stroke-linejoin: miter; stroke-linecap: square"/>
   </g>
   <g id="patch_4">
    <path d="M 933.07 606.04 
L 933.07 30.748 
" style="fill: none; stroke: #000000; stroke-width: 0.8; stroke-linejoin: miter; stroke-linecap: square"/>
   </g>
   <g id="patch_5">
    <path d="M 47.765 606.04 
L 933.07 606.04 
" style="fill: none; stroke: #000000; stroke-width: 0.8; stroke-linejoin: miter; stroke-linecap: square"/>
   </g>
   <g id="patch_6">
    <path d="M 47.765 30.748 
L 933.07 30.748 
" style="fill: none; stroke: #000000; stroke-width: 0.8; stroke-linejoin: miter; stroke-linecap: square"/>
   </g>
   <g id="text_15">
    <!-- Aggregated NMF remaining preys by Number of Baits for Each Method -->
    <g transform="translate(278.836875 24.748) scale(0.12 -0.12)">
     <defs>
      <path id="DejaVuSans-45" d="M 628 4666 
L 3578 4666 
L 3578 4134 
L 1259 4134 
L 1259 2753 
L 3481 2753 
L 3481 2222 
L 1259 2222 
L 1259 531 
L 3634 531 
L 3634 0 
L 628 0 
L 628 4666 
z
" transform="scale(0.015625)"/>
      <path id="DejaVuSans-63" d="M 3122 3366 
L 3122 2828 
Q 2878 2963 2633 3030 
Q 2388 3097 2138 3097 
Q 1578 3097 1268 2742 
Q 959 2388 959 1747 
Q 959 1106 1268 751 
Q 1578 397 2138 397 
Q 2388 397 2633 464 
Q 2878 531 3122 666 
L 3122 134 
Q 2881 22 2623 -34 
Q 2366 -91 2075 -91 
Q 1284 -91 818 406 
Q 353 903 353 1747 
Q 353 2603 823 3093 
Q 1294 3584 2113 3584 
Q 2378 3584 2631 3529 
Q 2884 3475 3122 3366 
z
" transform="scale(0.015625)"/>
      <path id="DejaVuSans-68" d="M 3513 2113 
L 3513 0 
L 2938 0 
L 2938 2094 
Q 2938 2591 2744 2837 
Q 2550 3084 2163 3084 
Q 1697 3084 1428 2787 
Q 1159 2491 1159 1978 
L 1159 0 
L 581 0 
L 581 4863 
L 1159 4863 
L 1159 2956 
Q 1366 3272 1645 3428 
Q 1925 3584 2291 3584 
Q 2894 3584 3203 3211 
Q 3513 2838 3513 2113 
z
" transform="scale(0.015625)"/>
     </defs>
     <use xlink:href="#DejaVuSans-41"/>
     <use xlink:href="#DejaVuSans-67" x="68.408203"/>
     <use xlink:href="#DejaVuSans-67" x="131.884766"/>
     <use xlink:href="#DejaVuSans-72" x="195.361328"/>
     <use xlink:href="#DejaVuSans-65" x="234.224609"/>
     <use xlink:href="#DejaVuSans-67" x="295.748047"/>
     <use xlink:href="#DejaVuSans-61" x="359.224609"/>
     <use xlink:href="#DejaVuSans-74" x="420.503906"/>
     <use xlink:href="#DejaVuSans-65" x="459.712891"/>
     <use xlink:href="#DejaVuSans-64" x="521.236328"/>
     <use xlink:href="#DejaVuSans-20" x="584.712891"/>
     <use xlink:href="#DejaVuSans-4e" x="616.5"/>
     <use xlink:href="#DejaVuSans-4d" x="691.304688"/>
     <use xlink:href="#DejaVuSans-46" x="777.583984"/>
     <use xlink:href="#DejaVuSans-20" x="835.103516"/>
     <use xlink:href="#DejaVuSans-72" x="866.890625"/>
     <use xlink:href="#DejaVuSans-65" x="905.753906"/>
     <use xlink:href="#DejaVuSans-6d" x="967.277344"/>
     <use xlink:href="#DejaVuSans-61" x="1064.689453"/>
     <use xlink:href="#DejaVuSans-69" x="1125.96875"/>
     <use xlink:href="#DejaVuSans-6e" x="1153.751953"/>
     <use xlink:href="#DejaVuSans-69" x="1217.130859"/>
     <use xlink:href="#DejaVuSans-6e" x="1244.914062"/>
     <use xlink:href="#DejaVuSans-67" x="1308.292969"/>
     <use xlink:href="#DejaVuSans-20" x="1371.769531"/>
     <use xlink:href="#DejaVuSans-70" x="1403.556641"/>
     <use xlink:href="#DejaVuSans-72" x="1467.033203"/>
     <use xlink:href="#DejaVuSans-65" x="1505.896484"/>
     <use xlink:href="#DejaVuSans-79" x="1567.419922"/>
     <use xlink:href="#DejaVuSans-73" x="1626.599609"/>
     <use xlink:href="#DejaVuSans-20" x="1678.699219"/>
     <use xlink:href="#DejaVuSans-62" x="1710.486328"/>
     <use xlink:href="#DejaVuSans-79" x="1773.962891"/>
     <use xlink:href="#DejaVuSans-20" x="1833.142578"/>
     <use xlink:href="#DejaVuSans-4e" x="1864.929688"/>
     <use xlink:href="#DejaVuSans-75" x="1939.734375"/>
     <use xlink:href="#DejaVuSans-6d" x="2003.113281"/>
     <use xlink:href="#DejaVuSans-62" x="2100.525391"/>
     <use xlink:href="#DejaVuSans-65" x="2164.001953"/>
     <use xlink:href="#DejaVuSans-72" x="2225.525391"/>
     <use xlink:href="#DejaVuSans-20" x="2266.638672"/>
     <use xlink:href="#DejaVuSans-6f" x="2298.425781"/>
     <use xlink:href="#DejaVuSans-66" x="2359.607422"/>
     <use xlink:href="#DejaVuSans-20" x="2394.8125"/>
     <use xlink:href="#DejaVuSans-42" x="2426.599609"/>
     <use xlink:href="#DejaVuSans-61" x="2495.203125"/>
     <use xlink:href="#DejaVuSans-69" x="2556.482422"/>
     <use xlink:href="#DejaVuSans-74" x="2584.265625"/>
     <use xlink:href="#DejaVuSans-73" x="2623.474609"/>
     <use xlink:href="#DejaVuSans-20" x="2675.574219"/>
     <use xlink:href="#DejaVuSans-66" x="2707.361328"/>
     <use xlink:href="#DejaVuSans-6f" x="2742.566406"/>
     <use xlink:href="#DejaVuSans-72" x="2803.748047"/>
     <use xlink:href="#DejaVuSans-20" x="2844.861328"/>
     <use xlink:href="#DejaVuSans-45" x="2876.648438"/>
     <use xlink:href="#DejaVuSans-61" x="2939.832031"/>
     <use xlink:href="#DejaVuSans-63" x="3001.111328"/>
     <use xlink:href="#DejaVuSans-68" x="3056.091797"/>
     <use xlink:href="#DejaVuSans-20" x="3119.470703"/>
     <use xlink:href="#DejaVuSans-4d" x="3151.257812"/>
     <use xlink:href="#DejaVuSans-65" x="3237.537109"/>
     <use xlink:href="#DejaVuSans-74" x="3299.060547"/>
     <use xlink:href="#DejaVuSans-68" x="3338.269531"/>
     <use xlink:href="#DejaVuSans-6f" x="3401.648438"/>
     <use xlink:href="#DejaVuSans-64" x="3462.830078"/>
    </g>
   </g>
   <g id="legend_1">
    <g id="patch_7">
     <path d="M 940.07 172.555275 
L 1067.18875 172.555275 
Q 1069.18875 172.555275 1069.18875 170.555275 
L 1069.18875 8.9834 
Q 1069.18875 6.9834 1067.18875 6.9834 
L 940.07 6.9834 
Q 938.07 6.9834 938.07 8.9834 
L 938.07 170.555275 
Q 938.07 172.555275 940.07 172.555275 
z
" style="fill: #ffffff; opacity: 0.8; stroke: #cccccc; stroke-linejoin: miter"/>
    </g>
    <g id="line2d_24">
     <path d="M 942.07 15.081838 
L 952.07 15.081838 
L 962.07 15.081838 
" style="fill: none; stroke: #1f77b4; stroke-width: 1.5; stroke-linecap: square"/>
    </g>
    <g id="text_16">
     <!-- GA -->
     <g transform="translate(970.07 18.581838) scale(0.1 -0.1)">
      <defs>
       <path id="DejaVuSans-47" d="M 3809 666 
L 3809 1919 
L 2778 1919 
L 2778 2438 
L 4434 2438 
L 4434 434 
Q 4069 175 3628 42 
Q 3188 -91 2688 -91 
Q 1594 -91 976 548 
Q 359 1188 359 2328 
Q 359 3472 976 4111 
Q 1594 4750 2688 4750 
Q 3144 4750 3555 4637 
Q 3966 4525 4313 4306 
L 4313 3634 
Q 3963 3931 3569 4081 
Q 3175 4231 2741 4231 
Q 1884 4231 1454 3753 
Q 1025 3275 1025 2328 
Q 1025 1384 1454 906 
Q 1884 428 2741 428 
Q 3075 428 3337 486 
Q 3600 544 3809 666 
z
" transform="scale(0.015625)"/>
      </defs>
      <use xlink:href="#DejaVuSans-47"/>
      <use xlink:href="#DejaVuSans-41" x="77.490234"/>
     </g>
    </g>
    <g id="line2d_25">
     <path d="M 942.07 29.759963 
L 952.07 29.759963 
L 962.07 29.759963 
" style="fill: none; stroke: #ff7f0e; stroke-width: 1.5; stroke-linecap: square"/>
    </g>
    <g id="text_17">
     <!-- Random -->
     <g transform="translate(970.07 33.259963) scale(0.1 -0.1)">
      <defs>
       <path id="DejaVuSans-52" d="M 2841 2188 
Q 3044 2119 3236 1894 
Q 3428 1669 3622 1275 
L 4263 0 
L 3584 0 
L 2988 1197 
Q 2756 1666 2539 1819 
Q 2322 1972 1947 1972 
L 1259 1972 
L 1259 0 
L 628 0 
L 628 4666 
L 2053 4666 
Q 2853 4666 3247 4331 
Q 3641 3997 3641 3322 
Q 3641 2881 3436 2590 
Q 3231 2300 2841 2188 
z
M 1259 4147 
L 1259 2491 
L 2053 2491 
Q 2509 2491 2742 2702 
Q 2975 2913 2975 3322 
Q 2975 3731 2742 3939 
Q 2509 4147 2053 4147 
L 1259 4147 
z
" transform="scale(0.015625)"/>
      </defs>
      <use xlink:href="#DejaVuSans-52"/>
      <use xlink:href="#DejaVuSans-61" x="67.232422"/>
      <use xlink:href="#DejaVuSans-6e" x="128.511719"/>
      <use xlink:href="#DejaVuSans-64" x="191.890625"/>
      <use xlink:href="#DejaVuSans-6f" x="255.367188"/>
      <use xlink:href="#DejaVuSans-6d" x="316.548828"/>
     </g>
    </g>
    <g id="line2d_26">
     <path d="M 942.07 44.438088 
L 952.07 44.438088 
L 962.07 44.438088 
" style="fill: none; stroke: #2ca02c; stroke-width: 1.5; stroke-linecap: square"/>
    </g>
    <g id="text_18">
     <!-- chi_2 -->
     <g transform="translate(970.07 47.938088) scale(0.1 -0.1)">
      <defs>
       <path id="DejaVuSans-5f" d="M 3263 -1063 
L 3263 -1509 
L -63 -1509 
L -63 -1063 
L 3263 -1063 
z
" transform="scale(0.015625)"/>
      </defs>
      <use xlink:href="#DejaVuSans-63"/>
      <use xlink:href="#DejaVuSans-68" x="54.980469"/>
      <use xlink:href="#DejaVuSans-69" x="118.359375"/>
      <use xlink:href="#DejaVuSans-5f" x="146.142578"/>
      <use xlink:href="#DejaVuSans-32" x="196.142578"/>
     </g>
    </g>
    <g id="line2d_27">
     <path d="M 942.07 59.394338 
L 952.07 59.394338 
L 962.07 59.394338 
" style="fill: none; stroke: #d62728; stroke-width: 1.5; stroke-linecap: square"/>
    </g>
    <g id="text_19">
     <!-- f_classif -->
     <g transform="translate(970.07 62.894338) scale(0.1 -0.1)">
      <defs>
       <path id="DejaVuSans-6c" d="M 603 4863 
L 1178 4863 
L 1178 0 
L 603 0 
L 603 4863 
z
" transform="scale(0.015625)"/>
      </defs>
      <use xlink:href="#DejaVuSans-66"/>
      <use xlink:href="#DejaVuSans-5f" x="35.205078"/>
      <use xlink:href="#DejaVuSans-63" x="85.205078"/>
      <use xlink:href="#DejaVuSans-6c" x="140.185547"/>
      <use xlink:href="#DejaVuSans-61" x="167.96875"/>
      <use xlink:href="#DejaVuSans-73" x="229.248047"/>
      <use xlink:href="#DejaVuSans-73" x="281.347656"/>
      <use xlink:href="#DejaVuSans-69" x="333.447266"/>
      <use xlink:href="#DejaVuSans-66" x="361.230469"/>
     </g>
    </g>
    <g id="line2d_28">
     <path d="M 942.07 74.350588 
L 952.07 74.350588 
L 962.07 74.350588 
" style="fill: none; stroke: #9467bd; stroke-width: 1.5; stroke-linecap: square"/>
    </g>
    <g id="text_20">
     <!-- mutual_info_classif -->
     <g transform="translate(970.07 77.850588) scale(0.1 -0.1)">
      <use xlink:href="#DejaVuSans-6d"/>
      <use xlink:href="#DejaVuSans-75" x="97.412109"/>
      <use xlink:href="#DejaVuSans-74" x="160.791016"/>
      <use xlink:href="#DejaVuSans-75" x="200"/>
      <use xlink:href="#DejaVuSans-61" x="263.378906"/>
      <use xlink:href="#DejaVuSans-6c" x="324.658203"/>
      <use xlink:href="#DejaVuSans-5f" x="352.441406"/>
      <use xlink:href="#DejaVuSans-69" x="402.441406"/>
      <use xlink:href="#DejaVuSans-6e" x="430.224609"/>
      <use xlink:href="#DejaVuSans-66" x="493.603516"/>
      <use xlink:href="#DejaVuSans-6f" x="528.808594"/>
      <use xlink:href="#DejaVuSans-5f" x="589.990234"/>
      <use xlink:href="#DejaVuSans-63" x="639.990234"/>
      <use xlink:href="#DejaVuSans-6c" x="694.970703"/>
      <use xlink:href="#DejaVuSans-61" x="722.753906"/>
      <use xlink:href="#DejaVuSans-73" x="784.033203"/>
      <use xlink:href="#DejaVuSans-73" x="836.132812"/>
      <use xlink:href="#DejaVuSans-69" x="888.232422"/>
      <use xlink:href="#DejaVuSans-66" x="916.015625"/>
     </g>
    </g>
    <g id="line2d_29">
     <path d="M 942.07 89.306838 
L 952.07 89.306838 
L 962.07 89.306838 
" style="fill: none; stroke: #8c564b; stroke-width: 1.5; stroke-linecap: square"/>
    </g>
    <g id="text_21">
     <!-- lasso -->
     <g transform="translate(970.07 92.806838) scale(0.1 -0.1)">
      <use xlink:href="#DejaVuSans-6c"/>
      <use xlink:href="#DejaVuSans-61" x="27.783203"/>
      <use xlink:href="#DejaVuSans-73" x="89.0625"/>
      <use xlink:href="#DejaVuSans-73" x="141.162109"/>
      <use xlink:href="#DejaVuSans-6f" x="193.261719"/>
     </g>
    </g>
    <g id="line2d_30">
     <path d="M 942.07 103.984963 
L 952.07 103.984963 
L 962.07 103.984963 
" style="fill: none; stroke: #e377c2; stroke-width: 1.5; stroke-linecap: square"/>
    </g>
    <g id="text_22">
     <!-- ridge -->
     <g transform="translate(970.07 107.484963) scale(0.1 -0.1)">
      <use xlink:href="#DejaVuSans-72"/>
      <use xlink:href="#DejaVuSans-69" x="41.113281"/>
      <use xlink:href="#DejaVuSans-64" x="68.896484"/>
      <use xlink:href="#DejaVuSans-67" x="132.373047"/>
      <use xlink:href="#DejaVuSans-65" x="195.849609"/>
     </g>
    </g>
    <g id="line2d_31">
     <path d="M 942.07 118.663088 
L 952.07 118.663088 
L 962.07 118.663088 
" style="fill: none; stroke: #7f7f7f; stroke-width: 1.5; stroke-linecap: square"/>
    </g>
    <g id="text_23">
     <!-- elastic_net -->
     <g transform="translate(970.07 122.163088) scale(0.1 -0.1)">
      <use xlink:href="#DejaVuSans-65"/>
      <use xlink:href="#DejaVuSans-6c" x="61.523438"/>
      <use xlink:href="#DejaVuSans-61" x="89.306641"/>
      <use xlink:href="#DejaVuSans-73" x="150.585938"/>
      <use xlink:href="#DejaVuSans-74" x="202.685547"/>
      <use xlink:href="#DejaVuSans-69" x="241.894531"/>
      <use xlink:href="#DejaVuSans-63" x="269.677734"/>
      <use xlink:href="#DejaVuSans-5f" x="324.658203"/>
      <use xlink:href="#DejaVuSans-6e" x="374.658203"/>
      <use xlink:href="#DejaVuSans-65" x="438.037109"/>
      <use xlink:href="#DejaVuSans-74" x="499.560547"/>
     </g>
    </g>
    <g id="line2d_32">
     <path d="M 942.07 133.619338 
L 952.07 133.619338 
L 962.07 133.619338 
" style="fill: none; stroke: #bcbd22; stroke-width: 1.5; stroke-linecap: square"/>
    </g>
    <g id="text_24">
     <!-- rf -->
     <g transform="translate(970.07 137.119338) scale(0.1 -0.1)">
      <use xlink:href="#DejaVuSans-72"/>
      <use xlink:href="#DejaVuSans-66" x="41.113281"/>
     </g>
    </g>
    <g id="line2d_33">
     <path d="M 942.07 148.297463 
L 952.07 148.297463 
L 962.07 148.297463 
" style="fill: none; stroke: #17becf; stroke-width: 1.5; stroke-linecap: square"/>
    </g>
    <g id="text_25">
     <!-- gbm -->
     <g transform="translate(970.07 151.797463) scale(0.1 -0.1)">
      <use xlink:href="#DejaVuSans-67"/>
      <use xlink:href="#DejaVuSans-62" x="63.476562"/>
      <use xlink:href="#DejaVuSans-6d" x="126.953125"/>
     </g>
    </g>
    <g id="line2d_34">
     <path d="M 942.07 162.975588 
L 952.07 162.975588 
L 962.07 162.975588 
" style="fill: none; stroke: #9edae5; stroke-width: 1.5; stroke-linecap: square"/>
    </g>
    <g id="text_26">
     <!-- xgb -->
     <g transform="translate(970.07 166.475588) scale(0.1 -0.1)">
      <defs>
       <path id="DejaVuSans-78" d="M 3513 3500 
L 2247 1797 
L 3578 0 
L 2900 0 
L 1881 1375 
L 863 0 
L 184 0 
L 1544 1831 
L 300 3500 
L 978 3500 
L 1906 2253 
L 2834 3500 
L 3513 3500 
z
" transform="scale(0.015625)"/>
      </defs>
      <use xlink:href="#DejaVuSans-78"/>
      <use xlink:href="#DejaVuSans-67" x="59.179688"/>
      <use xlink:href="#DejaVuSans-62" x="122.65625"/>
     </g>
    </g>
   </g>
  </g>
 </g>
 <defs>
  <clipPath id="p55e7c3b34f">
   <rect x="47.765" y="30.748" width="885.305" height="575.292"/>
  </clipPath>
 </defs>
</svg>
